G04 EAGLE Gerber RS-274X export*
G75*
%MOMM*%
%FSLAX34Y34*%
%LPD*%
%INTop Copper*%
%IPPOS*%
%AMOC8*
5,1,8,0,0,1.08239X$1,22.5*%
G01*
%ADD10R,1.100000X1.000000*%
%ADD11R,1.000000X1.100000*%
%ADD12R,1.270000X0.635000*%
%ADD13C,1.408000*%
%ADD14C,0.152400*%
%ADD15C,0.756400*%


D10*
X390Y40640D03*
X17390Y40640D03*
X38490Y40640D03*
X55490Y40640D03*
D11*
X76590Y40640D03*
X93590Y40640D03*
X114690Y40640D03*
X131690Y40640D03*
D12*
X89350Y93980D03*
X89350Y106680D03*
X89350Y81280D03*
X89350Y68580D03*
X37350Y93980D03*
X37350Y106680D03*
X37350Y81280D03*
X37350Y68580D03*
D13*
X77470Y22280D02*
X77470Y8200D01*
X52070Y8200D02*
X52070Y22280D01*
X102870Y22280D02*
X102870Y8200D01*
X128270Y8200D02*
X128270Y22280D01*
X26670Y22280D02*
X26670Y8200D01*
X1270Y8200D02*
X1270Y22280D01*
D12*
X287470Y95250D03*
X287470Y107950D03*
X287470Y82550D03*
X287470Y69850D03*
X235470Y95250D03*
X235470Y107950D03*
X235470Y82550D03*
X235470Y69850D03*
D11*
X270900Y43180D03*
X287900Y43180D03*
X307730Y43180D03*
X324730Y43180D03*
D10*
X194700Y43180D03*
X211700Y43180D03*
X232800Y43180D03*
X249800Y43180D03*
D13*
X274320Y23550D02*
X274320Y9470D01*
X248920Y9470D02*
X248920Y23550D01*
X299720Y23550D02*
X299720Y9470D01*
X325120Y9470D02*
X325120Y23550D01*
X223520Y23550D02*
X223520Y9470D01*
X198120Y9470D02*
X198120Y23550D01*
D12*
X483050Y95250D03*
X483050Y107950D03*
X483050Y82550D03*
X483050Y69850D03*
X431050Y95250D03*
X431050Y107950D03*
X431050Y82550D03*
X431050Y69850D03*
D11*
X471560Y40640D03*
X488560Y40640D03*
X510930Y36830D03*
X527930Y36830D03*
D10*
X392820Y39370D03*
X409820Y39370D03*
X436000Y40640D03*
X453000Y40640D03*
D13*
X473710Y21010D02*
X473710Y6930D01*
X448310Y6930D02*
X448310Y21010D01*
X499110Y21010D02*
X499110Y6930D01*
X524510Y6930D02*
X524510Y21010D01*
X422910Y21010D02*
X422910Y6930D01*
X397510Y6930D02*
X397510Y21010D01*
D12*
X681170Y91440D03*
X681170Y104140D03*
X681170Y78740D03*
X681170Y66040D03*
X629170Y91440D03*
X629170Y104140D03*
X629170Y78740D03*
X629170Y66040D03*
D11*
X698890Y38100D03*
X715890Y38100D03*
X660790Y38100D03*
X677790Y38100D03*
D10*
X585860Y39370D03*
X602860Y39370D03*
X623960Y39370D03*
X640960Y39370D03*
D13*
X660400Y19740D02*
X660400Y5660D01*
X635000Y5660D02*
X635000Y19740D01*
X685800Y19740D02*
X685800Y5660D01*
X711200Y5660D02*
X711200Y19740D01*
X609600Y19740D02*
X609600Y5660D01*
X584200Y5660D02*
X584200Y19740D01*
D12*
X86810Y-64770D03*
X86810Y-52070D03*
X86810Y-77470D03*
X86810Y-90170D03*
X34810Y-64770D03*
X34810Y-52070D03*
X34810Y-77470D03*
X34810Y-90170D03*
D11*
X74050Y-110490D03*
X91050Y-110490D03*
X110880Y-110490D03*
X127880Y-110490D03*
D10*
X2930Y-110490D03*
X19930Y-110490D03*
X38490Y-110490D03*
X55490Y-110490D03*
D13*
X74930Y-132660D02*
X74930Y-146740D01*
X49530Y-146740D02*
X49530Y-132660D01*
X100330Y-132660D02*
X100330Y-146740D01*
X125730Y-146740D02*
X125730Y-132660D01*
X24130Y-132660D02*
X24130Y-146740D01*
X-1270Y-146740D02*
X-1270Y-132660D01*
D12*
X295090Y-63500D03*
X295090Y-50800D03*
X295090Y-76200D03*
X295090Y-88900D03*
X243090Y-63500D03*
X243090Y-50800D03*
X243090Y-76200D03*
X243090Y-88900D03*
D11*
X315350Y-110490D03*
X332350Y-110490D03*
X273440Y-110490D03*
X290440Y-110490D03*
D10*
X194700Y-111760D03*
X211700Y-111760D03*
X232800Y-110490D03*
X249800Y-110490D03*
D13*
X281940Y-133930D02*
X281940Y-148010D01*
X256540Y-148010D02*
X256540Y-133930D01*
X307340Y-133930D02*
X307340Y-148010D01*
X332740Y-148010D02*
X332740Y-133930D01*
X231140Y-133930D02*
X231140Y-148010D01*
X205740Y-148010D02*
X205740Y-133930D01*
D12*
X485590Y-64770D03*
X485590Y-52070D03*
X485590Y-77470D03*
X485590Y-90170D03*
X433590Y-64770D03*
X433590Y-52070D03*
X433590Y-77470D03*
X433590Y-90170D03*
D11*
X474100Y-114300D03*
X491100Y-114300D03*
X512200Y-114300D03*
X529200Y-114300D03*
D10*
X397900Y-114300D03*
X414900Y-114300D03*
X436000Y-114300D03*
X453000Y-114300D03*
D13*
X476250Y-137740D02*
X476250Y-151820D01*
X450850Y-151820D02*
X450850Y-137740D01*
X501650Y-137740D02*
X501650Y-151820D01*
X527050Y-151820D02*
X527050Y-137740D01*
X425450Y-137740D02*
X425450Y-151820D01*
X400050Y-151820D02*
X400050Y-137740D01*
D12*
X679900Y-67310D03*
X679900Y-54610D03*
X679900Y-80010D03*
X679900Y-92710D03*
X627900Y-67310D03*
X627900Y-54610D03*
X627900Y-80010D03*
X627900Y-92710D03*
D11*
X673490Y-116840D03*
X690490Y-116840D03*
X711590Y-116840D03*
X728590Y-116840D03*
D10*
X597290Y-116840D03*
X614290Y-116840D03*
X635390Y-115570D03*
X652390Y-115570D03*
D13*
X670560Y-141550D02*
X670560Y-155630D01*
X645160Y-155630D02*
X645160Y-141550D01*
X695960Y-141550D02*
X695960Y-155630D01*
X721360Y-155630D02*
X721360Y-141550D01*
X619760Y-141550D02*
X619760Y-155630D01*
X594360Y-155630D02*
X594360Y-141550D01*
D12*
X89350Y-222250D03*
X89350Y-209550D03*
X89350Y-234950D03*
X89350Y-247650D03*
X37350Y-222250D03*
X37350Y-209550D03*
X37350Y-234950D03*
X37350Y-247650D03*
D11*
X80400Y-279400D03*
X97400Y-279400D03*
X118500Y-279400D03*
X135500Y-279400D03*
D10*
X4200Y-279400D03*
X21200Y-279400D03*
X42300Y-279400D03*
X59300Y-279400D03*
D13*
X81280Y-306650D02*
X81280Y-320730D01*
X55880Y-320730D02*
X55880Y-306650D01*
X106680Y-306650D02*
X106680Y-320730D01*
X132080Y-320730D02*
X132080Y-306650D01*
X30480Y-306650D02*
X30480Y-320730D01*
X5080Y-320730D02*
X5080Y-306650D01*
D12*
X292550Y-222250D03*
X292550Y-209550D03*
X292550Y-234950D03*
X292550Y-247650D03*
X240550Y-222250D03*
X240550Y-209550D03*
X240550Y-234950D03*
X240550Y-247650D03*
D11*
X270900Y-279400D03*
X287900Y-279400D03*
X309000Y-279400D03*
X326000Y-279400D03*
D10*
X194700Y-279400D03*
X211700Y-279400D03*
X232800Y-279400D03*
X249800Y-279400D03*
D13*
X274320Y-307920D02*
X274320Y-322000D01*
X248920Y-322000D02*
X248920Y-307920D01*
X299720Y-307920D02*
X299720Y-322000D01*
X325120Y-322000D02*
X325120Y-307920D01*
X223520Y-307920D02*
X223520Y-322000D01*
X198120Y-322000D02*
X198120Y-307920D01*
D12*
X488130Y-227330D03*
X488130Y-214630D03*
X488130Y-240030D03*
X488130Y-252730D03*
X436130Y-227330D03*
X436130Y-214630D03*
X436130Y-240030D03*
X436130Y-252730D03*
D11*
X474100Y-279400D03*
X491100Y-279400D03*
X512200Y-279400D03*
X529200Y-279400D03*
D10*
X397900Y-279400D03*
X414900Y-279400D03*
X436000Y-279400D03*
X453000Y-279400D03*
D13*
X474980Y-307920D02*
X474980Y-322000D01*
X449580Y-322000D02*
X449580Y-307920D01*
X500380Y-307920D02*
X500380Y-322000D01*
X525780Y-322000D02*
X525780Y-307920D01*
X424180Y-307920D02*
X424180Y-322000D01*
X398780Y-322000D02*
X398780Y-307920D01*
D12*
X686250Y-232410D03*
X686250Y-219710D03*
X686250Y-245110D03*
X686250Y-257810D03*
X634250Y-232410D03*
X634250Y-219710D03*
X634250Y-245110D03*
X634250Y-257810D03*
D11*
X664600Y-283210D03*
X681600Y-283210D03*
X705240Y-285750D03*
X722240Y-285750D03*
D10*
X588400Y-281940D03*
X605400Y-281940D03*
X627770Y-281940D03*
X644770Y-281940D03*
D13*
X673100Y-309190D02*
X673100Y-323270D01*
X647700Y-323270D02*
X647700Y-309190D01*
X698500Y-309190D02*
X698500Y-323270D01*
X723900Y-323270D02*
X723900Y-309190D01*
X622300Y-309190D02*
X622300Y-323270D01*
X596900Y-323270D02*
X596900Y-309190D01*
D14*
X295656Y-278892D02*
X288036Y-278892D01*
X295656Y-278892D02*
X303276Y-271272D01*
X316992Y-271272D01*
X324612Y-278892D01*
X288036Y-278892D02*
X287900Y-279400D01*
X324612Y-278892D02*
X326000Y-279400D01*
X195072Y-280416D02*
X195072Y-310896D01*
X198120Y-313944D01*
X195072Y-280416D02*
X194700Y-279400D01*
X198120Y-313944D02*
X198120Y-314960D01*
X195072Y-254508D02*
X239268Y-210312D01*
X195072Y-254508D02*
X195072Y-278892D01*
X239268Y-210312D02*
X240550Y-209550D01*
X195072Y-278892D02*
X194700Y-279400D01*
X286512Y-280416D02*
X286512Y-323088D01*
X277368Y-332232D01*
X214884Y-332232D01*
X198120Y-315468D01*
X286512Y-280416D02*
X287900Y-279400D01*
X198120Y-314960D02*
X198120Y-315468D01*
X97536Y-109728D02*
X91440Y-109728D01*
X97536Y-109728D02*
X105156Y-102108D01*
X118872Y-102108D01*
X126492Y-109728D01*
X91440Y-109728D02*
X91050Y-110490D01*
X126492Y-109728D02*
X127880Y-110490D01*
X1524Y-111252D02*
X1524Y-137160D01*
X0Y-138684D01*
X1524Y-111252D02*
X2930Y-110490D01*
X0Y-138684D02*
X-1270Y-139700D01*
X39624Y-57912D02*
X35052Y-53340D01*
X39624Y-57912D02*
X41148Y-57912D01*
X44196Y-60960D01*
X44196Y-68580D01*
X41148Y-71628D01*
X27432Y-71628D01*
X3048Y-96012D01*
X3048Y-109728D01*
X35052Y-53340D02*
X34810Y-52070D01*
X3048Y-109728D02*
X2930Y-110490D01*
X89916Y-109728D02*
X89916Y-106680D01*
X77724Y-94488D01*
X77724Y-73152D01*
X79248Y-71628D01*
X92964Y-71628D01*
X96012Y-68580D01*
X96012Y-47244D01*
X94488Y-45720D01*
X59436Y-45720D01*
X44196Y-60960D01*
X89916Y-109728D02*
X91050Y-110490D01*
X94488Y41148D02*
X100584Y41148D01*
X108204Y48768D01*
X123444Y48768D01*
X131064Y41148D01*
X94488Y41148D02*
X93590Y40640D01*
X131064Y41148D02*
X131690Y40640D01*
X0Y39624D02*
X0Y15240D01*
X0Y39624D02*
X390Y40640D01*
X0Y15240D02*
X1270Y15240D01*
X1524Y71628D02*
X36576Y106680D01*
X1524Y71628D02*
X1524Y41148D01*
X36576Y106680D02*
X37350Y106680D01*
X1524Y41148D02*
X390Y40640D01*
X92964Y39624D02*
X92964Y9144D01*
X82296Y-1524D01*
X18288Y-1524D01*
X1524Y15240D01*
X92964Y39624D02*
X93590Y40640D01*
X1524Y15240D02*
X1270Y15240D01*
X291084Y-109728D02*
X301752Y-109728D01*
X309372Y-102108D01*
X324612Y-102108D01*
X332232Y-109728D01*
X291084Y-109728D02*
X290440Y-110490D01*
X332232Y-109728D02*
X332350Y-110490D01*
X195072Y-112776D02*
X195072Y-129540D01*
X205740Y-140208D01*
X195072Y-112776D02*
X194700Y-111760D01*
X205740Y-140208D02*
X205740Y-140970D01*
X236220Y-57912D02*
X242316Y-51816D01*
X236220Y-57912D02*
X234696Y-57912D01*
X195072Y-97536D01*
X195072Y-111252D01*
X242316Y-51816D02*
X243090Y-50800D01*
X195072Y-111252D02*
X194700Y-111760D01*
X309372Y-102108D02*
X309372Y-77724D01*
X301752Y-70104D01*
X288036Y-70104D01*
X284988Y-67056D01*
X284988Y-59436D01*
X288036Y-56388D01*
X303276Y-56388D01*
X304800Y-54864D01*
X304800Y-47244D01*
X301752Y-44196D01*
X249936Y-44196D01*
X243840Y-50292D01*
X243090Y-50800D01*
X492252Y-278892D02*
X498348Y-278892D01*
X505968Y-271272D01*
X521208Y-271272D01*
X528828Y-278892D01*
X492252Y-278892D02*
X491100Y-279400D01*
X528828Y-278892D02*
X529200Y-279400D01*
X397764Y-280416D02*
X397764Y-313944D01*
X397764Y-280416D02*
X397900Y-279400D01*
X397764Y-313944D02*
X398780Y-314960D01*
X429768Y-220980D02*
X435864Y-214884D01*
X429768Y-220980D02*
X428244Y-220980D01*
X399288Y-249936D01*
X399288Y-278892D01*
X435864Y-214884D02*
X436130Y-214630D01*
X399288Y-278892D02*
X397900Y-279400D01*
X490728Y-280416D02*
X490728Y-320040D01*
X478536Y-332232D01*
X416052Y-332232D01*
X398780Y-314960D01*
X490728Y-280416D02*
X491100Y-279400D01*
X105156Y-278892D02*
X97536Y-278892D01*
X105156Y-278892D02*
X112776Y-271272D01*
X126492Y-271272D01*
X134112Y-278892D01*
X97536Y-278892D02*
X97400Y-279400D01*
X134112Y-278892D02*
X135500Y-279400D01*
X4572Y-280416D02*
X4572Y-312420D01*
X4572Y-280416D02*
X4200Y-279400D01*
X4572Y-312420D02*
X5080Y-313690D01*
X30480Y-216408D02*
X36576Y-210312D01*
X30480Y-216408D02*
X28956Y-216408D01*
X4572Y-240792D01*
X4572Y-278892D01*
X36576Y-210312D02*
X37350Y-209550D01*
X4572Y-278892D02*
X4200Y-279400D01*
X96012Y-280416D02*
X96012Y-320040D01*
X85344Y-330708D01*
X22860Y-330708D01*
X6096Y-313944D01*
X96012Y-280416D02*
X97400Y-279400D01*
X6096Y-313944D02*
X5080Y-313690D01*
X288036Y44196D02*
X294132Y44196D01*
X301752Y51816D01*
X316992Y51816D01*
X324612Y44196D01*
X288036Y44196D02*
X287900Y43180D01*
X324612Y44196D02*
X324730Y43180D01*
X195072Y42672D02*
X195072Y19812D01*
X198120Y16764D01*
X195072Y42672D02*
X194700Y43180D01*
X198120Y16764D02*
X198120Y16510D01*
X230124Y102108D02*
X234696Y106680D01*
X230124Y102108D02*
X228600Y102108D01*
X195072Y68580D01*
X195072Y44196D01*
X234696Y106680D02*
X235470Y107950D01*
X195072Y44196D02*
X194700Y43180D01*
X286512Y42672D02*
X286512Y7620D01*
X278892Y0D01*
X213360Y0D01*
X198120Y15240D01*
X286512Y42672D02*
X287900Y43180D01*
X198120Y16510D02*
X198120Y15240D01*
X713232Y-277368D02*
X720852Y-284988D01*
X713232Y-277368D02*
X687324Y-277368D01*
X682752Y-281940D01*
X720852Y-284988D02*
X722240Y-285750D01*
X682752Y-281940D02*
X681600Y-283210D01*
X589788Y-281940D02*
X589788Y-309372D01*
X595884Y-315468D01*
X596900Y-316230D01*
X629412Y-225552D02*
X633984Y-220980D01*
X629412Y-225552D02*
X627888Y-225552D01*
X589788Y-263652D01*
X589788Y-281940D01*
X633984Y-220980D02*
X634250Y-219710D01*
X589788Y-281940D02*
X588400Y-281940D01*
X682752Y-283464D02*
X682752Y-327660D01*
X676656Y-333756D01*
X614172Y-333756D01*
X597408Y-316992D01*
X681600Y-283210D02*
X682752Y-283464D01*
X597408Y-316992D02*
X596900Y-316230D01*
X498348Y-114300D02*
X491100Y-114300D01*
X498348Y-114300D02*
X507492Y-105156D01*
X519684Y-105156D01*
X528828Y-114300D01*
X529200Y-114300D01*
X399288Y-114300D02*
X399288Y-144780D01*
X400050Y-144780D01*
X428244Y-57912D02*
X432816Y-53340D01*
X428244Y-57912D02*
X426720Y-57912D01*
X399288Y-85344D01*
X399288Y-114300D01*
X432816Y-53340D02*
X433590Y-52070D01*
X399288Y-114300D02*
X397900Y-114300D01*
X490728Y-114300D02*
X490728Y-150876D01*
X480060Y-161544D01*
X417576Y-161544D01*
X400812Y-144780D01*
X490728Y-114300D02*
X491100Y-114300D01*
X400812Y-144780D02*
X400050Y-144780D01*
X492252Y41148D02*
X501396Y41148D01*
X492252Y41148D02*
X489204Y41148D01*
X501396Y41148D02*
X505968Y45720D01*
X519684Y45720D01*
X527304Y38100D01*
X489204Y41148D02*
X488560Y40640D01*
X527304Y38100D02*
X527930Y36830D01*
X393192Y38100D02*
X393192Y18288D01*
X397510Y13970D01*
X393192Y38100D02*
X392820Y39370D01*
X425196Y102108D02*
X429768Y106680D01*
X425196Y102108D02*
X423672Y102108D01*
X393192Y71628D01*
X393192Y39624D01*
X429768Y106680D02*
X431050Y107950D01*
X393192Y39624D02*
X392820Y39370D01*
X492252Y41148D02*
X492252Y112776D01*
X490728Y114300D01*
X437388Y114300D01*
X431292Y108204D01*
X488560Y40640D02*
X492252Y41148D01*
X431050Y107950D02*
X431292Y108204D01*
X691896Y-115824D02*
X697992Y-115824D01*
X705612Y-108204D01*
X720852Y-108204D01*
X728472Y-115824D01*
X691896Y-115824D02*
X690490Y-116840D01*
X728472Y-115824D02*
X728590Y-116840D01*
X595884Y-117348D02*
X595884Y-146304D01*
X594360Y-147828D01*
X595884Y-117348D02*
X597290Y-116840D01*
X594360Y-147828D02*
X594360Y-148590D01*
X637032Y-62484D02*
X629412Y-54864D01*
X637032Y-62484D02*
X637032Y-71628D01*
X635508Y-73152D01*
X621792Y-73152D01*
X597408Y-97536D01*
X597408Y-115824D01*
X627900Y-54610D02*
X629412Y-54864D01*
X597408Y-115824D02*
X597290Y-116840D01*
X673608Y-99060D02*
X690372Y-115824D01*
X673608Y-99060D02*
X672084Y-99060D01*
X670560Y-97536D01*
X670560Y-76200D01*
X673608Y-73152D01*
X687324Y-73152D01*
X688848Y-71628D01*
X688848Y-50292D01*
X687324Y-48768D01*
X650748Y-48768D01*
X637032Y-62484D01*
X690372Y-115824D02*
X690490Y-116840D01*
X684276Y38100D02*
X677790Y38100D01*
X684276Y38100D02*
X693420Y47244D01*
X705612Y47244D01*
X714756Y38100D01*
X715890Y38100D01*
X585216Y38100D02*
X585216Y13716D01*
X585216Y38100D02*
X585860Y39370D01*
X585216Y13716D02*
X584200Y12700D01*
X586740Y62484D02*
X627888Y103632D01*
X586740Y62484D02*
X586740Y39624D01*
X627888Y103632D02*
X629170Y104140D01*
X586740Y39624D02*
X585860Y39370D01*
X693420Y47244D02*
X693420Y105156D01*
X688848Y109728D01*
X633984Y109728D01*
X629412Y105156D01*
X629170Y104140D01*
X231648Y-288036D02*
X231648Y-306324D01*
X231648Y-288036D02*
X231648Y-280416D01*
X231648Y-306324D02*
X224028Y-313944D01*
X231648Y-280416D02*
X232800Y-279400D01*
X224028Y-313944D02*
X223520Y-314960D01*
X202692Y-259080D02*
X239268Y-222504D01*
X202692Y-259080D02*
X202692Y-284988D01*
X205740Y-288036D01*
X231648Y-288036D01*
X239268Y-222504D02*
X240550Y-222250D01*
X38100Y-124968D02*
X38100Y-111252D01*
X38100Y-124968D02*
X24384Y-138684D01*
X38100Y-111252D02*
X38490Y-110490D01*
X24384Y-138684D02*
X24130Y-139700D01*
X28956Y-65532D02*
X33528Y-65532D01*
X28956Y-65532D02*
X-10668Y-105156D01*
X-10668Y-150876D01*
X-4572Y-156972D01*
X6096Y-156972D01*
X22860Y-140208D01*
X33528Y-65532D02*
X34810Y-64770D01*
X24130Y-139700D02*
X22860Y-140208D01*
X38100Y25908D02*
X38100Y39624D01*
X38100Y25908D02*
X27432Y15240D01*
X38100Y39624D02*
X38490Y40640D01*
X27432Y15240D02*
X26670Y15240D01*
X30480Y86868D02*
X36576Y92964D01*
X30480Y86868D02*
X28956Y86868D01*
X9144Y67056D01*
X9144Y32004D01*
X25908Y15240D01*
X36576Y92964D02*
X37350Y93980D01*
X26670Y15240D02*
X25908Y15240D01*
X41148Y-288036D02*
X41148Y-301752D01*
X41148Y-288036D02*
X41148Y-280416D01*
X41148Y-301752D02*
X30480Y-312420D01*
X41148Y-280416D02*
X42300Y-279400D01*
X30480Y-312420D02*
X30480Y-313690D01*
X12192Y-246888D02*
X36576Y-222504D01*
X12192Y-246888D02*
X12192Y-284988D01*
X15240Y-288036D01*
X41148Y-288036D01*
X36576Y-222504D02*
X37350Y-222250D01*
X231648Y-140208D02*
X231648Y-120396D01*
X231648Y-111252D01*
X232800Y-110490D01*
X231648Y-140208D02*
X231140Y-140970D01*
X202692Y-103632D02*
X242316Y-64008D01*
X202692Y-103632D02*
X202692Y-117348D01*
X205740Y-120396D01*
X231648Y-120396D01*
X242316Y-64008D02*
X243090Y-63500D01*
X435864Y-288036D02*
X435864Y-303276D01*
X435864Y-288036D02*
X435864Y-280416D01*
X435864Y-303276D02*
X424180Y-314960D01*
X435864Y-280416D02*
X436000Y-279400D01*
X431292Y-233172D02*
X435864Y-228600D01*
X431292Y-233172D02*
X429768Y-233172D01*
X406908Y-256032D01*
X406908Y-286512D01*
X408432Y-288036D01*
X435864Y-288036D01*
X435864Y-228600D02*
X436130Y-227330D01*
X231648Y24384D02*
X231648Y42672D01*
X231648Y24384D02*
X224028Y16764D01*
X231648Y42672D02*
X232800Y43180D01*
X224028Y16764D02*
X223520Y16510D01*
X228600Y88392D02*
X234696Y94488D01*
X228600Y88392D02*
X227076Y88392D01*
X202692Y64008D01*
X202692Y36576D01*
X222504Y16764D01*
X234696Y94488D02*
X235470Y95250D01*
X222504Y16764D02*
X223520Y16510D01*
X626364Y-289560D02*
X626364Y-312420D01*
X626364Y-289560D02*
X626364Y-281940D01*
X626364Y-312420D02*
X623316Y-315468D01*
X626364Y-281940D02*
X627770Y-281940D01*
X623316Y-315468D02*
X622300Y-316230D01*
X627888Y-239268D02*
X633984Y-233172D01*
X627888Y-239268D02*
X626364Y-239268D01*
X597408Y-268224D01*
X597408Y-288036D01*
X598932Y-289560D01*
X626364Y-289560D01*
X633984Y-233172D02*
X634250Y-232410D01*
X435864Y-135636D02*
X435864Y-121920D01*
X435864Y-114300D01*
X435864Y-135636D02*
X426720Y-144780D01*
X435864Y-114300D02*
X436000Y-114300D01*
X426720Y-144780D02*
X425450Y-144780D01*
X426720Y-71628D02*
X432816Y-65532D01*
X426720Y-71628D02*
X425196Y-71628D01*
X406908Y-89916D01*
X406908Y-120396D01*
X408432Y-121920D01*
X435864Y-121920D01*
X432816Y-65532D02*
X433590Y-64770D01*
X435864Y27432D02*
X435864Y39624D01*
X435864Y27432D02*
X423672Y15240D01*
X435864Y39624D02*
X436000Y40640D01*
X423672Y15240D02*
X422910Y13970D01*
X400812Y65532D02*
X429768Y94488D01*
X400812Y65532D02*
X400812Y33528D01*
X419100Y15240D01*
X422148Y15240D01*
X429768Y94488D02*
X431050Y95250D01*
X422148Y15240D02*
X422910Y13970D01*
X633984Y-115824D02*
X633984Y-134112D01*
X620268Y-147828D01*
X633984Y-115824D02*
X635390Y-115570D01*
X620268Y-147828D02*
X619760Y-148590D01*
X621792Y-68580D02*
X627888Y-68580D01*
X621792Y-68580D02*
X583692Y-106680D01*
X583692Y-158496D01*
X591312Y-166116D01*
X601980Y-166116D01*
X618744Y-149352D01*
X627888Y-68580D02*
X627900Y-67310D01*
X619760Y-148590D02*
X618744Y-149352D01*
X623316Y27432D02*
X623316Y38100D01*
X611124Y15240D02*
X609600Y13716D01*
X611124Y15240D02*
X623316Y27432D01*
X623316Y38100D02*
X623960Y39370D01*
X609600Y13716D02*
X609600Y12700D01*
X594360Y57912D02*
X627888Y91440D01*
X594360Y57912D02*
X594360Y32004D01*
X611124Y15240D01*
X627888Y91440D02*
X629170Y91440D01*
X611124Y15240D02*
X609600Y12700D01*
X452628Y18288D02*
X452628Y39624D01*
X452628Y18288D02*
X448310Y13970D01*
X452628Y39624D02*
X453000Y40640D01*
X409956Y39624D02*
X409956Y48768D01*
X429768Y68580D01*
X409956Y39624D02*
X409820Y39370D01*
X429768Y68580D02*
X431050Y69850D01*
X477012Y106680D02*
X481584Y106680D01*
X477012Y106680D02*
X440436Y70104D01*
X431292Y70104D01*
X481584Y106680D02*
X483050Y107950D01*
X431292Y70104D02*
X431050Y69850D01*
X452628Y57912D02*
X452628Y41148D01*
X452628Y57912D02*
X440436Y70104D01*
X452628Y41148D02*
X453000Y40640D01*
X54864Y39624D02*
X54864Y16764D01*
X53340Y15240D01*
X54864Y39624D02*
X55490Y40640D01*
X53340Y15240D02*
X52070Y15240D01*
X18288Y41148D02*
X18288Y50292D01*
X32004Y64008D02*
X36576Y68580D01*
X32004Y64008D02*
X18288Y50292D01*
X18288Y41148D02*
X17390Y40640D01*
X36576Y68580D02*
X37350Y68580D01*
X76200Y106680D02*
X89350Y106680D01*
X76200Y106680D02*
X38100Y68580D01*
X37350Y68580D01*
X32004Y64008D02*
X54864Y41148D01*
X55490Y40640D01*
X249936Y42672D02*
X249936Y16764D01*
X249936Y42672D02*
X249800Y43180D01*
X249936Y16764D02*
X248920Y16510D01*
X230124Y62484D02*
X236220Y68580D01*
X230124Y62484D02*
X211836Y44196D01*
X211700Y43180D01*
X236220Y68580D02*
X235470Y69850D01*
X272796Y106680D02*
X286512Y106680D01*
X272796Y106680D02*
X236220Y70104D01*
X286512Y106680D02*
X287470Y107950D01*
X236220Y70104D02*
X235470Y69850D01*
X230124Y62484D02*
X248412Y44196D01*
X249800Y43180D01*
X57912Y-280416D02*
X57912Y-310896D01*
X56388Y-312420D01*
X57912Y-280416D02*
X59300Y-279400D01*
X56388Y-312420D02*
X55880Y-313690D01*
X21336Y-278892D02*
X21336Y-263652D01*
X32004Y-252984D02*
X36576Y-248412D01*
X32004Y-252984D02*
X21336Y-263652D01*
X21336Y-278892D02*
X21200Y-279400D01*
X36576Y-248412D02*
X37350Y-247650D01*
X76200Y-210312D02*
X88392Y-210312D01*
X76200Y-210312D02*
X38100Y-248412D01*
X88392Y-210312D02*
X89350Y-209550D01*
X38100Y-248412D02*
X37350Y-247650D01*
X32004Y-252984D02*
X57912Y-278892D01*
X59300Y-279400D01*
X211836Y-278892D02*
X211836Y-275844D01*
X228600Y-259080D02*
X239268Y-248412D01*
X228600Y-259080D02*
X211836Y-275844D01*
X211836Y-278892D02*
X211700Y-279400D01*
X239268Y-248412D02*
X240550Y-247650D01*
X228600Y-259080D02*
X248412Y-278892D01*
X249800Y-279400D01*
X278892Y-210312D02*
X291084Y-210312D01*
X278892Y-210312D02*
X240792Y-248412D01*
X291084Y-210312D02*
X292550Y-209550D01*
X240550Y-247650D02*
X240792Y-248412D01*
X248412Y-280416D02*
X248412Y-313944D01*
X248920Y-314960D01*
X248412Y-280416D02*
X249800Y-279400D01*
X21336Y-109728D02*
X21336Y-103632D01*
X33528Y-91440D01*
X21336Y-109728D02*
X19930Y-110490D01*
X33528Y-91440D02*
X34810Y-90170D01*
X35052Y-89916D02*
X47244Y-102108D01*
X54864Y-109728D01*
X55490Y-110490D01*
X34810Y-90170D02*
X35052Y-89916D01*
X67056Y-71628D02*
X85344Y-53340D01*
X67056Y-71628D02*
X67056Y-82296D01*
X47244Y-102108D01*
X85344Y-53340D02*
X86810Y-52070D01*
X50292Y-115824D02*
X50292Y-138684D01*
X50292Y-115824D02*
X54864Y-111252D01*
X50292Y-138684D02*
X49530Y-139700D01*
X54864Y-111252D02*
X55490Y-110490D01*
X416052Y-272796D02*
X416052Y-278892D01*
X431292Y-257556D02*
X435864Y-252984D01*
X431292Y-257556D02*
X416052Y-272796D01*
X416052Y-278892D02*
X414900Y-279400D01*
X435864Y-252984D02*
X436130Y-252730D01*
X431292Y-257556D02*
X452628Y-278892D01*
X453000Y-279400D01*
X475488Y-214884D02*
X487680Y-214884D01*
X475488Y-214884D02*
X437388Y-252984D01*
X487680Y-214884D02*
X488130Y-214630D01*
X437388Y-252984D02*
X436130Y-252730D01*
X449580Y-283464D02*
X449580Y-314960D01*
X449580Y-283464D02*
X452628Y-280416D01*
X453000Y-279400D01*
X217932Y-111252D02*
X211836Y-111252D01*
X233172Y-96012D02*
X239268Y-89916D01*
X233172Y-96012D02*
X217932Y-111252D01*
X239268Y-89916D02*
X242316Y-89916D01*
X211836Y-111252D02*
X211700Y-111760D01*
X242316Y-89916D02*
X243090Y-88900D01*
X234696Y-96012D02*
X248412Y-109728D01*
X234696Y-96012D02*
X233172Y-96012D01*
X248412Y-109728D02*
X249800Y-110490D01*
X288036Y-51816D02*
X294132Y-51816D01*
X288036Y-51816D02*
X269748Y-70104D01*
X269748Y-79248D01*
X260604Y-88392D01*
X243840Y-88392D01*
X294132Y-51816D02*
X295090Y-50800D01*
X243840Y-88392D02*
X243090Y-88900D01*
X256032Y-117348D02*
X256032Y-140208D01*
X256032Y-117348D02*
X249936Y-111252D01*
X256032Y-140208D02*
X256540Y-140970D01*
X249936Y-111252D02*
X249800Y-110490D01*
X416052Y-108204D02*
X416052Y-114300D01*
X431292Y-92964D02*
X432816Y-91440D01*
X431292Y-92964D02*
X416052Y-108204D01*
X416052Y-114300D02*
X414900Y-114300D01*
X432816Y-91440D02*
X433590Y-90170D01*
X431292Y-92964D02*
X451104Y-112776D01*
X452628Y-114300D01*
X453000Y-114300D01*
X431292Y-92964D02*
X433590Y-90170D01*
X470916Y-53340D02*
X484632Y-53340D01*
X470916Y-53340D02*
X434340Y-89916D01*
X484632Y-53340D02*
X485590Y-52070D01*
X434340Y-89916D02*
X433590Y-90170D01*
X451104Y-112776D02*
X451104Y-144780D01*
X450850Y-144780D01*
X453000Y-114300D02*
X451104Y-112776D01*
X605400Y-281940D02*
X611124Y-281940D01*
X627888Y-265176D02*
X633984Y-259080D01*
X627888Y-265176D02*
X611124Y-281940D01*
X633984Y-259080D02*
X634250Y-257810D01*
X627888Y-265176D02*
X644652Y-281940D01*
X644770Y-281940D01*
X672084Y-220980D02*
X685800Y-220980D01*
X672084Y-220980D02*
X635508Y-257556D01*
X685800Y-220980D02*
X686250Y-219710D01*
X635508Y-257556D02*
X634250Y-257810D01*
X647700Y-283464D02*
X647700Y-316230D01*
X647700Y-283464D02*
X646176Y-281940D01*
X644770Y-281940D01*
X615696Y-115824D02*
X615696Y-105156D01*
X627888Y-92964D01*
X615696Y-115824D02*
X614290Y-116840D01*
X627888Y-92964D02*
X627900Y-92710D01*
X629412Y-91440D02*
X641604Y-103632D01*
X652272Y-114300D01*
X652390Y-115570D01*
X629412Y-91440D02*
X627900Y-92710D01*
X673608Y-60960D02*
X679704Y-54864D01*
X673608Y-60960D02*
X672084Y-60960D01*
X659892Y-73152D01*
X659892Y-85344D01*
X641604Y-103632D01*
X679704Y-54864D02*
X679900Y-54610D01*
X646176Y-121920D02*
X646176Y-147828D01*
X646176Y-121920D02*
X652272Y-115824D01*
X646176Y-147828D02*
X645160Y-148590D01*
X652272Y-115824D02*
X652390Y-115570D01*
X621792Y57912D02*
X629412Y65532D01*
X621792Y57912D02*
X603504Y39624D01*
X602860Y39370D01*
X629412Y65532D02*
X629170Y66040D01*
X621792Y57912D02*
X640080Y39624D01*
X640960Y39370D01*
X676656Y103632D02*
X679704Y103632D01*
X676656Y103632D02*
X640080Y67056D01*
X629412Y67056D01*
X679704Y103632D02*
X681170Y104140D01*
X629412Y67056D02*
X629170Y66040D01*
X635508Y33528D02*
X635508Y13716D01*
X635508Y33528D02*
X640080Y38100D01*
X635508Y13716D02*
X635000Y12700D01*
X640080Y38100D02*
X640960Y39370D01*
X249936Y-234696D02*
X240792Y-234696D01*
X249936Y-234696D02*
X281940Y-202692D01*
X298704Y-202692D01*
X336804Y-240792D01*
X336804Y-303276D01*
X325120Y-314960D01*
X240792Y-234696D02*
X240550Y-234950D01*
X60960Y-77724D02*
X35052Y-77724D01*
X34810Y-77470D01*
D15*
X60960Y-77724D03*
D14*
X47244Y82296D02*
X38100Y82296D01*
X47244Y82296D02*
X77724Y112776D01*
X96012Y112776D01*
X143256Y65532D01*
X143256Y28956D01*
X129540Y15240D01*
X38100Y82296D02*
X37350Y81280D01*
X128270Y15240D02*
X129540Y15240D01*
X243090Y-76200D02*
X263652Y-76200D01*
D15*
X263652Y-76200D03*
D14*
X437388Y-239268D02*
X446532Y-239268D01*
X477012Y-208788D01*
X495300Y-208788D01*
X541020Y-254508D01*
X541020Y-298704D01*
X525780Y-313944D01*
X437388Y-239268D02*
X436130Y-240030D01*
X525780Y-313944D02*
X525780Y-314960D01*
X47244Y-234696D02*
X38100Y-234696D01*
X47244Y-234696D02*
X79248Y-202692D01*
X96012Y-202692D01*
X146304Y-252984D01*
X146304Y-298704D01*
X132588Y-312420D01*
X38100Y-234696D02*
X37350Y-234950D01*
X132588Y-312420D02*
X132080Y-313690D01*
X236220Y83820D02*
X245364Y83820D01*
X275844Y114300D01*
X294132Y114300D01*
X335280Y73152D01*
X335280Y25908D01*
X326136Y16764D01*
X235470Y82550D02*
X236220Y83820D01*
X325120Y16510D02*
X326136Y16764D01*
X434340Y-76200D02*
X443484Y-76200D01*
X473964Y-45720D01*
X492252Y-45720D01*
X541020Y-94488D01*
X541020Y-131064D01*
X527304Y-144780D01*
X433590Y-77470D02*
X434340Y-76200D01*
X527050Y-144780D02*
X527304Y-144780D01*
X635508Y-243840D02*
X644652Y-243840D01*
X675132Y-213360D01*
X693420Y-213360D01*
X733044Y-252984D01*
X733044Y-306324D01*
X723900Y-315468D01*
X635508Y-243840D02*
X634250Y-245110D01*
X723900Y-315468D02*
X723900Y-316230D01*
X443484Y82296D02*
X431292Y82296D01*
X431050Y82550D01*
D15*
X443484Y82296D03*
D14*
X629412Y-80772D02*
X653796Y-80772D01*
X629412Y-80772D02*
X627900Y-80010D01*
D15*
X653796Y-80772D03*
D14*
X641604Y77724D02*
X629412Y77724D01*
X629170Y78740D01*
D15*
X641604Y77724D03*
D14*
X74676Y-111252D02*
X74676Y-138684D01*
X74676Y-111252D02*
X74050Y-110490D01*
X74676Y-138684D02*
X74930Y-139700D01*
X80772Y-65532D02*
X85344Y-65532D01*
X80772Y-65532D02*
X74676Y-71628D01*
X74676Y-109728D01*
X85344Y-65532D02*
X86810Y-64770D01*
X74676Y-109728D02*
X74050Y-110490D01*
X271272Y-280416D02*
X271272Y-310896D01*
X274320Y-313944D01*
X271272Y-280416D02*
X270900Y-279400D01*
X274320Y-313944D02*
X274320Y-314960D01*
X271272Y-242316D02*
X291084Y-222504D01*
X271272Y-242316D02*
X271272Y-278892D01*
X291084Y-222504D02*
X292550Y-222250D01*
X271272Y-278892D02*
X270900Y-279400D01*
X80772Y-280416D02*
X80772Y-312420D01*
X80772Y-280416D02*
X80400Y-279400D01*
X80772Y-312420D02*
X81280Y-313690D01*
X79248Y-231648D02*
X88392Y-222504D01*
X79248Y-231648D02*
X79248Y-278892D01*
X88392Y-222504D02*
X89350Y-222250D01*
X79248Y-278892D02*
X80400Y-279400D01*
X76200Y15240D02*
X76200Y39624D01*
X76590Y40640D01*
X76200Y15240D02*
X77470Y15240D01*
X82296Y86868D02*
X88392Y92964D01*
X82296Y86868D02*
X80772Y86868D01*
X77724Y83820D01*
X77724Y41148D01*
X88392Y92964D02*
X89350Y93980D01*
X77724Y41148D02*
X76590Y40640D01*
X310896Y-111252D02*
X313944Y-111252D01*
X310896Y-111252D02*
X281940Y-140208D01*
X313944Y-111252D02*
X315350Y-110490D01*
X281940Y-140208D02*
X281940Y-140970D01*
X295656Y-64008D02*
X300228Y-64008D01*
X339852Y-103632D01*
X339852Y-117348D01*
X338328Y-118872D01*
X323088Y-118872D01*
X315468Y-111252D01*
X295656Y-64008D02*
X295090Y-63500D01*
X315350Y-110490D02*
X315468Y-111252D01*
X473964Y-280416D02*
X473964Y-313944D01*
X473964Y-280416D02*
X474100Y-279400D01*
X473964Y-313944D02*
X474980Y-314960D01*
X483108Y-233172D02*
X487680Y-228600D01*
X483108Y-233172D02*
X481584Y-233172D01*
X475488Y-239268D01*
X475488Y-278892D01*
X487680Y-228600D02*
X488130Y-227330D01*
X475488Y-278892D02*
X474100Y-279400D01*
X271272Y19812D02*
X271272Y42672D01*
X271272Y19812D02*
X274320Y16764D01*
X271272Y42672D02*
X270900Y43180D01*
X274320Y16764D02*
X274320Y16510D01*
X271272Y79248D02*
X286512Y94488D01*
X271272Y79248D02*
X271272Y44196D01*
X286512Y94488D02*
X287470Y95250D01*
X271272Y44196D02*
X270900Y43180D01*
X475488Y-114300D02*
X475488Y-144780D01*
X476250Y-144780D01*
X475488Y-74676D02*
X484632Y-65532D01*
X475488Y-74676D02*
X475488Y-114300D01*
X484632Y-65532D02*
X485590Y-64770D01*
X475488Y-114300D02*
X474100Y-114300D01*
X665988Y-283464D02*
X665988Y-309372D01*
X672084Y-315468D01*
X665988Y-283464D02*
X664600Y-283210D01*
X672084Y-315468D02*
X673100Y-316230D01*
X679704Y-239268D02*
X685800Y-233172D01*
X679704Y-239268D02*
X678180Y-239268D01*
X665988Y-251460D01*
X665988Y-281940D01*
X685800Y-233172D02*
X686250Y-232410D01*
X665988Y-281940D02*
X664600Y-283210D01*
X472440Y15240D02*
X472440Y39624D01*
X471560Y40640D01*
X472440Y15240D02*
X473710Y13970D01*
X470916Y83820D02*
X481584Y94488D01*
X470916Y83820D02*
X470916Y41148D01*
X481584Y94488D02*
X483050Y95250D01*
X470916Y41148D02*
X471560Y40640D01*
X672084Y-117348D02*
X672084Y-146304D01*
X670560Y-147828D01*
X672084Y-117348D02*
X673490Y-116840D01*
X670560Y-147828D02*
X670560Y-148590D01*
X673608Y-68580D02*
X679704Y-68580D01*
X673608Y-68580D02*
X667512Y-74676D01*
X667512Y-111252D01*
X672084Y-115824D01*
X679704Y-68580D02*
X679900Y-67310D01*
X672084Y-115824D02*
X673490Y-116840D01*
X697992Y4572D02*
X697992Y38100D01*
X697992Y4572D02*
X688848Y-4572D01*
X678180Y-4572D01*
X661416Y12192D01*
X697992Y38100D02*
X698890Y38100D01*
X661416Y12192D02*
X660400Y12700D01*
X652272Y64008D02*
X679704Y91440D01*
X652272Y64008D02*
X652272Y21336D01*
X659892Y13716D01*
X679704Y91440D02*
X681170Y91440D01*
X659892Y13716D02*
X660400Y12700D01*
X109728Y-118872D02*
X109728Y-129540D01*
X109728Y-118872D02*
X109728Y-111252D01*
X109728Y-129540D02*
X100584Y-138684D01*
X109728Y-111252D02*
X110880Y-110490D01*
X100584Y-138684D02*
X100330Y-139700D01*
X109728Y-77724D02*
X86868Y-77724D01*
X109728Y-77724D02*
X135636Y-103632D01*
X135636Y-117348D01*
X134112Y-118872D01*
X109728Y-118872D01*
X86868Y-77724D02*
X86810Y-77470D01*
X307848Y-288036D02*
X307848Y-306324D01*
X307848Y-288036D02*
X307848Y-280416D01*
X307848Y-306324D02*
X300228Y-313944D01*
X307848Y-280416D02*
X309000Y-279400D01*
X300228Y-313944D02*
X299720Y-314960D01*
X297180Y-236220D02*
X292608Y-236220D01*
X297180Y-236220D02*
X333756Y-272796D01*
X333756Y-286512D01*
X332232Y-288036D01*
X307848Y-288036D01*
X292608Y-236220D02*
X292550Y-234950D01*
X117348Y-288036D02*
X117348Y-301752D01*
X117348Y-288036D02*
X117348Y-280416D01*
X117348Y-301752D02*
X106680Y-312420D01*
X117348Y-280416D02*
X118500Y-279400D01*
X106680Y-312420D02*
X106680Y-313690D01*
X106680Y-236220D02*
X89916Y-236220D01*
X106680Y-236220D02*
X143256Y-272796D01*
X143256Y-286512D01*
X141732Y-288036D01*
X117348Y-288036D01*
X89916Y-236220D02*
X89350Y-234950D01*
X114300Y25908D02*
X114300Y32004D01*
X114300Y39624D01*
X114300Y25908D02*
X103632Y15240D01*
X114300Y39624D02*
X114690Y40640D01*
X103632Y15240D02*
X102870Y15240D01*
X106680Y80772D02*
X89916Y80772D01*
X106680Y80772D02*
X140208Y47244D01*
X140208Y35052D01*
X137160Y32004D01*
X114300Y32004D01*
X89916Y80772D02*
X89350Y81280D01*
X512064Y-288036D02*
X512064Y-303276D01*
X512064Y-288036D02*
X512064Y-280416D01*
X512064Y-303276D02*
X500380Y-314960D01*
X512064Y-280416D02*
X512200Y-279400D01*
X504444Y-240792D02*
X489204Y-240792D01*
X504444Y-240792D02*
X537972Y-274320D01*
X537972Y-284988D01*
X534924Y-288036D01*
X512064Y-288036D01*
X489204Y-240792D02*
X488130Y-240030D01*
X306324Y22860D02*
X306324Y35052D01*
X306324Y42672D01*
X306324Y22860D02*
X300228Y16764D01*
X306324Y42672D02*
X307730Y43180D01*
X300228Y16764D02*
X299720Y16510D01*
X300228Y82296D02*
X288036Y82296D01*
X300228Y82296D02*
X332232Y50292D01*
X332232Y36576D01*
X330708Y35052D01*
X306324Y35052D01*
X288036Y82296D02*
X287470Y82550D01*
X512064Y-123444D02*
X512064Y-135636D01*
X512064Y-123444D02*
X512064Y-114300D01*
X512064Y-135636D02*
X502920Y-144780D01*
X512064Y-114300D02*
X512200Y-114300D01*
X502920Y-144780D02*
X501650Y-144780D01*
X507492Y-77724D02*
X486156Y-77724D01*
X507492Y-77724D02*
X537972Y-108204D01*
X537972Y-120396D01*
X534924Y-123444D01*
X512064Y-123444D01*
X486156Y-77724D02*
X485590Y-77470D01*
X704088Y-294132D02*
X704088Y-310896D01*
X704088Y-294132D02*
X704088Y-286512D01*
X704088Y-310896D02*
X699516Y-315468D01*
X704088Y-286512D02*
X705240Y-285750D01*
X699516Y-315468D02*
X698500Y-316230D01*
X696468Y-245364D02*
X687324Y-245364D01*
X696468Y-245364D02*
X729996Y-278892D01*
X729996Y-292608D01*
X728472Y-294132D01*
X704088Y-294132D01*
X687324Y-245364D02*
X686250Y-245110D01*
X510540Y25908D02*
X510540Y36576D01*
X510540Y25908D02*
X499872Y15240D01*
X510540Y36576D02*
X510930Y36830D01*
X499872Y15240D02*
X499110Y13970D01*
X473964Y74676D02*
X481584Y82296D01*
X473964Y74676D02*
X473964Y53340D01*
X480060Y47244D01*
X480060Y33528D01*
X498348Y15240D01*
X483050Y82550D02*
X481584Y82296D01*
X498348Y15240D02*
X499110Y13970D01*
X710184Y-124968D02*
X710184Y-134112D01*
X710184Y-124968D02*
X710184Y-117348D01*
X710184Y-134112D02*
X696468Y-147828D01*
X710184Y-117348D02*
X711590Y-116840D01*
X696468Y-147828D02*
X695960Y-148590D01*
X707136Y-80772D02*
X681228Y-80772D01*
X707136Y-80772D02*
X736092Y-109728D01*
X736092Y-123444D01*
X734568Y-124968D01*
X710184Y-124968D01*
X681228Y-80772D02*
X679900Y-80010D01*
X685800Y13716D02*
X661416Y38100D01*
X685800Y13716D02*
X685800Y12700D01*
X661416Y59436D02*
X679704Y77724D01*
X661416Y59436D02*
X661416Y38100D01*
X679704Y77724D02*
X681170Y78740D01*
X661416Y38100D02*
X660790Y38100D01*
X274320Y-96012D02*
X274320Y-109728D01*
X274320Y-96012D02*
X294132Y-76200D01*
X274320Y-109728D02*
X273440Y-110490D01*
X294132Y-76200D02*
X295090Y-76200D01*
X301752Y-141732D02*
X306324Y-141732D01*
X301752Y-141732D02*
X284988Y-158496D01*
X278892Y-158496D01*
X271272Y-150876D01*
X271272Y-112776D01*
X272796Y-111252D01*
X306324Y-141732D02*
X307340Y-140970D01*
X272796Y-111252D02*
X273440Y-110490D01*
M02*
