G04 EAGLE Gerber RS-274X export*
G75*
%MOMM*%
%FSLAX34Y34*%
%LPD*%
%INSoldermask Top*%
%IPPOS*%
%AMOC8*
5,1,8,0,0,1.08239X$1,22.5*%
G01*
%ADD10R,1.303200X1.203200*%
%ADD11R,1.203200X1.303200*%
%ADD12R,1.473200X0.838200*%
%ADD13C,1.611200*%
%ADD14C,0.959600*%


D10*
X390Y40640D03*
X17390Y40640D03*
X38490Y40640D03*
X55490Y40640D03*
D11*
X76590Y40640D03*
X93590Y40640D03*
X114690Y40640D03*
X131690Y40640D03*
D12*
X89350Y93980D03*
X89350Y106680D03*
X89350Y81280D03*
X89350Y68580D03*
X37350Y93980D03*
X37350Y106680D03*
X37350Y81280D03*
X37350Y68580D03*
D13*
X77470Y22280D02*
X77470Y8200D01*
X52070Y8200D02*
X52070Y22280D01*
X102870Y22280D02*
X102870Y8200D01*
X128270Y8200D02*
X128270Y22280D01*
X26670Y22280D02*
X26670Y8200D01*
X1270Y8200D02*
X1270Y22280D01*
D12*
X287470Y95250D03*
X287470Y107950D03*
X287470Y82550D03*
X287470Y69850D03*
X235470Y95250D03*
X235470Y107950D03*
X235470Y82550D03*
X235470Y69850D03*
D11*
X270900Y43180D03*
X287900Y43180D03*
X307730Y43180D03*
X324730Y43180D03*
D10*
X194700Y43180D03*
X211700Y43180D03*
X232800Y43180D03*
X249800Y43180D03*
D13*
X274320Y23550D02*
X274320Y9470D01*
X248920Y9470D02*
X248920Y23550D01*
X299720Y23550D02*
X299720Y9470D01*
X325120Y9470D02*
X325120Y23550D01*
X223520Y23550D02*
X223520Y9470D01*
X198120Y9470D02*
X198120Y23550D01*
D12*
X483050Y95250D03*
X483050Y107950D03*
X483050Y82550D03*
X483050Y69850D03*
X431050Y95250D03*
X431050Y107950D03*
X431050Y82550D03*
X431050Y69850D03*
D11*
X471560Y40640D03*
X488560Y40640D03*
X510930Y36830D03*
X527930Y36830D03*
D10*
X392820Y39370D03*
X409820Y39370D03*
X436000Y40640D03*
X453000Y40640D03*
D13*
X473710Y21010D02*
X473710Y6930D01*
X448310Y6930D02*
X448310Y21010D01*
X499110Y21010D02*
X499110Y6930D01*
X524510Y6930D02*
X524510Y21010D01*
X422910Y21010D02*
X422910Y6930D01*
X397510Y6930D02*
X397510Y21010D01*
D12*
X681170Y91440D03*
X681170Y104140D03*
X681170Y78740D03*
X681170Y66040D03*
X629170Y91440D03*
X629170Y104140D03*
X629170Y78740D03*
X629170Y66040D03*
D11*
X698890Y38100D03*
X715890Y38100D03*
X660790Y38100D03*
X677790Y38100D03*
D10*
X585860Y39370D03*
X602860Y39370D03*
X623960Y39370D03*
X640960Y39370D03*
D13*
X660400Y19740D02*
X660400Y5660D01*
X635000Y5660D02*
X635000Y19740D01*
X685800Y19740D02*
X685800Y5660D01*
X711200Y5660D02*
X711200Y19740D01*
X609600Y19740D02*
X609600Y5660D01*
X584200Y5660D02*
X584200Y19740D01*
D12*
X86810Y-64770D03*
X86810Y-52070D03*
X86810Y-77470D03*
X86810Y-90170D03*
X34810Y-64770D03*
X34810Y-52070D03*
X34810Y-77470D03*
X34810Y-90170D03*
D11*
X74050Y-110490D03*
X91050Y-110490D03*
X110880Y-110490D03*
X127880Y-110490D03*
D10*
X2930Y-110490D03*
X19930Y-110490D03*
X38490Y-110490D03*
X55490Y-110490D03*
D13*
X74930Y-132660D02*
X74930Y-146740D01*
X49530Y-146740D02*
X49530Y-132660D01*
X100330Y-132660D02*
X100330Y-146740D01*
X125730Y-146740D02*
X125730Y-132660D01*
X24130Y-132660D02*
X24130Y-146740D01*
X-1270Y-146740D02*
X-1270Y-132660D01*
D12*
X295090Y-63500D03*
X295090Y-50800D03*
X295090Y-76200D03*
X295090Y-88900D03*
X243090Y-63500D03*
X243090Y-50800D03*
X243090Y-76200D03*
X243090Y-88900D03*
D11*
X315350Y-110490D03*
X332350Y-110490D03*
X273440Y-110490D03*
X290440Y-110490D03*
D10*
X194700Y-111760D03*
X211700Y-111760D03*
X232800Y-110490D03*
X249800Y-110490D03*
D13*
X281940Y-133930D02*
X281940Y-148010D01*
X256540Y-148010D02*
X256540Y-133930D01*
X307340Y-133930D02*
X307340Y-148010D01*
X332740Y-148010D02*
X332740Y-133930D01*
X231140Y-133930D02*
X231140Y-148010D01*
X205740Y-148010D02*
X205740Y-133930D01*
D12*
X485590Y-64770D03*
X485590Y-52070D03*
X485590Y-77470D03*
X485590Y-90170D03*
X433590Y-64770D03*
X433590Y-52070D03*
X433590Y-77470D03*
X433590Y-90170D03*
D11*
X474100Y-114300D03*
X491100Y-114300D03*
X512200Y-114300D03*
X529200Y-114300D03*
D10*
X397900Y-114300D03*
X414900Y-114300D03*
X436000Y-114300D03*
X453000Y-114300D03*
D13*
X476250Y-137740D02*
X476250Y-151820D01*
X450850Y-151820D02*
X450850Y-137740D01*
X501650Y-137740D02*
X501650Y-151820D01*
X527050Y-151820D02*
X527050Y-137740D01*
X425450Y-137740D02*
X425450Y-151820D01*
X400050Y-151820D02*
X400050Y-137740D01*
D12*
X679900Y-67310D03*
X679900Y-54610D03*
X679900Y-80010D03*
X679900Y-92710D03*
X627900Y-67310D03*
X627900Y-54610D03*
X627900Y-80010D03*
X627900Y-92710D03*
D11*
X673490Y-116840D03*
X690490Y-116840D03*
X711590Y-116840D03*
X728590Y-116840D03*
D10*
X597290Y-116840D03*
X614290Y-116840D03*
X635390Y-115570D03*
X652390Y-115570D03*
D13*
X670560Y-141550D02*
X670560Y-155630D01*
X645160Y-155630D02*
X645160Y-141550D01*
X695960Y-141550D02*
X695960Y-155630D01*
X721360Y-155630D02*
X721360Y-141550D01*
X619760Y-141550D02*
X619760Y-155630D01*
X594360Y-155630D02*
X594360Y-141550D01*
D12*
X89350Y-222250D03*
X89350Y-209550D03*
X89350Y-234950D03*
X89350Y-247650D03*
X37350Y-222250D03*
X37350Y-209550D03*
X37350Y-234950D03*
X37350Y-247650D03*
D11*
X80400Y-279400D03*
X97400Y-279400D03*
X118500Y-279400D03*
X135500Y-279400D03*
D10*
X4200Y-279400D03*
X21200Y-279400D03*
X42300Y-279400D03*
X59300Y-279400D03*
D13*
X81280Y-306650D02*
X81280Y-320730D01*
X55880Y-320730D02*
X55880Y-306650D01*
X106680Y-306650D02*
X106680Y-320730D01*
X132080Y-320730D02*
X132080Y-306650D01*
X30480Y-306650D02*
X30480Y-320730D01*
X5080Y-320730D02*
X5080Y-306650D01*
D12*
X292550Y-222250D03*
X292550Y-209550D03*
X292550Y-234950D03*
X292550Y-247650D03*
X240550Y-222250D03*
X240550Y-209550D03*
X240550Y-234950D03*
X240550Y-247650D03*
D11*
X270900Y-279400D03*
X287900Y-279400D03*
X309000Y-279400D03*
X326000Y-279400D03*
D10*
X194700Y-279400D03*
X211700Y-279400D03*
X232800Y-279400D03*
X249800Y-279400D03*
D13*
X274320Y-307920D02*
X274320Y-322000D01*
X248920Y-322000D02*
X248920Y-307920D01*
X299720Y-307920D02*
X299720Y-322000D01*
X325120Y-322000D02*
X325120Y-307920D01*
X223520Y-307920D02*
X223520Y-322000D01*
X198120Y-322000D02*
X198120Y-307920D01*
D12*
X488130Y-227330D03*
X488130Y-214630D03*
X488130Y-240030D03*
X488130Y-252730D03*
X436130Y-227330D03*
X436130Y-214630D03*
X436130Y-240030D03*
X436130Y-252730D03*
D11*
X474100Y-279400D03*
X491100Y-279400D03*
X512200Y-279400D03*
X529200Y-279400D03*
D10*
X397900Y-279400D03*
X414900Y-279400D03*
X436000Y-279400D03*
X453000Y-279400D03*
D13*
X474980Y-307920D02*
X474980Y-322000D01*
X449580Y-322000D02*
X449580Y-307920D01*
X500380Y-307920D02*
X500380Y-322000D01*
X525780Y-322000D02*
X525780Y-307920D01*
X424180Y-307920D02*
X424180Y-322000D01*
X398780Y-322000D02*
X398780Y-307920D01*
D12*
X686250Y-232410D03*
X686250Y-219710D03*
X686250Y-245110D03*
X686250Y-257810D03*
X634250Y-232410D03*
X634250Y-219710D03*
X634250Y-245110D03*
X634250Y-257810D03*
D11*
X664600Y-283210D03*
X681600Y-283210D03*
X705240Y-285750D03*
X722240Y-285750D03*
D10*
X588400Y-281940D03*
X605400Y-281940D03*
X627770Y-281940D03*
X644770Y-281940D03*
D13*
X673100Y-309190D02*
X673100Y-323270D01*
X647700Y-323270D02*
X647700Y-309190D01*
X698500Y-309190D02*
X698500Y-323270D01*
X723900Y-323270D02*
X723900Y-309190D01*
X622300Y-309190D02*
X622300Y-323270D01*
X596900Y-323270D02*
X596900Y-309190D01*
D14*
X60960Y-77724D03*
X263652Y-76200D03*
X443484Y82296D03*
X653796Y-80772D03*
X641604Y77724D03*
M02*
