G04 EAGLE Gerber RS-274X export*
G75*
%MOMM*%
%FSLAX34Y34*%
%LPD*%
%INBottom Copper*%
%IPPOS*%
%AMOC8*
5,1,8,0,0,1.08239X$1,22.5*%
G01*
%ADD10R,1.100000X1.000000*%
%ADD11P,1.649562X8X202.500000*%
%ADD12R,1.800000X1.800000*%
%ADD13P,1.649562X8X22.500000*%
%ADD14C,0.330200*%
%ADD15C,0.756400*%

G36*
X309586Y10936D02*
X309586Y10936D01*
X309705Y10940D01*
X309766Y10956D01*
X309829Y10963D01*
X309941Y11001D01*
X310056Y11031D01*
X310112Y11060D01*
X310172Y11080D01*
X310273Y11142D01*
X310379Y11196D01*
X310427Y11237D01*
X310481Y11270D01*
X310566Y11353D01*
X310657Y11429D01*
X310696Y11479D01*
X310741Y11523D01*
X310806Y11622D01*
X310879Y11716D01*
X310905Y11774D01*
X310940Y11827D01*
X310982Y11937D01*
X311032Y12045D01*
X311045Y12107D01*
X311068Y12166D01*
X311084Y12283D01*
X311109Y12399D01*
X311109Y12463D01*
X311118Y12525D01*
X311108Y12644D01*
X311108Y12762D01*
X311094Y12813D01*
X311088Y12887D01*
X311010Y13141D01*
X310993Y13205D01*
X309839Y15990D01*
X309839Y24010D01*
X312909Y31420D01*
X318580Y37091D01*
X325990Y40161D01*
X334010Y40161D01*
X336795Y39007D01*
X336909Y38974D01*
X337020Y38932D01*
X337083Y38924D01*
X337144Y38906D01*
X337262Y38898D01*
X337380Y38882D01*
X337443Y38887D01*
X337506Y38883D01*
X337623Y38902D01*
X337741Y38912D01*
X337802Y38930D01*
X337864Y38940D01*
X337974Y38984D01*
X338088Y39019D01*
X338143Y39051D01*
X338201Y39074D01*
X338299Y39141D01*
X338402Y39200D01*
X338449Y39243D01*
X338501Y39279D01*
X338582Y39365D01*
X338669Y39445D01*
X338706Y39497D01*
X338749Y39544D01*
X338809Y39646D01*
X338877Y39743D01*
X338901Y39802D01*
X338933Y39856D01*
X338969Y39969D01*
X339014Y40079D01*
X339021Y40131D01*
X339044Y40202D01*
X339068Y40466D01*
X339077Y40532D01*
X339077Y437427D01*
X339060Y437584D01*
X339047Y437741D01*
X339040Y437764D01*
X339037Y437788D01*
X338986Y437936D01*
X338939Y438088D01*
X338927Y438108D01*
X338920Y438131D01*
X338837Y438265D01*
X338758Y438402D01*
X338742Y438420D01*
X338730Y438440D01*
X338620Y438553D01*
X338513Y438669D01*
X338494Y438683D01*
X338477Y438700D01*
X338345Y438787D01*
X338215Y438877D01*
X338193Y438886D01*
X338173Y438899D01*
X338026Y438954D01*
X337880Y439014D01*
X337859Y439017D01*
X337834Y439026D01*
X337475Y439077D01*
X337448Y439074D01*
X337427Y439077D01*
X12573Y439077D01*
X12416Y439060D01*
X12259Y439047D01*
X12236Y439040D01*
X12212Y439037D01*
X12064Y438986D01*
X11912Y438939D01*
X11892Y438927D01*
X11869Y438920D01*
X11735Y438837D01*
X11598Y438758D01*
X11580Y438742D01*
X11560Y438730D01*
X11447Y438620D01*
X11331Y438513D01*
X11317Y438494D01*
X11300Y438477D01*
X11213Y438345D01*
X11123Y438215D01*
X11114Y438193D01*
X11101Y438173D01*
X11046Y438026D01*
X10986Y437880D01*
X10983Y437859D01*
X10974Y437834D01*
X10923Y437475D01*
X10926Y437448D01*
X10923Y437427D01*
X10923Y40532D01*
X10936Y40414D01*
X10940Y40295D01*
X10956Y40234D01*
X10963Y40171D01*
X11001Y40059D01*
X11031Y39944D01*
X11060Y39888D01*
X11080Y39828D01*
X11142Y39727D01*
X11196Y39621D01*
X11237Y39573D01*
X11270Y39519D01*
X11353Y39434D01*
X11429Y39343D01*
X11479Y39304D01*
X11523Y39259D01*
X11622Y39194D01*
X11716Y39121D01*
X11774Y39095D01*
X11827Y39060D01*
X11937Y39018D01*
X12045Y38968D01*
X12107Y38955D01*
X12166Y38932D01*
X12283Y38916D01*
X12399Y38891D01*
X12463Y38891D01*
X12525Y38882D01*
X12644Y38892D01*
X12762Y38892D01*
X12813Y38906D01*
X12887Y38912D01*
X13141Y38990D01*
X13205Y39007D01*
X15990Y40161D01*
X24010Y40161D01*
X31420Y37091D01*
X37091Y31420D01*
X40161Y24010D01*
X40161Y15990D01*
X39007Y13205D01*
X38974Y13091D01*
X38932Y12980D01*
X38924Y12917D01*
X38906Y12856D01*
X38898Y12738D01*
X38882Y12620D01*
X38887Y12557D01*
X38883Y12494D01*
X38902Y12377D01*
X38912Y12259D01*
X38930Y12198D01*
X38940Y12136D01*
X38984Y12026D01*
X39019Y11912D01*
X39051Y11857D01*
X39074Y11799D01*
X39141Y11701D01*
X39200Y11598D01*
X39243Y11551D01*
X39279Y11499D01*
X39365Y11418D01*
X39445Y11331D01*
X39497Y11294D01*
X39544Y11251D01*
X39646Y11191D01*
X39743Y11123D01*
X39802Y11099D01*
X39856Y11067D01*
X39969Y11031D01*
X40079Y10986D01*
X40131Y10979D01*
X40202Y10956D01*
X40466Y10932D01*
X40532Y10923D01*
X309468Y10923D01*
X309586Y10936D01*
G37*
%LPC*%
G36*
X95205Y18541D02*
X95205Y18541D01*
X71558Y42188D01*
X71515Y42223D01*
X71477Y42263D01*
X71374Y42336D01*
X71275Y42415D01*
X71225Y42439D01*
X71179Y42471D01*
X71062Y42519D01*
X70949Y42574D01*
X70895Y42587D01*
X70844Y42608D01*
X70756Y42620D01*
X70596Y42658D01*
X70469Y42660D01*
X70391Y42671D01*
X68887Y42671D01*
X68832Y42665D01*
X68777Y42668D01*
X68652Y42645D01*
X68527Y42631D01*
X68474Y42613D01*
X68420Y42604D01*
X68303Y42555D01*
X68184Y42514D01*
X68136Y42485D01*
X68085Y42463D01*
X68015Y42410D01*
X67875Y42324D01*
X67784Y42236D01*
X67721Y42188D01*
X64488Y38955D01*
X56912Y38955D01*
X51555Y44312D01*
X51555Y51888D01*
X56912Y57245D01*
X64488Y57245D01*
X69845Y51888D01*
X69845Y50673D01*
X69862Y50516D01*
X69875Y50359D01*
X69882Y50336D01*
X69885Y50312D01*
X69936Y50164D01*
X69983Y50012D01*
X69995Y49992D01*
X70002Y49969D01*
X70085Y49835D01*
X70164Y49698D01*
X70180Y49680D01*
X70192Y49660D01*
X70302Y49547D01*
X70409Y49431D01*
X70428Y49417D01*
X70445Y49400D01*
X70577Y49313D01*
X70707Y49223D01*
X70729Y49214D01*
X70749Y49201D01*
X70896Y49146D01*
X71042Y49086D01*
X71063Y49083D01*
X71088Y49074D01*
X71447Y49023D01*
X71474Y49026D01*
X71495Y49023D01*
X73705Y49023D01*
X74138Y48590D01*
X74200Y48541D01*
X74255Y48484D01*
X74341Y48427D01*
X74421Y48363D01*
X74492Y48329D01*
X74559Y48285D01*
X74655Y48249D01*
X74747Y48204D01*
X74824Y48185D01*
X74898Y48158D01*
X75000Y48143D01*
X75100Y48119D01*
X75179Y48118D01*
X75258Y48107D01*
X75360Y48116D01*
X75463Y48114D01*
X75540Y48130D01*
X75619Y48137D01*
X75717Y48167D01*
X75818Y48188D01*
X75890Y48221D01*
X75966Y48245D01*
X76055Y48296D01*
X76148Y48338D01*
X76211Y48386D01*
X76280Y48425D01*
X76356Y48495D01*
X76438Y48557D01*
X76489Y48617D01*
X76547Y48671D01*
X76606Y48755D01*
X76673Y48833D01*
X76710Y48904D01*
X76755Y48968D01*
X76794Y49063D01*
X76841Y49155D01*
X76862Y49231D01*
X76892Y49304D01*
X76903Y49383D01*
X76936Y49505D01*
X76943Y49669D01*
X76955Y49757D01*
X76955Y51888D01*
X80305Y55237D01*
X80403Y55360D01*
X80506Y55481D01*
X80517Y55502D01*
X80532Y55521D01*
X80601Y55662D01*
X80674Y55802D01*
X80680Y55825D01*
X80691Y55846D01*
X80728Y56000D01*
X80769Y56152D01*
X80770Y56176D01*
X80775Y56199D01*
X80778Y56357D01*
X80784Y56515D01*
X80780Y56538D01*
X80781Y56562D01*
X80748Y56717D01*
X80720Y56872D01*
X80711Y56894D01*
X80706Y56917D01*
X80641Y57061D01*
X80580Y57206D01*
X80567Y57223D01*
X80556Y57247D01*
X80338Y57537D01*
X80317Y57555D01*
X80305Y57571D01*
X78383Y59493D01*
X71613Y66263D01*
X71599Y66332D01*
X71587Y66434D01*
X71562Y66509D01*
X71546Y66587D01*
X71503Y66680D01*
X71470Y66778D01*
X71428Y66845D01*
X71396Y66917D01*
X71334Y66999D01*
X71280Y67087D01*
X71225Y67143D01*
X71177Y67207D01*
X71099Y67273D01*
X71027Y67347D01*
X70961Y67390D01*
X70900Y67441D01*
X70809Y67489D01*
X70723Y67546D01*
X70649Y67573D01*
X70579Y67610D01*
X70480Y67637D01*
X70384Y67673D01*
X70306Y67684D01*
X70229Y67705D01*
X70126Y67709D01*
X70025Y67723D01*
X69946Y67717D01*
X69867Y67720D01*
X69765Y67702D01*
X69663Y67694D01*
X69587Y67670D01*
X69509Y67656D01*
X69415Y67617D01*
X69317Y67586D01*
X69248Y67547D01*
X69175Y67516D01*
X69112Y67468D01*
X69002Y67405D01*
X68881Y67294D01*
X68810Y67241D01*
X64909Y63339D01*
X63239Y63339D01*
X63239Y72611D01*
X63222Y72768D01*
X63209Y72925D01*
X63202Y72948D01*
X63199Y72971D01*
X63148Y73120D01*
X63101Y73271D01*
X63089Y73292D01*
X63082Y73315D01*
X62999Y73449D01*
X62969Y73501D01*
X63039Y73601D01*
X63048Y73623D01*
X63061Y73643D01*
X63116Y73790D01*
X63176Y73937D01*
X63179Y73957D01*
X63188Y73982D01*
X63239Y74342D01*
X63236Y74369D01*
X63239Y74389D01*
X63239Y83661D01*
X64909Y83661D01*
X68810Y79759D01*
X68872Y79710D01*
X68927Y79653D01*
X69013Y79597D01*
X69093Y79533D01*
X69164Y79498D01*
X69231Y79454D01*
X69327Y79418D01*
X69419Y79373D01*
X69496Y79355D01*
X69570Y79327D01*
X69672Y79313D01*
X69772Y79289D01*
X69851Y79288D01*
X69930Y79277D01*
X70032Y79285D01*
X70135Y79284D01*
X70212Y79300D01*
X70291Y79306D01*
X70389Y79337D01*
X70490Y79358D01*
X70562Y79390D01*
X70638Y79414D01*
X70727Y79465D01*
X70820Y79508D01*
X70883Y79555D01*
X70952Y79595D01*
X71028Y79664D01*
X71110Y79726D01*
X71161Y79787D01*
X71219Y79840D01*
X71278Y79924D01*
X71345Y80003D01*
X71381Y80073D01*
X71427Y80138D01*
X71466Y80233D01*
X71513Y80324D01*
X71534Y80400D01*
X71564Y80474D01*
X71575Y80552D01*
X71608Y80674D01*
X71615Y80839D01*
X71627Y80926D01*
X71627Y80944D01*
X75970Y85287D01*
X76005Y85330D01*
X76045Y85368D01*
X76118Y85471D01*
X76197Y85570D01*
X76221Y85620D01*
X76253Y85666D01*
X76301Y85783D01*
X76356Y85896D01*
X76369Y85950D01*
X76390Y86001D01*
X76402Y86089D01*
X76440Y86249D01*
X76442Y86376D01*
X76453Y86454D01*
X76453Y222410D01*
X76445Y222489D01*
X76446Y222568D01*
X76425Y222668D01*
X76413Y222771D01*
X76388Y222845D01*
X76372Y222923D01*
X76329Y223017D01*
X76296Y223114D01*
X76254Y223181D01*
X76222Y223253D01*
X76160Y223335D01*
X76106Y223423D01*
X76051Y223480D01*
X76003Y223543D01*
X75925Y223609D01*
X75853Y223683D01*
X75787Y223727D01*
X75726Y223778D01*
X75635Y223826D01*
X75549Y223882D01*
X75475Y223910D01*
X75405Y223946D01*
X75306Y223973D01*
X75210Y224009D01*
X75132Y224020D01*
X75055Y224041D01*
X74952Y224045D01*
X74851Y224060D01*
X74772Y224053D01*
X74693Y224057D01*
X74591Y224039D01*
X74489Y224030D01*
X74413Y224007D01*
X74335Y223993D01*
X74241Y223953D01*
X74143Y223922D01*
X74074Y223883D01*
X74001Y223852D01*
X73938Y223805D01*
X73828Y223742D01*
X73707Y223630D01*
X73636Y223577D01*
X64128Y214069D01*
X64093Y214026D01*
X64053Y213988D01*
X63980Y213885D01*
X63901Y213786D01*
X63877Y213736D01*
X63845Y213690D01*
X63797Y213573D01*
X63742Y213460D01*
X63729Y213406D01*
X63708Y213355D01*
X63696Y213267D01*
X63658Y213107D01*
X63656Y212980D01*
X63645Y212902D01*
X63645Y199608D01*
X62752Y198715D01*
X48647Y198715D01*
X48568Y198707D01*
X48489Y198708D01*
X48389Y198687D01*
X48286Y198675D01*
X48212Y198650D01*
X48134Y198634D01*
X48040Y198591D01*
X47943Y198558D01*
X47876Y198516D01*
X47804Y198484D01*
X47722Y198422D01*
X47634Y198368D01*
X47577Y198313D01*
X47514Y198265D01*
X47448Y198187D01*
X47374Y198115D01*
X47330Y198049D01*
X47279Y197988D01*
X47231Y197897D01*
X47175Y197811D01*
X47147Y197737D01*
X47111Y197667D01*
X47084Y197568D01*
X47048Y197472D01*
X47037Y197394D01*
X47016Y197317D01*
X47012Y197214D01*
X46997Y197113D01*
X47004Y197034D01*
X47000Y196955D01*
X47018Y196853D01*
X47027Y196751D01*
X47050Y196675D01*
X47064Y196597D01*
X47104Y196503D01*
X47135Y196405D01*
X47174Y196336D01*
X47205Y196263D01*
X47252Y196200D01*
X47315Y196090D01*
X47427Y195969D01*
X47480Y195898D01*
X48430Y194948D01*
X48473Y194913D01*
X48511Y194873D01*
X48614Y194800D01*
X48713Y194721D01*
X48763Y194697D01*
X48808Y194665D01*
X48926Y194617D01*
X49039Y194562D01*
X49093Y194549D01*
X49144Y194528D01*
X49232Y194516D01*
X49392Y194478D01*
X49519Y194476D01*
X49597Y194465D01*
X62752Y194465D01*
X63645Y193572D01*
X63645Y174308D01*
X62752Y173415D01*
X43488Y173415D01*
X42595Y174308D01*
X42595Y191117D01*
X42589Y191172D01*
X42592Y191227D01*
X42569Y191352D01*
X42555Y191478D01*
X42537Y191530D01*
X42528Y191585D01*
X42479Y191701D01*
X42438Y191821D01*
X42409Y191868D01*
X42387Y191919D01*
X42334Y191990D01*
X42248Y192130D01*
X42160Y192221D01*
X42112Y192284D01*
X35432Y198964D01*
X35432Y339135D01*
X37776Y341479D01*
X60835Y364538D01*
X60884Y364600D01*
X60941Y364655D01*
X60998Y364741D01*
X61062Y364821D01*
X61097Y364892D01*
X61140Y364959D01*
X61176Y365055D01*
X61221Y365147D01*
X61240Y365224D01*
X61267Y365298D01*
X61282Y365400D01*
X61306Y365500D01*
X61307Y365579D01*
X61318Y365658D01*
X61309Y365760D01*
X61311Y365863D01*
X61295Y365940D01*
X61288Y366019D01*
X61258Y366117D01*
X61237Y366218D01*
X61204Y366290D01*
X61180Y366366D01*
X61129Y366455D01*
X61087Y366548D01*
X61039Y366611D01*
X61000Y366680D01*
X60930Y366756D01*
X60868Y366838D01*
X60808Y366889D01*
X60754Y366947D01*
X60670Y367006D01*
X60592Y367073D01*
X60521Y367110D01*
X60457Y367155D01*
X60361Y367194D01*
X60270Y367241D01*
X60194Y367262D01*
X60121Y367292D01*
X60042Y367303D01*
X59920Y367336D01*
X59756Y367343D01*
X59668Y367355D01*
X57412Y367355D01*
X52055Y372712D01*
X52055Y380288D01*
X57412Y385645D01*
X64988Y385645D01*
X68678Y381954D01*
X68802Y381856D01*
X68922Y381753D01*
X68943Y381742D01*
X68962Y381727D01*
X69103Y381658D01*
X69243Y381585D01*
X69266Y381579D01*
X69287Y381568D01*
X69441Y381531D01*
X69593Y381490D01*
X69617Y381489D01*
X69640Y381484D01*
X69798Y381481D01*
X69956Y381475D01*
X69979Y381479D01*
X70003Y381478D01*
X70157Y381511D01*
X70313Y381539D01*
X70335Y381548D01*
X70358Y381553D01*
X70502Y381618D01*
X70647Y381679D01*
X70664Y381691D01*
X70688Y381703D01*
X70978Y381921D01*
X70996Y381942D01*
X71012Y381954D01*
X71558Y382500D01*
X80796Y391738D01*
X80831Y391781D01*
X80871Y391819D01*
X80944Y391922D01*
X81023Y392021D01*
X81047Y392071D01*
X81079Y392117D01*
X81127Y392234D01*
X81182Y392347D01*
X81195Y392401D01*
X81216Y392452D01*
X81228Y392540D01*
X81266Y392700D01*
X81268Y392827D01*
X81279Y392905D01*
X81279Y393605D01*
X81273Y393660D01*
X81276Y393715D01*
X81253Y393840D01*
X81239Y393965D01*
X81221Y394018D01*
X81212Y394072D01*
X81163Y394189D01*
X81122Y394308D01*
X81093Y394356D01*
X81071Y394407D01*
X81018Y394477D01*
X80932Y394617D01*
X80844Y394708D01*
X80796Y394771D01*
X77455Y398112D01*
X77455Y399561D01*
X77447Y399640D01*
X77448Y399719D01*
X77427Y399819D01*
X77415Y399922D01*
X77390Y399997D01*
X77374Y400074D01*
X77331Y400168D01*
X77298Y400265D01*
X77256Y400332D01*
X77224Y400404D01*
X77162Y400486D01*
X77108Y400574D01*
X77053Y400631D01*
X77005Y400694D01*
X76927Y400760D01*
X76855Y400834D01*
X76789Y400878D01*
X76728Y400929D01*
X76637Y400977D01*
X76551Y401033D01*
X76477Y401061D01*
X76407Y401097D01*
X76308Y401124D01*
X76212Y401160D01*
X76134Y401171D01*
X76057Y401192D01*
X75954Y401196D01*
X75853Y401211D01*
X75774Y401204D01*
X75695Y401208D01*
X75593Y401190D01*
X75491Y401181D01*
X75415Y401158D01*
X75337Y401144D01*
X75243Y401104D01*
X75145Y401073D01*
X75076Y401034D01*
X75003Y401003D01*
X74940Y400956D01*
X74830Y400893D01*
X74709Y400781D01*
X74638Y400728D01*
X73705Y399795D01*
X71995Y399795D01*
X71838Y399778D01*
X71681Y399765D01*
X71658Y399758D01*
X71634Y399755D01*
X71486Y399704D01*
X71334Y399657D01*
X71314Y399645D01*
X71291Y399638D01*
X71157Y399555D01*
X71020Y399476D01*
X71002Y399460D01*
X70982Y399448D01*
X70869Y399338D01*
X70753Y399231D01*
X70739Y399212D01*
X70722Y399195D01*
X70635Y399063D01*
X70545Y398933D01*
X70536Y398911D01*
X70523Y398891D01*
X70468Y398744D01*
X70408Y398598D01*
X70405Y398577D01*
X70396Y398552D01*
X70345Y398193D01*
X70348Y398166D01*
X70345Y398145D01*
X70345Y398112D01*
X64988Y392755D01*
X57412Y392755D01*
X52055Y398112D01*
X52055Y405688D01*
X57412Y411045D01*
X64988Y411045D01*
X69313Y406719D01*
X69436Y406621D01*
X69557Y406518D01*
X69578Y406507D01*
X69597Y406492D01*
X69738Y406423D01*
X69878Y406350D01*
X69901Y406344D01*
X69922Y406333D01*
X70075Y406296D01*
X70228Y406255D01*
X70252Y406254D01*
X70275Y406249D01*
X70433Y406246D01*
X70591Y406240D01*
X70614Y406244D01*
X70638Y406243D01*
X70793Y406276D01*
X70948Y406304D01*
X70970Y406313D01*
X70993Y406318D01*
X71137Y406383D01*
X71282Y406444D01*
X71299Y406456D01*
X71323Y406468D01*
X71613Y406686D01*
X71631Y406707D01*
X71647Y406719D01*
X80796Y415868D01*
X83140Y418212D01*
X90596Y418212D01*
X99765Y409043D01*
X101821Y406987D01*
X101944Y406889D01*
X102064Y406786D01*
X102085Y406775D01*
X102104Y406760D01*
X102246Y406691D01*
X102385Y406618D01*
X102409Y406612D01*
X102430Y406601D01*
X102583Y406564D01*
X102736Y406523D01*
X102760Y406522D01*
X102783Y406517D01*
X102940Y406514D01*
X103098Y406508D01*
X103122Y406512D01*
X103146Y406511D01*
X103300Y406544D01*
X103455Y406572D01*
X103477Y406581D01*
X103501Y406586D01*
X103645Y406651D01*
X103790Y406712D01*
X103806Y406724D01*
X103831Y406736D01*
X104121Y406954D01*
X104138Y406975D01*
X104155Y406987D01*
X108212Y411045D01*
X116310Y411045D01*
X116365Y411051D01*
X116420Y411048D01*
X116545Y411071D01*
X116671Y411085D01*
X116723Y411103D01*
X116778Y411112D01*
X116894Y411161D01*
X117014Y411202D01*
X117061Y411231D01*
X117112Y411253D01*
X117183Y411306D01*
X117323Y411392D01*
X117414Y411480D01*
X117477Y411528D01*
X124161Y418212D01*
X167812Y418212D01*
X176912Y409112D01*
X176912Y336505D01*
X174568Y334161D01*
X135580Y295173D01*
X135506Y295081D01*
X135425Y294994D01*
X135393Y294940D01*
X135354Y294890D01*
X135302Y294784D01*
X135242Y294682D01*
X135222Y294621D01*
X135194Y294564D01*
X135167Y294449D01*
X135130Y294336D01*
X135125Y294273D01*
X135110Y294211D01*
X135108Y294093D01*
X135097Y293975D01*
X135106Y293912D01*
X135105Y293849D01*
X135129Y293733D01*
X135144Y293615D01*
X135166Y293556D01*
X135179Y293494D01*
X135228Y293385D01*
X135268Y293274D01*
X135303Y293221D01*
X135329Y293163D01*
X135400Y293069D01*
X135464Y292969D01*
X135509Y292924D01*
X135547Y292874D01*
X135638Y292797D01*
X135722Y292713D01*
X135767Y292687D01*
X135824Y292639D01*
X136059Y292515D01*
X136116Y292482D01*
X138134Y291646D01*
X139627Y290153D01*
X140435Y288203D01*
X140435Y286091D01*
X139627Y284141D01*
X138134Y282648D01*
X136184Y281840D01*
X134996Y281840D01*
X134941Y281834D01*
X134886Y281837D01*
X134761Y281814D01*
X134635Y281800D01*
X134583Y281782D01*
X134528Y281773D01*
X134412Y281724D01*
X134292Y281683D01*
X134245Y281654D01*
X134194Y281632D01*
X134123Y281579D01*
X133983Y281493D01*
X133892Y281405D01*
X133829Y281357D01*
X119483Y267011D01*
X119448Y266968D01*
X119408Y266930D01*
X119335Y266827D01*
X119256Y266728D01*
X119232Y266678D01*
X119200Y266632D01*
X119152Y266515D01*
X119097Y266402D01*
X119084Y266348D01*
X119063Y266297D01*
X119051Y266209D01*
X119013Y266049D01*
X119011Y265922D01*
X119000Y265844D01*
X119000Y246815D01*
X119017Y246658D01*
X119030Y246501D01*
X119037Y246478D01*
X119040Y246454D01*
X119091Y246306D01*
X119138Y246154D01*
X119150Y246134D01*
X119157Y246111D01*
X119240Y245977D01*
X119319Y245840D01*
X119335Y245822D01*
X119347Y245802D01*
X119457Y245689D01*
X119564Y245573D01*
X119583Y245559D01*
X119600Y245542D01*
X119732Y245455D01*
X119862Y245365D01*
X119884Y245356D01*
X119904Y245343D01*
X120051Y245288D01*
X120197Y245228D01*
X120218Y245225D01*
X120243Y245216D01*
X120602Y245165D01*
X120629Y245168D01*
X120650Y245165D01*
X138952Y245165D01*
X139845Y244272D01*
X139845Y241300D01*
X139862Y241143D01*
X139875Y240986D01*
X139882Y240963D01*
X139885Y240939D01*
X139936Y240791D01*
X139983Y240639D01*
X139995Y240619D01*
X140002Y240596D01*
X140085Y240462D01*
X140164Y240325D01*
X140180Y240307D01*
X140192Y240287D01*
X140302Y240174D01*
X140409Y240058D01*
X140428Y240044D01*
X140445Y240027D01*
X140577Y239940D01*
X140707Y239850D01*
X140729Y239841D01*
X140749Y239828D01*
X140896Y239773D01*
X141042Y239713D01*
X141063Y239710D01*
X141088Y239701D01*
X141447Y239650D01*
X141474Y239653D01*
X141495Y239650D01*
X169324Y239650D01*
X169379Y239656D01*
X169434Y239653D01*
X169559Y239676D01*
X169685Y239690D01*
X169737Y239708D01*
X169792Y239717D01*
X169908Y239766D01*
X170028Y239807D01*
X170075Y239836D01*
X170126Y239858D01*
X170197Y239911D01*
X170337Y239997D01*
X170428Y240085D01*
X170491Y240133D01*
X199447Y269089D01*
X218688Y288330D01*
X218762Y288422D01*
X218843Y288509D01*
X218875Y288564D01*
X218914Y288613D01*
X218966Y288719D01*
X219027Y288822D01*
X219046Y288882D01*
X219074Y288939D01*
X219101Y289054D01*
X219138Y289167D01*
X219144Y289230D01*
X219158Y289292D01*
X219160Y289410D01*
X219171Y289528D01*
X219163Y289591D01*
X219163Y289655D01*
X219139Y289771D01*
X219124Y289888D01*
X219102Y289947D01*
X219089Y290010D01*
X219040Y290118D01*
X219000Y290229D01*
X218966Y290282D01*
X218939Y290340D01*
X218868Y290435D01*
X218804Y290534D01*
X218759Y290579D01*
X218721Y290630D01*
X218630Y290706D01*
X218546Y290790D01*
X218501Y290816D01*
X218444Y290864D01*
X218209Y290988D01*
X218152Y291021D01*
X216994Y291501D01*
X215501Y292994D01*
X214693Y294944D01*
X214693Y297056D01*
X215220Y298328D01*
X215225Y298343D01*
X215232Y298357D01*
X215275Y298518D01*
X215321Y298676D01*
X215322Y298692D01*
X215327Y298707D01*
X215334Y298874D01*
X215344Y299038D01*
X215342Y299054D01*
X215342Y299070D01*
X215313Y299233D01*
X215287Y299397D01*
X215281Y299411D01*
X215278Y299427D01*
X215214Y299579D01*
X215153Y299734D01*
X215144Y299747D01*
X215138Y299762D01*
X215098Y299814D01*
X214948Y300034D01*
X214894Y300084D01*
X214863Y300126D01*
X212517Y302472D01*
X212474Y302507D01*
X212436Y302547D01*
X212333Y302620D01*
X212234Y302699D01*
X212184Y302723D01*
X212138Y302755D01*
X212022Y302803D01*
X211908Y302858D01*
X211854Y302871D01*
X211803Y302892D01*
X211715Y302904D01*
X211555Y302942D01*
X211428Y302944D01*
X211350Y302955D01*
X203868Y302955D01*
X202975Y303848D01*
X202975Y304654D01*
X202958Y304811D01*
X202945Y304968D01*
X202938Y304991D01*
X202935Y305015D01*
X202884Y305163D01*
X202837Y305315D01*
X202825Y305335D01*
X202818Y305358D01*
X202735Y305492D01*
X202656Y305629D01*
X202640Y305647D01*
X202628Y305667D01*
X202518Y305780D01*
X202411Y305896D01*
X202392Y305910D01*
X202375Y305927D01*
X202243Y306014D01*
X202113Y306104D01*
X202091Y306113D01*
X202071Y306126D01*
X201924Y306181D01*
X201778Y306241D01*
X201757Y306244D01*
X201732Y306253D01*
X201373Y306304D01*
X201346Y306301D01*
X201325Y306304D01*
X189205Y306304D01*
X186824Y308685D01*
X186824Y341315D01*
X188685Y343176D01*
X311315Y343176D01*
X333176Y321315D01*
X333176Y258685D01*
X303315Y228824D01*
X295013Y228824D01*
X294958Y228818D01*
X294902Y228821D01*
X294778Y228798D01*
X294652Y228784D01*
X294600Y228766D01*
X294545Y228757D01*
X294429Y228708D01*
X294309Y228667D01*
X294262Y228638D01*
X294211Y228616D01*
X294140Y228563D01*
X294000Y228477D01*
X293909Y228389D01*
X293846Y228341D01*
X293006Y227501D01*
X291056Y226693D01*
X288944Y226693D01*
X286994Y227501D01*
X285501Y228994D01*
X284693Y230944D01*
X284693Y233056D01*
X285501Y235006D01*
X286994Y236499D01*
X288944Y237307D01*
X291056Y237307D01*
X293006Y236499D01*
X293846Y235659D01*
X293889Y235624D01*
X293927Y235584D01*
X294030Y235511D01*
X294129Y235432D01*
X294179Y235408D01*
X294224Y235376D01*
X294341Y235328D01*
X294455Y235273D01*
X294509Y235260D01*
X294560Y235239D01*
X294648Y235227D01*
X294808Y235189D01*
X294934Y235187D01*
X295013Y235176D01*
X300001Y235176D01*
X300056Y235182D01*
X300111Y235179D01*
X300236Y235202D01*
X300362Y235216D01*
X300414Y235234D01*
X300469Y235243D01*
X300585Y235292D01*
X300705Y235333D01*
X300752Y235362D01*
X300803Y235384D01*
X300874Y235437D01*
X301014Y235523D01*
X301105Y235611D01*
X301168Y235659D01*
X326341Y260832D01*
X326376Y260875D01*
X326416Y260913D01*
X326489Y261016D01*
X326568Y261115D01*
X326592Y261165D01*
X326624Y261211D01*
X326672Y261328D01*
X326727Y261441D01*
X326740Y261495D01*
X326761Y261546D01*
X326773Y261634D01*
X326811Y261794D01*
X326813Y261921D01*
X326824Y261999D01*
X326824Y318001D01*
X326818Y318056D01*
X326821Y318111D01*
X326798Y318236D01*
X326784Y318362D01*
X326766Y318414D01*
X326757Y318469D01*
X326708Y318585D01*
X326667Y318705D01*
X326638Y318752D01*
X326616Y318803D01*
X326563Y318874D01*
X326477Y319014D01*
X326389Y319105D01*
X326341Y319168D01*
X309168Y336341D01*
X309125Y336376D01*
X309087Y336416D01*
X308984Y336489D01*
X308885Y336568D01*
X308835Y336592D01*
X308789Y336624D01*
X308672Y336672D01*
X308559Y336727D01*
X308505Y336740D01*
X308454Y336761D01*
X308366Y336773D01*
X308206Y336811D01*
X308079Y336813D01*
X308001Y336824D01*
X194826Y336824D01*
X194669Y336807D01*
X194512Y336794D01*
X194489Y336787D01*
X194465Y336784D01*
X194317Y336733D01*
X194165Y336686D01*
X194145Y336674D01*
X194122Y336667D01*
X193988Y336584D01*
X193851Y336505D01*
X193833Y336489D01*
X193813Y336477D01*
X193700Y336367D01*
X193584Y336260D01*
X193570Y336241D01*
X193553Y336224D01*
X193466Y336092D01*
X193376Y335962D01*
X193367Y335940D01*
X193354Y335920D01*
X193299Y335773D01*
X193239Y335627D01*
X193236Y335606D01*
X193227Y335581D01*
X193176Y335222D01*
X193179Y335195D01*
X193176Y335174D01*
X193176Y314306D01*
X193193Y314149D01*
X193206Y313992D01*
X193213Y313969D01*
X193216Y313945D01*
X193267Y313797D01*
X193314Y313645D01*
X193326Y313625D01*
X193333Y313602D01*
X193416Y313468D01*
X193495Y313331D01*
X193511Y313313D01*
X193523Y313293D01*
X193633Y313180D01*
X193740Y313064D01*
X193759Y313050D01*
X193776Y313033D01*
X193908Y312946D01*
X194038Y312856D01*
X194060Y312847D01*
X194080Y312834D01*
X194227Y312779D01*
X194373Y312719D01*
X194394Y312716D01*
X194419Y312707D01*
X194778Y312656D01*
X194805Y312659D01*
X194826Y312656D01*
X201325Y312656D01*
X201482Y312673D01*
X201639Y312686D01*
X201662Y312693D01*
X201686Y312696D01*
X201834Y312747D01*
X201986Y312794D01*
X202006Y312806D01*
X202029Y312813D01*
X202163Y312896D01*
X202300Y312975D01*
X202318Y312991D01*
X202338Y313003D01*
X202451Y313113D01*
X202567Y313220D01*
X202581Y313239D01*
X202598Y313256D01*
X202685Y313388D01*
X202775Y313518D01*
X202784Y313540D01*
X202797Y313560D01*
X202852Y313707D01*
X202912Y313853D01*
X202915Y313874D01*
X202924Y313899D01*
X202975Y314258D01*
X202972Y314285D01*
X202975Y314306D01*
X202975Y315112D01*
X203868Y316005D01*
X216132Y316005D01*
X217025Y315112D01*
X217025Y315019D01*
X217038Y314901D01*
X217042Y314782D01*
X217058Y314721D01*
X217065Y314658D01*
X217103Y314546D01*
X217133Y314431D01*
X217162Y314375D01*
X217182Y314315D01*
X217244Y314214D01*
X217298Y314108D01*
X217339Y314060D01*
X217372Y314006D01*
X217455Y313921D01*
X217531Y313830D01*
X217581Y313791D01*
X217625Y313745D01*
X217724Y313681D01*
X217818Y313608D01*
X217876Y313581D01*
X217929Y313547D01*
X218039Y313505D01*
X218147Y313455D01*
X218209Y313442D01*
X218268Y313419D01*
X218385Y313403D01*
X218501Y313377D01*
X218565Y313378D01*
X218627Y313369D01*
X218746Y313379D01*
X218864Y313379D01*
X218915Y313392D01*
X218989Y313398D01*
X219242Y313477D01*
X219306Y313494D01*
X220215Y313870D01*
X220228Y313878D01*
X220244Y313882D01*
X220387Y313965D01*
X220532Y314045D01*
X220544Y314055D01*
X220558Y314063D01*
X220680Y314175D01*
X220804Y314285D01*
X220814Y314298D01*
X220825Y314308D01*
X220920Y314444D01*
X221017Y314579D01*
X221024Y314593D01*
X221033Y314606D01*
X221095Y314759D01*
X221161Y314912D01*
X221164Y314927D01*
X221170Y314942D01*
X221179Y315008D01*
X221228Y315268D01*
X221226Y315342D01*
X221233Y315395D01*
X221233Y323342D01*
X221216Y323499D01*
X221203Y323656D01*
X221196Y323679D01*
X221193Y323703D01*
X221142Y323851D01*
X221095Y324003D01*
X221083Y324023D01*
X221076Y324046D01*
X220993Y324180D01*
X220914Y324317D01*
X220898Y324335D01*
X220886Y324355D01*
X220776Y324468D01*
X220669Y324584D01*
X220650Y324598D01*
X220633Y324615D01*
X220501Y324702D01*
X220371Y324792D01*
X220349Y324801D01*
X220329Y324814D01*
X220182Y324869D01*
X220036Y324929D01*
X220015Y324932D01*
X219990Y324941D01*
X219631Y324992D01*
X219604Y324989D01*
X219583Y324992D01*
X218675Y324992D01*
X218518Y324975D01*
X218361Y324962D01*
X218338Y324955D01*
X218314Y324952D01*
X218166Y324901D01*
X218014Y324854D01*
X217994Y324842D01*
X217971Y324835D01*
X217837Y324752D01*
X217700Y324673D01*
X217682Y324657D01*
X217662Y324645D01*
X217549Y324535D01*
X217433Y324428D01*
X217419Y324409D01*
X217402Y324392D01*
X217315Y324260D01*
X217225Y324130D01*
X217216Y324108D01*
X217203Y324088D01*
X217148Y323941D01*
X217088Y323795D01*
X217085Y323774D01*
X217076Y323749D01*
X217025Y323390D01*
X217028Y323363D01*
X217025Y323342D01*
X217025Y320848D01*
X216132Y319955D01*
X203868Y319955D01*
X202975Y320848D01*
X202975Y332112D01*
X203868Y333005D01*
X216132Y333005D01*
X217309Y331827D01*
X217353Y331792D01*
X217390Y331752D01*
X217493Y331680D01*
X217592Y331600D01*
X217642Y331576D01*
X217688Y331544D01*
X217805Y331496D01*
X217918Y331441D01*
X217972Y331428D01*
X218023Y331407D01*
X218111Y331395D01*
X218271Y331357D01*
X218398Y331355D01*
X218476Y331344D01*
X226524Y331344D01*
X226579Y331350D01*
X226634Y331347D01*
X226759Y331370D01*
X226884Y331384D01*
X226937Y331402D01*
X226991Y331411D01*
X227108Y331460D01*
X227228Y331501D01*
X227275Y331530D01*
X227326Y331552D01*
X227397Y331605D01*
X227537Y331691D01*
X227628Y331779D01*
X227691Y331827D01*
X228868Y333005D01*
X241132Y333005D01*
X242309Y331827D01*
X242353Y331792D01*
X242390Y331752D01*
X242493Y331680D01*
X242592Y331600D01*
X242642Y331576D01*
X242688Y331544D01*
X242805Y331496D01*
X242918Y331441D01*
X242972Y331428D01*
X243023Y331407D01*
X243111Y331395D01*
X243271Y331357D01*
X243398Y331355D01*
X243476Y331344D01*
X251524Y331344D01*
X251579Y331350D01*
X251634Y331347D01*
X251759Y331370D01*
X251884Y331384D01*
X251937Y331402D01*
X251991Y331411D01*
X252108Y331460D01*
X252228Y331501D01*
X252275Y331530D01*
X252326Y331552D01*
X252397Y331605D01*
X252537Y331691D01*
X252628Y331779D01*
X252691Y331827D01*
X253868Y333005D01*
X266132Y333005D01*
X267309Y331827D01*
X267353Y331792D01*
X267390Y331752D01*
X267493Y331680D01*
X267592Y331600D01*
X267642Y331576D01*
X267688Y331544D01*
X267805Y331496D01*
X267918Y331441D01*
X267972Y331428D01*
X268023Y331407D01*
X268111Y331395D01*
X268271Y331357D01*
X268398Y331355D01*
X268476Y331344D01*
X276524Y331344D01*
X276579Y331350D01*
X276634Y331347D01*
X276759Y331370D01*
X276884Y331384D01*
X276937Y331402D01*
X276991Y331411D01*
X277108Y331460D01*
X277228Y331501D01*
X277275Y331530D01*
X277326Y331552D01*
X277397Y331605D01*
X277537Y331691D01*
X277628Y331779D01*
X277691Y331827D01*
X278868Y333005D01*
X291132Y333005D01*
X292025Y332112D01*
X292025Y320848D01*
X291132Y319955D01*
X278868Y319955D01*
X277975Y320848D01*
X277975Y323342D01*
X277958Y323499D01*
X277945Y323656D01*
X277938Y323679D01*
X277935Y323703D01*
X277884Y323851D01*
X277837Y324003D01*
X277825Y324023D01*
X277818Y324046D01*
X277735Y324180D01*
X277656Y324317D01*
X277640Y324335D01*
X277628Y324355D01*
X277518Y324468D01*
X277411Y324584D01*
X277392Y324598D01*
X277375Y324615D01*
X277243Y324702D01*
X277113Y324792D01*
X277091Y324801D01*
X277071Y324814D01*
X276924Y324869D01*
X276778Y324929D01*
X276757Y324932D01*
X276732Y324941D01*
X276373Y324992D01*
X276346Y324989D01*
X276325Y324992D01*
X268675Y324992D01*
X268518Y324975D01*
X268361Y324962D01*
X268338Y324955D01*
X268314Y324952D01*
X268166Y324901D01*
X268014Y324854D01*
X267994Y324842D01*
X267971Y324835D01*
X267837Y324752D01*
X267700Y324673D01*
X267682Y324657D01*
X267662Y324645D01*
X267549Y324535D01*
X267433Y324428D01*
X267419Y324409D01*
X267402Y324392D01*
X267315Y324260D01*
X267225Y324130D01*
X267216Y324108D01*
X267203Y324088D01*
X267148Y323941D01*
X267088Y323795D01*
X267085Y323774D01*
X267076Y323749D01*
X267025Y323390D01*
X267028Y323363D01*
X267025Y323342D01*
X267025Y320848D01*
X266132Y319955D01*
X253868Y319955D01*
X252975Y320848D01*
X252975Y323342D01*
X252958Y323499D01*
X252945Y323656D01*
X252938Y323679D01*
X252935Y323703D01*
X252884Y323851D01*
X252837Y324003D01*
X252825Y324023D01*
X252818Y324046D01*
X252735Y324180D01*
X252656Y324317D01*
X252640Y324335D01*
X252628Y324355D01*
X252518Y324468D01*
X252411Y324584D01*
X252392Y324598D01*
X252375Y324615D01*
X252243Y324702D01*
X252113Y324792D01*
X252091Y324801D01*
X252071Y324814D01*
X251924Y324869D01*
X251778Y324929D01*
X251757Y324932D01*
X251732Y324941D01*
X251373Y324992D01*
X251346Y324989D01*
X251325Y324992D01*
X243675Y324992D01*
X243518Y324975D01*
X243361Y324962D01*
X243338Y324955D01*
X243314Y324952D01*
X243166Y324901D01*
X243014Y324854D01*
X242994Y324842D01*
X242971Y324835D01*
X242837Y324752D01*
X242700Y324673D01*
X242682Y324657D01*
X242662Y324645D01*
X242549Y324535D01*
X242433Y324428D01*
X242419Y324409D01*
X242402Y324392D01*
X242315Y324260D01*
X242225Y324130D01*
X242216Y324108D01*
X242203Y324088D01*
X242148Y323941D01*
X242088Y323795D01*
X242085Y323774D01*
X242076Y323749D01*
X242025Y323390D01*
X242028Y323363D01*
X242025Y323342D01*
X242025Y320848D01*
X241132Y319955D01*
X229235Y319955D01*
X229078Y319938D01*
X228921Y319925D01*
X228898Y319918D01*
X228874Y319915D01*
X228726Y319864D01*
X228574Y319817D01*
X228554Y319805D01*
X228531Y319798D01*
X228397Y319715D01*
X228260Y319636D01*
X228242Y319620D01*
X228222Y319608D01*
X228109Y319498D01*
X227993Y319391D01*
X227979Y319372D01*
X227962Y319355D01*
X227875Y319223D01*
X227785Y319093D01*
X227776Y319071D01*
X227763Y319051D01*
X227708Y318904D01*
X227648Y318758D01*
X227645Y318737D01*
X227636Y318712D01*
X227585Y318353D01*
X227588Y318326D01*
X227585Y318305D01*
X227585Y317655D01*
X227602Y317498D01*
X227615Y317341D01*
X227622Y317318D01*
X227625Y317294D01*
X227676Y317146D01*
X227723Y316994D01*
X227735Y316974D01*
X227742Y316951D01*
X227825Y316817D01*
X227904Y316680D01*
X227920Y316662D01*
X227932Y316642D01*
X228042Y316529D01*
X228149Y316413D01*
X228168Y316399D01*
X228185Y316382D01*
X228317Y316295D01*
X228447Y316205D01*
X228469Y316196D01*
X228489Y316183D01*
X228636Y316128D01*
X228782Y316068D01*
X228803Y316065D01*
X228828Y316056D01*
X229187Y316005D01*
X229214Y316008D01*
X229235Y316005D01*
X241132Y316005D01*
X242025Y315112D01*
X242025Y303767D01*
X241997Y303710D01*
X241937Y303608D01*
X241917Y303547D01*
X241890Y303491D01*
X241862Y303375D01*
X241826Y303262D01*
X241820Y303199D01*
X241805Y303138D01*
X241803Y303019D01*
X241793Y302901D01*
X241801Y302838D01*
X241800Y302775D01*
X241824Y302659D01*
X241839Y302541D01*
X241861Y302482D01*
X241874Y302420D01*
X241923Y302312D01*
X241964Y302200D01*
X241998Y302147D01*
X242024Y302089D01*
X242096Y301995D01*
X242159Y301895D01*
X242204Y301850D01*
X242243Y301800D01*
X242333Y301723D01*
X242417Y301640D01*
X242463Y301613D01*
X242519Y301565D01*
X242754Y301441D01*
X242811Y301408D01*
X245006Y300499D01*
X246499Y299006D01*
X247307Y297056D01*
X247307Y294944D01*
X246499Y292994D01*
X245006Y291501D01*
X243056Y290693D01*
X240944Y290693D01*
X238994Y291501D01*
X237501Y292994D01*
X236693Y294944D01*
X236693Y296132D01*
X236687Y296187D01*
X236690Y296242D01*
X236667Y296367D01*
X236653Y296493D01*
X236635Y296545D01*
X236626Y296600D01*
X236577Y296716D01*
X236536Y296836D01*
X236507Y296883D01*
X236485Y296934D01*
X236432Y297005D01*
X236346Y297145D01*
X236258Y297236D01*
X236210Y297299D01*
X235228Y298281D01*
X235166Y298330D01*
X235111Y298387D01*
X235025Y298444D01*
X234945Y298508D01*
X234874Y298542D01*
X234807Y298586D01*
X234711Y298622D01*
X234619Y298667D01*
X234542Y298686D01*
X234468Y298713D01*
X234366Y298728D01*
X234266Y298752D01*
X234187Y298753D01*
X234108Y298764D01*
X234006Y298755D01*
X233903Y298757D01*
X233826Y298741D01*
X233747Y298734D01*
X233649Y298704D01*
X233548Y298683D01*
X233476Y298650D01*
X233400Y298626D01*
X233311Y298575D01*
X233218Y298533D01*
X233155Y298485D01*
X233086Y298446D01*
X233010Y298376D01*
X232928Y298314D01*
X232877Y298254D01*
X232819Y298200D01*
X232760Y298116D01*
X232693Y298038D01*
X232656Y297967D01*
X232611Y297903D01*
X232572Y297807D01*
X232525Y297716D01*
X232504Y297640D01*
X232474Y297567D01*
X232463Y297488D01*
X232430Y297366D01*
X232423Y297202D01*
X232411Y297114D01*
X232411Y293071D01*
X205937Y266597D01*
X205839Y266474D01*
X205736Y266353D01*
X205725Y266332D01*
X205710Y266314D01*
X205641Y266172D01*
X205568Y266032D01*
X205561Y266009D01*
X205551Y265988D01*
X205514Y265835D01*
X205473Y265682D01*
X205472Y265658D01*
X205466Y265635D01*
X205464Y265478D01*
X205457Y265320D01*
X205462Y265296D01*
X205461Y265272D01*
X205494Y265118D01*
X205521Y264962D01*
X205531Y264941D01*
X205535Y264917D01*
X205601Y264773D01*
X205662Y264628D01*
X205674Y264611D01*
X205685Y264587D01*
X205904Y264297D01*
X205925Y264280D01*
X205937Y264263D01*
X290323Y179877D01*
X290323Y172115D01*
X290340Y171958D01*
X290353Y171801D01*
X290360Y171778D01*
X290363Y171754D01*
X290414Y171606D01*
X290461Y171454D01*
X290473Y171434D01*
X290480Y171411D01*
X290563Y171277D01*
X290642Y171140D01*
X290658Y171122D01*
X290670Y171102D01*
X290780Y170989D01*
X290887Y170873D01*
X290906Y170859D01*
X290923Y170842D01*
X291055Y170755D01*
X291185Y170665D01*
X291207Y170656D01*
X291227Y170643D01*
X291374Y170588D01*
X291520Y170528D01*
X291541Y170525D01*
X291566Y170516D01*
X291925Y170465D01*
X291952Y170468D01*
X291973Y170465D01*
X294502Y170465D01*
X295395Y169572D01*
X295395Y158308D01*
X294502Y157415D01*
X291973Y157415D01*
X291816Y157398D01*
X291659Y157385D01*
X291636Y157378D01*
X291612Y157375D01*
X291464Y157324D01*
X291312Y157277D01*
X291292Y157265D01*
X291269Y157258D01*
X291135Y157175D01*
X290998Y157096D01*
X290980Y157080D01*
X290960Y157068D01*
X290847Y156958D01*
X290731Y156851D01*
X290717Y156832D01*
X290700Y156815D01*
X290613Y156683D01*
X290523Y156553D01*
X290514Y156531D01*
X290501Y156511D01*
X290446Y156364D01*
X290386Y156218D01*
X290383Y156197D01*
X290374Y156172D01*
X290323Y155813D01*
X290326Y155786D01*
X290323Y155765D01*
X290323Y124161D01*
X276046Y109884D01*
X276011Y109841D01*
X275971Y109803D01*
X275898Y109700D01*
X275819Y109601D01*
X275795Y109551D01*
X275763Y109505D01*
X275715Y109388D01*
X275660Y109275D01*
X275647Y109221D01*
X275626Y109170D01*
X275614Y109082D01*
X275576Y108922D01*
X275574Y108795D01*
X275563Y108717D01*
X275563Y107529D01*
X274755Y105579D01*
X273915Y104739D01*
X273880Y104696D01*
X273840Y104658D01*
X273767Y104555D01*
X273688Y104456D01*
X273664Y104406D01*
X273632Y104361D01*
X273584Y104244D01*
X273529Y104130D01*
X273516Y104076D01*
X273495Y104025D01*
X273483Y103937D01*
X273445Y103777D01*
X273443Y103651D01*
X273432Y103572D01*
X273432Y93693D01*
X273438Y93638D01*
X273435Y93583D01*
X273458Y93458D01*
X273472Y93332D01*
X273490Y93280D01*
X273499Y93225D01*
X273548Y93109D01*
X273589Y92989D01*
X273618Y92942D01*
X273640Y92891D01*
X273693Y92820D01*
X273779Y92680D01*
X273867Y92589D01*
X273915Y92526D01*
X283487Y82954D01*
X283610Y82855D01*
X283731Y82753D01*
X283752Y82742D01*
X283771Y82727D01*
X283912Y82658D01*
X284052Y82584D01*
X284075Y82578D01*
X284096Y82568D01*
X284249Y82531D01*
X284402Y82490D01*
X284426Y82489D01*
X284449Y82483D01*
X284607Y82481D01*
X284765Y82474D01*
X284788Y82478D01*
X284812Y82478D01*
X284967Y82510D01*
X285122Y82538D01*
X285144Y82547D01*
X285167Y82552D01*
X285311Y82617D01*
X285376Y82645D01*
X293088Y82645D01*
X298445Y77288D01*
X298445Y69572D01*
X298384Y69457D01*
X298378Y69433D01*
X298368Y69412D01*
X298331Y69259D01*
X298290Y69106D01*
X298289Y69082D01*
X298283Y69059D01*
X298281Y68902D01*
X298274Y68744D01*
X298278Y68720D01*
X298278Y68696D01*
X298310Y68542D01*
X298338Y68387D01*
X298347Y68365D01*
X298352Y68341D01*
X298417Y68197D01*
X298478Y68052D01*
X298491Y68036D01*
X298502Y68011D01*
X298721Y67721D01*
X298741Y67704D01*
X298754Y67687D01*
X307214Y59227D01*
X307214Y30054D01*
X295701Y18541D01*
X95205Y18541D01*
G37*
%LPD*%
G36*
X279754Y39379D02*
X279754Y39379D01*
X279834Y39378D01*
X279934Y39399D01*
X280036Y39411D01*
X280111Y39436D01*
X280189Y39452D01*
X280282Y39495D01*
X280380Y39528D01*
X280447Y39570D01*
X280519Y39602D01*
X280601Y39664D01*
X280689Y39718D01*
X280745Y39773D01*
X280809Y39821D01*
X280875Y39899D01*
X280949Y39971D01*
X280992Y40037D01*
X281043Y40098D01*
X281091Y40189D01*
X281148Y40275D01*
X281175Y40349D01*
X281212Y40419D01*
X281239Y40518D01*
X281275Y40614D01*
X281286Y40692D01*
X281307Y40769D01*
X281311Y40872D01*
X281325Y40973D01*
X281319Y41052D01*
X281322Y41131D01*
X281304Y41233D01*
X281296Y41335D01*
X281272Y41411D01*
X281258Y41489D01*
X281219Y41583D01*
X281188Y41681D01*
X281149Y41750D01*
X281118Y41823D01*
X281070Y41886D01*
X281007Y41996D01*
X280896Y42117D01*
X280843Y42188D01*
X279139Y43891D01*
X279139Y45561D01*
X288411Y45561D01*
X288568Y45578D01*
X288725Y45591D01*
X288748Y45598D01*
X288771Y45601D01*
X288920Y45652D01*
X289071Y45699D01*
X289092Y45711D01*
X289115Y45718D01*
X289249Y45801D01*
X289386Y45880D01*
X289403Y45896D01*
X289424Y45908D01*
X289537Y46018D01*
X289653Y46125D01*
X289667Y46144D01*
X289684Y46161D01*
X289771Y46293D01*
X289860Y46422D01*
X289869Y46445D01*
X289883Y46465D01*
X289938Y46612D01*
X289998Y46758D01*
X290001Y46779D01*
X290010Y46804D01*
X290060Y47163D01*
X290059Y47174D01*
X290060Y47181D01*
X290059Y47197D01*
X290061Y47211D01*
X290061Y47339D01*
X290189Y47339D01*
X290346Y47356D01*
X290503Y47369D01*
X290526Y47376D01*
X290550Y47379D01*
X290698Y47430D01*
X290850Y47477D01*
X290870Y47489D01*
X290893Y47497D01*
X291027Y47579D01*
X291164Y47658D01*
X291182Y47674D01*
X291202Y47686D01*
X291315Y47796D01*
X291431Y47903D01*
X291445Y47923D01*
X291462Y47939D01*
X291549Y48072D01*
X291639Y48201D01*
X291648Y48223D01*
X291661Y48243D01*
X291716Y48390D01*
X291776Y48537D01*
X291779Y48557D01*
X291788Y48582D01*
X291839Y48942D01*
X291836Y48969D01*
X291839Y48989D01*
X291839Y58261D01*
X293509Y58261D01*
X298045Y53724D01*
X298107Y53675D01*
X298162Y53618D01*
X298248Y53562D01*
X298328Y53498D01*
X298399Y53463D01*
X298466Y53419D01*
X298562Y53383D01*
X298654Y53338D01*
X298731Y53320D01*
X298805Y53292D01*
X298907Y53278D01*
X299007Y53254D01*
X299086Y53253D01*
X299165Y53242D01*
X299267Y53250D01*
X299370Y53249D01*
X299447Y53265D01*
X299526Y53271D01*
X299624Y53302D01*
X299725Y53323D01*
X299797Y53355D01*
X299873Y53379D01*
X299962Y53430D01*
X300055Y53473D01*
X300118Y53520D01*
X300187Y53560D01*
X300263Y53629D01*
X300345Y53691D01*
X300396Y53752D01*
X300454Y53805D01*
X300513Y53889D01*
X300580Y53968D01*
X300616Y54038D01*
X300662Y54103D01*
X300701Y54198D01*
X300748Y54289D01*
X300769Y54365D01*
X300799Y54439D01*
X300810Y54517D01*
X300843Y54639D01*
X300850Y54804D01*
X300862Y54891D01*
X300862Y55913D01*
X300856Y55968D01*
X300859Y56023D01*
X300836Y56148D01*
X300822Y56274D01*
X300804Y56326D01*
X300795Y56381D01*
X300746Y56497D01*
X300705Y56617D01*
X300676Y56664D01*
X300654Y56715D01*
X300601Y56786D01*
X300515Y56926D01*
X300427Y57017D01*
X300379Y57080D01*
X293587Y63872D01*
X293544Y63907D01*
X293506Y63947D01*
X293403Y64020D01*
X293304Y64099D01*
X293254Y64123D01*
X293209Y64155D01*
X293091Y64203D01*
X292978Y64258D01*
X292924Y64271D01*
X292873Y64292D01*
X292785Y64304D01*
X292625Y64342D01*
X292498Y64344D01*
X292420Y64355D01*
X285512Y64355D01*
X280155Y69712D01*
X280155Y76620D01*
X280149Y76675D01*
X280152Y76730D01*
X280129Y76855D01*
X280115Y76981D01*
X280097Y77033D01*
X280088Y77088D01*
X280039Y77204D01*
X279998Y77324D01*
X279969Y77371D01*
X279947Y77422D01*
X279894Y77493D01*
X279808Y77633D01*
X279720Y77724D01*
X279672Y77787D01*
X269010Y88449D01*
X268948Y88498D01*
X268893Y88555D01*
X268807Y88612D01*
X268727Y88676D01*
X268656Y88711D01*
X268589Y88754D01*
X268493Y88790D01*
X268401Y88835D01*
X268324Y88854D01*
X268250Y88881D01*
X268148Y88896D01*
X268048Y88920D01*
X267969Y88921D01*
X267890Y88932D01*
X267788Y88923D01*
X267685Y88925D01*
X267608Y88909D01*
X267529Y88902D01*
X267431Y88872D01*
X267330Y88851D01*
X267258Y88818D01*
X267182Y88794D01*
X267093Y88743D01*
X267000Y88701D01*
X266937Y88653D01*
X266868Y88614D01*
X266792Y88544D01*
X266710Y88482D01*
X266659Y88422D01*
X266601Y88368D01*
X266542Y88284D01*
X266475Y88206D01*
X266438Y88135D01*
X266393Y88071D01*
X266354Y87975D01*
X266307Y87884D01*
X266286Y87808D01*
X266256Y87735D01*
X266245Y87656D01*
X266212Y87534D01*
X266205Y87370D01*
X266193Y87282D01*
X266193Y84295D01*
X266210Y84138D01*
X266223Y83981D01*
X266230Y83958D01*
X266233Y83934D01*
X266284Y83786D01*
X266331Y83634D01*
X266343Y83614D01*
X266350Y83591D01*
X266433Y83457D01*
X266512Y83320D01*
X266528Y83302D01*
X266540Y83282D01*
X266650Y83169D01*
X266757Y83053D01*
X266776Y83039D01*
X266793Y83022D01*
X266925Y82935D01*
X267055Y82845D01*
X267077Y82836D01*
X267097Y82823D01*
X267244Y82768D01*
X267390Y82708D01*
X267411Y82705D01*
X267436Y82696D01*
X267670Y82663D01*
X273045Y77288D01*
X273045Y69712D01*
X267688Y64355D01*
X260112Y64355D01*
X254755Y69712D01*
X254755Y77288D01*
X259358Y81891D01*
X259393Y81934D01*
X259433Y81971D01*
X259506Y82075D01*
X259585Y82174D01*
X259609Y82224D01*
X259641Y82269D01*
X259689Y82386D01*
X259744Y82500D01*
X259757Y82553D01*
X259778Y82605D01*
X259790Y82693D01*
X259828Y82852D01*
X259830Y82979D01*
X259841Y83057D01*
X259841Y114726D01*
X262185Y117070D01*
X264466Y119351D01*
X264501Y119394D01*
X264541Y119432D01*
X264614Y119535D01*
X264693Y119634D01*
X264717Y119684D01*
X264749Y119729D01*
X264797Y119847D01*
X264852Y119960D01*
X264865Y120014D01*
X264886Y120065D01*
X264898Y120153D01*
X264936Y120313D01*
X264938Y120439D01*
X264949Y120518D01*
X264949Y121706D01*
X265757Y123656D01*
X267250Y125149D01*
X269200Y125957D01*
X271312Y125957D01*
X273262Y125149D01*
X274755Y123656D01*
X275591Y121638D01*
X275648Y121534D01*
X275697Y121426D01*
X275735Y121376D01*
X275766Y121320D01*
X275844Y121231D01*
X275915Y121137D01*
X275964Y121095D01*
X276006Y121048D01*
X276102Y120978D01*
X276192Y120902D01*
X276248Y120872D01*
X276299Y120835D01*
X276408Y120788D01*
X276513Y120733D01*
X276574Y120716D01*
X276633Y120691D01*
X276749Y120669D01*
X276863Y120638D01*
X276927Y120636D01*
X276989Y120624D01*
X277107Y120628D01*
X277226Y120623D01*
X277288Y120634D01*
X277352Y120636D01*
X277466Y120666D01*
X277583Y120687D01*
X277641Y120711D01*
X277703Y120727D01*
X277808Y120781D01*
X277917Y120827D01*
X277960Y120859D01*
X278026Y120893D01*
X278230Y121063D01*
X278282Y121102D01*
X283488Y126308D01*
X283523Y126351D01*
X283563Y126389D01*
X283636Y126492D01*
X283715Y126591D01*
X283739Y126641D01*
X283771Y126687D01*
X283818Y126803D01*
X283874Y126917D01*
X283887Y126971D01*
X283908Y127022D01*
X283920Y127110D01*
X283958Y127270D01*
X283960Y127397D01*
X283971Y127475D01*
X283971Y155765D01*
X283954Y155922D01*
X283941Y156079D01*
X283934Y156102D01*
X283931Y156126D01*
X283880Y156274D01*
X283833Y156426D01*
X283821Y156446D01*
X283814Y156469D01*
X283731Y156603D01*
X283652Y156740D01*
X283636Y156758D01*
X283624Y156778D01*
X283514Y156891D01*
X283407Y157007D01*
X283388Y157021D01*
X283371Y157038D01*
X283239Y157125D01*
X283109Y157215D01*
X283087Y157224D01*
X283067Y157237D01*
X282920Y157292D01*
X282774Y157352D01*
X282753Y157355D01*
X282728Y157364D01*
X282369Y157415D01*
X282342Y157412D01*
X282321Y157415D01*
X282238Y157415D01*
X281658Y157996D01*
X281649Y158003D01*
X281643Y158011D01*
X281507Y158117D01*
X281374Y158223D01*
X281365Y158228D01*
X281357Y158234D01*
X281201Y158308D01*
X281049Y158382D01*
X281038Y158385D01*
X281029Y158389D01*
X280862Y158427D01*
X280696Y158467D01*
X280685Y158467D01*
X280675Y158469D01*
X280503Y158469D01*
X280333Y158472D01*
X280323Y158470D01*
X280312Y158470D01*
X280145Y158433D01*
X279978Y158398D01*
X279968Y158393D01*
X279958Y158391D01*
X279803Y158318D01*
X279647Y158248D01*
X279639Y158241D01*
X279629Y158237D01*
X279494Y158132D01*
X279358Y158029D01*
X279351Y158021D01*
X279343Y158015D01*
X279310Y157973D01*
X279123Y157753D01*
X279092Y157693D01*
X279061Y157654D01*
X278903Y157380D01*
X278430Y156907D01*
X277851Y156572D01*
X277204Y156399D01*
X273869Y156399D01*
X273869Y163091D01*
X273852Y163248D01*
X273839Y163405D01*
X273832Y163428D01*
X273829Y163451D01*
X273778Y163600D01*
X273731Y163751D01*
X273719Y163772D01*
X273712Y163795D01*
X273629Y163929D01*
X273624Y163937D01*
X273669Y164001D01*
X273678Y164023D01*
X273691Y164043D01*
X273746Y164190D01*
X273806Y164337D01*
X273809Y164357D01*
X273818Y164382D01*
X273869Y164742D01*
X273866Y164769D01*
X273869Y164789D01*
X273869Y171481D01*
X277204Y171481D01*
X277851Y171308D01*
X278430Y170973D01*
X278903Y170500D01*
X279061Y170226D01*
X279068Y170217D01*
X279072Y170207D01*
X279176Y170070D01*
X279276Y169933D01*
X279284Y169926D01*
X279291Y169918D01*
X279421Y169807D01*
X279550Y169695D01*
X279559Y169690D01*
X279567Y169683D01*
X279718Y169604D01*
X279869Y169522D01*
X279879Y169519D01*
X279888Y169514D01*
X280053Y169470D01*
X280218Y169423D01*
X280228Y169423D01*
X280239Y169420D01*
X280411Y169412D01*
X280580Y169403D01*
X280590Y169405D01*
X280601Y169404D01*
X280771Y169435D01*
X280938Y169462D01*
X280948Y169466D01*
X280958Y169468D01*
X281116Y169535D01*
X281274Y169598D01*
X281283Y169604D01*
X281293Y169609D01*
X281335Y169640D01*
X281573Y169805D01*
X281619Y169854D01*
X281658Y169884D01*
X282238Y170465D01*
X282321Y170465D01*
X282478Y170482D01*
X282635Y170495D01*
X282658Y170502D01*
X282682Y170505D01*
X282830Y170556D01*
X282982Y170603D01*
X283002Y170615D01*
X283025Y170622D01*
X283159Y170705D01*
X283296Y170784D01*
X283314Y170800D01*
X283334Y170812D01*
X283447Y170922D01*
X283563Y171029D01*
X283577Y171048D01*
X283594Y171065D01*
X283681Y171197D01*
X283771Y171327D01*
X283780Y171349D01*
X283793Y171369D01*
X283848Y171516D01*
X283908Y171662D01*
X283911Y171683D01*
X283920Y171708D01*
X283971Y172067D01*
X283968Y172094D01*
X283971Y172115D01*
X283971Y176563D01*
X283965Y176618D01*
X283968Y176673D01*
X283945Y176798D01*
X283931Y176924D01*
X283913Y176976D01*
X283904Y177031D01*
X283855Y177147D01*
X283814Y177267D01*
X283785Y177314D01*
X283763Y177365D01*
X283710Y177436D01*
X283624Y177576D01*
X283536Y177667D01*
X283488Y177730D01*
X201446Y259772D01*
X201323Y259870D01*
X201202Y259973D01*
X201181Y259984D01*
X201163Y259999D01*
X201021Y260068D01*
X200881Y260141D01*
X200858Y260148D01*
X200837Y260158D01*
X200684Y260195D01*
X200531Y260236D01*
X200507Y260237D01*
X200484Y260243D01*
X200327Y260245D01*
X200169Y260252D01*
X200145Y260247D01*
X200121Y260248D01*
X199967Y260215D01*
X199811Y260188D01*
X199789Y260178D01*
X199766Y260174D01*
X199622Y260108D01*
X199477Y260047D01*
X199460Y260035D01*
X199436Y260024D01*
X199146Y259805D01*
X199129Y259784D01*
X199112Y259772D01*
X174982Y235642D01*
X172638Y233298D01*
X141495Y233298D01*
X141338Y233281D01*
X141181Y233268D01*
X141158Y233261D01*
X141134Y233258D01*
X140986Y233207D01*
X140834Y233160D01*
X140814Y233148D01*
X140791Y233141D01*
X140657Y233058D01*
X140520Y232979D01*
X140502Y232963D01*
X140482Y232951D01*
X140369Y232841D01*
X140253Y232734D01*
X140239Y232715D01*
X140222Y232698D01*
X140135Y232566D01*
X140045Y232436D01*
X140036Y232414D01*
X140023Y232394D01*
X139968Y232247D01*
X139908Y232101D01*
X139905Y232080D01*
X139896Y232055D01*
X139845Y231696D01*
X139848Y231669D01*
X139845Y231648D01*
X139845Y226822D01*
X139862Y226665D01*
X139875Y226508D01*
X139882Y226485D01*
X139885Y226461D01*
X139936Y226313D01*
X139983Y226161D01*
X139995Y226141D01*
X140002Y226118D01*
X140085Y225984D01*
X140164Y225847D01*
X140180Y225829D01*
X140192Y225809D01*
X140302Y225696D01*
X140409Y225580D01*
X140428Y225566D01*
X140445Y225549D01*
X140577Y225462D01*
X140707Y225372D01*
X140729Y225363D01*
X140749Y225350D01*
X140896Y225295D01*
X141042Y225235D01*
X141063Y225232D01*
X141088Y225223D01*
X141240Y225201D01*
X145543Y220898D01*
X145543Y192626D01*
X145549Y192571D01*
X145546Y192516D01*
X145569Y192391D01*
X145583Y192265D01*
X145601Y192213D01*
X145610Y192158D01*
X145659Y192042D01*
X145700Y191922D01*
X145729Y191875D01*
X145751Y191824D01*
X145804Y191753D01*
X145890Y191613D01*
X145978Y191522D01*
X146026Y191459D01*
X156893Y180592D01*
X156968Y180532D01*
X157037Y180464D01*
X157109Y180419D01*
X157176Y180366D01*
X157263Y180323D01*
X157345Y180272D01*
X157425Y180244D01*
X157502Y180206D01*
X157596Y180184D01*
X157687Y180152D01*
X157772Y180142D01*
X157855Y180122D01*
X157951Y180121D01*
X158047Y180109D01*
X158132Y180118D01*
X158217Y180117D01*
X158312Y180136D01*
X158408Y180146D01*
X158489Y180173D01*
X158572Y180191D01*
X158661Y180231D01*
X158752Y180262D01*
X158825Y180306D01*
X158903Y180341D01*
X158980Y180399D01*
X159063Y180449D01*
X159124Y180508D01*
X159192Y180559D01*
X159255Y180633D01*
X159325Y180700D01*
X159372Y180771D01*
X159427Y180836D01*
X159472Y180921D01*
X159526Y181002D01*
X159556Y181082D01*
X159596Y181157D01*
X159621Y181250D01*
X159656Y181341D01*
X159668Y181425D01*
X159690Y181507D01*
X159695Y181604D01*
X159709Y181700D01*
X159702Y181768D01*
X159706Y181870D01*
X159671Y182067D01*
X159662Y182154D01*
X159121Y184350D01*
X160767Y191028D01*
X165327Y196176D01*
X171758Y198615D01*
X178585Y197786D01*
X181210Y195974D01*
X181261Y195946D01*
X181308Y195911D01*
X181420Y195861D01*
X181529Y195802D01*
X181585Y195786D01*
X181639Y195762D01*
X181760Y195737D01*
X181878Y195704D01*
X181937Y195701D01*
X181994Y195689D01*
X182117Y195691D01*
X182241Y195685D01*
X182298Y195694D01*
X182357Y195695D01*
X182477Y195724D01*
X182598Y195745D01*
X182653Y195767D01*
X182710Y195781D01*
X182820Y195835D01*
X182934Y195882D01*
X182982Y195915D01*
X183035Y195941D01*
X183102Y195998D01*
X183232Y196089D01*
X183304Y196167D01*
X189758Y198615D01*
X196585Y197786D01*
X202246Y193879D01*
X205442Y187789D01*
X205442Y180911D01*
X202246Y174821D01*
X199016Y172592D01*
X198921Y172510D01*
X198821Y172434D01*
X198785Y172391D01*
X198742Y172355D01*
X198667Y172254D01*
X198586Y172158D01*
X198560Y172108D01*
X198527Y172063D01*
X198476Y171948D01*
X198417Y171836D01*
X198403Y171782D01*
X198380Y171731D01*
X198356Y171608D01*
X198323Y171486D01*
X198320Y171430D01*
X198310Y171375D01*
X198313Y171250D01*
X198307Y171124D01*
X198317Y171068D01*
X198318Y171012D01*
X198349Y170890D01*
X198371Y170767D01*
X198393Y170715D01*
X198406Y170660D01*
X198463Y170548D01*
X198512Y170432D01*
X198540Y170394D01*
X198569Y170336D01*
X198759Y170104D01*
X198787Y170067D01*
X201525Y167329D01*
X210694Y158160D01*
X210694Y154619D01*
X210700Y154564D01*
X210697Y154508D01*
X210720Y154384D01*
X210734Y154258D01*
X210752Y154206D01*
X210761Y154151D01*
X210810Y154035D01*
X210851Y153915D01*
X210880Y153868D01*
X210902Y153817D01*
X210955Y153746D01*
X211041Y153606D01*
X211129Y153515D01*
X211177Y153452D01*
X212017Y152612D01*
X212825Y150662D01*
X212825Y148550D01*
X212017Y146600D01*
X210524Y145107D01*
X208574Y144299D01*
X206462Y144299D01*
X204512Y145107D01*
X203019Y146600D01*
X202158Y148680D01*
X202082Y148818D01*
X202010Y148958D01*
X201995Y148976D01*
X201983Y148997D01*
X201878Y149116D01*
X201778Y149237D01*
X201759Y149251D01*
X201743Y149269D01*
X201615Y149362D01*
X201490Y149458D01*
X201468Y149468D01*
X201449Y149482D01*
X201304Y149545D01*
X201161Y149611D01*
X201138Y149617D01*
X201116Y149626D01*
X200961Y149655D01*
X200807Y149689D01*
X200783Y149689D01*
X200760Y149693D01*
X200602Y149688D01*
X200444Y149687D01*
X200424Y149682D01*
X200397Y149681D01*
X200046Y149590D01*
X200022Y149578D01*
X200002Y149573D01*
X198922Y149125D01*
X196810Y149125D01*
X194860Y149933D01*
X194020Y150773D01*
X193977Y150808D01*
X193939Y150848D01*
X193836Y150921D01*
X193737Y151000D01*
X193687Y151024D01*
X193642Y151056D01*
X193525Y151104D01*
X193411Y151159D01*
X193357Y151172D01*
X193306Y151193D01*
X193218Y151205D01*
X193058Y151243D01*
X192932Y151245D01*
X192853Y151256D01*
X128076Y151256D01*
X128021Y151250D01*
X127965Y151253D01*
X127841Y151230D01*
X127715Y151216D01*
X127663Y151198D01*
X127608Y151189D01*
X127492Y151140D01*
X127372Y151099D01*
X127325Y151070D01*
X127274Y151048D01*
X127203Y150995D01*
X127063Y150909D01*
X126972Y150821D01*
X126909Y150773D01*
X126069Y149933D01*
X124119Y149125D01*
X122007Y149125D01*
X120057Y149933D01*
X118564Y151426D01*
X117756Y153376D01*
X117756Y155488D01*
X118564Y157438D01*
X120057Y158931D01*
X122075Y159767D01*
X122179Y159824D01*
X122287Y159873D01*
X122337Y159911D01*
X122393Y159942D01*
X122482Y160020D01*
X122576Y160091D01*
X122618Y160140D01*
X122665Y160182D01*
X122735Y160278D01*
X122811Y160368D01*
X122841Y160424D01*
X122878Y160475D01*
X122925Y160584D01*
X122980Y160689D01*
X122997Y160750D01*
X123022Y160809D01*
X123044Y160925D01*
X123075Y161039D01*
X123077Y161103D01*
X123089Y161165D01*
X123085Y161283D01*
X123090Y161402D01*
X123079Y161464D01*
X123077Y161528D01*
X123047Y161642D01*
X123026Y161759D01*
X123002Y161817D01*
X122986Y161879D01*
X122932Y161984D01*
X122886Y162093D01*
X122854Y162136D01*
X122820Y162202D01*
X122650Y162406D01*
X122611Y162458D01*
X110166Y174903D01*
X107822Y177247D01*
X107822Y270670D01*
X107814Y270749D01*
X107815Y270828D01*
X107794Y270928D01*
X107782Y271031D01*
X107757Y271105D01*
X107741Y271183D01*
X107698Y271277D01*
X107665Y271374D01*
X107623Y271441D01*
X107591Y271513D01*
X107529Y271595D01*
X107475Y271683D01*
X107420Y271740D01*
X107372Y271803D01*
X107294Y271869D01*
X107222Y271943D01*
X107156Y271987D01*
X107095Y272038D01*
X107004Y272086D01*
X106918Y272142D01*
X106844Y272170D01*
X106774Y272206D01*
X106675Y272233D01*
X106579Y272269D01*
X106501Y272280D01*
X106424Y272301D01*
X106321Y272305D01*
X106220Y272320D01*
X106141Y272313D01*
X106062Y272317D01*
X105960Y272299D01*
X105858Y272290D01*
X105782Y272267D01*
X105704Y272253D01*
X105610Y272213D01*
X105512Y272182D01*
X105443Y272143D01*
X105370Y272112D01*
X105307Y272065D01*
X105197Y272002D01*
X105076Y271890D01*
X105005Y271837D01*
X83288Y250120D01*
X83253Y250077D01*
X83213Y250039D01*
X83140Y249936D01*
X83061Y249837D01*
X83037Y249787D01*
X83005Y249741D01*
X82957Y249624D01*
X82902Y249511D01*
X82889Y249457D01*
X82868Y249406D01*
X82856Y249318D01*
X82818Y249158D01*
X82816Y249031D01*
X82805Y248953D01*
X82805Y84295D01*
X82822Y84138D01*
X82835Y83981D01*
X82842Y83958D01*
X82845Y83934D01*
X82896Y83786D01*
X82943Y83634D01*
X82955Y83614D01*
X82962Y83591D01*
X83045Y83457D01*
X83124Y83320D01*
X83140Y83302D01*
X83152Y83282D01*
X83262Y83169D01*
X83369Y83053D01*
X83388Y83039D01*
X83405Y83022D01*
X83537Y82935D01*
X83667Y82845D01*
X83689Y82836D01*
X83709Y82823D01*
X83856Y82768D01*
X84002Y82708D01*
X84023Y82705D01*
X84048Y82696D01*
X84407Y82645D01*
X84434Y82648D01*
X84455Y82645D01*
X89535Y82645D01*
X89590Y82651D01*
X89645Y82648D01*
X89770Y82671D01*
X89896Y82685D01*
X89948Y82703D01*
X90003Y82712D01*
X90119Y82761D01*
X90239Y82802D01*
X90286Y82831D01*
X90337Y82853D01*
X90408Y82906D01*
X90548Y82992D01*
X90639Y83080D01*
X90702Y83128D01*
X95205Y87631D01*
X220910Y87631D01*
X220946Y87594D01*
X221032Y87537D01*
X221112Y87473D01*
X221183Y87438D01*
X221250Y87395D01*
X221346Y87359D01*
X221438Y87314D01*
X221515Y87295D01*
X221589Y87268D01*
X221691Y87253D01*
X221791Y87229D01*
X221870Y87228D01*
X221949Y87217D01*
X222051Y87226D01*
X222154Y87224D01*
X222231Y87240D01*
X222310Y87247D01*
X222408Y87277D01*
X222509Y87298D01*
X222581Y87331D01*
X222657Y87355D01*
X222746Y87406D01*
X222839Y87448D01*
X222902Y87496D01*
X222971Y87535D01*
X223047Y87605D01*
X223129Y87667D01*
X223180Y87727D01*
X223238Y87781D01*
X223297Y87865D01*
X223364Y87943D01*
X223400Y88014D01*
X223446Y88078D01*
X223485Y88174D01*
X223532Y88265D01*
X223553Y88341D01*
X223583Y88414D01*
X223594Y88493D01*
X223627Y88615D01*
X223634Y88779D01*
X223646Y88867D01*
X223646Y120463D01*
X223640Y120518D01*
X223643Y120574D01*
X223620Y120698D01*
X223606Y120824D01*
X223588Y120876D01*
X223579Y120931D01*
X223530Y121048D01*
X223489Y121167D01*
X223460Y121214D01*
X223438Y121265D01*
X223385Y121336D01*
X223299Y121476D01*
X223211Y121567D01*
X223163Y121630D01*
X222323Y122470D01*
X221487Y124488D01*
X221430Y124592D01*
X221381Y124700D01*
X221343Y124750D01*
X221312Y124806D01*
X221234Y124895D01*
X221163Y124989D01*
X221114Y125031D01*
X221072Y125078D01*
X220976Y125148D01*
X220886Y125224D01*
X220830Y125254D01*
X220779Y125291D01*
X220670Y125338D01*
X220565Y125393D01*
X220504Y125410D01*
X220445Y125435D01*
X220329Y125457D01*
X220215Y125488D01*
X220151Y125490D01*
X220089Y125502D01*
X219971Y125498D01*
X219852Y125503D01*
X219790Y125492D01*
X219726Y125490D01*
X219612Y125460D01*
X219495Y125439D01*
X219437Y125415D01*
X219375Y125399D01*
X219270Y125345D01*
X219161Y125299D01*
X219118Y125267D01*
X219052Y125233D01*
X218848Y125063D01*
X218796Y125024D01*
X194004Y100232D01*
X193969Y100189D01*
X193929Y100151D01*
X193856Y100048D01*
X193777Y99949D01*
X193753Y99899D01*
X193721Y99853D01*
X193673Y99736D01*
X193618Y99623D01*
X193605Y99569D01*
X193584Y99518D01*
X193572Y99430D01*
X193534Y99270D01*
X193532Y99143D01*
X193521Y99065D01*
X193521Y97877D01*
X192713Y95927D01*
X191220Y94434D01*
X189270Y93626D01*
X187158Y93626D01*
X185208Y94434D01*
X183715Y95927D01*
X182907Y97877D01*
X182907Y99989D01*
X183715Y101939D01*
X185208Y103432D01*
X187158Y104240D01*
X188346Y104240D01*
X188401Y104246D01*
X188456Y104243D01*
X188581Y104266D01*
X188707Y104280D01*
X188759Y104298D01*
X188814Y104307D01*
X188930Y104356D01*
X189050Y104397D01*
X189097Y104426D01*
X189148Y104448D01*
X189219Y104501D01*
X189359Y104587D01*
X189450Y104675D01*
X189513Y104723D01*
X230402Y145612D01*
X230437Y145655D01*
X230477Y145693D01*
X230550Y145796D01*
X230629Y145895D01*
X230653Y145945D01*
X230685Y145991D01*
X230733Y146108D01*
X230788Y146221D01*
X230801Y146275D01*
X230822Y146326D01*
X230834Y146414D01*
X230872Y146574D01*
X230874Y146701D01*
X230885Y146779D01*
X230885Y168723D01*
X230879Y168778D01*
X230882Y168834D01*
X230859Y168958D01*
X230845Y169084D01*
X230827Y169136D01*
X230818Y169191D01*
X230769Y169307D01*
X230728Y169427D01*
X230699Y169474D01*
X230677Y169525D01*
X230624Y169596D01*
X230538Y169736D01*
X230450Y169827D01*
X230402Y169890D01*
X229562Y170730D01*
X228754Y172680D01*
X228754Y174792D01*
X229562Y176742D01*
X231055Y178235D01*
X233005Y179043D01*
X235117Y179043D01*
X237067Y178235D01*
X238560Y176742D01*
X239368Y174792D01*
X239368Y172680D01*
X238560Y170730D01*
X237720Y169890D01*
X237685Y169847D01*
X237645Y169809D01*
X237572Y169706D01*
X237493Y169607D01*
X237469Y169557D01*
X237437Y169512D01*
X237389Y169395D01*
X237334Y169281D01*
X237321Y169227D01*
X237300Y169176D01*
X237288Y169088D01*
X237250Y168928D01*
X237248Y168802D01*
X237237Y168723D01*
X237237Y143465D01*
X227274Y133502D01*
X227200Y133410D01*
X227119Y133323D01*
X227087Y133269D01*
X227048Y133219D01*
X226996Y133113D01*
X226936Y133011D01*
X226916Y132950D01*
X226888Y132893D01*
X226861Y132778D01*
X226824Y132665D01*
X226819Y132602D01*
X226804Y132540D01*
X226802Y132422D01*
X226791Y132304D01*
X226800Y132241D01*
X226799Y132178D01*
X226823Y132062D01*
X226838Y131944D01*
X226860Y131885D01*
X226873Y131823D01*
X226922Y131714D01*
X226962Y131603D01*
X226997Y131550D01*
X227023Y131492D01*
X227094Y131398D01*
X227158Y131298D01*
X227203Y131253D01*
X227241Y131203D01*
X227332Y131126D01*
X227416Y131042D01*
X227462Y131016D01*
X227518Y130968D01*
X227753Y130844D01*
X227810Y130811D01*
X229828Y129975D01*
X231321Y128482D01*
X232129Y126532D01*
X232129Y124420D01*
X231321Y122470D01*
X230481Y121630D01*
X230447Y121587D01*
X230406Y121550D01*
X230333Y121446D01*
X230254Y121347D01*
X230230Y121297D01*
X230198Y121252D01*
X230150Y121135D01*
X230095Y121021D01*
X230082Y120967D01*
X230061Y120916D01*
X230049Y120828D01*
X230011Y120668D01*
X230009Y120542D01*
X229998Y120463D01*
X229998Y86454D01*
X230004Y86399D01*
X230001Y86344D01*
X230024Y86219D01*
X230038Y86093D01*
X230056Y86041D01*
X230065Y85986D01*
X230114Y85870D01*
X230155Y85750D01*
X230184Y85703D01*
X230206Y85652D01*
X230259Y85581D01*
X230345Y85441D01*
X230433Y85350D01*
X230481Y85287D01*
X232751Y83017D01*
X232874Y82919D01*
X232995Y82816D01*
X233016Y82805D01*
X233034Y82790D01*
X233176Y82721D01*
X233316Y82648D01*
X233339Y82641D01*
X233360Y82631D01*
X233513Y82594D01*
X233666Y82553D01*
X233690Y82552D01*
X233713Y82547D01*
X233871Y82544D01*
X234028Y82538D01*
X234052Y82542D01*
X234076Y82541D01*
X234230Y82574D01*
X234386Y82602D01*
X234407Y82611D01*
X234431Y82616D01*
X234495Y82645D01*
X239169Y82645D01*
X239326Y82662D01*
X239483Y82675D01*
X239506Y82682D01*
X239530Y82685D01*
X239678Y82736D01*
X239830Y82783D01*
X239850Y82795D01*
X239873Y82802D01*
X240007Y82885D01*
X240144Y82964D01*
X240162Y82980D01*
X240182Y82992D01*
X240295Y83102D01*
X240411Y83209D01*
X240425Y83228D01*
X240442Y83245D01*
X240529Y83377D01*
X240619Y83507D01*
X240628Y83529D01*
X240641Y83549D01*
X240696Y83696D01*
X240756Y83842D01*
X240759Y83863D01*
X240768Y83888D01*
X240819Y84247D01*
X240816Y84274D01*
X240819Y84295D01*
X240819Y85511D01*
X241627Y87461D01*
X242467Y88301D01*
X242502Y88344D01*
X242542Y88382D01*
X242615Y88485D01*
X242694Y88584D01*
X242718Y88634D01*
X242750Y88679D01*
X242798Y88796D01*
X242853Y88910D01*
X242866Y88964D01*
X242887Y89015D01*
X242899Y89103D01*
X242937Y89263D01*
X242939Y89389D01*
X242950Y89468D01*
X242950Y142180D01*
X242944Y142235D01*
X242947Y142291D01*
X242924Y142415D01*
X242910Y142541D01*
X242892Y142593D01*
X242883Y142648D01*
X242834Y142764D01*
X242793Y142884D01*
X242764Y142931D01*
X242742Y142982D01*
X242689Y143053D01*
X242603Y143193D01*
X242515Y143284D01*
X242467Y143347D01*
X241627Y144187D01*
X240819Y146137D01*
X240819Y148249D01*
X241627Y150199D01*
X243120Y151692D01*
X245070Y152500D01*
X247182Y152500D01*
X249132Y151692D01*
X250625Y150199D01*
X251433Y148249D01*
X251433Y146137D01*
X250625Y144187D01*
X249785Y143347D01*
X249750Y143304D01*
X249710Y143266D01*
X249637Y143163D01*
X249558Y143064D01*
X249534Y143014D01*
X249502Y142969D01*
X249454Y142852D01*
X249399Y142738D01*
X249386Y142684D01*
X249365Y142633D01*
X249353Y142545D01*
X249315Y142385D01*
X249313Y142259D01*
X249302Y142180D01*
X249302Y89468D01*
X249308Y89413D01*
X249305Y89357D01*
X249328Y89233D01*
X249342Y89107D01*
X249360Y89055D01*
X249369Y89000D01*
X249418Y88884D01*
X249459Y88764D01*
X249488Y88717D01*
X249510Y88666D01*
X249563Y88595D01*
X249649Y88455D01*
X249737Y88364D01*
X249785Y88301D01*
X250625Y87461D01*
X251433Y85511D01*
X251433Y83399D01*
X250625Y81449D01*
X249132Y79956D01*
X248475Y79684D01*
X248372Y79627D01*
X248263Y79578D01*
X248213Y79540D01*
X248157Y79509D01*
X248069Y79431D01*
X247974Y79359D01*
X247933Y79311D01*
X247885Y79269D01*
X247816Y79173D01*
X247739Y79083D01*
X247710Y79027D01*
X247672Y78976D01*
X247626Y78867D01*
X247570Y78762D01*
X247554Y78701D01*
X247529Y78642D01*
X247507Y78526D01*
X247476Y78411D01*
X247473Y78348D01*
X247461Y78286D01*
X247465Y78167D01*
X247460Y78049D01*
X247471Y77987D01*
X247474Y77923D01*
X247503Y77809D01*
X247524Y77692D01*
X247549Y77633D01*
X247565Y77572D01*
X247619Y77467D01*
X247645Y77405D01*
X247645Y69712D01*
X244250Y66318D01*
X244201Y66256D01*
X244144Y66201D01*
X244088Y66115D01*
X244024Y66035D01*
X243989Y65964D01*
X243946Y65897D01*
X243909Y65801D01*
X243864Y65709D01*
X243846Y65632D01*
X243818Y65558D01*
X243804Y65456D01*
X243780Y65356D01*
X243779Y65277D01*
X243768Y65198D01*
X243776Y65096D01*
X243775Y64993D01*
X243791Y64916D01*
X243797Y64837D01*
X243828Y64739D01*
X243849Y64638D01*
X243882Y64566D01*
X243905Y64490D01*
X243956Y64401D01*
X243999Y64308D01*
X244046Y64245D01*
X244086Y64176D01*
X244155Y64100D01*
X244217Y64018D01*
X244278Y63967D01*
X244331Y63909D01*
X244416Y63850D01*
X244494Y63783D01*
X244564Y63747D01*
X244629Y63701D01*
X244724Y63662D01*
X244815Y63615D01*
X244891Y63594D01*
X244965Y63564D01*
X247372Y61157D01*
X254531Y53998D01*
X254654Y53899D01*
X254775Y53797D01*
X254796Y53786D01*
X254815Y53771D01*
X254956Y53702D01*
X255096Y53628D01*
X255119Y53622D01*
X255140Y53612D01*
X255293Y53575D01*
X255446Y53534D01*
X255470Y53533D01*
X255493Y53527D01*
X255651Y53525D01*
X255809Y53518D01*
X255832Y53522D01*
X255856Y53522D01*
X256011Y53554D01*
X256166Y53582D01*
X256188Y53591D01*
X256211Y53596D01*
X256355Y53661D01*
X256500Y53722D01*
X256517Y53735D01*
X256542Y53746D01*
X256831Y53965D01*
X256849Y53985D01*
X256865Y53998D01*
X260112Y57245D01*
X267688Y57245D01*
X273045Y51888D01*
X273045Y44312D01*
X270920Y42188D01*
X270871Y42126D01*
X270814Y42071D01*
X270758Y41985D01*
X270694Y41905D01*
X270659Y41834D01*
X270616Y41767D01*
X270579Y41671D01*
X270534Y41579D01*
X270516Y41502D01*
X270488Y41428D01*
X270474Y41326D01*
X270450Y41226D01*
X270449Y41147D01*
X270438Y41068D01*
X270446Y40966D01*
X270445Y40863D01*
X270461Y40786D01*
X270467Y40707D01*
X270498Y40609D01*
X270519Y40508D01*
X270552Y40436D01*
X270575Y40360D01*
X270626Y40271D01*
X270669Y40178D01*
X270716Y40115D01*
X270756Y40046D01*
X270825Y39970D01*
X270887Y39888D01*
X270948Y39837D01*
X271001Y39779D01*
X271086Y39720D01*
X271164Y39653D01*
X271234Y39617D01*
X271299Y39571D01*
X271394Y39532D01*
X271485Y39485D01*
X271561Y39464D01*
X271635Y39434D01*
X271713Y39423D01*
X271835Y39390D01*
X272000Y39383D01*
X272087Y39371D01*
X279676Y39371D01*
X279754Y39379D01*
G37*
G36*
X60213Y219771D02*
X60213Y219771D01*
X60268Y219768D01*
X60392Y219791D01*
X60519Y219805D01*
X60571Y219822D01*
X60625Y219832D01*
X60742Y219881D01*
X60862Y219922D01*
X60909Y219951D01*
X60959Y219972D01*
X61030Y220026D01*
X61171Y220112D01*
X61261Y220200D01*
X61324Y220248D01*
X61358Y220282D01*
X61405Y220339D01*
X61431Y220365D01*
X61433Y220368D01*
X61465Y220399D01*
X61521Y220485D01*
X61585Y220565D01*
X61620Y220636D01*
X61664Y220703D01*
X61700Y220798D01*
X61745Y220890D01*
X61763Y220968D01*
X61791Y221042D01*
X61806Y221144D01*
X61829Y221243D01*
X61831Y221323D01*
X61842Y221402D01*
X61833Y221504D01*
X61835Y221606D01*
X61819Y221684D01*
X61812Y221763D01*
X61782Y221861D01*
X61761Y221961D01*
X61728Y222034D01*
X61704Y222110D01*
X61653Y222198D01*
X61611Y222292D01*
X61563Y222355D01*
X61524Y222424D01*
X61454Y222499D01*
X61393Y222581D01*
X61332Y222633D01*
X61278Y222691D01*
X61194Y222750D01*
X61116Y222816D01*
X61046Y222853D01*
X60981Y222899D01*
X60886Y222937D01*
X60795Y222985D01*
X60718Y223006D01*
X60645Y223036D01*
X60566Y223047D01*
X60445Y223080D01*
X60280Y223087D01*
X60192Y223099D01*
X56119Y223099D01*
X56119Y233291D01*
X56102Y233448D01*
X56089Y233605D01*
X56082Y233628D01*
X56079Y233651D01*
X56028Y233800D01*
X55981Y233951D01*
X55969Y233972D01*
X55962Y233995D01*
X55879Y234129D01*
X55800Y234266D01*
X55784Y234283D01*
X55772Y234304D01*
X55662Y234417D01*
X55555Y234533D01*
X55536Y234547D01*
X55519Y234564D01*
X55408Y234637D01*
X55444Y234658D01*
X55462Y234674D01*
X55482Y234686D01*
X55595Y234796D01*
X55711Y234903D01*
X55725Y234923D01*
X55742Y234939D01*
X55829Y235072D01*
X55919Y235201D01*
X55928Y235223D01*
X55941Y235243D01*
X55996Y235390D01*
X56056Y235537D01*
X56059Y235557D01*
X56068Y235582D01*
X56119Y235942D01*
X56116Y235969D01*
X56119Y235989D01*
X56119Y246181D01*
X62562Y246181D01*
X62669Y246164D01*
X62680Y246165D01*
X62691Y246164D01*
X62861Y246178D01*
X63031Y246189D01*
X63041Y246192D01*
X63052Y246193D01*
X63216Y246244D01*
X63379Y246292D01*
X63388Y246298D01*
X63399Y246301D01*
X63547Y246386D01*
X63695Y246469D01*
X63703Y246476D01*
X63713Y246482D01*
X63839Y246597D01*
X63966Y246711D01*
X63972Y246720D01*
X63980Y246727D01*
X64077Y246866D01*
X64177Y247006D01*
X64182Y247016D01*
X64188Y247025D01*
X64252Y247182D01*
X64319Y247340D01*
X64321Y247350D01*
X64325Y247361D01*
X64332Y247414D01*
X64384Y247697D01*
X64381Y247765D01*
X64388Y247813D01*
X64388Y258899D01*
X64375Y259017D01*
X64371Y259136D01*
X64355Y259197D01*
X64348Y259260D01*
X64310Y259372D01*
X64280Y259487D01*
X64251Y259543D01*
X64231Y259603D01*
X64169Y259704D01*
X64115Y259810D01*
X64074Y259858D01*
X64041Y259912D01*
X63958Y259997D01*
X63882Y260088D01*
X63832Y260127D01*
X63788Y260172D01*
X63689Y260237D01*
X63595Y260310D01*
X63537Y260336D01*
X63484Y260371D01*
X63374Y260413D01*
X63266Y260463D01*
X63204Y260476D01*
X63145Y260499D01*
X63028Y260515D01*
X62912Y260540D01*
X62848Y260540D01*
X62786Y260549D01*
X62667Y260539D01*
X62549Y260539D01*
X62498Y260525D01*
X62424Y260519D01*
X62170Y260440D01*
X62106Y260424D01*
X61381Y260123D01*
X59269Y260123D01*
X57319Y260931D01*
X55826Y262424D01*
X55018Y264374D01*
X55018Y266486D01*
X55826Y268436D01*
X56666Y269276D01*
X56701Y269319D01*
X56741Y269357D01*
X56814Y269460D01*
X56893Y269559D01*
X56917Y269609D01*
X56949Y269654D01*
X56997Y269771D01*
X57052Y269885D01*
X57065Y269939D01*
X57086Y269990D01*
X57098Y270078D01*
X57136Y270238D01*
X57138Y270364D01*
X57149Y270443D01*
X57149Y347886D01*
X57141Y347965D01*
X57142Y348044D01*
X57121Y348144D01*
X57109Y348247D01*
X57084Y348321D01*
X57068Y348399D01*
X57025Y348493D01*
X56992Y348590D01*
X56950Y348657D01*
X56918Y348729D01*
X56856Y348811D01*
X56802Y348899D01*
X56747Y348956D01*
X56699Y349019D01*
X56621Y349085D01*
X56549Y349159D01*
X56483Y349203D01*
X56422Y349254D01*
X56331Y349302D01*
X56245Y349358D01*
X56171Y349386D01*
X56101Y349422D01*
X56002Y349449D01*
X55906Y349485D01*
X55828Y349496D01*
X55751Y349517D01*
X55648Y349521D01*
X55547Y349536D01*
X55468Y349529D01*
X55389Y349533D01*
X55287Y349515D01*
X55185Y349506D01*
X55109Y349483D01*
X55031Y349469D01*
X54937Y349429D01*
X54839Y349398D01*
X54770Y349359D01*
X54697Y349328D01*
X54634Y349281D01*
X54524Y349218D01*
X54403Y349106D01*
X54332Y349053D01*
X42267Y336988D01*
X42232Y336945D01*
X42192Y336907D01*
X42119Y336804D01*
X42040Y336705D01*
X42016Y336655D01*
X41984Y336609D01*
X41936Y336492D01*
X41881Y336379D01*
X41868Y336325D01*
X41847Y336274D01*
X41835Y336186D01*
X41797Y336026D01*
X41795Y335899D01*
X41784Y335821D01*
X41784Y247795D01*
X41785Y247784D01*
X41784Y247774D01*
X41805Y247604D01*
X41824Y247434D01*
X41827Y247424D01*
X41828Y247414D01*
X41886Y247253D01*
X41941Y247091D01*
X41947Y247082D01*
X41951Y247072D01*
X42042Y246927D01*
X42131Y246782D01*
X42139Y246774D01*
X42144Y246765D01*
X42265Y246644D01*
X42384Y246522D01*
X42393Y246516D01*
X42401Y246508D01*
X42545Y246416D01*
X42688Y246323D01*
X42698Y246319D01*
X42707Y246314D01*
X42868Y246256D01*
X43027Y246196D01*
X43038Y246194D01*
X43048Y246191D01*
X43217Y246169D01*
X43386Y246145D01*
X43397Y246146D01*
X43408Y246145D01*
X43460Y246151D01*
X43748Y246175D01*
X43767Y246181D01*
X50121Y246181D01*
X50121Y235989D01*
X50138Y235832D01*
X50151Y235675D01*
X50158Y235652D01*
X50161Y235629D01*
X50212Y235480D01*
X50259Y235329D01*
X50271Y235308D01*
X50278Y235285D01*
X50361Y235151D01*
X50440Y235014D01*
X50456Y234997D01*
X50468Y234976D01*
X50578Y234863D01*
X50685Y234747D01*
X50704Y234733D01*
X50721Y234716D01*
X50832Y234643D01*
X50796Y234622D01*
X50778Y234606D01*
X50758Y234594D01*
X50645Y234484D01*
X50529Y234377D01*
X50515Y234357D01*
X50498Y234341D01*
X50411Y234208D01*
X50321Y234079D01*
X50312Y234057D01*
X50299Y234037D01*
X50244Y233890D01*
X50184Y233743D01*
X50181Y233723D01*
X50172Y233698D01*
X50121Y233338D01*
X50124Y233311D01*
X50121Y233291D01*
X50121Y223099D01*
X43734Y223099D01*
X43672Y223108D01*
X43503Y223134D01*
X43492Y223133D01*
X43481Y223135D01*
X43311Y223121D01*
X43141Y223109D01*
X43131Y223106D01*
X43120Y223105D01*
X42956Y223054D01*
X42793Y223006D01*
X42784Y223001D01*
X42773Y222997D01*
X42625Y222912D01*
X42476Y222829D01*
X42468Y222822D01*
X42459Y222816D01*
X42333Y222701D01*
X42206Y222587D01*
X42199Y222578D01*
X42192Y222571D01*
X42095Y222432D01*
X41995Y222292D01*
X41990Y222282D01*
X41984Y222273D01*
X41919Y222115D01*
X41853Y221958D01*
X41851Y221948D01*
X41847Y221938D01*
X41840Y221885D01*
X41788Y221601D01*
X41791Y221534D01*
X41784Y221485D01*
X41784Y221415D01*
X41801Y221258D01*
X41802Y221250D01*
X41802Y221239D01*
X41803Y221236D01*
X41814Y221101D01*
X41821Y221078D01*
X41824Y221054D01*
X41875Y220906D01*
X41922Y220754D01*
X41934Y220734D01*
X41941Y220711D01*
X42024Y220577D01*
X42103Y220440D01*
X42119Y220422D01*
X42131Y220402D01*
X42241Y220289D01*
X42348Y220173D01*
X42367Y220159D01*
X42384Y220142D01*
X42516Y220055D01*
X42646Y219965D01*
X42668Y219956D01*
X42688Y219943D01*
X42835Y219888D01*
X42981Y219828D01*
X43002Y219825D01*
X43027Y219816D01*
X43386Y219765D01*
X43413Y219768D01*
X43434Y219765D01*
X60158Y219765D01*
X60213Y219771D01*
G37*
G36*
X154463Y323698D02*
X154463Y323698D01*
X154542Y323694D01*
X154644Y323712D01*
X154746Y323721D01*
X154822Y323744D01*
X154900Y323758D01*
X154994Y323798D01*
X155092Y323829D01*
X155161Y323868D01*
X155234Y323899D01*
X155297Y323946D01*
X155407Y324009D01*
X155528Y324121D01*
X155599Y324174D01*
X170077Y338652D01*
X170112Y338695D01*
X170152Y338733D01*
X170225Y338836D01*
X170304Y338935D01*
X170328Y338985D01*
X170360Y339031D01*
X170408Y339148D01*
X170463Y339261D01*
X170476Y339315D01*
X170497Y339366D01*
X170509Y339454D01*
X170547Y339614D01*
X170549Y339741D01*
X170560Y339819D01*
X170560Y365907D01*
X170552Y365985D01*
X170553Y366065D01*
X170532Y366165D01*
X170520Y366267D01*
X170495Y366342D01*
X170479Y366420D01*
X170436Y366513D01*
X170403Y366611D01*
X170361Y366678D01*
X170329Y366750D01*
X170267Y366832D01*
X170213Y366920D01*
X170158Y366976D01*
X170110Y367040D01*
X170032Y367106D01*
X169960Y367180D01*
X169894Y367223D01*
X169833Y367274D01*
X169743Y367322D01*
X169656Y367379D01*
X169582Y367406D01*
X169512Y367443D01*
X169413Y367470D01*
X169317Y367506D01*
X169239Y367517D01*
X169162Y367538D01*
X169059Y367542D01*
X168958Y367556D01*
X168879Y367550D01*
X168800Y367553D01*
X168698Y367535D01*
X168596Y367527D01*
X168520Y367503D01*
X168442Y367489D01*
X168348Y367450D01*
X168250Y367419D01*
X168181Y367380D01*
X168108Y367349D01*
X168045Y367301D01*
X167935Y367238D01*
X167814Y367127D01*
X167743Y367074D01*
X167009Y366339D01*
X165339Y366339D01*
X165339Y375611D01*
X165322Y375768D01*
X165309Y375925D01*
X165302Y375948D01*
X165299Y375971D01*
X165248Y376120D01*
X165201Y376271D01*
X165189Y376292D01*
X165182Y376315D01*
X165099Y376449D01*
X165020Y376586D01*
X165004Y376603D01*
X164992Y376624D01*
X164882Y376737D01*
X164775Y376853D01*
X164756Y376867D01*
X164739Y376884D01*
X164607Y376971D01*
X164477Y377060D01*
X164455Y377069D01*
X164435Y377083D01*
X164288Y377138D01*
X164142Y377198D01*
X164121Y377201D01*
X164096Y377210D01*
X163737Y377260D01*
X163710Y377258D01*
X163689Y377261D01*
X161911Y377261D01*
X161754Y377244D01*
X161597Y377231D01*
X161574Y377224D01*
X161550Y377221D01*
X161402Y377170D01*
X161250Y377123D01*
X161230Y377111D01*
X161207Y377103D01*
X161073Y377021D01*
X160936Y376942D01*
X160918Y376926D01*
X160898Y376914D01*
X160785Y376804D01*
X160669Y376697D01*
X160655Y376677D01*
X160638Y376661D01*
X160551Y376528D01*
X160461Y376399D01*
X160452Y376377D01*
X160439Y376357D01*
X160384Y376210D01*
X160324Y376063D01*
X160321Y376043D01*
X160312Y376018D01*
X160261Y375658D01*
X160264Y375631D01*
X160261Y375611D01*
X160261Y366339D01*
X158591Y366339D01*
X155599Y369332D01*
X155537Y369381D01*
X155482Y369438D01*
X155396Y369494D01*
X155316Y369558D01*
X155245Y369593D01*
X155178Y369637D01*
X155082Y369673D01*
X154990Y369718D01*
X154913Y369736D01*
X154839Y369764D01*
X154737Y369778D01*
X154637Y369802D01*
X154558Y369803D01*
X154479Y369814D01*
X154377Y369806D01*
X154274Y369807D01*
X154197Y369791D01*
X154118Y369785D01*
X154020Y369754D01*
X153919Y369733D01*
X153847Y369701D01*
X153771Y369677D01*
X153682Y369626D01*
X153589Y369583D01*
X153526Y369536D01*
X153457Y369496D01*
X153381Y369427D01*
X153299Y369365D01*
X153248Y369304D01*
X153190Y369251D01*
X153131Y369167D01*
X153064Y369088D01*
X153028Y369018D01*
X152982Y368953D01*
X152943Y368858D01*
X152896Y368767D01*
X152875Y368691D01*
X152845Y368617D01*
X152834Y368539D01*
X152801Y368417D01*
X152794Y368253D01*
X152782Y368165D01*
X152782Y325341D01*
X152790Y325262D01*
X152789Y325183D01*
X152810Y325083D01*
X152822Y324980D01*
X152847Y324906D01*
X152863Y324828D01*
X152906Y324734D01*
X152939Y324637D01*
X152981Y324570D01*
X153013Y324498D01*
X153075Y324416D01*
X153129Y324328D01*
X153184Y324271D01*
X153232Y324208D01*
X153310Y324142D01*
X153382Y324068D01*
X153448Y324024D01*
X153509Y323973D01*
X153600Y323925D01*
X153686Y323869D01*
X153760Y323841D01*
X153830Y323805D01*
X153929Y323778D01*
X154025Y323742D01*
X154103Y323731D01*
X154180Y323710D01*
X154283Y323706D01*
X154384Y323691D01*
X154463Y323698D01*
G37*
%LPC*%
G36*
X267944Y290693D02*
X267944Y290693D01*
X265994Y291501D01*
X264501Y292994D01*
X263693Y294944D01*
X263693Y296132D01*
X263687Y296187D01*
X263690Y296242D01*
X263667Y296367D01*
X263653Y296493D01*
X263635Y296545D01*
X263626Y296600D01*
X263577Y296716D01*
X263536Y296836D01*
X263507Y296883D01*
X263485Y296934D01*
X263432Y297005D01*
X263346Y297145D01*
X263258Y297236D01*
X263210Y297299D01*
X258037Y302472D01*
X257994Y302507D01*
X257956Y302547D01*
X257853Y302620D01*
X257754Y302699D01*
X257704Y302723D01*
X257658Y302755D01*
X257541Y302803D01*
X257428Y302858D01*
X257374Y302871D01*
X257323Y302892D01*
X257235Y302904D01*
X257075Y302942D01*
X256948Y302944D01*
X256870Y302955D01*
X253868Y302955D01*
X252975Y303848D01*
X252975Y315112D01*
X253868Y316005D01*
X266132Y316005D01*
X267025Y315112D01*
X267025Y303165D01*
X267026Y303156D01*
X267021Y303047D01*
X267025Y303025D01*
X267024Y303003D01*
X267057Y302846D01*
X267085Y302690D01*
X267093Y302669D01*
X267098Y302648D01*
X267164Y302502D01*
X267225Y302355D01*
X267237Y302340D01*
X267247Y302317D01*
X267465Y302027D01*
X267487Y302008D01*
X267501Y301990D01*
X267701Y301790D01*
X267744Y301755D01*
X267782Y301715D01*
X267885Y301642D01*
X267984Y301563D01*
X268034Y301539D01*
X268080Y301507D01*
X268196Y301459D01*
X268310Y301404D01*
X268364Y301391D01*
X268415Y301370D01*
X268503Y301358D01*
X268663Y301319D01*
X268790Y301318D01*
X268868Y301307D01*
X270056Y301307D01*
X272006Y300499D01*
X273499Y299006D01*
X274307Y297056D01*
X274307Y294944D01*
X273499Y292994D01*
X272006Y291501D01*
X270056Y290693D01*
X267944Y290693D01*
G37*
%LPD*%
%LPC*%
G36*
X287944Y289693D02*
X287944Y289693D01*
X285994Y290501D01*
X284501Y291994D01*
X283693Y293944D01*
X283693Y296056D01*
X284501Y298006D01*
X285341Y298846D01*
X285376Y298889D01*
X285416Y298927D01*
X285489Y299030D01*
X285568Y299129D01*
X285592Y299179D01*
X285624Y299224D01*
X285672Y299341D01*
X285727Y299455D01*
X285740Y299509D01*
X285761Y299560D01*
X285773Y299648D01*
X285811Y299808D01*
X285813Y299934D01*
X285824Y300013D01*
X285824Y301305D01*
X285807Y301462D01*
X285794Y301619D01*
X285787Y301642D01*
X285784Y301666D01*
X285733Y301814D01*
X285686Y301966D01*
X285674Y301986D01*
X285667Y302009D01*
X285584Y302143D01*
X285505Y302280D01*
X285489Y302298D01*
X285477Y302318D01*
X285367Y302431D01*
X285260Y302547D01*
X285241Y302561D01*
X285224Y302578D01*
X285092Y302665D01*
X284962Y302755D01*
X284940Y302764D01*
X284920Y302777D01*
X284773Y302832D01*
X284627Y302892D01*
X284606Y302895D01*
X284581Y302904D01*
X284222Y302955D01*
X284195Y302952D01*
X284174Y302955D01*
X278868Y302955D01*
X277975Y303848D01*
X277975Y315112D01*
X278868Y316005D01*
X291132Y316005D01*
X292025Y315112D01*
X292025Y307630D01*
X292031Y307575D01*
X292028Y307519D01*
X292051Y307395D01*
X292065Y307269D01*
X292083Y307217D01*
X292092Y307162D01*
X292141Y307046D01*
X292176Y306945D01*
X292176Y300013D01*
X292182Y299958D01*
X292179Y299902D01*
X292202Y299778D01*
X292216Y299652D01*
X292234Y299600D01*
X292243Y299545D01*
X292292Y299429D01*
X292333Y299309D01*
X292362Y299262D01*
X292384Y299211D01*
X292437Y299140D01*
X292523Y299000D01*
X292611Y298909D01*
X292659Y298846D01*
X293499Y298006D01*
X294307Y296056D01*
X294307Y293944D01*
X293499Y291994D01*
X292006Y290501D01*
X290056Y289693D01*
X287944Y289693D01*
G37*
%LPD*%
%LPC*%
G36*
X50539Y76039D02*
X50539Y76039D01*
X50539Y77709D01*
X56491Y83661D01*
X58161Y83661D01*
X58161Y76039D01*
X50539Y76039D01*
G37*
%LPD*%
%LPC*%
G36*
X279139Y50639D02*
X279139Y50639D01*
X279139Y52309D01*
X285091Y58261D01*
X286761Y58261D01*
X286761Y50639D01*
X279139Y50639D01*
G37*
%LPD*%
%LPC*%
G36*
X56491Y63339D02*
X56491Y63339D01*
X50539Y69291D01*
X50539Y70961D01*
X58161Y70961D01*
X58161Y63339D01*
X56491Y63339D01*
G37*
%LPD*%
%LPC*%
G36*
X263329Y166439D02*
X263329Y166439D01*
X263329Y169274D01*
X263502Y169921D01*
X263837Y170500D01*
X264310Y170973D01*
X264889Y171308D01*
X265536Y171481D01*
X268871Y171481D01*
X268871Y166439D01*
X263329Y166439D01*
G37*
%LPD*%
%LPC*%
G36*
X265536Y156399D02*
X265536Y156399D01*
X264889Y156572D01*
X264310Y156907D01*
X263837Y157380D01*
X263502Y157959D01*
X263329Y158606D01*
X263329Y161441D01*
X268871Y161441D01*
X268871Y156399D01*
X265536Y156399D01*
G37*
%LPD*%
D10*
X288370Y163940D03*
X271370Y163940D03*
D11*
X289300Y48100D03*
X263900Y48100D03*
X238500Y48100D03*
X213100Y48100D03*
X187700Y48100D03*
X162300Y48100D03*
X136900Y48100D03*
X111500Y48100D03*
X86100Y48100D03*
X60700Y48100D03*
X289300Y73500D03*
X263900Y73500D03*
X238500Y73500D03*
X213100Y73500D03*
X187700Y73500D03*
X162300Y73500D03*
X136900Y73500D03*
X111500Y73500D03*
X86100Y73500D03*
X60700Y73500D03*
D10*
X285000Y309480D03*
X285000Y326480D03*
X210000Y309480D03*
X210000Y326480D03*
X235000Y309480D03*
X235000Y326480D03*
X260000Y309480D03*
X260000Y326480D03*
D12*
X53120Y234640D03*
X53120Y209240D03*
X53120Y183940D03*
X129320Y234640D03*
X129320Y209240D03*
X129320Y183940D03*
D13*
X61200Y401900D03*
X86600Y401900D03*
X112000Y401900D03*
X137400Y401900D03*
X162800Y401900D03*
X61200Y376500D03*
X86600Y376500D03*
X112000Y376500D03*
X137400Y376500D03*
X162800Y376500D03*
D14*
X270256Y108585D02*
X270256Y91694D01*
X287147Y74803D01*
X289300Y73500D01*
X287147Y125476D02*
X287147Y161671D01*
X287147Y125476D02*
X270256Y108585D01*
X287147Y161671D02*
X288370Y163940D01*
X72390Y45847D02*
X62738Y45847D01*
X72390Y45847D02*
X96520Y21717D01*
X294386Y21717D01*
X304038Y31369D01*
X304038Y57912D01*
X289560Y72390D01*
X62738Y45847D02*
X60700Y48100D01*
X289300Y73500D02*
X289560Y72390D01*
X234061Y328168D02*
X224409Y328168D01*
X212344Y328168D01*
X210000Y326480D01*
X234061Y328168D02*
X235000Y326480D01*
X236474Y328168D02*
X258191Y328168D01*
X260000Y326480D01*
X236474Y328168D02*
X235000Y326480D01*
X260604Y328168D02*
X284734Y328168D01*
X285000Y326480D01*
X260604Y328168D02*
X260000Y326480D01*
X224409Y308864D02*
X224409Y304038D01*
X224409Y308864D02*
X224409Y328168D01*
X224409Y304038D02*
X229235Y299212D01*
X229235Y294386D01*
X200279Y265430D02*
X171323Y236474D01*
X200279Y265430D02*
X229235Y294386D01*
X171323Y236474D02*
X130302Y236474D01*
X129320Y234640D01*
X221996Y308864D02*
X224409Y308864D01*
X287147Y178562D02*
X287147Y164084D01*
X287147Y178562D02*
X200279Y265430D01*
X287147Y164084D02*
X288370Y163940D01*
D15*
X270256Y108585D03*
X221996Y308864D03*
D14*
X270256Y161671D02*
X270256Y132715D01*
X253365Y115824D01*
X253365Y79629D01*
X250952Y77216D01*
X250952Y69977D01*
X260604Y60325D01*
X275082Y60325D01*
X287147Y48260D01*
X270256Y161671D02*
X271370Y163940D01*
X287147Y48260D02*
X289300Y48100D01*
X243713Y190627D02*
X243713Y207518D01*
X243713Y190627D02*
X270256Y164084D01*
X271370Y163940D01*
X236474Y214757D02*
X209931Y214757D01*
X195453Y214757D01*
X236474Y214757D02*
X243713Y207518D01*
X209931Y214757D02*
X209931Y219583D01*
D15*
X243713Y207518D03*
X195453Y214757D03*
X209931Y219583D03*
D14*
X270256Y120650D02*
X263017Y113411D01*
X263017Y74803D01*
X263900Y73500D01*
X72390Y402971D02*
X62738Y402971D01*
X72390Y402971D02*
X84455Y415036D01*
X89281Y415036D01*
X98933Y405384D01*
X98933Y277495D01*
X74803Y253365D01*
X74803Y229235D01*
X55499Y209931D01*
X61200Y401900D02*
X62738Y402971D01*
X55499Y209931D02*
X53120Y209240D01*
X103759Y28956D02*
X260604Y28956D01*
X103759Y28956D02*
X86868Y45847D01*
X86100Y48100D01*
D15*
X270256Y120650D03*
X260604Y28956D03*
D14*
X137541Y164084D02*
X125476Y164084D01*
X110998Y178562D01*
X110998Y275082D01*
X173736Y337820D01*
X173736Y407797D01*
X166497Y415036D01*
X125476Y415036D01*
X113411Y402971D01*
X112000Y401900D01*
D15*
X137541Y164084D03*
D14*
X246126Y147193D02*
X246126Y84455D01*
D15*
X246126Y147193D03*
X246126Y84455D03*
D14*
X226822Y84455D02*
X226822Y125476D01*
X226822Y84455D02*
X236474Y74803D01*
X238500Y73500D01*
X84455Y390906D02*
X84455Y400558D01*
X84455Y390906D02*
X72390Y378841D01*
X72390Y371602D01*
X38608Y337820D01*
X38608Y200279D01*
X53086Y185801D01*
X84455Y400558D02*
X86600Y401900D01*
X53086Y185801D02*
X53120Y183940D01*
D15*
X226822Y125476D03*
D14*
X207518Y149606D02*
X207518Y156845D01*
X197866Y166497D01*
X166497Y166497D01*
X142367Y190627D01*
X142367Y219583D01*
X139954Y221996D01*
X118237Y221996D01*
X115824Y224409D01*
X115824Y267843D01*
X135128Y287147D01*
X135128Y328168D02*
X135128Y354711D01*
X113411Y376428D01*
X112000Y376500D01*
D15*
X207518Y149606D03*
X135128Y287147D03*
X135128Y328168D03*
D14*
X123063Y154432D02*
X197866Y154432D01*
X60325Y265430D02*
X60325Y352298D01*
X84455Y376428D01*
X86600Y376500D01*
D15*
X197866Y154432D03*
X123063Y154432D03*
X60325Y265430D03*
D14*
X234061Y173736D02*
X234061Y144780D01*
X188214Y98933D01*
D15*
X234061Y173736D03*
X188214Y98933D03*
D14*
X234061Y36195D02*
X296799Y36195D01*
X226822Y43434D02*
X224409Y45847D01*
X226822Y43434D02*
X234061Y36195D01*
X224409Y45847D02*
X224409Y62738D01*
X214757Y72390D01*
X213100Y73500D01*
X147193Y45847D02*
X137541Y45847D01*
X147193Y45847D02*
X156845Y36195D01*
X219583Y36195D01*
X226822Y43434D01*
X137541Y45847D02*
X136900Y48100D01*
D15*
X296799Y36195D03*
D14*
X263017Y48260D02*
X255778Y48260D01*
X243713Y60325D01*
X234061Y60325D01*
X224409Y69977D01*
X224409Y79629D01*
X219583Y84455D01*
X96520Y84455D01*
X86868Y74803D01*
X263017Y48260D02*
X263900Y48100D01*
X86868Y74803D02*
X86100Y73500D01*
D15*
X290000Y232000D03*
D14*
X302000Y232000D01*
X330000Y320000D02*
X310000Y340000D01*
X190000Y340000D01*
X190000Y310000D01*
X190520Y309480D01*
X210000Y309480D01*
X302000Y232000D02*
X330000Y260000D01*
X330000Y320000D01*
X220000Y299480D02*
X210000Y309480D01*
X220000Y299480D02*
X220000Y296000D01*
D15*
X220000Y296000D03*
X289000Y295000D03*
D14*
X289000Y305480D01*
X285000Y309480D01*
D15*
X242000Y296000D03*
D14*
X235000Y303000D01*
X235000Y309480D01*
D15*
X269000Y296000D03*
D14*
X260000Y305000D01*
X260000Y309480D01*
X91694Y291973D02*
X91694Y357124D01*
X91694Y291973D02*
X67564Y267843D01*
X67564Y234061D01*
D15*
X91694Y357124D03*
X67564Y234061D03*
D14*
X161671Y390906D02*
X161671Y400558D01*
X161671Y390906D02*
X149606Y378841D01*
X149606Y320929D01*
X79629Y250952D01*
X79629Y84455D01*
X74803Y79629D01*
X74803Y67564D01*
X82042Y60325D01*
X173736Y60325D01*
X185801Y48260D01*
X161671Y400558D02*
X162800Y401900D01*
X185801Y48260D02*
X187700Y48100D01*
M02*
