G04 EAGLE Gerber RS-274X export*
G75*
%MOMM*%
%FSLAX34Y34*%
%LPD*%
%INSoldermask Bottom*%
%IPPOS*%
%AMOC8*
5,1,8,0,0,1.08239X$1,22.5*%
G01*
%ADD10C,2.203200*%
%ADD11R,1.303200X1.203200*%
%ADD12P,1.869504X8X202.500000*%
%ADD13R,2.003200X2.003200*%
%ADD14P,1.869504X8X22.500000*%
%ADD15C,0.959600*%


D10*
X20000Y20000D03*
X330000Y20000D03*
D11*
X288370Y163940D03*
X271370Y163940D03*
D12*
X289300Y48100D03*
X263900Y48100D03*
X238500Y48100D03*
X213100Y48100D03*
X187700Y48100D03*
X162300Y48100D03*
X136900Y48100D03*
X111500Y48100D03*
X86100Y48100D03*
X60700Y48100D03*
X289300Y73500D03*
X263900Y73500D03*
X238500Y73500D03*
X213100Y73500D03*
X187700Y73500D03*
X162300Y73500D03*
X136900Y73500D03*
X111500Y73500D03*
X86100Y73500D03*
X60700Y73500D03*
D11*
X285000Y309480D03*
X285000Y326480D03*
X210000Y309480D03*
X210000Y326480D03*
X235000Y309480D03*
X235000Y326480D03*
X260000Y309480D03*
X260000Y326480D03*
D13*
X53120Y234640D03*
X53120Y209240D03*
X53120Y183940D03*
X129320Y234640D03*
X129320Y209240D03*
X129320Y183940D03*
D14*
X61200Y401900D03*
X86600Y401900D03*
X112000Y401900D03*
X137400Y401900D03*
X162800Y401900D03*
X61200Y376500D03*
X86600Y376500D03*
X112000Y376500D03*
X137400Y376500D03*
X162800Y376500D03*
D15*
X270256Y108585D03*
X221996Y308864D03*
X243713Y207518D03*
X195453Y214757D03*
X209931Y219583D03*
X270256Y120650D03*
X260604Y28956D03*
X137541Y164084D03*
X246126Y147193D03*
X246126Y84455D03*
X226822Y125476D03*
X207518Y149606D03*
X135128Y287147D03*
X135128Y328168D03*
X197866Y154432D03*
X123063Y154432D03*
X60325Y265430D03*
X234061Y173736D03*
X188214Y98933D03*
X296799Y36195D03*
X290000Y232000D03*
X220000Y296000D03*
X289000Y295000D03*
X242000Y296000D03*
X269000Y296000D03*
X91694Y357124D03*
X67564Y234061D03*
M02*
