M48
;GenerationSoftware,Autodesk,EAGLE,9.6.0*%
;CreationDate,2022-05-16T16:51:54Z*%
FMAT,2
ICI,OFF
METRIC,TZ,000.000
T2C0.350
T1C0.900
%
G90
M71
T1
X2667Y1524
X64770Y-31623
X69850Y-31623
X72390Y-31623
X62230Y-31623
X7747Y1524
X5207Y1524
X10287Y1524
X12827Y1524
X44831Y1397
X127Y1524
X27432Y1651
X24892Y1651
X29972Y1651
X32512Y1651
X22352Y1651
X19812Y1651
X47371Y1397
X59690Y-31623
X49911Y1397
X52451Y1397
X42291Y1397
X39751Y1397
X66040Y1270
X63500Y1270
X68580Y1270
X71120Y1270
X60960Y1270
X58420Y1270
X7493Y-13970
X4953Y-13970
X10033Y-13970
X12573Y-13970
X2413Y-13970
X-127Y-13970
X28194Y-14097
X25654Y-14097
X30734Y-14097
X33274Y-14097
X23114Y-14097
X20574Y-14097
X47625Y-14478
X45085Y-14478
X50165Y-14478
X52705Y-14478
X42545Y-14478
X40005Y-14478
X67056Y-14859
X64516Y-14859
X69596Y-14859
X72136Y-14859
X61976Y-14859
X59436Y-14859
X8128Y-31369
X5588Y-31369
X10668Y-31369
X13208Y-31369
X3048Y-31369
X508Y-31369
X27432Y-31496
X24892Y-31496
X29972Y-31496
X32512Y-31496
X22352Y-31496
X19812Y-31496
X47498Y-31496
X44958Y-31496
X50038Y-31496
X52578Y-31496
X42418Y-31496
X39878Y-31496
X67310Y-31623
T2
X26365Y-7620
X44348Y8230
X65380Y-8077
X64160Y7772
X6096Y-7772
M30