G04 EAGLE Gerber RS-274X export*
G75*
%MOMM*%
%FSLAX34Y34*%
%LPD*%
%INSilkscreen Bottom*%
%IPPOS*%
%AMOC8*
5,1,8,0,0,1.08239X$1,22.5*%
G01*
%ADD10C,0.152400*%
%ADD11C,0.127000*%
%ADD12C,0.101600*%


D10*
X137356Y342013D02*
X134647Y342013D01*
X134647Y332982D01*
X140065Y332982D01*
X140183Y332984D01*
X140301Y332990D01*
X140419Y332999D01*
X140536Y333013D01*
X140653Y333030D01*
X140770Y333051D01*
X140885Y333076D01*
X141000Y333105D01*
X141114Y333138D01*
X141226Y333174D01*
X141337Y333214D01*
X141447Y333257D01*
X141556Y333304D01*
X141663Y333354D01*
X141768Y333409D01*
X141871Y333466D01*
X141972Y333527D01*
X142072Y333591D01*
X142169Y333658D01*
X142264Y333728D01*
X142356Y333802D01*
X142447Y333878D01*
X142534Y333958D01*
X142619Y334040D01*
X142701Y334125D01*
X142781Y334212D01*
X142857Y334303D01*
X142931Y334395D01*
X143001Y334490D01*
X143068Y334587D01*
X143132Y334687D01*
X143193Y334788D01*
X143250Y334891D01*
X143305Y334996D01*
X143355Y335103D01*
X143402Y335212D01*
X143445Y335322D01*
X143485Y335433D01*
X143521Y335545D01*
X143554Y335659D01*
X143583Y335774D01*
X143608Y335889D01*
X143629Y336006D01*
X143646Y336123D01*
X143660Y336240D01*
X143669Y336358D01*
X143675Y336476D01*
X143677Y336594D01*
X143678Y336594D02*
X143678Y345626D01*
X143677Y345626D02*
X143675Y345744D01*
X143669Y345862D01*
X143660Y345980D01*
X143646Y346097D01*
X143629Y346214D01*
X143608Y346331D01*
X143583Y346446D01*
X143554Y346561D01*
X143521Y346675D01*
X143485Y346787D01*
X143445Y346898D01*
X143402Y347008D01*
X143355Y347117D01*
X143305Y347224D01*
X143250Y347329D01*
X143193Y347432D01*
X143132Y347533D01*
X143068Y347633D01*
X143001Y347730D01*
X142931Y347825D01*
X142857Y347917D01*
X142781Y348008D01*
X142701Y348095D01*
X142619Y348180D01*
X142534Y348262D01*
X142447Y348342D01*
X142356Y348418D01*
X142264Y348492D01*
X142169Y348562D01*
X142072Y348629D01*
X141972Y348693D01*
X141871Y348754D01*
X141768Y348811D01*
X141663Y348866D01*
X141556Y348916D01*
X141447Y348963D01*
X141337Y349006D01*
X141226Y349046D01*
X141114Y349082D01*
X141000Y349115D01*
X140885Y349144D01*
X140770Y349169D01*
X140653Y349190D01*
X140536Y349207D01*
X140419Y349221D01*
X140301Y349230D01*
X140183Y349236D01*
X140065Y349238D01*
X134647Y349238D01*
X126793Y349238D02*
X126793Y332982D01*
X126793Y349238D02*
X122278Y349238D01*
X122145Y349236D01*
X122013Y349230D01*
X121881Y349220D01*
X121749Y349207D01*
X121617Y349189D01*
X121487Y349168D01*
X121356Y349143D01*
X121227Y349114D01*
X121099Y349081D01*
X120971Y349045D01*
X120845Y349005D01*
X120720Y348961D01*
X120596Y348913D01*
X120474Y348862D01*
X120353Y348807D01*
X120234Y348749D01*
X120116Y348687D01*
X120001Y348622D01*
X119887Y348553D01*
X119776Y348482D01*
X119667Y348406D01*
X119560Y348328D01*
X119455Y348247D01*
X119353Y348162D01*
X119253Y348075D01*
X119156Y347985D01*
X119061Y347892D01*
X118970Y347796D01*
X118881Y347698D01*
X118795Y347597D01*
X118712Y347493D01*
X118632Y347387D01*
X118556Y347279D01*
X118482Y347169D01*
X118412Y347056D01*
X118345Y346942D01*
X118282Y346825D01*
X118222Y346707D01*
X118165Y346587D01*
X118112Y346465D01*
X118063Y346342D01*
X118017Y346218D01*
X117975Y346092D01*
X117937Y345965D01*
X117902Y345837D01*
X117871Y345708D01*
X117844Y345579D01*
X117821Y345448D01*
X117801Y345317D01*
X117786Y345185D01*
X117774Y345053D01*
X117766Y344921D01*
X117762Y344788D01*
X117762Y344656D01*
X117766Y344523D01*
X117774Y344391D01*
X117786Y344259D01*
X117801Y344127D01*
X117821Y343996D01*
X117844Y343865D01*
X117871Y343736D01*
X117902Y343607D01*
X117937Y343479D01*
X117975Y343352D01*
X118017Y343226D01*
X118063Y343102D01*
X118112Y342979D01*
X118165Y342857D01*
X118222Y342737D01*
X118282Y342619D01*
X118345Y342502D01*
X118412Y342388D01*
X118482Y342275D01*
X118556Y342165D01*
X118632Y342057D01*
X118712Y341951D01*
X118795Y341847D01*
X118881Y341746D01*
X118970Y341648D01*
X119061Y341552D01*
X119156Y341459D01*
X119253Y341369D01*
X119353Y341282D01*
X119455Y341197D01*
X119560Y341116D01*
X119667Y341038D01*
X119776Y340962D01*
X119887Y340891D01*
X120001Y340822D01*
X120116Y340757D01*
X120234Y340695D01*
X120353Y340637D01*
X120474Y340582D01*
X120596Y340531D01*
X120720Y340483D01*
X120845Y340439D01*
X120971Y340399D01*
X121099Y340363D01*
X121227Y340330D01*
X121356Y340301D01*
X121487Y340276D01*
X121617Y340255D01*
X121749Y340237D01*
X121881Y340224D01*
X122013Y340214D01*
X122145Y340208D01*
X122278Y340206D01*
X122278Y340207D02*
X126793Y340207D01*
X106997Y332982D02*
X106879Y332984D01*
X106761Y332990D01*
X106643Y332999D01*
X106526Y333013D01*
X106409Y333030D01*
X106292Y333051D01*
X106177Y333076D01*
X106062Y333105D01*
X105948Y333138D01*
X105836Y333174D01*
X105725Y333214D01*
X105615Y333257D01*
X105506Y333304D01*
X105399Y333354D01*
X105294Y333409D01*
X105191Y333466D01*
X105090Y333527D01*
X104990Y333591D01*
X104893Y333658D01*
X104798Y333728D01*
X104706Y333802D01*
X104615Y333878D01*
X104528Y333958D01*
X104443Y334040D01*
X104361Y334125D01*
X104281Y334212D01*
X104205Y334303D01*
X104131Y334395D01*
X104061Y334490D01*
X103994Y334587D01*
X103930Y334687D01*
X103869Y334788D01*
X103812Y334891D01*
X103757Y334996D01*
X103707Y335103D01*
X103660Y335212D01*
X103617Y335322D01*
X103577Y335433D01*
X103541Y335545D01*
X103508Y335659D01*
X103479Y335774D01*
X103454Y335889D01*
X103433Y336006D01*
X103416Y336123D01*
X103402Y336240D01*
X103393Y336358D01*
X103387Y336476D01*
X103385Y336594D01*
X106997Y332982D02*
X107180Y332984D01*
X107362Y332991D01*
X107544Y333002D01*
X107726Y333017D01*
X107908Y333037D01*
X108089Y333061D01*
X108269Y333089D01*
X108449Y333121D01*
X108628Y333158D01*
X108805Y333199D01*
X108982Y333245D01*
X109158Y333294D01*
X109333Y333348D01*
X109506Y333406D01*
X109677Y333468D01*
X109848Y333534D01*
X110016Y333605D01*
X110183Y333679D01*
X110348Y333757D01*
X110511Y333839D01*
X110672Y333925D01*
X110831Y334015D01*
X110988Y334109D01*
X111142Y334206D01*
X111294Y334307D01*
X111444Y334412D01*
X111591Y334520D01*
X111735Y334631D01*
X111877Y334746D01*
X112016Y334865D01*
X112152Y334987D01*
X112285Y335112D01*
X112415Y335240D01*
X111963Y345626D02*
X111961Y345744D01*
X111955Y345862D01*
X111946Y345980D01*
X111932Y346097D01*
X111915Y346214D01*
X111894Y346331D01*
X111869Y346446D01*
X111840Y346561D01*
X111807Y346675D01*
X111771Y346787D01*
X111731Y346898D01*
X111688Y347008D01*
X111641Y347117D01*
X111591Y347224D01*
X111536Y347329D01*
X111479Y347432D01*
X111418Y347533D01*
X111354Y347633D01*
X111287Y347730D01*
X111217Y347825D01*
X111143Y347917D01*
X111067Y348008D01*
X110987Y348095D01*
X110905Y348180D01*
X110820Y348262D01*
X110733Y348342D01*
X110642Y348418D01*
X110550Y348492D01*
X110455Y348562D01*
X110358Y348629D01*
X110258Y348693D01*
X110157Y348754D01*
X110054Y348811D01*
X109949Y348866D01*
X109842Y348916D01*
X109733Y348963D01*
X109623Y349006D01*
X109512Y349046D01*
X109400Y349082D01*
X109286Y349115D01*
X109171Y349144D01*
X109056Y349169D01*
X108939Y349190D01*
X108822Y349207D01*
X108705Y349221D01*
X108587Y349230D01*
X108469Y349236D01*
X108351Y349238D01*
X108190Y349236D01*
X108028Y349230D01*
X107867Y349221D01*
X107706Y349207D01*
X107546Y349190D01*
X107386Y349169D01*
X107226Y349144D01*
X107067Y349115D01*
X106909Y349083D01*
X106752Y349047D01*
X106596Y349007D01*
X106440Y348963D01*
X106286Y348915D01*
X106133Y348864D01*
X105981Y348810D01*
X105830Y348751D01*
X105681Y348690D01*
X105534Y348624D01*
X105388Y348555D01*
X105243Y348483D01*
X105101Y348407D01*
X104960Y348328D01*
X104821Y348246D01*
X104685Y348160D01*
X104550Y348071D01*
X104417Y347979D01*
X104287Y347883D01*
X110158Y342465D02*
X110259Y342527D01*
X110359Y342592D01*
X110456Y342661D01*
X110551Y342733D01*
X110644Y342807D01*
X110734Y342885D01*
X110822Y342966D01*
X110907Y343049D01*
X110989Y343135D01*
X111068Y343224D01*
X111145Y343315D01*
X111218Y343409D01*
X111289Y343505D01*
X111356Y343603D01*
X111420Y343703D01*
X111481Y343806D01*
X111538Y343910D01*
X111592Y344016D01*
X111642Y344124D01*
X111689Y344233D01*
X111733Y344344D01*
X111773Y344456D01*
X111809Y344570D01*
X111841Y344684D01*
X111870Y344800D01*
X111895Y344916D01*
X111916Y345033D01*
X111933Y345151D01*
X111947Y345269D01*
X111956Y345388D01*
X111962Y345507D01*
X111964Y345626D01*
X105190Y339755D02*
X105089Y339693D01*
X104989Y339628D01*
X104892Y339559D01*
X104797Y339487D01*
X104704Y339413D01*
X104614Y339335D01*
X104526Y339254D01*
X104441Y339171D01*
X104359Y339085D01*
X104280Y338996D01*
X104203Y338905D01*
X104130Y338811D01*
X104059Y338715D01*
X103992Y338617D01*
X103928Y338517D01*
X103867Y338414D01*
X103810Y338310D01*
X103756Y338204D01*
X103706Y338096D01*
X103659Y337987D01*
X103615Y337876D01*
X103575Y337764D01*
X103539Y337650D01*
X103507Y337536D01*
X103478Y337420D01*
X103453Y337304D01*
X103432Y337187D01*
X103415Y337069D01*
X103401Y336951D01*
X103392Y336832D01*
X103386Y336713D01*
X103384Y336594D01*
X105190Y339755D02*
X110158Y342465D01*
X143678Y322568D02*
X143678Y306312D01*
X143678Y322568D02*
X139162Y322568D01*
X139031Y322566D01*
X138899Y322560D01*
X138768Y322551D01*
X138638Y322537D01*
X138507Y322520D01*
X138378Y322499D01*
X138249Y322475D01*
X138121Y322446D01*
X137993Y322414D01*
X137867Y322378D01*
X137742Y322339D01*
X137617Y322296D01*
X137495Y322249D01*
X137373Y322199D01*
X137253Y322145D01*
X137135Y322088D01*
X137019Y322027D01*
X136904Y321963D01*
X136791Y321896D01*
X136680Y321825D01*
X136572Y321751D01*
X136465Y321674D01*
X136361Y321594D01*
X136259Y321511D01*
X136160Y321426D01*
X136063Y321337D01*
X135969Y321245D01*
X135877Y321151D01*
X135788Y321054D01*
X135703Y320955D01*
X135620Y320853D01*
X135540Y320749D01*
X135463Y320642D01*
X135389Y320534D01*
X135318Y320423D01*
X135251Y320310D01*
X135187Y320195D01*
X135126Y320079D01*
X135069Y319961D01*
X135015Y319841D01*
X134965Y319719D01*
X134918Y319597D01*
X134875Y319472D01*
X134836Y319347D01*
X134800Y319221D01*
X134768Y319093D01*
X134739Y318965D01*
X134715Y318836D01*
X134694Y318707D01*
X134677Y318576D01*
X134663Y318446D01*
X134654Y318315D01*
X134648Y318183D01*
X134646Y318052D01*
X134647Y318052D02*
X134647Y310828D01*
X134646Y310828D02*
X134648Y310697D01*
X134654Y310565D01*
X134663Y310434D01*
X134677Y310304D01*
X134694Y310173D01*
X134715Y310044D01*
X134739Y309915D01*
X134768Y309787D01*
X134800Y309659D01*
X134836Y309533D01*
X134875Y309408D01*
X134918Y309283D01*
X134965Y309161D01*
X135015Y309039D01*
X135069Y308919D01*
X135126Y308801D01*
X135187Y308685D01*
X135251Y308570D01*
X135318Y308457D01*
X135389Y308346D01*
X135463Y308238D01*
X135540Y308131D01*
X135620Y308027D01*
X135703Y307925D01*
X135788Y307826D01*
X135877Y307729D01*
X135969Y307635D01*
X136063Y307543D01*
X136160Y307454D01*
X136259Y307369D01*
X136361Y307286D01*
X136465Y307206D01*
X136572Y307129D01*
X136680Y307055D01*
X136791Y306984D01*
X136904Y306917D01*
X137019Y306853D01*
X137135Y306792D01*
X137253Y306735D01*
X137373Y306681D01*
X137495Y306631D01*
X137617Y306584D01*
X137742Y306541D01*
X137867Y306502D01*
X137993Y306466D01*
X138121Y306434D01*
X138249Y306405D01*
X138378Y306381D01*
X138507Y306360D01*
X138638Y306343D01*
X138768Y306329D01*
X138899Y306320D01*
X139031Y306314D01*
X139162Y306312D01*
X143678Y306312D01*
X127664Y309924D02*
X127664Y313537D01*
X127662Y313656D01*
X127656Y313776D01*
X127646Y313895D01*
X127632Y314013D01*
X127615Y314132D01*
X127593Y314249D01*
X127568Y314366D01*
X127538Y314481D01*
X127505Y314596D01*
X127468Y314710D01*
X127428Y314822D01*
X127383Y314933D01*
X127335Y315042D01*
X127284Y315150D01*
X127229Y315256D01*
X127170Y315360D01*
X127108Y315462D01*
X127043Y315562D01*
X126974Y315660D01*
X126902Y315756D01*
X126827Y315849D01*
X126750Y315939D01*
X126669Y316027D01*
X126585Y316112D01*
X126498Y316194D01*
X126409Y316274D01*
X126317Y316350D01*
X126223Y316424D01*
X126126Y316494D01*
X126028Y316561D01*
X125927Y316625D01*
X125823Y316685D01*
X125718Y316742D01*
X125611Y316795D01*
X125503Y316845D01*
X125393Y316891D01*
X125281Y316933D01*
X125168Y316972D01*
X125054Y317007D01*
X124939Y317038D01*
X124822Y317066D01*
X124705Y317089D01*
X124588Y317109D01*
X124469Y317125D01*
X124350Y317137D01*
X124231Y317145D01*
X124112Y317149D01*
X123992Y317149D01*
X123873Y317145D01*
X123754Y317137D01*
X123635Y317125D01*
X123516Y317109D01*
X123399Y317089D01*
X123282Y317066D01*
X123165Y317038D01*
X123050Y317007D01*
X122936Y316972D01*
X122823Y316933D01*
X122711Y316891D01*
X122601Y316845D01*
X122493Y316795D01*
X122386Y316742D01*
X122281Y316685D01*
X122177Y316625D01*
X122076Y316561D01*
X121978Y316494D01*
X121881Y316424D01*
X121787Y316350D01*
X121695Y316274D01*
X121606Y316194D01*
X121519Y316112D01*
X121435Y316027D01*
X121354Y315939D01*
X121277Y315849D01*
X121202Y315756D01*
X121130Y315660D01*
X121061Y315562D01*
X120996Y315462D01*
X120934Y315360D01*
X120875Y315256D01*
X120820Y315150D01*
X120769Y315042D01*
X120721Y314933D01*
X120676Y314822D01*
X120636Y314710D01*
X120599Y314596D01*
X120566Y314481D01*
X120536Y314366D01*
X120511Y314249D01*
X120489Y314132D01*
X120472Y314013D01*
X120458Y313895D01*
X120448Y313776D01*
X120442Y313656D01*
X120440Y313537D01*
X120440Y309924D01*
X120442Y309805D01*
X120448Y309685D01*
X120458Y309566D01*
X120472Y309448D01*
X120489Y309329D01*
X120511Y309212D01*
X120536Y309095D01*
X120566Y308980D01*
X120599Y308865D01*
X120636Y308751D01*
X120676Y308639D01*
X120721Y308528D01*
X120769Y308419D01*
X120820Y308311D01*
X120875Y308205D01*
X120934Y308101D01*
X120996Y307999D01*
X121061Y307899D01*
X121130Y307801D01*
X121202Y307705D01*
X121277Y307612D01*
X121354Y307522D01*
X121435Y307434D01*
X121519Y307349D01*
X121606Y307267D01*
X121695Y307187D01*
X121787Y307111D01*
X121881Y307037D01*
X121978Y306967D01*
X122076Y306900D01*
X122177Y306836D01*
X122281Y306776D01*
X122386Y306719D01*
X122493Y306666D01*
X122601Y306616D01*
X122711Y306570D01*
X122823Y306528D01*
X122936Y306489D01*
X123050Y306454D01*
X123165Y306423D01*
X123282Y306395D01*
X123399Y306372D01*
X123516Y306352D01*
X123635Y306336D01*
X123754Y306324D01*
X123873Y306316D01*
X123992Y306312D01*
X124112Y306312D01*
X124231Y306316D01*
X124350Y306324D01*
X124469Y306336D01*
X124588Y306352D01*
X124705Y306372D01*
X124822Y306395D01*
X124939Y306423D01*
X125054Y306454D01*
X125168Y306489D01*
X125281Y306528D01*
X125393Y306570D01*
X125503Y306616D01*
X125611Y306666D01*
X125718Y306719D01*
X125823Y306776D01*
X125927Y306836D01*
X126028Y306900D01*
X126126Y306967D01*
X126223Y307037D01*
X126317Y307111D01*
X126409Y307187D01*
X126498Y307267D01*
X126585Y307349D01*
X126669Y307434D01*
X126750Y307522D01*
X126827Y307612D01*
X126902Y307705D01*
X126974Y307801D01*
X127043Y307899D01*
X127108Y307999D01*
X127170Y308101D01*
X127229Y308205D01*
X127284Y308311D01*
X127335Y308419D01*
X127383Y308528D01*
X127428Y308639D01*
X127468Y308751D01*
X127505Y308865D01*
X127538Y308980D01*
X127568Y309095D01*
X127593Y309212D01*
X127615Y309329D01*
X127632Y309448D01*
X127646Y309566D01*
X127656Y309685D01*
X127662Y309805D01*
X127664Y309924D01*
X114360Y317149D02*
X111651Y306312D01*
X108942Y313537D01*
X106232Y306312D01*
X103523Y317149D01*
X96923Y317149D02*
X96923Y306312D01*
X96923Y317149D02*
X92408Y317149D01*
X92304Y317147D01*
X92201Y317141D01*
X92097Y317131D01*
X91994Y317117D01*
X91892Y317099D01*
X91791Y317078D01*
X91690Y317052D01*
X91591Y317023D01*
X91492Y316990D01*
X91395Y316953D01*
X91300Y316912D01*
X91206Y316868D01*
X91114Y316820D01*
X91024Y316769D01*
X90935Y316714D01*
X90849Y316656D01*
X90766Y316594D01*
X90684Y316530D01*
X90606Y316462D01*
X90530Y316392D01*
X90456Y316319D01*
X90386Y316242D01*
X90318Y316164D01*
X90254Y316082D01*
X90192Y315999D01*
X90134Y315913D01*
X90079Y315824D01*
X90028Y315734D01*
X89980Y315642D01*
X89936Y315548D01*
X89895Y315453D01*
X89858Y315356D01*
X89825Y315257D01*
X89796Y315158D01*
X89770Y315057D01*
X89749Y314956D01*
X89731Y314854D01*
X89717Y314751D01*
X89707Y314647D01*
X89701Y314544D01*
X89699Y314440D01*
X89698Y314440D02*
X89698Y306312D01*
X82618Y309021D02*
X82618Y322568D01*
X82618Y309021D02*
X82616Y308920D01*
X82610Y308819D01*
X82601Y308718D01*
X82588Y308617D01*
X82571Y308517D01*
X82550Y308418D01*
X82526Y308320D01*
X82498Y308223D01*
X82466Y308126D01*
X82431Y308031D01*
X82392Y307938D01*
X82350Y307846D01*
X82304Y307755D01*
X82255Y307667D01*
X82203Y307580D01*
X82147Y307495D01*
X82089Y307412D01*
X82027Y307332D01*
X81962Y307254D01*
X81895Y307178D01*
X81825Y307105D01*
X81752Y307035D01*
X81676Y306968D01*
X81598Y306903D01*
X81518Y306841D01*
X81435Y306783D01*
X81350Y306727D01*
X81263Y306675D01*
X81175Y306626D01*
X81084Y306580D01*
X80992Y306538D01*
X80899Y306499D01*
X80804Y306464D01*
X80707Y306432D01*
X80610Y306404D01*
X80512Y306380D01*
X80413Y306359D01*
X80313Y306342D01*
X80212Y306329D01*
X80111Y306320D01*
X80010Y306314D01*
X79909Y306312D01*
X74553Y306312D02*
X74553Y317149D01*
X75005Y321665D02*
X75005Y322568D01*
X74102Y322568D01*
X74102Y321665D01*
X75005Y321665D01*
X67745Y317149D02*
X67745Y306312D01*
X67745Y317149D02*
X63229Y317149D01*
X63125Y317147D01*
X63022Y317141D01*
X62918Y317131D01*
X62815Y317117D01*
X62713Y317099D01*
X62612Y317078D01*
X62511Y317052D01*
X62412Y317023D01*
X62313Y316990D01*
X62216Y316953D01*
X62121Y316912D01*
X62027Y316868D01*
X61935Y316820D01*
X61845Y316769D01*
X61756Y316714D01*
X61670Y316656D01*
X61587Y316594D01*
X61505Y316530D01*
X61427Y316462D01*
X61351Y316392D01*
X61277Y316319D01*
X61207Y316242D01*
X61139Y316164D01*
X61075Y316082D01*
X61013Y315999D01*
X60955Y315913D01*
X60900Y315824D01*
X60849Y315734D01*
X60801Y315642D01*
X60757Y315548D01*
X60716Y315453D01*
X60679Y315356D01*
X60646Y315257D01*
X60617Y315158D01*
X60591Y315057D01*
X60570Y314956D01*
X60552Y314854D01*
X60538Y314751D01*
X60528Y314647D01*
X60522Y314544D01*
X60520Y314440D01*
X60520Y306312D01*
X52987Y306312D02*
X52987Y322568D01*
X45762Y317149D02*
X52987Y311731D01*
X49826Y313988D02*
X45762Y306312D01*
X239238Y332432D02*
X239238Y348688D01*
X234722Y348688D01*
X234591Y348686D01*
X234459Y348680D01*
X234328Y348671D01*
X234198Y348657D01*
X234067Y348640D01*
X233938Y348619D01*
X233809Y348595D01*
X233681Y348566D01*
X233553Y348534D01*
X233427Y348498D01*
X233302Y348459D01*
X233177Y348416D01*
X233055Y348369D01*
X232933Y348319D01*
X232813Y348265D01*
X232695Y348208D01*
X232579Y348147D01*
X232464Y348083D01*
X232351Y348016D01*
X232240Y347945D01*
X232132Y347871D01*
X232025Y347794D01*
X231921Y347714D01*
X231819Y347631D01*
X231720Y347546D01*
X231623Y347457D01*
X231529Y347365D01*
X231437Y347271D01*
X231348Y347174D01*
X231263Y347075D01*
X231180Y346973D01*
X231100Y346869D01*
X231023Y346762D01*
X230949Y346654D01*
X230878Y346543D01*
X230811Y346430D01*
X230747Y346315D01*
X230686Y346199D01*
X230629Y346081D01*
X230575Y345961D01*
X230525Y345839D01*
X230478Y345717D01*
X230435Y345592D01*
X230396Y345467D01*
X230360Y345341D01*
X230328Y345213D01*
X230299Y345085D01*
X230275Y344956D01*
X230254Y344827D01*
X230237Y344696D01*
X230223Y344566D01*
X230214Y344435D01*
X230208Y344303D01*
X230206Y344172D01*
X230207Y344172D02*
X230207Y336948D01*
X230206Y336948D02*
X230208Y336817D01*
X230214Y336685D01*
X230223Y336554D01*
X230237Y336424D01*
X230254Y336293D01*
X230275Y336164D01*
X230299Y336035D01*
X230328Y335907D01*
X230360Y335779D01*
X230396Y335653D01*
X230435Y335528D01*
X230478Y335403D01*
X230525Y335281D01*
X230575Y335159D01*
X230629Y335039D01*
X230686Y334921D01*
X230747Y334805D01*
X230811Y334690D01*
X230878Y334577D01*
X230949Y334466D01*
X231023Y334358D01*
X231100Y334251D01*
X231180Y334147D01*
X231263Y334045D01*
X231348Y333946D01*
X231437Y333849D01*
X231529Y333755D01*
X231623Y333663D01*
X231720Y333574D01*
X231819Y333489D01*
X231921Y333406D01*
X232025Y333326D01*
X232132Y333249D01*
X232240Y333175D01*
X232351Y333104D01*
X232464Y333037D01*
X232579Y332973D01*
X232695Y332912D01*
X232813Y332855D01*
X232933Y332801D01*
X233055Y332751D01*
X233177Y332704D01*
X233302Y332661D01*
X233427Y332622D01*
X233553Y332586D01*
X233681Y332554D01*
X233809Y332525D01*
X233938Y332501D01*
X234067Y332480D01*
X234198Y332463D01*
X234328Y332449D01*
X234459Y332440D01*
X234591Y332434D01*
X234722Y332432D01*
X239238Y332432D01*
X220137Y338754D02*
X216073Y338754D01*
X220137Y338754D02*
X220249Y338752D01*
X220360Y338746D01*
X220471Y338736D01*
X220582Y338723D01*
X220692Y338705D01*
X220801Y338683D01*
X220910Y338658D01*
X221018Y338629D01*
X221124Y338596D01*
X221230Y338559D01*
X221334Y338519D01*
X221436Y338475D01*
X221537Y338427D01*
X221636Y338376D01*
X221734Y338321D01*
X221829Y338263D01*
X221922Y338202D01*
X222013Y338137D01*
X222102Y338069D01*
X222188Y337998D01*
X222271Y337925D01*
X222352Y337848D01*
X222431Y337768D01*
X222506Y337686D01*
X222578Y337601D01*
X222648Y337514D01*
X222714Y337424D01*
X222777Y337332D01*
X222837Y337237D01*
X222893Y337141D01*
X222946Y337043D01*
X222995Y336943D01*
X223041Y336841D01*
X223083Y336738D01*
X223122Y336633D01*
X223157Y336527D01*
X223188Y336420D01*
X223215Y336312D01*
X223239Y336203D01*
X223258Y336093D01*
X223274Y335983D01*
X223286Y335872D01*
X223294Y335760D01*
X223298Y335649D01*
X223298Y335537D01*
X223294Y335426D01*
X223286Y335314D01*
X223274Y335203D01*
X223258Y335093D01*
X223239Y334983D01*
X223215Y334874D01*
X223188Y334766D01*
X223157Y334659D01*
X223122Y334553D01*
X223083Y334448D01*
X223041Y334345D01*
X222995Y334243D01*
X222946Y334143D01*
X222893Y334045D01*
X222837Y333949D01*
X222777Y333854D01*
X222714Y333762D01*
X222648Y333672D01*
X222578Y333585D01*
X222506Y333500D01*
X222431Y333418D01*
X222352Y333338D01*
X222271Y333261D01*
X222188Y333188D01*
X222102Y333117D01*
X222013Y333049D01*
X221922Y332984D01*
X221829Y332923D01*
X221734Y332865D01*
X221636Y332810D01*
X221537Y332759D01*
X221436Y332711D01*
X221334Y332667D01*
X221230Y332627D01*
X221124Y332590D01*
X221018Y332557D01*
X220910Y332528D01*
X220801Y332503D01*
X220692Y332481D01*
X220582Y332463D01*
X220471Y332450D01*
X220360Y332440D01*
X220249Y332434D01*
X220137Y332432D01*
X216073Y332432D01*
X216073Y340560D01*
X216075Y340661D01*
X216081Y340762D01*
X216090Y340863D01*
X216103Y340964D01*
X216120Y341064D01*
X216141Y341163D01*
X216165Y341261D01*
X216193Y341358D01*
X216225Y341455D01*
X216260Y341550D01*
X216299Y341643D01*
X216341Y341735D01*
X216387Y341826D01*
X216436Y341915D01*
X216488Y342001D01*
X216544Y342086D01*
X216602Y342169D01*
X216664Y342249D01*
X216729Y342327D01*
X216796Y342403D01*
X216866Y342476D01*
X216939Y342546D01*
X217015Y342613D01*
X217093Y342678D01*
X217173Y342740D01*
X217256Y342798D01*
X217341Y342854D01*
X217428Y342906D01*
X217516Y342955D01*
X217607Y343001D01*
X217699Y343043D01*
X217792Y343082D01*
X217887Y343117D01*
X217984Y343149D01*
X218081Y343177D01*
X218179Y343201D01*
X218278Y343222D01*
X218378Y343239D01*
X218479Y343252D01*
X218580Y343261D01*
X218681Y343267D01*
X218782Y343269D01*
X222395Y343269D01*
X210454Y343269D02*
X205035Y343269D01*
X208648Y348688D02*
X208648Y335141D01*
X208647Y335141D02*
X208645Y335040D01*
X208639Y334939D01*
X208630Y334838D01*
X208617Y334737D01*
X208600Y334637D01*
X208579Y334538D01*
X208555Y334440D01*
X208527Y334343D01*
X208495Y334246D01*
X208460Y334151D01*
X208421Y334058D01*
X208379Y333966D01*
X208333Y333875D01*
X208284Y333787D01*
X208232Y333700D01*
X208176Y333615D01*
X208118Y333532D01*
X208056Y333452D01*
X207991Y333374D01*
X207924Y333298D01*
X207854Y333225D01*
X207781Y333155D01*
X207705Y333088D01*
X207627Y333023D01*
X207547Y332961D01*
X207464Y332903D01*
X207379Y332847D01*
X207293Y332795D01*
X207204Y332746D01*
X207113Y332700D01*
X207021Y332658D01*
X206928Y332619D01*
X206833Y332584D01*
X206736Y332552D01*
X206639Y332524D01*
X206541Y332500D01*
X206442Y332479D01*
X206342Y332462D01*
X206241Y332449D01*
X206140Y332440D01*
X206039Y332434D01*
X205938Y332432D01*
X205035Y332432D01*
X196169Y338754D02*
X192105Y338754D01*
X196169Y338754D02*
X196281Y338752D01*
X196392Y338746D01*
X196503Y338736D01*
X196614Y338723D01*
X196724Y338705D01*
X196833Y338683D01*
X196942Y338658D01*
X197050Y338629D01*
X197156Y338596D01*
X197262Y338559D01*
X197366Y338519D01*
X197468Y338475D01*
X197569Y338427D01*
X197668Y338376D01*
X197766Y338321D01*
X197861Y338263D01*
X197954Y338202D01*
X198045Y338137D01*
X198134Y338069D01*
X198220Y337998D01*
X198303Y337925D01*
X198384Y337848D01*
X198463Y337768D01*
X198538Y337686D01*
X198610Y337601D01*
X198680Y337514D01*
X198746Y337424D01*
X198809Y337332D01*
X198869Y337237D01*
X198925Y337141D01*
X198978Y337043D01*
X199027Y336943D01*
X199073Y336841D01*
X199115Y336738D01*
X199154Y336633D01*
X199189Y336527D01*
X199220Y336420D01*
X199247Y336312D01*
X199271Y336203D01*
X199290Y336093D01*
X199306Y335983D01*
X199318Y335872D01*
X199326Y335760D01*
X199330Y335649D01*
X199330Y335537D01*
X199326Y335426D01*
X199318Y335314D01*
X199306Y335203D01*
X199290Y335093D01*
X199271Y334983D01*
X199247Y334874D01*
X199220Y334766D01*
X199189Y334659D01*
X199154Y334553D01*
X199115Y334448D01*
X199073Y334345D01*
X199027Y334243D01*
X198978Y334143D01*
X198925Y334045D01*
X198869Y333949D01*
X198809Y333854D01*
X198746Y333762D01*
X198680Y333672D01*
X198610Y333585D01*
X198538Y333500D01*
X198463Y333418D01*
X198384Y333338D01*
X198303Y333261D01*
X198220Y333188D01*
X198134Y333117D01*
X198045Y333049D01*
X197954Y332984D01*
X197861Y332923D01*
X197766Y332865D01*
X197668Y332810D01*
X197569Y332759D01*
X197468Y332711D01*
X197366Y332667D01*
X197262Y332627D01*
X197156Y332590D01*
X197050Y332557D01*
X196942Y332528D01*
X196833Y332503D01*
X196724Y332481D01*
X196614Y332463D01*
X196503Y332450D01*
X196392Y332440D01*
X196281Y332434D01*
X196169Y332432D01*
X192105Y332432D01*
X192105Y340560D01*
X192106Y340560D02*
X192108Y340661D01*
X192114Y340762D01*
X192123Y340863D01*
X192136Y340964D01*
X192153Y341064D01*
X192174Y341163D01*
X192198Y341261D01*
X192226Y341358D01*
X192258Y341455D01*
X192293Y341550D01*
X192332Y341643D01*
X192374Y341735D01*
X192420Y341826D01*
X192469Y341915D01*
X192521Y342001D01*
X192577Y342086D01*
X192635Y342169D01*
X192697Y342249D01*
X192762Y342327D01*
X192829Y342403D01*
X192899Y342476D01*
X192972Y342546D01*
X193048Y342613D01*
X193126Y342678D01*
X193206Y342740D01*
X193289Y342798D01*
X193374Y342854D01*
X193461Y342906D01*
X193549Y342955D01*
X193640Y343001D01*
X193732Y343043D01*
X193825Y343082D01*
X193920Y343117D01*
X194017Y343149D01*
X194114Y343177D01*
X194212Y343201D01*
X194311Y343222D01*
X194411Y343239D01*
X194512Y343252D01*
X194613Y343261D01*
X194714Y343267D01*
X194815Y343269D01*
X198427Y343269D01*
X239238Y322018D02*
X239238Y305762D01*
X232013Y305762D01*
X226381Y309374D02*
X226381Y312987D01*
X226380Y312987D02*
X226378Y313106D01*
X226372Y313226D01*
X226362Y313345D01*
X226348Y313463D01*
X226331Y313582D01*
X226309Y313699D01*
X226284Y313816D01*
X226254Y313931D01*
X226221Y314046D01*
X226184Y314160D01*
X226144Y314272D01*
X226099Y314383D01*
X226051Y314492D01*
X226000Y314600D01*
X225945Y314706D01*
X225886Y314810D01*
X225824Y314912D01*
X225759Y315012D01*
X225690Y315110D01*
X225618Y315206D01*
X225543Y315299D01*
X225466Y315389D01*
X225385Y315477D01*
X225301Y315562D01*
X225214Y315644D01*
X225125Y315724D01*
X225033Y315800D01*
X224939Y315874D01*
X224842Y315944D01*
X224744Y316011D01*
X224643Y316075D01*
X224539Y316135D01*
X224434Y316192D01*
X224327Y316245D01*
X224219Y316295D01*
X224109Y316341D01*
X223997Y316383D01*
X223884Y316422D01*
X223770Y316457D01*
X223655Y316488D01*
X223538Y316516D01*
X223421Y316539D01*
X223304Y316559D01*
X223185Y316575D01*
X223066Y316587D01*
X222947Y316595D01*
X222828Y316599D01*
X222708Y316599D01*
X222589Y316595D01*
X222470Y316587D01*
X222351Y316575D01*
X222232Y316559D01*
X222115Y316539D01*
X221998Y316516D01*
X221881Y316488D01*
X221766Y316457D01*
X221652Y316422D01*
X221539Y316383D01*
X221427Y316341D01*
X221317Y316295D01*
X221209Y316245D01*
X221102Y316192D01*
X220997Y316135D01*
X220893Y316075D01*
X220792Y316011D01*
X220694Y315944D01*
X220597Y315874D01*
X220503Y315800D01*
X220411Y315724D01*
X220322Y315644D01*
X220235Y315562D01*
X220151Y315477D01*
X220070Y315389D01*
X219993Y315299D01*
X219918Y315206D01*
X219846Y315110D01*
X219777Y315012D01*
X219712Y314912D01*
X219650Y314810D01*
X219591Y314706D01*
X219536Y314600D01*
X219485Y314492D01*
X219437Y314383D01*
X219392Y314272D01*
X219352Y314160D01*
X219315Y314046D01*
X219282Y313931D01*
X219252Y313816D01*
X219227Y313699D01*
X219205Y313582D01*
X219188Y313463D01*
X219174Y313345D01*
X219164Y313226D01*
X219158Y313106D01*
X219156Y312987D01*
X219156Y309374D01*
X219158Y309255D01*
X219164Y309135D01*
X219174Y309016D01*
X219188Y308898D01*
X219205Y308779D01*
X219227Y308662D01*
X219252Y308545D01*
X219282Y308430D01*
X219315Y308315D01*
X219352Y308201D01*
X219392Y308089D01*
X219437Y307978D01*
X219485Y307869D01*
X219536Y307761D01*
X219591Y307655D01*
X219650Y307551D01*
X219712Y307449D01*
X219777Y307349D01*
X219846Y307251D01*
X219918Y307155D01*
X219993Y307062D01*
X220070Y306972D01*
X220151Y306884D01*
X220235Y306799D01*
X220322Y306717D01*
X220411Y306637D01*
X220503Y306561D01*
X220597Y306487D01*
X220694Y306417D01*
X220792Y306350D01*
X220893Y306286D01*
X220997Y306226D01*
X221102Y306169D01*
X221209Y306116D01*
X221317Y306066D01*
X221427Y306020D01*
X221539Y305978D01*
X221652Y305939D01*
X221766Y305904D01*
X221881Y305873D01*
X221998Y305845D01*
X222115Y305822D01*
X222232Y305802D01*
X222351Y305786D01*
X222470Y305774D01*
X222589Y305766D01*
X222708Y305762D01*
X222828Y305762D01*
X222947Y305766D01*
X223066Y305774D01*
X223185Y305786D01*
X223304Y305802D01*
X223421Y305822D01*
X223538Y305845D01*
X223655Y305873D01*
X223770Y305904D01*
X223884Y305939D01*
X223997Y305978D01*
X224109Y306020D01*
X224219Y306066D01*
X224327Y306116D01*
X224434Y306169D01*
X224539Y306226D01*
X224643Y306286D01*
X224744Y306350D01*
X224842Y306417D01*
X224939Y306487D01*
X225033Y306561D01*
X225125Y306637D01*
X225214Y306717D01*
X225301Y306799D01*
X225385Y306884D01*
X225466Y306972D01*
X225543Y307062D01*
X225618Y307155D01*
X225690Y307251D01*
X225759Y307349D01*
X225824Y307449D01*
X225886Y307551D01*
X225945Y307655D01*
X226000Y307761D01*
X226051Y307869D01*
X226099Y307978D01*
X226144Y308089D01*
X226184Y308201D01*
X226221Y308315D01*
X226254Y308430D01*
X226284Y308545D01*
X226309Y308662D01*
X226331Y308779D01*
X226348Y308898D01*
X226362Y309016D01*
X226372Y309135D01*
X226378Y309255D01*
X226380Y309374D01*
X210198Y305762D02*
X205682Y305762D01*
X210198Y305762D02*
X210299Y305764D01*
X210400Y305770D01*
X210501Y305779D01*
X210602Y305792D01*
X210702Y305809D01*
X210801Y305830D01*
X210899Y305854D01*
X210996Y305882D01*
X211093Y305914D01*
X211188Y305949D01*
X211281Y305988D01*
X211373Y306030D01*
X211464Y306076D01*
X211553Y306125D01*
X211639Y306177D01*
X211724Y306233D01*
X211807Y306291D01*
X211887Y306353D01*
X211965Y306418D01*
X212041Y306485D01*
X212114Y306555D01*
X212184Y306628D01*
X212251Y306704D01*
X212316Y306782D01*
X212378Y306862D01*
X212436Y306945D01*
X212492Y307030D01*
X212544Y307117D01*
X212593Y307205D01*
X212639Y307296D01*
X212681Y307388D01*
X212720Y307481D01*
X212755Y307576D01*
X212787Y307673D01*
X212815Y307770D01*
X212839Y307868D01*
X212860Y307967D01*
X212877Y308067D01*
X212890Y308168D01*
X212899Y308269D01*
X212905Y308370D01*
X212907Y308471D01*
X212907Y313890D01*
X212905Y313991D01*
X212899Y314092D01*
X212890Y314193D01*
X212877Y314294D01*
X212860Y314394D01*
X212839Y314493D01*
X212815Y314591D01*
X212787Y314688D01*
X212755Y314785D01*
X212720Y314880D01*
X212681Y314973D01*
X212639Y315065D01*
X212593Y315156D01*
X212544Y315245D01*
X212492Y315331D01*
X212436Y315416D01*
X212378Y315499D01*
X212316Y315579D01*
X212251Y315657D01*
X212184Y315733D01*
X212114Y315806D01*
X212041Y315876D01*
X211965Y315943D01*
X211887Y316008D01*
X211807Y316070D01*
X211724Y316128D01*
X211639Y316184D01*
X211553Y316236D01*
X211464Y316285D01*
X211373Y316331D01*
X211281Y316373D01*
X211188Y316412D01*
X211093Y316447D01*
X210996Y316479D01*
X210899Y316507D01*
X210801Y316531D01*
X210702Y316552D01*
X210602Y316569D01*
X210501Y316582D01*
X210400Y316591D01*
X210299Y316597D01*
X210198Y316599D01*
X205682Y316599D01*
X205682Y303053D01*
X205684Y302952D01*
X205690Y302851D01*
X205699Y302750D01*
X205712Y302649D01*
X205729Y302549D01*
X205750Y302450D01*
X205774Y302352D01*
X205802Y302255D01*
X205834Y302158D01*
X205869Y302063D01*
X205908Y301970D01*
X205950Y301878D01*
X205996Y301787D01*
X206045Y301699D01*
X206097Y301612D01*
X206153Y301527D01*
X206211Y301444D01*
X206273Y301364D01*
X206338Y301286D01*
X206405Y301210D01*
X206475Y301137D01*
X206548Y301067D01*
X206624Y301000D01*
X206702Y300935D01*
X206782Y300873D01*
X206865Y300815D01*
X206950Y300759D01*
X207037Y300707D01*
X207125Y300658D01*
X207216Y300612D01*
X207308Y300570D01*
X207401Y300531D01*
X207496Y300496D01*
X207593Y300464D01*
X207690Y300436D01*
X207788Y300412D01*
X207887Y300391D01*
X207987Y300374D01*
X208088Y300361D01*
X208189Y300352D01*
X208290Y300346D01*
X208391Y300344D01*
X208391Y300343D02*
X212004Y300343D01*
X196130Y305762D02*
X191614Y305762D01*
X196130Y305762D02*
X196231Y305764D01*
X196332Y305770D01*
X196433Y305779D01*
X196534Y305792D01*
X196634Y305809D01*
X196733Y305830D01*
X196831Y305854D01*
X196928Y305882D01*
X197025Y305914D01*
X197120Y305949D01*
X197213Y305988D01*
X197305Y306030D01*
X197396Y306076D01*
X197485Y306125D01*
X197571Y306177D01*
X197656Y306233D01*
X197739Y306291D01*
X197819Y306353D01*
X197897Y306418D01*
X197973Y306485D01*
X198046Y306555D01*
X198116Y306628D01*
X198183Y306704D01*
X198248Y306782D01*
X198310Y306862D01*
X198368Y306945D01*
X198424Y307030D01*
X198476Y307117D01*
X198525Y307205D01*
X198571Y307296D01*
X198613Y307388D01*
X198652Y307481D01*
X198687Y307576D01*
X198719Y307673D01*
X198747Y307770D01*
X198771Y307868D01*
X198792Y307967D01*
X198809Y308067D01*
X198822Y308168D01*
X198831Y308269D01*
X198837Y308370D01*
X198839Y308471D01*
X198839Y313890D01*
X198837Y313991D01*
X198831Y314092D01*
X198822Y314193D01*
X198809Y314294D01*
X198792Y314394D01*
X198771Y314493D01*
X198747Y314591D01*
X198719Y314688D01*
X198687Y314785D01*
X198652Y314880D01*
X198613Y314973D01*
X198571Y315065D01*
X198525Y315156D01*
X198476Y315245D01*
X198424Y315331D01*
X198368Y315416D01*
X198310Y315499D01*
X198248Y315579D01*
X198183Y315657D01*
X198116Y315733D01*
X198046Y315806D01*
X197973Y315876D01*
X197897Y315943D01*
X197819Y316008D01*
X197739Y316070D01*
X197656Y316128D01*
X197571Y316184D01*
X197485Y316236D01*
X197396Y316285D01*
X197305Y316331D01*
X197213Y316373D01*
X197120Y316412D01*
X197025Y316447D01*
X196928Y316479D01*
X196831Y316507D01*
X196733Y316531D01*
X196634Y316552D01*
X196534Y316569D01*
X196433Y316582D01*
X196332Y316591D01*
X196231Y316597D01*
X196130Y316599D01*
X191614Y316599D01*
X191614Y303053D01*
X191616Y302952D01*
X191622Y302851D01*
X191631Y302750D01*
X191644Y302649D01*
X191661Y302549D01*
X191682Y302450D01*
X191706Y302352D01*
X191734Y302255D01*
X191766Y302158D01*
X191801Y302063D01*
X191840Y301970D01*
X191882Y301878D01*
X191928Y301787D01*
X191977Y301699D01*
X192029Y301612D01*
X192085Y301527D01*
X192143Y301444D01*
X192205Y301364D01*
X192270Y301286D01*
X192337Y301210D01*
X192407Y301137D01*
X192480Y301067D01*
X192556Y301000D01*
X192634Y300935D01*
X192714Y300873D01*
X192797Y300815D01*
X192882Y300759D01*
X192969Y300707D01*
X193057Y300658D01*
X193148Y300612D01*
X193240Y300570D01*
X193333Y300531D01*
X193428Y300496D01*
X193525Y300464D01*
X193622Y300436D01*
X193720Y300412D01*
X193819Y300391D01*
X193919Y300374D01*
X194020Y300361D01*
X194121Y300352D01*
X194222Y300346D01*
X194323Y300344D01*
X194323Y300343D02*
X197936Y300343D01*
X181988Y305762D02*
X177473Y305762D01*
X181988Y305762D02*
X182089Y305764D01*
X182190Y305770D01*
X182291Y305779D01*
X182392Y305792D01*
X182492Y305809D01*
X182591Y305830D01*
X182689Y305854D01*
X182786Y305882D01*
X182883Y305914D01*
X182978Y305949D01*
X183071Y305988D01*
X183163Y306030D01*
X183254Y306076D01*
X183343Y306125D01*
X183429Y306177D01*
X183514Y306233D01*
X183597Y306291D01*
X183677Y306353D01*
X183755Y306418D01*
X183831Y306485D01*
X183904Y306555D01*
X183974Y306628D01*
X184041Y306704D01*
X184106Y306782D01*
X184168Y306862D01*
X184226Y306945D01*
X184282Y307030D01*
X184334Y307117D01*
X184383Y307205D01*
X184429Y307296D01*
X184471Y307388D01*
X184510Y307481D01*
X184545Y307576D01*
X184577Y307673D01*
X184605Y307770D01*
X184629Y307868D01*
X184650Y307967D01*
X184667Y308067D01*
X184680Y308168D01*
X184689Y308269D01*
X184695Y308370D01*
X184697Y308471D01*
X184698Y308471D02*
X184698Y312987D01*
X184697Y312987D02*
X184695Y313106D01*
X184689Y313226D01*
X184679Y313345D01*
X184665Y313463D01*
X184648Y313582D01*
X184626Y313699D01*
X184601Y313816D01*
X184571Y313931D01*
X184538Y314046D01*
X184501Y314160D01*
X184461Y314272D01*
X184416Y314383D01*
X184368Y314492D01*
X184317Y314600D01*
X184262Y314706D01*
X184203Y314810D01*
X184141Y314912D01*
X184076Y315012D01*
X184007Y315110D01*
X183935Y315206D01*
X183860Y315299D01*
X183783Y315389D01*
X183702Y315477D01*
X183618Y315562D01*
X183531Y315644D01*
X183442Y315724D01*
X183350Y315800D01*
X183256Y315874D01*
X183159Y315944D01*
X183061Y316011D01*
X182960Y316075D01*
X182856Y316135D01*
X182751Y316192D01*
X182644Y316245D01*
X182536Y316295D01*
X182426Y316341D01*
X182314Y316383D01*
X182201Y316422D01*
X182087Y316457D01*
X181972Y316488D01*
X181855Y316516D01*
X181738Y316539D01*
X181621Y316559D01*
X181502Y316575D01*
X181383Y316587D01*
X181264Y316595D01*
X181145Y316599D01*
X181025Y316599D01*
X180906Y316595D01*
X180787Y316587D01*
X180668Y316575D01*
X180549Y316559D01*
X180432Y316539D01*
X180315Y316516D01*
X180198Y316488D01*
X180083Y316457D01*
X179969Y316422D01*
X179856Y316383D01*
X179744Y316341D01*
X179634Y316295D01*
X179526Y316245D01*
X179419Y316192D01*
X179314Y316135D01*
X179210Y316075D01*
X179109Y316011D01*
X179011Y315944D01*
X178914Y315874D01*
X178820Y315800D01*
X178728Y315724D01*
X178639Y315644D01*
X178552Y315562D01*
X178468Y315477D01*
X178387Y315389D01*
X178310Y315299D01*
X178235Y315206D01*
X178163Y315110D01*
X178094Y315012D01*
X178029Y314912D01*
X177967Y314810D01*
X177908Y314706D01*
X177853Y314600D01*
X177802Y314492D01*
X177754Y314383D01*
X177709Y314272D01*
X177669Y314160D01*
X177632Y314046D01*
X177599Y313931D01*
X177569Y313816D01*
X177544Y313699D01*
X177522Y313582D01*
X177505Y313463D01*
X177491Y313345D01*
X177481Y313226D01*
X177475Y313106D01*
X177473Y312987D01*
X177473Y311181D01*
X184698Y311181D01*
X170545Y305762D02*
X170545Y316599D01*
X165126Y316599D01*
X165126Y314793D01*
X354238Y332432D02*
X354238Y348688D01*
X349722Y348688D01*
X349589Y348686D01*
X349457Y348680D01*
X349325Y348670D01*
X349193Y348657D01*
X349061Y348639D01*
X348931Y348618D01*
X348800Y348593D01*
X348671Y348564D01*
X348543Y348531D01*
X348415Y348495D01*
X348289Y348455D01*
X348164Y348411D01*
X348040Y348363D01*
X347918Y348312D01*
X347797Y348257D01*
X347678Y348199D01*
X347560Y348137D01*
X347445Y348072D01*
X347331Y348003D01*
X347220Y347932D01*
X347111Y347856D01*
X347004Y347778D01*
X346899Y347697D01*
X346797Y347612D01*
X346697Y347525D01*
X346600Y347435D01*
X346505Y347342D01*
X346414Y347246D01*
X346325Y347148D01*
X346239Y347047D01*
X346156Y346943D01*
X346076Y346837D01*
X346000Y346729D01*
X345926Y346619D01*
X345856Y346506D01*
X345789Y346392D01*
X345726Y346275D01*
X345666Y346157D01*
X345609Y346037D01*
X345556Y345915D01*
X345507Y345792D01*
X345461Y345668D01*
X345419Y345542D01*
X345381Y345415D01*
X345346Y345287D01*
X345315Y345158D01*
X345288Y345029D01*
X345265Y344898D01*
X345245Y344767D01*
X345230Y344635D01*
X345218Y344503D01*
X345210Y344371D01*
X345206Y344238D01*
X345206Y344106D01*
X345210Y343973D01*
X345218Y343841D01*
X345230Y343709D01*
X345245Y343577D01*
X345265Y343446D01*
X345288Y343315D01*
X345315Y343186D01*
X345346Y343057D01*
X345381Y342929D01*
X345419Y342802D01*
X345461Y342676D01*
X345507Y342552D01*
X345556Y342429D01*
X345609Y342307D01*
X345666Y342187D01*
X345726Y342069D01*
X345789Y341952D01*
X345856Y341838D01*
X345926Y341725D01*
X346000Y341615D01*
X346076Y341507D01*
X346156Y341401D01*
X346239Y341297D01*
X346325Y341196D01*
X346414Y341098D01*
X346505Y341002D01*
X346600Y340909D01*
X346697Y340819D01*
X346797Y340732D01*
X346899Y340647D01*
X347004Y340566D01*
X347111Y340488D01*
X347220Y340412D01*
X347331Y340341D01*
X347445Y340272D01*
X347560Y340207D01*
X347678Y340145D01*
X347797Y340087D01*
X347918Y340032D01*
X348040Y339981D01*
X348164Y339933D01*
X348289Y339889D01*
X348415Y339849D01*
X348543Y339813D01*
X348671Y339780D01*
X348800Y339751D01*
X348931Y339726D01*
X349061Y339705D01*
X349193Y339687D01*
X349325Y339674D01*
X349457Y339664D01*
X349589Y339658D01*
X349722Y339656D01*
X349722Y339657D02*
X354238Y339657D01*
X348819Y339657D02*
X345207Y332432D01*
X338837Y336044D02*
X338837Y339657D01*
X338835Y339776D01*
X338829Y339896D01*
X338819Y340015D01*
X338805Y340133D01*
X338788Y340252D01*
X338766Y340369D01*
X338741Y340486D01*
X338711Y340601D01*
X338678Y340716D01*
X338641Y340830D01*
X338601Y340942D01*
X338556Y341053D01*
X338508Y341162D01*
X338457Y341270D01*
X338402Y341376D01*
X338343Y341480D01*
X338281Y341582D01*
X338216Y341682D01*
X338147Y341780D01*
X338075Y341876D01*
X338000Y341969D01*
X337923Y342059D01*
X337842Y342147D01*
X337758Y342232D01*
X337671Y342314D01*
X337582Y342394D01*
X337490Y342470D01*
X337396Y342544D01*
X337299Y342614D01*
X337201Y342681D01*
X337100Y342745D01*
X336996Y342805D01*
X336891Y342862D01*
X336784Y342915D01*
X336676Y342965D01*
X336566Y343011D01*
X336454Y343053D01*
X336341Y343092D01*
X336227Y343127D01*
X336112Y343158D01*
X335995Y343186D01*
X335878Y343209D01*
X335761Y343229D01*
X335642Y343245D01*
X335523Y343257D01*
X335404Y343265D01*
X335285Y343269D01*
X335165Y343269D01*
X335046Y343265D01*
X334927Y343257D01*
X334808Y343245D01*
X334689Y343229D01*
X334572Y343209D01*
X334455Y343186D01*
X334338Y343158D01*
X334223Y343127D01*
X334109Y343092D01*
X333996Y343053D01*
X333884Y343011D01*
X333774Y342965D01*
X333666Y342915D01*
X333559Y342862D01*
X333454Y342805D01*
X333350Y342745D01*
X333249Y342681D01*
X333151Y342614D01*
X333054Y342544D01*
X332960Y342470D01*
X332868Y342394D01*
X332779Y342314D01*
X332692Y342232D01*
X332608Y342147D01*
X332527Y342059D01*
X332450Y341969D01*
X332375Y341876D01*
X332303Y341780D01*
X332234Y341682D01*
X332169Y341582D01*
X332107Y341480D01*
X332048Y341376D01*
X331993Y341270D01*
X331942Y341162D01*
X331894Y341053D01*
X331849Y340942D01*
X331809Y340830D01*
X331772Y340716D01*
X331739Y340601D01*
X331709Y340486D01*
X331684Y340369D01*
X331662Y340252D01*
X331645Y340133D01*
X331631Y340015D01*
X331621Y339896D01*
X331615Y339776D01*
X331613Y339657D01*
X331612Y339657D02*
X331612Y336044D01*
X331613Y336044D02*
X331615Y335925D01*
X331621Y335805D01*
X331631Y335686D01*
X331645Y335568D01*
X331662Y335449D01*
X331684Y335332D01*
X331709Y335215D01*
X331739Y335100D01*
X331772Y334985D01*
X331809Y334871D01*
X331849Y334759D01*
X331894Y334648D01*
X331942Y334539D01*
X331993Y334431D01*
X332048Y334325D01*
X332107Y334221D01*
X332169Y334119D01*
X332234Y334019D01*
X332303Y333921D01*
X332375Y333825D01*
X332450Y333732D01*
X332527Y333642D01*
X332608Y333554D01*
X332692Y333469D01*
X332779Y333387D01*
X332868Y333307D01*
X332960Y333231D01*
X333054Y333157D01*
X333151Y333087D01*
X333249Y333020D01*
X333350Y332956D01*
X333454Y332896D01*
X333559Y332839D01*
X333666Y332786D01*
X333774Y332736D01*
X333884Y332690D01*
X333996Y332648D01*
X334109Y332609D01*
X334223Y332574D01*
X334338Y332543D01*
X334455Y332515D01*
X334572Y332492D01*
X334689Y332472D01*
X334808Y332456D01*
X334927Y332444D01*
X335046Y332436D01*
X335165Y332432D01*
X335285Y332432D01*
X335404Y332436D01*
X335523Y332444D01*
X335642Y332456D01*
X335761Y332472D01*
X335878Y332492D01*
X335995Y332515D01*
X336112Y332543D01*
X336227Y332574D01*
X336341Y332609D01*
X336454Y332648D01*
X336566Y332690D01*
X336676Y332736D01*
X336784Y332786D01*
X336891Y332839D01*
X336996Y332896D01*
X337100Y332956D01*
X337201Y333020D01*
X337299Y333087D01*
X337396Y333157D01*
X337490Y333231D01*
X337582Y333307D01*
X337671Y333387D01*
X337758Y333469D01*
X337842Y333554D01*
X337923Y333642D01*
X338000Y333732D01*
X338075Y333825D01*
X338147Y333921D01*
X338216Y334019D01*
X338281Y334119D01*
X338343Y334221D01*
X338402Y334325D01*
X338457Y334431D01*
X338508Y334539D01*
X338556Y334648D01*
X338601Y334759D01*
X338641Y334871D01*
X338678Y334985D01*
X338711Y335100D01*
X338741Y335215D01*
X338766Y335332D01*
X338788Y335449D01*
X338805Y335568D01*
X338819Y335686D01*
X338829Y335805D01*
X338835Y335925D01*
X338837Y336044D01*
X322563Y332432D02*
X318951Y332432D01*
X322563Y332432D02*
X322664Y332434D01*
X322765Y332440D01*
X322866Y332449D01*
X322967Y332462D01*
X323067Y332479D01*
X323166Y332500D01*
X323264Y332524D01*
X323361Y332552D01*
X323458Y332584D01*
X323553Y332619D01*
X323646Y332658D01*
X323738Y332700D01*
X323829Y332746D01*
X323918Y332795D01*
X324004Y332847D01*
X324089Y332903D01*
X324172Y332961D01*
X324252Y333023D01*
X324330Y333088D01*
X324406Y333155D01*
X324479Y333225D01*
X324549Y333298D01*
X324616Y333374D01*
X324681Y333452D01*
X324743Y333532D01*
X324801Y333615D01*
X324857Y333700D01*
X324909Y333787D01*
X324958Y333875D01*
X325004Y333966D01*
X325046Y334058D01*
X325085Y334151D01*
X325120Y334246D01*
X325152Y334343D01*
X325180Y334440D01*
X325204Y334538D01*
X325225Y334637D01*
X325242Y334737D01*
X325255Y334838D01*
X325264Y334939D01*
X325270Y335040D01*
X325272Y335141D01*
X325273Y335141D02*
X325273Y340560D01*
X325272Y340560D02*
X325270Y340661D01*
X325264Y340762D01*
X325255Y340863D01*
X325242Y340964D01*
X325225Y341064D01*
X325204Y341163D01*
X325180Y341261D01*
X325152Y341358D01*
X325120Y341455D01*
X325085Y341550D01*
X325046Y341643D01*
X325004Y341735D01*
X324958Y341826D01*
X324909Y341915D01*
X324857Y342001D01*
X324801Y342086D01*
X324743Y342169D01*
X324681Y342249D01*
X324616Y342327D01*
X324549Y342403D01*
X324479Y342476D01*
X324406Y342546D01*
X324330Y342613D01*
X324252Y342678D01*
X324172Y342740D01*
X324089Y342798D01*
X324004Y342854D01*
X323918Y342906D01*
X323829Y342955D01*
X323738Y343001D01*
X323646Y343043D01*
X323553Y343082D01*
X323458Y343117D01*
X323361Y343149D01*
X323264Y343177D01*
X323166Y343201D01*
X323067Y343222D01*
X322967Y343239D01*
X322866Y343252D01*
X322765Y343261D01*
X322664Y343267D01*
X322563Y343269D01*
X318951Y343269D01*
X312616Y348688D02*
X312616Y332432D01*
X312616Y337851D02*
X305392Y343269D01*
X309456Y340108D02*
X305392Y332432D01*
X297050Y332432D02*
X292534Y332432D01*
X297050Y332432D02*
X297151Y332434D01*
X297252Y332440D01*
X297353Y332449D01*
X297454Y332462D01*
X297554Y332479D01*
X297653Y332500D01*
X297751Y332524D01*
X297848Y332552D01*
X297945Y332584D01*
X298040Y332619D01*
X298133Y332658D01*
X298225Y332700D01*
X298316Y332746D01*
X298405Y332795D01*
X298491Y332847D01*
X298576Y332903D01*
X298659Y332961D01*
X298739Y333023D01*
X298817Y333088D01*
X298893Y333155D01*
X298966Y333225D01*
X299036Y333298D01*
X299103Y333374D01*
X299168Y333452D01*
X299230Y333532D01*
X299288Y333615D01*
X299344Y333700D01*
X299396Y333787D01*
X299445Y333875D01*
X299491Y333966D01*
X299533Y334058D01*
X299572Y334151D01*
X299607Y334246D01*
X299639Y334343D01*
X299667Y334440D01*
X299691Y334538D01*
X299712Y334637D01*
X299729Y334737D01*
X299742Y334838D01*
X299751Y334939D01*
X299757Y335040D01*
X299759Y335141D01*
X299759Y339657D01*
X299757Y339776D01*
X299751Y339896D01*
X299741Y340015D01*
X299727Y340133D01*
X299710Y340252D01*
X299688Y340369D01*
X299663Y340486D01*
X299633Y340601D01*
X299600Y340716D01*
X299563Y340830D01*
X299523Y340942D01*
X299478Y341053D01*
X299430Y341162D01*
X299379Y341270D01*
X299324Y341376D01*
X299265Y341480D01*
X299203Y341582D01*
X299138Y341682D01*
X299069Y341780D01*
X298997Y341876D01*
X298922Y341969D01*
X298845Y342059D01*
X298764Y342147D01*
X298680Y342232D01*
X298593Y342314D01*
X298504Y342394D01*
X298412Y342470D01*
X298318Y342544D01*
X298221Y342614D01*
X298123Y342681D01*
X298022Y342745D01*
X297918Y342805D01*
X297813Y342862D01*
X297706Y342915D01*
X297598Y342965D01*
X297488Y343011D01*
X297376Y343053D01*
X297263Y343092D01*
X297149Y343127D01*
X297034Y343158D01*
X296917Y343186D01*
X296800Y343209D01*
X296683Y343229D01*
X296564Y343245D01*
X296445Y343257D01*
X296326Y343265D01*
X296207Y343269D01*
X296087Y343269D01*
X295968Y343265D01*
X295849Y343257D01*
X295730Y343245D01*
X295611Y343229D01*
X295494Y343209D01*
X295377Y343186D01*
X295260Y343158D01*
X295145Y343127D01*
X295031Y343092D01*
X294918Y343053D01*
X294806Y343011D01*
X294696Y342965D01*
X294588Y342915D01*
X294481Y342862D01*
X294376Y342805D01*
X294272Y342745D01*
X294171Y342681D01*
X294073Y342614D01*
X293976Y342544D01*
X293882Y342470D01*
X293790Y342394D01*
X293701Y342314D01*
X293614Y342232D01*
X293530Y342147D01*
X293449Y342059D01*
X293372Y341969D01*
X293297Y341876D01*
X293225Y341780D01*
X293156Y341682D01*
X293091Y341582D01*
X293029Y341480D01*
X292970Y341376D01*
X292915Y341270D01*
X292864Y341162D01*
X292816Y341053D01*
X292771Y340942D01*
X292731Y340830D01*
X292694Y340716D01*
X292661Y340601D01*
X292631Y340486D01*
X292606Y340369D01*
X292584Y340252D01*
X292567Y340133D01*
X292553Y340015D01*
X292543Y339896D01*
X292537Y339776D01*
X292535Y339657D01*
X292534Y339657D02*
X292534Y337851D01*
X299759Y337851D01*
X287509Y343269D02*
X282091Y343269D01*
X285703Y348688D02*
X285703Y335141D01*
X285701Y335040D01*
X285695Y334939D01*
X285686Y334838D01*
X285673Y334737D01*
X285656Y334637D01*
X285635Y334538D01*
X285611Y334440D01*
X285583Y334343D01*
X285551Y334246D01*
X285516Y334151D01*
X285477Y334058D01*
X285435Y333966D01*
X285389Y333875D01*
X285340Y333787D01*
X285288Y333700D01*
X285232Y333615D01*
X285174Y333532D01*
X285112Y333452D01*
X285047Y333374D01*
X284980Y333298D01*
X284910Y333225D01*
X284837Y333155D01*
X284761Y333088D01*
X284683Y333023D01*
X284603Y332961D01*
X284520Y332903D01*
X284435Y332847D01*
X284349Y332795D01*
X284260Y332746D01*
X284169Y332700D01*
X284077Y332658D01*
X283984Y332619D01*
X283889Y332584D01*
X283792Y332552D01*
X283695Y332524D01*
X283597Y332500D01*
X283498Y332479D01*
X283398Y332462D01*
X283297Y332449D01*
X283196Y332440D01*
X283095Y332434D01*
X282994Y332432D01*
X282091Y332432D01*
X347013Y305762D02*
X350626Y305762D01*
X350744Y305764D01*
X350862Y305770D01*
X350980Y305779D01*
X351097Y305793D01*
X351214Y305810D01*
X351331Y305831D01*
X351446Y305856D01*
X351561Y305885D01*
X351675Y305918D01*
X351787Y305954D01*
X351898Y305994D01*
X352008Y306037D01*
X352117Y306084D01*
X352224Y306134D01*
X352329Y306189D01*
X352432Y306246D01*
X352533Y306307D01*
X352633Y306371D01*
X352730Y306438D01*
X352825Y306508D01*
X352917Y306582D01*
X353008Y306658D01*
X353095Y306738D01*
X353180Y306820D01*
X353262Y306905D01*
X353342Y306992D01*
X353418Y307083D01*
X353492Y307175D01*
X353562Y307270D01*
X353629Y307367D01*
X353693Y307467D01*
X353754Y307568D01*
X353811Y307671D01*
X353866Y307776D01*
X353916Y307883D01*
X353963Y307992D01*
X354006Y308102D01*
X354046Y308213D01*
X354082Y308325D01*
X354115Y308439D01*
X354144Y308554D01*
X354169Y308669D01*
X354190Y308786D01*
X354207Y308903D01*
X354221Y309020D01*
X354230Y309138D01*
X354236Y309256D01*
X354238Y309374D01*
X354238Y318406D01*
X354236Y318524D01*
X354230Y318642D01*
X354221Y318760D01*
X354207Y318877D01*
X354190Y318994D01*
X354169Y319111D01*
X354144Y319226D01*
X354115Y319341D01*
X354082Y319455D01*
X354046Y319567D01*
X354006Y319678D01*
X353963Y319788D01*
X353916Y319897D01*
X353866Y320004D01*
X353811Y320109D01*
X353754Y320212D01*
X353693Y320313D01*
X353629Y320413D01*
X353562Y320510D01*
X353492Y320605D01*
X353418Y320697D01*
X353342Y320788D01*
X353262Y320875D01*
X353180Y320960D01*
X353095Y321042D01*
X353008Y321122D01*
X352917Y321198D01*
X352825Y321272D01*
X352730Y321342D01*
X352633Y321409D01*
X352533Y321473D01*
X352432Y321534D01*
X352329Y321591D01*
X352224Y321646D01*
X352117Y321696D01*
X352008Y321743D01*
X351898Y321786D01*
X351787Y321826D01*
X351675Y321862D01*
X351561Y321895D01*
X351446Y321924D01*
X351331Y321949D01*
X351214Y321970D01*
X351097Y321987D01*
X350980Y322001D01*
X350862Y322010D01*
X350744Y322016D01*
X350626Y322018D01*
X347013Y322018D01*
X341311Y312987D02*
X341311Y309374D01*
X341311Y312987D02*
X341309Y313106D01*
X341303Y313226D01*
X341293Y313345D01*
X341279Y313463D01*
X341262Y313582D01*
X341240Y313699D01*
X341215Y313816D01*
X341185Y313931D01*
X341152Y314046D01*
X341115Y314160D01*
X341075Y314272D01*
X341030Y314383D01*
X340982Y314492D01*
X340931Y314600D01*
X340876Y314706D01*
X340817Y314810D01*
X340755Y314912D01*
X340690Y315012D01*
X340621Y315110D01*
X340549Y315206D01*
X340474Y315299D01*
X340397Y315389D01*
X340316Y315477D01*
X340232Y315562D01*
X340145Y315644D01*
X340056Y315724D01*
X339964Y315800D01*
X339870Y315874D01*
X339773Y315944D01*
X339675Y316011D01*
X339574Y316075D01*
X339470Y316135D01*
X339365Y316192D01*
X339258Y316245D01*
X339150Y316295D01*
X339040Y316341D01*
X338928Y316383D01*
X338815Y316422D01*
X338701Y316457D01*
X338586Y316488D01*
X338469Y316516D01*
X338352Y316539D01*
X338235Y316559D01*
X338116Y316575D01*
X337997Y316587D01*
X337878Y316595D01*
X337759Y316599D01*
X337639Y316599D01*
X337520Y316595D01*
X337401Y316587D01*
X337282Y316575D01*
X337163Y316559D01*
X337046Y316539D01*
X336929Y316516D01*
X336812Y316488D01*
X336697Y316457D01*
X336583Y316422D01*
X336470Y316383D01*
X336358Y316341D01*
X336248Y316295D01*
X336140Y316245D01*
X336033Y316192D01*
X335928Y316135D01*
X335824Y316075D01*
X335723Y316011D01*
X335625Y315944D01*
X335528Y315874D01*
X335434Y315800D01*
X335342Y315724D01*
X335253Y315644D01*
X335166Y315562D01*
X335082Y315477D01*
X335001Y315389D01*
X334924Y315299D01*
X334849Y315206D01*
X334777Y315110D01*
X334708Y315012D01*
X334643Y314912D01*
X334581Y314810D01*
X334522Y314706D01*
X334467Y314600D01*
X334416Y314492D01*
X334368Y314383D01*
X334323Y314272D01*
X334283Y314160D01*
X334246Y314046D01*
X334213Y313931D01*
X334183Y313816D01*
X334158Y313699D01*
X334136Y313582D01*
X334119Y313463D01*
X334105Y313345D01*
X334095Y313226D01*
X334089Y313106D01*
X334087Y312987D01*
X334087Y309374D01*
X334089Y309255D01*
X334095Y309135D01*
X334105Y309016D01*
X334119Y308898D01*
X334136Y308779D01*
X334158Y308662D01*
X334183Y308545D01*
X334213Y308430D01*
X334246Y308315D01*
X334283Y308201D01*
X334323Y308089D01*
X334368Y307978D01*
X334416Y307869D01*
X334467Y307761D01*
X334522Y307655D01*
X334581Y307551D01*
X334643Y307449D01*
X334708Y307349D01*
X334777Y307251D01*
X334849Y307155D01*
X334924Y307062D01*
X335001Y306972D01*
X335082Y306884D01*
X335166Y306799D01*
X335253Y306717D01*
X335342Y306637D01*
X335434Y306561D01*
X335528Y306487D01*
X335625Y306417D01*
X335723Y306350D01*
X335824Y306286D01*
X335928Y306226D01*
X336033Y306169D01*
X336140Y306116D01*
X336248Y306066D01*
X336358Y306020D01*
X336470Y305978D01*
X336583Y305939D01*
X336697Y305904D01*
X336812Y305873D01*
X336929Y305845D01*
X337046Y305822D01*
X337163Y305802D01*
X337282Y305786D01*
X337401Y305774D01*
X337520Y305766D01*
X337639Y305762D01*
X337759Y305762D01*
X337878Y305766D01*
X337997Y305774D01*
X338116Y305786D01*
X338235Y305802D01*
X338352Y305822D01*
X338469Y305845D01*
X338586Y305873D01*
X338701Y305904D01*
X338815Y305939D01*
X338928Y305978D01*
X339040Y306020D01*
X339150Y306066D01*
X339258Y306116D01*
X339365Y306169D01*
X339470Y306226D01*
X339574Y306286D01*
X339675Y306350D01*
X339773Y306417D01*
X339870Y306487D01*
X339964Y306561D01*
X340056Y306637D01*
X340145Y306717D01*
X340232Y306799D01*
X340316Y306884D01*
X340397Y306972D01*
X340474Y307062D01*
X340549Y307155D01*
X340621Y307251D01*
X340690Y307349D01*
X340755Y307449D01*
X340817Y307551D01*
X340876Y307655D01*
X340931Y307761D01*
X340982Y307869D01*
X341030Y307978D01*
X341075Y308089D01*
X341115Y308201D01*
X341152Y308315D01*
X341185Y308430D01*
X341215Y308545D01*
X341240Y308662D01*
X341262Y308779D01*
X341279Y308898D01*
X341293Y309016D01*
X341303Y309135D01*
X341309Y309255D01*
X341311Y309374D01*
X327243Y305762D02*
X327243Y316599D01*
X322728Y316599D01*
X322624Y316597D01*
X322521Y316591D01*
X322417Y316581D01*
X322314Y316567D01*
X322212Y316549D01*
X322111Y316528D01*
X322010Y316502D01*
X321911Y316473D01*
X321812Y316440D01*
X321715Y316403D01*
X321620Y316362D01*
X321526Y316318D01*
X321434Y316270D01*
X321344Y316219D01*
X321255Y316164D01*
X321169Y316106D01*
X321086Y316044D01*
X321004Y315980D01*
X320926Y315912D01*
X320850Y315842D01*
X320776Y315769D01*
X320706Y315692D01*
X320638Y315614D01*
X320574Y315532D01*
X320512Y315449D01*
X320454Y315363D01*
X320399Y315274D01*
X320348Y315184D01*
X320300Y315092D01*
X320256Y314998D01*
X320215Y314903D01*
X320178Y314806D01*
X320145Y314707D01*
X320116Y314608D01*
X320090Y314507D01*
X320069Y314406D01*
X320051Y314304D01*
X320037Y314201D01*
X320027Y314097D01*
X320021Y313994D01*
X320019Y313890D01*
X320019Y305762D01*
X314473Y316599D02*
X309054Y316599D01*
X312666Y322018D02*
X312666Y308471D01*
X312664Y308370D01*
X312658Y308269D01*
X312649Y308168D01*
X312636Y308067D01*
X312619Y307967D01*
X312598Y307868D01*
X312574Y307770D01*
X312546Y307673D01*
X312514Y307576D01*
X312479Y307481D01*
X312440Y307388D01*
X312398Y307296D01*
X312352Y307205D01*
X312303Y307117D01*
X312251Y307030D01*
X312195Y306945D01*
X312137Y306862D01*
X312075Y306782D01*
X312010Y306704D01*
X311943Y306628D01*
X311873Y306555D01*
X311800Y306485D01*
X311724Y306418D01*
X311646Y306353D01*
X311566Y306291D01*
X311483Y306233D01*
X311398Y306177D01*
X311312Y306125D01*
X311223Y306076D01*
X311132Y306030D01*
X311040Y305988D01*
X310947Y305949D01*
X310852Y305914D01*
X310755Y305882D01*
X310658Y305854D01*
X310560Y305830D01*
X310461Y305809D01*
X310361Y305792D01*
X310260Y305779D01*
X310159Y305770D01*
X310058Y305764D01*
X309957Y305762D01*
X309054Y305762D01*
X302670Y305762D02*
X302670Y316599D01*
X297251Y316599D01*
X297251Y314793D01*
X292334Y312987D02*
X292334Y309374D01*
X292333Y312987D02*
X292331Y313106D01*
X292325Y313226D01*
X292315Y313345D01*
X292301Y313463D01*
X292284Y313582D01*
X292262Y313699D01*
X292237Y313816D01*
X292207Y313931D01*
X292174Y314046D01*
X292137Y314160D01*
X292097Y314272D01*
X292052Y314383D01*
X292004Y314492D01*
X291953Y314600D01*
X291898Y314706D01*
X291839Y314810D01*
X291777Y314912D01*
X291712Y315012D01*
X291643Y315110D01*
X291571Y315206D01*
X291496Y315299D01*
X291419Y315389D01*
X291338Y315477D01*
X291254Y315562D01*
X291167Y315644D01*
X291078Y315724D01*
X290986Y315800D01*
X290892Y315874D01*
X290795Y315944D01*
X290697Y316011D01*
X290596Y316075D01*
X290492Y316135D01*
X290387Y316192D01*
X290280Y316245D01*
X290172Y316295D01*
X290062Y316341D01*
X289950Y316383D01*
X289837Y316422D01*
X289723Y316457D01*
X289608Y316488D01*
X289491Y316516D01*
X289374Y316539D01*
X289257Y316559D01*
X289138Y316575D01*
X289019Y316587D01*
X288900Y316595D01*
X288781Y316599D01*
X288661Y316599D01*
X288542Y316595D01*
X288423Y316587D01*
X288304Y316575D01*
X288185Y316559D01*
X288068Y316539D01*
X287951Y316516D01*
X287834Y316488D01*
X287719Y316457D01*
X287605Y316422D01*
X287492Y316383D01*
X287380Y316341D01*
X287270Y316295D01*
X287162Y316245D01*
X287055Y316192D01*
X286950Y316135D01*
X286846Y316075D01*
X286745Y316011D01*
X286647Y315944D01*
X286550Y315874D01*
X286456Y315800D01*
X286364Y315724D01*
X286275Y315644D01*
X286188Y315562D01*
X286104Y315477D01*
X286023Y315389D01*
X285946Y315299D01*
X285871Y315206D01*
X285799Y315110D01*
X285730Y315012D01*
X285665Y314912D01*
X285603Y314810D01*
X285544Y314706D01*
X285489Y314600D01*
X285438Y314492D01*
X285390Y314383D01*
X285345Y314272D01*
X285305Y314160D01*
X285268Y314046D01*
X285235Y313931D01*
X285205Y313816D01*
X285180Y313699D01*
X285158Y313582D01*
X285141Y313463D01*
X285127Y313345D01*
X285117Y313226D01*
X285111Y313106D01*
X285109Y312987D01*
X285109Y309374D01*
X285111Y309255D01*
X285117Y309135D01*
X285127Y309016D01*
X285141Y308898D01*
X285158Y308779D01*
X285180Y308662D01*
X285205Y308545D01*
X285235Y308430D01*
X285268Y308315D01*
X285305Y308201D01*
X285345Y308089D01*
X285390Y307978D01*
X285438Y307869D01*
X285489Y307761D01*
X285544Y307655D01*
X285603Y307551D01*
X285665Y307449D01*
X285730Y307349D01*
X285799Y307251D01*
X285871Y307155D01*
X285946Y307062D01*
X286023Y306972D01*
X286104Y306884D01*
X286188Y306799D01*
X286275Y306717D01*
X286364Y306637D01*
X286456Y306561D01*
X286550Y306487D01*
X286647Y306417D01*
X286745Y306350D01*
X286846Y306286D01*
X286950Y306226D01*
X287055Y306169D01*
X287162Y306116D01*
X287270Y306066D01*
X287380Y306020D01*
X287492Y305978D01*
X287605Y305939D01*
X287719Y305904D01*
X287834Y305873D01*
X287951Y305845D01*
X288068Y305822D01*
X288185Y305802D01*
X288304Y305786D01*
X288423Y305774D01*
X288542Y305766D01*
X288661Y305762D01*
X288781Y305762D01*
X288900Y305766D01*
X289019Y305774D01*
X289138Y305786D01*
X289257Y305802D01*
X289374Y305822D01*
X289491Y305845D01*
X289608Y305873D01*
X289723Y305904D01*
X289837Y305939D01*
X289950Y305978D01*
X290062Y306020D01*
X290172Y306066D01*
X290280Y306116D01*
X290387Y306169D01*
X290492Y306226D01*
X290596Y306286D01*
X290697Y306350D01*
X290795Y306417D01*
X290892Y306487D01*
X290986Y306561D01*
X291078Y306637D01*
X291167Y306717D01*
X291254Y306799D01*
X291338Y306884D01*
X291419Y306972D01*
X291496Y307062D01*
X291571Y307155D01*
X291643Y307251D01*
X291712Y307349D01*
X291777Y307449D01*
X291839Y307551D01*
X291898Y307655D01*
X291953Y307761D01*
X292004Y307869D01*
X292052Y307978D01*
X292097Y308089D01*
X292137Y308201D01*
X292174Y308315D01*
X292207Y308430D01*
X292237Y308545D01*
X292262Y308662D01*
X292284Y308779D01*
X292301Y308898D01*
X292315Y309016D01*
X292325Y309135D01*
X292331Y309255D01*
X292333Y309374D01*
X278550Y308471D02*
X278550Y322018D01*
X278549Y308471D02*
X278547Y308370D01*
X278541Y308269D01*
X278532Y308168D01*
X278519Y308067D01*
X278502Y307967D01*
X278481Y307868D01*
X278457Y307770D01*
X278429Y307673D01*
X278397Y307576D01*
X278362Y307481D01*
X278323Y307388D01*
X278281Y307296D01*
X278235Y307205D01*
X278186Y307117D01*
X278134Y307030D01*
X278078Y306945D01*
X278020Y306862D01*
X277958Y306782D01*
X277893Y306704D01*
X277826Y306628D01*
X277756Y306555D01*
X277683Y306485D01*
X277607Y306418D01*
X277529Y306353D01*
X277449Y306291D01*
X277366Y306233D01*
X277281Y306177D01*
X277195Y306125D01*
X277106Y306076D01*
X277015Y306030D01*
X276923Y305988D01*
X276830Y305949D01*
X276735Y305914D01*
X276638Y305882D01*
X276541Y305854D01*
X276443Y305830D01*
X276344Y305809D01*
X276244Y305792D01*
X276143Y305779D01*
X276042Y305770D01*
X275941Y305764D01*
X275840Y305762D01*
X270213Y308471D02*
X270213Y322018D01*
X270213Y308471D02*
X270211Y308370D01*
X270205Y308269D01*
X270196Y308168D01*
X270183Y308067D01*
X270166Y307967D01*
X270145Y307868D01*
X270121Y307770D01*
X270093Y307673D01*
X270061Y307576D01*
X270026Y307481D01*
X269987Y307388D01*
X269945Y307296D01*
X269899Y307205D01*
X269850Y307117D01*
X269798Y307030D01*
X269742Y306945D01*
X269684Y306862D01*
X269622Y306782D01*
X269557Y306704D01*
X269490Y306628D01*
X269420Y306555D01*
X269347Y306485D01*
X269271Y306418D01*
X269193Y306353D01*
X269113Y306291D01*
X269030Y306233D01*
X268945Y306177D01*
X268859Y306125D01*
X268770Y306076D01*
X268679Y306030D01*
X268587Y305988D01*
X268494Y305949D01*
X268399Y305914D01*
X268302Y305882D01*
X268205Y305854D01*
X268107Y305830D01*
X268008Y305809D01*
X267908Y305792D01*
X267807Y305779D01*
X267706Y305770D01*
X267605Y305764D01*
X267504Y305762D01*
X259404Y305762D02*
X254888Y305762D01*
X259404Y305762D02*
X259505Y305764D01*
X259606Y305770D01*
X259707Y305779D01*
X259808Y305792D01*
X259908Y305809D01*
X260007Y305830D01*
X260105Y305854D01*
X260202Y305882D01*
X260299Y305914D01*
X260394Y305949D01*
X260487Y305988D01*
X260579Y306030D01*
X260670Y306076D01*
X260759Y306125D01*
X260845Y306177D01*
X260930Y306233D01*
X261013Y306291D01*
X261093Y306353D01*
X261171Y306418D01*
X261247Y306485D01*
X261320Y306555D01*
X261390Y306628D01*
X261457Y306704D01*
X261522Y306782D01*
X261584Y306862D01*
X261642Y306945D01*
X261698Y307030D01*
X261750Y307117D01*
X261799Y307205D01*
X261845Y307296D01*
X261887Y307388D01*
X261926Y307481D01*
X261961Y307576D01*
X261993Y307673D01*
X262021Y307770D01*
X262045Y307868D01*
X262066Y307967D01*
X262083Y308067D01*
X262096Y308168D01*
X262105Y308269D01*
X262111Y308370D01*
X262113Y308471D01*
X262113Y312987D01*
X262111Y313106D01*
X262105Y313226D01*
X262095Y313345D01*
X262081Y313463D01*
X262064Y313582D01*
X262042Y313699D01*
X262017Y313816D01*
X261987Y313931D01*
X261954Y314046D01*
X261917Y314160D01*
X261877Y314272D01*
X261832Y314383D01*
X261784Y314492D01*
X261733Y314600D01*
X261678Y314706D01*
X261619Y314810D01*
X261557Y314912D01*
X261492Y315012D01*
X261423Y315110D01*
X261351Y315206D01*
X261276Y315299D01*
X261199Y315389D01*
X261118Y315477D01*
X261034Y315562D01*
X260947Y315644D01*
X260858Y315724D01*
X260766Y315800D01*
X260672Y315874D01*
X260575Y315944D01*
X260477Y316011D01*
X260376Y316075D01*
X260272Y316135D01*
X260167Y316192D01*
X260060Y316245D01*
X259952Y316295D01*
X259842Y316341D01*
X259730Y316383D01*
X259617Y316422D01*
X259503Y316457D01*
X259388Y316488D01*
X259271Y316516D01*
X259154Y316539D01*
X259037Y316559D01*
X258918Y316575D01*
X258799Y316587D01*
X258680Y316595D01*
X258561Y316599D01*
X258441Y316599D01*
X258322Y316595D01*
X258203Y316587D01*
X258084Y316575D01*
X257965Y316559D01*
X257848Y316539D01*
X257731Y316516D01*
X257614Y316488D01*
X257499Y316457D01*
X257385Y316422D01*
X257272Y316383D01*
X257160Y316341D01*
X257050Y316295D01*
X256942Y316245D01*
X256835Y316192D01*
X256730Y316135D01*
X256626Y316075D01*
X256525Y316011D01*
X256427Y315944D01*
X256330Y315874D01*
X256236Y315800D01*
X256144Y315724D01*
X256055Y315644D01*
X255968Y315562D01*
X255884Y315477D01*
X255803Y315389D01*
X255726Y315299D01*
X255651Y315206D01*
X255579Y315110D01*
X255510Y315012D01*
X255445Y314912D01*
X255383Y314810D01*
X255324Y314706D01*
X255269Y314600D01*
X255218Y314492D01*
X255170Y314383D01*
X255125Y314272D01*
X255085Y314160D01*
X255048Y314046D01*
X255015Y313931D01*
X254985Y313816D01*
X254960Y313699D01*
X254938Y313582D01*
X254921Y313463D01*
X254907Y313345D01*
X254897Y313226D01*
X254891Y313106D01*
X254889Y312987D01*
X254888Y312987D02*
X254888Y311181D01*
X262113Y311181D01*
X247960Y305762D02*
X247960Y316599D01*
X242542Y316599D01*
X242542Y314793D01*
D11*
X147300Y140700D02*
X128300Y140700D01*
X128300Y255500D01*
X138300Y265500D01*
X147300Y265500D01*
X167300Y258500D02*
X167300Y147700D01*
X147300Y260500D02*
X147300Y265500D01*
X147300Y260500D02*
X147300Y258500D01*
X167300Y258500D01*
X147300Y145700D02*
X147300Y140700D01*
X147300Y145700D02*
X147300Y147700D01*
X167300Y147700D01*
X167300Y265500D02*
X177300Y265500D01*
X177300Y140700D01*
X167300Y140700D01*
X167300Y265500D01*
X147300Y260500D02*
X141500Y260500D01*
X133300Y252300D01*
X133300Y231500D01*
X136300Y228500D01*
X133300Y225500D01*
X133300Y145700D02*
X147300Y145700D01*
X133300Y205800D02*
X133300Y225500D01*
X133300Y205800D02*
X136000Y203100D01*
X133300Y200400D01*
X133300Y200100D02*
X133300Y180400D01*
X136000Y177700D01*
X133300Y175000D02*
X133300Y145700D01*
X133300Y175000D02*
X136000Y177700D01*
D12*
X141308Y82753D02*
X152992Y82753D01*
X152992Y85998D01*
X152990Y86111D01*
X152984Y86224D01*
X152974Y86337D01*
X152960Y86450D01*
X152943Y86562D01*
X152921Y86673D01*
X152896Y86783D01*
X152866Y86893D01*
X152833Y87001D01*
X152796Y87108D01*
X152756Y87214D01*
X152711Y87318D01*
X152663Y87421D01*
X152612Y87522D01*
X152557Y87621D01*
X152499Y87718D01*
X152437Y87813D01*
X152372Y87906D01*
X152304Y87996D01*
X152233Y88084D01*
X152158Y88170D01*
X152081Y88253D01*
X152001Y88333D01*
X151918Y88410D01*
X151832Y88485D01*
X151744Y88556D01*
X151654Y88624D01*
X151561Y88689D01*
X151466Y88751D01*
X151369Y88809D01*
X151270Y88864D01*
X151169Y88915D01*
X151066Y88963D01*
X150962Y89008D01*
X150856Y89048D01*
X150749Y89085D01*
X150641Y89118D01*
X150531Y89148D01*
X150421Y89173D01*
X150310Y89195D01*
X150198Y89212D01*
X150085Y89226D01*
X149972Y89236D01*
X149859Y89242D01*
X149746Y89244D01*
X149633Y89242D01*
X149520Y89236D01*
X149407Y89226D01*
X149294Y89212D01*
X149182Y89195D01*
X149071Y89173D01*
X148961Y89148D01*
X148851Y89118D01*
X148743Y89085D01*
X148636Y89048D01*
X148530Y89008D01*
X148426Y88963D01*
X148323Y88915D01*
X148222Y88864D01*
X148123Y88809D01*
X148026Y88751D01*
X147931Y88689D01*
X147838Y88624D01*
X147748Y88556D01*
X147660Y88485D01*
X147574Y88410D01*
X147491Y88333D01*
X147411Y88253D01*
X147334Y88170D01*
X147259Y88084D01*
X147188Y87996D01*
X147120Y87906D01*
X147055Y87813D01*
X146993Y87718D01*
X146935Y87621D01*
X146880Y87522D01*
X146829Y87421D01*
X146781Y87318D01*
X146736Y87214D01*
X146696Y87108D01*
X146659Y87001D01*
X146626Y86893D01*
X146596Y86783D01*
X146571Y86673D01*
X146549Y86562D01*
X146532Y86450D01*
X146518Y86337D01*
X146508Y86224D01*
X146502Y86111D01*
X146500Y85998D01*
X146501Y85998D02*
X146501Y82753D01*
X144554Y93632D02*
X149746Y93632D01*
X149859Y93634D01*
X149972Y93640D01*
X150085Y93650D01*
X150198Y93664D01*
X150310Y93681D01*
X150421Y93703D01*
X150531Y93728D01*
X150641Y93758D01*
X150749Y93791D01*
X150856Y93828D01*
X150962Y93868D01*
X151066Y93913D01*
X151169Y93961D01*
X151270Y94012D01*
X151369Y94067D01*
X151466Y94125D01*
X151561Y94187D01*
X151654Y94252D01*
X151744Y94320D01*
X151832Y94391D01*
X151918Y94466D01*
X152001Y94543D01*
X152081Y94623D01*
X152158Y94706D01*
X152233Y94792D01*
X152304Y94880D01*
X152372Y94970D01*
X152437Y95063D01*
X152499Y95158D01*
X152557Y95255D01*
X152612Y95354D01*
X152663Y95455D01*
X152711Y95558D01*
X152756Y95662D01*
X152796Y95768D01*
X152833Y95875D01*
X152866Y95983D01*
X152896Y96093D01*
X152921Y96203D01*
X152943Y96314D01*
X152960Y96426D01*
X152974Y96539D01*
X152984Y96652D01*
X152990Y96765D01*
X152992Y96878D01*
X152990Y96991D01*
X152984Y97104D01*
X152974Y97217D01*
X152960Y97330D01*
X152943Y97442D01*
X152921Y97553D01*
X152896Y97663D01*
X152866Y97773D01*
X152833Y97881D01*
X152796Y97988D01*
X152756Y98094D01*
X152711Y98198D01*
X152663Y98301D01*
X152612Y98402D01*
X152557Y98501D01*
X152499Y98598D01*
X152437Y98693D01*
X152372Y98786D01*
X152304Y98876D01*
X152233Y98964D01*
X152158Y99050D01*
X152081Y99133D01*
X152001Y99213D01*
X151918Y99290D01*
X151832Y99365D01*
X151744Y99436D01*
X151654Y99504D01*
X151561Y99569D01*
X151466Y99631D01*
X151369Y99689D01*
X151270Y99744D01*
X151169Y99795D01*
X151066Y99843D01*
X150962Y99888D01*
X150856Y99928D01*
X150749Y99965D01*
X150641Y99998D01*
X150531Y100028D01*
X150421Y100053D01*
X150310Y100075D01*
X150198Y100092D01*
X150085Y100106D01*
X149972Y100116D01*
X149859Y100122D01*
X149746Y100124D01*
X149746Y100123D02*
X144554Y100123D01*
X144554Y100124D02*
X144441Y100122D01*
X144328Y100116D01*
X144215Y100106D01*
X144102Y100092D01*
X143990Y100075D01*
X143879Y100053D01*
X143769Y100028D01*
X143659Y99998D01*
X143551Y99965D01*
X143444Y99928D01*
X143338Y99888D01*
X143234Y99843D01*
X143131Y99795D01*
X143030Y99744D01*
X142931Y99689D01*
X142834Y99631D01*
X142739Y99569D01*
X142646Y99504D01*
X142556Y99436D01*
X142468Y99365D01*
X142382Y99290D01*
X142299Y99213D01*
X142219Y99133D01*
X142142Y99050D01*
X142067Y98964D01*
X141996Y98876D01*
X141928Y98786D01*
X141863Y98693D01*
X141801Y98598D01*
X141743Y98501D01*
X141688Y98402D01*
X141637Y98301D01*
X141589Y98198D01*
X141544Y98094D01*
X141504Y97988D01*
X141467Y97881D01*
X141434Y97773D01*
X141404Y97663D01*
X141379Y97553D01*
X141357Y97442D01*
X141340Y97330D01*
X141326Y97217D01*
X141316Y97104D01*
X141310Y96991D01*
X141308Y96878D01*
X141310Y96765D01*
X141316Y96652D01*
X141326Y96539D01*
X141340Y96426D01*
X141357Y96314D01*
X141379Y96203D01*
X141404Y96093D01*
X141434Y95983D01*
X141467Y95875D01*
X141504Y95768D01*
X141544Y95662D01*
X141589Y95558D01*
X141637Y95455D01*
X141688Y95354D01*
X141743Y95255D01*
X141801Y95158D01*
X141863Y95063D01*
X141928Y94970D01*
X141996Y94880D01*
X142067Y94792D01*
X142142Y94706D01*
X142219Y94623D01*
X142299Y94543D01*
X142382Y94466D01*
X142468Y94391D01*
X142556Y94320D01*
X142646Y94252D01*
X142739Y94187D01*
X142834Y94125D01*
X142931Y94067D01*
X143030Y94012D01*
X143131Y93961D01*
X143234Y93913D01*
X143338Y93868D01*
X143444Y93828D01*
X143551Y93791D01*
X143659Y93758D01*
X143769Y93728D01*
X143879Y93703D01*
X143990Y93681D01*
X144102Y93664D01*
X144215Y93650D01*
X144328Y93640D01*
X144441Y93634D01*
X144554Y93632D01*
X152992Y104639D02*
X141308Y107235D01*
X149097Y109832D01*
X141308Y112428D01*
X152992Y115025D01*
X141308Y119944D02*
X141308Y125137D01*
X141308Y119944D02*
X152992Y119944D01*
X152992Y125137D01*
X147799Y123839D02*
X147799Y119944D01*
X152992Y129901D02*
X141308Y129901D01*
X152992Y129901D02*
X152992Y133146D01*
X152990Y133259D01*
X152984Y133372D01*
X152974Y133485D01*
X152960Y133598D01*
X152943Y133710D01*
X152921Y133821D01*
X152896Y133931D01*
X152866Y134041D01*
X152833Y134149D01*
X152796Y134256D01*
X152756Y134362D01*
X152711Y134466D01*
X152663Y134569D01*
X152612Y134670D01*
X152557Y134769D01*
X152499Y134866D01*
X152437Y134961D01*
X152372Y135054D01*
X152304Y135144D01*
X152233Y135232D01*
X152158Y135318D01*
X152081Y135401D01*
X152001Y135481D01*
X151918Y135558D01*
X151832Y135633D01*
X151744Y135704D01*
X151654Y135772D01*
X151561Y135837D01*
X151466Y135899D01*
X151369Y135957D01*
X151270Y136012D01*
X151169Y136063D01*
X151066Y136111D01*
X150962Y136156D01*
X150856Y136196D01*
X150749Y136233D01*
X150641Y136266D01*
X150531Y136296D01*
X150421Y136321D01*
X150310Y136343D01*
X150198Y136360D01*
X150085Y136374D01*
X149972Y136384D01*
X149859Y136390D01*
X149746Y136392D01*
X149633Y136390D01*
X149520Y136384D01*
X149407Y136374D01*
X149294Y136360D01*
X149182Y136343D01*
X149071Y136321D01*
X148961Y136296D01*
X148851Y136266D01*
X148743Y136233D01*
X148636Y136196D01*
X148530Y136156D01*
X148426Y136111D01*
X148323Y136063D01*
X148222Y136012D01*
X148123Y135957D01*
X148026Y135899D01*
X147931Y135837D01*
X147838Y135772D01*
X147748Y135704D01*
X147660Y135633D01*
X147574Y135558D01*
X147491Y135481D01*
X147411Y135401D01*
X147334Y135318D01*
X147259Y135232D01*
X147188Y135144D01*
X147120Y135054D01*
X147055Y134961D01*
X146993Y134866D01*
X146935Y134769D01*
X146880Y134670D01*
X146829Y134569D01*
X146781Y134466D01*
X146736Y134362D01*
X146696Y134256D01*
X146659Y134149D01*
X146626Y134041D01*
X146596Y133931D01*
X146571Y133821D01*
X146549Y133710D01*
X146532Y133598D01*
X146518Y133485D01*
X146508Y133372D01*
X146502Y133259D01*
X146500Y133146D01*
X146501Y133146D02*
X146501Y129901D01*
X146501Y133796D02*
X141308Y136392D01*
D11*
X263200Y166300D02*
X282200Y166300D01*
X282200Y51500D01*
X272200Y41500D01*
X263200Y41500D01*
X243200Y48500D02*
X243200Y159300D01*
X263200Y46500D02*
X263200Y41500D01*
X263200Y46500D02*
X263200Y48500D01*
X243200Y48500D01*
X263200Y161300D02*
X263200Y166300D01*
X263200Y161300D02*
X263200Y159300D01*
X243200Y159300D01*
X243200Y41500D02*
X233200Y41500D01*
X233200Y166300D01*
X243200Y166300D01*
X243200Y41500D01*
X263200Y46500D02*
X269000Y46500D01*
X277200Y54700D01*
X277200Y75500D01*
X274200Y78500D01*
X277200Y81500D01*
X277200Y161300D02*
X263200Y161300D01*
X277200Y101200D02*
X277200Y81500D01*
X277200Y101200D02*
X274500Y103900D01*
X277200Y106600D01*
X277200Y106900D02*
X277200Y126600D01*
X274500Y129300D01*
X277200Y132000D02*
X277200Y161300D01*
X277200Y132000D02*
X274500Y129300D01*
D12*
X290104Y52099D02*
X290005Y52097D01*
X289905Y52091D01*
X289806Y52082D01*
X289708Y52069D01*
X289610Y52052D01*
X289512Y52031D01*
X289416Y52006D01*
X289321Y51978D01*
X289227Y51946D01*
X289134Y51911D01*
X289042Y51872D01*
X288952Y51829D01*
X288864Y51784D01*
X288777Y51734D01*
X288693Y51682D01*
X288610Y51626D01*
X288530Y51568D01*
X288452Y51506D01*
X288377Y51441D01*
X288304Y51373D01*
X288234Y51303D01*
X288166Y51230D01*
X288101Y51155D01*
X288039Y51077D01*
X287981Y50997D01*
X287925Y50914D01*
X287873Y50830D01*
X287823Y50743D01*
X287778Y50655D01*
X287735Y50565D01*
X287696Y50473D01*
X287661Y50380D01*
X287629Y50286D01*
X287601Y50191D01*
X287576Y50095D01*
X287555Y49997D01*
X287538Y49899D01*
X287525Y49801D01*
X287516Y49702D01*
X287510Y49602D01*
X287508Y49503D01*
X287510Y49359D01*
X287516Y49214D01*
X287525Y49070D01*
X287538Y48927D01*
X287555Y48783D01*
X287576Y48640D01*
X287601Y48498D01*
X287629Y48357D01*
X287661Y48216D01*
X287697Y48076D01*
X287736Y47937D01*
X287779Y47799D01*
X287826Y47663D01*
X287876Y47527D01*
X287930Y47393D01*
X287987Y47261D01*
X288048Y47130D01*
X288112Y47001D01*
X288180Y46873D01*
X288250Y46747D01*
X288325Y46623D01*
X288402Y46502D01*
X288483Y46382D01*
X288566Y46264D01*
X288653Y46149D01*
X288743Y46036D01*
X288836Y45925D01*
X288931Y45817D01*
X289030Y45711D01*
X289131Y45608D01*
X296596Y45933D02*
X296695Y45935D01*
X296795Y45941D01*
X296894Y45950D01*
X296992Y45963D01*
X297090Y45980D01*
X297188Y46001D01*
X297284Y46026D01*
X297379Y46054D01*
X297473Y46086D01*
X297566Y46121D01*
X297658Y46160D01*
X297748Y46203D01*
X297836Y46248D01*
X297923Y46298D01*
X298007Y46350D01*
X298090Y46406D01*
X298170Y46464D01*
X298248Y46526D01*
X298323Y46591D01*
X298396Y46659D01*
X298466Y46729D01*
X298534Y46802D01*
X298599Y46877D01*
X298661Y46955D01*
X298719Y47035D01*
X298775Y47118D01*
X298827Y47202D01*
X298877Y47289D01*
X298922Y47377D01*
X298965Y47467D01*
X299004Y47559D01*
X299039Y47652D01*
X299071Y47746D01*
X299099Y47841D01*
X299124Y47938D01*
X299145Y48035D01*
X299162Y48133D01*
X299175Y48231D01*
X299184Y48330D01*
X299190Y48430D01*
X299192Y48529D01*
X299190Y48665D01*
X299184Y48801D01*
X299175Y48937D01*
X299162Y49073D01*
X299144Y49208D01*
X299124Y49342D01*
X299099Y49476D01*
X299071Y49610D01*
X299038Y49742D01*
X299003Y49873D01*
X298963Y50004D01*
X298920Y50133D01*
X298874Y50261D01*
X298823Y50387D01*
X298770Y50513D01*
X298712Y50636D01*
X298652Y50758D01*
X298588Y50878D01*
X298520Y50997D01*
X298450Y51113D01*
X298376Y51227D01*
X298299Y51340D01*
X298218Y51450D01*
X294324Y47231D02*
X294377Y47145D01*
X294434Y47061D01*
X294493Y46979D01*
X294556Y46899D01*
X294622Y46822D01*
X294690Y46747D01*
X294762Y46675D01*
X294836Y46606D01*
X294913Y46540D01*
X294992Y46477D01*
X295074Y46417D01*
X295158Y46360D01*
X295244Y46306D01*
X295332Y46256D01*
X295422Y46209D01*
X295513Y46165D01*
X295607Y46126D01*
X295701Y46089D01*
X295797Y46057D01*
X295895Y46028D01*
X295993Y46003D01*
X296092Y45982D01*
X296192Y45964D01*
X296292Y45951D01*
X296393Y45941D01*
X296495Y45935D01*
X296596Y45933D01*
X292376Y50801D02*
X292323Y50887D01*
X292266Y50971D01*
X292207Y51053D01*
X292144Y51133D01*
X292078Y51210D01*
X292010Y51285D01*
X291938Y51357D01*
X291864Y51426D01*
X291787Y51492D01*
X291708Y51555D01*
X291626Y51615D01*
X291542Y51672D01*
X291456Y51726D01*
X291368Y51776D01*
X291278Y51823D01*
X291187Y51867D01*
X291093Y51906D01*
X290999Y51943D01*
X290903Y51975D01*
X290805Y52004D01*
X290707Y52029D01*
X290608Y52050D01*
X290508Y52068D01*
X290408Y52081D01*
X290307Y52091D01*
X290205Y52097D01*
X290104Y52099D01*
X292376Y50801D02*
X294324Y47231D01*
X287508Y57061D02*
X287508Y62253D01*
X287508Y57061D02*
X299192Y57061D01*
X299192Y62253D01*
X293999Y60955D02*
X293999Y57061D01*
X299192Y66944D02*
X287508Y66944D01*
X287508Y73435D02*
X299192Y66944D01*
X299192Y73435D02*
X287508Y73435D01*
X287508Y82269D02*
X287510Y82368D01*
X287516Y82468D01*
X287525Y82567D01*
X287538Y82665D01*
X287555Y82763D01*
X287576Y82861D01*
X287601Y82957D01*
X287629Y83052D01*
X287661Y83146D01*
X287696Y83239D01*
X287735Y83331D01*
X287778Y83421D01*
X287823Y83509D01*
X287873Y83596D01*
X287925Y83680D01*
X287981Y83763D01*
X288039Y83843D01*
X288101Y83921D01*
X288166Y83996D01*
X288234Y84069D01*
X288304Y84139D01*
X288377Y84207D01*
X288452Y84272D01*
X288530Y84334D01*
X288610Y84392D01*
X288693Y84448D01*
X288777Y84500D01*
X288864Y84550D01*
X288952Y84595D01*
X289042Y84638D01*
X289134Y84677D01*
X289227Y84712D01*
X289321Y84744D01*
X289416Y84772D01*
X289512Y84797D01*
X289610Y84818D01*
X289708Y84835D01*
X289806Y84848D01*
X289905Y84857D01*
X290005Y84863D01*
X290104Y84865D01*
X287508Y82269D02*
X287510Y82125D01*
X287516Y81980D01*
X287525Y81836D01*
X287538Y81693D01*
X287555Y81549D01*
X287576Y81406D01*
X287601Y81264D01*
X287629Y81123D01*
X287661Y80982D01*
X287697Y80842D01*
X287736Y80703D01*
X287779Y80565D01*
X287826Y80429D01*
X287876Y80293D01*
X287930Y80159D01*
X287987Y80027D01*
X288048Y79896D01*
X288112Y79767D01*
X288180Y79639D01*
X288250Y79513D01*
X288325Y79389D01*
X288402Y79268D01*
X288483Y79148D01*
X288566Y79030D01*
X288653Y78915D01*
X288743Y78802D01*
X288836Y78691D01*
X288931Y78583D01*
X289030Y78477D01*
X289131Y78374D01*
X296596Y78699D02*
X296695Y78701D01*
X296795Y78707D01*
X296894Y78716D01*
X296992Y78729D01*
X297090Y78746D01*
X297188Y78767D01*
X297284Y78792D01*
X297379Y78820D01*
X297473Y78852D01*
X297566Y78887D01*
X297658Y78926D01*
X297748Y78969D01*
X297836Y79014D01*
X297923Y79064D01*
X298007Y79116D01*
X298090Y79172D01*
X298170Y79230D01*
X298248Y79292D01*
X298323Y79357D01*
X298396Y79425D01*
X298466Y79495D01*
X298534Y79568D01*
X298599Y79643D01*
X298661Y79721D01*
X298719Y79801D01*
X298775Y79884D01*
X298827Y79968D01*
X298877Y80055D01*
X298922Y80143D01*
X298965Y80233D01*
X299004Y80325D01*
X299039Y80418D01*
X299071Y80512D01*
X299099Y80607D01*
X299124Y80704D01*
X299145Y80801D01*
X299162Y80899D01*
X299175Y80997D01*
X299184Y81096D01*
X299190Y81196D01*
X299192Y81295D01*
X299190Y81431D01*
X299184Y81567D01*
X299175Y81703D01*
X299162Y81839D01*
X299144Y81974D01*
X299124Y82108D01*
X299099Y82242D01*
X299071Y82376D01*
X299038Y82508D01*
X299003Y82639D01*
X298963Y82770D01*
X298920Y82899D01*
X298874Y83027D01*
X298823Y83153D01*
X298770Y83279D01*
X298712Y83402D01*
X298652Y83524D01*
X298588Y83644D01*
X298520Y83763D01*
X298450Y83879D01*
X298376Y83993D01*
X298299Y84106D01*
X298218Y84216D01*
X294324Y79996D02*
X294377Y79910D01*
X294434Y79826D01*
X294493Y79744D01*
X294556Y79664D01*
X294622Y79587D01*
X294690Y79512D01*
X294762Y79440D01*
X294836Y79371D01*
X294913Y79305D01*
X294992Y79242D01*
X295074Y79182D01*
X295158Y79125D01*
X295244Y79071D01*
X295332Y79021D01*
X295422Y78974D01*
X295513Y78930D01*
X295607Y78891D01*
X295701Y78854D01*
X295797Y78822D01*
X295895Y78793D01*
X295993Y78768D01*
X296092Y78747D01*
X296192Y78729D01*
X296292Y78716D01*
X296393Y78706D01*
X296495Y78700D01*
X296596Y78698D01*
X292376Y83567D02*
X292323Y83653D01*
X292266Y83737D01*
X292207Y83819D01*
X292144Y83899D01*
X292078Y83976D01*
X292010Y84051D01*
X291938Y84123D01*
X291864Y84192D01*
X291787Y84258D01*
X291708Y84321D01*
X291626Y84381D01*
X291542Y84438D01*
X291456Y84492D01*
X291368Y84542D01*
X291278Y84589D01*
X291187Y84633D01*
X291093Y84672D01*
X290999Y84709D01*
X290903Y84741D01*
X290805Y84770D01*
X290707Y84795D01*
X290608Y84816D01*
X290508Y84834D01*
X290408Y84847D01*
X290307Y84857D01*
X290205Y84863D01*
X290104Y84865D01*
X292376Y83567D02*
X294324Y79997D01*
X287508Y89827D02*
X287508Y95019D01*
X287508Y89827D02*
X299192Y89827D01*
X299192Y95019D01*
X293999Y93721D02*
X293999Y89827D01*
X299192Y99784D02*
X287508Y99784D01*
X299192Y99784D02*
X299192Y103029D01*
X299190Y103142D01*
X299184Y103255D01*
X299174Y103368D01*
X299160Y103481D01*
X299143Y103593D01*
X299121Y103704D01*
X299096Y103814D01*
X299066Y103924D01*
X299033Y104032D01*
X298996Y104139D01*
X298956Y104245D01*
X298911Y104349D01*
X298863Y104452D01*
X298812Y104553D01*
X298757Y104652D01*
X298699Y104749D01*
X298637Y104844D01*
X298572Y104937D01*
X298504Y105027D01*
X298433Y105115D01*
X298358Y105201D01*
X298281Y105284D01*
X298201Y105364D01*
X298118Y105441D01*
X298032Y105516D01*
X297944Y105587D01*
X297854Y105655D01*
X297761Y105720D01*
X297666Y105782D01*
X297569Y105840D01*
X297470Y105895D01*
X297369Y105946D01*
X297266Y105994D01*
X297162Y106039D01*
X297056Y106079D01*
X296949Y106116D01*
X296841Y106149D01*
X296731Y106179D01*
X296621Y106204D01*
X296510Y106226D01*
X296398Y106243D01*
X296285Y106257D01*
X296172Y106267D01*
X296059Y106273D01*
X295946Y106275D01*
X295833Y106273D01*
X295720Y106267D01*
X295607Y106257D01*
X295494Y106243D01*
X295382Y106226D01*
X295271Y106204D01*
X295161Y106179D01*
X295051Y106149D01*
X294943Y106116D01*
X294836Y106079D01*
X294730Y106039D01*
X294626Y105994D01*
X294523Y105946D01*
X294422Y105895D01*
X294323Y105840D01*
X294226Y105782D01*
X294131Y105720D01*
X294038Y105655D01*
X293948Y105587D01*
X293860Y105516D01*
X293774Y105441D01*
X293691Y105364D01*
X293611Y105284D01*
X293534Y105201D01*
X293459Y105115D01*
X293388Y105027D01*
X293320Y104937D01*
X293255Y104844D01*
X293193Y104749D01*
X293135Y104652D01*
X293080Y104553D01*
X293029Y104452D01*
X292981Y104349D01*
X292936Y104245D01*
X292896Y104139D01*
X292859Y104032D01*
X292826Y103924D01*
X292796Y103814D01*
X292771Y103704D01*
X292749Y103593D01*
X292732Y103481D01*
X292718Y103368D01*
X292708Y103255D01*
X292702Y103142D01*
X292700Y103029D01*
X292701Y103029D02*
X292701Y99784D01*
X292701Y103678D02*
X287508Y106275D01*
X292052Y111253D02*
X292052Y119042D01*
X287508Y124588D02*
X299192Y124588D01*
X292701Y128482D01*
X299192Y132377D01*
X287508Y132377D01*
X290754Y137810D02*
X295946Y137810D01*
X295946Y137809D02*
X296059Y137811D01*
X296172Y137817D01*
X296285Y137827D01*
X296398Y137841D01*
X296510Y137858D01*
X296621Y137880D01*
X296731Y137905D01*
X296841Y137935D01*
X296949Y137968D01*
X297056Y138005D01*
X297162Y138045D01*
X297266Y138090D01*
X297369Y138138D01*
X297470Y138189D01*
X297569Y138244D01*
X297666Y138302D01*
X297761Y138364D01*
X297854Y138429D01*
X297944Y138497D01*
X298032Y138568D01*
X298118Y138643D01*
X298201Y138720D01*
X298281Y138800D01*
X298358Y138883D01*
X298433Y138969D01*
X298504Y139057D01*
X298572Y139147D01*
X298637Y139240D01*
X298699Y139335D01*
X298757Y139432D01*
X298812Y139531D01*
X298863Y139632D01*
X298911Y139735D01*
X298956Y139839D01*
X298996Y139945D01*
X299033Y140052D01*
X299066Y140160D01*
X299096Y140270D01*
X299121Y140380D01*
X299143Y140491D01*
X299160Y140603D01*
X299174Y140716D01*
X299184Y140829D01*
X299190Y140942D01*
X299192Y141055D01*
X299190Y141168D01*
X299184Y141281D01*
X299174Y141394D01*
X299160Y141507D01*
X299143Y141619D01*
X299121Y141730D01*
X299096Y141840D01*
X299066Y141950D01*
X299033Y142058D01*
X298996Y142165D01*
X298956Y142271D01*
X298911Y142375D01*
X298863Y142478D01*
X298812Y142579D01*
X298757Y142678D01*
X298699Y142775D01*
X298637Y142870D01*
X298572Y142963D01*
X298504Y143053D01*
X298433Y143141D01*
X298358Y143227D01*
X298281Y143310D01*
X298201Y143390D01*
X298118Y143467D01*
X298032Y143542D01*
X297944Y143613D01*
X297854Y143681D01*
X297761Y143746D01*
X297666Y143808D01*
X297569Y143866D01*
X297470Y143921D01*
X297369Y143972D01*
X297266Y144020D01*
X297162Y144065D01*
X297056Y144105D01*
X296949Y144142D01*
X296841Y144175D01*
X296731Y144205D01*
X296621Y144230D01*
X296510Y144252D01*
X296398Y144269D01*
X296285Y144283D01*
X296172Y144293D01*
X296059Y144299D01*
X295946Y144301D01*
X290754Y144301D01*
X290641Y144299D01*
X290528Y144293D01*
X290415Y144283D01*
X290302Y144269D01*
X290190Y144252D01*
X290079Y144230D01*
X289969Y144205D01*
X289859Y144175D01*
X289751Y144142D01*
X289644Y144105D01*
X289538Y144065D01*
X289434Y144020D01*
X289331Y143972D01*
X289230Y143921D01*
X289131Y143866D01*
X289034Y143808D01*
X288939Y143746D01*
X288846Y143681D01*
X288756Y143613D01*
X288668Y143542D01*
X288582Y143467D01*
X288499Y143390D01*
X288419Y143310D01*
X288342Y143227D01*
X288267Y143141D01*
X288196Y143053D01*
X288128Y142963D01*
X288063Y142870D01*
X288001Y142775D01*
X287943Y142678D01*
X287888Y142579D01*
X287837Y142478D01*
X287789Y142375D01*
X287744Y142271D01*
X287704Y142165D01*
X287667Y142058D01*
X287634Y141950D01*
X287604Y141840D01*
X287579Y141730D01*
X287557Y141619D01*
X287540Y141507D01*
X287526Y141394D01*
X287516Y141281D01*
X287510Y141168D01*
X287508Y141055D01*
X287510Y140942D01*
X287516Y140829D01*
X287526Y140716D01*
X287540Y140603D01*
X287557Y140491D01*
X287579Y140380D01*
X287604Y140270D01*
X287634Y140160D01*
X287667Y140052D01*
X287704Y139945D01*
X287744Y139839D01*
X287789Y139735D01*
X287837Y139632D01*
X287888Y139531D01*
X287943Y139432D01*
X288001Y139335D01*
X288063Y139240D01*
X288128Y139147D01*
X288196Y139057D01*
X288267Y138969D01*
X288342Y138883D01*
X288419Y138800D01*
X288499Y138720D01*
X288582Y138643D01*
X288668Y138568D01*
X288756Y138497D01*
X288846Y138429D01*
X288939Y138364D01*
X289034Y138302D01*
X289131Y138244D01*
X289230Y138189D01*
X289331Y138138D01*
X289434Y138090D01*
X289538Y138045D01*
X289644Y138005D01*
X289751Y137968D01*
X289859Y137935D01*
X289969Y137905D01*
X290079Y137880D01*
X290190Y137858D01*
X290302Y137841D01*
X290415Y137827D01*
X290528Y137817D01*
X290641Y137811D01*
X290754Y137809D01*
X287508Y151723D02*
X299192Y151723D01*
X299192Y148478D02*
X299192Y154969D01*
X295946Y159146D02*
X290754Y159146D01*
X295946Y159145D02*
X296059Y159147D01*
X296172Y159153D01*
X296285Y159163D01*
X296398Y159177D01*
X296510Y159194D01*
X296621Y159216D01*
X296731Y159241D01*
X296841Y159271D01*
X296949Y159304D01*
X297056Y159341D01*
X297162Y159381D01*
X297266Y159426D01*
X297369Y159474D01*
X297470Y159525D01*
X297569Y159580D01*
X297666Y159638D01*
X297761Y159700D01*
X297854Y159765D01*
X297944Y159833D01*
X298032Y159904D01*
X298118Y159979D01*
X298201Y160056D01*
X298281Y160136D01*
X298358Y160219D01*
X298433Y160305D01*
X298504Y160393D01*
X298572Y160483D01*
X298637Y160576D01*
X298699Y160671D01*
X298757Y160768D01*
X298812Y160867D01*
X298863Y160968D01*
X298911Y161071D01*
X298956Y161175D01*
X298996Y161281D01*
X299033Y161388D01*
X299066Y161496D01*
X299096Y161606D01*
X299121Y161716D01*
X299143Y161827D01*
X299160Y161939D01*
X299174Y162052D01*
X299184Y162165D01*
X299190Y162278D01*
X299192Y162391D01*
X299190Y162504D01*
X299184Y162617D01*
X299174Y162730D01*
X299160Y162843D01*
X299143Y162955D01*
X299121Y163066D01*
X299096Y163176D01*
X299066Y163286D01*
X299033Y163394D01*
X298996Y163501D01*
X298956Y163607D01*
X298911Y163711D01*
X298863Y163814D01*
X298812Y163915D01*
X298757Y164014D01*
X298699Y164111D01*
X298637Y164206D01*
X298572Y164299D01*
X298504Y164389D01*
X298433Y164477D01*
X298358Y164563D01*
X298281Y164646D01*
X298201Y164726D01*
X298118Y164803D01*
X298032Y164878D01*
X297944Y164949D01*
X297854Y165017D01*
X297761Y165082D01*
X297666Y165144D01*
X297569Y165202D01*
X297470Y165257D01*
X297369Y165308D01*
X297266Y165356D01*
X297162Y165401D01*
X297056Y165441D01*
X296949Y165478D01*
X296841Y165511D01*
X296731Y165541D01*
X296621Y165566D01*
X296510Y165588D01*
X296398Y165605D01*
X296285Y165619D01*
X296172Y165629D01*
X296059Y165635D01*
X295946Y165637D01*
X290754Y165637D01*
X290641Y165635D01*
X290528Y165629D01*
X290415Y165619D01*
X290302Y165605D01*
X290190Y165588D01*
X290079Y165566D01*
X289969Y165541D01*
X289859Y165511D01*
X289751Y165478D01*
X289644Y165441D01*
X289538Y165401D01*
X289434Y165356D01*
X289331Y165308D01*
X289230Y165257D01*
X289131Y165202D01*
X289034Y165144D01*
X288939Y165082D01*
X288846Y165017D01*
X288756Y164949D01*
X288668Y164878D01*
X288582Y164803D01*
X288499Y164726D01*
X288419Y164646D01*
X288342Y164563D01*
X288267Y164477D01*
X288196Y164389D01*
X288128Y164299D01*
X288063Y164206D01*
X288001Y164111D01*
X287943Y164014D01*
X287888Y163915D01*
X287837Y163814D01*
X287789Y163711D01*
X287744Y163607D01*
X287704Y163501D01*
X287667Y163394D01*
X287634Y163286D01*
X287604Y163176D01*
X287579Y163066D01*
X287557Y162955D01*
X287540Y162843D01*
X287526Y162730D01*
X287516Y162617D01*
X287510Y162504D01*
X287508Y162391D01*
X287510Y162278D01*
X287516Y162165D01*
X287526Y162052D01*
X287540Y161939D01*
X287557Y161827D01*
X287579Y161716D01*
X287604Y161606D01*
X287634Y161496D01*
X287667Y161388D01*
X287704Y161281D01*
X287744Y161175D01*
X287789Y161071D01*
X287837Y160968D01*
X287888Y160867D01*
X287943Y160768D01*
X288001Y160671D01*
X288063Y160576D01*
X288128Y160483D01*
X288196Y160393D01*
X288267Y160305D01*
X288342Y160219D01*
X288419Y160136D01*
X288499Y160056D01*
X288582Y159979D01*
X288668Y159904D01*
X288756Y159833D01*
X288846Y159765D01*
X288939Y159700D01*
X289034Y159638D01*
X289131Y159580D01*
X289230Y159525D01*
X289331Y159474D01*
X289434Y159426D01*
X289538Y159381D01*
X289644Y159341D01*
X289751Y159304D01*
X289859Y159271D01*
X289969Y159241D01*
X290079Y159216D01*
X290190Y159194D01*
X290302Y159177D01*
X290415Y159163D01*
X290528Y159153D01*
X290641Y159147D01*
X290754Y159145D01*
X287508Y171030D02*
X299192Y171030D01*
X299192Y174276D01*
X299190Y174389D01*
X299184Y174502D01*
X299174Y174615D01*
X299160Y174728D01*
X299143Y174840D01*
X299121Y174951D01*
X299096Y175061D01*
X299066Y175171D01*
X299033Y175279D01*
X298996Y175386D01*
X298956Y175492D01*
X298911Y175596D01*
X298863Y175699D01*
X298812Y175800D01*
X298757Y175899D01*
X298699Y175996D01*
X298637Y176091D01*
X298572Y176184D01*
X298504Y176274D01*
X298433Y176362D01*
X298358Y176448D01*
X298281Y176531D01*
X298201Y176611D01*
X298118Y176688D01*
X298032Y176763D01*
X297944Y176834D01*
X297854Y176902D01*
X297761Y176967D01*
X297666Y177029D01*
X297569Y177087D01*
X297470Y177142D01*
X297369Y177193D01*
X297266Y177241D01*
X297162Y177286D01*
X297056Y177326D01*
X296949Y177363D01*
X296841Y177396D01*
X296731Y177426D01*
X296621Y177451D01*
X296510Y177473D01*
X296398Y177490D01*
X296285Y177504D01*
X296172Y177514D01*
X296059Y177520D01*
X295946Y177522D01*
X295833Y177520D01*
X295720Y177514D01*
X295607Y177504D01*
X295494Y177490D01*
X295382Y177473D01*
X295271Y177451D01*
X295161Y177426D01*
X295051Y177396D01*
X294943Y177363D01*
X294836Y177326D01*
X294730Y177286D01*
X294626Y177241D01*
X294523Y177193D01*
X294422Y177142D01*
X294323Y177087D01*
X294226Y177029D01*
X294131Y176967D01*
X294038Y176902D01*
X293948Y176834D01*
X293860Y176763D01*
X293774Y176688D01*
X293691Y176611D01*
X293611Y176531D01*
X293534Y176448D01*
X293459Y176362D01*
X293388Y176274D01*
X293320Y176184D01*
X293255Y176091D01*
X293193Y175996D01*
X293135Y175899D01*
X293080Y175800D01*
X293029Y175699D01*
X292981Y175596D01*
X292936Y175492D01*
X292896Y175386D01*
X292859Y175279D01*
X292826Y175171D01*
X292796Y175061D01*
X292771Y174951D01*
X292749Y174840D01*
X292732Y174728D01*
X292718Y174615D01*
X292708Y174502D01*
X292702Y174389D01*
X292700Y174276D01*
X292701Y174276D02*
X292701Y171030D01*
X292701Y174925D02*
X287508Y177522D01*
D11*
X282700Y302300D02*
X263700Y302300D01*
X282700Y302300D02*
X282700Y187500D01*
X272700Y177500D01*
X263700Y177500D01*
X243700Y184500D02*
X243700Y295300D01*
X263700Y182500D02*
X263700Y177500D01*
X263700Y182500D02*
X263700Y184500D01*
X243700Y184500D01*
X263700Y297300D02*
X263700Y302300D01*
X263700Y297300D02*
X263700Y295300D01*
X243700Y295300D01*
X243700Y177500D02*
X233700Y177500D01*
X233700Y302300D01*
X243700Y302300D01*
X243700Y177500D01*
X263700Y182500D02*
X269500Y182500D01*
X277700Y190700D01*
X277700Y211500D01*
X274700Y214500D01*
X277700Y217500D01*
X277700Y297300D02*
X263700Y297300D01*
X277700Y237200D02*
X277700Y217500D01*
X277700Y237200D02*
X275000Y239900D01*
X277700Y242600D01*
X277700Y242900D02*
X277700Y262600D01*
X275000Y265300D01*
X277700Y268000D02*
X277700Y297300D01*
X277700Y268000D02*
X275000Y265300D01*
M02*
