G04 EAGLE Gerber RS-274X export*
G75*
%MOMM*%
%FSLAX34Y34*%
%LPD*%
%INBottom Copper*%
%IPPOS*%
%AMOC8*
5,1,8,0,0,1.08239X$1,22.5*%
G01*
%ADD10R,1.100000X1.000000*%
%ADD11P,1.649562X8X202.500000*%
%ADD12C,1.308000*%
%ADD13P,1.649562X8X22.500000*%
%ADD14C,0.152400*%
%ADD15C,0.756400*%

G36*
X310844Y10930D02*
X310844Y10930D01*
X310890Y10928D01*
X310965Y10950D01*
X311042Y10962D01*
X311082Y10984D01*
X311126Y10997D01*
X311190Y11041D01*
X311259Y11078D01*
X311291Y11111D01*
X311328Y11137D01*
X311375Y11200D01*
X311428Y11256D01*
X311448Y11298D01*
X311475Y11334D01*
X311499Y11408D01*
X311532Y11479D01*
X311537Y11525D01*
X311551Y11568D01*
X311550Y11646D01*
X311559Y11723D01*
X311549Y11768D01*
X311549Y11814D01*
X311511Y11946D01*
X311507Y11964D01*
X311504Y11968D01*
X311502Y11975D01*
X309839Y15990D01*
X309839Y24010D01*
X312909Y31420D01*
X318580Y37091D01*
X325990Y40161D01*
X334010Y40161D01*
X338025Y38498D01*
X338069Y38487D01*
X338111Y38468D01*
X338188Y38459D01*
X338264Y38442D01*
X338310Y38446D01*
X338355Y38441D01*
X338432Y38457D01*
X338509Y38465D01*
X338551Y38483D01*
X338596Y38493D01*
X338663Y38533D01*
X338734Y38565D01*
X338768Y38596D01*
X338807Y38619D01*
X338858Y38678D01*
X338915Y38731D01*
X338937Y38771D01*
X338967Y38806D01*
X338996Y38879D01*
X339033Y38947D01*
X339042Y38992D01*
X339059Y39034D01*
X339074Y39170D01*
X339077Y39189D01*
X339076Y39194D01*
X339077Y39201D01*
X339077Y299547D01*
X339062Y299643D01*
X339052Y299740D01*
X339042Y299764D01*
X339038Y299790D01*
X338992Y299876D01*
X338952Y299965D01*
X338935Y299984D01*
X338922Y300007D01*
X338852Y300074D01*
X338786Y300146D01*
X338763Y300159D01*
X338744Y300177D01*
X338656Y300218D01*
X338570Y300265D01*
X338545Y300269D01*
X338521Y300280D01*
X338424Y300291D01*
X338328Y300308D01*
X338302Y300304D01*
X338277Y300307D01*
X338181Y300287D01*
X338085Y300272D01*
X338062Y300261D01*
X338036Y300255D01*
X337953Y300205D01*
X337866Y300161D01*
X337847Y300142D01*
X337825Y300129D01*
X337762Y300055D01*
X337694Y299985D01*
X337678Y299957D01*
X337665Y299942D01*
X337653Y299911D01*
X337613Y299838D01*
X337091Y298580D01*
X331420Y292909D01*
X324010Y289839D01*
X315990Y289839D01*
X308580Y292909D01*
X302909Y298580D01*
X299839Y305990D01*
X299839Y314010D01*
X302921Y321449D01*
X302926Y321471D01*
X302936Y321490D01*
X302954Y321590D01*
X302977Y321689D01*
X302975Y321711D01*
X302979Y321732D01*
X302963Y321833D01*
X302954Y321934D01*
X302945Y321954D01*
X302941Y321976D01*
X302895Y322066D01*
X302854Y322158D01*
X302839Y322175D01*
X302829Y322194D01*
X302756Y322265D01*
X302687Y322340D01*
X302668Y322350D01*
X302652Y322365D01*
X302561Y322409D01*
X302472Y322458D01*
X302450Y322462D01*
X302430Y322472D01*
X302330Y322484D01*
X302230Y322502D01*
X302208Y322499D01*
X302186Y322501D01*
X302020Y322476D01*
X299644Y321839D01*
X292756Y321839D01*
X286102Y323622D01*
X280137Y327066D01*
X275266Y331937D01*
X271822Y337902D01*
X270039Y344556D01*
X270039Y351444D01*
X271822Y358098D01*
X275266Y364063D01*
X280137Y368934D01*
X286102Y372378D01*
X292756Y374161D01*
X299644Y374161D01*
X306298Y372378D01*
X312263Y368934D01*
X317134Y364063D01*
X320578Y358098D01*
X322361Y351444D01*
X322361Y344556D01*
X320578Y337902D01*
X317134Y331937D01*
X316657Y331460D01*
X316615Y331402D01*
X316566Y331350D01*
X316544Y331303D01*
X316514Y331261D01*
X316492Y331192D01*
X316462Y331127D01*
X316457Y331075D01*
X316441Y331025D01*
X316443Y330954D01*
X316435Y330883D01*
X316446Y330832D01*
X316448Y330780D01*
X316472Y330712D01*
X316487Y330642D01*
X316514Y330597D01*
X316532Y330549D01*
X316577Y330493D01*
X316614Y330431D01*
X316653Y330397D01*
X316686Y330357D01*
X316746Y330318D01*
X316801Y330271D01*
X316849Y330252D01*
X316893Y330224D01*
X316962Y330206D01*
X317029Y330179D01*
X317100Y330171D01*
X317131Y330163D01*
X317154Y330165D01*
X317195Y330161D01*
X324010Y330161D01*
X331420Y327091D01*
X337091Y321420D01*
X337613Y320162D01*
X337664Y320079D01*
X337710Y319993D01*
X337729Y319975D01*
X337742Y319953D01*
X337817Y319890D01*
X337888Y319823D01*
X337912Y319812D01*
X337932Y319796D01*
X338023Y319761D01*
X338111Y319720D01*
X338137Y319717D01*
X338161Y319708D01*
X338259Y319703D01*
X338355Y319693D01*
X338381Y319698D01*
X338407Y319697D01*
X338501Y319724D01*
X338596Y319745D01*
X338618Y319758D01*
X338643Y319766D01*
X338723Y319821D01*
X338807Y319871D01*
X338824Y319891D01*
X338845Y319906D01*
X338904Y319984D01*
X338967Y320058D01*
X338977Y320082D01*
X338992Y320103D01*
X339022Y320196D01*
X339059Y320286D01*
X339062Y320319D01*
X339068Y320337D01*
X339068Y320370D01*
X339077Y320453D01*
X339077Y410799D01*
X339070Y410844D01*
X339072Y410890D01*
X339050Y410965D01*
X339038Y411042D01*
X339016Y411082D01*
X339003Y411126D01*
X338959Y411190D01*
X338922Y411259D01*
X338889Y411291D01*
X338863Y411328D01*
X338800Y411375D01*
X338744Y411428D01*
X338702Y411448D01*
X338666Y411475D01*
X338592Y411499D01*
X338521Y411532D01*
X338475Y411537D01*
X338432Y411551D01*
X338354Y411550D01*
X338277Y411559D01*
X338232Y411549D01*
X338186Y411549D01*
X338054Y411511D01*
X338036Y411507D01*
X338032Y411504D01*
X338025Y411502D01*
X334010Y409839D01*
X325990Y409839D01*
X318580Y412909D01*
X312909Y418580D01*
X309839Y425990D01*
X309839Y434010D01*
X311502Y438025D01*
X311513Y438069D01*
X311532Y438111D01*
X311541Y438188D01*
X311558Y438264D01*
X311554Y438310D01*
X311559Y438355D01*
X311543Y438432D01*
X311535Y438509D01*
X311517Y438551D01*
X311507Y438596D01*
X311467Y438663D01*
X311435Y438734D01*
X311404Y438768D01*
X311381Y438807D01*
X311322Y438858D01*
X311269Y438915D01*
X311229Y438937D01*
X311194Y438967D01*
X311121Y438996D01*
X311053Y439033D01*
X311008Y439042D01*
X310966Y439059D01*
X310830Y439074D01*
X310811Y439077D01*
X310806Y439076D01*
X310799Y439077D01*
X39201Y439077D01*
X39156Y439070D01*
X39110Y439072D01*
X39035Y439050D01*
X38958Y439038D01*
X38918Y439016D01*
X38874Y439003D01*
X38810Y438959D01*
X38741Y438922D01*
X38709Y438889D01*
X38672Y438863D01*
X38625Y438800D01*
X38572Y438744D01*
X38552Y438702D01*
X38525Y438666D01*
X38501Y438592D01*
X38468Y438521D01*
X38463Y438475D01*
X38449Y438432D01*
X38450Y438354D01*
X38441Y438277D01*
X38451Y438232D01*
X38451Y438186D01*
X38489Y438054D01*
X38493Y438036D01*
X38496Y438032D01*
X38498Y438025D01*
X40161Y434010D01*
X40161Y425990D01*
X37091Y418580D01*
X31420Y412909D01*
X24010Y409839D01*
X15990Y409839D01*
X11975Y411502D01*
X11931Y411513D01*
X11889Y411532D01*
X11812Y411541D01*
X11736Y411558D01*
X11690Y411554D01*
X11645Y411559D01*
X11568Y411543D01*
X11491Y411535D01*
X11449Y411517D01*
X11404Y411507D01*
X11337Y411467D01*
X11266Y411435D01*
X11232Y411404D01*
X11193Y411381D01*
X11142Y411322D01*
X11085Y411269D01*
X11063Y411229D01*
X11033Y411194D01*
X11004Y411121D01*
X10967Y411053D01*
X10958Y411008D01*
X10941Y410966D01*
X10926Y410830D01*
X10923Y410811D01*
X10924Y410806D01*
X10923Y410799D01*
X10923Y39201D01*
X10930Y39156D01*
X10928Y39110D01*
X10950Y39035D01*
X10962Y38958D01*
X10984Y38918D01*
X10997Y38874D01*
X11041Y38810D01*
X11078Y38741D01*
X11111Y38709D01*
X11137Y38672D01*
X11200Y38625D01*
X11256Y38572D01*
X11298Y38552D01*
X11334Y38525D01*
X11408Y38501D01*
X11479Y38468D01*
X11525Y38463D01*
X11568Y38449D01*
X11646Y38450D01*
X11723Y38441D01*
X11768Y38451D01*
X11814Y38451D01*
X11946Y38489D01*
X11964Y38493D01*
X11968Y38496D01*
X11975Y38498D01*
X15990Y40161D01*
X24010Y40161D01*
X31420Y37091D01*
X37091Y31420D01*
X40161Y24010D01*
X40161Y15990D01*
X38498Y11975D01*
X38487Y11931D01*
X38468Y11889D01*
X38459Y11812D01*
X38442Y11736D01*
X38446Y11690D01*
X38441Y11645D01*
X38457Y11568D01*
X38465Y11491D01*
X38483Y11449D01*
X38493Y11404D01*
X38533Y11337D01*
X38565Y11266D01*
X38596Y11232D01*
X38619Y11193D01*
X38678Y11142D01*
X38731Y11085D01*
X38771Y11063D01*
X38806Y11033D01*
X38879Y11004D01*
X38947Y10967D01*
X38992Y10958D01*
X39034Y10941D01*
X39170Y10926D01*
X39189Y10923D01*
X39194Y10924D01*
X39201Y10923D01*
X310799Y10923D01*
X310844Y10930D01*
G37*
%LPC*%
G36*
X88969Y26669D02*
X88969Y26669D01*
X71124Y44514D01*
X71107Y44526D01*
X71095Y44542D01*
X71008Y44598D01*
X70924Y44658D01*
X70905Y44664D01*
X70888Y44675D01*
X70788Y44700D01*
X70689Y44730D01*
X70669Y44730D01*
X70650Y44735D01*
X70547Y44727D01*
X70443Y44724D01*
X70424Y44717D01*
X70404Y44716D01*
X70309Y44675D01*
X70212Y44640D01*
X70196Y44627D01*
X70178Y44619D01*
X70047Y44514D01*
X64488Y38955D01*
X56912Y38955D01*
X51555Y44312D01*
X51555Y51888D01*
X56912Y57245D01*
X64488Y57245D01*
X64807Y56926D01*
X64823Y56914D01*
X64836Y56898D01*
X64923Y56842D01*
X65007Y56782D01*
X65026Y56776D01*
X65043Y56765D01*
X65143Y56740D01*
X65242Y56710D01*
X65262Y56710D01*
X65281Y56705D01*
X65384Y56713D01*
X65488Y56716D01*
X65507Y56723D01*
X65526Y56724D01*
X65621Y56765D01*
X65719Y56800D01*
X65734Y56813D01*
X65753Y56821D01*
X65884Y56926D01*
X69118Y60160D01*
X69171Y60234D01*
X69231Y60304D01*
X69243Y60334D01*
X69262Y60360D01*
X69289Y60447D01*
X69323Y60532D01*
X69327Y60573D01*
X69334Y60595D01*
X69333Y60627D01*
X69341Y60699D01*
X69341Y65934D01*
X69330Y66005D01*
X69328Y66076D01*
X69310Y66125D01*
X69302Y66177D01*
X69268Y66240D01*
X69243Y66307D01*
X69211Y66348D01*
X69186Y66394D01*
X69134Y66444D01*
X69090Y66500D01*
X69046Y66528D01*
X69008Y66564D01*
X68943Y66594D01*
X68883Y66633D01*
X68832Y66645D01*
X68785Y66667D01*
X68714Y66675D01*
X68644Y66693D01*
X68592Y66689D01*
X68541Y66694D01*
X68470Y66679D01*
X68399Y66673D01*
X68351Y66653D01*
X68300Y66642D01*
X68239Y66605D01*
X68173Y66577D01*
X68117Y66532D01*
X68089Y66516D01*
X68074Y66498D01*
X68042Y66472D01*
X64909Y63339D01*
X62223Y63339D01*
X62223Y72738D01*
X62220Y72758D01*
X62222Y72777D01*
X62200Y72879D01*
X62183Y72981D01*
X62174Y72998D01*
X62170Y73018D01*
X62117Y73107D01*
X62068Y73198D01*
X62054Y73212D01*
X62044Y73229D01*
X61965Y73296D01*
X61890Y73367D01*
X61872Y73376D01*
X61857Y73389D01*
X61761Y73427D01*
X61667Y73471D01*
X61647Y73473D01*
X61629Y73481D01*
X61462Y73499D01*
X60699Y73499D01*
X60699Y73501D01*
X61462Y73501D01*
X61482Y73504D01*
X61501Y73502D01*
X61603Y73524D01*
X61705Y73541D01*
X61722Y73550D01*
X61742Y73554D01*
X61831Y73607D01*
X61922Y73656D01*
X61936Y73670D01*
X61953Y73680D01*
X62020Y73759D01*
X62091Y73834D01*
X62100Y73852D01*
X62113Y73867D01*
X62152Y73963D01*
X62195Y74057D01*
X62197Y74077D01*
X62205Y74095D01*
X62223Y74262D01*
X62223Y81538D01*
X62204Y81655D01*
X62186Y81773D01*
X62184Y81777D01*
X62183Y81781D01*
X62128Y81887D01*
X62073Y81992D01*
X62070Y81995D01*
X62068Y81998D01*
X61982Y82080D01*
X61897Y82163D01*
X61893Y82165D01*
X61890Y82168D01*
X61782Y82218D01*
X61675Y82269D01*
X61671Y82270D01*
X61667Y82271D01*
X61549Y82284D01*
X61431Y82299D01*
X61426Y82298D01*
X61422Y82298D01*
X61409Y82296D01*
X61265Y82274D01*
X59741Y81865D01*
X59701Y81847D01*
X59658Y81838D01*
X59590Y81797D01*
X59517Y81764D01*
X59485Y81734D01*
X59447Y81712D01*
X59395Y81651D01*
X59337Y81597D01*
X59316Y81558D01*
X59287Y81525D01*
X59257Y81451D01*
X59219Y81380D01*
X59212Y81337D01*
X59195Y81297D01*
X59179Y81152D01*
X59177Y81138D01*
X59177Y81135D01*
X59177Y81130D01*
X59177Y75023D01*
X50539Y75023D01*
X50539Y77709D01*
X53370Y80540D01*
X53412Y80598D01*
X53462Y80650D01*
X53483Y80697D01*
X53514Y80739D01*
X53535Y80808D01*
X53565Y80873D01*
X53571Y80925D01*
X53586Y80975D01*
X53584Y81046D01*
X53592Y81117D01*
X53581Y81168D01*
X53580Y81220D01*
X53555Y81288D01*
X53540Y81358D01*
X53513Y81403D01*
X53495Y81451D01*
X53451Y81507D01*
X53414Y81569D01*
X53374Y81603D01*
X53342Y81643D01*
X53281Y81682D01*
X53227Y81729D01*
X53179Y81748D01*
X53135Y81776D01*
X53065Y81794D01*
X52999Y81821D01*
X52927Y81829D01*
X52896Y81837D01*
X52873Y81835D01*
X52832Y81839D01*
X52756Y81839D01*
X46102Y83622D01*
X40137Y87066D01*
X35266Y91937D01*
X31822Y97902D01*
X30039Y104556D01*
X30039Y111444D01*
X31822Y118098D01*
X35266Y124063D01*
X40137Y128934D01*
X46102Y132378D01*
X52756Y134161D01*
X58568Y134161D01*
X58588Y134164D01*
X58607Y134162D01*
X58709Y134184D01*
X58811Y134200D01*
X58828Y134210D01*
X58848Y134214D01*
X58937Y134267D01*
X59028Y134316D01*
X59042Y134330D01*
X59059Y134340D01*
X59126Y134419D01*
X59198Y134494D01*
X59206Y134512D01*
X59219Y134527D01*
X59258Y134623D01*
X59301Y134717D01*
X59303Y134737D01*
X59311Y134755D01*
X59329Y134922D01*
X59329Y136817D01*
X66608Y136817D01*
X66628Y136820D01*
X66647Y136818D01*
X66749Y136840D01*
X66851Y136857D01*
X66868Y136866D01*
X66888Y136870D01*
X66977Y136923D01*
X67068Y136972D01*
X67082Y136986D01*
X67099Y136996D01*
X67166Y137075D01*
X67237Y137150D01*
X67246Y137168D01*
X67259Y137183D01*
X67298Y137279D01*
X67341Y137373D01*
X67343Y137393D01*
X67351Y137411D01*
X67369Y137578D01*
X67369Y138341D01*
X67371Y138341D01*
X67371Y137578D01*
X67374Y137558D01*
X67372Y137539D01*
X67394Y137437D01*
X67411Y137335D01*
X67420Y137318D01*
X67424Y137298D01*
X67477Y137209D01*
X67526Y137118D01*
X67540Y137104D01*
X67550Y137087D01*
X67629Y137020D01*
X67704Y136949D01*
X67722Y136940D01*
X67737Y136927D01*
X67833Y136888D01*
X67927Y136845D01*
X67947Y136843D01*
X67965Y136835D01*
X68132Y136817D01*
X75411Y136817D01*
X75411Y133005D01*
X75238Y132359D01*
X74903Y131780D01*
X74430Y131307D01*
X73851Y130972D01*
X73204Y130799D01*
X71873Y130799D01*
X71826Y130792D01*
X71778Y130793D01*
X71705Y130772D01*
X71630Y130760D01*
X71588Y130737D01*
X71542Y130723D01*
X71480Y130680D01*
X71413Y130644D01*
X71380Y130610D01*
X71341Y130582D01*
X71296Y130521D01*
X71243Y130466D01*
X71223Y130423D01*
X71195Y130384D01*
X71172Y130312D01*
X71140Y130243D01*
X71135Y130195D01*
X71120Y130150D01*
X71121Y130074D01*
X71113Y129999D01*
X71123Y129952D01*
X71124Y129904D01*
X71149Y129832D01*
X71165Y129758D01*
X71190Y129717D01*
X71206Y129672D01*
X71252Y129612D01*
X71291Y129547D01*
X71328Y129516D01*
X71357Y129478D01*
X71461Y129402D01*
X71478Y129387D01*
X71484Y129385D01*
X71492Y129379D01*
X72263Y128934D01*
X77134Y124063D01*
X80578Y118098D01*
X82361Y111444D01*
X82361Y104556D01*
X80578Y97902D01*
X77134Y91937D01*
X72263Y87066D01*
X66301Y83624D01*
X66210Y83550D01*
X66116Y83474D01*
X66114Y83471D01*
X66110Y83468D01*
X66047Y83367D01*
X65983Y83267D01*
X65982Y83263D01*
X65980Y83260D01*
X65952Y83144D01*
X65923Y83029D01*
X65923Y83025D01*
X65922Y83021D01*
X65933Y82901D01*
X65942Y82784D01*
X65944Y82780D01*
X65944Y82776D01*
X65993Y82663D01*
X66038Y82557D01*
X66041Y82553D01*
X66043Y82550D01*
X66052Y82540D01*
X66143Y82426D01*
X69081Y79488D01*
X69098Y79476D01*
X69110Y79461D01*
X69197Y79405D01*
X69281Y79344D01*
X69300Y79339D01*
X69317Y79328D01*
X69418Y79302D01*
X69516Y79272D01*
X69536Y79273D01*
X69556Y79268D01*
X69658Y79276D01*
X69762Y79278D01*
X69781Y79285D01*
X69801Y79287D01*
X69895Y79327D01*
X69993Y79363D01*
X70009Y79375D01*
X70027Y79383D01*
X70158Y79488D01*
X84358Y93688D01*
X84411Y93762D01*
X84471Y93832D01*
X84483Y93862D01*
X84502Y93888D01*
X84529Y93975D01*
X84563Y94060D01*
X84567Y94101D01*
X84574Y94123D01*
X84573Y94155D01*
X84581Y94227D01*
X84581Y119133D01*
X84567Y119224D01*
X84559Y119314D01*
X84547Y119344D01*
X84542Y119376D01*
X84499Y119457D01*
X84463Y119541D01*
X84437Y119573D01*
X84426Y119594D01*
X84403Y119616D01*
X84358Y119672D01*
X83057Y120973D01*
X83057Y131054D01*
X83054Y131074D01*
X83056Y131093D01*
X83034Y131195D01*
X83018Y131297D01*
X83008Y131314D01*
X83004Y131334D01*
X82951Y131423D01*
X82902Y131514D01*
X82888Y131528D01*
X82878Y131545D01*
X82799Y131612D01*
X82724Y131684D01*
X82706Y131692D01*
X82691Y131705D01*
X82595Y131744D01*
X82501Y131787D01*
X82481Y131789D01*
X82463Y131797D01*
X82296Y131815D01*
X78238Y131815D01*
X77345Y132708D01*
X77345Y143972D01*
X78238Y144865D01*
X87975Y144865D01*
X88065Y144879D01*
X88156Y144887D01*
X88186Y144899D01*
X88218Y144904D01*
X88299Y144947D01*
X88383Y144983D01*
X88415Y145009D01*
X88436Y145020D01*
X88458Y145043D01*
X88514Y145088D01*
X88958Y145532D01*
X89012Y145606D01*
X89071Y145676D01*
X89083Y145706D01*
X89102Y145732D01*
X89129Y145819D01*
X89163Y145904D01*
X89167Y145945D01*
X89174Y145967D01*
X89173Y145999D01*
X89181Y146070D01*
X89181Y150026D01*
X92290Y153135D01*
X96686Y153135D01*
X99483Y150338D01*
X99557Y150285D01*
X99627Y150225D01*
X99657Y150213D01*
X99683Y150194D01*
X99770Y150167D01*
X99855Y150133D01*
X99896Y150129D01*
X99918Y150122D01*
X99950Y150123D01*
X100021Y150115D01*
X126753Y150115D01*
X126844Y150129D01*
X126934Y150137D01*
X126964Y150149D01*
X126996Y150154D01*
X127077Y150197D01*
X127161Y150233D01*
X127193Y150259D01*
X127214Y150270D01*
X127236Y150293D01*
X127292Y150338D01*
X165130Y188176D01*
X165183Y188250D01*
X165243Y188320D01*
X165255Y188350D01*
X165274Y188376D01*
X165301Y188463D01*
X165335Y188548D01*
X165339Y188589D01*
X165346Y188611D01*
X165345Y188643D01*
X165353Y188715D01*
X165353Y241355D01*
X165342Y241425D01*
X165340Y241497D01*
X165322Y241546D01*
X165314Y241597D01*
X165280Y241661D01*
X165255Y241728D01*
X165223Y241769D01*
X165198Y241815D01*
X165146Y241864D01*
X165102Y241920D01*
X165058Y241948D01*
X165020Y241984D01*
X164955Y242014D01*
X164895Y242053D01*
X164844Y242066D01*
X164797Y242088D01*
X164726Y242096D01*
X164656Y242113D01*
X164604Y242109D01*
X164553Y242115D01*
X164482Y242100D01*
X164411Y242094D01*
X164363Y242074D01*
X164312Y242063D01*
X164251Y242026D01*
X164185Y241998D01*
X164129Y241953D01*
X164101Y241936D01*
X164086Y241919D01*
X164054Y241893D01*
X163742Y241581D01*
X159346Y241581D01*
X157510Y243417D01*
X157494Y243428D01*
X157482Y243444D01*
X157394Y243500D01*
X157311Y243560D01*
X157292Y243566D01*
X157275Y243577D01*
X157174Y243602D01*
X157075Y243633D01*
X157056Y243632D01*
X157036Y243637D01*
X156933Y243629D01*
X156830Y243626D01*
X156811Y243620D01*
X156791Y243618D01*
X156696Y243578D01*
X156599Y243542D01*
X156583Y243529D01*
X156565Y243522D01*
X156434Y243417D01*
X154598Y241581D01*
X150642Y241581D01*
X150552Y241567D01*
X150461Y241559D01*
X150432Y241547D01*
X150400Y241542D01*
X150319Y241499D01*
X150235Y241463D01*
X150203Y241437D01*
X150182Y241426D01*
X150160Y241403D01*
X150104Y241358D01*
X124402Y215656D01*
X124349Y215582D01*
X124289Y215512D01*
X124277Y215482D01*
X124258Y215456D01*
X124231Y215369D01*
X124197Y215284D01*
X124193Y215243D01*
X124186Y215221D01*
X124187Y215189D01*
X124179Y215118D01*
X124179Y211162D01*
X123867Y210850D01*
X123825Y210792D01*
X123776Y210740D01*
X123754Y210693D01*
X123724Y210651D01*
X123702Y210582D01*
X123672Y210517D01*
X123667Y210465D01*
X123651Y210415D01*
X123653Y210344D01*
X123645Y210273D01*
X123656Y210222D01*
X123658Y210170D01*
X123682Y210102D01*
X123697Y210032D01*
X123724Y209987D01*
X123742Y209939D01*
X123787Y209883D01*
X123824Y209821D01*
X123863Y209787D01*
X123896Y209747D01*
X123956Y209708D01*
X124011Y209661D01*
X124059Y209642D01*
X124103Y209614D01*
X124172Y209596D01*
X124239Y209569D01*
X124310Y209561D01*
X124341Y209553D01*
X124364Y209555D01*
X124405Y209551D01*
X128579Y209551D01*
X128669Y209565D01*
X128760Y209573D01*
X128789Y209585D01*
X128821Y209590D01*
X128902Y209633D01*
X128986Y209669D01*
X129018Y209695D01*
X129039Y209706D01*
X129061Y209729D01*
X129117Y209774D01*
X131914Y212571D01*
X136310Y212571D01*
X139419Y209462D01*
X139419Y205066D01*
X136310Y201957D01*
X131914Y201957D01*
X129117Y204754D01*
X129043Y204807D01*
X128973Y204867D01*
X128943Y204879D01*
X128917Y204898D01*
X128830Y204925D01*
X128745Y204959D01*
X128704Y204963D01*
X128682Y204970D01*
X128650Y204969D01*
X128579Y204977D01*
X101161Y204977D01*
X99598Y206540D01*
X26446Y279692D01*
X26388Y279734D01*
X26336Y279783D01*
X26289Y279805D01*
X26247Y279835D01*
X26178Y279856D01*
X26113Y279887D01*
X26061Y279892D01*
X26011Y279908D01*
X25940Y279906D01*
X25869Y279914D01*
X25818Y279903D01*
X25766Y279901D01*
X25698Y279877D01*
X25628Y279862D01*
X25584Y279835D01*
X25535Y279817D01*
X25479Y279772D01*
X25417Y279735D01*
X25383Y279696D01*
X25343Y279663D01*
X25304Y279603D01*
X25257Y279548D01*
X25238Y279500D01*
X25210Y279456D01*
X25192Y279387D01*
X25165Y279320D01*
X25157Y279249D01*
X25149Y279218D01*
X25151Y279194D01*
X25147Y279154D01*
X25147Y255771D01*
X25161Y255680D01*
X25169Y255590D01*
X25181Y255560D01*
X25186Y255528D01*
X25229Y255447D01*
X25265Y255363D01*
X25291Y255331D01*
X25302Y255310D01*
X25325Y255288D01*
X25370Y255232D01*
X64760Y215842D01*
X64834Y215789D01*
X64904Y215729D01*
X64934Y215717D01*
X64960Y215698D01*
X65047Y215671D01*
X65132Y215637D01*
X65173Y215633D01*
X65195Y215626D01*
X65227Y215627D01*
X65298Y215619D01*
X69254Y215619D01*
X72363Y212510D01*
X72363Y208114D01*
X69254Y205005D01*
X64858Y205005D01*
X61749Y208114D01*
X61749Y212070D01*
X61735Y212160D01*
X61727Y212251D01*
X61715Y212280D01*
X61710Y212312D01*
X61667Y212393D01*
X61631Y212477D01*
X61605Y212509D01*
X61594Y212530D01*
X61571Y212552D01*
X61526Y212608D01*
X20573Y253561D01*
X20573Y375851D01*
X22136Y377414D01*
X51556Y406834D01*
X51568Y406851D01*
X51584Y406863D01*
X51640Y406950D01*
X51700Y407034D01*
X51706Y407053D01*
X51717Y407070D01*
X51742Y407170D01*
X51772Y407269D01*
X51772Y407289D01*
X51777Y407308D01*
X51769Y407411D01*
X51766Y407515D01*
X51759Y407534D01*
X51758Y407554D01*
X51717Y407649D01*
X51682Y407746D01*
X51669Y407762D01*
X51661Y407780D01*
X51556Y407911D01*
X51355Y408112D01*
X51355Y415688D01*
X56712Y421045D01*
X64288Y421045D01*
X69645Y415688D01*
X69645Y411520D01*
X69656Y411450D01*
X69658Y411378D01*
X69676Y411329D01*
X69684Y411278D01*
X69718Y411214D01*
X69743Y411147D01*
X69775Y411106D01*
X69800Y411060D01*
X69852Y411011D01*
X69896Y410955D01*
X69940Y410927D01*
X69978Y410891D01*
X70043Y410861D01*
X70103Y410822D01*
X70154Y410809D01*
X70201Y410787D01*
X70272Y410779D01*
X70342Y410762D01*
X70394Y410766D01*
X70445Y410760D01*
X70516Y410775D01*
X70587Y410781D01*
X70635Y410801D01*
X70686Y410812D01*
X70747Y410849D01*
X70813Y410877D01*
X70869Y410922D01*
X70897Y410939D01*
X70912Y410956D01*
X70944Y410982D01*
X73729Y413767D01*
X75994Y413767D01*
X76014Y413770D01*
X76033Y413768D01*
X76135Y413790D01*
X76237Y413806D01*
X76254Y413816D01*
X76274Y413820D01*
X76363Y413873D01*
X76454Y413922D01*
X76468Y413936D01*
X76485Y413946D01*
X76552Y414025D01*
X76624Y414100D01*
X76632Y414118D01*
X76645Y414133D01*
X76684Y414229D01*
X76727Y414323D01*
X76729Y414343D01*
X76737Y414361D01*
X76755Y414528D01*
X76755Y415688D01*
X82112Y421045D01*
X89688Y421045D01*
X95045Y415688D01*
X95045Y408112D01*
X89688Y402755D01*
X82112Y402755D01*
X76755Y408112D01*
X76755Y408432D01*
X76752Y408452D01*
X76754Y408471D01*
X76732Y408573D01*
X76716Y408675D01*
X76706Y408692D01*
X76702Y408712D01*
X76649Y408801D01*
X76600Y408892D01*
X76586Y408906D01*
X76576Y408923D01*
X76497Y408990D01*
X76422Y409062D01*
X76404Y409070D01*
X76389Y409083D01*
X76293Y409122D01*
X76199Y409165D01*
X76179Y409167D01*
X76161Y409175D01*
X75994Y409193D01*
X75939Y409193D01*
X75848Y409179D01*
X75758Y409171D01*
X75728Y409159D01*
X75696Y409154D01*
X75615Y409111D01*
X75531Y409075D01*
X75499Y409049D01*
X75478Y409038D01*
X75456Y409015D01*
X75400Y408970D01*
X67780Y401350D01*
X67738Y401292D01*
X67689Y401240D01*
X67667Y401193D01*
X67637Y401151D01*
X67616Y401082D01*
X67585Y401017D01*
X67580Y400965D01*
X67564Y400915D01*
X67566Y400844D01*
X67558Y400773D01*
X67569Y400722D01*
X67571Y400670D01*
X67595Y400602D01*
X67610Y400532D01*
X67637Y400487D01*
X67655Y400439D01*
X67700Y400383D01*
X67737Y400321D01*
X67776Y400287D01*
X67809Y400247D01*
X67869Y400208D01*
X67924Y400161D01*
X67972Y400142D01*
X68016Y400114D01*
X68085Y400096D01*
X68152Y400069D01*
X68223Y400061D01*
X68254Y400053D01*
X68278Y400055D01*
X68318Y400051D01*
X90863Y400051D01*
X100856Y390058D01*
X100914Y390016D01*
X100966Y389967D01*
X101013Y389945D01*
X101055Y389915D01*
X101124Y389894D01*
X101189Y389863D01*
X101241Y389858D01*
X101291Y389842D01*
X101362Y389844D01*
X101433Y389836D01*
X101484Y389847D01*
X101536Y389849D01*
X101604Y389873D01*
X101674Y389888D01*
X101719Y389915D01*
X101767Y389933D01*
X101801Y389960D01*
X101824Y389978D01*
X101885Y390015D01*
X101918Y390054D01*
X101932Y390065D01*
X101933Y390066D01*
X101959Y390087D01*
X101969Y390102D01*
X107512Y395645D01*
X115088Y395645D01*
X116051Y394682D01*
X116067Y394670D01*
X116080Y394654D01*
X116167Y394598D01*
X116251Y394538D01*
X116270Y394532D01*
X116287Y394521D01*
X116387Y394496D01*
X116486Y394466D01*
X116506Y394466D01*
X116525Y394461D01*
X116628Y394469D01*
X116732Y394472D01*
X116751Y394479D01*
X116770Y394480D01*
X116865Y394521D01*
X116963Y394556D01*
X116978Y394569D01*
X116997Y394577D01*
X117128Y394682D01*
X119410Y396964D01*
X119463Y397038D01*
X119523Y397108D01*
X119535Y397138D01*
X119554Y397164D01*
X119581Y397251D01*
X119615Y397336D01*
X119619Y397377D01*
X119626Y397399D01*
X119625Y397431D01*
X119633Y397503D01*
X119633Y405463D01*
X119622Y405534D01*
X119620Y405605D01*
X119602Y405654D01*
X119594Y405706D01*
X119560Y405769D01*
X119535Y405836D01*
X119503Y405877D01*
X119478Y405923D01*
X119426Y405972D01*
X119382Y406028D01*
X119338Y406057D01*
X119300Y406092D01*
X119235Y406123D01*
X119175Y406161D01*
X119124Y406174D01*
X119077Y406196D01*
X119006Y406204D01*
X118936Y406221D01*
X118884Y406217D01*
X118833Y406223D01*
X118762Y406208D01*
X118691Y406202D01*
X118643Y406182D01*
X118592Y406171D01*
X118531Y406134D01*
X118465Y406106D01*
X118409Y406061D01*
X118381Y406045D01*
X118366Y406027D01*
X118334Y406001D01*
X115088Y402755D01*
X107512Y402755D01*
X102155Y408112D01*
X102155Y415688D01*
X107512Y421045D01*
X115088Y421045D01*
X120445Y415688D01*
X120445Y415076D01*
X120456Y415006D01*
X120458Y414934D01*
X120476Y414885D01*
X120484Y414834D01*
X120518Y414770D01*
X120543Y414703D01*
X120575Y414662D01*
X120600Y414616D01*
X120652Y414567D01*
X120696Y414511D01*
X120740Y414483D01*
X120778Y414447D01*
X120843Y414417D01*
X120903Y414378D01*
X120954Y414365D01*
X121001Y414343D01*
X121072Y414335D01*
X121142Y414318D01*
X121194Y414322D01*
X121245Y414316D01*
X121316Y414331D01*
X121387Y414337D01*
X121435Y414357D01*
X121486Y414368D01*
X121547Y414405D01*
X121613Y414433D01*
X121669Y414478D01*
X121697Y414495D01*
X121712Y414512D01*
X121744Y414538D01*
X137737Y430531D01*
X196019Y430531D01*
X232411Y394139D01*
X232411Y284041D01*
X218918Y270548D01*
X218865Y270474D01*
X218805Y270404D01*
X218793Y270374D01*
X218774Y270348D01*
X218747Y270261D01*
X218713Y270176D01*
X218709Y270135D01*
X218702Y270113D01*
X218703Y270081D01*
X218695Y270009D01*
X218695Y253945D01*
X218706Y253875D01*
X218708Y253803D01*
X218726Y253754D01*
X218734Y253703D01*
X218768Y253639D01*
X218793Y253572D01*
X218825Y253531D01*
X218850Y253485D01*
X218902Y253436D01*
X218946Y253380D01*
X218990Y253352D01*
X219028Y253316D01*
X219093Y253286D01*
X219153Y253247D01*
X219204Y253234D01*
X219251Y253212D01*
X219322Y253204D01*
X219392Y253187D01*
X219444Y253191D01*
X219495Y253185D01*
X219566Y253200D01*
X219637Y253206D01*
X219685Y253226D01*
X219736Y253237D01*
X219797Y253274D01*
X219863Y253302D01*
X219919Y253347D01*
X219947Y253364D01*
X219962Y253381D01*
X219994Y253407D01*
X220306Y253719D01*
X224702Y253719D01*
X227499Y250922D01*
X227573Y250869D01*
X227643Y250809D01*
X227673Y250797D01*
X227699Y250778D01*
X227786Y250751D01*
X227871Y250717D01*
X227912Y250713D01*
X227934Y250706D01*
X227966Y250707D01*
X228037Y250699D01*
X229547Y250699D01*
X231138Y249108D01*
X231196Y249066D01*
X231248Y249017D01*
X231295Y248995D01*
X231337Y248965D01*
X231406Y248944D01*
X231471Y248913D01*
X231523Y248908D01*
X231573Y248892D01*
X231644Y248894D01*
X231715Y248886D01*
X231766Y248897D01*
X231818Y248899D01*
X231886Y248923D01*
X231956Y248938D01*
X232001Y248965D01*
X232049Y248983D01*
X232105Y249028D01*
X232167Y249065D01*
X232201Y249104D01*
X232241Y249137D01*
X232280Y249197D01*
X232327Y249252D01*
X232346Y249300D01*
X232374Y249344D01*
X232392Y249413D01*
X232419Y249480D01*
X232427Y249551D01*
X232435Y249582D01*
X232433Y249606D01*
X232437Y249646D01*
X232437Y250610D01*
X235546Y253719D01*
X239942Y253719D01*
X242739Y250922D01*
X242813Y250869D01*
X242883Y250809D01*
X242913Y250797D01*
X242939Y250778D01*
X243026Y250751D01*
X243111Y250717D01*
X243152Y250713D01*
X243174Y250706D01*
X243206Y250707D01*
X243277Y250699D01*
X298070Y250699D01*
X298116Y250706D01*
X298162Y250704D01*
X298236Y250726D01*
X298313Y250738D01*
X298354Y250760D01*
X298398Y250773D01*
X298462Y250817D01*
X298531Y250854D01*
X298562Y250887D01*
X298600Y250913D01*
X298646Y250976D01*
X298700Y251032D01*
X298719Y251074D01*
X298747Y251110D01*
X298771Y251184D01*
X298804Y251255D01*
X298809Y251301D01*
X298823Y251344D01*
X298822Y251422D01*
X298831Y251499D01*
X298821Y251544D01*
X298820Y251590D01*
X298782Y251722D01*
X298778Y251740D01*
X298776Y251744D01*
X298774Y251751D01*
X298755Y251796D01*
X298755Y255004D01*
X299983Y257968D01*
X302252Y260237D01*
X305216Y261465D01*
X306488Y261465D01*
X306558Y261476D01*
X306630Y261478D01*
X306679Y261496D01*
X306730Y261504D01*
X306794Y261538D01*
X306861Y261563D01*
X306902Y261595D01*
X306948Y261620D01*
X306997Y261672D01*
X307053Y261716D01*
X307081Y261760D01*
X307117Y261798D01*
X307147Y261863D01*
X307186Y261923D01*
X307199Y261974D01*
X307221Y262021D01*
X307229Y262092D01*
X307246Y262162D01*
X307242Y262214D01*
X307248Y262265D01*
X307233Y262336D01*
X307227Y262407D01*
X307207Y262455D01*
X307196Y262506D01*
X307159Y262567D01*
X307131Y262633D01*
X307086Y262689D01*
X307069Y262717D01*
X307052Y262732D01*
X307026Y262764D01*
X306862Y262928D01*
X293369Y276421D01*
X293369Y287075D01*
X293355Y287165D01*
X293347Y287256D01*
X293335Y287285D01*
X293330Y287317D01*
X293287Y287398D01*
X293251Y287482D01*
X293225Y287514D01*
X293214Y287535D01*
X293191Y287557D01*
X293146Y287613D01*
X290349Y290410D01*
X290349Y294806D01*
X293458Y297915D01*
X297854Y297915D01*
X300963Y294806D01*
X300963Y290410D01*
X298166Y287613D01*
X298113Y287539D01*
X298053Y287469D01*
X298041Y287439D01*
X298022Y287413D01*
X297995Y287326D01*
X297961Y287241D01*
X297957Y287200D01*
X297950Y287178D01*
X297951Y287146D01*
X297943Y287075D01*
X297943Y282270D01*
X297958Y282173D01*
X297968Y282077D01*
X297978Y282053D01*
X297982Y282027D01*
X298028Y281941D01*
X298068Y281852D01*
X298085Y281833D01*
X298098Y281809D01*
X298168Y281742D01*
X298234Y281671D01*
X298257Y281658D01*
X298276Y281640D01*
X298364Y281599D01*
X298450Y281552D01*
X298475Y281547D01*
X298499Y281536D01*
X298596Y281526D01*
X298692Y281508D01*
X298718Y281512D01*
X298743Y281509D01*
X298839Y281530D01*
X298935Y281544D01*
X298958Y281556D01*
X298984Y281562D01*
X299067Y281612D01*
X299154Y281656D01*
X299173Y281674D01*
X299195Y281688D01*
X299258Y281762D01*
X299326Y281831D01*
X299342Y281860D01*
X299355Y281875D01*
X299367Y281905D01*
X299407Y281978D01*
X299983Y283368D01*
X302252Y285637D01*
X305216Y286865D01*
X321504Y286865D01*
X324468Y285637D01*
X326737Y283368D01*
X327965Y280404D01*
X327965Y277196D01*
X326737Y274232D01*
X324468Y271963D01*
X321504Y270735D01*
X307360Y270735D01*
X307290Y270724D01*
X307218Y270722D01*
X307169Y270704D01*
X307118Y270696D01*
X307054Y270662D01*
X306987Y270637D01*
X306946Y270605D01*
X306900Y270580D01*
X306851Y270528D01*
X306795Y270484D01*
X306767Y270440D01*
X306731Y270402D01*
X306701Y270337D01*
X306662Y270277D01*
X306649Y270226D01*
X306627Y270179D01*
X306619Y270108D01*
X306602Y270038D01*
X306606Y269986D01*
X306600Y269935D01*
X306615Y269864D01*
X306621Y269793D01*
X306641Y269745D01*
X306652Y269694D01*
X306689Y269633D01*
X306717Y269567D01*
X306762Y269511D01*
X306779Y269483D01*
X306796Y269468D01*
X306822Y269436D01*
X310096Y266162D01*
X310170Y266109D01*
X310240Y266049D01*
X310270Y266037D01*
X310296Y266018D01*
X310383Y265991D01*
X310468Y265957D01*
X310509Y265953D01*
X310531Y265946D01*
X310563Y265947D01*
X310635Y265939D01*
X324035Y265939D01*
X331471Y258503D01*
X331471Y223081D01*
X321198Y212808D01*
X321128Y212711D01*
X321057Y212614D01*
X321056Y212611D01*
X321054Y212608D01*
X321019Y212494D01*
X320983Y212379D01*
X320983Y212376D01*
X320982Y212373D01*
X320985Y212252D01*
X320987Y212133D01*
X320988Y212130D01*
X320988Y212127D01*
X321030Y212014D01*
X321070Y211902D01*
X321072Y211899D01*
X321073Y211896D01*
X321148Y211803D01*
X321222Y211708D01*
X321224Y211707D01*
X321226Y211704D01*
X321328Y211639D01*
X321428Y211574D01*
X321431Y211573D01*
X321433Y211571D01*
X321444Y211568D01*
X321588Y211523D01*
X322549Y211332D01*
X324201Y210647D01*
X325689Y209653D01*
X326953Y208389D01*
X327947Y206901D01*
X328632Y205249D01*
X328856Y204123D01*
X314122Y204123D01*
X314102Y204120D01*
X314083Y204122D01*
X313981Y204100D01*
X313879Y204083D01*
X313862Y204074D01*
X313842Y204070D01*
X313753Y204017D01*
X313662Y203968D01*
X313648Y203954D01*
X313631Y203944D01*
X313564Y203865D01*
X313493Y203790D01*
X313484Y203772D01*
X313471Y203757D01*
X313433Y203661D01*
X313389Y203567D01*
X313387Y203547D01*
X313379Y203529D01*
X313361Y203362D01*
X313361Y202599D01*
X312598Y202599D01*
X312578Y202596D01*
X312559Y202598D01*
X312457Y202576D01*
X312355Y202559D01*
X312338Y202550D01*
X312318Y202546D01*
X312229Y202493D01*
X312138Y202444D01*
X312124Y202430D01*
X312107Y202420D01*
X312040Y202341D01*
X311969Y202266D01*
X311960Y202248D01*
X311947Y202233D01*
X311908Y202137D01*
X311865Y202043D01*
X311863Y202023D01*
X311855Y202005D01*
X311837Y201838D01*
X311837Y193519D01*
X305926Y193519D01*
X304171Y193868D01*
X302519Y194553D01*
X301031Y195547D01*
X299767Y196811D01*
X298773Y198299D01*
X298088Y199951D01*
X297792Y201443D01*
X297765Y201514D01*
X297765Y201515D01*
X297764Y201516D01*
X297750Y201554D01*
X297708Y201668D01*
X297706Y201670D01*
X297705Y201673D01*
X297630Y201766D01*
X297555Y201860D01*
X297552Y201862D01*
X297550Y201864D01*
X297449Y201928D01*
X297348Y201993D01*
X297345Y201994D01*
X297342Y201995D01*
X297225Y202024D01*
X297109Y202053D01*
X297106Y202053D01*
X297103Y202053D01*
X296982Y202043D01*
X296864Y202034D01*
X296861Y202033D01*
X296858Y202032D01*
X296746Y201983D01*
X296638Y201938D01*
X296635Y201935D01*
X296632Y201934D01*
X296624Y201927D01*
X296507Y201833D01*
X250922Y156248D01*
X250869Y156174D01*
X250809Y156104D01*
X250797Y156074D01*
X250778Y156048D01*
X250751Y155961D01*
X250717Y155876D01*
X250713Y155835D01*
X250706Y155813D01*
X250707Y155781D01*
X250699Y155709D01*
X250699Y56965D01*
X247172Y53438D01*
X247160Y53421D01*
X247144Y53409D01*
X247088Y53322D01*
X247028Y53238D01*
X247022Y53219D01*
X247011Y53202D01*
X246986Y53102D01*
X246956Y53003D01*
X246956Y52983D01*
X246951Y52964D01*
X246959Y52861D01*
X246962Y52757D01*
X246969Y52738D01*
X246970Y52718D01*
X247011Y52623D01*
X247046Y52526D01*
X247059Y52510D01*
X247067Y52492D01*
X247172Y52361D01*
X247645Y51888D01*
X247645Y46976D01*
X247656Y46906D01*
X247658Y46834D01*
X247676Y46785D01*
X247684Y46734D01*
X247718Y46670D01*
X247743Y46603D01*
X247775Y46562D01*
X247800Y46516D01*
X247852Y46467D01*
X247896Y46411D01*
X247940Y46383D01*
X247978Y46347D01*
X248043Y46317D01*
X248103Y46278D01*
X248154Y46265D01*
X248201Y46243D01*
X248272Y46235D01*
X248342Y46218D01*
X248394Y46222D01*
X248445Y46216D01*
X248516Y46231D01*
X248587Y46237D01*
X248635Y46257D01*
X248686Y46268D01*
X248747Y46305D01*
X248813Y46333D01*
X248869Y46378D01*
X248897Y46395D01*
X248912Y46412D01*
X248944Y46438D01*
X252037Y49531D01*
X253994Y49531D01*
X254014Y49534D01*
X254033Y49532D01*
X254135Y49554D01*
X254237Y49570D01*
X254254Y49580D01*
X254274Y49584D01*
X254363Y49637D01*
X254454Y49686D01*
X254468Y49700D01*
X254485Y49710D01*
X254552Y49789D01*
X254624Y49864D01*
X254632Y49882D01*
X254645Y49897D01*
X254684Y49993D01*
X254727Y50087D01*
X254729Y50107D01*
X254737Y50125D01*
X254755Y50292D01*
X254755Y51888D01*
X260112Y57245D01*
X267688Y57245D01*
X273045Y51888D01*
X273045Y51040D01*
X273056Y50970D01*
X273058Y50898D01*
X273076Y50849D01*
X273084Y50798D01*
X273118Y50734D01*
X273143Y50667D01*
X273175Y50626D01*
X273200Y50580D01*
X273252Y50531D01*
X273296Y50475D01*
X273340Y50447D01*
X273378Y50411D01*
X273443Y50381D01*
X273503Y50342D01*
X273554Y50329D01*
X273601Y50307D01*
X273672Y50299D01*
X273742Y50282D01*
X273794Y50286D01*
X273845Y50280D01*
X273916Y50295D01*
X273987Y50301D01*
X274035Y50321D01*
X274086Y50332D01*
X274147Y50369D01*
X274213Y50397D01*
X274269Y50442D01*
X274297Y50459D01*
X274312Y50476D01*
X274344Y50502D01*
X285526Y61684D01*
X285579Y61758D01*
X285639Y61828D01*
X285651Y61858D01*
X285670Y61884D01*
X285697Y61971D01*
X285731Y62056D01*
X285735Y62097D01*
X285742Y62119D01*
X285741Y62151D01*
X285749Y62223D01*
X285749Y63803D01*
X285735Y63893D01*
X285727Y63984D01*
X285715Y64014D01*
X285710Y64046D01*
X285667Y64126D01*
X285631Y64210D01*
X285605Y64242D01*
X285594Y64263D01*
X285571Y64285D01*
X285526Y64341D01*
X280155Y69712D01*
X280155Y77288D01*
X285646Y82779D01*
X285716Y82876D01*
X285786Y82971D01*
X285787Y82975D01*
X285790Y82979D01*
X285825Y83092D01*
X285861Y83205D01*
X285861Y83210D01*
X285862Y83214D01*
X285859Y83332D01*
X285857Y83451D01*
X285856Y83455D01*
X285856Y83460D01*
X285815Y83572D01*
X285775Y83683D01*
X285773Y83687D01*
X285771Y83691D01*
X285697Y83783D01*
X285624Y83877D01*
X285620Y83880D01*
X285618Y83883D01*
X285606Y83890D01*
X285489Y83976D01*
X280137Y87066D01*
X275266Y91937D01*
X271822Y97902D01*
X270039Y104556D01*
X270039Y111444D01*
X271822Y118098D01*
X275266Y124063D01*
X280137Y128934D01*
X286102Y132378D01*
X292756Y134161D01*
X299644Y134161D01*
X306298Y132378D01*
X312263Y128934D01*
X317134Y124063D01*
X320578Y118098D01*
X322361Y111444D01*
X322361Y104556D01*
X320578Y97902D01*
X317134Y91937D01*
X312263Y87066D01*
X306298Y83622D01*
X299644Y81839D01*
X295731Y81839D01*
X295660Y81828D01*
X295589Y81826D01*
X295540Y81808D01*
X295488Y81800D01*
X295425Y81766D01*
X295358Y81741D01*
X295317Y81709D01*
X295271Y81684D01*
X295222Y81632D01*
X295166Y81588D01*
X295137Y81544D01*
X295102Y81506D01*
X295071Y81441D01*
X295033Y81381D01*
X295020Y81330D01*
X294998Y81283D01*
X294990Y81212D01*
X294973Y81142D01*
X294977Y81090D01*
X294971Y81039D01*
X294986Y80968D01*
X294992Y80897D01*
X295012Y80849D01*
X295023Y80798D01*
X295060Y80737D01*
X295088Y80671D01*
X295133Y80615D01*
X295149Y80587D01*
X295167Y80572D01*
X295193Y80540D01*
X298445Y77288D01*
X298445Y69712D01*
X293088Y64355D01*
X291084Y64355D01*
X291064Y64352D01*
X291045Y64354D01*
X290943Y64332D01*
X290841Y64316D01*
X290824Y64306D01*
X290804Y64302D01*
X290715Y64249D01*
X290624Y64200D01*
X290610Y64186D01*
X290593Y64176D01*
X290526Y64097D01*
X290454Y64022D01*
X290446Y64004D01*
X290433Y63989D01*
X290394Y63893D01*
X290351Y63799D01*
X290349Y63779D01*
X290341Y63761D01*
X290323Y63594D01*
X290323Y60013D01*
X289870Y59560D01*
X289828Y59502D01*
X289779Y59450D01*
X289757Y59403D01*
X289727Y59361D01*
X289723Y59348D01*
X289721Y59347D01*
X289655Y59319D01*
X289599Y59274D01*
X289571Y59257D01*
X289556Y59239D01*
X289524Y59214D01*
X288000Y57690D01*
X287947Y57616D01*
X287887Y57546D01*
X287875Y57516D01*
X287856Y57490D01*
X287829Y57403D01*
X287795Y57318D01*
X287791Y57277D01*
X287784Y57255D01*
X287785Y57223D01*
X287777Y57152D01*
X287777Y48862D01*
X287780Y48842D01*
X287778Y48823D01*
X287800Y48721D01*
X287817Y48619D01*
X287826Y48602D01*
X287830Y48582D01*
X287883Y48493D01*
X287932Y48402D01*
X287946Y48388D01*
X287956Y48371D01*
X288035Y48304D01*
X288110Y48233D01*
X288128Y48224D01*
X288143Y48211D01*
X288239Y48173D01*
X288333Y48129D01*
X288353Y48127D01*
X288371Y48119D01*
X288538Y48101D01*
X289301Y48101D01*
X289301Y48099D01*
X288538Y48099D01*
X288518Y48096D01*
X288499Y48098D01*
X288397Y48076D01*
X288295Y48059D01*
X288278Y48050D01*
X288258Y48046D01*
X288169Y47993D01*
X288078Y47944D01*
X288064Y47930D01*
X288047Y47920D01*
X287980Y47841D01*
X287909Y47766D01*
X287900Y47748D01*
X287887Y47733D01*
X287848Y47637D01*
X287805Y47543D01*
X287803Y47523D01*
X287795Y47505D01*
X287777Y47338D01*
X287777Y37939D01*
X285091Y37939D01*
X279139Y43891D01*
X279139Y46992D01*
X279128Y47062D01*
X279126Y47134D01*
X279108Y47183D01*
X279099Y47234D01*
X279066Y47298D01*
X279041Y47365D01*
X279009Y47406D01*
X278984Y47452D01*
X278932Y47501D01*
X278888Y47557D01*
X278844Y47585D01*
X278806Y47621D01*
X278741Y47651D01*
X278681Y47690D01*
X278630Y47703D01*
X278583Y47725D01*
X278512Y47733D01*
X278442Y47750D01*
X278390Y47746D01*
X278339Y47752D01*
X278268Y47736D01*
X278197Y47731D01*
X278149Y47711D01*
X278098Y47699D01*
X278037Y47663D01*
X277971Y47635D01*
X277915Y47590D01*
X277887Y47573D01*
X277872Y47555D01*
X277840Y47530D01*
X276830Y46520D01*
X276777Y46446D01*
X276717Y46376D01*
X276705Y46346D01*
X276686Y46320D01*
X276659Y46233D01*
X276625Y46148D01*
X276621Y46107D01*
X276614Y46085D01*
X276615Y46053D01*
X276607Y45981D01*
X276607Y43249D01*
X260027Y26669D01*
X88969Y26669D01*
G37*
%LPD*%
G36*
X178398Y216620D02*
X178398Y216620D01*
X178450Y216622D01*
X178518Y216646D01*
X178588Y216661D01*
X178632Y216688D01*
X178681Y216706D01*
X178737Y216751D01*
X178799Y216788D01*
X178833Y216827D01*
X178873Y216860D01*
X178912Y216920D01*
X178959Y216975D01*
X178978Y217023D01*
X179006Y217067D01*
X179024Y217136D01*
X179051Y217203D01*
X179059Y217274D01*
X179067Y217305D01*
X179065Y217328D01*
X179069Y217369D01*
X179069Y246311D01*
X191038Y258280D01*
X191091Y258354D01*
X191151Y258424D01*
X191163Y258454D01*
X191182Y258480D01*
X191209Y258567D01*
X191243Y258652D01*
X191247Y258693D01*
X191254Y258715D01*
X191253Y258747D01*
X191261Y258819D01*
X191261Y288599D01*
X191247Y288689D01*
X191239Y288780D01*
X191227Y288809D01*
X191222Y288841D01*
X191179Y288922D01*
X191143Y289006D01*
X191117Y289038D01*
X191106Y289059D01*
X191083Y289081D01*
X191038Y289137D01*
X188241Y291934D01*
X188241Y296330D01*
X191350Y299439D01*
X195746Y299439D01*
X198855Y296330D01*
X198855Y291934D01*
X196058Y289137D01*
X196005Y289063D01*
X195945Y288993D01*
X195933Y288963D01*
X195914Y288937D01*
X195887Y288850D01*
X195853Y288765D01*
X195849Y288724D01*
X195842Y288702D01*
X195843Y288670D01*
X195835Y288599D01*
X195835Y260342D01*
X195846Y260272D01*
X195848Y260200D01*
X195866Y260151D01*
X195874Y260100D01*
X195908Y260036D01*
X195933Y259969D01*
X195965Y259928D01*
X195990Y259882D01*
X196041Y259833D01*
X196086Y259777D01*
X196130Y259749D01*
X196168Y259713D01*
X196233Y259683D01*
X196293Y259644D01*
X196344Y259631D01*
X196391Y259609D01*
X196462Y259601D01*
X196532Y259584D01*
X196584Y259588D01*
X196635Y259582D01*
X196706Y259597D01*
X196777Y259603D01*
X196825Y259623D01*
X196876Y259634D01*
X196937Y259671D01*
X197003Y259699D01*
X197059Y259744D01*
X197087Y259761D01*
X197102Y259778D01*
X197134Y259804D01*
X212664Y275334D01*
X212706Y275392D01*
X212755Y275444D01*
X212777Y275491D01*
X212807Y275533D01*
X212828Y275602D01*
X212859Y275667D01*
X212864Y275719D01*
X212880Y275769D01*
X212878Y275840D01*
X212886Y275911D01*
X212875Y275962D01*
X212873Y276014D01*
X212849Y276082D01*
X212834Y276152D01*
X212807Y276196D01*
X212789Y276245D01*
X212744Y276301D01*
X212707Y276363D01*
X212668Y276397D01*
X212635Y276437D01*
X212575Y276476D01*
X212520Y276523D01*
X212472Y276542D01*
X212428Y276570D01*
X212359Y276588D01*
X212292Y276615D01*
X212221Y276623D01*
X212190Y276631D01*
X212166Y276629D01*
X212126Y276633D01*
X211162Y276633D01*
X208053Y279742D01*
X208053Y284138D01*
X210850Y286935D01*
X210903Y287009D01*
X210963Y287079D01*
X210975Y287109D01*
X210994Y287135D01*
X211021Y287222D01*
X211055Y287307D01*
X211059Y287348D01*
X211066Y287370D01*
X211065Y287402D01*
X211073Y287473D01*
X211073Y373641D01*
X211059Y373732D01*
X211051Y373822D01*
X211039Y373852D01*
X211034Y373884D01*
X210991Y373965D01*
X210955Y374049D01*
X210929Y374081D01*
X210918Y374102D01*
X210895Y374124D01*
X210850Y374180D01*
X198960Y386070D01*
X198902Y386112D01*
X198850Y386161D01*
X198803Y386183D01*
X198761Y386213D01*
X198692Y386234D01*
X198627Y386265D01*
X198575Y386270D01*
X198525Y386286D01*
X198454Y386284D01*
X198383Y386292D01*
X198332Y386281D01*
X198280Y386279D01*
X198212Y386255D01*
X198142Y386240D01*
X198097Y386213D01*
X198049Y386195D01*
X197993Y386150D01*
X197931Y386113D01*
X197897Y386074D01*
X197857Y386041D01*
X197818Y385981D01*
X197771Y385926D01*
X197752Y385878D01*
X197724Y385834D01*
X197706Y385765D01*
X197679Y385698D01*
X197671Y385627D01*
X197663Y385596D01*
X197665Y385572D01*
X197661Y385532D01*
X197661Y382291D01*
X191709Y376339D01*
X189023Y376339D01*
X189023Y385738D01*
X189020Y385758D01*
X189022Y385777D01*
X189000Y385879D01*
X188983Y385981D01*
X188974Y385998D01*
X188970Y386018D01*
X188917Y386107D01*
X188868Y386198D01*
X188854Y386212D01*
X188844Y386229D01*
X188765Y386296D01*
X188690Y386367D01*
X188672Y386376D01*
X188657Y386389D01*
X188561Y386427D01*
X188467Y386471D01*
X188447Y386473D01*
X188429Y386481D01*
X188262Y386499D01*
X186738Y386499D01*
X186718Y386496D01*
X186699Y386498D01*
X186597Y386476D01*
X186495Y386459D01*
X186478Y386450D01*
X186458Y386446D01*
X186369Y386393D01*
X186278Y386344D01*
X186264Y386330D01*
X186247Y386320D01*
X186180Y386241D01*
X186109Y386166D01*
X186100Y386148D01*
X186087Y386133D01*
X186048Y386037D01*
X186005Y385943D01*
X186003Y385923D01*
X185995Y385905D01*
X185977Y385738D01*
X185977Y376339D01*
X183291Y376339D01*
X178846Y380784D01*
X178788Y380826D01*
X178736Y380876D01*
X178689Y380897D01*
X178647Y380928D01*
X178578Y380949D01*
X178513Y380979D01*
X178461Y380985D01*
X178411Y381000D01*
X178340Y380998D01*
X178269Y381006D01*
X178218Y380995D01*
X178166Y380994D01*
X178098Y380969D01*
X178028Y380954D01*
X177983Y380927D01*
X177935Y380909D01*
X177879Y380865D01*
X177817Y380828D01*
X177783Y380788D01*
X177743Y380756D01*
X177704Y380695D01*
X177657Y380641D01*
X177638Y380593D01*
X177610Y380549D01*
X177592Y380479D01*
X177565Y380413D01*
X177557Y380341D01*
X177549Y380310D01*
X177551Y380287D01*
X177547Y380246D01*
X177547Y217369D01*
X177561Y217279D01*
X177569Y217188D01*
X177581Y217159D01*
X177586Y217127D01*
X177629Y217046D01*
X177665Y216962D01*
X177691Y216930D01*
X177702Y216909D01*
X177725Y216887D01*
X177770Y216831D01*
X177828Y216789D01*
X177880Y216740D01*
X177927Y216718D01*
X177969Y216688D01*
X178038Y216667D01*
X178103Y216636D01*
X178155Y216631D01*
X178205Y216615D01*
X178276Y216617D01*
X178347Y216609D01*
X178398Y216620D01*
G37*
%LPC*%
G36*
X59329Y139863D02*
X59329Y139863D01*
X59329Y143674D01*
X59502Y144321D01*
X59837Y144900D01*
X60310Y145373D01*
X60889Y145708D01*
X61394Y145843D01*
X61416Y145853D01*
X61439Y145857D01*
X61527Y145903D01*
X61618Y145944D01*
X61636Y145960D01*
X61657Y145972D01*
X61725Y146043D01*
X61798Y146111D01*
X61810Y146132D01*
X61826Y146150D01*
X61868Y146240D01*
X61915Y146327D01*
X61920Y146351D01*
X61930Y146373D01*
X61941Y146472D01*
X61958Y146570D01*
X61954Y146594D01*
X61957Y146617D01*
X61936Y146714D01*
X61921Y146813D01*
X61910Y146834D01*
X61905Y146858D01*
X61854Y146943D01*
X61808Y147032D01*
X61791Y147048D01*
X61778Y147069D01*
X61703Y147134D01*
X61632Y147203D01*
X61610Y147213D01*
X61592Y147229D01*
X61499Y147266D01*
X61410Y147309D01*
X61386Y147312D01*
X61363Y147321D01*
X61197Y147339D01*
X55493Y147339D01*
X47164Y150789D01*
X40789Y157164D01*
X37339Y165493D01*
X37339Y174507D01*
X40789Y182836D01*
X47164Y189211D01*
X55493Y192661D01*
X64507Y192661D01*
X72836Y189211D01*
X79211Y182836D01*
X82661Y174507D01*
X82661Y165493D01*
X79211Y157164D01*
X72836Y150789D01*
X64522Y147345D01*
X64439Y147294D01*
X64353Y147248D01*
X64335Y147229D01*
X64313Y147216D01*
X64251Y147141D01*
X64184Y147070D01*
X64173Y147046D01*
X64156Y147026D01*
X64121Y146935D01*
X64080Y146847D01*
X64077Y146821D01*
X64068Y146797D01*
X64064Y146699D01*
X64053Y146603D01*
X64059Y146577D01*
X64057Y146551D01*
X64085Y146457D01*
X64105Y146362D01*
X64119Y146340D01*
X64126Y146315D01*
X64182Y146235D01*
X64231Y146151D01*
X64251Y146134D01*
X64266Y146113D01*
X64344Y146054D01*
X64418Y145991D01*
X64443Y145981D01*
X64464Y145966D01*
X64556Y145936D01*
X64647Y145899D01*
X64679Y145896D01*
X64698Y145890D01*
X64731Y145890D01*
X64813Y145881D01*
X65847Y145881D01*
X65847Y139863D01*
X59329Y139863D01*
G37*
%LPD*%
%LPC*%
G36*
X305216Y169135D02*
X305216Y169135D01*
X302252Y170363D01*
X299983Y172632D01*
X298755Y175596D01*
X298755Y178804D01*
X299983Y181768D01*
X302252Y184037D01*
X305216Y185265D01*
X321504Y185265D01*
X324468Y184037D01*
X326737Y181768D01*
X327965Y178804D01*
X327965Y175596D01*
X326737Y172632D01*
X324468Y170363D01*
X321504Y169135D01*
X305216Y169135D01*
G37*
%LPD*%
%LPC*%
G36*
X260112Y64355D02*
X260112Y64355D01*
X254755Y69712D01*
X254755Y77288D01*
X260112Y82645D01*
X267688Y82645D01*
X273045Y77288D01*
X273045Y69712D01*
X267688Y64355D01*
X260112Y64355D01*
G37*
%LPD*%
%LPC*%
G36*
X314883Y193519D02*
X314883Y193519D01*
X314883Y201077D01*
X328856Y201077D01*
X328632Y199951D01*
X327947Y198299D01*
X326953Y196811D01*
X325689Y195547D01*
X324201Y194553D01*
X322549Y193868D01*
X320794Y193519D01*
X314883Y193519D01*
G37*
%LPD*%
%LPC*%
G36*
X290823Y49623D02*
X290823Y49623D01*
X290823Y58261D01*
X293509Y58261D01*
X299461Y52309D01*
X299461Y49623D01*
X290823Y49623D01*
G37*
%LPD*%
%LPC*%
G36*
X290823Y37939D02*
X290823Y37939D01*
X290823Y46577D01*
X299461Y46577D01*
X299461Y43891D01*
X293509Y37939D01*
X290823Y37939D01*
G37*
%LPD*%
%LPC*%
G36*
X56491Y63339D02*
X56491Y63339D01*
X50539Y69291D01*
X50539Y71977D01*
X59177Y71977D01*
X59177Y63339D01*
X56491Y63339D01*
G37*
%LPD*%
%LPC*%
G36*
X68893Y139863D02*
X68893Y139863D01*
X68893Y145881D01*
X73204Y145881D01*
X73851Y145708D01*
X74430Y145373D01*
X74903Y144900D01*
X75238Y144321D01*
X75411Y143674D01*
X75411Y139863D01*
X68893Y139863D01*
G37*
%LPD*%
D10*
X84370Y138340D03*
X67370Y138340D03*
D11*
X289300Y48100D03*
X263900Y48100D03*
X238500Y48100D03*
X213100Y48100D03*
X187700Y48100D03*
X162300Y48100D03*
X136900Y48100D03*
X111500Y48100D03*
X86100Y48100D03*
X60700Y48100D03*
X289300Y73500D03*
X263900Y73500D03*
X238500Y73500D03*
X213100Y73500D03*
X187700Y73500D03*
X162300Y73500D03*
X136900Y73500D03*
X111500Y73500D03*
X86100Y73500D03*
X60700Y73500D03*
D12*
X306820Y177200D02*
X319900Y177200D01*
X319900Y202600D02*
X306820Y202600D01*
X306820Y228000D02*
X319900Y228000D01*
X319900Y253400D02*
X306820Y253400D01*
X306820Y278800D02*
X319900Y278800D01*
D13*
X60500Y411900D03*
X85900Y411900D03*
X111300Y411900D03*
X136700Y411900D03*
X162100Y411900D03*
X187500Y411900D03*
X60500Y386500D03*
X85900Y386500D03*
X111300Y386500D03*
X136700Y386500D03*
X162100Y386500D03*
X187500Y386500D03*
D14*
X85344Y137160D02*
X85344Y121920D01*
X86868Y120396D01*
X86868Y92964D01*
X71628Y77724D01*
X71628Y59436D01*
X65532Y53340D02*
X60960Y48768D01*
X65532Y53340D02*
X71628Y59436D01*
X85344Y137160D02*
X84370Y138340D01*
X60960Y48768D02*
X60700Y48100D01*
X85344Y138684D02*
X94488Y147828D01*
X85344Y138684D02*
X84370Y138340D01*
X163068Y312420D02*
X163068Y385572D01*
X163068Y312420D02*
X167640Y307848D01*
X167640Y187452D01*
X128016Y147828D01*
X94488Y147828D01*
X163068Y385572D02*
X162100Y386500D01*
X288036Y73152D02*
X288036Y60960D01*
X274320Y47244D01*
X274320Y44196D01*
X259080Y28956D01*
X89916Y28956D01*
X65532Y53340D01*
X288036Y73152D02*
X289300Y73500D01*
X65532Y53340D02*
X60700Y48100D01*
D15*
X94488Y147828D03*
D14*
X68580Y137160D02*
X68580Y134112D01*
X83820Y118872D01*
X83820Y97536D01*
X60960Y74676D01*
X68580Y137160D02*
X67370Y138340D01*
X60960Y74676D02*
X60700Y73500D01*
X89916Y160020D02*
X131064Y160020D01*
X89916Y160020D02*
X68580Y138684D01*
X67370Y138340D01*
X188976Y336804D02*
X188976Y385572D01*
X188976Y336804D02*
X198120Y327660D01*
X188976Y385572D02*
X187500Y386500D01*
X289560Y57912D02*
X289560Y48768D01*
X289560Y57912D02*
X329184Y97536D01*
X329184Y185928D01*
X313944Y201168D01*
X289560Y48768D02*
X289300Y48100D01*
X313944Y201168D02*
X313360Y202600D01*
X185928Y304800D02*
X185928Y315468D01*
X198120Y327660D01*
X182880Y301752D02*
X182880Y278892D01*
X182880Y301752D02*
X185928Y304800D01*
D15*
X131064Y160020D03*
X198120Y327660D03*
X185928Y304800D03*
X182880Y278892D03*
D14*
X92964Y94488D02*
X74676Y76200D01*
X74676Y59436D01*
X85344Y48768D01*
X86100Y48100D01*
X85344Y411480D02*
X74676Y411480D01*
X64008Y400812D01*
X54864Y400812D01*
X25908Y371856D01*
X25908Y283464D01*
X102108Y207264D01*
X134112Y207264D01*
X85344Y411480D02*
X85900Y411900D01*
X158496Y83820D02*
X196596Y83820D01*
X158496Y83820D02*
X147828Y73152D01*
X147828Y70104D01*
X140208Y62484D01*
X132588Y62484D01*
X121920Y73152D01*
X121920Y77724D01*
X105156Y94488D01*
X92964Y94488D01*
D15*
X92964Y94488D03*
X134112Y207264D03*
X196596Y83820D03*
D14*
X220980Y320040D02*
X220980Y393192D01*
X192024Y422148D01*
X182880Y422148D01*
X172212Y411480D01*
X172212Y406908D01*
X166116Y400812D01*
X147828Y400812D01*
X141732Y406908D02*
X137160Y411480D01*
X141732Y406908D02*
X147828Y400812D01*
X137160Y411480D02*
X136700Y411900D01*
X114300Y376428D02*
X111252Y373380D01*
X114300Y376428D02*
X115824Y376428D01*
X126492Y387096D01*
X126492Y391668D01*
X141732Y406908D01*
X136700Y411900D01*
X77724Y288036D02*
X77724Y240792D01*
X77724Y288036D02*
X28956Y336804D01*
X28956Y370332D01*
X56388Y397764D01*
X89916Y397764D01*
X100584Y387096D01*
X100584Y382524D01*
X109728Y373380D01*
X111252Y373380D01*
D15*
X220980Y320040D03*
X111252Y373380D03*
X77724Y240792D03*
D14*
X193548Y257556D02*
X193548Y294132D01*
X193548Y257556D02*
X181356Y245364D01*
X181356Y199644D01*
X207264Y173736D01*
X207264Y167640D01*
X193548Y153924D01*
X160020Y153924D01*
D15*
X193548Y294132D03*
X160020Y153924D03*
D14*
X161544Y246888D02*
X161544Y309372D01*
X85344Y385572D01*
X85900Y386500D01*
D15*
X161544Y246888D03*
D14*
X190500Y220980D02*
X190500Y199644D01*
X237744Y152400D01*
X237744Y74676D01*
X238500Y73500D01*
X123444Y47244D02*
X112776Y47244D01*
X123444Y47244D02*
X135636Y35052D01*
X214884Y35052D01*
X227076Y47244D01*
X227076Y57912D01*
X237744Y68580D01*
X237744Y73152D01*
X112776Y47244D02*
X111500Y48100D01*
X237744Y73152D02*
X238500Y73500D01*
D15*
X190500Y220980D03*
D14*
X175260Y211836D02*
X175260Y388620D01*
X166116Y397764D01*
X147828Y397764D01*
X137160Y387096D01*
X136700Y386500D01*
D15*
X175260Y211836D03*
D14*
X216408Y227076D02*
X216408Y271272D01*
X230124Y284988D01*
X230124Y393192D01*
X195072Y428244D01*
X138684Y428244D01*
X121920Y411480D01*
X121920Y396240D01*
X112776Y387096D01*
X111300Y386500D01*
D15*
X216408Y227076D03*
D14*
X175260Y182880D02*
X170688Y182880D01*
X137160Y149352D01*
X137160Y74676D01*
X136900Y73500D01*
D15*
X175260Y182880D03*
D14*
X147828Y47244D02*
X137160Y47244D01*
X147828Y47244D02*
X156972Y38100D01*
X192024Y38100D01*
X202692Y48768D01*
X202692Y64008D01*
X211836Y73152D01*
X136900Y48100D02*
X137160Y47244D01*
X211836Y73152D02*
X213100Y73500D01*
X295656Y277368D02*
X295656Y292608D01*
X295656Y277368D02*
X309372Y263652D01*
X323088Y263652D01*
X329184Y257556D01*
X329184Y224028D01*
X316992Y211836D01*
X303276Y211836D01*
X248412Y156972D01*
X248412Y57912D01*
X239268Y48768D01*
X238500Y48100D01*
D15*
X295656Y292608D03*
D14*
X152400Y246888D02*
X118872Y213360D01*
X222504Y248412D02*
X228600Y248412D01*
X248412Y228600D01*
X312420Y228600D01*
X313360Y228000D01*
D15*
X118872Y213360D03*
X152400Y246888D03*
X222504Y248412D03*
D14*
X167640Y170688D02*
X150876Y153924D01*
X167640Y170688D02*
X201168Y170688D01*
X237744Y248412D02*
X307848Y248412D01*
X312420Y252984D01*
X313360Y253400D01*
D15*
X150876Y153924D03*
X201168Y170688D03*
X237744Y248412D03*
D14*
X59436Y411480D02*
X22860Y374904D01*
X22860Y254508D01*
X67056Y210312D01*
X59436Y411480D02*
X60500Y411900D01*
X252984Y47244D02*
X263652Y47244D01*
X252984Y47244D02*
X237744Y32004D01*
X112776Y32004D01*
X96012Y48768D01*
X96012Y64008D01*
X86868Y73152D01*
X263652Y47244D02*
X263900Y48100D01*
X86868Y73152D02*
X86100Y73500D01*
D15*
X67056Y210312D03*
D14*
X163068Y413004D02*
X169164Y413004D01*
X181356Y425196D01*
X193548Y425196D01*
X227076Y391668D01*
X227076Y286512D01*
X184404Y243840D01*
X184404Y201168D01*
X227076Y158496D01*
X227076Y62484D01*
X213360Y48768D01*
X162100Y411900D02*
X163068Y413004D01*
X213360Y48768D02*
X213100Y48100D01*
X188976Y399288D02*
X188976Y411480D01*
X188976Y399288D02*
X213360Y374904D01*
X213360Y281940D01*
X220980Y144780D02*
X220980Y96012D01*
X198120Y73152D01*
X198120Y57912D01*
X188976Y48768D01*
X188976Y411480D02*
X187500Y411900D01*
X188976Y48768D02*
X187700Y48100D01*
D15*
X213360Y281940D03*
X220980Y144780D03*
M02*
