G04 EAGLE Gerber RS-274X export*
G75*
%MOMM*%
%FSLAX34Y34*%
%LPD*%
%INSoldermask Bottom*%
%IPPOS*%
%AMOC8*
5,1,8,0,0,1.08239X$1,22.5*%
G01*
%ADD10C,2.203200*%
%ADD11R,1.303200X1.203200*%
%ADD12P,1.869504X8X202.500000*%
%ADD13C,3.403200*%
%ADD14C,1.511200*%
%ADD15P,1.869504X8X22.500000*%
%ADD16C,2.703200*%
%ADD17C,0.959600*%


D10*
X20000Y430000D03*
X20000Y20000D03*
X330000Y20000D03*
X330000Y430000D03*
D11*
X84370Y138340D03*
X67370Y138340D03*
D12*
X289300Y48100D03*
X263900Y48100D03*
X238500Y48100D03*
X213100Y48100D03*
X187700Y48100D03*
X162300Y48100D03*
X136900Y48100D03*
X111500Y48100D03*
X86100Y48100D03*
X60700Y48100D03*
X289300Y73500D03*
X263900Y73500D03*
X238500Y73500D03*
X213100Y73500D03*
X187700Y73500D03*
X162300Y73500D03*
X136900Y73500D03*
X111500Y73500D03*
X86100Y73500D03*
X60700Y73500D03*
D13*
X56200Y108000D03*
X296200Y108000D03*
X296200Y348000D03*
X56200Y348000D03*
D14*
X306820Y177200D02*
X319900Y177200D01*
X319900Y202600D02*
X306820Y202600D01*
X306820Y228000D02*
X319900Y228000D01*
X319900Y253400D02*
X306820Y253400D01*
X306820Y278800D02*
X319900Y278800D01*
D15*
X60500Y411900D03*
X85900Y411900D03*
X111300Y411900D03*
X136700Y411900D03*
X162100Y411900D03*
X187500Y411900D03*
X60500Y386500D03*
X85900Y386500D03*
X111300Y386500D03*
X136700Y386500D03*
X162100Y386500D03*
X187500Y386500D03*
D16*
X60000Y170000D03*
D10*
X320000Y310000D03*
D17*
X94488Y147828D03*
X131064Y160020D03*
X198120Y327660D03*
X185928Y304800D03*
X182880Y278892D03*
X92964Y94488D03*
X134112Y207264D03*
X196596Y83820D03*
X220980Y320040D03*
X111252Y373380D03*
X77724Y240792D03*
X193548Y294132D03*
X160020Y153924D03*
X161544Y246888D03*
X190500Y220980D03*
X175260Y211836D03*
X216408Y227076D03*
X175260Y182880D03*
X295656Y292608D03*
X118872Y213360D03*
X152400Y246888D03*
X222504Y248412D03*
X150876Y153924D03*
X201168Y170688D03*
X237744Y248412D03*
X67056Y210312D03*
X213360Y281940D03*
X220980Y144780D03*
M02*
