G04 EAGLE Gerber RS-274X export*
G75*
%MOMM*%
%FSLAX34Y34*%
%LPD*%
%INBottom Copper*%
%IPPOS*%
%AMOC8*
5,1,8,0,0,1.08239X$1,22.5*%
G01*
%ADD10C,1.508000*%
%ADD11R,1.100000X1.000000*%
%ADD12R,1.000000X1.100000*%
%ADD13R,1.800000X1.800000*%
%ADD14C,1.524000*%
%ADD15C,0.300000*%
%ADD16C,0.756400*%

G36*
X449979Y-39065D02*
X449979Y-39065D01*
X450083Y-39063D01*
X450150Y-39045D01*
X450219Y-39037D01*
X450317Y-39002D01*
X450418Y-38976D01*
X450479Y-38943D01*
X450544Y-38920D01*
X450631Y-38863D01*
X450723Y-38814D01*
X450776Y-38769D01*
X450833Y-38731D01*
X450905Y-38656D01*
X450984Y-38587D01*
X451024Y-38531D01*
X451072Y-38481D01*
X451125Y-38391D01*
X451186Y-38306D01*
X451212Y-38242D01*
X451247Y-38183D01*
X451278Y-38083D01*
X451318Y-37987D01*
X451329Y-37918D01*
X451349Y-37852D01*
X451356Y-37748D01*
X451373Y-37645D01*
X451368Y-37576D01*
X451373Y-37507D01*
X451356Y-37405D01*
X451348Y-37300D01*
X451328Y-37234D01*
X451317Y-37166D01*
X451277Y-37070D01*
X451246Y-36970D01*
X451211Y-36911D01*
X451184Y-36847D01*
X451123Y-36763D01*
X451070Y-36673D01*
X451001Y-36594D01*
X450982Y-36567D01*
X450965Y-36552D01*
X450935Y-36518D01*
X449866Y-35449D01*
X446554Y-29712D01*
X444839Y-23313D01*
X444839Y-16687D01*
X446554Y-10288D01*
X449866Y-4551D01*
X454551Y134D01*
X460288Y3446D01*
X466687Y5161D01*
X473313Y5161D01*
X479712Y3446D01*
X485449Y134D01*
X486518Y-935D01*
X486600Y-1000D01*
X486675Y-1072D01*
X486735Y-1107D01*
X486789Y-1150D01*
X486883Y-1194D01*
X486973Y-1247D01*
X487039Y-1267D01*
X487102Y-1297D01*
X487204Y-1318D01*
X487304Y-1349D01*
X487373Y-1354D01*
X487440Y-1368D01*
X487544Y-1366D01*
X487649Y-1373D01*
X487717Y-1362D01*
X487786Y-1360D01*
X487887Y-1334D01*
X487990Y-1317D01*
X488054Y-1290D01*
X488120Y-1273D01*
X488213Y-1224D01*
X488309Y-1184D01*
X488365Y-1144D01*
X488426Y-1111D01*
X488505Y-1043D01*
X488589Y-982D01*
X488635Y-930D01*
X488687Y-884D01*
X488748Y-800D01*
X488816Y-721D01*
X488848Y-659D01*
X488889Y-603D01*
X488928Y-507D01*
X488977Y-415D01*
X488994Y-348D01*
X489020Y-284D01*
X489037Y-181D01*
X489063Y-80D01*
X489070Y24D01*
X489076Y58D01*
X489074Y80D01*
X489077Y125D01*
X489077Y399875D01*
X489065Y399979D01*
X489063Y400083D01*
X489045Y400150D01*
X489037Y400219D01*
X489002Y400317D01*
X488976Y400418D01*
X488943Y400479D01*
X488920Y400544D01*
X488863Y400631D01*
X488814Y400723D01*
X488769Y400776D01*
X488731Y400833D01*
X488656Y400905D01*
X488587Y400984D01*
X488531Y401024D01*
X488481Y401072D01*
X488391Y401125D01*
X488306Y401186D01*
X488242Y401212D01*
X488183Y401247D01*
X488083Y401278D01*
X487987Y401318D01*
X487918Y401329D01*
X487852Y401349D01*
X487748Y401356D01*
X487645Y401373D01*
X487576Y401368D01*
X487507Y401373D01*
X487405Y401356D01*
X487300Y401348D01*
X487234Y401328D01*
X487166Y401317D01*
X487070Y401277D01*
X486970Y401246D01*
X486911Y401211D01*
X486847Y401184D01*
X486763Y401123D01*
X486673Y401070D01*
X486594Y401001D01*
X486567Y400982D01*
X486552Y400965D01*
X486518Y400935D01*
X485449Y399866D01*
X479712Y396554D01*
X473313Y394839D01*
X466687Y394839D01*
X460288Y396554D01*
X454551Y399866D01*
X449866Y404551D01*
X446554Y410288D01*
X444839Y416687D01*
X444839Y423313D01*
X446554Y429712D01*
X449866Y435449D01*
X450935Y436518D01*
X451000Y436600D01*
X451072Y436675D01*
X451107Y436735D01*
X451150Y436789D01*
X451194Y436883D01*
X451247Y436973D01*
X451267Y437039D01*
X451297Y437102D01*
X451318Y437204D01*
X451349Y437304D01*
X451354Y437373D01*
X451368Y437440D01*
X451366Y437544D01*
X451373Y437649D01*
X451362Y437717D01*
X451360Y437786D01*
X451334Y437887D01*
X451317Y437990D01*
X451290Y438054D01*
X451273Y438120D01*
X451224Y438213D01*
X451184Y438309D01*
X451144Y438365D01*
X451111Y438426D01*
X451043Y438505D01*
X450982Y438589D01*
X450930Y438635D01*
X450884Y438687D01*
X450800Y438748D01*
X450721Y438816D01*
X450659Y438848D01*
X450603Y438889D01*
X450507Y438928D01*
X450415Y438977D01*
X450348Y438994D01*
X450284Y439020D01*
X450181Y439037D01*
X450080Y439063D01*
X449976Y439070D01*
X449942Y439076D01*
X449920Y439074D01*
X449875Y439077D01*
X12422Y439077D01*
X12387Y439073D01*
X12351Y439076D01*
X12215Y439053D01*
X12079Y439037D01*
X12045Y439025D01*
X12010Y439020D01*
X11883Y438967D01*
X11753Y438920D01*
X11724Y438901D01*
X11691Y438887D01*
X11579Y438806D01*
X11464Y438731D01*
X11439Y438705D01*
X11411Y438685D01*
X11320Y438581D01*
X11225Y438481D01*
X11207Y438450D01*
X11184Y438424D01*
X11120Y438301D01*
X11050Y438183D01*
X11040Y438149D01*
X11023Y438117D01*
X10989Y437984D01*
X10948Y437852D01*
X10946Y437817D01*
X10937Y437783D01*
X10923Y437578D01*
X10923Y125D01*
X10935Y21D01*
X10937Y-83D01*
X10955Y-150D01*
X10963Y-219D01*
X10998Y-317D01*
X11024Y-418D01*
X11057Y-479D01*
X11080Y-544D01*
X11137Y-631D01*
X11186Y-723D01*
X11231Y-776D01*
X11269Y-833D01*
X11344Y-905D01*
X11413Y-984D01*
X11469Y-1024D01*
X11519Y-1072D01*
X11609Y-1125D01*
X11694Y-1186D01*
X11758Y-1212D01*
X11817Y-1247D01*
X11917Y-1278D01*
X12013Y-1318D01*
X12082Y-1329D01*
X12148Y-1349D01*
X12252Y-1356D01*
X12355Y-1373D01*
X12424Y-1368D01*
X12493Y-1373D01*
X12595Y-1356D01*
X12700Y-1349D01*
X12766Y-1328D01*
X12834Y-1317D01*
X12930Y-1277D01*
X13030Y-1246D01*
X13089Y-1211D01*
X13153Y-1184D01*
X13237Y-1123D01*
X13327Y-1070D01*
X13406Y-1001D01*
X13433Y-982D01*
X13448Y-965D01*
X13482Y-935D01*
X14551Y134D01*
X20288Y3446D01*
X26687Y5161D01*
X33313Y5161D01*
X39712Y3446D01*
X45449Y134D01*
X50134Y-4551D01*
X53446Y-10288D01*
X55161Y-16687D01*
X55161Y-23313D01*
X53446Y-29712D01*
X50134Y-35449D01*
X49065Y-36518D01*
X49000Y-36600D01*
X48928Y-36675D01*
X48893Y-36735D01*
X48850Y-36789D01*
X48806Y-36883D01*
X48753Y-36973D01*
X48733Y-37039D01*
X48703Y-37102D01*
X48682Y-37204D01*
X48651Y-37304D01*
X48646Y-37373D01*
X48632Y-37440D01*
X48634Y-37544D01*
X48627Y-37649D01*
X48638Y-37717D01*
X48640Y-37786D01*
X48666Y-37887D01*
X48683Y-37990D01*
X48710Y-38054D01*
X48727Y-38120D01*
X48776Y-38213D01*
X48816Y-38309D01*
X48856Y-38365D01*
X48889Y-38426D01*
X48957Y-38505D01*
X49018Y-38589D01*
X49070Y-38635D01*
X49116Y-38687D01*
X49200Y-38748D01*
X49279Y-38816D01*
X49341Y-38848D01*
X49397Y-38889D01*
X49493Y-38928D01*
X49585Y-38977D01*
X49652Y-38994D01*
X49716Y-39020D01*
X49819Y-39037D01*
X49920Y-39063D01*
X50024Y-39070D01*
X50058Y-39076D01*
X50080Y-39074D01*
X50125Y-39077D01*
X449875Y-39077D01*
X449979Y-39065D01*
G37*
%LPC*%
G36*
X280235Y89771D02*
X280235Y89771D01*
X280203Y89806D01*
X280115Y89885D01*
X280033Y89970D01*
X279987Y90000D01*
X279945Y90037D01*
X279842Y90093D01*
X279743Y90157D01*
X279691Y90176D01*
X279642Y90202D01*
X279528Y90234D01*
X279417Y90273D01*
X279362Y90279D01*
X279308Y90294D01*
X279191Y90298D01*
X279073Y90311D01*
X279018Y90305D01*
X278963Y90307D01*
X278847Y90284D01*
X278730Y90270D01*
X278678Y90251D01*
X278624Y90240D01*
X278516Y90191D01*
X278406Y90151D01*
X278338Y90111D01*
X278309Y90097D01*
X278286Y90080D01*
X278229Y90046D01*
X275497Y88160D01*
X268667Y87331D01*
X262235Y89771D01*
X257673Y94920D01*
X256026Y101600D01*
X257673Y108280D01*
X261062Y112106D01*
X261096Y112154D01*
X261137Y112197D01*
X261195Y112296D01*
X261260Y112389D01*
X261282Y112444D01*
X261312Y112495D01*
X261345Y112604D01*
X261388Y112711D01*
X261396Y112769D01*
X261414Y112826D01*
X261422Y112940D01*
X261438Y113053D01*
X261433Y113112D01*
X261437Y113171D01*
X261419Y113283D01*
X261409Y113397D01*
X261391Y113453D01*
X261381Y113512D01*
X261338Y113617D01*
X261302Y113726D01*
X261271Y113777D01*
X261249Y113831D01*
X261182Y113924D01*
X261123Y114021D01*
X261081Y114063D01*
X261047Y114111D01*
X260960Y114186D01*
X260880Y114268D01*
X260830Y114299D01*
X260785Y114338D01*
X260684Y114391D01*
X260588Y114452D01*
X260532Y114471D01*
X260479Y114499D01*
X260369Y114527D01*
X260261Y114565D01*
X260202Y114570D01*
X260145Y114585D01*
X259940Y114599D01*
X257480Y114599D01*
X257342Y114583D01*
X257202Y114573D01*
X257170Y114563D01*
X257136Y114559D01*
X257006Y114512D01*
X256872Y114471D01*
X256843Y114453D01*
X256811Y114442D01*
X256694Y114366D01*
X256574Y114295D01*
X256540Y114265D01*
X256522Y114253D01*
X256498Y114229D01*
X256420Y114160D01*
X250073Y107813D01*
X204157Y107813D01*
X204019Y107797D01*
X203880Y107787D01*
X203847Y107777D01*
X203814Y107773D01*
X203683Y107726D01*
X203549Y107685D01*
X203520Y107667D01*
X203489Y107656D01*
X203372Y107580D01*
X203252Y107509D01*
X203218Y107479D01*
X203199Y107467D01*
X203176Y107443D01*
X203097Y107374D01*
X202062Y106339D01*
X200112Y105531D01*
X198000Y105531D01*
X196050Y106339D01*
X194557Y107832D01*
X193749Y109782D01*
X193749Y111894D01*
X194557Y113844D01*
X195015Y114302D01*
X195080Y114384D01*
X195152Y114459D01*
X195187Y114519D01*
X195230Y114573D01*
X195274Y114667D01*
X195327Y114757D01*
X195347Y114823D01*
X195377Y114886D01*
X195398Y114988D01*
X195429Y115088D01*
X195434Y115157D01*
X195448Y115224D01*
X195445Y115328D01*
X195453Y115433D01*
X195441Y115501D01*
X195440Y115570D01*
X195413Y115671D01*
X195397Y115774D01*
X195370Y115837D01*
X195353Y115904D01*
X195304Y115997D01*
X195264Y116093D01*
X195223Y116149D01*
X195191Y116210D01*
X195123Y116289D01*
X195062Y116373D01*
X195009Y116419D01*
X194964Y116471D01*
X194879Y116532D01*
X194800Y116600D01*
X194739Y116632D01*
X194683Y116673D01*
X194587Y116712D01*
X194494Y116761D01*
X194427Y116778D01*
X194364Y116804D01*
X194261Y116821D01*
X194160Y116847D01*
X194056Y116854D01*
X194022Y116860D01*
X194000Y116858D01*
X193955Y116861D01*
X182834Y116861D01*
X182696Y116845D01*
X182556Y116835D01*
X182524Y116825D01*
X182490Y116821D01*
X182360Y116774D01*
X182226Y116733D01*
X182197Y116715D01*
X182165Y116704D01*
X182048Y116628D01*
X181928Y116557D01*
X181894Y116527D01*
X181876Y116515D01*
X181861Y116500D01*
X181859Y116499D01*
X181848Y116487D01*
X181774Y116422D01*
X177689Y112337D01*
X157087Y112337D01*
X150791Y118633D01*
X150791Y153239D01*
X150779Y153343D01*
X150777Y153447D01*
X150759Y153514D01*
X150751Y153582D01*
X150716Y153680D01*
X150690Y153781D01*
X150657Y153843D01*
X150634Y153908D01*
X150577Y153995D01*
X150528Y154087D01*
X150483Y154139D01*
X150445Y154197D01*
X150370Y154269D01*
X150301Y154348D01*
X150245Y154388D01*
X150195Y154436D01*
X150105Y154489D01*
X150020Y154549D01*
X149956Y154576D01*
X149897Y154611D01*
X149797Y154642D01*
X149701Y154681D01*
X149632Y154692D01*
X149566Y154713D01*
X149462Y154720D01*
X149359Y154737D01*
X149290Y154732D01*
X149221Y154737D01*
X149119Y154720D01*
X149014Y154712D01*
X148948Y154692D01*
X148880Y154681D01*
X148784Y154641D01*
X148684Y154609D01*
X148625Y154574D01*
X148561Y154548D01*
X148476Y154487D01*
X148387Y154434D01*
X148308Y154365D01*
X148281Y154346D01*
X148266Y154329D01*
X148232Y154299D01*
X147774Y153841D01*
X145824Y153033D01*
X143712Y153033D01*
X141762Y153841D01*
X140269Y155334D01*
X139461Y157284D01*
X139461Y158748D01*
X139445Y158886D01*
X139435Y159026D01*
X139425Y159058D01*
X139421Y159092D01*
X139374Y159222D01*
X139333Y159356D01*
X139315Y159385D01*
X139304Y159417D01*
X139228Y159534D01*
X139157Y159654D01*
X139127Y159688D01*
X139115Y159706D01*
X139091Y159730D01*
X139022Y159808D01*
X115700Y183130D01*
X115618Y183195D01*
X115543Y183267D01*
X115483Y183302D01*
X115429Y183345D01*
X115335Y183389D01*
X115245Y183442D01*
X115179Y183462D01*
X115116Y183492D01*
X115014Y183513D01*
X114914Y183544D01*
X114845Y183549D01*
X114778Y183563D01*
X114674Y183561D01*
X114569Y183568D01*
X114501Y183557D01*
X114432Y183555D01*
X114331Y183529D01*
X114228Y183512D01*
X114164Y183485D01*
X114098Y183468D01*
X114005Y183419D01*
X113909Y183379D01*
X113853Y183339D01*
X113792Y183306D01*
X113713Y183238D01*
X113629Y183177D01*
X113583Y183125D01*
X113531Y183079D01*
X113470Y182995D01*
X113402Y182916D01*
X113370Y182855D01*
X113329Y182798D01*
X113290Y182702D01*
X113241Y182610D01*
X113224Y182543D01*
X113197Y182479D01*
X113181Y182376D01*
X113155Y182275D01*
X113148Y182171D01*
X113142Y182138D01*
X113144Y182115D01*
X113141Y182070D01*
X113141Y180799D01*
X104599Y180799D01*
X104599Y189341D01*
X105870Y189341D01*
X105974Y189353D01*
X106078Y189355D01*
X106145Y189373D01*
X106214Y189381D01*
X106312Y189416D01*
X106413Y189442D01*
X106474Y189475D01*
X106539Y189498D01*
X106626Y189555D01*
X106718Y189604D01*
X106770Y189649D01*
X106828Y189687D01*
X106900Y189762D01*
X106979Y189831D01*
X107019Y189887D01*
X107067Y189937D01*
X107120Y190027D01*
X107181Y190112D01*
X107207Y190176D01*
X107242Y190235D01*
X107273Y190335D01*
X107313Y190431D01*
X107324Y190500D01*
X107344Y190566D01*
X107351Y190670D01*
X107368Y190773D01*
X107363Y190842D01*
X107368Y190911D01*
X107351Y191013D01*
X107344Y191118D01*
X107323Y191184D01*
X107312Y191252D01*
X107272Y191348D01*
X107241Y191448D01*
X107206Y191507D01*
X107179Y191571D01*
X107118Y191656D01*
X107065Y191745D01*
X106997Y191824D01*
X106977Y191851D01*
X106960Y191866D01*
X106930Y191900D01*
X57998Y240832D01*
X57889Y240919D01*
X57784Y241010D01*
X57754Y241026D01*
X57727Y241047D01*
X57601Y241106D01*
X57478Y241171D01*
X57445Y241179D01*
X57414Y241194D01*
X57278Y241222D01*
X57143Y241257D01*
X57098Y241260D01*
X57076Y241265D01*
X57042Y241264D01*
X56938Y241271D01*
X35728Y241271D01*
X35641Y241261D01*
X35553Y241261D01*
X35469Y241241D01*
X35384Y241231D01*
X35302Y241202D01*
X35217Y241182D01*
X35140Y241143D01*
X35059Y241114D01*
X34986Y241066D01*
X34907Y241027D01*
X34841Y240972D01*
X34769Y240925D01*
X34709Y240862D01*
X34642Y240806D01*
X34590Y240737D01*
X34531Y240675D01*
X34486Y240599D01*
X34434Y240529D01*
X34370Y240401D01*
X34356Y240377D01*
X34356Y240376D01*
X31805Y237825D01*
X28473Y236445D01*
X24867Y236445D01*
X21535Y237825D01*
X18985Y240375D01*
X17605Y243707D01*
X17605Y247313D01*
X18985Y250645D01*
X21535Y253195D01*
X24867Y254575D01*
X28473Y254575D01*
X31805Y253195D01*
X34355Y250645D01*
X35348Y248246D01*
X35391Y248170D01*
X35424Y248089D01*
X35475Y248019D01*
X35516Y247944D01*
X35575Y247880D01*
X35627Y247809D01*
X35692Y247752D01*
X35749Y247689D01*
X35822Y247639D01*
X35888Y247582D01*
X35964Y247542D01*
X36035Y247493D01*
X36116Y247462D01*
X36194Y247421D01*
X36277Y247400D01*
X36357Y247369D01*
X36444Y247357D01*
X36529Y247335D01*
X36672Y247325D01*
X36700Y247321D01*
X36712Y247322D01*
X36733Y247321D01*
X56938Y247321D01*
X57076Y247337D01*
X57216Y247347D01*
X57248Y247357D01*
X57282Y247361D01*
X57412Y247408D01*
X57546Y247449D01*
X57575Y247467D01*
X57607Y247478D01*
X57724Y247554D01*
X57844Y247625D01*
X57878Y247655D01*
X57896Y247667D01*
X57920Y247691D01*
X57998Y247760D01*
X96064Y285826D01*
X96151Y285935D01*
X96242Y286040D01*
X96258Y286070D01*
X96279Y286097D01*
X96338Y286223D01*
X96403Y286346D01*
X96411Y286379D01*
X96426Y286410D01*
X96454Y286546D01*
X96489Y286681D01*
X96492Y286726D01*
X96497Y286748D01*
X96496Y286782D01*
X96503Y286886D01*
X96503Y330876D01*
X96499Y330911D01*
X96502Y330947D01*
X96479Y331083D01*
X96463Y331219D01*
X96451Y331253D01*
X96446Y331288D01*
X96393Y331415D01*
X96346Y331545D01*
X96327Y331574D01*
X96313Y331607D01*
X96232Y331719D01*
X96157Y331834D01*
X96131Y331859D01*
X96111Y331887D01*
X96007Y331978D01*
X95907Y332073D01*
X95876Y332091D01*
X95850Y332114D01*
X95727Y332178D01*
X95609Y332248D01*
X95575Y332258D01*
X95543Y332275D01*
X95410Y332309D01*
X95278Y332350D01*
X95243Y332352D01*
X95209Y332361D01*
X95004Y332375D01*
X91968Y332375D01*
X91075Y333268D01*
X91075Y352532D01*
X91968Y353425D01*
X111232Y353425D01*
X112125Y352532D01*
X112125Y333268D01*
X111232Y332375D01*
X104052Y332375D01*
X104017Y332371D01*
X103981Y332374D01*
X103845Y332351D01*
X103709Y332335D01*
X103675Y332323D01*
X103640Y332318D01*
X103513Y332265D01*
X103383Y332218D01*
X103354Y332199D01*
X103321Y332185D01*
X103209Y332104D01*
X103094Y332029D01*
X103069Y332003D01*
X103041Y331983D01*
X102950Y331879D01*
X102855Y331779D01*
X102837Y331748D01*
X102814Y331722D01*
X102750Y331599D01*
X102680Y331481D01*
X102670Y331447D01*
X102653Y331415D01*
X102619Y331282D01*
X102578Y331150D01*
X102576Y331115D01*
X102567Y331081D01*
X102553Y330876D01*
X102553Y317257D01*
X102565Y317153D01*
X102567Y317049D01*
X102585Y316982D01*
X102593Y316914D01*
X102628Y316816D01*
X102654Y316715D01*
X102687Y316653D01*
X102710Y316588D01*
X102767Y316501D01*
X102816Y316409D01*
X102861Y316357D01*
X102899Y316299D01*
X102974Y316227D01*
X103043Y316148D01*
X103099Y316108D01*
X103149Y316060D01*
X103239Y316007D01*
X103324Y315947D01*
X103388Y315920D01*
X103447Y315885D01*
X103547Y315854D01*
X103643Y315815D01*
X103712Y315804D01*
X103778Y315783D01*
X103882Y315776D01*
X103985Y315759D01*
X104054Y315764D01*
X104123Y315759D01*
X104225Y315776D01*
X104330Y315784D01*
X104396Y315804D01*
X104464Y315815D01*
X104560Y315855D01*
X104660Y315887D01*
X104719Y315922D01*
X104783Y315948D01*
X104868Y316009D01*
X104957Y316062D01*
X105036Y316131D01*
X105063Y316150D01*
X105078Y316167D01*
X105112Y316197D01*
X105570Y316655D01*
X107520Y317463D01*
X109632Y317463D01*
X111582Y316655D01*
X113075Y315162D01*
X113883Y313212D01*
X113883Y311100D01*
X113075Y309150D01*
X112040Y308115D01*
X111953Y308006D01*
X111862Y307900D01*
X111846Y307870D01*
X111825Y307844D01*
X111766Y307718D01*
X111701Y307594D01*
X111693Y307562D01*
X111678Y307531D01*
X111650Y307395D01*
X111615Y307260D01*
X111612Y307214D01*
X111607Y307193D01*
X111608Y307159D01*
X111601Y307055D01*
X111601Y282362D01*
X111617Y282224D01*
X111627Y282084D01*
X111637Y282052D01*
X111641Y282018D01*
X111688Y281888D01*
X111729Y281754D01*
X111747Y281725D01*
X111758Y281693D01*
X111834Y281576D01*
X111905Y281456D01*
X111935Y281422D01*
X111947Y281404D01*
X111971Y281380D01*
X112040Y281302D01*
X118418Y274924D01*
X118527Y274837D01*
X118632Y274746D01*
X118662Y274730D01*
X118689Y274709D01*
X118815Y274650D01*
X118938Y274585D01*
X118971Y274577D01*
X119002Y274562D01*
X119138Y274534D01*
X119273Y274499D01*
X119318Y274496D01*
X119340Y274491D01*
X119374Y274492D01*
X119478Y274485D01*
X120942Y274485D01*
X122892Y273677D01*
X124385Y272184D01*
X125193Y270234D01*
X125193Y268122D01*
X124385Y266172D01*
X122892Y264679D01*
X120942Y263871D01*
X118830Y263871D01*
X116880Y264679D01*
X115387Y266172D01*
X114579Y268122D01*
X114579Y269586D01*
X114563Y269724D01*
X114553Y269864D01*
X114543Y269896D01*
X114539Y269930D01*
X114492Y270060D01*
X114451Y270194D01*
X114433Y270223D01*
X114422Y270255D01*
X114346Y270372D01*
X114275Y270492D01*
X114245Y270526D01*
X114233Y270544D01*
X114209Y270568D01*
X114140Y270646D01*
X105551Y279235D01*
X105551Y307055D01*
X105543Y307126D01*
X105544Y307198D01*
X105523Y307297D01*
X105511Y307398D01*
X105487Y307466D01*
X105472Y307536D01*
X105395Y307721D01*
X105394Y307724D01*
X105393Y307724D01*
X105393Y307725D01*
X105298Y307870D01*
X105205Y308013D01*
X105204Y308014D01*
X105204Y308015D01*
X105076Y308136D01*
X104955Y308252D01*
X104954Y308252D01*
X104953Y308253D01*
X104805Y308340D01*
X104657Y308427D01*
X104656Y308427D01*
X104655Y308428D01*
X104495Y308477D01*
X104326Y308529D01*
X104325Y308529D01*
X104324Y308529D01*
X104153Y308541D01*
X103981Y308553D01*
X103980Y308552D01*
X103979Y308552D01*
X103803Y308523D01*
X103640Y308497D01*
X103639Y308496D01*
X103638Y308496D01*
X103468Y308425D01*
X103321Y308364D01*
X103320Y308363D01*
X103319Y308363D01*
X103175Y308258D01*
X103041Y308162D01*
X103040Y308161D01*
X103039Y308160D01*
X102929Y308033D01*
X102814Y307900D01*
X102813Y307900D01*
X102813Y307899D01*
X102728Y307737D01*
X102653Y307594D01*
X102653Y307593D01*
X102652Y307592D01*
X102611Y307431D01*
X102567Y307260D01*
X102567Y307258D01*
X102566Y307258D01*
X102566Y307255D01*
X102553Y307055D01*
X102553Y283759D01*
X64150Y245356D01*
X64128Y245328D01*
X64101Y245305D01*
X64021Y245193D01*
X63935Y245085D01*
X63920Y245053D01*
X63899Y245024D01*
X63847Y244897D01*
X63788Y244772D01*
X63781Y244737D01*
X63767Y244705D01*
X63745Y244568D01*
X63717Y244434D01*
X63718Y244398D01*
X63712Y244363D01*
X63722Y244226D01*
X63725Y244088D01*
X63734Y244054D01*
X63737Y244018D01*
X63778Y243887D01*
X63812Y243754D01*
X63829Y243722D01*
X63839Y243688D01*
X63904Y243578D01*
X63916Y243550D01*
X63930Y243531D01*
X63974Y243448D01*
X63997Y243421D01*
X64015Y243391D01*
X64108Y243284D01*
X64118Y243270D01*
X64127Y243262D01*
X64150Y243236D01*
X143300Y164086D01*
X143409Y163999D01*
X143514Y163908D01*
X143544Y163892D01*
X143571Y163871D01*
X143697Y163812D01*
X143820Y163747D01*
X143853Y163739D01*
X143884Y163724D01*
X144020Y163696D01*
X144155Y163661D01*
X144200Y163658D01*
X144222Y163653D01*
X144256Y163654D01*
X144360Y163647D01*
X145824Y163647D01*
X147774Y162839D01*
X148232Y162381D01*
X148314Y162316D01*
X148389Y162244D01*
X148449Y162209D01*
X148503Y162166D01*
X148597Y162122D01*
X148687Y162069D01*
X148753Y162049D01*
X148816Y162019D01*
X148918Y161998D01*
X149018Y161967D01*
X149087Y161962D01*
X149154Y161948D01*
X149258Y161951D01*
X149363Y161943D01*
X149431Y161955D01*
X149500Y161956D01*
X149601Y161983D01*
X149704Y161999D01*
X149767Y162026D01*
X149834Y162043D01*
X149927Y162092D01*
X150023Y162132D01*
X150079Y162173D01*
X150140Y162205D01*
X150219Y162273D01*
X150303Y162334D01*
X150349Y162387D01*
X150401Y162432D01*
X150462Y162517D01*
X150530Y162596D01*
X150562Y162657D01*
X150603Y162713D01*
X150642Y162809D01*
X150691Y162902D01*
X150708Y162969D01*
X150734Y163032D01*
X150751Y163135D01*
X150777Y163236D01*
X150784Y163340D01*
X150790Y163374D01*
X150788Y163396D01*
X150791Y163441D01*
X150791Y191261D01*
X180146Y220616D01*
X180168Y220644D01*
X180195Y220667D01*
X180275Y220779D01*
X180361Y220887D01*
X180376Y220919D01*
X180397Y220948D01*
X180449Y221075D01*
X180508Y221200D01*
X180515Y221235D01*
X180529Y221267D01*
X180551Y221404D01*
X180579Y221538D01*
X180578Y221574D01*
X180584Y221609D01*
X180574Y221746D01*
X180571Y221884D01*
X180562Y221918D01*
X180559Y221954D01*
X180518Y222085D01*
X180484Y222218D01*
X180467Y222250D01*
X180457Y222284D01*
X180387Y222403D01*
X180322Y222524D01*
X180299Y222551D01*
X180281Y222581D01*
X180146Y222736D01*
X155264Y247618D01*
X153053Y249829D01*
X153053Y336032D01*
X153131Y336141D01*
X153217Y336249D01*
X153232Y336281D01*
X153253Y336310D01*
X153305Y336437D01*
X153364Y336562D01*
X153371Y336596D01*
X153385Y336629D01*
X153407Y336766D01*
X153435Y336900D01*
X153434Y336936D01*
X153440Y336971D01*
X153430Y337108D01*
X153427Y337246D01*
X153418Y337280D01*
X153415Y337316D01*
X153375Y337447D01*
X153340Y337580D01*
X153323Y337612D01*
X153313Y337646D01*
X153243Y337764D01*
X153178Y337886D01*
X153155Y337913D01*
X153137Y337943D01*
X153002Y338098D01*
X110837Y380264D01*
X110809Y380286D01*
X110786Y380312D01*
X110673Y380393D01*
X110566Y380478D01*
X110534Y380493D01*
X110505Y380514D01*
X110377Y380567D01*
X110253Y380625D01*
X110218Y380633D01*
X110185Y380646D01*
X110049Y380668D01*
X109914Y380697D01*
X109879Y380696D01*
X109844Y380701D01*
X109706Y380692D01*
X109569Y380688D01*
X109534Y380679D01*
X109499Y380677D01*
X109367Y380636D01*
X109234Y380601D01*
X109203Y380585D01*
X109169Y380574D01*
X109050Y380504D01*
X108928Y380440D01*
X108902Y380417D01*
X108871Y380399D01*
X108716Y380264D01*
X106780Y378327D01*
X103419Y376935D01*
X99781Y376935D01*
X96420Y378327D01*
X93847Y380900D01*
X92455Y384261D01*
X92455Y403139D01*
X93847Y406500D01*
X96420Y409073D01*
X99781Y410465D01*
X103419Y410465D01*
X106780Y409073D01*
X109353Y406500D01*
X110745Y403139D01*
X110745Y389532D01*
X110761Y389394D01*
X110771Y389254D01*
X110781Y389222D01*
X110785Y389188D01*
X110832Y389058D01*
X110873Y388924D01*
X110891Y388895D01*
X110902Y388863D01*
X110978Y388746D01*
X111049Y388626D01*
X111079Y388592D01*
X111091Y388574D01*
X111115Y388550D01*
X111184Y388472D01*
X114280Y385376D01*
X114362Y385311D01*
X114437Y385239D01*
X114497Y385204D01*
X114551Y385161D01*
X114645Y385117D01*
X114735Y385064D01*
X114801Y385044D01*
X114864Y385014D01*
X114966Y384993D01*
X115066Y384962D01*
X115135Y384957D01*
X115202Y384943D01*
X115306Y384945D01*
X115411Y384938D01*
X115479Y384949D01*
X115548Y384951D01*
X115649Y384977D01*
X115752Y384994D01*
X115816Y385021D01*
X115882Y385038D01*
X115975Y385087D01*
X116071Y385127D01*
X116127Y385167D01*
X116188Y385200D01*
X116267Y385268D01*
X116351Y385329D01*
X116397Y385381D01*
X116449Y385427D01*
X116510Y385511D01*
X116578Y385590D01*
X116610Y385651D01*
X116651Y385708D01*
X116690Y385804D01*
X116739Y385896D01*
X116756Y385963D01*
X116783Y386027D01*
X116799Y386130D01*
X116825Y386231D01*
X116832Y386335D01*
X116838Y386368D01*
X116836Y386391D01*
X116839Y386436D01*
X116839Y391161D01*
X124461Y391161D01*
X124461Y375816D01*
X124477Y375678D01*
X124487Y375538D01*
X124497Y375506D01*
X124501Y375472D01*
X124548Y375342D01*
X124589Y375208D01*
X124607Y375179D01*
X124618Y375147D01*
X124694Y375031D01*
X124765Y374910D01*
X124795Y374876D01*
X124807Y374858D01*
X124831Y374834D01*
X124900Y374756D01*
X152016Y347640D01*
X152098Y347575D01*
X152173Y347503D01*
X152233Y347468D01*
X152287Y347425D01*
X152381Y347381D01*
X152471Y347328D01*
X152537Y347308D01*
X152600Y347278D01*
X152702Y347257D01*
X152802Y347226D01*
X152871Y347221D01*
X152938Y347207D01*
X153042Y347209D01*
X153147Y347202D01*
X153215Y347213D01*
X153284Y347215D01*
X153385Y347241D01*
X153488Y347258D01*
X153552Y347285D01*
X153618Y347302D01*
X153711Y347351D01*
X153807Y347391D01*
X153863Y347431D01*
X153924Y347464D01*
X154003Y347532D01*
X154087Y347593D01*
X154133Y347645D01*
X154185Y347691D01*
X154246Y347775D01*
X154314Y347854D01*
X154346Y347915D01*
X154387Y347972D01*
X154426Y348068D01*
X154475Y348160D01*
X154492Y348227D01*
X154519Y348291D01*
X154535Y348394D01*
X154561Y348495D01*
X154568Y348599D01*
X154574Y348632D01*
X154572Y348655D01*
X154575Y348700D01*
X154575Y352532D01*
X155468Y353425D01*
X169828Y353425D01*
X169966Y353441D01*
X170106Y353451D01*
X170138Y353461D01*
X170172Y353465D01*
X170302Y353512D01*
X170436Y353553D01*
X170465Y353571D01*
X170497Y353582D01*
X170614Y353658D01*
X170734Y353729D01*
X170768Y353759D01*
X170786Y353771D01*
X170810Y353795D01*
X170888Y353864D01*
X179707Y362683D01*
X256859Y362683D01*
X285826Y333716D01*
X285935Y333629D01*
X286040Y333538D01*
X286070Y333522D01*
X286097Y333501D01*
X286223Y333442D01*
X286346Y333377D01*
X286379Y333369D01*
X286410Y333354D01*
X286546Y333326D01*
X286681Y333291D01*
X286726Y333288D01*
X286748Y333283D01*
X286782Y333284D01*
X286886Y333277D01*
X311499Y333277D01*
X311638Y333293D01*
X311777Y333303D01*
X311809Y333313D01*
X311843Y333317D01*
X311974Y333364D01*
X312107Y333405D01*
X312136Y333423D01*
X312168Y333434D01*
X312285Y333510D01*
X312405Y333581D01*
X312439Y333611D01*
X312458Y333623D01*
X312481Y333647D01*
X312560Y333716D01*
X313868Y335025D01*
X326132Y335025D01*
X327025Y334132D01*
X327025Y332514D01*
X327029Y332479D01*
X327026Y332443D01*
X327049Y332307D01*
X327065Y332171D01*
X327077Y332137D01*
X327082Y332102D01*
X327135Y331975D01*
X327182Y331845D01*
X327201Y331816D01*
X327215Y331783D01*
X327296Y331671D01*
X327371Y331556D01*
X327397Y331531D01*
X327417Y331503D01*
X327521Y331412D01*
X327621Y331317D01*
X327652Y331299D01*
X327678Y331276D01*
X327801Y331212D01*
X327919Y331142D01*
X327953Y331132D01*
X327985Y331115D01*
X328118Y331081D01*
X328250Y331040D01*
X328285Y331038D01*
X328319Y331029D01*
X328524Y331015D01*
X341476Y331015D01*
X341511Y331019D01*
X341547Y331016D01*
X341683Y331039D01*
X341819Y331055D01*
X341853Y331067D01*
X341888Y331072D01*
X342015Y331125D01*
X342145Y331172D01*
X342174Y331191D01*
X342207Y331205D01*
X342319Y331286D01*
X342434Y331361D01*
X342459Y331387D01*
X342487Y331407D01*
X342578Y331511D01*
X342673Y331611D01*
X342691Y331642D01*
X342714Y331668D01*
X342778Y331791D01*
X342848Y331909D01*
X342858Y331943D01*
X342875Y331975D01*
X342909Y332108D01*
X342950Y332240D01*
X342952Y332275D01*
X342961Y332309D01*
X342975Y332514D01*
X342975Y334132D01*
X343868Y335025D01*
X356132Y335025D01*
X357025Y334132D01*
X357025Y332514D01*
X357029Y332479D01*
X357026Y332443D01*
X357049Y332307D01*
X357065Y332171D01*
X357077Y332137D01*
X357082Y332102D01*
X357135Y331975D01*
X357182Y331845D01*
X357201Y331816D01*
X357215Y331783D01*
X357296Y331671D01*
X357371Y331556D01*
X357397Y331531D01*
X357417Y331503D01*
X357521Y331412D01*
X357621Y331317D01*
X357652Y331299D01*
X357678Y331276D01*
X357801Y331212D01*
X357919Y331142D01*
X357953Y331132D01*
X357985Y331115D01*
X358118Y331081D01*
X358250Y331040D01*
X358285Y331038D01*
X358319Y331029D01*
X358524Y331015D01*
X371476Y331015D01*
X371511Y331019D01*
X371547Y331016D01*
X371683Y331039D01*
X371819Y331055D01*
X371853Y331067D01*
X371888Y331072D01*
X372015Y331125D01*
X372145Y331172D01*
X372174Y331191D01*
X372207Y331205D01*
X372319Y331286D01*
X372434Y331361D01*
X372459Y331387D01*
X372487Y331407D01*
X372578Y331511D01*
X372673Y331611D01*
X372691Y331642D01*
X372714Y331668D01*
X372778Y331791D01*
X372848Y331909D01*
X372858Y331943D01*
X372875Y331975D01*
X372909Y332108D01*
X372950Y332240D01*
X372952Y332275D01*
X372961Y332309D01*
X372975Y332514D01*
X372975Y334132D01*
X373868Y335025D01*
X386132Y335025D01*
X387025Y334132D01*
X387025Y332514D01*
X387029Y332479D01*
X387026Y332443D01*
X387049Y332307D01*
X387065Y332171D01*
X387077Y332137D01*
X387082Y332102D01*
X387135Y331975D01*
X387182Y331845D01*
X387201Y331816D01*
X387215Y331783D01*
X387296Y331671D01*
X387371Y331556D01*
X387397Y331531D01*
X387417Y331503D01*
X387521Y331412D01*
X387621Y331317D01*
X387652Y331299D01*
X387678Y331276D01*
X387801Y331212D01*
X387919Y331142D01*
X387953Y331132D01*
X387985Y331115D01*
X388118Y331081D01*
X388250Y331040D01*
X388285Y331038D01*
X388319Y331029D01*
X388524Y331015D01*
X401476Y331015D01*
X401511Y331019D01*
X401547Y331016D01*
X401683Y331039D01*
X401819Y331055D01*
X401853Y331067D01*
X401888Y331072D01*
X402015Y331125D01*
X402145Y331172D01*
X402174Y331191D01*
X402207Y331205D01*
X402319Y331286D01*
X402434Y331361D01*
X402459Y331387D01*
X402487Y331407D01*
X402578Y331511D01*
X402673Y331611D01*
X402691Y331642D01*
X402714Y331668D01*
X402778Y331791D01*
X402848Y331909D01*
X402858Y331943D01*
X402875Y331975D01*
X402909Y332108D01*
X402950Y332240D01*
X402952Y332275D01*
X402961Y332309D01*
X402975Y332514D01*
X402975Y334132D01*
X403868Y335025D01*
X412586Y335025D01*
X412690Y335037D01*
X412794Y335039D01*
X412861Y335057D01*
X412930Y335065D01*
X413028Y335100D01*
X413129Y335126D01*
X413190Y335159D01*
X413255Y335182D01*
X413342Y335239D01*
X413434Y335288D01*
X413486Y335333D01*
X413544Y335371D01*
X413616Y335446D01*
X413695Y335515D01*
X413735Y335571D01*
X413783Y335621D01*
X413836Y335711D01*
X413897Y335796D01*
X413923Y335860D01*
X413958Y335919D01*
X413989Y336019D01*
X414029Y336115D01*
X414040Y336184D01*
X414060Y336250D01*
X414067Y336354D01*
X414084Y336457D01*
X414079Y336526D01*
X414084Y336595D01*
X414067Y336697D01*
X414060Y336802D01*
X414039Y336868D01*
X414028Y336936D01*
X413988Y337032D01*
X413957Y337132D01*
X413922Y337191D01*
X413895Y337255D01*
X413834Y337340D01*
X413781Y337429D01*
X413713Y337508D01*
X413693Y337535D01*
X413676Y337550D01*
X413646Y337584D01*
X361106Y390124D01*
X360997Y390211D01*
X360892Y390302D01*
X360862Y390318D01*
X360835Y390339D01*
X360709Y390398D01*
X360586Y390463D01*
X360553Y390471D01*
X360522Y390486D01*
X360386Y390514D01*
X360251Y390549D01*
X360206Y390552D01*
X360184Y390557D01*
X360150Y390556D01*
X360046Y390563D01*
X213844Y390563D01*
X213809Y390559D01*
X213773Y390562D01*
X213637Y390539D01*
X213501Y390523D01*
X213467Y390511D01*
X213432Y390506D01*
X213305Y390453D01*
X213175Y390406D01*
X213146Y390387D01*
X213113Y390373D01*
X213001Y390292D01*
X212886Y390217D01*
X212861Y390191D01*
X212833Y390171D01*
X212742Y390067D01*
X212647Y389967D01*
X212629Y389936D01*
X212606Y389910D01*
X212542Y389787D01*
X212472Y389669D01*
X212462Y389635D01*
X212445Y389603D01*
X212411Y389470D01*
X212370Y389338D01*
X212368Y389303D01*
X212359Y389269D01*
X212345Y389064D01*
X212345Y384261D01*
X210953Y380900D01*
X208380Y378327D01*
X205019Y376935D01*
X201381Y376935D01*
X198020Y378327D01*
X195447Y380900D01*
X194055Y384261D01*
X194055Y403139D01*
X195447Y406500D01*
X197309Y408362D01*
X197374Y408444D01*
X197446Y408519D01*
X197481Y408579D01*
X197524Y408633D01*
X197568Y408727D01*
X197621Y408817D01*
X197641Y408883D01*
X197671Y408946D01*
X197692Y409048D01*
X197723Y409148D01*
X197728Y409217D01*
X197742Y409284D01*
X197740Y409388D01*
X197747Y409493D01*
X197736Y409561D01*
X197734Y409630D01*
X197708Y409731D01*
X197691Y409834D01*
X197664Y409898D01*
X197647Y409964D01*
X197598Y410057D01*
X197558Y410153D01*
X197518Y410209D01*
X197485Y410270D01*
X197417Y410349D01*
X197356Y410433D01*
X197304Y410479D01*
X197258Y410531D01*
X197174Y410592D01*
X197095Y410660D01*
X197033Y410692D01*
X196977Y410733D01*
X196881Y410772D01*
X196789Y410821D01*
X196722Y410838D01*
X196658Y410864D01*
X196555Y410881D01*
X196454Y410907D01*
X196350Y410914D01*
X196317Y410920D01*
X196294Y410918D01*
X196249Y410921D01*
X184751Y410921D01*
X184647Y410909D01*
X184543Y410907D01*
X184476Y410889D01*
X184407Y410881D01*
X184309Y410846D01*
X184208Y410820D01*
X184147Y410787D01*
X184082Y410764D01*
X183995Y410707D01*
X183903Y410658D01*
X183851Y410613D01*
X183793Y410575D01*
X183721Y410500D01*
X183642Y410431D01*
X183602Y410375D01*
X183554Y410325D01*
X183501Y410235D01*
X183440Y410150D01*
X183414Y410086D01*
X183379Y410027D01*
X183348Y409927D01*
X183308Y409831D01*
X183297Y409762D01*
X183277Y409696D01*
X183270Y409592D01*
X183253Y409489D01*
X183258Y409420D01*
X183253Y409351D01*
X183270Y409249D01*
X183277Y409144D01*
X183298Y409078D01*
X183309Y409010D01*
X183349Y408914D01*
X183380Y408814D01*
X183415Y408755D01*
X183442Y408691D01*
X183503Y408606D01*
X183556Y408517D01*
X183624Y408438D01*
X183644Y408411D01*
X183661Y408396D01*
X183691Y408362D01*
X185553Y406500D01*
X186945Y403139D01*
X186945Y384261D01*
X185553Y380900D01*
X182980Y378327D01*
X179619Y376935D01*
X175981Y376935D01*
X172620Y378327D01*
X170047Y380900D01*
X168655Y384261D01*
X168655Y402792D01*
X168643Y402896D01*
X168641Y403000D01*
X168623Y403067D01*
X168615Y403136D01*
X168580Y403234D01*
X168554Y403335D01*
X168521Y403396D01*
X168498Y403461D01*
X168441Y403548D01*
X168392Y403640D01*
X168347Y403692D01*
X168309Y403750D01*
X168234Y403822D01*
X168165Y403901D01*
X168109Y403941D01*
X168059Y403989D01*
X167969Y404042D01*
X167884Y404103D01*
X167820Y404129D01*
X167761Y404164D01*
X167661Y404195D01*
X167565Y404235D01*
X167496Y404246D01*
X167430Y404266D01*
X167326Y404273D01*
X167223Y404290D01*
X167154Y404285D01*
X167085Y404290D01*
X166983Y404273D01*
X166878Y404266D01*
X166812Y404245D01*
X166744Y404234D01*
X166648Y404194D01*
X166548Y404163D01*
X166489Y404128D01*
X166425Y404101D01*
X166340Y404040D01*
X166251Y403987D01*
X166172Y403919D01*
X166145Y403899D01*
X166130Y403882D01*
X166096Y403852D01*
X161984Y399740D01*
X161914Y399652D01*
X161871Y399607D01*
X161859Y399587D01*
X161806Y399526D01*
X161790Y399496D01*
X161769Y399469D01*
X161710Y399343D01*
X161645Y399220D01*
X161637Y399187D01*
X161622Y399156D01*
X161594Y399020D01*
X161559Y398885D01*
X161556Y398840D01*
X161551Y398818D01*
X161552Y398784D01*
X161545Y398680D01*
X161545Y384261D01*
X160153Y380900D01*
X157580Y378327D01*
X154219Y376935D01*
X150581Y376935D01*
X147220Y378327D01*
X144647Y380900D01*
X143255Y384261D01*
X143255Y403139D01*
X144647Y406500D01*
X147220Y409073D01*
X150581Y410465D01*
X154219Y410465D01*
X157580Y409073D01*
X159110Y407542D01*
X159138Y407520D01*
X159161Y407494D01*
X159274Y407413D01*
X159381Y407328D01*
X159413Y407313D01*
X159442Y407292D01*
X159570Y407239D01*
X159694Y407181D01*
X159729Y407173D01*
X159762Y407160D01*
X159898Y407138D01*
X160033Y407109D01*
X160068Y407110D01*
X160103Y407105D01*
X160241Y407114D01*
X160378Y407118D01*
X160413Y407127D01*
X160448Y407129D01*
X160580Y407170D01*
X160713Y407205D01*
X160744Y407221D01*
X160778Y407232D01*
X160897Y407302D01*
X161019Y407366D01*
X161045Y407389D01*
X161076Y407407D01*
X161231Y407542D01*
X170659Y416971D01*
X349601Y416971D01*
X428281Y338291D01*
X428281Y254353D01*
X406100Y232172D01*
X406013Y232063D01*
X405922Y231958D01*
X405906Y231928D01*
X405885Y231901D01*
X405826Y231775D01*
X405761Y231652D01*
X405753Y231619D01*
X405738Y231588D01*
X405710Y231452D01*
X405675Y231317D01*
X405672Y231272D01*
X405667Y231250D01*
X405668Y231216D01*
X405661Y231112D01*
X405661Y201895D01*
X405677Y201757D01*
X405687Y201618D01*
X405697Y201585D01*
X405701Y201552D01*
X405748Y201421D01*
X405789Y201287D01*
X405807Y201258D01*
X405818Y201227D01*
X405894Y201110D01*
X405965Y200990D01*
X405995Y200956D01*
X406007Y200937D01*
X406031Y200914D01*
X406100Y200835D01*
X407135Y199800D01*
X407943Y197850D01*
X407943Y195738D01*
X407135Y193788D01*
X405642Y192295D01*
X403798Y191531D01*
X403661Y191455D01*
X403523Y191382D01*
X403511Y191371D01*
X403496Y191363D01*
X403380Y191257D01*
X403263Y191155D01*
X403253Y191142D01*
X403240Y191130D01*
X403152Y191001D01*
X403061Y190874D01*
X403055Y190859D01*
X403045Y190845D01*
X402989Y190700D01*
X402929Y190555D01*
X402926Y190538D01*
X402920Y190522D01*
X402899Y190368D01*
X402874Y190214D01*
X402875Y190197D01*
X402873Y190180D01*
X402887Y190025D01*
X402898Y189869D01*
X402903Y189852D01*
X402905Y189836D01*
X402955Y189688D01*
X403001Y189539D01*
X403010Y189524D01*
X403015Y189508D01*
X403097Y189375D01*
X403177Y189241D01*
X403191Y189224D01*
X403197Y189214D01*
X403217Y189195D01*
X403312Y189086D01*
X441853Y150545D01*
X441853Y143083D01*
X441869Y142945D01*
X441879Y142806D01*
X441889Y142773D01*
X441893Y142740D01*
X441940Y142609D01*
X441981Y142475D01*
X441999Y142446D01*
X442010Y142414D01*
X442086Y142298D01*
X442157Y142178D01*
X442187Y142143D01*
X442199Y142125D01*
X442223Y142102D01*
X442292Y142023D01*
X443327Y140988D01*
X444135Y139038D01*
X444135Y136926D01*
X443327Y134976D01*
X441834Y133483D01*
X439884Y132675D01*
X437772Y132675D01*
X435822Y133483D01*
X434329Y134976D01*
X433521Y136926D01*
X433521Y139038D01*
X434329Y140988D01*
X435364Y142023D01*
X435451Y142132D01*
X435542Y142238D01*
X435558Y142268D01*
X435579Y142294D01*
X435638Y142420D01*
X435703Y142544D01*
X435711Y142576D01*
X435726Y142607D01*
X435754Y142743D01*
X435789Y142878D01*
X435792Y142923D01*
X435797Y142945D01*
X435796Y142979D01*
X435803Y143083D01*
X435803Y147418D01*
X435787Y147556D01*
X435777Y147696D01*
X435767Y147728D01*
X435763Y147762D01*
X435716Y147892D01*
X435675Y148026D01*
X435657Y148055D01*
X435646Y148087D01*
X435570Y148204D01*
X435499Y148324D01*
X435469Y148358D01*
X435457Y148376D01*
X435433Y148400D01*
X435364Y148478D01*
X390563Y193279D01*
X390563Y231977D01*
X392774Y234188D01*
X392912Y234326D01*
X393009Y234448D01*
X393109Y234569D01*
X393117Y234584D01*
X393127Y234597D01*
X393194Y234739D01*
X393263Y234878D01*
X393267Y234895D01*
X393274Y234910D01*
X393306Y235063D01*
X393342Y235215D01*
X393342Y235232D01*
X393345Y235248D01*
X393342Y235405D01*
X393341Y235561D01*
X393338Y235577D01*
X393337Y235594D01*
X393298Y235745D01*
X393262Y235897D01*
X393254Y235912D01*
X393250Y235929D01*
X393177Y236066D01*
X393107Y236206D01*
X393096Y236220D01*
X393089Y236234D01*
X392986Y236352D01*
X392886Y236472D01*
X392873Y236482D01*
X392861Y236495D01*
X392734Y236586D01*
X392610Y236680D01*
X392590Y236690D01*
X392581Y236697D01*
X392555Y236707D01*
X392426Y236771D01*
X390582Y237535D01*
X389089Y239028D01*
X388281Y240978D01*
X388281Y242442D01*
X388265Y242580D01*
X388255Y242720D01*
X388245Y242752D01*
X388241Y242786D01*
X388194Y242916D01*
X388153Y243050D01*
X388135Y243079D01*
X388124Y243111D01*
X388048Y243228D01*
X387977Y243348D01*
X387947Y243382D01*
X387935Y243400D01*
X387911Y243424D01*
X387842Y243502D01*
X372416Y258928D01*
X372307Y259015D01*
X372202Y259106D01*
X372172Y259122D01*
X372145Y259143D01*
X372019Y259202D01*
X371896Y259267D01*
X371863Y259275D01*
X371832Y259290D01*
X371696Y259318D01*
X371561Y259353D01*
X371516Y259356D01*
X371494Y259361D01*
X371460Y259360D01*
X371356Y259367D01*
X339877Y259367D01*
X339739Y259351D01*
X339600Y259341D01*
X339567Y259331D01*
X339534Y259327D01*
X339403Y259280D01*
X339269Y259239D01*
X339240Y259221D01*
X339209Y259210D01*
X339092Y259134D01*
X338972Y259063D01*
X338938Y259033D01*
X338919Y259021D01*
X338896Y258997D01*
X338817Y258928D01*
X337782Y257893D01*
X335832Y257085D01*
X333720Y257085D01*
X331770Y257893D01*
X330277Y259386D01*
X329469Y261336D01*
X329469Y263448D01*
X330277Y265398D01*
X331770Y266891D01*
X333720Y267699D01*
X335832Y267699D01*
X337782Y266891D01*
X338817Y265856D01*
X338926Y265769D01*
X339032Y265678D01*
X339062Y265662D01*
X339088Y265641D01*
X339214Y265582D01*
X339338Y265517D01*
X339370Y265509D01*
X339401Y265494D01*
X339537Y265466D01*
X339672Y265431D01*
X339718Y265428D01*
X339739Y265423D01*
X339773Y265424D01*
X339877Y265417D01*
X374483Y265417D01*
X392120Y247780D01*
X392229Y247693D01*
X392334Y247602D01*
X392364Y247586D01*
X392391Y247565D01*
X392517Y247506D01*
X392640Y247441D01*
X392673Y247433D01*
X392704Y247418D01*
X392840Y247390D01*
X392975Y247355D01*
X393020Y247352D01*
X393042Y247347D01*
X393076Y247348D01*
X393180Y247341D01*
X393996Y247341D01*
X394134Y247357D01*
X394274Y247367D01*
X394306Y247377D01*
X394340Y247381D01*
X394470Y247428D01*
X394604Y247469D01*
X394633Y247487D01*
X394665Y247498D01*
X394782Y247574D01*
X394902Y247645D01*
X394936Y247675D01*
X394954Y247687D01*
X394978Y247711D01*
X395056Y247780D01*
X405958Y258682D01*
X406045Y258791D01*
X406136Y258896D01*
X406152Y258926D01*
X406173Y258953D01*
X406232Y259079D01*
X406297Y259202D01*
X406305Y259235D01*
X406320Y259266D01*
X406348Y259402D01*
X406383Y259537D01*
X406386Y259582D01*
X406391Y259604D01*
X406390Y259638D01*
X406397Y259742D01*
X406397Y303476D01*
X406393Y303511D01*
X406396Y303547D01*
X406373Y303683D01*
X406357Y303819D01*
X406345Y303853D01*
X406340Y303888D01*
X406287Y304015D01*
X406240Y304145D01*
X406221Y304174D01*
X406207Y304207D01*
X406126Y304319D01*
X406051Y304434D01*
X406025Y304459D01*
X406005Y304487D01*
X405901Y304578D01*
X405801Y304673D01*
X405770Y304691D01*
X405744Y304714D01*
X405621Y304778D01*
X405503Y304848D01*
X405469Y304858D01*
X405437Y304875D01*
X405304Y304909D01*
X405172Y304950D01*
X405137Y304952D01*
X405103Y304961D01*
X404898Y304975D01*
X403868Y304975D01*
X402975Y305868D01*
X402975Y317132D01*
X403868Y318025D01*
X416208Y318025D01*
X416243Y318029D01*
X416279Y318026D01*
X416415Y318049D01*
X416551Y318065D01*
X416585Y318077D01*
X416620Y318082D01*
X416747Y318135D01*
X416877Y318182D01*
X416906Y318201D01*
X416939Y318215D01*
X417051Y318296D01*
X417166Y318371D01*
X417191Y318397D01*
X417219Y318417D01*
X417310Y318521D01*
X417405Y318621D01*
X417423Y318652D01*
X417446Y318678D01*
X417510Y318801D01*
X417580Y318919D01*
X417590Y318953D01*
X417607Y318985D01*
X417641Y319118D01*
X417682Y319250D01*
X417684Y319285D01*
X417693Y319319D01*
X417707Y319524D01*
X417707Y320476D01*
X417703Y320511D01*
X417706Y320547D01*
X417683Y320683D01*
X417667Y320819D01*
X417655Y320853D01*
X417650Y320888D01*
X417597Y321015D01*
X417550Y321145D01*
X417531Y321174D01*
X417517Y321207D01*
X417436Y321319D01*
X417361Y321434D01*
X417335Y321459D01*
X417315Y321487D01*
X417211Y321578D01*
X417111Y321673D01*
X417080Y321691D01*
X417054Y321714D01*
X416931Y321778D01*
X416813Y321848D01*
X416779Y321858D01*
X416747Y321875D01*
X416614Y321909D01*
X416482Y321950D01*
X416447Y321952D01*
X416413Y321961D01*
X416208Y321975D01*
X403868Y321975D01*
X402975Y322868D01*
X402975Y323466D01*
X402971Y323501D01*
X402974Y323537D01*
X402951Y323673D01*
X402935Y323809D01*
X402923Y323843D01*
X402918Y323878D01*
X402865Y324005D01*
X402818Y324135D01*
X402799Y324164D01*
X402785Y324197D01*
X402704Y324309D01*
X402629Y324424D01*
X402603Y324449D01*
X402583Y324477D01*
X402479Y324568D01*
X402379Y324663D01*
X402348Y324681D01*
X402322Y324704D01*
X402199Y324768D01*
X402081Y324838D01*
X402047Y324848D01*
X402015Y324865D01*
X401882Y324899D01*
X401750Y324940D01*
X401715Y324942D01*
X401681Y324951D01*
X401476Y324965D01*
X388524Y324965D01*
X388489Y324961D01*
X388453Y324964D01*
X388317Y324941D01*
X388181Y324925D01*
X388147Y324913D01*
X388112Y324908D01*
X387985Y324855D01*
X387855Y324808D01*
X387826Y324789D01*
X387793Y324775D01*
X387681Y324694D01*
X387566Y324619D01*
X387541Y324593D01*
X387513Y324573D01*
X387422Y324469D01*
X387327Y324369D01*
X387309Y324338D01*
X387286Y324312D01*
X387222Y324189D01*
X387152Y324071D01*
X387142Y324037D01*
X387125Y324005D01*
X387091Y323872D01*
X387050Y323740D01*
X387048Y323705D01*
X387039Y323671D01*
X387025Y323466D01*
X387025Y322868D01*
X386132Y321975D01*
X373868Y321975D01*
X372975Y322868D01*
X372975Y323466D01*
X372971Y323501D01*
X372974Y323537D01*
X372951Y323673D01*
X372935Y323809D01*
X372923Y323843D01*
X372918Y323878D01*
X372865Y324005D01*
X372818Y324135D01*
X372799Y324164D01*
X372785Y324197D01*
X372704Y324309D01*
X372629Y324424D01*
X372603Y324449D01*
X372583Y324477D01*
X372479Y324568D01*
X372379Y324663D01*
X372348Y324681D01*
X372322Y324704D01*
X372199Y324768D01*
X372081Y324838D01*
X372047Y324848D01*
X372015Y324865D01*
X371882Y324899D01*
X371750Y324940D01*
X371715Y324942D01*
X371681Y324951D01*
X371476Y324965D01*
X358524Y324965D01*
X358489Y324961D01*
X358453Y324964D01*
X358317Y324941D01*
X358181Y324925D01*
X358147Y324913D01*
X358112Y324908D01*
X357985Y324855D01*
X357855Y324808D01*
X357826Y324789D01*
X357793Y324775D01*
X357681Y324694D01*
X357566Y324619D01*
X357541Y324593D01*
X357513Y324573D01*
X357422Y324469D01*
X357327Y324369D01*
X357309Y324338D01*
X357286Y324312D01*
X357222Y324189D01*
X357152Y324071D01*
X357142Y324037D01*
X357125Y324005D01*
X357091Y323872D01*
X357050Y323740D01*
X357048Y323705D01*
X357039Y323671D01*
X357025Y323466D01*
X357025Y322868D01*
X356132Y321975D01*
X343868Y321975D01*
X342975Y322868D01*
X342975Y323466D01*
X342971Y323501D01*
X342974Y323537D01*
X342951Y323673D01*
X342935Y323809D01*
X342923Y323843D01*
X342918Y323878D01*
X342865Y324005D01*
X342818Y324135D01*
X342799Y324164D01*
X342785Y324197D01*
X342704Y324309D01*
X342629Y324424D01*
X342603Y324449D01*
X342583Y324477D01*
X342479Y324568D01*
X342379Y324663D01*
X342348Y324681D01*
X342322Y324704D01*
X342199Y324768D01*
X342081Y324838D01*
X342047Y324848D01*
X342015Y324865D01*
X341882Y324899D01*
X341750Y324940D01*
X341715Y324942D01*
X341681Y324951D01*
X341476Y324965D01*
X328524Y324965D01*
X328489Y324961D01*
X328453Y324964D01*
X328317Y324941D01*
X328181Y324925D01*
X328147Y324913D01*
X328112Y324908D01*
X327985Y324855D01*
X327855Y324808D01*
X327826Y324789D01*
X327793Y324775D01*
X327681Y324694D01*
X327566Y324619D01*
X327541Y324593D01*
X327513Y324573D01*
X327422Y324469D01*
X327327Y324369D01*
X327309Y324338D01*
X327286Y324312D01*
X327222Y324189D01*
X327152Y324071D01*
X327142Y324037D01*
X327125Y324005D01*
X327091Y323872D01*
X327050Y323740D01*
X327048Y323705D01*
X327039Y323671D01*
X327025Y323466D01*
X327025Y322868D01*
X326132Y321975D01*
X313868Y321975D01*
X312975Y322868D01*
X312975Y325728D01*
X312971Y325763D01*
X312974Y325799D01*
X312951Y325935D01*
X312935Y326071D01*
X312923Y326105D01*
X312918Y326140D01*
X312865Y326267D01*
X312818Y326397D01*
X312799Y326426D01*
X312785Y326459D01*
X312704Y326571D01*
X312629Y326686D01*
X312603Y326711D01*
X312583Y326739D01*
X312479Y326830D01*
X312379Y326925D01*
X312348Y326943D01*
X312322Y326966D01*
X312199Y327030D01*
X312081Y327100D01*
X312047Y327110D01*
X312015Y327127D01*
X311882Y327161D01*
X311750Y327202D01*
X311715Y327204D01*
X311681Y327213D01*
X311476Y327227D01*
X283759Y327227D01*
X254792Y356194D01*
X254683Y356281D01*
X254578Y356372D01*
X254548Y356388D01*
X254521Y356409D01*
X254395Y356468D01*
X254272Y356533D01*
X254239Y356541D01*
X254208Y356556D01*
X254072Y356584D01*
X253937Y356619D01*
X253892Y356622D01*
X253870Y356627D01*
X253836Y356626D01*
X253732Y356633D01*
X201978Y356633D01*
X201861Y356620D01*
X201773Y356618D01*
X201751Y356612D01*
X201712Y356609D01*
X201674Y356598D01*
X201635Y356593D01*
X201519Y356552D01*
X201438Y356530D01*
X201420Y356521D01*
X201381Y356509D01*
X201347Y356489D01*
X201310Y356476D01*
X201203Y356406D01*
X201132Y356369D01*
X201118Y356357D01*
X201082Y356335D01*
X201053Y356309D01*
X201020Y356287D01*
X200931Y356193D01*
X200872Y356142D01*
X200862Y356128D01*
X200830Y356098D01*
X200809Y356065D01*
X200782Y356037D01*
X200715Y355924D01*
X200670Y355861D01*
X200664Y355845D01*
X200640Y355809D01*
X200626Y355773D01*
X200607Y355739D01*
X200568Y355614D01*
X200538Y355541D01*
X200535Y355525D01*
X200521Y355485D01*
X200516Y355446D01*
X200505Y355408D01*
X200496Y355279D01*
X200483Y355200D01*
X200484Y355182D01*
X200479Y355142D01*
X200484Y355103D01*
X200481Y355063D01*
X200501Y354938D01*
X200507Y354855D01*
X200513Y354837D01*
X200517Y354798D01*
X200531Y354761D01*
X200537Y354722D01*
X200584Y354609D01*
X200610Y354525D01*
X200621Y354507D01*
X200633Y354472D01*
X200654Y354439D01*
X200670Y354403D01*
X200738Y354308D01*
X200786Y354227D01*
X200807Y354203D01*
X200821Y354182D01*
X200849Y354154D01*
X200872Y354123D01*
X200893Y354104D01*
X200920Y354073D01*
X201533Y353460D01*
X201868Y352881D01*
X202041Y352235D01*
X202041Y345899D01*
X192000Y345899D01*
X191965Y345895D01*
X191930Y345898D01*
X191793Y345875D01*
X191657Y345859D01*
X191623Y345847D01*
X191588Y345842D01*
X191461Y345789D01*
X191332Y345742D01*
X191302Y345722D01*
X191269Y345709D01*
X191157Y345628D01*
X191042Y345553D01*
X191017Y345527D01*
X190989Y345507D01*
X190898Y345402D01*
X190803Y345303D01*
X190785Y345272D01*
X190762Y345246D01*
X190698Y345123D01*
X190628Y345005D01*
X190618Y344971D01*
X190601Y344939D01*
X190567Y344806D01*
X190526Y344674D01*
X190524Y344639D01*
X190515Y344605D01*
X190501Y344400D01*
X190501Y342899D01*
X190499Y342899D01*
X190499Y344400D01*
X190495Y344435D01*
X190497Y344471D01*
X190475Y344607D01*
X190459Y344743D01*
X190447Y344777D01*
X190441Y344812D01*
X190389Y344939D01*
X190342Y345069D01*
X190322Y345098D01*
X190309Y345131D01*
X190228Y345243D01*
X190153Y345358D01*
X190127Y345383D01*
X190107Y345411D01*
X190002Y345502D01*
X189903Y345597D01*
X189872Y345615D01*
X189845Y345638D01*
X189723Y345702D01*
X189605Y345772D01*
X189571Y345782D01*
X189539Y345799D01*
X189406Y345833D01*
X189274Y345874D01*
X189239Y345876D01*
X189205Y345885D01*
X189000Y345899D01*
X178959Y345899D01*
X178959Y349760D01*
X178947Y349864D01*
X178945Y349968D01*
X178927Y350035D01*
X178919Y350104D01*
X178884Y350202D01*
X178858Y350303D01*
X178825Y350364D01*
X178802Y350429D01*
X178745Y350516D01*
X178696Y350608D01*
X178651Y350661D01*
X178613Y350718D01*
X178538Y350790D01*
X178469Y350869D01*
X178413Y350909D01*
X178363Y350957D01*
X178273Y351010D01*
X178188Y351071D01*
X178124Y351097D01*
X178065Y351132D01*
X177965Y351163D01*
X177869Y351203D01*
X177800Y351214D01*
X177734Y351234D01*
X177630Y351241D01*
X177527Y351258D01*
X177458Y351253D01*
X177389Y351258D01*
X177286Y351241D01*
X177182Y351233D01*
X177116Y351213D01*
X177048Y351202D01*
X176952Y351162D01*
X176852Y351131D01*
X176793Y351096D01*
X176729Y351069D01*
X176644Y351008D01*
X176554Y350955D01*
X176476Y350887D01*
X176449Y350867D01*
X176434Y350850D01*
X176400Y350820D01*
X176064Y350484D01*
X175977Y350375D01*
X175886Y350270D01*
X175870Y350240D01*
X175849Y350213D01*
X175790Y350087D01*
X175725Y349964D01*
X175717Y349931D01*
X175702Y349900D01*
X175674Y349764D01*
X175639Y349629D01*
X175636Y349584D01*
X175631Y349562D01*
X175632Y349528D01*
X175625Y349424D01*
X175625Y333268D01*
X174732Y332375D01*
X160602Y332375D01*
X160567Y332371D01*
X160531Y332374D01*
X160395Y332351D01*
X160259Y332335D01*
X160225Y332323D01*
X160190Y332318D01*
X160063Y332265D01*
X159933Y332218D01*
X159904Y332199D01*
X159871Y332185D01*
X159759Y332104D01*
X159644Y332029D01*
X159619Y332003D01*
X159591Y331983D01*
X159500Y331879D01*
X159405Y331779D01*
X159387Y331748D01*
X159364Y331722D01*
X159300Y331599D01*
X159230Y331481D01*
X159220Y331447D01*
X159203Y331415D01*
X159169Y331282D01*
X159128Y331150D01*
X159126Y331115D01*
X159117Y331081D01*
X159103Y330876D01*
X159103Y283327D01*
X159115Y283223D01*
X159117Y283119D01*
X159135Y283052D01*
X159143Y282984D01*
X159178Y282886D01*
X159204Y282785D01*
X159237Y282723D01*
X159260Y282658D01*
X159317Y282571D01*
X159366Y282479D01*
X159411Y282427D01*
X159449Y282369D01*
X159524Y282297D01*
X159593Y282218D01*
X159649Y282178D01*
X159699Y282130D01*
X159789Y282077D01*
X159874Y282017D01*
X159938Y281990D01*
X159997Y281955D01*
X160097Y281924D01*
X160193Y281885D01*
X160262Y281874D01*
X160328Y281853D01*
X160432Y281846D01*
X160535Y281829D01*
X160604Y281834D01*
X160673Y281829D01*
X160775Y281846D01*
X160880Y281854D01*
X160946Y281874D01*
X161014Y281885D01*
X161110Y281925D01*
X161210Y281957D01*
X161269Y281992D01*
X161333Y282018D01*
X161418Y282079D01*
X161507Y282132D01*
X161586Y282201D01*
X161613Y282220D01*
X161628Y282237D01*
X161662Y282267D01*
X162120Y282725D01*
X164070Y283533D01*
X166182Y283533D01*
X168132Y282725D01*
X169625Y281232D01*
X170433Y279282D01*
X170433Y277818D01*
X170449Y277680D01*
X170459Y277540D01*
X170469Y277508D01*
X170473Y277474D01*
X170520Y277344D01*
X170561Y277210D01*
X170579Y277181D01*
X170590Y277149D01*
X170666Y277032D01*
X170737Y276912D01*
X170767Y276878D01*
X170779Y276860D01*
X170803Y276836D01*
X170872Y276758D01*
X174866Y272764D01*
X174975Y272677D01*
X175080Y272586D01*
X175110Y272570D01*
X175137Y272549D01*
X175263Y272490D01*
X175386Y272425D01*
X175419Y272417D01*
X175450Y272402D01*
X175586Y272374D01*
X175721Y272339D01*
X175766Y272336D01*
X175788Y272331D01*
X175822Y272332D01*
X175926Y272325D01*
X181132Y272325D01*
X182025Y271432D01*
X182025Y260168D01*
X181114Y259257D01*
X180972Y259245D01*
X180950Y259238D01*
X180927Y259235D01*
X180786Y259184D01*
X180643Y259138D01*
X180624Y259126D01*
X180602Y259118D01*
X180476Y259036D01*
X180348Y258958D01*
X180332Y258942D01*
X180312Y258929D01*
X180209Y258820D01*
X180102Y258715D01*
X180090Y258696D01*
X180074Y258679D01*
X179998Y258549D01*
X179918Y258422D01*
X179910Y258401D01*
X179899Y258381D01*
X179854Y258237D01*
X179806Y258095D01*
X179803Y258072D01*
X179797Y258050D01*
X179786Y257901D01*
X179771Y257751D01*
X179774Y257728D01*
X179773Y257705D01*
X179797Y257558D01*
X179817Y257409D01*
X179825Y257387D01*
X179829Y257364D01*
X179886Y257226D01*
X179940Y257085D01*
X179953Y257066D01*
X179962Y257045D01*
X180050Y256923D01*
X180133Y256799D01*
X180150Y256783D01*
X180164Y256765D01*
X180277Y256666D01*
X180387Y256564D01*
X180408Y256553D01*
X180425Y256538D01*
X180558Y256468D01*
X180688Y256394D01*
X180717Y256385D01*
X180731Y256377D01*
X180737Y256376D01*
X180738Y256375D01*
X180762Y256369D01*
X180883Y256328D01*
X181481Y256168D01*
X182060Y255833D01*
X182533Y255360D01*
X182868Y254781D01*
X183041Y254135D01*
X183041Y251299D01*
X176000Y251299D01*
X175965Y251295D01*
X175930Y251298D01*
X175794Y251275D01*
X175657Y251259D01*
X175623Y251247D01*
X175588Y251242D01*
X175461Y251189D01*
X175332Y251142D01*
X175302Y251123D01*
X175269Y251109D01*
X175157Y251028D01*
X175042Y250953D01*
X175018Y250927D01*
X174994Y250910D01*
X174903Y250997D01*
X174872Y251015D01*
X174845Y251038D01*
X174723Y251102D01*
X174605Y251172D01*
X174571Y251182D01*
X174539Y251199D01*
X174406Y251233D01*
X174274Y251274D01*
X174239Y251276D01*
X174204Y251285D01*
X174000Y251299D01*
X166959Y251299D01*
X166959Y254135D01*
X167132Y254781D01*
X167467Y255360D01*
X167940Y255833D01*
X168519Y256168D01*
X169117Y256328D01*
X169257Y256383D01*
X169398Y256434D01*
X169418Y256447D01*
X169439Y256455D01*
X169562Y256541D01*
X169688Y256623D01*
X169704Y256640D01*
X169723Y256653D01*
X169823Y256764D01*
X169926Y256873D01*
X169938Y256893D01*
X169953Y256910D01*
X170026Y257042D01*
X170101Y257171D01*
X170108Y257193D01*
X170119Y257214D01*
X170159Y257359D01*
X170203Y257502D01*
X170205Y257525D01*
X170211Y257547D01*
X170217Y257697D01*
X170227Y257847D01*
X170223Y257869D01*
X170224Y257892D01*
X170195Y258040D01*
X170171Y258188D01*
X170162Y258209D01*
X170158Y258232D01*
X170096Y258369D01*
X170038Y258507D01*
X170025Y258526D01*
X170015Y258547D01*
X169924Y258666D01*
X169836Y258787D01*
X169819Y258803D01*
X169805Y258821D01*
X169688Y258916D01*
X169575Y259014D01*
X169555Y259025D01*
X169537Y259039D01*
X169402Y259105D01*
X169269Y259175D01*
X169247Y259181D01*
X169226Y259191D01*
X169080Y259224D01*
X168934Y259261D01*
X168904Y259263D01*
X168889Y259267D01*
X168877Y259267D01*
X167975Y260168D01*
X167975Y270478D01*
X167959Y270616D01*
X167949Y270756D01*
X167939Y270788D01*
X167935Y270822D01*
X167888Y270952D01*
X167847Y271086D01*
X167829Y271115D01*
X167818Y271147D01*
X167742Y271264D01*
X167671Y271384D01*
X167641Y271418D01*
X167629Y271436D01*
X167605Y271460D01*
X167536Y271538D01*
X166594Y272480D01*
X166485Y272567D01*
X166380Y272658D01*
X166350Y272674D01*
X166323Y272695D01*
X166197Y272754D01*
X166074Y272819D01*
X166041Y272827D01*
X166010Y272842D01*
X165874Y272870D01*
X165739Y272905D01*
X165694Y272908D01*
X165672Y272913D01*
X165638Y272912D01*
X165534Y272919D01*
X164070Y272919D01*
X162120Y273727D01*
X161662Y274185D01*
X161580Y274250D01*
X161505Y274322D01*
X161445Y274357D01*
X161391Y274400D01*
X161297Y274444D01*
X161207Y274497D01*
X161141Y274517D01*
X161078Y274547D01*
X160976Y274568D01*
X160876Y274599D01*
X160807Y274604D01*
X160740Y274618D01*
X160636Y274615D01*
X160531Y274623D01*
X160463Y274611D01*
X160394Y274610D01*
X160293Y274583D01*
X160190Y274567D01*
X160127Y274540D01*
X160060Y274523D01*
X159967Y274474D01*
X159871Y274434D01*
X159815Y274393D01*
X159754Y274361D01*
X159675Y274293D01*
X159591Y274232D01*
X159545Y274179D01*
X159493Y274134D01*
X159432Y274049D01*
X159364Y273970D01*
X159332Y273909D01*
X159291Y273853D01*
X159252Y273757D01*
X159203Y273664D01*
X159186Y273597D01*
X159160Y273534D01*
X159143Y273431D01*
X159117Y273330D01*
X159110Y273226D01*
X159104Y273192D01*
X159106Y273170D01*
X159103Y273125D01*
X159103Y252956D01*
X159119Y252818D01*
X159129Y252678D01*
X159139Y252646D01*
X159143Y252612D01*
X159190Y252482D01*
X159231Y252348D01*
X159249Y252319D01*
X159260Y252287D01*
X159336Y252170D01*
X159407Y252050D01*
X159437Y252016D01*
X159449Y251998D01*
X159473Y251974D01*
X159542Y251896D01*
X164698Y246740D01*
X164807Y246653D01*
X164912Y246562D01*
X164942Y246546D01*
X164969Y246525D01*
X165095Y246466D01*
X165218Y246401D01*
X165251Y246393D01*
X165282Y246378D01*
X165418Y246350D01*
X165553Y246315D01*
X165598Y246312D01*
X165620Y246307D01*
X165654Y246308D01*
X165758Y246301D01*
X172501Y246301D01*
X172501Y240507D01*
X172487Y240488D01*
X172461Y240424D01*
X172426Y240365D01*
X172395Y240265D01*
X172355Y240169D01*
X172344Y240100D01*
X172324Y240034D01*
X172317Y239930D01*
X172300Y239827D01*
X172305Y239758D01*
X172300Y239689D01*
X172317Y239587D01*
X172324Y239482D01*
X172345Y239416D01*
X172356Y239348D01*
X172396Y239252D01*
X172427Y239152D01*
X172462Y239093D01*
X172489Y239029D01*
X172550Y238944D01*
X172603Y238855D01*
X172671Y238776D01*
X172691Y238749D01*
X172708Y238734D01*
X172738Y238700D01*
X186298Y225140D01*
X188948Y222490D01*
X206605Y204833D01*
X206605Y196524D01*
X206609Y196489D01*
X206606Y196453D01*
X206629Y196317D01*
X206645Y196181D01*
X206657Y196147D01*
X206662Y196112D01*
X206715Y195985D01*
X206762Y195855D01*
X206781Y195826D01*
X206795Y195793D01*
X206876Y195681D01*
X206951Y195566D01*
X206977Y195541D01*
X206997Y195513D01*
X207101Y195422D01*
X207201Y195327D01*
X207232Y195309D01*
X207258Y195286D01*
X207381Y195222D01*
X207499Y195152D01*
X207533Y195142D01*
X207565Y195125D01*
X207698Y195091D01*
X207830Y195050D01*
X207865Y195048D01*
X207899Y195039D01*
X208104Y195025D01*
X211132Y195025D01*
X212025Y194132D01*
X212025Y188254D01*
X212037Y188150D01*
X212039Y188046D01*
X212057Y187979D01*
X212065Y187910D01*
X212100Y187812D01*
X212126Y187711D01*
X212159Y187650D01*
X212182Y187585D01*
X212239Y187498D01*
X212288Y187406D01*
X212333Y187354D01*
X212371Y187296D01*
X212446Y187224D01*
X212515Y187145D01*
X212571Y187105D01*
X212621Y187057D01*
X212711Y187004D01*
X212796Y186943D01*
X212860Y186917D01*
X212919Y186882D01*
X213019Y186851D01*
X213115Y186811D01*
X213184Y186800D01*
X213250Y186780D01*
X213354Y186773D01*
X213457Y186756D01*
X213526Y186761D01*
X213595Y186756D01*
X213697Y186773D01*
X213802Y186780D01*
X213868Y186801D01*
X213936Y186812D01*
X214032Y186852D01*
X214132Y186883D01*
X214191Y186918D01*
X214255Y186945D01*
X214340Y187006D01*
X214429Y187059D01*
X214508Y187127D01*
X214535Y187147D01*
X214550Y187164D01*
X214584Y187194D01*
X231784Y204394D01*
X231871Y204503D01*
X231962Y204608D01*
X231978Y204638D01*
X231999Y204665D01*
X232058Y204791D01*
X232123Y204914D01*
X232131Y204947D01*
X232146Y204978D01*
X232174Y205114D01*
X232209Y205249D01*
X232212Y205294D01*
X232217Y205316D01*
X232216Y205350D01*
X232223Y205454D01*
X232223Y239760D01*
X232219Y239795D01*
X232222Y239831D01*
X232199Y239967D01*
X232183Y240103D01*
X232171Y240137D01*
X232166Y240172D01*
X232113Y240299D01*
X232066Y240429D01*
X232047Y240458D01*
X232033Y240491D01*
X231952Y240603D01*
X231877Y240718D01*
X231851Y240743D01*
X231831Y240771D01*
X231727Y240862D01*
X231627Y240957D01*
X231596Y240975D01*
X231570Y240998D01*
X231447Y241062D01*
X231329Y241132D01*
X231295Y241142D01*
X231263Y241159D01*
X231130Y241193D01*
X230998Y241234D01*
X230963Y241236D01*
X230929Y241245D01*
X230724Y241259D01*
X227499Y241259D01*
X227499Y247800D01*
X227495Y247835D01*
X227498Y247870D01*
X227475Y248006D01*
X227459Y248143D01*
X227447Y248177D01*
X227442Y248212D01*
X227389Y248339D01*
X227342Y248468D01*
X227323Y248498D01*
X227309Y248531D01*
X227228Y248643D01*
X227153Y248758D01*
X227127Y248782D01*
X227107Y248811D01*
X227003Y248902D01*
X226903Y248997D01*
X226872Y249015D01*
X226846Y249038D01*
X226723Y249102D01*
X226605Y249172D01*
X226571Y249182D01*
X226539Y249199D01*
X226406Y249233D01*
X226274Y249274D01*
X226239Y249276D01*
X226205Y249285D01*
X226000Y249299D01*
X225499Y249299D01*
X225499Y249800D01*
X225495Y249835D01*
X225497Y249871D01*
X225475Y250007D01*
X225459Y250143D01*
X225447Y250177D01*
X225441Y250212D01*
X225389Y250339D01*
X225342Y250469D01*
X225322Y250498D01*
X225309Y250531D01*
X225228Y250643D01*
X225153Y250758D01*
X225127Y250783D01*
X225106Y250811D01*
X225002Y250902D01*
X224903Y250997D01*
X224872Y251015D01*
X224845Y251038D01*
X224723Y251102D01*
X224605Y251172D01*
X224571Y251182D01*
X224539Y251199D01*
X224406Y251233D01*
X224274Y251274D01*
X224239Y251276D01*
X224204Y251285D01*
X224000Y251299D01*
X216959Y251299D01*
X216959Y254135D01*
X217132Y254781D01*
X217467Y255360D01*
X217940Y255833D01*
X218519Y256168D01*
X219117Y256328D01*
X219257Y256383D01*
X219398Y256434D01*
X219417Y256447D01*
X219439Y256455D01*
X219562Y256541D01*
X219688Y256623D01*
X219704Y256640D01*
X219723Y256653D01*
X219823Y256765D01*
X219926Y256873D01*
X219938Y256893D01*
X219953Y256910D01*
X220026Y257043D01*
X220101Y257171D01*
X220108Y257193D01*
X220119Y257214D01*
X220159Y257359D01*
X220203Y257502D01*
X220205Y257525D01*
X220211Y257547D01*
X220217Y257697D01*
X220227Y257847D01*
X220223Y257869D01*
X220224Y257892D01*
X220195Y258040D01*
X220171Y258188D01*
X220162Y258209D01*
X220158Y258232D01*
X220096Y258369D01*
X220038Y258507D01*
X220025Y258526D01*
X220015Y258547D01*
X219924Y258666D01*
X219836Y258787D01*
X219819Y258803D01*
X219805Y258821D01*
X219689Y258915D01*
X219575Y259014D01*
X219554Y259025D01*
X219537Y259039D01*
X219402Y259105D01*
X219269Y259175D01*
X219247Y259181D01*
X219226Y259191D01*
X219080Y259224D01*
X218934Y259261D01*
X218904Y259263D01*
X218889Y259267D01*
X218877Y259267D01*
X217975Y260168D01*
X217975Y261143D01*
X217957Y261298D01*
X217943Y261454D01*
X217937Y261470D01*
X217935Y261487D01*
X217882Y261633D01*
X217833Y261781D01*
X217824Y261796D01*
X217818Y261812D01*
X217733Y261943D01*
X217650Y262075D01*
X217638Y262087D01*
X217629Y262101D01*
X217516Y262209D01*
X217406Y262319D01*
X217391Y262328D01*
X217379Y262340D01*
X217245Y262419D01*
X217111Y262501D01*
X217095Y262507D01*
X217081Y262515D01*
X216932Y262561D01*
X216783Y262611D01*
X216767Y262612D01*
X216750Y262617D01*
X216594Y262628D01*
X216439Y262642D01*
X216422Y262640D01*
X216405Y262641D01*
X216251Y262615D01*
X216097Y262594D01*
X216076Y262587D01*
X216064Y262585D01*
X216039Y262574D01*
X215902Y262528D01*
X213684Y261609D01*
X211572Y261609D01*
X209622Y262417D01*
X209584Y262455D01*
X209502Y262520D01*
X209427Y262592D01*
X209367Y262627D01*
X209313Y262670D01*
X209219Y262714D01*
X209129Y262767D01*
X209063Y262787D01*
X209000Y262817D01*
X208898Y262838D01*
X208798Y262869D01*
X208729Y262874D01*
X208662Y262888D01*
X208558Y262885D01*
X208453Y262893D01*
X208385Y262881D01*
X208316Y262880D01*
X208215Y262853D01*
X208112Y262837D01*
X208048Y262810D01*
X207982Y262793D01*
X207889Y262744D01*
X207793Y262704D01*
X207737Y262663D01*
X207676Y262631D01*
X207597Y262563D01*
X207513Y262502D01*
X207467Y262449D01*
X207415Y262404D01*
X207354Y262319D01*
X207286Y262240D01*
X207254Y262179D01*
X207214Y262123D01*
X207174Y262027D01*
X207125Y261934D01*
X207108Y261867D01*
X207082Y261804D01*
X207065Y261701D01*
X207039Y261600D01*
X207032Y261495D01*
X207026Y261462D01*
X207028Y261440D01*
X207025Y261395D01*
X207025Y260168D01*
X206114Y259257D01*
X205972Y259245D01*
X205950Y259238D01*
X205927Y259235D01*
X205786Y259184D01*
X205643Y259138D01*
X205624Y259126D01*
X205602Y259118D01*
X205476Y259036D01*
X205348Y258958D01*
X205332Y258942D01*
X205312Y258929D01*
X205209Y258821D01*
X205102Y258715D01*
X205090Y258696D01*
X205074Y258679D01*
X204998Y258550D01*
X204918Y258422D01*
X204910Y258401D01*
X204899Y258381D01*
X204855Y258238D01*
X204806Y258095D01*
X204803Y258072D01*
X204797Y258050D01*
X204786Y257901D01*
X204772Y257751D01*
X204775Y257728D01*
X204773Y257705D01*
X204797Y257557D01*
X204817Y257409D01*
X204825Y257387D01*
X204829Y257364D01*
X204887Y257226D01*
X204940Y257085D01*
X204953Y257066D01*
X204962Y257045D01*
X205049Y256923D01*
X205133Y256799D01*
X205150Y256783D01*
X205164Y256765D01*
X205277Y256666D01*
X205387Y256564D01*
X205408Y256553D01*
X205425Y256538D01*
X205558Y256468D01*
X205689Y256394D01*
X205717Y256385D01*
X205731Y256377D01*
X205737Y256376D01*
X205738Y256375D01*
X205762Y256369D01*
X205883Y256328D01*
X206481Y256168D01*
X207060Y255833D01*
X207533Y255360D01*
X207868Y254781D01*
X208041Y254135D01*
X208041Y251299D01*
X201000Y251299D01*
X200965Y251295D01*
X200930Y251298D01*
X200794Y251275D01*
X200657Y251259D01*
X200623Y251247D01*
X200588Y251242D01*
X200461Y251189D01*
X200332Y251142D01*
X200302Y251123D01*
X200269Y251109D01*
X200157Y251028D01*
X200042Y250953D01*
X200018Y250927D01*
X199994Y250910D01*
X199903Y250997D01*
X199872Y251015D01*
X199845Y251038D01*
X199723Y251102D01*
X199605Y251172D01*
X199571Y251182D01*
X199539Y251199D01*
X199406Y251233D01*
X199274Y251274D01*
X199239Y251276D01*
X199204Y251285D01*
X199000Y251299D01*
X191959Y251299D01*
X191959Y254135D01*
X192132Y254781D01*
X192467Y255360D01*
X192940Y255833D01*
X193519Y256168D01*
X194117Y256328D01*
X194257Y256383D01*
X194398Y256434D01*
X194417Y256447D01*
X194439Y256455D01*
X194562Y256541D01*
X194688Y256623D01*
X194704Y256640D01*
X194723Y256653D01*
X194823Y256765D01*
X194926Y256873D01*
X194938Y256893D01*
X194953Y256910D01*
X195025Y257042D01*
X195101Y257171D01*
X195108Y257193D01*
X195119Y257214D01*
X195159Y257358D01*
X195203Y257502D01*
X195205Y257525D01*
X195211Y257547D01*
X195217Y257697D01*
X195227Y257847D01*
X195223Y257869D01*
X195224Y257892D01*
X195195Y258040D01*
X195171Y258188D01*
X195162Y258209D01*
X195158Y258232D01*
X195096Y258369D01*
X195038Y258507D01*
X195025Y258526D01*
X195015Y258547D01*
X194924Y258666D01*
X194836Y258787D01*
X194819Y258803D01*
X194805Y258821D01*
X194688Y258916D01*
X194575Y259014D01*
X194555Y259025D01*
X194537Y259039D01*
X194402Y259105D01*
X194269Y259175D01*
X194247Y259181D01*
X194226Y259191D01*
X194080Y259224D01*
X193934Y259261D01*
X193904Y259263D01*
X193888Y259267D01*
X193877Y259267D01*
X192975Y260168D01*
X192975Y271432D01*
X193868Y272325D01*
X206132Y272325D01*
X207272Y271185D01*
X207299Y271163D01*
X207323Y271136D01*
X207435Y271056D01*
X207543Y270970D01*
X207575Y270955D01*
X207604Y270934D01*
X207731Y270882D01*
X207856Y270823D01*
X207890Y270816D01*
X207923Y270802D01*
X208059Y270780D01*
X208194Y270752D01*
X208229Y270753D01*
X208264Y270747D01*
X208402Y270757D01*
X208540Y270760D01*
X208574Y270769D01*
X208609Y270772D01*
X208741Y270812D01*
X208874Y270847D01*
X208906Y270864D01*
X208939Y270874D01*
X209058Y270944D01*
X209180Y271009D01*
X209207Y271032D01*
X209237Y271050D01*
X209392Y271185D01*
X209622Y271415D01*
X210784Y271896D01*
X210920Y271972D01*
X211058Y272045D01*
X211071Y272056D01*
X211086Y272064D01*
X211201Y272169D01*
X211319Y272272D01*
X211329Y272286D01*
X211341Y272297D01*
X211429Y272426D01*
X211520Y272553D01*
X211527Y272568D01*
X211536Y272582D01*
X211593Y272728D01*
X211652Y272872D01*
X211655Y272889D01*
X211661Y272905D01*
X211683Y273059D01*
X211708Y273214D01*
X211706Y273231D01*
X211709Y273247D01*
X211694Y273403D01*
X211683Y273559D01*
X211678Y273575D01*
X211677Y273592D01*
X211627Y273740D01*
X211580Y273889D01*
X211572Y273903D01*
X211566Y273919D01*
X211484Y274052D01*
X211405Y274187D01*
X211390Y274203D01*
X211384Y274213D01*
X211365Y274233D01*
X211270Y274341D01*
X210391Y275220D01*
X209583Y277170D01*
X209583Y279282D01*
X210391Y281232D01*
X211884Y282725D01*
X213834Y283533D01*
X215258Y283533D01*
X215362Y283545D01*
X215466Y283547D01*
X215533Y283565D01*
X215602Y283573D01*
X215700Y283608D01*
X215801Y283634D01*
X215862Y283667D01*
X215927Y283690D01*
X216014Y283747D01*
X216106Y283796D01*
X216158Y283841D01*
X216216Y283879D01*
X216288Y283954D01*
X216367Y284023D01*
X216407Y284079D01*
X216455Y284129D01*
X216508Y284219D01*
X216569Y284304D01*
X216595Y284368D01*
X216630Y284427D01*
X216661Y284527D01*
X216701Y284623D01*
X216712Y284692D01*
X216732Y284758D01*
X216739Y284862D01*
X216756Y284965D01*
X216751Y285034D01*
X216756Y285103D01*
X216739Y285205D01*
X216732Y285310D01*
X216711Y285376D01*
X216700Y285444D01*
X216660Y285540D01*
X216629Y285640D01*
X216594Y285699D01*
X216567Y285763D01*
X216506Y285848D01*
X216453Y285937D01*
X216385Y286016D01*
X216365Y286043D01*
X216348Y286058D01*
X216318Y286092D01*
X214127Y288283D01*
X214127Y330876D01*
X214123Y330911D01*
X214126Y330947D01*
X214103Y331083D01*
X214087Y331219D01*
X214075Y331253D01*
X214070Y331288D01*
X214017Y331415D01*
X213970Y331545D01*
X213951Y331574D01*
X213937Y331607D01*
X213856Y331719D01*
X213781Y331834D01*
X213755Y331859D01*
X213735Y331887D01*
X213631Y331978D01*
X213531Y332073D01*
X213500Y332091D01*
X213474Y332114D01*
X213351Y332178D01*
X213233Y332248D01*
X213199Y332258D01*
X213167Y332275D01*
X213034Y332309D01*
X212902Y332350D01*
X212867Y332352D01*
X212833Y332361D01*
X212628Y332375D01*
X206268Y332375D01*
X205375Y333268D01*
X205375Y352532D01*
X206268Y353425D01*
X225532Y353425D01*
X226425Y352532D01*
X226425Y333268D01*
X225532Y332375D01*
X221676Y332375D01*
X221641Y332371D01*
X221605Y332374D01*
X221469Y332351D01*
X221333Y332335D01*
X221299Y332323D01*
X221264Y332318D01*
X221137Y332265D01*
X221007Y332218D01*
X220978Y332199D01*
X220945Y332185D01*
X220833Y332104D01*
X220718Y332029D01*
X220693Y332003D01*
X220665Y331983D01*
X220574Y331879D01*
X220479Y331779D01*
X220461Y331748D01*
X220438Y331722D01*
X220374Y331599D01*
X220304Y331481D01*
X220294Y331447D01*
X220277Y331415D01*
X220243Y331282D01*
X220202Y331150D01*
X220200Y331115D01*
X220191Y331081D01*
X220177Y330876D01*
X220177Y291410D01*
X220193Y291272D01*
X220203Y291132D01*
X220213Y291100D01*
X220217Y291066D01*
X220264Y290936D01*
X220305Y290802D01*
X220323Y290773D01*
X220334Y290741D01*
X220410Y290624D01*
X220481Y290504D01*
X220511Y290470D01*
X220523Y290452D01*
X220547Y290428D01*
X220616Y290350D01*
X234188Y276778D01*
X234270Y276713D01*
X234345Y276641D01*
X234405Y276606D01*
X234459Y276563D01*
X234553Y276519D01*
X234643Y276466D01*
X234709Y276446D01*
X234772Y276416D01*
X234874Y276395D01*
X234974Y276364D01*
X235043Y276359D01*
X235110Y276345D01*
X235214Y276347D01*
X235319Y276340D01*
X235387Y276351D01*
X235456Y276353D01*
X235557Y276379D01*
X235660Y276396D01*
X235724Y276423D01*
X235790Y276440D01*
X235883Y276489D01*
X235979Y276529D01*
X236035Y276569D01*
X236096Y276602D01*
X236175Y276670D01*
X236259Y276731D01*
X236305Y276783D01*
X236357Y276829D01*
X236418Y276913D01*
X236486Y276992D01*
X236518Y277053D01*
X236559Y277110D01*
X236598Y277206D01*
X236647Y277298D01*
X236664Y277365D01*
X236691Y277429D01*
X236707Y277532D01*
X236733Y277633D01*
X236740Y277737D01*
X236746Y277770D01*
X236744Y277793D01*
X236747Y277838D01*
X236747Y330876D01*
X236743Y330911D01*
X236746Y330947D01*
X236723Y331083D01*
X236707Y331219D01*
X236695Y331253D01*
X236690Y331288D01*
X236637Y331415D01*
X236590Y331545D01*
X236571Y331574D01*
X236557Y331607D01*
X236476Y331719D01*
X236401Y331834D01*
X236375Y331859D01*
X236355Y331887D01*
X236251Y331978D01*
X236151Y332073D01*
X236120Y332091D01*
X236094Y332114D01*
X235971Y332178D01*
X235853Y332248D01*
X235819Y332258D01*
X235787Y332275D01*
X235654Y332309D01*
X235522Y332350D01*
X235487Y332352D01*
X235453Y332361D01*
X235248Y332375D01*
X231668Y332375D01*
X230775Y333268D01*
X230775Y352532D01*
X231668Y353425D01*
X250932Y353425D01*
X251825Y352532D01*
X251825Y333268D01*
X250932Y332375D01*
X244296Y332375D01*
X244261Y332371D01*
X244225Y332374D01*
X244089Y332351D01*
X243953Y332335D01*
X243919Y332323D01*
X243884Y332318D01*
X243757Y332265D01*
X243627Y332218D01*
X243598Y332199D01*
X243565Y332185D01*
X243453Y332104D01*
X243338Y332029D01*
X243313Y332003D01*
X243285Y331983D01*
X243194Y331879D01*
X243099Y331779D01*
X243081Y331748D01*
X243058Y331722D01*
X242994Y331599D01*
X242924Y331481D01*
X242914Y331447D01*
X242897Y331415D01*
X242863Y331282D01*
X242822Y331150D01*
X242820Y331115D01*
X242811Y331081D01*
X242797Y330876D01*
X242797Y273824D01*
X242801Y273789D01*
X242798Y273753D01*
X242821Y273617D01*
X242837Y273481D01*
X242849Y273447D01*
X242854Y273412D01*
X242907Y273285D01*
X242954Y273155D01*
X242973Y273126D01*
X242987Y273093D01*
X243068Y272981D01*
X243143Y272866D01*
X243169Y272841D01*
X243189Y272813D01*
X243293Y272722D01*
X243393Y272627D01*
X243424Y272609D01*
X243450Y272586D01*
X243573Y272522D01*
X243691Y272452D01*
X243725Y272442D01*
X243757Y272425D01*
X243890Y272391D01*
X244022Y272350D01*
X244057Y272348D01*
X244091Y272339D01*
X244296Y272325D01*
X249330Y272325D01*
X249468Y272341D01*
X249608Y272351D01*
X249640Y272361D01*
X249674Y272365D01*
X249804Y272412D01*
X249938Y272453D01*
X249967Y272471D01*
X249999Y272482D01*
X250116Y272558D01*
X250236Y272629D01*
X250270Y272659D01*
X250288Y272671D01*
X250312Y272695D01*
X250390Y272764D01*
X254384Y276758D01*
X254471Y276867D01*
X254562Y276972D01*
X254578Y277002D01*
X254599Y277029D01*
X254658Y277155D01*
X254723Y277278D01*
X254731Y277311D01*
X254746Y277342D01*
X254774Y277478D01*
X254809Y277613D01*
X254812Y277658D01*
X254817Y277680D01*
X254816Y277714D01*
X254823Y277818D01*
X254823Y279282D01*
X255631Y281232D01*
X257124Y282725D01*
X259074Y283533D01*
X261186Y283533D01*
X263136Y282725D01*
X264629Y281232D01*
X265437Y279282D01*
X265437Y277170D01*
X264629Y275220D01*
X263136Y273727D01*
X261186Y272919D01*
X259722Y272919D01*
X259584Y272903D01*
X259444Y272893D01*
X259412Y272883D01*
X259378Y272879D01*
X259248Y272832D01*
X259114Y272791D01*
X259085Y272773D01*
X259053Y272762D01*
X258936Y272686D01*
X258816Y272615D01*
X258782Y272585D01*
X258764Y272573D01*
X258740Y272549D01*
X258662Y272480D01*
X257464Y271282D01*
X257377Y271173D01*
X257286Y271068D01*
X257270Y271038D01*
X257249Y271011D01*
X257190Y270885D01*
X257125Y270762D01*
X257117Y270729D01*
X257102Y270698D01*
X257074Y270562D01*
X257039Y270427D01*
X257036Y270382D01*
X257031Y270360D01*
X257032Y270326D01*
X257025Y270222D01*
X257025Y260168D01*
X256114Y259257D01*
X255972Y259245D01*
X255950Y259238D01*
X255927Y259235D01*
X255786Y259184D01*
X255643Y259138D01*
X255624Y259126D01*
X255602Y259118D01*
X255476Y259036D01*
X255348Y258958D01*
X255332Y258942D01*
X255312Y258929D01*
X255209Y258820D01*
X255102Y258715D01*
X255090Y258696D01*
X255074Y258679D01*
X254998Y258550D01*
X254918Y258422D01*
X254910Y258401D01*
X254899Y258381D01*
X254854Y258238D01*
X254806Y258095D01*
X254803Y258072D01*
X254797Y258050D01*
X254786Y257901D01*
X254771Y257751D01*
X254775Y257728D01*
X254773Y257705D01*
X254797Y257558D01*
X254817Y257409D01*
X254825Y257387D01*
X254829Y257364D01*
X254886Y257226D01*
X254940Y257085D01*
X254953Y257066D01*
X254962Y257045D01*
X255049Y256923D01*
X255133Y256799D01*
X255150Y256783D01*
X255164Y256765D01*
X255277Y256666D01*
X255387Y256564D01*
X255408Y256553D01*
X255425Y256538D01*
X255558Y256468D01*
X255688Y256394D01*
X255717Y256385D01*
X255731Y256377D01*
X255737Y256376D01*
X255738Y256375D01*
X255762Y256369D01*
X255883Y256328D01*
X256481Y256168D01*
X257060Y255833D01*
X257533Y255360D01*
X257868Y254781D01*
X258041Y254135D01*
X258041Y251299D01*
X251000Y251299D01*
X250965Y251295D01*
X250930Y251298D01*
X250794Y251275D01*
X250657Y251259D01*
X250623Y251247D01*
X250588Y251242D01*
X250461Y251189D01*
X250332Y251142D01*
X250302Y251123D01*
X250269Y251109D01*
X250157Y251028D01*
X250042Y250953D01*
X250018Y250927D01*
X249989Y250907D01*
X249898Y250803D01*
X249803Y250703D01*
X249785Y250672D01*
X249762Y250646D01*
X249698Y250523D01*
X249628Y250405D01*
X249618Y250371D01*
X249601Y250339D01*
X249567Y250206D01*
X249526Y250074D01*
X249524Y250039D01*
X249515Y250005D01*
X249501Y249800D01*
X249501Y249299D01*
X249000Y249299D01*
X248965Y249295D01*
X248929Y249297D01*
X248793Y249275D01*
X248657Y249259D01*
X248623Y249247D01*
X248588Y249241D01*
X248461Y249189D01*
X248331Y249142D01*
X248302Y249122D01*
X248269Y249109D01*
X248157Y249028D01*
X248042Y248953D01*
X248017Y248927D01*
X247989Y248906D01*
X247898Y248802D01*
X247803Y248703D01*
X247785Y248672D01*
X247762Y248645D01*
X247698Y248523D01*
X247628Y248405D01*
X247618Y248371D01*
X247601Y248339D01*
X247567Y248206D01*
X247526Y248074D01*
X247524Y248039D01*
X247515Y248004D01*
X247501Y247800D01*
X247501Y241259D01*
X244296Y241259D01*
X244261Y241255D01*
X244225Y241258D01*
X244089Y241235D01*
X243953Y241219D01*
X243919Y241207D01*
X243884Y241202D01*
X243757Y241149D01*
X243627Y241102D01*
X243598Y241083D01*
X243565Y241069D01*
X243453Y240988D01*
X243338Y240913D01*
X243313Y240887D01*
X243285Y240867D01*
X243194Y240763D01*
X243099Y240663D01*
X243081Y240632D01*
X243058Y240606D01*
X242994Y240483D01*
X242924Y240365D01*
X242914Y240331D01*
X242897Y240299D01*
X242863Y240166D01*
X242822Y240034D01*
X242820Y239999D01*
X242811Y239965D01*
X242797Y239760D01*
X242797Y200065D01*
X236006Y193274D01*
X235941Y193192D01*
X235869Y193117D01*
X235834Y193057D01*
X235791Y193003D01*
X235747Y192909D01*
X235694Y192819D01*
X235674Y192753D01*
X235644Y192690D01*
X235623Y192588D01*
X235592Y192488D01*
X235587Y192419D01*
X235573Y192352D01*
X235575Y192248D01*
X235568Y192143D01*
X235579Y192075D01*
X235581Y192006D01*
X235607Y191905D01*
X235624Y191802D01*
X235651Y191738D01*
X235668Y191672D01*
X235717Y191579D01*
X235757Y191483D01*
X235797Y191427D01*
X235830Y191366D01*
X235898Y191287D01*
X235959Y191203D01*
X236011Y191157D01*
X236057Y191105D01*
X236141Y191044D01*
X236220Y190976D01*
X236281Y190944D01*
X236338Y190903D01*
X236434Y190864D01*
X236526Y190815D01*
X236593Y190798D01*
X236657Y190772D01*
X236760Y190755D01*
X236861Y190729D01*
X236965Y190722D01*
X236998Y190716D01*
X237021Y190718D01*
X237066Y190715D01*
X252672Y190715D01*
X253565Y189822D01*
X253565Y170558D01*
X252672Y169665D01*
X235248Y169665D01*
X235213Y169661D01*
X235177Y169664D01*
X235041Y169641D01*
X234905Y169625D01*
X234871Y169613D01*
X234836Y169608D01*
X234709Y169555D01*
X234579Y169508D01*
X234550Y169489D01*
X234517Y169475D01*
X234405Y169394D01*
X234290Y169319D01*
X234265Y169293D01*
X234237Y169273D01*
X234146Y169169D01*
X234051Y169069D01*
X234033Y169038D01*
X234010Y169012D01*
X233946Y168889D01*
X233876Y168771D01*
X233866Y168737D01*
X233849Y168705D01*
X233815Y168572D01*
X233774Y168440D01*
X233772Y168405D01*
X233763Y168371D01*
X233749Y168166D01*
X233749Y166814D01*
X233753Y166779D01*
X233750Y166743D01*
X233773Y166607D01*
X233789Y166471D01*
X233801Y166437D01*
X233806Y166402D01*
X233859Y166275D01*
X233906Y166145D01*
X233925Y166116D01*
X233939Y166083D01*
X234020Y165971D01*
X234095Y165856D01*
X234121Y165831D01*
X234141Y165803D01*
X234245Y165712D01*
X234345Y165617D01*
X234376Y165599D01*
X234402Y165576D01*
X234525Y165512D01*
X234643Y165442D01*
X234677Y165432D01*
X234709Y165415D01*
X234842Y165381D01*
X234974Y165340D01*
X235009Y165338D01*
X235043Y165329D01*
X235248Y165315D01*
X252672Y165315D01*
X253565Y164422D01*
X253565Y153970D01*
X253581Y153832D01*
X253591Y153692D01*
X253601Y153660D01*
X253605Y153626D01*
X253652Y153496D01*
X253693Y153362D01*
X253711Y153333D01*
X253722Y153301D01*
X253798Y153184D01*
X253869Y153064D01*
X253899Y153030D01*
X253911Y153012D01*
X253935Y152988D01*
X254004Y152910D01*
X263206Y143708D01*
X263315Y143621D01*
X263420Y143530D01*
X263450Y143514D01*
X263477Y143493D01*
X263603Y143434D01*
X263726Y143369D01*
X263759Y143361D01*
X263790Y143346D01*
X263926Y143318D01*
X264061Y143283D01*
X264106Y143280D01*
X264128Y143275D01*
X264162Y143276D01*
X264266Y143269D01*
X412346Y143269D01*
X412381Y143273D01*
X412417Y143270D01*
X412553Y143293D01*
X412689Y143309D01*
X412723Y143321D01*
X412758Y143326D01*
X412885Y143379D01*
X413015Y143426D01*
X413044Y143445D01*
X413077Y143459D01*
X413189Y143540D01*
X413304Y143615D01*
X413329Y143641D01*
X413357Y143661D01*
X413448Y143765D01*
X413543Y143865D01*
X413561Y143896D01*
X413584Y143922D01*
X413648Y144045D01*
X413718Y144163D01*
X413728Y144197D01*
X413745Y144229D01*
X413779Y144362D01*
X413820Y144494D01*
X413822Y144529D01*
X413831Y144563D01*
X413845Y144768D01*
X413845Y145442D01*
X414738Y146335D01*
X426002Y146335D01*
X426895Y145442D01*
X426895Y133178D01*
X426175Y132458D01*
X426138Y132413D01*
X426096Y132373D01*
X426031Y132277D01*
X425960Y132187D01*
X425935Y132134D01*
X425903Y132086D01*
X425862Y131978D01*
X425813Y131874D01*
X425801Y131817D01*
X425781Y131763D01*
X425766Y131648D01*
X425742Y131536D01*
X425743Y131478D01*
X425736Y131420D01*
X425747Y131305D01*
X425750Y131190D01*
X425765Y131134D01*
X425771Y131076D01*
X425808Y130967D01*
X425837Y130856D01*
X425865Y130804D01*
X425884Y130749D01*
X425945Y130652D01*
X425999Y130550D01*
X426037Y130506D01*
X426068Y130457D01*
X426150Y130376D01*
X426226Y130289D01*
X426273Y130255D01*
X426315Y130214D01*
X426485Y130100D01*
X426930Y129843D01*
X427403Y129370D01*
X427738Y128791D01*
X427911Y128145D01*
X427911Y124809D01*
X422869Y124809D01*
X422869Y130786D01*
X422865Y130821D01*
X422868Y130857D01*
X422845Y130993D01*
X422829Y131129D01*
X422817Y131163D01*
X422812Y131198D01*
X422759Y131325D01*
X422712Y131455D01*
X422693Y131484D01*
X422679Y131517D01*
X422598Y131629D01*
X422523Y131744D01*
X422497Y131769D01*
X422477Y131797D01*
X422373Y131888D01*
X422273Y131983D01*
X422242Y132001D01*
X422216Y132024D01*
X422093Y132088D01*
X421975Y132158D01*
X421941Y132168D01*
X421909Y132185D01*
X421776Y132219D01*
X421644Y132260D01*
X421609Y132262D01*
X421575Y132271D01*
X421370Y132285D01*
X419370Y132285D01*
X419335Y132281D01*
X419299Y132284D01*
X419163Y132261D01*
X419027Y132245D01*
X418993Y132233D01*
X418958Y132228D01*
X418831Y132175D01*
X418701Y132128D01*
X418672Y132109D01*
X418639Y132095D01*
X418527Y132014D01*
X418412Y131939D01*
X418387Y131913D01*
X418359Y131893D01*
X418268Y131789D01*
X418173Y131689D01*
X418155Y131658D01*
X418132Y131632D01*
X418068Y131509D01*
X417998Y131391D01*
X417988Y131357D01*
X417971Y131325D01*
X417937Y131192D01*
X417896Y131060D01*
X417894Y131025D01*
X417885Y130991D01*
X417871Y130786D01*
X417871Y124809D01*
X412829Y124809D01*
X412829Y128145D01*
X413002Y128791D01*
X413337Y129370D01*
X413810Y129843D01*
X414255Y130100D01*
X414302Y130135D01*
X414353Y130162D01*
X414440Y130237D01*
X414532Y130306D01*
X414570Y130351D01*
X414614Y130389D01*
X414681Y130483D01*
X414755Y130570D01*
X414782Y130623D01*
X414816Y130670D01*
X414860Y130777D01*
X414912Y130879D01*
X414925Y130935D01*
X414948Y130990D01*
X414966Y131103D01*
X414993Y131215D01*
X414994Y131273D01*
X415003Y131331D01*
X414995Y131446D01*
X414996Y131561D01*
X414983Y131617D01*
X414978Y131676D01*
X414944Y131786D01*
X414919Y131898D01*
X414893Y131950D01*
X414876Y132006D01*
X414817Y132105D01*
X414767Y132208D01*
X414730Y132253D01*
X414700Y132304D01*
X414565Y132458D01*
X413845Y133178D01*
X413845Y135720D01*
X413841Y135755D01*
X413844Y135791D01*
X413821Y135927D01*
X413805Y136063D01*
X413793Y136097D01*
X413788Y136132D01*
X413735Y136259D01*
X413688Y136389D01*
X413669Y136418D01*
X413655Y136451D01*
X413574Y136563D01*
X413499Y136678D01*
X413473Y136703D01*
X413453Y136731D01*
X413349Y136822D01*
X413249Y136917D01*
X413218Y136935D01*
X413192Y136958D01*
X413069Y137022D01*
X412951Y137092D01*
X412917Y137102D01*
X412885Y137119D01*
X412752Y137153D01*
X412620Y137194D01*
X412585Y137196D01*
X412551Y137205D01*
X412346Y137219D01*
X336178Y137219D01*
X336126Y137213D01*
X336074Y137216D01*
X335955Y137193D01*
X335835Y137179D01*
X335785Y137162D01*
X335734Y137152D01*
X335623Y137103D01*
X335509Y137062D01*
X335466Y137033D01*
X335418Y137012D01*
X335321Y136939D01*
X335220Y136873D01*
X335184Y136835D01*
X335142Y136804D01*
X335065Y136710D01*
X334981Y136623D01*
X334955Y136578D01*
X334921Y136538D01*
X334867Y136429D01*
X334806Y136325D01*
X334791Y136275D01*
X334767Y136228D01*
X334740Y136110D01*
X334704Y135994D01*
X334700Y135942D01*
X334689Y135891D01*
X334689Y135770D01*
X334680Y135649D01*
X334689Y135598D01*
X334689Y135546D01*
X334717Y135428D01*
X334736Y135308D01*
X334756Y135260D01*
X334768Y135209D01*
X334823Y135101D01*
X334869Y134989D01*
X334900Y134947D01*
X334923Y134900D01*
X335000Y134807D01*
X335071Y134709D01*
X335111Y134674D01*
X335144Y134634D01*
X335241Y134561D01*
X335332Y134482D01*
X335379Y134458D01*
X335420Y134426D01*
X335604Y134335D01*
X337782Y133433D01*
X339275Y131940D01*
X340083Y129990D01*
X340083Y127878D01*
X339275Y125928D01*
X337782Y124435D01*
X335604Y123533D01*
X335559Y123508D01*
X335509Y123490D01*
X335408Y123424D01*
X335302Y123365D01*
X335263Y123330D01*
X335220Y123301D01*
X335136Y123214D01*
X335047Y123132D01*
X335017Y123089D01*
X334981Y123051D01*
X334920Y122947D01*
X334851Y122847D01*
X334833Y122798D01*
X334806Y122753D01*
X334770Y122637D01*
X334727Y122524D01*
X334719Y122472D01*
X334704Y122422D01*
X334696Y122302D01*
X334679Y122182D01*
X334684Y122130D01*
X334680Y122077D01*
X334700Y121958D01*
X334711Y121837D01*
X334728Y121788D01*
X334736Y121736D01*
X334783Y121624D01*
X334821Y121510D01*
X334849Y121465D01*
X334869Y121417D01*
X334940Y121319D01*
X335004Y121216D01*
X335041Y121179D01*
X335071Y121137D01*
X335163Y121057D01*
X335248Y120972D01*
X335293Y120944D01*
X335332Y120910D01*
X335440Y120854D01*
X335543Y120790D01*
X335592Y120773D01*
X335638Y120749D01*
X335756Y120719D01*
X335871Y120681D01*
X335923Y120676D01*
X335973Y120663D01*
X336178Y120649D01*
X368129Y120649D01*
X368267Y120665D01*
X368406Y120675D01*
X368439Y120685D01*
X368472Y120689D01*
X368603Y120736D01*
X368737Y120777D01*
X368766Y120795D01*
X368797Y120806D01*
X368914Y120882D01*
X369034Y120953D01*
X369068Y120983D01*
X369087Y120995D01*
X369110Y121019D01*
X369189Y121088D01*
X370224Y122123D01*
X372174Y122931D01*
X374286Y122931D01*
X376236Y122123D01*
X377729Y120630D01*
X378537Y118680D01*
X378537Y116568D01*
X377729Y114618D01*
X376236Y113125D01*
X374286Y112317D01*
X372174Y112317D01*
X370224Y113125D01*
X369189Y114160D01*
X369080Y114247D01*
X368974Y114338D01*
X368944Y114354D01*
X368918Y114375D01*
X368792Y114434D01*
X368668Y114499D01*
X368636Y114507D01*
X368605Y114522D01*
X368469Y114550D01*
X368334Y114585D01*
X368288Y114588D01*
X368267Y114593D01*
X368233Y114592D01*
X368129Y114599D01*
X298947Y114599D01*
X298880Y114592D01*
X298813Y114593D01*
X298709Y114572D01*
X298603Y114559D01*
X298540Y114537D01*
X298474Y114523D01*
X298378Y114478D01*
X298278Y114442D01*
X298222Y114405D01*
X298161Y114377D01*
X298077Y114311D01*
X297988Y114253D01*
X297942Y114205D01*
X297889Y114163D01*
X297823Y114080D01*
X297750Y114003D01*
X297716Y113945D01*
X297674Y113893D01*
X297628Y113796D01*
X297575Y113705D01*
X297555Y113641D01*
X297526Y113580D01*
X297504Y113476D01*
X297473Y113374D01*
X297468Y113307D01*
X297454Y113242D01*
X297456Y113136D01*
X297449Y113029D01*
X297460Y112963D01*
X297461Y112896D01*
X297488Y112793D01*
X297505Y112688D01*
X297531Y112626D01*
X297547Y112561D01*
X297597Y112467D01*
X297638Y112369D01*
X297677Y112315D01*
X297708Y112255D01*
X297778Y112175D01*
X297840Y112089D01*
X297891Y112045D01*
X297934Y111994D01*
X298095Y111866D01*
X299159Y111132D01*
X302356Y105040D01*
X302356Y98160D01*
X299159Y92068D01*
X293497Y88160D01*
X286667Y87331D01*
X280235Y89771D01*
G37*
%LPD*%
G36*
X171865Y165331D02*
X171865Y165331D01*
X172004Y165341D01*
X172036Y165351D01*
X172070Y165355D01*
X172201Y165402D01*
X172334Y165443D01*
X172363Y165461D01*
X172395Y165472D01*
X172512Y165548D01*
X172632Y165619D01*
X172666Y165649D01*
X172684Y165661D01*
X172708Y165685D01*
X172786Y165754D01*
X173122Y166090D01*
X173187Y166172D01*
X173259Y166247D01*
X173294Y166307D01*
X173337Y166361D01*
X173381Y166455D01*
X173434Y166545D01*
X173454Y166611D01*
X173484Y166674D01*
X173505Y166776D01*
X173536Y166876D01*
X173541Y166945D01*
X173555Y167012D01*
X173553Y167116D01*
X173560Y167221D01*
X173549Y167289D01*
X173547Y167358D01*
X173521Y167459D01*
X173504Y167562D01*
X173477Y167626D01*
X173460Y167692D01*
X173411Y167785D01*
X173371Y167881D01*
X173331Y167937D01*
X173298Y167998D01*
X173230Y168077D01*
X173169Y168161D01*
X173117Y168207D01*
X173071Y168259D01*
X172987Y168320D01*
X172908Y168388D01*
X172847Y168420D01*
X172790Y168461D01*
X172694Y168500D01*
X172602Y168549D01*
X172535Y168566D01*
X172471Y168592D01*
X172368Y168609D01*
X172267Y168635D01*
X172163Y168642D01*
X172130Y168648D01*
X172107Y168646D01*
X172062Y168649D01*
X169839Y168649D01*
X169839Y177191D01*
X178381Y177191D01*
X178381Y174174D01*
X178385Y174139D01*
X178382Y174103D01*
X178405Y173967D01*
X178421Y173831D01*
X178433Y173797D01*
X178438Y173762D01*
X178491Y173635D01*
X178538Y173505D01*
X178557Y173476D01*
X178571Y173443D01*
X178652Y173331D01*
X178727Y173216D01*
X178753Y173191D01*
X178773Y173163D01*
X178877Y173072D01*
X178977Y172977D01*
X179008Y172959D01*
X179034Y172936D01*
X179157Y172872D01*
X179275Y172802D01*
X179309Y172792D01*
X179341Y172775D01*
X179474Y172741D01*
X179606Y172700D01*
X179641Y172698D01*
X179675Y172689D01*
X179880Y172675D01*
X196476Y172675D01*
X196511Y172679D01*
X196547Y172676D01*
X196683Y172699D01*
X196819Y172715D01*
X196853Y172727D01*
X196888Y172732D01*
X197015Y172785D01*
X197145Y172832D01*
X197174Y172851D01*
X197207Y172865D01*
X197319Y172946D01*
X197434Y173021D01*
X197459Y173047D01*
X197487Y173067D01*
X197578Y173171D01*
X197673Y173271D01*
X197691Y173302D01*
X197714Y173328D01*
X197778Y173451D01*
X197848Y173569D01*
X197858Y173603D01*
X197875Y173635D01*
X197909Y173768D01*
X197950Y173900D01*
X197952Y173935D01*
X197961Y173969D01*
X197975Y174174D01*
X197975Y177132D01*
X198868Y178025D01*
X204794Y178025D01*
X204932Y178041D01*
X205072Y178051D01*
X205104Y178061D01*
X205138Y178065D01*
X205268Y178112D01*
X205402Y178153D01*
X205431Y178171D01*
X205463Y178182D01*
X205580Y178258D01*
X205700Y178329D01*
X205734Y178359D01*
X205752Y178371D01*
X205776Y178395D01*
X205854Y178464D01*
X206806Y179416D01*
X206871Y179498D01*
X206943Y179573D01*
X206978Y179633D01*
X207021Y179687D01*
X207065Y179782D01*
X207118Y179871D01*
X207138Y179937D01*
X207168Y180000D01*
X207189Y180102D01*
X207220Y180202D01*
X207225Y180271D01*
X207239Y180338D01*
X207237Y180442D01*
X207244Y180547D01*
X207233Y180615D01*
X207231Y180684D01*
X207205Y180785D01*
X207188Y180888D01*
X207161Y180951D01*
X207144Y181018D01*
X207095Y181111D01*
X207055Y181207D01*
X207015Y181263D01*
X206982Y181324D01*
X206914Y181403D01*
X206853Y181487D01*
X206801Y181533D01*
X206755Y181585D01*
X206671Y181646D01*
X206592Y181714D01*
X206530Y181746D01*
X206474Y181787D01*
X206378Y181826D01*
X206286Y181875D01*
X206219Y181892D01*
X206155Y181918D01*
X206052Y181935D01*
X205951Y181961D01*
X205847Y181968D01*
X205814Y181974D01*
X205791Y181972D01*
X205746Y181975D01*
X198868Y181975D01*
X197975Y182868D01*
X197975Y194132D01*
X198868Y195025D01*
X199056Y195025D01*
X199091Y195029D01*
X199127Y195026D01*
X199263Y195049D01*
X199399Y195065D01*
X199433Y195077D01*
X199468Y195082D01*
X199595Y195135D01*
X199725Y195182D01*
X199754Y195201D01*
X199787Y195215D01*
X199899Y195296D01*
X200014Y195371D01*
X200039Y195397D01*
X200067Y195417D01*
X200158Y195521D01*
X200253Y195621D01*
X200271Y195652D01*
X200294Y195678D01*
X200358Y195801D01*
X200428Y195919D01*
X200438Y195953D01*
X200455Y195985D01*
X200489Y196118D01*
X200530Y196250D01*
X200532Y196285D01*
X200541Y196319D01*
X200555Y196524D01*
X200555Y201706D01*
X200539Y201844D01*
X200529Y201984D01*
X200519Y202016D01*
X200515Y202050D01*
X200468Y202180D01*
X200427Y202314D01*
X200409Y202343D01*
X200398Y202375D01*
X200322Y202492D01*
X200251Y202612D01*
X200221Y202646D01*
X200209Y202664D01*
X200185Y202688D01*
X200116Y202766D01*
X186544Y216338D01*
X186516Y216360D01*
X186493Y216387D01*
X186381Y216467D01*
X186273Y216553D01*
X186241Y216568D01*
X186212Y216589D01*
X186085Y216641D01*
X185960Y216700D01*
X185925Y216707D01*
X185893Y216721D01*
X185756Y216743D01*
X185622Y216771D01*
X185586Y216770D01*
X185551Y216776D01*
X185414Y216766D01*
X185276Y216763D01*
X185242Y216754D01*
X185206Y216751D01*
X185075Y216710D01*
X184942Y216676D01*
X184910Y216659D01*
X184876Y216649D01*
X184757Y216579D01*
X184636Y216514D01*
X184609Y216491D01*
X184579Y216473D01*
X184424Y216338D01*
X162376Y194290D01*
X162311Y194208D01*
X162239Y194133D01*
X162204Y194073D01*
X162161Y194019D01*
X162117Y193925D01*
X162064Y193835D01*
X162044Y193769D01*
X162014Y193706D01*
X161993Y193604D01*
X161962Y193504D01*
X161957Y193435D01*
X161943Y193368D01*
X161945Y193264D01*
X161938Y193159D01*
X161949Y193091D01*
X161951Y193022D01*
X161977Y192921D01*
X161994Y192818D01*
X162021Y192754D01*
X162038Y192688D01*
X162087Y192595D01*
X162127Y192499D01*
X162167Y192443D01*
X162200Y192382D01*
X162268Y192303D01*
X162329Y192219D01*
X162381Y192173D01*
X162427Y192121D01*
X162511Y192060D01*
X162590Y191992D01*
X162651Y191960D01*
X162708Y191919D01*
X162804Y191880D01*
X162896Y191831D01*
X162963Y191814D01*
X163027Y191787D01*
X163130Y191771D01*
X163231Y191745D01*
X163335Y191738D01*
X163368Y191732D01*
X163391Y191734D01*
X163436Y191731D01*
X163841Y191731D01*
X163841Y181690D01*
X163845Y181655D01*
X163842Y181620D01*
X163865Y181483D01*
X163881Y181347D01*
X163893Y181313D01*
X163898Y181278D01*
X163951Y181151D01*
X163998Y181022D01*
X164018Y180992D01*
X164031Y180959D01*
X164112Y180847D01*
X164187Y180732D01*
X164213Y180707D01*
X164233Y180679D01*
X164338Y180588D01*
X164437Y180493D01*
X164468Y180475D01*
X164494Y180452D01*
X164617Y180388D01*
X164735Y180318D01*
X164769Y180308D01*
X164801Y180291D01*
X164934Y180257D01*
X165066Y180216D01*
X165101Y180214D01*
X165135Y180205D01*
X165340Y180191D01*
X166841Y180191D01*
X166841Y180189D01*
X165340Y180189D01*
X165305Y180185D01*
X165269Y180187D01*
X165133Y180165D01*
X164997Y180149D01*
X164963Y180137D01*
X164928Y180131D01*
X164801Y180079D01*
X164671Y180032D01*
X164642Y180012D01*
X164609Y179999D01*
X164497Y179918D01*
X164382Y179843D01*
X164357Y179817D01*
X164329Y179797D01*
X164238Y179692D01*
X164143Y179593D01*
X164125Y179562D01*
X164102Y179535D01*
X164038Y179413D01*
X163968Y179295D01*
X163958Y179261D01*
X163941Y179229D01*
X163907Y179096D01*
X163866Y178964D01*
X163864Y178929D01*
X163855Y178895D01*
X163841Y178690D01*
X163841Y168649D01*
X158340Y168649D01*
X158305Y168645D01*
X158269Y168648D01*
X158133Y168625D01*
X157997Y168609D01*
X157963Y168597D01*
X157928Y168592D01*
X157801Y168539D01*
X157671Y168492D01*
X157642Y168473D01*
X157609Y168459D01*
X157497Y168378D01*
X157382Y168303D01*
X157357Y168277D01*
X157329Y168257D01*
X157238Y168153D01*
X157143Y168053D01*
X157125Y168022D01*
X157102Y167996D01*
X157038Y167873D01*
X156968Y167755D01*
X156958Y167721D01*
X156941Y167689D01*
X156907Y167556D01*
X156866Y167424D01*
X156864Y167389D01*
X156855Y167355D01*
X156841Y167150D01*
X156841Y166814D01*
X156845Y166779D01*
X156842Y166743D01*
X156865Y166607D01*
X156881Y166471D01*
X156893Y166437D01*
X156898Y166402D01*
X156951Y166275D01*
X156998Y166145D01*
X157017Y166116D01*
X157031Y166083D01*
X157112Y165971D01*
X157187Y165856D01*
X157213Y165831D01*
X157233Y165803D01*
X157337Y165712D01*
X157437Y165617D01*
X157468Y165599D01*
X157494Y165576D01*
X157617Y165512D01*
X157735Y165442D01*
X157769Y165432D01*
X157801Y165415D01*
X157934Y165381D01*
X158066Y165340D01*
X158101Y165338D01*
X158135Y165329D01*
X158340Y165315D01*
X171726Y165315D01*
X171865Y165331D01*
G37*
%LPC*%
G36*
X349554Y202797D02*
X349554Y202797D01*
X347604Y203605D01*
X346111Y205098D01*
X345303Y207048D01*
X345303Y208512D01*
X345287Y208650D01*
X345277Y208790D01*
X345267Y208822D01*
X345263Y208856D01*
X345216Y208986D01*
X345175Y209120D01*
X345157Y209149D01*
X345146Y209181D01*
X345070Y209298D01*
X344999Y209418D01*
X344969Y209452D01*
X344957Y209470D01*
X344933Y209494D01*
X344864Y209572D01*
X329438Y224998D01*
X329329Y225085D01*
X329224Y225176D01*
X329194Y225192D01*
X329167Y225213D01*
X329041Y225272D01*
X328918Y225337D01*
X328885Y225345D01*
X328854Y225360D01*
X328718Y225388D01*
X328583Y225423D01*
X328538Y225426D01*
X328516Y225431D01*
X328482Y225430D01*
X328378Y225437D01*
X278803Y225437D01*
X278665Y225421D01*
X278526Y225411D01*
X278493Y225401D01*
X278460Y225397D01*
X278329Y225350D01*
X278195Y225309D01*
X278166Y225291D01*
X278135Y225280D01*
X278018Y225204D01*
X277898Y225133D01*
X277864Y225103D01*
X277845Y225091D01*
X277822Y225067D01*
X277743Y224998D01*
X276708Y223963D01*
X274758Y223155D01*
X272646Y223155D01*
X270696Y223963D01*
X269203Y225456D01*
X268395Y227406D01*
X268395Y229518D01*
X269203Y231468D01*
X270696Y232961D01*
X272646Y233769D01*
X274758Y233769D01*
X276708Y232961D01*
X277743Y231926D01*
X277852Y231839D01*
X277958Y231748D01*
X277988Y231732D01*
X278014Y231711D01*
X278140Y231652D01*
X278264Y231587D01*
X278296Y231579D01*
X278327Y231564D01*
X278463Y231536D01*
X278598Y231501D01*
X278644Y231498D01*
X278665Y231493D01*
X278699Y231494D01*
X278803Y231487D01*
X331505Y231487D01*
X349142Y213850D01*
X349251Y213763D01*
X349356Y213672D01*
X349386Y213656D01*
X349413Y213635D01*
X349539Y213576D01*
X349662Y213511D01*
X349695Y213503D01*
X349726Y213488D01*
X349862Y213460D01*
X349997Y213425D01*
X350042Y213422D01*
X350064Y213417D01*
X350098Y213418D01*
X350202Y213411D01*
X351666Y213411D01*
X353616Y212603D01*
X355109Y211110D01*
X355917Y209160D01*
X355917Y207048D01*
X355109Y205098D01*
X353616Y203605D01*
X351666Y202797D01*
X349554Y202797D01*
G37*
%LPD*%
%LPC*%
G36*
X91968Y141875D02*
X91968Y141875D01*
X91075Y142768D01*
X91075Y162032D01*
X91968Y162925D01*
X111232Y162925D01*
X112125Y162032D01*
X112125Y142768D01*
X111232Y141875D01*
X91968Y141875D01*
G37*
%LPD*%
%LPC*%
G36*
X66568Y332375D02*
X66568Y332375D01*
X65675Y333268D01*
X65675Y352532D01*
X66568Y353425D01*
X85832Y353425D01*
X86725Y352532D01*
X86725Y333268D01*
X85832Y332375D01*
X66568Y332375D01*
G37*
%LPD*%
%LPC*%
G36*
X134664Y28623D02*
X134664Y28623D01*
X132714Y29431D01*
X131221Y30924D01*
X130413Y32874D01*
X130413Y34986D01*
X131221Y36936D01*
X132714Y38429D01*
X134664Y39237D01*
X136776Y39237D01*
X138726Y38429D01*
X139761Y37394D01*
X139870Y37307D01*
X139976Y37216D01*
X140006Y37200D01*
X140032Y37179D01*
X140158Y37120D01*
X140282Y37055D01*
X140314Y37047D01*
X140345Y37032D01*
X140481Y37004D01*
X140616Y36969D01*
X140662Y36966D01*
X140683Y36961D01*
X140717Y36962D01*
X140821Y36955D01*
X164549Y36955D01*
X164687Y36971D01*
X164826Y36981D01*
X164859Y36991D01*
X164892Y36995D01*
X165023Y37042D01*
X165157Y37083D01*
X165186Y37101D01*
X165217Y37112D01*
X165334Y37188D01*
X165454Y37259D01*
X165488Y37289D01*
X165507Y37301D01*
X165530Y37325D01*
X165609Y37394D01*
X166644Y38429D01*
X168594Y39237D01*
X170706Y39237D01*
X172656Y38429D01*
X174149Y36936D01*
X174957Y34986D01*
X174957Y32874D01*
X174149Y30924D01*
X172656Y29431D01*
X170706Y28623D01*
X168594Y28623D01*
X166644Y29431D01*
X165609Y30466D01*
X165500Y30553D01*
X165394Y30644D01*
X165364Y30660D01*
X165338Y30681D01*
X165212Y30740D01*
X165088Y30805D01*
X165056Y30813D01*
X165025Y30828D01*
X164889Y30856D01*
X164754Y30891D01*
X164708Y30894D01*
X164687Y30899D01*
X164653Y30898D01*
X164549Y30905D01*
X140821Y30905D01*
X140683Y30889D01*
X140544Y30879D01*
X140511Y30869D01*
X140478Y30865D01*
X140347Y30818D01*
X140213Y30777D01*
X140184Y30759D01*
X140153Y30748D01*
X140036Y30672D01*
X139916Y30601D01*
X139882Y30571D01*
X139863Y30559D01*
X139840Y30535D01*
X139761Y30466D01*
X138726Y29431D01*
X136776Y28623D01*
X134664Y28623D01*
G37*
%LPD*%
%LPC*%
G36*
X334224Y291873D02*
X334224Y291873D01*
X332274Y292681D01*
X330781Y294174D01*
X329973Y296124D01*
X329973Y297588D01*
X329957Y297726D01*
X329947Y297866D01*
X329937Y297898D01*
X329933Y297932D01*
X329886Y298062D01*
X329845Y298196D01*
X329827Y298225D01*
X329816Y298257D01*
X329740Y298374D01*
X329669Y298494D01*
X329639Y298528D01*
X329627Y298546D01*
X329603Y298570D01*
X329534Y298648D01*
X323646Y304536D01*
X323537Y304623D01*
X323432Y304714D01*
X323402Y304730D01*
X323375Y304751D01*
X323249Y304810D01*
X323126Y304875D01*
X323093Y304883D01*
X323062Y304898D01*
X322926Y304926D01*
X322791Y304961D01*
X322746Y304964D01*
X322724Y304969D01*
X322690Y304968D01*
X322586Y304975D01*
X313868Y304975D01*
X312975Y305868D01*
X312975Y317132D01*
X313868Y318025D01*
X326132Y318025D01*
X327025Y317132D01*
X327025Y310334D01*
X327041Y310196D01*
X327051Y310056D01*
X327061Y310024D01*
X327065Y309990D01*
X327112Y309860D01*
X327153Y309726D01*
X327171Y309697D01*
X327182Y309665D01*
X327258Y309548D01*
X327329Y309428D01*
X327359Y309394D01*
X327371Y309376D01*
X327395Y309352D01*
X327464Y309274D01*
X333812Y302926D01*
X333921Y302839D01*
X334026Y302748D01*
X334056Y302732D01*
X334083Y302711D01*
X334209Y302652D01*
X334332Y302587D01*
X334365Y302579D01*
X334396Y302564D01*
X334532Y302536D01*
X334667Y302501D01*
X334712Y302498D01*
X334734Y302493D01*
X334768Y302494D01*
X334872Y302487D01*
X336336Y302487D01*
X338286Y301679D01*
X339779Y300186D01*
X340587Y298236D01*
X340587Y296124D01*
X339779Y294174D01*
X338286Y292681D01*
X336336Y291873D01*
X334224Y291873D01*
G37*
%LPD*%
%LPC*%
G36*
X359624Y290603D02*
X359624Y290603D01*
X357674Y291411D01*
X356181Y292904D01*
X355373Y294854D01*
X355373Y296318D01*
X355357Y296456D01*
X355347Y296596D01*
X355337Y296628D01*
X355333Y296662D01*
X355286Y296792D01*
X355245Y296926D01*
X355227Y296955D01*
X355216Y296987D01*
X355140Y297104D01*
X355069Y297224D01*
X355039Y297258D01*
X355027Y297276D01*
X355003Y297300D01*
X354934Y297378D01*
X347776Y304536D01*
X347667Y304623D01*
X347562Y304714D01*
X347532Y304730D01*
X347505Y304751D01*
X347379Y304810D01*
X347256Y304875D01*
X347223Y304883D01*
X347192Y304898D01*
X347056Y304926D01*
X346921Y304961D01*
X346876Y304964D01*
X346854Y304969D01*
X346820Y304968D01*
X346716Y304975D01*
X343868Y304975D01*
X342975Y305868D01*
X342975Y317132D01*
X343868Y318025D01*
X356132Y318025D01*
X357025Y317132D01*
X357025Y305866D01*
X357023Y305865D01*
X356943Y305753D01*
X356857Y305645D01*
X356842Y305613D01*
X356822Y305584D01*
X356769Y305456D01*
X356711Y305332D01*
X356703Y305297D01*
X356690Y305264D01*
X356668Y305128D01*
X356639Y304993D01*
X356640Y304958D01*
X356634Y304923D01*
X356644Y304785D01*
X356647Y304648D01*
X356656Y304614D01*
X356659Y304578D01*
X356700Y304447D01*
X356735Y304313D01*
X356751Y304282D01*
X356762Y304248D01*
X356832Y304129D01*
X356896Y304007D01*
X356919Y303981D01*
X356937Y303950D01*
X357072Y303796D01*
X359212Y301656D01*
X359321Y301569D01*
X359426Y301478D01*
X359456Y301462D01*
X359483Y301441D01*
X359609Y301382D01*
X359732Y301317D01*
X359765Y301309D01*
X359796Y301294D01*
X359932Y301266D01*
X360067Y301231D01*
X360112Y301228D01*
X360134Y301223D01*
X360168Y301224D01*
X360272Y301217D01*
X361736Y301217D01*
X363686Y300409D01*
X365179Y298916D01*
X365987Y296966D01*
X365987Y294854D01*
X365179Y292904D01*
X363686Y291411D01*
X361736Y290603D01*
X359624Y290603D01*
G37*
%LPD*%
%LPC*%
G36*
X349554Y162081D02*
X349554Y162081D01*
X347604Y162889D01*
X346111Y164382D01*
X345303Y166332D01*
X345303Y168444D01*
X346111Y170394D01*
X347604Y171887D01*
X349554Y172695D01*
X351018Y172695D01*
X351156Y172711D01*
X351296Y172721D01*
X351328Y172731D01*
X351362Y172735D01*
X351492Y172782D01*
X351626Y172823D01*
X351655Y172841D01*
X351687Y172852D01*
X351804Y172928D01*
X351924Y172999D01*
X351958Y173029D01*
X351976Y173041D01*
X352000Y173065D01*
X352078Y173134D01*
X367484Y188540D01*
X367571Y188649D01*
X367662Y188754D01*
X367678Y188784D01*
X367699Y188811D01*
X367758Y188937D01*
X367823Y189060D01*
X367831Y189093D01*
X367846Y189124D01*
X367874Y189260D01*
X367909Y189395D01*
X367912Y189440D01*
X367917Y189462D01*
X367916Y189496D01*
X367923Y189600D01*
X367923Y191064D01*
X368731Y193014D01*
X370224Y194507D01*
X372174Y195315D01*
X374286Y195315D01*
X376236Y194507D01*
X377729Y193014D01*
X378537Y191064D01*
X378537Y188952D01*
X377729Y187002D01*
X376236Y185509D01*
X374286Y184701D01*
X372822Y184701D01*
X372684Y184685D01*
X372544Y184675D01*
X372512Y184665D01*
X372478Y184661D01*
X372348Y184614D01*
X372214Y184573D01*
X372185Y184555D01*
X372153Y184544D01*
X372036Y184468D01*
X371916Y184397D01*
X371882Y184367D01*
X371864Y184355D01*
X371840Y184331D01*
X371762Y184262D01*
X356356Y168856D01*
X356286Y168768D01*
X356242Y168722D01*
X356231Y168703D01*
X356178Y168642D01*
X356162Y168612D01*
X356141Y168585D01*
X356082Y168459D01*
X356017Y168336D01*
X356009Y168303D01*
X355994Y168272D01*
X355966Y168136D01*
X355931Y168001D01*
X355928Y167956D01*
X355923Y167934D01*
X355924Y167900D01*
X355917Y167796D01*
X355917Y166332D01*
X355109Y164382D01*
X353616Y162889D01*
X351666Y162081D01*
X349554Y162081D01*
G37*
%LPD*%
%LPC*%
G36*
X381214Y290603D02*
X381214Y290603D01*
X379264Y291411D01*
X377771Y292904D01*
X376963Y294854D01*
X376963Y297118D01*
X376975Y297293D01*
X376975Y303476D01*
X376971Y303511D01*
X376974Y303547D01*
X376951Y303683D01*
X376935Y303819D01*
X376923Y303853D01*
X376918Y303888D01*
X376865Y304015D01*
X376818Y304145D01*
X376799Y304174D01*
X376785Y304207D01*
X376704Y304319D01*
X376629Y304434D01*
X376603Y304459D01*
X376583Y304487D01*
X376479Y304578D01*
X376379Y304673D01*
X376348Y304691D01*
X376322Y304714D01*
X376199Y304778D01*
X376081Y304848D01*
X376047Y304858D01*
X376015Y304875D01*
X375882Y304909D01*
X375750Y304950D01*
X375715Y304952D01*
X375681Y304961D01*
X375476Y304975D01*
X373868Y304975D01*
X372975Y305868D01*
X372975Y317132D01*
X373868Y318025D01*
X386132Y318025D01*
X387025Y317132D01*
X387025Y305868D01*
X386132Y304975D01*
X384524Y304975D01*
X384489Y304971D01*
X384453Y304974D01*
X384317Y304951D01*
X384181Y304935D01*
X384147Y304923D01*
X384112Y304918D01*
X383985Y304865D01*
X383855Y304818D01*
X383826Y304799D01*
X383793Y304785D01*
X383681Y304704D01*
X383566Y304629D01*
X383541Y304603D01*
X383513Y304583D01*
X383422Y304479D01*
X383327Y304379D01*
X383309Y304348D01*
X383286Y304322D01*
X383222Y304199D01*
X383152Y304081D01*
X383142Y304047D01*
X383125Y304015D01*
X383091Y303882D01*
X383050Y303750D01*
X383048Y303715D01*
X383039Y303681D01*
X383025Y303476D01*
X383025Y302343D01*
X383035Y302256D01*
X383035Y302169D01*
X383055Y302085D01*
X383065Y302000D01*
X383094Y301917D01*
X383114Y301832D01*
X383153Y301755D01*
X383182Y301674D01*
X383230Y301601D01*
X383269Y301523D01*
X383324Y301457D01*
X383371Y301385D01*
X383434Y301325D01*
X383490Y301257D01*
X383559Y301205D01*
X383621Y301146D01*
X383696Y301102D01*
X383767Y301049D01*
X383896Y300985D01*
X383919Y300971D01*
X383931Y300968D01*
X383950Y300958D01*
X385276Y300409D01*
X386769Y298916D01*
X387577Y296966D01*
X387577Y294854D01*
X386769Y292904D01*
X385276Y291411D01*
X383326Y290603D01*
X381214Y290603D01*
G37*
%LPD*%
%LPC*%
G36*
X24867Y286445D02*
X24867Y286445D01*
X21535Y287825D01*
X18985Y290375D01*
X17605Y293707D01*
X17605Y297313D01*
X18985Y300645D01*
X21535Y303195D01*
X24867Y304575D01*
X28473Y304575D01*
X31805Y303195D01*
X34355Y300645D01*
X35735Y297313D01*
X35735Y293707D01*
X34355Y290375D01*
X31805Y287825D01*
X28473Y286445D01*
X24867Y286445D01*
G37*
%LPD*%
%LPC*%
G36*
X129539Y396239D02*
X129539Y396239D01*
X129539Y411179D01*
X130900Y410736D01*
X132325Y410010D01*
X133619Y409070D01*
X134750Y407939D01*
X135690Y406645D01*
X136416Y405220D01*
X136911Y403699D01*
X137161Y402120D01*
X137161Y396239D01*
X129539Y396239D01*
G37*
%LPD*%
%LPC*%
G36*
X129539Y391161D02*
X129539Y391161D01*
X137161Y391161D01*
X137161Y385280D01*
X136911Y383701D01*
X136416Y382180D01*
X135690Y380755D01*
X134750Y379461D01*
X133619Y378330D01*
X132325Y377390D01*
X130900Y376664D01*
X129539Y376221D01*
X129539Y391161D01*
G37*
%LPD*%
%LPC*%
G36*
X116839Y396239D02*
X116839Y396239D01*
X116839Y402120D01*
X117089Y403699D01*
X117584Y405220D01*
X118310Y406645D01*
X119250Y407939D01*
X120381Y409070D01*
X121675Y410010D01*
X123100Y410736D01*
X124461Y411179D01*
X124461Y396239D01*
X116839Y396239D01*
G37*
%LPD*%
%LPC*%
G36*
X169839Y183189D02*
X169839Y183189D01*
X169839Y191731D01*
X176175Y191731D01*
X176821Y191558D01*
X177400Y191223D01*
X177873Y190750D01*
X178208Y190171D01*
X178381Y189525D01*
X178381Y183189D01*
X169839Y183189D01*
G37*
%LPD*%
%LPC*%
G36*
X193499Y331359D02*
X193499Y331359D01*
X193499Y339901D01*
X202041Y339901D01*
X202041Y333565D01*
X201868Y332919D01*
X201533Y332340D01*
X201060Y331867D01*
X200481Y331532D01*
X199835Y331359D01*
X193499Y331359D01*
G37*
%LPD*%
%LPC*%
G36*
X90059Y180799D02*
X90059Y180799D01*
X90059Y187135D01*
X90232Y187781D01*
X90567Y188360D01*
X91040Y188833D01*
X91619Y189168D01*
X92265Y189341D01*
X98601Y189341D01*
X98601Y180799D01*
X90059Y180799D01*
G37*
%LPD*%
%LPC*%
G36*
X104599Y166259D02*
X104599Y166259D01*
X104599Y174801D01*
X113141Y174801D01*
X113141Y168465D01*
X112968Y167819D01*
X112633Y167240D01*
X112160Y166767D01*
X111581Y166432D01*
X110935Y166259D01*
X104599Y166259D01*
G37*
%LPD*%
%LPC*%
G36*
X92265Y166259D02*
X92265Y166259D01*
X91619Y166432D01*
X91040Y166767D01*
X90567Y167240D01*
X90232Y167819D01*
X90059Y168465D01*
X90059Y174801D01*
X98601Y174801D01*
X98601Y166259D01*
X92265Y166259D01*
G37*
%LPD*%
%LPC*%
G36*
X181165Y331359D02*
X181165Y331359D01*
X180519Y331532D01*
X179940Y331867D01*
X179467Y332340D01*
X179132Y332919D01*
X178959Y333565D01*
X178959Y339901D01*
X187501Y339901D01*
X187501Y331359D01*
X181165Y331359D01*
G37*
%LPD*%
%LPC*%
G36*
X29169Y273009D02*
X29169Y273009D01*
X29169Y280297D01*
X30540Y279852D01*
X31953Y279132D01*
X33237Y278199D01*
X34359Y277077D01*
X35292Y275793D01*
X36012Y274380D01*
X36457Y273009D01*
X29169Y273009D01*
G37*
%LPD*%
%LPC*%
G36*
X16883Y273009D02*
X16883Y273009D01*
X17328Y274380D01*
X18048Y275793D01*
X18981Y277077D01*
X20103Y278199D01*
X21387Y279132D01*
X22800Y279852D01*
X24171Y280297D01*
X24171Y273009D01*
X16883Y273009D01*
G37*
%LPD*%
%LPC*%
G36*
X29169Y268011D02*
X29169Y268011D01*
X36457Y268011D01*
X36012Y266640D01*
X35292Y265227D01*
X34359Y263943D01*
X33237Y262821D01*
X31953Y261888D01*
X30540Y261168D01*
X29169Y260723D01*
X29169Y268011D01*
G37*
%LPD*%
%LPC*%
G36*
X22800Y261168D02*
X22800Y261168D01*
X21387Y261888D01*
X20103Y262821D01*
X18981Y263943D01*
X18048Y265227D01*
X17328Y266640D01*
X16883Y268011D01*
X24171Y268011D01*
X24171Y260723D01*
X22800Y261168D01*
G37*
%LPD*%
%LPC*%
G36*
X422869Y114269D02*
X422869Y114269D01*
X422869Y119811D01*
X427911Y119811D01*
X427911Y116475D01*
X427738Y115829D01*
X427403Y115250D01*
X426930Y114777D01*
X426351Y114442D01*
X425705Y114269D01*
X422869Y114269D01*
G37*
%LPD*%
%LPC*%
G36*
X202499Y241259D02*
X202499Y241259D01*
X202499Y246301D01*
X208041Y246301D01*
X208041Y243465D01*
X207868Y242819D01*
X207533Y242240D01*
X207060Y241767D01*
X206481Y241432D01*
X205835Y241259D01*
X202499Y241259D01*
G37*
%LPD*%
%LPC*%
G36*
X252499Y241259D02*
X252499Y241259D01*
X252499Y246301D01*
X258041Y246301D01*
X258041Y243465D01*
X257868Y242819D01*
X257533Y242240D01*
X257060Y241767D01*
X256481Y241432D01*
X255835Y241259D01*
X252499Y241259D01*
G37*
%LPD*%
%LPC*%
G36*
X177499Y241259D02*
X177499Y241259D01*
X177499Y246301D01*
X183041Y246301D01*
X183041Y243465D01*
X182868Y242819D01*
X182533Y242240D01*
X182060Y241767D01*
X181481Y241432D01*
X180835Y241259D01*
X177499Y241259D01*
G37*
%LPD*%
%LPC*%
G36*
X194165Y241259D02*
X194165Y241259D01*
X193519Y241432D01*
X192940Y241767D01*
X192467Y242240D01*
X192132Y242819D01*
X191959Y243465D01*
X191959Y246301D01*
X197501Y246301D01*
X197501Y241259D01*
X194165Y241259D01*
G37*
%LPD*%
%LPC*%
G36*
X219165Y241259D02*
X219165Y241259D01*
X218519Y241432D01*
X217940Y241767D01*
X217467Y242240D01*
X217132Y242819D01*
X216959Y243465D01*
X216959Y246301D01*
X222501Y246301D01*
X222501Y241259D01*
X219165Y241259D01*
G37*
%LPD*%
%LPC*%
G36*
X415035Y114269D02*
X415035Y114269D01*
X414389Y114442D01*
X413810Y114777D01*
X413337Y115250D01*
X413002Y115829D01*
X412829Y116475D01*
X412829Y119811D01*
X417871Y119811D01*
X417871Y114269D01*
X415035Y114269D01*
G37*
%LPD*%
%LPC*%
G36*
X101599Y177799D02*
X101599Y177799D01*
X101599Y177801D01*
X101601Y177801D01*
X101601Y177799D01*
X101599Y177799D01*
G37*
%LPD*%
D10*
X26670Y270510D03*
X26670Y295510D03*
X26670Y245510D03*
D11*
X225000Y265800D03*
X225000Y248800D03*
X250000Y248800D03*
X250000Y265800D03*
X200000Y248800D03*
X200000Y265800D03*
D12*
X420370Y139310D03*
X420370Y122310D03*
D11*
X175000Y248800D03*
X175000Y265800D03*
D13*
X166840Y180190D03*
X166840Y154790D03*
X166840Y129490D03*
X243040Y180190D03*
X243040Y154790D03*
X243040Y129490D03*
D11*
X205000Y138500D03*
X205000Y121500D03*
X205000Y171500D03*
X205000Y188500D03*
D14*
X203200Y386080D02*
X203200Y401320D01*
X177800Y401320D02*
X177800Y386080D01*
X152400Y386080D02*
X152400Y401320D01*
X127000Y401320D02*
X127000Y386080D01*
X101600Y386080D02*
X101600Y401320D01*
D11*
X410000Y311500D03*
X410000Y328500D03*
X320000Y311500D03*
X320000Y328500D03*
X350000Y311500D03*
X350000Y328500D03*
X380000Y311500D03*
X380000Y328500D03*
D13*
X241300Y342900D03*
X215900Y342900D03*
X165100Y342900D03*
X190500Y342900D03*
X101600Y177800D03*
X101600Y152400D03*
X101600Y342900D03*
X76200Y342900D03*
D15*
X180960Y169650D02*
X203580Y169650D01*
X180960Y169650D02*
X167388Y156078D01*
X203580Y169650D02*
X205000Y171500D01*
X167388Y156078D02*
X166840Y154790D01*
X255606Y117624D02*
X373230Y117624D01*
X255606Y117624D02*
X248820Y110838D01*
X199056Y110838D01*
X217152Y289536D02*
X217152Y341562D01*
X217152Y289536D02*
X235248Y271440D01*
X235248Y203580D01*
X203580Y171912D01*
X217152Y341562D02*
X215900Y342900D01*
X203580Y171912D02*
X205000Y171500D01*
D16*
X373230Y117624D03*
X199056Y110838D03*
D15*
X203580Y137982D02*
X174174Y137982D01*
X167388Y131196D01*
X203580Y137982D02*
X205000Y138500D01*
X167388Y131196D02*
X166840Y129490D01*
X266916Y128934D02*
X334776Y128934D01*
X266916Y128934D02*
X253344Y142506D01*
X230724Y142506D02*
X208104Y142506D01*
X230724Y142506D02*
X253344Y142506D01*
X208104Y142506D02*
X205842Y140244D01*
X205000Y138500D01*
X239772Y201318D02*
X239772Y341562D01*
X239772Y201318D02*
X230724Y192270D01*
X230724Y142506D01*
X239772Y341562D02*
X241300Y342900D01*
D16*
X334776Y128934D03*
D15*
X409422Y257868D02*
X409422Y309894D01*
X409422Y257868D02*
X393588Y242034D01*
X409422Y309894D02*
X410000Y311500D01*
X373230Y262392D02*
X334776Y262392D01*
X373230Y262392D02*
X393588Y242034D01*
D16*
X393588Y242034D03*
X334776Y262392D03*
X382270Y295910D03*
D15*
X380000Y298180D01*
X380000Y311500D01*
D16*
X335280Y297180D03*
D15*
X320960Y311500D01*
X320000Y311500D01*
X235248Y122148D02*
X205842Y122148D01*
X235248Y122148D02*
X242034Y128934D01*
X205842Y122148D02*
X205000Y121500D01*
X242034Y128934D02*
X243040Y129490D01*
X262392Y140244D02*
X418470Y140244D01*
X262392Y140244D02*
X248820Y153816D01*
X244296Y153816D01*
X418470Y140244D02*
X420370Y139310D01*
X244296Y153816D02*
X243040Y154790D01*
X321204Y327990D02*
X348348Y327990D01*
X321204Y327990D02*
X320000Y328500D01*
X348348Y327990D02*
X350000Y328500D01*
X350610Y327990D02*
X377754Y327990D01*
X380000Y328500D01*
X350610Y327990D02*
X350000Y328500D01*
X380016Y327990D02*
X409422Y327990D01*
X410000Y328500D01*
X380016Y327990D02*
X380000Y328500D01*
X203580Y203580D02*
X203580Y190008D01*
X185484Y221676D02*
X156078Y251082D01*
X185484Y221676D02*
X203580Y203580D01*
X156078Y251082D02*
X156078Y334776D01*
X158340Y337038D02*
X162864Y341562D01*
X158340Y337038D02*
X156078Y334776D01*
X203580Y190008D02*
X205000Y188500D01*
X162864Y341562D02*
X165100Y342900D01*
X158340Y337038D02*
X101790Y393588D01*
X101600Y393700D01*
X158340Y337038D02*
X165100Y342900D01*
X285012Y330252D02*
X318942Y330252D01*
X285012Y330252D02*
X255606Y359658D01*
X180960Y359658D01*
X165126Y343824D01*
X318942Y330252D02*
X320000Y328500D01*
X165100Y342900D02*
X165126Y343824D01*
X180960Y119886D02*
X203580Y119886D01*
X180960Y119886D02*
X176436Y115362D01*
X158340Y115362D01*
X153816Y119886D01*
X153816Y190008D01*
X185484Y221676D01*
X205000Y121500D02*
X203580Y119886D01*
X199056Y248820D02*
X190008Y248820D01*
X176436Y248820D01*
X175000Y248800D01*
X199056Y248820D02*
X200000Y248800D01*
X201318Y248820D02*
X223938Y248820D01*
X225000Y248800D01*
X201318Y248820D02*
X200000Y248800D01*
X264654Y262392D02*
X269178Y266916D01*
X264654Y262392D02*
X251082Y248820D01*
X269178Y266916D02*
X269178Y339300D01*
X253344Y355134D01*
X203580Y355134D01*
X192270Y343824D01*
X250000Y248800D02*
X251082Y248820D01*
X192270Y343824D02*
X190500Y342900D01*
X264654Y262392D02*
X266916Y262392D01*
X420732Y124410D02*
X429780Y133458D01*
X429780Y144768D01*
X341562Y232986D02*
X307632Y266916D01*
X341562Y232986D02*
X429780Y144768D01*
X307632Y266916D02*
X269178Y266916D01*
X420732Y124410D02*
X420370Y122310D01*
X190008Y248820D02*
X190008Y341562D01*
X190500Y342900D01*
X409422Y122148D02*
X418470Y122148D01*
X420370Y122310D01*
X248820Y219414D02*
X248820Y246558D01*
X250000Y248800D01*
X24882Y260130D02*
X24882Y269178D01*
X24882Y260130D02*
X15834Y251082D01*
X15834Y239772D01*
X76908Y178698D01*
X99528Y178698D01*
X26670Y270510D02*
X24882Y269178D01*
X99528Y178698D02*
X101600Y177800D01*
D16*
X266916Y262392D03*
X341562Y232986D03*
X409422Y122148D03*
X248820Y219414D03*
D15*
X438828Y149292D02*
X438828Y137982D01*
X438828Y149292D02*
X393588Y194532D01*
X393588Y230724D01*
X420732Y257868D01*
X420732Y334776D01*
X361920Y393588D01*
X203580Y393588D01*
X203200Y393700D01*
D16*
X438828Y137982D03*
D15*
X373230Y190008D02*
X350610Y167388D01*
X402636Y196794D02*
X402636Y232986D01*
X425256Y255606D01*
X425256Y337038D01*
X348348Y413946D01*
X171912Y413946D01*
X153816Y395850D01*
X152400Y393700D01*
D16*
X350610Y167388D03*
X373230Y190008D03*
X402636Y196794D03*
D15*
X330252Y228462D02*
X273702Y228462D01*
X330252Y228462D02*
X350610Y208104D01*
D16*
X273702Y228462D03*
X350610Y208104D03*
D15*
X144768Y158340D02*
X58812Y244296D01*
X27144Y244296D01*
X26670Y245510D01*
X99528Y285012D02*
X99528Y341562D01*
X99528Y285012D02*
X58812Y244296D01*
X99528Y341562D02*
X101600Y342900D01*
D16*
X144768Y158340D03*
D15*
X226200Y266916D02*
X214890Y278226D01*
X226200Y266916D02*
X225000Y265800D01*
D16*
X214890Y278226D03*
D15*
X248820Y266916D02*
X260130Y278226D01*
X248820Y266916D02*
X250000Y265800D01*
D16*
X260130Y278226D03*
D15*
X212628Y266916D02*
X201318Y266916D01*
X200000Y265800D01*
D16*
X212628Y266916D03*
D15*
X176436Y266916D02*
X165126Y278226D01*
X175000Y265800D02*
X176436Y266916D01*
D16*
X165126Y278226D03*
D15*
X169650Y33930D02*
X135720Y33930D01*
D16*
X169650Y33930D03*
X135720Y33930D03*
D15*
X108576Y280488D02*
X108576Y312156D01*
X108576Y280488D02*
X119886Y269178D01*
D16*
X108576Y312156D03*
X119886Y269178D03*
X360680Y295910D03*
D15*
X350000Y306590D01*
X350000Y311500D01*
M02*
