G04 EAGLE Gerber RS-274X export*
G75*
%MOMM*%
%FSLAX34Y34*%
%LPD*%
%INSilkscreen Bottom*%
%IPPOS*%
%AMOC8*
5,1,8,0,0,1.08239X$1,22.5*%
G01*
%ADD10C,0.152400*%
%ADD11C,0.127000*%


D10*
X202692Y147967D02*
X218948Y147967D01*
X218948Y152483D01*
X218946Y152616D01*
X218940Y152748D01*
X218930Y152880D01*
X218917Y153012D01*
X218899Y153144D01*
X218878Y153274D01*
X218853Y153405D01*
X218824Y153534D01*
X218791Y153662D01*
X218755Y153790D01*
X218715Y153916D01*
X218671Y154041D01*
X218623Y154165D01*
X218572Y154287D01*
X218517Y154408D01*
X218459Y154527D01*
X218397Y154645D01*
X218332Y154760D01*
X218263Y154874D01*
X218192Y154985D01*
X218116Y155094D01*
X218038Y155201D01*
X217957Y155306D01*
X217872Y155408D01*
X217785Y155508D01*
X217695Y155605D01*
X217602Y155700D01*
X217506Y155791D01*
X217408Y155880D01*
X217307Y155966D01*
X217203Y156049D01*
X217097Y156129D01*
X216989Y156205D01*
X216879Y156279D01*
X216766Y156349D01*
X216652Y156416D01*
X216535Y156479D01*
X216417Y156539D01*
X216297Y156596D01*
X216175Y156649D01*
X216052Y156698D01*
X215928Y156744D01*
X215802Y156786D01*
X215675Y156824D01*
X215547Y156859D01*
X215418Y156890D01*
X215289Y156917D01*
X215158Y156940D01*
X215027Y156960D01*
X214895Y156975D01*
X214763Y156987D01*
X214631Y156995D01*
X214498Y156999D01*
X214366Y156999D01*
X214233Y156995D01*
X214101Y156987D01*
X213969Y156975D01*
X213837Y156960D01*
X213706Y156940D01*
X213575Y156917D01*
X213446Y156890D01*
X213317Y156859D01*
X213189Y156824D01*
X213062Y156786D01*
X212936Y156744D01*
X212812Y156698D01*
X212689Y156649D01*
X212567Y156596D01*
X212447Y156539D01*
X212329Y156479D01*
X212212Y156416D01*
X212098Y156349D01*
X211985Y156279D01*
X211875Y156205D01*
X211767Y156129D01*
X211661Y156049D01*
X211557Y155966D01*
X211456Y155880D01*
X211358Y155791D01*
X211262Y155700D01*
X211169Y155605D01*
X211079Y155508D01*
X210992Y155408D01*
X210907Y155306D01*
X210826Y155201D01*
X210748Y155094D01*
X210672Y154985D01*
X210601Y154874D01*
X210532Y154760D01*
X210467Y154645D01*
X210405Y154527D01*
X210347Y154408D01*
X210292Y154287D01*
X210241Y154165D01*
X210193Y154041D01*
X210149Y153916D01*
X210109Y153790D01*
X210073Y153662D01*
X210040Y153534D01*
X210011Y153405D01*
X209986Y153274D01*
X209965Y153144D01*
X209947Y153012D01*
X209934Y152880D01*
X209924Y152748D01*
X209918Y152616D01*
X209916Y152483D01*
X209917Y152483D02*
X209917Y147967D01*
X207208Y162866D02*
X214432Y162866D01*
X214565Y162868D01*
X214697Y162874D01*
X214829Y162884D01*
X214961Y162897D01*
X215093Y162915D01*
X215223Y162936D01*
X215354Y162961D01*
X215483Y162990D01*
X215611Y163023D01*
X215739Y163059D01*
X215865Y163099D01*
X215990Y163143D01*
X216114Y163191D01*
X216236Y163242D01*
X216357Y163297D01*
X216476Y163355D01*
X216594Y163417D01*
X216709Y163482D01*
X216823Y163551D01*
X216934Y163622D01*
X217043Y163698D01*
X217150Y163776D01*
X217255Y163857D01*
X217357Y163942D01*
X217457Y164029D01*
X217554Y164119D01*
X217649Y164212D01*
X217740Y164308D01*
X217829Y164406D01*
X217915Y164507D01*
X217998Y164611D01*
X218078Y164717D01*
X218154Y164825D01*
X218228Y164935D01*
X218298Y165048D01*
X218365Y165162D01*
X218428Y165279D01*
X218488Y165397D01*
X218545Y165517D01*
X218598Y165639D01*
X218647Y165762D01*
X218693Y165886D01*
X218735Y166012D01*
X218773Y166139D01*
X218808Y166267D01*
X218839Y166396D01*
X218866Y166525D01*
X218889Y166656D01*
X218909Y166787D01*
X218924Y166919D01*
X218936Y167051D01*
X218944Y167183D01*
X218948Y167316D01*
X218948Y167448D01*
X218944Y167581D01*
X218936Y167713D01*
X218924Y167845D01*
X218909Y167977D01*
X218889Y168108D01*
X218866Y168239D01*
X218839Y168368D01*
X218808Y168497D01*
X218773Y168625D01*
X218735Y168752D01*
X218693Y168878D01*
X218647Y169002D01*
X218598Y169125D01*
X218545Y169247D01*
X218488Y169367D01*
X218428Y169485D01*
X218365Y169602D01*
X218298Y169716D01*
X218228Y169829D01*
X218154Y169939D01*
X218078Y170047D01*
X217998Y170153D01*
X217915Y170257D01*
X217829Y170358D01*
X217740Y170456D01*
X217649Y170552D01*
X217554Y170645D01*
X217457Y170735D01*
X217357Y170822D01*
X217255Y170907D01*
X217150Y170988D01*
X217043Y171066D01*
X216934Y171142D01*
X216823Y171213D01*
X216709Y171282D01*
X216594Y171347D01*
X216476Y171409D01*
X216357Y171467D01*
X216236Y171522D01*
X216114Y171573D01*
X215990Y171621D01*
X215865Y171665D01*
X215739Y171705D01*
X215611Y171741D01*
X215483Y171774D01*
X215354Y171803D01*
X215223Y171828D01*
X215093Y171849D01*
X214961Y171867D01*
X214829Y171880D01*
X214697Y171890D01*
X214565Y171896D01*
X214432Y171898D01*
X207208Y171898D01*
X207075Y171896D01*
X206943Y171890D01*
X206811Y171880D01*
X206679Y171867D01*
X206547Y171849D01*
X206417Y171828D01*
X206286Y171803D01*
X206157Y171774D01*
X206029Y171741D01*
X205901Y171705D01*
X205775Y171665D01*
X205650Y171621D01*
X205526Y171573D01*
X205404Y171522D01*
X205283Y171467D01*
X205164Y171409D01*
X205046Y171347D01*
X204931Y171282D01*
X204817Y171213D01*
X204706Y171142D01*
X204597Y171066D01*
X204490Y170988D01*
X204385Y170907D01*
X204283Y170822D01*
X204183Y170735D01*
X204086Y170645D01*
X203991Y170552D01*
X203900Y170456D01*
X203811Y170358D01*
X203725Y170257D01*
X203642Y170153D01*
X203562Y170047D01*
X203486Y169939D01*
X203412Y169829D01*
X203342Y169716D01*
X203275Y169602D01*
X203212Y169485D01*
X203152Y169367D01*
X203095Y169247D01*
X203042Y169125D01*
X202993Y169002D01*
X202947Y168878D01*
X202905Y168752D01*
X202867Y168625D01*
X202832Y168497D01*
X202801Y168368D01*
X202774Y168239D01*
X202751Y168108D01*
X202731Y167977D01*
X202716Y167845D01*
X202704Y167713D01*
X202696Y167581D01*
X202692Y167448D01*
X202692Y167316D01*
X202696Y167183D01*
X202704Y167051D01*
X202716Y166919D01*
X202731Y166787D01*
X202751Y166656D01*
X202774Y166525D01*
X202801Y166396D01*
X202832Y166267D01*
X202867Y166139D01*
X202905Y166012D01*
X202947Y165886D01*
X202993Y165762D01*
X203042Y165639D01*
X203095Y165517D01*
X203152Y165397D01*
X203212Y165279D01*
X203275Y165162D01*
X203342Y165048D01*
X203412Y164935D01*
X203486Y164825D01*
X203562Y164717D01*
X203642Y164611D01*
X203725Y164507D01*
X203811Y164406D01*
X203900Y164308D01*
X203991Y164212D01*
X204086Y164119D01*
X204183Y164029D01*
X204283Y163942D01*
X204385Y163857D01*
X204490Y163776D01*
X204597Y163698D01*
X204706Y163622D01*
X204817Y163551D01*
X204931Y163482D01*
X205046Y163417D01*
X205164Y163355D01*
X205283Y163297D01*
X205404Y163242D01*
X205526Y163191D01*
X205650Y163143D01*
X205775Y163099D01*
X205901Y163059D01*
X206029Y163023D01*
X206157Y162990D01*
X206286Y162961D01*
X206417Y162936D01*
X206547Y162915D01*
X206679Y162897D01*
X206811Y162884D01*
X206943Y162874D01*
X207075Y162868D01*
X207208Y162866D01*
X218948Y177873D02*
X202692Y181485D01*
X213529Y185097D01*
X202692Y188710D01*
X218948Y192322D01*
X202692Y198848D02*
X202692Y206073D01*
X202692Y198848D02*
X218948Y198848D01*
X218948Y206073D01*
X211723Y204267D02*
X211723Y198848D01*
X218948Y212457D02*
X202692Y212457D01*
X218948Y212457D02*
X218948Y216972D01*
X218946Y217105D01*
X218940Y217237D01*
X218930Y217369D01*
X218917Y217501D01*
X218899Y217633D01*
X218878Y217763D01*
X218853Y217894D01*
X218824Y218023D01*
X218791Y218151D01*
X218755Y218279D01*
X218715Y218405D01*
X218671Y218530D01*
X218623Y218654D01*
X218572Y218776D01*
X218517Y218897D01*
X218459Y219016D01*
X218397Y219134D01*
X218332Y219249D01*
X218263Y219363D01*
X218192Y219474D01*
X218116Y219583D01*
X218038Y219690D01*
X217957Y219795D01*
X217872Y219897D01*
X217785Y219997D01*
X217695Y220094D01*
X217602Y220189D01*
X217506Y220280D01*
X217408Y220369D01*
X217307Y220455D01*
X217203Y220538D01*
X217097Y220618D01*
X216989Y220694D01*
X216879Y220768D01*
X216766Y220838D01*
X216652Y220905D01*
X216535Y220968D01*
X216417Y221028D01*
X216297Y221085D01*
X216175Y221138D01*
X216052Y221187D01*
X215928Y221233D01*
X215802Y221275D01*
X215675Y221313D01*
X215547Y221348D01*
X215418Y221379D01*
X215289Y221406D01*
X215158Y221429D01*
X215027Y221449D01*
X214895Y221464D01*
X214763Y221476D01*
X214631Y221484D01*
X214498Y221488D01*
X214366Y221488D01*
X214233Y221484D01*
X214101Y221476D01*
X213969Y221464D01*
X213837Y221449D01*
X213706Y221429D01*
X213575Y221406D01*
X213446Y221379D01*
X213317Y221348D01*
X213189Y221313D01*
X213062Y221275D01*
X212936Y221233D01*
X212812Y221187D01*
X212689Y221138D01*
X212567Y221085D01*
X212447Y221028D01*
X212329Y220968D01*
X212212Y220905D01*
X212098Y220838D01*
X211985Y220768D01*
X211875Y220694D01*
X211767Y220618D01*
X211661Y220538D01*
X211557Y220455D01*
X211456Y220369D01*
X211358Y220280D01*
X211262Y220189D01*
X211169Y220094D01*
X211079Y219997D01*
X210992Y219897D01*
X210907Y219795D01*
X210826Y219690D01*
X210748Y219583D01*
X210672Y219474D01*
X210601Y219363D01*
X210532Y219249D01*
X210467Y219134D01*
X210405Y219016D01*
X210347Y218897D01*
X210292Y218776D01*
X210241Y218654D01*
X210193Y218530D01*
X210149Y218405D01*
X210109Y218279D01*
X210073Y218151D01*
X210040Y218023D01*
X210011Y217894D01*
X209986Y217763D01*
X209965Y217633D01*
X209947Y217501D01*
X209934Y217369D01*
X209924Y217237D01*
X209918Y217105D01*
X209916Y216972D01*
X209917Y216972D02*
X209917Y212457D01*
X209917Y217876D02*
X202692Y221488D01*
X155448Y245581D02*
X139192Y245581D01*
X155448Y245581D02*
X155448Y250097D01*
X155446Y250230D01*
X155440Y250362D01*
X155430Y250494D01*
X155417Y250626D01*
X155399Y250758D01*
X155378Y250888D01*
X155353Y251019D01*
X155324Y251148D01*
X155291Y251276D01*
X155255Y251404D01*
X155215Y251530D01*
X155171Y251655D01*
X155123Y251779D01*
X155072Y251901D01*
X155017Y252022D01*
X154959Y252141D01*
X154897Y252259D01*
X154832Y252374D01*
X154763Y252488D01*
X154692Y252599D01*
X154616Y252708D01*
X154538Y252815D01*
X154457Y252920D01*
X154372Y253022D01*
X154285Y253122D01*
X154195Y253219D01*
X154102Y253314D01*
X154006Y253405D01*
X153908Y253494D01*
X153807Y253580D01*
X153703Y253663D01*
X153597Y253743D01*
X153489Y253819D01*
X153379Y253893D01*
X153266Y253963D01*
X153152Y254030D01*
X153035Y254093D01*
X152917Y254153D01*
X152797Y254210D01*
X152675Y254263D01*
X152552Y254312D01*
X152428Y254358D01*
X152302Y254400D01*
X152175Y254438D01*
X152047Y254473D01*
X151918Y254504D01*
X151789Y254531D01*
X151658Y254554D01*
X151527Y254574D01*
X151395Y254589D01*
X151263Y254601D01*
X151131Y254609D01*
X150998Y254613D01*
X150866Y254613D01*
X150733Y254609D01*
X150601Y254601D01*
X150469Y254589D01*
X150337Y254574D01*
X150206Y254554D01*
X150075Y254531D01*
X149946Y254504D01*
X149817Y254473D01*
X149689Y254438D01*
X149562Y254400D01*
X149436Y254358D01*
X149312Y254312D01*
X149189Y254263D01*
X149067Y254210D01*
X148947Y254153D01*
X148829Y254093D01*
X148712Y254030D01*
X148598Y253963D01*
X148485Y253893D01*
X148375Y253819D01*
X148267Y253743D01*
X148161Y253663D01*
X148057Y253580D01*
X147956Y253494D01*
X147858Y253405D01*
X147762Y253314D01*
X147669Y253219D01*
X147579Y253122D01*
X147492Y253022D01*
X147407Y252920D01*
X147326Y252815D01*
X147248Y252708D01*
X147172Y252599D01*
X147101Y252488D01*
X147032Y252374D01*
X146967Y252259D01*
X146905Y252141D01*
X146847Y252022D01*
X146792Y251901D01*
X146741Y251779D01*
X146693Y251655D01*
X146649Y251530D01*
X146609Y251404D01*
X146573Y251276D01*
X146540Y251148D01*
X146511Y251019D01*
X146486Y250888D01*
X146465Y250758D01*
X146447Y250626D01*
X146434Y250494D01*
X146424Y250362D01*
X146418Y250230D01*
X146416Y250097D01*
X146417Y250097D02*
X146417Y245581D01*
X155448Y259855D02*
X139192Y263468D01*
X150029Y267080D01*
X139192Y270693D01*
X155448Y274305D01*
X155448Y280940D02*
X139192Y280940D01*
X146417Y286359D02*
X155448Y280940D01*
X146417Y286359D02*
X155448Y291777D01*
X139192Y291777D01*
X139192Y312272D02*
X139194Y312390D01*
X139200Y312508D01*
X139209Y312626D01*
X139223Y312743D01*
X139240Y312860D01*
X139261Y312977D01*
X139286Y313092D01*
X139315Y313207D01*
X139348Y313321D01*
X139384Y313433D01*
X139424Y313544D01*
X139467Y313654D01*
X139514Y313763D01*
X139564Y313870D01*
X139619Y313975D01*
X139676Y314078D01*
X139737Y314179D01*
X139801Y314279D01*
X139868Y314376D01*
X139938Y314471D01*
X140012Y314563D01*
X140088Y314654D01*
X140168Y314741D01*
X140250Y314826D01*
X140335Y314908D01*
X140422Y314988D01*
X140513Y315064D01*
X140605Y315138D01*
X140700Y315208D01*
X140797Y315275D01*
X140897Y315339D01*
X140998Y315400D01*
X141101Y315457D01*
X141206Y315512D01*
X141313Y315562D01*
X141422Y315609D01*
X141532Y315652D01*
X141643Y315692D01*
X141755Y315728D01*
X141869Y315761D01*
X141984Y315790D01*
X142099Y315815D01*
X142216Y315836D01*
X142333Y315853D01*
X142450Y315867D01*
X142568Y315876D01*
X142686Y315882D01*
X142804Y315884D01*
X139192Y312272D02*
X139194Y312089D01*
X139201Y311907D01*
X139212Y311725D01*
X139227Y311543D01*
X139247Y311361D01*
X139270Y311180D01*
X139299Y311000D01*
X139331Y310820D01*
X139368Y310641D01*
X139409Y310464D01*
X139455Y310287D01*
X139504Y310111D01*
X139558Y309937D01*
X139616Y309763D01*
X139678Y309592D01*
X139744Y309422D01*
X139815Y309253D01*
X139889Y309086D01*
X139967Y308921D01*
X140049Y308758D01*
X140135Y308597D01*
X140225Y308438D01*
X140319Y308281D01*
X140416Y308127D01*
X140517Y307975D01*
X140622Y307825D01*
X140730Y307678D01*
X140841Y307534D01*
X140956Y307392D01*
X141075Y307253D01*
X141197Y307117D01*
X141322Y306984D01*
X141450Y306854D01*
X151836Y307305D02*
X151954Y307307D01*
X152072Y307313D01*
X152190Y307322D01*
X152307Y307336D01*
X152424Y307353D01*
X152541Y307374D01*
X152656Y307399D01*
X152771Y307428D01*
X152885Y307461D01*
X152997Y307497D01*
X153108Y307537D01*
X153218Y307580D01*
X153327Y307627D01*
X153434Y307677D01*
X153539Y307732D01*
X153642Y307789D01*
X153743Y307850D01*
X153843Y307914D01*
X153940Y307981D01*
X154035Y308051D01*
X154127Y308125D01*
X154218Y308201D01*
X154305Y308281D01*
X154390Y308363D01*
X154472Y308448D01*
X154552Y308535D01*
X154628Y308626D01*
X154702Y308718D01*
X154772Y308813D01*
X154839Y308910D01*
X154903Y309010D01*
X154964Y309111D01*
X155022Y309214D01*
X155076Y309319D01*
X155126Y309426D01*
X155173Y309535D01*
X155217Y309645D01*
X155256Y309756D01*
X155292Y309869D01*
X155325Y309982D01*
X155354Y310097D01*
X155379Y310212D01*
X155400Y310329D01*
X155417Y310446D01*
X155431Y310563D01*
X155440Y310681D01*
X155446Y310799D01*
X155448Y310917D01*
X155446Y311078D01*
X155440Y311240D01*
X155431Y311401D01*
X155417Y311562D01*
X155400Y311722D01*
X155379Y311882D01*
X155354Y312042D01*
X155325Y312201D01*
X155293Y312359D01*
X155257Y312516D01*
X155217Y312672D01*
X155173Y312828D01*
X155125Y312982D01*
X155074Y313135D01*
X155020Y313287D01*
X154961Y313438D01*
X154900Y313587D01*
X154834Y313734D01*
X154765Y313880D01*
X154693Y314025D01*
X154617Y314167D01*
X154538Y314308D01*
X154456Y314447D01*
X154370Y314583D01*
X154281Y314718D01*
X154189Y314851D01*
X154093Y314981D01*
X148675Y309111D02*
X148737Y309010D01*
X148802Y308910D01*
X148871Y308813D01*
X148943Y308718D01*
X149017Y308625D01*
X149095Y308535D01*
X149176Y308447D01*
X149259Y308362D01*
X149345Y308280D01*
X149434Y308201D01*
X149525Y308124D01*
X149619Y308051D01*
X149715Y307980D01*
X149813Y307913D01*
X149913Y307849D01*
X150016Y307788D01*
X150120Y307731D01*
X150226Y307677D01*
X150334Y307627D01*
X150443Y307580D01*
X150554Y307536D01*
X150666Y307496D01*
X150780Y307460D01*
X150894Y307428D01*
X151010Y307399D01*
X151126Y307374D01*
X151243Y307353D01*
X151361Y307336D01*
X151479Y307322D01*
X151598Y307313D01*
X151717Y307307D01*
X151836Y307305D01*
X145965Y314078D02*
X145903Y314179D01*
X145838Y314279D01*
X145769Y314376D01*
X145697Y314471D01*
X145623Y314564D01*
X145545Y314654D01*
X145464Y314742D01*
X145381Y314827D01*
X145295Y314909D01*
X145206Y314988D01*
X145115Y315065D01*
X145021Y315138D01*
X144925Y315209D01*
X144827Y315276D01*
X144727Y315340D01*
X144624Y315401D01*
X144520Y315458D01*
X144414Y315512D01*
X144306Y315562D01*
X144197Y315609D01*
X144086Y315653D01*
X143974Y315693D01*
X143860Y315729D01*
X143746Y315761D01*
X143630Y315790D01*
X143514Y315815D01*
X143397Y315836D01*
X143279Y315853D01*
X143161Y315867D01*
X143042Y315876D01*
X142923Y315882D01*
X142804Y315884D01*
X145965Y314078D02*
X148675Y309111D01*
X155448Y321338D02*
X139192Y324951D01*
X150029Y328563D01*
X139192Y332176D01*
X155448Y335788D01*
X142804Y31024D02*
X142686Y31022D01*
X142568Y31016D01*
X142450Y31007D01*
X142333Y30993D01*
X142216Y30976D01*
X142099Y30955D01*
X141984Y30930D01*
X141869Y30901D01*
X141755Y30868D01*
X141643Y30832D01*
X141532Y30792D01*
X141422Y30749D01*
X141313Y30702D01*
X141206Y30652D01*
X141101Y30597D01*
X140998Y30540D01*
X140897Y30479D01*
X140797Y30415D01*
X140700Y30348D01*
X140605Y30278D01*
X140513Y30204D01*
X140422Y30128D01*
X140335Y30048D01*
X140250Y29966D01*
X140168Y29881D01*
X140088Y29794D01*
X140012Y29703D01*
X139938Y29611D01*
X139868Y29516D01*
X139801Y29419D01*
X139737Y29319D01*
X139676Y29218D01*
X139619Y29115D01*
X139564Y29010D01*
X139514Y28903D01*
X139467Y28794D01*
X139424Y28684D01*
X139384Y28573D01*
X139348Y28461D01*
X139315Y28347D01*
X139286Y28232D01*
X139261Y28117D01*
X139240Y28000D01*
X139223Y27883D01*
X139209Y27766D01*
X139200Y27648D01*
X139194Y27530D01*
X139192Y27412D01*
X139194Y27229D01*
X139201Y27047D01*
X139212Y26865D01*
X139227Y26683D01*
X139247Y26501D01*
X139270Y26320D01*
X139299Y26140D01*
X139331Y25960D01*
X139368Y25781D01*
X139409Y25604D01*
X139455Y25427D01*
X139504Y25251D01*
X139558Y25077D01*
X139616Y24903D01*
X139678Y24732D01*
X139744Y24562D01*
X139815Y24393D01*
X139889Y24226D01*
X139967Y24061D01*
X140049Y23898D01*
X140135Y23737D01*
X140225Y23578D01*
X140319Y23421D01*
X140416Y23267D01*
X140517Y23115D01*
X140622Y22965D01*
X140730Y22818D01*
X140841Y22674D01*
X140956Y22532D01*
X141075Y22393D01*
X141197Y22257D01*
X141322Y22124D01*
X141450Y21994D01*
X151836Y22445D02*
X151954Y22447D01*
X152072Y22453D01*
X152190Y22462D01*
X152307Y22476D01*
X152424Y22493D01*
X152541Y22514D01*
X152656Y22539D01*
X152771Y22568D01*
X152885Y22601D01*
X152997Y22637D01*
X153108Y22677D01*
X153218Y22720D01*
X153327Y22767D01*
X153434Y22817D01*
X153539Y22872D01*
X153642Y22929D01*
X153743Y22990D01*
X153843Y23054D01*
X153940Y23121D01*
X154035Y23191D01*
X154127Y23265D01*
X154218Y23341D01*
X154305Y23421D01*
X154390Y23503D01*
X154472Y23588D01*
X154552Y23675D01*
X154628Y23766D01*
X154702Y23858D01*
X154772Y23953D01*
X154839Y24050D01*
X154903Y24150D01*
X154964Y24251D01*
X155022Y24354D01*
X155076Y24459D01*
X155126Y24566D01*
X155173Y24675D01*
X155217Y24785D01*
X155256Y24896D01*
X155292Y25009D01*
X155325Y25122D01*
X155354Y25237D01*
X155379Y25352D01*
X155400Y25469D01*
X155417Y25586D01*
X155431Y25703D01*
X155440Y25821D01*
X155446Y25939D01*
X155448Y26057D01*
X155446Y26218D01*
X155440Y26380D01*
X155431Y26541D01*
X155417Y26702D01*
X155400Y26862D01*
X155379Y27022D01*
X155354Y27182D01*
X155325Y27341D01*
X155293Y27499D01*
X155257Y27656D01*
X155217Y27812D01*
X155173Y27968D01*
X155125Y28122D01*
X155074Y28275D01*
X155020Y28427D01*
X154961Y28578D01*
X154900Y28727D01*
X154834Y28874D01*
X154765Y29020D01*
X154693Y29165D01*
X154617Y29307D01*
X154538Y29448D01*
X154456Y29587D01*
X154370Y29723D01*
X154281Y29858D01*
X154189Y29991D01*
X154093Y30121D01*
X148675Y24251D02*
X148737Y24150D01*
X148802Y24050D01*
X148871Y23953D01*
X148943Y23858D01*
X149017Y23765D01*
X149095Y23675D01*
X149176Y23587D01*
X149259Y23502D01*
X149345Y23420D01*
X149434Y23341D01*
X149525Y23264D01*
X149619Y23191D01*
X149715Y23120D01*
X149813Y23053D01*
X149913Y22989D01*
X150016Y22928D01*
X150120Y22871D01*
X150226Y22817D01*
X150334Y22767D01*
X150443Y22720D01*
X150554Y22676D01*
X150666Y22636D01*
X150780Y22600D01*
X150894Y22568D01*
X151010Y22539D01*
X151126Y22514D01*
X151243Y22493D01*
X151361Y22476D01*
X151479Y22462D01*
X151598Y22453D01*
X151717Y22447D01*
X151836Y22445D01*
X145965Y29219D02*
X145903Y29320D01*
X145838Y29420D01*
X145769Y29517D01*
X145697Y29612D01*
X145623Y29705D01*
X145545Y29795D01*
X145464Y29883D01*
X145381Y29968D01*
X145295Y30050D01*
X145206Y30129D01*
X145115Y30206D01*
X145021Y30279D01*
X144925Y30350D01*
X144827Y30417D01*
X144727Y30481D01*
X144624Y30542D01*
X144520Y30599D01*
X144414Y30653D01*
X144306Y30703D01*
X144197Y30750D01*
X144086Y30794D01*
X143974Y30834D01*
X143860Y30870D01*
X143746Y30902D01*
X143630Y30931D01*
X143514Y30956D01*
X143397Y30977D01*
X143279Y30994D01*
X143161Y31008D01*
X143042Y31017D01*
X142923Y31023D01*
X142804Y31025D01*
X145965Y29218D02*
X148675Y24251D01*
X139192Y37654D02*
X139192Y44879D01*
X139192Y37654D02*
X155448Y37654D01*
X155448Y44879D01*
X148223Y43073D02*
X148223Y37654D01*
X155448Y51172D02*
X139192Y51172D01*
X139192Y60203D02*
X155448Y51172D01*
X155448Y60203D02*
X139192Y60203D01*
X139192Y72222D02*
X139194Y72340D01*
X139200Y72458D01*
X139209Y72576D01*
X139223Y72693D01*
X139240Y72810D01*
X139261Y72927D01*
X139286Y73042D01*
X139315Y73157D01*
X139348Y73271D01*
X139384Y73383D01*
X139424Y73494D01*
X139467Y73604D01*
X139514Y73713D01*
X139564Y73820D01*
X139619Y73925D01*
X139676Y74028D01*
X139737Y74129D01*
X139801Y74229D01*
X139868Y74326D01*
X139938Y74421D01*
X140012Y74513D01*
X140088Y74604D01*
X140168Y74691D01*
X140250Y74776D01*
X140335Y74858D01*
X140422Y74938D01*
X140513Y75014D01*
X140605Y75088D01*
X140700Y75158D01*
X140797Y75225D01*
X140897Y75289D01*
X140998Y75350D01*
X141101Y75407D01*
X141206Y75462D01*
X141313Y75512D01*
X141422Y75559D01*
X141532Y75602D01*
X141643Y75642D01*
X141755Y75678D01*
X141869Y75711D01*
X141984Y75740D01*
X142099Y75765D01*
X142216Y75786D01*
X142333Y75803D01*
X142450Y75817D01*
X142568Y75826D01*
X142686Y75832D01*
X142804Y75834D01*
X139192Y72222D02*
X139194Y72039D01*
X139201Y71857D01*
X139212Y71675D01*
X139227Y71493D01*
X139247Y71311D01*
X139270Y71130D01*
X139299Y70950D01*
X139331Y70770D01*
X139368Y70591D01*
X139409Y70414D01*
X139455Y70237D01*
X139504Y70061D01*
X139558Y69887D01*
X139616Y69713D01*
X139678Y69542D01*
X139744Y69372D01*
X139815Y69203D01*
X139889Y69036D01*
X139967Y68871D01*
X140049Y68708D01*
X140135Y68547D01*
X140225Y68388D01*
X140319Y68231D01*
X140416Y68077D01*
X140517Y67925D01*
X140622Y67775D01*
X140730Y67628D01*
X140841Y67484D01*
X140956Y67342D01*
X141075Y67203D01*
X141197Y67067D01*
X141322Y66934D01*
X141450Y66804D01*
X151836Y67255D02*
X151954Y67257D01*
X152072Y67263D01*
X152190Y67272D01*
X152307Y67286D01*
X152424Y67303D01*
X152541Y67324D01*
X152656Y67349D01*
X152771Y67378D01*
X152885Y67411D01*
X152997Y67447D01*
X153108Y67487D01*
X153218Y67530D01*
X153327Y67577D01*
X153434Y67627D01*
X153539Y67682D01*
X153642Y67739D01*
X153743Y67800D01*
X153843Y67864D01*
X153940Y67931D01*
X154035Y68001D01*
X154127Y68075D01*
X154218Y68151D01*
X154305Y68231D01*
X154390Y68313D01*
X154472Y68398D01*
X154552Y68485D01*
X154628Y68576D01*
X154702Y68668D01*
X154772Y68763D01*
X154839Y68860D01*
X154903Y68960D01*
X154964Y69061D01*
X155022Y69164D01*
X155076Y69269D01*
X155126Y69376D01*
X155173Y69485D01*
X155217Y69595D01*
X155256Y69706D01*
X155292Y69819D01*
X155325Y69932D01*
X155354Y70047D01*
X155379Y70162D01*
X155400Y70279D01*
X155417Y70396D01*
X155431Y70513D01*
X155440Y70631D01*
X155446Y70749D01*
X155448Y70867D01*
X155446Y71028D01*
X155440Y71190D01*
X155431Y71351D01*
X155417Y71512D01*
X155400Y71672D01*
X155379Y71832D01*
X155354Y71992D01*
X155325Y72151D01*
X155293Y72309D01*
X155257Y72466D01*
X155217Y72622D01*
X155173Y72778D01*
X155125Y72932D01*
X155074Y73085D01*
X155020Y73237D01*
X154961Y73388D01*
X154900Y73537D01*
X154834Y73684D01*
X154765Y73830D01*
X154693Y73975D01*
X154617Y74117D01*
X154538Y74258D01*
X154456Y74397D01*
X154370Y74533D01*
X154281Y74668D01*
X154189Y74801D01*
X154093Y74931D01*
X148675Y69060D02*
X148737Y68959D01*
X148802Y68859D01*
X148871Y68762D01*
X148943Y68667D01*
X149017Y68574D01*
X149095Y68484D01*
X149176Y68396D01*
X149259Y68311D01*
X149345Y68229D01*
X149434Y68150D01*
X149525Y68073D01*
X149619Y68000D01*
X149715Y67929D01*
X149813Y67862D01*
X149913Y67798D01*
X150016Y67737D01*
X150120Y67680D01*
X150226Y67626D01*
X150334Y67576D01*
X150443Y67529D01*
X150554Y67485D01*
X150666Y67445D01*
X150780Y67409D01*
X150894Y67377D01*
X151010Y67348D01*
X151126Y67323D01*
X151243Y67302D01*
X151361Y67285D01*
X151479Y67271D01*
X151598Y67262D01*
X151717Y67256D01*
X151836Y67254D01*
X145965Y74028D02*
X145903Y74129D01*
X145838Y74229D01*
X145769Y74326D01*
X145697Y74421D01*
X145623Y74514D01*
X145545Y74604D01*
X145464Y74692D01*
X145381Y74777D01*
X145295Y74859D01*
X145206Y74938D01*
X145115Y75015D01*
X145021Y75088D01*
X144925Y75159D01*
X144827Y75226D01*
X144727Y75290D01*
X144624Y75351D01*
X144520Y75408D01*
X144414Y75462D01*
X144306Y75512D01*
X144197Y75559D01*
X144086Y75603D01*
X143974Y75643D01*
X143860Y75679D01*
X143746Y75711D01*
X143630Y75740D01*
X143514Y75765D01*
X143397Y75786D01*
X143279Y75803D01*
X143161Y75817D01*
X143042Y75826D01*
X142923Y75832D01*
X142804Y75834D01*
X145965Y74028D02*
X148675Y69061D01*
X150932Y81913D02*
X143708Y81913D01*
X150932Y81913D02*
X151065Y81915D01*
X151197Y81921D01*
X151329Y81931D01*
X151461Y81944D01*
X151593Y81962D01*
X151723Y81983D01*
X151854Y82008D01*
X151983Y82037D01*
X152111Y82070D01*
X152239Y82106D01*
X152365Y82146D01*
X152490Y82190D01*
X152614Y82238D01*
X152736Y82289D01*
X152857Y82344D01*
X152976Y82402D01*
X153094Y82464D01*
X153209Y82529D01*
X153323Y82598D01*
X153434Y82669D01*
X153543Y82745D01*
X153650Y82823D01*
X153755Y82904D01*
X153857Y82989D01*
X153957Y83076D01*
X154054Y83166D01*
X154149Y83259D01*
X154240Y83355D01*
X154329Y83453D01*
X154415Y83554D01*
X154498Y83658D01*
X154578Y83764D01*
X154654Y83872D01*
X154728Y83982D01*
X154798Y84095D01*
X154865Y84209D01*
X154928Y84326D01*
X154988Y84444D01*
X155045Y84564D01*
X155098Y84686D01*
X155147Y84809D01*
X155193Y84933D01*
X155235Y85059D01*
X155273Y85186D01*
X155308Y85314D01*
X155339Y85443D01*
X155366Y85572D01*
X155389Y85703D01*
X155409Y85834D01*
X155424Y85966D01*
X155436Y86098D01*
X155444Y86230D01*
X155448Y86363D01*
X155448Y86495D01*
X155444Y86628D01*
X155436Y86760D01*
X155424Y86892D01*
X155409Y87024D01*
X155389Y87155D01*
X155366Y87286D01*
X155339Y87415D01*
X155308Y87544D01*
X155273Y87672D01*
X155235Y87799D01*
X155193Y87925D01*
X155147Y88049D01*
X155098Y88172D01*
X155045Y88294D01*
X154988Y88414D01*
X154928Y88532D01*
X154865Y88649D01*
X154798Y88763D01*
X154728Y88876D01*
X154654Y88986D01*
X154578Y89094D01*
X154498Y89200D01*
X154415Y89304D01*
X154329Y89405D01*
X154240Y89503D01*
X154149Y89599D01*
X154054Y89692D01*
X153957Y89782D01*
X153857Y89869D01*
X153755Y89954D01*
X153650Y90035D01*
X153543Y90113D01*
X153434Y90189D01*
X153323Y90260D01*
X153209Y90329D01*
X153094Y90394D01*
X152976Y90456D01*
X152857Y90514D01*
X152736Y90569D01*
X152614Y90620D01*
X152490Y90668D01*
X152365Y90712D01*
X152239Y90752D01*
X152111Y90788D01*
X151983Y90821D01*
X151854Y90850D01*
X151723Y90875D01*
X151593Y90896D01*
X151461Y90914D01*
X151329Y90927D01*
X151197Y90937D01*
X151065Y90943D01*
X150932Y90945D01*
X150932Y90944D02*
X143708Y90944D01*
X143708Y90945D02*
X143575Y90943D01*
X143443Y90937D01*
X143311Y90927D01*
X143179Y90914D01*
X143047Y90896D01*
X142917Y90875D01*
X142786Y90850D01*
X142657Y90821D01*
X142529Y90788D01*
X142401Y90752D01*
X142275Y90712D01*
X142150Y90668D01*
X142026Y90620D01*
X141904Y90569D01*
X141783Y90514D01*
X141664Y90456D01*
X141546Y90394D01*
X141431Y90329D01*
X141317Y90260D01*
X141206Y90189D01*
X141097Y90113D01*
X140990Y90035D01*
X140885Y89954D01*
X140783Y89869D01*
X140683Y89782D01*
X140586Y89692D01*
X140491Y89599D01*
X140400Y89503D01*
X140311Y89405D01*
X140225Y89304D01*
X140142Y89200D01*
X140062Y89094D01*
X139986Y88986D01*
X139912Y88876D01*
X139842Y88763D01*
X139775Y88649D01*
X139712Y88532D01*
X139652Y88414D01*
X139595Y88294D01*
X139542Y88172D01*
X139493Y88049D01*
X139447Y87925D01*
X139405Y87799D01*
X139367Y87672D01*
X139332Y87544D01*
X139301Y87415D01*
X139274Y87286D01*
X139251Y87155D01*
X139231Y87024D01*
X139216Y86892D01*
X139204Y86760D01*
X139196Y86628D01*
X139192Y86495D01*
X139192Y86363D01*
X139196Y86230D01*
X139204Y86098D01*
X139216Y85966D01*
X139231Y85834D01*
X139251Y85703D01*
X139274Y85572D01*
X139301Y85443D01*
X139332Y85314D01*
X139367Y85186D01*
X139405Y85059D01*
X139447Y84933D01*
X139493Y84809D01*
X139542Y84686D01*
X139595Y84564D01*
X139652Y84444D01*
X139712Y84326D01*
X139775Y84209D01*
X139842Y84095D01*
X139912Y83982D01*
X139986Y83872D01*
X140062Y83764D01*
X140142Y83658D01*
X140225Y83554D01*
X140311Y83453D01*
X140400Y83355D01*
X140491Y83259D01*
X140586Y83166D01*
X140683Y83076D01*
X140783Y82989D01*
X140885Y82904D01*
X140990Y82823D01*
X141097Y82745D01*
X141206Y82669D01*
X141317Y82598D01*
X141431Y82529D01*
X141546Y82464D01*
X141664Y82402D01*
X141783Y82344D01*
X141904Y82289D01*
X142026Y82238D01*
X142150Y82190D01*
X142275Y82146D01*
X142401Y82106D01*
X142529Y82070D01*
X142657Y82037D01*
X142786Y82008D01*
X142917Y81983D01*
X143047Y81962D01*
X143179Y81944D01*
X143311Y81931D01*
X143443Y81921D01*
X143575Y81915D01*
X143708Y81913D01*
X139192Y98157D02*
X155448Y98157D01*
X155448Y102672D01*
X155446Y102805D01*
X155440Y102937D01*
X155430Y103069D01*
X155417Y103201D01*
X155399Y103333D01*
X155378Y103463D01*
X155353Y103594D01*
X155324Y103723D01*
X155291Y103851D01*
X155255Y103979D01*
X155215Y104105D01*
X155171Y104230D01*
X155123Y104354D01*
X155072Y104476D01*
X155017Y104597D01*
X154959Y104716D01*
X154897Y104834D01*
X154832Y104949D01*
X154763Y105063D01*
X154692Y105174D01*
X154616Y105283D01*
X154538Y105390D01*
X154457Y105495D01*
X154372Y105597D01*
X154285Y105697D01*
X154195Y105794D01*
X154102Y105889D01*
X154006Y105980D01*
X153908Y106069D01*
X153807Y106155D01*
X153703Y106238D01*
X153597Y106318D01*
X153489Y106394D01*
X153379Y106468D01*
X153266Y106538D01*
X153152Y106605D01*
X153035Y106668D01*
X152917Y106728D01*
X152797Y106785D01*
X152675Y106838D01*
X152552Y106887D01*
X152428Y106933D01*
X152302Y106975D01*
X152175Y107013D01*
X152047Y107048D01*
X151918Y107079D01*
X151789Y107106D01*
X151658Y107129D01*
X151527Y107149D01*
X151395Y107164D01*
X151263Y107176D01*
X151131Y107184D01*
X150998Y107188D01*
X150866Y107188D01*
X150733Y107184D01*
X150601Y107176D01*
X150469Y107164D01*
X150337Y107149D01*
X150206Y107129D01*
X150075Y107106D01*
X149946Y107079D01*
X149817Y107048D01*
X149689Y107013D01*
X149562Y106975D01*
X149436Y106933D01*
X149312Y106887D01*
X149189Y106838D01*
X149067Y106785D01*
X148947Y106728D01*
X148829Y106668D01*
X148712Y106605D01*
X148598Y106538D01*
X148485Y106468D01*
X148375Y106394D01*
X148267Y106318D01*
X148161Y106238D01*
X148057Y106155D01*
X147956Y106069D01*
X147858Y105980D01*
X147762Y105889D01*
X147669Y105794D01*
X147579Y105697D01*
X147492Y105597D01*
X147407Y105495D01*
X147326Y105390D01*
X147248Y105283D01*
X147172Y105174D01*
X147101Y105063D01*
X147032Y104949D01*
X146967Y104834D01*
X146905Y104716D01*
X146847Y104597D01*
X146792Y104476D01*
X146741Y104354D01*
X146693Y104230D01*
X146649Y104105D01*
X146609Y103979D01*
X146573Y103851D01*
X146540Y103723D01*
X146511Y103594D01*
X146486Y103463D01*
X146465Y103333D01*
X146447Y103201D01*
X146434Y103069D01*
X146424Y102937D01*
X146418Y102805D01*
X146416Y102672D01*
X146417Y102672D02*
X146417Y98157D01*
X146417Y103576D02*
X139192Y107188D01*
D11*
X149900Y115400D02*
X168900Y115400D01*
X149900Y115400D02*
X149900Y230200D01*
X159900Y240200D01*
X168900Y240200D01*
X188900Y233200D02*
X188900Y122400D01*
X168900Y235200D02*
X168900Y240200D01*
X168900Y235200D02*
X168900Y233200D01*
X188900Y233200D01*
X168900Y120400D02*
X168900Y115400D01*
X168900Y120400D02*
X168900Y122400D01*
X188900Y122400D01*
X188900Y240200D02*
X198900Y240200D01*
X198900Y115400D01*
X188900Y115400D01*
X188900Y240200D01*
X168900Y235200D02*
X163100Y235200D01*
X154900Y227000D01*
X154900Y206200D01*
X157900Y203200D01*
X154900Y200200D01*
X154900Y120400D02*
X168900Y120400D01*
X154900Y180500D02*
X154900Y200200D01*
X154900Y180500D02*
X157600Y177800D01*
X154900Y175100D01*
X154900Y174800D02*
X154900Y155100D01*
X157600Y152400D01*
X154900Y149700D02*
X154900Y120400D01*
X154900Y149700D02*
X157600Y152400D01*
X102860Y215730D02*
X83860Y215730D01*
X83860Y330530D01*
X93860Y340530D01*
X102860Y340530D01*
X122860Y333530D02*
X122860Y222730D01*
X102860Y335530D02*
X102860Y340530D01*
X102860Y335530D02*
X102860Y333530D01*
X122860Y333530D01*
X102860Y220730D02*
X102860Y215730D01*
X102860Y220730D02*
X102860Y222730D01*
X122860Y222730D01*
X122860Y340530D02*
X132860Y340530D01*
X132860Y215730D01*
X122860Y215730D01*
X122860Y340530D01*
X102860Y335530D02*
X97060Y335530D01*
X88860Y327330D01*
X88860Y306530D01*
X91860Y303530D01*
X88860Y300530D01*
X88860Y220730D02*
X102860Y220730D01*
X88860Y280830D02*
X88860Y300530D01*
X88860Y280830D02*
X91560Y278130D01*
X88860Y275430D01*
X88860Y275130D02*
X88860Y255430D01*
X91560Y252730D01*
X88860Y250030D02*
X88860Y220730D01*
X88860Y250030D02*
X91560Y252730D01*
X83860Y13800D02*
X102860Y13800D01*
X83860Y13800D02*
X83860Y128600D01*
X93860Y138600D01*
X102860Y138600D01*
X122860Y131600D02*
X122860Y20800D01*
X102860Y133600D02*
X102860Y138600D01*
X102860Y133600D02*
X102860Y131600D01*
X122860Y131600D01*
X102860Y18800D02*
X102860Y13800D01*
X102860Y18800D02*
X102860Y20800D01*
X122860Y20800D01*
X122860Y138600D02*
X132860Y138600D01*
X132860Y13800D01*
X122860Y13800D01*
X122860Y138600D01*
X102860Y133600D02*
X97060Y133600D01*
X88860Y125400D01*
X88860Y104600D01*
X91860Y101600D01*
X88860Y98600D01*
X88860Y18800D02*
X102860Y18800D01*
X88860Y78900D02*
X88860Y98600D01*
X88860Y78900D02*
X91560Y76200D01*
X88860Y73500D01*
X88860Y73200D02*
X88860Y53500D01*
X91560Y50800D01*
X88860Y48100D02*
X88860Y18800D01*
X88860Y48100D02*
X91560Y50800D01*
M02*
