G04 EAGLE Gerber RS-274X export*
G75*
%MOMM*%
%FSLAX34Y34*%
%LPD*%
%IN*%
%IPPOS*%
%AMOC8*
5,1,8,0,0,1.08239X$1,22.5*%
G01*
%ADD10C,0.254000*%


D10*
X0Y0D02*
X342700Y0D01*
X342700Y377700D01*
X0Y377700D01*
X0Y0D01*
X38100Y342401D02*
X38100Y343399D01*
X38022Y344394D01*
X37866Y345380D01*
X37633Y346350D01*
X37324Y347299D01*
X36942Y348221D01*
X36489Y349110D01*
X35968Y349961D01*
X35381Y350769D01*
X34733Y351527D01*
X34027Y352233D01*
X33269Y352881D01*
X32461Y353468D01*
X31610Y353989D01*
X30721Y354442D01*
X29799Y354824D01*
X28850Y355133D01*
X27880Y355366D01*
X26894Y355522D01*
X25899Y355600D01*
X24901Y355600D01*
X23906Y355522D01*
X22920Y355366D01*
X21950Y355133D01*
X21001Y354824D01*
X20079Y354442D01*
X19190Y353989D01*
X18339Y353468D01*
X17531Y352881D01*
X16773Y352233D01*
X16067Y351527D01*
X15419Y350769D01*
X14832Y349961D01*
X14311Y349110D01*
X13858Y348221D01*
X13476Y347299D01*
X13167Y346350D01*
X12934Y345380D01*
X12778Y344394D01*
X12700Y343399D01*
X12700Y342401D01*
X12778Y341406D01*
X12934Y340420D01*
X13167Y339450D01*
X13476Y338501D01*
X13858Y337579D01*
X14311Y336690D01*
X14832Y335839D01*
X15419Y335031D01*
X16067Y334273D01*
X16773Y333567D01*
X17531Y332919D01*
X18339Y332332D01*
X19190Y331811D01*
X20079Y331358D01*
X21001Y330976D01*
X21950Y330667D01*
X22920Y330434D01*
X23906Y330278D01*
X24901Y330200D01*
X25899Y330200D01*
X26894Y330278D01*
X27880Y330434D01*
X28850Y330667D01*
X29799Y330976D01*
X30721Y331358D01*
X31610Y331811D01*
X32461Y332332D01*
X33269Y332919D01*
X34027Y333567D01*
X34733Y334273D01*
X35381Y335031D01*
X35968Y335839D01*
X36489Y336690D01*
X36942Y337579D01*
X37324Y338501D01*
X37633Y339450D01*
X37866Y340420D01*
X38022Y341406D01*
X38100Y342401D01*
X38100Y24901D02*
X38100Y25899D01*
X38022Y26894D01*
X37866Y27880D01*
X37633Y28850D01*
X37324Y29799D01*
X36942Y30721D01*
X36489Y31610D01*
X35968Y32461D01*
X35381Y33269D01*
X34733Y34027D01*
X34027Y34733D01*
X33269Y35381D01*
X32461Y35968D01*
X31610Y36489D01*
X30721Y36942D01*
X29799Y37324D01*
X28850Y37633D01*
X27880Y37866D01*
X26894Y38022D01*
X25899Y38100D01*
X24901Y38100D01*
X23906Y38022D01*
X22920Y37866D01*
X21950Y37633D01*
X21001Y37324D01*
X20079Y36942D01*
X19190Y36489D01*
X18339Y35968D01*
X17531Y35381D01*
X16773Y34733D01*
X16067Y34027D01*
X15419Y33269D01*
X14832Y32461D01*
X14311Y31610D01*
X13858Y30721D01*
X13476Y29799D01*
X13167Y28850D01*
X12934Y27880D01*
X12778Y26894D01*
X12700Y25899D01*
X12700Y24901D01*
X12778Y23906D01*
X12934Y22920D01*
X13167Y21950D01*
X13476Y21001D01*
X13858Y20079D01*
X14311Y19190D01*
X14832Y18339D01*
X15419Y17531D01*
X16067Y16773D01*
X16773Y16067D01*
X17531Y15419D01*
X18339Y14832D01*
X19190Y14311D01*
X20079Y13858D01*
X21001Y13476D01*
X21950Y13167D01*
X22920Y12934D01*
X23906Y12778D01*
X24901Y12700D01*
X25899Y12700D01*
X26894Y12778D01*
X27880Y12934D01*
X28850Y13167D01*
X29799Y13476D01*
X30721Y13858D01*
X31610Y14311D01*
X32461Y14832D01*
X33269Y15419D01*
X34027Y16067D01*
X34733Y16773D01*
X35381Y17531D01*
X35968Y18339D01*
X36489Y19190D01*
X36942Y20079D01*
X37324Y21001D01*
X37633Y21950D01*
X37866Y22920D01*
X38022Y23906D01*
X38100Y24901D01*
X330200Y24901D02*
X330200Y25899D01*
X330122Y26894D01*
X329966Y27880D01*
X329733Y28850D01*
X329424Y29799D01*
X329042Y30721D01*
X328589Y31610D01*
X328068Y32461D01*
X327481Y33269D01*
X326833Y34027D01*
X326127Y34733D01*
X325369Y35381D01*
X324561Y35968D01*
X323710Y36489D01*
X322821Y36942D01*
X321899Y37324D01*
X320950Y37633D01*
X319980Y37866D01*
X318994Y38022D01*
X317999Y38100D01*
X317001Y38100D01*
X316006Y38022D01*
X315020Y37866D01*
X314050Y37633D01*
X313101Y37324D01*
X312179Y36942D01*
X311290Y36489D01*
X310439Y35968D01*
X309631Y35381D01*
X308873Y34733D01*
X308167Y34027D01*
X307519Y33269D01*
X306932Y32461D01*
X306411Y31610D01*
X305958Y30721D01*
X305576Y29799D01*
X305267Y28850D01*
X305034Y27880D01*
X304878Y26894D01*
X304800Y25899D01*
X304800Y24901D01*
X304878Y23906D01*
X305034Y22920D01*
X305267Y21950D01*
X305576Y21001D01*
X305958Y20079D01*
X306411Y19190D01*
X306932Y18339D01*
X307519Y17531D01*
X308167Y16773D01*
X308873Y16067D01*
X309631Y15419D01*
X310439Y14832D01*
X311290Y14311D01*
X312179Y13858D01*
X313101Y13476D01*
X314050Y13167D01*
X315020Y12934D01*
X316006Y12778D01*
X317001Y12700D01*
X317999Y12700D01*
X318994Y12778D01*
X319980Y12934D01*
X320950Y13167D01*
X321899Y13476D01*
X322821Y13858D01*
X323710Y14311D01*
X324561Y14832D01*
X325369Y15419D01*
X326127Y16067D01*
X326833Y16773D01*
X327481Y17531D01*
X328068Y18339D01*
X328589Y19190D01*
X329042Y20079D01*
X329424Y21001D01*
X329733Y21950D01*
X329966Y22920D01*
X330122Y23906D01*
X330200Y24901D01*
X330200Y342401D02*
X330200Y343399D01*
X330122Y344394D01*
X329966Y345380D01*
X329733Y346350D01*
X329424Y347299D01*
X329042Y348221D01*
X328589Y349110D01*
X328068Y349961D01*
X327481Y350769D01*
X326833Y351527D01*
X326127Y352233D01*
X325369Y352881D01*
X324561Y353468D01*
X323710Y353989D01*
X322821Y354442D01*
X321899Y354824D01*
X320950Y355133D01*
X319980Y355366D01*
X318994Y355522D01*
X317999Y355600D01*
X317001Y355600D01*
X316006Y355522D01*
X315020Y355366D01*
X314050Y355133D01*
X313101Y354824D01*
X312179Y354442D01*
X311290Y353989D01*
X310439Y353468D01*
X309631Y352881D01*
X308873Y352233D01*
X308167Y351527D01*
X307519Y350769D01*
X306932Y349961D01*
X306411Y349110D01*
X305958Y348221D01*
X305576Y347299D01*
X305267Y346350D01*
X305034Y345380D01*
X304878Y344394D01*
X304800Y343399D01*
X304800Y342401D01*
X304878Y341406D01*
X305034Y340420D01*
X305267Y339450D01*
X305576Y338501D01*
X305958Y337579D01*
X306411Y336690D01*
X306932Y335839D01*
X307519Y335031D01*
X308167Y334273D01*
X308873Y333567D01*
X309631Y332919D01*
X310439Y332332D01*
X311290Y331811D01*
X312179Y331358D01*
X313101Y330976D01*
X314050Y330667D01*
X315020Y330434D01*
X316006Y330278D01*
X317001Y330200D01*
X317999Y330200D01*
X318994Y330278D01*
X319980Y330434D01*
X320950Y330667D01*
X321899Y330976D01*
X322821Y331358D01*
X323710Y331811D01*
X324561Y332332D01*
X325369Y332919D01*
X326127Y333567D01*
X326833Y334273D01*
X327481Y335031D01*
X328068Y335839D01*
X328589Y336690D01*
X329042Y337579D01*
X329424Y338501D01*
X329733Y339450D01*
X329966Y340420D01*
X330122Y341406D01*
X330200Y342401D01*
M02*
