G04 EAGLE Gerber RS-274X export*
G75*
%MOMM*%
%FSLAX34Y34*%
%LPD*%
%INSilkscreen Top*%
%IPPOS*%
%AMOC8*
5,1,8,0,0,1.08239X$1,22.5*%
G01*
%ADD10C,0.152400*%
%ADD11C,0.127000*%
%ADD12C,0.101600*%


D10*
X254762Y68778D02*
X254762Y76002D01*
X254764Y76135D01*
X254770Y76267D01*
X254780Y76399D01*
X254793Y76531D01*
X254811Y76663D01*
X254832Y76793D01*
X254857Y76924D01*
X254886Y77053D01*
X254919Y77181D01*
X254955Y77309D01*
X254995Y77435D01*
X255039Y77560D01*
X255087Y77684D01*
X255138Y77806D01*
X255193Y77927D01*
X255251Y78046D01*
X255313Y78164D01*
X255378Y78279D01*
X255447Y78393D01*
X255518Y78504D01*
X255594Y78613D01*
X255672Y78720D01*
X255753Y78825D01*
X255838Y78927D01*
X255925Y79027D01*
X256015Y79124D01*
X256108Y79219D01*
X256204Y79310D01*
X256302Y79399D01*
X256403Y79485D01*
X256507Y79568D01*
X256613Y79648D01*
X256721Y79724D01*
X256831Y79798D01*
X256944Y79868D01*
X257058Y79935D01*
X257175Y79998D01*
X257293Y80058D01*
X257413Y80115D01*
X257535Y80168D01*
X257658Y80217D01*
X257782Y80263D01*
X257908Y80305D01*
X258035Y80343D01*
X258163Y80378D01*
X258292Y80409D01*
X258421Y80436D01*
X258552Y80459D01*
X258683Y80479D01*
X258815Y80494D01*
X258947Y80506D01*
X259079Y80514D01*
X259212Y80518D01*
X259344Y80518D01*
X259477Y80514D01*
X259609Y80506D01*
X259741Y80494D01*
X259873Y80479D01*
X260004Y80459D01*
X260135Y80436D01*
X260264Y80409D01*
X260393Y80378D01*
X260521Y80343D01*
X260648Y80305D01*
X260774Y80263D01*
X260898Y80217D01*
X261021Y80168D01*
X261143Y80115D01*
X261263Y80058D01*
X261381Y79998D01*
X261498Y79935D01*
X261612Y79868D01*
X261725Y79798D01*
X261835Y79724D01*
X261943Y79648D01*
X262049Y79568D01*
X262153Y79485D01*
X262254Y79399D01*
X262352Y79310D01*
X262448Y79219D01*
X262541Y79124D01*
X262631Y79027D01*
X262718Y78927D01*
X262803Y78825D01*
X262884Y78720D01*
X262962Y78613D01*
X263038Y78504D01*
X263109Y78393D01*
X263178Y78279D01*
X263243Y78164D01*
X263305Y78046D01*
X263363Y77927D01*
X263418Y77806D01*
X263469Y77684D01*
X263517Y77560D01*
X263561Y77435D01*
X263601Y77309D01*
X263637Y77181D01*
X263670Y77053D01*
X263699Y76924D01*
X263724Y76793D01*
X263745Y76663D01*
X263763Y76531D01*
X263776Y76399D01*
X263786Y76267D01*
X263792Y76135D01*
X263794Y76002D01*
X263793Y76002D02*
X263793Y68778D01*
X263794Y68778D02*
X263792Y68645D01*
X263786Y68513D01*
X263776Y68381D01*
X263763Y68249D01*
X263745Y68117D01*
X263724Y67987D01*
X263699Y67856D01*
X263670Y67727D01*
X263637Y67599D01*
X263601Y67471D01*
X263561Y67345D01*
X263517Y67220D01*
X263469Y67096D01*
X263418Y66974D01*
X263363Y66853D01*
X263305Y66734D01*
X263243Y66616D01*
X263178Y66501D01*
X263109Y66387D01*
X263038Y66276D01*
X262962Y66167D01*
X262884Y66060D01*
X262803Y65955D01*
X262718Y65853D01*
X262631Y65753D01*
X262541Y65656D01*
X262448Y65561D01*
X262352Y65470D01*
X262254Y65381D01*
X262153Y65295D01*
X262049Y65212D01*
X261943Y65132D01*
X261835Y65056D01*
X261725Y64982D01*
X261612Y64912D01*
X261498Y64845D01*
X261381Y64782D01*
X261263Y64722D01*
X261143Y64665D01*
X261021Y64612D01*
X260898Y64563D01*
X260774Y64517D01*
X260648Y64475D01*
X260521Y64437D01*
X260393Y64402D01*
X260264Y64371D01*
X260135Y64344D01*
X260004Y64321D01*
X259873Y64301D01*
X259741Y64286D01*
X259609Y64274D01*
X259477Y64266D01*
X259344Y64262D01*
X259212Y64262D01*
X259079Y64266D01*
X258947Y64274D01*
X258815Y64286D01*
X258683Y64301D01*
X258552Y64321D01*
X258421Y64344D01*
X258292Y64371D01*
X258163Y64402D01*
X258035Y64437D01*
X257908Y64475D01*
X257782Y64517D01*
X257658Y64563D01*
X257535Y64612D01*
X257413Y64665D01*
X257293Y64722D01*
X257175Y64782D01*
X257058Y64845D01*
X256944Y64912D01*
X256831Y64982D01*
X256721Y65056D01*
X256613Y65132D01*
X256507Y65212D01*
X256403Y65295D01*
X256302Y65381D01*
X256204Y65470D01*
X256108Y65561D01*
X256015Y65656D01*
X255925Y65753D01*
X255838Y65853D01*
X255753Y65955D01*
X255672Y66060D01*
X255594Y66167D01*
X255518Y66276D01*
X255447Y66387D01*
X255378Y66501D01*
X255313Y66616D01*
X255251Y66734D01*
X255193Y66853D01*
X255138Y66974D01*
X255087Y67096D01*
X255039Y67220D01*
X254995Y67345D01*
X254955Y67471D01*
X254919Y67599D01*
X254886Y67727D01*
X254857Y67856D01*
X254832Y67987D01*
X254811Y68117D01*
X254793Y68249D01*
X254780Y68381D01*
X254770Y68513D01*
X254764Y68645D01*
X254762Y68778D01*
X270914Y64262D02*
X270914Y80518D01*
X279945Y64262D01*
X279945Y80518D01*
X191262Y76002D02*
X191262Y68778D01*
X191262Y76002D02*
X191264Y76135D01*
X191270Y76267D01*
X191280Y76399D01*
X191293Y76531D01*
X191311Y76663D01*
X191332Y76793D01*
X191357Y76924D01*
X191386Y77053D01*
X191419Y77181D01*
X191455Y77309D01*
X191495Y77435D01*
X191539Y77560D01*
X191587Y77684D01*
X191638Y77806D01*
X191693Y77927D01*
X191751Y78046D01*
X191813Y78164D01*
X191878Y78279D01*
X191947Y78393D01*
X192018Y78504D01*
X192094Y78613D01*
X192172Y78720D01*
X192253Y78825D01*
X192338Y78927D01*
X192425Y79027D01*
X192515Y79124D01*
X192608Y79219D01*
X192704Y79310D01*
X192802Y79399D01*
X192903Y79485D01*
X193007Y79568D01*
X193113Y79648D01*
X193221Y79724D01*
X193331Y79798D01*
X193444Y79868D01*
X193558Y79935D01*
X193675Y79998D01*
X193793Y80058D01*
X193913Y80115D01*
X194035Y80168D01*
X194158Y80217D01*
X194282Y80263D01*
X194408Y80305D01*
X194535Y80343D01*
X194663Y80378D01*
X194792Y80409D01*
X194921Y80436D01*
X195052Y80459D01*
X195183Y80479D01*
X195315Y80494D01*
X195447Y80506D01*
X195579Y80514D01*
X195712Y80518D01*
X195844Y80518D01*
X195977Y80514D01*
X196109Y80506D01*
X196241Y80494D01*
X196373Y80479D01*
X196504Y80459D01*
X196635Y80436D01*
X196764Y80409D01*
X196893Y80378D01*
X197021Y80343D01*
X197148Y80305D01*
X197274Y80263D01*
X197398Y80217D01*
X197521Y80168D01*
X197643Y80115D01*
X197763Y80058D01*
X197881Y79998D01*
X197998Y79935D01*
X198112Y79868D01*
X198225Y79798D01*
X198335Y79724D01*
X198443Y79648D01*
X198549Y79568D01*
X198653Y79485D01*
X198754Y79399D01*
X198852Y79310D01*
X198948Y79219D01*
X199041Y79124D01*
X199131Y79027D01*
X199218Y78927D01*
X199303Y78825D01*
X199384Y78720D01*
X199462Y78613D01*
X199538Y78504D01*
X199609Y78393D01*
X199678Y78279D01*
X199743Y78164D01*
X199805Y78046D01*
X199863Y77927D01*
X199918Y77806D01*
X199969Y77684D01*
X200017Y77560D01*
X200061Y77435D01*
X200101Y77309D01*
X200137Y77181D01*
X200170Y77053D01*
X200199Y76924D01*
X200224Y76793D01*
X200245Y76663D01*
X200263Y76531D01*
X200276Y76399D01*
X200286Y76267D01*
X200292Y76135D01*
X200294Y76002D01*
X200293Y76002D02*
X200293Y68778D01*
X200294Y68778D02*
X200292Y68645D01*
X200286Y68513D01*
X200276Y68381D01*
X200263Y68249D01*
X200245Y68117D01*
X200224Y67987D01*
X200199Y67856D01*
X200170Y67727D01*
X200137Y67599D01*
X200101Y67471D01*
X200061Y67345D01*
X200017Y67220D01*
X199969Y67096D01*
X199918Y66974D01*
X199863Y66853D01*
X199805Y66734D01*
X199743Y66616D01*
X199678Y66501D01*
X199609Y66387D01*
X199538Y66276D01*
X199462Y66167D01*
X199384Y66060D01*
X199303Y65955D01*
X199218Y65853D01*
X199131Y65753D01*
X199041Y65656D01*
X198948Y65561D01*
X198852Y65470D01*
X198754Y65381D01*
X198653Y65295D01*
X198549Y65212D01*
X198443Y65132D01*
X198335Y65056D01*
X198225Y64982D01*
X198112Y64912D01*
X197998Y64845D01*
X197881Y64782D01*
X197763Y64722D01*
X197643Y64665D01*
X197521Y64612D01*
X197398Y64563D01*
X197274Y64517D01*
X197148Y64475D01*
X197021Y64437D01*
X196893Y64402D01*
X196764Y64371D01*
X196635Y64344D01*
X196504Y64321D01*
X196373Y64301D01*
X196241Y64286D01*
X196109Y64274D01*
X195977Y64266D01*
X195844Y64262D01*
X195712Y64262D01*
X195579Y64266D01*
X195447Y64274D01*
X195315Y64286D01*
X195183Y64301D01*
X195052Y64321D01*
X194921Y64344D01*
X194792Y64371D01*
X194663Y64402D01*
X194535Y64437D01*
X194408Y64475D01*
X194282Y64517D01*
X194158Y64563D01*
X194035Y64612D01*
X193913Y64665D01*
X193793Y64722D01*
X193675Y64782D01*
X193558Y64845D01*
X193444Y64912D01*
X193331Y64982D01*
X193221Y65056D01*
X193113Y65132D01*
X193007Y65212D01*
X192903Y65295D01*
X192802Y65381D01*
X192704Y65470D01*
X192608Y65561D01*
X192515Y65656D01*
X192425Y65753D01*
X192338Y65853D01*
X192253Y65955D01*
X192172Y66060D01*
X192094Y66167D01*
X192018Y66276D01*
X191947Y66387D01*
X191878Y66501D01*
X191813Y66616D01*
X191751Y66734D01*
X191693Y66853D01*
X191638Y66974D01*
X191587Y67096D01*
X191539Y67220D01*
X191495Y67345D01*
X191455Y67471D01*
X191419Y67599D01*
X191386Y67727D01*
X191357Y67856D01*
X191332Y67987D01*
X191311Y68117D01*
X191293Y68249D01*
X191280Y68381D01*
X191270Y68513D01*
X191264Y68645D01*
X191262Y68778D01*
X207444Y64262D02*
X207444Y80518D01*
X214669Y80518D01*
X214669Y73293D02*
X207444Y73293D01*
X220991Y80518D02*
X220991Y64262D01*
X220991Y80518D02*
X228216Y80518D01*
X228216Y73293D02*
X220991Y73293D01*
X261084Y162193D02*
X263793Y162193D01*
X263793Y153162D01*
X258374Y153162D01*
X258256Y153164D01*
X258138Y153170D01*
X258020Y153179D01*
X257903Y153193D01*
X257786Y153210D01*
X257669Y153231D01*
X257554Y153256D01*
X257439Y153285D01*
X257325Y153318D01*
X257213Y153354D01*
X257102Y153394D01*
X256992Y153437D01*
X256883Y153484D01*
X256776Y153534D01*
X256671Y153589D01*
X256568Y153646D01*
X256467Y153707D01*
X256367Y153771D01*
X256270Y153838D01*
X256175Y153908D01*
X256083Y153982D01*
X255992Y154058D01*
X255905Y154138D01*
X255820Y154220D01*
X255738Y154305D01*
X255658Y154392D01*
X255582Y154483D01*
X255508Y154575D01*
X255438Y154670D01*
X255371Y154767D01*
X255307Y154867D01*
X255246Y154968D01*
X255189Y155071D01*
X255134Y155176D01*
X255084Y155283D01*
X255037Y155392D01*
X254994Y155502D01*
X254954Y155613D01*
X254918Y155725D01*
X254885Y155839D01*
X254856Y155954D01*
X254831Y156069D01*
X254810Y156186D01*
X254793Y156303D01*
X254779Y156420D01*
X254770Y156538D01*
X254764Y156656D01*
X254762Y156774D01*
X254762Y165806D01*
X254764Y165924D01*
X254770Y166042D01*
X254779Y166160D01*
X254793Y166277D01*
X254810Y166394D01*
X254831Y166511D01*
X254856Y166626D01*
X254885Y166741D01*
X254918Y166855D01*
X254954Y166967D01*
X254994Y167078D01*
X255037Y167188D01*
X255084Y167297D01*
X255134Y167404D01*
X255188Y167509D01*
X255246Y167612D01*
X255307Y167713D01*
X255371Y167813D01*
X255438Y167910D01*
X255508Y168005D01*
X255582Y168097D01*
X255658Y168188D01*
X255738Y168275D01*
X255820Y168360D01*
X255905Y168442D01*
X255992Y168522D01*
X256083Y168598D01*
X256175Y168672D01*
X256270Y168742D01*
X256367Y168809D01*
X256467Y168873D01*
X256568Y168934D01*
X256671Y168991D01*
X256776Y169045D01*
X256883Y169096D01*
X256992Y169143D01*
X257102Y169186D01*
X257213Y169226D01*
X257325Y169262D01*
X257439Y169295D01*
X257554Y169324D01*
X257669Y169349D01*
X257786Y169370D01*
X257903Y169387D01*
X258020Y169401D01*
X258138Y169410D01*
X258256Y169416D01*
X258374Y169418D01*
X263793Y169418D01*
X271435Y169418D02*
X271435Y153162D01*
X280466Y153162D02*
X271435Y169418D01*
X280466Y169418D02*
X280466Y153162D01*
X288109Y153162D02*
X288109Y169418D01*
X292624Y169418D01*
X292755Y169416D01*
X292887Y169410D01*
X293018Y169401D01*
X293148Y169387D01*
X293279Y169370D01*
X293408Y169349D01*
X293537Y169325D01*
X293665Y169296D01*
X293793Y169264D01*
X293919Y169228D01*
X294044Y169189D01*
X294169Y169146D01*
X294291Y169099D01*
X294413Y169049D01*
X294533Y168995D01*
X294651Y168938D01*
X294767Y168877D01*
X294882Y168813D01*
X294995Y168746D01*
X295106Y168675D01*
X295214Y168601D01*
X295321Y168524D01*
X295425Y168444D01*
X295527Y168361D01*
X295626Y168276D01*
X295723Y168187D01*
X295817Y168095D01*
X295909Y168001D01*
X295998Y167904D01*
X296083Y167805D01*
X296166Y167703D01*
X296246Y167599D01*
X296323Y167492D01*
X296397Y167384D01*
X296468Y167273D01*
X296535Y167160D01*
X296599Y167045D01*
X296660Y166929D01*
X296717Y166811D01*
X296771Y166691D01*
X296821Y166569D01*
X296868Y166447D01*
X296911Y166322D01*
X296950Y166197D01*
X296986Y166071D01*
X297018Y165943D01*
X297047Y165815D01*
X297071Y165686D01*
X297092Y165557D01*
X297109Y165426D01*
X297123Y165296D01*
X297132Y165165D01*
X297138Y165033D01*
X297140Y164902D01*
X297140Y157678D01*
X297138Y157547D01*
X297132Y157415D01*
X297123Y157284D01*
X297109Y157154D01*
X297092Y157023D01*
X297071Y156894D01*
X297047Y156765D01*
X297018Y156637D01*
X296986Y156509D01*
X296950Y156383D01*
X296911Y156258D01*
X296868Y156133D01*
X296821Y156011D01*
X296771Y155889D01*
X296717Y155769D01*
X296660Y155651D01*
X296599Y155535D01*
X296535Y155420D01*
X296468Y155307D01*
X296397Y155196D01*
X296323Y155088D01*
X296246Y154981D01*
X296166Y154877D01*
X296083Y154775D01*
X295998Y154676D01*
X295909Y154579D01*
X295817Y154485D01*
X295723Y154393D01*
X295626Y154304D01*
X295527Y154219D01*
X295425Y154136D01*
X295321Y154056D01*
X295214Y153979D01*
X295106Y153905D01*
X294995Y153834D01*
X294882Y153767D01*
X294767Y153703D01*
X294651Y153642D01*
X294533Y153585D01*
X294413Y153531D01*
X294291Y153481D01*
X294169Y153434D01*
X294044Y153391D01*
X293919Y153352D01*
X293793Y153316D01*
X293665Y153284D01*
X293537Y153255D01*
X293408Y153231D01*
X293278Y153210D01*
X293148Y153193D01*
X293018Y153179D01*
X292887Y153170D01*
X292755Y153164D01*
X292624Y153162D01*
X288109Y153162D01*
X254762Y203906D02*
X259278Y207518D01*
X259278Y191262D01*
X263793Y191262D02*
X254762Y191262D01*
X275360Y207518D02*
X275485Y207516D01*
X275610Y207510D01*
X275735Y207501D01*
X275859Y207487D01*
X275983Y207470D01*
X276107Y207449D01*
X276229Y207424D01*
X276351Y207395D01*
X276472Y207363D01*
X276592Y207327D01*
X276711Y207287D01*
X276828Y207244D01*
X276944Y207197D01*
X277059Y207146D01*
X277171Y207092D01*
X277283Y207034D01*
X277392Y206974D01*
X277499Y206909D01*
X277605Y206842D01*
X277708Y206771D01*
X277809Y206697D01*
X277908Y206620D01*
X278004Y206540D01*
X278098Y206457D01*
X278189Y206372D01*
X278278Y206283D01*
X278363Y206192D01*
X278446Y206098D01*
X278526Y206002D01*
X278603Y205903D01*
X278677Y205802D01*
X278748Y205699D01*
X278815Y205593D01*
X278880Y205486D01*
X278940Y205377D01*
X278998Y205265D01*
X279052Y205153D01*
X279103Y205038D01*
X279150Y204922D01*
X279193Y204805D01*
X279233Y204686D01*
X279269Y204566D01*
X279301Y204445D01*
X279330Y204323D01*
X279355Y204201D01*
X279376Y204077D01*
X279393Y203953D01*
X279407Y203829D01*
X279416Y203704D01*
X279422Y203579D01*
X279424Y203454D01*
X275360Y207518D02*
X275217Y207516D01*
X275075Y207510D01*
X274932Y207500D01*
X274790Y207487D01*
X274649Y207469D01*
X274507Y207448D01*
X274367Y207423D01*
X274227Y207394D01*
X274088Y207361D01*
X273950Y207324D01*
X273813Y207284D01*
X273678Y207240D01*
X273543Y207192D01*
X273410Y207140D01*
X273278Y207085D01*
X273148Y207026D01*
X273020Y206964D01*
X272893Y206898D01*
X272768Y206829D01*
X272645Y206757D01*
X272525Y206681D01*
X272406Y206602D01*
X272289Y206519D01*
X272175Y206434D01*
X272063Y206345D01*
X271954Y206254D01*
X271847Y206159D01*
X271742Y206062D01*
X271641Y205961D01*
X271542Y205858D01*
X271446Y205753D01*
X271353Y205644D01*
X271263Y205533D01*
X271176Y205420D01*
X271092Y205305D01*
X271012Y205187D01*
X270934Y205067D01*
X270860Y204945D01*
X270790Y204821D01*
X270722Y204695D01*
X270659Y204567D01*
X270598Y204438D01*
X270541Y204307D01*
X270488Y204175D01*
X270439Y204041D01*
X270393Y203906D01*
X278069Y200293D02*
X278163Y200385D01*
X278253Y200479D01*
X278341Y200576D01*
X278426Y200676D01*
X278508Y200778D01*
X278587Y200883D01*
X278662Y200990D01*
X278734Y201099D01*
X278803Y201210D01*
X278869Y201324D01*
X278931Y201439D01*
X278990Y201556D01*
X279045Y201675D01*
X279096Y201795D01*
X279144Y201917D01*
X279189Y202040D01*
X279229Y202164D01*
X279266Y202290D01*
X279299Y202417D01*
X279328Y202544D01*
X279354Y202673D01*
X279375Y202802D01*
X279393Y202932D01*
X279406Y203062D01*
X279416Y203192D01*
X279422Y203323D01*
X279424Y203454D01*
X278070Y200293D02*
X270393Y191262D01*
X279424Y191262D01*
X290540Y191262D02*
X285121Y207518D01*
X295959Y207518D02*
X290540Y191262D01*
X276493Y301893D02*
X273784Y301893D01*
X276493Y301893D02*
X276493Y292862D01*
X271074Y292862D01*
X270956Y292864D01*
X270838Y292870D01*
X270720Y292879D01*
X270603Y292893D01*
X270486Y292910D01*
X270369Y292931D01*
X270254Y292956D01*
X270139Y292985D01*
X270025Y293018D01*
X269913Y293054D01*
X269802Y293094D01*
X269692Y293137D01*
X269583Y293184D01*
X269476Y293234D01*
X269371Y293289D01*
X269268Y293346D01*
X269167Y293407D01*
X269067Y293471D01*
X268970Y293538D01*
X268875Y293608D01*
X268783Y293682D01*
X268692Y293758D01*
X268605Y293838D01*
X268520Y293920D01*
X268438Y294005D01*
X268358Y294092D01*
X268282Y294183D01*
X268208Y294275D01*
X268138Y294370D01*
X268071Y294467D01*
X268007Y294567D01*
X267946Y294668D01*
X267889Y294771D01*
X267834Y294876D01*
X267784Y294983D01*
X267737Y295092D01*
X267694Y295202D01*
X267654Y295313D01*
X267618Y295425D01*
X267585Y295539D01*
X267556Y295654D01*
X267531Y295769D01*
X267510Y295886D01*
X267493Y296003D01*
X267479Y296120D01*
X267470Y296238D01*
X267464Y296356D01*
X267462Y296474D01*
X267462Y305506D01*
X267464Y305624D01*
X267470Y305742D01*
X267479Y305860D01*
X267493Y305977D01*
X267510Y306094D01*
X267531Y306211D01*
X267556Y306326D01*
X267585Y306441D01*
X267618Y306555D01*
X267654Y306667D01*
X267694Y306778D01*
X267737Y306888D01*
X267784Y306997D01*
X267834Y307104D01*
X267888Y307209D01*
X267946Y307312D01*
X268007Y307413D01*
X268071Y307513D01*
X268138Y307610D01*
X268208Y307705D01*
X268282Y307797D01*
X268358Y307888D01*
X268438Y307975D01*
X268520Y308060D01*
X268605Y308142D01*
X268692Y308222D01*
X268783Y308298D01*
X268875Y308372D01*
X268970Y308442D01*
X269067Y308509D01*
X269167Y308573D01*
X269268Y308634D01*
X269371Y308691D01*
X269476Y308745D01*
X269583Y308796D01*
X269692Y308843D01*
X269802Y308886D01*
X269913Y308926D01*
X270025Y308962D01*
X270139Y308995D01*
X270254Y309024D01*
X270369Y309049D01*
X270486Y309070D01*
X270603Y309087D01*
X270720Y309101D01*
X270838Y309110D01*
X270956Y309116D01*
X271074Y309118D01*
X276493Y309118D01*
X284135Y309118D02*
X284135Y292862D01*
X293166Y292862D02*
X284135Y309118D01*
X293166Y309118D02*
X293166Y292862D01*
X300809Y292862D02*
X300809Y309118D01*
X305324Y309118D01*
X305455Y309116D01*
X305587Y309110D01*
X305718Y309101D01*
X305848Y309087D01*
X305979Y309070D01*
X306108Y309049D01*
X306237Y309025D01*
X306365Y308996D01*
X306493Y308964D01*
X306619Y308928D01*
X306744Y308889D01*
X306869Y308846D01*
X306991Y308799D01*
X307113Y308749D01*
X307233Y308695D01*
X307351Y308638D01*
X307467Y308577D01*
X307582Y308513D01*
X307695Y308446D01*
X307806Y308375D01*
X307914Y308301D01*
X308021Y308224D01*
X308125Y308144D01*
X308227Y308061D01*
X308326Y307976D01*
X308423Y307887D01*
X308517Y307795D01*
X308609Y307701D01*
X308698Y307604D01*
X308783Y307505D01*
X308866Y307403D01*
X308946Y307299D01*
X309023Y307192D01*
X309097Y307084D01*
X309168Y306973D01*
X309235Y306860D01*
X309299Y306745D01*
X309360Y306629D01*
X309417Y306511D01*
X309471Y306391D01*
X309521Y306269D01*
X309568Y306147D01*
X309611Y306022D01*
X309650Y305897D01*
X309686Y305771D01*
X309718Y305643D01*
X309747Y305515D01*
X309771Y305386D01*
X309792Y305257D01*
X309809Y305126D01*
X309823Y304996D01*
X309832Y304865D01*
X309838Y304733D01*
X309840Y304602D01*
X309840Y297378D01*
X309838Y297247D01*
X309832Y297115D01*
X309823Y296984D01*
X309809Y296854D01*
X309792Y296723D01*
X309771Y296594D01*
X309747Y296465D01*
X309718Y296337D01*
X309686Y296209D01*
X309650Y296083D01*
X309611Y295958D01*
X309568Y295833D01*
X309521Y295711D01*
X309471Y295589D01*
X309417Y295469D01*
X309360Y295351D01*
X309299Y295235D01*
X309235Y295120D01*
X309168Y295007D01*
X309097Y294896D01*
X309023Y294788D01*
X308946Y294681D01*
X308866Y294577D01*
X308783Y294475D01*
X308698Y294376D01*
X308609Y294279D01*
X308517Y294185D01*
X308423Y294093D01*
X308326Y294004D01*
X308227Y293919D01*
X308125Y293836D01*
X308021Y293756D01*
X307914Y293679D01*
X307806Y293605D01*
X307695Y293534D01*
X307582Y293467D01*
X307467Y293403D01*
X307351Y293342D01*
X307233Y293285D01*
X307113Y293231D01*
X306991Y293181D01*
X306869Y293134D01*
X306744Y293091D01*
X306619Y293052D01*
X306493Y293016D01*
X306365Y292984D01*
X306237Y292955D01*
X306108Y292931D01*
X305978Y292910D01*
X305848Y292893D01*
X305718Y292879D01*
X305587Y292870D01*
X305455Y292864D01*
X305324Y292862D01*
X300809Y292862D01*
X272881Y267462D02*
X267462Y267462D01*
X272881Y267462D02*
X272999Y267464D01*
X273117Y267470D01*
X273235Y267479D01*
X273352Y267493D01*
X273469Y267510D01*
X273586Y267531D01*
X273701Y267556D01*
X273816Y267585D01*
X273930Y267618D01*
X274042Y267654D01*
X274153Y267694D01*
X274263Y267737D01*
X274372Y267784D01*
X274479Y267834D01*
X274584Y267889D01*
X274687Y267946D01*
X274788Y268007D01*
X274888Y268071D01*
X274985Y268138D01*
X275080Y268208D01*
X275172Y268282D01*
X275263Y268358D01*
X275350Y268438D01*
X275435Y268520D01*
X275517Y268605D01*
X275597Y268692D01*
X275673Y268783D01*
X275747Y268875D01*
X275817Y268970D01*
X275884Y269067D01*
X275948Y269167D01*
X276009Y269268D01*
X276066Y269371D01*
X276121Y269476D01*
X276171Y269583D01*
X276218Y269692D01*
X276261Y269802D01*
X276301Y269913D01*
X276337Y270025D01*
X276370Y270139D01*
X276399Y270254D01*
X276424Y270369D01*
X276445Y270486D01*
X276462Y270603D01*
X276476Y270720D01*
X276485Y270838D01*
X276491Y270956D01*
X276493Y271074D01*
X276493Y272881D01*
X276491Y272999D01*
X276485Y273117D01*
X276476Y273235D01*
X276462Y273352D01*
X276445Y273469D01*
X276424Y273586D01*
X276399Y273701D01*
X276370Y273816D01*
X276337Y273930D01*
X276301Y274042D01*
X276261Y274153D01*
X276218Y274263D01*
X276171Y274372D01*
X276121Y274479D01*
X276066Y274584D01*
X276009Y274687D01*
X275948Y274788D01*
X275884Y274888D01*
X275817Y274985D01*
X275747Y275080D01*
X275673Y275172D01*
X275597Y275263D01*
X275517Y275350D01*
X275435Y275435D01*
X275350Y275517D01*
X275263Y275597D01*
X275172Y275673D01*
X275080Y275747D01*
X274985Y275817D01*
X274888Y275884D01*
X274788Y275948D01*
X274687Y276009D01*
X274584Y276066D01*
X274479Y276121D01*
X274372Y276171D01*
X274263Y276218D01*
X274153Y276261D01*
X274042Y276301D01*
X273930Y276337D01*
X273816Y276370D01*
X273701Y276399D01*
X273586Y276424D01*
X273469Y276445D01*
X273352Y276462D01*
X273235Y276476D01*
X273117Y276485D01*
X272999Y276491D01*
X272881Y276493D01*
X267462Y276493D01*
X267462Y283718D01*
X276493Y283718D01*
X282190Y283718D02*
X287609Y267462D01*
X293027Y283718D01*
X267462Y258318D02*
X267462Y242062D01*
X267462Y258318D02*
X271978Y258318D01*
X272111Y258316D01*
X272243Y258310D01*
X272375Y258300D01*
X272507Y258287D01*
X272639Y258269D01*
X272769Y258248D01*
X272900Y258223D01*
X273029Y258194D01*
X273157Y258161D01*
X273285Y258125D01*
X273411Y258085D01*
X273536Y258041D01*
X273660Y257993D01*
X273782Y257942D01*
X273903Y257887D01*
X274022Y257829D01*
X274140Y257767D01*
X274255Y257702D01*
X274369Y257633D01*
X274480Y257562D01*
X274589Y257486D01*
X274696Y257408D01*
X274801Y257327D01*
X274903Y257242D01*
X275003Y257155D01*
X275100Y257065D01*
X275195Y256972D01*
X275286Y256876D01*
X275375Y256778D01*
X275461Y256677D01*
X275544Y256573D01*
X275624Y256467D01*
X275700Y256359D01*
X275774Y256249D01*
X275844Y256136D01*
X275911Y256022D01*
X275974Y255905D01*
X276034Y255787D01*
X276091Y255667D01*
X276144Y255545D01*
X276193Y255422D01*
X276239Y255298D01*
X276281Y255172D01*
X276319Y255045D01*
X276354Y254917D01*
X276385Y254788D01*
X276412Y254659D01*
X276435Y254528D01*
X276455Y254397D01*
X276470Y254265D01*
X276482Y254133D01*
X276490Y254001D01*
X276494Y253868D01*
X276494Y253736D01*
X276490Y253603D01*
X276482Y253471D01*
X276470Y253339D01*
X276455Y253207D01*
X276435Y253076D01*
X276412Y252945D01*
X276385Y252816D01*
X276354Y252687D01*
X276319Y252559D01*
X276281Y252432D01*
X276239Y252306D01*
X276193Y252182D01*
X276144Y252059D01*
X276091Y251937D01*
X276034Y251817D01*
X275974Y251699D01*
X275911Y251582D01*
X275844Y251468D01*
X275774Y251355D01*
X275700Y251245D01*
X275624Y251137D01*
X275544Y251031D01*
X275461Y250927D01*
X275375Y250826D01*
X275286Y250728D01*
X275195Y250632D01*
X275100Y250539D01*
X275003Y250449D01*
X274903Y250362D01*
X274801Y250277D01*
X274696Y250196D01*
X274589Y250118D01*
X274480Y250042D01*
X274369Y249971D01*
X274255Y249902D01*
X274140Y249837D01*
X274022Y249775D01*
X273903Y249717D01*
X273782Y249662D01*
X273660Y249611D01*
X273536Y249563D01*
X273411Y249519D01*
X273285Y249479D01*
X273157Y249443D01*
X273029Y249410D01*
X272900Y249381D01*
X272769Y249356D01*
X272639Y249335D01*
X272507Y249317D01*
X272375Y249304D01*
X272243Y249294D01*
X272111Y249288D01*
X271978Y249286D01*
X271978Y249287D02*
X267462Y249287D01*
X281736Y258318D02*
X285349Y242062D01*
X288961Y252899D01*
X292573Y242062D01*
X296186Y258318D01*
X302821Y258318D02*
X302821Y242062D01*
X308239Y249287D02*
X302821Y258318D01*
X308239Y249287D02*
X313658Y258318D01*
X313658Y242062D01*
D11*
X54300Y227800D02*
X54300Y127800D01*
X184300Y127800D01*
X184300Y227800D01*
X54300Y227800D01*
X138300Y137800D02*
X171300Y137800D01*
X138300Y137800D02*
X138300Y167800D01*
X171300Y167800D01*
X171300Y137800D01*
X139267Y197800D02*
X139272Y198169D01*
X139285Y198538D01*
X139308Y198906D01*
X139339Y199273D01*
X139380Y199640D01*
X139430Y200006D01*
X139488Y200370D01*
X139556Y200733D01*
X139632Y201094D01*
X139718Y201453D01*
X139812Y201809D01*
X139914Y202164D01*
X140026Y202516D01*
X140146Y202864D01*
X140274Y203210D01*
X140411Y203553D01*
X140557Y203892D01*
X140710Y204227D01*
X140872Y204559D01*
X141042Y204887D01*
X141220Y205210D01*
X141406Y205529D01*
X141599Y205843D01*
X141801Y206152D01*
X142009Y206456D01*
X142225Y206755D01*
X142449Y207049D01*
X142679Y207337D01*
X142917Y207619D01*
X143161Y207896D01*
X143412Y208166D01*
X143670Y208430D01*
X143934Y208688D01*
X144204Y208939D01*
X144481Y209183D01*
X144763Y209421D01*
X145051Y209651D01*
X145345Y209875D01*
X145644Y210091D01*
X145948Y210299D01*
X146257Y210501D01*
X146571Y210694D01*
X146890Y210880D01*
X147213Y211058D01*
X147541Y211228D01*
X147873Y211390D01*
X148208Y211543D01*
X148547Y211689D01*
X148890Y211826D01*
X149236Y211954D01*
X149584Y212074D01*
X149936Y212186D01*
X150291Y212288D01*
X150647Y212382D01*
X151006Y212468D01*
X151367Y212544D01*
X151730Y212612D01*
X152094Y212670D01*
X152460Y212720D01*
X152827Y212761D01*
X153194Y212792D01*
X153562Y212815D01*
X153931Y212828D01*
X154300Y212833D01*
X154669Y212828D01*
X155038Y212815D01*
X155406Y212792D01*
X155773Y212761D01*
X156140Y212720D01*
X156506Y212670D01*
X156870Y212612D01*
X157233Y212544D01*
X157594Y212468D01*
X157953Y212382D01*
X158309Y212288D01*
X158664Y212186D01*
X159016Y212074D01*
X159364Y211954D01*
X159710Y211826D01*
X160053Y211689D01*
X160392Y211543D01*
X160727Y211390D01*
X161059Y211228D01*
X161387Y211058D01*
X161710Y210880D01*
X162029Y210694D01*
X162343Y210501D01*
X162652Y210299D01*
X162956Y210091D01*
X163255Y209875D01*
X163549Y209651D01*
X163837Y209421D01*
X164119Y209183D01*
X164396Y208939D01*
X164666Y208688D01*
X164930Y208430D01*
X165188Y208166D01*
X165439Y207896D01*
X165683Y207619D01*
X165921Y207337D01*
X166151Y207049D01*
X166375Y206755D01*
X166591Y206456D01*
X166799Y206152D01*
X167001Y205843D01*
X167194Y205529D01*
X167380Y205210D01*
X167558Y204887D01*
X167728Y204559D01*
X167890Y204227D01*
X168043Y203892D01*
X168189Y203553D01*
X168326Y203210D01*
X168454Y202864D01*
X168574Y202516D01*
X168686Y202164D01*
X168788Y201809D01*
X168882Y201453D01*
X168968Y201094D01*
X169044Y200733D01*
X169112Y200370D01*
X169170Y200006D01*
X169220Y199640D01*
X169261Y199273D01*
X169292Y198906D01*
X169315Y198538D01*
X169328Y198169D01*
X169333Y197800D01*
X169328Y197431D01*
X169315Y197062D01*
X169292Y196694D01*
X169261Y196327D01*
X169220Y195960D01*
X169170Y195594D01*
X169112Y195230D01*
X169044Y194867D01*
X168968Y194506D01*
X168882Y194147D01*
X168788Y193791D01*
X168686Y193436D01*
X168574Y193084D01*
X168454Y192736D01*
X168326Y192390D01*
X168189Y192047D01*
X168043Y191708D01*
X167890Y191373D01*
X167728Y191041D01*
X167558Y190713D01*
X167380Y190390D01*
X167194Y190071D01*
X167001Y189757D01*
X166799Y189448D01*
X166591Y189144D01*
X166375Y188845D01*
X166151Y188551D01*
X165921Y188263D01*
X165683Y187981D01*
X165439Y187704D01*
X165188Y187434D01*
X164930Y187170D01*
X164666Y186912D01*
X164396Y186661D01*
X164119Y186417D01*
X163837Y186179D01*
X163549Y185949D01*
X163255Y185725D01*
X162956Y185509D01*
X162652Y185301D01*
X162343Y185099D01*
X162029Y184906D01*
X161710Y184720D01*
X161387Y184542D01*
X161059Y184372D01*
X160727Y184210D01*
X160392Y184057D01*
X160053Y183911D01*
X159710Y183774D01*
X159364Y183646D01*
X159016Y183526D01*
X158664Y183414D01*
X158309Y183312D01*
X157953Y183218D01*
X157594Y183132D01*
X157233Y183056D01*
X156870Y182988D01*
X156506Y182930D01*
X156140Y182880D01*
X155773Y182839D01*
X155406Y182808D01*
X155038Y182785D01*
X154669Y182772D01*
X154300Y182767D01*
X153931Y182772D01*
X153562Y182785D01*
X153194Y182808D01*
X152827Y182839D01*
X152460Y182880D01*
X152094Y182930D01*
X151730Y182988D01*
X151367Y183056D01*
X151006Y183132D01*
X150647Y183218D01*
X150291Y183312D01*
X149936Y183414D01*
X149584Y183526D01*
X149236Y183646D01*
X148890Y183774D01*
X148547Y183911D01*
X148208Y184057D01*
X147873Y184210D01*
X147541Y184372D01*
X147213Y184542D01*
X146890Y184720D01*
X146571Y184906D01*
X146257Y185099D01*
X145948Y185301D01*
X145644Y185509D01*
X145345Y185725D01*
X145051Y185949D01*
X144763Y186179D01*
X144481Y186417D01*
X144204Y186661D01*
X143934Y186912D01*
X143670Y187170D01*
X143412Y187434D01*
X143161Y187704D01*
X142917Y187981D01*
X142679Y188263D01*
X142449Y188551D01*
X142225Y188845D01*
X142009Y189144D01*
X141801Y189448D01*
X141599Y189757D01*
X141406Y190071D01*
X141220Y190390D01*
X141042Y190713D01*
X140872Y191041D01*
X140710Y191373D01*
X140557Y191708D01*
X140411Y192047D01*
X140274Y192390D01*
X140146Y192736D01*
X140026Y193084D01*
X139914Y193436D01*
X139812Y193791D01*
X139718Y194147D01*
X139632Y194506D01*
X139556Y194867D01*
X139488Y195230D01*
X139430Y195594D01*
X139380Y195960D01*
X139339Y196327D01*
X139308Y196694D01*
X139285Y197062D01*
X139272Y197431D01*
X139267Y197800D01*
X143064Y160800D02*
X143066Y160894D01*
X143072Y160988D01*
X143082Y161082D01*
X143096Y161175D01*
X143114Y161268D01*
X143135Y161360D01*
X143161Y161450D01*
X143190Y161540D01*
X143223Y161628D01*
X143260Y161715D01*
X143300Y161800D01*
X143344Y161884D01*
X143392Y161965D01*
X143442Y162045D01*
X143497Y162122D01*
X143554Y162197D01*
X143614Y162269D01*
X143678Y162339D01*
X143744Y162406D01*
X143813Y162470D01*
X143885Y162531D01*
X143959Y162589D01*
X144036Y162644D01*
X144115Y162696D01*
X144196Y162744D01*
X144279Y162789D01*
X144363Y162830D01*
X144450Y162868D01*
X144538Y162902D01*
X144627Y162932D01*
X144717Y162959D01*
X144809Y162981D01*
X144901Y163000D01*
X144995Y163015D01*
X145088Y163026D01*
X145182Y163033D01*
X145276Y163036D01*
X145371Y163035D01*
X145465Y163030D01*
X145559Y163021D01*
X145652Y163008D01*
X145745Y162991D01*
X145837Y162971D01*
X145928Y162946D01*
X146018Y162918D01*
X146106Y162886D01*
X146194Y162850D01*
X146279Y162810D01*
X146363Y162767D01*
X146445Y162721D01*
X146525Y162671D01*
X146603Y162617D01*
X146678Y162561D01*
X146751Y162501D01*
X146822Y162438D01*
X146889Y162373D01*
X146954Y162304D01*
X147016Y162233D01*
X147075Y162160D01*
X147131Y162084D01*
X147183Y162005D01*
X147232Y161925D01*
X147278Y161842D01*
X147320Y161758D01*
X147359Y161672D01*
X147394Y161584D01*
X147425Y161495D01*
X147453Y161405D01*
X147476Y161314D01*
X147496Y161222D01*
X147512Y161129D01*
X147524Y161035D01*
X147532Y160941D01*
X147536Y160847D01*
X147536Y160753D01*
X147532Y160659D01*
X147524Y160565D01*
X147512Y160471D01*
X147496Y160378D01*
X147476Y160286D01*
X147453Y160195D01*
X147425Y160105D01*
X147394Y160016D01*
X147359Y159928D01*
X147320Y159842D01*
X147278Y159758D01*
X147232Y159675D01*
X147183Y159595D01*
X147131Y159516D01*
X147075Y159440D01*
X147016Y159367D01*
X146954Y159296D01*
X146889Y159227D01*
X146822Y159162D01*
X146751Y159099D01*
X146678Y159039D01*
X146603Y158983D01*
X146525Y158929D01*
X146445Y158879D01*
X146363Y158833D01*
X146279Y158790D01*
X146194Y158750D01*
X146106Y158714D01*
X146018Y158682D01*
X145928Y158654D01*
X145837Y158629D01*
X145745Y158609D01*
X145652Y158592D01*
X145559Y158579D01*
X145465Y158570D01*
X145371Y158565D01*
X145276Y158564D01*
X145182Y158567D01*
X145088Y158574D01*
X144995Y158585D01*
X144901Y158600D01*
X144809Y158619D01*
X144717Y158641D01*
X144627Y158668D01*
X144538Y158698D01*
X144450Y158732D01*
X144363Y158770D01*
X144279Y158811D01*
X144196Y158856D01*
X144115Y158904D01*
X144036Y158956D01*
X143959Y159011D01*
X143885Y159069D01*
X143813Y159130D01*
X143744Y159194D01*
X143678Y159261D01*
X143614Y159331D01*
X143554Y159403D01*
X143497Y159478D01*
X143442Y159555D01*
X143392Y159635D01*
X143344Y159716D01*
X143300Y159800D01*
X143260Y159885D01*
X143223Y159972D01*
X143190Y160060D01*
X143161Y160150D01*
X143135Y160240D01*
X143114Y160332D01*
X143096Y160425D01*
X143082Y160518D01*
X143072Y160612D01*
X143066Y160706D01*
X143064Y160800D01*
D12*
X78054Y204799D02*
X74808Y204799D01*
X78054Y204800D02*
X78167Y204798D01*
X78280Y204792D01*
X78393Y204782D01*
X78506Y204768D01*
X78618Y204751D01*
X78729Y204729D01*
X78839Y204704D01*
X78949Y204674D01*
X79057Y204641D01*
X79164Y204604D01*
X79270Y204564D01*
X79374Y204519D01*
X79477Y204471D01*
X79578Y204420D01*
X79677Y204365D01*
X79774Y204307D01*
X79869Y204245D01*
X79962Y204180D01*
X80052Y204112D01*
X80140Y204041D01*
X80226Y203966D01*
X80309Y203889D01*
X80389Y203809D01*
X80466Y203726D01*
X80541Y203640D01*
X80612Y203552D01*
X80680Y203462D01*
X80745Y203369D01*
X80807Y203274D01*
X80865Y203177D01*
X80920Y203078D01*
X80971Y202977D01*
X81019Y202874D01*
X81064Y202770D01*
X81104Y202664D01*
X81141Y202557D01*
X81174Y202449D01*
X81204Y202339D01*
X81229Y202229D01*
X81251Y202118D01*
X81268Y202006D01*
X81282Y201893D01*
X81292Y201780D01*
X81298Y201667D01*
X81300Y201554D01*
X81298Y201441D01*
X81292Y201328D01*
X81282Y201215D01*
X81268Y201102D01*
X81251Y200990D01*
X81229Y200879D01*
X81204Y200769D01*
X81174Y200659D01*
X81141Y200551D01*
X81104Y200444D01*
X81064Y200338D01*
X81019Y200234D01*
X80971Y200131D01*
X80920Y200030D01*
X80865Y199931D01*
X80807Y199834D01*
X80745Y199739D01*
X80680Y199646D01*
X80612Y199556D01*
X80541Y199468D01*
X80466Y199382D01*
X80389Y199299D01*
X80309Y199219D01*
X80226Y199142D01*
X80140Y199067D01*
X80052Y198996D01*
X79962Y198928D01*
X79869Y198863D01*
X79774Y198801D01*
X79677Y198743D01*
X79578Y198688D01*
X79477Y198637D01*
X79374Y198589D01*
X79270Y198544D01*
X79164Y198504D01*
X79057Y198467D01*
X78949Y198434D01*
X78839Y198404D01*
X78729Y198379D01*
X78618Y198357D01*
X78506Y198340D01*
X78393Y198326D01*
X78280Y198316D01*
X78167Y198310D01*
X78054Y198308D01*
X74808Y198308D01*
X74808Y209992D01*
X78054Y209992D01*
X78155Y209990D01*
X78255Y209984D01*
X78355Y209974D01*
X78455Y209961D01*
X78554Y209943D01*
X78653Y209922D01*
X78750Y209897D01*
X78847Y209868D01*
X78942Y209835D01*
X79036Y209799D01*
X79128Y209759D01*
X79219Y209716D01*
X79308Y209669D01*
X79395Y209619D01*
X79481Y209565D01*
X79564Y209508D01*
X79644Y209448D01*
X79723Y209385D01*
X79799Y209318D01*
X79872Y209249D01*
X79942Y209177D01*
X80010Y209103D01*
X80075Y209026D01*
X80136Y208946D01*
X80195Y208864D01*
X80250Y208780D01*
X80302Y208694D01*
X80351Y208606D01*
X80396Y208516D01*
X80438Y208424D01*
X80476Y208331D01*
X80510Y208236D01*
X80541Y208141D01*
X80568Y208044D01*
X80591Y207946D01*
X80611Y207847D01*
X80626Y207747D01*
X80638Y207647D01*
X80646Y207547D01*
X80650Y207446D01*
X80650Y207346D01*
X80646Y207245D01*
X80638Y207145D01*
X80626Y207045D01*
X80611Y206945D01*
X80591Y206846D01*
X80568Y206748D01*
X80541Y206651D01*
X80510Y206556D01*
X80476Y206461D01*
X80438Y206368D01*
X80396Y206276D01*
X80351Y206186D01*
X80302Y206098D01*
X80250Y206012D01*
X80195Y205928D01*
X80136Y205846D01*
X80075Y205766D01*
X80010Y205689D01*
X79942Y205615D01*
X79872Y205543D01*
X79799Y205474D01*
X79723Y205407D01*
X79644Y205344D01*
X79564Y205284D01*
X79481Y205227D01*
X79395Y205173D01*
X79308Y205123D01*
X79219Y205076D01*
X79128Y205033D01*
X79036Y204993D01*
X78942Y204957D01*
X78847Y204924D01*
X78750Y204895D01*
X78653Y204870D01*
X78554Y204849D01*
X78455Y204831D01*
X78355Y204818D01*
X78255Y204808D01*
X78155Y204802D01*
X78054Y204800D01*
X86182Y209992D02*
X86182Y198308D01*
X90076Y203501D02*
X86182Y209992D01*
X90076Y203501D02*
X93971Y209992D01*
X93971Y198308D01*
X99954Y198308D02*
X99954Y209992D01*
X103200Y209992D01*
X103313Y209990D01*
X103426Y209984D01*
X103539Y209974D01*
X103652Y209960D01*
X103764Y209943D01*
X103875Y209921D01*
X103985Y209896D01*
X104095Y209866D01*
X104203Y209833D01*
X104310Y209796D01*
X104416Y209756D01*
X104520Y209711D01*
X104623Y209663D01*
X104724Y209612D01*
X104823Y209557D01*
X104920Y209499D01*
X105015Y209437D01*
X105108Y209372D01*
X105198Y209304D01*
X105286Y209233D01*
X105372Y209158D01*
X105455Y209081D01*
X105535Y209001D01*
X105612Y208918D01*
X105687Y208832D01*
X105758Y208744D01*
X105826Y208654D01*
X105891Y208561D01*
X105953Y208466D01*
X106011Y208369D01*
X106066Y208270D01*
X106117Y208169D01*
X106165Y208066D01*
X106210Y207962D01*
X106250Y207856D01*
X106287Y207749D01*
X106320Y207641D01*
X106350Y207531D01*
X106375Y207421D01*
X106397Y207310D01*
X106414Y207198D01*
X106428Y207085D01*
X106438Y206972D01*
X106444Y206859D01*
X106446Y206746D01*
X106444Y206633D01*
X106438Y206520D01*
X106428Y206407D01*
X106414Y206294D01*
X106397Y206182D01*
X106375Y206071D01*
X106350Y205961D01*
X106320Y205851D01*
X106287Y205743D01*
X106250Y205636D01*
X106210Y205530D01*
X106165Y205426D01*
X106117Y205323D01*
X106066Y205222D01*
X106011Y205123D01*
X105953Y205026D01*
X105891Y204931D01*
X105826Y204838D01*
X105758Y204748D01*
X105687Y204660D01*
X105612Y204574D01*
X105535Y204491D01*
X105455Y204411D01*
X105372Y204334D01*
X105286Y204259D01*
X105198Y204188D01*
X105108Y204120D01*
X105015Y204055D01*
X104920Y203993D01*
X104823Y203935D01*
X104724Y203880D01*
X104623Y203829D01*
X104520Y203781D01*
X104416Y203736D01*
X104310Y203696D01*
X104203Y203659D01*
X104095Y203626D01*
X103985Y203596D01*
X103875Y203571D01*
X103764Y203549D01*
X103652Y203532D01*
X103539Y203518D01*
X103426Y203508D01*
X103313Y203502D01*
X103200Y203500D01*
X103200Y203501D02*
X99954Y203501D01*
X110834Y207396D02*
X114079Y209992D01*
X114079Y198308D01*
X110834Y198308D02*
X117325Y198308D01*
D11*
X54300Y113500D02*
X54300Y13500D01*
X184300Y13500D01*
X184300Y113500D01*
X54300Y113500D01*
X138300Y23500D02*
X171300Y23500D01*
X138300Y23500D02*
X138300Y53500D01*
X171300Y53500D01*
X171300Y23500D01*
X139267Y83500D02*
X139272Y83869D01*
X139285Y84238D01*
X139308Y84606D01*
X139339Y84973D01*
X139380Y85340D01*
X139430Y85706D01*
X139488Y86070D01*
X139556Y86433D01*
X139632Y86794D01*
X139718Y87153D01*
X139812Y87509D01*
X139914Y87864D01*
X140026Y88216D01*
X140146Y88564D01*
X140274Y88910D01*
X140411Y89253D01*
X140557Y89592D01*
X140710Y89927D01*
X140872Y90259D01*
X141042Y90587D01*
X141220Y90910D01*
X141406Y91229D01*
X141599Y91543D01*
X141801Y91852D01*
X142009Y92156D01*
X142225Y92455D01*
X142449Y92749D01*
X142679Y93037D01*
X142917Y93319D01*
X143161Y93596D01*
X143412Y93866D01*
X143670Y94130D01*
X143934Y94388D01*
X144204Y94639D01*
X144481Y94883D01*
X144763Y95121D01*
X145051Y95351D01*
X145345Y95575D01*
X145644Y95791D01*
X145948Y95999D01*
X146257Y96201D01*
X146571Y96394D01*
X146890Y96580D01*
X147213Y96758D01*
X147541Y96928D01*
X147873Y97090D01*
X148208Y97243D01*
X148547Y97389D01*
X148890Y97526D01*
X149236Y97654D01*
X149584Y97774D01*
X149936Y97886D01*
X150291Y97988D01*
X150647Y98082D01*
X151006Y98168D01*
X151367Y98244D01*
X151730Y98312D01*
X152094Y98370D01*
X152460Y98420D01*
X152827Y98461D01*
X153194Y98492D01*
X153562Y98515D01*
X153931Y98528D01*
X154300Y98533D01*
X154669Y98528D01*
X155038Y98515D01*
X155406Y98492D01*
X155773Y98461D01*
X156140Y98420D01*
X156506Y98370D01*
X156870Y98312D01*
X157233Y98244D01*
X157594Y98168D01*
X157953Y98082D01*
X158309Y97988D01*
X158664Y97886D01*
X159016Y97774D01*
X159364Y97654D01*
X159710Y97526D01*
X160053Y97389D01*
X160392Y97243D01*
X160727Y97090D01*
X161059Y96928D01*
X161387Y96758D01*
X161710Y96580D01*
X162029Y96394D01*
X162343Y96201D01*
X162652Y95999D01*
X162956Y95791D01*
X163255Y95575D01*
X163549Y95351D01*
X163837Y95121D01*
X164119Y94883D01*
X164396Y94639D01*
X164666Y94388D01*
X164930Y94130D01*
X165188Y93866D01*
X165439Y93596D01*
X165683Y93319D01*
X165921Y93037D01*
X166151Y92749D01*
X166375Y92455D01*
X166591Y92156D01*
X166799Y91852D01*
X167001Y91543D01*
X167194Y91229D01*
X167380Y90910D01*
X167558Y90587D01*
X167728Y90259D01*
X167890Y89927D01*
X168043Y89592D01*
X168189Y89253D01*
X168326Y88910D01*
X168454Y88564D01*
X168574Y88216D01*
X168686Y87864D01*
X168788Y87509D01*
X168882Y87153D01*
X168968Y86794D01*
X169044Y86433D01*
X169112Y86070D01*
X169170Y85706D01*
X169220Y85340D01*
X169261Y84973D01*
X169292Y84606D01*
X169315Y84238D01*
X169328Y83869D01*
X169333Y83500D01*
X169328Y83131D01*
X169315Y82762D01*
X169292Y82394D01*
X169261Y82027D01*
X169220Y81660D01*
X169170Y81294D01*
X169112Y80930D01*
X169044Y80567D01*
X168968Y80206D01*
X168882Y79847D01*
X168788Y79491D01*
X168686Y79136D01*
X168574Y78784D01*
X168454Y78436D01*
X168326Y78090D01*
X168189Y77747D01*
X168043Y77408D01*
X167890Y77073D01*
X167728Y76741D01*
X167558Y76413D01*
X167380Y76090D01*
X167194Y75771D01*
X167001Y75457D01*
X166799Y75148D01*
X166591Y74844D01*
X166375Y74545D01*
X166151Y74251D01*
X165921Y73963D01*
X165683Y73681D01*
X165439Y73404D01*
X165188Y73134D01*
X164930Y72870D01*
X164666Y72612D01*
X164396Y72361D01*
X164119Y72117D01*
X163837Y71879D01*
X163549Y71649D01*
X163255Y71425D01*
X162956Y71209D01*
X162652Y71001D01*
X162343Y70799D01*
X162029Y70606D01*
X161710Y70420D01*
X161387Y70242D01*
X161059Y70072D01*
X160727Y69910D01*
X160392Y69757D01*
X160053Y69611D01*
X159710Y69474D01*
X159364Y69346D01*
X159016Y69226D01*
X158664Y69114D01*
X158309Y69012D01*
X157953Y68918D01*
X157594Y68832D01*
X157233Y68756D01*
X156870Y68688D01*
X156506Y68630D01*
X156140Y68580D01*
X155773Y68539D01*
X155406Y68508D01*
X155038Y68485D01*
X154669Y68472D01*
X154300Y68467D01*
X153931Y68472D01*
X153562Y68485D01*
X153194Y68508D01*
X152827Y68539D01*
X152460Y68580D01*
X152094Y68630D01*
X151730Y68688D01*
X151367Y68756D01*
X151006Y68832D01*
X150647Y68918D01*
X150291Y69012D01*
X149936Y69114D01*
X149584Y69226D01*
X149236Y69346D01*
X148890Y69474D01*
X148547Y69611D01*
X148208Y69757D01*
X147873Y69910D01*
X147541Y70072D01*
X147213Y70242D01*
X146890Y70420D01*
X146571Y70606D01*
X146257Y70799D01*
X145948Y71001D01*
X145644Y71209D01*
X145345Y71425D01*
X145051Y71649D01*
X144763Y71879D01*
X144481Y72117D01*
X144204Y72361D01*
X143934Y72612D01*
X143670Y72870D01*
X143412Y73134D01*
X143161Y73404D01*
X142917Y73681D01*
X142679Y73963D01*
X142449Y74251D01*
X142225Y74545D01*
X142009Y74844D01*
X141801Y75148D01*
X141599Y75457D01*
X141406Y75771D01*
X141220Y76090D01*
X141042Y76413D01*
X140872Y76741D01*
X140710Y77073D01*
X140557Y77408D01*
X140411Y77747D01*
X140274Y78090D01*
X140146Y78436D01*
X140026Y78784D01*
X139914Y79136D01*
X139812Y79491D01*
X139718Y79847D01*
X139632Y80206D01*
X139556Y80567D01*
X139488Y80930D01*
X139430Y81294D01*
X139380Y81660D01*
X139339Y82027D01*
X139308Y82394D01*
X139285Y82762D01*
X139272Y83131D01*
X139267Y83500D01*
X143064Y46500D02*
X143066Y46594D01*
X143072Y46688D01*
X143082Y46782D01*
X143096Y46875D01*
X143114Y46968D01*
X143135Y47060D01*
X143161Y47150D01*
X143190Y47240D01*
X143223Y47328D01*
X143260Y47415D01*
X143300Y47500D01*
X143344Y47584D01*
X143392Y47665D01*
X143442Y47745D01*
X143497Y47822D01*
X143554Y47897D01*
X143614Y47969D01*
X143678Y48039D01*
X143744Y48106D01*
X143813Y48170D01*
X143885Y48231D01*
X143959Y48289D01*
X144036Y48344D01*
X144115Y48396D01*
X144196Y48444D01*
X144279Y48489D01*
X144363Y48530D01*
X144450Y48568D01*
X144538Y48602D01*
X144627Y48632D01*
X144717Y48659D01*
X144809Y48681D01*
X144901Y48700D01*
X144995Y48715D01*
X145088Y48726D01*
X145182Y48733D01*
X145276Y48736D01*
X145371Y48735D01*
X145465Y48730D01*
X145559Y48721D01*
X145652Y48708D01*
X145745Y48691D01*
X145837Y48671D01*
X145928Y48646D01*
X146018Y48618D01*
X146106Y48586D01*
X146194Y48550D01*
X146279Y48510D01*
X146363Y48467D01*
X146445Y48421D01*
X146525Y48371D01*
X146603Y48317D01*
X146678Y48261D01*
X146751Y48201D01*
X146822Y48138D01*
X146889Y48073D01*
X146954Y48004D01*
X147016Y47933D01*
X147075Y47860D01*
X147131Y47784D01*
X147183Y47705D01*
X147232Y47625D01*
X147278Y47542D01*
X147320Y47458D01*
X147359Y47372D01*
X147394Y47284D01*
X147425Y47195D01*
X147453Y47105D01*
X147476Y47014D01*
X147496Y46922D01*
X147512Y46829D01*
X147524Y46735D01*
X147532Y46641D01*
X147536Y46547D01*
X147536Y46453D01*
X147532Y46359D01*
X147524Y46265D01*
X147512Y46171D01*
X147496Y46078D01*
X147476Y45986D01*
X147453Y45895D01*
X147425Y45805D01*
X147394Y45716D01*
X147359Y45628D01*
X147320Y45542D01*
X147278Y45458D01*
X147232Y45375D01*
X147183Y45295D01*
X147131Y45216D01*
X147075Y45140D01*
X147016Y45067D01*
X146954Y44996D01*
X146889Y44927D01*
X146822Y44862D01*
X146751Y44799D01*
X146678Y44739D01*
X146603Y44683D01*
X146525Y44629D01*
X146445Y44579D01*
X146363Y44533D01*
X146279Y44490D01*
X146194Y44450D01*
X146106Y44414D01*
X146018Y44382D01*
X145928Y44354D01*
X145837Y44329D01*
X145745Y44309D01*
X145652Y44292D01*
X145559Y44279D01*
X145465Y44270D01*
X145371Y44265D01*
X145276Y44264D01*
X145182Y44267D01*
X145088Y44274D01*
X144995Y44285D01*
X144901Y44300D01*
X144809Y44319D01*
X144717Y44341D01*
X144627Y44368D01*
X144538Y44398D01*
X144450Y44432D01*
X144363Y44470D01*
X144279Y44511D01*
X144196Y44556D01*
X144115Y44604D01*
X144036Y44656D01*
X143959Y44711D01*
X143885Y44769D01*
X143813Y44830D01*
X143744Y44894D01*
X143678Y44961D01*
X143614Y45031D01*
X143554Y45103D01*
X143497Y45178D01*
X143442Y45255D01*
X143392Y45335D01*
X143344Y45416D01*
X143300Y45500D01*
X143260Y45585D01*
X143223Y45672D01*
X143190Y45760D01*
X143161Y45850D01*
X143135Y45940D01*
X143114Y46032D01*
X143096Y46125D01*
X143082Y46218D01*
X143072Y46312D01*
X143066Y46406D01*
X143064Y46500D01*
D12*
X78054Y90499D02*
X74808Y90499D01*
X78054Y90500D02*
X78167Y90498D01*
X78280Y90492D01*
X78393Y90482D01*
X78506Y90468D01*
X78618Y90451D01*
X78729Y90429D01*
X78839Y90404D01*
X78949Y90374D01*
X79057Y90341D01*
X79164Y90304D01*
X79270Y90264D01*
X79374Y90219D01*
X79477Y90171D01*
X79578Y90120D01*
X79677Y90065D01*
X79774Y90007D01*
X79869Y89945D01*
X79962Y89880D01*
X80052Y89812D01*
X80140Y89741D01*
X80226Y89666D01*
X80309Y89589D01*
X80389Y89509D01*
X80466Y89426D01*
X80541Y89340D01*
X80612Y89252D01*
X80680Y89162D01*
X80745Y89069D01*
X80807Y88974D01*
X80865Y88877D01*
X80920Y88778D01*
X80971Y88677D01*
X81019Y88574D01*
X81064Y88470D01*
X81104Y88364D01*
X81141Y88257D01*
X81174Y88149D01*
X81204Y88039D01*
X81229Y87929D01*
X81251Y87818D01*
X81268Y87706D01*
X81282Y87593D01*
X81292Y87480D01*
X81298Y87367D01*
X81300Y87254D01*
X81298Y87141D01*
X81292Y87028D01*
X81282Y86915D01*
X81268Y86802D01*
X81251Y86690D01*
X81229Y86579D01*
X81204Y86469D01*
X81174Y86359D01*
X81141Y86251D01*
X81104Y86144D01*
X81064Y86038D01*
X81019Y85934D01*
X80971Y85831D01*
X80920Y85730D01*
X80865Y85631D01*
X80807Y85534D01*
X80745Y85439D01*
X80680Y85346D01*
X80612Y85256D01*
X80541Y85168D01*
X80466Y85082D01*
X80389Y84999D01*
X80309Y84919D01*
X80226Y84842D01*
X80140Y84767D01*
X80052Y84696D01*
X79962Y84628D01*
X79869Y84563D01*
X79774Y84501D01*
X79677Y84443D01*
X79578Y84388D01*
X79477Y84337D01*
X79374Y84289D01*
X79270Y84244D01*
X79164Y84204D01*
X79057Y84167D01*
X78949Y84134D01*
X78839Y84104D01*
X78729Y84079D01*
X78618Y84057D01*
X78506Y84040D01*
X78393Y84026D01*
X78280Y84016D01*
X78167Y84010D01*
X78054Y84008D01*
X74808Y84008D01*
X74808Y95692D01*
X78054Y95692D01*
X78155Y95690D01*
X78255Y95684D01*
X78355Y95674D01*
X78455Y95661D01*
X78554Y95643D01*
X78653Y95622D01*
X78750Y95597D01*
X78847Y95568D01*
X78942Y95535D01*
X79036Y95499D01*
X79128Y95459D01*
X79219Y95416D01*
X79308Y95369D01*
X79395Y95319D01*
X79481Y95265D01*
X79564Y95208D01*
X79644Y95148D01*
X79723Y95085D01*
X79799Y95018D01*
X79872Y94949D01*
X79942Y94877D01*
X80010Y94803D01*
X80075Y94726D01*
X80136Y94646D01*
X80195Y94564D01*
X80250Y94480D01*
X80302Y94394D01*
X80351Y94306D01*
X80396Y94216D01*
X80438Y94124D01*
X80476Y94031D01*
X80510Y93936D01*
X80541Y93841D01*
X80568Y93744D01*
X80591Y93646D01*
X80611Y93547D01*
X80626Y93447D01*
X80638Y93347D01*
X80646Y93247D01*
X80650Y93146D01*
X80650Y93046D01*
X80646Y92945D01*
X80638Y92845D01*
X80626Y92745D01*
X80611Y92645D01*
X80591Y92546D01*
X80568Y92448D01*
X80541Y92351D01*
X80510Y92256D01*
X80476Y92161D01*
X80438Y92068D01*
X80396Y91976D01*
X80351Y91886D01*
X80302Y91798D01*
X80250Y91712D01*
X80195Y91628D01*
X80136Y91546D01*
X80075Y91466D01*
X80010Y91389D01*
X79942Y91315D01*
X79872Y91243D01*
X79799Y91174D01*
X79723Y91107D01*
X79644Y91044D01*
X79564Y90984D01*
X79481Y90927D01*
X79395Y90873D01*
X79308Y90823D01*
X79219Y90776D01*
X79128Y90733D01*
X79036Y90693D01*
X78942Y90657D01*
X78847Y90624D01*
X78750Y90595D01*
X78653Y90570D01*
X78554Y90549D01*
X78455Y90531D01*
X78355Y90518D01*
X78255Y90508D01*
X78155Y90502D01*
X78054Y90500D01*
X86182Y95692D02*
X86182Y84008D01*
X90076Y89201D02*
X86182Y95692D01*
X90076Y89201D02*
X93971Y95692D01*
X93971Y84008D01*
X99954Y84008D02*
X99954Y95692D01*
X103200Y95692D01*
X103313Y95690D01*
X103426Y95684D01*
X103539Y95674D01*
X103652Y95660D01*
X103764Y95643D01*
X103875Y95621D01*
X103985Y95596D01*
X104095Y95566D01*
X104203Y95533D01*
X104310Y95496D01*
X104416Y95456D01*
X104520Y95411D01*
X104623Y95363D01*
X104724Y95312D01*
X104823Y95257D01*
X104920Y95199D01*
X105015Y95137D01*
X105108Y95072D01*
X105198Y95004D01*
X105286Y94933D01*
X105372Y94858D01*
X105455Y94781D01*
X105535Y94701D01*
X105612Y94618D01*
X105687Y94532D01*
X105758Y94444D01*
X105826Y94354D01*
X105891Y94261D01*
X105953Y94166D01*
X106011Y94069D01*
X106066Y93970D01*
X106117Y93869D01*
X106165Y93766D01*
X106210Y93662D01*
X106250Y93556D01*
X106287Y93449D01*
X106320Y93341D01*
X106350Y93231D01*
X106375Y93121D01*
X106397Y93010D01*
X106414Y92898D01*
X106428Y92785D01*
X106438Y92672D01*
X106444Y92559D01*
X106446Y92446D01*
X106444Y92333D01*
X106438Y92220D01*
X106428Y92107D01*
X106414Y91994D01*
X106397Y91882D01*
X106375Y91771D01*
X106350Y91661D01*
X106320Y91551D01*
X106287Y91443D01*
X106250Y91336D01*
X106210Y91230D01*
X106165Y91126D01*
X106117Y91023D01*
X106066Y90922D01*
X106011Y90823D01*
X105953Y90726D01*
X105891Y90631D01*
X105826Y90538D01*
X105758Y90448D01*
X105687Y90360D01*
X105612Y90274D01*
X105535Y90191D01*
X105455Y90111D01*
X105372Y90034D01*
X105286Y89959D01*
X105198Y89888D01*
X105108Y89820D01*
X105015Y89755D01*
X104920Y89693D01*
X104823Y89635D01*
X104724Y89580D01*
X104623Y89529D01*
X104520Y89481D01*
X104416Y89436D01*
X104310Y89396D01*
X104203Y89359D01*
X104095Y89326D01*
X103985Y89296D01*
X103875Y89271D01*
X103764Y89249D01*
X103652Y89232D01*
X103539Y89218D01*
X103426Y89208D01*
X103313Y89202D01*
X103200Y89200D01*
X103200Y89201D02*
X99954Y89201D01*
X114404Y95692D02*
X114511Y95690D01*
X114617Y95684D01*
X114723Y95674D01*
X114829Y95661D01*
X114935Y95643D01*
X115039Y95622D01*
X115143Y95597D01*
X115246Y95568D01*
X115347Y95536D01*
X115447Y95499D01*
X115546Y95459D01*
X115644Y95416D01*
X115740Y95369D01*
X115834Y95318D01*
X115926Y95264D01*
X116016Y95207D01*
X116104Y95147D01*
X116189Y95083D01*
X116272Y95016D01*
X116353Y94946D01*
X116431Y94874D01*
X116507Y94798D01*
X116579Y94720D01*
X116649Y94639D01*
X116716Y94556D01*
X116780Y94471D01*
X116840Y94383D01*
X116897Y94293D01*
X116951Y94201D01*
X117002Y94107D01*
X117049Y94011D01*
X117092Y93913D01*
X117132Y93814D01*
X117169Y93714D01*
X117201Y93613D01*
X117230Y93510D01*
X117255Y93406D01*
X117276Y93302D01*
X117294Y93196D01*
X117307Y93090D01*
X117317Y92984D01*
X117323Y92878D01*
X117325Y92771D01*
X114404Y95692D02*
X114283Y95690D01*
X114162Y95684D01*
X114042Y95674D01*
X113921Y95661D01*
X113802Y95643D01*
X113682Y95622D01*
X113564Y95597D01*
X113447Y95568D01*
X113330Y95535D01*
X113215Y95499D01*
X113101Y95458D01*
X112988Y95415D01*
X112876Y95367D01*
X112767Y95316D01*
X112659Y95261D01*
X112552Y95203D01*
X112448Y95142D01*
X112346Y95077D01*
X112246Y95009D01*
X112148Y94938D01*
X112052Y94864D01*
X111959Y94787D01*
X111869Y94706D01*
X111781Y94623D01*
X111696Y94537D01*
X111613Y94448D01*
X111534Y94357D01*
X111457Y94263D01*
X111384Y94167D01*
X111314Y94069D01*
X111247Y93968D01*
X111183Y93865D01*
X111123Y93760D01*
X111066Y93653D01*
X111012Y93545D01*
X110962Y93435D01*
X110916Y93323D01*
X110873Y93210D01*
X110834Y93095D01*
X116351Y90499D02*
X116430Y90576D01*
X116506Y90657D01*
X116579Y90740D01*
X116649Y90825D01*
X116716Y90913D01*
X116780Y91003D01*
X116840Y91095D01*
X116897Y91190D01*
X116951Y91286D01*
X117002Y91384D01*
X117049Y91484D01*
X117093Y91586D01*
X117133Y91689D01*
X117169Y91793D01*
X117201Y91899D01*
X117230Y92005D01*
X117255Y92113D01*
X117277Y92221D01*
X117294Y92331D01*
X117308Y92440D01*
X117317Y92550D01*
X117323Y92661D01*
X117325Y92771D01*
X116351Y90499D02*
X110834Y84008D01*
X117325Y84008D01*
D11*
X54300Y242100D02*
X54300Y342100D01*
X54300Y242100D02*
X184300Y242100D01*
X184300Y342100D01*
X54300Y342100D01*
X138300Y252100D02*
X171300Y252100D01*
X138300Y252100D02*
X138300Y282100D01*
X171300Y282100D01*
X171300Y252100D01*
X139267Y312100D02*
X139272Y312469D01*
X139285Y312838D01*
X139308Y313206D01*
X139339Y313573D01*
X139380Y313940D01*
X139430Y314306D01*
X139488Y314670D01*
X139556Y315033D01*
X139632Y315394D01*
X139718Y315753D01*
X139812Y316109D01*
X139914Y316464D01*
X140026Y316816D01*
X140146Y317164D01*
X140274Y317510D01*
X140411Y317853D01*
X140557Y318192D01*
X140710Y318527D01*
X140872Y318859D01*
X141042Y319187D01*
X141220Y319510D01*
X141406Y319829D01*
X141599Y320143D01*
X141801Y320452D01*
X142009Y320756D01*
X142225Y321055D01*
X142449Y321349D01*
X142679Y321637D01*
X142917Y321919D01*
X143161Y322196D01*
X143412Y322466D01*
X143670Y322730D01*
X143934Y322988D01*
X144204Y323239D01*
X144481Y323483D01*
X144763Y323721D01*
X145051Y323951D01*
X145345Y324175D01*
X145644Y324391D01*
X145948Y324599D01*
X146257Y324801D01*
X146571Y324994D01*
X146890Y325180D01*
X147213Y325358D01*
X147541Y325528D01*
X147873Y325690D01*
X148208Y325843D01*
X148547Y325989D01*
X148890Y326126D01*
X149236Y326254D01*
X149584Y326374D01*
X149936Y326486D01*
X150291Y326588D01*
X150647Y326682D01*
X151006Y326768D01*
X151367Y326844D01*
X151730Y326912D01*
X152094Y326970D01*
X152460Y327020D01*
X152827Y327061D01*
X153194Y327092D01*
X153562Y327115D01*
X153931Y327128D01*
X154300Y327133D01*
X154669Y327128D01*
X155038Y327115D01*
X155406Y327092D01*
X155773Y327061D01*
X156140Y327020D01*
X156506Y326970D01*
X156870Y326912D01*
X157233Y326844D01*
X157594Y326768D01*
X157953Y326682D01*
X158309Y326588D01*
X158664Y326486D01*
X159016Y326374D01*
X159364Y326254D01*
X159710Y326126D01*
X160053Y325989D01*
X160392Y325843D01*
X160727Y325690D01*
X161059Y325528D01*
X161387Y325358D01*
X161710Y325180D01*
X162029Y324994D01*
X162343Y324801D01*
X162652Y324599D01*
X162956Y324391D01*
X163255Y324175D01*
X163549Y323951D01*
X163837Y323721D01*
X164119Y323483D01*
X164396Y323239D01*
X164666Y322988D01*
X164930Y322730D01*
X165188Y322466D01*
X165439Y322196D01*
X165683Y321919D01*
X165921Y321637D01*
X166151Y321349D01*
X166375Y321055D01*
X166591Y320756D01*
X166799Y320452D01*
X167001Y320143D01*
X167194Y319829D01*
X167380Y319510D01*
X167558Y319187D01*
X167728Y318859D01*
X167890Y318527D01*
X168043Y318192D01*
X168189Y317853D01*
X168326Y317510D01*
X168454Y317164D01*
X168574Y316816D01*
X168686Y316464D01*
X168788Y316109D01*
X168882Y315753D01*
X168968Y315394D01*
X169044Y315033D01*
X169112Y314670D01*
X169170Y314306D01*
X169220Y313940D01*
X169261Y313573D01*
X169292Y313206D01*
X169315Y312838D01*
X169328Y312469D01*
X169333Y312100D01*
X169328Y311731D01*
X169315Y311362D01*
X169292Y310994D01*
X169261Y310627D01*
X169220Y310260D01*
X169170Y309894D01*
X169112Y309530D01*
X169044Y309167D01*
X168968Y308806D01*
X168882Y308447D01*
X168788Y308091D01*
X168686Y307736D01*
X168574Y307384D01*
X168454Y307036D01*
X168326Y306690D01*
X168189Y306347D01*
X168043Y306008D01*
X167890Y305673D01*
X167728Y305341D01*
X167558Y305013D01*
X167380Y304690D01*
X167194Y304371D01*
X167001Y304057D01*
X166799Y303748D01*
X166591Y303444D01*
X166375Y303145D01*
X166151Y302851D01*
X165921Y302563D01*
X165683Y302281D01*
X165439Y302004D01*
X165188Y301734D01*
X164930Y301470D01*
X164666Y301212D01*
X164396Y300961D01*
X164119Y300717D01*
X163837Y300479D01*
X163549Y300249D01*
X163255Y300025D01*
X162956Y299809D01*
X162652Y299601D01*
X162343Y299399D01*
X162029Y299206D01*
X161710Y299020D01*
X161387Y298842D01*
X161059Y298672D01*
X160727Y298510D01*
X160392Y298357D01*
X160053Y298211D01*
X159710Y298074D01*
X159364Y297946D01*
X159016Y297826D01*
X158664Y297714D01*
X158309Y297612D01*
X157953Y297518D01*
X157594Y297432D01*
X157233Y297356D01*
X156870Y297288D01*
X156506Y297230D01*
X156140Y297180D01*
X155773Y297139D01*
X155406Y297108D01*
X155038Y297085D01*
X154669Y297072D01*
X154300Y297067D01*
X153931Y297072D01*
X153562Y297085D01*
X153194Y297108D01*
X152827Y297139D01*
X152460Y297180D01*
X152094Y297230D01*
X151730Y297288D01*
X151367Y297356D01*
X151006Y297432D01*
X150647Y297518D01*
X150291Y297612D01*
X149936Y297714D01*
X149584Y297826D01*
X149236Y297946D01*
X148890Y298074D01*
X148547Y298211D01*
X148208Y298357D01*
X147873Y298510D01*
X147541Y298672D01*
X147213Y298842D01*
X146890Y299020D01*
X146571Y299206D01*
X146257Y299399D01*
X145948Y299601D01*
X145644Y299809D01*
X145345Y300025D01*
X145051Y300249D01*
X144763Y300479D01*
X144481Y300717D01*
X144204Y300961D01*
X143934Y301212D01*
X143670Y301470D01*
X143412Y301734D01*
X143161Y302004D01*
X142917Y302281D01*
X142679Y302563D01*
X142449Y302851D01*
X142225Y303145D01*
X142009Y303444D01*
X141801Y303748D01*
X141599Y304057D01*
X141406Y304371D01*
X141220Y304690D01*
X141042Y305013D01*
X140872Y305341D01*
X140710Y305673D01*
X140557Y306008D01*
X140411Y306347D01*
X140274Y306690D01*
X140146Y307036D01*
X140026Y307384D01*
X139914Y307736D01*
X139812Y308091D01*
X139718Y308447D01*
X139632Y308806D01*
X139556Y309167D01*
X139488Y309530D01*
X139430Y309894D01*
X139380Y310260D01*
X139339Y310627D01*
X139308Y310994D01*
X139285Y311362D01*
X139272Y311731D01*
X139267Y312100D01*
X143064Y275100D02*
X143066Y275194D01*
X143072Y275288D01*
X143082Y275382D01*
X143096Y275475D01*
X143114Y275568D01*
X143135Y275660D01*
X143161Y275750D01*
X143190Y275840D01*
X143223Y275928D01*
X143260Y276015D01*
X143300Y276100D01*
X143344Y276184D01*
X143392Y276265D01*
X143442Y276345D01*
X143497Y276422D01*
X143554Y276497D01*
X143614Y276569D01*
X143678Y276639D01*
X143744Y276706D01*
X143813Y276770D01*
X143885Y276831D01*
X143959Y276889D01*
X144036Y276944D01*
X144115Y276996D01*
X144196Y277044D01*
X144279Y277089D01*
X144363Y277130D01*
X144450Y277168D01*
X144538Y277202D01*
X144627Y277232D01*
X144717Y277259D01*
X144809Y277281D01*
X144901Y277300D01*
X144995Y277315D01*
X145088Y277326D01*
X145182Y277333D01*
X145276Y277336D01*
X145371Y277335D01*
X145465Y277330D01*
X145559Y277321D01*
X145652Y277308D01*
X145745Y277291D01*
X145837Y277271D01*
X145928Y277246D01*
X146018Y277218D01*
X146106Y277186D01*
X146194Y277150D01*
X146279Y277110D01*
X146363Y277067D01*
X146445Y277021D01*
X146525Y276971D01*
X146603Y276917D01*
X146678Y276861D01*
X146751Y276801D01*
X146822Y276738D01*
X146889Y276673D01*
X146954Y276604D01*
X147016Y276533D01*
X147075Y276460D01*
X147131Y276384D01*
X147183Y276305D01*
X147232Y276225D01*
X147278Y276142D01*
X147320Y276058D01*
X147359Y275972D01*
X147394Y275884D01*
X147425Y275795D01*
X147453Y275705D01*
X147476Y275614D01*
X147496Y275522D01*
X147512Y275429D01*
X147524Y275335D01*
X147532Y275241D01*
X147536Y275147D01*
X147536Y275053D01*
X147532Y274959D01*
X147524Y274865D01*
X147512Y274771D01*
X147496Y274678D01*
X147476Y274586D01*
X147453Y274495D01*
X147425Y274405D01*
X147394Y274316D01*
X147359Y274228D01*
X147320Y274142D01*
X147278Y274058D01*
X147232Y273975D01*
X147183Y273895D01*
X147131Y273816D01*
X147075Y273740D01*
X147016Y273667D01*
X146954Y273596D01*
X146889Y273527D01*
X146822Y273462D01*
X146751Y273399D01*
X146678Y273339D01*
X146603Y273283D01*
X146525Y273229D01*
X146445Y273179D01*
X146363Y273133D01*
X146279Y273090D01*
X146194Y273050D01*
X146106Y273014D01*
X146018Y272982D01*
X145928Y272954D01*
X145837Y272929D01*
X145745Y272909D01*
X145652Y272892D01*
X145559Y272879D01*
X145465Y272870D01*
X145371Y272865D01*
X145276Y272864D01*
X145182Y272867D01*
X145088Y272874D01*
X144995Y272885D01*
X144901Y272900D01*
X144809Y272919D01*
X144717Y272941D01*
X144627Y272968D01*
X144538Y272998D01*
X144450Y273032D01*
X144363Y273070D01*
X144279Y273111D01*
X144196Y273156D01*
X144115Y273204D01*
X144036Y273256D01*
X143959Y273311D01*
X143885Y273369D01*
X143813Y273430D01*
X143744Y273494D01*
X143678Y273561D01*
X143614Y273631D01*
X143554Y273703D01*
X143497Y273778D01*
X143442Y273855D01*
X143392Y273935D01*
X143344Y274016D01*
X143300Y274100D01*
X143260Y274185D01*
X143223Y274272D01*
X143190Y274360D01*
X143161Y274450D01*
X143135Y274540D01*
X143114Y274632D01*
X143096Y274725D01*
X143082Y274818D01*
X143072Y274912D01*
X143066Y275006D01*
X143064Y275100D01*
D12*
X78054Y319099D02*
X74808Y319099D01*
X78054Y319100D02*
X78167Y319098D01*
X78280Y319092D01*
X78393Y319082D01*
X78506Y319068D01*
X78618Y319051D01*
X78729Y319029D01*
X78839Y319004D01*
X78949Y318974D01*
X79057Y318941D01*
X79164Y318904D01*
X79270Y318864D01*
X79374Y318819D01*
X79477Y318771D01*
X79578Y318720D01*
X79677Y318665D01*
X79774Y318607D01*
X79869Y318545D01*
X79962Y318480D01*
X80052Y318412D01*
X80140Y318341D01*
X80226Y318266D01*
X80309Y318189D01*
X80389Y318109D01*
X80466Y318026D01*
X80541Y317940D01*
X80612Y317852D01*
X80680Y317762D01*
X80745Y317669D01*
X80807Y317574D01*
X80865Y317477D01*
X80920Y317378D01*
X80971Y317277D01*
X81019Y317174D01*
X81064Y317070D01*
X81104Y316964D01*
X81141Y316857D01*
X81174Y316749D01*
X81204Y316639D01*
X81229Y316529D01*
X81251Y316418D01*
X81268Y316306D01*
X81282Y316193D01*
X81292Y316080D01*
X81298Y315967D01*
X81300Y315854D01*
X81298Y315741D01*
X81292Y315628D01*
X81282Y315515D01*
X81268Y315402D01*
X81251Y315290D01*
X81229Y315179D01*
X81204Y315069D01*
X81174Y314959D01*
X81141Y314851D01*
X81104Y314744D01*
X81064Y314638D01*
X81019Y314534D01*
X80971Y314431D01*
X80920Y314330D01*
X80865Y314231D01*
X80807Y314134D01*
X80745Y314039D01*
X80680Y313946D01*
X80612Y313856D01*
X80541Y313768D01*
X80466Y313682D01*
X80389Y313599D01*
X80309Y313519D01*
X80226Y313442D01*
X80140Y313367D01*
X80052Y313296D01*
X79962Y313228D01*
X79869Y313163D01*
X79774Y313101D01*
X79677Y313043D01*
X79578Y312988D01*
X79477Y312937D01*
X79374Y312889D01*
X79270Y312844D01*
X79164Y312804D01*
X79057Y312767D01*
X78949Y312734D01*
X78839Y312704D01*
X78729Y312679D01*
X78618Y312657D01*
X78506Y312640D01*
X78393Y312626D01*
X78280Y312616D01*
X78167Y312610D01*
X78054Y312608D01*
X74808Y312608D01*
X74808Y324292D01*
X78054Y324292D01*
X78155Y324290D01*
X78255Y324284D01*
X78355Y324274D01*
X78455Y324261D01*
X78554Y324243D01*
X78653Y324222D01*
X78750Y324197D01*
X78847Y324168D01*
X78942Y324135D01*
X79036Y324099D01*
X79128Y324059D01*
X79219Y324016D01*
X79308Y323969D01*
X79395Y323919D01*
X79481Y323865D01*
X79564Y323808D01*
X79644Y323748D01*
X79723Y323685D01*
X79799Y323618D01*
X79872Y323549D01*
X79942Y323477D01*
X80010Y323403D01*
X80075Y323326D01*
X80136Y323246D01*
X80195Y323164D01*
X80250Y323080D01*
X80302Y322994D01*
X80351Y322906D01*
X80396Y322816D01*
X80438Y322724D01*
X80476Y322631D01*
X80510Y322536D01*
X80541Y322441D01*
X80568Y322344D01*
X80591Y322246D01*
X80611Y322147D01*
X80626Y322047D01*
X80638Y321947D01*
X80646Y321847D01*
X80650Y321746D01*
X80650Y321646D01*
X80646Y321545D01*
X80638Y321445D01*
X80626Y321345D01*
X80611Y321245D01*
X80591Y321146D01*
X80568Y321048D01*
X80541Y320951D01*
X80510Y320856D01*
X80476Y320761D01*
X80438Y320668D01*
X80396Y320576D01*
X80351Y320486D01*
X80302Y320398D01*
X80250Y320312D01*
X80195Y320228D01*
X80136Y320146D01*
X80075Y320066D01*
X80010Y319989D01*
X79942Y319915D01*
X79872Y319843D01*
X79799Y319774D01*
X79723Y319707D01*
X79644Y319644D01*
X79564Y319584D01*
X79481Y319527D01*
X79395Y319473D01*
X79308Y319423D01*
X79219Y319376D01*
X79128Y319333D01*
X79036Y319293D01*
X78942Y319257D01*
X78847Y319224D01*
X78750Y319195D01*
X78653Y319170D01*
X78554Y319149D01*
X78455Y319131D01*
X78355Y319118D01*
X78255Y319108D01*
X78155Y319102D01*
X78054Y319100D01*
X86182Y324292D02*
X86182Y312608D01*
X90076Y317801D02*
X86182Y324292D01*
X90076Y317801D02*
X93971Y324292D01*
X93971Y312608D01*
X99954Y312608D02*
X99954Y324292D01*
X103200Y324292D01*
X103313Y324290D01*
X103426Y324284D01*
X103539Y324274D01*
X103652Y324260D01*
X103764Y324243D01*
X103875Y324221D01*
X103985Y324196D01*
X104095Y324166D01*
X104203Y324133D01*
X104310Y324096D01*
X104416Y324056D01*
X104520Y324011D01*
X104623Y323963D01*
X104724Y323912D01*
X104823Y323857D01*
X104920Y323799D01*
X105015Y323737D01*
X105108Y323672D01*
X105198Y323604D01*
X105286Y323533D01*
X105372Y323458D01*
X105455Y323381D01*
X105535Y323301D01*
X105612Y323218D01*
X105687Y323132D01*
X105758Y323044D01*
X105826Y322954D01*
X105891Y322861D01*
X105953Y322766D01*
X106011Y322669D01*
X106066Y322570D01*
X106117Y322469D01*
X106165Y322366D01*
X106210Y322262D01*
X106250Y322156D01*
X106287Y322049D01*
X106320Y321941D01*
X106350Y321831D01*
X106375Y321721D01*
X106397Y321610D01*
X106414Y321498D01*
X106428Y321385D01*
X106438Y321272D01*
X106444Y321159D01*
X106446Y321046D01*
X106444Y320933D01*
X106438Y320820D01*
X106428Y320707D01*
X106414Y320594D01*
X106397Y320482D01*
X106375Y320371D01*
X106350Y320261D01*
X106320Y320151D01*
X106287Y320043D01*
X106250Y319936D01*
X106210Y319830D01*
X106165Y319726D01*
X106117Y319623D01*
X106066Y319522D01*
X106011Y319423D01*
X105953Y319326D01*
X105891Y319231D01*
X105826Y319138D01*
X105758Y319048D01*
X105687Y318960D01*
X105612Y318874D01*
X105535Y318791D01*
X105455Y318711D01*
X105372Y318634D01*
X105286Y318559D01*
X105198Y318488D01*
X105108Y318420D01*
X105015Y318355D01*
X104920Y318293D01*
X104823Y318235D01*
X104724Y318180D01*
X104623Y318129D01*
X104520Y318081D01*
X104416Y318036D01*
X104310Y317996D01*
X104203Y317959D01*
X104095Y317926D01*
X103985Y317896D01*
X103875Y317871D01*
X103764Y317849D01*
X103652Y317832D01*
X103539Y317818D01*
X103426Y317808D01*
X103313Y317802D01*
X103200Y317800D01*
X103200Y317801D02*
X99954Y317801D01*
X110834Y312608D02*
X114079Y312608D01*
X114192Y312610D01*
X114305Y312616D01*
X114418Y312626D01*
X114531Y312640D01*
X114643Y312657D01*
X114754Y312679D01*
X114864Y312704D01*
X114974Y312734D01*
X115082Y312767D01*
X115189Y312804D01*
X115295Y312844D01*
X115399Y312889D01*
X115502Y312937D01*
X115603Y312988D01*
X115702Y313043D01*
X115799Y313101D01*
X115894Y313163D01*
X115987Y313228D01*
X116077Y313296D01*
X116165Y313367D01*
X116251Y313442D01*
X116334Y313519D01*
X116414Y313599D01*
X116491Y313682D01*
X116566Y313768D01*
X116637Y313856D01*
X116705Y313946D01*
X116770Y314039D01*
X116832Y314134D01*
X116890Y314231D01*
X116945Y314330D01*
X116996Y314431D01*
X117044Y314534D01*
X117089Y314638D01*
X117129Y314744D01*
X117166Y314851D01*
X117199Y314959D01*
X117229Y315069D01*
X117254Y315179D01*
X117276Y315290D01*
X117293Y315402D01*
X117307Y315515D01*
X117317Y315628D01*
X117323Y315741D01*
X117325Y315854D01*
X117323Y315967D01*
X117317Y316080D01*
X117307Y316193D01*
X117293Y316306D01*
X117276Y316418D01*
X117254Y316529D01*
X117229Y316639D01*
X117199Y316749D01*
X117166Y316857D01*
X117129Y316964D01*
X117089Y317070D01*
X117044Y317174D01*
X116996Y317277D01*
X116945Y317378D01*
X116890Y317477D01*
X116832Y317574D01*
X116770Y317669D01*
X116705Y317762D01*
X116637Y317852D01*
X116566Y317940D01*
X116491Y318026D01*
X116414Y318109D01*
X116334Y318189D01*
X116251Y318266D01*
X116165Y318341D01*
X116077Y318412D01*
X115987Y318480D01*
X115894Y318545D01*
X115799Y318607D01*
X115702Y318665D01*
X115603Y318720D01*
X115502Y318771D01*
X115399Y318819D01*
X115295Y318864D01*
X115189Y318904D01*
X115082Y318941D01*
X114974Y318974D01*
X114864Y319004D01*
X114754Y319029D01*
X114643Y319051D01*
X114531Y319068D01*
X114418Y319082D01*
X114305Y319092D01*
X114192Y319098D01*
X114079Y319100D01*
X114728Y324292D02*
X110834Y324292D01*
X114728Y324292D02*
X114829Y324290D01*
X114929Y324284D01*
X115029Y324274D01*
X115129Y324261D01*
X115228Y324243D01*
X115327Y324222D01*
X115424Y324197D01*
X115521Y324168D01*
X115616Y324135D01*
X115710Y324099D01*
X115802Y324059D01*
X115893Y324016D01*
X115982Y323969D01*
X116069Y323919D01*
X116155Y323865D01*
X116238Y323808D01*
X116318Y323748D01*
X116397Y323685D01*
X116473Y323618D01*
X116546Y323549D01*
X116616Y323477D01*
X116684Y323403D01*
X116749Y323326D01*
X116810Y323246D01*
X116869Y323164D01*
X116924Y323080D01*
X116976Y322994D01*
X117025Y322906D01*
X117070Y322816D01*
X117112Y322724D01*
X117150Y322631D01*
X117184Y322536D01*
X117215Y322441D01*
X117242Y322344D01*
X117265Y322246D01*
X117285Y322147D01*
X117300Y322047D01*
X117312Y321947D01*
X117320Y321847D01*
X117324Y321746D01*
X117324Y321646D01*
X117320Y321545D01*
X117312Y321445D01*
X117300Y321345D01*
X117285Y321245D01*
X117265Y321146D01*
X117242Y321048D01*
X117215Y320951D01*
X117184Y320856D01*
X117150Y320761D01*
X117112Y320668D01*
X117070Y320576D01*
X117025Y320486D01*
X116976Y320398D01*
X116924Y320312D01*
X116869Y320228D01*
X116810Y320146D01*
X116749Y320066D01*
X116684Y319989D01*
X116616Y319915D01*
X116546Y319843D01*
X116473Y319774D01*
X116397Y319707D01*
X116318Y319644D01*
X116238Y319584D01*
X116155Y319527D01*
X116069Y319473D01*
X115982Y319423D01*
X115893Y319376D01*
X115802Y319333D01*
X115710Y319293D01*
X115616Y319257D01*
X115521Y319224D01*
X115424Y319195D01*
X115327Y319170D01*
X115228Y319149D01*
X115129Y319131D01*
X115029Y319118D01*
X114929Y319108D01*
X114829Y319102D01*
X114728Y319100D01*
X114728Y319099D02*
X112132Y319099D01*
D11*
X192450Y129260D02*
X192450Y94260D01*
X192450Y129260D02*
X277450Y129260D01*
X277450Y94260D01*
X192450Y94260D01*
X249560Y314960D02*
X249560Y326760D01*
X249560Y226960D02*
X192060Y226960D01*
X192060Y326760D01*
X249560Y326760D01*
X249560Y314960D02*
X243840Y314960D01*
X243840Y308610D01*
X249560Y308610D01*
X249560Y245110D02*
X243840Y245110D01*
X243840Y238760D01*
X249560Y238760D01*
X249560Y226960D01*
X249560Y245110D02*
X249560Y308610D01*
D12*
X212852Y267274D02*
X212852Y264677D01*
X212850Y264578D01*
X212844Y264478D01*
X212835Y264379D01*
X212822Y264281D01*
X212805Y264183D01*
X212784Y264085D01*
X212759Y263989D01*
X212731Y263894D01*
X212699Y263800D01*
X212664Y263707D01*
X212625Y263615D01*
X212582Y263525D01*
X212537Y263437D01*
X212487Y263350D01*
X212435Y263266D01*
X212379Y263183D01*
X212321Y263103D01*
X212259Y263025D01*
X212194Y262950D01*
X212126Y262877D01*
X212056Y262807D01*
X211983Y262739D01*
X211908Y262674D01*
X211830Y262612D01*
X211750Y262554D01*
X211667Y262498D01*
X211583Y262446D01*
X211496Y262396D01*
X211408Y262351D01*
X211318Y262308D01*
X211226Y262269D01*
X211133Y262234D01*
X211039Y262202D01*
X210944Y262174D01*
X210848Y262149D01*
X210750Y262128D01*
X210652Y262111D01*
X210554Y262098D01*
X210455Y262089D01*
X210355Y262083D01*
X210256Y262081D01*
X203764Y262081D01*
X203764Y262080D02*
X203665Y262082D01*
X203565Y262088D01*
X203466Y262097D01*
X203368Y262110D01*
X203270Y262128D01*
X203172Y262148D01*
X203076Y262173D01*
X202980Y262201D01*
X202886Y262233D01*
X202793Y262268D01*
X202702Y262307D01*
X202612Y262350D01*
X202523Y262395D01*
X202437Y262445D01*
X202352Y262497D01*
X202270Y262553D01*
X202190Y262612D01*
X202112Y262673D01*
X202036Y262738D01*
X201963Y262806D01*
X201893Y262876D01*
X201825Y262949D01*
X201760Y263025D01*
X201699Y263103D01*
X201640Y263183D01*
X201584Y263265D01*
X201532Y263350D01*
X201483Y263436D01*
X201437Y263525D01*
X201394Y263615D01*
X201355Y263706D01*
X201320Y263799D01*
X201288Y263893D01*
X201260Y263989D01*
X201235Y264085D01*
X201215Y264183D01*
X201197Y264281D01*
X201184Y264379D01*
X201175Y264478D01*
X201169Y264577D01*
X201167Y264677D01*
X201168Y264677D02*
X201168Y267274D01*
X204414Y271639D02*
X209606Y271639D01*
X204414Y271639D02*
X204301Y271641D01*
X204188Y271647D01*
X204075Y271657D01*
X203962Y271671D01*
X203850Y271688D01*
X203739Y271710D01*
X203629Y271735D01*
X203519Y271765D01*
X203411Y271798D01*
X203304Y271835D01*
X203198Y271875D01*
X203094Y271920D01*
X202991Y271968D01*
X202890Y272019D01*
X202791Y272074D01*
X202694Y272132D01*
X202599Y272194D01*
X202506Y272259D01*
X202416Y272327D01*
X202328Y272398D01*
X202242Y272473D01*
X202159Y272550D01*
X202079Y272630D01*
X202002Y272713D01*
X201927Y272799D01*
X201856Y272887D01*
X201788Y272977D01*
X201723Y273070D01*
X201661Y273165D01*
X201603Y273262D01*
X201548Y273361D01*
X201497Y273462D01*
X201449Y273565D01*
X201404Y273669D01*
X201364Y273775D01*
X201327Y273882D01*
X201294Y273990D01*
X201264Y274100D01*
X201239Y274210D01*
X201217Y274321D01*
X201200Y274433D01*
X201186Y274546D01*
X201176Y274659D01*
X201170Y274772D01*
X201168Y274885D01*
X201170Y274998D01*
X201176Y275111D01*
X201186Y275224D01*
X201200Y275337D01*
X201217Y275449D01*
X201239Y275560D01*
X201264Y275670D01*
X201294Y275780D01*
X201327Y275888D01*
X201364Y275995D01*
X201404Y276101D01*
X201449Y276205D01*
X201497Y276308D01*
X201548Y276409D01*
X201603Y276508D01*
X201661Y276605D01*
X201723Y276700D01*
X201788Y276793D01*
X201856Y276883D01*
X201927Y276971D01*
X202002Y277057D01*
X202079Y277140D01*
X202159Y277220D01*
X202242Y277297D01*
X202328Y277372D01*
X202416Y277443D01*
X202506Y277511D01*
X202599Y277576D01*
X202694Y277638D01*
X202791Y277696D01*
X202890Y277751D01*
X202991Y277802D01*
X203094Y277850D01*
X203198Y277895D01*
X203304Y277935D01*
X203411Y277972D01*
X203519Y278005D01*
X203629Y278035D01*
X203739Y278060D01*
X203850Y278082D01*
X203962Y278099D01*
X204075Y278113D01*
X204188Y278123D01*
X204301Y278129D01*
X204414Y278131D01*
X204414Y278130D02*
X209606Y278130D01*
X209606Y278131D02*
X209719Y278129D01*
X209832Y278123D01*
X209945Y278113D01*
X210058Y278099D01*
X210170Y278082D01*
X210281Y278060D01*
X210391Y278035D01*
X210501Y278005D01*
X210609Y277972D01*
X210716Y277935D01*
X210822Y277895D01*
X210926Y277850D01*
X211029Y277802D01*
X211130Y277751D01*
X211229Y277696D01*
X211326Y277638D01*
X211421Y277576D01*
X211514Y277511D01*
X211604Y277443D01*
X211692Y277372D01*
X211778Y277297D01*
X211861Y277220D01*
X211941Y277140D01*
X212018Y277057D01*
X212093Y276971D01*
X212164Y276883D01*
X212232Y276793D01*
X212297Y276700D01*
X212359Y276605D01*
X212417Y276508D01*
X212472Y276409D01*
X212523Y276308D01*
X212571Y276205D01*
X212616Y276101D01*
X212656Y275995D01*
X212693Y275888D01*
X212726Y275780D01*
X212756Y275670D01*
X212781Y275560D01*
X212803Y275449D01*
X212820Y275337D01*
X212834Y275224D01*
X212844Y275111D01*
X212850Y274998D01*
X212852Y274885D01*
X212850Y274772D01*
X212844Y274659D01*
X212834Y274546D01*
X212820Y274433D01*
X212803Y274321D01*
X212781Y274210D01*
X212756Y274100D01*
X212726Y273990D01*
X212693Y273882D01*
X212656Y273775D01*
X212616Y273669D01*
X212571Y273565D01*
X212523Y273462D01*
X212472Y273361D01*
X212417Y273262D01*
X212359Y273165D01*
X212297Y273070D01*
X212232Y272977D01*
X212164Y272887D01*
X212093Y272799D01*
X212018Y272713D01*
X211941Y272630D01*
X211861Y272550D01*
X211778Y272473D01*
X211692Y272398D01*
X211604Y272327D01*
X211514Y272259D01*
X211421Y272194D01*
X211326Y272132D01*
X211229Y272074D01*
X211130Y272019D01*
X211029Y271968D01*
X210926Y271920D01*
X210822Y271875D01*
X210716Y271835D01*
X210609Y271798D01*
X210501Y271765D01*
X210391Y271735D01*
X210281Y271710D01*
X210170Y271688D01*
X210058Y271671D01*
X209945Y271657D01*
X209832Y271647D01*
X209719Y271641D01*
X209606Y271639D01*
X212852Y283450D02*
X201168Y283450D01*
X212852Y289941D01*
X201168Y289941D01*
X209606Y295260D02*
X209493Y295262D01*
X209380Y295268D01*
X209267Y295278D01*
X209154Y295292D01*
X209042Y295309D01*
X208931Y295331D01*
X208821Y295356D01*
X208711Y295386D01*
X208603Y295419D01*
X208496Y295456D01*
X208390Y295496D01*
X208286Y295541D01*
X208183Y295589D01*
X208082Y295640D01*
X207983Y295695D01*
X207886Y295753D01*
X207791Y295815D01*
X207698Y295880D01*
X207608Y295948D01*
X207520Y296019D01*
X207434Y296094D01*
X207351Y296171D01*
X207271Y296251D01*
X207194Y296334D01*
X207119Y296420D01*
X207048Y296508D01*
X206980Y296598D01*
X206915Y296691D01*
X206853Y296786D01*
X206795Y296883D01*
X206740Y296982D01*
X206689Y297083D01*
X206641Y297186D01*
X206596Y297290D01*
X206556Y297396D01*
X206519Y297503D01*
X206486Y297611D01*
X206456Y297721D01*
X206431Y297831D01*
X206409Y297942D01*
X206392Y298054D01*
X206378Y298167D01*
X206368Y298280D01*
X206362Y298393D01*
X206360Y298506D01*
X206362Y298619D01*
X206368Y298732D01*
X206378Y298845D01*
X206392Y298958D01*
X206409Y299070D01*
X206431Y299181D01*
X206456Y299291D01*
X206486Y299401D01*
X206519Y299509D01*
X206556Y299616D01*
X206596Y299722D01*
X206641Y299826D01*
X206689Y299929D01*
X206740Y300030D01*
X206795Y300129D01*
X206853Y300226D01*
X206915Y300321D01*
X206980Y300414D01*
X207048Y300504D01*
X207119Y300592D01*
X207194Y300678D01*
X207271Y300761D01*
X207351Y300841D01*
X207434Y300918D01*
X207520Y300993D01*
X207608Y301064D01*
X207698Y301132D01*
X207791Y301197D01*
X207886Y301259D01*
X207983Y301317D01*
X208082Y301372D01*
X208183Y301423D01*
X208286Y301471D01*
X208390Y301516D01*
X208496Y301556D01*
X208603Y301593D01*
X208711Y301626D01*
X208821Y301656D01*
X208931Y301681D01*
X209042Y301703D01*
X209154Y301720D01*
X209267Y301734D01*
X209380Y301744D01*
X209493Y301750D01*
X209606Y301752D01*
X209719Y301750D01*
X209832Y301744D01*
X209945Y301734D01*
X210058Y301720D01*
X210170Y301703D01*
X210281Y301681D01*
X210391Y301656D01*
X210501Y301626D01*
X210609Y301593D01*
X210716Y301556D01*
X210822Y301516D01*
X210926Y301471D01*
X211029Y301423D01*
X211130Y301372D01*
X211229Y301317D01*
X211326Y301259D01*
X211421Y301197D01*
X211514Y301132D01*
X211604Y301064D01*
X211692Y300993D01*
X211778Y300918D01*
X211861Y300841D01*
X211941Y300761D01*
X212018Y300678D01*
X212093Y300592D01*
X212164Y300504D01*
X212232Y300414D01*
X212297Y300321D01*
X212359Y300226D01*
X212417Y300129D01*
X212472Y300030D01*
X212523Y299929D01*
X212571Y299826D01*
X212616Y299722D01*
X212656Y299616D01*
X212693Y299509D01*
X212726Y299401D01*
X212756Y299291D01*
X212781Y299181D01*
X212803Y299070D01*
X212820Y298958D01*
X212834Y298845D01*
X212844Y298732D01*
X212850Y298619D01*
X212852Y298506D01*
X212850Y298393D01*
X212844Y298280D01*
X212834Y298167D01*
X212820Y298054D01*
X212803Y297942D01*
X212781Y297831D01*
X212756Y297721D01*
X212726Y297611D01*
X212693Y297503D01*
X212656Y297396D01*
X212616Y297290D01*
X212571Y297186D01*
X212523Y297083D01*
X212472Y296982D01*
X212417Y296883D01*
X212359Y296786D01*
X212297Y296691D01*
X212232Y296598D01*
X212164Y296508D01*
X212093Y296420D01*
X212018Y296334D01*
X211941Y296251D01*
X211861Y296171D01*
X211778Y296094D01*
X211692Y296019D01*
X211604Y295948D01*
X211514Y295880D01*
X211421Y295815D01*
X211326Y295753D01*
X211229Y295695D01*
X211130Y295640D01*
X211029Y295589D01*
X210926Y295541D01*
X210822Y295496D01*
X210716Y295456D01*
X210609Y295419D01*
X210501Y295386D01*
X210391Y295356D01*
X210281Y295331D01*
X210170Y295309D01*
X210058Y295292D01*
X209945Y295278D01*
X209832Y295268D01*
X209719Y295262D01*
X209606Y295260D01*
X203764Y295910D02*
X203663Y295912D01*
X203563Y295918D01*
X203463Y295928D01*
X203363Y295941D01*
X203264Y295959D01*
X203165Y295980D01*
X203068Y296005D01*
X202971Y296034D01*
X202876Y296067D01*
X202782Y296103D01*
X202690Y296143D01*
X202599Y296186D01*
X202510Y296233D01*
X202423Y296283D01*
X202337Y296337D01*
X202254Y296394D01*
X202174Y296454D01*
X202095Y296517D01*
X202019Y296584D01*
X201946Y296653D01*
X201876Y296725D01*
X201808Y296799D01*
X201743Y296876D01*
X201682Y296956D01*
X201623Y297038D01*
X201568Y297122D01*
X201516Y297208D01*
X201467Y297296D01*
X201422Y297386D01*
X201380Y297478D01*
X201342Y297571D01*
X201308Y297666D01*
X201277Y297761D01*
X201250Y297858D01*
X201227Y297956D01*
X201207Y298055D01*
X201192Y298155D01*
X201180Y298255D01*
X201172Y298355D01*
X201168Y298456D01*
X201168Y298556D01*
X201172Y298657D01*
X201180Y298757D01*
X201192Y298857D01*
X201207Y298957D01*
X201227Y299056D01*
X201250Y299154D01*
X201277Y299251D01*
X201308Y299346D01*
X201342Y299441D01*
X201380Y299534D01*
X201422Y299626D01*
X201467Y299716D01*
X201516Y299804D01*
X201568Y299890D01*
X201623Y299974D01*
X201682Y300056D01*
X201743Y300136D01*
X201808Y300213D01*
X201876Y300287D01*
X201946Y300359D01*
X202019Y300428D01*
X202095Y300495D01*
X202174Y300558D01*
X202254Y300618D01*
X202337Y300675D01*
X202423Y300729D01*
X202510Y300779D01*
X202599Y300826D01*
X202690Y300869D01*
X202782Y300909D01*
X202876Y300945D01*
X202971Y300978D01*
X203068Y301007D01*
X203165Y301032D01*
X203264Y301053D01*
X203363Y301071D01*
X203463Y301084D01*
X203563Y301094D01*
X203663Y301100D01*
X203764Y301102D01*
X203865Y301100D01*
X203965Y301094D01*
X204065Y301084D01*
X204165Y301071D01*
X204264Y301053D01*
X204363Y301032D01*
X204460Y301007D01*
X204557Y300978D01*
X204652Y300945D01*
X204746Y300909D01*
X204838Y300869D01*
X204929Y300826D01*
X205018Y300779D01*
X205105Y300729D01*
X205191Y300675D01*
X205274Y300618D01*
X205354Y300558D01*
X205433Y300495D01*
X205509Y300428D01*
X205582Y300359D01*
X205652Y300287D01*
X205720Y300213D01*
X205785Y300136D01*
X205846Y300056D01*
X205905Y299974D01*
X205960Y299890D01*
X206012Y299804D01*
X206061Y299716D01*
X206106Y299626D01*
X206148Y299534D01*
X206186Y299441D01*
X206220Y299346D01*
X206251Y299251D01*
X206278Y299154D01*
X206301Y299056D01*
X206321Y298957D01*
X206336Y298857D01*
X206348Y298757D01*
X206356Y298657D01*
X206360Y298556D01*
X206360Y298456D01*
X206356Y298355D01*
X206348Y298255D01*
X206336Y298155D01*
X206321Y298055D01*
X206301Y297956D01*
X206278Y297858D01*
X206251Y297761D01*
X206220Y297666D01*
X206186Y297571D01*
X206148Y297478D01*
X206106Y297386D01*
X206061Y297296D01*
X206012Y297208D01*
X205960Y297122D01*
X205905Y297038D01*
X205846Y296956D01*
X205785Y296876D01*
X205720Y296799D01*
X205652Y296725D01*
X205582Y296653D01*
X205509Y296584D01*
X205433Y296517D01*
X205354Y296454D01*
X205274Y296394D01*
X205191Y296337D01*
X205105Y296283D01*
X205018Y296233D01*
X204929Y296186D01*
X204838Y296143D01*
X204746Y296103D01*
X204652Y296067D01*
X204557Y296034D01*
X204460Y296005D01*
X204363Y295980D01*
X204264Y295959D01*
X204165Y295941D01*
X204065Y295928D01*
X203965Y295918D01*
X203865Y295912D01*
X203764Y295910D01*
D11*
X249560Y213730D02*
X249560Y201930D01*
X249560Y139330D02*
X192060Y139330D01*
X192060Y213730D01*
X249560Y213730D01*
X249560Y201930D02*
X243840Y201930D01*
X243840Y195580D01*
X249560Y195580D01*
X249560Y157480D02*
X243840Y157480D01*
X243840Y151130D01*
X249560Y151130D01*
X249560Y139330D01*
X249560Y157480D02*
X249560Y195580D01*
D12*
X212852Y155514D02*
X212852Y152917D01*
X212850Y152818D01*
X212844Y152718D01*
X212835Y152619D01*
X212822Y152521D01*
X212805Y152423D01*
X212784Y152325D01*
X212759Y152229D01*
X212731Y152134D01*
X212699Y152040D01*
X212664Y151947D01*
X212625Y151855D01*
X212582Y151765D01*
X212537Y151677D01*
X212487Y151590D01*
X212435Y151506D01*
X212379Y151423D01*
X212321Y151343D01*
X212259Y151265D01*
X212194Y151190D01*
X212126Y151117D01*
X212056Y151047D01*
X211983Y150979D01*
X211908Y150914D01*
X211830Y150852D01*
X211750Y150794D01*
X211667Y150738D01*
X211583Y150686D01*
X211496Y150636D01*
X211408Y150591D01*
X211318Y150548D01*
X211226Y150509D01*
X211133Y150474D01*
X211039Y150442D01*
X210944Y150414D01*
X210848Y150389D01*
X210750Y150368D01*
X210652Y150351D01*
X210554Y150338D01*
X210455Y150329D01*
X210355Y150323D01*
X210256Y150321D01*
X203764Y150321D01*
X203764Y150320D02*
X203665Y150322D01*
X203565Y150328D01*
X203466Y150337D01*
X203368Y150350D01*
X203270Y150368D01*
X203172Y150388D01*
X203076Y150413D01*
X202980Y150441D01*
X202886Y150473D01*
X202793Y150508D01*
X202702Y150547D01*
X202612Y150590D01*
X202523Y150635D01*
X202437Y150685D01*
X202352Y150737D01*
X202270Y150793D01*
X202190Y150852D01*
X202112Y150913D01*
X202036Y150978D01*
X201963Y151046D01*
X201893Y151116D01*
X201825Y151189D01*
X201760Y151265D01*
X201699Y151343D01*
X201640Y151423D01*
X201584Y151505D01*
X201532Y151590D01*
X201483Y151676D01*
X201437Y151765D01*
X201394Y151855D01*
X201355Y151946D01*
X201320Y152039D01*
X201288Y152133D01*
X201260Y152229D01*
X201235Y152325D01*
X201215Y152423D01*
X201197Y152521D01*
X201184Y152619D01*
X201175Y152718D01*
X201169Y152817D01*
X201167Y152917D01*
X201168Y152917D02*
X201168Y155514D01*
X204414Y159879D02*
X209606Y159879D01*
X204414Y159879D02*
X204301Y159881D01*
X204188Y159887D01*
X204075Y159897D01*
X203962Y159911D01*
X203850Y159928D01*
X203739Y159950D01*
X203629Y159975D01*
X203519Y160005D01*
X203411Y160038D01*
X203304Y160075D01*
X203198Y160115D01*
X203094Y160160D01*
X202991Y160208D01*
X202890Y160259D01*
X202791Y160314D01*
X202694Y160372D01*
X202599Y160434D01*
X202506Y160499D01*
X202416Y160567D01*
X202328Y160638D01*
X202242Y160713D01*
X202159Y160790D01*
X202079Y160870D01*
X202002Y160953D01*
X201927Y161039D01*
X201856Y161127D01*
X201788Y161217D01*
X201723Y161310D01*
X201661Y161405D01*
X201603Y161502D01*
X201548Y161601D01*
X201497Y161702D01*
X201449Y161805D01*
X201404Y161909D01*
X201364Y162015D01*
X201327Y162122D01*
X201294Y162230D01*
X201264Y162340D01*
X201239Y162450D01*
X201217Y162561D01*
X201200Y162673D01*
X201186Y162786D01*
X201176Y162899D01*
X201170Y163012D01*
X201168Y163125D01*
X201170Y163238D01*
X201176Y163351D01*
X201186Y163464D01*
X201200Y163577D01*
X201217Y163689D01*
X201239Y163800D01*
X201264Y163910D01*
X201294Y164020D01*
X201327Y164128D01*
X201364Y164235D01*
X201404Y164341D01*
X201449Y164445D01*
X201497Y164548D01*
X201548Y164649D01*
X201603Y164748D01*
X201661Y164845D01*
X201723Y164940D01*
X201788Y165033D01*
X201856Y165123D01*
X201927Y165211D01*
X202002Y165297D01*
X202079Y165380D01*
X202159Y165460D01*
X202242Y165537D01*
X202328Y165612D01*
X202416Y165683D01*
X202506Y165751D01*
X202599Y165816D01*
X202694Y165878D01*
X202791Y165936D01*
X202890Y165991D01*
X202991Y166042D01*
X203094Y166090D01*
X203198Y166135D01*
X203304Y166175D01*
X203411Y166212D01*
X203519Y166245D01*
X203629Y166275D01*
X203739Y166300D01*
X203850Y166322D01*
X203962Y166339D01*
X204075Y166353D01*
X204188Y166363D01*
X204301Y166369D01*
X204414Y166371D01*
X204414Y166370D02*
X209606Y166370D01*
X209606Y166371D02*
X209719Y166369D01*
X209832Y166363D01*
X209945Y166353D01*
X210058Y166339D01*
X210170Y166322D01*
X210281Y166300D01*
X210391Y166275D01*
X210501Y166245D01*
X210609Y166212D01*
X210716Y166175D01*
X210822Y166135D01*
X210926Y166090D01*
X211029Y166042D01*
X211130Y165991D01*
X211229Y165936D01*
X211326Y165878D01*
X211421Y165816D01*
X211514Y165751D01*
X211604Y165683D01*
X211692Y165612D01*
X211778Y165537D01*
X211861Y165460D01*
X211941Y165380D01*
X212018Y165297D01*
X212093Y165211D01*
X212164Y165123D01*
X212232Y165033D01*
X212297Y164940D01*
X212359Y164845D01*
X212417Y164748D01*
X212472Y164649D01*
X212523Y164548D01*
X212571Y164445D01*
X212616Y164341D01*
X212656Y164235D01*
X212693Y164128D01*
X212726Y164020D01*
X212756Y163910D01*
X212781Y163800D01*
X212803Y163689D01*
X212820Y163577D01*
X212834Y163464D01*
X212844Y163351D01*
X212850Y163238D01*
X212852Y163125D01*
X212850Y163012D01*
X212844Y162899D01*
X212834Y162786D01*
X212820Y162673D01*
X212803Y162561D01*
X212781Y162450D01*
X212756Y162340D01*
X212726Y162230D01*
X212693Y162122D01*
X212656Y162015D01*
X212616Y161909D01*
X212571Y161805D01*
X212523Y161702D01*
X212472Y161601D01*
X212417Y161502D01*
X212359Y161405D01*
X212297Y161310D01*
X212232Y161217D01*
X212164Y161127D01*
X212093Y161039D01*
X212018Y160953D01*
X211941Y160870D01*
X211861Y160790D01*
X211778Y160713D01*
X211692Y160638D01*
X211604Y160567D01*
X211514Y160499D01*
X211421Y160434D01*
X211326Y160372D01*
X211229Y160314D01*
X211130Y160259D01*
X211029Y160208D01*
X210926Y160160D01*
X210822Y160115D01*
X210716Y160075D01*
X210609Y160038D01*
X210501Y160005D01*
X210391Y159975D01*
X210281Y159950D01*
X210170Y159928D01*
X210058Y159911D01*
X209945Y159897D01*
X209832Y159887D01*
X209719Y159881D01*
X209606Y159879D01*
X212852Y171690D02*
X201168Y171690D01*
X212852Y178181D01*
X201168Y178181D01*
X203764Y183501D02*
X201168Y186746D01*
X212852Y186746D01*
X212852Y183501D02*
X212852Y189992D01*
X207010Y194931D02*
X206780Y194934D01*
X206550Y194942D01*
X206321Y194956D01*
X206092Y194975D01*
X205863Y195000D01*
X205635Y195030D01*
X205408Y195065D01*
X205182Y195106D01*
X204957Y195152D01*
X204733Y195204D01*
X204510Y195261D01*
X204289Y195323D01*
X204069Y195391D01*
X203851Y195464D01*
X203635Y195542D01*
X203421Y195625D01*
X203209Y195713D01*
X202998Y195806D01*
X202791Y195905D01*
X202791Y195904D02*
X202701Y195937D01*
X202612Y195973D01*
X202524Y196013D01*
X202439Y196057D01*
X202355Y196104D01*
X202273Y196154D01*
X202193Y196208D01*
X202116Y196264D01*
X202040Y196324D01*
X201967Y196387D01*
X201897Y196452D01*
X201829Y196521D01*
X201765Y196592D01*
X201703Y196665D01*
X201644Y196741D01*
X201588Y196819D01*
X201535Y196900D01*
X201486Y196982D01*
X201440Y197066D01*
X201397Y197153D01*
X201358Y197240D01*
X201322Y197330D01*
X201290Y197420D01*
X201262Y197512D01*
X201237Y197605D01*
X201216Y197699D01*
X201199Y197793D01*
X201185Y197888D01*
X201176Y197984D01*
X201170Y198080D01*
X201168Y198176D01*
X201170Y198272D01*
X201176Y198368D01*
X201185Y198464D01*
X201199Y198559D01*
X201216Y198653D01*
X201237Y198747D01*
X201262Y198840D01*
X201290Y198932D01*
X201322Y199022D01*
X201358Y199112D01*
X201397Y199200D01*
X201440Y199286D01*
X201486Y199370D01*
X201535Y199452D01*
X201588Y199533D01*
X201644Y199611D01*
X201703Y199687D01*
X201765Y199760D01*
X201829Y199831D01*
X201897Y199900D01*
X201967Y199965D01*
X202040Y200028D01*
X202116Y200088D01*
X202193Y200144D01*
X202273Y200198D01*
X202355Y200248D01*
X202439Y200295D01*
X202524Y200339D01*
X202612Y200379D01*
X202701Y200415D01*
X202791Y200448D01*
X202998Y200547D01*
X203209Y200640D01*
X203421Y200728D01*
X203635Y200811D01*
X203851Y200889D01*
X204069Y200962D01*
X204289Y201030D01*
X204510Y201092D01*
X204733Y201149D01*
X204957Y201201D01*
X205182Y201247D01*
X205408Y201288D01*
X205635Y201323D01*
X205863Y201353D01*
X206092Y201378D01*
X206321Y201397D01*
X206550Y201411D01*
X206780Y201419D01*
X207010Y201422D01*
X207010Y194931D02*
X207240Y194934D01*
X207470Y194942D01*
X207699Y194956D01*
X207928Y194975D01*
X208157Y195000D01*
X208385Y195030D01*
X208612Y195065D01*
X208838Y195106D01*
X209063Y195152D01*
X209287Y195204D01*
X209510Y195261D01*
X209731Y195323D01*
X209951Y195391D01*
X210169Y195464D01*
X210385Y195542D01*
X210599Y195625D01*
X210811Y195713D01*
X211022Y195806D01*
X211229Y195905D01*
X211229Y195904D02*
X211319Y195937D01*
X211408Y195973D01*
X211496Y196014D01*
X211581Y196057D01*
X211665Y196104D01*
X211747Y196154D01*
X211827Y196208D01*
X211904Y196264D01*
X211980Y196324D01*
X212053Y196387D01*
X212123Y196452D01*
X212191Y196521D01*
X212255Y196592D01*
X212317Y196665D01*
X212376Y196741D01*
X212432Y196819D01*
X212485Y196900D01*
X212534Y196982D01*
X212580Y197066D01*
X212623Y197153D01*
X212662Y197240D01*
X212698Y197330D01*
X212730Y197420D01*
X212758Y197512D01*
X212783Y197605D01*
X212804Y197699D01*
X212821Y197793D01*
X212835Y197888D01*
X212844Y197984D01*
X212850Y198080D01*
X212852Y198176D01*
X211229Y200448D02*
X211022Y200547D01*
X210811Y200640D01*
X210599Y200728D01*
X210385Y200811D01*
X210169Y200889D01*
X209951Y200962D01*
X209731Y201030D01*
X209510Y201092D01*
X209287Y201149D01*
X209063Y201201D01*
X208838Y201247D01*
X208612Y201288D01*
X208385Y201323D01*
X208157Y201353D01*
X207928Y201378D01*
X207699Y201397D01*
X207470Y201411D01*
X207240Y201419D01*
X207010Y201422D01*
X211229Y200448D02*
X211319Y200415D01*
X211408Y200379D01*
X211496Y200339D01*
X211581Y200295D01*
X211665Y200248D01*
X211747Y200198D01*
X211827Y200144D01*
X211904Y200088D01*
X211980Y200028D01*
X212053Y199965D01*
X212123Y199900D01*
X212191Y199831D01*
X212255Y199760D01*
X212317Y199687D01*
X212376Y199611D01*
X212432Y199533D01*
X212485Y199452D01*
X212534Y199370D01*
X212580Y199286D01*
X212623Y199199D01*
X212662Y199112D01*
X212698Y199022D01*
X212730Y198932D01*
X212758Y198840D01*
X212783Y198747D01*
X212804Y198653D01*
X212821Y198559D01*
X212835Y198464D01*
X212844Y198368D01*
X212850Y198272D01*
X212852Y198176D01*
X210256Y195580D02*
X203764Y200773D01*
M02*
