G04 EAGLE Gerber RS-274X export*
G75*
%MOMM*%
%FSLAX34Y34*%
%LPD*%
%INBottom Copper*%
%IPPOS*%
%AMOC8*
5,1,8,0,0,1.08239X$1,22.5*%
G01*
%ADD10R,1.500000X1.500000*%
%ADD11R,1.508000X1.508000*%
%ADD12C,1.308000*%
%ADD13R,1.308000X1.308000*%
%ADD14R,1.422400X1.422400*%
%ADD15R,1.800000X1.800000*%
%ADD16R,1.358000X1.358000*%
%ADD17C,1.270000*%
%ADD18P,1.429621X8X22.500000*%
%ADD19C,0.152400*%
%ADD20C,0.756400*%
%ADD21C,0.254000*%

G36*
X996502Y2004D02*
X996502Y2004D01*
X996528Y2002D01*
X996675Y2024D01*
X996822Y2041D01*
X996847Y2049D01*
X996873Y2053D01*
X997011Y2108D01*
X997150Y2158D01*
X997172Y2172D01*
X997197Y2182D01*
X997318Y2267D01*
X997443Y2347D01*
X997461Y2366D01*
X997483Y2381D01*
X997582Y2491D01*
X997685Y2598D01*
X997699Y2620D01*
X997716Y2640D01*
X997788Y2770D01*
X997864Y2897D01*
X997872Y2922D01*
X997885Y2945D01*
X997925Y3088D01*
X997970Y3229D01*
X997972Y3255D01*
X997980Y3280D01*
X997999Y3524D01*
X997999Y609176D01*
X997996Y609202D01*
X997998Y609228D01*
X997976Y609375D01*
X997959Y609522D01*
X997951Y609547D01*
X997947Y609573D01*
X997892Y609711D01*
X997842Y609850D01*
X997828Y609872D01*
X997818Y609897D01*
X997733Y610018D01*
X997653Y610143D01*
X997634Y610161D01*
X997619Y610183D01*
X997509Y610282D01*
X997402Y610385D01*
X997380Y610399D01*
X997360Y610416D01*
X997230Y610488D01*
X997103Y610564D01*
X997078Y610572D01*
X997055Y610585D01*
X996912Y610625D01*
X996771Y610670D01*
X996745Y610672D01*
X996720Y610680D01*
X996476Y610699D01*
X3524Y610699D01*
X3498Y610696D01*
X3472Y610698D01*
X3325Y610676D01*
X3178Y610659D01*
X3153Y610651D01*
X3127Y610647D01*
X2989Y610592D01*
X2850Y610542D01*
X2828Y610528D01*
X2803Y610518D01*
X2682Y610433D01*
X2557Y610353D01*
X2539Y610334D01*
X2517Y610319D01*
X2418Y610209D01*
X2315Y610102D01*
X2301Y610080D01*
X2284Y610060D01*
X2212Y609930D01*
X2136Y609803D01*
X2128Y609778D01*
X2115Y609755D01*
X2075Y609612D01*
X2030Y609471D01*
X2028Y609445D01*
X2020Y609420D01*
X2001Y609176D01*
X2001Y3524D01*
X2004Y3498D01*
X2002Y3472D01*
X2024Y3325D01*
X2041Y3178D01*
X2049Y3153D01*
X2053Y3127D01*
X2108Y2989D01*
X2158Y2850D01*
X2172Y2828D01*
X2182Y2803D01*
X2267Y2682D01*
X2347Y2557D01*
X2366Y2539D01*
X2381Y2517D01*
X2491Y2418D01*
X2598Y2315D01*
X2620Y2301D01*
X2640Y2284D01*
X2770Y2212D01*
X2897Y2136D01*
X2922Y2128D01*
X2945Y2115D01*
X3088Y2075D01*
X3229Y2030D01*
X3255Y2028D01*
X3280Y2020D01*
X3524Y2001D01*
X996476Y2001D01*
X996502Y2004D01*
G37*
%LPC*%
G36*
X606553Y7713D02*
X606553Y7713D01*
X605213Y9053D01*
X605213Y15562D01*
X605210Y15588D01*
X605212Y15614D01*
X605190Y15761D01*
X605173Y15908D01*
X605165Y15933D01*
X605161Y15959D01*
X605106Y16097D01*
X605056Y16236D01*
X605042Y16258D01*
X605032Y16283D01*
X604947Y16404D01*
X604867Y16529D01*
X604848Y16547D01*
X604833Y16569D01*
X604723Y16668D01*
X604616Y16771D01*
X604594Y16785D01*
X604574Y16802D01*
X604444Y16874D01*
X604317Y16950D01*
X604292Y16958D01*
X604269Y16971D01*
X604126Y17011D01*
X603985Y17056D01*
X603959Y17058D01*
X603934Y17066D01*
X603690Y17085D01*
X599878Y17085D01*
X598985Y17978D01*
X598985Y22150D01*
X598971Y22275D01*
X598964Y22402D01*
X598951Y22448D01*
X598945Y22496D01*
X598903Y22615D01*
X598868Y22737D01*
X598844Y22779D01*
X598828Y22824D01*
X598759Y22930D01*
X598698Y23041D01*
X598658Y23087D01*
X598639Y23117D01*
X598604Y23151D01*
X598539Y23227D01*
X560213Y61553D01*
X560213Y255922D01*
X560199Y256047D01*
X560192Y256174D01*
X560179Y256220D01*
X560173Y256268D01*
X560131Y256387D01*
X560096Y256508D01*
X560072Y256551D01*
X560056Y256596D01*
X559987Y256703D01*
X559926Y256813D01*
X559886Y256859D01*
X559867Y256889D01*
X559832Y256923D01*
X559767Y256999D01*
X522387Y294379D01*
X522309Y294441D01*
X522236Y294511D01*
X522172Y294549D01*
X522114Y294596D01*
X522023Y294639D01*
X521937Y294690D01*
X521866Y294713D01*
X521799Y294745D01*
X521701Y294766D01*
X521605Y294796D01*
X521531Y294802D01*
X521458Y294818D01*
X521358Y294816D01*
X521258Y294824D01*
X521184Y294813D01*
X521110Y294812D01*
X521013Y294787D01*
X520913Y294773D01*
X520844Y294745D01*
X520772Y294727D01*
X520682Y294681D01*
X520589Y294644D01*
X520528Y294601D01*
X520462Y294567D01*
X520385Y294502D01*
X520303Y294445D01*
X520253Y294390D01*
X520197Y294341D01*
X520137Y294261D01*
X520070Y294186D01*
X520034Y294121D01*
X519989Y294061D01*
X519950Y293969D01*
X519901Y293881D01*
X519881Y293809D01*
X519851Y293741D01*
X519834Y293642D01*
X519806Y293546D01*
X519798Y293446D01*
X519790Y293398D01*
X519792Y293362D01*
X519787Y293302D01*
X519787Y284078D01*
X519801Y283953D01*
X519808Y283826D01*
X519821Y283780D01*
X519827Y283732D01*
X519869Y283613D01*
X519904Y283492D01*
X519928Y283449D01*
X519944Y283404D01*
X520013Y283297D01*
X520074Y283187D01*
X520114Y283141D01*
X520133Y283111D01*
X520168Y283077D01*
X520233Y283001D01*
X528142Y275092D01*
X528162Y275076D01*
X528180Y275056D01*
X528271Y274988D01*
X528318Y274945D01*
X528346Y274930D01*
X528415Y274875D01*
X528439Y274864D01*
X528460Y274849D01*
X528596Y274790D01*
X528623Y274777D01*
X528730Y274726D01*
X528756Y274721D01*
X528780Y274711D01*
X528926Y274684D01*
X529071Y274653D01*
X529097Y274653D01*
X529123Y274649D01*
X529271Y274656D01*
X529419Y274659D01*
X529445Y274665D01*
X529471Y274667D01*
X529613Y274708D01*
X529757Y274744D01*
X529781Y274756D01*
X529806Y274763D01*
X529901Y274817D01*
X529910Y274820D01*
X529924Y274829D01*
X536767Y274829D01*
X541529Y270067D01*
X541529Y263333D01*
X536767Y258571D01*
X530033Y258571D01*
X525271Y263333D01*
X525271Y270287D01*
X525274Y270292D01*
X525279Y270318D01*
X525289Y270342D01*
X525316Y270488D01*
X525347Y270633D01*
X525347Y270659D01*
X525351Y270685D01*
X525344Y270833D01*
X525341Y270981D01*
X525335Y271007D01*
X525333Y271033D01*
X525292Y271175D01*
X525256Y271319D01*
X525244Y271342D01*
X525237Y271368D01*
X525164Y271497D01*
X525096Y271629D01*
X525079Y271649D01*
X525067Y271672D01*
X524908Y271858D01*
X515213Y281553D01*
X515213Y498690D01*
X515210Y498716D01*
X515212Y498742D01*
X515190Y498889D01*
X515173Y499036D01*
X515165Y499061D01*
X515161Y499087D01*
X515106Y499225D01*
X515056Y499364D01*
X515042Y499386D01*
X515032Y499411D01*
X514947Y499532D01*
X514867Y499657D01*
X514848Y499675D01*
X514833Y499697D01*
X514723Y499796D01*
X514616Y499899D01*
X514594Y499913D01*
X514574Y499930D01*
X514444Y500002D01*
X514317Y500078D01*
X514292Y500086D01*
X514269Y500099D01*
X514126Y500139D01*
X513985Y500184D01*
X513959Y500186D01*
X513934Y500194D01*
X513690Y500213D01*
X458810Y500213D01*
X458784Y500210D01*
X458758Y500212D01*
X458611Y500190D01*
X458464Y500173D01*
X458439Y500165D01*
X458413Y500161D01*
X458275Y500106D01*
X458136Y500056D01*
X458114Y500042D01*
X458089Y500032D01*
X457968Y499947D01*
X457843Y499867D01*
X457825Y499848D01*
X457803Y499833D01*
X457704Y499723D01*
X457601Y499616D01*
X457587Y499594D01*
X457570Y499574D01*
X457498Y499444D01*
X457422Y499317D01*
X457414Y499292D01*
X457401Y499269D01*
X457361Y499126D01*
X457316Y498985D01*
X457314Y498959D01*
X457306Y498934D01*
X457287Y498690D01*
X457287Y395864D01*
X457304Y395715D01*
X457316Y395565D01*
X457324Y395542D01*
X457327Y395518D01*
X457377Y395377D01*
X457423Y395233D01*
X457436Y395213D01*
X457444Y395190D01*
X457526Y395064D01*
X457603Y394935D01*
X457620Y394917D01*
X457633Y394897D01*
X457741Y394793D01*
X457846Y394685D01*
X457866Y394672D01*
X457884Y394655D01*
X458013Y394578D01*
X458139Y394497D01*
X458162Y394488D01*
X458183Y394476D01*
X458326Y394430D01*
X458468Y394380D01*
X458492Y394377D01*
X458515Y394370D01*
X458664Y394358D01*
X458814Y394341D01*
X458838Y394344D01*
X458862Y394342D01*
X459011Y394364D01*
X459160Y394382D01*
X459188Y394391D01*
X459207Y394394D01*
X459251Y394411D01*
X459393Y394457D01*
X461444Y395307D01*
X463556Y395307D01*
X465506Y394499D01*
X466999Y393006D01*
X467807Y391056D01*
X467807Y388944D01*
X466999Y386994D01*
X465435Y385431D01*
X465422Y385423D01*
X465366Y385372D01*
X465303Y385328D01*
X465237Y385255D01*
X465164Y385189D01*
X465121Y385126D01*
X465070Y385070D01*
X465022Y384983D01*
X464966Y384902D01*
X464938Y384831D01*
X464901Y384765D01*
X464874Y384670D01*
X464838Y384578D01*
X464827Y384503D01*
X464806Y384429D01*
X464794Y384280D01*
X464787Y384233D01*
X464789Y384214D01*
X464787Y384185D01*
X464787Y289078D01*
X464801Y288953D01*
X464808Y288826D01*
X464821Y288780D01*
X464827Y288732D01*
X464869Y288613D01*
X464904Y288492D01*
X464928Y288449D01*
X464944Y288404D01*
X465013Y288297D01*
X465074Y288187D01*
X465114Y288141D01*
X465133Y288111D01*
X465168Y288077D01*
X465233Y288001D01*
X528759Y224475D01*
X528858Y224396D01*
X528952Y224312D01*
X528994Y224288D01*
X529032Y224258D01*
X529146Y224204D01*
X529257Y224143D01*
X529303Y224130D01*
X529347Y224109D01*
X529471Y224083D01*
X529592Y224048D01*
X529653Y224043D01*
X529688Y224036D01*
X529736Y224037D01*
X529836Y224029D01*
X536767Y224029D01*
X541529Y219267D01*
X541529Y212533D01*
X536767Y207771D01*
X530033Y207771D01*
X525271Y212533D01*
X525271Y219267D01*
X525308Y219304D01*
X525324Y219324D01*
X525344Y219341D01*
X525433Y219461D01*
X525525Y219577D01*
X525536Y219600D01*
X525551Y219622D01*
X525610Y219758D01*
X525674Y219892D01*
X525679Y219918D01*
X525689Y219942D01*
X525716Y220088D01*
X525747Y220233D01*
X525747Y220259D01*
X525751Y220285D01*
X525744Y220433D01*
X525741Y220581D01*
X525735Y220607D01*
X525733Y220633D01*
X525692Y220775D01*
X525656Y220919D01*
X525644Y220942D01*
X525637Y220968D01*
X525564Y221097D01*
X525496Y221229D01*
X525479Y221249D01*
X525467Y221272D01*
X525308Y221458D01*
X461999Y284767D01*
X459887Y286879D01*
X459809Y286941D01*
X459736Y287011D01*
X459672Y287049D01*
X459614Y287096D01*
X459523Y287139D01*
X459437Y287190D01*
X459366Y287213D01*
X459299Y287245D01*
X459201Y287266D01*
X459105Y287296D01*
X459031Y287302D01*
X458958Y287318D01*
X458858Y287316D01*
X458758Y287324D01*
X458684Y287313D01*
X458610Y287312D01*
X458513Y287287D01*
X458413Y287273D01*
X458344Y287245D01*
X458272Y287227D01*
X458183Y287181D01*
X458089Y287144D01*
X458028Y287101D01*
X457962Y287067D01*
X457886Y287002D01*
X457803Y286945D01*
X457753Y286890D01*
X457697Y286841D01*
X457637Y286761D01*
X457570Y286686D01*
X457534Y286621D01*
X457489Y286561D01*
X457450Y286469D01*
X457401Y286381D01*
X457381Y286309D01*
X457351Y286241D01*
X457334Y286142D01*
X457306Y286046D01*
X457298Y285946D01*
X457290Y285898D01*
X457292Y285862D01*
X457287Y285802D01*
X457287Y206553D01*
X453121Y202387D01*
X453059Y202309D01*
X452989Y202236D01*
X452951Y202172D01*
X452904Y202114D01*
X452861Y202023D01*
X452810Y201937D01*
X452787Y201866D01*
X452755Y201799D01*
X452734Y201701D01*
X452704Y201605D01*
X452698Y201531D01*
X452682Y201458D01*
X452684Y201358D01*
X452676Y201258D01*
X452687Y201184D01*
X452688Y201110D01*
X452713Y201013D01*
X452727Y200913D01*
X452755Y200844D01*
X452773Y200772D01*
X452819Y200682D01*
X452856Y200589D01*
X452899Y200528D01*
X452933Y200462D01*
X452998Y200385D01*
X453055Y200303D01*
X453110Y200253D01*
X453159Y200197D01*
X453239Y200137D01*
X453314Y200070D01*
X453379Y200034D01*
X453439Y199989D01*
X453531Y199950D01*
X453619Y199901D01*
X453691Y199881D01*
X453759Y199851D01*
X453858Y199834D01*
X453954Y199806D01*
X454054Y199798D01*
X454102Y199790D01*
X454138Y199792D01*
X454198Y199787D01*
X503447Y199787D01*
X529559Y173675D01*
X529658Y173596D01*
X529752Y173512D01*
X529794Y173488D01*
X529832Y173458D01*
X529946Y173404D01*
X530057Y173343D01*
X530104Y173330D01*
X530147Y173309D01*
X530271Y173283D01*
X530392Y173248D01*
X530453Y173243D01*
X530488Y173236D01*
X530536Y173237D01*
X530636Y173229D01*
X536767Y173229D01*
X541529Y168467D01*
X541529Y161733D01*
X536767Y156971D01*
X530033Y156971D01*
X525271Y161733D01*
X525271Y168467D01*
X525708Y168904D01*
X525724Y168924D01*
X525744Y168941D01*
X525832Y169060D01*
X525925Y169177D01*
X525936Y169201D01*
X525951Y169222D01*
X526010Y169357D01*
X526074Y169492D01*
X526079Y169518D01*
X526089Y169542D01*
X526116Y169688D01*
X526147Y169833D01*
X526147Y169859D01*
X526151Y169885D01*
X526144Y170033D01*
X526141Y170181D01*
X526135Y170206D01*
X526133Y170233D01*
X526092Y170375D01*
X526056Y170519D01*
X526044Y170542D01*
X526037Y170568D01*
X525964Y170697D01*
X525896Y170829D01*
X525879Y170849D01*
X525867Y170872D01*
X525708Y171058D01*
X501999Y194767D01*
X501900Y194846D01*
X501806Y194930D01*
X501764Y194954D01*
X501726Y194984D01*
X501612Y195038D01*
X501501Y195099D01*
X501454Y195112D01*
X501411Y195133D01*
X501287Y195159D01*
X501166Y195194D01*
X501105Y195199D01*
X501070Y195206D01*
X501022Y195205D01*
X500922Y195213D01*
X376310Y195213D01*
X376284Y195210D01*
X376258Y195212D01*
X376111Y195190D01*
X375964Y195173D01*
X375939Y195165D01*
X375913Y195161D01*
X375775Y195106D01*
X375636Y195056D01*
X375614Y195042D01*
X375589Y195032D01*
X375468Y194947D01*
X375343Y194867D01*
X375325Y194848D01*
X375303Y194833D01*
X375204Y194723D01*
X375101Y194616D01*
X375087Y194594D01*
X375070Y194574D01*
X374998Y194444D01*
X374922Y194317D01*
X374914Y194292D01*
X374901Y194269D01*
X374861Y194126D01*
X374816Y193985D01*
X374814Y193959D01*
X374806Y193934D01*
X374787Y193690D01*
X374787Y153810D01*
X374790Y153784D01*
X374788Y153758D01*
X374810Y153611D01*
X374827Y153464D01*
X374835Y153439D01*
X374839Y153413D01*
X374894Y153275D01*
X374944Y153136D01*
X374958Y153114D01*
X374968Y153089D01*
X375053Y152968D01*
X375133Y152843D01*
X375152Y152825D01*
X375167Y152803D01*
X375277Y152704D01*
X375384Y152601D01*
X375406Y152587D01*
X375426Y152570D01*
X375556Y152498D01*
X375683Y152422D01*
X375708Y152414D01*
X375731Y152401D01*
X375874Y152361D01*
X376015Y152316D01*
X376041Y152314D01*
X376066Y152306D01*
X376310Y152287D01*
X498447Y152287D01*
X528092Y122642D01*
X528113Y122626D01*
X528130Y122606D01*
X528249Y122518D01*
X528365Y122425D01*
X528389Y122414D01*
X528410Y122398D01*
X528546Y122340D01*
X528680Y122276D01*
X528706Y122271D01*
X528730Y122260D01*
X528876Y122234D01*
X529021Y122203D01*
X529047Y122203D01*
X529073Y122199D01*
X529222Y122206D01*
X529369Y122209D01*
X529395Y122215D01*
X529421Y122217D01*
X529563Y122258D01*
X529707Y122294D01*
X529731Y122306D01*
X529756Y122313D01*
X529885Y122385D01*
X529969Y122429D01*
X536767Y122429D01*
X541529Y117667D01*
X541529Y110933D01*
X536767Y106171D01*
X530033Y106171D01*
X525271Y110933D01*
X525271Y118063D01*
X525297Y118182D01*
X525296Y118208D01*
X525301Y118235D01*
X525294Y118383D01*
X525291Y118530D01*
X525285Y118556D01*
X525283Y118583D01*
X525242Y118725D01*
X525206Y118868D01*
X525194Y118892D01*
X525187Y118918D01*
X525114Y119047D01*
X525047Y119178D01*
X525030Y119198D01*
X525017Y119222D01*
X524858Y119408D01*
X496999Y147267D01*
X496900Y147346D01*
X496806Y147430D01*
X496764Y147454D01*
X496726Y147484D01*
X496612Y147538D01*
X496501Y147599D01*
X496454Y147612D01*
X496411Y147633D01*
X496287Y147659D01*
X496166Y147694D01*
X496105Y147699D01*
X496070Y147706D01*
X496022Y147705D01*
X495922Y147713D01*
X371553Y147713D01*
X370213Y149053D01*
X370213Y330922D01*
X370199Y331047D01*
X370192Y331174D01*
X370179Y331220D01*
X370173Y331268D01*
X370131Y331387D01*
X370096Y331508D01*
X370072Y331551D01*
X370056Y331596D01*
X369987Y331703D01*
X369926Y331813D01*
X369886Y331859D01*
X369867Y331889D01*
X369832Y331923D01*
X369767Y331999D01*
X366515Y335251D01*
X366437Y335313D01*
X366364Y335383D01*
X366300Y335421D01*
X366242Y335468D01*
X366151Y335511D01*
X366065Y335562D01*
X365994Y335585D01*
X365927Y335617D01*
X365829Y335638D01*
X365733Y335668D01*
X365659Y335674D01*
X365586Y335690D01*
X365486Y335688D01*
X365386Y335696D01*
X365312Y335685D01*
X365238Y335684D01*
X365141Y335659D01*
X365041Y335645D01*
X364972Y335617D01*
X364900Y335599D01*
X364811Y335553D01*
X364717Y335516D01*
X364656Y335473D01*
X364590Y335439D01*
X364514Y335374D01*
X364431Y335317D01*
X364381Y335262D01*
X364325Y335213D01*
X364265Y335133D01*
X364198Y335058D01*
X364162Y334993D01*
X364117Y334933D01*
X364078Y334841D01*
X364029Y334753D01*
X364009Y334681D01*
X363979Y334613D01*
X363962Y334514D01*
X363934Y334418D01*
X363926Y334318D01*
X363918Y334270D01*
X363920Y334234D01*
X363915Y334174D01*
X363915Y322778D01*
X363022Y321885D01*
X353250Y321885D01*
X353125Y321871D01*
X352998Y321864D01*
X352952Y321851D01*
X352904Y321845D01*
X352785Y321803D01*
X352664Y321768D01*
X352621Y321744D01*
X352576Y321728D01*
X352470Y321659D01*
X352359Y321598D01*
X352313Y321558D01*
X352283Y321539D01*
X352281Y321537D01*
X352249Y321504D01*
X352173Y321439D01*
X342733Y311999D01*
X342654Y311900D01*
X342570Y311806D01*
X342546Y311764D01*
X342516Y311726D01*
X342462Y311612D01*
X342401Y311501D01*
X342388Y311454D01*
X342367Y311411D01*
X342341Y311287D01*
X342306Y311166D01*
X342301Y311105D01*
X342294Y311070D01*
X342295Y311022D01*
X342287Y310922D01*
X342287Y86553D01*
X314311Y58577D01*
X314232Y58478D01*
X314148Y58384D01*
X314124Y58342D01*
X314094Y58304D01*
X314040Y58190D01*
X313979Y58079D01*
X313966Y58032D01*
X313945Y57989D01*
X313919Y57865D01*
X313884Y57744D01*
X313879Y57683D01*
X313872Y57648D01*
X313873Y57600D01*
X313865Y57500D01*
X313865Y42628D01*
X312972Y41735D01*
X296628Y41735D01*
X295735Y42628D01*
X295735Y58972D01*
X296628Y59865D01*
X308500Y59865D01*
X308625Y59879D01*
X308752Y59886D01*
X308798Y59899D01*
X308846Y59905D01*
X308965Y59947D01*
X309086Y59982D01*
X309129Y60006D01*
X309174Y60022D01*
X309280Y60091D01*
X309391Y60152D01*
X309437Y60192D01*
X309467Y60211D01*
X309485Y60230D01*
X309486Y60231D01*
X309504Y60249D01*
X309577Y60311D01*
X337267Y88001D01*
X337346Y88100D01*
X337430Y88194D01*
X337454Y88236D01*
X337484Y88274D01*
X337538Y88388D01*
X337599Y88499D01*
X337612Y88546D01*
X337633Y88589D01*
X337659Y88713D01*
X337694Y88834D01*
X337699Y88895D01*
X337706Y88930D01*
X337705Y88978D01*
X337713Y89078D01*
X337713Y313447D01*
X346839Y322573D01*
X346918Y322672D01*
X347002Y322766D01*
X347026Y322808D01*
X347056Y322846D01*
X347110Y322960D01*
X347171Y323071D01*
X347184Y323118D01*
X347205Y323161D01*
X347231Y323285D01*
X347266Y323406D01*
X347271Y323467D01*
X347278Y323502D01*
X347277Y323550D01*
X347285Y323650D01*
X347285Y336190D01*
X347282Y336216D01*
X347284Y336242D01*
X347262Y336389D01*
X347245Y336536D01*
X347237Y336561D01*
X347233Y336587D01*
X347178Y336725D01*
X347128Y336864D01*
X347114Y336886D01*
X347104Y336911D01*
X347019Y337032D01*
X346939Y337157D01*
X346920Y337175D01*
X346905Y337197D01*
X346795Y337296D01*
X346688Y337399D01*
X346666Y337413D01*
X346646Y337430D01*
X346516Y337502D01*
X346389Y337578D01*
X346364Y337586D01*
X346341Y337599D01*
X346198Y337639D01*
X346057Y337684D01*
X346031Y337686D01*
X346006Y337694D01*
X345762Y337713D01*
X324053Y337713D01*
X322713Y339053D01*
X322713Y465922D01*
X322699Y466047D01*
X322692Y466174D01*
X322679Y466220D01*
X322673Y466268D01*
X322631Y466387D01*
X322596Y466508D01*
X322572Y466551D01*
X322556Y466596D01*
X322487Y466702D01*
X322426Y466813D01*
X322386Y466859D01*
X322367Y466889D01*
X322332Y466922D01*
X322267Y466999D01*
X277649Y511617D01*
X277550Y511696D01*
X277456Y511780D01*
X277414Y511804D01*
X277376Y511834D01*
X277262Y511888D01*
X277151Y511949D01*
X277104Y511962D01*
X277061Y511983D01*
X276937Y512009D01*
X276816Y512044D01*
X276755Y512049D01*
X276720Y512056D01*
X276672Y512055D01*
X276572Y512063D01*
X271656Y512063D01*
X270763Y512956D01*
X270763Y528852D01*
X270752Y528952D01*
X270750Y529052D01*
X270732Y529124D01*
X270723Y529198D01*
X270690Y529293D01*
X270665Y529390D01*
X270631Y529456D01*
X270606Y529526D01*
X270551Y529611D01*
X270505Y529700D01*
X270457Y529757D01*
X270417Y529819D01*
X270345Y529889D01*
X270280Y529965D01*
X270220Y530009D01*
X270166Y530061D01*
X270080Y530113D01*
X269999Y530172D01*
X269931Y530202D01*
X269867Y530240D01*
X269771Y530271D01*
X269679Y530310D01*
X269606Y530324D01*
X269535Y530346D01*
X269435Y530354D01*
X269336Y530372D01*
X269262Y530368D01*
X269188Y530374D01*
X269088Y530359D01*
X268988Y530354D01*
X268917Y530334D01*
X268843Y530323D01*
X268750Y530285D01*
X268653Y530258D01*
X268588Y530221D01*
X268519Y530194D01*
X268437Y530137D01*
X268349Y530087D01*
X268273Y530022D01*
X268233Y529995D01*
X268209Y529968D01*
X268163Y529929D01*
X263083Y524849D01*
X263004Y524750D01*
X262920Y524656D01*
X262896Y524614D01*
X262866Y524576D01*
X262812Y524462D01*
X262751Y524351D01*
X262738Y524305D01*
X262717Y524261D01*
X262691Y524137D01*
X262656Y524016D01*
X262651Y523955D01*
X262644Y523920D01*
X262645Y523872D01*
X262637Y523772D01*
X262637Y512956D01*
X261744Y512063D01*
X246256Y512063D01*
X245363Y512956D01*
X245363Y528444D01*
X246256Y529337D01*
X260472Y529337D01*
X260597Y529351D01*
X260724Y529358D01*
X260770Y529371D01*
X260818Y529377D01*
X260937Y529419D01*
X261059Y529454D01*
X261101Y529478D01*
X261146Y529494D01*
X261252Y529563D01*
X261363Y529624D01*
X261409Y529664D01*
X261439Y529683D01*
X261473Y529718D01*
X261549Y529783D01*
X269053Y537287D01*
X269240Y537287D01*
X269266Y537290D01*
X269292Y537288D01*
X269439Y537310D01*
X269586Y537327D01*
X269611Y537335D01*
X269637Y537339D01*
X269775Y537394D01*
X269914Y537444D01*
X269936Y537458D01*
X269961Y537468D01*
X270082Y537553D01*
X270207Y537633D01*
X270225Y537652D01*
X270247Y537667D01*
X270346Y537777D01*
X270449Y537884D01*
X270463Y537906D01*
X270480Y537926D01*
X270552Y538056D01*
X270628Y538183D01*
X270636Y538208D01*
X270649Y538231D01*
X270689Y538374D01*
X270734Y538515D01*
X270736Y538541D01*
X270744Y538566D01*
X270763Y538810D01*
X270763Y553844D01*
X271656Y554737D01*
X287144Y554737D01*
X288037Y553844D01*
X288037Y538356D01*
X287534Y537854D01*
X287518Y537833D01*
X287498Y537816D01*
X287409Y537697D01*
X287318Y537581D01*
X287306Y537557D01*
X287291Y537536D01*
X287232Y537400D01*
X287169Y537266D01*
X287163Y537240D01*
X287153Y537216D01*
X287127Y537070D01*
X287095Y536925D01*
X287096Y536899D01*
X287091Y536873D01*
X287099Y536724D01*
X287101Y536577D01*
X287108Y536551D01*
X287109Y536525D01*
X287150Y536382D01*
X287186Y536239D01*
X287198Y536215D01*
X287206Y536190D01*
X287278Y536061D01*
X287346Y535929D01*
X287363Y535909D01*
X287376Y535886D01*
X287534Y535700D01*
X287733Y535501D01*
X292287Y530947D01*
X292287Y511578D01*
X292301Y511453D01*
X292308Y511326D01*
X292321Y511280D01*
X292327Y511232D01*
X292369Y511113D01*
X292404Y510992D01*
X292428Y510949D01*
X292444Y510904D01*
X292513Y510798D01*
X292574Y510687D01*
X292614Y510641D01*
X292633Y510611D01*
X292668Y510578D01*
X292733Y510501D01*
X332287Y470947D01*
X332287Y348810D01*
X332290Y348784D01*
X332288Y348758D01*
X332310Y348611D01*
X332327Y348464D01*
X332335Y348439D01*
X332339Y348413D01*
X332394Y348275D01*
X332444Y348136D01*
X332458Y348114D01*
X332468Y348089D01*
X332553Y347968D01*
X332633Y347843D01*
X332652Y347825D01*
X332667Y347803D01*
X332777Y347704D01*
X332884Y347601D01*
X332906Y347587D01*
X332926Y347570D01*
X333056Y347498D01*
X333183Y347422D01*
X333208Y347414D01*
X333231Y347401D01*
X333374Y347361D01*
X333515Y347316D01*
X333541Y347314D01*
X333566Y347306D01*
X333810Y347287D01*
X345762Y347287D01*
X345788Y347290D01*
X345814Y347288D01*
X345961Y347310D01*
X346108Y347327D01*
X346133Y347335D01*
X346159Y347339D01*
X346297Y347394D01*
X346436Y347444D01*
X346458Y347458D01*
X346483Y347468D01*
X346604Y347553D01*
X346729Y347633D01*
X346747Y347652D01*
X346769Y347667D01*
X346868Y347777D01*
X346971Y347884D01*
X346985Y347906D01*
X347002Y347926D01*
X347074Y348056D01*
X347150Y348183D01*
X347158Y348208D01*
X347171Y348231D01*
X347211Y348374D01*
X347256Y348515D01*
X347258Y348541D01*
X347266Y348566D01*
X347285Y348810D01*
X347285Y363022D01*
X348178Y363915D01*
X363022Y363915D01*
X363915Y363022D01*
X363915Y348810D01*
X363918Y348784D01*
X363916Y348758D01*
X363938Y348611D01*
X363955Y348464D01*
X363963Y348439D01*
X363967Y348413D01*
X364022Y348275D01*
X364072Y348136D01*
X364086Y348114D01*
X364096Y348089D01*
X364181Y347968D01*
X364261Y347843D01*
X364280Y347825D01*
X364295Y347803D01*
X364405Y347704D01*
X364512Y347601D01*
X364534Y347587D01*
X364554Y347570D01*
X364684Y347498D01*
X364811Y347422D01*
X364836Y347414D01*
X364859Y347401D01*
X365002Y347361D01*
X365143Y347316D01*
X365169Y347314D01*
X365194Y347306D01*
X365438Y347287D01*
X365947Y347287D01*
X379787Y333447D01*
X379787Y201310D01*
X379790Y201284D01*
X379788Y201258D01*
X379810Y201111D01*
X379827Y200964D01*
X379835Y200939D01*
X379839Y200913D01*
X379894Y200775D01*
X379944Y200636D01*
X379958Y200614D01*
X379968Y200589D01*
X380053Y200468D01*
X380133Y200343D01*
X380152Y200325D01*
X380167Y200303D01*
X380277Y200204D01*
X380384Y200101D01*
X380406Y200087D01*
X380426Y200070D01*
X380556Y199998D01*
X380683Y199922D01*
X380708Y199914D01*
X380731Y199901D01*
X380874Y199861D01*
X381015Y199816D01*
X381041Y199814D01*
X381066Y199806D01*
X381310Y199787D01*
X436190Y199787D01*
X436216Y199790D01*
X436242Y199788D01*
X436389Y199810D01*
X436536Y199827D01*
X436561Y199835D01*
X436587Y199839D01*
X436725Y199894D01*
X436864Y199944D01*
X436886Y199958D01*
X436911Y199968D01*
X437032Y200053D01*
X437157Y200133D01*
X437175Y200152D01*
X437197Y200167D01*
X437296Y200277D01*
X437399Y200384D01*
X437413Y200406D01*
X437430Y200426D01*
X437502Y200556D01*
X437578Y200683D01*
X437586Y200708D01*
X437599Y200731D01*
X437639Y200874D01*
X437684Y201015D01*
X437686Y201041D01*
X437694Y201066D01*
X437713Y201310D01*
X437713Y205922D01*
X437699Y206047D01*
X437692Y206174D01*
X437679Y206220D01*
X437673Y206268D01*
X437631Y206387D01*
X437596Y206508D01*
X437572Y206551D01*
X437556Y206596D01*
X437487Y206702D01*
X437426Y206813D01*
X437386Y206859D01*
X437367Y206889D01*
X437332Y206922D01*
X437267Y206999D01*
X436908Y207358D01*
X436887Y207374D01*
X436870Y207394D01*
X436752Y207482D01*
X436635Y207575D01*
X436611Y207586D01*
X436590Y207601D01*
X436454Y207660D01*
X436320Y207724D01*
X436294Y207729D01*
X436270Y207739D01*
X436124Y207766D01*
X435979Y207797D01*
X435953Y207797D01*
X435927Y207801D01*
X435779Y207794D01*
X435631Y207791D01*
X435605Y207785D01*
X435579Y207783D01*
X435538Y207771D01*
X428433Y207771D01*
X423671Y212533D01*
X423671Y219267D01*
X428433Y224029D01*
X435167Y224029D01*
X439593Y219603D01*
X439671Y219540D01*
X439744Y219471D01*
X439808Y219432D01*
X439866Y219386D01*
X439957Y219343D01*
X440043Y219292D01*
X440114Y219269D01*
X440181Y219237D01*
X440279Y219216D01*
X440375Y219186D01*
X440449Y219180D01*
X440522Y219164D01*
X440622Y219166D01*
X440722Y219158D01*
X440796Y219169D01*
X440870Y219170D01*
X440967Y219194D01*
X441067Y219209D01*
X441136Y219237D01*
X441208Y219255D01*
X441298Y219301D01*
X441391Y219338D01*
X441452Y219380D01*
X441518Y219415D01*
X441595Y219480D01*
X441677Y219537D01*
X441727Y219592D01*
X441783Y219640D01*
X441843Y219721D01*
X441910Y219796D01*
X441946Y219861D01*
X441991Y219921D01*
X442030Y220013D01*
X442079Y220101D01*
X442099Y220172D01*
X442129Y220241D01*
X442146Y220339D01*
X442174Y220436D01*
X442182Y220536D01*
X442190Y220584D01*
X442188Y220619D01*
X442193Y220680D01*
X442193Y221155D01*
X442197Y221169D01*
X442201Y221246D01*
X442215Y221321D01*
X442210Y221419D01*
X442214Y221517D01*
X442201Y221593D01*
X442197Y221669D01*
X442170Y221763D01*
X442152Y221860D01*
X442121Y221931D01*
X442100Y222004D01*
X442052Y222090D01*
X442013Y222180D01*
X441967Y222241D01*
X441930Y222308D01*
X441834Y222422D01*
X441805Y222460D01*
X441791Y222472D01*
X441772Y222495D01*
X437713Y226553D01*
X437713Y238447D01*
X439767Y240501D01*
X439846Y240600D01*
X439930Y240694D01*
X439954Y240736D01*
X439984Y240774D01*
X440038Y240888D01*
X440099Y240999D01*
X440112Y241046D01*
X440133Y241089D01*
X440159Y241213D01*
X440194Y241334D01*
X440199Y241395D01*
X440206Y241430D01*
X440205Y241478D01*
X440213Y241578D01*
X440213Y259940D01*
X440202Y260040D01*
X440200Y260140D01*
X440182Y260212D01*
X440173Y260286D01*
X440140Y260381D01*
X440115Y260478D01*
X440081Y260544D01*
X440056Y260614D01*
X440001Y260699D01*
X439955Y260788D01*
X439907Y260845D01*
X439867Y260907D01*
X439795Y260977D01*
X439730Y261053D01*
X439670Y261098D01*
X439616Y261149D01*
X439530Y261201D01*
X439449Y261261D01*
X439381Y261290D01*
X439317Y261328D01*
X439221Y261359D01*
X439129Y261399D01*
X439056Y261412D01*
X438985Y261434D01*
X438885Y261443D01*
X438786Y261460D01*
X438712Y261456D01*
X438638Y261462D01*
X438538Y261448D01*
X438438Y261442D01*
X438367Y261422D01*
X438293Y261411D01*
X438200Y261374D01*
X438103Y261346D01*
X438038Y261309D01*
X437969Y261282D01*
X437887Y261225D01*
X437799Y261176D01*
X437723Y261111D01*
X437683Y261083D01*
X437659Y261057D01*
X437613Y261017D01*
X435167Y258571D01*
X428433Y258571D01*
X423671Y263333D01*
X423671Y270067D01*
X425358Y271754D01*
X425374Y271774D01*
X425394Y271791D01*
X425483Y271911D01*
X425575Y272027D01*
X425586Y272050D01*
X425601Y272072D01*
X425660Y272208D01*
X425724Y272342D01*
X425729Y272368D01*
X425739Y272392D01*
X425766Y272538D01*
X425797Y272683D01*
X425797Y272709D01*
X425801Y272735D01*
X425794Y272883D01*
X425791Y273031D01*
X425785Y273057D01*
X425783Y273083D01*
X425742Y273225D01*
X425706Y273369D01*
X425694Y273392D01*
X425687Y273418D01*
X425614Y273547D01*
X425546Y273679D01*
X425529Y273699D01*
X425517Y273722D01*
X425358Y273908D01*
X415213Y284053D01*
X415213Y289136D01*
X415196Y289285D01*
X415184Y289435D01*
X415176Y289458D01*
X415173Y289482D01*
X415123Y289623D01*
X415077Y289767D01*
X415064Y289787D01*
X415056Y289810D01*
X414974Y289936D01*
X414897Y290065D01*
X414880Y290083D01*
X414867Y290103D01*
X414759Y290207D01*
X414654Y290315D01*
X414634Y290328D01*
X414616Y290345D01*
X414487Y290422D01*
X414361Y290503D01*
X414338Y290512D01*
X414317Y290524D01*
X414174Y290570D01*
X414032Y290620D01*
X414008Y290623D01*
X413985Y290630D01*
X413836Y290642D01*
X413686Y290659D01*
X413662Y290656D01*
X413638Y290658D01*
X413489Y290636D01*
X413340Y290618D01*
X413312Y290609D01*
X413293Y290606D01*
X413249Y290589D01*
X413107Y290543D01*
X411056Y289693D01*
X408944Y289693D01*
X406994Y290501D01*
X405501Y291994D01*
X404693Y293944D01*
X404693Y296056D01*
X405501Y298006D01*
X407064Y299569D01*
X407077Y299576D01*
X407134Y299628D01*
X407197Y299672D01*
X407263Y299744D01*
X407335Y299810D01*
X407379Y299873D01*
X407430Y299930D01*
X407478Y300016D01*
X407534Y300097D01*
X407562Y300168D01*
X407599Y300235D01*
X407626Y300330D01*
X407662Y300421D01*
X407673Y300497D01*
X407694Y300571D01*
X407706Y300719D01*
X407712Y300766D01*
X407711Y300785D01*
X407713Y300815D01*
X407713Y490922D01*
X407699Y491047D01*
X407692Y491174D01*
X407679Y491220D01*
X407673Y491268D01*
X407631Y491387D01*
X407596Y491508D01*
X407572Y491551D01*
X407556Y491596D01*
X407487Y491702D01*
X407426Y491813D01*
X407386Y491859D01*
X407367Y491889D01*
X407332Y491922D01*
X407267Y491999D01*
X387649Y511617D01*
X387550Y511696D01*
X387456Y511780D01*
X387414Y511804D01*
X387376Y511834D01*
X387262Y511888D01*
X387151Y511949D01*
X387104Y511962D01*
X387061Y511983D01*
X386937Y512009D01*
X386816Y512044D01*
X386755Y512049D01*
X386720Y512056D01*
X386672Y512055D01*
X386572Y512063D01*
X373256Y512063D01*
X372363Y512956D01*
X372363Y528444D01*
X373256Y529337D01*
X388744Y529337D01*
X389637Y528444D01*
X389637Y516728D01*
X389651Y516603D01*
X389658Y516476D01*
X389671Y516430D01*
X389677Y516382D01*
X389719Y516263D01*
X389754Y516142D01*
X389778Y516099D01*
X389794Y516054D01*
X389863Y515947D01*
X389924Y515837D01*
X389964Y515791D01*
X389983Y515761D01*
X390018Y515727D01*
X390083Y515651D01*
X394289Y511445D01*
X394387Y511367D01*
X394480Y511283D01*
X394523Y511259D01*
X394562Y511228D01*
X394675Y511175D01*
X394785Y511114D01*
X394833Y511100D01*
X394877Y511079D01*
X394999Y511053D01*
X395120Y511019D01*
X395170Y511016D01*
X395218Y511006D01*
X395343Y511008D01*
X395468Y511002D01*
X395517Y511011D01*
X395567Y511012D01*
X395688Y511042D01*
X395811Y511065D01*
X395856Y511085D01*
X395905Y511097D01*
X396016Y511154D01*
X396130Y511204D01*
X396170Y511234D01*
X396214Y511256D01*
X396310Y511337D01*
X396410Y511412D01*
X396442Y511450D01*
X396480Y511482D01*
X396554Y511583D01*
X396635Y511678D01*
X396657Y511723D01*
X396687Y511762D01*
X396736Y511877D01*
X396793Y511989D01*
X396805Y512037D01*
X396825Y512082D01*
X396847Y512206D01*
X396877Y512327D01*
X396878Y512377D01*
X396887Y512426D01*
X396880Y512551D01*
X396882Y512675D01*
X396871Y512737D01*
X396869Y512774D01*
X396855Y512819D01*
X396838Y512916D01*
X396747Y513254D01*
X396747Y518576D01*
X404276Y518576D01*
X404276Y511047D01*
X398954Y511047D01*
X398616Y511138D01*
X398492Y511156D01*
X398370Y511182D01*
X398320Y511182D01*
X398271Y511189D01*
X398147Y511179D01*
X398022Y511176D01*
X397973Y511164D01*
X397924Y511160D01*
X397805Y511122D01*
X397684Y511091D01*
X397639Y511069D01*
X397592Y511053D01*
X397485Y510989D01*
X397374Y510932D01*
X397336Y510900D01*
X397293Y510874D01*
X397204Y510787D01*
X397108Y510706D01*
X397079Y510666D01*
X397043Y510631D01*
X396976Y510526D01*
X396901Y510426D01*
X396882Y510380D01*
X396855Y510338D01*
X396813Y510220D01*
X396763Y510106D01*
X396754Y510057D01*
X396738Y510010D01*
X396724Y509886D01*
X396702Y509763D01*
X396704Y509713D01*
X396699Y509664D01*
X396713Y509539D01*
X396719Y509415D01*
X396733Y509367D01*
X396739Y509318D01*
X396781Y509200D01*
X396816Y509080D01*
X396840Y509036D01*
X396857Y508990D01*
X396925Y508885D01*
X396986Y508776D01*
X397027Y508728D01*
X397047Y508697D01*
X397081Y508664D01*
X397145Y508589D01*
X410501Y495233D01*
X412613Y493121D01*
X412691Y493059D01*
X412764Y492989D01*
X412828Y492951D01*
X412886Y492904D01*
X412977Y492861D01*
X413063Y492810D01*
X413134Y492787D01*
X413201Y492755D01*
X413299Y492734D01*
X413395Y492704D01*
X413469Y492698D01*
X413542Y492682D01*
X413642Y492684D01*
X413742Y492676D01*
X413816Y492687D01*
X413890Y492688D01*
X413987Y492713D01*
X414087Y492727D01*
X414156Y492755D01*
X414228Y492773D01*
X414317Y492819D01*
X414411Y492856D01*
X414472Y492899D01*
X414538Y492933D01*
X414614Y492998D01*
X414697Y493055D01*
X414747Y493110D01*
X414803Y493159D01*
X414863Y493239D01*
X414930Y493314D01*
X414966Y493379D01*
X415011Y493439D01*
X415050Y493531D01*
X415099Y493619D01*
X415119Y493691D01*
X415149Y493759D01*
X415166Y493858D01*
X415194Y493954D01*
X415202Y494054D01*
X415210Y494102D01*
X415208Y494138D01*
X415213Y494198D01*
X415213Y505947D01*
X419439Y510173D01*
X419455Y510193D01*
X419475Y510210D01*
X419564Y510330D01*
X419656Y510446D01*
X419667Y510470D01*
X419682Y510491D01*
X419741Y510627D01*
X419804Y510761D01*
X419810Y510787D01*
X419820Y510811D01*
X419847Y510957D01*
X419878Y511102D01*
X419877Y511128D01*
X419882Y511154D01*
X419874Y511302D01*
X419872Y511450D01*
X419865Y511476D01*
X419864Y511502D01*
X419823Y511644D01*
X419787Y511788D01*
X419775Y511812D01*
X419768Y511837D01*
X419695Y511966D01*
X419627Y512098D01*
X419610Y512118D01*
X419597Y512141D01*
X419439Y512327D01*
X418438Y513328D01*
X418379Y513375D01*
X418326Y513429D01*
X418243Y513483D01*
X418165Y513545D01*
X418097Y513577D01*
X418033Y513618D01*
X417939Y513651D01*
X417850Y513693D01*
X417776Y513709D01*
X417705Y513735D01*
X417606Y513746D01*
X417509Y513767D01*
X417434Y513766D01*
X417358Y513774D01*
X417260Y513763D01*
X417161Y513761D01*
X417087Y513742D01*
X417012Y513734D01*
X416919Y513700D01*
X416823Y513676D01*
X416755Y513641D01*
X416684Y513615D01*
X416601Y513562D01*
X416513Y513516D01*
X416455Y513467D01*
X416392Y513426D01*
X416323Y513355D01*
X416248Y513290D01*
X416203Y513229D01*
X416150Y513175D01*
X416099Y513090D01*
X416041Y513010D01*
X416011Y512941D01*
X415972Y512875D01*
X415921Y512733D01*
X415903Y512690D01*
X415899Y512672D01*
X415890Y512645D01*
X415880Y512607D01*
X415545Y512028D01*
X415072Y511555D01*
X414493Y511220D01*
X413847Y511047D01*
X408524Y511047D01*
X408524Y520099D01*
X408521Y520125D01*
X408523Y520151D01*
X408501Y520298D01*
X408484Y520445D01*
X408476Y520470D01*
X408472Y520496D01*
X408417Y520633D01*
X408395Y520694D01*
X408397Y520699D01*
X408410Y520722D01*
X408450Y520865D01*
X408495Y521006D01*
X408497Y521032D01*
X408505Y521057D01*
X408524Y521301D01*
X408524Y530353D01*
X413690Y530353D01*
X413716Y530356D01*
X413742Y530354D01*
X413889Y530376D01*
X414036Y530393D01*
X414061Y530401D01*
X414087Y530405D01*
X414225Y530460D01*
X414364Y530510D01*
X414386Y530524D01*
X414411Y530534D01*
X414532Y530619D01*
X414657Y530699D01*
X414675Y530718D01*
X414697Y530733D01*
X414796Y530843D01*
X414899Y530950D01*
X414913Y530972D01*
X414930Y530992D01*
X415002Y531122D01*
X415078Y531249D01*
X415086Y531274D01*
X415099Y531297D01*
X415139Y531440D01*
X415184Y531581D01*
X415186Y531607D01*
X415194Y531632D01*
X415213Y531876D01*
X415213Y535940D01*
X415210Y535966D01*
X415212Y535992D01*
X415190Y536139D01*
X415173Y536286D01*
X415165Y536311D01*
X415161Y536337D01*
X415106Y536475D01*
X415056Y536614D01*
X415042Y536636D01*
X415032Y536661D01*
X414947Y536782D01*
X414867Y536907D01*
X414848Y536925D01*
X414833Y536947D01*
X414723Y537046D01*
X414616Y537149D01*
X414594Y537163D01*
X414574Y537180D01*
X414445Y537252D01*
X414317Y537328D01*
X414292Y537336D01*
X414269Y537349D01*
X414126Y537389D01*
X413985Y537434D01*
X413959Y537436D01*
X413934Y537444D01*
X413690Y537463D01*
X398656Y537463D01*
X397763Y538356D01*
X397763Y553844D01*
X398656Y554737D01*
X414144Y554737D01*
X415354Y553527D01*
X415383Y553481D01*
X415455Y553411D01*
X415520Y553335D01*
X415580Y553291D01*
X415634Y553239D01*
X415720Y553187D01*
X415801Y553128D01*
X415869Y553098D01*
X415933Y553060D01*
X416029Y553029D01*
X416121Y552990D01*
X416194Y552976D01*
X416265Y552954D01*
X416365Y552946D01*
X416464Y552928D01*
X416538Y552932D01*
X416612Y552926D01*
X416712Y552941D01*
X416812Y552946D01*
X416883Y552966D01*
X416957Y552977D01*
X417050Y553015D01*
X417147Y553042D01*
X417212Y553079D01*
X417281Y553106D01*
X417363Y553163D01*
X417451Y553213D01*
X417527Y553278D01*
X417567Y553305D01*
X417591Y553332D01*
X417637Y553371D01*
X419111Y554845D01*
X419205Y554963D01*
X419301Y555077D01*
X419312Y555099D01*
X419327Y555118D01*
X419391Y555253D01*
X419460Y555387D01*
X419466Y555411D01*
X419476Y555433D01*
X419508Y555580D01*
X419544Y555726D01*
X419545Y555750D01*
X419550Y555774D01*
X419547Y555924D01*
X419549Y556074D01*
X419544Y556098D01*
X419544Y556122D01*
X419507Y556268D01*
X419475Y556415D01*
X419465Y556436D01*
X419459Y556460D01*
X419390Y556594D01*
X419325Y556729D01*
X419310Y556748D01*
X419299Y556770D01*
X419202Y556884D01*
X419108Y557002D01*
X419089Y557017D01*
X419073Y557035D01*
X418952Y557125D01*
X418834Y557218D01*
X418808Y557231D01*
X418793Y557242D01*
X418750Y557261D01*
X418617Y557329D01*
X416994Y558001D01*
X415431Y559564D01*
X415424Y559577D01*
X415372Y559634D01*
X415328Y559697D01*
X415256Y559763D01*
X415190Y559835D01*
X415127Y559879D01*
X415070Y559930D01*
X414984Y559978D01*
X414903Y560034D01*
X414832Y560062D01*
X414765Y560099D01*
X414670Y560126D01*
X414579Y560162D01*
X414503Y560173D01*
X414429Y560194D01*
X414281Y560206D01*
X414234Y560212D01*
X414215Y560211D01*
X414185Y560213D01*
X176578Y560213D01*
X176453Y560199D01*
X176326Y560192D01*
X176280Y560179D01*
X176232Y560173D01*
X176113Y560131D01*
X175992Y560096D01*
X175949Y560072D01*
X175904Y560056D01*
X175797Y559987D01*
X175687Y559926D01*
X175641Y559886D01*
X175611Y559867D01*
X175577Y559832D01*
X175501Y559767D01*
X173071Y557337D01*
X173009Y557259D01*
X172939Y557186D01*
X172901Y557122D01*
X172854Y557064D01*
X172811Y556973D01*
X172760Y556887D01*
X172737Y556816D01*
X172705Y556749D01*
X172684Y556651D01*
X172654Y556555D01*
X172648Y556481D01*
X172632Y556408D01*
X172634Y556308D01*
X172626Y556208D01*
X172637Y556134D01*
X172638Y556060D01*
X172663Y555963D01*
X172677Y555863D01*
X172705Y555794D01*
X172723Y555722D01*
X172769Y555633D01*
X172806Y555539D01*
X172849Y555478D01*
X172883Y555412D01*
X172948Y555336D01*
X173005Y555253D01*
X173060Y555203D01*
X173109Y555147D01*
X173189Y555087D01*
X173264Y555020D01*
X173329Y554984D01*
X173389Y554939D01*
X173481Y554900D01*
X173569Y554851D01*
X173641Y554831D01*
X173709Y554801D01*
X173808Y554784D01*
X173904Y554756D01*
X174004Y554748D01*
X174052Y554740D01*
X174088Y554742D01*
X174148Y554737D01*
X185544Y554737D01*
X186437Y553844D01*
X186437Y538211D01*
X186432Y538200D01*
X186369Y538066D01*
X186363Y538040D01*
X186353Y538016D01*
X186327Y537870D01*
X186295Y537725D01*
X186296Y537699D01*
X186291Y537673D01*
X186299Y537525D01*
X186301Y537377D01*
X186308Y537351D01*
X186309Y537325D01*
X186350Y537183D01*
X186386Y537039D01*
X186398Y537015D01*
X186406Y536990D01*
X186478Y536861D01*
X186546Y536729D01*
X186563Y536709D01*
X186576Y536686D01*
X186734Y536500D01*
X189787Y533447D01*
X189787Y421578D01*
X189801Y421453D01*
X189808Y421326D01*
X189821Y421280D01*
X189827Y421232D01*
X189869Y421113D01*
X189904Y420992D01*
X189928Y420949D01*
X189944Y420904D01*
X190013Y420797D01*
X190074Y420687D01*
X190114Y420641D01*
X190133Y420611D01*
X190168Y420577D01*
X190233Y420501D01*
X235113Y375621D01*
X235191Y375559D01*
X235264Y375489D01*
X235328Y375451D01*
X235386Y375404D01*
X235477Y375361D01*
X235563Y375310D01*
X235634Y375287D01*
X235701Y375255D01*
X235799Y375234D01*
X235895Y375204D01*
X235969Y375198D01*
X236042Y375182D01*
X236142Y375184D01*
X236242Y375176D01*
X236316Y375187D01*
X236390Y375188D01*
X236487Y375213D01*
X236587Y375227D01*
X236656Y375255D01*
X236728Y375273D01*
X236818Y375319D01*
X236911Y375356D01*
X236972Y375399D01*
X237038Y375433D01*
X237115Y375498D01*
X237197Y375555D01*
X237247Y375610D01*
X237303Y375659D01*
X237363Y375739D01*
X237430Y375814D01*
X237466Y375879D01*
X237511Y375939D01*
X237550Y376031D01*
X237599Y376119D01*
X237619Y376191D01*
X237649Y376259D01*
X237666Y376358D01*
X237694Y376454D01*
X237702Y376554D01*
X237710Y376602D01*
X237708Y376638D01*
X237713Y376698D01*
X237713Y463422D01*
X237699Y463547D01*
X237692Y463674D01*
X237679Y463720D01*
X237673Y463768D01*
X237631Y463887D01*
X237596Y464008D01*
X237572Y464051D01*
X237556Y464096D01*
X237487Y464202D01*
X237426Y464313D01*
X237386Y464359D01*
X237367Y464389D01*
X237332Y464422D01*
X237267Y464499D01*
X215213Y486553D01*
X215213Y511311D01*
X215199Y511435D01*
X215193Y511560D01*
X215179Y511608D01*
X215173Y511657D01*
X215131Y511775D01*
X215097Y511895D01*
X215073Y511938D01*
X215056Y511985D01*
X214988Y512090D01*
X214927Y512200D01*
X214894Y512236D01*
X214867Y512278D01*
X214777Y512365D01*
X214693Y512458D01*
X214652Y512486D01*
X214616Y512520D01*
X214509Y512584D01*
X214406Y512655D01*
X214360Y512674D01*
X214317Y512699D01*
X214198Y512737D01*
X214082Y512783D01*
X214032Y512790D01*
X213985Y512805D01*
X213861Y512815D01*
X213737Y512833D01*
X213687Y512829D01*
X213638Y512833D01*
X213514Y512815D01*
X213389Y512804D01*
X213342Y512789D01*
X213293Y512782D01*
X213177Y512735D01*
X213058Y512697D01*
X213015Y512671D01*
X212969Y512653D01*
X212867Y512582D01*
X212759Y512517D01*
X212724Y512482D01*
X212683Y512454D01*
X212600Y512361D01*
X212510Y512274D01*
X212474Y512222D01*
X212450Y512195D01*
X212427Y512153D01*
X212371Y512073D01*
X212345Y512028D01*
X211872Y511555D01*
X211293Y511220D01*
X210647Y511047D01*
X205324Y511047D01*
X205324Y520099D01*
X205321Y520125D01*
X205323Y520151D01*
X205301Y520298D01*
X205284Y520445D01*
X205276Y520470D01*
X205272Y520496D01*
X205217Y520633D01*
X205195Y520694D01*
X205197Y520699D01*
X205210Y520722D01*
X205250Y520865D01*
X205295Y521006D01*
X205297Y521032D01*
X205305Y521057D01*
X205324Y521301D01*
X205324Y530353D01*
X210647Y530353D01*
X211293Y530180D01*
X211872Y529845D01*
X212345Y529372D01*
X212371Y529327D01*
X212445Y529227D01*
X212513Y529122D01*
X212549Y529087D01*
X212578Y529048D01*
X212674Y528967D01*
X212764Y528880D01*
X212806Y528854D01*
X212844Y528822D01*
X212956Y528765D01*
X213063Y528701D01*
X213110Y528686D01*
X213154Y528663D01*
X213276Y528633D01*
X213395Y528595D01*
X213444Y528591D01*
X213492Y528579D01*
X213618Y528577D01*
X213742Y528567D01*
X213791Y528574D01*
X213841Y528573D01*
X213963Y528600D01*
X214087Y528618D01*
X214133Y528637D01*
X214182Y528647D01*
X214295Y528701D01*
X214411Y528747D01*
X214452Y528775D01*
X214496Y528797D01*
X214594Y528875D01*
X214697Y528946D01*
X214730Y528983D01*
X214769Y529014D01*
X214847Y529112D01*
X214930Y529205D01*
X214954Y529248D01*
X214985Y529287D01*
X215038Y529400D01*
X215099Y529510D01*
X215112Y529558D01*
X215133Y529603D01*
X215160Y529725D01*
X215194Y529845D01*
X215199Y529908D01*
X215206Y529943D01*
X215205Y529991D01*
X215213Y530089D01*
X215213Y530922D01*
X215199Y531047D01*
X215192Y531174D01*
X215179Y531220D01*
X215173Y531268D01*
X215131Y531387D01*
X215096Y531508D01*
X215072Y531551D01*
X215056Y531596D01*
X214987Y531702D01*
X214926Y531813D01*
X214886Y531859D01*
X214867Y531889D01*
X214832Y531922D01*
X214767Y531999D01*
X209749Y537017D01*
X209650Y537096D01*
X209556Y537180D01*
X209514Y537204D01*
X209476Y537234D01*
X209362Y537288D01*
X209251Y537349D01*
X209204Y537362D01*
X209161Y537383D01*
X209037Y537409D01*
X208916Y537444D01*
X208855Y537449D01*
X208820Y537456D01*
X208772Y537455D01*
X208672Y537463D01*
X195456Y537463D01*
X194563Y538356D01*
X194563Y553844D01*
X195456Y554737D01*
X210944Y554737D01*
X211837Y553844D01*
X211837Y542028D01*
X211851Y541903D01*
X211858Y541776D01*
X211871Y541730D01*
X211877Y541682D01*
X211919Y541563D01*
X211954Y541442D01*
X211978Y541399D01*
X211994Y541354D01*
X212063Y541248D01*
X212124Y541137D01*
X212164Y541091D01*
X212183Y541061D01*
X212218Y541028D01*
X212283Y540951D01*
X219787Y533447D01*
X219787Y530860D01*
X219790Y530834D01*
X219788Y530808D01*
X219810Y530661D01*
X219827Y530514D01*
X219835Y530489D01*
X219839Y530463D01*
X219894Y530325D01*
X219944Y530186D01*
X219958Y530164D01*
X219968Y530139D01*
X220053Y530018D01*
X220133Y529893D01*
X220152Y529875D01*
X220167Y529853D01*
X220277Y529754D01*
X220384Y529651D01*
X220406Y529637D01*
X220426Y529620D01*
X220556Y529548D01*
X220683Y529472D01*
X220708Y529464D01*
X220731Y529451D01*
X220874Y529411D01*
X221015Y529366D01*
X221041Y529364D01*
X221066Y529356D01*
X221310Y529337D01*
X236344Y529337D01*
X237237Y528444D01*
X237237Y512956D01*
X236344Y512063D01*
X233810Y512063D01*
X233784Y512060D01*
X233758Y512062D01*
X233611Y512040D01*
X233464Y512023D01*
X233439Y512015D01*
X233413Y512011D01*
X233275Y511956D01*
X233136Y511906D01*
X233114Y511892D01*
X233089Y511882D01*
X232968Y511797D01*
X232843Y511717D01*
X232825Y511698D01*
X232803Y511683D01*
X232704Y511573D01*
X232601Y511466D01*
X232587Y511444D01*
X232570Y511424D01*
X232498Y511294D01*
X232422Y511167D01*
X232414Y511142D01*
X232401Y511119D01*
X232361Y510976D01*
X232316Y510835D01*
X232314Y510809D01*
X232306Y510784D01*
X232287Y510540D01*
X232287Y486578D01*
X232301Y486453D01*
X232308Y486326D01*
X232321Y486280D01*
X232327Y486232D01*
X232369Y486113D01*
X232404Y485992D01*
X232428Y485949D01*
X232444Y485904D01*
X232513Y485797D01*
X232574Y485687D01*
X232614Y485641D01*
X232633Y485611D01*
X232668Y485577D01*
X232733Y485501D01*
X275005Y443228D01*
X275065Y443181D01*
X275119Y443126D01*
X275202Y443073D01*
X275278Y443012D01*
X275348Y442979D01*
X275412Y442938D01*
X275505Y442905D01*
X275594Y442863D01*
X275668Y442847D01*
X275741Y442821D01*
X275838Y442810D01*
X275934Y442790D01*
X276011Y442791D01*
X276087Y442782D01*
X276185Y442794D01*
X276283Y442796D01*
X276327Y442807D01*
X278556Y442807D01*
X280506Y441999D01*
X281999Y440506D01*
X282807Y438556D01*
X282807Y436444D01*
X281999Y434494D01*
X280506Y433001D01*
X278556Y432193D01*
X276444Y432193D01*
X274494Y433001D01*
X273001Y434494D01*
X272193Y436444D01*
X272193Y438655D01*
X272197Y438669D01*
X272201Y438746D01*
X272215Y438821D01*
X272210Y438919D01*
X272214Y439017D01*
X272201Y439093D01*
X272197Y439169D01*
X272170Y439263D01*
X272152Y439360D01*
X272121Y439431D01*
X272100Y439504D01*
X272052Y439590D01*
X272013Y439680D01*
X271967Y439741D01*
X271930Y439808D01*
X271834Y439922D01*
X271805Y439960D01*
X271791Y439972D01*
X271772Y439995D01*
X244887Y466879D01*
X244809Y466941D01*
X244736Y467011D01*
X244672Y467049D01*
X244614Y467096D01*
X244523Y467139D01*
X244437Y467190D01*
X244366Y467213D01*
X244299Y467245D01*
X244201Y467266D01*
X244105Y467296D01*
X244031Y467302D01*
X243958Y467318D01*
X243858Y467316D01*
X243758Y467324D01*
X243684Y467313D01*
X243610Y467312D01*
X243513Y467287D01*
X243413Y467273D01*
X243344Y467245D01*
X243272Y467227D01*
X243182Y467181D01*
X243089Y467144D01*
X243028Y467101D01*
X242962Y467067D01*
X242885Y467002D01*
X242803Y466945D01*
X242753Y466890D01*
X242697Y466841D01*
X242637Y466761D01*
X242570Y466686D01*
X242534Y466621D01*
X242489Y466561D01*
X242450Y466469D01*
X242401Y466381D01*
X242381Y466309D01*
X242351Y466241D01*
X242334Y466142D01*
X242306Y466046D01*
X242298Y465946D01*
X242290Y465898D01*
X242292Y465862D01*
X242287Y465802D01*
X242287Y379078D01*
X242301Y378953D01*
X242308Y378826D01*
X242321Y378780D01*
X242327Y378732D01*
X242369Y378613D01*
X242404Y378492D01*
X242428Y378449D01*
X242444Y378404D01*
X242513Y378298D01*
X242574Y378187D01*
X242614Y378141D01*
X242633Y378111D01*
X242668Y378078D01*
X242733Y378001D01*
X294723Y326011D01*
X294822Y325932D01*
X294916Y325848D01*
X294958Y325824D01*
X294996Y325794D01*
X295110Y325740D01*
X295221Y325679D01*
X295268Y325666D01*
X295311Y325645D01*
X295435Y325619D01*
X295556Y325584D01*
X295617Y325579D01*
X295652Y325572D01*
X295700Y325573D01*
X295800Y325565D01*
X310404Y325565D01*
X313368Y324337D01*
X315637Y322068D01*
X316865Y319104D01*
X316865Y315896D01*
X315637Y312932D01*
X313368Y310663D01*
X310404Y309435D01*
X294116Y309435D01*
X291152Y310663D01*
X288883Y312932D01*
X287655Y315896D01*
X287655Y319104D01*
X288883Y322068D01*
X289463Y322649D01*
X289480Y322669D01*
X289500Y322686D01*
X289588Y322805D01*
X289680Y322922D01*
X289691Y322945D01*
X289707Y322966D01*
X289765Y323102D01*
X289829Y323237D01*
X289834Y323262D01*
X289845Y323286D01*
X289871Y323432D01*
X289902Y323577D01*
X289902Y323603D01*
X289906Y323629D01*
X289899Y323778D01*
X289896Y323926D01*
X289890Y323951D01*
X289888Y323977D01*
X289847Y324120D01*
X289811Y324264D01*
X289799Y324287D01*
X289792Y324312D01*
X289720Y324441D01*
X289652Y324574D01*
X289635Y324594D01*
X289622Y324616D01*
X289463Y324803D01*
X270155Y344111D01*
X270038Y344204D01*
X269923Y344301D01*
X269901Y344312D01*
X269882Y344327D01*
X269746Y344392D01*
X269613Y344460D01*
X269589Y344466D01*
X269567Y344476D01*
X269420Y344508D01*
X269274Y344544D01*
X269250Y344545D01*
X269227Y344550D01*
X269077Y344547D01*
X268926Y344549D01*
X268902Y344544D01*
X268878Y344544D01*
X268732Y344507D01*
X268585Y344475D01*
X268564Y344465D01*
X268540Y344459D01*
X268406Y344390D01*
X268271Y344325D01*
X268252Y344310D01*
X268230Y344299D01*
X268116Y344202D01*
X267998Y344108D01*
X267983Y344089D01*
X267965Y344073D01*
X267876Y343952D01*
X267782Y343834D01*
X267769Y343808D01*
X267758Y343793D01*
X267739Y343750D01*
X267671Y343617D01*
X266999Y341994D01*
X265506Y340501D01*
X263556Y339693D01*
X261444Y339693D01*
X259494Y340501D01*
X258001Y341994D01*
X257193Y343944D01*
X257193Y346155D01*
X257197Y346169D01*
X257201Y346246D01*
X257215Y346321D01*
X257210Y346419D01*
X257214Y346517D01*
X257201Y346593D01*
X257197Y346669D01*
X257170Y346763D01*
X257152Y346860D01*
X257121Y346931D01*
X257100Y347004D01*
X257052Y347090D01*
X257013Y347180D01*
X256967Y347241D01*
X256930Y347308D01*
X256834Y347422D01*
X256805Y347460D01*
X256791Y347472D01*
X256772Y347495D01*
X186999Y417267D01*
X185213Y419053D01*
X185213Y510540D01*
X185210Y510566D01*
X185212Y510592D01*
X185190Y510739D01*
X185173Y510886D01*
X185165Y510911D01*
X185161Y510937D01*
X185106Y511075D01*
X185056Y511214D01*
X185042Y511236D01*
X185032Y511261D01*
X184947Y511382D01*
X184867Y511507D01*
X184848Y511525D01*
X184833Y511547D01*
X184723Y511646D01*
X184616Y511749D01*
X184594Y511763D01*
X184574Y511780D01*
X184445Y511852D01*
X184317Y511928D01*
X184292Y511936D01*
X184269Y511949D01*
X184126Y511989D01*
X183985Y512034D01*
X183959Y512036D01*
X183934Y512044D01*
X183690Y512063D01*
X170056Y512063D01*
X169163Y512956D01*
X169163Y528444D01*
X170056Y529337D01*
X183690Y529337D01*
X183716Y529340D01*
X183742Y529338D01*
X183889Y529360D01*
X184036Y529377D01*
X184061Y529385D01*
X184087Y529389D01*
X184225Y529444D01*
X184364Y529494D01*
X184386Y529508D01*
X184411Y529518D01*
X184532Y529603D01*
X184657Y529683D01*
X184675Y529702D01*
X184697Y529717D01*
X184796Y529827D01*
X184899Y529934D01*
X184913Y529956D01*
X184930Y529976D01*
X185002Y530106D01*
X185078Y530233D01*
X185086Y530258D01*
X185099Y530281D01*
X185139Y530424D01*
X185184Y530565D01*
X185186Y530591D01*
X185194Y530616D01*
X185213Y530860D01*
X185213Y530922D01*
X185199Y531047D01*
X185192Y531174D01*
X185179Y531220D01*
X185173Y531268D01*
X185131Y531387D01*
X185096Y531508D01*
X185072Y531551D01*
X185056Y531596D01*
X184987Y531702D01*
X184926Y531813D01*
X184886Y531859D01*
X184867Y531889D01*
X184832Y531922D01*
X184767Y531999D01*
X179749Y537017D01*
X179650Y537096D01*
X179556Y537180D01*
X179514Y537204D01*
X179476Y537234D01*
X179362Y537288D01*
X179251Y537349D01*
X179204Y537362D01*
X179161Y537383D01*
X179037Y537409D01*
X178916Y537444D01*
X178855Y537449D01*
X178820Y537456D01*
X178772Y537455D01*
X178672Y537463D01*
X171310Y537463D01*
X171284Y537460D01*
X171258Y537462D01*
X171111Y537440D01*
X170964Y537423D01*
X170939Y537415D01*
X170913Y537411D01*
X170775Y537356D01*
X170636Y537306D01*
X170614Y537292D01*
X170589Y537282D01*
X170468Y537197D01*
X170343Y537117D01*
X170325Y537098D01*
X170303Y537083D01*
X170204Y536973D01*
X170101Y536866D01*
X170087Y536844D01*
X170070Y536824D01*
X169998Y536694D01*
X169922Y536567D01*
X169914Y536542D01*
X169901Y536519D01*
X169861Y536376D01*
X169816Y536235D01*
X169814Y536209D01*
X169806Y536184D01*
X169787Y535940D01*
X169787Y534053D01*
X165233Y529499D01*
X165154Y529400D01*
X165070Y529306D01*
X165046Y529264D01*
X165016Y529226D01*
X164962Y529112D01*
X164901Y529001D01*
X164888Y528954D01*
X164867Y528911D01*
X164841Y528787D01*
X164806Y528666D01*
X164801Y528605D01*
X164794Y528570D01*
X164795Y528522D01*
X164787Y528422D01*
X164787Y521553D01*
X163447Y520213D01*
X162560Y520213D01*
X162534Y520210D01*
X162508Y520212D01*
X162361Y520190D01*
X162214Y520173D01*
X162189Y520165D01*
X162163Y520161D01*
X162025Y520106D01*
X161886Y520056D01*
X161864Y520042D01*
X161839Y520032D01*
X161718Y519947D01*
X161593Y519867D01*
X161575Y519848D01*
X161553Y519833D01*
X161454Y519723D01*
X161351Y519616D01*
X161337Y519594D01*
X161320Y519574D01*
X161248Y519444D01*
X161172Y519317D01*
X161164Y519292D01*
X161151Y519269D01*
X161111Y519126D01*
X161066Y518985D01*
X161064Y518959D01*
X161056Y518934D01*
X161037Y518690D01*
X161037Y512956D01*
X160144Y512063D01*
X144656Y512063D01*
X143763Y512956D01*
X143763Y528444D01*
X144656Y529337D01*
X158690Y529337D01*
X158716Y529340D01*
X158742Y529338D01*
X158889Y529360D01*
X159036Y529377D01*
X159061Y529385D01*
X159087Y529389D01*
X159225Y529444D01*
X159364Y529494D01*
X159386Y529508D01*
X159411Y529518D01*
X159532Y529603D01*
X159657Y529683D01*
X159675Y529702D01*
X159697Y529717D01*
X159796Y529827D01*
X159899Y529934D01*
X159913Y529956D01*
X159930Y529976D01*
X160002Y530106D01*
X160078Y530233D01*
X160086Y530258D01*
X160099Y530281D01*
X160139Y530424D01*
X160184Y530565D01*
X160186Y530591D01*
X160194Y530616D01*
X160213Y530860D01*
X160213Y530947D01*
X164767Y535501D01*
X164846Y535600D01*
X164930Y535694D01*
X164954Y535736D01*
X164984Y535774D01*
X165038Y535888D01*
X165099Y535999D01*
X165112Y536046D01*
X165133Y536089D01*
X165159Y536213D01*
X165194Y536334D01*
X165199Y536395D01*
X165206Y536430D01*
X165205Y536478D01*
X165213Y536578D01*
X165213Y555947D01*
X174053Y564787D01*
X414185Y564787D01*
X414262Y564796D01*
X414338Y564794D01*
X414434Y564815D01*
X414532Y564827D01*
X414604Y564852D01*
X414679Y564869D01*
X414767Y564911D01*
X414860Y564944D01*
X414924Y564986D01*
X414993Y565019D01*
X415070Y565080D01*
X415153Y565133D01*
X415206Y565188D01*
X415266Y565236D01*
X415327Y565313D01*
X415395Y565384D01*
X415418Y565423D01*
X416994Y566999D01*
X418944Y567807D01*
X421056Y567807D01*
X423107Y566957D01*
X423252Y566916D01*
X423395Y566870D01*
X423419Y566868D01*
X423442Y566861D01*
X423593Y566854D01*
X423742Y566842D01*
X423766Y566845D01*
X423790Y566844D01*
X423938Y566871D01*
X424087Y566894D01*
X424109Y566903D01*
X424133Y566907D01*
X424271Y566967D01*
X424411Y567022D01*
X424431Y567036D01*
X424453Y567046D01*
X424574Y567136D01*
X424697Y567221D01*
X424713Y567239D01*
X424733Y567254D01*
X424830Y567369D01*
X424930Y567480D01*
X424942Y567501D01*
X424958Y567520D01*
X425026Y567653D01*
X425099Y567785D01*
X425105Y567808D01*
X425116Y567830D01*
X425153Y567975D01*
X425194Y568120D01*
X425196Y568150D01*
X425201Y568168D01*
X425201Y568215D01*
X425213Y568364D01*
X425213Y578690D01*
X425210Y578716D01*
X425212Y578742D01*
X425190Y578889D01*
X425173Y579036D01*
X425165Y579061D01*
X425161Y579087D01*
X425106Y579225D01*
X425056Y579364D01*
X425042Y579386D01*
X425032Y579411D01*
X424947Y579532D01*
X424867Y579657D01*
X424848Y579675D01*
X424833Y579697D01*
X424723Y579796D01*
X424616Y579899D01*
X424594Y579913D01*
X424574Y579930D01*
X424444Y580002D01*
X424317Y580078D01*
X424292Y580086D01*
X424269Y580099D01*
X424126Y580139D01*
X423985Y580184D01*
X423959Y580186D01*
X423934Y580194D01*
X423690Y580213D01*
X164078Y580213D01*
X163953Y580199D01*
X163826Y580192D01*
X163780Y580179D01*
X163732Y580173D01*
X163613Y580131D01*
X163492Y580096D01*
X163449Y580072D01*
X163404Y580056D01*
X163298Y579987D01*
X163187Y579926D01*
X163141Y579886D01*
X163111Y579867D01*
X163078Y579832D01*
X163001Y579767D01*
X140233Y556999D01*
X140154Y556900D01*
X140070Y556806D01*
X140046Y556764D01*
X140016Y556726D01*
X139962Y556612D01*
X139901Y556501D01*
X139888Y556454D01*
X139867Y556411D01*
X139841Y556287D01*
X139806Y556166D01*
X139801Y556105D01*
X139794Y556070D01*
X139795Y556022D01*
X139787Y555922D01*
X139787Y554068D01*
X139804Y553919D01*
X139816Y553770D01*
X139824Y553746D01*
X139827Y553722D01*
X139877Y553581D01*
X139923Y553438D01*
X139936Y553417D01*
X139944Y553394D01*
X140025Y553268D01*
X140102Y553139D01*
X140120Y553122D01*
X140133Y553101D01*
X140241Y552997D01*
X140345Y552889D01*
X140366Y552876D01*
X140384Y552859D01*
X140512Y552782D01*
X140638Y552701D01*
X140662Y552692D01*
X140683Y552680D01*
X140825Y552634D01*
X140966Y552584D01*
X140991Y552581D01*
X141015Y552573D01*
X141164Y552561D01*
X141313Y552545D01*
X141337Y552547D01*
X141362Y552545D01*
X141510Y552568D01*
X141659Y552585D01*
X141682Y552593D01*
X141707Y552597D01*
X141846Y552653D01*
X141987Y552703D01*
X142008Y552717D01*
X142031Y552726D01*
X142153Y552811D01*
X142279Y552893D01*
X142297Y552911D01*
X142317Y552925D01*
X142417Y553036D01*
X142521Y553144D01*
X142534Y553165D01*
X142550Y553184D01*
X142623Y553315D01*
X142699Y553443D01*
X142709Y553472D01*
X142719Y553489D01*
X142732Y553534D01*
X142781Y553674D01*
X142920Y554193D01*
X143255Y554772D01*
X143728Y555245D01*
X144307Y555580D01*
X144953Y555753D01*
X150276Y555753D01*
X150276Y546701D01*
X150279Y546675D01*
X150277Y546649D01*
X150299Y546502D01*
X150316Y546355D01*
X150324Y546330D01*
X150328Y546304D01*
X150383Y546167D01*
X150405Y546106D01*
X150403Y546101D01*
X150390Y546078D01*
X150350Y545935D01*
X150305Y545794D01*
X150302Y545768D01*
X150295Y545743D01*
X150276Y545499D01*
X150276Y536447D01*
X144953Y536447D01*
X144307Y536620D01*
X143728Y536955D01*
X143255Y537428D01*
X142920Y538007D01*
X142781Y538526D01*
X142726Y538666D01*
X142676Y538806D01*
X142662Y538827D01*
X142653Y538850D01*
X142568Y538974D01*
X142487Y539099D01*
X142469Y539117D01*
X142455Y539137D01*
X142344Y539237D01*
X142236Y539341D01*
X142215Y539354D01*
X142196Y539371D01*
X142066Y539443D01*
X141937Y539520D01*
X141913Y539528D01*
X141892Y539540D01*
X141748Y539581D01*
X141605Y539627D01*
X141580Y539629D01*
X141557Y539635D01*
X141407Y539642D01*
X141258Y539655D01*
X141233Y539651D01*
X141208Y539652D01*
X141061Y539625D01*
X140913Y539603D01*
X140890Y539594D01*
X140866Y539589D01*
X140728Y539529D01*
X140589Y539474D01*
X140569Y539460D01*
X140546Y539450D01*
X140426Y539361D01*
X140303Y539275D01*
X140287Y539257D01*
X140267Y539242D01*
X140170Y539127D01*
X140070Y539016D01*
X140058Y538995D01*
X140042Y538976D01*
X139974Y538843D01*
X139901Y538711D01*
X139894Y538687D01*
X139883Y538665D01*
X139847Y538520D01*
X139806Y538376D01*
X139804Y538346D01*
X139799Y538327D01*
X139799Y538279D01*
X139787Y538132D01*
X139787Y531553D01*
X138001Y529767D01*
X136083Y527849D01*
X136004Y527750D01*
X135920Y527656D01*
X135896Y527614D01*
X135866Y527576D01*
X135812Y527462D01*
X135751Y527351D01*
X135738Y527305D01*
X135717Y527261D01*
X135691Y527137D01*
X135656Y527016D01*
X135651Y526955D01*
X135644Y526920D01*
X135645Y526872D01*
X135637Y526772D01*
X135637Y512956D01*
X134744Y512063D01*
X119256Y512063D01*
X118363Y512956D01*
X118363Y528444D01*
X119256Y529337D01*
X130472Y529337D01*
X130597Y529351D01*
X130724Y529358D01*
X130770Y529371D01*
X130818Y529377D01*
X130937Y529419D01*
X131059Y529454D01*
X131101Y529478D01*
X131146Y529494D01*
X131252Y529563D01*
X131363Y529624D01*
X131409Y529664D01*
X131439Y529683D01*
X131473Y529718D01*
X131549Y529783D01*
X134767Y533001D01*
X134846Y533100D01*
X134930Y533194D01*
X134954Y533236D01*
X134984Y533274D01*
X135038Y533388D01*
X135099Y533499D01*
X135112Y533546D01*
X135133Y533589D01*
X135159Y533713D01*
X135194Y533834D01*
X135199Y533895D01*
X135206Y533930D01*
X135205Y533978D01*
X135213Y534078D01*
X135213Y535940D01*
X135210Y535966D01*
X135212Y535992D01*
X135190Y536139D01*
X135173Y536286D01*
X135165Y536311D01*
X135161Y536337D01*
X135106Y536475D01*
X135056Y536614D01*
X135042Y536636D01*
X135032Y536661D01*
X134947Y536782D01*
X134867Y536907D01*
X134848Y536925D01*
X134833Y536947D01*
X134723Y537046D01*
X134616Y537149D01*
X134594Y537163D01*
X134574Y537180D01*
X134445Y537252D01*
X134317Y537328D01*
X134292Y537336D01*
X134269Y537349D01*
X134126Y537389D01*
X133985Y537434D01*
X133959Y537436D01*
X133934Y537444D01*
X133690Y537463D01*
X119256Y537463D01*
X118363Y538356D01*
X118363Y553844D01*
X119256Y554737D01*
X133690Y554737D01*
X133716Y554740D01*
X133742Y554738D01*
X133889Y554760D01*
X134036Y554777D01*
X134061Y554785D01*
X134087Y554789D01*
X134225Y554844D01*
X134364Y554894D01*
X134386Y554908D01*
X134411Y554918D01*
X134532Y555003D01*
X134657Y555083D01*
X134675Y555102D01*
X134697Y555117D01*
X134796Y555227D01*
X134899Y555334D01*
X134913Y555356D01*
X134930Y555376D01*
X135002Y555506D01*
X135078Y555633D01*
X135086Y555658D01*
X135099Y555681D01*
X135139Y555824D01*
X135184Y555965D01*
X135186Y555991D01*
X135194Y556016D01*
X135213Y556260D01*
X135213Y558447D01*
X161553Y584787D01*
X793447Y584787D01*
X794787Y583447D01*
X794787Y239948D01*
X794790Y239922D01*
X794788Y239896D01*
X794810Y239749D01*
X794827Y239602D01*
X794835Y239577D01*
X794839Y239551D01*
X794894Y239413D01*
X794944Y239274D01*
X794958Y239252D01*
X794968Y239227D01*
X795053Y239106D01*
X795133Y238981D01*
X795152Y238963D01*
X795167Y238941D01*
X795277Y238842D01*
X795384Y238739D01*
X795406Y238725D01*
X795426Y238708D01*
X795556Y238636D01*
X795683Y238560D01*
X795708Y238552D01*
X795731Y238539D01*
X795874Y238499D01*
X796015Y238454D01*
X796041Y238452D01*
X796066Y238444D01*
X796310Y238425D01*
X801732Y238425D01*
X802625Y237532D01*
X802625Y221268D01*
X801732Y220375D01*
X785468Y220375D01*
X784575Y221268D01*
X784575Y237532D01*
X785468Y238425D01*
X788690Y238425D01*
X788716Y238428D01*
X788742Y238426D01*
X788889Y238448D01*
X789036Y238465D01*
X789061Y238473D01*
X789087Y238477D01*
X789225Y238532D01*
X789364Y238582D01*
X789386Y238596D01*
X789411Y238606D01*
X789532Y238691D01*
X789657Y238771D01*
X789675Y238790D01*
X789697Y238805D01*
X789796Y238915D01*
X789899Y239022D01*
X789913Y239044D01*
X789930Y239064D01*
X790002Y239194D01*
X790078Y239321D01*
X790086Y239346D01*
X790099Y239369D01*
X790139Y239512D01*
X790184Y239653D01*
X790186Y239679D01*
X790194Y239704D01*
X790213Y239948D01*
X790213Y578690D01*
X790210Y578716D01*
X790212Y578742D01*
X790190Y578889D01*
X790173Y579036D01*
X790165Y579061D01*
X790161Y579087D01*
X790106Y579225D01*
X790056Y579364D01*
X790042Y579386D01*
X790032Y579411D01*
X789947Y579532D01*
X789867Y579657D01*
X789848Y579675D01*
X789833Y579697D01*
X789723Y579796D01*
X789616Y579899D01*
X789594Y579913D01*
X789574Y579930D01*
X789444Y580002D01*
X789317Y580078D01*
X789292Y580086D01*
X789269Y580099D01*
X789126Y580139D01*
X788985Y580184D01*
X788959Y580186D01*
X788934Y580194D01*
X788690Y580213D01*
X731698Y580213D01*
X731598Y580202D01*
X731498Y580200D01*
X731426Y580182D01*
X731352Y580173D01*
X731257Y580140D01*
X731160Y580115D01*
X731094Y580081D01*
X731024Y580056D01*
X730939Y580001D01*
X730850Y579955D01*
X730793Y579907D01*
X730731Y579867D01*
X730661Y579795D01*
X730585Y579730D01*
X730541Y579670D01*
X730489Y579616D01*
X730437Y579530D01*
X730378Y579449D01*
X730348Y579381D01*
X730310Y579317D01*
X730279Y579221D01*
X730240Y579129D01*
X730226Y579056D01*
X730204Y578985D01*
X730196Y578885D01*
X730178Y578786D01*
X730182Y578712D01*
X730176Y578638D01*
X730191Y578538D01*
X730196Y578438D01*
X730216Y578367D01*
X730227Y578293D01*
X730265Y578200D01*
X730292Y578103D01*
X730329Y578038D01*
X730356Y577969D01*
X730413Y577887D01*
X730463Y577799D01*
X730528Y577723D01*
X730555Y577683D01*
X730582Y577659D01*
X730621Y577613D01*
X734787Y573447D01*
X734787Y549078D01*
X734801Y548953D01*
X734808Y548826D01*
X734821Y548780D01*
X734827Y548732D01*
X734869Y548613D01*
X734904Y548492D01*
X734928Y548449D01*
X734944Y548404D01*
X735013Y548297D01*
X735074Y548187D01*
X735114Y548141D01*
X735133Y548111D01*
X735168Y548077D01*
X735233Y548001D01*
X765005Y518228D01*
X765065Y518181D01*
X765119Y518126D01*
X765202Y518073D01*
X765278Y518012D01*
X765348Y517979D01*
X765412Y517938D01*
X765505Y517905D01*
X765594Y517863D01*
X765668Y517847D01*
X765741Y517821D01*
X765838Y517810D01*
X765934Y517790D01*
X766011Y517791D01*
X766087Y517782D01*
X766185Y517794D01*
X766283Y517796D01*
X766327Y517807D01*
X768556Y517807D01*
X770506Y516999D01*
X771999Y515506D01*
X772807Y513556D01*
X772807Y511444D01*
X771999Y509494D01*
X770506Y508001D01*
X768556Y507193D01*
X766444Y507193D01*
X764494Y508001D01*
X763001Y509494D01*
X762193Y511444D01*
X762193Y513655D01*
X762197Y513669D01*
X762201Y513746D01*
X762215Y513821D01*
X762210Y513919D01*
X762214Y514017D01*
X762201Y514093D01*
X762197Y514169D01*
X762170Y514263D01*
X762152Y514360D01*
X762121Y514431D01*
X762100Y514504D01*
X762052Y514590D01*
X762013Y514680D01*
X761967Y514741D01*
X761930Y514808D01*
X761834Y514922D01*
X761805Y514960D01*
X761791Y514972D01*
X761772Y514995D01*
X732387Y544379D01*
X732309Y544441D01*
X732236Y544511D01*
X732172Y544549D01*
X732114Y544596D01*
X732023Y544639D01*
X731937Y544690D01*
X731866Y544713D01*
X731799Y544745D01*
X731701Y544766D01*
X731605Y544796D01*
X731531Y544802D01*
X731458Y544818D01*
X731358Y544816D01*
X731258Y544824D01*
X731184Y544813D01*
X731110Y544812D01*
X731013Y544787D01*
X730913Y544773D01*
X730844Y544745D01*
X730772Y544727D01*
X730682Y544681D01*
X730589Y544644D01*
X730528Y544601D01*
X730462Y544567D01*
X730385Y544502D01*
X730303Y544445D01*
X730253Y544390D01*
X730197Y544341D01*
X730137Y544261D01*
X730070Y544186D01*
X730034Y544121D01*
X729989Y544061D01*
X729950Y543969D01*
X729901Y543881D01*
X729881Y543809D01*
X729851Y543741D01*
X729834Y543642D01*
X729806Y543546D01*
X729798Y543446D01*
X729790Y543398D01*
X729792Y543362D01*
X729787Y543302D01*
X729787Y526578D01*
X729801Y526453D01*
X729808Y526326D01*
X729821Y526280D01*
X729827Y526232D01*
X729869Y526113D01*
X729904Y525992D01*
X729928Y525949D01*
X729944Y525904D01*
X730013Y525798D01*
X730074Y525687D01*
X730114Y525641D01*
X730133Y525611D01*
X730168Y525578D01*
X730233Y525501D01*
X769787Y485947D01*
X769787Y239948D01*
X769790Y239922D01*
X769788Y239896D01*
X769810Y239749D01*
X769827Y239602D01*
X769835Y239577D01*
X769839Y239551D01*
X769894Y239413D01*
X769944Y239274D01*
X769958Y239252D01*
X769968Y239227D01*
X770053Y239106D01*
X770133Y238981D01*
X770152Y238963D01*
X770167Y238941D01*
X770277Y238842D01*
X770384Y238739D01*
X770406Y238725D01*
X770426Y238708D01*
X770556Y238636D01*
X770683Y238560D01*
X770708Y238552D01*
X770731Y238539D01*
X770874Y238499D01*
X771015Y238454D01*
X771041Y238452D01*
X771066Y238444D01*
X771310Y238425D01*
X776432Y238425D01*
X777325Y237532D01*
X777325Y221268D01*
X776432Y220375D01*
X760168Y220375D01*
X759275Y221268D01*
X759275Y237532D01*
X760168Y238425D01*
X763690Y238425D01*
X763716Y238428D01*
X763742Y238426D01*
X763889Y238448D01*
X764036Y238465D01*
X764061Y238473D01*
X764087Y238477D01*
X764225Y238532D01*
X764364Y238582D01*
X764386Y238596D01*
X764411Y238606D01*
X764532Y238691D01*
X764657Y238771D01*
X764675Y238790D01*
X764697Y238805D01*
X764796Y238915D01*
X764899Y239022D01*
X764913Y239044D01*
X764930Y239064D01*
X765002Y239194D01*
X765078Y239321D01*
X765086Y239346D01*
X765099Y239369D01*
X765139Y239512D01*
X765184Y239653D01*
X765186Y239679D01*
X765194Y239704D01*
X765213Y239948D01*
X765213Y279136D01*
X765196Y279284D01*
X765184Y279435D01*
X765176Y279458D01*
X765173Y279482D01*
X765123Y279623D01*
X765077Y279767D01*
X765064Y279787D01*
X765056Y279810D01*
X764974Y279936D01*
X764897Y280065D01*
X764880Y280083D01*
X764867Y280103D01*
X764759Y280207D01*
X764654Y280315D01*
X764634Y280328D01*
X764616Y280345D01*
X764487Y280422D01*
X764361Y280503D01*
X764338Y280512D01*
X764317Y280524D01*
X764174Y280570D01*
X764032Y280620D01*
X764008Y280623D01*
X763985Y280630D01*
X763836Y280642D01*
X763686Y280659D01*
X763662Y280656D01*
X763638Y280658D01*
X763489Y280636D01*
X763340Y280618D01*
X763312Y280609D01*
X763293Y280606D01*
X763249Y280589D01*
X763107Y280543D01*
X761056Y279693D01*
X758944Y279693D01*
X756893Y280543D01*
X756748Y280584D01*
X756605Y280630D01*
X756581Y280632D01*
X756558Y280639D01*
X756407Y280646D01*
X756258Y280658D01*
X756234Y280655D01*
X756210Y280656D01*
X756062Y280629D01*
X755913Y280606D01*
X755891Y280597D01*
X755867Y280593D01*
X755729Y280533D01*
X755589Y280478D01*
X755569Y280464D01*
X755547Y280454D01*
X755426Y280364D01*
X755303Y280279D01*
X755287Y280261D01*
X755267Y280246D01*
X755170Y280131D01*
X755070Y280020D01*
X755058Y279999D01*
X755042Y279980D01*
X754974Y279847D01*
X754901Y279715D01*
X754895Y279692D01*
X754884Y279670D01*
X754847Y279525D01*
X754806Y279380D01*
X754804Y279350D01*
X754799Y279332D01*
X754799Y279285D01*
X754787Y279136D01*
X754787Y189053D01*
X740621Y174887D01*
X740559Y174809D01*
X740489Y174736D01*
X740451Y174672D01*
X740404Y174614D01*
X740361Y174523D01*
X740310Y174437D01*
X740287Y174366D01*
X740255Y174299D01*
X740234Y174201D01*
X740204Y174105D01*
X740198Y174031D01*
X740182Y173958D01*
X740184Y173858D01*
X740176Y173758D01*
X740187Y173684D01*
X740188Y173610D01*
X740213Y173513D01*
X740227Y173413D01*
X740255Y173344D01*
X740273Y173272D01*
X740319Y173182D01*
X740356Y173089D01*
X740399Y173028D01*
X740433Y172962D01*
X740498Y172885D01*
X740555Y172803D01*
X740610Y172753D01*
X740659Y172697D01*
X740739Y172637D01*
X740814Y172570D01*
X740879Y172534D01*
X740939Y172489D01*
X741031Y172450D01*
X741119Y172401D01*
X741191Y172381D01*
X741259Y172351D01*
X741358Y172334D01*
X741454Y172306D01*
X741554Y172298D01*
X741602Y172290D01*
X741638Y172292D01*
X741698Y172287D01*
X785922Y172287D01*
X786047Y172301D01*
X786174Y172308D01*
X786220Y172321D01*
X786268Y172327D01*
X786387Y172369D01*
X786508Y172404D01*
X786551Y172428D01*
X786596Y172444D01*
X786702Y172513D01*
X786813Y172574D01*
X786859Y172614D01*
X786889Y172633D01*
X786922Y172668D01*
X786999Y172733D01*
X832267Y218001D01*
X832346Y218100D01*
X832430Y218194D01*
X832454Y218236D01*
X832484Y218274D01*
X832538Y218388D01*
X832599Y218499D01*
X832612Y218546D01*
X832633Y218589D01*
X832659Y218713D01*
X832694Y218834D01*
X832699Y218895D01*
X832706Y218930D01*
X832705Y218978D01*
X832713Y219078D01*
X832713Y228447D01*
X834499Y230233D01*
X851772Y247505D01*
X851819Y247565D01*
X851874Y247619D01*
X851927Y247702D01*
X851988Y247778D01*
X852021Y247848D01*
X852062Y247912D01*
X852095Y248005D01*
X852137Y248094D01*
X852153Y248168D01*
X852179Y248241D01*
X852190Y248338D01*
X852210Y248434D01*
X852209Y248511D01*
X852218Y248587D01*
X852206Y248685D01*
X852204Y248783D01*
X852193Y248827D01*
X852193Y251056D01*
X853001Y253006D01*
X854494Y254499D01*
X856444Y255307D01*
X858556Y255307D01*
X860506Y254499D01*
X861999Y253006D01*
X862807Y251056D01*
X862807Y248944D01*
X861999Y246994D01*
X860506Y245501D01*
X858556Y244693D01*
X856345Y244693D01*
X856331Y244697D01*
X856254Y244701D01*
X856179Y244715D01*
X856081Y244710D01*
X855983Y244714D01*
X855907Y244701D01*
X855831Y244697D01*
X855737Y244670D01*
X855640Y244652D01*
X855569Y244621D01*
X855496Y244600D01*
X855410Y244552D01*
X855320Y244513D01*
X855259Y244467D01*
X855192Y244430D01*
X855078Y244334D01*
X855040Y244305D01*
X855028Y244291D01*
X855005Y244272D01*
X837733Y226999D01*
X837656Y226902D01*
X837601Y226845D01*
X837593Y226832D01*
X837570Y226806D01*
X837546Y226764D01*
X837516Y226726D01*
X837466Y226619D01*
X837422Y226546D01*
X837416Y226529D01*
X837401Y226501D01*
X837388Y226454D01*
X837367Y226411D01*
X837344Y226302D01*
X837316Y226214D01*
X837314Y226192D01*
X837306Y226166D01*
X837301Y226105D01*
X837294Y226070D01*
X837295Y226022D01*
X837287Y225922D01*
X837287Y216553D01*
X788447Y167713D01*
X739078Y167713D01*
X738953Y167699D01*
X738826Y167692D01*
X738780Y167679D01*
X738732Y167673D01*
X738613Y167631D01*
X738492Y167596D01*
X738449Y167572D01*
X738404Y167556D01*
X738297Y167487D01*
X738187Y167426D01*
X738141Y167386D01*
X738111Y167367D01*
X738077Y167332D01*
X738001Y167267D01*
X681412Y110678D01*
X681396Y110658D01*
X681376Y110641D01*
X681287Y110521D01*
X681196Y110405D01*
X681184Y110382D01*
X681169Y110360D01*
X681110Y110224D01*
X681047Y110090D01*
X681041Y110064D01*
X681031Y110040D01*
X681004Y109894D01*
X680973Y109749D01*
X680974Y109723D01*
X680969Y109697D01*
X680977Y109549D01*
X680979Y109401D01*
X680986Y109376D01*
X680987Y109349D01*
X681028Y109207D01*
X681064Y109063D01*
X681076Y109040D01*
X681084Y109014D01*
X681156Y108885D01*
X681165Y108868D01*
X681165Y96310D01*
X681168Y96284D01*
X681166Y96258D01*
X681188Y96111D01*
X681205Y95964D01*
X681213Y95939D01*
X681217Y95913D01*
X681272Y95775D01*
X681322Y95636D01*
X681336Y95614D01*
X681346Y95589D01*
X681431Y95468D01*
X681511Y95343D01*
X681530Y95325D01*
X681545Y95303D01*
X681655Y95204D01*
X681762Y95101D01*
X681784Y95087D01*
X681804Y95070D01*
X681934Y94998D01*
X682061Y94922D01*
X682086Y94914D01*
X682109Y94901D01*
X682252Y94861D01*
X682393Y94816D01*
X682419Y94814D01*
X682444Y94806D01*
X682688Y94787D01*
X798447Y94787D01*
X832923Y60311D01*
X833022Y60232D01*
X833116Y60148D01*
X833158Y60124D01*
X833196Y60094D01*
X833310Y60040D01*
X833421Y59979D01*
X833468Y59966D01*
X833511Y59945D01*
X833635Y59919D01*
X833756Y59884D01*
X833817Y59879D01*
X833852Y59872D01*
X833900Y59873D01*
X834000Y59865D01*
X846372Y59865D01*
X847265Y58972D01*
X847265Y42628D01*
X846372Y41735D01*
X830028Y41735D01*
X829135Y42628D01*
X829135Y57000D01*
X829121Y57125D01*
X829114Y57252D01*
X829101Y57298D01*
X829095Y57346D01*
X829053Y57465D01*
X829018Y57586D01*
X828994Y57629D01*
X828978Y57674D01*
X828909Y57780D01*
X828848Y57891D01*
X828808Y57937D01*
X828789Y57967D01*
X828754Y58000D01*
X828689Y58077D01*
X796999Y89767D01*
X796900Y89846D01*
X796806Y89930D01*
X796764Y89954D01*
X796726Y89984D01*
X796612Y90038D01*
X796501Y90099D01*
X796454Y90112D01*
X796411Y90133D01*
X796287Y90159D01*
X796166Y90194D01*
X796105Y90199D01*
X796070Y90206D01*
X796022Y90205D01*
X795922Y90213D01*
X736698Y90213D01*
X736598Y90202D01*
X736498Y90200D01*
X736426Y90182D01*
X736352Y90173D01*
X736257Y90140D01*
X736160Y90115D01*
X736094Y90081D01*
X736024Y90056D01*
X735939Y90001D01*
X735850Y89955D01*
X735793Y89907D01*
X735731Y89867D01*
X735661Y89795D01*
X735585Y89730D01*
X735541Y89670D01*
X735489Y89616D01*
X735437Y89530D01*
X735378Y89449D01*
X735348Y89381D01*
X735310Y89317D01*
X735279Y89221D01*
X735240Y89129D01*
X735226Y89056D01*
X735204Y88985D01*
X735196Y88885D01*
X735178Y88786D01*
X735182Y88712D01*
X735176Y88638D01*
X735191Y88538D01*
X735196Y88438D01*
X735216Y88367D01*
X735227Y88293D01*
X735265Y88200D01*
X735292Y88103D01*
X735329Y88038D01*
X735356Y87969D01*
X735413Y87887D01*
X735463Y87799D01*
X735528Y87723D01*
X735555Y87683D01*
X735582Y87659D01*
X735621Y87613D01*
X754787Y68447D01*
X754787Y38810D01*
X754790Y38784D01*
X754788Y38758D01*
X754810Y38611D01*
X754827Y38464D01*
X754835Y38439D01*
X754839Y38413D01*
X754894Y38275D01*
X754944Y38136D01*
X754958Y38114D01*
X754968Y38089D01*
X755053Y37968D01*
X755133Y37843D01*
X755152Y37825D01*
X755167Y37803D01*
X755277Y37704D01*
X755384Y37601D01*
X755406Y37587D01*
X755426Y37570D01*
X755556Y37498D01*
X755683Y37422D01*
X755708Y37414D01*
X755731Y37401D01*
X755874Y37361D01*
X756015Y37316D01*
X756041Y37314D01*
X756066Y37306D01*
X756310Y37287D01*
X870922Y37287D01*
X871047Y37301D01*
X871174Y37308D01*
X871220Y37321D01*
X871268Y37327D01*
X871387Y37369D01*
X871508Y37404D01*
X871551Y37428D01*
X871596Y37444D01*
X871702Y37513D01*
X871813Y37574D01*
X871859Y37614D01*
X871889Y37633D01*
X871922Y37668D01*
X871999Y37733D01*
X873401Y39135D01*
X873463Y39214D01*
X873533Y39286D01*
X873571Y39350D01*
X873618Y39408D01*
X873661Y39499D01*
X873712Y39585D01*
X873735Y39656D01*
X873767Y39723D01*
X873788Y39821D01*
X873818Y39917D01*
X873824Y39991D01*
X873840Y40064D01*
X873838Y40164D01*
X873846Y40264D01*
X873835Y40338D01*
X873834Y40412D01*
X873809Y40509D01*
X873795Y40609D01*
X873794Y40609D01*
X873822Y40604D01*
X873893Y40582D01*
X873993Y40574D01*
X874092Y40556D01*
X874166Y40560D01*
X874240Y40554D01*
X874340Y40569D01*
X874440Y40574D01*
X874511Y40594D01*
X874585Y40605D01*
X874678Y40643D01*
X874775Y40670D01*
X874840Y40707D01*
X874909Y40734D01*
X874991Y40791D01*
X875079Y40841D01*
X875155Y40906D01*
X875195Y40933D01*
X875219Y40960D01*
X875265Y40999D01*
X879489Y45223D01*
X879568Y45322D01*
X879652Y45416D01*
X879676Y45458D01*
X879706Y45496D01*
X879760Y45610D01*
X879821Y45721D01*
X879834Y45767D01*
X879855Y45811D01*
X879881Y45935D01*
X879916Y46056D01*
X879921Y46117D01*
X879928Y46152D01*
X879927Y46200D01*
X879935Y46300D01*
X879935Y58972D01*
X880828Y59865D01*
X897172Y59865D01*
X898065Y58972D01*
X898065Y42628D01*
X897172Y41735D01*
X883100Y41735D01*
X882975Y41721D01*
X882848Y41714D01*
X882802Y41701D01*
X882754Y41695D01*
X882635Y41653D01*
X882513Y41618D01*
X882471Y41594D01*
X882426Y41578D01*
X882320Y41509D01*
X882209Y41448D01*
X882163Y41408D01*
X882133Y41389D01*
X882099Y41354D01*
X882023Y41289D01*
X875233Y34499D01*
X873447Y32713D01*
X751553Y32713D01*
X750213Y34053D01*
X750213Y65922D01*
X750199Y66047D01*
X750192Y66174D01*
X750179Y66220D01*
X750173Y66268D01*
X750131Y66387D01*
X750096Y66508D01*
X750072Y66551D01*
X750056Y66596D01*
X749987Y66702D01*
X749926Y66813D01*
X749886Y66859D01*
X749867Y66889D01*
X749832Y66922D01*
X749767Y66999D01*
X731999Y84767D01*
X731900Y84846D01*
X731806Y84930D01*
X731764Y84954D01*
X731726Y84984D01*
X731612Y85038D01*
X731501Y85099D01*
X731454Y85112D01*
X731411Y85133D01*
X731287Y85159D01*
X731166Y85194D01*
X731105Y85199D01*
X731070Y85206D01*
X731022Y85205D01*
X730922Y85213D01*
X682688Y85213D01*
X682662Y85210D01*
X682636Y85212D01*
X682489Y85190D01*
X682342Y85173D01*
X682317Y85165D01*
X682291Y85161D01*
X682153Y85106D01*
X682014Y85056D01*
X681992Y85042D01*
X681967Y85032D01*
X681846Y84947D01*
X681721Y84867D01*
X681703Y84848D01*
X681681Y84833D01*
X681582Y84723D01*
X681479Y84616D01*
X681465Y84594D01*
X681448Y84574D01*
X681376Y84444D01*
X681300Y84317D01*
X681292Y84292D01*
X681279Y84269D01*
X681239Y84126D01*
X681194Y83985D01*
X681192Y83959D01*
X681184Y83934D01*
X681165Y83690D01*
X681165Y69028D01*
X680272Y68135D01*
X665928Y68135D01*
X665035Y69028D01*
X665035Y83690D01*
X665032Y83716D01*
X665034Y83742D01*
X665012Y83889D01*
X664995Y84036D01*
X664987Y84061D01*
X664983Y84087D01*
X664928Y84225D01*
X664878Y84364D01*
X664864Y84386D01*
X664854Y84411D01*
X664769Y84532D01*
X664689Y84657D01*
X664670Y84675D01*
X664655Y84697D01*
X664545Y84796D01*
X664438Y84899D01*
X664416Y84913D01*
X664396Y84930D01*
X664266Y85002D01*
X664139Y85078D01*
X664114Y85086D01*
X664091Y85099D01*
X663948Y85139D01*
X663807Y85184D01*
X663781Y85186D01*
X663756Y85194D01*
X663512Y85213D01*
X657288Y85213D01*
X657262Y85210D01*
X657236Y85212D01*
X657089Y85190D01*
X656942Y85173D01*
X656917Y85165D01*
X656891Y85161D01*
X656753Y85106D01*
X656614Y85056D01*
X656592Y85042D01*
X656567Y85032D01*
X656446Y84947D01*
X656321Y84867D01*
X656303Y84848D01*
X656281Y84833D01*
X656182Y84723D01*
X656079Y84616D01*
X656065Y84594D01*
X656048Y84574D01*
X655976Y84444D01*
X655900Y84317D01*
X655892Y84292D01*
X655879Y84269D01*
X655839Y84126D01*
X655794Y83985D01*
X655792Y83959D01*
X655784Y83934D01*
X655765Y83690D01*
X655765Y69028D01*
X654872Y68135D01*
X640528Y68135D01*
X639635Y69028D01*
X639635Y83690D01*
X639632Y83716D01*
X639634Y83742D01*
X639612Y83889D01*
X639595Y84036D01*
X639587Y84061D01*
X639583Y84087D01*
X639528Y84225D01*
X639478Y84364D01*
X639464Y84386D01*
X639454Y84411D01*
X639369Y84532D01*
X639289Y84657D01*
X639270Y84675D01*
X639255Y84697D01*
X639145Y84796D01*
X639038Y84899D01*
X639016Y84913D01*
X638996Y84930D01*
X638866Y85002D01*
X638739Y85078D01*
X638714Y85086D01*
X638691Y85099D01*
X638548Y85139D01*
X638407Y85184D01*
X638381Y85186D01*
X638356Y85194D01*
X638112Y85213D01*
X617138Y85213D01*
X617112Y85210D01*
X617086Y85212D01*
X616939Y85190D01*
X616792Y85173D01*
X616767Y85165D01*
X616741Y85161D01*
X616603Y85106D01*
X616464Y85056D01*
X616442Y85042D01*
X616417Y85032D01*
X616296Y84947D01*
X616171Y84867D01*
X616153Y84848D01*
X616131Y84833D01*
X616032Y84723D01*
X615929Y84616D01*
X615915Y84594D01*
X615898Y84574D01*
X615826Y84444D01*
X615750Y84317D01*
X615742Y84292D01*
X615729Y84269D01*
X615689Y84126D01*
X615644Y83985D01*
X615642Y83959D01*
X615634Y83934D01*
X615615Y83690D01*
X615615Y68778D01*
X614722Y67885D01*
X599878Y67885D01*
X598985Y68778D01*
X598985Y83690D01*
X598982Y83716D01*
X598984Y83742D01*
X598962Y83889D01*
X598945Y84036D01*
X598937Y84061D01*
X598933Y84087D01*
X598878Y84225D01*
X598828Y84364D01*
X598814Y84386D01*
X598804Y84411D01*
X598719Y84532D01*
X598639Y84657D01*
X598620Y84675D01*
X598605Y84697D01*
X598495Y84796D01*
X598388Y84899D01*
X598366Y84913D01*
X598346Y84930D01*
X598216Y85002D01*
X598089Y85078D01*
X598064Y85086D01*
X598041Y85099D01*
X597898Y85139D01*
X597757Y85184D01*
X597731Y85186D01*
X597706Y85194D01*
X597462Y85213D01*
X591310Y85213D01*
X591284Y85210D01*
X591258Y85212D01*
X591111Y85190D01*
X590964Y85173D01*
X590939Y85165D01*
X590913Y85161D01*
X590775Y85106D01*
X590636Y85056D01*
X590614Y85042D01*
X590589Y85032D01*
X590468Y84947D01*
X590343Y84867D01*
X590325Y84848D01*
X590303Y84833D01*
X590204Y84723D01*
X590101Y84616D01*
X590087Y84594D01*
X590070Y84574D01*
X589998Y84444D01*
X589922Y84317D01*
X589914Y84292D01*
X589901Y84269D01*
X589861Y84126D01*
X589816Y83985D01*
X589814Y83959D01*
X589806Y83934D01*
X589787Y83690D01*
X589787Y71578D01*
X589801Y71453D01*
X589808Y71326D01*
X589821Y71280D01*
X589827Y71232D01*
X589869Y71113D01*
X589904Y70992D01*
X589928Y70949D01*
X589944Y70904D01*
X590013Y70798D01*
X590074Y70687D01*
X590114Y70641D01*
X590133Y70611D01*
X590168Y70578D01*
X590233Y70501D01*
X598001Y62733D01*
X598100Y62654D01*
X598194Y62570D01*
X598236Y62546D01*
X598274Y62516D01*
X598388Y62462D01*
X598499Y62401D01*
X598546Y62388D01*
X598589Y62367D01*
X598713Y62341D01*
X598834Y62306D01*
X598895Y62301D01*
X598930Y62294D01*
X598978Y62295D01*
X599078Y62287D01*
X615947Y62287D01*
X624787Y53447D01*
X624787Y38810D01*
X624790Y38784D01*
X624788Y38758D01*
X624810Y38611D01*
X624827Y38464D01*
X624835Y38439D01*
X624839Y38413D01*
X624894Y38275D01*
X624944Y38136D01*
X624958Y38114D01*
X624968Y38089D01*
X625053Y37968D01*
X625133Y37843D01*
X625152Y37825D01*
X625167Y37803D01*
X625277Y37704D01*
X625384Y37601D01*
X625406Y37587D01*
X625426Y37570D01*
X625556Y37498D01*
X625683Y37422D01*
X625708Y37414D01*
X625731Y37401D01*
X625874Y37361D01*
X626015Y37316D01*
X626041Y37314D01*
X626066Y37306D01*
X626310Y37287D01*
X731685Y37287D01*
X731762Y37296D01*
X731838Y37294D01*
X731934Y37315D01*
X732032Y37327D01*
X732104Y37352D01*
X732179Y37369D01*
X732267Y37411D01*
X732360Y37444D01*
X732424Y37486D01*
X732493Y37519D01*
X732570Y37580D01*
X732653Y37633D01*
X732706Y37688D01*
X732766Y37736D01*
X732827Y37813D01*
X732895Y37884D01*
X732918Y37923D01*
X734494Y39499D01*
X736444Y40307D01*
X738556Y40307D01*
X740506Y39499D01*
X741999Y38006D01*
X742807Y36056D01*
X742807Y33944D01*
X741999Y31994D01*
X740506Y30501D01*
X738556Y29693D01*
X736444Y29693D01*
X734494Y30501D01*
X732931Y32064D01*
X732924Y32077D01*
X732872Y32134D01*
X732828Y32197D01*
X732756Y32263D01*
X732690Y32335D01*
X732627Y32379D01*
X732570Y32430D01*
X732484Y32478D01*
X732403Y32534D01*
X732332Y32562D01*
X732265Y32599D01*
X732170Y32626D01*
X732079Y32662D01*
X732003Y32673D01*
X731929Y32694D01*
X731781Y32706D01*
X731734Y32712D01*
X731715Y32711D01*
X731685Y32713D01*
X682688Y32713D01*
X682662Y32710D01*
X682636Y32712D01*
X682489Y32690D01*
X682342Y32673D01*
X682317Y32665D01*
X682291Y32661D01*
X682153Y32606D01*
X682014Y32556D01*
X681992Y32542D01*
X681967Y32532D01*
X681846Y32447D01*
X681721Y32367D01*
X681703Y32348D01*
X681681Y32333D01*
X681582Y32223D01*
X681479Y32116D01*
X681465Y32094D01*
X681448Y32074D01*
X681376Y31944D01*
X681300Y31817D01*
X681292Y31792D01*
X681279Y31769D01*
X681239Y31626D01*
X681194Y31485D01*
X681192Y31459D01*
X681184Y31434D01*
X681165Y31190D01*
X681165Y18228D01*
X680272Y17335D01*
X668700Y17335D01*
X668575Y17321D01*
X668448Y17314D01*
X668402Y17301D01*
X668354Y17295D01*
X668235Y17253D01*
X668113Y17218D01*
X668071Y17194D01*
X668026Y17178D01*
X667920Y17109D01*
X667809Y17048D01*
X667763Y17008D01*
X667733Y16989D01*
X667699Y16954D01*
X667623Y16889D01*
X660233Y9499D01*
X658447Y7713D01*
X606553Y7713D01*
G37*
%LPD*%
G36*
X571316Y285187D02*
X571316Y285187D01*
X571390Y285188D01*
X571487Y285213D01*
X571587Y285227D01*
X571656Y285255D01*
X571728Y285273D01*
X571817Y285319D01*
X571911Y285356D01*
X571972Y285399D01*
X572038Y285433D01*
X572114Y285498D01*
X572197Y285555D01*
X572247Y285610D01*
X572303Y285659D01*
X572363Y285739D01*
X572430Y285814D01*
X572466Y285879D01*
X572511Y285939D01*
X572550Y286031D01*
X572599Y286119D01*
X572619Y286191D01*
X572649Y286259D01*
X572666Y286358D01*
X572694Y286454D01*
X572702Y286554D01*
X572710Y286602D01*
X572708Y286638D01*
X572713Y286698D01*
X572713Y290947D01*
X574053Y292287D01*
X693422Y292287D01*
X693547Y292301D01*
X693674Y292308D01*
X693720Y292321D01*
X693768Y292327D01*
X693887Y292369D01*
X694008Y292404D01*
X694051Y292428D01*
X694096Y292444D01*
X694203Y292513D01*
X694313Y292574D01*
X694359Y292614D01*
X694389Y292633D01*
X694423Y292668D01*
X694499Y292733D01*
X714272Y312505D01*
X714319Y312565D01*
X714374Y312619D01*
X714427Y312702D01*
X714488Y312778D01*
X714521Y312848D01*
X714562Y312912D01*
X714595Y313005D01*
X714637Y313094D01*
X714653Y313168D01*
X714679Y313241D01*
X714690Y313338D01*
X714710Y313434D01*
X714709Y313511D01*
X714718Y313587D01*
X714706Y313685D01*
X714704Y313783D01*
X714693Y313827D01*
X714693Y316056D01*
X715501Y318006D01*
X716994Y319499D01*
X718617Y320171D01*
X718748Y320244D01*
X718882Y320313D01*
X718900Y320329D01*
X718921Y320340D01*
X719032Y320441D01*
X719147Y320539D01*
X719161Y320558D01*
X719179Y320574D01*
X719265Y320698D01*
X719354Y320819D01*
X719364Y320841D01*
X719378Y320861D01*
X719433Y321001D01*
X719492Y321139D01*
X719496Y321163D01*
X719505Y321185D01*
X719527Y321334D01*
X719554Y321482D01*
X719553Y321506D01*
X719556Y321530D01*
X719544Y321680D01*
X719536Y321830D01*
X719529Y321853D01*
X719527Y321877D01*
X719481Y322021D01*
X719439Y322165D01*
X719428Y322186D01*
X719420Y322209D01*
X719343Y322338D01*
X719269Y322469D01*
X719250Y322491D01*
X719240Y322508D01*
X719208Y322541D01*
X719111Y322655D01*
X707713Y334053D01*
X707713Y463690D01*
X707710Y463716D01*
X707712Y463742D01*
X707690Y463889D01*
X707673Y464036D01*
X707665Y464061D01*
X707661Y464087D01*
X707606Y464225D01*
X707556Y464364D01*
X707542Y464386D01*
X707532Y464411D01*
X707447Y464532D01*
X707367Y464657D01*
X707348Y464675D01*
X707333Y464697D01*
X707223Y464796D01*
X707116Y464899D01*
X707094Y464913D01*
X707074Y464930D01*
X706944Y465002D01*
X706817Y465078D01*
X706792Y465086D01*
X706769Y465099D01*
X706626Y465139D01*
X706485Y465184D01*
X706459Y465186D01*
X706434Y465194D01*
X706190Y465213D01*
X682688Y465213D01*
X682662Y465210D01*
X682636Y465212D01*
X682489Y465190D01*
X682342Y465173D01*
X682317Y465165D01*
X682291Y465161D01*
X682153Y465106D01*
X682014Y465056D01*
X681992Y465042D01*
X681967Y465032D01*
X681846Y464947D01*
X681721Y464867D01*
X681703Y464848D01*
X681681Y464833D01*
X681582Y464723D01*
X681479Y464616D01*
X681465Y464594D01*
X681448Y464574D01*
X681376Y464444D01*
X681300Y464317D01*
X681292Y464292D01*
X681279Y464269D01*
X681239Y464126D01*
X681194Y463985D01*
X681192Y463959D01*
X681184Y463934D01*
X681165Y463690D01*
X681165Y450028D01*
X680272Y449135D01*
X665928Y449135D01*
X665035Y450028D01*
X665035Y463690D01*
X665032Y463716D01*
X665034Y463742D01*
X665012Y463889D01*
X664995Y464036D01*
X664987Y464061D01*
X664983Y464087D01*
X664928Y464225D01*
X664878Y464364D01*
X664864Y464386D01*
X664854Y464411D01*
X664769Y464532D01*
X664689Y464657D01*
X664670Y464675D01*
X664655Y464697D01*
X664545Y464796D01*
X664438Y464899D01*
X664416Y464913D01*
X664396Y464930D01*
X664266Y465002D01*
X664260Y465006D01*
X655177Y474089D01*
X655078Y474168D01*
X654984Y474252D01*
X654942Y474276D01*
X654904Y474306D01*
X654790Y474360D01*
X654679Y474421D01*
X654632Y474434D01*
X654589Y474455D01*
X654465Y474481D01*
X654344Y474516D01*
X654283Y474521D01*
X654248Y474528D01*
X654200Y474527D01*
X654100Y474535D01*
X645900Y474535D01*
X645775Y474521D01*
X645648Y474514D01*
X645602Y474501D01*
X645554Y474495D01*
X645435Y474453D01*
X645314Y474418D01*
X645271Y474394D01*
X645226Y474378D01*
X645120Y474309D01*
X645009Y474248D01*
X644963Y474208D01*
X644933Y474189D01*
X644900Y474154D01*
X644823Y474089D01*
X635233Y464499D01*
X635154Y464400D01*
X635070Y464306D01*
X635046Y464264D01*
X635016Y464226D01*
X634962Y464112D01*
X634901Y464001D01*
X634888Y463954D01*
X634867Y463911D01*
X634841Y463787D01*
X634806Y463666D01*
X634801Y463605D01*
X634794Y463570D01*
X634795Y463522D01*
X634787Y463422D01*
X634787Y454053D01*
X633001Y452267D01*
X625728Y444995D01*
X625681Y444935D01*
X625626Y444881D01*
X625573Y444798D01*
X625512Y444722D01*
X625479Y444652D01*
X625438Y444588D01*
X625405Y444495D01*
X625363Y444406D01*
X625347Y444332D01*
X625321Y444259D01*
X625310Y444162D01*
X625290Y444066D01*
X625291Y443989D01*
X625282Y443913D01*
X625294Y443815D01*
X625296Y443717D01*
X625307Y443673D01*
X625307Y441444D01*
X624499Y439494D01*
X623006Y438001D01*
X621056Y437193D01*
X618944Y437193D01*
X617721Y437700D01*
X617576Y437742D01*
X617433Y437787D01*
X617409Y437789D01*
X617386Y437796D01*
X617235Y437803D01*
X617086Y437815D01*
X617062Y437812D01*
X617038Y437813D01*
X616890Y437786D01*
X616741Y437763D01*
X616719Y437754D01*
X616695Y437750D01*
X616557Y437690D01*
X616417Y437635D01*
X616397Y437621D01*
X616375Y437611D01*
X616254Y437521D01*
X616131Y437436D01*
X616115Y437418D01*
X616095Y437403D01*
X615998Y437288D01*
X615898Y437177D01*
X615886Y437156D01*
X615870Y437137D01*
X615802Y437004D01*
X615729Y436872D01*
X615723Y436849D01*
X615712Y436827D01*
X615675Y436682D01*
X615634Y436537D01*
X615632Y436507D01*
X615627Y436489D01*
X615627Y436442D01*
X615615Y436293D01*
X615615Y424378D01*
X614722Y423485D01*
X599878Y423485D01*
X598985Y424378D01*
X598985Y439222D01*
X599878Y440115D01*
X613170Y440115D01*
X613196Y440118D01*
X613222Y440116D01*
X613369Y440138D01*
X613516Y440155D01*
X613541Y440163D01*
X613567Y440167D01*
X613705Y440222D01*
X613844Y440272D01*
X613866Y440286D01*
X613891Y440296D01*
X614012Y440381D01*
X614137Y440461D01*
X614155Y440480D01*
X614177Y440495D01*
X614276Y440605D01*
X614379Y440712D01*
X614393Y440734D01*
X614410Y440754D01*
X614482Y440884D01*
X614558Y441011D01*
X614566Y441036D01*
X614579Y441059D01*
X614619Y441202D01*
X614664Y441343D01*
X614666Y441369D01*
X614674Y441394D01*
X614693Y441638D01*
X614693Y443556D01*
X615501Y445506D01*
X616280Y446285D01*
X616343Y446364D01*
X616412Y446436D01*
X616450Y446500D01*
X616497Y446558D01*
X616540Y446649D01*
X616591Y446735D01*
X616614Y446806D01*
X616646Y446873D01*
X616651Y446897D01*
X616687Y446908D01*
X616737Y446913D01*
X616969Y446989D01*
X618944Y447807D01*
X621155Y447807D01*
X621169Y447803D01*
X621246Y447799D01*
X621321Y447785D01*
X621419Y447790D01*
X621517Y447786D01*
X621593Y447799D01*
X621669Y447803D01*
X621763Y447830D01*
X621860Y447848D01*
X621931Y447879D01*
X622004Y447900D01*
X622090Y447948D01*
X622180Y447987D01*
X622241Y448033D01*
X622308Y448070D01*
X622422Y448166D01*
X622460Y448195D01*
X622472Y448209D01*
X622495Y448228D01*
X629767Y455501D01*
X629846Y455600D01*
X629930Y455694D01*
X629954Y455736D01*
X629984Y455774D01*
X630038Y455888D01*
X630099Y455999D01*
X630112Y456046D01*
X630133Y456089D01*
X630159Y456212D01*
X630194Y456334D01*
X630199Y456395D01*
X630206Y456430D01*
X630205Y456478D01*
X630213Y456578D01*
X630213Y465947D01*
X639189Y474923D01*
X639268Y475022D01*
X639352Y475116D01*
X639376Y475158D01*
X639406Y475196D01*
X639460Y475310D01*
X639521Y475421D01*
X639534Y475468D01*
X639555Y475511D01*
X639581Y475635D01*
X639616Y475756D01*
X639621Y475817D01*
X639628Y475852D01*
X639627Y475900D01*
X639635Y476000D01*
X639635Y489772D01*
X640528Y490665D01*
X654872Y490665D01*
X655765Y489772D01*
X655765Y480600D01*
X655779Y480475D01*
X655786Y480348D01*
X655799Y480302D01*
X655805Y480254D01*
X655847Y480135D01*
X655882Y480014D01*
X655906Y479971D01*
X655922Y479926D01*
X655991Y479819D01*
X656052Y479709D01*
X656092Y479663D01*
X656111Y479633D01*
X656146Y479599D01*
X656211Y479523D01*
X661468Y474266D01*
X661565Y474189D01*
X661658Y474105D01*
X661702Y474081D01*
X661741Y474050D01*
X661854Y473996D01*
X661963Y473936D01*
X662011Y473922D01*
X662056Y473901D01*
X662178Y473875D01*
X662298Y473840D01*
X662348Y473838D01*
X662396Y473827D01*
X662521Y473830D01*
X662646Y473824D01*
X662695Y473833D01*
X662745Y473833D01*
X662866Y473864D01*
X662989Y473887D01*
X663035Y473906D01*
X663083Y473918D01*
X663194Y473976D01*
X663309Y474026D01*
X663348Y474055D01*
X663393Y474078D01*
X663488Y474159D01*
X663588Y474234D01*
X663620Y474272D01*
X663658Y474304D01*
X663732Y474404D01*
X663813Y474500D01*
X663836Y474544D01*
X663865Y474584D01*
X663915Y474699D01*
X663972Y474810D01*
X663984Y474859D01*
X664003Y474904D01*
X664025Y475027D01*
X664055Y475149D01*
X664056Y475198D01*
X664065Y475247D01*
X664058Y475372D01*
X664060Y475497D01*
X664049Y475559D01*
X664047Y475595D01*
X664034Y475641D01*
X664019Y475720D01*
X664019Y480601D01*
X671101Y480601D01*
X671101Y473519D01*
X666216Y473519D01*
X666114Y473534D01*
X665992Y473561D01*
X665942Y473560D01*
X665893Y473567D01*
X665768Y473557D01*
X665643Y473555D01*
X665595Y473543D01*
X665546Y473538D01*
X665426Y473500D01*
X665305Y473470D01*
X665261Y473447D01*
X665214Y473432D01*
X665107Y473367D01*
X664995Y473310D01*
X664958Y473278D01*
X664915Y473252D01*
X664825Y473165D01*
X664730Y473084D01*
X664701Y473044D01*
X664665Y473010D01*
X664597Y472904D01*
X664523Y472804D01*
X664503Y472758D01*
X664476Y472717D01*
X664434Y472599D01*
X664385Y472484D01*
X664376Y472435D01*
X664359Y472388D01*
X664345Y472264D01*
X664323Y472141D01*
X664326Y472091D01*
X664320Y472042D01*
X664335Y471918D01*
X664341Y471793D01*
X664355Y471745D01*
X664361Y471696D01*
X664403Y471578D01*
X664438Y471458D01*
X664462Y471415D01*
X664479Y471368D01*
X664547Y471263D01*
X664608Y471154D01*
X664648Y471106D01*
X664668Y471075D01*
X664703Y471042D01*
X664766Y470968D01*
X665501Y470233D01*
X665600Y470154D01*
X665694Y470070D01*
X665736Y470046D01*
X665774Y470016D01*
X665888Y469962D01*
X665999Y469901D01*
X666046Y469888D01*
X666089Y469867D01*
X666213Y469841D01*
X666334Y469806D01*
X666395Y469801D01*
X666430Y469794D01*
X666478Y469795D01*
X666578Y469787D01*
X705802Y469787D01*
X705902Y469798D01*
X706002Y469800D01*
X706074Y469818D01*
X706148Y469827D01*
X706243Y469860D01*
X706340Y469885D01*
X706406Y469919D01*
X706476Y469944D01*
X706561Y469999D01*
X706650Y470045D01*
X706707Y470093D01*
X706769Y470133D01*
X706839Y470205D01*
X706915Y470270D01*
X706959Y470330D01*
X707011Y470384D01*
X707063Y470470D01*
X707122Y470551D01*
X707152Y470619D01*
X707190Y470683D01*
X707221Y470779D01*
X707260Y470871D01*
X707274Y470944D01*
X707296Y471015D01*
X707304Y471115D01*
X707322Y471214D01*
X707318Y471288D01*
X707324Y471362D01*
X707309Y471462D01*
X707304Y471562D01*
X707284Y471633D01*
X707273Y471707D01*
X707235Y471800D01*
X707208Y471897D01*
X707171Y471962D01*
X707144Y472031D01*
X707087Y472113D01*
X707037Y472201D01*
X706972Y472277D01*
X706945Y472317D01*
X706918Y472341D01*
X706879Y472387D01*
X684499Y494767D01*
X684400Y494846D01*
X684306Y494930D01*
X684264Y494954D01*
X684226Y494984D01*
X684112Y495038D01*
X684001Y495099D01*
X683954Y495112D01*
X683911Y495133D01*
X683787Y495159D01*
X683666Y495194D01*
X683605Y495199D01*
X683570Y495206D01*
X683522Y495205D01*
X683422Y495213D01*
X521310Y495213D01*
X521284Y495210D01*
X521258Y495212D01*
X521111Y495190D01*
X520964Y495173D01*
X520939Y495165D01*
X520913Y495161D01*
X520775Y495106D01*
X520636Y495056D01*
X520614Y495042D01*
X520589Y495032D01*
X520468Y494947D01*
X520343Y494867D01*
X520325Y494848D01*
X520303Y494833D01*
X520204Y494723D01*
X520101Y494616D01*
X520087Y494594D01*
X520070Y494574D01*
X519998Y494444D01*
X519922Y494317D01*
X519914Y494292D01*
X519901Y494269D01*
X519861Y494126D01*
X519816Y493985D01*
X519814Y493959D01*
X519806Y493934D01*
X519787Y493690D01*
X519787Y473364D01*
X519804Y473215D01*
X519816Y473065D01*
X519824Y473042D01*
X519827Y473018D01*
X519877Y472877D01*
X519923Y472733D01*
X519936Y472713D01*
X519944Y472690D01*
X520026Y472564D01*
X520103Y472435D01*
X520120Y472417D01*
X520133Y472397D01*
X520241Y472293D01*
X520346Y472185D01*
X520366Y472172D01*
X520384Y472155D01*
X520513Y472078D01*
X520639Y471997D01*
X520662Y471988D01*
X520683Y471976D01*
X520826Y471930D01*
X520968Y471880D01*
X520992Y471877D01*
X521015Y471870D01*
X521164Y471858D01*
X521314Y471841D01*
X521338Y471844D01*
X521362Y471842D01*
X521511Y471864D01*
X521660Y471882D01*
X521688Y471891D01*
X521707Y471894D01*
X521751Y471911D01*
X521893Y471957D01*
X523944Y472807D01*
X526056Y472807D01*
X528006Y471999D01*
X529499Y470506D01*
X530307Y468556D01*
X530307Y466345D01*
X530303Y466331D01*
X530299Y466254D01*
X530285Y466179D01*
X530290Y466081D01*
X530286Y465983D01*
X530299Y465907D01*
X530303Y465831D01*
X530330Y465737D01*
X530348Y465640D01*
X530379Y465569D01*
X530400Y465496D01*
X530448Y465410D01*
X530487Y465320D01*
X530533Y465259D01*
X530570Y465192D01*
X530666Y465078D01*
X530695Y465040D01*
X530709Y465028D01*
X530728Y465005D01*
X593001Y402733D01*
X594787Y400947D01*
X594787Y316578D01*
X594801Y316453D01*
X594808Y316326D01*
X594821Y316280D01*
X594827Y316232D01*
X594869Y316113D01*
X594904Y315992D01*
X594928Y315949D01*
X594944Y315904D01*
X595013Y315797D01*
X595074Y315687D01*
X595114Y315641D01*
X595133Y315611D01*
X595168Y315577D01*
X595233Y315501D01*
X597672Y313062D01*
X597692Y313046D01*
X597709Y313026D01*
X597829Y312937D01*
X597945Y312846D01*
X597968Y312834D01*
X597990Y312819D01*
X598126Y312760D01*
X598260Y312697D01*
X598285Y312691D01*
X598310Y312681D01*
X598456Y312654D01*
X598601Y312623D01*
X598627Y312624D01*
X598653Y312619D01*
X598801Y312627D01*
X598949Y312629D01*
X598974Y312636D01*
X599001Y312637D01*
X599143Y312678D01*
X599287Y312714D01*
X599310Y312726D01*
X599336Y312734D01*
X599465Y312806D01*
X599597Y312874D01*
X599617Y312891D01*
X599640Y312904D01*
X599826Y313062D01*
X599878Y313115D01*
X614722Y313115D01*
X615615Y312222D01*
X615615Y297378D01*
X614722Y296485D01*
X599878Y296485D01*
X598985Y297378D01*
X598985Y304650D01*
X598971Y304775D01*
X598964Y304902D01*
X598951Y304948D01*
X598945Y304996D01*
X598903Y305115D01*
X598868Y305237D01*
X598844Y305279D01*
X598828Y305324D01*
X598759Y305430D01*
X598698Y305541D01*
X598658Y305587D01*
X598639Y305617D01*
X598604Y305651D01*
X598539Y305727D01*
X590213Y314053D01*
X590213Y398422D01*
X590199Y398547D01*
X590192Y398674D01*
X590179Y398720D01*
X590173Y398768D01*
X590131Y398887D01*
X590096Y399008D01*
X590072Y399051D01*
X590056Y399096D01*
X589987Y399203D01*
X589926Y399313D01*
X589886Y399359D01*
X589867Y399389D01*
X589832Y399423D01*
X589767Y399499D01*
X527495Y461772D01*
X527435Y461819D01*
X527381Y461874D01*
X527298Y461927D01*
X527222Y461988D01*
X527152Y462021D01*
X527088Y462062D01*
X526995Y462095D01*
X526906Y462137D01*
X526832Y462153D01*
X526759Y462179D01*
X526662Y462190D01*
X526566Y462210D01*
X526489Y462209D01*
X526413Y462218D01*
X526315Y462206D01*
X526217Y462204D01*
X526173Y462193D01*
X523944Y462193D01*
X521893Y463043D01*
X521748Y463084D01*
X521605Y463130D01*
X521581Y463132D01*
X521558Y463139D01*
X521407Y463146D01*
X521258Y463158D01*
X521234Y463155D01*
X521210Y463156D01*
X521062Y463129D01*
X520913Y463106D01*
X520891Y463097D01*
X520867Y463093D01*
X520729Y463033D01*
X520589Y462978D01*
X520569Y462964D01*
X520547Y462954D01*
X520426Y462864D01*
X520303Y462779D01*
X520287Y462761D01*
X520267Y462746D01*
X520170Y462631D01*
X520070Y462520D01*
X520058Y462499D01*
X520042Y462480D01*
X519974Y462347D01*
X519901Y462215D01*
X519895Y462192D01*
X519884Y462170D01*
X519847Y462025D01*
X519806Y461880D01*
X519804Y461850D01*
X519799Y461832D01*
X519799Y461785D01*
X519787Y461636D01*
X519787Y361698D01*
X519798Y361598D01*
X519800Y361498D01*
X519818Y361426D01*
X519827Y361352D01*
X519860Y361257D01*
X519885Y361160D01*
X519919Y361094D01*
X519944Y361024D01*
X519999Y360939D01*
X520045Y360850D01*
X520093Y360793D01*
X520133Y360731D01*
X520205Y360661D01*
X520270Y360585D01*
X520330Y360541D01*
X520384Y360489D01*
X520470Y360437D01*
X520551Y360378D01*
X520619Y360348D01*
X520683Y360310D01*
X520779Y360279D01*
X520871Y360240D01*
X520944Y360226D01*
X521015Y360204D01*
X521115Y360196D01*
X521214Y360178D01*
X521288Y360182D01*
X521362Y360176D01*
X521462Y360191D01*
X521562Y360196D01*
X521633Y360216D01*
X521707Y360227D01*
X521800Y360265D01*
X521897Y360292D01*
X521962Y360329D01*
X522031Y360356D01*
X522113Y360413D01*
X522201Y360463D01*
X522277Y360528D01*
X522317Y360555D01*
X522341Y360582D01*
X522387Y360621D01*
X524908Y363142D01*
X524924Y363162D01*
X524944Y363180D01*
X525033Y363299D01*
X525125Y363415D01*
X525136Y363439D01*
X525151Y363460D01*
X525210Y363596D01*
X525274Y363730D01*
X525279Y363756D01*
X525289Y363780D01*
X525316Y363926D01*
X525347Y364071D01*
X525347Y364097D01*
X525351Y364123D01*
X525344Y364271D01*
X525341Y364419D01*
X525335Y364445D01*
X525333Y364471D01*
X525292Y364613D01*
X525271Y364696D01*
X525271Y371667D01*
X530033Y376429D01*
X536767Y376429D01*
X541529Y371667D01*
X541529Y364933D01*
X536767Y360171D01*
X529932Y360171D01*
X529842Y360210D01*
X529708Y360274D01*
X529682Y360279D01*
X529658Y360289D01*
X529512Y360316D01*
X529367Y360347D01*
X529341Y360347D01*
X529315Y360351D01*
X529167Y360344D01*
X529019Y360341D01*
X528993Y360335D01*
X528967Y360333D01*
X528825Y360292D01*
X528681Y360256D01*
X528658Y360244D01*
X528632Y360237D01*
X528503Y360164D01*
X528371Y360096D01*
X528351Y360079D01*
X528328Y360067D01*
X528142Y359908D01*
X525233Y356999D01*
X525154Y356900D01*
X525070Y356806D01*
X525046Y356764D01*
X525016Y356726D01*
X524962Y356612D01*
X524901Y356501D01*
X524888Y356454D01*
X524867Y356411D01*
X524841Y356287D01*
X524806Y356166D01*
X524801Y356105D01*
X524794Y356070D01*
X524795Y356022D01*
X524787Y355922D01*
X524787Y324060D01*
X524798Y323960D01*
X524800Y323860D01*
X524818Y323788D01*
X524827Y323714D01*
X524860Y323619D01*
X524885Y323522D01*
X524919Y323456D01*
X524944Y323386D01*
X524999Y323301D01*
X525045Y323212D01*
X525093Y323155D01*
X525133Y323093D01*
X525205Y323023D01*
X525270Y322947D01*
X525330Y322902D01*
X525384Y322851D01*
X525470Y322799D01*
X525551Y322739D01*
X525619Y322710D01*
X525683Y322672D01*
X525779Y322641D01*
X525871Y322601D01*
X525944Y322588D01*
X526015Y322566D01*
X526115Y322557D01*
X526214Y322540D01*
X526288Y322544D01*
X526362Y322538D01*
X526462Y322552D01*
X526562Y322558D01*
X526633Y322578D01*
X526707Y322589D01*
X526800Y322626D01*
X526897Y322654D01*
X526962Y322691D01*
X527031Y322718D01*
X527113Y322775D01*
X527201Y322824D01*
X527277Y322889D01*
X527317Y322917D01*
X527341Y322943D01*
X527387Y322983D01*
X530033Y325629D01*
X536767Y325629D01*
X541529Y320867D01*
X541529Y314836D01*
X541543Y314711D01*
X541550Y314584D01*
X541563Y314538D01*
X541569Y314490D01*
X541611Y314371D01*
X541646Y314249D01*
X541670Y314207D01*
X541686Y314162D01*
X541755Y314056D01*
X541816Y313945D01*
X541856Y313899D01*
X541875Y313869D01*
X541910Y313835D01*
X541975Y313759D01*
X568001Y287733D01*
X570113Y285621D01*
X570191Y285559D01*
X570264Y285489D01*
X570328Y285451D01*
X570386Y285404D01*
X570477Y285361D01*
X570563Y285310D01*
X570634Y285287D01*
X570701Y285255D01*
X570799Y285234D01*
X570895Y285204D01*
X570969Y285198D01*
X571042Y285182D01*
X571142Y285184D01*
X571242Y285176D01*
X571316Y285187D01*
G37*
G36*
X451462Y502691D02*
X451462Y502691D01*
X451562Y502696D01*
X451633Y502716D01*
X451707Y502727D01*
X451800Y502765D01*
X451897Y502792D01*
X451962Y502829D01*
X452031Y502856D01*
X452113Y502913D01*
X452201Y502963D01*
X452277Y503028D01*
X452317Y503055D01*
X452341Y503082D01*
X452387Y503121D01*
X454053Y504787D01*
X590922Y504787D01*
X591047Y504801D01*
X591174Y504808D01*
X591220Y504821D01*
X591268Y504827D01*
X591387Y504869D01*
X591508Y504904D01*
X591551Y504928D01*
X591596Y504944D01*
X591702Y505013D01*
X591813Y505074D01*
X591859Y505114D01*
X591889Y505133D01*
X591922Y505168D01*
X591999Y505233D01*
X597267Y510501D01*
X597346Y510600D01*
X597430Y510694D01*
X597454Y510736D01*
X597484Y510774D01*
X597538Y510888D01*
X597599Y510999D01*
X597612Y511046D01*
X597633Y511089D01*
X597659Y511213D01*
X597694Y511334D01*
X597699Y511395D01*
X597706Y511430D01*
X597705Y511478D01*
X597713Y511578D01*
X597713Y553447D01*
X599053Y554787D01*
X611636Y554787D01*
X611785Y554804D01*
X611935Y554816D01*
X611958Y554824D01*
X611982Y554827D01*
X612123Y554877D01*
X612267Y554923D01*
X612287Y554936D01*
X612310Y554944D01*
X612436Y555026D01*
X612565Y555103D01*
X612583Y555120D01*
X612603Y555133D01*
X612707Y555241D01*
X612815Y555346D01*
X612828Y555366D01*
X612845Y555384D01*
X612922Y555513D01*
X613003Y555639D01*
X613012Y555662D01*
X613024Y555683D01*
X613070Y555826D01*
X613120Y555968D01*
X613123Y555992D01*
X613130Y556015D01*
X613142Y556164D01*
X613159Y556314D01*
X613156Y556338D01*
X613158Y556362D01*
X613136Y556511D01*
X613118Y556660D01*
X613109Y556688D01*
X613106Y556707D01*
X613089Y556751D01*
X613043Y556893D01*
X612193Y558944D01*
X612193Y561056D01*
X613001Y563006D01*
X614494Y564499D01*
X616444Y565307D01*
X618556Y565307D01*
X620506Y564499D01*
X622069Y562936D01*
X622076Y562923D01*
X622128Y562866D01*
X622172Y562803D01*
X622244Y562737D01*
X622310Y562665D01*
X622373Y562621D01*
X622430Y562570D01*
X622516Y562522D01*
X622597Y562466D01*
X622668Y562438D01*
X622735Y562401D01*
X622830Y562374D01*
X622921Y562338D01*
X622997Y562327D01*
X623071Y562306D01*
X623219Y562294D01*
X623266Y562288D01*
X623285Y562289D01*
X623315Y562287D01*
X728690Y562287D01*
X728716Y562290D01*
X728742Y562288D01*
X728889Y562310D01*
X729036Y562327D01*
X729061Y562335D01*
X729087Y562339D01*
X729225Y562394D01*
X729364Y562444D01*
X729386Y562458D01*
X729411Y562468D01*
X729532Y562553D01*
X729657Y562633D01*
X729675Y562652D01*
X729697Y562667D01*
X729796Y562777D01*
X729899Y562884D01*
X729913Y562906D01*
X729930Y562926D01*
X730002Y563056D01*
X730078Y563183D01*
X730086Y563208D01*
X730099Y563231D01*
X730139Y563374D01*
X730184Y563515D01*
X730186Y563541D01*
X730194Y563566D01*
X730213Y563810D01*
X730213Y570922D01*
X730199Y571047D01*
X730192Y571174D01*
X730179Y571220D01*
X730173Y571268D01*
X730131Y571387D01*
X730096Y571508D01*
X730072Y571551D01*
X730056Y571596D01*
X729987Y571702D01*
X729926Y571813D01*
X729886Y571859D01*
X729867Y571889D01*
X729832Y571922D01*
X729767Y571999D01*
X726999Y574767D01*
X726900Y574846D01*
X726806Y574930D01*
X726764Y574954D01*
X726726Y574984D01*
X726612Y575038D01*
X726501Y575099D01*
X726454Y575112D01*
X726411Y575133D01*
X726287Y575159D01*
X726166Y575194D01*
X726105Y575199D01*
X726070Y575206D01*
X726022Y575205D01*
X725922Y575213D01*
X431310Y575213D01*
X431284Y575210D01*
X431258Y575212D01*
X431111Y575190D01*
X430964Y575173D01*
X430939Y575165D01*
X430913Y575161D01*
X430775Y575106D01*
X430636Y575056D01*
X430614Y575042D01*
X430589Y575032D01*
X430468Y574947D01*
X430343Y574867D01*
X430325Y574848D01*
X430303Y574833D01*
X430204Y574723D01*
X430101Y574616D01*
X430087Y574594D01*
X430070Y574574D01*
X429998Y574444D01*
X429922Y574317D01*
X429914Y574292D01*
X429901Y574269D01*
X429861Y574126D01*
X429816Y573985D01*
X429814Y573959D01*
X429806Y573934D01*
X429787Y573690D01*
X429787Y559053D01*
X428071Y557337D01*
X428009Y557259D01*
X427939Y557186D01*
X427901Y557122D01*
X427854Y557064D01*
X427811Y556973D01*
X427760Y556887D01*
X427737Y556816D01*
X427705Y556749D01*
X427684Y556651D01*
X427654Y556555D01*
X427648Y556481D01*
X427632Y556408D01*
X427634Y556308D01*
X427626Y556208D01*
X427637Y556134D01*
X427638Y556060D01*
X427663Y555963D01*
X427677Y555863D01*
X427705Y555794D01*
X427723Y555722D01*
X427769Y555633D01*
X427806Y555539D01*
X427849Y555478D01*
X427883Y555412D01*
X427948Y555336D01*
X428005Y555253D01*
X428060Y555203D01*
X428109Y555147D01*
X428189Y555087D01*
X428264Y555020D01*
X428329Y554984D01*
X428389Y554939D01*
X428481Y554900D01*
X428569Y554851D01*
X428641Y554831D01*
X428709Y554801D01*
X428808Y554784D01*
X428904Y554756D01*
X429004Y554748D01*
X429052Y554740D01*
X429088Y554742D01*
X429148Y554737D01*
X439544Y554737D01*
X440437Y553844D01*
X440437Y540928D01*
X440451Y540803D01*
X440458Y540676D01*
X440471Y540630D01*
X440477Y540582D01*
X440519Y540463D01*
X440554Y540341D01*
X440578Y540299D01*
X440594Y540254D01*
X440663Y540148D01*
X440724Y540037D01*
X440764Y539991D01*
X440783Y539961D01*
X440818Y539927D01*
X440883Y539851D01*
X448001Y532733D01*
X449787Y530947D01*
X449787Y530860D01*
X449790Y530834D01*
X449788Y530808D01*
X449810Y530661D01*
X449827Y530514D01*
X449835Y530489D01*
X449839Y530463D01*
X449894Y530325D01*
X449944Y530186D01*
X449958Y530164D01*
X449968Y530139D01*
X450053Y530018D01*
X450133Y529893D01*
X450152Y529875D01*
X450167Y529853D01*
X450277Y529754D01*
X450384Y529651D01*
X450406Y529637D01*
X450426Y529620D01*
X450556Y529548D01*
X450683Y529472D01*
X450708Y529464D01*
X450731Y529451D01*
X450874Y529411D01*
X451015Y529366D01*
X451041Y529364D01*
X451066Y529356D01*
X451310Y529337D01*
X464944Y529337D01*
X465837Y528444D01*
X465837Y512956D01*
X464944Y512063D01*
X451310Y512063D01*
X451284Y512060D01*
X451258Y512062D01*
X451111Y512040D01*
X450964Y512023D01*
X450939Y512015D01*
X450913Y512011D01*
X450775Y511956D01*
X450636Y511906D01*
X450614Y511892D01*
X450589Y511882D01*
X450468Y511797D01*
X450343Y511717D01*
X450325Y511698D01*
X450303Y511683D01*
X450204Y511573D01*
X450101Y511466D01*
X450087Y511444D01*
X450070Y511424D01*
X449998Y511294D01*
X449922Y511167D01*
X449914Y511142D01*
X449901Y511119D01*
X449861Y510976D01*
X449816Y510835D01*
X449814Y510809D01*
X449806Y510784D01*
X449787Y510540D01*
X449787Y504198D01*
X449798Y504098D01*
X449800Y503998D01*
X449818Y503926D01*
X449827Y503852D01*
X449860Y503757D01*
X449885Y503660D01*
X449919Y503594D01*
X449944Y503524D01*
X449999Y503439D01*
X450045Y503350D01*
X450093Y503293D01*
X450133Y503231D01*
X450205Y503161D01*
X450270Y503085D01*
X450330Y503041D01*
X450384Y502989D01*
X450470Y502937D01*
X450551Y502878D01*
X450619Y502848D01*
X450683Y502810D01*
X450779Y502779D01*
X450871Y502740D01*
X450944Y502726D01*
X451015Y502704D01*
X451115Y502696D01*
X451214Y502678D01*
X451288Y502682D01*
X451362Y502676D01*
X451462Y502691D01*
G37*
G36*
X657440Y123669D02*
X657440Y123669D01*
X657540Y123674D01*
X657611Y123694D01*
X657685Y123705D01*
X657778Y123743D01*
X657875Y123770D01*
X657940Y123807D01*
X658009Y123834D01*
X658091Y123891D01*
X658179Y123941D01*
X658255Y124006D01*
X658295Y124033D01*
X658319Y124060D01*
X658365Y124099D01*
X662267Y128001D01*
X664237Y129971D01*
X664354Y130053D01*
X664479Y130133D01*
X664497Y130152D01*
X664519Y130167D01*
X664618Y130277D01*
X664721Y130384D01*
X664735Y130406D01*
X664752Y130426D01*
X664824Y130556D01*
X664900Y130683D01*
X664908Y130708D01*
X664921Y130731D01*
X664961Y130874D01*
X665006Y131015D01*
X665008Y131041D01*
X665016Y131066D01*
X665035Y131310D01*
X665035Y134172D01*
X665928Y135065D01*
X680417Y135065D01*
X680428Y135060D01*
X680562Y134997D01*
X680588Y134991D01*
X680612Y134981D01*
X680758Y134955D01*
X680903Y134923D01*
X680929Y134924D01*
X680955Y134919D01*
X681103Y134927D01*
X681251Y134929D01*
X681277Y134936D01*
X681303Y134937D01*
X681445Y134978D01*
X681589Y135014D01*
X681613Y135026D01*
X681638Y135034D01*
X681767Y135106D01*
X681899Y135174D01*
X681919Y135191D01*
X681942Y135204D01*
X682128Y135362D01*
X684767Y138001D01*
X684846Y138100D01*
X684930Y138194D01*
X684954Y138236D01*
X684984Y138274D01*
X685038Y138388D01*
X685099Y138499D01*
X685112Y138546D01*
X685133Y138589D01*
X685159Y138712D01*
X685176Y138771D01*
X685184Y138798D01*
X685185Y138803D01*
X685194Y138834D01*
X685199Y138895D01*
X685206Y138930D01*
X685205Y138978D01*
X685213Y139078D01*
X685213Y215802D01*
X685202Y215902D01*
X685200Y216002D01*
X685182Y216074D01*
X685173Y216148D01*
X685140Y216243D01*
X685115Y216340D01*
X685081Y216406D01*
X685056Y216476D01*
X685001Y216561D01*
X684955Y216650D01*
X684907Y216707D01*
X684867Y216769D01*
X684795Y216839D01*
X684730Y216915D01*
X684670Y216959D01*
X684616Y217011D01*
X684530Y217063D01*
X684449Y217122D01*
X684381Y217152D01*
X684317Y217190D01*
X684221Y217221D01*
X684129Y217260D01*
X684056Y217274D01*
X683985Y217296D01*
X683885Y217304D01*
X683786Y217322D01*
X683712Y217318D01*
X683638Y217324D01*
X683538Y217309D01*
X683438Y217304D01*
X683367Y217284D01*
X683293Y217273D01*
X683200Y217235D01*
X683103Y217208D01*
X683038Y217171D01*
X682969Y217144D01*
X682887Y217087D01*
X682799Y217037D01*
X682723Y216972D01*
X682683Y216945D01*
X682659Y216918D01*
X682613Y216879D01*
X679599Y213865D01*
X679537Y213787D01*
X679467Y213714D01*
X679429Y213650D01*
X679382Y213592D01*
X679339Y213501D01*
X679288Y213415D01*
X679265Y213344D01*
X679233Y213277D01*
X679212Y213179D01*
X679182Y213083D01*
X679176Y213009D01*
X679160Y212936D01*
X679162Y212836D01*
X679154Y212736D01*
X679165Y212662D01*
X679166Y212588D01*
X679191Y212491D01*
X679205Y212391D01*
X679233Y212322D01*
X679251Y212250D01*
X679297Y212160D01*
X679334Y212067D01*
X679377Y212006D01*
X679411Y211940D01*
X679476Y211863D01*
X679533Y211781D01*
X679588Y211731D01*
X679637Y211675D01*
X679717Y211615D01*
X679792Y211548D01*
X679857Y211512D01*
X679917Y211467D01*
X680009Y211428D01*
X680097Y211379D01*
X680169Y211359D01*
X680184Y211352D01*
X681165Y210372D01*
X681165Y196028D01*
X680272Y195135D01*
X666310Y195135D01*
X666284Y195132D01*
X666258Y195134D01*
X666111Y195112D01*
X665964Y195095D01*
X665939Y195087D01*
X665913Y195083D01*
X665775Y195028D01*
X665636Y194978D01*
X665614Y194964D01*
X665589Y194954D01*
X665468Y194869D01*
X665343Y194789D01*
X665325Y194770D01*
X665303Y194755D01*
X665204Y194645D01*
X665101Y194538D01*
X665087Y194516D01*
X665070Y194496D01*
X664998Y194366D01*
X664922Y194239D01*
X664914Y194214D01*
X664901Y194191D01*
X664892Y194158D01*
X656211Y185477D01*
X656132Y185378D01*
X656048Y185284D01*
X656024Y185242D01*
X655994Y185204D01*
X655940Y185090D01*
X655879Y184979D01*
X655866Y184932D01*
X655845Y184889D01*
X655819Y184765D01*
X655784Y184644D01*
X655779Y184583D01*
X655772Y184548D01*
X655773Y184500D01*
X655765Y184400D01*
X655765Y170628D01*
X654872Y169735D01*
X640528Y169735D01*
X639635Y170628D01*
X639635Y184972D01*
X640528Y185865D01*
X649500Y185865D01*
X649625Y185879D01*
X649752Y185886D01*
X649798Y185899D01*
X649846Y185905D01*
X649965Y185947D01*
X650086Y185982D01*
X650129Y186006D01*
X650174Y186022D01*
X650280Y186091D01*
X650391Y186152D01*
X650437Y186192D01*
X650467Y186211D01*
X650500Y186246D01*
X650577Y186311D01*
X659767Y195501D01*
X659846Y195600D01*
X659930Y195694D01*
X659954Y195736D01*
X659984Y195774D01*
X660038Y195888D01*
X660099Y195999D01*
X660112Y196046D01*
X660133Y196089D01*
X660159Y196213D01*
X660194Y196334D01*
X660199Y196395D01*
X660206Y196430D01*
X660205Y196478D01*
X660213Y196578D01*
X660213Y210802D01*
X660202Y210902D01*
X660200Y211002D01*
X660182Y211074D01*
X660173Y211148D01*
X660140Y211243D01*
X660115Y211340D01*
X660081Y211406D01*
X660056Y211476D01*
X660001Y211561D01*
X659955Y211650D01*
X659907Y211707D01*
X659867Y211769D01*
X659795Y211839D01*
X659730Y211915D01*
X659670Y211959D01*
X659616Y212011D01*
X659530Y212063D01*
X659449Y212122D01*
X659381Y212152D01*
X659317Y212190D01*
X659221Y212221D01*
X659129Y212260D01*
X659056Y212274D01*
X658985Y212296D01*
X658885Y212304D01*
X658786Y212322D01*
X658712Y212318D01*
X658638Y212324D01*
X658538Y212309D01*
X658438Y212304D01*
X658367Y212284D01*
X658293Y212273D01*
X658200Y212235D01*
X658103Y212208D01*
X658038Y212171D01*
X657969Y212144D01*
X657887Y212087D01*
X657799Y212037D01*
X657723Y211972D01*
X657683Y211945D01*
X657659Y211918D01*
X657613Y211879D01*
X656211Y210477D01*
X656132Y210378D01*
X656048Y210284D01*
X656024Y210242D01*
X655994Y210204D01*
X655940Y210090D01*
X655879Y209979D01*
X655866Y209933D01*
X655845Y209889D01*
X655819Y209765D01*
X655784Y209644D01*
X655779Y209583D01*
X655772Y209548D01*
X655773Y209500D01*
X655765Y209400D01*
X655765Y196028D01*
X654872Y195135D01*
X640528Y195135D01*
X639635Y196028D01*
X639635Y210372D01*
X640528Y211265D01*
X649900Y211265D01*
X650025Y211279D01*
X650152Y211286D01*
X650198Y211299D01*
X650246Y211305D01*
X650365Y211347D01*
X650487Y211382D01*
X650529Y211406D01*
X650574Y211422D01*
X650680Y211491D01*
X650791Y211552D01*
X650837Y211592D01*
X650867Y211611D01*
X650901Y211646D01*
X650977Y211711D01*
X659767Y220501D01*
X659846Y220600D01*
X659930Y220694D01*
X659954Y220736D01*
X659984Y220774D01*
X660038Y220888D01*
X660099Y220999D01*
X660112Y221046D01*
X660133Y221089D01*
X660159Y221213D01*
X660194Y221334D01*
X660199Y221395D01*
X660206Y221430D01*
X660205Y221478D01*
X660213Y221578D01*
X660213Y238447D01*
X661553Y239787D01*
X675922Y239787D01*
X676047Y239801D01*
X676174Y239808D01*
X676220Y239821D01*
X676268Y239827D01*
X676387Y239869D01*
X676508Y239904D01*
X676551Y239928D01*
X676596Y239944D01*
X676703Y240013D01*
X676813Y240074D01*
X676859Y240114D01*
X676889Y240133D01*
X676923Y240168D01*
X676999Y240233D01*
X680101Y243335D01*
X680163Y243413D01*
X680233Y243486D01*
X680271Y243550D01*
X680318Y243608D01*
X680361Y243699D01*
X680412Y243785D01*
X680435Y243856D01*
X680467Y243923D01*
X680488Y244021D01*
X680518Y244117D01*
X680524Y244191D01*
X680540Y244264D01*
X680538Y244364D01*
X680546Y244464D01*
X680535Y244538D01*
X680534Y244612D01*
X680509Y244709D01*
X680495Y244809D01*
X680467Y244878D01*
X680449Y244950D01*
X680403Y245039D01*
X680366Y245133D01*
X680323Y245194D01*
X680289Y245260D01*
X680224Y245336D01*
X680167Y245419D01*
X680112Y245469D01*
X680063Y245525D01*
X679983Y245585D01*
X679908Y245652D01*
X679843Y245688D01*
X679783Y245733D01*
X679691Y245772D01*
X679603Y245821D01*
X679531Y245841D01*
X679463Y245871D01*
X679364Y245888D01*
X679268Y245916D01*
X679168Y245924D01*
X679120Y245932D01*
X679084Y245930D01*
X679024Y245935D01*
X665928Y245935D01*
X665035Y246828D01*
X665035Y261172D01*
X665928Y262065D01*
X680272Y262065D01*
X681165Y261172D01*
X681165Y248076D01*
X681176Y247976D01*
X681178Y247876D01*
X681196Y247804D01*
X681205Y247730D01*
X681238Y247635D01*
X681263Y247538D01*
X681297Y247472D01*
X681322Y247402D01*
X681377Y247317D01*
X681423Y247228D01*
X681471Y247171D01*
X681511Y247109D01*
X681583Y247039D01*
X681648Y246963D01*
X681708Y246919D01*
X681762Y246867D01*
X681848Y246815D01*
X681929Y246756D01*
X681997Y246726D01*
X682061Y246688D01*
X682157Y246657D01*
X682249Y246618D01*
X682322Y246604D01*
X682393Y246582D01*
X682493Y246574D01*
X682592Y246556D01*
X682666Y246560D01*
X682740Y246554D01*
X682840Y246569D01*
X682940Y246574D01*
X683011Y246594D01*
X683085Y246605D01*
X683178Y246643D01*
X683275Y246670D01*
X683340Y246707D01*
X683409Y246734D01*
X683491Y246791D01*
X683579Y246841D01*
X683655Y246906D01*
X683695Y246933D01*
X683719Y246960D01*
X683765Y246999D01*
X699379Y262613D01*
X699441Y262691D01*
X699511Y262764D01*
X699549Y262828D01*
X699596Y262886D01*
X699639Y262977D01*
X699690Y263063D01*
X699713Y263134D01*
X699745Y263201D01*
X699766Y263299D01*
X699796Y263395D01*
X699802Y263469D01*
X699818Y263542D01*
X699816Y263642D01*
X699824Y263742D01*
X699813Y263816D01*
X699812Y263890D01*
X699787Y263987D01*
X699773Y264087D01*
X699745Y264156D01*
X699727Y264228D01*
X699681Y264318D01*
X699644Y264411D01*
X699601Y264472D01*
X699567Y264538D01*
X699502Y264615D01*
X699445Y264697D01*
X699390Y264747D01*
X699341Y264803D01*
X699261Y264863D01*
X699186Y264930D01*
X699121Y264966D01*
X699061Y265011D01*
X698969Y265050D01*
X698881Y265099D01*
X698809Y265119D01*
X698741Y265149D01*
X698642Y265166D01*
X698546Y265194D01*
X698446Y265202D01*
X698398Y265210D01*
X698362Y265208D01*
X698302Y265213D01*
X653810Y265213D01*
X653784Y265210D01*
X653758Y265212D01*
X653611Y265190D01*
X653464Y265173D01*
X653439Y265165D01*
X653413Y265161D01*
X653275Y265106D01*
X653136Y265056D01*
X653114Y265042D01*
X653089Y265032D01*
X652968Y264947D01*
X652843Y264867D01*
X652825Y264848D01*
X652803Y264833D01*
X652704Y264723D01*
X652601Y264616D01*
X652587Y264594D01*
X652570Y264574D01*
X652498Y264444D01*
X652422Y264317D01*
X652414Y264292D01*
X652401Y264269D01*
X652361Y264126D01*
X652316Y263985D01*
X652314Y263959D01*
X652306Y263934D01*
X652287Y263690D01*
X652287Y263588D01*
X652290Y263562D01*
X652288Y263536D01*
X652310Y263389D01*
X652327Y263242D01*
X652335Y263217D01*
X652339Y263191D01*
X652394Y263053D01*
X652444Y262914D01*
X652458Y262892D01*
X652468Y262867D01*
X652553Y262746D01*
X652633Y262621D01*
X652652Y262603D01*
X652667Y262581D01*
X652777Y262482D01*
X652884Y262379D01*
X652906Y262365D01*
X652926Y262348D01*
X653056Y262276D01*
X653183Y262200D01*
X653208Y262192D01*
X653231Y262179D01*
X653374Y262139D01*
X653515Y262094D01*
X653541Y262092D01*
X653566Y262084D01*
X653810Y262065D01*
X654872Y262065D01*
X655765Y261172D01*
X655765Y246828D01*
X654872Y245935D01*
X640528Y245935D01*
X639635Y246828D01*
X639635Y261172D01*
X640528Y262065D01*
X646190Y262065D01*
X646216Y262068D01*
X646242Y262066D01*
X646389Y262088D01*
X646536Y262105D01*
X646561Y262113D01*
X646587Y262117D01*
X646725Y262172D01*
X646864Y262222D01*
X646886Y262236D01*
X646911Y262246D01*
X647032Y262331D01*
X647157Y262411D01*
X647175Y262430D01*
X647197Y262445D01*
X647296Y262555D01*
X647399Y262662D01*
X647413Y262684D01*
X647430Y262704D01*
X647502Y262834D01*
X647578Y262961D01*
X647586Y262986D01*
X647599Y263009D01*
X647639Y263152D01*
X647684Y263293D01*
X647686Y263319D01*
X647694Y263344D01*
X647713Y263588D01*
X647713Y268447D01*
X648001Y268735D01*
X648063Y268813D01*
X648133Y268886D01*
X648171Y268950D01*
X648218Y269008D01*
X648261Y269099D01*
X648312Y269185D01*
X648335Y269256D01*
X648367Y269323D01*
X648388Y269421D01*
X648418Y269517D01*
X648424Y269591D01*
X648440Y269664D01*
X648438Y269764D01*
X648446Y269864D01*
X648435Y269938D01*
X648434Y270012D01*
X648409Y270109D01*
X648395Y270209D01*
X648367Y270278D01*
X648349Y270350D01*
X648303Y270439D01*
X648266Y270533D01*
X648223Y270594D01*
X648189Y270660D01*
X648124Y270737D01*
X648067Y270819D01*
X648012Y270869D01*
X647963Y270925D01*
X647883Y270985D01*
X647808Y271052D01*
X647743Y271088D01*
X647683Y271133D01*
X647591Y271172D01*
X647503Y271221D01*
X647431Y271241D01*
X647363Y271271D01*
X647264Y271288D01*
X647168Y271316D01*
X647068Y271324D01*
X647020Y271332D01*
X646984Y271330D01*
X646924Y271335D01*
X645200Y271335D01*
X645075Y271321D01*
X644948Y271314D01*
X644902Y271301D01*
X644854Y271295D01*
X644735Y271253D01*
X644613Y271218D01*
X644571Y271194D01*
X644526Y271178D01*
X644420Y271109D01*
X644309Y271048D01*
X644263Y271008D01*
X644233Y270989D01*
X644199Y270954D01*
X644123Y270889D01*
X635233Y261999D01*
X635166Y261914D01*
X635132Y261879D01*
X635125Y261867D01*
X635070Y261806D01*
X635046Y261764D01*
X635016Y261726D01*
X634962Y261612D01*
X634901Y261501D01*
X634888Y261455D01*
X634867Y261411D01*
X634841Y261287D01*
X634806Y261166D01*
X634801Y261105D01*
X634794Y261070D01*
X634795Y261022D01*
X634787Y260922D01*
X634787Y136553D01*
X633447Y135213D01*
X617138Y135213D01*
X617112Y135210D01*
X617086Y135212D01*
X616939Y135190D01*
X616792Y135173D01*
X616767Y135165D01*
X616741Y135161D01*
X616603Y135106D01*
X616464Y135056D01*
X616442Y135042D01*
X616417Y135032D01*
X616296Y134947D01*
X616171Y134867D01*
X616153Y134848D01*
X616131Y134833D01*
X616032Y134723D01*
X615929Y134616D01*
X615915Y134594D01*
X615898Y134574D01*
X615826Y134444D01*
X615750Y134317D01*
X615742Y134292D01*
X615729Y134269D01*
X615689Y134126D01*
X615644Y133985D01*
X615642Y133959D01*
X615634Y133934D01*
X615615Y133690D01*
X615615Y128810D01*
X615618Y128784D01*
X615616Y128758D01*
X615638Y128611D01*
X615655Y128464D01*
X615663Y128439D01*
X615667Y128413D01*
X615722Y128275D01*
X615772Y128136D01*
X615786Y128114D01*
X615796Y128089D01*
X615881Y127968D01*
X615961Y127843D01*
X615980Y127825D01*
X615995Y127803D01*
X616105Y127704D01*
X616212Y127601D01*
X616234Y127587D01*
X616254Y127570D01*
X616384Y127498D01*
X616511Y127422D01*
X616536Y127414D01*
X616559Y127401D01*
X616702Y127361D01*
X616843Y127316D01*
X616869Y127314D01*
X616894Y127306D01*
X617138Y127287D01*
X638112Y127287D01*
X638138Y127290D01*
X638164Y127288D01*
X638311Y127310D01*
X638458Y127327D01*
X638483Y127335D01*
X638509Y127339D01*
X638647Y127394D01*
X638786Y127444D01*
X638808Y127458D01*
X638833Y127468D01*
X638954Y127553D01*
X639079Y127633D01*
X639097Y127652D01*
X639119Y127667D01*
X639218Y127777D01*
X639321Y127884D01*
X639335Y127906D01*
X639352Y127926D01*
X639424Y128056D01*
X639500Y128183D01*
X639508Y128208D01*
X639521Y128231D01*
X639561Y128374D01*
X639606Y128515D01*
X639608Y128541D01*
X639616Y128566D01*
X639635Y128810D01*
X639635Y134172D01*
X640528Y135065D01*
X654872Y135065D01*
X655765Y134172D01*
X655765Y125176D01*
X655776Y125076D01*
X655778Y124976D01*
X655796Y124904D01*
X655805Y124830D01*
X655838Y124735D01*
X655863Y124638D01*
X655897Y124572D01*
X655922Y124502D01*
X655977Y124417D01*
X656023Y124328D01*
X656071Y124271D01*
X656111Y124209D01*
X656183Y124139D01*
X656248Y124063D01*
X656308Y124019D01*
X656362Y123967D01*
X656448Y123915D01*
X656529Y123856D01*
X656597Y123826D01*
X656661Y123788D01*
X656757Y123757D01*
X656849Y123718D01*
X656922Y123704D01*
X656993Y123682D01*
X657093Y123674D01*
X657192Y123656D01*
X657266Y123660D01*
X657340Y123654D01*
X657440Y123669D01*
G37*
%LPC*%
G36*
X348178Y398085D02*
X348178Y398085D01*
X347285Y398978D01*
X347285Y413822D01*
X348178Y414715D01*
X358350Y414715D01*
X358475Y414729D01*
X358602Y414736D01*
X358648Y414749D01*
X358696Y414755D01*
X358815Y414797D01*
X358936Y414832D01*
X358979Y414856D01*
X359024Y414872D01*
X359130Y414941D01*
X359241Y415002D01*
X359287Y415042D01*
X359317Y415061D01*
X359350Y415096D01*
X359427Y415161D01*
X367267Y423001D01*
X367346Y423100D01*
X367430Y423194D01*
X367454Y423236D01*
X367484Y423274D01*
X367538Y423388D01*
X367599Y423499D01*
X367612Y423546D01*
X367633Y423589D01*
X367659Y423713D01*
X367694Y423834D01*
X367699Y423895D01*
X367706Y423930D01*
X367705Y423978D01*
X367713Y424078D01*
X367713Y503422D01*
X367699Y503547D01*
X367692Y503674D01*
X367679Y503720D01*
X367673Y503768D01*
X367631Y503887D01*
X367596Y504008D01*
X367572Y504051D01*
X367556Y504096D01*
X367487Y504202D01*
X367426Y504313D01*
X367386Y504359D01*
X367367Y504389D01*
X367332Y504422D01*
X367267Y504499D01*
X362713Y509053D01*
X362713Y510540D01*
X362710Y510566D01*
X362712Y510592D01*
X362690Y510739D01*
X362673Y510886D01*
X362665Y510911D01*
X362661Y510937D01*
X362606Y511075D01*
X362556Y511214D01*
X362542Y511236D01*
X362532Y511261D01*
X362447Y511382D01*
X362367Y511507D01*
X362348Y511525D01*
X362333Y511547D01*
X362223Y511646D01*
X362116Y511749D01*
X362094Y511763D01*
X362074Y511780D01*
X361945Y511852D01*
X361817Y511928D01*
X361792Y511936D01*
X361769Y511949D01*
X361626Y511989D01*
X361485Y512034D01*
X361459Y512036D01*
X361434Y512044D01*
X361190Y512063D01*
X347856Y512063D01*
X346963Y512956D01*
X346963Y528444D01*
X347856Y529337D01*
X361190Y529337D01*
X361216Y529340D01*
X361242Y529338D01*
X361389Y529360D01*
X361536Y529377D01*
X361561Y529385D01*
X361587Y529389D01*
X361725Y529444D01*
X361864Y529494D01*
X361886Y529508D01*
X361911Y529518D01*
X362032Y529603D01*
X362157Y529683D01*
X362175Y529702D01*
X362197Y529717D01*
X362296Y529827D01*
X362399Y529934D01*
X362413Y529956D01*
X362430Y529976D01*
X362502Y530106D01*
X362578Y530233D01*
X362586Y530258D01*
X362599Y530281D01*
X362639Y530424D01*
X362684Y530565D01*
X362686Y530591D01*
X362694Y530616D01*
X362713Y530860D01*
X362713Y530947D01*
X371917Y540151D01*
X371993Y540247D01*
X372049Y540305D01*
X372057Y540318D01*
X372080Y540344D01*
X372104Y540386D01*
X372134Y540424D01*
X372184Y540529D01*
X372228Y540604D01*
X372234Y540622D01*
X372249Y540649D01*
X372262Y540696D01*
X372283Y540739D01*
X372306Y540847D01*
X372334Y540936D01*
X372336Y540958D01*
X372344Y540984D01*
X372349Y541045D01*
X372356Y541080D01*
X372355Y541128D01*
X372363Y541228D01*
X372363Y553844D01*
X373256Y554737D01*
X388744Y554737D01*
X389637Y553844D01*
X389637Y538356D01*
X388744Y537463D01*
X376328Y537463D01*
X376203Y537449D01*
X376076Y537442D01*
X376030Y537429D01*
X375982Y537423D01*
X375863Y537381D01*
X375742Y537346D01*
X375699Y537322D01*
X375654Y537306D01*
X375548Y537237D01*
X375437Y537176D01*
X375391Y537136D01*
X375361Y537117D01*
X375328Y537082D01*
X375251Y537017D01*
X367733Y529499D01*
X367654Y529400D01*
X367570Y529306D01*
X367546Y529264D01*
X367516Y529226D01*
X367462Y529112D01*
X367401Y529001D01*
X367388Y528954D01*
X367367Y528911D01*
X367341Y528787D01*
X367306Y528666D01*
X367301Y528605D01*
X367294Y528570D01*
X367295Y528522D01*
X367287Y528422D01*
X367287Y511578D01*
X367301Y511453D01*
X367308Y511326D01*
X367321Y511280D01*
X367327Y511232D01*
X367369Y511113D01*
X367404Y510992D01*
X367428Y510949D01*
X367444Y510904D01*
X367513Y510798D01*
X367574Y510687D01*
X367614Y510641D01*
X367633Y510611D01*
X367668Y510578D01*
X367733Y510501D01*
X372287Y505947D01*
X372287Y421553D01*
X364361Y413627D01*
X364282Y413528D01*
X364198Y413434D01*
X364174Y413392D01*
X364144Y413354D01*
X364090Y413240D01*
X364029Y413129D01*
X364016Y413082D01*
X363995Y413039D01*
X363969Y412915D01*
X363934Y412794D01*
X363929Y412733D01*
X363922Y412698D01*
X363923Y412650D01*
X363915Y412550D01*
X363915Y398978D01*
X363022Y398085D01*
X348178Y398085D01*
G37*
%LPD*%
%LPC*%
G36*
X599878Y347285D02*
X599878Y347285D01*
X598985Y348178D01*
X598985Y363022D01*
X599878Y363915D01*
X614740Y363915D01*
X614756Y363899D01*
X614820Y363861D01*
X614878Y363815D01*
X614969Y363772D01*
X615055Y363720D01*
X615126Y363698D01*
X615193Y363666D01*
X615291Y363645D01*
X615387Y363614D01*
X615461Y363608D01*
X615534Y363592D01*
X615634Y363594D01*
X615734Y363586D01*
X615808Y363597D01*
X615882Y363598D01*
X615980Y363623D01*
X616079Y363638D01*
X616148Y363665D01*
X616220Y363683D01*
X616310Y363729D01*
X616403Y363767D01*
X616464Y363809D01*
X616530Y363843D01*
X616606Y363908D01*
X616689Y363965D01*
X616739Y364021D01*
X616795Y364069D01*
X616855Y364150D01*
X616922Y364224D01*
X616958Y364289D01*
X617003Y364349D01*
X617042Y364441D01*
X617091Y364529D01*
X617111Y364601D01*
X617141Y364669D01*
X617158Y364768D01*
X617186Y364865D01*
X617194Y364965D01*
X617202Y365012D01*
X617200Y365048D01*
X617205Y365108D01*
X617205Y365711D01*
X617191Y365837D01*
X617184Y365963D01*
X617171Y366010D01*
X617165Y366058D01*
X617123Y366177D01*
X617088Y366298D01*
X617064Y366340D01*
X617048Y366386D01*
X616979Y366492D01*
X616918Y366602D01*
X616878Y366649D01*
X616859Y366679D01*
X616824Y366712D01*
X616759Y366789D01*
X611309Y372239D01*
X611210Y372318D01*
X611116Y372402D01*
X611073Y372426D01*
X611036Y372456D01*
X610921Y372510D01*
X610811Y372571D01*
X610764Y372584D01*
X610720Y372605D01*
X610597Y372631D01*
X610475Y372666D01*
X610414Y372671D01*
X610380Y372678D01*
X610332Y372677D01*
X610231Y372685D01*
X599878Y372685D01*
X598985Y373578D01*
X598985Y388422D01*
X599878Y389315D01*
X614722Y389315D01*
X615615Y388422D01*
X615615Y376469D01*
X615629Y376343D01*
X615636Y376217D01*
X615649Y376170D01*
X615655Y376122D01*
X615697Y376003D01*
X615732Y375882D01*
X615756Y375840D01*
X615772Y375794D01*
X615841Y375688D01*
X615902Y375578D01*
X615942Y375531D01*
X615961Y375501D01*
X615996Y375468D01*
X616061Y375391D01*
X620711Y370741D01*
X620712Y370741D01*
X623211Y368241D01*
X623310Y368162D01*
X623404Y368078D01*
X623447Y368054D01*
X623484Y368024D01*
X623599Y367970D01*
X623709Y367909D01*
X623756Y367896D01*
X623800Y367875D01*
X623923Y367849D01*
X624045Y367814D01*
X624106Y367809D01*
X624140Y367802D01*
X624188Y367803D01*
X624289Y367795D01*
X655711Y367795D01*
X655837Y367809D01*
X655963Y367816D01*
X656010Y367829D01*
X656058Y367835D01*
X656177Y367877D01*
X656298Y367912D01*
X656340Y367936D01*
X656386Y367952D01*
X656492Y368021D01*
X656602Y368082D01*
X656649Y368122D01*
X656679Y368141D01*
X656712Y368176D01*
X656789Y368241D01*
X664589Y376041D01*
X664668Y376140D01*
X664752Y376234D01*
X664776Y376277D01*
X664806Y376314D01*
X664860Y376429D01*
X664921Y376539D01*
X664934Y376586D01*
X664955Y376630D01*
X664981Y376753D01*
X665016Y376875D01*
X665021Y376936D01*
X665028Y376970D01*
X665027Y377018D01*
X665035Y377119D01*
X665035Y388172D01*
X665928Y389065D01*
X680272Y389065D01*
X681165Y388172D01*
X681165Y373828D01*
X680272Y372935D01*
X670019Y372935D01*
X669893Y372921D01*
X669767Y372914D01*
X669720Y372901D01*
X669672Y372895D01*
X669553Y372853D01*
X669432Y372818D01*
X669390Y372794D01*
X669344Y372778D01*
X669238Y372709D01*
X669128Y372648D01*
X669081Y372608D01*
X669051Y372589D01*
X669018Y372554D01*
X668941Y372489D01*
X658658Y362205D01*
X657288Y362205D01*
X657262Y362202D01*
X657236Y362204D01*
X657089Y362182D01*
X656942Y362165D01*
X656917Y362157D01*
X656891Y362153D01*
X656753Y362098D01*
X656614Y362048D01*
X656592Y362034D01*
X656567Y362024D01*
X656446Y361939D01*
X656321Y361859D01*
X656303Y361840D01*
X656281Y361825D01*
X656182Y361715D01*
X656079Y361608D01*
X656065Y361586D01*
X656048Y361566D01*
X655976Y361436D01*
X655900Y361309D01*
X655892Y361284D01*
X655879Y361261D01*
X655839Y361118D01*
X655794Y360977D01*
X655792Y360951D01*
X655784Y360926D01*
X655765Y360682D01*
X655765Y348428D01*
X654872Y347535D01*
X640528Y347535D01*
X639635Y348428D01*
X639635Y360682D01*
X639632Y360708D01*
X639634Y360734D01*
X639612Y360881D01*
X639595Y361028D01*
X639587Y361053D01*
X639583Y361079D01*
X639528Y361217D01*
X639478Y361356D01*
X639464Y361378D01*
X639454Y361403D01*
X639369Y361524D01*
X639289Y361649D01*
X639270Y361667D01*
X639255Y361689D01*
X639145Y361788D01*
X639038Y361891D01*
X639016Y361905D01*
X638996Y361922D01*
X638866Y361994D01*
X638739Y362070D01*
X638714Y362078D01*
X638691Y362091D01*
X638548Y362131D01*
X638407Y362176D01*
X638381Y362178D01*
X638356Y362186D01*
X638112Y362205D01*
X618842Y362205D01*
X618215Y362833D01*
X618136Y362895D01*
X618064Y362965D01*
X618000Y363003D01*
X617942Y363049D01*
X617851Y363092D01*
X617765Y363144D01*
X617694Y363166D01*
X617627Y363198D01*
X617529Y363219D01*
X617433Y363250D01*
X617359Y363256D01*
X617286Y363271D01*
X617186Y363270D01*
X617086Y363278D01*
X617012Y363267D01*
X616938Y363266D01*
X616841Y363241D01*
X616741Y363226D01*
X616672Y363199D01*
X616600Y363181D01*
X616511Y363135D01*
X616417Y363097D01*
X616356Y363055D01*
X616290Y363021D01*
X616214Y362956D01*
X616131Y362898D01*
X616081Y362843D01*
X616025Y362795D01*
X615965Y362714D01*
X615898Y362640D01*
X615862Y362575D01*
X615817Y362515D01*
X615778Y362423D01*
X615729Y362335D01*
X615709Y362263D01*
X615679Y362195D01*
X615662Y362096D01*
X615634Y361999D01*
X615626Y361899D01*
X615618Y361852D01*
X615620Y361816D01*
X615615Y361755D01*
X615615Y348178D01*
X614722Y347285D01*
X599878Y347285D01*
G37*
%LPD*%
%LPC*%
G36*
X281519Y444899D02*
X281519Y444899D01*
X274903Y447640D01*
X269840Y452703D01*
X267099Y459319D01*
X267099Y466481D01*
X269840Y473097D01*
X274903Y478160D01*
X281519Y480901D01*
X288681Y480901D01*
X295297Y478160D01*
X300360Y473097D01*
X303101Y466481D01*
X303101Y459319D01*
X300360Y452703D01*
X295297Y447640D01*
X288681Y444899D01*
X281519Y444899D01*
G37*
%LPD*%
%LPC*%
G36*
X41519Y204899D02*
X41519Y204899D01*
X34903Y207640D01*
X29840Y212703D01*
X27099Y219319D01*
X27099Y226481D01*
X29840Y233097D01*
X34903Y238160D01*
X41519Y240901D01*
X48681Y240901D01*
X55297Y238160D01*
X60360Y233097D01*
X63101Y226481D01*
X63101Y219319D01*
X60360Y212703D01*
X55297Y207640D01*
X48681Y204899D01*
X41519Y204899D01*
G37*
%LPD*%
%LPC*%
G36*
X281519Y204899D02*
X281519Y204899D01*
X274903Y207640D01*
X269840Y212703D01*
X267099Y219319D01*
X267099Y226481D01*
X269840Y233097D01*
X274903Y238160D01*
X281519Y240901D01*
X288681Y240901D01*
X295297Y238160D01*
X300360Y233097D01*
X303101Y226481D01*
X303101Y219319D01*
X300360Y212703D01*
X295297Y207640D01*
X288681Y204899D01*
X281519Y204899D01*
G37*
%LPD*%
%LPC*%
G36*
X41519Y444899D02*
X41519Y444899D01*
X34903Y447640D01*
X29840Y452703D01*
X27099Y459319D01*
X27099Y466481D01*
X29840Y473097D01*
X34903Y478160D01*
X41519Y480901D01*
X48681Y480901D01*
X55297Y478160D01*
X60360Y473097D01*
X63101Y466481D01*
X63101Y459319D01*
X60360Y452703D01*
X55297Y447640D01*
X48681Y444899D01*
X41519Y444899D01*
G37*
%LPD*%
%LPC*%
G36*
X971218Y570299D02*
X971218Y570299D01*
X964970Y572887D01*
X960187Y577670D01*
X957599Y583918D01*
X957599Y590682D01*
X960187Y596930D01*
X964970Y601713D01*
X971218Y604301D01*
X977982Y604301D01*
X984230Y601713D01*
X989013Y596930D01*
X991601Y590682D01*
X991601Y583918D01*
X989013Y577670D01*
X984230Y572887D01*
X977982Y570299D01*
X971218Y570299D01*
G37*
%LPD*%
%LPC*%
G36*
X22018Y570299D02*
X22018Y570299D01*
X15770Y572887D01*
X10987Y577670D01*
X8399Y583918D01*
X8399Y590682D01*
X10987Y596930D01*
X15770Y601713D01*
X22018Y604301D01*
X28782Y604301D01*
X35030Y601713D01*
X39813Y596930D01*
X42401Y590682D01*
X42401Y583918D01*
X39813Y577670D01*
X35030Y572887D01*
X28782Y570299D01*
X22018Y570299D01*
G37*
%LPD*%
%LPC*%
G36*
X971218Y8399D02*
X971218Y8399D01*
X964970Y10987D01*
X960187Y15770D01*
X957599Y22018D01*
X957599Y28782D01*
X960187Y35030D01*
X964970Y39813D01*
X971218Y42401D01*
X977982Y42401D01*
X984230Y39813D01*
X989013Y35030D01*
X991601Y28782D01*
X991601Y22018D01*
X989013Y15770D01*
X984230Y10987D01*
X977982Y8399D01*
X971218Y8399D01*
G37*
%LPD*%
%LPC*%
G36*
X22018Y8399D02*
X22018Y8399D01*
X15770Y10987D01*
X10987Y15770D01*
X8399Y22018D01*
X8399Y28782D01*
X10987Y35030D01*
X15770Y39813D01*
X22018Y42401D01*
X28782Y42401D01*
X35030Y39813D01*
X39813Y35030D01*
X42401Y28782D01*
X42401Y22018D01*
X39813Y15770D01*
X35030Y10987D01*
X28782Y8399D01*
X22018Y8399D01*
G37*
%LPD*%
%LPC*%
G36*
X976334Y93725D02*
X976334Y93725D01*
X973439Y94924D01*
X971224Y97139D01*
X970025Y100034D01*
X970025Y103166D01*
X971224Y106061D01*
X973439Y108276D01*
X976334Y109475D01*
X979466Y109475D01*
X981549Y108612D01*
X981622Y108591D01*
X981692Y108561D01*
X981789Y108544D01*
X981884Y108517D01*
X981960Y108513D01*
X982035Y108499D01*
X982134Y108504D01*
X982232Y108500D01*
X982307Y108513D01*
X982383Y108517D01*
X982478Y108545D01*
X982575Y108562D01*
X982645Y108593D01*
X982718Y108614D01*
X982804Y108662D01*
X982894Y108701D01*
X982956Y108747D01*
X983022Y108784D01*
X983136Y108881D01*
X983174Y108909D01*
X983186Y108924D01*
X983209Y108942D01*
X989767Y115501D01*
X989846Y115600D01*
X989930Y115694D01*
X989954Y115736D01*
X989984Y115774D01*
X990038Y115888D01*
X990099Y115999D01*
X990112Y116046D01*
X990133Y116089D01*
X990159Y116213D01*
X990194Y116334D01*
X990199Y116395D01*
X990206Y116430D01*
X990205Y116478D01*
X990213Y116578D01*
X990213Y183422D01*
X990199Y183547D01*
X990192Y183674D01*
X990179Y183720D01*
X990173Y183768D01*
X990131Y183887D01*
X990096Y184008D01*
X990072Y184051D01*
X990056Y184096D01*
X989987Y184202D01*
X989926Y184313D01*
X989886Y184359D01*
X989867Y184389D01*
X989832Y184422D01*
X989767Y184499D01*
X979499Y194767D01*
X979387Y194879D01*
X979288Y194958D01*
X979194Y195042D01*
X979152Y195066D01*
X979114Y195096D01*
X979000Y195150D01*
X978889Y195211D01*
X978843Y195224D01*
X978799Y195245D01*
X978675Y195271D01*
X978554Y195306D01*
X978493Y195311D01*
X978458Y195318D01*
X978410Y195317D01*
X978310Y195325D01*
X976334Y195325D01*
X973439Y196524D01*
X971224Y198739D01*
X970025Y201634D01*
X970025Y204766D01*
X971224Y207661D01*
X973439Y209876D01*
X976334Y211075D01*
X979466Y211075D01*
X982361Y209876D01*
X984576Y207661D01*
X985775Y204766D01*
X985775Y201634D01*
X984576Y198739D01*
X984362Y198526D01*
X984346Y198505D01*
X984326Y198488D01*
X984238Y198369D01*
X984146Y198253D01*
X984135Y198229D01*
X984119Y198208D01*
X984060Y198072D01*
X983997Y197938D01*
X983991Y197912D01*
X983981Y197888D01*
X983955Y197742D01*
X983923Y197597D01*
X983924Y197571D01*
X983919Y197545D01*
X983927Y197396D01*
X983929Y197249D01*
X983936Y197223D01*
X983937Y197197D01*
X983978Y197054D01*
X984014Y196911D01*
X984026Y196887D01*
X984034Y196862D01*
X984106Y196733D01*
X984174Y196601D01*
X984191Y196581D01*
X984204Y196558D01*
X984362Y196372D01*
X994787Y185947D01*
X994787Y114053D01*
X993001Y112267D01*
X985945Y105211D01*
X985898Y105152D01*
X985843Y105098D01*
X985790Y105015D01*
X985729Y104938D01*
X985696Y104869D01*
X985655Y104805D01*
X985622Y104712D01*
X985580Y104623D01*
X985564Y104549D01*
X985538Y104477D01*
X985527Y104379D01*
X985507Y104283D01*
X985508Y104206D01*
X985499Y104130D01*
X985511Y104032D01*
X985512Y103934D01*
X985531Y103860D01*
X985540Y103784D01*
X985586Y103642D01*
X985597Y103596D01*
X985606Y103579D01*
X985615Y103551D01*
X985775Y103166D01*
X985775Y100034D01*
X984576Y97139D01*
X982361Y94924D01*
X979466Y93725D01*
X976334Y93725D01*
G37*
%LPD*%
%LPC*%
G36*
X956116Y271899D02*
X956116Y271899D01*
X950786Y274107D01*
X946707Y278186D01*
X944499Y283516D01*
X944499Y289284D01*
X946707Y294614D01*
X950786Y298693D01*
X956116Y300901D01*
X961884Y300901D01*
X967214Y298693D01*
X971293Y294614D01*
X973501Y289284D01*
X973501Y283516D01*
X971293Y278186D01*
X967214Y274107D01*
X961884Y271899D01*
X956116Y271899D01*
G37*
%LPD*%
%LPC*%
G36*
X816613Y534399D02*
X816613Y534399D01*
X812202Y536226D01*
X808826Y539602D01*
X806999Y544013D01*
X806999Y548787D01*
X808826Y553198D01*
X812202Y556574D01*
X816613Y558401D01*
X821387Y558401D01*
X825798Y556574D01*
X829174Y553198D01*
X831001Y548787D01*
X831001Y544013D01*
X829174Y539602D01*
X825798Y536226D01*
X821387Y534399D01*
X816613Y534399D01*
G37*
%LPD*%
%LPC*%
G36*
X714268Y52975D02*
X714268Y52975D01*
X713375Y53868D01*
X713375Y73132D01*
X714268Y74025D01*
X733532Y74025D01*
X734425Y73132D01*
X734425Y53868D01*
X733532Y52975D01*
X714268Y52975D01*
G37*
%LPD*%
%LPC*%
G36*
X294116Y385635D02*
X294116Y385635D01*
X291152Y386863D01*
X288883Y389132D01*
X287655Y392096D01*
X287655Y395304D01*
X288883Y398268D01*
X291152Y400537D01*
X294116Y401765D01*
X310404Y401765D01*
X313368Y400537D01*
X315637Y398268D01*
X316865Y395304D01*
X316865Y392096D01*
X315637Y389132D01*
X313368Y386863D01*
X310404Y385635D01*
X294116Y385635D01*
G37*
%LPD*%
%LPC*%
G36*
X294116Y334835D02*
X294116Y334835D01*
X291152Y336063D01*
X288883Y338332D01*
X287655Y341296D01*
X287655Y344504D01*
X288883Y347468D01*
X291152Y349737D01*
X294116Y350965D01*
X310404Y350965D01*
X313368Y349737D01*
X315637Y347468D01*
X316865Y344504D01*
X316865Y341296D01*
X315637Y338332D01*
X313368Y336063D01*
X310404Y334835D01*
X294116Y334835D01*
G37*
%LPD*%
%LPC*%
G36*
X294116Y284035D02*
X294116Y284035D01*
X291152Y285263D01*
X288883Y287532D01*
X287655Y290496D01*
X287655Y293704D01*
X288883Y296668D01*
X291152Y298937D01*
X294116Y300165D01*
X310404Y300165D01*
X313368Y298937D01*
X315637Y296668D01*
X316865Y293704D01*
X316865Y290496D01*
X315637Y287532D01*
X313368Y285263D01*
X310404Y284035D01*
X294116Y284035D01*
G37*
%LPD*%
%LPC*%
G36*
X872664Y41688D02*
X872664Y41688D01*
X872568Y41716D01*
X872468Y41724D01*
X872420Y41732D01*
X872384Y41730D01*
X872324Y41735D01*
X855428Y41735D01*
X854535Y42628D01*
X854535Y58972D01*
X855428Y59865D01*
X871772Y59865D01*
X872665Y58972D01*
X872665Y42076D01*
X872676Y41976D01*
X872678Y41876D01*
X872696Y41804D01*
X872705Y41730D01*
X872723Y41678D01*
X872664Y41688D01*
G37*
%LPD*%
%LPC*%
G36*
X906228Y41735D02*
X906228Y41735D01*
X905335Y42628D01*
X905335Y58972D01*
X906228Y59865D01*
X922572Y59865D01*
X923465Y58972D01*
X923465Y42628D01*
X922572Y41735D01*
X906228Y41735D01*
G37*
%LPD*%
%LPC*%
G36*
X271228Y41735D02*
X271228Y41735D01*
X270335Y42628D01*
X270335Y58972D01*
X271228Y59865D01*
X287572Y59865D01*
X288465Y58972D01*
X288465Y42628D01*
X287572Y41735D01*
X271228Y41735D01*
G37*
%LPD*%
%LPC*%
G36*
X169628Y41735D02*
X169628Y41735D01*
X168735Y42628D01*
X168735Y58972D01*
X169628Y59865D01*
X185972Y59865D01*
X186865Y58972D01*
X186865Y42628D01*
X185972Y41735D01*
X169628Y41735D01*
G37*
%LPD*%
%LPC*%
G36*
X144228Y41735D02*
X144228Y41735D01*
X143335Y42628D01*
X143335Y58972D01*
X144228Y59865D01*
X160572Y59865D01*
X161465Y58972D01*
X161465Y42628D01*
X160572Y41735D01*
X144228Y41735D01*
G37*
%LPD*%
%LPC*%
G36*
X810868Y144175D02*
X810868Y144175D01*
X809975Y145068D01*
X809975Y161332D01*
X810868Y162225D01*
X827132Y162225D01*
X828025Y161332D01*
X828025Y145068D01*
X827132Y144175D01*
X810868Y144175D01*
G37*
%LPD*%
%LPC*%
G36*
X785468Y144175D02*
X785468Y144175D01*
X784575Y145068D01*
X784575Y161332D01*
X785468Y162225D01*
X801732Y162225D01*
X802625Y161332D01*
X802625Y145068D01*
X801732Y144175D01*
X785468Y144175D01*
G37*
%LPD*%
%LPC*%
G36*
X760168Y144175D02*
X760168Y144175D01*
X759275Y145068D01*
X759275Y161332D01*
X760168Y162225D01*
X776432Y162225D01*
X777325Y161332D01*
X777325Y145068D01*
X776432Y144175D01*
X760168Y144175D01*
G37*
%LPD*%
%LPC*%
G36*
X297056Y537463D02*
X297056Y537463D01*
X296163Y538356D01*
X296163Y553844D01*
X297056Y554737D01*
X312544Y554737D01*
X313437Y553844D01*
X313437Y538356D01*
X312544Y537463D01*
X297056Y537463D01*
G37*
%LPD*%
%LPC*%
G36*
X347856Y537463D02*
X347856Y537463D01*
X346963Y538356D01*
X346963Y553844D01*
X347856Y554737D01*
X363344Y554737D01*
X364237Y553844D01*
X364237Y538356D01*
X363344Y537463D01*
X347856Y537463D01*
G37*
%LPD*%
%LPC*%
G36*
X474856Y537463D02*
X474856Y537463D01*
X473963Y538356D01*
X473963Y553844D01*
X474856Y554737D01*
X490344Y554737D01*
X491237Y553844D01*
X491237Y538356D01*
X490344Y537463D01*
X474856Y537463D01*
G37*
%LPD*%
%LPC*%
G36*
X525656Y537463D02*
X525656Y537463D01*
X524763Y538356D01*
X524763Y553844D01*
X525656Y554737D01*
X541144Y554737D01*
X542037Y553844D01*
X542037Y538356D01*
X541144Y537463D01*
X525656Y537463D01*
G37*
%LPD*%
%LPC*%
G36*
X551056Y537463D02*
X551056Y537463D01*
X550163Y538356D01*
X550163Y553844D01*
X551056Y554737D01*
X566544Y554737D01*
X567437Y553844D01*
X567437Y538356D01*
X566544Y537463D01*
X551056Y537463D01*
G37*
%LPD*%
%LPC*%
G36*
X93856Y537463D02*
X93856Y537463D01*
X92963Y538356D01*
X92963Y553844D01*
X93856Y554737D01*
X109344Y554737D01*
X110237Y553844D01*
X110237Y538356D01*
X109344Y537463D01*
X93856Y537463D01*
G37*
%LPD*%
%LPC*%
G36*
X576456Y537463D02*
X576456Y537463D01*
X575563Y538356D01*
X575563Y553844D01*
X576456Y554737D01*
X591944Y554737D01*
X592837Y553844D01*
X592837Y538356D01*
X591944Y537463D01*
X576456Y537463D01*
G37*
%LPD*%
%LPC*%
G36*
X551056Y512063D02*
X551056Y512063D01*
X550163Y512956D01*
X550163Y528444D01*
X551056Y529337D01*
X566544Y529337D01*
X567437Y528444D01*
X567437Y512956D01*
X566544Y512063D01*
X551056Y512063D01*
G37*
%LPD*%
%LPC*%
G36*
X525656Y512063D02*
X525656Y512063D01*
X524763Y512956D01*
X524763Y528444D01*
X525656Y529337D01*
X541144Y529337D01*
X542037Y528444D01*
X542037Y512956D01*
X541144Y512063D01*
X525656Y512063D01*
G37*
%LPD*%
%LPC*%
G36*
X500256Y512063D02*
X500256Y512063D01*
X499363Y512956D01*
X499363Y528444D01*
X500256Y529337D01*
X515744Y529337D01*
X516637Y528444D01*
X516637Y512956D01*
X515744Y512063D01*
X500256Y512063D01*
G37*
%LPD*%
%LPC*%
G36*
X474856Y512063D02*
X474856Y512063D01*
X473963Y512956D01*
X473963Y528444D01*
X474856Y529337D01*
X490344Y529337D01*
X491237Y528444D01*
X491237Y512956D01*
X490344Y512063D01*
X474856Y512063D01*
G37*
%LPD*%
%LPC*%
G36*
X322456Y512063D02*
X322456Y512063D01*
X321563Y512956D01*
X321563Y528444D01*
X322456Y529337D01*
X337944Y529337D01*
X338837Y528444D01*
X338837Y512956D01*
X337944Y512063D01*
X322456Y512063D01*
G37*
%LPD*%
%LPC*%
G36*
X297056Y512063D02*
X297056Y512063D01*
X296163Y512956D01*
X296163Y528444D01*
X297056Y529337D01*
X312544Y529337D01*
X313437Y528444D01*
X313437Y512956D01*
X312544Y512063D01*
X297056Y512063D01*
G37*
%LPD*%
%LPC*%
G36*
X93856Y512063D02*
X93856Y512063D01*
X92963Y512956D01*
X92963Y528444D01*
X93856Y529337D01*
X109344Y529337D01*
X110237Y528444D01*
X110237Y512956D01*
X109344Y512063D01*
X93856Y512063D01*
G37*
%LPD*%
%LPC*%
G36*
X220856Y537463D02*
X220856Y537463D01*
X219963Y538356D01*
X219963Y553844D01*
X220856Y554737D01*
X236344Y554737D01*
X237237Y553844D01*
X237237Y538356D01*
X236344Y537463D01*
X220856Y537463D01*
G37*
%LPD*%
%LPC*%
G36*
X599878Y448885D02*
X599878Y448885D01*
X598985Y449778D01*
X598985Y464622D01*
X599878Y465515D01*
X614722Y465515D01*
X615615Y464622D01*
X615615Y449778D01*
X615309Y449473D01*
X615278Y449434D01*
X615241Y449400D01*
X615170Y449297D01*
X615093Y449200D01*
X615071Y449154D01*
X615042Y449113D01*
X614997Y448997D01*
X614944Y448885D01*
X599878Y448885D01*
G37*
%LPD*%
%LPC*%
G36*
X348178Y17085D02*
X348178Y17085D01*
X347285Y17978D01*
X347285Y32822D01*
X348178Y33715D01*
X363022Y33715D01*
X363915Y32822D01*
X363915Y17978D01*
X363022Y17085D01*
X348178Y17085D01*
G37*
%LPD*%
%LPC*%
G36*
X348178Y271085D02*
X348178Y271085D01*
X347285Y271978D01*
X347285Y286822D01*
X348178Y287715D01*
X363022Y287715D01*
X363915Y286822D01*
X363915Y271978D01*
X363022Y271085D01*
X348178Y271085D01*
G37*
%LPD*%
%LPC*%
G36*
X348178Y245685D02*
X348178Y245685D01*
X347285Y246578D01*
X347285Y261422D01*
X348178Y262315D01*
X363022Y262315D01*
X363915Y261422D01*
X363915Y246578D01*
X363022Y245685D01*
X348178Y245685D01*
G37*
%LPD*%
%LPC*%
G36*
X348178Y118685D02*
X348178Y118685D01*
X347285Y119578D01*
X347285Y134422D01*
X348178Y135315D01*
X363022Y135315D01*
X363915Y134422D01*
X363915Y119578D01*
X363022Y118685D01*
X348178Y118685D01*
G37*
%LPD*%
%LPC*%
G36*
X348178Y296485D02*
X348178Y296485D01*
X347285Y297378D01*
X347285Y312222D01*
X348178Y313115D01*
X363022Y313115D01*
X363915Y312222D01*
X363915Y297378D01*
X363022Y296485D01*
X348178Y296485D01*
G37*
%LPD*%
%LPC*%
G36*
X348178Y93285D02*
X348178Y93285D01*
X347285Y94178D01*
X347285Y109022D01*
X348178Y109915D01*
X363022Y109915D01*
X363915Y109022D01*
X363915Y94178D01*
X363022Y93285D01*
X348178Y93285D01*
G37*
%LPD*%
%LPC*%
G36*
X348178Y474285D02*
X348178Y474285D01*
X347285Y475178D01*
X347285Y490022D01*
X348178Y490915D01*
X363022Y490915D01*
X363915Y490022D01*
X363915Y475178D01*
X363022Y474285D01*
X348178Y474285D01*
G37*
%LPD*%
%LPC*%
G36*
X348178Y220285D02*
X348178Y220285D01*
X347285Y221178D01*
X347285Y236022D01*
X348178Y236915D01*
X363022Y236915D01*
X363915Y236022D01*
X363915Y221178D01*
X363022Y220285D01*
X348178Y220285D01*
G37*
%LPD*%
%LPC*%
G36*
X348178Y42485D02*
X348178Y42485D01*
X347285Y43378D01*
X347285Y58222D01*
X348178Y59115D01*
X363022Y59115D01*
X363915Y58222D01*
X363915Y43378D01*
X363022Y42485D01*
X348178Y42485D01*
G37*
%LPD*%
%LPC*%
G36*
X348178Y372685D02*
X348178Y372685D01*
X347285Y373578D01*
X347285Y388422D01*
X348178Y389315D01*
X363022Y389315D01*
X363915Y388422D01*
X363915Y373578D01*
X363022Y372685D01*
X348178Y372685D01*
G37*
%LPD*%
%LPC*%
G36*
X348178Y169485D02*
X348178Y169485D01*
X347285Y170378D01*
X347285Y185222D01*
X348178Y186115D01*
X363022Y186115D01*
X363915Y185222D01*
X363915Y170378D01*
X363022Y169485D01*
X348178Y169485D01*
G37*
%LPD*%
%LPC*%
G36*
X348178Y67885D02*
X348178Y67885D01*
X347285Y68778D01*
X347285Y83622D01*
X348178Y84515D01*
X363022Y84515D01*
X363915Y83622D01*
X363915Y68778D01*
X363022Y67885D01*
X348178Y67885D01*
G37*
%LPD*%
%LPC*%
G36*
X348178Y194885D02*
X348178Y194885D01*
X347285Y195778D01*
X347285Y210622D01*
X348178Y211515D01*
X363022Y211515D01*
X363915Y210622D01*
X363915Y195778D01*
X363022Y194885D01*
X348178Y194885D01*
G37*
%LPD*%
%LPC*%
G36*
X348178Y448885D02*
X348178Y448885D01*
X347285Y449778D01*
X347285Y464622D01*
X348178Y465515D01*
X363022Y465515D01*
X363915Y464622D01*
X363915Y449778D01*
X363022Y448885D01*
X348178Y448885D01*
G37*
%LPD*%
%LPC*%
G36*
X599878Y398085D02*
X599878Y398085D01*
X598985Y398978D01*
X598985Y413822D01*
X599878Y414715D01*
X614722Y414715D01*
X615615Y413822D01*
X615615Y398978D01*
X614722Y398085D01*
X599878Y398085D01*
G37*
%LPD*%
%LPC*%
G36*
X348178Y423485D02*
X348178Y423485D01*
X347285Y424378D01*
X347285Y439222D01*
X348178Y440115D01*
X363022Y440115D01*
X363915Y439222D01*
X363915Y424378D01*
X363022Y423485D01*
X348178Y423485D01*
G37*
%LPD*%
%LPC*%
G36*
X640528Y423735D02*
X640528Y423735D01*
X639635Y424628D01*
X639635Y438972D01*
X640528Y439865D01*
X654872Y439865D01*
X655765Y438972D01*
X655765Y424628D01*
X654872Y423735D01*
X640528Y423735D01*
G37*
%LPD*%
%LPC*%
G36*
X665928Y423735D02*
X665928Y423735D01*
X665035Y424628D01*
X665035Y438972D01*
X665928Y439865D01*
X680272Y439865D01*
X681165Y438972D01*
X681165Y424628D01*
X680272Y423735D01*
X665928Y423735D01*
G37*
%LPD*%
%LPC*%
G36*
X640528Y449135D02*
X640528Y449135D01*
X639635Y450028D01*
X639635Y464372D01*
X640528Y465265D01*
X654872Y465265D01*
X655765Y464372D01*
X655765Y450028D01*
X654872Y449135D01*
X640528Y449135D01*
G37*
%LPD*%
%LPC*%
G36*
X640528Y398335D02*
X640528Y398335D01*
X639635Y399228D01*
X639635Y413572D01*
X640528Y414465D01*
X654872Y414465D01*
X655765Y413572D01*
X655765Y399228D01*
X654872Y398335D01*
X640528Y398335D01*
G37*
%LPD*%
%LPC*%
G36*
X665928Y398335D02*
X665928Y398335D01*
X665035Y399228D01*
X665035Y413572D01*
X665928Y414465D01*
X680272Y414465D01*
X681165Y413572D01*
X681165Y399228D01*
X680272Y398335D01*
X665928Y398335D01*
G37*
%LPD*%
%LPC*%
G36*
X640528Y42735D02*
X640528Y42735D01*
X639635Y43628D01*
X639635Y57972D01*
X640528Y58865D01*
X654872Y58865D01*
X655765Y57972D01*
X655765Y43628D01*
X654872Y42735D01*
X640528Y42735D01*
G37*
%LPD*%
%LPC*%
G36*
X665928Y169735D02*
X665928Y169735D01*
X665035Y170628D01*
X665035Y184972D01*
X665928Y185865D01*
X680272Y185865D01*
X681165Y184972D01*
X681165Y170628D01*
X680272Y169735D01*
X665928Y169735D01*
G37*
%LPD*%
%LPC*%
G36*
X665928Y144335D02*
X665928Y144335D01*
X665035Y145228D01*
X665035Y159572D01*
X665928Y160465D01*
X680272Y160465D01*
X681165Y159572D01*
X681165Y145228D01*
X680272Y144335D01*
X665928Y144335D01*
G37*
%LPD*%
%LPC*%
G36*
X640528Y372935D02*
X640528Y372935D01*
X639635Y373828D01*
X639635Y388172D01*
X640528Y389065D01*
X654872Y389065D01*
X655765Y388172D01*
X655765Y373828D01*
X654872Y372935D01*
X640528Y372935D01*
G37*
%LPD*%
%LPC*%
G36*
X640528Y296735D02*
X640528Y296735D01*
X639635Y297628D01*
X639635Y311972D01*
X640528Y312865D01*
X654872Y312865D01*
X655765Y311972D01*
X655765Y297628D01*
X654872Y296735D01*
X640528Y296735D01*
G37*
%LPD*%
%LPC*%
G36*
X665928Y296735D02*
X665928Y296735D01*
X665035Y297628D01*
X665035Y311972D01*
X665928Y312865D01*
X680272Y312865D01*
X681165Y311972D01*
X681165Y297628D01*
X680272Y296735D01*
X665928Y296735D01*
G37*
%LPD*%
%LPC*%
G36*
X640528Y220535D02*
X640528Y220535D01*
X639635Y221428D01*
X639635Y235772D01*
X640528Y236665D01*
X654872Y236665D01*
X655765Y235772D01*
X655765Y221428D01*
X654872Y220535D01*
X640528Y220535D01*
G37*
%LPD*%
%LPC*%
G36*
X640528Y322135D02*
X640528Y322135D01*
X639635Y323028D01*
X639635Y337372D01*
X640528Y338265D01*
X654872Y338265D01*
X655765Y337372D01*
X655765Y323028D01*
X654872Y322135D01*
X640528Y322135D01*
G37*
%LPD*%
%LPC*%
G36*
X665928Y347535D02*
X665928Y347535D01*
X665035Y348428D01*
X665035Y362772D01*
X665928Y363665D01*
X680272Y363665D01*
X681165Y362772D01*
X681165Y348428D01*
X680272Y347535D01*
X665928Y347535D01*
G37*
%LPD*%
%LPC*%
G36*
X665928Y42735D02*
X665928Y42735D01*
X665035Y43628D01*
X665035Y57972D01*
X665928Y58865D01*
X680272Y58865D01*
X681165Y57972D01*
X681165Y43628D01*
X680272Y42735D01*
X665928Y42735D01*
G37*
%LPD*%
%LPC*%
G36*
X428433Y156971D02*
X428433Y156971D01*
X423671Y161733D01*
X423671Y168467D01*
X428433Y173229D01*
X435167Y173229D01*
X439929Y168467D01*
X439929Y161733D01*
X435167Y156971D01*
X428433Y156971D01*
G37*
%LPD*%
%LPC*%
G36*
X428433Y106171D02*
X428433Y106171D01*
X423671Y110933D01*
X423671Y117667D01*
X428433Y122429D01*
X435167Y122429D01*
X439929Y117667D01*
X439929Y110933D01*
X435167Y106171D01*
X428433Y106171D01*
G37*
%LPD*%
%LPC*%
G36*
X976334Y169925D02*
X976334Y169925D01*
X973439Y171124D01*
X971224Y173339D01*
X970025Y176234D01*
X970025Y179366D01*
X971224Y182261D01*
X973439Y184476D01*
X976334Y185675D01*
X979466Y185675D01*
X982361Y184476D01*
X984576Y182261D01*
X985775Y179366D01*
X985775Y176234D01*
X984576Y173339D01*
X982361Y171124D01*
X979466Y169925D01*
X976334Y169925D01*
G37*
%LPD*%
%LPC*%
G36*
X976334Y144525D02*
X976334Y144525D01*
X973439Y145724D01*
X971224Y147939D01*
X970025Y150834D01*
X970025Y153966D01*
X971224Y156861D01*
X973439Y159076D01*
X976334Y160275D01*
X979466Y160275D01*
X982361Y159076D01*
X984576Y156861D01*
X985775Y153966D01*
X985775Y150834D01*
X984576Y147939D01*
X982361Y145724D01*
X979466Y144525D01*
X976334Y144525D01*
G37*
%LPD*%
%LPC*%
G36*
X304259Y370299D02*
X304259Y370299D01*
X304259Y377381D01*
X309515Y377381D01*
X310926Y377157D01*
X312286Y376715D01*
X313559Y376067D01*
X314716Y375226D01*
X315726Y374216D01*
X316567Y373059D01*
X317215Y371786D01*
X317657Y370426D01*
X317677Y370299D01*
X304259Y370299D01*
G37*
%LPD*%
%LPC*%
G36*
X286843Y370299D02*
X286843Y370299D01*
X286863Y370426D01*
X287305Y371786D01*
X287953Y373059D01*
X288794Y374216D01*
X289804Y375226D01*
X290961Y376067D01*
X292234Y376715D01*
X293594Y377157D01*
X295005Y377381D01*
X300261Y377381D01*
X300261Y370299D01*
X286843Y370299D01*
G37*
%LPD*%
%LPC*%
G36*
X304259Y359219D02*
X304259Y359219D01*
X304259Y366301D01*
X317677Y366301D01*
X317657Y366174D01*
X317215Y364814D01*
X316567Y363541D01*
X315726Y362384D01*
X314716Y361374D01*
X313559Y360533D01*
X312286Y359885D01*
X310926Y359443D01*
X309515Y359219D01*
X304259Y359219D01*
G37*
%LPD*%
%LPC*%
G36*
X295005Y359219D02*
X295005Y359219D01*
X293594Y359443D01*
X292234Y359885D01*
X290961Y360533D01*
X289804Y361374D01*
X288794Y362384D01*
X287953Y363541D01*
X287305Y364814D01*
X286863Y366174D01*
X286843Y366301D01*
X300261Y366301D01*
X300261Y359219D01*
X295005Y359219D01*
G37*
%LPD*%
%LPC*%
G36*
X777699Y66499D02*
X777699Y66499D01*
X777699Y75041D01*
X784035Y75041D01*
X784681Y74868D01*
X785260Y74533D01*
X785733Y74060D01*
X786068Y73481D01*
X786241Y72835D01*
X786241Y66499D01*
X777699Y66499D01*
G37*
%LPD*%
%LPC*%
G36*
X763159Y66499D02*
X763159Y66499D01*
X763159Y72835D01*
X763332Y73481D01*
X763667Y74060D01*
X764140Y74533D01*
X764719Y74868D01*
X765365Y75041D01*
X771701Y75041D01*
X771701Y66499D01*
X763159Y66499D01*
G37*
%LPD*%
%LPC*%
G36*
X777699Y51959D02*
X777699Y51959D01*
X777699Y60501D01*
X786241Y60501D01*
X786241Y54165D01*
X786068Y53519D01*
X785733Y52940D01*
X785260Y52467D01*
X784681Y52132D01*
X784035Y51959D01*
X777699Y51959D01*
G37*
%LPD*%
%LPC*%
G36*
X765365Y51959D02*
X765365Y51959D01*
X764719Y52132D01*
X764140Y52467D01*
X763667Y52940D01*
X763332Y53519D01*
X763159Y54165D01*
X763159Y60501D01*
X771701Y60501D01*
X771701Y51959D01*
X765365Y51959D01*
G37*
%LPD*%
%LPC*%
G36*
X820999Y231399D02*
X820999Y231399D01*
X820999Y239441D01*
X826835Y239441D01*
X827481Y239268D01*
X828060Y238933D01*
X828533Y238460D01*
X828868Y237881D01*
X829041Y237235D01*
X829041Y231399D01*
X820999Y231399D01*
G37*
%LPD*%
%LPC*%
G36*
X808959Y231399D02*
X808959Y231399D01*
X808959Y237235D01*
X809132Y237881D01*
X809467Y238460D01*
X809940Y238933D01*
X810519Y239268D01*
X811165Y239441D01*
X817001Y239441D01*
X817001Y231399D01*
X808959Y231399D01*
G37*
%LPD*%
%LPC*%
G36*
X820999Y219359D02*
X820999Y219359D01*
X820999Y227401D01*
X829041Y227401D01*
X829041Y221565D01*
X828868Y220919D01*
X828533Y220340D01*
X828060Y219867D01*
X827481Y219532D01*
X826835Y219359D01*
X820999Y219359D01*
G37*
%LPD*%
%LPC*%
G36*
X811165Y219359D02*
X811165Y219359D01*
X810519Y219532D01*
X809940Y219867D01*
X809467Y220340D01*
X809132Y220919D01*
X808959Y221565D01*
X808959Y227401D01*
X817001Y227401D01*
X817001Y219359D01*
X811165Y219359D01*
G37*
%LPD*%
%LPC*%
G36*
X256499Y53299D02*
X256499Y53299D01*
X256499Y60881D01*
X261875Y60881D01*
X262521Y60708D01*
X263100Y60373D01*
X263573Y59900D01*
X263908Y59321D01*
X264081Y58675D01*
X264081Y53299D01*
X256499Y53299D01*
G37*
%LPD*%
%LPC*%
G36*
X129499Y53299D02*
X129499Y53299D01*
X129499Y60881D01*
X134875Y60881D01*
X135521Y60708D01*
X136100Y60373D01*
X136573Y59900D01*
X136908Y59321D01*
X137081Y58675D01*
X137081Y53299D01*
X129499Y53299D01*
G37*
%LPD*%
%LPC*%
G36*
X116919Y53299D02*
X116919Y53299D01*
X116919Y58675D01*
X117092Y59321D01*
X117427Y59900D01*
X117900Y60373D01*
X118479Y60708D01*
X119125Y60881D01*
X124501Y60881D01*
X124501Y53299D01*
X116919Y53299D01*
G37*
%LPD*%
%LPC*%
G36*
X243919Y53299D02*
X243919Y53299D01*
X243919Y58675D01*
X244092Y59321D01*
X244427Y59900D01*
X244900Y60373D01*
X245479Y60708D01*
X246125Y60881D01*
X251501Y60881D01*
X251501Y53299D01*
X243919Y53299D01*
G37*
%LPD*%
%LPC*%
G36*
X129499Y40719D02*
X129499Y40719D01*
X129499Y48301D01*
X137081Y48301D01*
X137081Y42925D01*
X136908Y42279D01*
X136573Y41700D01*
X136100Y41227D01*
X135521Y40892D01*
X134875Y40719D01*
X129499Y40719D01*
G37*
%LPD*%
%LPC*%
G36*
X256499Y40719D02*
X256499Y40719D01*
X256499Y48301D01*
X264081Y48301D01*
X264081Y42925D01*
X263908Y42279D01*
X263573Y41700D01*
X263100Y41227D01*
X262521Y40892D01*
X261875Y40719D01*
X256499Y40719D01*
G37*
%LPD*%
%LPC*%
G36*
X246125Y40719D02*
X246125Y40719D01*
X245479Y40892D01*
X244900Y41227D01*
X244427Y41700D01*
X244092Y42279D01*
X243919Y42925D01*
X243919Y48301D01*
X251501Y48301D01*
X251501Y40719D01*
X246125Y40719D01*
G37*
%LPD*%
%LPC*%
G36*
X119125Y40719D02*
X119125Y40719D01*
X118479Y40892D01*
X117900Y41227D01*
X117427Y41700D01*
X117092Y42279D01*
X116919Y42925D01*
X116919Y48301D01*
X124501Y48301D01*
X124501Y40719D01*
X119125Y40719D01*
G37*
%LPD*%
%LPC*%
G36*
X586324Y522824D02*
X586324Y522824D01*
X586324Y530353D01*
X591647Y530353D01*
X592293Y530180D01*
X592872Y529845D01*
X593345Y529372D01*
X593680Y528793D01*
X593853Y528147D01*
X593853Y522824D01*
X586324Y522824D01*
G37*
%LPD*%
%LPC*%
G36*
X256124Y548224D02*
X256124Y548224D01*
X256124Y555753D01*
X261447Y555753D01*
X262093Y555580D01*
X262672Y555245D01*
X263145Y554772D01*
X263480Y554193D01*
X263653Y553547D01*
X263653Y548224D01*
X256124Y548224D01*
G37*
%LPD*%
%LPC*%
G36*
X510124Y548224D02*
X510124Y548224D01*
X510124Y555753D01*
X515447Y555753D01*
X516093Y555580D01*
X516672Y555245D01*
X517145Y554772D01*
X517480Y554193D01*
X517653Y553547D01*
X517653Y548224D01*
X510124Y548224D01*
G37*
%LPD*%
%LPC*%
G36*
X459324Y548224D02*
X459324Y548224D01*
X459324Y555753D01*
X464647Y555753D01*
X465293Y555580D01*
X465872Y555245D01*
X466345Y554772D01*
X466680Y554193D01*
X466853Y553547D01*
X466853Y548224D01*
X459324Y548224D01*
G37*
%LPD*%
%LPC*%
G36*
X332324Y548224D02*
X332324Y548224D01*
X332324Y555753D01*
X337647Y555753D01*
X338293Y555580D01*
X338872Y555245D01*
X339345Y554772D01*
X339680Y554193D01*
X339853Y553547D01*
X339853Y548224D01*
X332324Y548224D01*
G37*
%LPD*%
%LPC*%
G36*
X154524Y548224D02*
X154524Y548224D01*
X154524Y555753D01*
X159847Y555753D01*
X160493Y555580D01*
X161072Y555245D01*
X161545Y554772D01*
X161880Y554193D01*
X162053Y553547D01*
X162053Y548224D01*
X154524Y548224D01*
G37*
%LPD*%
%LPC*%
G36*
X574547Y522824D02*
X574547Y522824D01*
X574547Y528147D01*
X574720Y528793D01*
X575055Y529372D01*
X575528Y529845D01*
X576107Y530180D01*
X576753Y530353D01*
X582076Y530353D01*
X582076Y522824D01*
X574547Y522824D01*
G37*
%LPD*%
%LPC*%
G36*
X256124Y536447D02*
X256124Y536447D01*
X256124Y543976D01*
X263653Y543976D01*
X263653Y538653D01*
X263480Y538007D01*
X263145Y537428D01*
X262672Y536955D01*
X262093Y536620D01*
X261447Y536447D01*
X256124Y536447D01*
G37*
%LPD*%
%LPC*%
G36*
X447547Y548224D02*
X447547Y548224D01*
X447547Y553547D01*
X447720Y554193D01*
X448055Y554772D01*
X448528Y555245D01*
X449107Y555580D01*
X449753Y555753D01*
X455076Y555753D01*
X455076Y548224D01*
X447547Y548224D01*
G37*
%LPD*%
%LPC*%
G36*
X154524Y536447D02*
X154524Y536447D01*
X154524Y543976D01*
X162053Y543976D01*
X162053Y538653D01*
X161880Y538007D01*
X161545Y537428D01*
X161072Y536955D01*
X160493Y536620D01*
X159847Y536447D01*
X154524Y536447D01*
G37*
%LPD*%
%LPC*%
G36*
X396747Y522824D02*
X396747Y522824D01*
X396747Y528147D01*
X396920Y528793D01*
X397255Y529372D01*
X397728Y529845D01*
X398307Y530180D01*
X398953Y530353D01*
X404276Y530353D01*
X404276Y522824D01*
X396747Y522824D01*
G37*
%LPD*%
%LPC*%
G36*
X586324Y511047D02*
X586324Y511047D01*
X586324Y518576D01*
X593853Y518576D01*
X593853Y513253D01*
X593680Y512607D01*
X593345Y512028D01*
X592872Y511555D01*
X592293Y511220D01*
X591647Y511047D01*
X586324Y511047D01*
G37*
%LPD*%
%LPC*%
G36*
X332324Y536447D02*
X332324Y536447D01*
X332324Y543976D01*
X339853Y543976D01*
X339853Y538653D01*
X339680Y538007D01*
X339345Y537428D01*
X338872Y536955D01*
X338293Y536620D01*
X337647Y536447D01*
X332324Y536447D01*
G37*
%LPD*%
%LPC*%
G36*
X510124Y536447D02*
X510124Y536447D01*
X510124Y543976D01*
X517653Y543976D01*
X517653Y538653D01*
X517480Y538007D01*
X517145Y537428D01*
X516672Y536955D01*
X516093Y536620D01*
X515447Y536447D01*
X510124Y536447D01*
G37*
%LPD*%
%LPC*%
G36*
X244347Y548224D02*
X244347Y548224D01*
X244347Y553547D01*
X244520Y554193D01*
X244855Y554772D01*
X245328Y555245D01*
X245907Y555580D01*
X246553Y555753D01*
X251876Y555753D01*
X251876Y548224D01*
X244347Y548224D01*
G37*
%LPD*%
%LPC*%
G36*
X459324Y536447D02*
X459324Y536447D01*
X459324Y543976D01*
X466853Y543976D01*
X466853Y538653D01*
X466680Y538007D01*
X466345Y537428D01*
X465872Y536955D01*
X465293Y536620D01*
X464647Y536447D01*
X459324Y536447D01*
G37*
%LPD*%
%LPC*%
G36*
X498347Y548224D02*
X498347Y548224D01*
X498347Y553547D01*
X498520Y554193D01*
X498855Y554772D01*
X499328Y555245D01*
X499907Y555580D01*
X500553Y555753D01*
X505876Y555753D01*
X505876Y548224D01*
X498347Y548224D01*
G37*
%LPD*%
%LPC*%
G36*
X193547Y522824D02*
X193547Y522824D01*
X193547Y528147D01*
X193720Y528793D01*
X194055Y529372D01*
X194528Y529845D01*
X195107Y530180D01*
X195753Y530353D01*
X201076Y530353D01*
X201076Y522824D01*
X193547Y522824D01*
G37*
%LPD*%
%LPC*%
G36*
X320547Y548224D02*
X320547Y548224D01*
X320547Y553547D01*
X320720Y554193D01*
X321055Y554772D01*
X321528Y555245D01*
X322107Y555580D01*
X322753Y555753D01*
X328076Y555753D01*
X328076Y548224D01*
X320547Y548224D01*
G37*
%LPD*%
%LPC*%
G36*
X576753Y511047D02*
X576753Y511047D01*
X576107Y511220D01*
X575528Y511555D01*
X575055Y512028D01*
X574720Y512607D01*
X574547Y513253D01*
X574547Y518576D01*
X582076Y518576D01*
X582076Y511047D01*
X576753Y511047D01*
G37*
%LPD*%
%LPC*%
G36*
X246553Y536447D02*
X246553Y536447D01*
X245907Y536620D01*
X245328Y536955D01*
X244855Y537428D01*
X244520Y538007D01*
X244347Y538653D01*
X244347Y543976D01*
X251876Y543976D01*
X251876Y536447D01*
X246553Y536447D01*
G37*
%LPD*%
%LPC*%
G36*
X500553Y536447D02*
X500553Y536447D01*
X499907Y536620D01*
X499328Y536955D01*
X498855Y537428D01*
X498520Y538007D01*
X498347Y538653D01*
X498347Y543976D01*
X505876Y543976D01*
X505876Y536447D01*
X500553Y536447D01*
G37*
%LPD*%
%LPC*%
G36*
X195753Y511047D02*
X195753Y511047D01*
X195107Y511220D01*
X194528Y511555D01*
X194055Y512028D01*
X193720Y512607D01*
X193547Y513253D01*
X193547Y518576D01*
X201076Y518576D01*
X201076Y511047D01*
X195753Y511047D01*
G37*
%LPD*%
%LPC*%
G36*
X322753Y536447D02*
X322753Y536447D01*
X322107Y536620D01*
X321528Y536955D01*
X321055Y537428D01*
X320720Y538007D01*
X320547Y538653D01*
X320547Y543976D01*
X328076Y543976D01*
X328076Y536447D01*
X322753Y536447D01*
G37*
%LPD*%
%LPC*%
G36*
X449753Y536447D02*
X449753Y536447D01*
X449107Y536620D01*
X448528Y536955D01*
X448055Y537428D01*
X447720Y538007D01*
X447547Y538653D01*
X447547Y543976D01*
X455076Y543976D01*
X455076Y536447D01*
X449753Y536447D01*
G37*
%LPD*%
%LPC*%
G36*
X609424Y484724D02*
X609424Y484724D01*
X609424Y491931D01*
X614425Y491931D01*
X615071Y491758D01*
X615650Y491423D01*
X616123Y490950D01*
X616458Y490371D01*
X616631Y489725D01*
X616631Y484724D01*
X609424Y484724D01*
G37*
%LPD*%
%LPC*%
G36*
X357724Y154524D02*
X357724Y154524D01*
X357724Y161731D01*
X362725Y161731D01*
X363371Y161558D01*
X363950Y161223D01*
X364423Y160750D01*
X364758Y160171D01*
X364931Y159525D01*
X364931Y154524D01*
X357724Y154524D01*
G37*
%LPD*%
%LPC*%
G36*
X609424Y332324D02*
X609424Y332324D01*
X609424Y339531D01*
X614425Y339531D01*
X615071Y339358D01*
X615650Y339023D01*
X616123Y338550D01*
X616458Y337971D01*
X616631Y337325D01*
X616631Y332324D01*
X609424Y332324D01*
G37*
%LPD*%
%LPC*%
G36*
X357724Y143069D02*
X357724Y143069D01*
X357724Y150276D01*
X364931Y150276D01*
X364931Y145275D01*
X364758Y144629D01*
X364423Y144050D01*
X363950Y143577D01*
X363371Y143242D01*
X362725Y143069D01*
X357724Y143069D01*
G37*
%LPD*%
%LPC*%
G36*
X609424Y473269D02*
X609424Y473269D01*
X609424Y480476D01*
X616631Y480476D01*
X616631Y475475D01*
X616458Y474829D01*
X616123Y474250D01*
X615650Y473777D01*
X615071Y473442D01*
X614425Y473269D01*
X609424Y473269D01*
G37*
%LPD*%
%LPC*%
G36*
X609424Y320869D02*
X609424Y320869D01*
X609424Y328076D01*
X616631Y328076D01*
X616631Y323075D01*
X616458Y322429D01*
X616123Y321850D01*
X615650Y321377D01*
X615071Y321042D01*
X614425Y320869D01*
X609424Y320869D01*
G37*
%LPD*%
%LPC*%
G36*
X346269Y154524D02*
X346269Y154524D01*
X346269Y159525D01*
X346442Y160171D01*
X346777Y160750D01*
X347250Y161223D01*
X347829Y161558D01*
X348475Y161731D01*
X353476Y161731D01*
X353476Y154524D01*
X346269Y154524D01*
G37*
%LPD*%
%LPC*%
G36*
X597969Y332324D02*
X597969Y332324D01*
X597969Y337325D01*
X598142Y337971D01*
X598477Y338550D01*
X598950Y339023D01*
X599529Y339358D01*
X600175Y339531D01*
X605176Y339531D01*
X605176Y332324D01*
X597969Y332324D01*
G37*
%LPD*%
%LPC*%
G36*
X597969Y484724D02*
X597969Y484724D01*
X597969Y489725D01*
X598142Y490371D01*
X598477Y490950D01*
X598950Y491423D01*
X599529Y491758D01*
X600175Y491931D01*
X605176Y491931D01*
X605176Y484724D01*
X597969Y484724D01*
G37*
%LPD*%
%LPC*%
G36*
X348475Y143069D02*
X348475Y143069D01*
X347829Y143242D01*
X347250Y143577D01*
X346777Y144050D01*
X346442Y144629D01*
X346269Y145275D01*
X346269Y150276D01*
X353476Y150276D01*
X353476Y143069D01*
X348475Y143069D01*
G37*
%LPD*%
%LPC*%
G36*
X600175Y320869D02*
X600175Y320869D01*
X599529Y321042D01*
X598950Y321377D01*
X598477Y321850D01*
X598142Y322429D01*
X597969Y323075D01*
X597969Y328076D01*
X605176Y328076D01*
X605176Y320869D01*
X600175Y320869D01*
G37*
%LPD*%
%LPC*%
G36*
X600175Y473269D02*
X600175Y473269D01*
X599529Y473442D01*
X598950Y473777D01*
X598477Y474250D01*
X598142Y474829D01*
X597969Y475475D01*
X597969Y480476D01*
X605176Y480476D01*
X605176Y473269D01*
X600175Y473269D01*
G37*
%LPD*%
%LPC*%
G36*
X649699Y154399D02*
X649699Y154399D01*
X649699Y161481D01*
X654575Y161481D01*
X655221Y161308D01*
X655800Y160973D01*
X656273Y160500D01*
X656608Y159921D01*
X656781Y159275D01*
X656781Y154399D01*
X649699Y154399D01*
G37*
%LPD*%
%LPC*%
G36*
X675099Y332199D02*
X675099Y332199D01*
X675099Y339281D01*
X679975Y339281D01*
X680621Y339108D01*
X681200Y338773D01*
X681673Y338300D01*
X682008Y337721D01*
X682181Y337075D01*
X682181Y332199D01*
X675099Y332199D01*
G37*
%LPD*%
%LPC*%
G36*
X675099Y484599D02*
X675099Y484599D01*
X675099Y491681D01*
X679975Y491681D01*
X680621Y491508D01*
X681200Y491173D01*
X681673Y490700D01*
X682008Y490121D01*
X682181Y489475D01*
X682181Y484599D01*
X675099Y484599D01*
G37*
%LPD*%
%LPC*%
G36*
X664019Y332199D02*
X664019Y332199D01*
X664019Y337075D01*
X664192Y337721D01*
X664527Y338300D01*
X665000Y338773D01*
X665579Y339108D01*
X666225Y339281D01*
X671101Y339281D01*
X671101Y332199D01*
X664019Y332199D01*
G37*
%LPD*%
%LPC*%
G36*
X638619Y154399D02*
X638619Y154399D01*
X638619Y159275D01*
X638792Y159921D01*
X639127Y160500D01*
X639600Y160973D01*
X640179Y161308D01*
X640825Y161481D01*
X645701Y161481D01*
X645701Y154399D01*
X638619Y154399D01*
G37*
%LPD*%
%LPC*%
G36*
X649699Y143319D02*
X649699Y143319D01*
X649699Y150401D01*
X656781Y150401D01*
X656781Y145525D01*
X656608Y144879D01*
X656273Y144300D01*
X655800Y143827D01*
X655221Y143492D01*
X654575Y143319D01*
X649699Y143319D01*
G37*
%LPD*%
%LPC*%
G36*
X675099Y321119D02*
X675099Y321119D01*
X675099Y328201D01*
X682181Y328201D01*
X682181Y323325D01*
X682008Y322679D01*
X681673Y322100D01*
X681200Y321627D01*
X680621Y321292D01*
X679975Y321119D01*
X675099Y321119D01*
G37*
%LPD*%
%LPC*%
G36*
X664019Y484599D02*
X664019Y484599D01*
X664019Y489475D01*
X664192Y490121D01*
X664527Y490700D01*
X665000Y491173D01*
X665579Y491508D01*
X666225Y491681D01*
X671101Y491681D01*
X671101Y484599D01*
X664019Y484599D01*
G37*
%LPD*%
%LPC*%
G36*
X675099Y473519D02*
X675099Y473519D01*
X675099Y480601D01*
X682181Y480601D01*
X682181Y475725D01*
X682008Y475079D01*
X681673Y474500D01*
X681200Y474027D01*
X680621Y473692D01*
X679975Y473519D01*
X675099Y473519D01*
G37*
%LPD*%
%LPC*%
G36*
X666225Y321119D02*
X666225Y321119D01*
X665579Y321292D01*
X665000Y321627D01*
X664527Y322100D01*
X664192Y322679D01*
X664019Y323325D01*
X664019Y328201D01*
X671101Y328201D01*
X671101Y321119D01*
X666225Y321119D01*
G37*
%LPD*%
%LPC*%
G36*
X640825Y143319D02*
X640825Y143319D01*
X640179Y143492D01*
X639600Y143827D01*
X639127Y144300D01*
X638792Y144879D01*
X638619Y145525D01*
X638619Y150401D01*
X645701Y150401D01*
X645701Y143319D01*
X640825Y143319D01*
G37*
%LPD*%
%LPC*%
G36*
X900146Y224849D02*
X900146Y224849D01*
X897949Y227046D01*
X897949Y230154D01*
X900146Y232351D01*
X903254Y232351D01*
X905451Y230154D01*
X905451Y227046D01*
X903254Y224849D01*
X900146Y224849D01*
G37*
%LPD*%
%LPC*%
G36*
X900146Y97849D02*
X900146Y97849D01*
X897949Y100046D01*
X897949Y103154D01*
X900146Y105351D01*
X903254Y105351D01*
X905451Y103154D01*
X905451Y100046D01*
X903254Y97849D01*
X900146Y97849D01*
G37*
%LPD*%
%LPC*%
G36*
X979774Y230474D02*
X979774Y230474D01*
X979774Y237305D01*
X979982Y237272D01*
X981313Y236839D01*
X982560Y236204D01*
X983692Y235381D01*
X984681Y234392D01*
X985504Y233260D01*
X986139Y232013D01*
X986572Y230682D01*
X986605Y230474D01*
X979774Y230474D01*
G37*
%LPD*%
%LPC*%
G36*
X979774Y128874D02*
X979774Y128874D01*
X979774Y135705D01*
X979982Y135672D01*
X981313Y135239D01*
X982560Y134604D01*
X983692Y133781D01*
X984681Y132792D01*
X985504Y131660D01*
X986139Y130413D01*
X986572Y129082D01*
X986605Y128874D01*
X979774Y128874D01*
G37*
%LPD*%
%LPC*%
G36*
X969195Y128874D02*
X969195Y128874D01*
X969228Y129082D01*
X969661Y130413D01*
X970296Y131660D01*
X971119Y132792D01*
X972108Y133781D01*
X973240Y134604D01*
X974487Y135239D01*
X975818Y135672D01*
X976026Y135705D01*
X976026Y128874D01*
X969195Y128874D01*
G37*
%LPD*%
%LPC*%
G36*
X969195Y230474D02*
X969195Y230474D01*
X969228Y230682D01*
X969661Y232013D01*
X970296Y233260D01*
X971119Y234392D01*
X972108Y235381D01*
X973240Y236204D01*
X974487Y236839D01*
X975818Y237272D01*
X976026Y237305D01*
X976026Y230474D01*
X969195Y230474D01*
G37*
%LPD*%
%LPC*%
G36*
X979774Y226726D02*
X979774Y226726D01*
X986605Y226726D01*
X986572Y226518D01*
X986139Y225187D01*
X985504Y223940D01*
X984681Y222808D01*
X983692Y221819D01*
X982560Y220996D01*
X981313Y220361D01*
X979982Y219928D01*
X979774Y219895D01*
X979774Y226726D01*
G37*
%LPD*%
%LPC*%
G36*
X979774Y125126D02*
X979774Y125126D01*
X986605Y125126D01*
X986572Y124918D01*
X986139Y123587D01*
X985504Y122340D01*
X984681Y121208D01*
X983692Y120219D01*
X982560Y119396D01*
X981313Y118761D01*
X979982Y118328D01*
X979774Y118295D01*
X979774Y125126D01*
G37*
%LPD*%
%LPC*%
G36*
X975818Y118328D02*
X975818Y118328D01*
X974487Y118761D01*
X973240Y119396D01*
X972108Y120219D01*
X971119Y121208D01*
X970296Y122340D01*
X969661Y123587D01*
X969228Y124918D01*
X969195Y125126D01*
X976026Y125126D01*
X976026Y118295D01*
X975818Y118328D01*
G37*
%LPD*%
%LPC*%
G36*
X975818Y219928D02*
X975818Y219928D01*
X974487Y220361D01*
X973240Y220996D01*
X972108Y221819D01*
X971119Y222808D01*
X970296Y223940D01*
X969661Y225187D01*
X969228Y226518D01*
X969195Y226726D01*
X976026Y226726D01*
X976026Y219895D01*
X975818Y219928D01*
G37*
%LPD*%
D10*
X819000Y229400D03*
X793600Y229400D03*
X768300Y229400D03*
X819000Y153200D03*
X793600Y153200D03*
X768300Y153200D03*
D11*
X254000Y50800D03*
X304800Y50800D03*
X279400Y50800D03*
X127000Y50800D03*
X177800Y50800D03*
X152400Y50800D03*
D12*
X295720Y393700D02*
X308800Y393700D01*
X308800Y368300D02*
X295720Y368300D01*
X295720Y342900D02*
X308800Y342900D01*
X308800Y317500D02*
X295720Y317500D01*
X295720Y292100D02*
X308800Y292100D01*
D13*
X647700Y482600D03*
X647700Y457200D03*
X647700Y431800D03*
X647700Y406400D03*
X647700Y381000D03*
X647700Y355600D03*
X647700Y330200D03*
X647700Y304800D03*
X647700Y279400D03*
X647700Y254000D03*
X647700Y228600D03*
X647700Y203200D03*
X647700Y177800D03*
X647700Y152400D03*
X647700Y127000D03*
X647700Y101600D03*
X647700Y76200D03*
X647700Y50800D03*
X647700Y25400D03*
X673100Y482600D03*
X673100Y457200D03*
X673100Y431800D03*
X673100Y406400D03*
X673100Y381000D03*
X673100Y355600D03*
X673100Y330200D03*
X673100Y304800D03*
X673100Y279400D03*
X673100Y254000D03*
X673100Y228600D03*
X673100Y203200D03*
X673100Y177800D03*
X673100Y152400D03*
X673100Y127000D03*
X673100Y101600D03*
X673100Y76200D03*
X673100Y50800D03*
X673100Y25400D03*
D14*
X101600Y546100D03*
X127000Y546100D03*
X152400Y546100D03*
X177800Y546100D03*
X203200Y546100D03*
X228600Y546100D03*
X254000Y546100D03*
X279400Y546100D03*
X304800Y546100D03*
X330200Y546100D03*
X355600Y546100D03*
X381000Y546100D03*
X406400Y546100D03*
X431800Y546100D03*
X457200Y546100D03*
X482600Y546100D03*
X508000Y546100D03*
X533400Y546100D03*
X558800Y546100D03*
X584200Y546100D03*
X584200Y520700D03*
X558800Y520700D03*
X533400Y520700D03*
X508000Y520700D03*
X482600Y520700D03*
X457200Y520700D03*
X431800Y520700D03*
X406400Y520700D03*
X381000Y520700D03*
X355600Y520700D03*
X330200Y520700D03*
X304800Y520700D03*
X279400Y520700D03*
X254000Y520700D03*
X228600Y520700D03*
X203200Y520700D03*
X177800Y520700D03*
X152400Y520700D03*
X127000Y520700D03*
X101600Y520700D03*
D15*
X774700Y63500D03*
X723900Y63500D03*
D11*
X838200Y50800D03*
X914400Y50800D03*
X863600Y50800D03*
X889000Y50800D03*
D16*
X355600Y25400D03*
X355600Y50800D03*
X355600Y76200D03*
X355600Y101600D03*
X355600Y127000D03*
X355600Y152400D03*
X355600Y177800D03*
X355600Y203200D03*
X355600Y228600D03*
X355600Y254000D03*
X355600Y279400D03*
X355600Y304800D03*
X355600Y330200D03*
X355600Y355600D03*
X355600Y381000D03*
X355600Y406400D03*
X355600Y431800D03*
X355600Y457200D03*
X355600Y482600D03*
X607300Y25400D03*
X607300Y50800D03*
X607300Y76200D03*
X607300Y101600D03*
X607300Y127000D03*
X607300Y152400D03*
X607300Y177800D03*
X607300Y203200D03*
X607300Y228600D03*
X607300Y254000D03*
X607300Y279400D03*
X607300Y304800D03*
X607300Y330200D03*
X607300Y355600D03*
X607300Y381000D03*
X607300Y406400D03*
X607300Y431800D03*
X607300Y457200D03*
X607300Y482600D03*
D17*
X977900Y101600D03*
X977900Y127000D03*
X977900Y152400D03*
X977900Y177800D03*
X977900Y203200D03*
X977900Y228600D03*
D18*
X431800Y368300D03*
X533400Y368300D03*
X431800Y317500D03*
X533400Y317500D03*
X431800Y266700D03*
X533400Y266700D03*
X431800Y215900D03*
X533400Y215900D03*
X431800Y165100D03*
X533400Y165100D03*
X431800Y114300D03*
X533400Y114300D03*
D19*
X592500Y400000D02*
X525000Y467500D01*
X592500Y400000D02*
X592500Y315000D01*
X605000Y302500D01*
X607300Y304800D01*
D20*
X525000Y467500D03*
D19*
X410000Y492500D02*
X382500Y520000D01*
X410000Y492500D02*
X410000Y295000D01*
X382500Y520000D02*
X381000Y520700D01*
D20*
X410000Y295000D03*
D19*
X622500Y35000D02*
X737500Y35000D01*
X622500Y35000D02*
X622500Y52500D01*
X615000Y60000D01*
X597500Y60000D01*
X587500Y70000D01*
X587500Y162500D01*
X605000Y180000D01*
X607300Y177800D01*
D20*
X737500Y35000D03*
D19*
X872500Y35000D02*
X887500Y50000D01*
X872500Y35000D02*
X752500Y35000D01*
X752500Y67500D01*
X732500Y87500D01*
X592500Y87500D01*
X592500Y140000D01*
X605000Y152500D01*
X887500Y50000D02*
X889000Y50800D01*
X607300Y152400D02*
X605000Y152500D01*
X365000Y530000D02*
X380000Y545000D01*
X365000Y530000D02*
X365000Y510000D01*
X370000Y505000D01*
X370000Y422500D01*
X357500Y410000D01*
X357500Y407500D01*
X380000Y545000D02*
X381000Y546100D01*
X357500Y407500D02*
X355600Y406400D01*
X672500Y25000D02*
X657500Y10000D01*
X607500Y10000D01*
X607500Y17500D02*
X607500Y25000D01*
X607500Y17500D02*
X607500Y10000D01*
X672500Y25000D02*
X673100Y25400D01*
X607500Y25000D02*
X607300Y25400D01*
X522500Y357500D02*
X532500Y367500D01*
X522500Y357500D02*
X522500Y297500D01*
X562500Y257500D01*
X562500Y62500D01*
X607500Y17500D01*
X532500Y367500D02*
X533400Y368300D01*
X535000Y317500D02*
X567500Y285000D01*
X567500Y85000D01*
X600000Y52500D01*
X605000Y52500D01*
X535000Y317500D02*
X533400Y317500D01*
X605000Y52500D02*
X607300Y50800D01*
X340000Y87500D02*
X305000Y52500D01*
X340000Y87500D02*
X340000Y312500D01*
X355000Y327500D01*
X355000Y330000D01*
X305000Y52500D02*
X304800Y50800D01*
X355000Y330000D02*
X355600Y330200D01*
X797500Y92500D02*
X837500Y52500D01*
X797500Y92500D02*
X622500Y92500D01*
X622500Y110000D01*
X615000Y117500D01*
X597500Y117500D01*
X597500Y135000D01*
X600000Y137500D01*
X632500Y137500D01*
X632500Y262500D01*
X647500Y277500D01*
X837500Y52500D02*
X838200Y50800D01*
X647500Y277500D02*
X647700Y279400D01*
X697500Y267500D02*
X720000Y290000D01*
X697500Y267500D02*
X650000Y267500D01*
X650000Y255000D01*
X647700Y254000D01*
D20*
X720000Y290000D03*
D19*
X732500Y292500D02*
X677500Y237500D01*
X662500Y237500D01*
X662500Y220000D01*
X650000Y207500D01*
X650000Y205000D01*
X647700Y203200D01*
D20*
X732500Y292500D03*
D19*
X732500Y277500D02*
X682500Y227500D01*
X682500Y220000D01*
X675000Y212500D01*
X662500Y212500D01*
X662500Y195000D01*
X650000Y182500D01*
X650000Y180000D01*
X647700Y177800D01*
D20*
X732500Y277500D03*
D19*
X740000Y283770D02*
X738770Y285000D01*
X740000Y283770D02*
X740000Y275000D01*
X687500Y222500D01*
X687500Y137500D01*
X675000Y125000D01*
X673100Y127000D01*
X637500Y125000D02*
X607500Y125000D01*
X637500Y125000D02*
X637500Y120000D01*
X640000Y117500D01*
X655000Y117500D01*
X665000Y127500D01*
X672500Y127500D01*
X607500Y125000D02*
X607300Y127000D01*
X672500Y127500D02*
X673100Y127000D01*
D20*
X738770Y285000D03*
D19*
X835000Y227500D02*
X857500Y250000D01*
X835000Y227500D02*
X835000Y217500D01*
X787500Y170000D01*
X737500Y170000D01*
X675000Y107500D01*
X675000Y102500D01*
X673100Y101600D01*
D20*
X857500Y250000D03*
D19*
X992500Y115000D02*
X980000Y102500D01*
X992500Y115000D02*
X992500Y185000D01*
X980000Y197500D01*
X980000Y202500D01*
X980000Y102500D02*
X977900Y101600D01*
X980000Y202500D02*
X977900Y203200D01*
X665000Y467500D02*
X650000Y482500D01*
X665000Y467500D02*
X710000Y467500D01*
X710000Y335000D01*
X745000Y300000D01*
X745000Y270000D01*
X650000Y482500D02*
X647700Y482600D01*
X632500Y455000D02*
X620000Y442500D01*
X632500Y455000D02*
X632500Y465000D01*
X647500Y480000D01*
X647500Y482500D01*
X647700Y482600D01*
D20*
X745000Y270000D03*
X620000Y442500D03*
D19*
X262500Y345000D02*
X187500Y420000D01*
X187500Y532500D01*
X180000Y540000D01*
X180000Y545000D01*
X177800Y546100D01*
D20*
X262500Y345000D03*
D19*
X162500Y522500D02*
X152500Y522500D01*
X162500Y522500D02*
X162500Y530000D01*
X167500Y535000D01*
X167500Y555000D01*
X175000Y562500D01*
X420000Y562500D01*
X617500Y560000D02*
X727500Y560000D01*
X727500Y525000D01*
X767500Y485000D01*
X767500Y230000D01*
X152400Y520700D02*
X152500Y522500D01*
X767500Y230000D02*
X768300Y229400D01*
D20*
X420000Y562500D03*
X617500Y560000D03*
D19*
X137500Y532500D02*
X127500Y522500D01*
X137500Y532500D02*
X137500Y557500D01*
X162500Y582500D01*
X792500Y582500D01*
X792500Y230000D01*
X127000Y520700D02*
X127500Y522500D01*
X792500Y230000D02*
X793600Y229400D01*
X532500Y217500D02*
X462500Y287500D01*
X462500Y390000D01*
X277500Y437500D02*
X230000Y485000D01*
X230000Y520000D01*
X532500Y217500D02*
X533400Y215900D01*
X230000Y520000D02*
X228600Y520700D01*
D20*
X462500Y390000D03*
X277500Y437500D03*
D19*
X502500Y197500D02*
X532500Y167500D01*
X502500Y197500D02*
X377500Y197500D01*
X377500Y332500D01*
X365000Y345000D01*
X330000Y345000D01*
X330000Y470000D01*
X290000Y510000D01*
X290000Y530000D01*
X285000Y535000D01*
X270000Y535000D01*
X255000Y520000D01*
X532500Y167500D02*
X533400Y165100D01*
X255000Y520000D02*
X254000Y520700D01*
X497500Y150000D02*
X532500Y115000D01*
X497500Y150000D02*
X372500Y150000D01*
X372500Y332500D01*
X365000Y340000D01*
X325000Y340000D01*
X325000Y467500D01*
X280000Y512500D01*
X280000Y520000D01*
X532500Y115000D02*
X533400Y114300D01*
X280000Y520000D02*
X279400Y520700D01*
X760000Y285000D02*
X762500Y287500D01*
X762500Y417500D01*
X715000Y465000D01*
X715000Y467500D01*
X685000Y497500D01*
X517500Y497500D01*
X517500Y282500D01*
X532500Y267500D01*
X533400Y266700D01*
D20*
X760000Y285000D03*
D19*
X300000Y317500D02*
X240000Y377500D01*
X240000Y465000D01*
X217500Y487500D01*
X217500Y532500D01*
X205000Y545000D01*
X300000Y317500D02*
X302260Y317500D01*
X205000Y545000D02*
X203200Y546100D01*
D21*
X657500Y365000D02*
X672500Y380000D01*
X657500Y365000D02*
X620000Y365000D01*
X620000Y367500D01*
X607500Y380000D01*
X672500Y380000D02*
X673100Y381000D01*
X607500Y380000D02*
X607300Y381000D01*
D19*
X447500Y530000D02*
X432500Y545000D01*
X447500Y530000D02*
X447500Y235000D01*
X432500Y545000D02*
X431800Y546100D01*
D20*
X447500Y235000D03*
D19*
X442500Y510000D02*
X431800Y520700D01*
X442500Y510000D02*
X442500Y240000D01*
X440000Y237500D01*
X440000Y227500D01*
X447500Y220000D01*
D20*
X447500Y220000D03*
D19*
X652500Y505000D02*
X692500Y545000D01*
X432500Y491230D02*
X432500Y370000D01*
X431800Y368300D01*
D20*
X692500Y545000D03*
X652500Y505000D03*
X432500Y491230D03*
D19*
X705000Y507500D02*
X717500Y520000D01*
X705000Y507500D02*
X665000Y507500D01*
X427500Y500000D02*
X422500Y495000D01*
X422500Y330000D01*
X430000Y322500D01*
X430000Y317500D01*
X431800Y317500D01*
D20*
X717500Y520000D03*
X665000Y507500D03*
X427500Y500000D03*
D19*
X732500Y547500D02*
X767500Y512500D01*
X732500Y547500D02*
X732500Y572500D01*
X727500Y577500D01*
X427500Y577500D01*
X427500Y560000D01*
X417500Y550000D01*
X417500Y517500D01*
X422500Y512500D01*
X422500Y510000D01*
X417500Y505000D01*
X417500Y285000D01*
X430000Y272500D01*
X430000Y267500D01*
X431800Y266700D01*
D20*
X767500Y512500D03*
D19*
X725000Y465000D02*
X745000Y445000D01*
X725000Y465000D02*
X725000Y522500D01*
X695000Y552500D01*
X600000Y552500D01*
X600000Y510000D01*
X592500Y502500D01*
X455000Y502500D01*
X455000Y207500D01*
X450000Y202500D01*
X440000Y202500D01*
X440000Y207500D01*
X432500Y215000D01*
X431800Y215900D01*
D20*
X745000Y445000D03*
D19*
X720000Y315000D02*
X695000Y290000D01*
X575000Y290000D01*
X575000Y172500D01*
D20*
X720000Y315000D03*
X575000Y172500D03*
D19*
X752500Y302500D02*
X755000Y305000D01*
X752500Y302500D02*
X752500Y190000D01*
X680000Y117500D01*
X660000Y117500D01*
X655000Y112500D01*
X627500Y112500D01*
X627500Y115000D01*
D20*
X755000Y305000D03*
X627500Y115000D03*
M02*
