G04 EAGLE Gerber RS-274X export*
G75*
%MOMM*%
%FSLAX34Y34*%
%LPD*%
%INSoldermask Top*%
%IPPOS*%
%AMOC8*
5,1,8,0,0,1.08239X$1,22.5*%
G01*
%ADD10C,3.203200*%
%ADD11R,1.703200X1.703200*%
%ADD12R,1.711200X1.711200*%
%ADD13R,1.003200X1.003200*%
%ADD14C,3.403200*%
%ADD15C,1.511200*%
%ADD16C,2.703200*%
%ADD17R,0.503200X1.303200*%
%ADD18C,2.203200*%
%ADD19R,1.511200X1.511200*%
%ADD20R,1.625600X1.625600*%
%ADD21R,2.003200X2.003200*%
%ADD22R,1.561200X1.561200*%
%ADD23C,1.473200*%
%ADD24C,0.553200*%
%ADD25P,1.649562X8X22.500000*%
%ADD26C,0.959600*%


D10*
X25400Y25400D03*
X25400Y587300D03*
X974600Y587300D03*
X974600Y25400D03*
D11*
X819000Y229400D03*
X793600Y229400D03*
X768300Y229400D03*
X819000Y153200D03*
X793600Y153200D03*
X768300Y153200D03*
D12*
X254000Y50800D03*
X304800Y50800D03*
X279400Y50800D03*
X127000Y50800D03*
X177800Y50800D03*
X152400Y50800D03*
D13*
X729100Y558800D03*
X744100Y558800D03*
X729100Y508000D03*
X744100Y508000D03*
D14*
X45100Y462900D03*
X285100Y462900D03*
X285100Y222900D03*
X45100Y222900D03*
D15*
X295720Y393700D02*
X308800Y393700D01*
X308800Y368300D02*
X295720Y368300D01*
X295720Y342900D02*
X308800Y342900D01*
X308800Y317500D02*
X295720Y317500D01*
X295720Y292100D02*
X308800Y292100D01*
D16*
X959000Y286400D03*
D17*
X826500Y271900D03*
X831500Y271900D03*
X836500Y271900D03*
X841500Y271900D03*
X846500Y271900D03*
X851500Y271900D03*
X856500Y271900D03*
X861500Y271900D03*
X866500Y271900D03*
X871500Y271900D03*
X871500Y310900D03*
X866500Y310900D03*
X861500Y310900D03*
X856500Y310900D03*
X851500Y310900D03*
X846500Y310900D03*
X841500Y310900D03*
X836500Y310900D03*
X831500Y310900D03*
X826500Y310900D03*
D18*
X819000Y546400D03*
D13*
X729100Y457200D03*
X744100Y457200D03*
D19*
X647700Y482600D03*
X647700Y457200D03*
X647700Y431800D03*
X647700Y406400D03*
X647700Y381000D03*
X647700Y355600D03*
X647700Y330200D03*
X647700Y304800D03*
X647700Y279400D03*
X647700Y254000D03*
X647700Y228600D03*
X647700Y203200D03*
X647700Y177800D03*
X647700Y152400D03*
X647700Y127000D03*
X647700Y101600D03*
X647700Y76200D03*
X647700Y50800D03*
X647700Y25400D03*
X673100Y482600D03*
X673100Y457200D03*
X673100Y431800D03*
X673100Y406400D03*
X673100Y381000D03*
X673100Y355600D03*
X673100Y330200D03*
X673100Y304800D03*
X673100Y279400D03*
X673100Y254000D03*
X673100Y228600D03*
X673100Y203200D03*
X673100Y177800D03*
X673100Y152400D03*
X673100Y127000D03*
X673100Y101600D03*
X673100Y76200D03*
X673100Y50800D03*
X673100Y25400D03*
D20*
X101600Y546100D03*
X127000Y546100D03*
X152400Y546100D03*
X177800Y546100D03*
X203200Y546100D03*
X228600Y546100D03*
X254000Y546100D03*
X279400Y546100D03*
X304800Y546100D03*
X330200Y546100D03*
X355600Y546100D03*
X381000Y546100D03*
X406400Y546100D03*
X431800Y546100D03*
X457200Y546100D03*
X482600Y546100D03*
X508000Y546100D03*
X533400Y546100D03*
X558800Y546100D03*
X584200Y546100D03*
X584200Y520700D03*
X558800Y520700D03*
X533400Y520700D03*
X508000Y520700D03*
X482600Y520700D03*
X457200Y520700D03*
X431800Y520700D03*
X406400Y520700D03*
X381000Y520700D03*
X355600Y520700D03*
X330200Y520700D03*
X304800Y520700D03*
X279400Y520700D03*
X254000Y520700D03*
X228600Y520700D03*
X203200Y520700D03*
X177800Y520700D03*
X152400Y520700D03*
X127000Y520700D03*
X101600Y520700D03*
D13*
X729100Y406400D03*
X744100Y406400D03*
X729100Y355600D03*
X744100Y355600D03*
X729100Y304800D03*
X744100Y304800D03*
D21*
X774700Y63500D03*
X723900Y63500D03*
D12*
X838200Y50800D03*
X914400Y50800D03*
X863600Y50800D03*
X889000Y50800D03*
D22*
X355600Y25400D03*
X355600Y50800D03*
X355600Y76200D03*
X355600Y101600D03*
X355600Y127000D03*
X355600Y152400D03*
X355600Y177800D03*
X355600Y203200D03*
X355600Y228600D03*
X355600Y254000D03*
X355600Y279400D03*
X355600Y304800D03*
X355600Y330200D03*
X355600Y355600D03*
X355600Y381000D03*
X355600Y406400D03*
X355600Y431800D03*
X355600Y457200D03*
X355600Y482600D03*
X607300Y25400D03*
X607300Y50800D03*
X607300Y76200D03*
X607300Y101600D03*
X607300Y127000D03*
X607300Y152400D03*
X607300Y177800D03*
X607300Y203200D03*
X607300Y228600D03*
X607300Y254000D03*
X607300Y279400D03*
X607300Y304800D03*
X607300Y330200D03*
X607300Y355600D03*
X607300Y381000D03*
X607300Y406400D03*
X607300Y431800D03*
X607300Y457200D03*
X607300Y482600D03*
D23*
X977900Y101600D03*
X977900Y127000D03*
X977900Y152400D03*
X977900Y177800D03*
X977900Y203200D03*
X977900Y228600D03*
D24*
X901700Y101600D03*
X901700Y228600D03*
D25*
X431800Y368300D03*
X533400Y368300D03*
X431800Y317500D03*
X533400Y317500D03*
X431800Y266700D03*
X533400Y266700D03*
X431800Y215900D03*
X533400Y215900D03*
X431800Y165100D03*
X533400Y165100D03*
X431800Y114300D03*
X533400Y114300D03*
D26*
X525000Y467500D03*
X410000Y295000D03*
X737500Y35000D03*
X482600Y482600D03*
X520700Y241300D03*
X720000Y290000D03*
X732500Y292500D03*
X732500Y277500D03*
X738770Y285000D03*
X857500Y250000D03*
X800100Y317500D03*
X745000Y270000D03*
X620000Y442500D03*
X262500Y345000D03*
X420000Y562500D03*
X617500Y560000D03*
X462500Y390000D03*
X277500Y437500D03*
X760000Y285000D03*
X447500Y235000D03*
X447500Y220000D03*
X692500Y545000D03*
X652500Y505000D03*
X432500Y491230D03*
X717500Y520000D03*
X665000Y507500D03*
X427500Y500000D03*
X767500Y512500D03*
X745000Y445000D03*
X720000Y315000D03*
X575000Y172500D03*
X755000Y305000D03*
X627500Y115000D03*
M02*
