G04 EAGLE Gerber RS-274X export*
G75*
%MOMM*%
%FSLAX34Y34*%
%LPD*%
%INSoldermask Bottom*%
%IPPOS*%
%AMOC8*
5,1,8,0,0,1.08239X$1,22.5*%
G01*
%ADD10C,2.203200*%
%ADD11R,2.003200X2.003200*%
%ADD12C,1.524000*%
%ADD13R,1.611200X1.611200*%
%ADD14R,0.803200X1.703200*%
%ADD15R,1.703200X0.803200*%
%ADD16R,1.303200X1.203200*%
%ADD17R,1.203200X1.303200*%
%ADD18C,1.511200*%
%ADD19C,1.711200*%
%ADD20C,0.959600*%


D10*
X20000Y330000D03*
X480000Y330000D03*
X20000Y20000D03*
X480000Y20000D03*
D11*
X52700Y283700D03*
X27300Y283700D03*
D12*
X200296Y325000D02*
X213504Y325000D01*
X276496Y325000D02*
X289704Y325000D01*
X93504Y325000D02*
X80296Y325000D01*
X156496Y325000D02*
X169704Y325000D01*
D13*
X445000Y80000D03*
X470400Y80000D03*
X419600Y80000D03*
X445000Y250000D03*
X470400Y250000D03*
X419600Y250000D03*
D14*
X285000Y182500D03*
X275500Y182500D03*
X294500Y182500D03*
X285000Y157500D03*
X275500Y157500D03*
X294500Y157500D03*
X180000Y272500D03*
X170500Y272500D03*
X189500Y272500D03*
X180000Y247500D03*
X170500Y247500D03*
X189500Y247500D03*
D15*
X169000Y27400D03*
X169000Y17900D03*
X169000Y36900D03*
X194000Y27400D03*
X194000Y17900D03*
X194000Y36900D03*
D14*
X180000Y182500D03*
X170500Y182500D03*
X189500Y182500D03*
X180000Y157500D03*
X170500Y157500D03*
X189500Y157500D03*
X285000Y272500D03*
X275500Y272500D03*
X294500Y272500D03*
X285000Y247500D03*
X275500Y247500D03*
X294500Y247500D03*
D16*
X468500Y284000D03*
X451500Y284000D03*
X468500Y115000D03*
X451500Y115000D03*
D17*
X325000Y33500D03*
X325000Y16500D03*
X293500Y125000D03*
X276500Y125000D03*
X188500Y125000D03*
X171500Y125000D03*
D16*
X240000Y16500D03*
X240000Y33500D03*
X280000Y16500D03*
X280000Y33500D03*
D18*
X137700Y60700D03*
X112300Y60700D03*
X137700Y86100D03*
X112300Y86100D03*
X137700Y111500D03*
X112300Y111500D03*
X137700Y136900D03*
X112300Y136900D03*
X137700Y162300D03*
X112300Y162300D03*
X137700Y187700D03*
X112300Y187700D03*
X137700Y213100D03*
X112300Y213100D03*
X137700Y238500D03*
X112300Y238500D03*
X137700Y263900D03*
X112300Y263900D03*
X137700Y289300D03*
X112300Y289300D03*
X347700Y60700D03*
X322300Y60700D03*
X347700Y86100D03*
X322300Y86100D03*
X347700Y111500D03*
X322300Y111500D03*
X347700Y136900D03*
X322300Y136900D03*
X347700Y162300D03*
X322300Y162300D03*
X347700Y187700D03*
X322300Y187700D03*
X347700Y213100D03*
X322300Y213100D03*
X347700Y238500D03*
X322300Y238500D03*
X347700Y263900D03*
X322300Y263900D03*
X347700Y289300D03*
X322300Y289300D03*
X242700Y60700D03*
X217300Y60700D03*
X242700Y86100D03*
X217300Y86100D03*
X242700Y111500D03*
X217300Y111500D03*
X242700Y136900D03*
X217300Y136900D03*
X242700Y162300D03*
X217300Y162300D03*
X242700Y187700D03*
X217300Y187700D03*
X242700Y213100D03*
X217300Y213100D03*
X242700Y238500D03*
X217300Y238500D03*
X242700Y263900D03*
X217300Y263900D03*
X242700Y289300D03*
X217300Y289300D03*
D14*
X180000Y87500D03*
X170500Y87500D03*
X189500Y87500D03*
X180000Y62500D03*
X170500Y62500D03*
X189500Y62500D03*
D17*
X171500Y215000D03*
X188500Y215000D03*
D14*
X285000Y87500D03*
X275500Y87500D03*
X294500Y87500D03*
X285000Y62500D03*
X275500Y62500D03*
X294500Y62500D03*
D17*
X293500Y215000D03*
X276500Y215000D03*
D12*
X325296Y325000D02*
X338504Y325000D01*
X401496Y325000D02*
X414704Y325000D01*
D14*
X385000Y272500D03*
X375500Y272500D03*
X394500Y272500D03*
X385000Y247500D03*
X375500Y247500D03*
X394500Y247500D03*
X385000Y182500D03*
X375500Y182500D03*
X394500Y182500D03*
X385000Y157500D03*
X375500Y157500D03*
X394500Y157500D03*
D13*
X445000Y165000D03*
X470400Y165000D03*
X419600Y165000D03*
D16*
X468500Y200000D03*
X451500Y200000D03*
D17*
X393500Y215000D03*
X376500Y215000D03*
D14*
X385000Y87500D03*
X375500Y87500D03*
X394500Y87500D03*
X385000Y62500D03*
X375500Y62500D03*
X394500Y62500D03*
D17*
X393500Y125000D03*
X376500Y125000D03*
D11*
X52700Y215000D03*
X27300Y215000D03*
X52700Y145000D03*
X27300Y145000D03*
X52700Y75000D03*
X27300Y75000D03*
D19*
X417000Y33500D03*
X442000Y33500D03*
X392000Y33500D03*
D20*
X393954Y226314D03*
X259842Y153670D03*
X310134Y108966D03*
X148082Y248666D03*
X335280Y72644D03*
X86614Y120142D03*
X301752Y75438D03*
X304546Y198374D03*
X304546Y254254D03*
X304546Y276606D03*
X103378Y128524D03*
X354838Y75438D03*
X184404Y226314D03*
X265430Y237490D03*
X192786Y136906D03*
X276606Y136906D03*
X374396Y142494D03*
X374396Y203962D03*
X209550Y22352D03*
X407924Y148082D03*
X201168Y265430D03*
X282194Y100584D03*
X276606Y231902D03*
X310134Y81026D03*
X170434Y100584D03*
X162052Y145288D03*
X86614Y273812D03*
X229108Y33528D03*
X357632Y27940D03*
X273812Y287782D03*
X254254Y298958D03*
X150876Y301752D03*
X424688Y22352D03*
X296164Y226314D03*
X391160Y142494D03*
X268224Y50292D03*
X368808Y50292D03*
X173228Y203962D03*
X181610Y44704D03*
M02*
