M48
;GenerationSoftware,Autodesk,EAGLE,9.6.2*%
;CreationDate,2023-07-26T23:00:04Z*%
FMAT,2
ICI,OFF
METRIC,TZ,000.000
T4C0.350
T3C1.016
T2C1.200
T1C2.000
%
G90
M71
T1
X33000Y43000
X33000Y2000
X2000Y2000
X2000Y43000
T2
X22526Y37323
X22526Y34783
X22526Y32253
X30146Y37323
X30146Y34783
X30146Y32253
T3
X21310Y7350
X18770Y7350
X16230Y7350
X13690Y7350
X11150Y7350
X8610Y7350
X6070Y7350
X26390Y4810
X6096Y41190
X8636Y41190
X11176Y41190
X13716Y41190
X18796Y41190
X6096Y38650
X8636Y38650
X11176Y38650
X13716Y38650
X16256Y38650
X18796Y38650
X28930Y4810
X16256Y41190
X23850Y4810
X21310Y4810
X18770Y4810
X16230Y4810
X13690Y4810
X11150Y4810
X8610Y4810
X6070Y4810
X28930Y7350
X26390Y7350
X23850Y7350
T4
X6985Y17882
X27102Y12852
X6147Y16205
X16205Y13132
X16764Y29058
X13132Y25146
X8661Y13691
X11455Y23470
X12573Y28499
X12573Y36601
X12852Y16764
X10058Y25984
X12014Y17602
X15088Y15646
X15926Y9779
X12014Y19279
X9779Y13411
X26264Y11735
X10897Y15088
M30