G04 EAGLE Gerber RS-274X export*
G75*
%MOMM*%
%FSLAX34Y34*%
%LPD*%
%IN*%
%IPPOS*%
%AMOC8*
5,1,8,0,0,1.08239X$1,22.5*%
G01*
%ADD10C,0.254000*%


D10*
X0Y0D02*
X1000000Y0D01*
X1000000Y612700D01*
X0Y612700D01*
X0Y0D01*
X40400Y24864D02*
X40324Y23796D01*
X40171Y22735D01*
X39943Y21688D01*
X39641Y20660D01*
X39267Y19656D01*
X38822Y18681D01*
X38308Y17741D01*
X37729Y16840D01*
X37087Y15982D01*
X36385Y15172D01*
X35628Y14415D01*
X34818Y13713D01*
X33960Y13071D01*
X33059Y12492D01*
X32119Y11978D01*
X31144Y11533D01*
X30140Y11159D01*
X29112Y10857D01*
X28065Y10629D01*
X27004Y10476D01*
X25936Y10400D01*
X24864Y10400D01*
X23796Y10476D01*
X22735Y10629D01*
X21688Y10857D01*
X20660Y11159D01*
X19656Y11533D01*
X18681Y11978D01*
X17741Y12492D01*
X16840Y13071D01*
X15982Y13713D01*
X15172Y14415D01*
X14415Y15172D01*
X13713Y15982D01*
X13071Y16840D01*
X12492Y17741D01*
X11978Y18681D01*
X11533Y19656D01*
X11159Y20660D01*
X10857Y21688D01*
X10629Y22735D01*
X10476Y23796D01*
X10400Y24864D01*
X10400Y25936D01*
X10476Y27004D01*
X10629Y28065D01*
X10857Y29112D01*
X11159Y30140D01*
X11533Y31144D01*
X11978Y32119D01*
X12492Y33059D01*
X13071Y33960D01*
X13713Y34818D01*
X14415Y35628D01*
X15172Y36385D01*
X15982Y37087D01*
X16840Y37729D01*
X17741Y38308D01*
X18681Y38822D01*
X19656Y39267D01*
X20660Y39641D01*
X21688Y39943D01*
X22735Y40171D01*
X23796Y40324D01*
X24864Y40400D01*
X25936Y40400D01*
X27004Y40324D01*
X28065Y40171D01*
X29112Y39943D01*
X30140Y39641D01*
X31144Y39267D01*
X32119Y38822D01*
X33059Y38308D01*
X33960Y37729D01*
X34818Y37087D01*
X35628Y36385D01*
X36385Y35628D01*
X37087Y34818D01*
X37729Y33960D01*
X38308Y33059D01*
X38822Y32119D01*
X39267Y31144D01*
X39641Y30140D01*
X39943Y29112D01*
X40171Y28065D01*
X40324Y27004D01*
X40400Y25936D01*
X40400Y24864D01*
X40400Y586764D02*
X40324Y585696D01*
X40171Y584635D01*
X39943Y583588D01*
X39641Y582560D01*
X39267Y581556D01*
X38822Y580581D01*
X38308Y579641D01*
X37729Y578740D01*
X37087Y577882D01*
X36385Y577072D01*
X35628Y576315D01*
X34818Y575613D01*
X33960Y574971D01*
X33059Y574392D01*
X32119Y573878D01*
X31144Y573433D01*
X30140Y573059D01*
X29112Y572757D01*
X28065Y572529D01*
X27004Y572376D01*
X25936Y572300D01*
X24864Y572300D01*
X23796Y572376D01*
X22735Y572529D01*
X21688Y572757D01*
X20660Y573059D01*
X19656Y573433D01*
X18681Y573878D01*
X17741Y574392D01*
X16840Y574971D01*
X15982Y575613D01*
X15172Y576315D01*
X14415Y577072D01*
X13713Y577882D01*
X13071Y578740D01*
X12492Y579641D01*
X11978Y580581D01*
X11533Y581556D01*
X11159Y582560D01*
X10857Y583588D01*
X10629Y584635D01*
X10476Y585696D01*
X10400Y586764D01*
X10400Y587836D01*
X10476Y588904D01*
X10629Y589965D01*
X10857Y591012D01*
X11159Y592040D01*
X11533Y593044D01*
X11978Y594019D01*
X12492Y594959D01*
X13071Y595860D01*
X13713Y596718D01*
X14415Y597528D01*
X15172Y598285D01*
X15982Y598987D01*
X16840Y599629D01*
X17741Y600208D01*
X18681Y600722D01*
X19656Y601167D01*
X20660Y601541D01*
X21688Y601843D01*
X22735Y602071D01*
X23796Y602224D01*
X24864Y602300D01*
X25936Y602300D01*
X27004Y602224D01*
X28065Y602071D01*
X29112Y601843D01*
X30140Y601541D01*
X31144Y601167D01*
X32119Y600722D01*
X33059Y600208D01*
X33960Y599629D01*
X34818Y598987D01*
X35628Y598285D01*
X36385Y597528D01*
X37087Y596718D01*
X37729Y595860D01*
X38308Y594959D01*
X38822Y594019D01*
X39267Y593044D01*
X39641Y592040D01*
X39943Y591012D01*
X40171Y589965D01*
X40324Y588904D01*
X40400Y587836D01*
X40400Y586764D01*
X989600Y586764D02*
X989524Y585696D01*
X989371Y584635D01*
X989143Y583588D01*
X988841Y582560D01*
X988467Y581556D01*
X988022Y580581D01*
X987508Y579641D01*
X986929Y578740D01*
X986287Y577882D01*
X985585Y577072D01*
X984828Y576315D01*
X984018Y575613D01*
X983160Y574971D01*
X982259Y574392D01*
X981319Y573878D01*
X980344Y573433D01*
X979340Y573059D01*
X978312Y572757D01*
X977265Y572529D01*
X976204Y572376D01*
X975136Y572300D01*
X974064Y572300D01*
X972996Y572376D01*
X971935Y572529D01*
X970888Y572757D01*
X969860Y573059D01*
X968856Y573433D01*
X967881Y573878D01*
X966941Y574392D01*
X966040Y574971D01*
X965182Y575613D01*
X964372Y576315D01*
X963615Y577072D01*
X962913Y577882D01*
X962271Y578740D01*
X961692Y579641D01*
X961178Y580581D01*
X960733Y581556D01*
X960359Y582560D01*
X960057Y583588D01*
X959829Y584635D01*
X959676Y585696D01*
X959600Y586764D01*
X959600Y587836D01*
X959676Y588904D01*
X959829Y589965D01*
X960057Y591012D01*
X960359Y592040D01*
X960733Y593044D01*
X961178Y594019D01*
X961692Y594959D01*
X962271Y595860D01*
X962913Y596718D01*
X963615Y597528D01*
X964372Y598285D01*
X965182Y598987D01*
X966040Y599629D01*
X966941Y600208D01*
X967881Y600722D01*
X968856Y601167D01*
X969860Y601541D01*
X970888Y601843D01*
X971935Y602071D01*
X972996Y602224D01*
X974064Y602300D01*
X975136Y602300D01*
X976204Y602224D01*
X977265Y602071D01*
X978312Y601843D01*
X979340Y601541D01*
X980344Y601167D01*
X981319Y600722D01*
X982259Y600208D01*
X983160Y599629D01*
X984018Y598987D01*
X984828Y598285D01*
X985585Y597528D01*
X986287Y596718D01*
X986929Y595860D01*
X987508Y594959D01*
X988022Y594019D01*
X988467Y593044D01*
X988841Y592040D01*
X989143Y591012D01*
X989371Y589965D01*
X989524Y588904D01*
X989600Y587836D01*
X989600Y586764D01*
X989600Y24864D02*
X989524Y23796D01*
X989371Y22735D01*
X989143Y21688D01*
X988841Y20660D01*
X988467Y19656D01*
X988022Y18681D01*
X987508Y17741D01*
X986929Y16840D01*
X986287Y15982D01*
X985585Y15172D01*
X984828Y14415D01*
X984018Y13713D01*
X983160Y13071D01*
X982259Y12492D01*
X981319Y11978D01*
X980344Y11533D01*
X979340Y11159D01*
X978312Y10857D01*
X977265Y10629D01*
X976204Y10476D01*
X975136Y10400D01*
X974064Y10400D01*
X972996Y10476D01*
X971935Y10629D01*
X970888Y10857D01*
X969860Y11159D01*
X968856Y11533D01*
X967881Y11978D01*
X966941Y12492D01*
X966040Y13071D01*
X965182Y13713D01*
X964372Y14415D01*
X963615Y15172D01*
X962913Y15982D01*
X962271Y16840D01*
X961692Y17741D01*
X961178Y18681D01*
X960733Y19656D01*
X960359Y20660D01*
X960057Y21688D01*
X959829Y22735D01*
X959676Y23796D01*
X959600Y24864D01*
X959600Y25936D01*
X959676Y27004D01*
X959829Y28065D01*
X960057Y29112D01*
X960359Y30140D01*
X960733Y31144D01*
X961178Y32119D01*
X961692Y33059D01*
X962271Y33960D01*
X962913Y34818D01*
X963615Y35628D01*
X964372Y36385D01*
X965182Y37087D01*
X966040Y37729D01*
X966941Y38308D01*
X967881Y38822D01*
X968856Y39267D01*
X969860Y39641D01*
X970888Y39943D01*
X971935Y40171D01*
X972996Y40324D01*
X974064Y40400D01*
X975136Y40400D01*
X976204Y40324D01*
X977265Y40171D01*
X978312Y39943D01*
X979340Y39641D01*
X980344Y39267D01*
X981319Y38822D01*
X982259Y38308D01*
X983160Y37729D01*
X984018Y37087D01*
X984828Y36385D01*
X985585Y35628D01*
X986287Y34818D01*
X986929Y33960D01*
X987508Y33059D01*
X988022Y32119D01*
X988467Y31144D01*
X988841Y30140D01*
X989143Y29112D01*
X989371Y28065D01*
X989524Y27004D01*
X989600Y25936D01*
X989600Y24864D01*
X61100Y462376D02*
X61032Y461331D01*
X60895Y460292D01*
X60690Y459265D01*
X60419Y458253D01*
X60083Y457261D01*
X59682Y456293D01*
X59218Y455354D01*
X58695Y454446D01*
X58113Y453575D01*
X57475Y452744D01*
X56784Y451957D01*
X56043Y451216D01*
X55256Y450525D01*
X54425Y449888D01*
X53554Y449306D01*
X52646Y448782D01*
X51707Y448318D01*
X50739Y447917D01*
X49747Y447581D01*
X48735Y447310D01*
X47708Y447105D01*
X46669Y446969D01*
X45624Y446900D01*
X44576Y446900D01*
X43531Y446969D01*
X42492Y447105D01*
X41465Y447310D01*
X40453Y447581D01*
X39461Y447917D01*
X38493Y448318D01*
X37554Y448782D01*
X36646Y449306D01*
X35775Y449888D01*
X34944Y450525D01*
X34157Y451216D01*
X33416Y451957D01*
X32725Y452744D01*
X32088Y453575D01*
X31506Y454446D01*
X30982Y455354D01*
X30518Y456293D01*
X30117Y457261D01*
X29781Y458253D01*
X29510Y459265D01*
X29305Y460292D01*
X29169Y461331D01*
X29100Y462376D01*
X29100Y463424D01*
X29169Y464469D01*
X29305Y465508D01*
X29510Y466535D01*
X29781Y467547D01*
X30117Y468539D01*
X30518Y469507D01*
X30982Y470446D01*
X31506Y471354D01*
X32088Y472225D01*
X32725Y473056D01*
X33416Y473843D01*
X34157Y474584D01*
X34944Y475275D01*
X35775Y475913D01*
X36646Y476495D01*
X37554Y477018D01*
X38493Y477482D01*
X39461Y477883D01*
X40453Y478219D01*
X41465Y478490D01*
X42492Y478695D01*
X43531Y478832D01*
X44576Y478900D01*
X45624Y478900D01*
X46669Y478832D01*
X47708Y478695D01*
X48735Y478490D01*
X49747Y478219D01*
X50739Y477883D01*
X51707Y477482D01*
X52646Y477018D01*
X53554Y476495D01*
X54425Y475913D01*
X55256Y475275D01*
X56043Y474584D01*
X56784Y473843D01*
X57475Y473056D01*
X58113Y472225D01*
X58695Y471354D01*
X59218Y470446D01*
X59682Y469507D01*
X60083Y468539D01*
X60419Y467547D01*
X60690Y466535D01*
X60895Y465508D01*
X61032Y464469D01*
X61100Y463424D01*
X61100Y462376D01*
X301100Y462376D02*
X301032Y461331D01*
X300895Y460292D01*
X300690Y459265D01*
X300419Y458253D01*
X300083Y457261D01*
X299682Y456293D01*
X299218Y455354D01*
X298695Y454446D01*
X298113Y453575D01*
X297475Y452744D01*
X296784Y451957D01*
X296043Y451216D01*
X295256Y450525D01*
X294425Y449888D01*
X293554Y449306D01*
X292646Y448782D01*
X291707Y448318D01*
X290739Y447917D01*
X289747Y447581D01*
X288735Y447310D01*
X287708Y447105D01*
X286669Y446969D01*
X285624Y446900D01*
X284576Y446900D01*
X283531Y446969D01*
X282492Y447105D01*
X281465Y447310D01*
X280453Y447581D01*
X279461Y447917D01*
X278493Y448318D01*
X277554Y448782D01*
X276646Y449306D01*
X275775Y449888D01*
X274944Y450525D01*
X274157Y451216D01*
X273416Y451957D01*
X272725Y452744D01*
X272088Y453575D01*
X271506Y454446D01*
X270982Y455354D01*
X270518Y456293D01*
X270117Y457261D01*
X269781Y458253D01*
X269510Y459265D01*
X269305Y460292D01*
X269169Y461331D01*
X269100Y462376D01*
X269100Y463424D01*
X269169Y464469D01*
X269305Y465508D01*
X269510Y466535D01*
X269781Y467547D01*
X270117Y468539D01*
X270518Y469507D01*
X270982Y470446D01*
X271506Y471354D01*
X272088Y472225D01*
X272725Y473056D01*
X273416Y473843D01*
X274157Y474584D01*
X274944Y475275D01*
X275775Y475913D01*
X276646Y476495D01*
X277554Y477018D01*
X278493Y477482D01*
X279461Y477883D01*
X280453Y478219D01*
X281465Y478490D01*
X282492Y478695D01*
X283531Y478832D01*
X284576Y478900D01*
X285624Y478900D01*
X286669Y478832D01*
X287708Y478695D01*
X288735Y478490D01*
X289747Y478219D01*
X290739Y477883D01*
X291707Y477482D01*
X292646Y477018D01*
X293554Y476495D01*
X294425Y475913D01*
X295256Y475275D01*
X296043Y474584D01*
X296784Y473843D01*
X297475Y473056D01*
X298113Y472225D01*
X298695Y471354D01*
X299218Y470446D01*
X299682Y469507D01*
X300083Y468539D01*
X300419Y467547D01*
X300690Y466535D01*
X300895Y465508D01*
X301032Y464469D01*
X301100Y463424D01*
X301100Y462376D01*
X301100Y222376D02*
X301032Y221331D01*
X300895Y220292D01*
X300690Y219265D01*
X300419Y218253D01*
X300083Y217261D01*
X299682Y216293D01*
X299218Y215354D01*
X298695Y214446D01*
X298113Y213575D01*
X297475Y212744D01*
X296784Y211957D01*
X296043Y211216D01*
X295256Y210525D01*
X294425Y209888D01*
X293554Y209306D01*
X292646Y208782D01*
X291707Y208318D01*
X290739Y207917D01*
X289747Y207581D01*
X288735Y207310D01*
X287708Y207105D01*
X286669Y206969D01*
X285624Y206900D01*
X284576Y206900D01*
X283531Y206969D01*
X282492Y207105D01*
X281465Y207310D01*
X280453Y207581D01*
X279461Y207917D01*
X278493Y208318D01*
X277554Y208782D01*
X276646Y209306D01*
X275775Y209888D01*
X274944Y210525D01*
X274157Y211216D01*
X273416Y211957D01*
X272725Y212744D01*
X272088Y213575D01*
X271506Y214446D01*
X270982Y215354D01*
X270518Y216293D01*
X270117Y217261D01*
X269781Y218253D01*
X269510Y219265D01*
X269305Y220292D01*
X269169Y221331D01*
X269100Y222376D01*
X269100Y223424D01*
X269169Y224469D01*
X269305Y225508D01*
X269510Y226535D01*
X269781Y227547D01*
X270117Y228539D01*
X270518Y229507D01*
X270982Y230446D01*
X271506Y231354D01*
X272088Y232225D01*
X272725Y233056D01*
X273416Y233843D01*
X274157Y234584D01*
X274944Y235275D01*
X275775Y235913D01*
X276646Y236495D01*
X277554Y237018D01*
X278493Y237482D01*
X279461Y237883D01*
X280453Y238219D01*
X281465Y238490D01*
X282492Y238695D01*
X283531Y238832D01*
X284576Y238900D01*
X285624Y238900D01*
X286669Y238832D01*
X287708Y238695D01*
X288735Y238490D01*
X289747Y238219D01*
X290739Y237883D01*
X291707Y237482D01*
X292646Y237018D01*
X293554Y236495D01*
X294425Y235913D01*
X295256Y235275D01*
X296043Y234584D01*
X296784Y233843D01*
X297475Y233056D01*
X298113Y232225D01*
X298695Y231354D01*
X299218Y230446D01*
X299682Y229507D01*
X300083Y228539D01*
X300419Y227547D01*
X300690Y226535D01*
X300895Y225508D01*
X301032Y224469D01*
X301100Y223424D01*
X301100Y222376D01*
X61100Y222376D02*
X61032Y221331D01*
X60895Y220292D01*
X60690Y219265D01*
X60419Y218253D01*
X60083Y217261D01*
X59682Y216293D01*
X59218Y215354D01*
X58695Y214446D01*
X58113Y213575D01*
X57475Y212744D01*
X56784Y211957D01*
X56043Y211216D01*
X55256Y210525D01*
X54425Y209888D01*
X53554Y209306D01*
X52646Y208782D01*
X51707Y208318D01*
X50739Y207917D01*
X49747Y207581D01*
X48735Y207310D01*
X47708Y207105D01*
X46669Y206969D01*
X45624Y206900D01*
X44576Y206900D01*
X43531Y206969D01*
X42492Y207105D01*
X41465Y207310D01*
X40453Y207581D01*
X39461Y207917D01*
X38493Y208318D01*
X37554Y208782D01*
X36646Y209306D01*
X35775Y209888D01*
X34944Y210525D01*
X34157Y211216D01*
X33416Y211957D01*
X32725Y212744D01*
X32088Y213575D01*
X31506Y214446D01*
X30982Y215354D01*
X30518Y216293D01*
X30117Y217261D01*
X29781Y218253D01*
X29510Y219265D01*
X29305Y220292D01*
X29169Y221331D01*
X29100Y222376D01*
X29100Y223424D01*
X29169Y224469D01*
X29305Y225508D01*
X29510Y226535D01*
X29781Y227547D01*
X30117Y228539D01*
X30518Y229507D01*
X30982Y230446D01*
X31506Y231354D01*
X32088Y232225D01*
X32725Y233056D01*
X33416Y233843D01*
X34157Y234584D01*
X34944Y235275D01*
X35775Y235913D01*
X36646Y236495D01*
X37554Y237018D01*
X38493Y237482D01*
X39461Y237883D01*
X40453Y238219D01*
X41465Y238490D01*
X42492Y238695D01*
X43531Y238832D01*
X44576Y238900D01*
X45624Y238900D01*
X46669Y238832D01*
X47708Y238695D01*
X48735Y238490D01*
X49747Y238219D01*
X50739Y237883D01*
X51707Y237482D01*
X52646Y237018D01*
X53554Y236495D01*
X54425Y235913D01*
X55256Y235275D01*
X56043Y234584D01*
X56784Y233843D01*
X57475Y233056D01*
X58113Y232225D01*
X58695Y231354D01*
X59218Y230446D01*
X59682Y229507D01*
X60083Y228539D01*
X60419Y227547D01*
X60690Y226535D01*
X60895Y225508D01*
X61032Y224469D01*
X61100Y223424D01*
X61100Y222376D01*
X971500Y285909D02*
X971423Y284930D01*
X971269Y283960D01*
X971040Y283004D01*
X970736Y282070D01*
X970361Y281163D01*
X969915Y280288D01*
X969401Y279450D01*
X968824Y278655D01*
X968186Y277908D01*
X967492Y277214D01*
X966745Y276576D01*
X965950Y275999D01*
X965112Y275485D01*
X964237Y275039D01*
X963330Y274664D01*
X962396Y274360D01*
X961441Y274131D01*
X960470Y273977D01*
X959491Y273900D01*
X958509Y273900D01*
X957530Y273977D01*
X956560Y274131D01*
X955604Y274360D01*
X954670Y274664D01*
X953763Y275039D01*
X952888Y275485D01*
X952050Y275999D01*
X951255Y276576D01*
X950508Y277214D01*
X949814Y277908D01*
X949176Y278655D01*
X948599Y279450D01*
X948085Y280288D01*
X947639Y281163D01*
X947264Y282070D01*
X946960Y283004D01*
X946731Y283960D01*
X946577Y284930D01*
X946500Y285909D01*
X946500Y286891D01*
X946577Y287870D01*
X946731Y288841D01*
X946960Y289796D01*
X947264Y290730D01*
X947639Y291637D01*
X948085Y292512D01*
X948599Y293350D01*
X949176Y294145D01*
X949814Y294892D01*
X950508Y295586D01*
X951255Y296224D01*
X952050Y296801D01*
X952888Y297315D01*
X953763Y297761D01*
X954670Y298136D01*
X955604Y298440D01*
X956560Y298669D01*
X957530Y298823D01*
X958509Y298900D01*
X959491Y298900D01*
X960470Y298823D01*
X961441Y298669D01*
X962396Y298440D01*
X963330Y298136D01*
X964237Y297761D01*
X965112Y297315D01*
X965950Y296801D01*
X966745Y296224D01*
X967492Y295586D01*
X968186Y294892D01*
X968824Y294145D01*
X969401Y293350D01*
X969915Y292512D01*
X970361Y291637D01*
X970736Y290730D01*
X971040Y289796D01*
X971269Y288841D01*
X971423Y287870D01*
X971500Y286891D01*
X971500Y285909D01*
X829000Y545963D02*
X828924Y545094D01*
X828772Y544234D01*
X828546Y543390D01*
X828248Y542570D01*
X827879Y541778D01*
X827442Y541022D01*
X826941Y540307D01*
X826380Y539638D01*
X825762Y539020D01*
X825093Y538459D01*
X824378Y537958D01*
X823622Y537521D01*
X822830Y537152D01*
X822010Y536854D01*
X821166Y536628D01*
X820307Y536476D01*
X819437Y536400D01*
X818563Y536400D01*
X817694Y536476D01*
X816834Y536628D01*
X815990Y536854D01*
X815170Y537152D01*
X814378Y537521D01*
X813622Y537958D01*
X812907Y538459D01*
X812238Y539020D01*
X811620Y539638D01*
X811059Y540307D01*
X810558Y541022D01*
X810121Y541778D01*
X809752Y542570D01*
X809454Y543390D01*
X809228Y544234D01*
X809076Y545094D01*
X809000Y545963D01*
X809000Y546837D01*
X809076Y547707D01*
X809228Y548566D01*
X809454Y549410D01*
X809752Y550230D01*
X810121Y551022D01*
X810558Y551778D01*
X811059Y552493D01*
X811620Y553162D01*
X812238Y553780D01*
X812907Y554341D01*
X813622Y554842D01*
X814378Y555279D01*
X815170Y555648D01*
X815990Y555946D01*
X816834Y556172D01*
X817694Y556324D01*
X818563Y556400D01*
X819437Y556400D01*
X820307Y556324D01*
X821166Y556172D01*
X822010Y555946D01*
X822830Y555648D01*
X823622Y555279D01*
X824378Y554842D01*
X825093Y554341D01*
X825762Y553780D01*
X826380Y553162D01*
X826941Y552493D01*
X827442Y551778D01*
X827879Y551022D01*
X828248Y550230D01*
X828546Y549410D01*
X828772Y548566D01*
X828924Y547707D01*
X829000Y546837D01*
X829000Y545963D01*
X901872Y103350D02*
X902210Y103283D01*
X902529Y103151D01*
X902816Y102959D01*
X903059Y102716D01*
X903251Y102429D01*
X903383Y102110D01*
X903450Y101772D01*
X903450Y101428D01*
X903383Y101090D01*
X903251Y100771D01*
X903059Y100484D01*
X902816Y100241D01*
X902529Y100049D01*
X902210Y99917D01*
X901872Y99850D01*
X901528Y99850D01*
X901190Y99917D01*
X900871Y100049D01*
X900584Y100241D01*
X900341Y100484D01*
X900149Y100771D01*
X900017Y101090D01*
X899950Y101428D01*
X899950Y101772D01*
X900017Y102110D01*
X900149Y102429D01*
X900341Y102716D01*
X900584Y102959D01*
X900871Y103151D01*
X901190Y103283D01*
X901528Y103350D01*
X901872Y103350D01*
X901872Y230350D02*
X902210Y230283D01*
X902529Y230151D01*
X902816Y229959D01*
X903059Y229716D01*
X903251Y229429D01*
X903383Y229110D01*
X903450Y228772D01*
X903450Y228428D01*
X903383Y228090D01*
X903251Y227771D01*
X903059Y227484D01*
X902816Y227241D01*
X902529Y227049D01*
X902210Y226917D01*
X901872Y226850D01*
X901528Y226850D01*
X901190Y226917D01*
X900871Y227049D01*
X900584Y227241D01*
X900341Y227484D01*
X900149Y227771D01*
X900017Y228090D01*
X899950Y228428D01*
X899950Y228772D01*
X900017Y229110D01*
X900149Y229429D01*
X900341Y229716D01*
X900584Y229959D01*
X900871Y230151D01*
X901190Y230283D01*
X901528Y230350D01*
X901872Y230350D01*
M02*
