G04 EAGLE Gerber RS-274X export*
G75*
%MOMM*%
%FSLAX34Y34*%
%LPD*%
%INSolderpaste Top*%
%IPPOS*%
%AMOC8*
5,1,8,0,0,1.08239X$1,22.5*%
G01*
%ADD10R,0.800000X0.800000*%
%ADD11R,0.300000X1.100000*%
%ADD12R,1.100000X1.000000*%


D10*
X723900Y553600D03*
X723900Y538600D03*
X723900Y502800D03*
X723900Y487800D03*
D11*
X826500Y271900D03*
X831500Y271900D03*
X836500Y271900D03*
X841500Y271900D03*
X846500Y271900D03*
X851500Y271900D03*
X856500Y271900D03*
X861500Y271900D03*
X866500Y271900D03*
X871500Y271900D03*
X871500Y310900D03*
X866500Y310900D03*
X861500Y310900D03*
X856500Y310900D03*
X851500Y310900D03*
X846500Y310900D03*
X841500Y310900D03*
X836500Y310900D03*
X831500Y310900D03*
X826500Y310900D03*
D10*
X723900Y452000D03*
X723900Y437000D03*
D12*
X762000Y537600D03*
X762000Y554600D03*
X762000Y486800D03*
X762000Y503800D03*
X762000Y436000D03*
X762000Y453000D03*
X762000Y385200D03*
X762000Y402200D03*
X762000Y334400D03*
X762000Y351400D03*
X762000Y283600D03*
X762000Y300600D03*
D10*
X723900Y401200D03*
X723900Y386200D03*
X723900Y350400D03*
X723900Y335400D03*
X723900Y299600D03*
X723900Y284600D03*
M02*
