M48
;GenerationSoftware,Autodesk,EAGLE,9.6.2*%
;CreationDate,2023-07-26T22:49:16Z*%
FMAT,2
ICI,OFF
METRIC,TZ,000.000
T4C0.350
T3C0.800
T2C1.000
T1C2.000
%
G90
M71
T1
X2000Y33000
X39500Y33000
X2000Y2000
X39500Y2000
T2
X26750Y25260
X14350Y24120
X14350Y21580
X14350Y16500
X14350Y19040
X26700Y6580
X26700Y14200
X26700Y9120
X26700Y11660
X26750Y20180
X26750Y27800
X26750Y22720
T3
X8730Y16230
X11270Y18770
X8730Y18770
X8730Y21310
X11270Y23850
X8730Y23850
X11270Y26390
X8730Y26390
X11270Y28930
X8730Y28930
X21770Y6070
X19230Y6070
X21770Y8610
X19230Y8610
X21770Y11150
X19230Y11150
X21770Y13690
X19230Y13690
X21770Y16230
X19230Y16230
X21770Y18770
X19230Y18770
X21770Y21310
X11270Y21310
X21770Y23850
X19230Y23850
X21770Y26390
X19230Y26390
X21770Y28930
X19230Y28930
X32270Y6070
X29730Y6070
X32270Y8610
X29730Y8610
X32270Y11150
X29730Y11150
X32270Y13690
X29730Y13690
X32270Y16230
X29730Y16230
X32270Y18770
X29730Y18770
X32270Y21310
X32270Y23850
X29730Y23850
X32270Y26390
X29730Y26390
X32270Y28930
X29730Y28930
X8730Y8610
X19230Y21310
X11270Y6070
X8730Y6070
X11270Y8610
X11270Y11150
X8730Y11150
X11270Y13690
X8730Y13690
X11270Y16230
X29730Y21310
T4
X17323Y29134
X14961Y29134
M30