G04 EAGLE Gerber RS-274X export*
G75*
%MOMM*%
%FSLAX34Y34*%
%LPD*%
%INTop Copper*%
%IPPOS*%
%AMOC8*
5,1,8,0,0,1.08239X$1,22.5*%
G01*
%ADD10C,1.800000*%
%ADD11R,1.800000X1.800000*%
%ADD12C,1.508000*%
%ADD13C,0.152400*%

G36*
X289098Y10164D02*
X289098Y10164D01*
X289117Y10162D01*
X289219Y10184D01*
X289321Y10200D01*
X289338Y10210D01*
X289358Y10214D01*
X289447Y10267D01*
X289538Y10316D01*
X289552Y10330D01*
X289569Y10340D01*
X289636Y10419D01*
X289708Y10494D01*
X289716Y10512D01*
X289729Y10527D01*
X289768Y10623D01*
X289811Y10717D01*
X289813Y10737D01*
X289821Y10755D01*
X289839Y10922D01*
X289839Y289078D01*
X289836Y289098D01*
X289838Y289117D01*
X289816Y289219D01*
X289800Y289321D01*
X289790Y289338D01*
X289786Y289358D01*
X289733Y289447D01*
X289684Y289538D01*
X289670Y289552D01*
X289660Y289569D01*
X289581Y289636D01*
X289506Y289708D01*
X289488Y289716D01*
X289473Y289729D01*
X289377Y289768D01*
X289283Y289811D01*
X289263Y289813D01*
X289245Y289821D01*
X289078Y289839D01*
X26972Y289839D01*
X26876Y289824D01*
X26779Y289814D01*
X26755Y289804D01*
X26729Y289800D01*
X26643Y289754D01*
X26554Y289714D01*
X26535Y289697D01*
X26512Y289684D01*
X26445Y289614D01*
X26373Y289548D01*
X26360Y289525D01*
X26342Y289506D01*
X26301Y289418D01*
X26254Y289332D01*
X26250Y289307D01*
X26239Y289283D01*
X26228Y289186D01*
X26211Y289090D01*
X26214Y289064D01*
X26212Y289039D01*
X26232Y288943D01*
X26246Y288847D01*
X26258Y288824D01*
X26264Y288798D01*
X26314Y288715D01*
X26358Y288628D01*
X26377Y288609D01*
X26390Y288587D01*
X26464Y288524D01*
X26533Y288456D01*
X26562Y288440D01*
X26577Y288427D01*
X26608Y288415D01*
X26680Y288375D01*
X28352Y287682D01*
X31312Y284722D01*
X32915Y280853D01*
X32915Y280416D01*
X32918Y280396D01*
X32916Y280377D01*
X32938Y280275D01*
X32954Y280173D01*
X32964Y280156D01*
X32968Y280136D01*
X33021Y280047D01*
X33070Y279956D01*
X33084Y279942D01*
X33094Y279925D01*
X33173Y279858D01*
X33248Y279786D01*
X33266Y279778D01*
X33281Y279765D01*
X33377Y279726D01*
X33471Y279683D01*
X33491Y279681D01*
X33509Y279673D01*
X33676Y279655D01*
X66479Y279655D01*
X81386Y264748D01*
X81460Y264695D01*
X81530Y264635D01*
X81560Y264623D01*
X81586Y264604D01*
X81673Y264577D01*
X81758Y264543D01*
X81799Y264539D01*
X81821Y264532D01*
X81853Y264533D01*
X81924Y264525D01*
X98532Y264525D01*
X99425Y263632D01*
X99425Y244368D01*
X98532Y243475D01*
X79268Y243475D01*
X78375Y244368D01*
X78375Y260976D01*
X78361Y261066D01*
X78353Y261157D01*
X78341Y261186D01*
X78336Y261218D01*
X78293Y261299D01*
X78257Y261383D01*
X78231Y261415D01*
X78220Y261436D01*
X78197Y261458D01*
X78152Y261514D01*
X64808Y274858D01*
X64734Y274911D01*
X64664Y274971D01*
X64634Y274983D01*
X64608Y275002D01*
X64521Y275029D01*
X64436Y275063D01*
X64395Y275067D01*
X64373Y275074D01*
X64341Y275073D01*
X64269Y275081D01*
X32767Y275081D01*
X32652Y275062D01*
X32536Y275045D01*
X32530Y275043D01*
X32524Y275042D01*
X32421Y274987D01*
X32317Y274934D01*
X32312Y274929D01*
X32307Y274926D01*
X32227Y274842D01*
X32144Y274758D01*
X32141Y274752D01*
X32137Y274748D01*
X32129Y274731D01*
X32063Y274611D01*
X31312Y272798D01*
X28352Y269838D01*
X24483Y268235D01*
X20297Y268235D01*
X16428Y269838D01*
X13468Y272798D01*
X11865Y276667D01*
X11865Y280853D01*
X13468Y284722D01*
X16428Y287682D01*
X18100Y288375D01*
X18183Y288426D01*
X18268Y288472D01*
X18286Y288490D01*
X18309Y288504D01*
X18371Y288580D01*
X18438Y288650D01*
X18449Y288674D01*
X18465Y288694D01*
X18500Y288785D01*
X18541Y288873D01*
X18544Y288899D01*
X18554Y288923D01*
X18558Y289021D01*
X18568Y289117D01*
X18563Y289143D01*
X18564Y289169D01*
X18537Y289263D01*
X18516Y289358D01*
X18503Y289380D01*
X18496Y289405D01*
X18440Y289485D01*
X18390Y289569D01*
X18370Y289586D01*
X18355Y289607D01*
X18277Y289666D01*
X18203Y289729D01*
X18179Y289739D01*
X18158Y289754D01*
X18065Y289784D01*
X17975Y289821D01*
X17943Y289824D01*
X17924Y289830D01*
X17891Y289830D01*
X17808Y289839D01*
X10922Y289839D01*
X10902Y289836D01*
X10883Y289838D01*
X10781Y289816D01*
X10679Y289800D01*
X10662Y289790D01*
X10642Y289786D01*
X10553Y289733D01*
X10462Y289684D01*
X10448Y289670D01*
X10431Y289660D01*
X10364Y289581D01*
X10292Y289506D01*
X10284Y289488D01*
X10271Y289473D01*
X10232Y289377D01*
X10189Y289283D01*
X10187Y289263D01*
X10179Y289245D01*
X10161Y289078D01*
X10161Y257875D01*
X10161Y257871D01*
X10161Y257867D01*
X10181Y257748D01*
X10200Y257632D01*
X10202Y257629D01*
X10203Y257625D01*
X10260Y257519D01*
X10316Y257415D01*
X10318Y257412D01*
X10320Y257409D01*
X10408Y257327D01*
X10494Y257246D01*
X10498Y257244D01*
X10501Y257241D01*
X10609Y257192D01*
X10717Y257142D01*
X10721Y257142D01*
X10725Y257140D01*
X10845Y257128D01*
X10961Y257115D01*
X10965Y257116D01*
X10969Y257115D01*
X11085Y257142D01*
X11202Y257167D01*
X11205Y257169D01*
X11209Y257170D01*
X11310Y257232D01*
X11413Y257293D01*
X11416Y257296D01*
X11419Y257298D01*
X11495Y257389D01*
X11573Y257480D01*
X11574Y257484D01*
X11577Y257487D01*
X11646Y257640D01*
X11695Y257790D01*
X12519Y259409D01*
X13587Y260878D01*
X14872Y262163D01*
X16341Y263231D01*
X17960Y264055D01*
X19688Y264617D01*
X20867Y264803D01*
X20867Y254122D01*
X20870Y254102D01*
X20868Y254083D01*
X20890Y253981D01*
X20907Y253879D01*
X20916Y253862D01*
X20920Y253842D01*
X20973Y253753D01*
X21022Y253662D01*
X21036Y253648D01*
X21046Y253631D01*
X21125Y253564D01*
X21200Y253493D01*
X21218Y253484D01*
X21233Y253471D01*
X21329Y253433D01*
X21423Y253389D01*
X21443Y253387D01*
X21461Y253379D01*
X21628Y253361D01*
X22391Y253361D01*
X22391Y253359D01*
X21628Y253359D01*
X21608Y253356D01*
X21589Y253358D01*
X21487Y253336D01*
X21385Y253319D01*
X21368Y253310D01*
X21348Y253306D01*
X21259Y253253D01*
X21168Y253204D01*
X21154Y253190D01*
X21137Y253180D01*
X21070Y253101D01*
X20999Y253026D01*
X20990Y253008D01*
X20977Y252993D01*
X20938Y252897D01*
X20895Y252803D01*
X20893Y252783D01*
X20885Y252765D01*
X20867Y252598D01*
X20867Y241917D01*
X19688Y242103D01*
X17960Y242665D01*
X16341Y243489D01*
X14872Y244557D01*
X13587Y245842D01*
X12519Y247311D01*
X11695Y248930D01*
X11646Y249080D01*
X11644Y249084D01*
X11643Y249088D01*
X11589Y249191D01*
X11533Y249299D01*
X11530Y249302D01*
X11528Y249305D01*
X11443Y249386D01*
X11357Y249470D01*
X11353Y249472D01*
X11350Y249474D01*
X11242Y249524D01*
X11135Y249576D01*
X11131Y249576D01*
X11127Y249578D01*
X11009Y249591D01*
X10890Y249606D01*
X10887Y249605D01*
X10883Y249605D01*
X10765Y249580D01*
X10650Y249556D01*
X10646Y249554D01*
X10642Y249553D01*
X10540Y249492D01*
X10437Y249432D01*
X10434Y249429D01*
X10431Y249427D01*
X10353Y249336D01*
X10275Y249247D01*
X10274Y249243D01*
X10271Y249240D01*
X10226Y249128D01*
X10181Y249019D01*
X10181Y249015D01*
X10179Y249012D01*
X10161Y248845D01*
X10161Y147385D01*
X10161Y147381D01*
X10161Y147377D01*
X10181Y147259D01*
X10200Y147142D01*
X10202Y147139D01*
X10203Y147135D01*
X10260Y147030D01*
X10316Y146925D01*
X10318Y146922D01*
X10320Y146919D01*
X10408Y146837D01*
X10494Y146756D01*
X10498Y146754D01*
X10501Y146751D01*
X10609Y146702D01*
X10717Y146652D01*
X10721Y146651D01*
X10725Y146650D01*
X10845Y146638D01*
X10961Y146625D01*
X10965Y146626D01*
X10969Y146625D01*
X11086Y146652D01*
X11202Y146677D01*
X11205Y146679D01*
X11209Y146680D01*
X11310Y146742D01*
X11413Y146803D01*
X11416Y146806D01*
X11419Y146808D01*
X11496Y146900D01*
X11573Y146990D01*
X11574Y146994D01*
X11577Y146997D01*
X11646Y147150D01*
X11695Y147300D01*
X12519Y148919D01*
X13587Y150388D01*
X14872Y151673D01*
X16341Y152741D01*
X17960Y153565D01*
X19688Y154127D01*
X20867Y154313D01*
X20867Y143632D01*
X20870Y143612D01*
X20868Y143593D01*
X20890Y143491D01*
X20907Y143389D01*
X20916Y143372D01*
X20920Y143352D01*
X20973Y143263D01*
X21022Y143172D01*
X21036Y143158D01*
X21046Y143141D01*
X21125Y143074D01*
X21200Y143003D01*
X21218Y142994D01*
X21233Y142981D01*
X21329Y142943D01*
X21423Y142899D01*
X21443Y142897D01*
X21461Y142889D01*
X21628Y142871D01*
X22391Y142871D01*
X22391Y142869D01*
X21628Y142869D01*
X21608Y142866D01*
X21589Y142868D01*
X21487Y142846D01*
X21385Y142829D01*
X21368Y142820D01*
X21348Y142816D01*
X21259Y142763D01*
X21168Y142714D01*
X21154Y142700D01*
X21137Y142690D01*
X21070Y142611D01*
X20999Y142536D01*
X20990Y142518D01*
X20977Y142503D01*
X20938Y142407D01*
X20895Y142313D01*
X20893Y142293D01*
X20885Y142275D01*
X20867Y142108D01*
X20867Y131427D01*
X19688Y131613D01*
X17960Y132175D01*
X16341Y132999D01*
X14872Y134067D01*
X13587Y135352D01*
X12519Y136821D01*
X11695Y138440D01*
X11646Y138590D01*
X11644Y138594D01*
X11643Y138598D01*
X11588Y138702D01*
X11533Y138809D01*
X11530Y138812D01*
X11528Y138815D01*
X11442Y138897D01*
X11357Y138980D01*
X11353Y138982D01*
X11350Y138984D01*
X11242Y139034D01*
X11135Y139086D01*
X11131Y139086D01*
X11127Y139088D01*
X11009Y139101D01*
X10891Y139116D01*
X10887Y139115D01*
X10883Y139115D01*
X10766Y139090D01*
X10650Y139066D01*
X10646Y139064D01*
X10642Y139063D01*
X10539Y139002D01*
X10437Y138942D01*
X10435Y138939D01*
X10431Y138937D01*
X10352Y138845D01*
X10275Y138757D01*
X10274Y138753D01*
X10271Y138750D01*
X10226Y138637D01*
X10181Y138529D01*
X10181Y138525D01*
X10179Y138522D01*
X10161Y138355D01*
X10161Y10922D01*
X10164Y10902D01*
X10162Y10883D01*
X10184Y10781D01*
X10200Y10679D01*
X10210Y10662D01*
X10214Y10642D01*
X10267Y10553D01*
X10316Y10462D01*
X10330Y10448D01*
X10340Y10431D01*
X10419Y10364D01*
X10494Y10292D01*
X10512Y10284D01*
X10527Y10271D01*
X10623Y10232D01*
X10717Y10189D01*
X10737Y10187D01*
X10755Y10179D01*
X10922Y10161D01*
X289078Y10161D01*
X289098Y10164D01*
G37*
%LPC*%
G36*
X112897Y30935D02*
X112897Y30935D01*
X109565Y32315D01*
X107015Y34865D01*
X105635Y38197D01*
X105635Y41803D01*
X107015Y45135D01*
X109565Y47685D01*
X111543Y48504D01*
X111643Y48566D01*
X111743Y48626D01*
X111747Y48630D01*
X111752Y48634D01*
X111827Y48724D01*
X111903Y48812D01*
X111905Y48818D01*
X111909Y48823D01*
X111951Y48932D01*
X111995Y49041D01*
X111996Y49048D01*
X111997Y49053D01*
X111998Y49071D01*
X112013Y49207D01*
X112013Y74938D01*
X111999Y75028D01*
X111991Y75119D01*
X111979Y75148D01*
X111974Y75180D01*
X111931Y75261D01*
X111895Y75345D01*
X111869Y75377D01*
X111858Y75398D01*
X111835Y75420D01*
X111790Y75476D01*
X83714Y103552D01*
X83640Y103605D01*
X83570Y103665D01*
X83540Y103677D01*
X83514Y103696D01*
X83427Y103723D01*
X83342Y103757D01*
X83301Y103761D01*
X83279Y103768D01*
X83247Y103767D01*
X83176Y103775D01*
X66568Y103775D01*
X65675Y104668D01*
X65675Y120040D01*
X65664Y120110D01*
X65662Y120182D01*
X65644Y120231D01*
X65636Y120282D01*
X65602Y120346D01*
X65577Y120413D01*
X65545Y120454D01*
X65520Y120500D01*
X65468Y120549D01*
X65424Y120605D01*
X65380Y120633D01*
X65342Y120669D01*
X65277Y120699D01*
X65217Y120738D01*
X65166Y120751D01*
X65119Y120773D01*
X65048Y120781D01*
X64978Y120798D01*
X64926Y120794D01*
X64875Y120800D01*
X64804Y120785D01*
X64733Y120779D01*
X64685Y120759D01*
X64634Y120748D01*
X64573Y120711D01*
X64507Y120683D01*
X64451Y120638D01*
X64423Y120621D01*
X64408Y120604D01*
X64376Y120578D01*
X34475Y90677D01*
X33676Y90677D01*
X33656Y90674D01*
X33637Y90676D01*
X33535Y90654D01*
X33433Y90638D01*
X33416Y90628D01*
X33396Y90624D01*
X33307Y90571D01*
X33216Y90522D01*
X33202Y90508D01*
X33185Y90498D01*
X33118Y90419D01*
X33046Y90344D01*
X33038Y90326D01*
X33025Y90311D01*
X32986Y90215D01*
X32943Y90121D01*
X32941Y90101D01*
X32933Y90083D01*
X32924Y89999D01*
X31312Y86108D01*
X28352Y83148D01*
X24483Y81545D01*
X20297Y81545D01*
X16428Y83148D01*
X13468Y86108D01*
X11865Y89977D01*
X11865Y94163D01*
X13468Y98032D01*
X16428Y100992D01*
X20297Y102595D01*
X24483Y102595D01*
X28352Y100992D01*
X31312Y98032D01*
X32062Y96221D01*
X32087Y96182D01*
X32102Y96139D01*
X32151Y96078D01*
X32192Y96012D01*
X32228Y95983D01*
X32256Y95947D01*
X32322Y95905D01*
X32382Y95855D01*
X32424Y95839D01*
X32463Y95814D01*
X32539Y95795D01*
X32611Y95767D01*
X32657Y95765D01*
X32702Y95754D01*
X32779Y95760D01*
X32857Y95756D01*
X32901Y95769D01*
X32947Y95773D01*
X33018Y95803D01*
X33093Y95825D01*
X33131Y95851D01*
X33173Y95869D01*
X33280Y95955D01*
X33295Y95965D01*
X33298Y95969D01*
X33304Y95974D01*
X78262Y140932D01*
X79825Y142495D01*
X148089Y142495D01*
X148180Y142509D01*
X148270Y142517D01*
X148300Y142529D01*
X148332Y142534D01*
X148413Y142577D01*
X148497Y142613D01*
X148529Y142639D01*
X148550Y142650D01*
X148572Y142673D01*
X148628Y142718D01*
X171886Y165976D01*
X171928Y166034D01*
X171977Y166086D01*
X171999Y166133D01*
X172029Y166175D01*
X172050Y166244D01*
X172081Y166309D01*
X172086Y166361D01*
X172102Y166411D01*
X172100Y166482D01*
X172108Y166553D01*
X172097Y166604D01*
X172095Y166656D01*
X172071Y166724D01*
X172056Y166794D01*
X172029Y166839D01*
X172011Y166887D01*
X171966Y166943D01*
X171929Y167005D01*
X171890Y167039D01*
X171857Y167079D01*
X171797Y167118D01*
X171742Y167165D01*
X171694Y167184D01*
X171650Y167212D01*
X171581Y167230D01*
X171514Y167257D01*
X171443Y167265D01*
X171412Y167273D01*
X171388Y167271D01*
X171348Y167275D01*
X155468Y167275D01*
X154575Y168168D01*
X154575Y181727D01*
X154561Y181818D01*
X154553Y181908D01*
X154541Y181938D01*
X154536Y181970D01*
X154493Y182051D01*
X154457Y182135D01*
X154431Y182167D01*
X154420Y182188D01*
X154397Y182210D01*
X154352Y182266D01*
X151524Y185094D01*
X151466Y185136D01*
X151414Y185185D01*
X151367Y185207D01*
X151325Y185237D01*
X151256Y185258D01*
X151191Y185289D01*
X151139Y185294D01*
X151089Y185310D01*
X151018Y185308D01*
X150947Y185316D01*
X150896Y185305D01*
X150844Y185303D01*
X150776Y185279D01*
X150706Y185264D01*
X150661Y185237D01*
X150613Y185219D01*
X150557Y185174D01*
X150495Y185137D01*
X150461Y185098D01*
X150421Y185065D01*
X150382Y185005D01*
X150335Y184950D01*
X150316Y184902D01*
X150288Y184858D01*
X150270Y184789D01*
X150243Y184722D01*
X150235Y184651D01*
X150227Y184620D01*
X150229Y184596D01*
X150225Y184556D01*
X150225Y168168D01*
X149332Y167275D01*
X130068Y167275D01*
X129175Y168168D01*
X129175Y181219D01*
X129161Y181310D01*
X129153Y181400D01*
X129141Y181430D01*
X129136Y181462D01*
X129093Y181543D01*
X129057Y181627D01*
X129031Y181659D01*
X129020Y181680D01*
X128997Y181702D01*
X128952Y181758D01*
X127140Y183570D01*
X127082Y183612D01*
X127030Y183661D01*
X126983Y183683D01*
X126941Y183713D01*
X126872Y183734D01*
X126807Y183765D01*
X126755Y183770D01*
X126705Y183786D01*
X126634Y183784D01*
X126563Y183792D01*
X126512Y183781D01*
X126460Y183779D01*
X126392Y183755D01*
X126322Y183740D01*
X126277Y183713D01*
X126229Y183695D01*
X126173Y183650D01*
X126111Y183613D01*
X126077Y183574D01*
X126037Y183541D01*
X125998Y183481D01*
X125951Y183426D01*
X125932Y183378D01*
X125904Y183334D01*
X125886Y183265D01*
X125859Y183198D01*
X125851Y183127D01*
X125843Y183096D01*
X125845Y183072D01*
X125841Y183032D01*
X125841Y179323D01*
X115823Y179323D01*
X115823Y189341D01*
X119532Y189341D01*
X119602Y189352D01*
X119674Y189354D01*
X119723Y189372D01*
X119774Y189380D01*
X119838Y189414D01*
X119905Y189439D01*
X119946Y189471D01*
X119992Y189496D01*
X120041Y189548D01*
X120097Y189592D01*
X120125Y189636D01*
X120161Y189674D01*
X120191Y189739D01*
X120230Y189799D01*
X120243Y189850D01*
X120265Y189897D01*
X120273Y189968D01*
X120290Y190038D01*
X120286Y190090D01*
X120292Y190141D01*
X120277Y190212D01*
X120271Y190283D01*
X120251Y190331D01*
X120240Y190382D01*
X120203Y190443D01*
X120175Y190509D01*
X120130Y190565D01*
X120113Y190593D01*
X120096Y190608D01*
X120070Y190640D01*
X112052Y198658D01*
X111978Y198711D01*
X111908Y198771D01*
X111878Y198783D01*
X111852Y198802D01*
X111765Y198829D01*
X111680Y198863D01*
X111639Y198867D01*
X111617Y198874D01*
X111585Y198873D01*
X111513Y198881D01*
X32767Y198881D01*
X32652Y198862D01*
X32536Y198845D01*
X32530Y198843D01*
X32524Y198842D01*
X32421Y198787D01*
X32317Y198734D01*
X32312Y198729D01*
X32307Y198726D01*
X32227Y198642D01*
X32144Y198558D01*
X32141Y198552D01*
X32137Y198548D01*
X32129Y198531D01*
X32063Y198411D01*
X31312Y196598D01*
X28352Y193638D01*
X24483Y192035D01*
X20297Y192035D01*
X16428Y193638D01*
X13468Y196598D01*
X11865Y200467D01*
X11865Y204653D01*
X13468Y208522D01*
X16428Y211482D01*
X20297Y213085D01*
X24483Y213085D01*
X28352Y211482D01*
X31312Y208522D01*
X32915Y204653D01*
X32915Y204216D01*
X32918Y204196D01*
X32916Y204177D01*
X32938Y204075D01*
X32954Y203973D01*
X32964Y203956D01*
X32968Y203936D01*
X33021Y203847D01*
X33070Y203756D01*
X33084Y203742D01*
X33094Y203725D01*
X33173Y203658D01*
X33248Y203586D01*
X33266Y203578D01*
X33281Y203565D01*
X33377Y203526D01*
X33471Y203483D01*
X33491Y203481D01*
X33509Y203473D01*
X33676Y203455D01*
X113723Y203455D01*
X128923Y188255D01*
X128939Y188244D01*
X128951Y188228D01*
X129039Y188172D01*
X129122Y188112D01*
X129141Y188106D01*
X129158Y188095D01*
X129258Y188070D01*
X129357Y188039D01*
X129377Y188040D01*
X129397Y188035D01*
X129500Y188043D01*
X129603Y188046D01*
X129622Y188053D01*
X129642Y188054D01*
X129737Y188095D01*
X129834Y188130D01*
X129850Y188143D01*
X129868Y188151D01*
X129999Y188255D01*
X130068Y188325D01*
X146456Y188325D01*
X146526Y188336D01*
X146598Y188338D01*
X146647Y188356D01*
X146698Y188364D01*
X146762Y188398D01*
X146829Y188423D01*
X146870Y188455D01*
X146916Y188480D01*
X146965Y188532D01*
X147021Y188576D01*
X147049Y188620D01*
X147085Y188658D01*
X147115Y188723D01*
X147154Y188783D01*
X147167Y188834D01*
X147189Y188881D01*
X147197Y188952D01*
X147214Y189022D01*
X147210Y189074D01*
X147216Y189125D01*
X147201Y189196D01*
X147195Y189267D01*
X147175Y189315D01*
X147164Y189366D01*
X147127Y189427D01*
X147099Y189493D01*
X147054Y189549D01*
X147037Y189577D01*
X147020Y189592D01*
X146994Y189624D01*
X112052Y224566D01*
X111978Y224619D01*
X111908Y224679D01*
X111878Y224691D01*
X111852Y224710D01*
X111765Y224737D01*
X111680Y224771D01*
X111639Y224775D01*
X111617Y224782D01*
X111585Y224781D01*
X111513Y224789D01*
X32977Y224789D01*
X32862Y224770D01*
X32746Y224753D01*
X32741Y224751D01*
X32734Y224750D01*
X32632Y224695D01*
X32527Y224642D01*
X32523Y224637D01*
X32517Y224634D01*
X32437Y224550D01*
X32355Y224466D01*
X32351Y224460D01*
X32348Y224456D01*
X32340Y224439D01*
X32274Y224319D01*
X31312Y221998D01*
X28352Y219038D01*
X24483Y217435D01*
X20297Y217435D01*
X16428Y219038D01*
X13468Y221998D01*
X11865Y225867D01*
X11865Y230053D01*
X13468Y233922D01*
X16428Y236882D01*
X20297Y238485D01*
X24483Y238485D01*
X28352Y236882D01*
X31312Y233922D01*
X32931Y230014D01*
X32938Y229983D01*
X32954Y229881D01*
X32964Y229864D01*
X32968Y229844D01*
X33021Y229755D01*
X33070Y229664D01*
X33084Y229650D01*
X33094Y229633D01*
X33173Y229566D01*
X33248Y229494D01*
X33266Y229486D01*
X33281Y229473D01*
X33377Y229434D01*
X33471Y229391D01*
X33491Y229389D01*
X33509Y229381D01*
X33676Y229363D01*
X113723Y229363D01*
X154577Y188509D01*
X154593Y188498D01*
X154605Y188482D01*
X154670Y188440D01*
X154713Y188404D01*
X154737Y188394D01*
X154776Y188366D01*
X154795Y188360D01*
X154812Y188349D01*
X154909Y188325D01*
X154941Y188312D01*
X154958Y188310D01*
X155011Y188293D01*
X155031Y188294D01*
X155051Y188289D01*
X155106Y188293D01*
X155108Y188293D01*
X155122Y188293D01*
X155138Y188296D01*
X155154Y188297D01*
X155257Y188300D01*
X155276Y188307D01*
X155296Y188308D01*
X155335Y188325D01*
X173736Y188325D01*
X173756Y188328D01*
X173775Y188326D01*
X173877Y188348D01*
X173979Y188364D01*
X173996Y188374D01*
X174016Y188378D01*
X174105Y188431D01*
X174196Y188480D01*
X174210Y188494D01*
X174227Y188504D01*
X174294Y188583D01*
X174366Y188658D01*
X174374Y188676D01*
X174387Y188691D01*
X174426Y188787D01*
X174469Y188881D01*
X174471Y188901D01*
X174479Y188919D01*
X174497Y189086D01*
X174497Y215145D01*
X174483Y215236D01*
X174475Y215326D01*
X174463Y215356D01*
X174458Y215388D01*
X174415Y215469D01*
X174379Y215553D01*
X174353Y215585D01*
X174342Y215606D01*
X174319Y215628D01*
X174274Y215684D01*
X146706Y243252D01*
X146632Y243305D01*
X146562Y243365D01*
X146532Y243377D01*
X146506Y243396D01*
X146419Y243423D01*
X146334Y243457D01*
X146293Y243461D01*
X146271Y243468D01*
X146239Y243467D01*
X146168Y243475D01*
X130068Y243475D01*
X129175Y244368D01*
X129175Y263632D01*
X130068Y264525D01*
X149332Y264525D01*
X150225Y263632D01*
X150225Y246516D01*
X150239Y246426D01*
X150247Y246335D01*
X150259Y246306D01*
X150264Y246274D01*
X150307Y246193D01*
X150343Y246109D01*
X150369Y246077D01*
X150380Y246056D01*
X150403Y246034D01*
X150448Y245978D01*
X179071Y217355D01*
X179071Y166693D01*
X150299Y137921D01*
X82035Y137921D01*
X81944Y137907D01*
X81854Y137899D01*
X81824Y137887D01*
X81792Y137882D01*
X81711Y137839D01*
X81627Y137803D01*
X81595Y137777D01*
X81574Y137766D01*
X81552Y137743D01*
X81496Y137698D01*
X69922Y126124D01*
X69880Y126066D01*
X69831Y126014D01*
X69809Y125967D01*
X69779Y125925D01*
X69758Y125856D01*
X69727Y125791D01*
X69722Y125739D01*
X69706Y125689D01*
X69708Y125618D01*
X69700Y125547D01*
X69711Y125496D01*
X69713Y125444D01*
X69737Y125376D01*
X69752Y125306D01*
X69779Y125261D01*
X69797Y125213D01*
X69842Y125157D01*
X69879Y125095D01*
X69918Y125061D01*
X69951Y125021D01*
X70011Y124982D01*
X70066Y124935D01*
X70114Y124916D01*
X70158Y124888D01*
X70227Y124870D01*
X70294Y124843D01*
X70365Y124835D01*
X70396Y124827D01*
X70420Y124829D01*
X70460Y124825D01*
X85832Y124825D01*
X86725Y123932D01*
X86725Y107324D01*
X86739Y107234D01*
X86747Y107143D01*
X86759Y107114D01*
X86764Y107082D01*
X86807Y107001D01*
X86843Y106917D01*
X86869Y106885D01*
X86880Y106864D01*
X86903Y106842D01*
X86948Y106786D01*
X89776Y103958D01*
X89834Y103916D01*
X89886Y103867D01*
X89933Y103845D01*
X89975Y103815D01*
X90044Y103794D01*
X90109Y103763D01*
X90161Y103758D01*
X90211Y103742D01*
X90282Y103744D01*
X90353Y103736D01*
X90404Y103747D01*
X90456Y103749D01*
X90524Y103773D01*
X90594Y103788D01*
X90638Y103815D01*
X90687Y103833D01*
X90743Y103878D01*
X90805Y103915D01*
X90839Y103954D01*
X90879Y103987D01*
X90918Y104047D01*
X90965Y104102D01*
X90984Y104150D01*
X91012Y104194D01*
X91030Y104263D01*
X91057Y104330D01*
X91065Y104401D01*
X91073Y104432D01*
X91071Y104456D01*
X91075Y104496D01*
X91075Y123932D01*
X91968Y124825D01*
X111232Y124825D01*
X112125Y123932D01*
X112125Y117348D01*
X112128Y117328D01*
X112126Y117309D01*
X112148Y117207D01*
X112164Y117105D01*
X112174Y117088D01*
X112178Y117068D01*
X112231Y116979D01*
X112280Y116888D01*
X112294Y116874D01*
X112304Y116857D01*
X112383Y116790D01*
X112458Y116718D01*
X112476Y116710D01*
X112491Y116697D01*
X112587Y116658D01*
X112681Y116615D01*
X112701Y116613D01*
X112719Y116605D01*
X112886Y116587D01*
X141993Y116587D01*
X142084Y116601D01*
X142174Y116609D01*
X142204Y116621D01*
X142236Y116626D01*
X142317Y116669D01*
X142401Y116705D01*
X142433Y116731D01*
X142454Y116742D01*
X142476Y116765D01*
X142532Y116810D01*
X154501Y128779D01*
X179255Y128779D01*
X182986Y125048D01*
X183060Y124995D01*
X183130Y124935D01*
X183160Y124923D01*
X183186Y124904D01*
X183273Y124877D01*
X183358Y124843D01*
X183399Y124839D01*
X183421Y124832D01*
X183453Y124833D01*
X183525Y124825D01*
X200132Y124825D01*
X201025Y123932D01*
X201025Y104668D01*
X200132Y103775D01*
X180868Y103775D01*
X179975Y104668D01*
X179975Y121275D01*
X179961Y121366D01*
X179953Y121456D01*
X179941Y121486D01*
X179936Y121518D01*
X179893Y121599D01*
X179857Y121683D01*
X179831Y121715D01*
X179820Y121736D01*
X179797Y121758D01*
X179768Y121794D01*
X179752Y121814D01*
X177584Y123982D01*
X177510Y124035D01*
X177440Y124095D01*
X177410Y124107D01*
X177384Y124126D01*
X177297Y124153D01*
X177212Y124187D01*
X177171Y124191D01*
X177149Y124198D01*
X177117Y124197D01*
X177045Y124205D01*
X176386Y124205D01*
X176366Y124202D01*
X176347Y124204D01*
X176245Y124182D01*
X176143Y124166D01*
X176126Y124156D01*
X176106Y124152D01*
X176017Y124099D01*
X175926Y124050D01*
X175912Y124036D01*
X175895Y124026D01*
X175828Y123947D01*
X175756Y123872D01*
X175748Y123854D01*
X175735Y123839D01*
X175696Y123743D01*
X175653Y123649D01*
X175651Y123629D01*
X175643Y123611D01*
X175625Y123444D01*
X175625Y104668D01*
X174732Y103775D01*
X155468Y103775D01*
X154575Y104668D01*
X154575Y111252D01*
X154572Y111272D01*
X154574Y111291D01*
X154552Y111393D01*
X154536Y111495D01*
X154526Y111512D01*
X154522Y111532D01*
X154469Y111621D01*
X154420Y111712D01*
X154406Y111726D01*
X154396Y111743D01*
X154317Y111810D01*
X154242Y111882D01*
X154224Y111890D01*
X154209Y111903D01*
X154113Y111942D01*
X154019Y111985D01*
X153999Y111987D01*
X153981Y111995D01*
X153814Y112013D01*
X153663Y112013D01*
X153572Y111999D01*
X153482Y111991D01*
X153452Y111979D01*
X153420Y111974D01*
X153339Y111931D01*
X153255Y111895D01*
X153223Y111869D01*
X153202Y111858D01*
X153180Y111835D01*
X153124Y111790D01*
X116810Y75476D01*
X116757Y75402D01*
X116697Y75332D01*
X116685Y75302D01*
X116666Y75276D01*
X116639Y75189D01*
X116605Y75104D01*
X116601Y75063D01*
X116594Y75041D01*
X116595Y75009D01*
X116587Y74937D01*
X116587Y49539D01*
X116606Y49424D01*
X116623Y49308D01*
X116625Y49302D01*
X116626Y49296D01*
X116681Y49193D01*
X116734Y49089D01*
X116739Y49084D01*
X116742Y49079D01*
X116826Y48999D01*
X116910Y48916D01*
X116916Y48913D01*
X116920Y48909D01*
X116937Y48901D01*
X117057Y48835D01*
X119835Y47685D01*
X122385Y45135D01*
X123765Y41803D01*
X123765Y38197D01*
X122385Y34865D01*
X119835Y32315D01*
X116503Y30935D01*
X112897Y30935D01*
G37*
%LPD*%
%LPC*%
G36*
X20297Y157745D02*
X20297Y157745D01*
X16428Y159348D01*
X13468Y162308D01*
X11865Y166177D01*
X11865Y170363D01*
X13468Y174232D01*
X16428Y177192D01*
X20297Y178795D01*
X24483Y178795D01*
X28352Y177192D01*
X31312Y174232D01*
X32270Y171921D01*
X32332Y171821D01*
X32391Y171721D01*
X32396Y171717D01*
X32399Y171712D01*
X32490Y171637D01*
X32578Y171561D01*
X32584Y171559D01*
X32589Y171555D01*
X32697Y171513D01*
X32806Y171469D01*
X32814Y171468D01*
X32818Y171467D01*
X32837Y171466D01*
X32973Y171451D01*
X77614Y171451D01*
X77634Y171454D01*
X77653Y171452D01*
X77755Y171474D01*
X77857Y171490D01*
X77874Y171500D01*
X77894Y171504D01*
X77983Y171557D01*
X78074Y171606D01*
X78088Y171620D01*
X78105Y171630D01*
X78172Y171709D01*
X78244Y171784D01*
X78252Y171802D01*
X78265Y171817D01*
X78304Y171913D01*
X78347Y172007D01*
X78349Y172027D01*
X78357Y172045D01*
X78375Y172212D01*
X78375Y187432D01*
X79268Y188325D01*
X98532Y188325D01*
X99425Y187432D01*
X99425Y168168D01*
X98532Y167275D01*
X82433Y167275D01*
X82342Y167261D01*
X82252Y167253D01*
X82222Y167241D01*
X82190Y167236D01*
X82109Y167193D01*
X82025Y167157D01*
X81993Y167131D01*
X81972Y167120D01*
X81950Y167097D01*
X81894Y167052D01*
X81719Y166877D01*
X33676Y166877D01*
X33656Y166874D01*
X33637Y166876D01*
X33535Y166854D01*
X33433Y166838D01*
X33416Y166828D01*
X33396Y166824D01*
X33307Y166771D01*
X33216Y166722D01*
X33202Y166708D01*
X33185Y166698D01*
X33118Y166619D01*
X33046Y166544D01*
X33038Y166526D01*
X33025Y166511D01*
X32986Y166415D01*
X32943Y166321D01*
X32941Y166301D01*
X32933Y166283D01*
X32924Y166199D01*
X31312Y162308D01*
X28352Y159348D01*
X24483Y157745D01*
X20297Y157745D01*
G37*
%LPD*%
%LPC*%
G36*
X155468Y243475D02*
X155468Y243475D01*
X154575Y244368D01*
X154575Y263632D01*
X155468Y264525D01*
X174732Y264525D01*
X175625Y263632D01*
X175625Y244368D01*
X174732Y243475D01*
X155468Y243475D01*
G37*
%LPD*%
%LPC*%
G36*
X244368Y40275D02*
X244368Y40275D01*
X243475Y41168D01*
X243475Y60432D01*
X244368Y61325D01*
X263632Y61325D01*
X264525Y60432D01*
X264525Y41168D01*
X263632Y40275D01*
X244368Y40275D01*
G37*
%LPD*%
%LPC*%
G36*
X20297Y106945D02*
X20297Y106945D01*
X16428Y108548D01*
X13468Y111508D01*
X11865Y115377D01*
X11865Y119563D01*
X13468Y123432D01*
X16428Y126392D01*
X20297Y127995D01*
X24483Y127995D01*
X28352Y126392D01*
X31312Y123432D01*
X32915Y119563D01*
X32915Y115377D01*
X31312Y111508D01*
X28352Y108548D01*
X24483Y106945D01*
X20297Y106945D01*
G37*
%LPD*%
%LPC*%
G36*
X162897Y30935D02*
X162897Y30935D01*
X159565Y32315D01*
X157015Y34865D01*
X155635Y38197D01*
X155635Y41803D01*
X157015Y45135D01*
X159565Y47685D01*
X162897Y49065D01*
X166503Y49065D01*
X169835Y47685D01*
X172385Y45135D01*
X173765Y41803D01*
X173765Y38197D01*
X172385Y34865D01*
X169835Y32315D01*
X166503Y30935D01*
X162897Y30935D01*
G37*
%LPD*%
%LPC*%
G36*
X115823Y255523D02*
X115823Y255523D01*
X115823Y265541D01*
X123634Y265541D01*
X124281Y265368D01*
X124860Y265033D01*
X125333Y264560D01*
X125668Y263981D01*
X125841Y263334D01*
X125841Y255523D01*
X115823Y255523D01*
G37*
%LPD*%
%LPC*%
G36*
X230123Y52323D02*
X230123Y52323D01*
X230123Y62341D01*
X237934Y62341D01*
X238581Y62168D01*
X239160Y61833D01*
X239633Y61360D01*
X239968Y60781D01*
X240141Y60134D01*
X240141Y52323D01*
X230123Y52323D01*
G37*
%LPD*%
%LPC*%
G36*
X102759Y255523D02*
X102759Y255523D01*
X102759Y263334D01*
X102932Y263981D01*
X103267Y264560D01*
X103740Y265033D01*
X104319Y265368D01*
X104966Y265541D01*
X112777Y265541D01*
X112777Y255523D01*
X102759Y255523D01*
G37*
%LPD*%
%LPC*%
G36*
X102759Y179323D02*
X102759Y179323D01*
X102759Y187134D01*
X102932Y187781D01*
X103267Y188360D01*
X103740Y188833D01*
X104319Y189168D01*
X104966Y189341D01*
X112777Y189341D01*
X112777Y179323D01*
X102759Y179323D01*
G37*
%LPD*%
%LPC*%
G36*
X217059Y52323D02*
X217059Y52323D01*
X217059Y60134D01*
X217232Y60781D01*
X217567Y61360D01*
X218040Y61833D01*
X218619Y62168D01*
X219266Y62341D01*
X227077Y62341D01*
X227077Y52323D01*
X217059Y52323D01*
G37*
%LPD*%
%LPC*%
G36*
X115823Y242459D02*
X115823Y242459D01*
X115823Y252477D01*
X125841Y252477D01*
X125841Y244665D01*
X125668Y244019D01*
X125333Y243440D01*
X124860Y242967D01*
X124281Y242632D01*
X123634Y242459D01*
X115823Y242459D01*
G37*
%LPD*%
%LPC*%
G36*
X115823Y166259D02*
X115823Y166259D01*
X115823Y176277D01*
X125841Y176277D01*
X125841Y168466D01*
X125668Y167819D01*
X125333Y167240D01*
X124860Y166767D01*
X124281Y166432D01*
X123634Y166259D01*
X115823Y166259D01*
G37*
%LPD*%
%LPC*%
G36*
X230123Y39259D02*
X230123Y39259D01*
X230123Y49277D01*
X240141Y49277D01*
X240141Y41466D01*
X239968Y40819D01*
X239633Y40240D01*
X239160Y39767D01*
X238581Y39432D01*
X237934Y39259D01*
X230123Y39259D01*
G37*
%LPD*%
%LPC*%
G36*
X104966Y242459D02*
X104966Y242459D01*
X104319Y242632D01*
X103740Y242967D01*
X103267Y243440D01*
X102932Y244019D01*
X102759Y244665D01*
X102759Y252477D01*
X112777Y252477D01*
X112777Y242459D01*
X104966Y242459D01*
G37*
%LPD*%
%LPC*%
G36*
X104966Y166259D02*
X104966Y166259D01*
X104319Y166432D01*
X103740Y166767D01*
X103267Y167240D01*
X102932Y167819D01*
X102759Y168466D01*
X102759Y176277D01*
X112777Y176277D01*
X112777Y166259D01*
X104966Y166259D01*
G37*
%LPD*%
%LPC*%
G36*
X219266Y39259D02*
X219266Y39259D01*
X218619Y39432D01*
X218040Y39767D01*
X217567Y40240D01*
X217232Y40819D01*
X217059Y41466D01*
X217059Y49277D01*
X227077Y49277D01*
X227077Y39259D01*
X219266Y39259D01*
G37*
%LPD*%
%LPC*%
G36*
X23913Y254883D02*
X23913Y254883D01*
X23913Y264803D01*
X25092Y264617D01*
X26820Y264055D01*
X28439Y263231D01*
X29908Y262163D01*
X31193Y260878D01*
X32261Y259409D01*
X33085Y257790D01*
X33647Y256062D01*
X33833Y254883D01*
X23913Y254883D01*
G37*
%LPD*%
%LPC*%
G36*
X23913Y144393D02*
X23913Y144393D01*
X23913Y154313D01*
X25092Y154127D01*
X26820Y153565D01*
X28439Y152741D01*
X29908Y151673D01*
X31193Y150388D01*
X32261Y148919D01*
X33085Y147300D01*
X33647Y145572D01*
X33833Y144393D01*
X23913Y144393D01*
G37*
%LPD*%
%LPC*%
G36*
X23913Y251837D02*
X23913Y251837D01*
X33833Y251837D01*
X33647Y250658D01*
X33085Y248930D01*
X32261Y247311D01*
X31193Y245842D01*
X29908Y244557D01*
X28439Y243489D01*
X26820Y242665D01*
X25092Y242103D01*
X23913Y241917D01*
X23913Y251837D01*
G37*
%LPD*%
%LPC*%
G36*
X23913Y141347D02*
X23913Y141347D01*
X33833Y141347D01*
X33647Y140168D01*
X33085Y138440D01*
X32261Y136821D01*
X31193Y135352D01*
X29908Y134067D01*
X28439Y132999D01*
X26820Y132175D01*
X25092Y131613D01*
X23913Y131427D01*
X23913Y141347D01*
G37*
%LPD*%
%LPC*%
G36*
X141223Y41523D02*
X141223Y41523D01*
X141223Y49965D01*
X142061Y49833D01*
X143570Y49342D01*
X144983Y48622D01*
X146267Y47689D01*
X147389Y46567D01*
X148322Y45283D01*
X149042Y43870D01*
X149533Y42361D01*
X149665Y41523D01*
X141223Y41523D01*
G37*
%LPD*%
%LPC*%
G36*
X129735Y41523D02*
X129735Y41523D01*
X129867Y42361D01*
X130358Y43870D01*
X131078Y45283D01*
X132011Y46567D01*
X133133Y47689D01*
X134417Y48622D01*
X135830Y49342D01*
X137339Y49833D01*
X138177Y49965D01*
X138177Y41523D01*
X129735Y41523D01*
G37*
%LPD*%
%LPC*%
G36*
X141223Y38477D02*
X141223Y38477D01*
X149665Y38477D01*
X149533Y37639D01*
X149042Y36130D01*
X148322Y34717D01*
X147389Y33433D01*
X146267Y32311D01*
X144983Y31378D01*
X143570Y30658D01*
X142061Y30167D01*
X141223Y30035D01*
X141223Y38477D01*
G37*
%LPD*%
%LPC*%
G36*
X137339Y30167D02*
X137339Y30167D01*
X135830Y30658D01*
X134417Y31378D01*
X133133Y32311D01*
X132011Y33433D01*
X131078Y34717D01*
X130358Y36130D01*
X129867Y37639D01*
X129735Y38477D01*
X138177Y38477D01*
X138177Y30035D01*
X137339Y30167D01*
G37*
%LPD*%
%LPC*%
G36*
X114299Y253999D02*
X114299Y253999D01*
X114299Y254001D01*
X114301Y254001D01*
X114301Y253999D01*
X114299Y253999D01*
G37*
%LPD*%
%LPC*%
G36*
X114299Y177799D02*
X114299Y177799D01*
X114299Y177801D01*
X114301Y177801D01*
X114301Y177799D01*
X114299Y177799D01*
G37*
%LPD*%
%LPC*%
G36*
X228599Y50799D02*
X228599Y50799D01*
X228599Y50801D01*
X228601Y50801D01*
X228601Y50799D01*
X228599Y50799D01*
G37*
%LPD*%
%LPC*%
G36*
X139699Y39999D02*
X139699Y39999D01*
X139699Y40001D01*
X139701Y40001D01*
X139701Y39999D01*
X139699Y39999D01*
G37*
%LPD*%
D10*
X22390Y168270D03*
X22390Y142870D03*
X22390Y117470D03*
X22390Y92070D03*
X22390Y278760D03*
X22390Y253360D03*
X22390Y227960D03*
X22390Y202560D03*
D11*
X254000Y50800D03*
X228600Y50800D03*
D12*
X139700Y40000D03*
X164700Y40000D03*
X114700Y40000D03*
D11*
X165100Y254000D03*
X139700Y254000D03*
X88900Y254000D03*
X114300Y254000D03*
X165100Y177800D03*
X139700Y177800D03*
X88900Y177800D03*
X114300Y177800D03*
X101600Y114300D03*
X76200Y114300D03*
X190500Y114300D03*
X165100Y114300D03*
D13*
X33528Y92964D02*
X22860Y92964D01*
X33528Y92964D02*
X80772Y140208D01*
X149352Y140208D01*
X176784Y167640D01*
X176784Y216408D01*
X140208Y252984D01*
X22860Y92964D02*
X22390Y92070D01*
X140208Y252984D02*
X139700Y254000D01*
X138684Y178308D02*
X135636Y178308D01*
X112776Y201168D01*
X22860Y201168D01*
X138684Y178308D02*
X139700Y177800D01*
X22860Y201168D02*
X22390Y202560D01*
X161544Y178308D02*
X164592Y178308D01*
X161544Y178308D02*
X112776Y227076D01*
X22860Y227076D01*
X164592Y178308D02*
X165100Y177800D01*
X22860Y227076D02*
X22390Y227960D01*
X22860Y169164D02*
X80772Y169164D01*
X88392Y176784D01*
X22860Y169164D02*
X22390Y168270D01*
X88392Y176784D02*
X88900Y177800D01*
X65532Y277368D02*
X22860Y277368D01*
X65532Y277368D02*
X88900Y254000D01*
X22860Y277368D02*
X22390Y278760D01*
X22860Y252984D02*
X68580Y252984D01*
X79248Y242316D01*
X103632Y242316D01*
X114300Y252984D01*
X22860Y252984D02*
X22390Y253360D01*
X114300Y252984D02*
X114300Y254000D01*
X140208Y41148D02*
X150876Y41148D01*
X160020Y50292D01*
X228600Y50292D01*
X140208Y41148D02*
X139700Y40000D01*
X228600Y50292D02*
X228600Y50800D01*
X80772Y143256D02*
X22860Y143256D01*
X80772Y143256D02*
X114300Y176784D01*
X22860Y143256D02*
X22390Y142870D01*
X114300Y176784D02*
X114300Y177800D01*
X114300Y76200D02*
X114300Y41148D01*
X114300Y76200D02*
X76200Y114300D01*
X114300Y41148D02*
X114700Y40000D01*
X152400Y114300D02*
X165100Y114300D01*
X152400Y114300D02*
X114300Y76200D01*
X101600Y114300D02*
X143256Y114300D01*
X155448Y126492D01*
X178308Y126492D01*
X190500Y114300D01*
M02*
