G04 EAGLE Gerber RS-274X export*
G75*
%MOMM*%
%FSLAX34Y34*%
%LPD*%
%INSilkscreen Top*%
%IPPOS*%
%AMOC8*
5,1,8,0,0,1.08239X$1,22.5*%
G01*
%ADD10C,0.127000*%
%ADD11C,0.101600*%


D10*
X12390Y178270D02*
X12390Y78270D01*
X142390Y78270D01*
X142390Y178270D01*
X12390Y178270D01*
X96390Y88270D02*
X129390Y88270D01*
X96390Y88270D02*
X96390Y118270D01*
X129390Y118270D01*
X129390Y88270D01*
X97357Y148270D02*
X97362Y148639D01*
X97375Y149008D01*
X97398Y149376D01*
X97429Y149743D01*
X97470Y150110D01*
X97520Y150476D01*
X97578Y150840D01*
X97646Y151203D01*
X97722Y151564D01*
X97808Y151923D01*
X97902Y152279D01*
X98004Y152634D01*
X98116Y152986D01*
X98236Y153334D01*
X98364Y153680D01*
X98501Y154023D01*
X98647Y154362D01*
X98800Y154697D01*
X98962Y155029D01*
X99132Y155357D01*
X99310Y155680D01*
X99496Y155999D01*
X99689Y156313D01*
X99891Y156622D01*
X100099Y156926D01*
X100315Y157225D01*
X100539Y157519D01*
X100769Y157807D01*
X101007Y158089D01*
X101251Y158366D01*
X101502Y158636D01*
X101760Y158900D01*
X102024Y159158D01*
X102294Y159409D01*
X102571Y159653D01*
X102853Y159891D01*
X103141Y160121D01*
X103435Y160345D01*
X103734Y160561D01*
X104038Y160769D01*
X104347Y160971D01*
X104661Y161164D01*
X104980Y161350D01*
X105303Y161528D01*
X105631Y161698D01*
X105963Y161860D01*
X106298Y162013D01*
X106637Y162159D01*
X106980Y162296D01*
X107326Y162424D01*
X107674Y162544D01*
X108026Y162656D01*
X108381Y162758D01*
X108737Y162852D01*
X109096Y162938D01*
X109457Y163014D01*
X109820Y163082D01*
X110184Y163140D01*
X110550Y163190D01*
X110917Y163231D01*
X111284Y163262D01*
X111652Y163285D01*
X112021Y163298D01*
X112390Y163303D01*
X112759Y163298D01*
X113128Y163285D01*
X113496Y163262D01*
X113863Y163231D01*
X114230Y163190D01*
X114596Y163140D01*
X114960Y163082D01*
X115323Y163014D01*
X115684Y162938D01*
X116043Y162852D01*
X116399Y162758D01*
X116754Y162656D01*
X117106Y162544D01*
X117454Y162424D01*
X117800Y162296D01*
X118143Y162159D01*
X118482Y162013D01*
X118817Y161860D01*
X119149Y161698D01*
X119477Y161528D01*
X119800Y161350D01*
X120119Y161164D01*
X120433Y160971D01*
X120742Y160769D01*
X121046Y160561D01*
X121345Y160345D01*
X121639Y160121D01*
X121927Y159891D01*
X122209Y159653D01*
X122486Y159409D01*
X122756Y159158D01*
X123020Y158900D01*
X123278Y158636D01*
X123529Y158366D01*
X123773Y158089D01*
X124011Y157807D01*
X124241Y157519D01*
X124465Y157225D01*
X124681Y156926D01*
X124889Y156622D01*
X125091Y156313D01*
X125284Y155999D01*
X125470Y155680D01*
X125648Y155357D01*
X125818Y155029D01*
X125980Y154697D01*
X126133Y154362D01*
X126279Y154023D01*
X126416Y153680D01*
X126544Y153334D01*
X126664Y152986D01*
X126776Y152634D01*
X126878Y152279D01*
X126972Y151923D01*
X127058Y151564D01*
X127134Y151203D01*
X127202Y150840D01*
X127260Y150476D01*
X127310Y150110D01*
X127351Y149743D01*
X127382Y149376D01*
X127405Y149008D01*
X127418Y148639D01*
X127423Y148270D01*
X127418Y147901D01*
X127405Y147532D01*
X127382Y147164D01*
X127351Y146797D01*
X127310Y146430D01*
X127260Y146064D01*
X127202Y145700D01*
X127134Y145337D01*
X127058Y144976D01*
X126972Y144617D01*
X126878Y144261D01*
X126776Y143906D01*
X126664Y143554D01*
X126544Y143206D01*
X126416Y142860D01*
X126279Y142517D01*
X126133Y142178D01*
X125980Y141843D01*
X125818Y141511D01*
X125648Y141183D01*
X125470Y140860D01*
X125284Y140541D01*
X125091Y140227D01*
X124889Y139918D01*
X124681Y139614D01*
X124465Y139315D01*
X124241Y139021D01*
X124011Y138733D01*
X123773Y138451D01*
X123529Y138174D01*
X123278Y137904D01*
X123020Y137640D01*
X122756Y137382D01*
X122486Y137131D01*
X122209Y136887D01*
X121927Y136649D01*
X121639Y136419D01*
X121345Y136195D01*
X121046Y135979D01*
X120742Y135771D01*
X120433Y135569D01*
X120119Y135376D01*
X119800Y135190D01*
X119477Y135012D01*
X119149Y134842D01*
X118817Y134680D01*
X118482Y134527D01*
X118143Y134381D01*
X117800Y134244D01*
X117454Y134116D01*
X117106Y133996D01*
X116754Y133884D01*
X116399Y133782D01*
X116043Y133688D01*
X115684Y133602D01*
X115323Y133526D01*
X114960Y133458D01*
X114596Y133400D01*
X114230Y133350D01*
X113863Y133309D01*
X113496Y133278D01*
X113128Y133255D01*
X112759Y133242D01*
X112390Y133237D01*
X112021Y133242D01*
X111652Y133255D01*
X111284Y133278D01*
X110917Y133309D01*
X110550Y133350D01*
X110184Y133400D01*
X109820Y133458D01*
X109457Y133526D01*
X109096Y133602D01*
X108737Y133688D01*
X108381Y133782D01*
X108026Y133884D01*
X107674Y133996D01*
X107326Y134116D01*
X106980Y134244D01*
X106637Y134381D01*
X106298Y134527D01*
X105963Y134680D01*
X105631Y134842D01*
X105303Y135012D01*
X104980Y135190D01*
X104661Y135376D01*
X104347Y135569D01*
X104038Y135771D01*
X103734Y135979D01*
X103435Y136195D01*
X103141Y136419D01*
X102853Y136649D01*
X102571Y136887D01*
X102294Y137131D01*
X102024Y137382D01*
X101760Y137640D01*
X101502Y137904D01*
X101251Y138174D01*
X101007Y138451D01*
X100769Y138733D01*
X100539Y139021D01*
X100315Y139315D01*
X100099Y139614D01*
X99891Y139918D01*
X99689Y140227D01*
X99496Y140541D01*
X99310Y140860D01*
X99132Y141183D01*
X98962Y141511D01*
X98800Y141843D01*
X98647Y142178D01*
X98501Y142517D01*
X98364Y142860D01*
X98236Y143206D01*
X98116Y143554D01*
X98004Y143906D01*
X97902Y144261D01*
X97808Y144617D01*
X97722Y144976D01*
X97646Y145337D01*
X97578Y145700D01*
X97520Y146064D01*
X97470Y146430D01*
X97429Y146797D01*
X97398Y147164D01*
X97375Y147532D01*
X97362Y147901D01*
X97357Y148270D01*
X101154Y111270D02*
X101156Y111364D01*
X101162Y111458D01*
X101172Y111552D01*
X101186Y111645D01*
X101204Y111738D01*
X101225Y111830D01*
X101251Y111920D01*
X101280Y112010D01*
X101313Y112098D01*
X101350Y112185D01*
X101390Y112270D01*
X101434Y112354D01*
X101482Y112435D01*
X101532Y112515D01*
X101587Y112592D01*
X101644Y112667D01*
X101704Y112739D01*
X101768Y112809D01*
X101834Y112876D01*
X101903Y112940D01*
X101975Y113001D01*
X102049Y113059D01*
X102126Y113114D01*
X102205Y113166D01*
X102286Y113214D01*
X102369Y113259D01*
X102453Y113300D01*
X102540Y113338D01*
X102628Y113372D01*
X102717Y113402D01*
X102807Y113429D01*
X102899Y113451D01*
X102991Y113470D01*
X103085Y113485D01*
X103178Y113496D01*
X103272Y113503D01*
X103366Y113506D01*
X103461Y113505D01*
X103555Y113500D01*
X103649Y113491D01*
X103742Y113478D01*
X103835Y113461D01*
X103927Y113441D01*
X104018Y113416D01*
X104108Y113388D01*
X104196Y113356D01*
X104284Y113320D01*
X104369Y113280D01*
X104453Y113237D01*
X104535Y113191D01*
X104615Y113141D01*
X104693Y113087D01*
X104768Y113031D01*
X104841Y112971D01*
X104912Y112908D01*
X104979Y112843D01*
X105044Y112774D01*
X105106Y112703D01*
X105165Y112630D01*
X105221Y112554D01*
X105273Y112475D01*
X105322Y112395D01*
X105368Y112312D01*
X105410Y112228D01*
X105449Y112142D01*
X105484Y112054D01*
X105515Y111965D01*
X105543Y111875D01*
X105566Y111784D01*
X105586Y111692D01*
X105602Y111599D01*
X105614Y111505D01*
X105622Y111411D01*
X105626Y111317D01*
X105626Y111223D01*
X105622Y111129D01*
X105614Y111035D01*
X105602Y110941D01*
X105586Y110848D01*
X105566Y110756D01*
X105543Y110665D01*
X105515Y110575D01*
X105484Y110486D01*
X105449Y110398D01*
X105410Y110312D01*
X105368Y110228D01*
X105322Y110145D01*
X105273Y110065D01*
X105221Y109986D01*
X105165Y109910D01*
X105106Y109837D01*
X105044Y109766D01*
X104979Y109697D01*
X104912Y109632D01*
X104841Y109569D01*
X104768Y109509D01*
X104693Y109453D01*
X104615Y109399D01*
X104535Y109349D01*
X104453Y109303D01*
X104369Y109260D01*
X104284Y109220D01*
X104196Y109184D01*
X104108Y109152D01*
X104018Y109124D01*
X103927Y109099D01*
X103835Y109079D01*
X103742Y109062D01*
X103649Y109049D01*
X103555Y109040D01*
X103461Y109035D01*
X103366Y109034D01*
X103272Y109037D01*
X103178Y109044D01*
X103085Y109055D01*
X102991Y109070D01*
X102899Y109089D01*
X102807Y109111D01*
X102717Y109138D01*
X102628Y109168D01*
X102540Y109202D01*
X102453Y109240D01*
X102369Y109281D01*
X102286Y109326D01*
X102205Y109374D01*
X102126Y109426D01*
X102049Y109481D01*
X101975Y109539D01*
X101903Y109600D01*
X101834Y109664D01*
X101768Y109731D01*
X101704Y109801D01*
X101644Y109873D01*
X101587Y109948D01*
X101532Y110025D01*
X101482Y110105D01*
X101434Y110186D01*
X101390Y110270D01*
X101350Y110355D01*
X101313Y110442D01*
X101280Y110530D01*
X101251Y110620D01*
X101225Y110710D01*
X101204Y110802D01*
X101186Y110895D01*
X101172Y110988D01*
X101162Y111082D01*
X101156Y111176D01*
X101154Y111270D01*
D11*
X36144Y155269D02*
X32898Y155269D01*
X36144Y155270D02*
X36257Y155268D01*
X36370Y155262D01*
X36483Y155252D01*
X36596Y155238D01*
X36708Y155221D01*
X36819Y155199D01*
X36929Y155174D01*
X37039Y155144D01*
X37147Y155111D01*
X37254Y155074D01*
X37360Y155034D01*
X37464Y154989D01*
X37567Y154941D01*
X37668Y154890D01*
X37767Y154835D01*
X37864Y154777D01*
X37959Y154715D01*
X38052Y154650D01*
X38142Y154582D01*
X38230Y154511D01*
X38316Y154436D01*
X38399Y154359D01*
X38479Y154279D01*
X38556Y154196D01*
X38631Y154110D01*
X38702Y154022D01*
X38770Y153932D01*
X38835Y153839D01*
X38897Y153744D01*
X38955Y153647D01*
X39010Y153548D01*
X39061Y153447D01*
X39109Y153344D01*
X39154Y153240D01*
X39194Y153134D01*
X39231Y153027D01*
X39264Y152919D01*
X39294Y152809D01*
X39319Y152699D01*
X39341Y152588D01*
X39358Y152476D01*
X39372Y152363D01*
X39382Y152250D01*
X39388Y152137D01*
X39390Y152024D01*
X39388Y151911D01*
X39382Y151798D01*
X39372Y151685D01*
X39358Y151572D01*
X39341Y151460D01*
X39319Y151349D01*
X39294Y151239D01*
X39264Y151129D01*
X39231Y151021D01*
X39194Y150914D01*
X39154Y150808D01*
X39109Y150704D01*
X39061Y150601D01*
X39010Y150500D01*
X38955Y150401D01*
X38897Y150304D01*
X38835Y150209D01*
X38770Y150116D01*
X38702Y150026D01*
X38631Y149938D01*
X38556Y149852D01*
X38479Y149769D01*
X38399Y149689D01*
X38316Y149612D01*
X38230Y149537D01*
X38142Y149466D01*
X38052Y149398D01*
X37959Y149333D01*
X37864Y149271D01*
X37767Y149213D01*
X37668Y149158D01*
X37567Y149107D01*
X37464Y149059D01*
X37360Y149014D01*
X37254Y148974D01*
X37147Y148937D01*
X37039Y148904D01*
X36929Y148874D01*
X36819Y148849D01*
X36708Y148827D01*
X36596Y148810D01*
X36483Y148796D01*
X36370Y148786D01*
X36257Y148780D01*
X36144Y148778D01*
X32898Y148778D01*
X32898Y160462D01*
X36144Y160462D01*
X36245Y160460D01*
X36345Y160454D01*
X36445Y160444D01*
X36545Y160431D01*
X36644Y160413D01*
X36743Y160392D01*
X36840Y160367D01*
X36937Y160338D01*
X37032Y160305D01*
X37126Y160269D01*
X37218Y160229D01*
X37309Y160186D01*
X37398Y160139D01*
X37485Y160089D01*
X37571Y160035D01*
X37654Y159978D01*
X37734Y159918D01*
X37813Y159855D01*
X37889Y159788D01*
X37962Y159719D01*
X38032Y159647D01*
X38100Y159573D01*
X38165Y159496D01*
X38226Y159416D01*
X38285Y159334D01*
X38340Y159250D01*
X38392Y159164D01*
X38441Y159076D01*
X38486Y158986D01*
X38528Y158894D01*
X38566Y158801D01*
X38600Y158706D01*
X38631Y158611D01*
X38658Y158514D01*
X38681Y158416D01*
X38701Y158317D01*
X38716Y158217D01*
X38728Y158117D01*
X38736Y158017D01*
X38740Y157916D01*
X38740Y157816D01*
X38736Y157715D01*
X38728Y157615D01*
X38716Y157515D01*
X38701Y157415D01*
X38681Y157316D01*
X38658Y157218D01*
X38631Y157121D01*
X38600Y157026D01*
X38566Y156931D01*
X38528Y156838D01*
X38486Y156746D01*
X38441Y156656D01*
X38392Y156568D01*
X38340Y156482D01*
X38285Y156398D01*
X38226Y156316D01*
X38165Y156236D01*
X38100Y156159D01*
X38032Y156085D01*
X37962Y156013D01*
X37889Y155944D01*
X37813Y155877D01*
X37734Y155814D01*
X37654Y155754D01*
X37571Y155697D01*
X37485Y155643D01*
X37398Y155593D01*
X37309Y155546D01*
X37218Y155503D01*
X37126Y155463D01*
X37032Y155427D01*
X36937Y155394D01*
X36840Y155365D01*
X36743Y155340D01*
X36644Y155319D01*
X36545Y155301D01*
X36445Y155288D01*
X36345Y155278D01*
X36245Y155272D01*
X36144Y155270D01*
X44272Y160462D02*
X44272Y148778D01*
X48166Y153971D02*
X44272Y160462D01*
X48166Y153971D02*
X52061Y160462D01*
X52061Y148778D01*
X58044Y148778D02*
X58044Y160462D01*
X61290Y160462D01*
X61403Y160460D01*
X61516Y160454D01*
X61629Y160444D01*
X61742Y160430D01*
X61854Y160413D01*
X61965Y160391D01*
X62075Y160366D01*
X62185Y160336D01*
X62293Y160303D01*
X62400Y160266D01*
X62506Y160226D01*
X62610Y160181D01*
X62713Y160133D01*
X62814Y160082D01*
X62913Y160027D01*
X63010Y159969D01*
X63105Y159907D01*
X63198Y159842D01*
X63288Y159774D01*
X63376Y159703D01*
X63462Y159628D01*
X63545Y159551D01*
X63625Y159471D01*
X63702Y159388D01*
X63777Y159302D01*
X63848Y159214D01*
X63916Y159124D01*
X63981Y159031D01*
X64043Y158936D01*
X64101Y158839D01*
X64156Y158740D01*
X64207Y158639D01*
X64255Y158536D01*
X64300Y158432D01*
X64340Y158326D01*
X64377Y158219D01*
X64410Y158111D01*
X64440Y158001D01*
X64465Y157891D01*
X64487Y157780D01*
X64504Y157668D01*
X64518Y157555D01*
X64528Y157442D01*
X64534Y157329D01*
X64536Y157216D01*
X64534Y157103D01*
X64528Y156990D01*
X64518Y156877D01*
X64504Y156764D01*
X64487Y156652D01*
X64465Y156541D01*
X64440Y156431D01*
X64410Y156321D01*
X64377Y156213D01*
X64340Y156106D01*
X64300Y156000D01*
X64255Y155896D01*
X64207Y155793D01*
X64156Y155692D01*
X64101Y155593D01*
X64043Y155496D01*
X63981Y155401D01*
X63916Y155308D01*
X63848Y155218D01*
X63777Y155130D01*
X63702Y155044D01*
X63625Y154961D01*
X63545Y154881D01*
X63462Y154804D01*
X63376Y154729D01*
X63288Y154658D01*
X63198Y154590D01*
X63105Y154525D01*
X63010Y154463D01*
X62913Y154405D01*
X62814Y154350D01*
X62713Y154299D01*
X62610Y154251D01*
X62506Y154206D01*
X62400Y154166D01*
X62293Y154129D01*
X62185Y154096D01*
X62075Y154066D01*
X61965Y154041D01*
X61854Y154019D01*
X61742Y154002D01*
X61629Y153988D01*
X61516Y153978D01*
X61403Y153972D01*
X61290Y153970D01*
X61290Y153971D02*
X58044Y153971D01*
X68924Y157866D02*
X72169Y160462D01*
X72169Y148778D01*
X68924Y148778D02*
X75415Y148778D01*
D10*
X12390Y188760D02*
X12390Y288760D01*
X12390Y188760D02*
X142390Y188760D01*
X142390Y288760D01*
X12390Y288760D01*
X96390Y198760D02*
X129390Y198760D01*
X96390Y198760D02*
X96390Y228760D01*
X129390Y228760D01*
X129390Y198760D01*
X97357Y258760D02*
X97362Y259129D01*
X97375Y259498D01*
X97398Y259866D01*
X97429Y260233D01*
X97470Y260600D01*
X97520Y260966D01*
X97578Y261330D01*
X97646Y261693D01*
X97722Y262054D01*
X97808Y262413D01*
X97902Y262769D01*
X98004Y263124D01*
X98116Y263476D01*
X98236Y263824D01*
X98364Y264170D01*
X98501Y264513D01*
X98647Y264852D01*
X98800Y265187D01*
X98962Y265519D01*
X99132Y265847D01*
X99310Y266170D01*
X99496Y266489D01*
X99689Y266803D01*
X99891Y267112D01*
X100099Y267416D01*
X100315Y267715D01*
X100539Y268009D01*
X100769Y268297D01*
X101007Y268579D01*
X101251Y268856D01*
X101502Y269126D01*
X101760Y269390D01*
X102024Y269648D01*
X102294Y269899D01*
X102571Y270143D01*
X102853Y270381D01*
X103141Y270611D01*
X103435Y270835D01*
X103734Y271051D01*
X104038Y271259D01*
X104347Y271461D01*
X104661Y271654D01*
X104980Y271840D01*
X105303Y272018D01*
X105631Y272188D01*
X105963Y272350D01*
X106298Y272503D01*
X106637Y272649D01*
X106980Y272786D01*
X107326Y272914D01*
X107674Y273034D01*
X108026Y273146D01*
X108381Y273248D01*
X108737Y273342D01*
X109096Y273428D01*
X109457Y273504D01*
X109820Y273572D01*
X110184Y273630D01*
X110550Y273680D01*
X110917Y273721D01*
X111284Y273752D01*
X111652Y273775D01*
X112021Y273788D01*
X112390Y273793D01*
X112759Y273788D01*
X113128Y273775D01*
X113496Y273752D01*
X113863Y273721D01*
X114230Y273680D01*
X114596Y273630D01*
X114960Y273572D01*
X115323Y273504D01*
X115684Y273428D01*
X116043Y273342D01*
X116399Y273248D01*
X116754Y273146D01*
X117106Y273034D01*
X117454Y272914D01*
X117800Y272786D01*
X118143Y272649D01*
X118482Y272503D01*
X118817Y272350D01*
X119149Y272188D01*
X119477Y272018D01*
X119800Y271840D01*
X120119Y271654D01*
X120433Y271461D01*
X120742Y271259D01*
X121046Y271051D01*
X121345Y270835D01*
X121639Y270611D01*
X121927Y270381D01*
X122209Y270143D01*
X122486Y269899D01*
X122756Y269648D01*
X123020Y269390D01*
X123278Y269126D01*
X123529Y268856D01*
X123773Y268579D01*
X124011Y268297D01*
X124241Y268009D01*
X124465Y267715D01*
X124681Y267416D01*
X124889Y267112D01*
X125091Y266803D01*
X125284Y266489D01*
X125470Y266170D01*
X125648Y265847D01*
X125818Y265519D01*
X125980Y265187D01*
X126133Y264852D01*
X126279Y264513D01*
X126416Y264170D01*
X126544Y263824D01*
X126664Y263476D01*
X126776Y263124D01*
X126878Y262769D01*
X126972Y262413D01*
X127058Y262054D01*
X127134Y261693D01*
X127202Y261330D01*
X127260Y260966D01*
X127310Y260600D01*
X127351Y260233D01*
X127382Y259866D01*
X127405Y259498D01*
X127418Y259129D01*
X127423Y258760D01*
X127418Y258391D01*
X127405Y258022D01*
X127382Y257654D01*
X127351Y257287D01*
X127310Y256920D01*
X127260Y256554D01*
X127202Y256190D01*
X127134Y255827D01*
X127058Y255466D01*
X126972Y255107D01*
X126878Y254751D01*
X126776Y254396D01*
X126664Y254044D01*
X126544Y253696D01*
X126416Y253350D01*
X126279Y253007D01*
X126133Y252668D01*
X125980Y252333D01*
X125818Y252001D01*
X125648Y251673D01*
X125470Y251350D01*
X125284Y251031D01*
X125091Y250717D01*
X124889Y250408D01*
X124681Y250104D01*
X124465Y249805D01*
X124241Y249511D01*
X124011Y249223D01*
X123773Y248941D01*
X123529Y248664D01*
X123278Y248394D01*
X123020Y248130D01*
X122756Y247872D01*
X122486Y247621D01*
X122209Y247377D01*
X121927Y247139D01*
X121639Y246909D01*
X121345Y246685D01*
X121046Y246469D01*
X120742Y246261D01*
X120433Y246059D01*
X120119Y245866D01*
X119800Y245680D01*
X119477Y245502D01*
X119149Y245332D01*
X118817Y245170D01*
X118482Y245017D01*
X118143Y244871D01*
X117800Y244734D01*
X117454Y244606D01*
X117106Y244486D01*
X116754Y244374D01*
X116399Y244272D01*
X116043Y244178D01*
X115684Y244092D01*
X115323Y244016D01*
X114960Y243948D01*
X114596Y243890D01*
X114230Y243840D01*
X113863Y243799D01*
X113496Y243768D01*
X113128Y243745D01*
X112759Y243732D01*
X112390Y243727D01*
X112021Y243732D01*
X111652Y243745D01*
X111284Y243768D01*
X110917Y243799D01*
X110550Y243840D01*
X110184Y243890D01*
X109820Y243948D01*
X109457Y244016D01*
X109096Y244092D01*
X108737Y244178D01*
X108381Y244272D01*
X108026Y244374D01*
X107674Y244486D01*
X107326Y244606D01*
X106980Y244734D01*
X106637Y244871D01*
X106298Y245017D01*
X105963Y245170D01*
X105631Y245332D01*
X105303Y245502D01*
X104980Y245680D01*
X104661Y245866D01*
X104347Y246059D01*
X104038Y246261D01*
X103734Y246469D01*
X103435Y246685D01*
X103141Y246909D01*
X102853Y247139D01*
X102571Y247377D01*
X102294Y247621D01*
X102024Y247872D01*
X101760Y248130D01*
X101502Y248394D01*
X101251Y248664D01*
X101007Y248941D01*
X100769Y249223D01*
X100539Y249511D01*
X100315Y249805D01*
X100099Y250104D01*
X99891Y250408D01*
X99689Y250717D01*
X99496Y251031D01*
X99310Y251350D01*
X99132Y251673D01*
X98962Y252001D01*
X98800Y252333D01*
X98647Y252668D01*
X98501Y253007D01*
X98364Y253350D01*
X98236Y253696D01*
X98116Y254044D01*
X98004Y254396D01*
X97902Y254751D01*
X97808Y255107D01*
X97722Y255466D01*
X97646Y255827D01*
X97578Y256190D01*
X97520Y256554D01*
X97470Y256920D01*
X97429Y257287D01*
X97398Y257654D01*
X97375Y258022D01*
X97362Y258391D01*
X97357Y258760D01*
X101154Y221760D02*
X101156Y221854D01*
X101162Y221948D01*
X101172Y222042D01*
X101186Y222135D01*
X101204Y222228D01*
X101225Y222320D01*
X101251Y222410D01*
X101280Y222500D01*
X101313Y222588D01*
X101350Y222675D01*
X101390Y222760D01*
X101434Y222844D01*
X101482Y222925D01*
X101532Y223005D01*
X101587Y223082D01*
X101644Y223157D01*
X101704Y223229D01*
X101768Y223299D01*
X101834Y223366D01*
X101903Y223430D01*
X101975Y223491D01*
X102049Y223549D01*
X102126Y223604D01*
X102205Y223656D01*
X102286Y223704D01*
X102369Y223749D01*
X102453Y223790D01*
X102540Y223828D01*
X102628Y223862D01*
X102717Y223892D01*
X102807Y223919D01*
X102899Y223941D01*
X102991Y223960D01*
X103085Y223975D01*
X103178Y223986D01*
X103272Y223993D01*
X103366Y223996D01*
X103461Y223995D01*
X103555Y223990D01*
X103649Y223981D01*
X103742Y223968D01*
X103835Y223951D01*
X103927Y223931D01*
X104018Y223906D01*
X104108Y223878D01*
X104196Y223846D01*
X104284Y223810D01*
X104369Y223770D01*
X104453Y223727D01*
X104535Y223681D01*
X104615Y223631D01*
X104693Y223577D01*
X104768Y223521D01*
X104841Y223461D01*
X104912Y223398D01*
X104979Y223333D01*
X105044Y223264D01*
X105106Y223193D01*
X105165Y223120D01*
X105221Y223044D01*
X105273Y222965D01*
X105322Y222885D01*
X105368Y222802D01*
X105410Y222718D01*
X105449Y222632D01*
X105484Y222544D01*
X105515Y222455D01*
X105543Y222365D01*
X105566Y222274D01*
X105586Y222182D01*
X105602Y222089D01*
X105614Y221995D01*
X105622Y221901D01*
X105626Y221807D01*
X105626Y221713D01*
X105622Y221619D01*
X105614Y221525D01*
X105602Y221431D01*
X105586Y221338D01*
X105566Y221246D01*
X105543Y221155D01*
X105515Y221065D01*
X105484Y220976D01*
X105449Y220888D01*
X105410Y220802D01*
X105368Y220718D01*
X105322Y220635D01*
X105273Y220555D01*
X105221Y220476D01*
X105165Y220400D01*
X105106Y220327D01*
X105044Y220256D01*
X104979Y220187D01*
X104912Y220122D01*
X104841Y220059D01*
X104768Y219999D01*
X104693Y219943D01*
X104615Y219889D01*
X104535Y219839D01*
X104453Y219793D01*
X104369Y219750D01*
X104284Y219710D01*
X104196Y219674D01*
X104108Y219642D01*
X104018Y219614D01*
X103927Y219589D01*
X103835Y219569D01*
X103742Y219552D01*
X103649Y219539D01*
X103555Y219530D01*
X103461Y219525D01*
X103366Y219524D01*
X103272Y219527D01*
X103178Y219534D01*
X103085Y219545D01*
X102991Y219560D01*
X102899Y219579D01*
X102807Y219601D01*
X102717Y219628D01*
X102628Y219658D01*
X102540Y219692D01*
X102453Y219730D01*
X102369Y219771D01*
X102286Y219816D01*
X102205Y219864D01*
X102126Y219916D01*
X102049Y219971D01*
X101975Y220029D01*
X101903Y220090D01*
X101834Y220154D01*
X101768Y220221D01*
X101704Y220291D01*
X101644Y220363D01*
X101587Y220438D01*
X101532Y220515D01*
X101482Y220595D01*
X101434Y220676D01*
X101390Y220760D01*
X101350Y220845D01*
X101313Y220932D01*
X101280Y221020D01*
X101251Y221110D01*
X101225Y221200D01*
X101204Y221292D01*
X101186Y221385D01*
X101172Y221478D01*
X101162Y221572D01*
X101156Y221666D01*
X101154Y221760D01*
D11*
X36144Y265759D02*
X32898Y265759D01*
X36144Y265760D02*
X36257Y265758D01*
X36370Y265752D01*
X36483Y265742D01*
X36596Y265728D01*
X36708Y265711D01*
X36819Y265689D01*
X36929Y265664D01*
X37039Y265634D01*
X37147Y265601D01*
X37254Y265564D01*
X37360Y265524D01*
X37464Y265479D01*
X37567Y265431D01*
X37668Y265380D01*
X37767Y265325D01*
X37864Y265267D01*
X37959Y265205D01*
X38052Y265140D01*
X38142Y265072D01*
X38230Y265001D01*
X38316Y264926D01*
X38399Y264849D01*
X38479Y264769D01*
X38556Y264686D01*
X38631Y264600D01*
X38702Y264512D01*
X38770Y264422D01*
X38835Y264329D01*
X38897Y264234D01*
X38955Y264137D01*
X39010Y264038D01*
X39061Y263937D01*
X39109Y263834D01*
X39154Y263730D01*
X39194Y263624D01*
X39231Y263517D01*
X39264Y263409D01*
X39294Y263299D01*
X39319Y263189D01*
X39341Y263078D01*
X39358Y262966D01*
X39372Y262853D01*
X39382Y262740D01*
X39388Y262627D01*
X39390Y262514D01*
X39388Y262401D01*
X39382Y262288D01*
X39372Y262175D01*
X39358Y262062D01*
X39341Y261950D01*
X39319Y261839D01*
X39294Y261729D01*
X39264Y261619D01*
X39231Y261511D01*
X39194Y261404D01*
X39154Y261298D01*
X39109Y261194D01*
X39061Y261091D01*
X39010Y260990D01*
X38955Y260891D01*
X38897Y260794D01*
X38835Y260699D01*
X38770Y260606D01*
X38702Y260516D01*
X38631Y260428D01*
X38556Y260342D01*
X38479Y260259D01*
X38399Y260179D01*
X38316Y260102D01*
X38230Y260027D01*
X38142Y259956D01*
X38052Y259888D01*
X37959Y259823D01*
X37864Y259761D01*
X37767Y259703D01*
X37668Y259648D01*
X37567Y259597D01*
X37464Y259549D01*
X37360Y259504D01*
X37254Y259464D01*
X37147Y259427D01*
X37039Y259394D01*
X36929Y259364D01*
X36819Y259339D01*
X36708Y259317D01*
X36596Y259300D01*
X36483Y259286D01*
X36370Y259276D01*
X36257Y259270D01*
X36144Y259268D01*
X32898Y259268D01*
X32898Y270952D01*
X36144Y270952D01*
X36245Y270950D01*
X36345Y270944D01*
X36445Y270934D01*
X36545Y270921D01*
X36644Y270903D01*
X36743Y270882D01*
X36840Y270857D01*
X36937Y270828D01*
X37032Y270795D01*
X37126Y270759D01*
X37218Y270719D01*
X37309Y270676D01*
X37398Y270629D01*
X37485Y270579D01*
X37571Y270525D01*
X37654Y270468D01*
X37734Y270408D01*
X37813Y270345D01*
X37889Y270278D01*
X37962Y270209D01*
X38032Y270137D01*
X38100Y270063D01*
X38165Y269986D01*
X38226Y269906D01*
X38285Y269824D01*
X38340Y269740D01*
X38392Y269654D01*
X38441Y269566D01*
X38486Y269476D01*
X38528Y269384D01*
X38566Y269291D01*
X38600Y269196D01*
X38631Y269101D01*
X38658Y269004D01*
X38681Y268906D01*
X38701Y268807D01*
X38716Y268707D01*
X38728Y268607D01*
X38736Y268507D01*
X38740Y268406D01*
X38740Y268306D01*
X38736Y268205D01*
X38728Y268105D01*
X38716Y268005D01*
X38701Y267905D01*
X38681Y267806D01*
X38658Y267708D01*
X38631Y267611D01*
X38600Y267516D01*
X38566Y267421D01*
X38528Y267328D01*
X38486Y267236D01*
X38441Y267146D01*
X38392Y267058D01*
X38340Y266972D01*
X38285Y266888D01*
X38226Y266806D01*
X38165Y266726D01*
X38100Y266649D01*
X38032Y266575D01*
X37962Y266503D01*
X37889Y266434D01*
X37813Y266367D01*
X37734Y266304D01*
X37654Y266244D01*
X37571Y266187D01*
X37485Y266133D01*
X37398Y266083D01*
X37309Y266036D01*
X37218Y265993D01*
X37126Y265953D01*
X37032Y265917D01*
X36937Y265884D01*
X36840Y265855D01*
X36743Y265830D01*
X36644Y265809D01*
X36545Y265791D01*
X36445Y265778D01*
X36345Y265768D01*
X36245Y265762D01*
X36144Y265760D01*
X44272Y270952D02*
X44272Y259268D01*
X48166Y264461D02*
X44272Y270952D01*
X48166Y264461D02*
X52061Y270952D01*
X52061Y259268D01*
X58044Y259268D02*
X58044Y270952D01*
X61290Y270952D01*
X61403Y270950D01*
X61516Y270944D01*
X61629Y270934D01*
X61742Y270920D01*
X61854Y270903D01*
X61965Y270881D01*
X62075Y270856D01*
X62185Y270826D01*
X62293Y270793D01*
X62400Y270756D01*
X62506Y270716D01*
X62610Y270671D01*
X62713Y270623D01*
X62814Y270572D01*
X62913Y270517D01*
X63010Y270459D01*
X63105Y270397D01*
X63198Y270332D01*
X63288Y270264D01*
X63376Y270193D01*
X63462Y270118D01*
X63545Y270041D01*
X63625Y269961D01*
X63702Y269878D01*
X63777Y269792D01*
X63848Y269704D01*
X63916Y269614D01*
X63981Y269521D01*
X64043Y269426D01*
X64101Y269329D01*
X64156Y269230D01*
X64207Y269129D01*
X64255Y269026D01*
X64300Y268922D01*
X64340Y268816D01*
X64377Y268709D01*
X64410Y268601D01*
X64440Y268491D01*
X64465Y268381D01*
X64487Y268270D01*
X64504Y268158D01*
X64518Y268045D01*
X64528Y267932D01*
X64534Y267819D01*
X64536Y267706D01*
X64534Y267593D01*
X64528Y267480D01*
X64518Y267367D01*
X64504Y267254D01*
X64487Y267142D01*
X64465Y267031D01*
X64440Y266921D01*
X64410Y266811D01*
X64377Y266703D01*
X64340Y266596D01*
X64300Y266490D01*
X64255Y266386D01*
X64207Y266283D01*
X64156Y266182D01*
X64101Y266083D01*
X64043Y265986D01*
X63981Y265891D01*
X63916Y265798D01*
X63848Y265708D01*
X63777Y265620D01*
X63702Y265534D01*
X63625Y265451D01*
X63545Y265371D01*
X63462Y265294D01*
X63376Y265219D01*
X63288Y265148D01*
X63198Y265080D01*
X63105Y265015D01*
X63010Y264953D01*
X62913Y264895D01*
X62814Y264840D01*
X62713Y264789D01*
X62610Y264741D01*
X62506Y264696D01*
X62400Y264656D01*
X62293Y264619D01*
X62185Y264586D01*
X62075Y264556D01*
X61965Y264531D01*
X61854Y264509D01*
X61742Y264492D01*
X61629Y264478D01*
X61516Y264468D01*
X61403Y264462D01*
X61290Y264460D01*
X61290Y264461D02*
X58044Y264461D01*
X72494Y270952D02*
X72601Y270950D01*
X72707Y270944D01*
X72813Y270934D01*
X72919Y270921D01*
X73025Y270903D01*
X73129Y270882D01*
X73233Y270857D01*
X73336Y270828D01*
X73437Y270796D01*
X73537Y270759D01*
X73636Y270719D01*
X73734Y270676D01*
X73830Y270629D01*
X73924Y270578D01*
X74016Y270524D01*
X74106Y270467D01*
X74194Y270407D01*
X74279Y270343D01*
X74362Y270276D01*
X74443Y270206D01*
X74521Y270134D01*
X74597Y270058D01*
X74669Y269980D01*
X74739Y269899D01*
X74806Y269816D01*
X74870Y269731D01*
X74930Y269643D01*
X74987Y269553D01*
X75041Y269461D01*
X75092Y269367D01*
X75139Y269271D01*
X75182Y269173D01*
X75222Y269074D01*
X75259Y268974D01*
X75291Y268873D01*
X75320Y268770D01*
X75345Y268666D01*
X75366Y268562D01*
X75384Y268456D01*
X75397Y268350D01*
X75407Y268244D01*
X75413Y268138D01*
X75415Y268031D01*
X72494Y270952D02*
X72373Y270950D01*
X72252Y270944D01*
X72132Y270934D01*
X72011Y270921D01*
X71892Y270903D01*
X71772Y270882D01*
X71654Y270857D01*
X71537Y270828D01*
X71420Y270795D01*
X71305Y270759D01*
X71191Y270718D01*
X71078Y270675D01*
X70966Y270627D01*
X70857Y270576D01*
X70749Y270521D01*
X70642Y270463D01*
X70538Y270402D01*
X70436Y270337D01*
X70336Y270269D01*
X70238Y270198D01*
X70142Y270124D01*
X70049Y270047D01*
X69959Y269966D01*
X69871Y269883D01*
X69786Y269797D01*
X69703Y269708D01*
X69624Y269617D01*
X69547Y269523D01*
X69474Y269427D01*
X69404Y269329D01*
X69337Y269228D01*
X69273Y269125D01*
X69213Y269020D01*
X69156Y268913D01*
X69102Y268805D01*
X69052Y268695D01*
X69006Y268583D01*
X68963Y268470D01*
X68924Y268355D01*
X74441Y265759D02*
X74520Y265836D01*
X74596Y265917D01*
X74669Y266000D01*
X74739Y266085D01*
X74806Y266173D01*
X74870Y266263D01*
X74930Y266355D01*
X74987Y266450D01*
X75041Y266546D01*
X75092Y266644D01*
X75139Y266744D01*
X75183Y266846D01*
X75223Y266949D01*
X75259Y267053D01*
X75291Y267159D01*
X75320Y267265D01*
X75345Y267373D01*
X75367Y267481D01*
X75384Y267591D01*
X75398Y267700D01*
X75407Y267810D01*
X75413Y267921D01*
X75415Y268031D01*
X74441Y265759D02*
X68924Y259268D01*
X75415Y259268D01*
D10*
X266700Y27300D02*
X278500Y27300D01*
X204100Y27300D02*
X204100Y84800D01*
X278500Y84800D01*
X278500Y27300D01*
X266700Y27300D02*
X266700Y33020D01*
X260350Y33020D01*
X260350Y27300D01*
X222250Y27300D02*
X222250Y33020D01*
X215900Y33020D01*
X215900Y27300D01*
X204100Y27300D01*
X222250Y27300D02*
X260350Y27300D01*
D11*
X244414Y13208D02*
X241817Y13208D01*
X241718Y13210D01*
X241618Y13216D01*
X241519Y13225D01*
X241421Y13238D01*
X241323Y13255D01*
X241225Y13276D01*
X241129Y13301D01*
X241034Y13329D01*
X240940Y13361D01*
X240847Y13396D01*
X240755Y13435D01*
X240665Y13478D01*
X240577Y13523D01*
X240490Y13573D01*
X240406Y13625D01*
X240323Y13681D01*
X240243Y13739D01*
X240165Y13801D01*
X240090Y13866D01*
X240017Y13934D01*
X239947Y14004D01*
X239879Y14077D01*
X239814Y14152D01*
X239752Y14230D01*
X239694Y14310D01*
X239638Y14393D01*
X239586Y14477D01*
X239536Y14564D01*
X239491Y14652D01*
X239448Y14742D01*
X239409Y14834D01*
X239374Y14927D01*
X239342Y15021D01*
X239314Y15116D01*
X239289Y15212D01*
X239268Y15310D01*
X239251Y15408D01*
X239238Y15506D01*
X239229Y15605D01*
X239223Y15705D01*
X239221Y15804D01*
X239221Y22296D01*
X239223Y22395D01*
X239229Y22495D01*
X239238Y22594D01*
X239251Y22692D01*
X239268Y22790D01*
X239289Y22888D01*
X239314Y22984D01*
X239342Y23079D01*
X239374Y23173D01*
X239409Y23266D01*
X239448Y23358D01*
X239491Y23448D01*
X239536Y23536D01*
X239586Y23623D01*
X239638Y23707D01*
X239694Y23790D01*
X239752Y23870D01*
X239814Y23948D01*
X239879Y24023D01*
X239947Y24096D01*
X240017Y24166D01*
X240090Y24234D01*
X240165Y24299D01*
X240243Y24361D01*
X240323Y24419D01*
X240406Y24475D01*
X240490Y24527D01*
X240577Y24577D01*
X240665Y24622D01*
X240755Y24665D01*
X240847Y24704D01*
X240939Y24739D01*
X241034Y24771D01*
X241129Y24799D01*
X241225Y24824D01*
X241323Y24845D01*
X241421Y24862D01*
X241519Y24875D01*
X241618Y24884D01*
X241718Y24890D01*
X241817Y24892D01*
X244414Y24892D01*
X248779Y21646D02*
X248779Y16454D01*
X248779Y21646D02*
X248781Y21759D01*
X248787Y21872D01*
X248797Y21985D01*
X248811Y22098D01*
X248828Y22210D01*
X248850Y22321D01*
X248875Y22431D01*
X248905Y22541D01*
X248938Y22649D01*
X248975Y22756D01*
X249015Y22862D01*
X249060Y22966D01*
X249108Y23069D01*
X249159Y23170D01*
X249214Y23269D01*
X249272Y23366D01*
X249334Y23461D01*
X249399Y23554D01*
X249467Y23644D01*
X249538Y23732D01*
X249613Y23818D01*
X249690Y23901D01*
X249770Y23981D01*
X249853Y24058D01*
X249939Y24133D01*
X250027Y24204D01*
X250117Y24272D01*
X250210Y24337D01*
X250305Y24399D01*
X250402Y24457D01*
X250501Y24512D01*
X250602Y24563D01*
X250705Y24611D01*
X250809Y24656D01*
X250915Y24696D01*
X251022Y24733D01*
X251130Y24766D01*
X251240Y24796D01*
X251350Y24821D01*
X251461Y24843D01*
X251573Y24860D01*
X251686Y24874D01*
X251799Y24884D01*
X251912Y24890D01*
X252025Y24892D01*
X252138Y24890D01*
X252251Y24884D01*
X252364Y24874D01*
X252477Y24860D01*
X252589Y24843D01*
X252700Y24821D01*
X252810Y24796D01*
X252920Y24766D01*
X253028Y24733D01*
X253135Y24696D01*
X253241Y24656D01*
X253345Y24611D01*
X253448Y24563D01*
X253549Y24512D01*
X253648Y24457D01*
X253745Y24399D01*
X253840Y24337D01*
X253933Y24272D01*
X254023Y24204D01*
X254111Y24133D01*
X254197Y24058D01*
X254280Y23981D01*
X254360Y23901D01*
X254437Y23818D01*
X254512Y23732D01*
X254583Y23644D01*
X254651Y23554D01*
X254716Y23461D01*
X254778Y23366D01*
X254836Y23269D01*
X254891Y23170D01*
X254942Y23069D01*
X254990Y22966D01*
X255035Y22862D01*
X255075Y22756D01*
X255112Y22649D01*
X255145Y22541D01*
X255175Y22431D01*
X255200Y22321D01*
X255222Y22210D01*
X255239Y22098D01*
X255253Y21985D01*
X255263Y21872D01*
X255269Y21759D01*
X255271Y21646D01*
X255270Y21646D02*
X255270Y16454D01*
X255271Y16454D02*
X255269Y16341D01*
X255263Y16228D01*
X255253Y16115D01*
X255239Y16002D01*
X255222Y15890D01*
X255200Y15779D01*
X255175Y15669D01*
X255145Y15559D01*
X255112Y15451D01*
X255075Y15344D01*
X255035Y15238D01*
X254990Y15134D01*
X254942Y15031D01*
X254891Y14930D01*
X254836Y14831D01*
X254778Y14734D01*
X254716Y14639D01*
X254651Y14546D01*
X254583Y14456D01*
X254512Y14368D01*
X254437Y14282D01*
X254360Y14199D01*
X254280Y14119D01*
X254197Y14042D01*
X254111Y13967D01*
X254023Y13896D01*
X253933Y13828D01*
X253840Y13763D01*
X253745Y13701D01*
X253648Y13643D01*
X253549Y13588D01*
X253448Y13537D01*
X253345Y13489D01*
X253241Y13444D01*
X253135Y13404D01*
X253028Y13367D01*
X252920Y13334D01*
X252810Y13304D01*
X252700Y13279D01*
X252589Y13257D01*
X252477Y13240D01*
X252364Y13226D01*
X252251Y13216D01*
X252138Y13210D01*
X252025Y13208D01*
X251912Y13210D01*
X251799Y13216D01*
X251686Y13226D01*
X251573Y13240D01*
X251461Y13257D01*
X251350Y13279D01*
X251240Y13304D01*
X251130Y13334D01*
X251022Y13367D01*
X250915Y13404D01*
X250809Y13444D01*
X250705Y13489D01*
X250602Y13537D01*
X250501Y13588D01*
X250402Y13643D01*
X250305Y13701D01*
X250210Y13763D01*
X250117Y13828D01*
X250027Y13896D01*
X249939Y13967D01*
X249853Y14042D01*
X249770Y14119D01*
X249690Y14199D01*
X249613Y14282D01*
X249538Y14368D01*
X249467Y14456D01*
X249399Y14546D01*
X249334Y14639D01*
X249272Y14734D01*
X249214Y14831D01*
X249159Y14930D01*
X249108Y15031D01*
X249060Y15134D01*
X249015Y15238D01*
X248975Y15344D01*
X248938Y15451D01*
X248905Y15559D01*
X248875Y15669D01*
X248850Y15779D01*
X248828Y15890D01*
X248811Y16002D01*
X248797Y16115D01*
X248787Y16228D01*
X248781Y16341D01*
X248779Y16454D01*
X260590Y13208D02*
X260590Y24892D01*
X267081Y13208D01*
X267081Y24892D01*
X274997Y18401D02*
X278892Y18401D01*
X274997Y18401D02*
X274898Y18403D01*
X274798Y18409D01*
X274699Y18418D01*
X274601Y18431D01*
X274503Y18448D01*
X274405Y18469D01*
X274309Y18494D01*
X274214Y18522D01*
X274120Y18554D01*
X274027Y18589D01*
X273935Y18628D01*
X273845Y18671D01*
X273757Y18716D01*
X273670Y18766D01*
X273586Y18818D01*
X273503Y18874D01*
X273423Y18932D01*
X273345Y18994D01*
X273270Y19059D01*
X273197Y19127D01*
X273127Y19197D01*
X273059Y19270D01*
X272994Y19345D01*
X272932Y19423D01*
X272874Y19503D01*
X272818Y19586D01*
X272766Y19670D01*
X272716Y19757D01*
X272671Y19845D01*
X272628Y19935D01*
X272589Y20027D01*
X272554Y20120D01*
X272522Y20214D01*
X272494Y20309D01*
X272469Y20405D01*
X272448Y20503D01*
X272431Y20601D01*
X272418Y20699D01*
X272409Y20798D01*
X272403Y20898D01*
X272401Y20997D01*
X272401Y21646D01*
X272400Y21646D02*
X272402Y21759D01*
X272408Y21872D01*
X272418Y21985D01*
X272432Y22098D01*
X272449Y22210D01*
X272471Y22321D01*
X272496Y22431D01*
X272526Y22541D01*
X272559Y22649D01*
X272596Y22756D01*
X272636Y22862D01*
X272681Y22966D01*
X272729Y23069D01*
X272780Y23170D01*
X272835Y23269D01*
X272893Y23366D01*
X272955Y23461D01*
X273020Y23554D01*
X273088Y23644D01*
X273159Y23732D01*
X273234Y23818D01*
X273311Y23901D01*
X273391Y23981D01*
X273474Y24058D01*
X273560Y24133D01*
X273648Y24204D01*
X273738Y24272D01*
X273831Y24337D01*
X273926Y24399D01*
X274023Y24457D01*
X274122Y24512D01*
X274223Y24563D01*
X274326Y24611D01*
X274430Y24656D01*
X274536Y24696D01*
X274643Y24733D01*
X274751Y24766D01*
X274861Y24796D01*
X274971Y24821D01*
X275082Y24843D01*
X275194Y24860D01*
X275307Y24874D01*
X275420Y24884D01*
X275533Y24890D01*
X275646Y24892D01*
X275759Y24890D01*
X275872Y24884D01*
X275985Y24874D01*
X276098Y24860D01*
X276210Y24843D01*
X276321Y24821D01*
X276431Y24796D01*
X276541Y24766D01*
X276649Y24733D01*
X276756Y24696D01*
X276862Y24656D01*
X276966Y24611D01*
X277069Y24563D01*
X277170Y24512D01*
X277269Y24457D01*
X277366Y24399D01*
X277461Y24337D01*
X277554Y24272D01*
X277644Y24204D01*
X277732Y24133D01*
X277818Y24058D01*
X277901Y23981D01*
X277981Y23901D01*
X278058Y23818D01*
X278133Y23732D01*
X278204Y23644D01*
X278272Y23554D01*
X278337Y23461D01*
X278399Y23366D01*
X278457Y23269D01*
X278512Y23170D01*
X278563Y23069D01*
X278611Y22966D01*
X278656Y22862D01*
X278696Y22756D01*
X278733Y22649D01*
X278766Y22541D01*
X278796Y22431D01*
X278821Y22321D01*
X278843Y22210D01*
X278860Y22098D01*
X278874Y21985D01*
X278884Y21872D01*
X278890Y21759D01*
X278892Y21646D01*
X278892Y18401D01*
X278890Y18258D01*
X278884Y18115D01*
X278874Y17972D01*
X278860Y17830D01*
X278843Y17688D01*
X278821Y17546D01*
X278796Y17405D01*
X278766Y17265D01*
X278733Y17126D01*
X278696Y16988D01*
X278655Y16851D01*
X278611Y16715D01*
X278562Y16580D01*
X278510Y16447D01*
X278455Y16315D01*
X278395Y16185D01*
X278332Y16056D01*
X278266Y15929D01*
X278196Y15804D01*
X278123Y15682D01*
X278046Y15561D01*
X277966Y15442D01*
X277883Y15326D01*
X277797Y15211D01*
X277708Y15100D01*
X277615Y14990D01*
X277520Y14884D01*
X277421Y14780D01*
X277320Y14679D01*
X277216Y14580D01*
X277110Y14485D01*
X277000Y14392D01*
X276889Y14303D01*
X276774Y14217D01*
X276658Y14134D01*
X276539Y14054D01*
X276418Y13977D01*
X276296Y13904D01*
X276171Y13834D01*
X276044Y13768D01*
X275915Y13705D01*
X275785Y13645D01*
X275653Y13590D01*
X275520Y13538D01*
X275385Y13489D01*
X275249Y13445D01*
X275112Y13404D01*
X274974Y13367D01*
X274835Y13334D01*
X274695Y13304D01*
X274554Y13279D01*
X274412Y13257D01*
X274270Y13240D01*
X274128Y13226D01*
X273985Y13216D01*
X273842Y13210D01*
X273699Y13208D01*
D10*
X182200Y22500D02*
X182200Y57500D01*
X182200Y22500D02*
X97200Y22500D01*
X97200Y57500D01*
X182200Y57500D01*
D11*
X70499Y68504D02*
X70497Y68405D01*
X70491Y68305D01*
X70482Y68206D01*
X70469Y68108D01*
X70452Y68010D01*
X70431Y67912D01*
X70406Y67816D01*
X70378Y67721D01*
X70346Y67627D01*
X70311Y67534D01*
X70272Y67442D01*
X70229Y67352D01*
X70184Y67264D01*
X70134Y67177D01*
X70082Y67093D01*
X70026Y67010D01*
X69968Y66930D01*
X69906Y66852D01*
X69841Y66777D01*
X69773Y66704D01*
X69703Y66634D01*
X69630Y66566D01*
X69555Y66501D01*
X69477Y66439D01*
X69397Y66381D01*
X69314Y66325D01*
X69230Y66273D01*
X69143Y66223D01*
X69055Y66178D01*
X68965Y66135D01*
X68873Y66096D01*
X68780Y66061D01*
X68686Y66029D01*
X68591Y66001D01*
X68495Y65976D01*
X68397Y65955D01*
X68299Y65938D01*
X68201Y65925D01*
X68102Y65916D01*
X68002Y65910D01*
X67903Y65908D01*
X67759Y65910D01*
X67614Y65916D01*
X67470Y65925D01*
X67327Y65938D01*
X67183Y65955D01*
X67040Y65976D01*
X66898Y66001D01*
X66757Y66029D01*
X66616Y66061D01*
X66476Y66097D01*
X66337Y66136D01*
X66199Y66179D01*
X66063Y66226D01*
X65927Y66276D01*
X65793Y66330D01*
X65661Y66387D01*
X65530Y66448D01*
X65401Y66512D01*
X65273Y66580D01*
X65147Y66650D01*
X65023Y66725D01*
X64902Y66802D01*
X64782Y66883D01*
X64664Y66966D01*
X64549Y67053D01*
X64436Y67143D01*
X64325Y67236D01*
X64217Y67331D01*
X64111Y67430D01*
X64008Y67531D01*
X64333Y74996D02*
X64335Y75095D01*
X64341Y75195D01*
X64350Y75294D01*
X64363Y75392D01*
X64380Y75490D01*
X64401Y75588D01*
X64426Y75684D01*
X64454Y75779D01*
X64486Y75873D01*
X64521Y75966D01*
X64560Y76058D01*
X64603Y76148D01*
X64648Y76236D01*
X64698Y76323D01*
X64750Y76407D01*
X64806Y76490D01*
X64864Y76570D01*
X64926Y76648D01*
X64991Y76723D01*
X65059Y76796D01*
X65129Y76866D01*
X65202Y76934D01*
X65277Y76999D01*
X65355Y77061D01*
X65435Y77119D01*
X65518Y77175D01*
X65602Y77227D01*
X65689Y77277D01*
X65777Y77322D01*
X65867Y77365D01*
X65959Y77404D01*
X66052Y77439D01*
X66146Y77471D01*
X66241Y77499D01*
X66338Y77524D01*
X66435Y77545D01*
X66533Y77562D01*
X66631Y77575D01*
X66730Y77584D01*
X66830Y77590D01*
X66929Y77592D01*
X67065Y77590D01*
X67201Y77584D01*
X67337Y77575D01*
X67473Y77562D01*
X67608Y77544D01*
X67742Y77524D01*
X67876Y77499D01*
X68010Y77471D01*
X68142Y77438D01*
X68273Y77403D01*
X68404Y77363D01*
X68533Y77320D01*
X68661Y77274D01*
X68787Y77223D01*
X68913Y77170D01*
X69036Y77112D01*
X69158Y77052D01*
X69278Y76988D01*
X69397Y76920D01*
X69513Y76850D01*
X69627Y76776D01*
X69740Y76699D01*
X69850Y76618D01*
X65631Y72724D02*
X65545Y72777D01*
X65461Y72834D01*
X65379Y72893D01*
X65299Y72956D01*
X65222Y73022D01*
X65147Y73090D01*
X65075Y73162D01*
X65006Y73236D01*
X64940Y73313D01*
X64877Y73392D01*
X64817Y73474D01*
X64760Y73558D01*
X64706Y73644D01*
X64656Y73732D01*
X64609Y73822D01*
X64565Y73913D01*
X64526Y74007D01*
X64489Y74101D01*
X64457Y74197D01*
X64428Y74295D01*
X64403Y74393D01*
X64382Y74492D01*
X64364Y74592D01*
X64351Y74692D01*
X64341Y74793D01*
X64335Y74895D01*
X64333Y74996D01*
X69201Y70776D02*
X69287Y70723D01*
X69371Y70666D01*
X69453Y70607D01*
X69533Y70544D01*
X69610Y70478D01*
X69685Y70410D01*
X69757Y70338D01*
X69826Y70264D01*
X69892Y70187D01*
X69955Y70108D01*
X70015Y70026D01*
X70072Y69942D01*
X70126Y69856D01*
X70176Y69768D01*
X70223Y69678D01*
X70267Y69587D01*
X70306Y69493D01*
X70343Y69399D01*
X70375Y69303D01*
X70404Y69205D01*
X70429Y69107D01*
X70450Y69008D01*
X70468Y68908D01*
X70481Y68808D01*
X70491Y68707D01*
X70497Y68605D01*
X70499Y68504D01*
X69201Y70776D02*
X65631Y72724D01*
X75512Y77592D02*
X75512Y65908D01*
X75512Y77592D02*
X78757Y77592D01*
X78870Y77590D01*
X78983Y77584D01*
X79096Y77574D01*
X79209Y77560D01*
X79321Y77543D01*
X79432Y77521D01*
X79542Y77496D01*
X79652Y77466D01*
X79760Y77433D01*
X79867Y77396D01*
X79973Y77356D01*
X80077Y77311D01*
X80180Y77263D01*
X80281Y77212D01*
X80380Y77157D01*
X80477Y77099D01*
X80572Y77037D01*
X80665Y76972D01*
X80755Y76904D01*
X80843Y76833D01*
X80929Y76758D01*
X81012Y76681D01*
X81092Y76601D01*
X81169Y76518D01*
X81244Y76432D01*
X81315Y76344D01*
X81383Y76254D01*
X81448Y76161D01*
X81510Y76066D01*
X81568Y75969D01*
X81623Y75870D01*
X81674Y75769D01*
X81722Y75666D01*
X81767Y75562D01*
X81807Y75456D01*
X81844Y75349D01*
X81877Y75241D01*
X81907Y75131D01*
X81932Y75021D01*
X81954Y74910D01*
X81971Y74798D01*
X81985Y74685D01*
X81995Y74572D01*
X82001Y74459D01*
X82003Y74346D01*
X82001Y74233D01*
X81995Y74120D01*
X81985Y74007D01*
X81971Y73894D01*
X81954Y73782D01*
X81932Y73671D01*
X81907Y73561D01*
X81877Y73451D01*
X81844Y73343D01*
X81807Y73236D01*
X81767Y73130D01*
X81722Y73026D01*
X81674Y72923D01*
X81623Y72822D01*
X81568Y72723D01*
X81510Y72626D01*
X81448Y72531D01*
X81383Y72438D01*
X81315Y72348D01*
X81244Y72260D01*
X81169Y72174D01*
X81092Y72091D01*
X81012Y72011D01*
X80929Y71934D01*
X80843Y71859D01*
X80755Y71788D01*
X80665Y71720D01*
X80572Y71655D01*
X80477Y71593D01*
X80380Y71535D01*
X80281Y71480D01*
X80180Y71429D01*
X80077Y71381D01*
X79973Y71336D01*
X79867Y71296D01*
X79760Y71259D01*
X79652Y71226D01*
X79542Y71196D01*
X79432Y71171D01*
X79321Y71149D01*
X79209Y71132D01*
X79096Y71118D01*
X78983Y71108D01*
X78870Y71102D01*
X78757Y71100D01*
X78757Y71101D02*
X75512Y71101D01*
X79406Y71101D02*
X82003Y65908D01*
X87828Y65908D02*
X87828Y77592D01*
X86529Y65908D02*
X89126Y65908D01*
X89126Y77592D02*
X86529Y77592D01*
X94107Y77592D02*
X94107Y65908D01*
X94107Y77592D02*
X97352Y77592D01*
X97465Y77590D01*
X97578Y77584D01*
X97691Y77574D01*
X97804Y77560D01*
X97916Y77543D01*
X98027Y77521D01*
X98137Y77496D01*
X98247Y77466D01*
X98355Y77433D01*
X98462Y77396D01*
X98568Y77356D01*
X98672Y77311D01*
X98775Y77263D01*
X98876Y77212D01*
X98975Y77157D01*
X99072Y77099D01*
X99167Y77037D01*
X99260Y76972D01*
X99350Y76904D01*
X99438Y76833D01*
X99524Y76758D01*
X99607Y76681D01*
X99687Y76601D01*
X99764Y76518D01*
X99839Y76432D01*
X99910Y76344D01*
X99978Y76254D01*
X100043Y76161D01*
X100105Y76066D01*
X100163Y75969D01*
X100218Y75870D01*
X100269Y75769D01*
X100317Y75666D01*
X100362Y75562D01*
X100402Y75456D01*
X100439Y75349D01*
X100472Y75241D01*
X100502Y75131D01*
X100527Y75021D01*
X100549Y74910D01*
X100566Y74798D01*
X100580Y74685D01*
X100590Y74572D01*
X100596Y74459D01*
X100598Y74346D01*
X100598Y69154D01*
X100599Y69154D02*
X100597Y69041D01*
X100591Y68928D01*
X100581Y68815D01*
X100567Y68702D01*
X100550Y68590D01*
X100528Y68479D01*
X100503Y68369D01*
X100473Y68259D01*
X100440Y68151D01*
X100403Y68044D01*
X100363Y67938D01*
X100318Y67834D01*
X100270Y67731D01*
X100219Y67630D01*
X100164Y67531D01*
X100106Y67434D01*
X100044Y67339D01*
X99979Y67246D01*
X99911Y67156D01*
X99840Y67068D01*
X99765Y66982D01*
X99688Y66899D01*
X99608Y66819D01*
X99525Y66742D01*
X99439Y66667D01*
X99351Y66596D01*
X99261Y66528D01*
X99168Y66463D01*
X99073Y66401D01*
X98976Y66343D01*
X98877Y66288D01*
X98776Y66237D01*
X98673Y66189D01*
X98569Y66144D01*
X98463Y66104D01*
X98356Y66067D01*
X98248Y66034D01*
X98138Y66004D01*
X98028Y65979D01*
X97917Y65957D01*
X97805Y65940D01*
X97692Y65926D01*
X97579Y65916D01*
X97466Y65910D01*
X97353Y65908D01*
X97352Y65908D02*
X94107Y65908D01*
X106322Y65908D02*
X111514Y65908D01*
X106322Y65908D02*
X106322Y77592D01*
X111514Y77592D01*
X110216Y72399D02*
X106322Y72399D01*
X115330Y64610D02*
X120523Y64610D01*
X128482Y65908D02*
X128581Y65910D01*
X128681Y65916D01*
X128780Y65925D01*
X128878Y65938D01*
X128976Y65955D01*
X129074Y65976D01*
X129170Y66001D01*
X129265Y66029D01*
X129359Y66061D01*
X129452Y66096D01*
X129544Y66135D01*
X129634Y66178D01*
X129722Y66223D01*
X129809Y66273D01*
X129893Y66325D01*
X129976Y66381D01*
X130056Y66439D01*
X130134Y66501D01*
X130209Y66566D01*
X130282Y66634D01*
X130352Y66704D01*
X130420Y66777D01*
X130485Y66852D01*
X130547Y66930D01*
X130605Y67010D01*
X130661Y67093D01*
X130713Y67177D01*
X130763Y67264D01*
X130808Y67352D01*
X130851Y67442D01*
X130890Y67534D01*
X130925Y67627D01*
X130957Y67721D01*
X130985Y67816D01*
X131010Y67912D01*
X131031Y68010D01*
X131048Y68108D01*
X131061Y68206D01*
X131070Y68305D01*
X131076Y68405D01*
X131078Y68504D01*
X128482Y65908D02*
X128338Y65910D01*
X128193Y65916D01*
X128049Y65925D01*
X127906Y65938D01*
X127762Y65955D01*
X127619Y65976D01*
X127477Y66001D01*
X127336Y66029D01*
X127195Y66061D01*
X127055Y66097D01*
X126916Y66136D01*
X126778Y66179D01*
X126642Y66226D01*
X126506Y66276D01*
X126372Y66330D01*
X126240Y66387D01*
X126109Y66448D01*
X125980Y66512D01*
X125852Y66580D01*
X125726Y66650D01*
X125602Y66725D01*
X125481Y66802D01*
X125361Y66883D01*
X125243Y66966D01*
X125128Y67053D01*
X125015Y67143D01*
X124904Y67236D01*
X124796Y67331D01*
X124690Y67430D01*
X124587Y67531D01*
X124912Y74996D02*
X124914Y75095D01*
X124920Y75195D01*
X124929Y75294D01*
X124942Y75392D01*
X124959Y75490D01*
X124980Y75588D01*
X125005Y75684D01*
X125033Y75779D01*
X125065Y75873D01*
X125100Y75966D01*
X125139Y76058D01*
X125182Y76148D01*
X125227Y76236D01*
X125277Y76323D01*
X125329Y76407D01*
X125385Y76490D01*
X125443Y76570D01*
X125505Y76648D01*
X125570Y76723D01*
X125638Y76796D01*
X125708Y76866D01*
X125781Y76934D01*
X125856Y76999D01*
X125934Y77061D01*
X126014Y77119D01*
X126097Y77175D01*
X126181Y77227D01*
X126268Y77277D01*
X126356Y77322D01*
X126446Y77365D01*
X126538Y77404D01*
X126631Y77439D01*
X126725Y77471D01*
X126820Y77499D01*
X126917Y77524D01*
X127014Y77545D01*
X127112Y77562D01*
X127210Y77575D01*
X127309Y77584D01*
X127409Y77590D01*
X127508Y77592D01*
X127644Y77590D01*
X127780Y77584D01*
X127916Y77575D01*
X128052Y77562D01*
X128187Y77544D01*
X128321Y77524D01*
X128455Y77499D01*
X128589Y77471D01*
X128721Y77438D01*
X128852Y77403D01*
X128983Y77363D01*
X129112Y77320D01*
X129240Y77274D01*
X129366Y77223D01*
X129492Y77170D01*
X129615Y77112D01*
X129737Y77052D01*
X129857Y76988D01*
X129976Y76920D01*
X130092Y76850D01*
X130206Y76776D01*
X130319Y76699D01*
X130429Y76618D01*
X126209Y72724D02*
X126123Y72777D01*
X126039Y72834D01*
X125957Y72893D01*
X125877Y72956D01*
X125800Y73022D01*
X125725Y73090D01*
X125653Y73162D01*
X125584Y73236D01*
X125518Y73313D01*
X125455Y73392D01*
X125395Y73474D01*
X125338Y73558D01*
X125284Y73644D01*
X125234Y73732D01*
X125187Y73822D01*
X125143Y73913D01*
X125104Y74007D01*
X125067Y74101D01*
X125035Y74197D01*
X125006Y74295D01*
X124981Y74393D01*
X124960Y74492D01*
X124942Y74592D01*
X124929Y74692D01*
X124919Y74793D01*
X124913Y74895D01*
X124911Y74996D01*
X129780Y70776D02*
X129866Y70723D01*
X129950Y70666D01*
X130032Y70607D01*
X130112Y70544D01*
X130189Y70478D01*
X130264Y70410D01*
X130336Y70338D01*
X130405Y70264D01*
X130471Y70187D01*
X130534Y70108D01*
X130594Y70026D01*
X130651Y69942D01*
X130705Y69856D01*
X130755Y69768D01*
X130802Y69678D01*
X130846Y69587D01*
X130885Y69493D01*
X130922Y69399D01*
X130954Y69303D01*
X130983Y69205D01*
X131008Y69107D01*
X131029Y69008D01*
X131047Y68908D01*
X131060Y68808D01*
X131070Y68707D01*
X131076Y68605D01*
X131078Y68504D01*
X129780Y70776D02*
X126210Y72724D01*
X135213Y77592D02*
X137809Y65908D01*
X140405Y73697D01*
X143002Y65908D01*
X145598Y77592D01*
X152597Y77592D02*
X152597Y65908D01*
X149352Y77592D02*
X155843Y77592D01*
X162583Y65908D02*
X165180Y65908D01*
X162583Y65908D02*
X162484Y65910D01*
X162384Y65916D01*
X162285Y65925D01*
X162187Y65938D01*
X162089Y65955D01*
X161991Y65976D01*
X161895Y66001D01*
X161800Y66029D01*
X161706Y66061D01*
X161613Y66096D01*
X161521Y66135D01*
X161431Y66178D01*
X161343Y66223D01*
X161256Y66273D01*
X161172Y66325D01*
X161089Y66381D01*
X161009Y66439D01*
X160931Y66501D01*
X160856Y66566D01*
X160783Y66634D01*
X160713Y66704D01*
X160645Y66777D01*
X160580Y66852D01*
X160518Y66930D01*
X160460Y67010D01*
X160404Y67093D01*
X160352Y67177D01*
X160302Y67264D01*
X160257Y67352D01*
X160214Y67442D01*
X160175Y67534D01*
X160140Y67627D01*
X160108Y67721D01*
X160080Y67816D01*
X160055Y67912D01*
X160034Y68010D01*
X160017Y68108D01*
X160004Y68206D01*
X159995Y68305D01*
X159989Y68405D01*
X159987Y68504D01*
X159987Y74996D01*
X159989Y75095D01*
X159995Y75195D01*
X160004Y75294D01*
X160017Y75392D01*
X160034Y75490D01*
X160055Y75588D01*
X160080Y75684D01*
X160108Y75779D01*
X160140Y75873D01*
X160175Y75966D01*
X160214Y76058D01*
X160257Y76148D01*
X160302Y76236D01*
X160352Y76323D01*
X160404Y76407D01*
X160460Y76490D01*
X160518Y76570D01*
X160580Y76648D01*
X160645Y76723D01*
X160713Y76796D01*
X160783Y76866D01*
X160856Y76934D01*
X160931Y76999D01*
X161009Y77061D01*
X161089Y77119D01*
X161172Y77175D01*
X161256Y77227D01*
X161343Y77277D01*
X161431Y77322D01*
X161521Y77365D01*
X161613Y77404D01*
X161705Y77439D01*
X161800Y77471D01*
X161895Y77499D01*
X161991Y77524D01*
X162089Y77545D01*
X162187Y77562D01*
X162285Y77575D01*
X162384Y77584D01*
X162484Y77590D01*
X162583Y77592D01*
X165180Y77592D01*
X169926Y77592D02*
X169926Y65908D01*
X169926Y72399D02*
X176417Y72399D01*
X176417Y77592D02*
X176417Y65908D01*
X185307Y77592D02*
X185414Y77590D01*
X185520Y77584D01*
X185626Y77574D01*
X185732Y77561D01*
X185838Y77543D01*
X185942Y77522D01*
X186046Y77497D01*
X186149Y77468D01*
X186250Y77436D01*
X186350Y77399D01*
X186449Y77359D01*
X186547Y77316D01*
X186643Y77269D01*
X186737Y77218D01*
X186829Y77164D01*
X186919Y77107D01*
X187007Y77047D01*
X187092Y76983D01*
X187175Y76916D01*
X187256Y76846D01*
X187334Y76774D01*
X187410Y76698D01*
X187482Y76620D01*
X187552Y76539D01*
X187619Y76456D01*
X187683Y76371D01*
X187743Y76283D01*
X187800Y76193D01*
X187854Y76101D01*
X187905Y76007D01*
X187952Y75911D01*
X187995Y75813D01*
X188035Y75714D01*
X188072Y75614D01*
X188104Y75513D01*
X188133Y75410D01*
X188158Y75306D01*
X188179Y75202D01*
X188197Y75096D01*
X188210Y74990D01*
X188220Y74884D01*
X188226Y74778D01*
X188228Y74671D01*
X185307Y77592D02*
X185186Y77590D01*
X185065Y77584D01*
X184945Y77574D01*
X184824Y77561D01*
X184705Y77543D01*
X184585Y77522D01*
X184467Y77497D01*
X184350Y77468D01*
X184233Y77435D01*
X184118Y77399D01*
X184004Y77358D01*
X183891Y77315D01*
X183779Y77267D01*
X183670Y77216D01*
X183562Y77161D01*
X183455Y77103D01*
X183351Y77042D01*
X183249Y76977D01*
X183149Y76909D01*
X183051Y76838D01*
X182955Y76764D01*
X182862Y76687D01*
X182772Y76606D01*
X182684Y76523D01*
X182599Y76437D01*
X182516Y76348D01*
X182437Y76257D01*
X182360Y76163D01*
X182287Y76067D01*
X182217Y75969D01*
X182150Y75868D01*
X182086Y75765D01*
X182026Y75660D01*
X181969Y75553D01*
X181915Y75445D01*
X181865Y75335D01*
X181819Y75223D01*
X181776Y75110D01*
X181737Y74995D01*
X187254Y72399D02*
X187333Y72476D01*
X187409Y72557D01*
X187482Y72640D01*
X187552Y72725D01*
X187619Y72813D01*
X187683Y72903D01*
X187743Y72995D01*
X187800Y73090D01*
X187854Y73186D01*
X187905Y73284D01*
X187952Y73384D01*
X187996Y73486D01*
X188036Y73589D01*
X188072Y73693D01*
X188104Y73799D01*
X188133Y73905D01*
X188158Y74013D01*
X188180Y74121D01*
X188197Y74231D01*
X188211Y74340D01*
X188220Y74450D01*
X188226Y74561D01*
X188228Y74671D01*
X187254Y72399D02*
X181737Y65908D01*
X188228Y65908D01*
M02*
