G04 EAGLE Gerber RS-274X export*
G75*
%MOMM*%
%FSLAX34Y34*%
%LPD*%
%IN*%
%IPPOS*%
%AMOC8*
5,1,8,0,0,1.08239X$1,22.5*%
G01*
%ADD10C,0.254000*%


D10*
X0Y0D02*
X350000Y0D01*
X350000Y450000D01*
X0Y450000D01*
X0Y0D01*
X30000Y429563D02*
X29924Y428694D01*
X29772Y427834D01*
X29546Y426990D01*
X29248Y426170D01*
X28879Y425378D01*
X28442Y424622D01*
X27941Y423907D01*
X27380Y423238D01*
X26762Y422620D01*
X26093Y422059D01*
X25378Y421558D01*
X24622Y421121D01*
X23830Y420752D01*
X23010Y420454D01*
X22166Y420228D01*
X21307Y420076D01*
X20437Y420000D01*
X19563Y420000D01*
X18694Y420076D01*
X17834Y420228D01*
X16990Y420454D01*
X16170Y420752D01*
X15378Y421121D01*
X14622Y421558D01*
X13907Y422059D01*
X13238Y422620D01*
X12620Y423238D01*
X12059Y423907D01*
X11558Y424622D01*
X11121Y425378D01*
X10752Y426170D01*
X10454Y426990D01*
X10228Y427834D01*
X10076Y428694D01*
X10000Y429563D01*
X10000Y430437D01*
X10076Y431307D01*
X10228Y432166D01*
X10454Y433010D01*
X10752Y433830D01*
X11121Y434622D01*
X11558Y435378D01*
X12059Y436093D01*
X12620Y436762D01*
X13238Y437380D01*
X13907Y437941D01*
X14622Y438442D01*
X15378Y438879D01*
X16170Y439248D01*
X16990Y439546D01*
X17834Y439772D01*
X18694Y439924D01*
X19563Y440000D01*
X20437Y440000D01*
X21307Y439924D01*
X22166Y439772D01*
X23010Y439546D01*
X23830Y439248D01*
X24622Y438879D01*
X25378Y438442D01*
X26093Y437941D01*
X26762Y437380D01*
X27380Y436762D01*
X27941Y436093D01*
X28442Y435378D01*
X28879Y434622D01*
X29248Y433830D01*
X29546Y433010D01*
X29772Y432166D01*
X29924Y431307D01*
X30000Y430437D01*
X30000Y429563D01*
X340000Y429563D02*
X339924Y428694D01*
X339772Y427834D01*
X339546Y426990D01*
X339248Y426170D01*
X338879Y425378D01*
X338442Y424622D01*
X337941Y423907D01*
X337380Y423238D01*
X336762Y422620D01*
X336093Y422059D01*
X335378Y421558D01*
X334622Y421121D01*
X333830Y420752D01*
X333010Y420454D01*
X332166Y420228D01*
X331307Y420076D01*
X330437Y420000D01*
X329563Y420000D01*
X328694Y420076D01*
X327834Y420228D01*
X326990Y420454D01*
X326170Y420752D01*
X325378Y421121D01*
X324622Y421558D01*
X323907Y422059D01*
X323238Y422620D01*
X322620Y423238D01*
X322059Y423907D01*
X321558Y424622D01*
X321121Y425378D01*
X320752Y426170D01*
X320454Y426990D01*
X320228Y427834D01*
X320076Y428694D01*
X320000Y429563D01*
X320000Y430437D01*
X320076Y431307D01*
X320228Y432166D01*
X320454Y433010D01*
X320752Y433830D01*
X321121Y434622D01*
X321558Y435378D01*
X322059Y436093D01*
X322620Y436762D01*
X323238Y437380D01*
X323907Y437941D01*
X324622Y438442D01*
X325378Y438879D01*
X326170Y439248D01*
X326990Y439546D01*
X327834Y439772D01*
X328694Y439924D01*
X329563Y440000D01*
X330437Y440000D01*
X331307Y439924D01*
X332166Y439772D01*
X333010Y439546D01*
X333830Y439248D01*
X334622Y438879D01*
X335378Y438442D01*
X336093Y437941D01*
X336762Y437380D01*
X337380Y436762D01*
X337941Y436093D01*
X338442Y435378D01*
X338879Y434622D01*
X339248Y433830D01*
X339546Y433010D01*
X339772Y432166D01*
X339924Y431307D01*
X340000Y430437D01*
X340000Y429563D01*
X340000Y19563D02*
X339924Y18694D01*
X339772Y17834D01*
X339546Y16990D01*
X339248Y16170D01*
X338879Y15378D01*
X338442Y14622D01*
X337941Y13907D01*
X337380Y13238D01*
X336762Y12620D01*
X336093Y12059D01*
X335378Y11558D01*
X334622Y11121D01*
X333830Y10752D01*
X333010Y10454D01*
X332166Y10228D01*
X331307Y10076D01*
X330437Y10000D01*
X329563Y10000D01*
X328694Y10076D01*
X327834Y10228D01*
X326990Y10454D01*
X326170Y10752D01*
X325378Y11121D01*
X324622Y11558D01*
X323907Y12059D01*
X323238Y12620D01*
X322620Y13238D01*
X322059Y13907D01*
X321558Y14622D01*
X321121Y15378D01*
X320752Y16170D01*
X320454Y16990D01*
X320228Y17834D01*
X320076Y18694D01*
X320000Y19563D01*
X320000Y20437D01*
X320076Y21307D01*
X320228Y22166D01*
X320454Y23010D01*
X320752Y23830D01*
X321121Y24622D01*
X321558Y25378D01*
X322059Y26093D01*
X322620Y26762D01*
X323238Y27380D01*
X323907Y27941D01*
X324622Y28442D01*
X325378Y28879D01*
X326170Y29248D01*
X326990Y29546D01*
X327834Y29772D01*
X328694Y29924D01*
X329563Y30000D01*
X330437Y30000D01*
X331307Y29924D01*
X332166Y29772D01*
X333010Y29546D01*
X333830Y29248D01*
X334622Y28879D01*
X335378Y28442D01*
X336093Y27941D01*
X336762Y27380D01*
X337380Y26762D01*
X337941Y26093D01*
X338442Y25378D01*
X338879Y24622D01*
X339248Y23830D01*
X339546Y23010D01*
X339772Y22166D01*
X339924Y21307D01*
X340000Y20437D01*
X340000Y19563D01*
X30000Y19563D02*
X29924Y18694D01*
X29772Y17834D01*
X29546Y16990D01*
X29248Y16170D01*
X28879Y15378D01*
X28442Y14622D01*
X27941Y13907D01*
X27380Y13238D01*
X26762Y12620D01*
X26093Y12059D01*
X25378Y11558D01*
X24622Y11121D01*
X23830Y10752D01*
X23010Y10454D01*
X22166Y10228D01*
X21307Y10076D01*
X20437Y10000D01*
X19563Y10000D01*
X18694Y10076D01*
X17834Y10228D01*
X16990Y10454D01*
X16170Y10752D01*
X15378Y11121D01*
X14622Y11558D01*
X13907Y12059D01*
X13238Y12620D01*
X12620Y13238D01*
X12059Y13907D01*
X11558Y14622D01*
X11121Y15378D01*
X10752Y16170D01*
X10454Y16990D01*
X10228Y17834D01*
X10076Y18694D01*
X10000Y19563D01*
X10000Y20437D01*
X10076Y21307D01*
X10228Y22166D01*
X10454Y23010D01*
X10752Y23830D01*
X11121Y24622D01*
X11558Y25378D01*
X12059Y26093D01*
X12620Y26762D01*
X13238Y27380D01*
X13907Y27941D01*
X14622Y28442D01*
X15378Y28879D01*
X16170Y29248D01*
X16990Y29546D01*
X17834Y29772D01*
X18694Y29924D01*
X19563Y30000D01*
X20437Y30000D01*
X21307Y29924D01*
X22166Y29772D01*
X23010Y29546D01*
X23830Y29248D01*
X24622Y28879D01*
X25378Y28442D01*
X26093Y27941D01*
X26762Y27380D01*
X27380Y26762D01*
X27941Y26093D01*
X28442Y25378D01*
X28879Y24622D01*
X29248Y23830D01*
X29546Y23010D01*
X29772Y22166D01*
X29924Y21307D01*
X30000Y20437D01*
X30000Y19563D01*
M02*
