G04 EAGLE Gerber RS-274X export*
G75*
%MOMM*%
%FSLAX34Y34*%
%LPD*%
%INSoldermask Top*%
%IPPOS*%
%AMOC8*
5,1,8,0,0,1.08239X$1,22.5*%
G01*
%ADD10C,2.203200*%
%ADD11R,2.003200X2.003200*%
%ADD12R,1.303200X1.203200*%
%ADD13R,1.203200X1.303200*%
%ADD14P,1.869504X8X202.500000*%
%ADD15R,1.003200X1.003200*%
%ADD16R,1.803200X1.253200*%
%ADD17R,0.703200X1.403200*%
%ADD18R,1.403200X0.703200*%
%ADD19P,1.869504X8X22.500000*%
%ADD20C,0.959600*%


D10*
X20000Y430000D03*
X330000Y430000D03*
X330000Y20000D03*
X20000Y20000D03*
D11*
X225260Y373230D03*
X225260Y347830D03*
X225260Y322530D03*
X301460Y373230D03*
X301460Y347830D03*
X301460Y322530D03*
D12*
X215020Y146050D03*
X232020Y146050D03*
X78500Y190000D03*
X61500Y190000D03*
X78500Y220000D03*
X61500Y220000D03*
D13*
X220980Y217560D03*
X220980Y234560D03*
D12*
X263500Y210000D03*
X246500Y210000D03*
D14*
X289300Y48100D03*
X263900Y48100D03*
X238500Y48100D03*
X213100Y48100D03*
X187700Y48100D03*
X162300Y48100D03*
X136900Y48100D03*
X111500Y48100D03*
X86100Y48100D03*
X60700Y48100D03*
X289300Y73500D03*
X263900Y73500D03*
X238500Y73500D03*
X213100Y73500D03*
X187700Y73500D03*
X162300Y73500D03*
X136900Y73500D03*
X111500Y73500D03*
X86100Y73500D03*
X60700Y73500D03*
D15*
X200000Y327500D03*
X200000Y312500D03*
X170000Y327500D03*
X170000Y312500D03*
X140000Y327500D03*
X140000Y312500D03*
D12*
X172720Y122800D03*
X172720Y105800D03*
D13*
X263500Y180000D03*
X246500Y180000D03*
D12*
X140000Y261500D03*
X140000Y278500D03*
X200000Y261500D03*
X200000Y278500D03*
X170000Y261500D03*
X170000Y278500D03*
D16*
X300000Y177750D03*
X300000Y222250D03*
D17*
X178690Y229870D03*
X170690Y229870D03*
X162690Y229870D03*
X154690Y229870D03*
X146690Y229870D03*
X138690Y229870D03*
X130690Y229870D03*
X122690Y229870D03*
D18*
X193190Y215370D03*
X193190Y207370D03*
X193190Y199370D03*
X193190Y191370D03*
X193190Y183370D03*
X193190Y175370D03*
X193190Y167370D03*
X193190Y159370D03*
X108190Y215370D03*
X108190Y207370D03*
X108190Y199370D03*
X108190Y191370D03*
X108190Y183370D03*
X108190Y175370D03*
X108190Y167370D03*
X108190Y159370D03*
D17*
X178690Y144870D03*
X170690Y144870D03*
X162690Y144870D03*
X154690Y144870D03*
X146690Y144870D03*
X138690Y144870D03*
X130690Y144870D03*
X122690Y144870D03*
D19*
X60960Y411900D03*
X86360Y411900D03*
X111760Y411900D03*
X137160Y411900D03*
X162560Y411900D03*
X187960Y411900D03*
X60960Y386500D03*
X86360Y386500D03*
X111760Y386500D03*
X137160Y386500D03*
X162560Y386500D03*
X187960Y386500D03*
D20*
X69850Y178816D03*
X271018Y128524D03*
X61468Y162052D03*
X162052Y131318D03*
X167640Y290576D03*
X131318Y251460D03*
X86614Y136906D03*
X108966Y150876D03*
X114554Y234696D03*
X125730Y284988D03*
X125730Y366014D03*
X128524Y167640D03*
X100584Y259842D03*
X120142Y176022D03*
X150876Y156464D03*
X159258Y97790D03*
X120142Y192786D03*
X97790Y134112D03*
X262636Y117348D03*
M02*
