M48
;GenerationSoftware,Autodesk,EAGLE,9.6.2*%
;CreationDate,2022-06-11T07:16:36Z*%
FMAT,2
ICI,OFF
METRIC,TZ,000.000
T11C0.200
T10C0.350
T9C0.750
T8C0.800
T7C0.850
T6C1.000
T5C1.200
T4C2.000
T3C2.500
T2C3.000
T1C3.200
%
G90
M71
T1
X4510Y22290
X28510Y22290
X28510Y46290
X4510Y46290
T2
X97460Y2540
X97460Y58730
X2540Y58730
X2540Y2540
T3
X95900Y28640
T4
X81900Y54640
T5
X72390Y6350
X77470Y6350
T6
X88900Y5080
X86360Y5080
X91440Y5080
X83820Y5080
X15240Y5080
X17780Y5080
X12700Y5080
X27940Y5080
X30480Y5080
X25400Y5080
T7
X35560Y45720
X35560Y48260
X60730Y2540
X60730Y5080
X60730Y7620
X60730Y10160
X35560Y43180
X35560Y40640
X60730Y12700
X60730Y15240
X60730Y17780
X60730Y20320
X35560Y33020
X35560Y30480
X35560Y27940
X35560Y25400
X35560Y22860
X35560Y20320
X60730Y22860
X60730Y25400
X60730Y27940
X60730Y30480
X60730Y33020
X60730Y35560
X35560Y17780
X35560Y15240
X35560Y12700
X35560Y10160
X35560Y7620
X35560Y5080
X35560Y2540
X10160Y54610
X60730Y48260
X60730Y45720
X60730Y43180
X60730Y40640
X60730Y38100
X10160Y52070
X12700Y52070
X15240Y52070
X17780Y52070
X20320Y52070
X22860Y52070
X25400Y52070
X27940Y52070
X30480Y52070
X33020Y52070
X35560Y52070
X38100Y52070
X40640Y52070
X43180Y52070
X45720Y52070
X35560Y35560
X48260Y52070
X50800Y52070
X53340Y52070
X55880Y52070
X58420Y52070
X58420Y54610
X55880Y54610
X53340Y54610
X50800Y54610
X48260Y54610
X45720Y54610
X43180Y54610
X40640Y54610
X38100Y54610
X35560Y38100
X12700Y54610
X15240Y54610
X17780Y54610
X20320Y54610
X22860Y54610
X25400Y54610
X27940Y54610
X30480Y54610
X33020Y54610
X35560Y54610
T8
X67310Y2540
X67310Y5080
X67310Y7620
X67310Y10160
X67310Y12700
X67310Y15240
X67310Y17780
X67310Y20320
X67310Y22860
X67310Y25400
X67310Y27940
X67310Y30480
X67310Y33020
X67310Y35560
X67310Y40640
X67310Y43180
X67310Y45720
X67310Y48260
X64770Y2540
X64770Y5080
X64770Y7620
X64770Y10160
X64770Y12700
X64770Y15240
X64770Y17780
X64770Y20320
X64770Y22860
X64770Y25400
X64770Y27940
X64770Y30480
X64770Y33020
X64770Y35560
X64770Y38100
X64770Y40640
X64770Y43180
X64770Y45720
X64770Y48260
X30226Y29210
X30226Y31750
X30226Y34290
X30226Y36830
X30226Y39370
X76830Y15320
X79360Y15320
X81900Y15320
X76830Y22940
X79360Y22940
X81900Y22940
X67310Y38100
T9
X97790Y22860
X97790Y10160
X97790Y12700
X97790Y15240
X97790Y17780
X97790Y20320
T10
X90170Y22860
X90170Y10160
T11
X77500Y39000
X53500Y44500
X74250Y33500
X77500Y40000
X63250Y37750
X18250Y48000
X26250Y34500
X54750Y44750
X78500Y25000
X85750Y28250
X72000Y26250
X73000Y26250
X74250Y25750
X81000Y25750
X84000Y25750
X77250Y20000
X74500Y6250
X80250Y44500
X86000Y42750
X73500Y8500
X56250Y29500
X46750Y50250
M30