M48
;GenerationSoftware,Autodesk,EAGLE,9.6.2*%
;CreationDate,2023-07-26T23:52:45Z*%
FMAT,2
ICI,OFF
METRIC,TZ,000.000
T4C0.350
T3C1.016
T2C1.200
T1C2.000
%
G90
M71
T1
X33000Y2000
X2000Y2000
T2
X5312Y20924
X5312Y23464
X12932Y18394
X12932Y20924
X12932Y23464
X5312Y18394
T3
X6070Y4810
X28930Y7350
X23850Y7350
X21310Y7350
X18770Y7350
X16230Y7350
X13690Y7350
X11150Y7350
X26390Y7350
X8610Y7350
X6070Y7350
X6120Y40190
X11200Y40190
X13740Y40190
X16280Y40190
X6120Y37650
X8660Y37650
X11200Y37650
X13740Y37650
X16280Y37650
X21310Y4810
X28930Y4810
X26390Y4810
X23850Y4810
X8660Y40190
X18770Y4810
X16230Y4810
X13690Y4810
X11150Y4810
X8610Y4810
T4
X27026Y10859
X22200Y30886
X24371Y20752
X19545Y21476
X20993Y21958
X27026Y12065
X26060Y2896
X13754Y16408
X24613Y8446
X22682Y12548
X20752Y14961
X13513Y28715
X13513Y32817
X19787Y15443
X12306Y15443
X6032Y26543
X23406Y17374
X18821Y9893
X29680Y3619
X6756Y23406
X9169Y35712
X24200Y29600
X28900Y29500
X22000Y29600
X29000Y23200
X26900Y29600
X24613Y14719
M30