M48
;GenerationSoftware,Autodesk,EAGLE,9.6.2*%
;CreationDate,2023-07-26T23:43:32Z*%
FMAT,2
ICI,OFF
METRIC,TZ,000.000
T6C0.350
T5C0.800
T4C1.000
T3C1.016
T2C2.000
T1C3.200
%
G90
M71
T1
X5620Y10800
X29620Y10800
X29620Y34800
X5620Y34800
T2
X33000Y43000
X2000Y43000
X2000Y2000
X33000Y2000
T3
X8610Y4810
X6070Y4810
X28930Y7350
X26390Y7350
X23850Y7350
X18770Y7350
X21310Y7350
X16210Y38650
X13670Y38650
X11130Y38650
X8590Y38650
X6050Y38650
X28930Y4810
X16210Y41190
X13670Y41190
X11130Y41190
X8590Y41190
X6050Y41190
X18750Y38650
X6070Y7350
X8610Y7350
X11150Y7350
X13690Y7350
X16230Y7350
X26390Y4810
X23850Y4810
X21310Y4810
X18770Y4810
X16230Y4810
X13690Y4810
X11150Y4810
X18750Y41190
T4
X26000Y36000
X26000Y33500
X26000Y38500
X22000Y36000
X22000Y33500
X22000Y38500
T5
X31336Y25340
X31336Y27880
X31336Y17720
X31336Y20260
X31336Y22800
T6
X8250Y18250
X22250Y12750
X7250Y20750
X15000Y25500
X13250Y23750
X13250Y21250
X2750Y15000
X2750Y19750
X9000Y19000
X7500Y19500
X15000Y36750
X13250Y17750
X15000Y35750
X16500Y21250
X30250Y7000
X32250Y21500
X11000Y14250
X8730Y28850
X10000Y28850
X11270Y28850
X12540Y28850
X13810Y28850
X15080Y28850
X16350Y28850
X17620Y28850
X18890Y28850
X20160Y28850
X21430Y28850
X22700Y28850
X23970Y28850
X8730Y9750
X16500Y17500
X11270Y9750
X12540Y9750
X13810Y9750
X15080Y9750
X16350Y9750
X17620Y9750
X18890Y9750
X20160Y9750
X21430Y9750
X22700Y9750
X23970Y9750
X14750Y15500
X10500Y23500
X10000Y14250
X19000Y23500
X4500Y27750
X6750Y2500
X25500Y15500
X21000Y20250
X22750Y21000
X4500Y3750
X3750Y22750
X18250Y22750
X4500Y39750
X3750Y23750
X10000Y9750
M30