G04 EAGLE Gerber RS-274X export*
G75*
%MOMM*%
%FSLAX34Y34*%
%LPD*%
%INTop Copper*%
%IPPOS*%
%AMOC8*
5,1,8,0,0,1.08239X$1,22.5*%
G01*
%ADD10R,1.800000X1.800000*%
%ADD11C,1.320800*%
%ADD12R,1.408000X1.408000*%
%ADD13C,1.308000*%
%ADD14C,1.508000*%
%ADD15C,0.406400*%
%ADD16C,0.756400*%

G36*
X460844Y10930D02*
X460844Y10930D01*
X460890Y10928D01*
X460965Y10950D01*
X461042Y10962D01*
X461082Y10984D01*
X461126Y10997D01*
X461190Y11041D01*
X461259Y11078D01*
X461291Y11111D01*
X461328Y11137D01*
X461375Y11200D01*
X461428Y11256D01*
X461448Y11298D01*
X461475Y11334D01*
X461499Y11408D01*
X461532Y11479D01*
X461537Y11525D01*
X461551Y11568D01*
X461550Y11646D01*
X461559Y11723D01*
X461549Y11768D01*
X461549Y11814D01*
X461511Y11946D01*
X461507Y11964D01*
X461504Y11968D01*
X461502Y11975D01*
X459839Y15990D01*
X459839Y24010D01*
X462909Y31420D01*
X468580Y37091D01*
X475990Y40161D01*
X484010Y40161D01*
X488025Y38498D01*
X488069Y38487D01*
X488111Y38468D01*
X488188Y38459D01*
X488264Y38442D01*
X488310Y38446D01*
X488355Y38441D01*
X488432Y38457D01*
X488509Y38465D01*
X488551Y38483D01*
X488596Y38493D01*
X488663Y38533D01*
X488734Y38565D01*
X488768Y38596D01*
X488807Y38619D01*
X488858Y38678D01*
X488915Y38731D01*
X488937Y38771D01*
X488967Y38806D01*
X488996Y38879D01*
X489033Y38947D01*
X489042Y38992D01*
X489059Y39034D01*
X489074Y39170D01*
X489077Y39189D01*
X489076Y39194D01*
X489077Y39201D01*
X489077Y310799D01*
X489070Y310844D01*
X489072Y310890D01*
X489050Y310965D01*
X489038Y311042D01*
X489016Y311082D01*
X489003Y311126D01*
X488959Y311190D01*
X488922Y311259D01*
X488889Y311291D01*
X488863Y311328D01*
X488800Y311375D01*
X488744Y311428D01*
X488702Y311448D01*
X488666Y311475D01*
X488592Y311499D01*
X488521Y311532D01*
X488475Y311537D01*
X488432Y311551D01*
X488354Y311550D01*
X488277Y311559D01*
X488232Y311549D01*
X488186Y311549D01*
X488054Y311511D01*
X488036Y311507D01*
X488032Y311504D01*
X488025Y311502D01*
X484010Y309839D01*
X475990Y309839D01*
X468580Y312909D01*
X462909Y318580D01*
X459839Y325990D01*
X459839Y334010D01*
X461502Y338025D01*
X461513Y338069D01*
X461532Y338111D01*
X461541Y338188D01*
X461558Y338264D01*
X461554Y338310D01*
X461559Y338355D01*
X461543Y338432D01*
X461535Y338509D01*
X461517Y338551D01*
X461507Y338596D01*
X461467Y338663D01*
X461435Y338734D01*
X461404Y338768D01*
X461381Y338807D01*
X461322Y338858D01*
X461269Y338915D01*
X461229Y338937D01*
X461194Y338967D01*
X461121Y338996D01*
X461053Y339033D01*
X461008Y339042D01*
X460966Y339059D01*
X460830Y339074D01*
X460811Y339077D01*
X460806Y339076D01*
X460799Y339077D01*
X346733Y339077D01*
X346662Y339066D01*
X346590Y339064D01*
X346541Y339046D01*
X346490Y339038D01*
X346426Y339004D01*
X346359Y338979D01*
X346318Y338947D01*
X346272Y338922D01*
X346223Y338870D01*
X346167Y338826D01*
X346139Y338782D01*
X346103Y338744D01*
X346073Y338679D01*
X346034Y338619D01*
X346021Y338568D01*
X345999Y338521D01*
X345991Y338450D01*
X345974Y338380D01*
X345978Y338328D01*
X345972Y338277D01*
X345988Y338206D01*
X345993Y338135D01*
X346013Y338087D01*
X346025Y338036D01*
X346061Y337975D01*
X346089Y337909D01*
X346134Y337853D01*
X346151Y337825D01*
X346169Y337810D01*
X346194Y337778D01*
X347442Y336530D01*
X353294Y330678D01*
X353368Y330625D01*
X353438Y330565D01*
X353468Y330553D01*
X353494Y330534D01*
X353581Y330507D01*
X353666Y330473D01*
X353707Y330469D01*
X353729Y330462D01*
X353761Y330463D01*
X353833Y330455D01*
X395140Y330455D01*
X395230Y330469D01*
X395321Y330477D01*
X395350Y330489D01*
X395382Y330494D01*
X395463Y330537D01*
X395547Y330573D01*
X395579Y330599D01*
X395600Y330610D01*
X395622Y330633D01*
X395678Y330678D01*
X396891Y331891D01*
X399879Y333129D01*
X416321Y333129D01*
X419309Y331891D01*
X421595Y329605D01*
X422833Y326617D01*
X422833Y323383D01*
X421595Y320395D01*
X419309Y318109D01*
X418923Y317949D01*
X418841Y317898D01*
X418755Y317852D01*
X418737Y317833D01*
X418714Y317820D01*
X418652Y317745D01*
X418585Y317674D01*
X418574Y317650D01*
X418558Y317630D01*
X418523Y317539D01*
X418482Y317451D01*
X418479Y317425D01*
X418469Y317401D01*
X418465Y317303D01*
X418455Y317207D01*
X418460Y317181D01*
X418459Y317155D01*
X418486Y317061D01*
X418507Y316966D01*
X418520Y316944D01*
X418527Y316919D01*
X418583Y316839D01*
X418633Y316755D01*
X418653Y316738D01*
X418668Y316717D01*
X418746Y316658D01*
X418820Y316595D01*
X418844Y316585D01*
X418865Y316570D01*
X418958Y316540D01*
X419048Y316503D01*
X419080Y316500D01*
X419099Y316494D01*
X419132Y316494D01*
X419215Y316485D01*
X428955Y316485D01*
X486919Y258521D01*
X486919Y241605D01*
X484612Y239298D01*
X438247Y192933D01*
X436850Y191536D01*
X436797Y191462D01*
X436737Y191392D01*
X436725Y191362D01*
X436706Y191336D01*
X436679Y191249D01*
X436645Y191164D01*
X436641Y191123D01*
X436634Y191101D01*
X436635Y191069D01*
X436627Y190997D01*
X436627Y175305D01*
X436646Y175189D01*
X436664Y175070D01*
X436666Y175066D01*
X436666Y175062D01*
X436722Y174958D01*
X436777Y174852D01*
X436780Y174849D01*
X436782Y174845D01*
X436868Y174763D01*
X436953Y174680D01*
X436957Y174679D01*
X436960Y174676D01*
X437068Y174626D01*
X437175Y174574D01*
X437179Y174574D01*
X437183Y174572D01*
X437301Y174559D01*
X437419Y174545D01*
X437424Y174545D01*
X437427Y174545D01*
X437441Y174548D01*
X437585Y174570D01*
X437626Y174581D01*
X443477Y174581D01*
X443477Y165762D01*
X443480Y165742D01*
X443478Y165723D01*
X443500Y165621D01*
X443517Y165519D01*
X443526Y165502D01*
X443530Y165482D01*
X443583Y165393D01*
X443632Y165302D01*
X443646Y165288D01*
X443656Y165271D01*
X443735Y165204D01*
X443810Y165133D01*
X443828Y165124D01*
X443843Y165111D01*
X443939Y165073D01*
X444033Y165029D01*
X444053Y165027D01*
X444071Y165019D01*
X444238Y165001D01*
X445001Y165001D01*
X445001Y164999D01*
X444238Y164999D01*
X444218Y164996D01*
X444199Y164998D01*
X444097Y164976D01*
X443995Y164959D01*
X443978Y164950D01*
X443958Y164946D01*
X443869Y164893D01*
X443778Y164844D01*
X443764Y164830D01*
X443747Y164820D01*
X443680Y164741D01*
X443609Y164666D01*
X443600Y164648D01*
X443587Y164633D01*
X443548Y164537D01*
X443505Y164443D01*
X443503Y164423D01*
X443495Y164405D01*
X443477Y164238D01*
X443477Y155419D01*
X437626Y155419D01*
X436979Y155592D01*
X436400Y155927D01*
X436123Y156204D01*
X436107Y156216D01*
X436094Y156231D01*
X436007Y156287D01*
X435923Y156348D01*
X435904Y156354D01*
X435887Y156364D01*
X435787Y156390D01*
X435688Y156420D01*
X435668Y156420D01*
X435649Y156424D01*
X435546Y156416D01*
X435442Y156414D01*
X435423Y156407D01*
X435403Y156405D01*
X435308Y156365D01*
X435211Y156329D01*
X435195Y156317D01*
X435177Y156309D01*
X435046Y156204D01*
X434320Y155478D01*
X375869Y97027D01*
X301001Y97027D01*
X300930Y97016D01*
X300858Y97014D01*
X300809Y96996D01*
X300758Y96988D01*
X300694Y96954D01*
X300627Y96929D01*
X300586Y96897D01*
X300540Y96872D01*
X300491Y96820D01*
X300435Y96776D01*
X300407Y96732D01*
X300371Y96694D01*
X300341Y96629D01*
X300302Y96569D01*
X300289Y96518D01*
X300267Y96471D01*
X300259Y96400D01*
X300242Y96330D01*
X300246Y96278D01*
X300240Y96227D01*
X300256Y96156D01*
X300261Y96085D01*
X300281Y96037D01*
X300293Y95986D01*
X300329Y95925D01*
X300357Y95859D01*
X300402Y95803D01*
X300419Y95775D01*
X300437Y95760D01*
X300462Y95728D01*
X302738Y93452D01*
X309634Y86556D01*
X309708Y86503D01*
X309778Y86443D01*
X309808Y86431D01*
X309834Y86412D01*
X309921Y86385D01*
X310006Y86351D01*
X310047Y86347D01*
X310069Y86340D01*
X310101Y86341D01*
X310173Y86333D01*
X312332Y86333D01*
X312936Y85729D01*
X312994Y85687D01*
X313046Y85638D01*
X313093Y85616D01*
X313135Y85586D01*
X313204Y85564D01*
X313269Y85534D01*
X313321Y85529D01*
X313371Y85513D01*
X313442Y85515D01*
X313513Y85507D01*
X313564Y85518D01*
X313616Y85520D01*
X313684Y85544D01*
X313754Y85559D01*
X313799Y85586D01*
X313847Y85604D01*
X313903Y85649D01*
X313965Y85686D01*
X313999Y85725D01*
X314039Y85758D01*
X314078Y85818D01*
X314125Y85873D01*
X314144Y85921D01*
X314172Y85965D01*
X314190Y86034D01*
X314217Y86101D01*
X314225Y86172D01*
X314233Y86203D01*
X314231Y86226D01*
X314235Y86267D01*
X314235Y87704D01*
X315463Y90668D01*
X317732Y92937D01*
X320696Y94165D01*
X323904Y94165D01*
X326868Y92937D01*
X329137Y90668D01*
X330306Y87847D01*
X330367Y87747D01*
X330427Y87647D01*
X330432Y87643D01*
X330435Y87638D01*
X330525Y87563D01*
X330614Y87487D01*
X330620Y87485D01*
X330625Y87481D01*
X330733Y87439D01*
X330842Y87395D01*
X330850Y87394D01*
X330854Y87393D01*
X330873Y87392D01*
X331009Y87377D01*
X336753Y87377D01*
X338336Y85794D01*
X338394Y85752D01*
X338446Y85703D01*
X338493Y85681D01*
X338535Y85651D01*
X338604Y85630D01*
X338669Y85599D01*
X338721Y85594D01*
X338771Y85578D01*
X338842Y85580D01*
X338913Y85572D01*
X338964Y85583D01*
X339016Y85585D01*
X339084Y85609D01*
X339154Y85625D01*
X339199Y85651D01*
X339247Y85669D01*
X339303Y85714D01*
X339365Y85751D01*
X339399Y85790D01*
X339439Y85823D01*
X339478Y85883D01*
X339525Y85938D01*
X339544Y85986D01*
X339572Y86030D01*
X339590Y86099D01*
X339617Y86166D01*
X339625Y86237D01*
X339633Y86268D01*
X339631Y86292D01*
X339635Y86333D01*
X339635Y87704D01*
X340863Y90668D01*
X343132Y92937D01*
X346096Y94165D01*
X349304Y94165D01*
X352268Y92937D01*
X354537Y90668D01*
X354548Y90641D01*
X354610Y90541D01*
X354670Y90441D01*
X354675Y90437D01*
X354678Y90432D01*
X354768Y90357D01*
X354857Y90281D01*
X354863Y90279D01*
X354867Y90275D01*
X354976Y90233D01*
X355085Y90189D01*
X355092Y90188D01*
X355097Y90187D01*
X355115Y90186D01*
X355252Y90171D01*
X403341Y90171D01*
X403432Y90185D01*
X403522Y90193D01*
X403552Y90205D01*
X403584Y90210D01*
X403665Y90253D01*
X403749Y90289D01*
X403781Y90315D01*
X403802Y90326D01*
X403824Y90349D01*
X403880Y90394D01*
X409245Y95759D01*
X459689Y95759D01*
X466660Y88788D01*
X466734Y88735D01*
X466804Y88675D01*
X466834Y88663D01*
X466860Y88644D01*
X466947Y88617D01*
X467032Y88583D01*
X467073Y88579D01*
X467095Y88572D01*
X467127Y88573D01*
X467199Y88565D01*
X478072Y88565D01*
X478965Y87672D01*
X478965Y72328D01*
X478072Y71435D01*
X462728Y71435D01*
X461835Y72328D01*
X461835Y83237D01*
X461829Y83274D01*
X461830Y83281D01*
X461822Y83319D01*
X461821Y83328D01*
X461813Y83418D01*
X461801Y83448D01*
X461796Y83480D01*
X461781Y83508D01*
X461778Y83521D01*
X461749Y83569D01*
X461717Y83645D01*
X461691Y83677D01*
X461680Y83698D01*
X461662Y83715D01*
X461652Y83732D01*
X461637Y83745D01*
X461612Y83776D01*
X456966Y88422D01*
X456892Y88475D01*
X456822Y88535D01*
X456792Y88547D01*
X456766Y88566D01*
X456679Y88593D01*
X456594Y88627D01*
X456553Y88631D01*
X456531Y88638D01*
X456499Y88637D01*
X456427Y88645D01*
X455232Y88645D01*
X455116Y88626D01*
X454997Y88608D01*
X454994Y88606D01*
X454990Y88606D01*
X454885Y88550D01*
X454779Y88495D01*
X454776Y88492D01*
X454772Y88490D01*
X454690Y88404D01*
X454607Y88319D01*
X454606Y88315D01*
X454603Y88312D01*
X454553Y88204D01*
X454501Y88097D01*
X454501Y88093D01*
X454499Y88089D01*
X454486Y87971D01*
X454472Y87853D01*
X454472Y87848D01*
X454472Y87845D01*
X454475Y87831D01*
X454497Y87687D01*
X454581Y87374D01*
X454581Y81523D01*
X446523Y81523D01*
X446523Y87884D01*
X446520Y87904D01*
X446522Y87923D01*
X446500Y88025D01*
X446483Y88127D01*
X446474Y88144D01*
X446470Y88164D01*
X446417Y88253D01*
X446368Y88344D01*
X446354Y88358D01*
X446344Y88375D01*
X446265Y88442D01*
X446190Y88514D01*
X446172Y88522D01*
X446157Y88535D01*
X446061Y88574D01*
X445967Y88617D01*
X445947Y88619D01*
X445929Y88627D01*
X445762Y88645D01*
X444238Y88645D01*
X444218Y88642D01*
X444199Y88644D01*
X444097Y88622D01*
X443995Y88606D01*
X443978Y88596D01*
X443958Y88592D01*
X443869Y88539D01*
X443778Y88490D01*
X443764Y88476D01*
X443747Y88466D01*
X443680Y88387D01*
X443609Y88312D01*
X443600Y88294D01*
X443587Y88279D01*
X443548Y88183D01*
X443505Y88089D01*
X443503Y88069D01*
X443495Y88051D01*
X443477Y87884D01*
X443477Y81523D01*
X435419Y81523D01*
X435419Y87374D01*
X435503Y87687D01*
X435515Y87806D01*
X435528Y87923D01*
X435527Y87928D01*
X435527Y87932D01*
X435501Y88047D01*
X435476Y88164D01*
X435473Y88167D01*
X435473Y88171D01*
X435411Y88273D01*
X435349Y88375D01*
X435346Y88378D01*
X435344Y88381D01*
X435253Y88458D01*
X435163Y88535D01*
X435159Y88536D01*
X435156Y88539D01*
X435045Y88582D01*
X434934Y88627D01*
X434929Y88627D01*
X434926Y88629D01*
X434913Y88629D01*
X434768Y88645D01*
X428926Y88645D01*
X428906Y88642D01*
X428887Y88644D01*
X428785Y88622D01*
X428683Y88606D01*
X428666Y88596D01*
X428646Y88592D01*
X428557Y88539D01*
X428466Y88490D01*
X428452Y88476D01*
X428435Y88466D01*
X428368Y88387D01*
X428296Y88312D01*
X428288Y88294D01*
X428275Y88279D01*
X428236Y88183D01*
X428193Y88089D01*
X428191Y88069D01*
X428183Y88051D01*
X428165Y87884D01*
X428165Y72328D01*
X427272Y71435D01*
X411928Y71435D01*
X411035Y72328D01*
X411035Y85651D01*
X411024Y85722D01*
X411022Y85794D01*
X411004Y85843D01*
X410996Y85894D01*
X410962Y85958D01*
X410937Y86025D01*
X410905Y86066D01*
X410880Y86112D01*
X410828Y86161D01*
X410784Y86217D01*
X410740Y86245D01*
X410702Y86281D01*
X410637Y86311D01*
X410577Y86350D01*
X410526Y86363D01*
X410479Y86385D01*
X410408Y86393D01*
X410338Y86410D01*
X410286Y86406D01*
X410235Y86412D01*
X410164Y86396D01*
X410093Y86391D01*
X410045Y86371D01*
X409994Y86359D01*
X409933Y86323D01*
X409867Y86295D01*
X409811Y86250D01*
X409783Y86233D01*
X409768Y86215D01*
X409736Y86190D01*
X406603Y83057D01*
X355677Y83057D01*
X355563Y83038D01*
X355447Y83021D01*
X355441Y83019D01*
X355435Y83018D01*
X355332Y82963D01*
X355227Y82910D01*
X355223Y82905D01*
X355217Y82902D01*
X355138Y82818D01*
X355055Y82734D01*
X355051Y82728D01*
X355048Y82724D01*
X355040Y82707D01*
X354974Y82587D01*
X354647Y81797D01*
X354636Y81753D01*
X354617Y81711D01*
X354609Y81634D01*
X354591Y81558D01*
X354595Y81512D01*
X354590Y81467D01*
X354607Y81390D01*
X354614Y81313D01*
X354633Y81271D01*
X354642Y81226D01*
X354682Y81159D01*
X354714Y81088D01*
X354745Y81054D01*
X354768Y81015D01*
X354828Y80964D01*
X354880Y80907D01*
X354920Y80885D01*
X354955Y80855D01*
X355028Y80826D01*
X355096Y80789D01*
X355141Y80780D01*
X355184Y80763D01*
X355319Y80748D01*
X355338Y80745D01*
X355343Y80746D01*
X355350Y80745D01*
X357036Y80745D01*
X360145Y77636D01*
X360145Y73240D01*
X357036Y70131D01*
X352640Y70131D01*
X351113Y71658D01*
X351039Y71711D01*
X350969Y71771D01*
X350939Y71783D01*
X350913Y71802D01*
X350826Y71829D01*
X350741Y71863D01*
X350700Y71867D01*
X350678Y71874D01*
X350646Y71873D01*
X350575Y71881D01*
X342189Y71881D01*
X341886Y72184D01*
X341828Y72226D01*
X341776Y72275D01*
X341729Y72297D01*
X341687Y72327D01*
X341618Y72348D01*
X341553Y72379D01*
X341501Y72384D01*
X341451Y72400D01*
X341380Y72398D01*
X341309Y72406D01*
X341258Y72395D01*
X341206Y72393D01*
X341138Y72369D01*
X341068Y72353D01*
X341023Y72327D01*
X340975Y72309D01*
X340919Y72264D01*
X340857Y72227D01*
X340823Y72188D01*
X340783Y72155D01*
X340744Y72095D01*
X340697Y72040D01*
X340678Y71992D01*
X340650Y71948D01*
X340632Y71879D01*
X340605Y71812D01*
X340597Y71741D01*
X340589Y71710D01*
X340591Y71686D01*
X340587Y71645D01*
X340587Y70446D01*
X337478Y67337D01*
X333082Y67337D01*
X331555Y68864D01*
X331481Y68917D01*
X331411Y68977D01*
X331381Y68989D01*
X331355Y69008D01*
X331268Y69035D01*
X331183Y69069D01*
X331142Y69073D01*
X331120Y69080D01*
X331088Y69079D01*
X331017Y69087D01*
X326953Y69087D01*
X326856Y69072D01*
X326759Y69062D01*
X326735Y69052D01*
X326710Y69048D01*
X326624Y69002D01*
X326535Y68962D01*
X326515Y68945D01*
X326492Y68932D01*
X326425Y68862D01*
X326354Y68796D01*
X326341Y68773D01*
X326323Y68754D01*
X326282Y68666D01*
X326235Y68580D01*
X326230Y68555D01*
X326219Y68531D01*
X326209Y68434D01*
X326191Y68338D01*
X326195Y68312D01*
X326192Y68287D01*
X326213Y68192D01*
X326227Y68095D01*
X326239Y68072D01*
X326245Y68046D01*
X326295Y67963D01*
X326339Y67876D01*
X326357Y67857D01*
X326371Y67835D01*
X326445Y67772D01*
X326514Y67704D01*
X326543Y67688D01*
X326558Y67675D01*
X326588Y67663D01*
X326661Y67623D01*
X326868Y67537D01*
X329137Y65268D01*
X330365Y62304D01*
X330365Y59096D01*
X329137Y56132D01*
X326868Y53863D01*
X323904Y52635D01*
X320696Y52635D01*
X317732Y53863D01*
X315463Y56132D01*
X314921Y57441D01*
X314859Y57541D01*
X314799Y57641D01*
X314794Y57645D01*
X314791Y57650D01*
X314701Y57725D01*
X314612Y57801D01*
X314606Y57803D01*
X314602Y57807D01*
X314493Y57849D01*
X314384Y57893D01*
X314376Y57894D01*
X314372Y57895D01*
X314354Y57896D01*
X314217Y57911D01*
X277927Y57911D01*
X266974Y68864D01*
X266900Y68917D01*
X266830Y68977D01*
X266800Y68989D01*
X266774Y69008D01*
X266687Y69035D01*
X266602Y69069D01*
X266561Y69073D01*
X266539Y69080D01*
X266507Y69079D01*
X266435Y69087D01*
X248993Y69087D01*
X248922Y69076D01*
X248850Y69074D01*
X248801Y69056D01*
X248750Y69048D01*
X248687Y69014D01*
X248619Y68989D01*
X248578Y68957D01*
X248532Y68932D01*
X248483Y68880D01*
X248427Y68836D01*
X248399Y68792D01*
X248363Y68754D01*
X248333Y68689D01*
X248294Y68629D01*
X248281Y68578D01*
X248259Y68531D01*
X248252Y68460D01*
X248234Y68390D01*
X248238Y68338D01*
X248232Y68287D01*
X248248Y68216D01*
X248253Y68145D01*
X248274Y68097D01*
X248285Y68046D01*
X248321Y67985D01*
X248350Y67919D01*
X248394Y67863D01*
X248411Y67835D01*
X248429Y67820D01*
X248454Y67788D01*
X249753Y66489D01*
X250747Y65001D01*
X251432Y63349D01*
X251656Y62223D01*
X243462Y62223D01*
X243442Y62220D01*
X243423Y62222D01*
X243321Y62200D01*
X243219Y62183D01*
X243202Y62174D01*
X243182Y62170D01*
X243093Y62117D01*
X243002Y62068D01*
X242988Y62054D01*
X242971Y62044D01*
X242904Y61965D01*
X242833Y61890D01*
X242824Y61872D01*
X242811Y61857D01*
X242773Y61761D01*
X242729Y61667D01*
X242727Y61647D01*
X242719Y61629D01*
X242701Y61462D01*
X242701Y60699D01*
X242699Y60699D01*
X242699Y61462D01*
X242696Y61482D01*
X242698Y61501D01*
X242676Y61603D01*
X242659Y61705D01*
X242650Y61722D01*
X242646Y61742D01*
X242593Y61831D01*
X242544Y61922D01*
X242530Y61936D01*
X242520Y61953D01*
X242441Y62020D01*
X242366Y62091D01*
X242348Y62100D01*
X242333Y62113D01*
X242237Y62152D01*
X242143Y62195D01*
X242123Y62197D01*
X242105Y62205D01*
X241938Y62223D01*
X233623Y62223D01*
X233601Y62297D01*
X233588Y62316D01*
X233580Y62338D01*
X233517Y62416D01*
X233459Y62498D01*
X233441Y62512D01*
X233426Y62530D01*
X233342Y62584D01*
X233261Y62643D01*
X233239Y62650D01*
X233219Y62663D01*
X233122Y62687D01*
X233026Y62717D01*
X233003Y62717D01*
X232981Y62723D01*
X232881Y62715D01*
X232780Y62713D01*
X232759Y62705D01*
X232736Y62704D01*
X232644Y62664D01*
X232549Y62631D01*
X232531Y62616D01*
X232509Y62607D01*
X232378Y62502D01*
X230094Y60218D01*
X227787Y57911D01*
X225383Y57911D01*
X225268Y57892D01*
X225152Y57875D01*
X225146Y57873D01*
X225140Y57872D01*
X225037Y57817D01*
X224933Y57764D01*
X224928Y57759D01*
X224923Y57756D01*
X224843Y57672D01*
X224760Y57588D01*
X224757Y57582D01*
X224753Y57578D01*
X224745Y57561D01*
X224679Y57441D01*
X224137Y56132D01*
X221868Y53863D01*
X218904Y52635D01*
X215696Y52635D01*
X212732Y53863D01*
X210463Y56132D01*
X209921Y57441D01*
X209859Y57541D01*
X209799Y57641D01*
X209794Y57645D01*
X209791Y57650D01*
X209701Y57725D01*
X209612Y57801D01*
X209606Y57803D01*
X209602Y57807D01*
X209493Y57849D01*
X209384Y57893D01*
X209376Y57894D01*
X209372Y57895D01*
X209354Y57896D01*
X209217Y57911D01*
X208077Y57911D01*
X197124Y68864D01*
X197050Y68917D01*
X196980Y68977D01*
X196950Y68989D01*
X196924Y69008D01*
X196837Y69035D01*
X196752Y69069D01*
X196711Y69073D01*
X196689Y69080D01*
X196657Y69079D01*
X196585Y69087D01*
X143993Y69087D01*
X143922Y69076D01*
X143850Y69074D01*
X143801Y69056D01*
X143750Y69048D01*
X143687Y69014D01*
X143619Y68989D01*
X143578Y68957D01*
X143532Y68932D01*
X143483Y68880D01*
X143427Y68836D01*
X143399Y68792D01*
X143363Y68754D01*
X143333Y68689D01*
X143294Y68629D01*
X143281Y68578D01*
X143259Y68531D01*
X143252Y68460D01*
X143234Y68390D01*
X143238Y68338D01*
X143232Y68287D01*
X143248Y68216D01*
X143253Y68145D01*
X143274Y68097D01*
X143285Y68046D01*
X143321Y67985D01*
X143350Y67919D01*
X143394Y67863D01*
X143411Y67835D01*
X143429Y67820D01*
X143454Y67788D01*
X144753Y66489D01*
X145747Y65001D01*
X146432Y63349D01*
X146656Y62223D01*
X138462Y62223D01*
X138442Y62220D01*
X138423Y62222D01*
X138321Y62200D01*
X138219Y62183D01*
X138202Y62174D01*
X138182Y62170D01*
X138093Y62117D01*
X138002Y62068D01*
X137988Y62054D01*
X137971Y62044D01*
X137904Y61965D01*
X137833Y61890D01*
X137824Y61872D01*
X137811Y61857D01*
X137773Y61761D01*
X137729Y61667D01*
X137727Y61647D01*
X137719Y61629D01*
X137701Y61462D01*
X137701Y60699D01*
X137699Y60699D01*
X137699Y61462D01*
X137696Y61482D01*
X137698Y61501D01*
X137676Y61603D01*
X137659Y61705D01*
X137650Y61722D01*
X137646Y61742D01*
X137593Y61831D01*
X137544Y61922D01*
X137530Y61936D01*
X137520Y61953D01*
X137441Y62020D01*
X137366Y62091D01*
X137348Y62100D01*
X137333Y62113D01*
X137237Y62152D01*
X137143Y62195D01*
X137123Y62197D01*
X137105Y62205D01*
X136938Y62223D01*
X128744Y62223D01*
X128968Y63349D01*
X129653Y65001D01*
X130647Y66489D01*
X131946Y67788D01*
X131988Y67846D01*
X132037Y67898D01*
X132059Y67945D01*
X132089Y67987D01*
X132110Y68056D01*
X132141Y68121D01*
X132146Y68173D01*
X132162Y68223D01*
X132160Y68294D01*
X132168Y68365D01*
X132157Y68416D01*
X132155Y68468D01*
X132131Y68536D01*
X132115Y68606D01*
X132089Y68651D01*
X132071Y68699D01*
X132026Y68755D01*
X131989Y68817D01*
X131950Y68851D01*
X131917Y68891D01*
X131857Y68930D01*
X131802Y68977D01*
X131754Y68996D01*
X131710Y69024D01*
X131641Y69042D01*
X131574Y69069D01*
X131503Y69077D01*
X131472Y69085D01*
X131448Y69083D01*
X131407Y69087D01*
X127519Y69087D01*
X127428Y69073D01*
X127338Y69065D01*
X127308Y69053D01*
X127276Y69048D01*
X127195Y69005D01*
X127111Y68969D01*
X127079Y68943D01*
X127058Y68932D01*
X127036Y68909D01*
X126980Y68864D01*
X120588Y62472D01*
X120535Y62398D01*
X120507Y62366D01*
X120496Y62355D01*
X120495Y62352D01*
X120475Y62328D01*
X120463Y62298D01*
X120444Y62272D01*
X120417Y62185D01*
X120415Y62180D01*
X120393Y62131D01*
X120392Y62121D01*
X120383Y62100D01*
X120379Y62059D01*
X120372Y62037D01*
X120373Y62005D01*
X120365Y61933D01*
X120365Y59096D01*
X119137Y56132D01*
X116868Y53863D01*
X113904Y52635D01*
X110696Y52635D01*
X107732Y53863D01*
X105463Y56132D01*
X104235Y59096D01*
X104235Y62304D01*
X105463Y65268D01*
X107732Y67537D01*
X110696Y68765D01*
X113904Y68765D01*
X115497Y68105D01*
X115610Y68078D01*
X115724Y68050D01*
X115730Y68050D01*
X115736Y68049D01*
X115853Y68060D01*
X115969Y68069D01*
X115975Y68071D01*
X115981Y68072D01*
X116088Y68120D01*
X116195Y68165D01*
X116201Y68170D01*
X116206Y68172D01*
X116219Y68185D01*
X116326Y68270D01*
X124257Y76201D01*
X199847Y76201D01*
X202154Y73894D01*
X210083Y65965D01*
X210099Y65953D01*
X210112Y65938D01*
X210199Y65882D01*
X210283Y65821D01*
X210302Y65816D01*
X210319Y65805D01*
X210419Y65779D01*
X210518Y65749D01*
X210538Y65750D01*
X210557Y65745D01*
X210660Y65753D01*
X210764Y65755D01*
X210783Y65762D01*
X210802Y65764D01*
X210897Y65804D01*
X210995Y65840D01*
X211010Y65852D01*
X211029Y65860D01*
X211160Y65965D01*
X212732Y67537D01*
X215696Y68765D01*
X218904Y68765D01*
X221868Y67537D01*
X224072Y65333D01*
X224089Y65321D01*
X224101Y65306D01*
X224188Y65250D01*
X224272Y65189D01*
X224291Y65184D01*
X224308Y65173D01*
X224408Y65147D01*
X224507Y65117D01*
X224527Y65118D01*
X224546Y65113D01*
X224649Y65121D01*
X224753Y65123D01*
X224772Y65130D01*
X224792Y65132D01*
X224886Y65172D01*
X224984Y65208D01*
X225000Y65220D01*
X225018Y65228D01*
X225149Y65333D01*
X230398Y70582D01*
X230440Y70640D01*
X230489Y70692D01*
X230511Y70739D01*
X230541Y70781D01*
X230562Y70850D01*
X230593Y70915D01*
X230598Y70967D01*
X230614Y71017D01*
X230612Y71088D01*
X230620Y71159D01*
X230609Y71210D01*
X230607Y71262D01*
X230583Y71330D01*
X230567Y71400D01*
X230541Y71444D01*
X230523Y71493D01*
X230478Y71549D01*
X230441Y71611D01*
X230402Y71645D01*
X230369Y71685D01*
X230309Y71724D01*
X230254Y71771D01*
X230206Y71790D01*
X230162Y71818D01*
X230093Y71836D01*
X230026Y71863D01*
X229955Y71871D01*
X229924Y71879D01*
X229900Y71877D01*
X229859Y71881D01*
X210871Y71881D01*
X202712Y80040D01*
X202638Y80093D01*
X202568Y80153D01*
X202538Y80165D01*
X202512Y80184D01*
X202425Y80211D01*
X202340Y80245D01*
X202299Y80249D01*
X202277Y80256D01*
X202245Y80255D01*
X202173Y80263D01*
X143584Y80263D01*
X143494Y80249D01*
X143403Y80241D01*
X143373Y80229D01*
X143341Y80224D01*
X143260Y80181D01*
X143177Y80145D01*
X143144Y80119D01*
X143124Y80108D01*
X143102Y80085D01*
X143046Y80040D01*
X142268Y79263D01*
X139304Y78035D01*
X136096Y78035D01*
X133132Y79263D01*
X130863Y81532D01*
X129635Y84496D01*
X129635Y87704D01*
X129778Y88048D01*
X129804Y88161D01*
X129833Y88275D01*
X129832Y88281D01*
X129834Y88287D01*
X129823Y88404D01*
X129814Y88520D01*
X129811Y88526D01*
X129811Y88532D01*
X129763Y88640D01*
X129717Y88746D01*
X129713Y88752D01*
X129711Y88757D01*
X129698Y88771D01*
X129613Y88877D01*
X124480Y94010D01*
X124406Y94063D01*
X124336Y94123D01*
X124306Y94135D01*
X124280Y94154D01*
X124193Y94181D01*
X124108Y94215D01*
X124067Y94219D01*
X124045Y94226D01*
X124013Y94225D01*
X123941Y94233D01*
X117410Y94233D01*
X117339Y94222D01*
X117267Y94220D01*
X117218Y94202D01*
X117167Y94194D01*
X117104Y94160D01*
X117036Y94135D01*
X116996Y94103D01*
X116950Y94078D01*
X116900Y94026D01*
X116844Y93982D01*
X116816Y93938D01*
X116780Y93900D01*
X116750Y93835D01*
X116711Y93775D01*
X116699Y93724D01*
X116677Y93677D01*
X116669Y93606D01*
X116651Y93536D01*
X116655Y93484D01*
X116650Y93433D01*
X116665Y93362D01*
X116670Y93291D01*
X116691Y93243D01*
X116702Y93192D01*
X116739Y93131D01*
X116767Y93065D01*
X116811Y93009D01*
X116828Y92981D01*
X116846Y92966D01*
X116871Y92934D01*
X119137Y90668D01*
X120365Y87704D01*
X120365Y84496D01*
X119137Y81532D01*
X116868Y79263D01*
X113904Y78035D01*
X110696Y78035D01*
X107732Y79263D01*
X105463Y81532D01*
X104235Y84496D01*
X104235Y87704D01*
X105463Y90668D01*
X107729Y92934D01*
X107770Y92992D01*
X107820Y93044D01*
X107842Y93091D01*
X107872Y93133D01*
X107893Y93202D01*
X107923Y93267D01*
X107929Y93319D01*
X107944Y93369D01*
X107943Y93440D01*
X107950Y93511D01*
X107939Y93562D01*
X107938Y93614D01*
X107913Y93682D01*
X107898Y93752D01*
X107871Y93797D01*
X107854Y93845D01*
X107809Y93901D01*
X107772Y93963D01*
X107732Y93997D01*
X107700Y94037D01*
X107668Y94058D01*
X87114Y114612D01*
X87040Y114665D01*
X86970Y114725D01*
X86940Y114737D01*
X86914Y114756D01*
X86827Y114783D01*
X86742Y114817D01*
X86701Y114821D01*
X86679Y114828D01*
X86647Y114827D01*
X86575Y114835D01*
X84416Y114835D01*
X81307Y117944D01*
X81307Y122340D01*
X84416Y125449D01*
X88409Y125449D01*
X88480Y125460D01*
X88552Y125462D01*
X88601Y125480D01*
X88652Y125488D01*
X88716Y125522D01*
X88783Y125547D01*
X88824Y125579D01*
X88870Y125604D01*
X88919Y125656D01*
X88975Y125700D01*
X89003Y125744D01*
X89039Y125782D01*
X89069Y125847D01*
X89108Y125907D01*
X89121Y125958D01*
X89143Y126005D01*
X89151Y126076D01*
X89168Y126146D01*
X89164Y126198D01*
X89170Y126249D01*
X89154Y126320D01*
X89149Y126391D01*
X89129Y126439D01*
X89117Y126490D01*
X89081Y126551D01*
X89053Y126617D01*
X89008Y126673D01*
X88991Y126701D01*
X88973Y126716D01*
X88948Y126748D01*
X77469Y138227D01*
X77469Y187949D01*
X77458Y188020D01*
X77456Y188092D01*
X77438Y188141D01*
X77430Y188192D01*
X77396Y188255D01*
X77371Y188323D01*
X77339Y188364D01*
X77314Y188410D01*
X77263Y188459D01*
X77218Y188515D01*
X77174Y188543D01*
X77136Y188579D01*
X77071Y188609D01*
X77011Y188648D01*
X76960Y188661D01*
X76913Y188683D01*
X76842Y188691D01*
X76772Y188708D01*
X76720Y188704D01*
X76669Y188710D01*
X76598Y188694D01*
X76527Y188689D01*
X76479Y188669D01*
X76428Y188657D01*
X76367Y188621D01*
X76301Y188593D01*
X76245Y188548D01*
X76217Y188531D01*
X76202Y188513D01*
X76170Y188488D01*
X45522Y157840D01*
X45480Y157782D01*
X45431Y157730D01*
X45409Y157683D01*
X45379Y157641D01*
X45358Y157572D01*
X45327Y157507D01*
X45322Y157455D01*
X45306Y157405D01*
X45308Y157334D01*
X45300Y157263D01*
X45311Y157212D01*
X45313Y157160D01*
X45337Y157092D01*
X45353Y157022D01*
X45379Y156978D01*
X45397Y156929D01*
X45442Y156873D01*
X45479Y156811D01*
X45518Y156777D01*
X45551Y156737D01*
X45611Y156698D01*
X45666Y156651D01*
X45714Y156632D01*
X45758Y156604D01*
X45827Y156586D01*
X45894Y156559D01*
X45965Y156551D01*
X45996Y156543D01*
X46020Y156545D01*
X46061Y156541D01*
X51177Y156541D01*
X51177Y146523D01*
X41159Y146523D01*
X41159Y151639D01*
X41148Y151710D01*
X41146Y151782D01*
X41128Y151831D01*
X41120Y151882D01*
X41086Y151945D01*
X41061Y152013D01*
X41029Y152054D01*
X41004Y152100D01*
X40953Y152149D01*
X40908Y152205D01*
X40864Y152233D01*
X40826Y152269D01*
X40761Y152299D01*
X40701Y152338D01*
X40650Y152351D01*
X40603Y152373D01*
X40532Y152381D01*
X40462Y152398D01*
X40410Y152394D01*
X40359Y152400D01*
X40288Y152384D01*
X40217Y152379D01*
X40169Y152359D01*
X40118Y152347D01*
X40057Y152311D01*
X39991Y152283D01*
X39935Y152238D01*
X39907Y152221D01*
X39892Y152203D01*
X39860Y152178D01*
X38048Y150366D01*
X37995Y150292D01*
X37935Y150222D01*
X37923Y150192D01*
X37904Y150166D01*
X37877Y150079D01*
X37843Y149994D01*
X37839Y149953D01*
X37832Y149931D01*
X37833Y149899D01*
X37825Y149827D01*
X37825Y135368D01*
X36932Y134475D01*
X18288Y134475D01*
X18268Y134472D01*
X18249Y134474D01*
X18147Y134452D01*
X18045Y134436D01*
X18028Y134426D01*
X18008Y134422D01*
X17919Y134369D01*
X17828Y134320D01*
X17814Y134306D01*
X17797Y134296D01*
X17730Y134217D01*
X17658Y134142D01*
X17650Y134124D01*
X17637Y134109D01*
X17598Y134013D01*
X17555Y133919D01*
X17553Y133899D01*
X17545Y133881D01*
X17527Y133714D01*
X17527Y86286D01*
X17530Y86266D01*
X17528Y86247D01*
X17550Y86145D01*
X17566Y86043D01*
X17576Y86026D01*
X17580Y86006D01*
X17633Y85917D01*
X17682Y85826D01*
X17696Y85812D01*
X17706Y85795D01*
X17785Y85728D01*
X17860Y85656D01*
X17878Y85648D01*
X17893Y85635D01*
X17989Y85596D01*
X18083Y85553D01*
X18103Y85551D01*
X18121Y85543D01*
X18288Y85525D01*
X36932Y85525D01*
X37825Y84632D01*
X37825Y68105D01*
X37839Y68014D01*
X37847Y67924D01*
X37859Y67894D01*
X37864Y67862D01*
X37907Y67781D01*
X37943Y67697D01*
X37969Y67665D01*
X37980Y67644D01*
X38003Y67622D01*
X38048Y67566D01*
X39860Y65754D01*
X39918Y65712D01*
X39970Y65663D01*
X40017Y65641D01*
X40059Y65611D01*
X40128Y65590D01*
X40193Y65559D01*
X40245Y65554D01*
X40295Y65538D01*
X40366Y65540D01*
X40437Y65532D01*
X40488Y65543D01*
X40540Y65545D01*
X40608Y65569D01*
X40678Y65585D01*
X40723Y65611D01*
X40771Y65629D01*
X40827Y65674D01*
X40889Y65711D01*
X40923Y65750D01*
X40963Y65783D01*
X41002Y65843D01*
X41049Y65898D01*
X41068Y65946D01*
X41096Y65990D01*
X41114Y66059D01*
X41141Y66126D01*
X41149Y66197D01*
X41157Y66228D01*
X41155Y66252D01*
X41159Y66293D01*
X41159Y73477D01*
X51177Y73477D01*
X51177Y63459D01*
X43993Y63459D01*
X43922Y63448D01*
X43850Y63446D01*
X43801Y63428D01*
X43750Y63420D01*
X43686Y63386D01*
X43619Y63361D01*
X43578Y63329D01*
X43532Y63304D01*
X43483Y63252D01*
X43427Y63208D01*
X43399Y63164D01*
X43363Y63126D01*
X43333Y63061D01*
X43294Y63001D01*
X43281Y62950D01*
X43259Y62903D01*
X43251Y62832D01*
X43234Y62762D01*
X43238Y62710D01*
X43232Y62659D01*
X43248Y62588D01*
X43253Y62517D01*
X43273Y62469D01*
X43285Y62418D01*
X43321Y62357D01*
X43349Y62291D01*
X43394Y62235D01*
X43411Y62207D01*
X43419Y62200D01*
X43421Y62197D01*
X43432Y62187D01*
X43454Y62160D01*
X65512Y40102D01*
X65586Y40049D01*
X65656Y39989D01*
X65686Y39977D01*
X65712Y39958D01*
X65799Y39931D01*
X65884Y39897D01*
X65925Y39893D01*
X65947Y39886D01*
X65979Y39887D01*
X66051Y39879D01*
X177093Y39879D01*
X177163Y39890D01*
X177235Y39892D01*
X177284Y39910D01*
X177335Y39918D01*
X177399Y39952D01*
X177466Y39977D01*
X177507Y40009D01*
X177553Y40034D01*
X177602Y40086D01*
X177658Y40130D01*
X177686Y40174D01*
X177722Y40212D01*
X177752Y40277D01*
X177791Y40337D01*
X177804Y40388D01*
X177826Y40435D01*
X177834Y40506D01*
X177851Y40576D01*
X177847Y40628D01*
X177853Y40679D01*
X177838Y40750D01*
X177832Y40821D01*
X177812Y40869D01*
X177801Y40920D01*
X177764Y40981D01*
X177736Y41047D01*
X177691Y41103D01*
X177674Y41131D01*
X177657Y41146D01*
X177631Y41178D01*
X176303Y42506D01*
X176303Y46902D01*
X179412Y50011D01*
X183808Y50011D01*
X185335Y48484D01*
X185409Y48431D01*
X185479Y48371D01*
X185509Y48359D01*
X185535Y48340D01*
X185622Y48313D01*
X185707Y48279D01*
X185748Y48275D01*
X185770Y48268D01*
X185802Y48269D01*
X185873Y48261D01*
X232907Y48261D01*
X232998Y48275D01*
X233088Y48283D01*
X233118Y48295D01*
X233150Y48300D01*
X233231Y48343D01*
X233315Y48379D01*
X233347Y48405D01*
X233368Y48416D01*
X233390Y48439D01*
X233446Y48484D01*
X237273Y52311D01*
X237328Y52387D01*
X237389Y52460D01*
X237399Y52487D01*
X237416Y52511D01*
X237444Y52601D01*
X237479Y52689D01*
X237480Y52718D01*
X237489Y52746D01*
X237486Y52840D01*
X237491Y52934D01*
X237483Y52962D01*
X237482Y52992D01*
X237450Y53080D01*
X237424Y53171D01*
X237408Y53195D01*
X237398Y53223D01*
X237339Y53296D01*
X237286Y53374D01*
X237258Y53398D01*
X237244Y53415D01*
X237217Y53432D01*
X237157Y53482D01*
X236911Y53647D01*
X235647Y54911D01*
X234653Y56399D01*
X233968Y58051D01*
X233744Y59177D01*
X241177Y59177D01*
X241177Y54610D01*
X241180Y54590D01*
X241178Y54571D01*
X241200Y54469D01*
X241217Y54367D01*
X241226Y54350D01*
X241230Y54330D01*
X241283Y54241D01*
X241332Y54150D01*
X241346Y54136D01*
X241356Y54119D01*
X241435Y54052D01*
X241510Y53980D01*
X241528Y53972D01*
X241543Y53959D01*
X241639Y53920D01*
X241733Y53877D01*
X241753Y53875D01*
X241771Y53867D01*
X241938Y53849D01*
X243462Y53849D01*
X243482Y53852D01*
X243501Y53850D01*
X243603Y53872D01*
X243705Y53888D01*
X243722Y53898D01*
X243742Y53902D01*
X243831Y53955D01*
X243922Y54004D01*
X243936Y54018D01*
X243953Y54028D01*
X244020Y54107D01*
X244091Y54182D01*
X244100Y54200D01*
X244113Y54215D01*
X244152Y54311D01*
X244195Y54405D01*
X244197Y54425D01*
X244205Y54443D01*
X244223Y54610D01*
X244223Y59177D01*
X251656Y59177D01*
X251432Y58051D01*
X250747Y56399D01*
X249835Y55033D01*
X249785Y54924D01*
X249734Y54815D01*
X249734Y54812D01*
X249733Y54809D01*
X249720Y54689D01*
X249707Y54571D01*
X249708Y54567D01*
X249708Y54564D01*
X249734Y54448D01*
X249760Y54330D01*
X249761Y54327D01*
X249762Y54324D01*
X249824Y54222D01*
X249886Y54119D01*
X249888Y54117D01*
X249890Y54114D01*
X249982Y54037D01*
X250073Y53959D01*
X250076Y53958D01*
X250078Y53956D01*
X250189Y53912D01*
X250301Y53867D01*
X250305Y53867D01*
X250307Y53866D01*
X250318Y53865D01*
X250468Y53849D01*
X263961Y53849D01*
X264051Y53863D01*
X264142Y53871D01*
X264171Y53883D01*
X264203Y53888D01*
X264284Y53931D01*
X264368Y53967D01*
X264400Y53993D01*
X264421Y54004D01*
X264443Y54027D01*
X264499Y54072D01*
X266026Y55599D01*
X270422Y55599D01*
X271949Y54072D01*
X272023Y54019D01*
X272093Y53959D01*
X272123Y53947D01*
X272149Y53928D01*
X272236Y53901D01*
X272321Y53867D01*
X272362Y53863D01*
X272384Y53856D01*
X272416Y53857D01*
X272487Y53849D01*
X275285Y53849D01*
X289032Y40102D01*
X289106Y40049D01*
X289176Y39989D01*
X289206Y39977D01*
X289232Y39958D01*
X289319Y39931D01*
X289404Y39897D01*
X289445Y39893D01*
X289467Y39886D01*
X289499Y39887D01*
X289571Y39879D01*
X364490Y39879D01*
X364510Y39882D01*
X364529Y39880D01*
X364631Y39902D01*
X364733Y39918D01*
X364750Y39928D01*
X364770Y39932D01*
X364859Y39985D01*
X364950Y40034D01*
X364964Y40048D01*
X364981Y40058D01*
X365048Y40137D01*
X365120Y40212D01*
X365128Y40230D01*
X365141Y40245D01*
X365180Y40341D01*
X365223Y40435D01*
X365225Y40455D01*
X365233Y40473D01*
X365251Y40640D01*
X365251Y46029D01*
X365237Y46119D01*
X365229Y46210D01*
X365217Y46239D01*
X365212Y46271D01*
X365169Y46352D01*
X365133Y46436D01*
X365107Y46468D01*
X365096Y46489D01*
X365073Y46511D01*
X365028Y46567D01*
X363501Y48094D01*
X363501Y52490D01*
X366610Y55599D01*
X371006Y55599D01*
X374115Y52490D01*
X374115Y48094D01*
X372588Y46567D01*
X372535Y46493D01*
X372475Y46423D01*
X372463Y46393D01*
X372444Y46367D01*
X372417Y46280D01*
X372383Y46195D01*
X372379Y46154D01*
X372372Y46132D01*
X372373Y46100D01*
X372365Y46029D01*
X372365Y40640D01*
X372368Y40620D01*
X372366Y40601D01*
X372388Y40499D01*
X372404Y40397D01*
X372414Y40380D01*
X372418Y40360D01*
X372471Y40271D01*
X372520Y40180D01*
X372534Y40166D01*
X372544Y40149D01*
X372623Y40082D01*
X372698Y40010D01*
X372716Y40002D01*
X372731Y39989D01*
X372827Y39950D01*
X372921Y39907D01*
X372941Y39905D01*
X372959Y39897D01*
X373126Y39879D01*
X385244Y39879D01*
X385334Y39893D01*
X385425Y39901D01*
X385455Y39913D01*
X385487Y39918D01*
X385567Y39961D01*
X385651Y39997D01*
X385683Y40023D01*
X385704Y40034D01*
X385726Y40057D01*
X385782Y40102D01*
X386865Y41185D01*
X390197Y42565D01*
X393803Y42565D01*
X397135Y41185D01*
X399685Y38635D01*
X401065Y35303D01*
X401065Y31697D01*
X399685Y28365D01*
X398528Y27208D01*
X398486Y27150D01*
X398437Y27098D01*
X398415Y27051D01*
X398384Y27009D01*
X398363Y26940D01*
X398333Y26875D01*
X398327Y26823D01*
X398312Y26773D01*
X398314Y26702D01*
X398306Y26631D01*
X398317Y26580D01*
X398318Y26528D01*
X398343Y26460D01*
X398358Y26390D01*
X398385Y26345D01*
X398403Y26297D01*
X398448Y26241D01*
X398484Y26179D01*
X398524Y26145D01*
X398556Y26105D01*
X398617Y26066D01*
X398671Y26019D01*
X398719Y26000D01*
X398763Y25972D01*
X398833Y25954D01*
X398899Y25927D01*
X398971Y25919D01*
X399002Y25911D01*
X399025Y25913D01*
X399066Y25909D01*
X408561Y25909D01*
X408573Y25911D01*
X408585Y25909D01*
X408694Y25930D01*
X408804Y25948D01*
X408814Y25954D01*
X408826Y25956D01*
X408923Y26012D01*
X409021Y26064D01*
X409029Y26072D01*
X409040Y26078D01*
X409114Y26161D01*
X409190Y26242D01*
X409195Y26253D01*
X409203Y26262D01*
X409247Y26364D01*
X409294Y26465D01*
X409295Y26477D01*
X409300Y26488D01*
X409309Y26599D01*
X409321Y26709D01*
X409319Y26721D01*
X409320Y26733D01*
X409293Y26841D01*
X409269Y26950D01*
X409263Y26960D01*
X409260Y26972D01*
X409177Y27117D01*
X408378Y28217D01*
X407658Y29630D01*
X407167Y31139D01*
X407035Y31977D01*
X416238Y31977D01*
X416258Y31980D01*
X416277Y31978D01*
X416379Y32000D01*
X416481Y32017D01*
X416498Y32026D01*
X416518Y32030D01*
X416607Y32083D01*
X416698Y32132D01*
X416712Y32146D01*
X416729Y32156D01*
X416796Y32235D01*
X416867Y32310D01*
X416876Y32328D01*
X416889Y32343D01*
X416927Y32439D01*
X416971Y32533D01*
X416973Y32553D01*
X416981Y32571D01*
X416999Y32738D01*
X416999Y33501D01*
X417001Y33501D01*
X417001Y32738D01*
X417004Y32718D01*
X417002Y32699D01*
X417024Y32597D01*
X417041Y32495D01*
X417050Y32478D01*
X417054Y32458D01*
X417107Y32369D01*
X417156Y32278D01*
X417170Y32264D01*
X417180Y32247D01*
X417259Y32180D01*
X417334Y32109D01*
X417352Y32100D01*
X417367Y32087D01*
X417463Y32048D01*
X417557Y32005D01*
X417577Y32003D01*
X417595Y31995D01*
X417762Y31977D01*
X426965Y31977D01*
X426833Y31139D01*
X426342Y29630D01*
X425902Y28766D01*
X425879Y28694D01*
X425847Y28625D01*
X425841Y28577D01*
X425827Y28531D01*
X425828Y28456D01*
X425820Y28381D01*
X425830Y28333D01*
X425831Y28285D01*
X425856Y28214D01*
X425872Y28140D01*
X425897Y28099D01*
X425913Y28053D01*
X425959Y27994D01*
X425998Y27929D01*
X426035Y27898D01*
X426064Y27860D01*
X426127Y27818D01*
X426185Y27769D01*
X426230Y27751D01*
X426270Y27725D01*
X426343Y27705D01*
X426413Y27677D01*
X426478Y27670D01*
X426508Y27662D01*
X426533Y27664D01*
X426580Y27659D01*
X426886Y27659D01*
X429995Y24550D01*
X429995Y20154D01*
X426886Y17045D01*
X422490Y17045D01*
X420963Y18572D01*
X420889Y18625D01*
X420819Y18685D01*
X420789Y18697D01*
X420763Y18716D01*
X420676Y18743D01*
X420591Y18777D01*
X420550Y18781D01*
X420528Y18788D01*
X420496Y18787D01*
X420425Y18795D01*
X365009Y18795D01*
X364918Y18781D01*
X364828Y18773D01*
X364798Y18761D01*
X364766Y18756D01*
X364685Y18713D01*
X364601Y18677D01*
X364569Y18651D01*
X364548Y18640D01*
X364526Y18617D01*
X364470Y18572D01*
X361899Y16001D01*
X222047Y16001D01*
X216156Y21892D01*
X216098Y21934D01*
X216046Y21983D01*
X215999Y22005D01*
X215957Y22035D01*
X215888Y22056D01*
X215823Y22087D01*
X215771Y22092D01*
X215721Y22108D01*
X215650Y22106D01*
X215579Y22114D01*
X215528Y22103D01*
X215476Y22101D01*
X215408Y22077D01*
X215338Y22061D01*
X215293Y22035D01*
X215245Y22017D01*
X215189Y21972D01*
X215127Y21935D01*
X215093Y21896D01*
X215053Y21863D01*
X215014Y21803D01*
X214967Y21748D01*
X214948Y21700D01*
X214920Y21656D01*
X214902Y21587D01*
X214875Y21520D01*
X214867Y21449D01*
X214859Y21418D01*
X214861Y21394D01*
X214857Y21353D01*
X214857Y20154D01*
X211748Y17045D01*
X207352Y17045D01*
X205825Y18572D01*
X205751Y18625D01*
X205681Y18685D01*
X205651Y18697D01*
X205625Y18716D01*
X205538Y18743D01*
X205453Y18777D01*
X205412Y18781D01*
X205390Y18788D01*
X205358Y18787D01*
X205287Y18795D01*
X54407Y18795D01*
X12720Y60482D01*
X12222Y60980D01*
X12164Y61022D01*
X12112Y61071D01*
X12065Y61093D01*
X12023Y61123D01*
X11954Y61144D01*
X11889Y61175D01*
X11837Y61180D01*
X11787Y61196D01*
X11716Y61194D01*
X11645Y61202D01*
X11594Y61191D01*
X11542Y61189D01*
X11474Y61165D01*
X11404Y61149D01*
X11359Y61123D01*
X11311Y61105D01*
X11255Y61060D01*
X11193Y61023D01*
X11159Y60984D01*
X11119Y60951D01*
X11080Y60891D01*
X11033Y60836D01*
X11014Y60788D01*
X10986Y60744D01*
X10968Y60675D01*
X10941Y60608D01*
X10933Y60537D01*
X10925Y60506D01*
X10927Y60482D01*
X10923Y60441D01*
X10923Y39201D01*
X10930Y39156D01*
X10928Y39110D01*
X10950Y39035D01*
X10962Y38958D01*
X10984Y38918D01*
X10997Y38874D01*
X11041Y38810D01*
X11078Y38741D01*
X11111Y38709D01*
X11137Y38672D01*
X11200Y38625D01*
X11256Y38572D01*
X11298Y38552D01*
X11334Y38525D01*
X11408Y38501D01*
X11479Y38468D01*
X11525Y38463D01*
X11568Y38449D01*
X11646Y38450D01*
X11723Y38441D01*
X11768Y38451D01*
X11814Y38451D01*
X11946Y38489D01*
X11964Y38493D01*
X11968Y38496D01*
X11975Y38498D01*
X15990Y40161D01*
X24010Y40161D01*
X31420Y37091D01*
X37091Y31420D01*
X40161Y24010D01*
X40161Y15990D01*
X38498Y11975D01*
X38487Y11931D01*
X38468Y11889D01*
X38459Y11812D01*
X38442Y11736D01*
X38446Y11690D01*
X38441Y11645D01*
X38457Y11568D01*
X38465Y11491D01*
X38483Y11449D01*
X38493Y11404D01*
X38533Y11337D01*
X38565Y11266D01*
X38596Y11232D01*
X38619Y11193D01*
X38678Y11142D01*
X38731Y11085D01*
X38771Y11063D01*
X38806Y11033D01*
X38879Y11004D01*
X38947Y10967D01*
X38992Y10958D01*
X39034Y10941D01*
X39170Y10926D01*
X39189Y10923D01*
X39194Y10924D01*
X39201Y10923D01*
X460799Y10923D01*
X460844Y10930D01*
G37*
G36*
X434166Y199151D02*
X434166Y199151D01*
X434256Y199159D01*
X434286Y199171D01*
X434318Y199176D01*
X434399Y199219D01*
X434483Y199255D01*
X434515Y199281D01*
X434536Y199292D01*
X434558Y199315D01*
X434614Y199360D01*
X475390Y240136D01*
X475432Y240194D01*
X475481Y240246D01*
X475503Y240293D01*
X475533Y240335D01*
X475554Y240404D01*
X475585Y240469D01*
X475590Y240521D01*
X475606Y240571D01*
X475604Y240642D01*
X475612Y240713D01*
X475601Y240764D01*
X475599Y240816D01*
X475575Y240884D01*
X475559Y240954D01*
X475533Y240998D01*
X475515Y241047D01*
X475470Y241103D01*
X475433Y241165D01*
X475394Y241199D01*
X475361Y241239D01*
X475301Y241278D01*
X475246Y241325D01*
X475198Y241344D01*
X475154Y241372D01*
X475085Y241390D01*
X475018Y241417D01*
X474947Y241425D01*
X474916Y241433D01*
X474892Y241431D01*
X474851Y241435D01*
X462728Y241435D01*
X461835Y242328D01*
X461835Y248083D01*
X461821Y248174D01*
X461813Y248264D01*
X461801Y248294D01*
X461796Y248326D01*
X461753Y248407D01*
X461717Y248491D01*
X461691Y248523D01*
X461680Y248544D01*
X461657Y248566D01*
X461612Y248622D01*
X455880Y254354D01*
X455822Y254396D01*
X455770Y254445D01*
X455723Y254467D01*
X455681Y254497D01*
X455612Y254518D01*
X455547Y254549D01*
X455495Y254554D01*
X455445Y254570D01*
X455374Y254568D01*
X455303Y254576D01*
X455252Y254565D01*
X455200Y254563D01*
X455132Y254539D01*
X455062Y254523D01*
X455017Y254497D01*
X454969Y254479D01*
X454913Y254434D01*
X454851Y254397D01*
X454817Y254358D01*
X454777Y254325D01*
X454738Y254265D01*
X454691Y254210D01*
X454672Y254162D01*
X454644Y254118D01*
X454626Y254049D01*
X454599Y253982D01*
X454591Y253911D01*
X454583Y253880D01*
X454585Y253856D01*
X454581Y253815D01*
X454581Y251523D01*
X446523Y251523D01*
X446523Y259581D01*
X448815Y259581D01*
X448886Y259592D01*
X448958Y259594D01*
X449007Y259612D01*
X449058Y259620D01*
X449122Y259654D01*
X449189Y259679D01*
X449230Y259711D01*
X449276Y259736D01*
X449325Y259788D01*
X449381Y259832D01*
X449409Y259876D01*
X449445Y259914D01*
X449475Y259979D01*
X449514Y260039D01*
X449527Y260090D01*
X449549Y260137D01*
X449557Y260208D01*
X449574Y260278D01*
X449570Y260330D01*
X449576Y260381D01*
X449560Y260452D01*
X449555Y260523D01*
X449535Y260571D01*
X449523Y260622D01*
X449487Y260683D01*
X449459Y260749D01*
X449414Y260805D01*
X449397Y260833D01*
X449379Y260848D01*
X449354Y260880D01*
X426232Y284002D01*
X426158Y284055D01*
X426088Y284115D01*
X426058Y284127D01*
X426032Y284146D01*
X425945Y284173D01*
X425860Y284207D01*
X425819Y284211D01*
X425797Y284218D01*
X425765Y284217D01*
X425693Y284225D01*
X354346Y284225D01*
X354256Y284211D01*
X354165Y284203D01*
X354135Y284191D01*
X354103Y284186D01*
X354022Y284143D01*
X353938Y284107D01*
X353906Y284081D01*
X353886Y284070D01*
X353873Y284057D01*
X353872Y284057D01*
X353861Y284045D01*
X353808Y284002D01*
X352268Y282463D01*
X349304Y281235D01*
X346096Y281235D01*
X343132Y282463D01*
X340863Y284732D01*
X340110Y286549D01*
X340049Y286649D01*
X339989Y286749D01*
X339984Y286753D01*
X339981Y286758D01*
X339891Y286833D01*
X339802Y286909D01*
X339796Y286911D01*
X339791Y286915D01*
X339683Y286957D01*
X339574Y287001D01*
X339566Y287002D01*
X339561Y287003D01*
X339543Y287004D01*
X339407Y287019D01*
X336601Y287019D01*
X332647Y290973D01*
X332629Y290986D01*
X332614Y291004D01*
X332529Y291058D01*
X332448Y291116D01*
X332426Y291123D01*
X332406Y291135D01*
X332309Y291159D01*
X332213Y291188D01*
X332190Y291188D01*
X332167Y291193D01*
X332067Y291185D01*
X331967Y291182D01*
X331945Y291174D01*
X331922Y291172D01*
X331830Y291132D01*
X331736Y291098D01*
X331718Y291083D01*
X331697Y291074D01*
X331622Y291007D01*
X331544Y290944D01*
X331531Y290925D01*
X331514Y290909D01*
X331466Y290823D01*
X323823Y290823D01*
X323823Y298458D01*
X323886Y298509D01*
X323968Y298567D01*
X323982Y298585D01*
X324000Y298600D01*
X324054Y298684D01*
X324113Y298765D01*
X324120Y298787D01*
X324133Y298806D01*
X324157Y298904D01*
X324188Y299000D01*
X324187Y299023D01*
X324193Y299045D01*
X324185Y299145D01*
X324183Y299245D01*
X324175Y299267D01*
X324174Y299290D01*
X324134Y299383D01*
X324101Y299477D01*
X324086Y299495D01*
X324077Y299517D01*
X323973Y299647D01*
X320060Y303560D01*
X319986Y303613D01*
X319916Y303673D01*
X319886Y303685D01*
X319860Y303704D01*
X319773Y303731D01*
X319688Y303765D01*
X319647Y303769D01*
X319625Y303776D01*
X319593Y303775D01*
X319521Y303783D01*
X258771Y303783D01*
X258701Y303772D01*
X258629Y303770D01*
X258580Y303752D01*
X258529Y303744D01*
X258465Y303710D01*
X258398Y303685D01*
X258357Y303653D01*
X258311Y303628D01*
X258262Y303576D01*
X258206Y303532D01*
X258178Y303488D01*
X258142Y303450D01*
X258112Y303385D01*
X258073Y303325D01*
X258060Y303274D01*
X258038Y303227D01*
X258030Y303156D01*
X258013Y303086D01*
X258017Y303034D01*
X258011Y302983D01*
X258026Y302912D01*
X258032Y302841D01*
X258052Y302793D01*
X258063Y302742D01*
X258100Y302681D01*
X258128Y302615D01*
X258173Y302559D01*
X258190Y302531D01*
X258207Y302516D01*
X258233Y302484D01*
X259561Y301156D01*
X259561Y298997D01*
X259575Y298906D01*
X259583Y298816D01*
X259595Y298786D01*
X259600Y298754D01*
X259643Y298673D01*
X259679Y298589D01*
X259705Y298557D01*
X259716Y298536D01*
X259739Y298514D01*
X259784Y298458D01*
X266680Y291562D01*
X266754Y291509D01*
X266824Y291449D01*
X266854Y291437D01*
X266880Y291418D01*
X266967Y291391D01*
X267052Y291357D01*
X267093Y291353D01*
X267115Y291346D01*
X267147Y291347D01*
X267219Y291339D01*
X269549Y291339D01*
X269639Y291353D01*
X269730Y291361D01*
X269759Y291373D01*
X269791Y291378D01*
X269872Y291421D01*
X269956Y291457D01*
X269988Y291483D01*
X270009Y291494D01*
X270031Y291517D01*
X270087Y291562D01*
X271614Y293089D01*
X276010Y293089D01*
X279119Y289980D01*
X279119Y285584D01*
X276010Y282475D01*
X271614Y282475D01*
X270087Y284002D01*
X270013Y284055D01*
X269943Y284115D01*
X269913Y284127D01*
X269887Y284146D01*
X269800Y284173D01*
X269715Y284207D01*
X269674Y284211D01*
X269652Y284218D01*
X269620Y284217D01*
X269549Y284225D01*
X263957Y284225D01*
X254754Y293428D01*
X254680Y293481D01*
X254610Y293541D01*
X254580Y293553D01*
X254554Y293572D01*
X254467Y293599D01*
X254382Y293633D01*
X254341Y293637D01*
X254319Y293644D01*
X254287Y293643D01*
X254215Y293651D01*
X252056Y293651D01*
X248947Y296760D01*
X248947Y300753D01*
X248936Y300824D01*
X248934Y300896D01*
X248916Y300945D01*
X248908Y300996D01*
X248874Y301059D01*
X248849Y301127D01*
X248817Y301168D01*
X248792Y301214D01*
X248741Y301263D01*
X248696Y301319D01*
X248652Y301347D01*
X248614Y301383D01*
X248549Y301413D01*
X248489Y301452D01*
X248438Y301465D01*
X248391Y301487D01*
X248320Y301495D01*
X248250Y301512D01*
X248198Y301508D01*
X248147Y301514D01*
X248076Y301498D01*
X248005Y301493D01*
X247957Y301473D01*
X247906Y301461D01*
X247845Y301425D01*
X247779Y301397D01*
X247723Y301352D01*
X247695Y301335D01*
X247680Y301317D01*
X247648Y301292D01*
X244697Y298341D01*
X244670Y298304D01*
X244637Y298273D01*
X244599Y298205D01*
X244554Y298141D01*
X244540Y298098D01*
X244518Y298057D01*
X244504Y297981D01*
X244481Y297906D01*
X244482Y297861D01*
X244474Y297815D01*
X244486Y297738D01*
X244488Y297661D01*
X244503Y297617D01*
X244510Y297572D01*
X244545Y297503D01*
X244572Y297430D01*
X244601Y297394D01*
X244622Y297353D01*
X244677Y297298D01*
X244726Y297237D01*
X244764Y297213D01*
X244797Y297181D01*
X244917Y297115D01*
X244933Y297104D01*
X244938Y297103D01*
X244944Y297100D01*
X247268Y296137D01*
X249537Y293868D01*
X250765Y290904D01*
X250765Y287696D01*
X249537Y284732D01*
X247268Y282463D01*
X244304Y281235D01*
X241096Y281235D01*
X238132Y282463D01*
X235863Y284732D01*
X234635Y287696D01*
X234635Y290879D01*
X234621Y290970D01*
X234613Y291060D01*
X234601Y291090D01*
X234596Y291122D01*
X234553Y291203D01*
X234517Y291287D01*
X234491Y291319D01*
X234480Y291340D01*
X234457Y291362D01*
X234412Y291418D01*
X232313Y293517D01*
X227858Y297972D01*
X227784Y298025D01*
X227714Y298085D01*
X227684Y298097D01*
X227658Y298116D01*
X227571Y298143D01*
X227486Y298177D01*
X227445Y298181D01*
X227423Y298188D01*
X227391Y298187D01*
X227319Y298195D01*
X222842Y298195D01*
X222819Y298192D01*
X222796Y298194D01*
X222698Y298172D01*
X222599Y298156D01*
X222579Y298145D01*
X222556Y298140D01*
X222470Y298087D01*
X222382Y298040D01*
X222366Y298024D01*
X222346Y298012D01*
X222281Y297935D01*
X222212Y297862D01*
X222202Y297841D01*
X222188Y297824D01*
X222151Y297730D01*
X222109Y297639D01*
X222106Y297616D01*
X222098Y297595D01*
X222092Y297494D01*
X222081Y297395D01*
X222086Y297372D01*
X222085Y297349D01*
X222112Y297252D01*
X222134Y297154D01*
X222145Y297134D01*
X222152Y297112D01*
X222208Y297029D01*
X222260Y296943D01*
X222277Y296928D01*
X222290Y296909D01*
X222419Y296801D01*
X223089Y296353D01*
X224353Y295089D01*
X225347Y293601D01*
X226032Y291949D01*
X226256Y290823D01*
X218062Y290823D01*
X218042Y290820D01*
X218023Y290822D01*
X217921Y290800D01*
X217819Y290783D01*
X217802Y290774D01*
X217782Y290770D01*
X217693Y290717D01*
X217602Y290668D01*
X217588Y290654D01*
X217571Y290644D01*
X217504Y290565D01*
X217433Y290490D01*
X217424Y290472D01*
X217411Y290457D01*
X217373Y290361D01*
X217329Y290267D01*
X217327Y290247D01*
X217319Y290229D01*
X217301Y290062D01*
X217301Y289299D01*
X217299Y289299D01*
X217299Y290062D01*
X217296Y290082D01*
X217298Y290101D01*
X217276Y290203D01*
X217259Y290305D01*
X217250Y290322D01*
X217246Y290342D01*
X217193Y290431D01*
X217144Y290522D01*
X217130Y290536D01*
X217120Y290553D01*
X217041Y290620D01*
X216966Y290691D01*
X216948Y290700D01*
X216933Y290713D01*
X216837Y290752D01*
X216743Y290795D01*
X216723Y290797D01*
X216705Y290805D01*
X216538Y290823D01*
X208344Y290823D01*
X208568Y291949D01*
X209253Y293601D01*
X210247Y295089D01*
X211511Y296353D01*
X212181Y296801D01*
X212198Y296817D01*
X212218Y296828D01*
X212288Y296900D01*
X212361Y296969D01*
X212372Y296989D01*
X212388Y297006D01*
X212430Y297097D01*
X212478Y297185D01*
X212482Y297208D01*
X212491Y297229D01*
X212503Y297329D01*
X212520Y297428D01*
X212516Y297451D01*
X212519Y297473D01*
X212497Y297572D01*
X212482Y297671D01*
X212471Y297691D01*
X212466Y297714D01*
X212415Y297800D01*
X212369Y297889D01*
X212352Y297905D01*
X212340Y297925D01*
X212264Y297990D01*
X212192Y298060D01*
X212171Y298070D01*
X212153Y298085D01*
X212060Y298122D01*
X211969Y298165D01*
X211946Y298168D01*
X211925Y298177D01*
X211758Y298195D01*
X202957Y298195D01*
X202866Y298181D01*
X202776Y298173D01*
X202746Y298161D01*
X202714Y298156D01*
X202633Y298113D01*
X202549Y298077D01*
X202517Y298051D01*
X202496Y298040D01*
X202474Y298017D01*
X202418Y297972D01*
X191465Y287019D01*
X145993Y287019D01*
X145878Y287000D01*
X145762Y286983D01*
X145757Y286981D01*
X145750Y286980D01*
X145648Y286925D01*
X145543Y286872D01*
X145539Y286867D01*
X145533Y286864D01*
X145453Y286780D01*
X145371Y286696D01*
X145367Y286690D01*
X145364Y286686D01*
X145356Y286669D01*
X145290Y286549D01*
X144537Y284732D01*
X142268Y282463D01*
X139304Y281235D01*
X136096Y281235D01*
X133132Y282463D01*
X130863Y284732D01*
X129635Y287696D01*
X129635Y290904D01*
X130863Y293868D01*
X133132Y296137D01*
X134565Y296731D01*
X134648Y296782D01*
X134734Y296828D01*
X134752Y296847D01*
X134774Y296860D01*
X134836Y296935D01*
X134903Y297006D01*
X134914Y297030D01*
X134931Y297050D01*
X134966Y297141D01*
X135007Y297229D01*
X135010Y297255D01*
X135019Y297279D01*
X135023Y297377D01*
X135034Y297473D01*
X135029Y297499D01*
X135030Y297525D01*
X135003Y297619D01*
X134982Y297714D01*
X134968Y297736D01*
X134961Y297761D01*
X134906Y297841D01*
X134856Y297925D01*
X134836Y297942D01*
X134821Y297963D01*
X134743Y298022D01*
X134669Y298085D01*
X134644Y298095D01*
X134624Y298110D01*
X134531Y298140D01*
X134441Y298177D01*
X134408Y298180D01*
X134390Y298186D01*
X134357Y298186D01*
X134274Y298195D01*
X117842Y298195D01*
X117819Y298192D01*
X117796Y298194D01*
X117698Y298172D01*
X117599Y298156D01*
X117579Y298145D01*
X117556Y298140D01*
X117470Y298087D01*
X117382Y298040D01*
X117366Y298024D01*
X117346Y298012D01*
X117281Y297935D01*
X117212Y297862D01*
X117202Y297841D01*
X117188Y297824D01*
X117151Y297730D01*
X117109Y297639D01*
X117106Y297616D01*
X117098Y297595D01*
X117092Y297494D01*
X117081Y297395D01*
X117086Y297372D01*
X117085Y297349D01*
X117112Y297252D01*
X117134Y297154D01*
X117145Y297134D01*
X117152Y297112D01*
X117208Y297029D01*
X117260Y296943D01*
X117277Y296928D01*
X117290Y296909D01*
X117419Y296801D01*
X118089Y296353D01*
X119353Y295089D01*
X120347Y293601D01*
X121032Y291949D01*
X121256Y290823D01*
X113062Y290823D01*
X113042Y290820D01*
X113023Y290822D01*
X112921Y290800D01*
X112819Y290783D01*
X112802Y290774D01*
X112782Y290770D01*
X112693Y290717D01*
X112602Y290668D01*
X112588Y290654D01*
X112571Y290644D01*
X112504Y290565D01*
X112433Y290490D01*
X112424Y290472D01*
X112411Y290457D01*
X112373Y290361D01*
X112329Y290267D01*
X112327Y290247D01*
X112319Y290229D01*
X112301Y290062D01*
X112301Y289299D01*
X112299Y289299D01*
X112299Y290062D01*
X112296Y290082D01*
X112298Y290101D01*
X112276Y290203D01*
X112259Y290305D01*
X112250Y290322D01*
X112246Y290342D01*
X112193Y290431D01*
X112144Y290522D01*
X112130Y290536D01*
X112120Y290553D01*
X112041Y290620D01*
X111966Y290691D01*
X111948Y290700D01*
X111933Y290713D01*
X111837Y290752D01*
X111743Y290795D01*
X111723Y290797D01*
X111705Y290805D01*
X111538Y290823D01*
X103344Y290823D01*
X103568Y291949D01*
X104253Y293601D01*
X105247Y295089D01*
X106511Y296353D01*
X107181Y296801D01*
X107198Y296817D01*
X107218Y296828D01*
X107288Y296900D01*
X107361Y296969D01*
X107372Y296989D01*
X107388Y297006D01*
X107430Y297097D01*
X107478Y297185D01*
X107482Y297208D01*
X107491Y297229D01*
X107503Y297329D01*
X107520Y297428D01*
X107516Y297451D01*
X107519Y297473D01*
X107497Y297572D01*
X107482Y297671D01*
X107471Y297691D01*
X107466Y297714D01*
X107415Y297800D01*
X107369Y297889D01*
X107352Y297905D01*
X107340Y297925D01*
X107264Y297990D01*
X107192Y298060D01*
X107171Y298070D01*
X107153Y298085D01*
X107060Y298122D01*
X106969Y298165D01*
X106946Y298168D01*
X106925Y298177D01*
X106758Y298195D01*
X105167Y298195D01*
X105076Y298181D01*
X104986Y298173D01*
X104956Y298161D01*
X104924Y298156D01*
X104843Y298113D01*
X104759Y298077D01*
X104727Y298051D01*
X104706Y298040D01*
X104684Y298017D01*
X104628Y297972D01*
X87074Y280418D01*
X87032Y280360D01*
X86983Y280308D01*
X86961Y280261D01*
X86931Y280219D01*
X86910Y280150D01*
X86879Y280085D01*
X86874Y280033D01*
X86858Y279983D01*
X86860Y279912D01*
X86852Y279841D01*
X86863Y279790D01*
X86865Y279738D01*
X86889Y279670D01*
X86905Y279600D01*
X86931Y279555D01*
X86949Y279507D01*
X86994Y279451D01*
X87031Y279389D01*
X87070Y279355D01*
X87103Y279315D01*
X87163Y279276D01*
X87218Y279229D01*
X87266Y279210D01*
X87310Y279182D01*
X87379Y279164D01*
X87446Y279137D01*
X87517Y279129D01*
X87548Y279121D01*
X87572Y279123D01*
X87613Y279119D01*
X88812Y279119D01*
X91921Y276010D01*
X91921Y271614D01*
X90394Y270087D01*
X90341Y270013D01*
X90281Y269943D01*
X90269Y269913D01*
X90250Y269887D01*
X90223Y269800D01*
X90189Y269715D01*
X90185Y269674D01*
X90178Y269652D01*
X90179Y269620D01*
X90171Y269549D01*
X90171Y214387D01*
X90182Y214316D01*
X90184Y214244D01*
X90202Y214195D01*
X90210Y214144D01*
X90244Y214080D01*
X90269Y214013D01*
X90301Y213972D01*
X90326Y213926D01*
X90378Y213877D01*
X90422Y213821D01*
X90466Y213793D01*
X90504Y213757D01*
X90569Y213727D01*
X90629Y213688D01*
X90680Y213675D01*
X90727Y213653D01*
X90798Y213645D01*
X90868Y213628D01*
X90920Y213632D01*
X90971Y213626D01*
X91042Y213642D01*
X91113Y213647D01*
X91161Y213667D01*
X91212Y213679D01*
X91273Y213715D01*
X91339Y213743D01*
X91395Y213788D01*
X91423Y213805D01*
X91438Y213823D01*
X91470Y213848D01*
X105186Y227564D01*
X107493Y229871D01*
X108232Y229871D01*
X108328Y229886D01*
X108425Y229896D01*
X108449Y229906D01*
X108474Y229910D01*
X108560Y229956D01*
X108649Y229996D01*
X108669Y230013D01*
X108692Y230026D01*
X108759Y230096D01*
X108831Y230162D01*
X108843Y230185D01*
X108861Y230204D01*
X108902Y230292D01*
X108949Y230378D01*
X108954Y230403D01*
X108965Y230427D01*
X108976Y230524D01*
X108993Y230620D01*
X108989Y230646D01*
X108992Y230671D01*
X108971Y230767D01*
X108957Y230863D01*
X108945Y230886D01*
X108940Y230912D01*
X108890Y230995D01*
X108846Y231082D01*
X108827Y231101D01*
X108814Y231123D01*
X108740Y231186D01*
X108670Y231254D01*
X108641Y231270D01*
X108627Y231283D01*
X108596Y231295D01*
X108523Y231335D01*
X107732Y231663D01*
X105463Y233932D01*
X104235Y236896D01*
X104235Y240104D01*
X105463Y243068D01*
X107732Y245337D01*
X110696Y246565D01*
X113904Y246565D01*
X116868Y245337D01*
X119137Y243068D01*
X120365Y240104D01*
X120365Y236896D01*
X120037Y236104D01*
X120014Y236009D01*
X119986Y235916D01*
X119986Y235890D01*
X119980Y235864D01*
X119990Y235768D01*
X119992Y235670D01*
X120001Y235645D01*
X120004Y235620D01*
X120043Y235531D01*
X120077Y235439D01*
X120093Y235419D01*
X120104Y235395D01*
X120169Y235323D01*
X120230Y235247D01*
X120252Y235233D01*
X120270Y235214D01*
X120355Y235167D01*
X120437Y235114D01*
X120463Y235108D01*
X120485Y235095D01*
X120581Y235078D01*
X120676Y235054D01*
X120702Y235056D01*
X120728Y235051D01*
X120824Y235066D01*
X120921Y235073D01*
X120945Y235083D01*
X120971Y235087D01*
X121058Y235131D01*
X121147Y235169D01*
X121173Y235190D01*
X121190Y235199D01*
X121213Y235222D01*
X121278Y235274D01*
X127051Y241047D01*
X129517Y241047D01*
X129632Y241066D01*
X129748Y241083D01*
X129754Y241085D01*
X129760Y241086D01*
X129862Y241141D01*
X129967Y241194D01*
X129972Y241199D01*
X129977Y241202D01*
X130057Y241286D01*
X130139Y241370D01*
X130143Y241376D01*
X130147Y241380D01*
X130154Y241397D01*
X130220Y241517D01*
X130863Y243068D01*
X133132Y245337D01*
X135792Y246439D01*
X135874Y246490D01*
X135960Y246536D01*
X135978Y246555D01*
X136001Y246568D01*
X136063Y246643D01*
X136130Y246714D01*
X136141Y246738D01*
X136157Y246758D01*
X136192Y246849D01*
X136233Y246937D01*
X136236Y246963D01*
X136246Y246987D01*
X136250Y247085D01*
X136261Y247181D01*
X136255Y247207D01*
X136256Y247233D01*
X136229Y247327D01*
X136208Y247422D01*
X136195Y247444D01*
X136188Y247469D01*
X136132Y247549D01*
X136082Y247633D01*
X136062Y247650D01*
X136047Y247671D01*
X135969Y247730D01*
X135895Y247793D01*
X135871Y247803D01*
X135850Y247818D01*
X135757Y247848D01*
X135667Y247885D01*
X135635Y247888D01*
X135616Y247894D01*
X135583Y247894D01*
X135500Y247903D01*
X132639Y247903D01*
X121686Y258856D01*
X121612Y258909D01*
X121542Y258969D01*
X121512Y258981D01*
X121486Y259000D01*
X121399Y259027D01*
X121314Y259061D01*
X121273Y259065D01*
X121251Y259072D01*
X121219Y259071D01*
X121147Y259079D01*
X119200Y259079D01*
X119110Y259065D01*
X119019Y259057D01*
X118989Y259045D01*
X118957Y259040D01*
X118876Y258997D01*
X118792Y258961D01*
X118760Y258935D01*
X118740Y258924D01*
X118718Y258901D01*
X118662Y258856D01*
X116868Y257063D01*
X113904Y255835D01*
X110696Y255835D01*
X107732Y257063D01*
X105463Y259332D01*
X104235Y262296D01*
X104235Y265504D01*
X105463Y268468D01*
X107732Y270737D01*
X110696Y271965D01*
X113904Y271965D01*
X116868Y270737D01*
X119137Y268468D01*
X119885Y266663D01*
X119946Y266563D01*
X120006Y266463D01*
X120011Y266459D01*
X120014Y266454D01*
X120104Y266379D01*
X120193Y266303D01*
X120199Y266301D01*
X120204Y266297D01*
X120312Y266255D01*
X120421Y266211D01*
X120429Y266210D01*
X120434Y266209D01*
X120452Y266208D01*
X120588Y266193D01*
X124409Y266193D01*
X128336Y262266D01*
X128394Y262224D01*
X128446Y262175D01*
X128493Y262153D01*
X128535Y262123D01*
X128604Y262102D01*
X128669Y262071D01*
X128721Y262066D01*
X128771Y262050D01*
X128842Y262052D01*
X128913Y262044D01*
X128964Y262055D01*
X129016Y262057D01*
X129084Y262081D01*
X129154Y262097D01*
X129199Y262123D01*
X129247Y262141D01*
X129303Y262186D01*
X129365Y262223D01*
X129399Y262262D01*
X129439Y262295D01*
X129478Y262355D01*
X129525Y262410D01*
X129544Y262458D01*
X129572Y262502D01*
X129590Y262571D01*
X129617Y262638D01*
X129625Y262709D01*
X129633Y262740D01*
X129631Y262764D01*
X129635Y262805D01*
X129635Y265504D01*
X130863Y268468D01*
X133132Y270737D01*
X136096Y271965D01*
X139304Y271965D01*
X142268Y270737D01*
X144537Y268468D01*
X145765Y265504D01*
X145765Y264393D01*
X145766Y264384D01*
X145766Y264380D01*
X145770Y264359D01*
X145776Y264322D01*
X145778Y264250D01*
X145796Y264201D01*
X145804Y264150D01*
X145838Y264087D01*
X145863Y264019D01*
X145895Y263978D01*
X145920Y263932D01*
X145971Y263883D01*
X146016Y263827D01*
X146060Y263799D01*
X146098Y263763D01*
X146163Y263733D01*
X146223Y263694D01*
X146274Y263681D01*
X146321Y263659D01*
X146392Y263651D01*
X146462Y263634D01*
X146514Y263638D01*
X146565Y263632D01*
X146636Y263648D01*
X146707Y263653D01*
X146755Y263673D01*
X146806Y263685D01*
X146867Y263721D01*
X146933Y263749D01*
X146989Y263794D01*
X147017Y263811D01*
X147032Y263829D01*
X147064Y263854D01*
X158272Y275062D01*
X160579Y277369D01*
X208229Y277369D01*
X213878Y271720D01*
X213972Y271652D01*
X214066Y271582D01*
X214072Y271580D01*
X214077Y271577D01*
X214189Y271542D01*
X214300Y271506D01*
X214307Y271506D01*
X214313Y271504D01*
X214429Y271507D01*
X214546Y271509D01*
X214553Y271511D01*
X214558Y271511D01*
X214576Y271517D01*
X214707Y271555D01*
X215696Y271965D01*
X218904Y271965D01*
X221868Y270737D01*
X224137Y268468D01*
X225365Y265504D01*
X225365Y262296D01*
X224955Y261307D01*
X224929Y261194D01*
X224900Y261080D01*
X224901Y261074D01*
X224899Y261068D01*
X224910Y260951D01*
X224919Y260835D01*
X224922Y260829D01*
X224922Y260823D01*
X224970Y260715D01*
X225015Y260609D01*
X225020Y260603D01*
X225022Y260598D01*
X225035Y260584D01*
X225120Y260478D01*
X230358Y255240D01*
X230432Y255187D01*
X230502Y255127D01*
X230532Y255115D01*
X230558Y255096D01*
X230645Y255069D01*
X230730Y255035D01*
X230771Y255031D01*
X230793Y255024D01*
X230825Y255025D01*
X230897Y255017D01*
X239245Y255017D01*
X239341Y255032D01*
X239438Y255042D01*
X239462Y255052D01*
X239488Y255056D01*
X239574Y255102D01*
X239663Y255142D01*
X239682Y255159D01*
X239705Y255172D01*
X239772Y255242D01*
X239844Y255308D01*
X239856Y255331D01*
X239874Y255350D01*
X239915Y255438D01*
X239962Y255524D01*
X239967Y255549D01*
X239978Y255573D01*
X239989Y255670D01*
X240006Y255766D01*
X240002Y255792D01*
X240005Y255817D01*
X239984Y255913D01*
X239970Y256009D01*
X239958Y256032D01*
X239953Y256058D01*
X239903Y256141D01*
X239859Y256228D01*
X239840Y256247D01*
X239827Y256269D01*
X239753Y256332D01*
X239683Y256400D01*
X239655Y256416D01*
X239640Y256429D01*
X239609Y256441D01*
X239536Y256481D01*
X238132Y257063D01*
X235863Y259332D01*
X234635Y262296D01*
X234635Y265504D01*
X235863Y268468D01*
X238132Y270737D01*
X241096Y271965D01*
X244267Y271965D01*
X244358Y271979D01*
X244448Y271987D01*
X244478Y271999D01*
X244510Y272004D01*
X244591Y272047D01*
X244675Y272083D01*
X244707Y272109D01*
X244728Y272120D01*
X244750Y272143D01*
X244806Y272188D01*
X252781Y280163D01*
X300283Y280163D01*
X300373Y280177D01*
X300464Y280185D01*
X300493Y280197D01*
X300525Y280202D01*
X300606Y280245D01*
X300690Y280281D01*
X300722Y280307D01*
X300743Y280318D01*
X300765Y280341D01*
X300821Y280386D01*
X302348Y281913D01*
X306744Y281913D01*
X309853Y278804D01*
X309853Y274408D01*
X308525Y273080D01*
X308483Y273022D01*
X308434Y272970D01*
X308412Y272923D01*
X308382Y272881D01*
X308360Y272812D01*
X308330Y272747D01*
X308325Y272695D01*
X308309Y272645D01*
X308311Y272574D01*
X308303Y272503D01*
X308314Y272452D01*
X308316Y272400D01*
X308340Y272332D01*
X308355Y272262D01*
X308382Y272217D01*
X308400Y272169D01*
X308445Y272113D01*
X308482Y272051D01*
X308521Y272017D01*
X308554Y271977D01*
X308614Y271938D01*
X308669Y271891D01*
X308717Y271872D01*
X308761Y271844D01*
X308830Y271826D01*
X308897Y271799D01*
X308968Y271791D01*
X308999Y271783D01*
X309022Y271785D01*
X309063Y271781D01*
X311607Y271781D01*
X314178Y269210D01*
X314252Y269157D01*
X314322Y269097D01*
X314352Y269085D01*
X314378Y269066D01*
X314465Y269039D01*
X314550Y269005D01*
X314591Y269001D01*
X314613Y268994D01*
X314645Y268995D01*
X314717Y268987D01*
X315666Y268987D01*
X315756Y269001D01*
X315847Y269009D01*
X315877Y269021D01*
X315909Y269026D01*
X315990Y269069D01*
X316073Y269105D01*
X316106Y269131D01*
X316126Y269142D01*
X316148Y269165D01*
X316204Y269210D01*
X317732Y270737D01*
X320696Y271965D01*
X323904Y271965D01*
X326868Y270737D01*
X329137Y268468D01*
X330365Y265504D01*
X330365Y262296D01*
X329137Y259332D01*
X326868Y257063D01*
X323904Y255835D01*
X321009Y255835D01*
X320938Y255824D01*
X320866Y255822D01*
X320817Y255804D01*
X320766Y255796D01*
X320702Y255762D01*
X320635Y255737D01*
X320594Y255705D01*
X320548Y255680D01*
X320499Y255628D01*
X320443Y255584D01*
X320415Y255540D01*
X320379Y255502D01*
X320349Y255437D01*
X320310Y255377D01*
X320297Y255326D01*
X320275Y255279D01*
X320267Y255208D01*
X320250Y255138D01*
X320254Y255086D01*
X320248Y255035D01*
X320264Y254964D01*
X320269Y254893D01*
X320289Y254845D01*
X320301Y254794D01*
X320337Y254733D01*
X320365Y254667D01*
X320410Y254611D01*
X320427Y254583D01*
X320445Y254568D01*
X320470Y254536D01*
X322560Y252446D01*
X322634Y252393D01*
X322704Y252333D01*
X322734Y252321D01*
X322760Y252302D01*
X322847Y252275D01*
X322932Y252241D01*
X322973Y252237D01*
X322995Y252230D01*
X323027Y252231D01*
X323099Y252223D01*
X361899Y252223D01*
X414762Y199360D01*
X414836Y199307D01*
X414906Y199247D01*
X414936Y199235D01*
X414962Y199216D01*
X415049Y199189D01*
X415134Y199155D01*
X415175Y199151D01*
X415197Y199144D01*
X415229Y199145D01*
X415301Y199137D01*
X434075Y199137D01*
X434166Y199151D01*
G37*
G36*
X11794Y159540D02*
X11794Y159540D01*
X11865Y159545D01*
X11913Y159565D01*
X11964Y159577D01*
X12025Y159613D01*
X12091Y159641D01*
X12147Y159686D01*
X12175Y159703D01*
X12190Y159721D01*
X12222Y159746D01*
X54636Y202160D01*
X54678Y202218D01*
X54727Y202270D01*
X54749Y202317D01*
X54779Y202359D01*
X54800Y202428D01*
X54831Y202493D01*
X54836Y202545D01*
X54852Y202595D01*
X54850Y202666D01*
X54858Y202737D01*
X54847Y202788D01*
X54845Y202840D01*
X54821Y202908D01*
X54805Y202978D01*
X54779Y203022D01*
X54761Y203071D01*
X54716Y203127D01*
X54679Y203189D01*
X54640Y203223D01*
X54607Y203263D01*
X54547Y203302D01*
X54492Y203349D01*
X54444Y203368D01*
X54400Y203396D01*
X54331Y203414D01*
X54264Y203441D01*
X54223Y203445D01*
X54223Y213477D01*
X64241Y213477D01*
X64241Y208015D01*
X64252Y207944D01*
X64254Y207872D01*
X64272Y207823D01*
X64280Y207772D01*
X64314Y207709D01*
X64339Y207641D01*
X64371Y207600D01*
X64396Y207554D01*
X64447Y207505D01*
X64492Y207449D01*
X64536Y207421D01*
X64574Y207385D01*
X64639Y207355D01*
X64699Y207316D01*
X64750Y207303D01*
X64797Y207281D01*
X64868Y207273D01*
X64938Y207256D01*
X64990Y207260D01*
X65041Y207254D01*
X65112Y207270D01*
X65183Y207275D01*
X65231Y207295D01*
X65282Y207307D01*
X65343Y207343D01*
X65409Y207371D01*
X65465Y207416D01*
X65493Y207433D01*
X65508Y207451D01*
X65540Y207476D01*
X66070Y208006D01*
X66123Y208080D01*
X66183Y208150D01*
X66195Y208180D01*
X66214Y208206D01*
X66241Y208293D01*
X66275Y208378D01*
X66279Y208419D01*
X66286Y208441D01*
X66285Y208473D01*
X66293Y208545D01*
X66293Y278079D01*
X115875Y327661D01*
X148291Y327661D01*
X148406Y327680D01*
X148522Y327697D01*
X148528Y327699D01*
X148534Y327700D01*
X148636Y327755D01*
X148741Y327808D01*
X148746Y327813D01*
X148751Y327816D01*
X148831Y327900D01*
X148913Y327984D01*
X148917Y327990D01*
X148920Y327994D01*
X148928Y328011D01*
X148994Y328131D01*
X149605Y329605D01*
X151891Y331891D01*
X154879Y333129D01*
X165731Y333129D01*
X165822Y333143D01*
X165912Y333151D01*
X165942Y333163D01*
X165974Y333168D01*
X166055Y333211D01*
X166139Y333247D01*
X166171Y333273D01*
X166192Y333284D01*
X166214Y333307D01*
X166270Y333352D01*
X170696Y337778D01*
X170738Y337836D01*
X170787Y337888D01*
X170809Y337935D01*
X170839Y337977D01*
X170860Y338046D01*
X170891Y338111D01*
X170896Y338163D01*
X170912Y338213D01*
X170910Y338284D01*
X170918Y338355D01*
X170907Y338406D01*
X170905Y338458D01*
X170881Y338526D01*
X170865Y338596D01*
X170839Y338641D01*
X170821Y338689D01*
X170776Y338745D01*
X170739Y338807D01*
X170700Y338841D01*
X170667Y338881D01*
X170607Y338920D01*
X170552Y338967D01*
X170504Y338986D01*
X170460Y339014D01*
X170391Y339032D01*
X170324Y339059D01*
X170253Y339067D01*
X170222Y339075D01*
X170198Y339073D01*
X170157Y339077D01*
X39201Y339077D01*
X39156Y339070D01*
X39110Y339072D01*
X39035Y339050D01*
X38958Y339038D01*
X38918Y339016D01*
X38874Y339003D01*
X38810Y338959D01*
X38741Y338922D01*
X38709Y338889D01*
X38672Y338863D01*
X38625Y338800D01*
X38572Y338744D01*
X38552Y338702D01*
X38525Y338666D01*
X38501Y338592D01*
X38468Y338521D01*
X38463Y338475D01*
X38449Y338432D01*
X38450Y338354D01*
X38441Y338277D01*
X38451Y338232D01*
X38451Y338186D01*
X38489Y338054D01*
X38493Y338036D01*
X38496Y338032D01*
X38498Y338025D01*
X40161Y334010D01*
X40161Y325990D01*
X37091Y318580D01*
X31420Y312909D01*
X24010Y309839D01*
X15990Y309839D01*
X11975Y311502D01*
X11931Y311513D01*
X11889Y311532D01*
X11812Y311541D01*
X11736Y311558D01*
X11690Y311554D01*
X11645Y311559D01*
X11568Y311543D01*
X11491Y311535D01*
X11449Y311517D01*
X11404Y311507D01*
X11337Y311467D01*
X11266Y311435D01*
X11232Y311404D01*
X11193Y311381D01*
X11142Y311322D01*
X11085Y311269D01*
X11063Y311229D01*
X11033Y311194D01*
X11004Y311121D01*
X10967Y311053D01*
X10958Y311008D01*
X10941Y310966D01*
X10926Y310830D01*
X10923Y310811D01*
X10924Y310806D01*
X10923Y310799D01*
X10923Y160285D01*
X10934Y160214D01*
X10936Y160142D01*
X10954Y160093D01*
X10962Y160042D01*
X10996Y159979D01*
X11021Y159911D01*
X11053Y159870D01*
X11078Y159824D01*
X11129Y159775D01*
X11174Y159719D01*
X11218Y159691D01*
X11256Y159655D01*
X11321Y159625D01*
X11381Y159586D01*
X11432Y159573D01*
X11479Y159551D01*
X11550Y159543D01*
X11620Y159526D01*
X11672Y159530D01*
X11723Y159524D01*
X11794Y159540D01*
G37*
%LPC*%
G36*
X17668Y204475D02*
X17668Y204475D01*
X16775Y205368D01*
X16775Y224632D01*
X17668Y225525D01*
X23622Y225525D01*
X23642Y225528D01*
X23661Y225526D01*
X23763Y225548D01*
X23865Y225564D01*
X23882Y225574D01*
X23902Y225578D01*
X23991Y225631D01*
X24082Y225680D01*
X24096Y225694D01*
X24113Y225704D01*
X24180Y225783D01*
X24252Y225858D01*
X24260Y225876D01*
X24273Y225891D01*
X24312Y225987D01*
X24355Y226081D01*
X24357Y226101D01*
X24365Y226119D01*
X24383Y226286D01*
X24383Y261315D01*
X34944Y271876D01*
X34986Y271934D01*
X35035Y271986D01*
X35057Y272033D01*
X35087Y272075D01*
X35108Y272144D01*
X35139Y272209D01*
X35144Y272261D01*
X35160Y272311D01*
X35158Y272382D01*
X35166Y272453D01*
X35155Y272504D01*
X35153Y272556D01*
X35129Y272624D01*
X35113Y272694D01*
X35087Y272739D01*
X35069Y272787D01*
X35024Y272843D01*
X34987Y272905D01*
X34948Y272939D01*
X34915Y272979D01*
X34855Y273018D01*
X34800Y273065D01*
X34752Y273084D01*
X34708Y273112D01*
X34639Y273130D01*
X34572Y273157D01*
X34501Y273165D01*
X34470Y273173D01*
X34446Y273171D01*
X34405Y273175D01*
X17668Y273175D01*
X16775Y274068D01*
X16775Y293332D01*
X17668Y294225D01*
X36932Y294225D01*
X37825Y293332D01*
X37825Y276595D01*
X37828Y276577D01*
X37826Y276560D01*
X37837Y276509D01*
X37838Y276452D01*
X37856Y276403D01*
X37864Y276352D01*
X37875Y276331D01*
X37878Y276319D01*
X37901Y276281D01*
X37923Y276221D01*
X37955Y276180D01*
X37980Y276134D01*
X38000Y276115D01*
X38004Y276108D01*
X38032Y276084D01*
X38076Y276029D01*
X38120Y276001D01*
X38158Y275965D01*
X38187Y275951D01*
X38191Y275948D01*
X38215Y275939D01*
X38223Y275935D01*
X38283Y275896D01*
X38334Y275883D01*
X38381Y275861D01*
X38416Y275858D01*
X38419Y275856D01*
X38459Y275852D01*
X38522Y275836D01*
X38569Y275840D01*
X38586Y275838D01*
X38590Y275838D01*
X38592Y275838D01*
X38625Y275834D01*
X38696Y275850D01*
X38767Y275855D01*
X38811Y275874D01*
X38833Y275877D01*
X38840Y275881D01*
X38866Y275887D01*
X38927Y275923D01*
X38993Y275951D01*
X39033Y275983D01*
X39051Y275993D01*
X39060Y276003D01*
X39077Y276013D01*
X39092Y276031D01*
X39124Y276056D01*
X41952Y278884D01*
X42005Y278958D01*
X42065Y279028D01*
X42077Y279058D01*
X42096Y279084D01*
X42123Y279171D01*
X42157Y279256D01*
X42161Y279297D01*
X42168Y279319D01*
X42167Y279351D01*
X42175Y279423D01*
X42175Y293332D01*
X43068Y294225D01*
X62332Y294225D01*
X63225Y293332D01*
X63225Y274068D01*
X62332Y273175D01*
X46619Y273175D01*
X46528Y273161D01*
X46438Y273153D01*
X46408Y273141D01*
X46376Y273136D01*
X46295Y273093D01*
X46211Y273057D01*
X46179Y273031D01*
X46158Y273020D01*
X46136Y272997D01*
X46080Y272952D01*
X31720Y258592D01*
X31667Y258518D01*
X31607Y258448D01*
X31595Y258418D01*
X31576Y258392D01*
X31549Y258305D01*
X31515Y258220D01*
X31511Y258179D01*
X31504Y258157D01*
X31505Y258125D01*
X31497Y258053D01*
X31497Y226286D01*
X31500Y226266D01*
X31498Y226247D01*
X31520Y226145D01*
X31536Y226043D01*
X31546Y226026D01*
X31550Y226006D01*
X31603Y225917D01*
X31652Y225826D01*
X31666Y225812D01*
X31676Y225795D01*
X31755Y225728D01*
X31830Y225656D01*
X31848Y225648D01*
X31863Y225635D01*
X31959Y225596D01*
X32053Y225553D01*
X32073Y225551D01*
X32091Y225543D01*
X32258Y225525D01*
X36932Y225525D01*
X37825Y224632D01*
X37825Y205368D01*
X36932Y204475D01*
X17668Y204475D01*
G37*
%LPD*%
%LPC*%
G36*
X78679Y316871D02*
X78679Y316871D01*
X75691Y318109D01*
X73405Y320395D01*
X72167Y323383D01*
X72167Y326617D01*
X73405Y329605D01*
X75691Y331891D01*
X78679Y333129D01*
X95121Y333129D01*
X98109Y331891D01*
X100395Y329605D01*
X101633Y326617D01*
X101633Y323383D01*
X100395Y320395D01*
X98109Y318109D01*
X95121Y316871D01*
X78679Y316871D01*
G37*
%LPD*%
%LPC*%
G36*
X411928Y241435D02*
X411928Y241435D01*
X411035Y242328D01*
X411035Y257672D01*
X411928Y258565D01*
X427272Y258565D01*
X428165Y257672D01*
X428165Y242328D01*
X427272Y241435D01*
X411928Y241435D01*
G37*
%LPD*%
%LPC*%
G36*
X462728Y156435D02*
X462728Y156435D01*
X461835Y157328D01*
X461835Y172672D01*
X462728Y173565D01*
X478072Y173565D01*
X478965Y172672D01*
X478965Y157328D01*
X478072Y156435D01*
X462728Y156435D01*
G37*
%LPD*%
%LPC*%
G36*
X440197Y24435D02*
X440197Y24435D01*
X436865Y25815D01*
X434315Y28365D01*
X432935Y31697D01*
X432935Y35303D01*
X434315Y38635D01*
X436865Y41185D01*
X440197Y42565D01*
X443803Y42565D01*
X447135Y41185D01*
X449685Y38635D01*
X451065Y35303D01*
X451065Y31697D01*
X449685Y28365D01*
X447135Y25815D01*
X443803Y24435D01*
X440197Y24435D01*
G37*
%LPD*%
%LPC*%
G36*
X346096Y255835D02*
X346096Y255835D01*
X343132Y257063D01*
X340863Y259332D01*
X339635Y262296D01*
X339635Y265504D01*
X340863Y268468D01*
X343132Y270737D01*
X346096Y271965D01*
X349304Y271965D01*
X352268Y270737D01*
X354537Y268468D01*
X355765Y265504D01*
X355765Y262296D01*
X354537Y259332D01*
X352268Y257063D01*
X349304Y255835D01*
X346096Y255835D01*
G37*
%LPD*%
%LPC*%
G36*
X54223Y76523D02*
X54223Y76523D01*
X54223Y86541D01*
X62034Y86541D01*
X62681Y86368D01*
X63260Y86033D01*
X63733Y85560D01*
X64068Y84981D01*
X64241Y84334D01*
X64241Y76523D01*
X54223Y76523D01*
G37*
%LPD*%
%LPC*%
G36*
X54223Y216523D02*
X54223Y216523D01*
X54223Y226541D01*
X62034Y226541D01*
X62681Y226368D01*
X63260Y226033D01*
X63733Y225560D01*
X64068Y224981D01*
X64241Y224334D01*
X64241Y216523D01*
X54223Y216523D01*
G37*
%LPD*%
%LPC*%
G36*
X54223Y146523D02*
X54223Y146523D01*
X54223Y156541D01*
X62034Y156541D01*
X62681Y156368D01*
X63260Y156033D01*
X63733Y155560D01*
X64068Y154981D01*
X64241Y154334D01*
X64241Y146523D01*
X54223Y146523D01*
G37*
%LPD*%
%LPC*%
G36*
X41159Y76523D02*
X41159Y76523D01*
X41159Y84334D01*
X41332Y84981D01*
X41667Y85560D01*
X42140Y86033D01*
X42719Y86368D01*
X43366Y86541D01*
X51177Y86541D01*
X51177Y76523D01*
X41159Y76523D01*
G37*
%LPD*%
%LPC*%
G36*
X41159Y216523D02*
X41159Y216523D01*
X41159Y224334D01*
X41332Y224981D01*
X41667Y225560D01*
X42140Y226033D01*
X42719Y226368D01*
X43366Y226541D01*
X51177Y226541D01*
X51177Y216523D01*
X41159Y216523D01*
G37*
%LPD*%
%LPC*%
G36*
X54223Y133459D02*
X54223Y133459D01*
X54223Y143477D01*
X64241Y143477D01*
X64241Y135666D01*
X64068Y135019D01*
X63733Y134440D01*
X63260Y133967D01*
X62681Y133632D01*
X62034Y133459D01*
X54223Y133459D01*
G37*
%LPD*%
%LPC*%
G36*
X54223Y63459D02*
X54223Y63459D01*
X54223Y73477D01*
X64241Y73477D01*
X64241Y65666D01*
X64068Y65019D01*
X63733Y64440D01*
X63260Y63967D01*
X62681Y63632D01*
X62034Y63459D01*
X54223Y63459D01*
G37*
%LPD*%
%LPC*%
G36*
X43366Y203459D02*
X43366Y203459D01*
X42719Y203632D01*
X42140Y203967D01*
X41667Y204440D01*
X41332Y205019D01*
X41159Y205666D01*
X41159Y213477D01*
X51177Y213477D01*
X51177Y203459D01*
X43366Y203459D01*
G37*
%LPD*%
%LPC*%
G36*
X43366Y133459D02*
X43366Y133459D01*
X42719Y133632D01*
X42140Y133967D01*
X41667Y134440D01*
X41332Y135019D01*
X41159Y135666D01*
X41159Y143477D01*
X51177Y143477D01*
X51177Y133459D01*
X43366Y133459D01*
G37*
%LPD*%
%LPC*%
G36*
X446523Y166523D02*
X446523Y166523D01*
X446523Y174581D01*
X452374Y174581D01*
X453021Y174408D01*
X453600Y174073D01*
X454073Y173600D01*
X454408Y173021D01*
X454581Y172374D01*
X454581Y166523D01*
X446523Y166523D01*
G37*
%LPD*%
%LPC*%
G36*
X435419Y251523D02*
X435419Y251523D01*
X435419Y257374D01*
X435592Y258021D01*
X435927Y258600D01*
X436400Y259073D01*
X436979Y259408D01*
X437626Y259581D01*
X443477Y259581D01*
X443477Y251523D01*
X435419Y251523D01*
G37*
%LPD*%
%LPC*%
G36*
X446523Y155419D02*
X446523Y155419D01*
X446523Y163477D01*
X454581Y163477D01*
X454581Y157626D01*
X454408Y156979D01*
X454073Y156400D01*
X453600Y155927D01*
X453021Y155592D01*
X452374Y155419D01*
X446523Y155419D01*
G37*
%LPD*%
%LPC*%
G36*
X446523Y240419D02*
X446523Y240419D01*
X446523Y248477D01*
X454581Y248477D01*
X454581Y242626D01*
X454408Y241979D01*
X454073Y241400D01*
X453600Y240927D01*
X453021Y240592D01*
X452374Y240419D01*
X446523Y240419D01*
G37*
%LPD*%
%LPC*%
G36*
X446523Y70419D02*
X446523Y70419D01*
X446523Y78477D01*
X454581Y78477D01*
X454581Y72626D01*
X454408Y71979D01*
X454073Y71400D01*
X453600Y70927D01*
X453021Y70592D01*
X452374Y70419D01*
X446523Y70419D01*
G37*
%LPD*%
%LPC*%
G36*
X437626Y240419D02*
X437626Y240419D01*
X436979Y240592D01*
X436400Y240927D01*
X435927Y241400D01*
X435592Y241979D01*
X435419Y242626D01*
X435419Y248477D01*
X443477Y248477D01*
X443477Y240419D01*
X437626Y240419D01*
G37*
%LPD*%
%LPC*%
G36*
X437626Y70419D02*
X437626Y70419D01*
X436979Y70592D01*
X436400Y70927D01*
X435927Y71400D01*
X435592Y71979D01*
X435419Y72626D01*
X435419Y78477D01*
X443477Y78477D01*
X443477Y70419D01*
X437626Y70419D01*
G37*
%LPD*%
%LPC*%
G36*
X418523Y35023D02*
X418523Y35023D01*
X418523Y43465D01*
X419361Y43333D01*
X420870Y42842D01*
X422283Y42122D01*
X423567Y41189D01*
X424689Y40067D01*
X425622Y38783D01*
X426342Y37370D01*
X426833Y35861D01*
X426965Y35023D01*
X418523Y35023D01*
G37*
%LPD*%
%LPC*%
G36*
X407035Y35023D02*
X407035Y35023D01*
X407167Y35861D01*
X407658Y37370D01*
X408378Y38783D01*
X409311Y40067D01*
X410433Y41189D01*
X411717Y42122D01*
X413130Y42842D01*
X414639Y43333D01*
X415477Y43465D01*
X415477Y35023D01*
X407035Y35023D01*
G37*
%LPD*%
%LPC*%
G36*
X349223Y62223D02*
X349223Y62223D01*
X349223Y69656D01*
X350349Y69432D01*
X351918Y68782D01*
X351981Y68767D01*
X352017Y68737D01*
X353489Y67753D01*
X354753Y66489D01*
X355747Y65001D01*
X356432Y63349D01*
X356656Y62223D01*
X349223Y62223D01*
G37*
%LPD*%
%LPC*%
G36*
X313344Y290823D02*
X313344Y290823D01*
X313568Y291949D01*
X314253Y293601D01*
X315247Y295089D01*
X316511Y296353D01*
X317999Y297347D01*
X319651Y298032D01*
X320777Y298256D01*
X320777Y290823D01*
X313344Y290823D01*
G37*
%LPD*%
%LPC*%
G36*
X113823Y287777D02*
X113823Y287777D01*
X121256Y287777D01*
X121032Y286651D01*
X120347Y284999D01*
X119353Y283511D01*
X118089Y282247D01*
X116601Y281253D01*
X114949Y280568D01*
X113823Y280344D01*
X113823Y287777D01*
G37*
%LPD*%
%LPC*%
G36*
X218823Y287777D02*
X218823Y287777D01*
X226256Y287777D01*
X226032Y286651D01*
X225347Y284999D01*
X224353Y283511D01*
X223089Y282247D01*
X221601Y281253D01*
X219949Y280568D01*
X218823Y280344D01*
X218823Y287777D01*
G37*
%LPD*%
%LPC*%
G36*
X323823Y287777D02*
X323823Y287777D01*
X331256Y287777D01*
X331032Y286651D01*
X330347Y284999D01*
X329353Y283511D01*
X328089Y282247D01*
X326601Y281253D01*
X324949Y280568D01*
X323823Y280344D01*
X323823Y287777D01*
G37*
%LPD*%
%LPC*%
G36*
X338744Y62223D02*
X338744Y62223D01*
X338968Y63349D01*
X339653Y65001D01*
X340647Y66489D01*
X341911Y67753D01*
X343399Y68747D01*
X345051Y69432D01*
X346177Y69656D01*
X346177Y62223D01*
X338744Y62223D01*
G37*
%LPD*%
%LPC*%
G36*
X139223Y59177D02*
X139223Y59177D01*
X146656Y59177D01*
X146432Y58051D01*
X145747Y56399D01*
X144753Y54911D01*
X143489Y53647D01*
X142001Y52653D01*
X140349Y51968D01*
X139223Y51744D01*
X139223Y59177D01*
G37*
%LPD*%
%LPC*%
G36*
X349223Y59177D02*
X349223Y59177D01*
X356656Y59177D01*
X356432Y58051D01*
X355747Y56399D01*
X354753Y54911D01*
X353489Y53647D01*
X352001Y52653D01*
X350349Y51968D01*
X349223Y51744D01*
X349223Y59177D01*
G37*
%LPD*%
%LPC*%
G36*
X109651Y280568D02*
X109651Y280568D01*
X107999Y281253D01*
X106511Y282247D01*
X105247Y283511D01*
X104253Y284999D01*
X103568Y286651D01*
X103344Y287777D01*
X110777Y287777D01*
X110777Y280344D01*
X109651Y280568D01*
G37*
%LPD*%
%LPC*%
G36*
X214651Y280568D02*
X214651Y280568D01*
X212999Y281253D01*
X211511Y282247D01*
X210247Y283511D01*
X209253Y284999D01*
X208568Y286651D01*
X208344Y287777D01*
X215777Y287777D01*
X215777Y280344D01*
X214651Y280568D01*
G37*
%LPD*%
%LPC*%
G36*
X319651Y280568D02*
X319651Y280568D01*
X317999Y281253D01*
X316511Y282247D01*
X315247Y283511D01*
X314253Y284999D01*
X313568Y286651D01*
X313344Y287777D01*
X320777Y287777D01*
X320777Y280344D01*
X319651Y280568D01*
G37*
%LPD*%
%LPC*%
G36*
X135051Y51968D02*
X135051Y51968D01*
X133399Y52653D01*
X131911Y53647D01*
X130647Y54911D01*
X129653Y56399D01*
X128968Y58051D01*
X128744Y59177D01*
X136177Y59177D01*
X136177Y51744D01*
X135051Y51968D01*
G37*
%LPD*%
%LPC*%
G36*
X345051Y51968D02*
X345051Y51968D01*
X343399Y52653D01*
X341911Y53647D01*
X340647Y54911D01*
X339653Y56399D01*
X338968Y58051D01*
X338744Y59177D01*
X346177Y59177D01*
X346177Y51744D01*
X345051Y51968D01*
G37*
%LPD*%
%LPC*%
G36*
X322299Y289299D02*
X322299Y289299D01*
X322299Y289301D01*
X322301Y289301D01*
X322301Y289299D01*
X322299Y289299D01*
G37*
%LPD*%
%LPC*%
G36*
X52699Y214999D02*
X52699Y214999D01*
X52699Y215001D01*
X52701Y215001D01*
X52701Y214999D01*
X52699Y214999D01*
G37*
%LPD*%
%LPC*%
G36*
X52699Y144999D02*
X52699Y144999D01*
X52699Y145001D01*
X52701Y145001D01*
X52701Y144999D01*
X52699Y144999D01*
G37*
%LPD*%
%LPC*%
G36*
X444999Y249999D02*
X444999Y249999D01*
X444999Y250001D01*
X445001Y250001D01*
X445001Y249999D01*
X444999Y249999D01*
G37*
%LPD*%
%LPC*%
G36*
X444999Y79999D02*
X444999Y79999D01*
X444999Y80001D01*
X445001Y80001D01*
X445001Y79999D01*
X444999Y79999D01*
G37*
%LPD*%
%LPC*%
G36*
X52699Y74999D02*
X52699Y74999D01*
X52699Y75001D01*
X52701Y75001D01*
X52701Y74999D01*
X52699Y74999D01*
G37*
%LPD*%
%LPC*%
G36*
X347699Y60699D02*
X347699Y60699D01*
X347699Y60701D01*
X347701Y60701D01*
X347701Y60699D01*
X347699Y60699D01*
G37*
%LPD*%
D10*
X52700Y283700D03*
X27300Y283700D03*
D11*
X200296Y325000D02*
X213504Y325000D01*
X276496Y325000D02*
X289704Y325000D01*
X93504Y325000D02*
X80296Y325000D01*
X156496Y325000D02*
X169704Y325000D01*
D12*
X445000Y80000D03*
X470400Y80000D03*
X419600Y80000D03*
X445000Y250000D03*
X470400Y250000D03*
X419600Y250000D03*
D13*
X137700Y60700D03*
X112300Y60700D03*
X137700Y86100D03*
X112300Y86100D03*
X137700Y111500D03*
X112300Y111500D03*
X137700Y136900D03*
X112300Y136900D03*
X137700Y162300D03*
X112300Y162300D03*
X137700Y187700D03*
X112300Y187700D03*
X137700Y213100D03*
X112300Y213100D03*
X137700Y238500D03*
X112300Y238500D03*
X137700Y263900D03*
X112300Y263900D03*
X137700Y289300D03*
X112300Y289300D03*
X347700Y60700D03*
X322300Y60700D03*
X347700Y86100D03*
X322300Y86100D03*
X347700Y111500D03*
X322300Y111500D03*
X347700Y136900D03*
X322300Y136900D03*
X347700Y162300D03*
X322300Y162300D03*
X347700Y187700D03*
X322300Y187700D03*
X347700Y213100D03*
X322300Y213100D03*
X347700Y238500D03*
X322300Y238500D03*
X347700Y263900D03*
X322300Y263900D03*
X347700Y289300D03*
X322300Y289300D03*
X242700Y60700D03*
X217300Y60700D03*
X242700Y86100D03*
X217300Y86100D03*
X242700Y111500D03*
X217300Y111500D03*
X242700Y136900D03*
X217300Y136900D03*
X242700Y162300D03*
X217300Y162300D03*
X242700Y187700D03*
X217300Y187700D03*
X242700Y213100D03*
X217300Y213100D03*
X242700Y238500D03*
X217300Y238500D03*
X242700Y263900D03*
X217300Y263900D03*
X242700Y289300D03*
X217300Y289300D03*
D11*
X325296Y325000D02*
X338504Y325000D01*
X401496Y325000D02*
X414704Y325000D01*
D12*
X445000Y165000D03*
X470400Y165000D03*
X419600Y165000D03*
D10*
X52700Y215000D03*
X27300Y215000D03*
X52700Y145000D03*
X27300Y145000D03*
X52700Y75000D03*
X27300Y75000D03*
D14*
X417000Y33500D03*
X442000Y33500D03*
X392000Y33500D03*
D15*
X215138Y61468D02*
X209550Y61468D01*
X198374Y72644D01*
X125730Y72644D01*
X114554Y61468D01*
X215138Y61468D02*
X217300Y60700D01*
X114554Y61468D02*
X112300Y60700D01*
X279400Y61468D02*
X321310Y61468D01*
X279400Y61468D02*
X268224Y72644D01*
X237490Y72644D01*
X226314Y61468D01*
X217932Y61468D01*
X321310Y61468D02*
X322300Y60700D01*
X217932Y61468D02*
X217300Y60700D01*
X189992Y290576D02*
X139700Y290576D01*
X189992Y290576D02*
X201168Y301752D01*
X229108Y301752D01*
X236093Y294767D02*
X240284Y290576D01*
X236093Y294767D02*
X229108Y301752D01*
X139700Y290576D02*
X137700Y289300D01*
X240284Y290576D02*
X242700Y289300D01*
X338074Y290576D02*
X346456Y290576D01*
X338074Y290576D02*
X321310Y307340D01*
X248666Y307340D01*
X236093Y294767D01*
X346456Y290576D02*
X347700Y289300D01*
X463804Y251460D02*
X469392Y251460D01*
X463804Y251460D02*
X427482Y287782D01*
X349250Y287782D01*
X469392Y251460D02*
X470400Y250000D01*
X349250Y287782D02*
X347700Y289300D01*
X136906Y58674D02*
X125730Y58674D01*
X117348Y50292D01*
X75438Y50292D01*
X53086Y72644D01*
X136906Y58674D02*
X137700Y60700D01*
X53086Y72644D02*
X52700Y75000D01*
X53086Y75438D02*
X53086Y142494D01*
X52700Y145000D01*
X53086Y75438D02*
X52700Y75000D01*
X195580Y287782D02*
X215138Y287782D01*
X195580Y287782D02*
X187198Y279400D01*
X142494Y279400D01*
X139700Y276606D01*
X125730Y276606D01*
X114554Y287782D01*
X215138Y287782D02*
X217300Y289300D01*
X114554Y287782D02*
X112300Y289300D01*
X349250Y58674D02*
X391160Y58674D01*
X406527Y43307D02*
X416306Y33528D01*
X406527Y43307D02*
X391160Y58674D01*
X349250Y58674D02*
X347700Y60700D01*
X416306Y33528D02*
X417000Y33500D01*
X273812Y58674D02*
X243078Y58674D01*
X273812Y58674D02*
X282194Y50292D01*
X338074Y50292D01*
X346456Y58674D01*
X243078Y58674D02*
X242700Y60700D01*
X346456Y58674D02*
X347700Y60700D01*
X393954Y226314D02*
X421894Y226314D01*
X444246Y248666D01*
X445000Y250000D01*
X332486Y287782D02*
X324104Y287782D01*
X332486Y287782D02*
X343662Y276606D01*
X352044Y276606D01*
X393954Y234696D01*
X393954Y226314D01*
X324104Y287782D02*
X322300Y289300D01*
X444246Y81026D02*
X406527Y43307D01*
X445000Y80000D02*
X444246Y81026D01*
X203962Y58674D02*
X139700Y58674D01*
X203962Y58674D02*
X212344Y50292D01*
X231902Y50292D01*
X240284Y58674D01*
X139700Y58674D02*
X137700Y60700D01*
X240284Y58674D02*
X242700Y60700D01*
D16*
X393954Y226314D03*
D15*
X201168Y162052D02*
X139700Y162052D01*
X201168Y162052D02*
X212344Y150876D01*
X223520Y150876D01*
X234696Y162052D01*
X240284Y162052D01*
X139700Y162052D02*
X137700Y162300D01*
X240284Y162052D02*
X242700Y162300D01*
X346456Y162052D02*
X346456Y150876D01*
X332486Y136906D01*
X332486Y131318D01*
X326898Y125730D01*
X307340Y125730D01*
X279400Y153670D01*
X259842Y153670D01*
X346456Y162052D02*
X347700Y162300D01*
D16*
X259842Y153670D03*
D15*
X310134Y114554D02*
X310134Y108966D01*
X310134Y114554D02*
X279400Y145288D01*
X251460Y145288D01*
X243078Y136906D01*
X242700Y136900D01*
D16*
X310134Y108966D03*
D15*
X136906Y187198D02*
X114554Y164846D01*
X112300Y162300D01*
X136906Y187198D02*
X137700Y187700D01*
X237490Y184404D02*
X240284Y187198D01*
X237490Y184404D02*
X217932Y164846D01*
X217300Y162300D01*
X240284Y187198D02*
X242700Y187700D01*
X203962Y189992D02*
X139700Y189992D01*
X203962Y189992D02*
X212344Y198374D01*
X223520Y198374D01*
X237490Y184404D01*
X139700Y189992D02*
X137700Y187700D01*
X237490Y184404D02*
X242700Y187700D01*
X268224Y164846D02*
X321310Y164846D01*
X268224Y164846D02*
X243078Y189992D01*
X321310Y164846D02*
X322300Y162300D01*
X242700Y187700D02*
X243078Y189992D01*
X324104Y148082D02*
X324104Y136906D01*
X325501Y149479D02*
X335280Y159258D01*
X325501Y149479D02*
X324104Y148082D01*
X335280Y159258D02*
X335280Y201168D01*
X346456Y212344D01*
X324104Y136906D02*
X322300Y136900D01*
X346456Y212344D02*
X347700Y213100D01*
X111760Y136906D02*
X94996Y153670D01*
X94996Y187198D01*
X108966Y201168D01*
X125730Y201168D01*
X136906Y212344D01*
X112300Y136900D02*
X111760Y136906D01*
X136906Y212344D02*
X137700Y213100D01*
X209550Y136906D02*
X215138Y136906D01*
X209550Y136906D02*
X192786Y153670D01*
X145288Y153670D01*
X139700Y148082D01*
X125730Y148082D01*
X114554Y136906D01*
X215138Y136906D02*
X217300Y136900D01*
X114554Y136906D02*
X112300Y136900D01*
X290576Y150876D02*
X324104Y150876D01*
X290576Y150876D02*
X282194Y159258D01*
X265430Y159258D01*
X262636Y162052D01*
X257048Y162052D01*
X243078Y148082D01*
X229108Y148082D01*
X217932Y136906D01*
X324104Y150876D02*
X325501Y149479D01*
X217932Y136906D02*
X217300Y136900D01*
X206756Y248666D02*
X148082Y248666D01*
X206756Y248666D02*
X215138Y240284D01*
X217300Y238500D01*
D16*
X148082Y248666D03*
D15*
X122936Y262636D02*
X114554Y262636D01*
X122936Y262636D02*
X134112Y251460D01*
X139700Y251460D01*
X162052Y273812D01*
X206756Y273812D01*
X215138Y265430D01*
X114554Y262636D02*
X112300Y263900D01*
X215138Y265430D02*
X217300Y263900D01*
X312928Y265430D02*
X321310Y265430D01*
X312928Y265430D02*
X310134Y268224D01*
X262636Y268224D01*
X245872Y251460D01*
X229108Y251460D01*
X217932Y262636D01*
X321310Y265430D02*
X322300Y263900D01*
X217932Y262636D02*
X217300Y263900D01*
X203962Y83820D02*
X139700Y83820D01*
X203962Y83820D02*
X212344Y75438D01*
X231902Y75438D01*
X240284Y83820D01*
X139700Y83820D02*
X137700Y86100D01*
X240284Y83820D02*
X242700Y86100D01*
X349250Y86614D02*
X405130Y86614D01*
X410718Y92202D01*
X458216Y92202D01*
X469392Y81026D01*
X349250Y86614D02*
X347700Y86100D01*
X469392Y81026D02*
X470400Y80000D01*
X251460Y83820D02*
X243078Y83820D01*
X251460Y83820D02*
X257048Y78232D01*
X287782Y78232D01*
X298958Y67056D01*
X312928Y67056D01*
X318516Y72644D01*
X335280Y72644D01*
X243078Y83820D02*
X242700Y86100D01*
X108966Y97790D02*
X86614Y120142D01*
X108966Y97790D02*
X125730Y97790D01*
X136906Y86614D01*
X137700Y86100D01*
D16*
X335280Y72644D03*
X86614Y120142D03*
D15*
X217932Y86614D02*
X226314Y86614D01*
X237490Y97790D01*
X245872Y97790D01*
X259842Y83820D01*
X293370Y83820D01*
X301752Y75438D01*
X304546Y198374D02*
X304546Y206756D01*
X287782Y223520D01*
X287782Y237490D01*
X304546Y254254D01*
X304546Y276606D02*
X254254Y276606D01*
X243078Y265430D01*
X217932Y86614D02*
X217300Y86100D01*
X242700Y263900D02*
X243078Y265430D01*
D16*
X301752Y75438D03*
X304546Y198374D03*
X304546Y254254D03*
X304546Y276606D03*
D15*
X103378Y128524D02*
X89408Y142494D01*
X89408Y206756D01*
X108966Y226314D01*
X117348Y226314D01*
X128524Y237490D01*
X136906Y237490D01*
X137700Y238500D01*
D16*
X103378Y128524D03*
D15*
X324104Y83820D02*
X335280Y83820D01*
X343662Y75438D01*
X354838Y75438D01*
X324104Y83820D02*
X322300Y86100D01*
D16*
X354838Y75438D03*
D15*
X254254Y226314D02*
X229108Y226314D01*
X184404Y226314D01*
X254254Y226314D02*
X265430Y237490D01*
X201168Y136906D02*
X192786Y136906D01*
X201168Y136906D02*
X212344Y125730D01*
X265430Y125730D01*
X276606Y136906D01*
X374396Y142494D02*
X374396Y203962D01*
X209550Y22352D02*
X55880Y22352D01*
X13970Y64262D01*
X13970Y156464D01*
X58674Y201168D01*
X64262Y201168D01*
X69850Y206756D01*
X69850Y276606D01*
X117348Y324104D01*
X162052Y324104D01*
X163100Y325000D01*
X226314Y326898D02*
X282194Y326898D01*
X226314Y326898D02*
X217932Y335280D01*
X173228Y335280D01*
X164846Y326898D01*
X282194Y326898D02*
X283100Y325000D01*
X164846Y326898D02*
X163100Y325000D01*
X352044Y326898D02*
X407924Y326898D01*
X352044Y326898D02*
X343662Y335280D01*
X293370Y335280D01*
X284988Y326898D01*
X407924Y326898D02*
X408100Y325000D01*
X284988Y326898D02*
X283100Y325000D01*
X374396Y142494D02*
X379984Y142494D01*
X388366Y134112D01*
X393954Y134112D01*
X407924Y148082D01*
X229108Y226314D02*
X229108Y243078D01*
X220726Y251460D01*
X215138Y251460D01*
X201168Y265430D01*
D16*
X184404Y226314D03*
X265430Y237490D03*
X192786Y136906D03*
X276606Y136906D03*
X374396Y142494D03*
X374396Y203962D03*
X209550Y22352D03*
X407924Y148082D03*
X201168Y265430D03*
D15*
X282194Y100584D02*
X374396Y100584D01*
X433070Y159258D01*
X433070Y192786D01*
X434467Y194183D02*
X483362Y243078D01*
X434467Y194183D02*
X433070Y192786D01*
X483362Y243078D02*
X483362Y257048D01*
X427482Y312928D01*
X220726Y312928D01*
X209550Y324104D01*
X206900Y325000D01*
X276606Y237490D02*
X276606Y231902D01*
X276606Y237490D02*
X301752Y262636D01*
X307340Y262636D01*
X321310Y248666D01*
X360426Y248666D01*
X413512Y195580D01*
X433070Y195580D01*
X434467Y194183D01*
D16*
X282194Y100584D03*
X276606Y231902D03*
D15*
X150876Y108966D02*
X139700Y108966D01*
X150876Y108966D02*
X167640Y92202D01*
X206756Y92202D01*
X215138Y100584D01*
X231902Y100584D01*
X240284Y108966D01*
X139700Y108966D02*
X137700Y111500D01*
X240284Y108966D02*
X242700Y111500D01*
X298958Y92202D02*
X310134Y81026D01*
X298958Y92202D02*
X259842Y92202D01*
X243078Y108966D01*
X242700Y111500D01*
D16*
X310134Y81026D03*
D15*
X170434Y122936D02*
X170434Y136906D01*
X170434Y122936D02*
X170434Y100584D01*
X170434Y136906D02*
X162052Y145288D01*
X86614Y212344D02*
X86614Y273812D01*
X86614Y212344D02*
X81026Y206756D01*
X81026Y139700D01*
X100584Y120142D01*
X106172Y120142D01*
X108966Y122936D01*
X170434Y122936D01*
D16*
X170434Y100584D03*
X162052Y145288D03*
X86614Y273812D03*
D15*
X229108Y33528D02*
X282194Y33528D01*
X287782Y27940D01*
X357632Y27940D01*
D16*
X229108Y33528D03*
X357632Y27940D03*
D15*
X273812Y287782D02*
X265430Y287782D01*
X254254Y298958D01*
D16*
X273812Y287782D03*
X254254Y298958D03*
D15*
X27940Y259842D02*
X27940Y215138D01*
X27940Y259842D02*
X50292Y282194D01*
X27940Y215138D02*
X27300Y215000D01*
X50292Y282194D02*
X52700Y283700D01*
X103378Y301752D02*
X150876Y301752D01*
X103378Y301752D02*
X78232Y276606D01*
X78232Y212344D01*
X75438Y209550D01*
X75438Y192786D01*
X27940Y145288D01*
X27300Y145000D01*
D16*
X150876Y301752D03*
D15*
X363220Y22352D02*
X424688Y22352D01*
X363220Y22352D02*
X360426Y19558D01*
X223520Y19558D01*
X206756Y36322D01*
X64262Y36322D01*
X27940Y72644D01*
X27300Y75000D01*
D16*
X424688Y22352D03*
D15*
X310134Y226314D02*
X296164Y226314D01*
X310134Y226314D02*
X321310Y215138D01*
X322300Y213100D01*
X391160Y198374D02*
X391160Y142494D01*
X391160Y198374D02*
X366014Y223520D01*
X332486Y223520D01*
X324104Y215138D01*
X322300Y213100D01*
X273812Y50292D02*
X268224Y50292D01*
X273812Y50292D02*
X287782Y36322D01*
X368808Y36322D02*
X388366Y36322D01*
X368808Y36322D02*
X287782Y36322D01*
X388366Y36322D02*
X391160Y33528D01*
X392000Y33500D01*
X368808Y36322D02*
X368808Y50292D01*
X206756Y203962D02*
X173228Y203962D01*
X206756Y203962D02*
X215138Y212344D01*
X217300Y213100D01*
X173228Y203962D02*
X162052Y203962D01*
X142494Y223520D01*
X122936Y223520D01*
X114554Y215138D01*
X112300Y213100D01*
X240284Y50292D02*
X268224Y50292D01*
X240284Y50292D02*
X234696Y44704D01*
X181610Y44704D01*
X321310Y203962D02*
X321310Y212344D01*
X321310Y203962D02*
X307340Y189992D01*
X257048Y189992D01*
X245872Y201168D01*
X229108Y201168D01*
X217932Y212344D01*
X321310Y212344D02*
X322300Y213100D01*
X217932Y212344D02*
X217300Y213100D01*
D16*
X296164Y226314D03*
X391160Y142494D03*
X268224Y50292D03*
X368808Y50292D03*
X173228Y203962D03*
X181610Y44704D03*
D15*
X111760Y178816D02*
X111760Y187198D01*
X111760Y178816D02*
X100584Y167640D01*
X100584Y159258D01*
X108966Y150876D01*
X117348Y150876D01*
X125730Y159258D01*
X125730Y164846D01*
X136906Y176022D01*
X203962Y176022D01*
X215138Y187198D01*
X112300Y187700D02*
X111760Y187198D01*
X215138Y187198D02*
X217300Y187700D01*
M02*
