G04 EAGLE Gerber RS-274X export*
G75*
%MOMM*%
%FSLAX34Y34*%
%LPD*%
%INBottom Copper*%
%IPPOS*%
%AMOC8*
5,1,8,0,0,1.08239X$1,22.5*%
G01*
%ADD10R,1.800000X1.800000*%
%ADD11C,1.320800*%
%ADD12R,1.408000X1.408000*%
%ADD13R,0.600000X1.500000*%
%ADD14R,1.500000X0.600000*%
%ADD15R,1.100000X1.000000*%
%ADD16R,1.000000X1.100000*%
%ADD17C,1.308000*%
%ADD18C,1.508000*%
%ADD19C,0.406400*%
%ADD20C,0.756400*%

G36*
X232234Y10926D02*
X232234Y10926D01*
X232253Y10924D01*
X232355Y10946D01*
X232457Y10962D01*
X232474Y10972D01*
X232494Y10976D01*
X232583Y11029D01*
X232674Y11078D01*
X232688Y11092D01*
X232705Y11102D01*
X232772Y11181D01*
X232844Y11256D01*
X232852Y11274D01*
X232865Y11289D01*
X232904Y11385D01*
X232947Y11479D01*
X232949Y11499D01*
X232957Y11517D01*
X232975Y11684D01*
X232975Y13139D01*
X232961Y13230D01*
X232953Y13320D01*
X232941Y13350D01*
X232936Y13382D01*
X232893Y13463D01*
X232857Y13547D01*
X232831Y13579D01*
X232820Y13600D01*
X232797Y13622D01*
X232752Y13678D01*
X219476Y26954D01*
X219402Y27007D01*
X219332Y27067D01*
X219302Y27079D01*
X219276Y27098D01*
X219189Y27125D01*
X219104Y27159D01*
X219063Y27163D01*
X219041Y27170D01*
X219009Y27169D01*
X218937Y27177D01*
X214067Y27177D01*
X213997Y27166D01*
X213925Y27164D01*
X213876Y27146D01*
X213825Y27138D01*
X213761Y27104D01*
X213694Y27079D01*
X213653Y27047D01*
X213607Y27022D01*
X213558Y26970D01*
X213502Y26926D01*
X213474Y26882D01*
X213438Y26844D01*
X213408Y26779D01*
X213369Y26719D01*
X213356Y26668D01*
X213334Y26621D01*
X213326Y26550D01*
X213309Y26480D01*
X213313Y26428D01*
X213307Y26377D01*
X213322Y26306D01*
X213328Y26235D01*
X213348Y26187D01*
X213359Y26136D01*
X213396Y26075D01*
X213424Y26009D01*
X213469Y25953D01*
X213486Y25925D01*
X213503Y25910D01*
X213529Y25878D01*
X214857Y24550D01*
X214857Y20154D01*
X211748Y17045D01*
X209589Y17045D01*
X209498Y17031D01*
X209408Y17023D01*
X209378Y17011D01*
X209346Y17006D01*
X209265Y16963D01*
X209181Y16927D01*
X209149Y16901D01*
X209128Y16890D01*
X209106Y16867D01*
X209050Y16822D01*
X208229Y16001D01*
X203786Y16001D01*
X203766Y15998D01*
X203747Y16000D01*
X203645Y15978D01*
X203543Y15962D01*
X203526Y15952D01*
X203506Y15948D01*
X203417Y15895D01*
X203326Y15846D01*
X203312Y15832D01*
X203295Y15822D01*
X203228Y15743D01*
X203156Y15668D01*
X203148Y15650D01*
X203135Y15635D01*
X203096Y15539D01*
X203053Y15445D01*
X203051Y15425D01*
X203043Y15407D01*
X203025Y15240D01*
X203025Y14268D01*
X202132Y13375D01*
X185868Y13375D01*
X184975Y14268D01*
X184975Y21532D01*
X185555Y22112D01*
X185567Y22128D01*
X185583Y22140D01*
X185639Y22228D01*
X185699Y22311D01*
X185705Y22330D01*
X185716Y22347D01*
X185741Y22448D01*
X185771Y22547D01*
X185771Y22566D01*
X185776Y22586D01*
X185768Y22689D01*
X185765Y22792D01*
X185758Y22811D01*
X185757Y22831D01*
X185716Y22926D01*
X185681Y23023D01*
X185668Y23039D01*
X185660Y23057D01*
X185555Y23188D01*
X184947Y23797D01*
X184936Y23865D01*
X184926Y23882D01*
X184922Y23902D01*
X184869Y23991D01*
X184820Y24082D01*
X184806Y24096D01*
X184796Y24113D01*
X184717Y24180D01*
X184642Y24252D01*
X184624Y24260D01*
X184609Y24273D01*
X184513Y24312D01*
X184419Y24355D01*
X184399Y24357D01*
X184381Y24365D01*
X184214Y24383D01*
X178786Y24383D01*
X178766Y24380D01*
X178747Y24382D01*
X178645Y24360D01*
X178543Y24344D01*
X178526Y24334D01*
X178506Y24330D01*
X178417Y24277D01*
X178326Y24228D01*
X178312Y24214D01*
X178295Y24204D01*
X178228Y24125D01*
X178156Y24050D01*
X178148Y24032D01*
X178135Y24017D01*
X178096Y23921D01*
X178053Y23827D01*
X178051Y23807D01*
X178043Y23789D01*
X178043Y23787D01*
X177445Y23188D01*
X177433Y23172D01*
X177417Y23160D01*
X177361Y23072D01*
X177301Y22989D01*
X177295Y22970D01*
X177284Y22953D01*
X177259Y22852D01*
X177229Y22753D01*
X177229Y22734D01*
X177224Y22714D01*
X177232Y22611D01*
X177235Y22508D01*
X177242Y22489D01*
X177243Y22469D01*
X177284Y22374D01*
X177319Y22277D01*
X177332Y22261D01*
X177340Y22243D01*
X177445Y22112D01*
X178025Y21532D01*
X178025Y14268D01*
X177132Y13375D01*
X160868Y13375D01*
X159975Y14268D01*
X159975Y15240D01*
X159972Y15260D01*
X159974Y15279D01*
X159952Y15381D01*
X159936Y15483D01*
X159926Y15500D01*
X159922Y15520D01*
X159869Y15609D01*
X159820Y15700D01*
X159806Y15714D01*
X159796Y15731D01*
X159717Y15798D01*
X159642Y15870D01*
X159624Y15878D01*
X159609Y15891D01*
X159513Y15930D01*
X159419Y15973D01*
X159399Y15975D01*
X159381Y15983D01*
X159214Y16001D01*
X152197Y16001D01*
X115437Y52761D01*
X115342Y52830D01*
X115248Y52899D01*
X115242Y52901D01*
X115237Y52905D01*
X115125Y52939D01*
X115014Y52976D01*
X115008Y52975D01*
X115002Y52977D01*
X114885Y52974D01*
X114768Y52973D01*
X114761Y52971D01*
X114756Y52971D01*
X114739Y52965D01*
X114607Y52926D01*
X113904Y52635D01*
X110696Y52635D01*
X107732Y53863D01*
X105463Y56132D01*
X104235Y59096D01*
X104235Y62304D01*
X104526Y63007D01*
X104553Y63121D01*
X104582Y63234D01*
X104581Y63240D01*
X104583Y63246D01*
X104572Y63363D01*
X104563Y63479D01*
X104560Y63485D01*
X104559Y63491D01*
X104512Y63599D01*
X104466Y63706D01*
X104462Y63712D01*
X104459Y63716D01*
X104447Y63730D01*
X104361Y63837D01*
X76982Y91216D01*
X74675Y93523D01*
X74675Y247345D01*
X105186Y277856D01*
X107693Y280363D01*
X107748Y280439D01*
X107809Y280512D01*
X107819Y280539D01*
X107836Y280563D01*
X107864Y280653D01*
X107899Y280741D01*
X107900Y280770D01*
X107909Y280798D01*
X107906Y280892D01*
X107911Y280986D01*
X107903Y281014D01*
X107902Y281044D01*
X107870Y281132D01*
X107845Y281223D01*
X107828Y281247D01*
X107818Y281275D01*
X107759Y281348D01*
X107706Y281426D01*
X107678Y281450D01*
X107664Y281467D01*
X107637Y281484D01*
X107578Y281534D01*
X106511Y282247D01*
X105247Y283511D01*
X104253Y284999D01*
X103568Y286651D01*
X103344Y287777D01*
X110777Y287777D01*
X110777Y280924D01*
X110780Y280904D01*
X110778Y280885D01*
X110800Y280783D01*
X110817Y280681D01*
X110826Y280664D01*
X110830Y280644D01*
X110883Y280555D01*
X110932Y280464D01*
X110946Y280450D01*
X110956Y280433D01*
X111035Y280366D01*
X111110Y280294D01*
X111128Y280286D01*
X111143Y280273D01*
X111239Y280234D01*
X111333Y280191D01*
X111353Y280189D01*
X111371Y280181D01*
X111538Y280163D01*
X113062Y280163D01*
X113082Y280166D01*
X113101Y280164D01*
X113203Y280186D01*
X113305Y280202D01*
X113322Y280212D01*
X113342Y280216D01*
X113431Y280269D01*
X113522Y280318D01*
X113536Y280332D01*
X113553Y280342D01*
X113620Y280421D01*
X113691Y280496D01*
X113700Y280514D01*
X113713Y280529D01*
X113752Y280625D01*
X113795Y280719D01*
X113797Y280739D01*
X113805Y280757D01*
X113823Y280924D01*
X113823Y287777D01*
X121256Y287777D01*
X121032Y286651D01*
X120347Y284999D01*
X119353Y283511D01*
X118089Y282247D01*
X117057Y281557D01*
X117040Y281541D01*
X117019Y281530D01*
X116950Y281458D01*
X116877Y281389D01*
X116866Y281369D01*
X116850Y281352D01*
X116808Y281261D01*
X116760Y281173D01*
X116756Y281150D01*
X116746Y281129D01*
X116735Y281029D01*
X116718Y280930D01*
X116722Y280907D01*
X116719Y280885D01*
X116741Y280786D01*
X116756Y280687D01*
X116767Y280667D01*
X116771Y280644D01*
X116823Y280558D01*
X116869Y280469D01*
X116886Y280453D01*
X116898Y280433D01*
X116974Y280368D01*
X117046Y280298D01*
X117067Y280288D01*
X117085Y280273D01*
X117178Y280236D01*
X117268Y280193D01*
X117291Y280190D01*
X117313Y280181D01*
X117479Y280163D01*
X123941Y280163D01*
X124032Y280177D01*
X124122Y280185D01*
X124152Y280197D01*
X124184Y280202D01*
X124265Y280245D01*
X124349Y280281D01*
X124381Y280307D01*
X124402Y280318D01*
X124424Y280341D01*
X124480Y280386D01*
X129907Y285813D01*
X129975Y285908D01*
X130045Y286001D01*
X130047Y286007D01*
X130050Y286012D01*
X130085Y286124D01*
X130121Y286235D01*
X130121Y286241D01*
X130123Y286247D01*
X130120Y286364D01*
X130118Y286481D01*
X130116Y286488D01*
X130116Y286493D01*
X130110Y286511D01*
X130072Y286642D01*
X129635Y287696D01*
X129635Y290904D01*
X130863Y293868D01*
X133132Y296137D01*
X136096Y297365D01*
X139304Y297365D01*
X142268Y296137D01*
X144537Y293868D01*
X145765Y290904D01*
X145765Y287696D01*
X144537Y284732D01*
X142268Y282463D01*
X140251Y281627D01*
X140167Y281576D01*
X140082Y281530D01*
X140064Y281512D01*
X140041Y281498D01*
X139979Y281422D01*
X139912Y281352D01*
X139901Y281328D01*
X139885Y281308D01*
X139850Y281217D01*
X139809Y281129D01*
X139806Y281103D01*
X139796Y281079D01*
X139792Y280981D01*
X139782Y280885D01*
X139787Y280859D01*
X139786Y280833D01*
X139813Y280739D01*
X139834Y280644D01*
X139847Y280622D01*
X139855Y280597D01*
X139910Y280517D01*
X139960Y280433D01*
X139980Y280416D01*
X139995Y280395D01*
X140073Y280336D01*
X140147Y280273D01*
X140171Y280263D01*
X140192Y280248D01*
X140285Y280218D01*
X140375Y280181D01*
X140408Y280178D01*
X140426Y280172D01*
X140459Y280172D01*
X140542Y280163D01*
X141173Y280163D01*
X151639Y269697D01*
X151639Y252929D01*
X151653Y252839D01*
X151661Y252748D01*
X151673Y252719D01*
X151678Y252687D01*
X151721Y252606D01*
X151757Y252522D01*
X151783Y252490D01*
X151794Y252469D01*
X151817Y252447D01*
X151862Y252391D01*
X153389Y250864D01*
X153389Y246468D01*
X150280Y243359D01*
X145717Y243359D01*
X145701Y243365D01*
X145675Y243366D01*
X145651Y243374D01*
X145553Y243372D01*
X145455Y243376D01*
X145431Y243369D01*
X145405Y243368D01*
X145313Y243334D01*
X145219Y243307D01*
X145198Y243292D01*
X145174Y243284D01*
X145097Y243223D01*
X145017Y243167D01*
X145002Y243146D01*
X144982Y243130D01*
X144929Y243048D01*
X144870Y242970D01*
X144862Y242945D01*
X144848Y242923D01*
X144824Y242829D01*
X144794Y242736D01*
X144794Y242710D01*
X144788Y242685D01*
X144796Y242587D01*
X144797Y242490D01*
X144806Y242459D01*
X144807Y242440D01*
X144820Y242409D01*
X144843Y242329D01*
X145765Y240104D01*
X145765Y236896D01*
X144537Y233932D01*
X142268Y231663D01*
X139304Y230435D01*
X136096Y230435D01*
X133132Y231663D01*
X130863Y233932D01*
X130751Y234202D01*
X130700Y234284D01*
X130654Y234370D01*
X130635Y234388D01*
X130622Y234411D01*
X130547Y234473D01*
X130476Y234540D01*
X130452Y234551D01*
X130432Y234567D01*
X130341Y234602D01*
X130253Y234643D01*
X130227Y234646D01*
X130203Y234656D01*
X130105Y234660D01*
X130009Y234670D01*
X129983Y234665D01*
X129957Y234666D01*
X129863Y234639D01*
X129768Y234618D01*
X129746Y234605D01*
X129721Y234598D01*
X129641Y234542D01*
X129557Y234492D01*
X129540Y234472D01*
X129519Y234457D01*
X129461Y234379D01*
X129397Y234305D01*
X129387Y234281D01*
X129372Y234260D01*
X129342Y234167D01*
X129305Y234077D01*
X129302Y234045D01*
X129296Y234026D01*
X129296Y233993D01*
X129287Y233910D01*
X129287Y217690D01*
X129302Y217594D01*
X129312Y217497D01*
X129322Y217473D01*
X129326Y217447D01*
X129372Y217361D01*
X129412Y217272D01*
X129429Y217253D01*
X129442Y217230D01*
X129512Y217163D01*
X129578Y217091D01*
X129601Y217078D01*
X129620Y217060D01*
X129708Y217019D01*
X129794Y216972D01*
X129819Y216968D01*
X129843Y216957D01*
X129940Y216946D01*
X130036Y216929D01*
X130062Y216932D01*
X130087Y216930D01*
X130182Y216950D01*
X130279Y216964D01*
X130302Y216976D01*
X130328Y216982D01*
X130411Y217032D01*
X130498Y217076D01*
X130517Y217095D01*
X130539Y217108D01*
X130602Y217182D01*
X130670Y217251D01*
X130686Y217280D01*
X130699Y217295D01*
X130711Y217326D01*
X130751Y217398D01*
X130863Y217668D01*
X133132Y219937D01*
X136096Y221165D01*
X139304Y221165D01*
X142268Y219937D01*
X144537Y217668D01*
X145765Y214704D01*
X145765Y211496D01*
X144537Y208532D01*
X142268Y206263D01*
X139304Y205035D01*
X136096Y205035D01*
X133132Y206263D01*
X130863Y208532D01*
X130751Y208802D01*
X130700Y208884D01*
X130654Y208970D01*
X130635Y208988D01*
X130622Y209011D01*
X130547Y209073D01*
X130476Y209140D01*
X130452Y209151D01*
X130432Y209167D01*
X130341Y209202D01*
X130253Y209243D01*
X130227Y209246D01*
X130203Y209256D01*
X130105Y209260D01*
X130009Y209270D01*
X129983Y209265D01*
X129957Y209266D01*
X129863Y209239D01*
X129768Y209218D01*
X129746Y209205D01*
X129721Y209198D01*
X129641Y209142D01*
X129557Y209092D01*
X129540Y209072D01*
X129519Y209057D01*
X129461Y208979D01*
X129397Y208905D01*
X129387Y208881D01*
X129372Y208860D01*
X129342Y208767D01*
X129305Y208677D01*
X129302Y208645D01*
X129296Y208626D01*
X129296Y208593D01*
X129287Y208510D01*
X129287Y192290D01*
X129302Y192194D01*
X129312Y192097D01*
X129322Y192073D01*
X129326Y192047D01*
X129372Y191961D01*
X129412Y191872D01*
X129429Y191853D01*
X129442Y191830D01*
X129512Y191763D01*
X129578Y191691D01*
X129601Y191678D01*
X129620Y191660D01*
X129708Y191619D01*
X129794Y191572D01*
X129819Y191568D01*
X129843Y191557D01*
X129940Y191546D01*
X130036Y191529D01*
X130062Y191532D01*
X130087Y191530D01*
X130182Y191550D01*
X130279Y191564D01*
X130302Y191576D01*
X130328Y191582D01*
X130411Y191632D01*
X130498Y191676D01*
X130517Y191695D01*
X130539Y191708D01*
X130602Y191782D01*
X130670Y191851D01*
X130686Y191880D01*
X130699Y191895D01*
X130711Y191926D01*
X130751Y191998D01*
X130863Y192268D01*
X133132Y194537D01*
X136096Y195765D01*
X139304Y195765D01*
X142268Y194537D01*
X144537Y192268D01*
X145765Y189304D01*
X145765Y186096D01*
X144537Y183132D01*
X142268Y180863D01*
X139304Y179635D01*
X136096Y179635D01*
X133132Y180863D01*
X130863Y183132D01*
X130751Y183402D01*
X130700Y183484D01*
X130654Y183570D01*
X130635Y183588D01*
X130622Y183611D01*
X130547Y183673D01*
X130476Y183740D01*
X130452Y183751D01*
X130432Y183767D01*
X130341Y183802D01*
X130253Y183843D01*
X130227Y183846D01*
X130203Y183856D01*
X130105Y183860D01*
X130009Y183870D01*
X129983Y183865D01*
X129957Y183866D01*
X129863Y183839D01*
X129768Y183818D01*
X129746Y183805D01*
X129721Y183798D01*
X129641Y183742D01*
X129557Y183692D01*
X129540Y183672D01*
X129519Y183657D01*
X129461Y183579D01*
X129397Y183505D01*
X129387Y183481D01*
X129372Y183460D01*
X129342Y183367D01*
X129305Y183277D01*
X129302Y183245D01*
X129296Y183226D01*
X129296Y183193D01*
X129287Y183110D01*
X129287Y166890D01*
X129302Y166794D01*
X129312Y166697D01*
X129322Y166673D01*
X129326Y166647D01*
X129372Y166561D01*
X129412Y166472D01*
X129429Y166453D01*
X129442Y166430D01*
X129512Y166363D01*
X129578Y166291D01*
X129601Y166278D01*
X129620Y166260D01*
X129708Y166219D01*
X129794Y166172D01*
X129819Y166168D01*
X129843Y166157D01*
X129940Y166146D01*
X130036Y166129D01*
X130062Y166132D01*
X130087Y166130D01*
X130182Y166150D01*
X130279Y166164D01*
X130302Y166176D01*
X130328Y166182D01*
X130411Y166232D01*
X130498Y166276D01*
X130517Y166295D01*
X130539Y166308D01*
X130602Y166382D01*
X130670Y166451D01*
X130686Y166480D01*
X130699Y166495D01*
X130711Y166526D01*
X130751Y166598D01*
X130863Y166868D01*
X133132Y169137D01*
X136096Y170365D01*
X139304Y170365D01*
X142268Y169137D01*
X144537Y166868D01*
X145765Y163904D01*
X145765Y160696D01*
X144537Y157732D01*
X142268Y155463D01*
X139304Y154235D01*
X136096Y154235D01*
X133132Y155463D01*
X130863Y157732D01*
X130751Y158002D01*
X130700Y158084D01*
X130654Y158170D01*
X130635Y158188D01*
X130622Y158211D01*
X130547Y158273D01*
X130476Y158340D01*
X130452Y158351D01*
X130432Y158367D01*
X130341Y158402D01*
X130253Y158443D01*
X130227Y158446D01*
X130203Y158456D01*
X130105Y158460D01*
X130009Y158470D01*
X129983Y158465D01*
X129957Y158466D01*
X129863Y158439D01*
X129768Y158418D01*
X129746Y158405D01*
X129721Y158398D01*
X129641Y158342D01*
X129557Y158292D01*
X129540Y158272D01*
X129519Y158257D01*
X129461Y158179D01*
X129397Y158105D01*
X129387Y158081D01*
X129372Y158060D01*
X129342Y157967D01*
X129305Y157877D01*
X129302Y157845D01*
X129296Y157826D01*
X129296Y157793D01*
X129287Y157710D01*
X129287Y141490D01*
X129302Y141394D01*
X129312Y141297D01*
X129322Y141273D01*
X129326Y141247D01*
X129372Y141161D01*
X129412Y141072D01*
X129429Y141053D01*
X129442Y141030D01*
X129512Y140963D01*
X129578Y140891D01*
X129601Y140878D01*
X129620Y140860D01*
X129708Y140819D01*
X129794Y140772D01*
X129819Y140768D01*
X129843Y140757D01*
X129940Y140746D01*
X130036Y140729D01*
X130062Y140732D01*
X130087Y140730D01*
X130182Y140750D01*
X130279Y140764D01*
X130302Y140776D01*
X130328Y140782D01*
X130411Y140832D01*
X130498Y140876D01*
X130517Y140895D01*
X130539Y140908D01*
X130602Y140982D01*
X130670Y141051D01*
X130686Y141080D01*
X130699Y141095D01*
X130711Y141126D01*
X130751Y141198D01*
X130863Y141468D01*
X133132Y143737D01*
X136096Y144965D01*
X139304Y144965D01*
X142268Y143737D01*
X144537Y141468D01*
X145765Y138504D01*
X145765Y135296D01*
X145310Y134197D01*
X145283Y134082D01*
X145254Y133970D01*
X145255Y133964D01*
X145253Y133958D01*
X145264Y133841D01*
X145273Y133725D01*
X145276Y133719D01*
X145276Y133713D01*
X145325Y133605D01*
X145370Y133498D01*
X145374Y133493D01*
X145376Y133488D01*
X145389Y133474D01*
X145475Y133367D01*
X157714Y121128D01*
X160021Y118821D01*
X160021Y116343D01*
X160035Y116252D01*
X160043Y116162D01*
X160055Y116132D01*
X160060Y116100D01*
X160103Y116019D01*
X160139Y115935D01*
X160165Y115903D01*
X160176Y115882D01*
X160199Y115860D01*
X160244Y115804D01*
X163302Y112746D01*
X163376Y112693D01*
X163446Y112633D01*
X163476Y112621D01*
X163502Y112602D01*
X163589Y112575D01*
X163674Y112541D01*
X163715Y112537D01*
X163737Y112530D01*
X163769Y112531D01*
X163841Y112523D01*
X185877Y112523D01*
X208006Y90394D01*
X208857Y89543D01*
X208895Y89516D01*
X208926Y89482D01*
X208972Y89457D01*
X208989Y89442D01*
X209008Y89434D01*
X209057Y89399D01*
X209101Y89385D01*
X209141Y89363D01*
X209218Y89349D01*
X209292Y89327D01*
X209338Y89328D01*
X209383Y89320D01*
X209460Y89331D01*
X209538Y89333D01*
X209581Y89349D01*
X209627Y89355D01*
X209696Y89391D01*
X209769Y89417D01*
X209805Y89446D01*
X209846Y89467D01*
X209900Y89523D01*
X209961Y89571D01*
X209986Y89610D01*
X210018Y89643D01*
X210084Y89762D01*
X210094Y89778D01*
X210095Y89783D01*
X210099Y89789D01*
X210463Y90668D01*
X212732Y92937D01*
X215696Y94165D01*
X218904Y94165D01*
X221868Y92937D01*
X224137Y90668D01*
X225365Y87704D01*
X225365Y84496D01*
X225286Y84305D01*
X225263Y84210D01*
X225235Y84117D01*
X225235Y84091D01*
X225229Y84065D01*
X225239Y83969D01*
X225241Y83871D01*
X225250Y83846D01*
X225252Y83820D01*
X225292Y83731D01*
X225326Y83640D01*
X225342Y83620D01*
X225352Y83596D01*
X225418Y83524D01*
X225479Y83448D01*
X225501Y83434D01*
X225519Y83415D01*
X225604Y83368D01*
X225686Y83315D01*
X225712Y83309D01*
X225734Y83296D01*
X225830Y83279D01*
X225925Y83255D01*
X225951Y83257D01*
X225976Y83252D01*
X226073Y83266D01*
X226170Y83274D01*
X226194Y83284D01*
X226220Y83288D01*
X226307Y83332D01*
X226396Y83370D01*
X226422Y83391D01*
X226439Y83399D01*
X226462Y83423D01*
X226527Y83475D01*
X228122Y85070D01*
X228175Y85144D01*
X228235Y85214D01*
X228247Y85244D01*
X228266Y85270D01*
X228293Y85357D01*
X228327Y85442D01*
X228331Y85483D01*
X228338Y85505D01*
X228337Y85537D01*
X228345Y85609D01*
X228345Y93675D01*
X236504Y101834D01*
X238194Y103524D01*
X238206Y103540D01*
X238221Y103553D01*
X238277Y103640D01*
X238338Y103724D01*
X238343Y103743D01*
X238354Y103760D01*
X238380Y103860D01*
X238410Y103959D01*
X238409Y103979D01*
X238414Y103998D01*
X238406Y104101D01*
X238404Y104205D01*
X238397Y104224D01*
X238395Y104243D01*
X238355Y104338D01*
X238319Y104436D01*
X238307Y104451D01*
X238299Y104470D01*
X238194Y104601D01*
X235863Y106932D01*
X234635Y109896D01*
X234635Y112063D01*
X234621Y112153D01*
X234613Y112244D01*
X234601Y112274D01*
X234596Y112306D01*
X234553Y112387D01*
X234517Y112471D01*
X234491Y112503D01*
X234480Y112524D01*
X234457Y112546D01*
X234412Y112602D01*
X233964Y113050D01*
X233906Y113092D01*
X233854Y113141D01*
X233807Y113163D01*
X233765Y113193D01*
X233696Y113214D01*
X233631Y113245D01*
X233579Y113250D01*
X233529Y113266D01*
X233458Y113264D01*
X233387Y113272D01*
X233336Y113261D01*
X233284Y113259D01*
X233216Y113235D01*
X233146Y113219D01*
X233101Y113193D01*
X233053Y113175D01*
X232997Y113130D01*
X232935Y113093D01*
X232901Y113054D01*
X232861Y113021D01*
X232822Y112961D01*
X232775Y112906D01*
X232756Y112858D01*
X232728Y112814D01*
X232710Y112745D01*
X232683Y112678D01*
X232675Y112607D01*
X232667Y112576D01*
X232669Y112552D01*
X232665Y112511D01*
X232665Y107493D01*
X222199Y97027D01*
X210871Y97027D01*
X197611Y110287D01*
X197611Y132389D01*
X197600Y132459D01*
X197598Y132531D01*
X197580Y132580D01*
X197572Y132631D01*
X197538Y132695D01*
X197513Y132762D01*
X197481Y132803D01*
X197456Y132849D01*
X197405Y132898D01*
X197360Y132954D01*
X197316Y132982D01*
X197278Y133018D01*
X197213Y133048D01*
X197153Y133087D01*
X197102Y133100D01*
X197055Y133122D01*
X196984Y133130D01*
X196914Y133147D01*
X196862Y133143D01*
X196811Y133149D01*
X196740Y133134D01*
X196669Y133128D01*
X196621Y133108D01*
X196570Y133097D01*
X196509Y133060D01*
X196443Y133032D01*
X196387Y132987D01*
X196359Y132970D01*
X196344Y132953D01*
X196312Y132927D01*
X195914Y132529D01*
X195888Y132493D01*
X195856Y132464D01*
X195817Y132394D01*
X195770Y132329D01*
X195757Y132287D01*
X195736Y132249D01*
X195721Y132170D01*
X195698Y132094D01*
X195699Y132050D01*
X195691Y132007D01*
X195702Y131928D01*
X195704Y131848D01*
X195719Y131807D01*
X195726Y131764D01*
X195761Y131684D01*
X195761Y131682D01*
X195763Y131679D01*
X195784Y131631D01*
X195789Y131617D01*
X195791Y131615D01*
X195793Y131610D01*
X195868Y131481D01*
X196041Y130834D01*
X196041Y126523D01*
X189262Y126523D01*
X189242Y126520D01*
X189223Y126522D01*
X189121Y126500D01*
X189019Y126483D01*
X189002Y126474D01*
X188982Y126470D01*
X188893Y126417D01*
X188802Y126368D01*
X188788Y126354D01*
X188771Y126344D01*
X188704Y126265D01*
X188633Y126190D01*
X188624Y126172D01*
X188611Y126157D01*
X188572Y126061D01*
X188529Y125967D01*
X188527Y125947D01*
X188519Y125929D01*
X188501Y125762D01*
X188501Y124999D01*
X188499Y124999D01*
X188499Y125762D01*
X188496Y125782D01*
X188498Y125801D01*
X188476Y125903D01*
X188459Y126005D01*
X188450Y126022D01*
X188446Y126042D01*
X188393Y126131D01*
X188344Y126222D01*
X188330Y126236D01*
X188320Y126253D01*
X188241Y126320D01*
X188166Y126391D01*
X188148Y126400D01*
X188133Y126413D01*
X188037Y126452D01*
X187943Y126495D01*
X187923Y126497D01*
X187905Y126505D01*
X187738Y126523D01*
X180959Y126523D01*
X180959Y130834D01*
X181132Y131481D01*
X181479Y132080D01*
X181498Y132108D01*
X181548Y132160D01*
X181570Y132207D01*
X181600Y132249D01*
X181621Y132318D01*
X181651Y132383D01*
X181657Y132435D01*
X181672Y132484D01*
X181671Y132556D01*
X181679Y132627D01*
X181668Y132678D01*
X181666Y132730D01*
X181642Y132798D01*
X181626Y132868D01*
X181600Y132912D01*
X181582Y132961D01*
X181537Y133017D01*
X181500Y133079D01*
X181461Y133113D01*
X181428Y133153D01*
X181368Y133192D01*
X181313Y133239D01*
X181265Y133258D01*
X181221Y133286D01*
X181152Y133304D01*
X181085Y133331D01*
X181014Y133339D01*
X180983Y133347D01*
X180959Y133345D01*
X180918Y133349D01*
X177645Y133349D01*
X177574Y133338D01*
X177502Y133336D01*
X177453Y133318D01*
X177402Y133310D01*
X177339Y133276D01*
X177271Y133251D01*
X177231Y133219D01*
X177185Y133194D01*
X177135Y133142D01*
X177079Y133098D01*
X177051Y133054D01*
X177015Y133016D01*
X176985Y132951D01*
X176946Y132891D01*
X176934Y132840D01*
X176912Y132793D01*
X176904Y132722D01*
X176886Y132652D01*
X176890Y132600D01*
X176885Y132549D01*
X176900Y132478D01*
X176905Y132407D01*
X176926Y132359D01*
X176937Y132308D01*
X176974Y132247D01*
X177002Y132181D01*
X177047Y132125D01*
X177063Y132097D01*
X177081Y132082D01*
X177107Y132050D01*
X178025Y131132D01*
X178025Y118868D01*
X177132Y117975D01*
X165868Y117975D01*
X164975Y118868D01*
X164975Y131132D01*
X165868Y132025D01*
X168910Y132025D01*
X168930Y132028D01*
X168949Y132026D01*
X169051Y132048D01*
X169153Y132064D01*
X169170Y132074D01*
X169190Y132078D01*
X169279Y132131D01*
X169370Y132180D01*
X169384Y132194D01*
X169401Y132204D01*
X169468Y132283D01*
X169540Y132358D01*
X169548Y132376D01*
X169561Y132391D01*
X169600Y132487D01*
X169643Y132581D01*
X169645Y132601D01*
X169653Y132619D01*
X169671Y132786D01*
X169671Y147714D01*
X169668Y147734D01*
X169670Y147753D01*
X169648Y147855D01*
X169632Y147957D01*
X169622Y147974D01*
X169618Y147994D01*
X169565Y148083D01*
X169516Y148174D01*
X169502Y148188D01*
X169492Y148205D01*
X169413Y148272D01*
X169338Y148344D01*
X169320Y148352D01*
X169305Y148365D01*
X169209Y148404D01*
X169115Y148447D01*
X169095Y148449D01*
X169077Y148457D01*
X168910Y148475D01*
X168120Y148475D01*
X168100Y148472D01*
X168081Y148474D01*
X167979Y148452D01*
X167877Y148436D01*
X167860Y148426D01*
X167840Y148422D01*
X167751Y148369D01*
X167660Y148320D01*
X167646Y148306D01*
X167629Y148296D01*
X167562Y148217D01*
X167490Y148142D01*
X167482Y148124D01*
X167469Y148109D01*
X167430Y148013D01*
X167387Y147919D01*
X167385Y147899D01*
X167377Y147881D01*
X167359Y147714D01*
X167359Y143090D01*
X164250Y139981D01*
X159854Y139981D01*
X156745Y143090D01*
X156745Y147486D01*
X158272Y149013D01*
X158325Y149087D01*
X158385Y149157D01*
X158397Y149187D01*
X158416Y149213D01*
X158443Y149300D01*
X158477Y149385D01*
X158481Y149426D01*
X158488Y149448D01*
X158487Y149480D01*
X158495Y149551D01*
X158495Y174701D01*
X165752Y181958D01*
X165805Y182032D01*
X165865Y182102D01*
X165877Y182132D01*
X165896Y182158D01*
X165923Y182245D01*
X165957Y182330D01*
X165961Y182371D01*
X165968Y182393D01*
X165967Y182425D01*
X165975Y182497D01*
X165975Y190632D01*
X166868Y191525D01*
X168910Y191525D01*
X168930Y191528D01*
X168949Y191526D01*
X169051Y191548D01*
X169153Y191564D01*
X169170Y191574D01*
X169190Y191578D01*
X169279Y191631D01*
X169370Y191680D01*
X169384Y191694D01*
X169401Y191704D01*
X169468Y191783D01*
X169540Y191858D01*
X169548Y191876D01*
X169561Y191891D01*
X169600Y191987D01*
X169643Y192081D01*
X169645Y192101D01*
X169653Y192119D01*
X169671Y192286D01*
X169671Y194259D01*
X171978Y196566D01*
X172768Y197356D01*
X172810Y197414D01*
X172859Y197466D01*
X172881Y197513D01*
X172911Y197555D01*
X172932Y197624D01*
X172963Y197689D01*
X172968Y197741D01*
X172984Y197791D01*
X172982Y197862D01*
X172990Y197933D01*
X172979Y197984D01*
X172977Y198036D01*
X172953Y198104D01*
X172937Y198174D01*
X172911Y198219D01*
X172893Y198267D01*
X172848Y198323D01*
X172811Y198385D01*
X172772Y198419D01*
X172739Y198459D01*
X172679Y198498D01*
X172624Y198545D01*
X172576Y198564D01*
X172532Y198592D01*
X172463Y198610D01*
X172396Y198637D01*
X172325Y198645D01*
X172294Y198653D01*
X172270Y198651D01*
X172229Y198655D01*
X171030Y198655D01*
X167921Y201764D01*
X167921Y206160D01*
X168437Y206676D01*
X168479Y206734D01*
X168528Y206786D01*
X168550Y206833D01*
X168580Y206875D01*
X168602Y206944D01*
X168632Y207009D01*
X168637Y207061D01*
X168653Y207111D01*
X168651Y207182D01*
X168659Y207253D01*
X168648Y207304D01*
X168646Y207356D01*
X168622Y207424D01*
X168607Y207494D01*
X168580Y207539D01*
X168562Y207587D01*
X168517Y207643D01*
X168480Y207705D01*
X168441Y207739D01*
X168408Y207779D01*
X168348Y207818D01*
X168293Y207865D01*
X168245Y207884D01*
X168201Y207912D01*
X168132Y207930D01*
X168065Y207957D01*
X167994Y207965D01*
X167963Y207973D01*
X167940Y207971D01*
X167899Y207975D01*
X165868Y207975D01*
X164975Y208868D01*
X164975Y221132D01*
X165868Y222025D01*
X177132Y222025D01*
X178025Y221132D01*
X178025Y208868D01*
X177464Y208308D01*
X177452Y208291D01*
X177437Y208279D01*
X177381Y208192D01*
X177320Y208108D01*
X177314Y208089D01*
X177304Y208072D01*
X177278Y207971D01*
X177248Y207873D01*
X177248Y207853D01*
X177244Y207834D01*
X177252Y207731D01*
X177254Y207627D01*
X177261Y207608D01*
X177263Y207588D01*
X177303Y207493D01*
X177339Y207396D01*
X177351Y207380D01*
X177359Y207362D01*
X177464Y207231D01*
X178535Y206160D01*
X178535Y204961D01*
X178546Y204890D01*
X178548Y204818D01*
X178566Y204769D01*
X178574Y204718D01*
X178608Y204654D01*
X178633Y204587D01*
X178665Y204546D01*
X178690Y204500D01*
X178742Y204451D01*
X178786Y204395D01*
X178830Y204367D01*
X178868Y204331D01*
X178933Y204301D01*
X178993Y204262D01*
X179044Y204249D01*
X179091Y204227D01*
X179162Y204219D01*
X179232Y204202D01*
X179284Y204206D01*
X179335Y204200D01*
X179406Y204216D01*
X179477Y204221D01*
X179525Y204241D01*
X179576Y204253D01*
X179637Y204289D01*
X179703Y204317D01*
X179759Y204362D01*
X179787Y204379D01*
X179802Y204397D01*
X179834Y204422D01*
X182590Y207178D01*
X182601Y207194D01*
X182617Y207206D01*
X182673Y207293D01*
X182733Y207377D01*
X182739Y207396D01*
X182750Y207413D01*
X182775Y207513D01*
X182805Y207612D01*
X182805Y207632D01*
X182810Y207652D01*
X182802Y207755D01*
X182799Y207858D01*
X182792Y207877D01*
X182791Y207897D01*
X182750Y207992D01*
X182715Y208089D01*
X182702Y208105D01*
X182694Y208123D01*
X182590Y208254D01*
X181975Y208868D01*
X181975Y220923D01*
X181961Y221013D01*
X181953Y221104D01*
X181941Y221133D01*
X181936Y221165D01*
X181893Y221246D01*
X181857Y221330D01*
X181831Y221362D01*
X181820Y221383D01*
X181797Y221405D01*
X181752Y221461D01*
X179097Y224116D01*
X179097Y226275D01*
X179083Y226366D01*
X179075Y226456D01*
X179063Y226486D01*
X179058Y226518D01*
X179015Y226599D01*
X178979Y226683D01*
X178953Y226715D01*
X178942Y226736D01*
X178919Y226758D01*
X178874Y226814D01*
X169671Y236017D01*
X169671Y237714D01*
X169668Y237734D01*
X169670Y237753D01*
X169648Y237855D01*
X169632Y237957D01*
X169622Y237974D01*
X169618Y237994D01*
X169565Y238083D01*
X169516Y238174D01*
X169502Y238188D01*
X169492Y238205D01*
X169413Y238272D01*
X169338Y238344D01*
X169320Y238352D01*
X169305Y238365D01*
X169209Y238404D01*
X169115Y238447D01*
X169095Y238449D01*
X169077Y238457D01*
X168910Y238475D01*
X166868Y238475D01*
X165975Y239368D01*
X165975Y255632D01*
X166868Y256525D01*
X174132Y256525D01*
X174712Y255945D01*
X174728Y255933D01*
X174740Y255917D01*
X174828Y255861D01*
X174911Y255801D01*
X174930Y255795D01*
X174947Y255784D01*
X175048Y255759D01*
X175147Y255729D01*
X175166Y255729D01*
X175186Y255724D01*
X175289Y255732D01*
X175392Y255735D01*
X175411Y255742D01*
X175431Y255743D01*
X175526Y255784D01*
X175623Y255819D01*
X175639Y255832D01*
X175657Y255840D01*
X175788Y255945D01*
X176368Y256525D01*
X177292Y256525D01*
X177312Y256528D01*
X177331Y256526D01*
X177433Y256548D01*
X177535Y256564D01*
X177552Y256574D01*
X177572Y256578D01*
X177661Y256631D01*
X177752Y256680D01*
X177766Y256694D01*
X177783Y256704D01*
X177850Y256783D01*
X177922Y256858D01*
X177930Y256876D01*
X177943Y256891D01*
X177982Y256987D01*
X178025Y257081D01*
X178027Y257101D01*
X178035Y257119D01*
X178053Y257286D01*
X178053Y262714D01*
X178050Y262734D01*
X178052Y262753D01*
X178030Y262855D01*
X178014Y262957D01*
X178004Y262974D01*
X178000Y262994D01*
X177947Y263083D01*
X177898Y263174D01*
X177884Y263188D01*
X177874Y263205D01*
X177795Y263272D01*
X177720Y263344D01*
X177702Y263352D01*
X177687Y263365D01*
X177591Y263404D01*
X177497Y263447D01*
X177477Y263449D01*
X177459Y263457D01*
X177292Y263475D01*
X176368Y263475D01*
X175788Y264055D01*
X175772Y264067D01*
X175760Y264083D01*
X175672Y264139D01*
X175589Y264199D01*
X175570Y264205D01*
X175553Y264216D01*
X175452Y264241D01*
X175353Y264271D01*
X175334Y264271D01*
X175314Y264276D01*
X175211Y264268D01*
X175108Y264265D01*
X175089Y264258D01*
X175069Y264257D01*
X174974Y264216D01*
X174877Y264181D01*
X174861Y264168D01*
X174843Y264160D01*
X174712Y264055D01*
X174132Y263475D01*
X166868Y263475D01*
X165975Y264368D01*
X165975Y280642D01*
X166016Y280705D01*
X166076Y280789D01*
X166082Y280808D01*
X166093Y280824D01*
X166118Y280925D01*
X166148Y281024D01*
X166148Y281044D01*
X166153Y281063D01*
X166145Y281166D01*
X166142Y281270D01*
X166135Y281288D01*
X166134Y281308D01*
X166093Y281403D01*
X166058Y281501D01*
X166045Y281516D01*
X166037Y281534D01*
X165933Y281665D01*
X151376Y296222D01*
X151302Y296275D01*
X151232Y296335D01*
X151202Y296347D01*
X151176Y296366D01*
X151089Y296393D01*
X151004Y296427D01*
X150963Y296431D01*
X150941Y296438D01*
X150909Y296437D01*
X150837Y296445D01*
X148678Y296445D01*
X145569Y299554D01*
X145569Y303950D01*
X148678Y307059D01*
X153074Y307059D01*
X156183Y303950D01*
X156183Y301791D01*
X156197Y301700D01*
X156205Y301610D01*
X156217Y301580D01*
X156222Y301548D01*
X156265Y301467D01*
X156301Y301383D01*
X156327Y301351D01*
X156338Y301330D01*
X156361Y301308D01*
X156406Y301252D01*
X173991Y283667D01*
X173991Y281981D01*
X174005Y281891D01*
X174013Y281800D01*
X174025Y281770D01*
X174030Y281738D01*
X174073Y281657D01*
X174109Y281574D01*
X174135Y281541D01*
X174146Y281521D01*
X174169Y281499D01*
X174214Y281443D01*
X174712Y280945D01*
X174728Y280933D01*
X174740Y280917D01*
X174828Y280861D01*
X174911Y280801D01*
X174930Y280795D01*
X174947Y280784D01*
X175048Y280759D01*
X175147Y280729D01*
X175166Y280729D01*
X175186Y280724D01*
X175289Y280732D01*
X175392Y280735D01*
X175411Y280742D01*
X175431Y280743D01*
X175526Y280784D01*
X175623Y280819D01*
X175639Y280832D01*
X175657Y280840D01*
X175788Y280945D01*
X176368Y281525D01*
X183632Y281525D01*
X184212Y280945D01*
X184228Y280933D01*
X184240Y280917D01*
X184328Y280861D01*
X184411Y280801D01*
X184430Y280795D01*
X184447Y280784D01*
X184548Y280759D01*
X184647Y280729D01*
X184666Y280729D01*
X184686Y280724D01*
X184789Y280732D01*
X184892Y280735D01*
X184911Y280742D01*
X184931Y280743D01*
X185026Y280784D01*
X185123Y280819D01*
X185139Y280832D01*
X185157Y280840D01*
X185288Y280945D01*
X185868Y281525D01*
X193132Y281525D01*
X194025Y280632D01*
X194025Y264368D01*
X193132Y263475D01*
X185928Y263475D01*
X185908Y263472D01*
X185889Y263474D01*
X185787Y263452D01*
X185685Y263436D01*
X185668Y263426D01*
X185648Y263422D01*
X185559Y263369D01*
X185468Y263320D01*
X185454Y263306D01*
X185437Y263296D01*
X185370Y263217D01*
X185298Y263142D01*
X185290Y263124D01*
X185277Y263109D01*
X185238Y263013D01*
X185195Y262919D01*
X185193Y262899D01*
X185185Y262881D01*
X185167Y262714D01*
X185167Y257286D01*
X185170Y257266D01*
X185168Y257247D01*
X185190Y257145D01*
X185206Y257043D01*
X185216Y257026D01*
X185220Y257006D01*
X185273Y256917D01*
X185322Y256826D01*
X185336Y256812D01*
X185346Y256795D01*
X185425Y256728D01*
X185500Y256656D01*
X185518Y256648D01*
X185533Y256635D01*
X185629Y256596D01*
X185723Y256553D01*
X185743Y256551D01*
X185761Y256543D01*
X185928Y256525D01*
X193132Y256525D01*
X194025Y255632D01*
X194025Y247185D01*
X194039Y247094D01*
X194047Y247004D01*
X194059Y246974D01*
X194064Y246942D01*
X194107Y246861D01*
X194143Y246777D01*
X194169Y246745D01*
X194180Y246724D01*
X194203Y246702D01*
X194248Y246646D01*
X201900Y238994D01*
X201958Y238952D01*
X202010Y238903D01*
X202057Y238881D01*
X202099Y238851D01*
X202168Y238830D01*
X202233Y238799D01*
X202285Y238794D01*
X202335Y238778D01*
X202406Y238780D01*
X202477Y238772D01*
X202528Y238783D01*
X202580Y238785D01*
X202648Y238809D01*
X202718Y238825D01*
X202763Y238851D01*
X202811Y238869D01*
X202867Y238914D01*
X202929Y238951D01*
X202963Y238990D01*
X203003Y239023D01*
X203042Y239083D01*
X203089Y239138D01*
X203108Y239186D01*
X203136Y239230D01*
X203154Y239299D01*
X203181Y239366D01*
X203189Y239437D01*
X203197Y239468D01*
X203195Y239492D01*
X203199Y239533D01*
X203199Y244551D01*
X210871Y252223D01*
X216143Y252223D01*
X216234Y252237D01*
X216324Y252245D01*
X216354Y252257D01*
X216386Y252262D01*
X216467Y252305D01*
X216551Y252341D01*
X216583Y252367D01*
X216604Y252378D01*
X216618Y252393D01*
X216620Y252394D01*
X216629Y252404D01*
X216682Y252446D01*
X218772Y254536D01*
X218814Y254594D01*
X218863Y254646D01*
X218885Y254693D01*
X218915Y254735D01*
X218936Y254804D01*
X218967Y254869D01*
X218972Y254921D01*
X218988Y254971D01*
X218986Y255042D01*
X218994Y255113D01*
X218983Y255164D01*
X218981Y255216D01*
X218957Y255284D01*
X218941Y255354D01*
X218915Y255399D01*
X218897Y255447D01*
X218852Y255503D01*
X218815Y255565D01*
X218776Y255599D01*
X218743Y255639D01*
X218683Y255678D01*
X218628Y255725D01*
X218580Y255744D01*
X218536Y255772D01*
X218467Y255790D01*
X218400Y255817D01*
X218329Y255825D01*
X218298Y255833D01*
X218274Y255831D01*
X218233Y255835D01*
X215696Y255835D01*
X212732Y257063D01*
X210463Y259332D01*
X209235Y262296D01*
X209235Y265504D01*
X210463Y268468D01*
X212732Y270737D01*
X215696Y271965D01*
X218904Y271965D01*
X221868Y270737D01*
X224137Y268468D01*
X224574Y267414D01*
X224598Y267375D01*
X224614Y267332D01*
X224662Y267271D01*
X224703Y267205D01*
X224739Y267176D01*
X224767Y267140D01*
X224833Y267098D01*
X224893Y267048D01*
X224936Y267032D01*
X224974Y267007D01*
X225050Y266988D01*
X225122Y266960D01*
X225168Y266958D01*
X225213Y266947D01*
X225290Y266953D01*
X225368Y266950D01*
X225412Y266962D01*
X225458Y266966D01*
X225529Y266996D01*
X225604Y267018D01*
X225642Y267044D01*
X225684Y267062D01*
X225791Y267148D01*
X225806Y267158D01*
X225809Y267162D01*
X225815Y267167D01*
X227858Y269210D01*
X238811Y280163D01*
X239858Y280163D01*
X239954Y280178D01*
X240051Y280188D01*
X240075Y280198D01*
X240101Y280202D01*
X240187Y280248D01*
X240276Y280288D01*
X240295Y280305D01*
X240318Y280318D01*
X240385Y280388D01*
X240457Y280454D01*
X240470Y280477D01*
X240488Y280496D01*
X240529Y280584D01*
X240576Y280670D01*
X240580Y280695D01*
X240591Y280719D01*
X240602Y280816D01*
X240619Y280912D01*
X240615Y280938D01*
X240618Y280963D01*
X240598Y281059D01*
X240584Y281155D01*
X240572Y281178D01*
X240566Y281204D01*
X240516Y281287D01*
X240472Y281374D01*
X240453Y281393D01*
X240440Y281415D01*
X240366Y281478D01*
X240296Y281546D01*
X240268Y281562D01*
X240253Y281575D01*
X240222Y281587D01*
X240149Y281627D01*
X238132Y282463D01*
X235863Y284732D01*
X234635Y287696D01*
X234635Y290904D01*
X235863Y293868D01*
X238132Y296137D01*
X241096Y297365D01*
X244304Y297365D01*
X247268Y296137D01*
X249537Y293868D01*
X250792Y290838D01*
X250816Y290800D01*
X250832Y290756D01*
X250881Y290696D01*
X250922Y290629D01*
X250957Y290600D01*
X250986Y290564D01*
X251051Y290522D01*
X251111Y290473D01*
X251154Y290456D01*
X251192Y290431D01*
X251268Y290412D01*
X251341Y290384D01*
X251386Y290382D01*
X251431Y290371D01*
X251509Y290377D01*
X251586Y290374D01*
X251631Y290387D01*
X251676Y290390D01*
X251748Y290421D01*
X251823Y290443D01*
X251860Y290469D01*
X251903Y290487D01*
X252009Y290572D01*
X252025Y290583D01*
X252028Y290587D01*
X252034Y290592D01*
X253004Y291562D01*
X253794Y292352D01*
X253836Y292410D01*
X253885Y292462D01*
X253907Y292509D01*
X253937Y292551D01*
X253958Y292620D01*
X253989Y292685D01*
X253994Y292737D01*
X254010Y292787D01*
X254008Y292858D01*
X254016Y292929D01*
X254005Y292980D01*
X254003Y293032D01*
X253979Y293100D01*
X253963Y293170D01*
X253937Y293215D01*
X253919Y293263D01*
X253874Y293319D01*
X253837Y293381D01*
X253798Y293415D01*
X253765Y293455D01*
X253705Y293494D01*
X253650Y293541D01*
X253602Y293560D01*
X253558Y293588D01*
X253489Y293606D01*
X253422Y293633D01*
X253351Y293641D01*
X253320Y293649D01*
X253296Y293647D01*
X253255Y293651D01*
X252056Y293651D01*
X248947Y296760D01*
X248947Y298919D01*
X248933Y299010D01*
X248925Y299100D01*
X248913Y299130D01*
X248908Y299162D01*
X248865Y299243D01*
X248829Y299327D01*
X248803Y299359D01*
X248792Y299380D01*
X248769Y299402D01*
X248724Y299458D01*
X222932Y325250D01*
X222874Y325292D01*
X222822Y325341D01*
X222775Y325363D01*
X222733Y325393D01*
X222664Y325414D01*
X222599Y325445D01*
X222547Y325450D01*
X222497Y325466D01*
X222426Y325464D01*
X222355Y325472D01*
X222304Y325461D01*
X222252Y325459D01*
X222184Y325435D01*
X222114Y325419D01*
X222070Y325393D01*
X222021Y325375D01*
X221965Y325330D01*
X221903Y325293D01*
X221869Y325254D01*
X221829Y325221D01*
X221790Y325161D01*
X221743Y325106D01*
X221724Y325058D01*
X221696Y325014D01*
X221678Y324945D01*
X221651Y324878D01*
X221643Y324807D01*
X221635Y324776D01*
X221637Y324752D01*
X221633Y324711D01*
X221633Y323383D01*
X220395Y320395D01*
X218109Y318109D01*
X215121Y316871D01*
X198679Y316871D01*
X195691Y318109D01*
X193405Y320395D01*
X192167Y323383D01*
X192167Y326617D01*
X193405Y329605D01*
X194224Y330424D01*
X194266Y330482D01*
X194315Y330534D01*
X194337Y330581D01*
X194368Y330623D01*
X194389Y330692D01*
X194419Y330757D01*
X194425Y330809D01*
X194440Y330859D01*
X194438Y330930D01*
X194446Y331001D01*
X194435Y331052D01*
X194434Y331104D01*
X194409Y331172D01*
X194394Y331242D01*
X194367Y331287D01*
X194349Y331335D01*
X194304Y331391D01*
X194267Y331453D01*
X194228Y331487D01*
X194195Y331527D01*
X194135Y331566D01*
X194081Y331613D01*
X194032Y331632D01*
X193988Y331660D01*
X193919Y331678D01*
X193852Y331705D01*
X193781Y331713D01*
X193750Y331721D01*
X193727Y331719D01*
X193686Y331723D01*
X176314Y331723D01*
X176244Y331712D01*
X176172Y331710D01*
X176123Y331692D01*
X176072Y331684D01*
X176008Y331650D01*
X175941Y331625D01*
X175900Y331593D01*
X175854Y331568D01*
X175805Y331516D01*
X175749Y331472D01*
X175721Y331428D01*
X175685Y331390D01*
X175655Y331325D01*
X175616Y331265D01*
X175603Y331214D01*
X175581Y331167D01*
X175573Y331096D01*
X175556Y331026D01*
X175560Y330974D01*
X175554Y330923D01*
X175569Y330852D01*
X175575Y330781D01*
X175595Y330733D01*
X175606Y330682D01*
X175643Y330621D01*
X175671Y330555D01*
X175716Y330499D01*
X175733Y330471D01*
X175750Y330456D01*
X175776Y330424D01*
X176595Y329605D01*
X177833Y326617D01*
X177833Y323383D01*
X176595Y320395D01*
X175628Y319428D01*
X175617Y319412D01*
X175601Y319400D01*
X175545Y319313D01*
X175485Y319229D01*
X175479Y319210D01*
X175468Y319193D01*
X175443Y319092D01*
X175412Y318994D01*
X175413Y318974D01*
X175408Y318954D01*
X175416Y318851D01*
X175419Y318748D01*
X175425Y318729D01*
X175427Y318709D01*
X175467Y318614D01*
X175503Y318517D01*
X175516Y318501D01*
X175523Y318483D01*
X175628Y318352D01*
X204725Y289255D01*
X204725Y269693D01*
X204739Y269603D01*
X204747Y269512D01*
X204759Y269483D01*
X204764Y269451D01*
X204807Y269370D01*
X204843Y269286D01*
X204869Y269254D01*
X204880Y269233D01*
X204903Y269211D01*
X204948Y269155D01*
X206475Y267628D01*
X206475Y263232D01*
X203366Y260123D01*
X198970Y260123D01*
X195861Y263232D01*
X195861Y267628D01*
X197388Y269155D01*
X197441Y269229D01*
X197501Y269299D01*
X197513Y269329D01*
X197532Y269355D01*
X197559Y269442D01*
X197593Y269527D01*
X197597Y269568D01*
X197604Y269590D01*
X197603Y269622D01*
X197611Y269693D01*
X197611Y285993D01*
X197597Y286084D01*
X197589Y286174D01*
X197577Y286204D01*
X197572Y286236D01*
X197529Y286317D01*
X197493Y286401D01*
X197467Y286433D01*
X197456Y286454D01*
X197433Y286476D01*
X197388Y286532D01*
X167272Y316648D01*
X167198Y316701D01*
X167128Y316761D01*
X167098Y316773D01*
X167072Y316792D01*
X166985Y316819D01*
X166900Y316853D01*
X166859Y316857D01*
X166837Y316864D01*
X166805Y316863D01*
X166733Y316871D01*
X154879Y316871D01*
X151891Y318109D01*
X149605Y320395D01*
X148367Y323383D01*
X148367Y326617D01*
X149605Y329605D01*
X150424Y330424D01*
X150466Y330482D01*
X150515Y330534D01*
X150537Y330581D01*
X150568Y330623D01*
X150589Y330692D01*
X150619Y330757D01*
X150625Y330809D01*
X150640Y330859D01*
X150638Y330930D01*
X150646Y331001D01*
X150635Y331052D01*
X150634Y331104D01*
X150609Y331172D01*
X150594Y331242D01*
X150567Y331287D01*
X150549Y331335D01*
X150504Y331391D01*
X150467Y331453D01*
X150428Y331487D01*
X150395Y331527D01*
X150335Y331566D01*
X150281Y331613D01*
X150232Y331632D01*
X150188Y331660D01*
X150119Y331678D01*
X150052Y331705D01*
X149981Y331713D01*
X149950Y331721D01*
X149927Y331719D01*
X149886Y331723D01*
X100114Y331723D01*
X100044Y331712D01*
X99972Y331710D01*
X99923Y331692D01*
X99872Y331684D01*
X99808Y331650D01*
X99741Y331625D01*
X99700Y331593D01*
X99654Y331568D01*
X99605Y331516D01*
X99549Y331472D01*
X99521Y331428D01*
X99485Y331390D01*
X99455Y331325D01*
X99416Y331265D01*
X99403Y331214D01*
X99381Y331167D01*
X99373Y331096D01*
X99356Y331026D01*
X99360Y330974D01*
X99354Y330923D01*
X99369Y330852D01*
X99375Y330781D01*
X99395Y330733D01*
X99406Y330682D01*
X99443Y330621D01*
X99471Y330555D01*
X99516Y330499D01*
X99533Y330471D01*
X99550Y330456D01*
X99576Y330424D01*
X100395Y329605D01*
X101633Y326617D01*
X101633Y323383D01*
X100395Y320395D01*
X98109Y318109D01*
X95121Y316871D01*
X90932Y316871D01*
X90912Y316868D01*
X90893Y316870D01*
X90791Y316848D01*
X90689Y316832D01*
X90672Y316822D01*
X90652Y316818D01*
X90563Y316765D01*
X90472Y316716D01*
X90458Y316702D01*
X90441Y316692D01*
X90374Y316613D01*
X90302Y316538D01*
X90294Y316520D01*
X90281Y316505D01*
X90242Y316409D01*
X90199Y316315D01*
X90197Y316295D01*
X90189Y316277D01*
X90171Y316110D01*
X90171Y278075D01*
X90185Y277985D01*
X90193Y277894D01*
X90205Y277865D01*
X90210Y277833D01*
X90253Y277752D01*
X90289Y277668D01*
X90315Y277636D01*
X90326Y277615D01*
X90349Y277593D01*
X90394Y277537D01*
X91921Y276010D01*
X91921Y271614D01*
X88812Y268505D01*
X84416Y268505D01*
X81307Y271614D01*
X81307Y276010D01*
X82834Y277537D01*
X82887Y277611D01*
X82947Y277681D01*
X82959Y277711D01*
X82978Y277737D01*
X83005Y277824D01*
X83039Y277909D01*
X83043Y277950D01*
X83050Y277972D01*
X83049Y278004D01*
X83057Y278075D01*
X83057Y316110D01*
X83054Y316130D01*
X83056Y316149D01*
X83034Y316251D01*
X83018Y316353D01*
X83008Y316370D01*
X83004Y316390D01*
X82951Y316479D01*
X82902Y316570D01*
X82888Y316584D01*
X82878Y316601D01*
X82799Y316668D01*
X82724Y316740D01*
X82706Y316748D01*
X82691Y316761D01*
X82595Y316800D01*
X82501Y316843D01*
X82481Y316845D01*
X82463Y316853D01*
X82296Y316871D01*
X78679Y316871D01*
X75691Y318109D01*
X73405Y320395D01*
X72167Y323383D01*
X72167Y325141D01*
X72156Y325212D01*
X72154Y325284D01*
X72136Y325333D01*
X72128Y325384D01*
X72094Y325448D01*
X72069Y325515D01*
X72037Y325556D01*
X72012Y325602D01*
X71960Y325651D01*
X71916Y325707D01*
X71872Y325735D01*
X71834Y325771D01*
X71769Y325801D01*
X71709Y325840D01*
X71658Y325853D01*
X71611Y325875D01*
X71540Y325883D01*
X71470Y325900D01*
X71418Y325896D01*
X71367Y325902D01*
X71296Y325886D01*
X71225Y325881D01*
X71177Y325861D01*
X71126Y325849D01*
X71065Y325813D01*
X70999Y325785D01*
X70943Y325740D01*
X70915Y325723D01*
X70900Y325705D01*
X70868Y325680D01*
X38048Y292860D01*
X37995Y292786D01*
X37935Y292716D01*
X37923Y292686D01*
X37904Y292660D01*
X37877Y292573D01*
X37843Y292488D01*
X37839Y292447D01*
X37832Y292425D01*
X37833Y292393D01*
X37825Y292321D01*
X37825Y274068D01*
X36932Y273175D01*
X17668Y273175D01*
X16775Y274068D01*
X16775Y293332D01*
X17668Y294225D01*
X29037Y294225D01*
X29128Y294239D01*
X29218Y294247D01*
X29248Y294259D01*
X29280Y294264D01*
X29361Y294307D01*
X29445Y294343D01*
X29477Y294369D01*
X29498Y294380D01*
X29520Y294403D01*
X29576Y294448D01*
X72906Y337778D01*
X72948Y337836D01*
X72997Y337888D01*
X73019Y337935D01*
X73049Y337977D01*
X73070Y338046D01*
X73101Y338111D01*
X73106Y338163D01*
X73122Y338213D01*
X73120Y338284D01*
X73128Y338355D01*
X73117Y338406D01*
X73115Y338458D01*
X73091Y338526D01*
X73075Y338596D01*
X73049Y338641D01*
X73031Y338689D01*
X72986Y338745D01*
X72949Y338807D01*
X72910Y338841D01*
X72877Y338881D01*
X72817Y338920D01*
X72762Y338967D01*
X72714Y338986D01*
X72670Y339014D01*
X72601Y339032D01*
X72534Y339059D01*
X72463Y339067D01*
X72432Y339075D01*
X72408Y339073D01*
X72367Y339077D01*
X39201Y339077D01*
X39156Y339070D01*
X39110Y339072D01*
X39035Y339050D01*
X38958Y339038D01*
X38918Y339016D01*
X38874Y339003D01*
X38810Y338959D01*
X38741Y338922D01*
X38709Y338889D01*
X38672Y338863D01*
X38625Y338800D01*
X38572Y338744D01*
X38552Y338702D01*
X38525Y338666D01*
X38501Y338592D01*
X38468Y338521D01*
X38463Y338475D01*
X38449Y338432D01*
X38450Y338354D01*
X38441Y338277D01*
X38451Y338232D01*
X38451Y338186D01*
X38489Y338054D01*
X38493Y338036D01*
X38496Y338032D01*
X38498Y338025D01*
X40161Y334010D01*
X40161Y325990D01*
X37091Y318580D01*
X31420Y312909D01*
X24010Y309839D01*
X15990Y309839D01*
X11975Y311502D01*
X11931Y311513D01*
X11889Y311532D01*
X11812Y311541D01*
X11736Y311558D01*
X11690Y311554D01*
X11645Y311559D01*
X11568Y311543D01*
X11491Y311535D01*
X11449Y311517D01*
X11404Y311507D01*
X11337Y311467D01*
X11266Y311435D01*
X11232Y311404D01*
X11193Y311381D01*
X11142Y311322D01*
X11085Y311269D01*
X11063Y311229D01*
X11033Y311194D01*
X11004Y311121D01*
X10967Y311053D01*
X10958Y311008D01*
X10941Y310966D01*
X10926Y310830D01*
X10923Y310811D01*
X10924Y310806D01*
X10923Y310799D01*
X10923Y39201D01*
X10930Y39156D01*
X10928Y39110D01*
X10950Y39035D01*
X10962Y38958D01*
X10984Y38918D01*
X10997Y38874D01*
X11041Y38810D01*
X11078Y38741D01*
X11111Y38709D01*
X11137Y38672D01*
X11200Y38625D01*
X11256Y38572D01*
X11298Y38552D01*
X11334Y38525D01*
X11408Y38501D01*
X11479Y38468D01*
X11525Y38463D01*
X11568Y38449D01*
X11646Y38450D01*
X11723Y38441D01*
X11768Y38451D01*
X11814Y38451D01*
X11946Y38489D01*
X11964Y38493D01*
X11968Y38496D01*
X11975Y38498D01*
X15990Y40161D01*
X24010Y40161D01*
X31420Y37091D01*
X37091Y31420D01*
X40161Y24010D01*
X40161Y15990D01*
X38498Y11975D01*
X38487Y11931D01*
X38468Y11889D01*
X38459Y11812D01*
X38442Y11736D01*
X38446Y11690D01*
X38441Y11645D01*
X38457Y11568D01*
X38465Y11491D01*
X38483Y11449D01*
X38493Y11404D01*
X38533Y11337D01*
X38565Y11266D01*
X38596Y11232D01*
X38619Y11193D01*
X38678Y11142D01*
X38731Y11085D01*
X38771Y11063D01*
X38806Y11033D01*
X38879Y11004D01*
X38947Y10967D01*
X38992Y10958D01*
X39034Y10941D01*
X39170Y10926D01*
X39189Y10923D01*
X39194Y10924D01*
X39201Y10923D01*
X232214Y10923D01*
X232234Y10926D01*
G37*
G36*
X271218Y10926D02*
X271218Y10926D01*
X271237Y10924D01*
X271339Y10946D01*
X271441Y10962D01*
X271458Y10972D01*
X271478Y10976D01*
X271567Y11029D01*
X271658Y11078D01*
X271672Y11092D01*
X271689Y11102D01*
X271756Y11181D01*
X271828Y11256D01*
X271836Y11274D01*
X271849Y11289D01*
X271888Y11385D01*
X271931Y11479D01*
X271933Y11499D01*
X271941Y11517D01*
X271959Y11684D01*
X271959Y14977D01*
X279238Y14977D01*
X279258Y14980D01*
X279277Y14978D01*
X279379Y15000D01*
X279481Y15017D01*
X279498Y15026D01*
X279518Y15030D01*
X279607Y15083D01*
X279698Y15132D01*
X279712Y15146D01*
X279729Y15156D01*
X279796Y15235D01*
X279867Y15310D01*
X279876Y15328D01*
X279889Y15343D01*
X279928Y15439D01*
X279971Y15533D01*
X279973Y15553D01*
X279981Y15571D01*
X279999Y15738D01*
X279999Y16501D01*
X280001Y16501D01*
X280001Y15738D01*
X280004Y15718D01*
X280002Y15699D01*
X280024Y15597D01*
X280041Y15495D01*
X280050Y15478D01*
X280054Y15458D01*
X280107Y15369D01*
X280156Y15278D01*
X280170Y15264D01*
X280180Y15247D01*
X280259Y15180D01*
X280334Y15109D01*
X280352Y15100D01*
X280367Y15087D01*
X280463Y15048D01*
X280557Y15005D01*
X280577Y15003D01*
X280595Y14995D01*
X280762Y14977D01*
X288041Y14977D01*
X288041Y11684D01*
X288044Y11664D01*
X288042Y11645D01*
X288064Y11543D01*
X288080Y11441D01*
X288090Y11424D01*
X288094Y11404D01*
X288147Y11315D01*
X288196Y11224D01*
X288210Y11210D01*
X288220Y11193D01*
X288299Y11126D01*
X288374Y11054D01*
X288392Y11046D01*
X288407Y11033D01*
X288503Y10994D01*
X288597Y10951D01*
X288617Y10949D01*
X288635Y10941D01*
X288802Y10923D01*
X316698Y10923D01*
X316718Y10926D01*
X316737Y10924D01*
X316839Y10946D01*
X316941Y10962D01*
X316958Y10972D01*
X316978Y10976D01*
X317067Y11029D01*
X317158Y11078D01*
X317172Y11092D01*
X317189Y11102D01*
X317256Y11181D01*
X317328Y11256D01*
X317336Y11274D01*
X317349Y11289D01*
X317388Y11385D01*
X317431Y11479D01*
X317433Y11499D01*
X317441Y11517D01*
X317459Y11684D01*
X317459Y14977D01*
X324238Y14977D01*
X324258Y14980D01*
X324277Y14978D01*
X324379Y15000D01*
X324481Y15017D01*
X324498Y15026D01*
X324518Y15030D01*
X324607Y15083D01*
X324698Y15132D01*
X324712Y15146D01*
X324729Y15156D01*
X324796Y15235D01*
X324867Y15310D01*
X324876Y15328D01*
X324889Y15343D01*
X324928Y15439D01*
X324971Y15533D01*
X324973Y15553D01*
X324981Y15571D01*
X324999Y15738D01*
X324999Y16501D01*
X325001Y16501D01*
X325001Y15738D01*
X325004Y15718D01*
X325002Y15699D01*
X325024Y15597D01*
X325041Y15495D01*
X325050Y15478D01*
X325054Y15458D01*
X325107Y15369D01*
X325156Y15278D01*
X325170Y15264D01*
X325180Y15247D01*
X325259Y15180D01*
X325334Y15109D01*
X325352Y15100D01*
X325367Y15087D01*
X325463Y15048D01*
X325557Y15005D01*
X325577Y15003D01*
X325595Y14995D01*
X325762Y14977D01*
X332541Y14977D01*
X332541Y11684D01*
X332544Y11664D01*
X332542Y11645D01*
X332564Y11543D01*
X332580Y11441D01*
X332590Y11424D01*
X332594Y11404D01*
X332647Y11315D01*
X332696Y11224D01*
X332710Y11210D01*
X332720Y11193D01*
X332799Y11126D01*
X332874Y11054D01*
X332892Y11046D01*
X332907Y11033D01*
X333003Y10994D01*
X333097Y10951D01*
X333117Y10949D01*
X333135Y10941D01*
X333302Y10923D01*
X460799Y10923D01*
X460844Y10930D01*
X460890Y10928D01*
X460965Y10950D01*
X461042Y10962D01*
X461082Y10984D01*
X461126Y10997D01*
X461190Y11041D01*
X461259Y11078D01*
X461291Y11111D01*
X461328Y11137D01*
X461375Y11200D01*
X461428Y11256D01*
X461448Y11298D01*
X461475Y11334D01*
X461499Y11408D01*
X461532Y11479D01*
X461537Y11525D01*
X461551Y11568D01*
X461550Y11646D01*
X461559Y11723D01*
X461549Y11768D01*
X461549Y11814D01*
X461511Y11946D01*
X461507Y11964D01*
X461504Y11968D01*
X461502Y11975D01*
X459839Y15990D01*
X459839Y24010D01*
X462696Y30907D01*
X462718Y31002D01*
X462747Y31095D01*
X462746Y31121D01*
X462752Y31146D01*
X462743Y31243D01*
X462740Y31341D01*
X462731Y31365D01*
X462729Y31391D01*
X462690Y31480D01*
X462656Y31572D01*
X462640Y31592D01*
X462629Y31616D01*
X462563Y31687D01*
X462502Y31764D01*
X462480Y31778D01*
X462463Y31797D01*
X462377Y31844D01*
X462295Y31897D01*
X462270Y31903D01*
X462247Y31916D01*
X462151Y31933D01*
X462057Y31957D01*
X462031Y31955D01*
X462005Y31959D01*
X461909Y31945D01*
X461812Y31937D01*
X461788Y31927D01*
X461762Y31923D01*
X461675Y31879D01*
X461585Y31841D01*
X461560Y31821D01*
X461542Y31812D01*
X461519Y31788D01*
X461454Y31736D01*
X448513Y18795D01*
X428951Y18795D01*
X428861Y18781D01*
X428770Y18773D01*
X428741Y18761D01*
X428709Y18756D01*
X428628Y18713D01*
X428544Y18677D01*
X428512Y18651D01*
X428491Y18640D01*
X428469Y18617D01*
X428413Y18572D01*
X426886Y17045D01*
X422490Y17045D01*
X419381Y20154D01*
X419381Y22779D01*
X419368Y22858D01*
X419365Y22937D01*
X419349Y22979D01*
X419342Y23022D01*
X419304Y23092D01*
X419275Y23167D01*
X419247Y23201D01*
X419226Y23240D01*
X419169Y23294D01*
X419118Y23355D01*
X419080Y23379D01*
X419048Y23409D01*
X418976Y23443D01*
X418908Y23484D01*
X418865Y23494D01*
X418825Y23513D01*
X418746Y23521D01*
X418668Y23539D01*
X418610Y23536D01*
X418581Y23540D01*
X418553Y23534D01*
X418523Y23532D01*
X418523Y31977D01*
X426965Y31977D01*
X426833Y31139D01*
X426342Y29630D01*
X425902Y28766D01*
X425879Y28694D01*
X425847Y28625D01*
X425841Y28577D01*
X425827Y28531D01*
X425828Y28456D01*
X425820Y28381D01*
X425830Y28333D01*
X425831Y28285D01*
X425856Y28214D01*
X425872Y28140D01*
X425897Y28099D01*
X425913Y28053D01*
X425959Y27994D01*
X425998Y27929D01*
X426035Y27898D01*
X426064Y27860D01*
X426127Y27818D01*
X426185Y27769D01*
X426230Y27751D01*
X426270Y27725D01*
X426343Y27705D01*
X426413Y27677D01*
X426478Y27670D01*
X426508Y27662D01*
X426533Y27664D01*
X426580Y27659D01*
X426886Y27659D01*
X428413Y26132D01*
X428487Y26079D01*
X428557Y26019D01*
X428587Y26007D01*
X428613Y25988D01*
X428700Y25961D01*
X428785Y25927D01*
X428826Y25923D01*
X428848Y25916D01*
X428880Y25917D01*
X428951Y25909D01*
X434934Y25909D01*
X435005Y25920D01*
X435076Y25922D01*
X435125Y25940D01*
X435177Y25948D01*
X435240Y25982D01*
X435307Y26007D01*
X435348Y26039D01*
X435394Y26064D01*
X435443Y26116D01*
X435499Y26160D01*
X435528Y26204D01*
X435563Y26242D01*
X435594Y26307D01*
X435632Y26367D01*
X435645Y26418D01*
X435667Y26465D01*
X435675Y26536D01*
X435693Y26606D01*
X435688Y26658D01*
X435694Y26709D01*
X435679Y26780D01*
X435673Y26851D01*
X435653Y26899D01*
X435642Y26950D01*
X435605Y27011D01*
X435577Y27077D01*
X435532Y27133D01*
X435516Y27161D01*
X435498Y27176D01*
X435472Y27208D01*
X434315Y28365D01*
X432935Y31697D01*
X432935Y35303D01*
X434315Y38635D01*
X436865Y41185D01*
X440197Y42565D01*
X443803Y42565D01*
X447135Y41185D01*
X449685Y38635D01*
X451065Y35303D01*
X451065Y33245D01*
X451076Y33174D01*
X451078Y33102D01*
X451096Y33053D01*
X451104Y33002D01*
X451138Y32938D01*
X451163Y32871D01*
X451195Y32830D01*
X451220Y32784D01*
X451272Y32735D01*
X451316Y32679D01*
X451360Y32651D01*
X451398Y32615D01*
X451463Y32585D01*
X451523Y32546D01*
X451574Y32533D01*
X451621Y32511D01*
X451692Y32503D01*
X451762Y32486D01*
X451814Y32490D01*
X451865Y32484D01*
X451936Y32500D01*
X452007Y32505D01*
X452055Y32525D01*
X452106Y32537D01*
X452167Y32573D01*
X452233Y32601D01*
X452289Y32646D01*
X452317Y32663D01*
X452332Y32681D01*
X452364Y32706D01*
X479582Y59924D01*
X479635Y59998D01*
X479695Y60068D01*
X479707Y60098D01*
X479726Y60124D01*
X479753Y60211D01*
X479787Y60296D01*
X479791Y60337D01*
X479798Y60359D01*
X479797Y60391D01*
X479805Y60463D01*
X479805Y71331D01*
X479794Y71402D01*
X479792Y71474D01*
X479774Y71523D01*
X479766Y71574D01*
X479732Y71637D01*
X479707Y71705D01*
X479675Y71745D01*
X479650Y71791D01*
X479599Y71841D01*
X479554Y71897D01*
X479510Y71925D01*
X479472Y71961D01*
X479407Y71991D01*
X479347Y72030D01*
X479296Y72042D01*
X479249Y72064D01*
X479178Y72072D01*
X479108Y72090D01*
X479056Y72086D01*
X479005Y72091D01*
X478934Y72076D01*
X478863Y72071D01*
X478815Y72050D01*
X478764Y72039D01*
X478703Y72002D01*
X478637Y71974D01*
X478581Y71929D01*
X478553Y71913D01*
X478538Y71895D01*
X478506Y71869D01*
X478072Y71435D01*
X462728Y71435D01*
X461835Y72328D01*
X461835Y87672D01*
X462728Y88565D01*
X465074Y88565D01*
X465094Y88568D01*
X465113Y88566D01*
X465215Y88588D01*
X465317Y88604D01*
X465334Y88614D01*
X465354Y88618D01*
X465443Y88671D01*
X465534Y88720D01*
X465548Y88734D01*
X465565Y88744D01*
X465632Y88823D01*
X465704Y88898D01*
X465712Y88916D01*
X465725Y88931D01*
X465764Y89027D01*
X465807Y89121D01*
X465809Y89141D01*
X465817Y89159D01*
X465835Y89326D01*
X465835Y107714D01*
X465832Y107734D01*
X465834Y107753D01*
X465812Y107855D01*
X465796Y107957D01*
X465786Y107974D01*
X465782Y107994D01*
X465729Y108083D01*
X465680Y108174D01*
X465666Y108188D01*
X465656Y108205D01*
X465577Y108272D01*
X465502Y108344D01*
X465484Y108352D01*
X465469Y108365D01*
X465373Y108404D01*
X465279Y108447D01*
X465259Y108449D01*
X465241Y108457D01*
X465074Y108475D01*
X462368Y108475D01*
X461475Y109368D01*
X461475Y120632D01*
X462368Y121525D01*
X474632Y121525D01*
X475525Y120632D01*
X475525Y109368D01*
X474632Y108475D01*
X473710Y108475D01*
X473690Y108472D01*
X473671Y108474D01*
X473569Y108452D01*
X473467Y108436D01*
X473450Y108426D01*
X473430Y108422D01*
X473341Y108369D01*
X473250Y108320D01*
X473236Y108306D01*
X473219Y108296D01*
X473152Y108217D01*
X473080Y108142D01*
X473072Y108124D01*
X473059Y108109D01*
X473020Y108013D01*
X472977Y107919D01*
X472975Y107899D01*
X472967Y107881D01*
X472949Y107714D01*
X472949Y89326D01*
X472952Y89309D01*
X472950Y89292D01*
X472950Y89290D01*
X472950Y89287D01*
X472972Y89185D01*
X472988Y89083D01*
X472998Y89066D01*
X473002Y89046D01*
X473055Y88957D01*
X473104Y88866D01*
X473118Y88852D01*
X473128Y88835D01*
X473207Y88768D01*
X473282Y88696D01*
X473300Y88688D01*
X473315Y88675D01*
X473411Y88636D01*
X473505Y88593D01*
X473525Y88591D01*
X473543Y88583D01*
X473710Y88565D01*
X478072Y88565D01*
X478506Y88131D01*
X478564Y88089D01*
X478616Y88039D01*
X478663Y88017D01*
X478705Y87987D01*
X478774Y87966D01*
X478839Y87936D01*
X478891Y87930D01*
X478941Y87915D01*
X479012Y87917D01*
X479083Y87909D01*
X479134Y87920D01*
X479186Y87921D01*
X479254Y87946D01*
X479324Y87961D01*
X479369Y87988D01*
X479417Y88005D01*
X479473Y88050D01*
X479535Y88087D01*
X479569Y88127D01*
X479609Y88159D01*
X479648Y88219D01*
X479695Y88274D01*
X479714Y88322D01*
X479742Y88366D01*
X479760Y88436D01*
X479787Y88502D01*
X479795Y88573D01*
X479803Y88605D01*
X479801Y88628D01*
X479805Y88669D01*
X479805Y156331D01*
X479803Y156347D01*
X479804Y156361D01*
X479793Y156410D01*
X479792Y156474D01*
X479774Y156523D01*
X479766Y156574D01*
X479753Y156598D01*
X479752Y156601D01*
X479744Y156615D01*
X479732Y156637D01*
X479707Y156705D01*
X479675Y156745D01*
X479650Y156791D01*
X479599Y156841D01*
X479554Y156897D01*
X479510Y156925D01*
X479472Y156961D01*
X479407Y156991D01*
X479347Y157030D01*
X479296Y157042D01*
X479249Y157064D01*
X479178Y157072D01*
X479108Y157090D01*
X479056Y157086D01*
X479005Y157091D01*
X478934Y157076D01*
X478863Y157071D01*
X478815Y157050D01*
X478764Y157039D01*
X478703Y157002D01*
X478637Y156974D01*
X478588Y156935D01*
X478574Y156928D01*
X478569Y156923D01*
X478553Y156913D01*
X478538Y156895D01*
X478506Y156869D01*
X478072Y156435D01*
X462728Y156435D01*
X461835Y157328D01*
X461835Y172672D01*
X462728Y173565D01*
X465074Y173565D01*
X465094Y173568D01*
X465113Y173566D01*
X465215Y173588D01*
X465317Y173604D01*
X465334Y173614D01*
X465354Y173618D01*
X465443Y173671D01*
X465534Y173720D01*
X465548Y173734D01*
X465565Y173744D01*
X465632Y173823D01*
X465704Y173898D01*
X465712Y173916D01*
X465725Y173931D01*
X465764Y174027D01*
X465807Y174121D01*
X465809Y174141D01*
X465817Y174159D01*
X465835Y174326D01*
X465835Y192714D01*
X465832Y192734D01*
X465834Y192753D01*
X465812Y192855D01*
X465796Y192957D01*
X465786Y192974D01*
X465782Y192994D01*
X465729Y193083D01*
X465680Y193174D01*
X465666Y193188D01*
X465656Y193205D01*
X465577Y193272D01*
X465502Y193344D01*
X465484Y193352D01*
X465469Y193365D01*
X465373Y193404D01*
X465279Y193447D01*
X465259Y193449D01*
X465241Y193457D01*
X465074Y193475D01*
X462368Y193475D01*
X461475Y194368D01*
X461475Y205632D01*
X462368Y206525D01*
X465074Y206525D01*
X465094Y206528D01*
X465113Y206526D01*
X465215Y206548D01*
X465317Y206564D01*
X465334Y206574D01*
X465354Y206578D01*
X465443Y206631D01*
X465534Y206680D01*
X465548Y206694D01*
X465565Y206704D01*
X465632Y206783D01*
X465704Y206858D01*
X465712Y206876D01*
X465725Y206891D01*
X465764Y206987D01*
X465807Y207081D01*
X465809Y207101D01*
X465817Y207119D01*
X465835Y207286D01*
X465835Y240674D01*
X465832Y240694D01*
X465834Y240713D01*
X465812Y240815D01*
X465796Y240917D01*
X465786Y240934D01*
X465782Y240954D01*
X465729Y241043D01*
X465680Y241134D01*
X465666Y241148D01*
X465656Y241165D01*
X465577Y241232D01*
X465502Y241304D01*
X465484Y241312D01*
X465469Y241325D01*
X465373Y241364D01*
X465279Y241407D01*
X465259Y241409D01*
X465241Y241417D01*
X465074Y241435D01*
X462728Y241435D01*
X461835Y242328D01*
X461835Y257672D01*
X462728Y258565D01*
X465074Y258565D01*
X465094Y258568D01*
X465113Y258566D01*
X465215Y258588D01*
X465317Y258604D01*
X465334Y258614D01*
X465354Y258618D01*
X465443Y258671D01*
X465534Y258720D01*
X465548Y258734D01*
X465565Y258744D01*
X465632Y258823D01*
X465704Y258898D01*
X465712Y258916D01*
X465725Y258931D01*
X465764Y259027D01*
X465807Y259121D01*
X465809Y259141D01*
X465817Y259159D01*
X465835Y259326D01*
X465835Y276714D01*
X465832Y276734D01*
X465834Y276753D01*
X465812Y276855D01*
X465796Y276957D01*
X465786Y276974D01*
X465782Y276994D01*
X465729Y277083D01*
X465680Y277174D01*
X465666Y277188D01*
X465656Y277205D01*
X465577Y277272D01*
X465502Y277344D01*
X465484Y277352D01*
X465469Y277365D01*
X465373Y277404D01*
X465279Y277447D01*
X465259Y277449D01*
X465241Y277457D01*
X465074Y277475D01*
X462368Y277475D01*
X461475Y278368D01*
X461475Y289632D01*
X462368Y290525D01*
X470957Y290525D01*
X471028Y290536D01*
X471100Y290538D01*
X471149Y290556D01*
X471200Y290564D01*
X471264Y290598D01*
X471331Y290623D01*
X471372Y290655D01*
X471418Y290680D01*
X471467Y290732D01*
X471523Y290776D01*
X471551Y290820D01*
X471587Y290858D01*
X471617Y290923D01*
X471656Y290983D01*
X471669Y291034D01*
X471691Y291081D01*
X471699Y291152D01*
X471716Y291222D01*
X471712Y291274D01*
X471718Y291325D01*
X471702Y291396D01*
X471697Y291467D01*
X471677Y291515D01*
X471665Y291566D01*
X471629Y291627D01*
X471601Y291693D01*
X471556Y291749D01*
X471539Y291777D01*
X471521Y291792D01*
X471496Y291824D01*
X431820Y331500D01*
X431746Y331553D01*
X431676Y331613D01*
X431646Y331625D01*
X431620Y331644D01*
X431533Y331671D01*
X431448Y331705D01*
X431407Y331709D01*
X431385Y331716D01*
X431353Y331715D01*
X431281Y331723D01*
X421314Y331723D01*
X421244Y331712D01*
X421172Y331710D01*
X421123Y331692D01*
X421072Y331684D01*
X421008Y331650D01*
X420941Y331625D01*
X420900Y331593D01*
X420854Y331568D01*
X420805Y331516D01*
X420749Y331472D01*
X420721Y331428D01*
X420685Y331390D01*
X420655Y331325D01*
X420616Y331265D01*
X420603Y331214D01*
X420581Y331167D01*
X420573Y331096D01*
X420556Y331026D01*
X420560Y330974D01*
X420554Y330923D01*
X420569Y330852D01*
X420575Y330781D01*
X420595Y330733D01*
X420606Y330682D01*
X420643Y330621D01*
X420671Y330555D01*
X420716Y330499D01*
X420733Y330471D01*
X420750Y330456D01*
X420776Y330424D01*
X421595Y329605D01*
X422833Y326617D01*
X422833Y323383D01*
X421595Y320395D01*
X419309Y318109D01*
X416321Y316871D01*
X412242Y316871D01*
X412222Y316868D01*
X412203Y316870D01*
X412101Y316848D01*
X411999Y316832D01*
X411982Y316822D01*
X411962Y316818D01*
X411873Y316765D01*
X411782Y316716D01*
X411768Y316702D01*
X411751Y316692D01*
X411684Y316613D01*
X411612Y316538D01*
X411604Y316520D01*
X411591Y316505D01*
X411552Y316409D01*
X411509Y316315D01*
X411507Y316295D01*
X411499Y316277D01*
X411481Y316110D01*
X411481Y259326D01*
X411484Y259306D01*
X411482Y259287D01*
X411504Y259185D01*
X411520Y259083D01*
X411530Y259066D01*
X411534Y259046D01*
X411587Y258957D01*
X411636Y258866D01*
X411650Y258852D01*
X411660Y258835D01*
X411739Y258768D01*
X411814Y258696D01*
X411832Y258688D01*
X411847Y258675D01*
X411943Y258636D01*
X412037Y258593D01*
X412057Y258591D01*
X412075Y258583D01*
X412242Y258565D01*
X427272Y258565D01*
X428165Y257672D01*
X428165Y247741D01*
X428179Y247650D01*
X428187Y247560D01*
X428199Y247530D01*
X428204Y247498D01*
X428247Y247417D01*
X428283Y247333D01*
X428309Y247301D01*
X428320Y247280D01*
X428343Y247258D01*
X428388Y247202D01*
X433833Y241757D01*
X433833Y68377D01*
X408910Y43454D01*
X408857Y43380D01*
X408797Y43310D01*
X408785Y43280D01*
X408766Y43254D01*
X408739Y43167D01*
X408705Y43082D01*
X408701Y43041D01*
X408694Y43019D01*
X408695Y42987D01*
X408687Y42915D01*
X408687Y41281D01*
X408698Y41210D01*
X408700Y41138D01*
X408718Y41089D01*
X408726Y41038D01*
X408760Y40975D01*
X408785Y40907D01*
X408817Y40867D01*
X408842Y40821D01*
X408894Y40771D01*
X408938Y40715D01*
X408982Y40687D01*
X409020Y40651D01*
X409085Y40621D01*
X409145Y40582D01*
X409196Y40570D01*
X409243Y40548D01*
X409314Y40540D01*
X409384Y40522D01*
X409436Y40526D01*
X409487Y40521D01*
X409558Y40536D01*
X409629Y40541D01*
X409677Y40562D01*
X409728Y40573D01*
X409789Y40610D01*
X409855Y40638D01*
X409911Y40683D01*
X409939Y40699D01*
X409954Y40717D01*
X409986Y40743D01*
X410433Y41189D01*
X411717Y42122D01*
X413130Y42842D01*
X414639Y43333D01*
X415477Y43465D01*
X415477Y34262D01*
X415480Y34242D01*
X415478Y34223D01*
X415500Y34121D01*
X415517Y34019D01*
X415526Y34002D01*
X415530Y33982D01*
X415583Y33893D01*
X415632Y33802D01*
X415646Y33788D01*
X415656Y33771D01*
X415735Y33704D01*
X415810Y33633D01*
X415828Y33624D01*
X415843Y33611D01*
X415939Y33573D01*
X416033Y33529D01*
X416053Y33527D01*
X416071Y33519D01*
X416238Y33501D01*
X417001Y33501D01*
X417001Y33499D01*
X416238Y33499D01*
X416218Y33496D01*
X416199Y33498D01*
X416097Y33476D01*
X415995Y33459D01*
X415978Y33450D01*
X415958Y33446D01*
X415869Y33393D01*
X415778Y33344D01*
X415764Y33330D01*
X415747Y33320D01*
X415680Y33241D01*
X415609Y33166D01*
X415600Y33148D01*
X415587Y33133D01*
X415548Y33037D01*
X415505Y32943D01*
X415503Y32923D01*
X415495Y32905D01*
X415477Y32738D01*
X415477Y23535D01*
X414639Y23667D01*
X413130Y24158D01*
X411717Y24878D01*
X410433Y25811D01*
X409311Y26933D01*
X408593Y27922D01*
X408536Y27977D01*
X408486Y28040D01*
X408449Y28064D01*
X408418Y28095D01*
X408346Y28130D01*
X408279Y28173D01*
X408236Y28183D01*
X408197Y28203D01*
X408118Y28213D01*
X408041Y28233D01*
X407997Y28229D01*
X407953Y28235D01*
X407875Y28220D01*
X407796Y28214D01*
X407755Y28196D01*
X407712Y28188D01*
X407642Y28148D01*
X407569Y28117D01*
X407524Y28081D01*
X407498Y28066D01*
X407479Y28045D01*
X407438Y28012D01*
X406380Y26954D01*
X398221Y18795D01*
X384099Y18795D01*
X378734Y24160D01*
X378660Y24213D01*
X378590Y24273D01*
X378560Y24285D01*
X378534Y24304D01*
X378447Y24331D01*
X378362Y24365D01*
X378321Y24369D01*
X378299Y24376D01*
X378267Y24375D01*
X378195Y24383D01*
X361895Y24383D01*
X361805Y24369D01*
X361714Y24361D01*
X361685Y24349D01*
X361653Y24344D01*
X361572Y24301D01*
X361488Y24265D01*
X361456Y24239D01*
X361435Y24228D01*
X361413Y24205D01*
X361357Y24160D01*
X359830Y22633D01*
X355434Y22633D01*
X352325Y25742D01*
X352325Y30138D01*
X355434Y33247D01*
X359830Y33247D01*
X361357Y31720D01*
X361431Y31667D01*
X361501Y31607D01*
X361531Y31595D01*
X361557Y31576D01*
X361644Y31549D01*
X361729Y31515D01*
X361770Y31511D01*
X361792Y31504D01*
X361824Y31505D01*
X361895Y31497D01*
X381457Y31497D01*
X381636Y31318D01*
X381694Y31276D01*
X381746Y31227D01*
X381793Y31205D01*
X381835Y31175D01*
X381904Y31154D01*
X381969Y31123D01*
X382021Y31118D01*
X382071Y31102D01*
X382142Y31104D01*
X382213Y31096D01*
X382264Y31107D01*
X382316Y31109D01*
X382384Y31133D01*
X382454Y31149D01*
X382499Y31175D01*
X382547Y31193D01*
X382603Y31238D01*
X382665Y31275D01*
X382699Y31314D01*
X382739Y31347D01*
X382778Y31407D01*
X382825Y31462D01*
X382844Y31510D01*
X382872Y31554D01*
X382890Y31623D01*
X382917Y31690D01*
X382925Y31761D01*
X382933Y31792D01*
X382931Y31816D01*
X382935Y31857D01*
X382935Y35303D01*
X383763Y37301D01*
X383772Y37340D01*
X383782Y37361D01*
X383782Y37365D01*
X383793Y37387D01*
X383801Y37464D01*
X383819Y37540D01*
X383815Y37586D01*
X383820Y37631D01*
X383803Y37708D01*
X383796Y37785D01*
X383777Y37827D01*
X383767Y37872D01*
X383727Y37939D01*
X383696Y38010D01*
X383665Y38044D01*
X383641Y38083D01*
X383582Y38134D01*
X383529Y38191D01*
X383489Y38213D01*
X383454Y38243D01*
X383382Y38272D01*
X383314Y38309D01*
X383269Y38318D01*
X383226Y38335D01*
X383090Y38350D01*
X383072Y38353D01*
X383067Y38352D01*
X383059Y38353D01*
X364541Y38353D01*
X361970Y40924D01*
X361896Y40977D01*
X361826Y41037D01*
X361796Y41049D01*
X361770Y41068D01*
X361683Y41095D01*
X361598Y41129D01*
X361557Y41133D01*
X361535Y41140D01*
X361503Y41139D01*
X361431Y41147D01*
X331847Y41147D01*
X331776Y41136D01*
X331704Y41134D01*
X331655Y41116D01*
X331604Y41108D01*
X331541Y41074D01*
X331473Y41049D01*
X331433Y41017D01*
X331387Y40992D01*
X331337Y40941D01*
X331281Y40896D01*
X331253Y40852D01*
X331217Y40814D01*
X331187Y40749D01*
X331148Y40689D01*
X331136Y40638D01*
X331114Y40591D01*
X331106Y40520D01*
X331088Y40450D01*
X331092Y40398D01*
X331087Y40347D01*
X331102Y40276D01*
X331107Y40205D01*
X331128Y40157D01*
X331139Y40106D01*
X331176Y40045D01*
X331204Y39979D01*
X331249Y39923D01*
X331265Y39895D01*
X331283Y39880D01*
X331309Y39848D01*
X331525Y39632D01*
X331525Y27368D01*
X330632Y26475D01*
X319368Y26475D01*
X318475Y27368D01*
X318475Y33811D01*
X318461Y33902D01*
X318453Y33992D01*
X318441Y34022D01*
X318436Y34054D01*
X318393Y34135D01*
X318357Y34219D01*
X318331Y34251D01*
X318320Y34272D01*
X318297Y34294D01*
X318252Y34350D01*
X311678Y40924D01*
X311604Y40977D01*
X311534Y41037D01*
X311504Y41049D01*
X311478Y41068D01*
X311391Y41095D01*
X311306Y41129D01*
X311265Y41133D01*
X311243Y41140D01*
X311211Y41139D01*
X311139Y41147D01*
X286847Y41147D01*
X286776Y41136D01*
X286704Y41134D01*
X286655Y41116D01*
X286604Y41108D01*
X286541Y41074D01*
X286473Y41049D01*
X286433Y41017D01*
X286387Y40992D01*
X286337Y40940D01*
X286281Y40896D01*
X286253Y40852D01*
X286217Y40814D01*
X286187Y40749D01*
X286148Y40689D01*
X286136Y40638D01*
X286114Y40591D01*
X286106Y40520D01*
X286088Y40450D01*
X286092Y40398D01*
X286087Y40347D01*
X286102Y40276D01*
X286107Y40205D01*
X286128Y40157D01*
X286139Y40106D01*
X286176Y40045D01*
X286204Y39979D01*
X286249Y39923D01*
X286265Y39895D01*
X286283Y39880D01*
X286309Y39848D01*
X287025Y39132D01*
X287025Y27868D01*
X286132Y26975D01*
X278193Y26975D01*
X278102Y26961D01*
X278012Y26953D01*
X277982Y26941D01*
X277950Y26936D01*
X277869Y26893D01*
X277785Y26857D01*
X277753Y26831D01*
X277732Y26820D01*
X277710Y26797D01*
X277654Y26752D01*
X276242Y25340D01*
X276200Y25282D01*
X276151Y25230D01*
X276129Y25183D01*
X276099Y25141D01*
X276078Y25072D01*
X276047Y25007D01*
X276042Y24955D01*
X276026Y24905D01*
X276028Y24834D01*
X276020Y24763D01*
X276031Y24712D01*
X276033Y24660D01*
X276057Y24592D01*
X276073Y24522D01*
X276099Y24478D01*
X276117Y24429D01*
X276162Y24373D01*
X276199Y24311D01*
X276238Y24277D01*
X276271Y24237D01*
X276331Y24198D01*
X276386Y24151D01*
X276434Y24132D01*
X276478Y24104D01*
X276547Y24086D01*
X276614Y24059D01*
X276685Y24051D01*
X276716Y24043D01*
X276740Y24045D01*
X276781Y24041D01*
X278477Y24041D01*
X278477Y18023D01*
X271959Y18023D01*
X271959Y19219D01*
X271948Y19290D01*
X271946Y19362D01*
X271928Y19411D01*
X271920Y19462D01*
X271886Y19526D01*
X271861Y19593D01*
X271829Y19634D01*
X271804Y19680D01*
X271752Y19729D01*
X271708Y19785D01*
X271664Y19813D01*
X271626Y19849D01*
X271561Y19879D01*
X271501Y19918D01*
X271450Y19931D01*
X271403Y19953D01*
X271332Y19961D01*
X271262Y19978D01*
X271210Y19974D01*
X271159Y19980D01*
X271088Y19964D01*
X271017Y19959D01*
X270969Y19939D01*
X270918Y19927D01*
X270857Y19891D01*
X270791Y19863D01*
X270735Y19818D01*
X270707Y19801D01*
X270692Y19783D01*
X270660Y19758D01*
X264109Y13207D01*
X247786Y13207D01*
X247766Y13204D01*
X247747Y13206D01*
X247645Y13184D01*
X247543Y13168D01*
X247526Y13158D01*
X247506Y13154D01*
X247417Y13101D01*
X247326Y13052D01*
X247312Y13038D01*
X247295Y13028D01*
X247228Y12949D01*
X247156Y12874D01*
X247148Y12856D01*
X247135Y12841D01*
X247096Y12745D01*
X247053Y12651D01*
X247051Y12631D01*
X247043Y12613D01*
X247025Y12446D01*
X247025Y11684D01*
X247028Y11664D01*
X247026Y11645D01*
X247048Y11543D01*
X247064Y11441D01*
X247074Y11424D01*
X247078Y11404D01*
X247131Y11315D01*
X247180Y11224D01*
X247194Y11210D01*
X247204Y11193D01*
X247283Y11126D01*
X247358Y11054D01*
X247376Y11046D01*
X247391Y11033D01*
X247487Y10994D01*
X247581Y10951D01*
X247601Y10949D01*
X247619Y10941D01*
X247786Y10923D01*
X271198Y10923D01*
X271218Y10926D01*
G37*
G36*
X260938Y37099D02*
X260938Y37099D01*
X261028Y37107D01*
X261058Y37119D01*
X261090Y37124D01*
X261171Y37167D01*
X261255Y37203D01*
X261287Y37229D01*
X261308Y37240D01*
X261330Y37263D01*
X261386Y37308D01*
X267764Y43686D01*
X267806Y43744D01*
X267855Y43796D01*
X267877Y43843D01*
X267907Y43885D01*
X267928Y43954D01*
X267959Y44019D01*
X267964Y44071D01*
X267980Y44121D01*
X267978Y44192D01*
X267986Y44263D01*
X267975Y44314D01*
X267973Y44366D01*
X267949Y44434D01*
X267933Y44504D01*
X267907Y44549D01*
X267889Y44597D01*
X267844Y44653D01*
X267807Y44715D01*
X267768Y44749D01*
X267735Y44789D01*
X267675Y44828D01*
X267620Y44875D01*
X267572Y44894D01*
X267528Y44922D01*
X267459Y44940D01*
X267392Y44967D01*
X267321Y44975D01*
X267290Y44983D01*
X267266Y44981D01*
X267225Y44985D01*
X266026Y44985D01*
X262917Y48094D01*
X262917Y52490D01*
X266026Y55599D01*
X268185Y55599D01*
X268276Y55613D01*
X268366Y55621D01*
X268396Y55633D01*
X268428Y55638D01*
X268509Y55681D01*
X268593Y55717D01*
X268625Y55743D01*
X268646Y55754D01*
X268668Y55777D01*
X268724Y55822D01*
X270032Y57130D01*
X270085Y57204D01*
X270145Y57274D01*
X270157Y57304D01*
X270176Y57330D01*
X270203Y57417D01*
X270237Y57502D01*
X270241Y57543D01*
X270248Y57565D01*
X270247Y57597D01*
X270255Y57669D01*
X270255Y60253D01*
X270255Y60254D01*
X270255Y60255D01*
X270235Y60378D01*
X270216Y60495D01*
X270215Y60497D01*
X270215Y60498D01*
X270143Y60650D01*
X270009Y60870D01*
X270234Y61803D01*
X270234Y61809D01*
X270237Y61815D01*
X270255Y61981D01*
X270255Y62941D01*
X270438Y63124D01*
X270438Y63125D01*
X270439Y63125D01*
X270510Y63224D01*
X270581Y63323D01*
X270582Y63325D01*
X270582Y63326D01*
X270639Y63483D01*
X270703Y63746D01*
X270705Y63748D01*
X270748Y63797D01*
X270797Y63840D01*
X270827Y63890D01*
X270865Y63934D01*
X270889Y63995D01*
X270923Y64052D01*
X270935Y64109D01*
X270957Y64163D01*
X270968Y64261D01*
X270974Y64292D01*
X270973Y64307D01*
X270975Y64329D01*
X270975Y70632D01*
X271868Y71525D01*
X279132Y71525D01*
X279712Y70945D01*
X279728Y70933D01*
X279740Y70917D01*
X279828Y70861D01*
X279911Y70801D01*
X279930Y70795D01*
X279947Y70784D01*
X280048Y70759D01*
X280147Y70729D01*
X280166Y70729D01*
X280186Y70724D01*
X280289Y70732D01*
X280392Y70735D01*
X280411Y70742D01*
X280431Y70743D01*
X280526Y70784D01*
X280623Y70819D01*
X280639Y70832D01*
X280657Y70840D01*
X280788Y70945D01*
X281208Y71365D01*
X281261Y71439D01*
X281321Y71508D01*
X281333Y71538D01*
X281352Y71564D01*
X281379Y71651D01*
X281413Y71736D01*
X281417Y71777D01*
X281424Y71799D01*
X281423Y71832D01*
X281431Y71903D01*
X281431Y78097D01*
X281417Y78187D01*
X281409Y78278D01*
X281397Y78308D01*
X281392Y78340D01*
X281349Y78421D01*
X281313Y78504D01*
X281287Y78537D01*
X281276Y78557D01*
X281253Y78579D01*
X281208Y78635D01*
X280788Y79055D01*
X280772Y79067D01*
X280760Y79083D01*
X280672Y79139D01*
X280589Y79199D01*
X280570Y79205D01*
X280553Y79216D01*
X280452Y79241D01*
X280353Y79271D01*
X280334Y79271D01*
X280314Y79276D01*
X280211Y79268D01*
X280108Y79265D01*
X280089Y79258D01*
X280069Y79257D01*
X279974Y79216D01*
X279877Y79181D01*
X279861Y79168D01*
X279843Y79160D01*
X279712Y79055D01*
X279132Y78475D01*
X271868Y78475D01*
X270975Y79368D01*
X270975Y95632D01*
X271868Y96525D01*
X272789Y96525D01*
X272880Y96539D01*
X272970Y96547D01*
X273000Y96559D01*
X273032Y96564D01*
X273113Y96607D01*
X273197Y96643D01*
X273229Y96669D01*
X273250Y96680D01*
X273272Y96703D01*
X273328Y96748D01*
X276664Y100084D01*
X276717Y100158D01*
X276777Y100228D01*
X276789Y100258D01*
X276808Y100284D01*
X276835Y100371D01*
X276869Y100456D01*
X276873Y100497D01*
X276880Y100519D01*
X276879Y100551D01*
X276887Y100623D01*
X276887Y102782D01*
X279996Y105891D01*
X284392Y105891D01*
X287501Y102782D01*
X287501Y98386D01*
X286939Y97824D01*
X286897Y97766D01*
X286848Y97714D01*
X286826Y97667D01*
X286796Y97625D01*
X286774Y97556D01*
X286744Y97491D01*
X286739Y97439D01*
X286723Y97389D01*
X286725Y97318D01*
X286717Y97247D01*
X286728Y97196D01*
X286730Y97144D01*
X286754Y97076D01*
X286769Y97006D01*
X286796Y96961D01*
X286814Y96913D01*
X286859Y96857D01*
X286896Y96795D01*
X286935Y96761D01*
X286968Y96721D01*
X287028Y96682D01*
X287083Y96635D01*
X287131Y96616D01*
X287175Y96588D01*
X287244Y96570D01*
X287311Y96543D01*
X287382Y96535D01*
X287413Y96527D01*
X287436Y96529D01*
X287477Y96525D01*
X288632Y96525D01*
X289212Y95945D01*
X289228Y95933D01*
X289240Y95917D01*
X289328Y95861D01*
X289411Y95801D01*
X289430Y95795D01*
X289447Y95784D01*
X289548Y95759D01*
X289647Y95729D01*
X289666Y95729D01*
X289686Y95724D01*
X289789Y95732D01*
X289892Y95735D01*
X289911Y95742D01*
X289931Y95743D01*
X290026Y95784D01*
X290123Y95819D01*
X290139Y95832D01*
X290157Y95840D01*
X290288Y95945D01*
X290868Y96525D01*
X297434Y96525D01*
X297454Y96528D01*
X297473Y96526D01*
X297575Y96548D01*
X297677Y96564D01*
X297694Y96574D01*
X297714Y96578D01*
X297803Y96631D01*
X297894Y96680D01*
X297908Y96694D01*
X297925Y96704D01*
X297992Y96783D01*
X298064Y96858D01*
X298072Y96876D01*
X298085Y96891D01*
X298124Y96987D01*
X298167Y97081D01*
X298169Y97101D01*
X298177Y97119D01*
X298195Y97286D01*
X298195Y116198D01*
X298192Y116218D01*
X298194Y116237D01*
X298172Y116339D01*
X298156Y116441D01*
X298146Y116458D01*
X298142Y116478D01*
X298089Y116567D01*
X298040Y116658D01*
X298026Y116672D01*
X298016Y116689D01*
X297937Y116756D01*
X297862Y116828D01*
X297844Y116836D01*
X297829Y116849D01*
X297733Y116888D01*
X297639Y116931D01*
X297619Y116933D01*
X297601Y116941D01*
X297434Y116959D01*
X295023Y116959D01*
X295023Y124238D01*
X295020Y124258D01*
X295022Y124277D01*
X295000Y124379D01*
X294983Y124481D01*
X294974Y124498D01*
X294970Y124518D01*
X294917Y124607D01*
X294868Y124698D01*
X294854Y124712D01*
X294844Y124729D01*
X294765Y124796D01*
X294690Y124867D01*
X294672Y124876D01*
X294657Y124889D01*
X294561Y124928D01*
X294467Y124971D01*
X294447Y124973D01*
X294429Y124981D01*
X294262Y124999D01*
X293499Y124999D01*
X293499Y125001D01*
X294262Y125001D01*
X294282Y125004D01*
X294301Y125002D01*
X294403Y125024D01*
X294505Y125041D01*
X294522Y125050D01*
X294542Y125054D01*
X294631Y125107D01*
X294722Y125156D01*
X294736Y125170D01*
X294753Y125180D01*
X294820Y125259D01*
X294891Y125334D01*
X294900Y125352D01*
X294913Y125367D01*
X294952Y125463D01*
X294995Y125557D01*
X294997Y125577D01*
X295005Y125595D01*
X295023Y125762D01*
X295023Y133041D01*
X298834Y133041D01*
X299481Y132868D01*
X299847Y132656D01*
X299937Y132622D01*
X300023Y132582D01*
X300051Y132579D01*
X300077Y132569D01*
X300173Y132565D01*
X300267Y132555D01*
X300295Y132561D01*
X300323Y132560D01*
X300415Y132587D01*
X300508Y132607D01*
X300532Y132622D01*
X300559Y132630D01*
X300637Y132684D01*
X300719Y132733D01*
X300737Y132755D01*
X300760Y132771D01*
X300817Y132848D01*
X300879Y132920D01*
X300889Y132947D01*
X300906Y132969D01*
X300935Y133060D01*
X300971Y133148D01*
X300975Y133184D01*
X300981Y133203D01*
X300981Y133236D01*
X300989Y133315D01*
X300989Y182361D01*
X300978Y182432D01*
X300976Y182504D01*
X300958Y182553D01*
X300950Y182604D01*
X300916Y182668D01*
X300891Y182735D01*
X300859Y182776D01*
X300834Y182822D01*
X300783Y182871D01*
X300738Y182927D01*
X300694Y182955D01*
X300656Y182991D01*
X300591Y183021D01*
X300531Y183060D01*
X300480Y183073D01*
X300433Y183095D01*
X300362Y183103D01*
X300292Y183120D01*
X300240Y183116D01*
X300189Y183122D01*
X300118Y183106D01*
X300047Y183101D01*
X299999Y183081D01*
X299948Y183069D01*
X299887Y183033D01*
X299821Y183005D01*
X299765Y182960D01*
X299737Y182943D01*
X299722Y182926D01*
X299690Y182900D01*
X299248Y182458D01*
X299194Y182384D01*
X299135Y182314D01*
X299123Y182284D01*
X299104Y182258D01*
X299077Y182171D01*
X299043Y182086D01*
X299039Y182045D01*
X299032Y182023D01*
X299033Y181991D01*
X299025Y181919D01*
X299025Y174368D01*
X298132Y173475D01*
X290868Y173475D01*
X290288Y174055D01*
X290272Y174067D01*
X290260Y174083D01*
X290172Y174139D01*
X290089Y174199D01*
X290070Y174205D01*
X290053Y174216D01*
X289952Y174241D01*
X289853Y174271D01*
X289833Y174271D01*
X289814Y174276D01*
X289711Y174268D01*
X289608Y174265D01*
X289589Y174258D01*
X289569Y174257D01*
X289474Y174216D01*
X289377Y174181D01*
X289361Y174168D01*
X289343Y174160D01*
X289212Y174055D01*
X288768Y173611D01*
X288714Y173537D01*
X288712Y173534D01*
X288676Y173497D01*
X288672Y173488D01*
X288655Y173468D01*
X288643Y173438D01*
X288624Y173412D01*
X288599Y173331D01*
X288573Y173274D01*
X288571Y173260D01*
X288563Y173240D01*
X288559Y173199D01*
X288552Y173177D01*
X288553Y173144D01*
X288545Y173073D01*
X288545Y166927D01*
X288559Y166837D01*
X288567Y166746D01*
X288579Y166716D01*
X288584Y166684D01*
X288627Y166604D01*
X288663Y166520D01*
X288689Y166487D01*
X288700Y166467D01*
X288723Y166445D01*
X288768Y166389D01*
X289212Y165945D01*
X289228Y165933D01*
X289240Y165917D01*
X289327Y165861D01*
X289411Y165801D01*
X289430Y165795D01*
X289447Y165784D01*
X289548Y165759D01*
X289646Y165729D01*
X289666Y165729D01*
X289686Y165724D01*
X289789Y165732D01*
X289892Y165735D01*
X289911Y165742D01*
X289931Y165743D01*
X290026Y165784D01*
X290123Y165819D01*
X290139Y165832D01*
X290157Y165840D01*
X290288Y165945D01*
X290868Y166525D01*
X298132Y166525D01*
X299025Y165632D01*
X299025Y149368D01*
X298132Y148475D01*
X290868Y148475D01*
X290288Y149055D01*
X290272Y149067D01*
X290260Y149083D01*
X290172Y149139D01*
X290089Y149199D01*
X290070Y149205D01*
X290053Y149216D01*
X289952Y149241D01*
X289853Y149271D01*
X289834Y149271D01*
X289814Y149276D01*
X289711Y149268D01*
X289608Y149265D01*
X289589Y149258D01*
X289569Y149257D01*
X289474Y149216D01*
X289377Y149181D01*
X289361Y149168D01*
X289343Y149160D01*
X289212Y149055D01*
X288632Y148475D01*
X281346Y148475D01*
X281305Y148495D01*
X281263Y148525D01*
X281194Y148546D01*
X281129Y148576D01*
X281077Y148582D01*
X281028Y148597D01*
X280956Y148595D01*
X280885Y148603D01*
X280834Y148592D01*
X280782Y148591D01*
X280714Y148566D01*
X280644Y148551D01*
X280599Y148524D01*
X280551Y148507D01*
X280495Y148462D01*
X280433Y148425D01*
X280399Y148385D01*
X280359Y148353D01*
X280320Y148293D01*
X280273Y148238D01*
X280254Y148190D01*
X280226Y148146D01*
X280208Y148076D01*
X280181Y148010D01*
X280173Y147939D01*
X280165Y147907D01*
X280167Y147884D01*
X280163Y147843D01*
X280163Y141169D01*
X280177Y141079D01*
X280185Y140988D01*
X280197Y140959D01*
X280202Y140927D01*
X280245Y140846D01*
X280281Y140762D01*
X280307Y140730D01*
X280318Y140709D01*
X280341Y140687D01*
X280386Y140631D01*
X281913Y139104D01*
X281913Y134708D01*
X280529Y133324D01*
X280487Y133266D01*
X280438Y133214D01*
X280416Y133167D01*
X280386Y133125D01*
X280364Y133056D01*
X280334Y132991D01*
X280329Y132939D01*
X280313Y132889D01*
X280315Y132818D01*
X280307Y132747D01*
X280318Y132696D01*
X280320Y132644D01*
X280344Y132576D01*
X280359Y132506D01*
X280386Y132461D01*
X280404Y132413D01*
X280449Y132357D01*
X280486Y132295D01*
X280525Y132261D01*
X280558Y132221D01*
X280618Y132182D01*
X280673Y132135D01*
X280721Y132116D01*
X280765Y132088D01*
X280834Y132070D01*
X280901Y132043D01*
X280972Y132035D01*
X281003Y132027D01*
X281026Y132029D01*
X281067Y132025D01*
X282132Y132025D01*
X283025Y131132D01*
X283025Y118868D01*
X282132Y117975D01*
X270868Y117975D01*
X269975Y118868D01*
X269975Y131132D01*
X270868Y132025D01*
X272145Y132025D01*
X272215Y132036D01*
X272287Y132038D01*
X272336Y132056D01*
X272387Y132064D01*
X272451Y132098D01*
X272518Y132123D01*
X272559Y132155D01*
X272605Y132180D01*
X272654Y132232D01*
X272710Y132276D01*
X272738Y132320D01*
X272774Y132358D01*
X272804Y132423D01*
X272843Y132483D01*
X272856Y132534D01*
X272878Y132581D01*
X272886Y132652D01*
X272903Y132722D01*
X272899Y132774D01*
X272905Y132825D01*
X272890Y132896D01*
X272884Y132967D01*
X272864Y133015D01*
X272853Y133066D01*
X272816Y133127D01*
X272788Y133193D01*
X272743Y133249D01*
X272726Y133277D01*
X272709Y133292D01*
X272683Y133324D01*
X271299Y134708D01*
X271299Y139104D01*
X272826Y140631D01*
X272879Y140705D01*
X272939Y140775D01*
X272951Y140805D01*
X272970Y140831D01*
X272997Y140918D01*
X273031Y141003D01*
X273035Y141044D01*
X273042Y141066D01*
X273041Y141098D01*
X273049Y141169D01*
X273049Y147714D01*
X273046Y147734D01*
X273048Y147753D01*
X273026Y147855D01*
X273010Y147957D01*
X273000Y147974D01*
X272996Y147994D01*
X272943Y148083D01*
X272894Y148174D01*
X272880Y148188D01*
X272870Y148205D01*
X272791Y148272D01*
X272716Y148344D01*
X272698Y148352D01*
X272683Y148365D01*
X272587Y148404D01*
X272493Y148447D01*
X272473Y148449D01*
X272455Y148457D01*
X272288Y148475D01*
X271868Y148475D01*
X270975Y149368D01*
X270975Y156749D01*
X270961Y156840D01*
X270953Y156930D01*
X270941Y156960D01*
X270936Y156992D01*
X270893Y157073D01*
X270857Y157157D01*
X270831Y157189D01*
X270820Y157210D01*
X270797Y157232D01*
X270752Y157288D01*
X261873Y166167D01*
X261873Y233227D01*
X261871Y233239D01*
X261872Y233247D01*
X261863Y233291D01*
X261859Y233317D01*
X261851Y233408D01*
X261839Y233437D01*
X261834Y233469D01*
X261791Y233550D01*
X261755Y233634D01*
X261729Y233666D01*
X261718Y233687D01*
X261695Y233709D01*
X261650Y233765D01*
X260123Y235292D01*
X260123Y239688D01*
X263232Y242797D01*
X265391Y242797D01*
X265482Y242811D01*
X265572Y242819D01*
X265602Y242831D01*
X265634Y242836D01*
X265715Y242879D01*
X265799Y242915D01*
X265831Y242941D01*
X265852Y242952D01*
X265874Y242975D01*
X265930Y243020D01*
X270065Y247155D01*
X270110Y247217D01*
X270134Y247243D01*
X270137Y247250D01*
X270170Y247286D01*
X270180Y247311D01*
X270742Y247853D01*
X270801Y247931D01*
X270865Y248006D01*
X270874Y248030D01*
X270890Y248050D01*
X270920Y248143D01*
X270957Y248234D01*
X270960Y248266D01*
X270966Y248284D01*
X270966Y248317D01*
X270975Y248401D01*
X270975Y255632D01*
X271868Y256525D01*
X279132Y256525D01*
X279712Y255945D01*
X279728Y255933D01*
X279740Y255917D01*
X279828Y255861D01*
X279911Y255801D01*
X279930Y255795D01*
X279947Y255784D01*
X280048Y255759D01*
X280147Y255729D01*
X280167Y255729D01*
X280186Y255724D01*
X280289Y255732D01*
X280392Y255735D01*
X280411Y255742D01*
X280431Y255743D01*
X280526Y255784D01*
X280623Y255819D01*
X280639Y255832D01*
X280657Y255840D01*
X280788Y255945D01*
X281208Y256365D01*
X281262Y256439D01*
X281321Y256508D01*
X281333Y256538D01*
X281352Y256564D01*
X281379Y256651D01*
X281413Y256736D01*
X281417Y256777D01*
X281424Y256799D01*
X281423Y256832D01*
X281431Y256903D01*
X281431Y263097D01*
X281417Y263187D01*
X281409Y263278D01*
X281397Y263308D01*
X281392Y263340D01*
X281349Y263420D01*
X281313Y263504D01*
X281287Y263537D01*
X281276Y263557D01*
X281253Y263579D01*
X281208Y263635D01*
X280788Y264055D01*
X280772Y264067D01*
X280760Y264083D01*
X280672Y264139D01*
X280589Y264199D01*
X280570Y264205D01*
X280553Y264216D01*
X280452Y264241D01*
X280354Y264271D01*
X280334Y264271D01*
X280314Y264276D01*
X280211Y264268D01*
X280108Y264265D01*
X280089Y264258D01*
X280069Y264257D01*
X279974Y264216D01*
X279877Y264181D01*
X279861Y264168D01*
X279843Y264160D01*
X279712Y264055D01*
X279132Y263475D01*
X271868Y263475D01*
X270975Y264368D01*
X270975Y271140D01*
X270973Y271155D01*
X270975Y271170D01*
X270953Y271276D01*
X270936Y271382D01*
X270928Y271396D01*
X270925Y271411D01*
X270871Y271505D01*
X270820Y271600D01*
X270809Y271610D01*
X270801Y271624D01*
X270681Y271741D01*
X270464Y271909D01*
X270455Y271943D01*
X270451Y271987D01*
X270420Y272060D01*
X270397Y272136D01*
X270372Y272173D01*
X270355Y272213D01*
X270265Y272326D01*
X270256Y272338D01*
X270255Y272338D01*
X270255Y273542D01*
X270250Y273572D01*
X270253Y273593D01*
X270250Y273607D01*
X270249Y273637D01*
X270099Y274834D01*
X270116Y274864D01*
X270145Y274898D01*
X270175Y274972D01*
X270213Y275042D01*
X270220Y275085D01*
X270237Y275126D01*
X270253Y275270D01*
X270255Y275284D01*
X270255Y275287D01*
X270255Y275293D01*
X270255Y283519D01*
X270241Y283609D01*
X270233Y283700D01*
X270221Y283729D01*
X270216Y283761D01*
X270173Y283842D01*
X270137Y283926D01*
X270111Y283958D01*
X270100Y283979D01*
X270077Y284001D01*
X270032Y284057D01*
X268505Y285584D01*
X268505Y286783D01*
X268494Y286854D01*
X268492Y286926D01*
X268474Y286975D01*
X268466Y287026D01*
X268432Y287090D01*
X268407Y287157D01*
X268375Y287198D01*
X268350Y287244D01*
X268298Y287293D01*
X268254Y287349D01*
X268210Y287377D01*
X268172Y287413D01*
X268107Y287443D01*
X268047Y287482D01*
X267996Y287495D01*
X267949Y287517D01*
X267878Y287525D01*
X267808Y287542D01*
X267756Y287538D01*
X267705Y287544D01*
X267634Y287528D01*
X267563Y287523D01*
X267515Y287503D01*
X267464Y287491D01*
X267403Y287455D01*
X267337Y287427D01*
X267281Y287382D01*
X267253Y287365D01*
X267238Y287347D01*
X267206Y287322D01*
X263622Y283738D01*
X263569Y283664D01*
X263509Y283594D01*
X263497Y283564D01*
X263478Y283538D01*
X263451Y283451D01*
X263417Y283366D01*
X263413Y283325D01*
X263406Y283303D01*
X263407Y283271D01*
X263399Y283199D01*
X263399Y263957D01*
X246858Y247416D01*
X246314Y246872D01*
X246287Y246834D01*
X246253Y246803D01*
X246215Y246735D01*
X246170Y246672D01*
X246157Y246628D01*
X246134Y246588D01*
X246121Y246511D01*
X246098Y246437D01*
X246099Y246391D01*
X246091Y246346D01*
X246102Y246269D01*
X246104Y246191D01*
X246120Y246148D01*
X246127Y246102D01*
X246162Y246033D01*
X246189Y245960D01*
X246217Y245924D01*
X246238Y245883D01*
X246294Y245829D01*
X246342Y245768D01*
X246381Y245743D01*
X246414Y245711D01*
X246534Y245645D01*
X246549Y245635D01*
X246554Y245634D01*
X246561Y245630D01*
X247268Y245337D01*
X249537Y243068D01*
X250765Y240104D01*
X250765Y236896D01*
X250355Y235907D01*
X250329Y235794D01*
X250300Y235680D01*
X250301Y235674D01*
X250299Y235668D01*
X250310Y235551D01*
X250319Y235435D01*
X250322Y235429D01*
X250322Y235423D01*
X250370Y235315D01*
X250415Y235209D01*
X250420Y235203D01*
X250422Y235198D01*
X250435Y235184D01*
X250520Y235078D01*
X257811Y227787D01*
X257811Y182931D01*
X247345Y172465D01*
X242073Y172465D01*
X241983Y172451D01*
X241892Y172443D01*
X241862Y172431D01*
X241830Y172426D01*
X241749Y172383D01*
X241665Y172347D01*
X241633Y172321D01*
X241612Y172310D01*
X241590Y172287D01*
X241534Y172242D01*
X240956Y171664D01*
X240914Y171606D01*
X240865Y171554D01*
X240843Y171507D01*
X240813Y171465D01*
X240792Y171396D01*
X240761Y171331D01*
X240756Y171279D01*
X240740Y171229D01*
X240742Y171158D01*
X240734Y171087D01*
X240745Y171036D01*
X240747Y170984D01*
X240771Y170916D01*
X240787Y170846D01*
X240813Y170801D01*
X240831Y170753D01*
X240876Y170697D01*
X240913Y170635D01*
X240952Y170601D01*
X240985Y170561D01*
X241045Y170522D01*
X241100Y170475D01*
X241148Y170456D01*
X241192Y170428D01*
X241261Y170410D01*
X241328Y170383D01*
X241399Y170375D01*
X241430Y170367D01*
X241454Y170369D01*
X241495Y170365D01*
X244304Y170365D01*
X247268Y169137D01*
X249537Y166868D01*
X250765Y163904D01*
X250765Y160696D01*
X250578Y160246D01*
X250552Y160133D01*
X250523Y160019D01*
X250524Y160013D01*
X250522Y160007D01*
X250533Y159890D01*
X250542Y159774D01*
X250545Y159768D01*
X250545Y159762D01*
X250593Y159655D01*
X250639Y159547D01*
X250643Y159542D01*
X250645Y159537D01*
X250658Y159523D01*
X250743Y159417D01*
X252710Y157450D01*
X252784Y157396D01*
X252854Y157337D01*
X252884Y157325D01*
X252910Y157306D01*
X252997Y157279D01*
X253082Y157245D01*
X253123Y157241D01*
X253145Y157234D01*
X253177Y157235D01*
X253249Y157227D01*
X255579Y157227D01*
X255669Y157241D01*
X255760Y157249D01*
X255789Y157261D01*
X255821Y157266D01*
X255902Y157309D01*
X255986Y157345D01*
X256018Y157371D01*
X256039Y157382D01*
X256061Y157405D01*
X256117Y157450D01*
X257644Y158977D01*
X262040Y158977D01*
X265149Y155868D01*
X265149Y151472D01*
X262040Y148363D01*
X257644Y148363D01*
X256117Y149890D01*
X256043Y149943D01*
X255973Y150003D01*
X255943Y150015D01*
X255917Y150034D01*
X255830Y150061D01*
X255745Y150095D01*
X255704Y150099D01*
X255682Y150106D01*
X255650Y150105D01*
X255579Y150113D01*
X250709Y150113D01*
X250638Y150102D01*
X250566Y150100D01*
X250517Y150082D01*
X250466Y150074D01*
X250402Y150040D01*
X250335Y150015D01*
X250294Y149983D01*
X250248Y149958D01*
X250199Y149906D01*
X250143Y149862D01*
X250115Y149818D01*
X250079Y149780D01*
X250049Y149715D01*
X250010Y149655D01*
X249997Y149604D01*
X249975Y149557D01*
X249967Y149486D01*
X249950Y149416D01*
X249954Y149364D01*
X249948Y149313D01*
X249964Y149242D01*
X249969Y149171D01*
X249989Y149123D01*
X250001Y149072D01*
X250037Y149011D01*
X250065Y148945D01*
X250110Y148889D01*
X250127Y148861D01*
X250145Y148846D01*
X250170Y148814D01*
X263399Y135585D01*
X263399Y101905D01*
X258034Y96540D01*
X257981Y96466D01*
X257921Y96396D01*
X257909Y96366D01*
X257890Y96340D01*
X257863Y96253D01*
X257829Y96168D01*
X257825Y96127D01*
X257818Y96105D01*
X257819Y96073D01*
X257811Y96001D01*
X257811Y79553D01*
X250139Y71881D01*
X244867Y71881D01*
X244776Y71867D01*
X244686Y71859D01*
X244656Y71847D01*
X244624Y71842D01*
X244543Y71799D01*
X244459Y71763D01*
X244427Y71737D01*
X244406Y71726D01*
X244384Y71703D01*
X244328Y71658D01*
X243648Y70978D01*
X243579Y70882D01*
X243507Y70783D01*
X243506Y70780D01*
X243504Y70778D01*
X243469Y70664D01*
X243432Y70549D01*
X243433Y70546D01*
X243432Y70543D01*
X243433Y70474D01*
X243422Y70476D01*
X243352Y70460D01*
X243281Y70455D01*
X243233Y70434D01*
X243182Y70423D01*
X243120Y70387D01*
X243055Y70359D01*
X242999Y70314D01*
X242971Y70297D01*
X242956Y70279D01*
X242924Y70254D01*
X241400Y68730D01*
X241347Y68656D01*
X241287Y68586D01*
X241275Y68556D01*
X241256Y68530D01*
X241229Y68443D01*
X241195Y68358D01*
X241191Y68317D01*
X241184Y68295D01*
X241185Y68263D01*
X241177Y68191D01*
X241177Y61462D01*
X241180Y61442D01*
X241178Y61423D01*
X241200Y61321D01*
X241217Y61219D01*
X241226Y61202D01*
X241230Y61182D01*
X241283Y61093D01*
X241332Y61002D01*
X241346Y60988D01*
X241356Y60971D01*
X241435Y60904D01*
X241510Y60833D01*
X241528Y60824D01*
X241543Y60811D01*
X241639Y60773D01*
X241733Y60729D01*
X241753Y60727D01*
X241771Y60719D01*
X241938Y60701D01*
X242701Y60701D01*
X242701Y60699D01*
X241938Y60699D01*
X241918Y60696D01*
X241899Y60698D01*
X241797Y60676D01*
X241695Y60659D01*
X241678Y60650D01*
X241658Y60646D01*
X241569Y60593D01*
X241478Y60544D01*
X241464Y60530D01*
X241447Y60520D01*
X241380Y60441D01*
X241309Y60366D01*
X241300Y60348D01*
X241287Y60333D01*
X241248Y60237D01*
X241205Y60143D01*
X241203Y60123D01*
X241195Y60105D01*
X241177Y59938D01*
X241177Y51282D01*
X241170Y51268D01*
X241157Y51253D01*
X241118Y51157D01*
X241075Y51063D01*
X241073Y51043D01*
X241065Y51025D01*
X241047Y50858D01*
X241047Y40786D01*
X241050Y40766D01*
X241048Y40747D01*
X241070Y40645D01*
X241086Y40543D01*
X241096Y40526D01*
X241100Y40506D01*
X241153Y40417D01*
X241202Y40326D01*
X241216Y40312D01*
X241226Y40295D01*
X241305Y40228D01*
X241380Y40156D01*
X241398Y40148D01*
X241413Y40135D01*
X241509Y40096D01*
X241603Y40053D01*
X241623Y40051D01*
X241641Y40043D01*
X241808Y40025D01*
X246132Y40025D01*
X247025Y39132D01*
X247025Y37846D01*
X247028Y37826D01*
X247026Y37807D01*
X247048Y37705D01*
X247064Y37603D01*
X247074Y37586D01*
X247078Y37566D01*
X247131Y37477D01*
X247180Y37386D01*
X247194Y37372D01*
X247204Y37355D01*
X247283Y37288D01*
X247358Y37216D01*
X247376Y37208D01*
X247391Y37195D01*
X247487Y37156D01*
X247581Y37113D01*
X247601Y37111D01*
X247619Y37103D01*
X247786Y37085D01*
X260847Y37085D01*
X260938Y37099D01*
G37*
G36*
X362760Y48264D02*
X362760Y48264D01*
X362779Y48262D01*
X362881Y48284D01*
X362983Y48300D01*
X363000Y48310D01*
X363020Y48314D01*
X363109Y48367D01*
X363200Y48416D01*
X363214Y48430D01*
X363231Y48440D01*
X363298Y48519D01*
X363370Y48594D01*
X363378Y48612D01*
X363391Y48627D01*
X363430Y48723D01*
X363473Y48817D01*
X363475Y48837D01*
X363483Y48855D01*
X363501Y49022D01*
X363501Y52490D01*
X366610Y55599D01*
X368769Y55599D01*
X368860Y55613D01*
X368950Y55621D01*
X368980Y55633D01*
X369012Y55638D01*
X369093Y55681D01*
X369177Y55717D01*
X369209Y55743D01*
X369230Y55754D01*
X369252Y55777D01*
X369308Y55822D01*
X370616Y57130D01*
X370669Y57204D01*
X370729Y57274D01*
X370741Y57304D01*
X370760Y57330D01*
X370787Y57417D01*
X370821Y57502D01*
X370825Y57543D01*
X370832Y57565D01*
X370831Y57597D01*
X370839Y57669D01*
X370839Y59764D01*
X370827Y59842D01*
X370823Y59920D01*
X370807Y59962D01*
X370800Y60007D01*
X370789Y60027D01*
X370839Y61515D01*
X370838Y61525D01*
X370839Y61541D01*
X370839Y63041D01*
X370841Y63047D01*
X370865Y63075D01*
X370872Y63093D01*
X370884Y63108D01*
X370918Y63206D01*
X370957Y63303D01*
X370959Y63327D01*
X370964Y63341D01*
X370965Y63373D01*
X370975Y63470D01*
X370975Y70632D01*
X371868Y71525D01*
X379132Y71525D01*
X379712Y70945D01*
X379728Y70933D01*
X379740Y70917D01*
X379828Y70861D01*
X379911Y70801D01*
X379930Y70795D01*
X379947Y70784D01*
X380048Y70759D01*
X380147Y70729D01*
X380166Y70729D01*
X380186Y70724D01*
X380289Y70732D01*
X380392Y70735D01*
X380411Y70742D01*
X380431Y70743D01*
X380526Y70784D01*
X380623Y70819D01*
X380639Y70832D01*
X380657Y70840D01*
X380788Y70945D01*
X381391Y71547D01*
X381395Y71548D01*
X381497Y71564D01*
X381514Y71574D01*
X381534Y71578D01*
X381623Y71631D01*
X381714Y71680D01*
X381728Y71694D01*
X381745Y71704D01*
X381812Y71783D01*
X381884Y71858D01*
X381892Y71876D01*
X381905Y71891D01*
X381944Y71987D01*
X381987Y72081D01*
X381989Y72101D01*
X381997Y72119D01*
X382015Y72286D01*
X382015Y77714D01*
X382012Y77734D01*
X382014Y77753D01*
X381992Y77855D01*
X381976Y77957D01*
X381966Y77974D01*
X381962Y77994D01*
X381909Y78083D01*
X381860Y78174D01*
X381846Y78188D01*
X381836Y78205D01*
X381757Y78272D01*
X381682Y78344D01*
X381664Y78352D01*
X381649Y78365D01*
X381553Y78404D01*
X381459Y78447D01*
X381439Y78449D01*
X381421Y78457D01*
X381383Y78461D01*
X380788Y79055D01*
X380772Y79067D01*
X380760Y79083D01*
X380672Y79139D01*
X380589Y79199D01*
X380570Y79205D01*
X380553Y79216D01*
X380452Y79241D01*
X380353Y79271D01*
X380334Y79271D01*
X380314Y79276D01*
X380211Y79268D01*
X380108Y79265D01*
X380089Y79258D01*
X380069Y79257D01*
X379974Y79216D01*
X379877Y79181D01*
X379861Y79168D01*
X379843Y79160D01*
X379712Y79055D01*
X379132Y78475D01*
X371868Y78475D01*
X370975Y79368D01*
X370975Y95632D01*
X371868Y96525D01*
X372872Y96525D01*
X372892Y96528D01*
X372911Y96526D01*
X373013Y96548D01*
X373115Y96564D01*
X373132Y96574D01*
X373152Y96578D01*
X373241Y96631D01*
X373332Y96680D01*
X373346Y96694D01*
X373363Y96704D01*
X373430Y96783D01*
X373502Y96858D01*
X373510Y96876D01*
X373523Y96891D01*
X373562Y96987D01*
X373605Y97081D01*
X373607Y97101D01*
X373615Y97119D01*
X373633Y97286D01*
X373633Y117214D01*
X373630Y117234D01*
X373632Y117253D01*
X373610Y117355D01*
X373594Y117457D01*
X373584Y117474D01*
X373580Y117494D01*
X373527Y117583D01*
X373478Y117674D01*
X373464Y117688D01*
X373454Y117705D01*
X373375Y117772D01*
X373300Y117844D01*
X373282Y117852D01*
X373267Y117865D01*
X373171Y117904D01*
X373077Y117947D01*
X373057Y117949D01*
X373039Y117957D01*
X372872Y117975D01*
X370868Y117975D01*
X369975Y118868D01*
X369975Y124805D01*
X369961Y124896D01*
X369953Y124986D01*
X369941Y125016D01*
X369936Y125048D01*
X369893Y125129D01*
X369857Y125213D01*
X369831Y125245D01*
X369820Y125266D01*
X369797Y125288D01*
X369752Y125344D01*
X365282Y129814D01*
X365224Y129856D01*
X365172Y129905D01*
X365125Y129927D01*
X365083Y129957D01*
X365014Y129978D01*
X364949Y130009D01*
X364897Y130014D01*
X364847Y130030D01*
X364776Y130028D01*
X364705Y130036D01*
X364654Y130025D01*
X364602Y130023D01*
X364534Y129999D01*
X364464Y129983D01*
X364420Y129957D01*
X364371Y129939D01*
X364315Y129894D01*
X364253Y129857D01*
X364219Y129818D01*
X364179Y129785D01*
X364140Y129725D01*
X364093Y129670D01*
X364074Y129622D01*
X364046Y129578D01*
X364028Y129509D01*
X364001Y129442D01*
X363993Y129371D01*
X363985Y129340D01*
X363987Y129316D01*
X363983Y129275D01*
X363983Y79553D01*
X360368Y75938D01*
X360315Y75864D01*
X360255Y75794D01*
X360243Y75764D01*
X360224Y75738D01*
X360197Y75651D01*
X360163Y75566D01*
X360159Y75525D01*
X360152Y75503D01*
X360153Y75471D01*
X360145Y75399D01*
X360145Y73240D01*
X357036Y70131D01*
X352640Y70131D01*
X349531Y73240D01*
X349531Y77274D01*
X349528Y77294D01*
X349530Y77313D01*
X349508Y77415D01*
X349492Y77517D01*
X349482Y77534D01*
X349478Y77554D01*
X349425Y77643D01*
X349376Y77734D01*
X349362Y77748D01*
X349352Y77765D01*
X349273Y77832D01*
X349198Y77904D01*
X349180Y77912D01*
X349165Y77925D01*
X349069Y77964D01*
X348975Y78007D01*
X348955Y78009D01*
X348937Y78017D01*
X348770Y78035D01*
X346017Y78035D01*
X345926Y78021D01*
X345836Y78013D01*
X345806Y78001D01*
X345774Y77996D01*
X345693Y77953D01*
X345609Y77917D01*
X345577Y77891D01*
X345556Y77880D01*
X345534Y77857D01*
X345478Y77812D01*
X340810Y73144D01*
X340757Y73070D01*
X340697Y73000D01*
X340685Y72970D01*
X340666Y72944D01*
X340639Y72857D01*
X340605Y72772D01*
X340601Y72731D01*
X340594Y72709D01*
X340595Y72677D01*
X340587Y72605D01*
X340587Y70446D01*
X337478Y67337D01*
X333082Y67337D01*
X329973Y70446D01*
X329973Y71645D01*
X329962Y71716D01*
X329960Y71788D01*
X329942Y71837D01*
X329934Y71888D01*
X329900Y71952D01*
X329875Y72019D01*
X329843Y72060D01*
X329818Y72106D01*
X329766Y72155D01*
X329722Y72211D01*
X329678Y72239D01*
X329640Y72275D01*
X329575Y72305D01*
X329515Y72344D01*
X329464Y72357D01*
X329417Y72379D01*
X329346Y72387D01*
X329276Y72404D01*
X329224Y72400D01*
X329173Y72406D01*
X329102Y72390D01*
X329031Y72385D01*
X328983Y72365D01*
X328932Y72353D01*
X328871Y72317D01*
X328805Y72289D01*
X328749Y72244D01*
X328721Y72227D01*
X328706Y72210D01*
X328674Y72184D01*
X328371Y71881D01*
X314249Y71881D01*
X310634Y75496D01*
X310560Y75549D01*
X310490Y75609D01*
X310460Y75621D01*
X310434Y75640D01*
X310347Y75667D01*
X310262Y75701D01*
X310221Y75705D01*
X310199Y75712D01*
X310167Y75711D01*
X310095Y75719D01*
X307820Y75719D01*
X307800Y75716D01*
X307781Y75718D01*
X307679Y75696D01*
X307577Y75680D01*
X307560Y75670D01*
X307540Y75666D01*
X307451Y75613D01*
X307360Y75564D01*
X307346Y75550D01*
X307329Y75540D01*
X307262Y75461D01*
X307190Y75386D01*
X307182Y75368D01*
X307169Y75353D01*
X307130Y75257D01*
X307087Y75163D01*
X307085Y75143D01*
X307077Y75125D01*
X307059Y74958D01*
X307059Y73240D01*
X303950Y70131D01*
X299786Y70131D01*
X299766Y70128D01*
X299747Y70130D01*
X299645Y70108D01*
X299543Y70092D01*
X299526Y70082D01*
X299506Y70078D01*
X299417Y70025D01*
X299326Y69976D01*
X299312Y69962D01*
X299295Y69952D01*
X299228Y69873D01*
X299156Y69798D01*
X299148Y69780D01*
X299135Y69765D01*
X299096Y69669D01*
X299053Y69575D01*
X299051Y69555D01*
X299043Y69537D01*
X299025Y69370D01*
X299025Y65786D01*
X299028Y65766D01*
X299026Y65747D01*
X299048Y65645D01*
X299064Y65543D01*
X299074Y65526D01*
X299078Y65506D01*
X299131Y65417D01*
X299180Y65326D01*
X299194Y65312D01*
X299204Y65295D01*
X299283Y65228D01*
X299358Y65156D01*
X299376Y65148D01*
X299391Y65135D01*
X299487Y65096D01*
X299581Y65053D01*
X299601Y65051D01*
X299619Y65043D01*
X299786Y65025D01*
X306019Y65025D01*
X313146Y57898D01*
X313225Y57841D01*
X313301Y57779D01*
X313325Y57769D01*
X313346Y57754D01*
X313439Y57725D01*
X313530Y57690D01*
X313556Y57689D01*
X313581Y57682D01*
X313678Y57684D01*
X313776Y57680D01*
X313801Y57687D01*
X313827Y57688D01*
X313919Y57722D01*
X314012Y57749D01*
X314034Y57764D01*
X314058Y57773D01*
X314134Y57833D01*
X314214Y57889D01*
X314230Y57910D01*
X314250Y57926D01*
X314303Y58008D01*
X314361Y58086D01*
X314369Y58111D01*
X314383Y58133D01*
X314407Y58227D01*
X314437Y58320D01*
X314437Y58346D01*
X314443Y58372D01*
X314436Y58469D01*
X314435Y58566D01*
X314426Y58598D01*
X314424Y58617D01*
X314411Y58647D01*
X314388Y58727D01*
X314235Y59096D01*
X314235Y62304D01*
X315463Y65268D01*
X317732Y67537D01*
X320696Y68765D01*
X323904Y68765D01*
X326868Y67537D01*
X329137Y65268D01*
X330365Y62304D01*
X330365Y59096D01*
X329137Y56132D01*
X326868Y53863D01*
X323904Y52635D01*
X320696Y52635D01*
X320327Y52788D01*
X320233Y52810D01*
X320139Y52839D01*
X320113Y52838D01*
X320088Y52844D01*
X319991Y52835D01*
X319893Y52832D01*
X319869Y52823D01*
X319843Y52821D01*
X319754Y52782D01*
X319662Y52748D01*
X319642Y52732D01*
X319618Y52721D01*
X319546Y52655D01*
X319470Y52594D01*
X319456Y52572D01*
X319437Y52555D01*
X319390Y52469D01*
X319337Y52387D01*
X319331Y52362D01*
X319318Y52339D01*
X319301Y52243D01*
X319277Y52149D01*
X319279Y52123D01*
X319275Y52097D01*
X319289Y52001D01*
X319296Y51904D01*
X319307Y51880D01*
X319311Y51854D01*
X319355Y51767D01*
X319393Y51677D01*
X319413Y51652D01*
X319422Y51635D01*
X319446Y51611D01*
X319498Y51546D01*
X322560Y48484D01*
X322634Y48431D01*
X322704Y48371D01*
X322734Y48359D01*
X322760Y48340D01*
X322847Y48313D01*
X322932Y48279D01*
X322973Y48275D01*
X322995Y48268D01*
X323027Y48269D01*
X323099Y48261D01*
X362740Y48261D01*
X362760Y48264D01*
G37*
G36*
X159234Y23118D02*
X159234Y23118D01*
X159253Y23116D01*
X159355Y23138D01*
X159457Y23154D01*
X159474Y23164D01*
X159494Y23168D01*
X159583Y23221D01*
X159674Y23270D01*
X159688Y23284D01*
X159705Y23294D01*
X159772Y23373D01*
X159844Y23448D01*
X159852Y23466D01*
X159865Y23481D01*
X159904Y23577D01*
X159947Y23671D01*
X159949Y23691D01*
X159957Y23709D01*
X159975Y23876D01*
X159975Y31032D01*
X160555Y31612D01*
X160567Y31628D01*
X160583Y31640D01*
X160639Y31728D01*
X160699Y31811D01*
X160705Y31830D01*
X160716Y31847D01*
X160741Y31948D01*
X160771Y32047D01*
X160771Y32066D01*
X160776Y32086D01*
X160768Y32189D01*
X160765Y32292D01*
X160758Y32311D01*
X160757Y32331D01*
X160716Y32426D01*
X160681Y32523D01*
X160668Y32539D01*
X160660Y32557D01*
X160555Y32688D01*
X159975Y33268D01*
X159975Y40532D01*
X160868Y41425D01*
X175547Y41425D01*
X175581Y41430D01*
X175584Y41431D01*
X175619Y41437D01*
X175692Y41439D01*
X175739Y41456D01*
X175789Y41464D01*
X175854Y41499D01*
X175922Y41524D01*
X175962Y41556D01*
X176007Y41580D01*
X176057Y41632D01*
X176114Y41678D01*
X176141Y41721D01*
X176176Y41758D01*
X176207Y41824D01*
X176246Y41886D01*
X176258Y41935D01*
X176280Y41981D01*
X176284Y42023D01*
X176285Y42024D01*
X176288Y42056D01*
X176305Y42124D01*
X176301Y42173D01*
X176303Y42191D01*
X176303Y42193D01*
X176307Y42225D01*
X176303Y42242D01*
X176303Y44665D01*
X176289Y44756D01*
X176281Y44846D01*
X176269Y44876D01*
X176264Y44908D01*
X176221Y44989D01*
X176185Y45073D01*
X176159Y45105D01*
X176148Y45126D01*
X176125Y45148D01*
X176080Y45204D01*
X171978Y49306D01*
X169671Y51613D01*
X169671Y52714D01*
X169668Y52734D01*
X169670Y52753D01*
X169648Y52855D01*
X169632Y52957D01*
X169622Y52974D01*
X169618Y52994D01*
X169565Y53083D01*
X169516Y53174D01*
X169502Y53188D01*
X169492Y53205D01*
X169413Y53272D01*
X169338Y53344D01*
X169320Y53352D01*
X169305Y53365D01*
X169209Y53404D01*
X169115Y53447D01*
X169095Y53449D01*
X169077Y53457D01*
X168910Y53475D01*
X166868Y53475D01*
X165975Y54368D01*
X165975Y59944D01*
X165972Y59964D01*
X165974Y59983D01*
X165952Y60085D01*
X165936Y60187D01*
X165926Y60204D01*
X165922Y60224D01*
X165869Y60313D01*
X165820Y60404D01*
X165806Y60418D01*
X165796Y60435D01*
X165717Y60502D01*
X165642Y60574D01*
X165624Y60582D01*
X165609Y60595D01*
X165513Y60634D01*
X165419Y60677D01*
X165399Y60679D01*
X165381Y60687D01*
X165214Y60705D01*
X149403Y60705D01*
X148080Y62028D01*
X148022Y62070D01*
X147970Y62119D01*
X147923Y62141D01*
X147881Y62171D01*
X147812Y62192D01*
X147747Y62223D01*
X147695Y62228D01*
X147645Y62244D01*
X147574Y62242D01*
X147503Y62250D01*
X147452Y62239D01*
X147400Y62237D01*
X147361Y62223D01*
X139223Y62223D01*
X139223Y70342D01*
X139231Y70408D01*
X139248Y70478D01*
X139244Y70530D01*
X139250Y70581D01*
X139234Y70652D01*
X139229Y70723D01*
X139209Y70771D01*
X139197Y70822D01*
X139161Y70883D01*
X139133Y70949D01*
X139088Y71005D01*
X139071Y71033D01*
X139054Y71048D01*
X139028Y71080D01*
X138450Y71658D01*
X138376Y71712D01*
X138306Y71771D01*
X138276Y71783D01*
X138250Y71802D01*
X138163Y71829D01*
X138078Y71863D01*
X138037Y71867D01*
X138015Y71874D01*
X137983Y71873D01*
X137911Y71881D01*
X108215Y71881D01*
X108144Y71870D01*
X108072Y71868D01*
X108023Y71850D01*
X107972Y71842D01*
X107909Y71808D01*
X107841Y71783D01*
X107800Y71751D01*
X107754Y71726D01*
X107705Y71675D01*
X107649Y71630D01*
X107621Y71586D01*
X107585Y71548D01*
X107555Y71483D01*
X107516Y71423D01*
X107503Y71372D01*
X107481Y71325D01*
X107473Y71254D01*
X107456Y71184D01*
X107460Y71132D01*
X107454Y71081D01*
X107470Y71010D01*
X107475Y70939D01*
X107495Y70891D01*
X107507Y70840D01*
X107543Y70779D01*
X107571Y70713D01*
X107616Y70657D01*
X107633Y70629D01*
X107651Y70614D01*
X107676Y70582D01*
X109486Y68772D01*
X109581Y68704D01*
X109674Y68634D01*
X109680Y68632D01*
X109686Y68629D01*
X109797Y68594D01*
X109908Y68558D01*
X109915Y68558D01*
X109921Y68556D01*
X110037Y68559D01*
X110154Y68560D01*
X110162Y68563D01*
X110167Y68563D01*
X110184Y68569D01*
X110315Y68607D01*
X110696Y68765D01*
X113904Y68765D01*
X116868Y67537D01*
X119137Y65268D01*
X120365Y62304D01*
X120365Y59096D01*
X120207Y58715D01*
X120180Y58601D01*
X120152Y58488D01*
X120152Y58482D01*
X120151Y58476D01*
X120162Y58359D01*
X120171Y58243D01*
X120173Y58237D01*
X120174Y58231D01*
X120222Y58124D01*
X120267Y58017D01*
X120272Y58011D01*
X120274Y58006D01*
X120287Y57993D01*
X120372Y57886D01*
X154920Y23338D01*
X154994Y23285D01*
X155064Y23225D01*
X155094Y23213D01*
X155120Y23194D01*
X155207Y23167D01*
X155292Y23133D01*
X155333Y23129D01*
X155355Y23122D01*
X155387Y23123D01*
X155459Y23115D01*
X159214Y23115D01*
X159234Y23118D01*
G37*
G36*
X389789Y190732D02*
X389789Y190732D01*
X389892Y190735D01*
X389911Y190742D01*
X389931Y190743D01*
X390026Y190784D01*
X390123Y190819D01*
X390139Y190832D01*
X390157Y190840D01*
X390288Y190945D01*
X390868Y191525D01*
X392430Y191525D01*
X392450Y191528D01*
X392469Y191526D01*
X392571Y191548D01*
X392673Y191564D01*
X392690Y191574D01*
X392710Y191578D01*
X392799Y191631D01*
X392890Y191680D01*
X392904Y191694D01*
X392921Y191704D01*
X392988Y191783D01*
X393060Y191858D01*
X393068Y191876D01*
X393081Y191891D01*
X393120Y191987D01*
X393163Y192081D01*
X393165Y192101D01*
X393173Y192119D01*
X393191Y192286D01*
X393191Y202641D01*
X396210Y205660D01*
X396252Y205718D01*
X396301Y205770D01*
X396323Y205817D01*
X396353Y205859D01*
X396374Y205928D01*
X396405Y205993D01*
X396410Y206045D01*
X396426Y206095D01*
X396424Y206166D01*
X396432Y206237D01*
X396421Y206288D01*
X396419Y206340D01*
X396395Y206408D01*
X396379Y206478D01*
X396353Y206523D01*
X396335Y206571D01*
X396290Y206627D01*
X396253Y206689D01*
X396214Y206723D01*
X396181Y206763D01*
X396121Y206802D01*
X396066Y206849D01*
X396018Y206868D01*
X395974Y206896D01*
X395905Y206914D01*
X395838Y206941D01*
X395767Y206949D01*
X395736Y206957D01*
X395712Y206955D01*
X395671Y206959D01*
X395023Y206959D01*
X395023Y214238D01*
X395020Y214258D01*
X395022Y214277D01*
X395000Y214379D01*
X394983Y214481D01*
X394974Y214498D01*
X394970Y214518D01*
X394917Y214607D01*
X394868Y214698D01*
X394854Y214712D01*
X394844Y214729D01*
X394765Y214796D01*
X394690Y214867D01*
X394672Y214876D01*
X394657Y214889D01*
X394561Y214928D01*
X394467Y214971D01*
X394447Y214973D01*
X394429Y214981D01*
X394262Y214999D01*
X393499Y214999D01*
X393499Y215001D01*
X394262Y215001D01*
X394282Y215004D01*
X394301Y215002D01*
X394403Y215024D01*
X394505Y215041D01*
X394522Y215050D01*
X394542Y215054D01*
X394631Y215107D01*
X394722Y215156D01*
X394736Y215170D01*
X394753Y215180D01*
X394820Y215259D01*
X394891Y215334D01*
X394900Y215352D01*
X394913Y215367D01*
X394952Y215463D01*
X394995Y215557D01*
X394997Y215577D01*
X395005Y215595D01*
X395023Y215762D01*
X395023Y223041D01*
X398018Y223041D01*
X398038Y223044D01*
X398057Y223042D01*
X398159Y223064D01*
X398261Y223080D01*
X398278Y223090D01*
X398298Y223094D01*
X398387Y223147D01*
X398478Y223196D01*
X398492Y223210D01*
X398509Y223220D01*
X398576Y223299D01*
X398648Y223374D01*
X398656Y223392D01*
X398669Y223407D01*
X398708Y223503D01*
X398751Y223597D01*
X398753Y223617D01*
X398761Y223635D01*
X398779Y223802D01*
X398779Y237714D01*
X398776Y237734D01*
X398778Y237753D01*
X398756Y237855D01*
X398740Y237957D01*
X398730Y237974D01*
X398726Y237994D01*
X398673Y238083D01*
X398624Y238174D01*
X398610Y238188D01*
X398600Y238205D01*
X398521Y238272D01*
X398446Y238344D01*
X398428Y238352D01*
X398413Y238365D01*
X398317Y238404D01*
X398223Y238447D01*
X398203Y238449D01*
X398185Y238457D01*
X398018Y238475D01*
X390868Y238475D01*
X390288Y239055D01*
X390272Y239067D01*
X390260Y239083D01*
X390172Y239139D01*
X390089Y239199D01*
X390070Y239205D01*
X390053Y239216D01*
X389952Y239241D01*
X389853Y239271D01*
X389834Y239271D01*
X389814Y239276D01*
X389711Y239268D01*
X389608Y239265D01*
X389589Y239258D01*
X389569Y239257D01*
X389474Y239216D01*
X389377Y239181D01*
X389361Y239168D01*
X389343Y239160D01*
X389212Y239055D01*
X388632Y238475D01*
X381508Y238475D01*
X381488Y238472D01*
X381469Y238474D01*
X381367Y238452D01*
X381265Y238436D01*
X381248Y238426D01*
X381228Y238422D01*
X381139Y238369D01*
X381048Y238320D01*
X381034Y238306D01*
X381017Y238296D01*
X380950Y238217D01*
X380878Y238142D01*
X380870Y238124D01*
X380857Y238109D01*
X380818Y238013D01*
X380775Y237919D01*
X380773Y237899D01*
X380765Y237881D01*
X380747Y237714D01*
X380747Y222786D01*
X380750Y222766D01*
X380748Y222747D01*
X380770Y222645D01*
X380786Y222543D01*
X380796Y222526D01*
X380800Y222506D01*
X380853Y222417D01*
X380902Y222326D01*
X380916Y222312D01*
X380926Y222295D01*
X381005Y222228D01*
X381080Y222156D01*
X381098Y222148D01*
X381113Y222135D01*
X381209Y222096D01*
X381303Y222053D01*
X381323Y222051D01*
X381341Y222043D01*
X381508Y222025D01*
X382132Y222025D01*
X383025Y221132D01*
X383025Y208868D01*
X382132Y207975D01*
X379725Y207975D01*
X379655Y207964D01*
X379583Y207962D01*
X379534Y207944D01*
X379483Y207936D01*
X379419Y207902D01*
X379352Y207877D01*
X379311Y207845D01*
X379265Y207820D01*
X379216Y207768D01*
X379160Y207724D01*
X379132Y207680D01*
X379096Y207642D01*
X379066Y207577D01*
X379027Y207517D01*
X379014Y207466D01*
X378992Y207419D01*
X378984Y207348D01*
X378967Y207278D01*
X378971Y207226D01*
X378965Y207175D01*
X378980Y207104D01*
X378986Y207033D01*
X379006Y206985D01*
X379017Y206934D01*
X379054Y206873D01*
X379082Y206807D01*
X379127Y206751D01*
X379144Y206723D01*
X379161Y206708D01*
X379187Y206676D01*
X379703Y206160D01*
X379703Y201764D01*
X376594Y198655D01*
X372198Y198655D01*
X370870Y199983D01*
X370812Y200025D01*
X370760Y200074D01*
X370713Y200096D01*
X370671Y200126D01*
X370602Y200148D01*
X370537Y200178D01*
X370485Y200183D01*
X370435Y200199D01*
X370364Y200197D01*
X370293Y200205D01*
X370242Y200194D01*
X370190Y200192D01*
X370122Y200168D01*
X370052Y200153D01*
X370007Y200126D01*
X369959Y200108D01*
X369903Y200063D01*
X369841Y200026D01*
X369807Y199987D01*
X369767Y199954D01*
X369728Y199894D01*
X369681Y199839D01*
X369662Y199791D01*
X369634Y199747D01*
X369616Y199678D01*
X369589Y199611D01*
X369581Y199540D01*
X369573Y199509D01*
X369575Y199486D01*
X369571Y199445D01*
X369571Y194575D01*
X369585Y194484D01*
X369593Y194394D01*
X369605Y194364D01*
X369610Y194332D01*
X369653Y194251D01*
X369689Y194167D01*
X369715Y194135D01*
X369726Y194114D01*
X369749Y194092D01*
X369794Y194036D01*
X372082Y191748D01*
X372156Y191695D01*
X372226Y191635D01*
X372256Y191623D01*
X372282Y191604D01*
X372369Y191577D01*
X372454Y191543D01*
X372495Y191539D01*
X372517Y191532D01*
X372549Y191533D01*
X372621Y191525D01*
X379132Y191525D01*
X379712Y190945D01*
X379728Y190933D01*
X379740Y190917D01*
X379828Y190861D01*
X379911Y190801D01*
X379930Y190795D01*
X379947Y190784D01*
X380048Y190759D01*
X380147Y190729D01*
X380166Y190729D01*
X380186Y190724D01*
X380289Y190732D01*
X380392Y190735D01*
X380411Y190742D01*
X380431Y190743D01*
X380526Y190784D01*
X380623Y190819D01*
X380639Y190832D01*
X380657Y190840D01*
X380788Y190945D01*
X381368Y191525D01*
X388632Y191525D01*
X389212Y190945D01*
X389228Y190933D01*
X389240Y190917D01*
X389328Y190861D01*
X389411Y190801D01*
X389430Y190795D01*
X389447Y190784D01*
X389548Y190759D01*
X389647Y190729D01*
X389666Y190729D01*
X389686Y190724D01*
X389789Y190732D01*
G37*
%LPC*%
G36*
X43068Y273175D02*
X43068Y273175D01*
X42175Y274068D01*
X42175Y293332D01*
X43068Y294225D01*
X62332Y294225D01*
X63225Y293332D01*
X63225Y274068D01*
X62332Y273175D01*
X43068Y273175D01*
G37*
%LPD*%
%LPC*%
G36*
X17668Y134475D02*
X17668Y134475D01*
X16775Y135368D01*
X16775Y154632D01*
X17668Y155525D01*
X36932Y155525D01*
X37825Y154632D01*
X37825Y135368D01*
X36932Y134475D01*
X17668Y134475D01*
G37*
%LPD*%
%LPC*%
G36*
X17668Y64475D02*
X17668Y64475D01*
X16775Y65368D01*
X16775Y84632D01*
X17668Y85525D01*
X36932Y85525D01*
X37825Y84632D01*
X37825Y65368D01*
X36932Y64475D01*
X17668Y64475D01*
G37*
%LPD*%
%LPC*%
G36*
X17668Y204475D02*
X17668Y204475D01*
X16775Y205368D01*
X16775Y224632D01*
X17668Y225525D01*
X36932Y225525D01*
X37825Y224632D01*
X37825Y205368D01*
X36932Y204475D01*
X17668Y204475D01*
G37*
%LPD*%
G36*
X314466Y267259D02*
X314466Y267259D01*
X314491Y267256D01*
X314586Y267277D01*
X314683Y267291D01*
X314706Y267303D01*
X314732Y267309D01*
X314816Y267359D01*
X314902Y267403D01*
X314920Y267421D01*
X314943Y267435D01*
X315006Y267509D01*
X315074Y267578D01*
X315090Y267607D01*
X315103Y267622D01*
X315115Y267652D01*
X315155Y267725D01*
X315463Y268468D01*
X317732Y270737D01*
X320696Y271965D01*
X323904Y271965D01*
X326868Y270737D01*
X327630Y269975D01*
X327688Y269934D01*
X327740Y269884D01*
X327787Y269862D01*
X327829Y269832D01*
X327898Y269811D01*
X327963Y269781D01*
X328015Y269775D01*
X328065Y269760D01*
X328136Y269761D01*
X328207Y269754D01*
X328258Y269765D01*
X328310Y269766D01*
X328378Y269791D01*
X328448Y269806D01*
X328493Y269833D01*
X328541Y269850D01*
X328597Y269895D01*
X328659Y269932D01*
X328693Y269972D01*
X328733Y270004D01*
X328772Y270064D01*
X328819Y270119D01*
X328838Y270167D01*
X328866Y270211D01*
X328884Y270281D01*
X328911Y270347D01*
X328919Y270418D01*
X328927Y270450D01*
X328925Y270473D01*
X328929Y270514D01*
X328929Y281384D01*
X328910Y281500D01*
X328891Y281621D01*
X328890Y281624D01*
X328890Y281627D01*
X328834Y281731D01*
X328778Y281839D01*
X328776Y281841D01*
X328774Y281844D01*
X328688Y281926D01*
X328601Y282010D01*
X328598Y282011D01*
X328596Y282014D01*
X328487Y282064D01*
X328379Y282115D01*
X328376Y282116D01*
X328373Y282117D01*
X328255Y282130D01*
X328135Y282145D01*
X328132Y282144D01*
X328129Y282144D01*
X328012Y282119D01*
X327894Y282094D01*
X327891Y282093D01*
X327888Y282092D01*
X327879Y282086D01*
X327745Y282017D01*
X326601Y281253D01*
X324949Y280568D01*
X323823Y280344D01*
X323823Y288538D01*
X323820Y288558D01*
X323822Y288577D01*
X323800Y288678D01*
X323783Y288781D01*
X323774Y288798D01*
X323770Y288818D01*
X323717Y288907D01*
X323668Y288998D01*
X323654Y289012D01*
X323644Y289029D01*
X323565Y289096D01*
X323490Y289167D01*
X323472Y289176D01*
X323457Y289189D01*
X323361Y289227D01*
X323267Y289271D01*
X323247Y289273D01*
X323229Y289281D01*
X323062Y289299D01*
X322299Y289299D01*
X322299Y290062D01*
X322296Y290082D01*
X322298Y290101D01*
X322276Y290203D01*
X322259Y290305D01*
X322250Y290322D01*
X322246Y290342D01*
X322193Y290431D01*
X322144Y290522D01*
X322130Y290536D01*
X322120Y290553D01*
X322041Y290620D01*
X321966Y290691D01*
X321948Y290700D01*
X321933Y290713D01*
X321837Y290752D01*
X321743Y290795D01*
X321723Y290797D01*
X321705Y290805D01*
X321538Y290823D01*
X313344Y290823D01*
X313568Y291949D01*
X314253Y293601D01*
X315247Y295089D01*
X316511Y296353D01*
X317181Y296801D01*
X317198Y296817D01*
X317218Y296828D01*
X317288Y296900D01*
X317361Y296969D01*
X317372Y296989D01*
X317388Y297006D01*
X317430Y297097D01*
X317478Y297185D01*
X317482Y297208D01*
X317491Y297229D01*
X317503Y297329D01*
X317520Y297428D01*
X317516Y297451D01*
X317519Y297473D01*
X317497Y297572D01*
X317482Y297671D01*
X317471Y297691D01*
X317466Y297714D01*
X317415Y297800D01*
X317369Y297889D01*
X317352Y297905D01*
X317340Y297925D01*
X317264Y297990D01*
X317192Y298060D01*
X317171Y298070D01*
X317153Y298085D01*
X317060Y298122D01*
X316969Y298165D01*
X316946Y298168D01*
X316925Y298177D01*
X316758Y298195D01*
X301001Y298195D01*
X300930Y298184D01*
X300858Y298182D01*
X300809Y298164D01*
X300758Y298156D01*
X300695Y298122D01*
X300627Y298097D01*
X300586Y298065D01*
X300540Y298040D01*
X300491Y297989D01*
X300435Y297944D01*
X300407Y297900D01*
X300371Y297862D01*
X300341Y297797D01*
X300302Y297737D01*
X300289Y297686D01*
X300267Y297639D01*
X300259Y297568D01*
X300242Y297498D01*
X300246Y297446D01*
X300240Y297395D01*
X300256Y297324D01*
X300261Y297253D01*
X300281Y297205D01*
X300293Y297154D01*
X300329Y297093D01*
X300357Y297027D01*
X300402Y296971D01*
X300419Y296943D01*
X300437Y296928D01*
X300462Y296896D01*
X312886Y284472D01*
X312965Y284416D01*
X313040Y284354D01*
X313064Y284344D01*
X313085Y284329D01*
X313178Y284300D01*
X313269Y284265D01*
X313295Y284264D01*
X313320Y284257D01*
X313418Y284259D01*
X313515Y284255D01*
X313540Y284262D01*
X313566Y284263D01*
X313658Y284296D01*
X313751Y284323D01*
X313773Y284338D01*
X313797Y284347D01*
X313873Y284408D01*
X313953Y284464D01*
X313969Y284485D01*
X313989Y284501D01*
X314042Y284583D01*
X314100Y284661D01*
X314108Y284686D01*
X314122Y284708D01*
X314146Y284802D01*
X314176Y284895D01*
X314176Y284921D01*
X314182Y284947D01*
X314175Y285043D01*
X314174Y285141D01*
X314165Y285172D01*
X314163Y285192D01*
X314150Y285222D01*
X314127Y285302D01*
X313568Y286651D01*
X313344Y287777D01*
X320777Y287777D01*
X320777Y280344D01*
X319651Y280568D01*
X317999Y281253D01*
X317669Y281473D01*
X317559Y281523D01*
X317451Y281573D01*
X317448Y281574D01*
X317445Y281575D01*
X317326Y281587D01*
X317207Y281600D01*
X317203Y281600D01*
X317200Y281600D01*
X317083Y281574D01*
X316966Y281548D01*
X316964Y281547D01*
X316960Y281546D01*
X316858Y281484D01*
X316755Y281422D01*
X316753Y281420D01*
X316750Y281418D01*
X316674Y281327D01*
X316595Y281235D01*
X316594Y281232D01*
X316592Y281230D01*
X316548Y281119D01*
X316503Y281007D01*
X316503Y281003D01*
X316502Y281001D01*
X316501Y280990D01*
X316485Y280840D01*
X316485Y272339D01*
X313914Y269768D01*
X313861Y269694D01*
X313801Y269624D01*
X313789Y269594D01*
X313770Y269568D01*
X313743Y269481D01*
X313709Y269396D01*
X313705Y269355D01*
X313698Y269333D01*
X313699Y269301D01*
X313691Y269229D01*
X313691Y268017D01*
X313706Y267920D01*
X313716Y267823D01*
X313726Y267799D01*
X313730Y267774D01*
X313776Y267688D01*
X313816Y267599D01*
X313833Y267579D01*
X313846Y267556D01*
X313916Y267489D01*
X313982Y267418D01*
X314005Y267405D01*
X314024Y267387D01*
X314112Y267346D01*
X314198Y267299D01*
X314223Y267294D01*
X314247Y267283D01*
X314344Y267273D01*
X314440Y267255D01*
X314466Y267259D01*
G37*
%LPC*%
G36*
X54223Y146523D02*
X54223Y146523D01*
X54223Y156541D01*
X62034Y156541D01*
X62681Y156368D01*
X63260Y156033D01*
X63733Y155560D01*
X64068Y154981D01*
X64241Y154334D01*
X64241Y146523D01*
X54223Y146523D01*
G37*
%LPD*%
%LPC*%
G36*
X54223Y76523D02*
X54223Y76523D01*
X54223Y86541D01*
X62034Y86541D01*
X62681Y86368D01*
X63260Y86033D01*
X63733Y85560D01*
X64068Y84981D01*
X64241Y84334D01*
X64241Y76523D01*
X54223Y76523D01*
G37*
%LPD*%
%LPC*%
G36*
X54223Y216523D02*
X54223Y216523D01*
X54223Y226541D01*
X62034Y226541D01*
X62681Y226368D01*
X63260Y226033D01*
X63733Y225560D01*
X64068Y224981D01*
X64241Y224334D01*
X64241Y216523D01*
X54223Y216523D01*
G37*
%LPD*%
%LPC*%
G36*
X41159Y146523D02*
X41159Y146523D01*
X41159Y154334D01*
X41332Y154981D01*
X41667Y155560D01*
X42140Y156033D01*
X42719Y156368D01*
X43366Y156541D01*
X51177Y156541D01*
X51177Y146523D01*
X41159Y146523D01*
G37*
%LPD*%
%LPC*%
G36*
X41159Y76523D02*
X41159Y76523D01*
X41159Y84334D01*
X41332Y84981D01*
X41667Y85560D01*
X42140Y86033D01*
X42719Y86368D01*
X43366Y86541D01*
X51177Y86541D01*
X51177Y76523D01*
X41159Y76523D01*
G37*
%LPD*%
%LPC*%
G36*
X41159Y216523D02*
X41159Y216523D01*
X41159Y224334D01*
X41332Y224981D01*
X41667Y225560D01*
X42140Y226033D01*
X42719Y226368D01*
X43366Y226541D01*
X51177Y226541D01*
X51177Y216523D01*
X41159Y216523D01*
G37*
%LPD*%
%LPC*%
G36*
X54223Y63459D02*
X54223Y63459D01*
X54223Y73477D01*
X64241Y73477D01*
X64241Y65666D01*
X64068Y65019D01*
X63733Y64440D01*
X63260Y63967D01*
X62681Y63632D01*
X62034Y63459D01*
X54223Y63459D01*
G37*
%LPD*%
%LPC*%
G36*
X54223Y133459D02*
X54223Y133459D01*
X54223Y143477D01*
X64241Y143477D01*
X64241Y135666D01*
X64068Y135019D01*
X63733Y134440D01*
X63260Y133967D01*
X62681Y133632D01*
X62034Y133459D01*
X54223Y133459D01*
G37*
%LPD*%
%LPC*%
G36*
X54223Y203459D02*
X54223Y203459D01*
X54223Y213477D01*
X64241Y213477D01*
X64241Y205666D01*
X64068Y205019D01*
X63733Y204440D01*
X63260Y203967D01*
X62681Y203632D01*
X62034Y203459D01*
X54223Y203459D01*
G37*
%LPD*%
%LPC*%
G36*
X43366Y63459D02*
X43366Y63459D01*
X42719Y63632D01*
X42140Y63967D01*
X41667Y64440D01*
X41332Y65019D01*
X41159Y65666D01*
X41159Y73477D01*
X51177Y73477D01*
X51177Y63459D01*
X43366Y63459D01*
G37*
%LPD*%
%LPC*%
G36*
X43366Y133459D02*
X43366Y133459D01*
X42719Y133632D01*
X42140Y133967D01*
X41667Y134440D01*
X41332Y135019D01*
X41159Y135666D01*
X41159Y143477D01*
X51177Y143477D01*
X51177Y133459D01*
X43366Y133459D01*
G37*
%LPD*%
%LPC*%
G36*
X43366Y203459D02*
X43366Y203459D01*
X42719Y203632D01*
X42140Y203967D01*
X41667Y204440D01*
X41332Y205019D01*
X41159Y205666D01*
X41159Y213477D01*
X51177Y213477D01*
X51177Y203459D01*
X43366Y203459D01*
G37*
%LPD*%
%LPC*%
G36*
X446523Y166523D02*
X446523Y166523D01*
X446523Y174581D01*
X452374Y174581D01*
X453021Y174408D01*
X453600Y174073D01*
X454073Y173600D01*
X454408Y173021D01*
X454581Y172374D01*
X454581Y166523D01*
X446523Y166523D01*
G37*
%LPD*%
%LPC*%
G36*
X446523Y251523D02*
X446523Y251523D01*
X446523Y259581D01*
X452374Y259581D01*
X453021Y259408D01*
X453600Y259073D01*
X454073Y258600D01*
X454408Y258021D01*
X454581Y257374D01*
X454581Y251523D01*
X446523Y251523D01*
G37*
%LPD*%
%LPC*%
G36*
X446523Y81523D02*
X446523Y81523D01*
X446523Y89581D01*
X452374Y89581D01*
X453021Y89408D01*
X453600Y89073D01*
X454073Y88600D01*
X454408Y88021D01*
X454581Y87374D01*
X454581Y81523D01*
X446523Y81523D01*
G37*
%LPD*%
%LPC*%
G36*
X435419Y251523D02*
X435419Y251523D01*
X435419Y257374D01*
X435592Y258021D01*
X435927Y258600D01*
X436400Y259073D01*
X436979Y259408D01*
X437626Y259581D01*
X443477Y259581D01*
X443477Y251523D01*
X435419Y251523D01*
G37*
%LPD*%
%LPC*%
G36*
X435419Y81523D02*
X435419Y81523D01*
X435419Y87374D01*
X435592Y88021D01*
X435927Y88600D01*
X436400Y89073D01*
X436979Y89408D01*
X437626Y89581D01*
X443477Y89581D01*
X443477Y81523D01*
X435419Y81523D01*
G37*
%LPD*%
%LPC*%
G36*
X435419Y166523D02*
X435419Y166523D01*
X435419Y172374D01*
X435592Y173021D01*
X435927Y173600D01*
X436400Y174073D01*
X436979Y174408D01*
X437626Y174581D01*
X443477Y174581D01*
X443477Y166523D01*
X435419Y166523D01*
G37*
%LPD*%
%LPC*%
G36*
X446523Y70419D02*
X446523Y70419D01*
X446523Y78477D01*
X454581Y78477D01*
X454581Y72626D01*
X454408Y71979D01*
X454073Y71400D01*
X453600Y70927D01*
X453021Y70592D01*
X452374Y70419D01*
X446523Y70419D01*
G37*
%LPD*%
%LPC*%
G36*
X446523Y240419D02*
X446523Y240419D01*
X446523Y248477D01*
X454581Y248477D01*
X454581Y242626D01*
X454408Y241979D01*
X454073Y241400D01*
X453600Y240927D01*
X453021Y240592D01*
X452374Y240419D01*
X446523Y240419D01*
G37*
%LPD*%
%LPC*%
G36*
X446523Y155419D02*
X446523Y155419D01*
X446523Y163477D01*
X454581Y163477D01*
X454581Y157626D01*
X454408Y156979D01*
X454073Y156400D01*
X453600Y155927D01*
X453021Y155592D01*
X452374Y155419D01*
X446523Y155419D01*
G37*
%LPD*%
%LPC*%
G36*
X437626Y70419D02*
X437626Y70419D01*
X436979Y70592D01*
X436400Y70927D01*
X435927Y71400D01*
X435592Y71979D01*
X435419Y72626D01*
X435419Y78477D01*
X443477Y78477D01*
X443477Y70419D01*
X437626Y70419D01*
G37*
%LPD*%
%LPC*%
G36*
X437626Y240419D02*
X437626Y240419D01*
X436979Y240592D01*
X436400Y240927D01*
X435927Y241400D01*
X435592Y241979D01*
X435419Y242626D01*
X435419Y248477D01*
X443477Y248477D01*
X443477Y240419D01*
X437626Y240419D01*
G37*
%LPD*%
%LPC*%
G36*
X437626Y155419D02*
X437626Y155419D01*
X436979Y155592D01*
X436400Y155927D01*
X435927Y156400D01*
X435592Y156979D01*
X435419Y157626D01*
X435419Y163477D01*
X443477Y163477D01*
X443477Y155419D01*
X437626Y155419D01*
G37*
%LPD*%
%LPC*%
G36*
X418523Y35023D02*
X418523Y35023D01*
X418523Y43465D01*
X419361Y43333D01*
X420870Y42842D01*
X422283Y42122D01*
X423567Y41189D01*
X424689Y40067D01*
X425622Y38783D01*
X426342Y37370D01*
X426833Y35861D01*
X426965Y35023D01*
X418523Y35023D01*
G37*
%LPD*%
%LPC*%
G36*
X349223Y62223D02*
X349223Y62223D01*
X349223Y69656D01*
X350349Y69432D01*
X351918Y68782D01*
X351981Y68767D01*
X352017Y68737D01*
X353489Y67753D01*
X354753Y66489D01*
X355747Y65001D01*
X356432Y63349D01*
X356656Y62223D01*
X349223Y62223D01*
G37*
%LPD*%
%LPC*%
G36*
X244223Y62223D02*
X244223Y62223D01*
X244223Y69656D01*
X245349Y69432D01*
X247001Y68747D01*
X248489Y67753D01*
X249753Y66489D01*
X250747Y65001D01*
X251432Y63349D01*
X251656Y62223D01*
X244223Y62223D01*
G37*
%LPD*%
%LPC*%
G36*
X113823Y290823D02*
X113823Y290823D01*
X113823Y298256D01*
X114949Y298032D01*
X116601Y297347D01*
X118089Y296353D01*
X119353Y295089D01*
X120347Y293601D01*
X121032Y291949D01*
X121256Y290823D01*
X113823Y290823D01*
G37*
%LPD*%
%LPC*%
G36*
X218823Y290823D02*
X218823Y290823D01*
X218823Y298256D01*
X219949Y298032D01*
X221601Y297347D01*
X223089Y296353D01*
X224353Y295089D01*
X225347Y293601D01*
X226032Y291949D01*
X226256Y290823D01*
X218823Y290823D01*
G37*
%LPD*%
%LPC*%
G36*
X218823Y287777D02*
X218823Y287777D01*
X226256Y287777D01*
X226032Y286651D01*
X225347Y284999D01*
X224353Y283511D01*
X223089Y282247D01*
X221601Y281253D01*
X219949Y280568D01*
X218823Y280344D01*
X218823Y287777D01*
G37*
%LPD*%
%LPC*%
G36*
X103344Y290823D02*
X103344Y290823D01*
X103568Y291949D01*
X104253Y293601D01*
X105247Y295089D01*
X106511Y296353D01*
X107999Y297347D01*
X109651Y298032D01*
X110777Y298256D01*
X110777Y290823D01*
X103344Y290823D01*
G37*
%LPD*%
%LPC*%
G36*
X208344Y290823D02*
X208344Y290823D01*
X208568Y291949D01*
X209253Y293601D01*
X210247Y295089D01*
X211511Y296353D01*
X212999Y297347D01*
X214651Y298032D01*
X215777Y298256D01*
X215777Y290823D01*
X208344Y290823D01*
G37*
%LPD*%
%LPC*%
G36*
X128744Y62223D02*
X128744Y62223D01*
X128968Y63349D01*
X129653Y65001D01*
X130647Y66489D01*
X131911Y67753D01*
X133399Y68747D01*
X135051Y69432D01*
X136177Y69656D01*
X136177Y62223D01*
X128744Y62223D01*
G37*
%LPD*%
%LPC*%
G36*
X338744Y62223D02*
X338744Y62223D01*
X338968Y63349D01*
X339653Y65001D01*
X340647Y66489D01*
X341911Y67753D01*
X343399Y68747D01*
X345051Y69432D01*
X346177Y69656D01*
X346177Y62223D01*
X338744Y62223D01*
G37*
%LPD*%
%LPC*%
G36*
X139223Y59177D02*
X139223Y59177D01*
X146656Y59177D01*
X146432Y58051D01*
X145747Y56399D01*
X144753Y54911D01*
X143489Y53647D01*
X142001Y52653D01*
X140349Y51968D01*
X139223Y51744D01*
X139223Y59177D01*
G37*
%LPD*%
%LPC*%
G36*
X244223Y59177D02*
X244223Y59177D01*
X251656Y59177D01*
X251432Y58051D01*
X250747Y56399D01*
X249753Y54911D01*
X248489Y53647D01*
X247001Y52653D01*
X245349Y51968D01*
X244223Y51744D01*
X244223Y59177D01*
G37*
%LPD*%
%LPC*%
G36*
X349223Y59177D02*
X349223Y59177D01*
X356656Y59177D01*
X356432Y58051D01*
X355747Y56399D01*
X354753Y54911D01*
X353489Y53647D01*
X352001Y52653D01*
X350349Y51968D01*
X349223Y51744D01*
X349223Y59177D01*
G37*
%LPD*%
%LPC*%
G36*
X214651Y280568D02*
X214651Y280568D01*
X212999Y281253D01*
X211511Y282247D01*
X210247Y283511D01*
X209253Y284999D01*
X208568Y286651D01*
X208344Y287777D01*
X215777Y287777D01*
X215777Y280344D01*
X214651Y280568D01*
G37*
%LPD*%
%LPC*%
G36*
X135051Y51968D02*
X135051Y51968D01*
X133399Y52653D01*
X131911Y53647D01*
X130647Y54911D01*
X129653Y56399D01*
X128968Y58051D01*
X128744Y59177D01*
X136177Y59177D01*
X136177Y51744D01*
X135051Y51968D01*
G37*
%LPD*%
%LPC*%
G36*
X345051Y51968D02*
X345051Y51968D01*
X343399Y52653D01*
X341911Y53647D01*
X340647Y54911D01*
X339653Y56399D01*
X338968Y58051D01*
X338744Y59177D01*
X346177Y59177D01*
X346177Y51744D01*
X345051Y51968D01*
G37*
%LPD*%
%LPC*%
G36*
X453023Y116523D02*
X453023Y116523D01*
X453023Y122541D01*
X457334Y122541D01*
X457981Y122368D01*
X458560Y122033D01*
X459033Y121560D01*
X459368Y120981D01*
X459541Y120334D01*
X459541Y116523D01*
X453023Y116523D01*
G37*
%LPD*%
%LPC*%
G36*
X453023Y201523D02*
X453023Y201523D01*
X453023Y207541D01*
X457334Y207541D01*
X457981Y207368D01*
X458560Y207033D01*
X459033Y206560D01*
X459368Y205981D01*
X459541Y205334D01*
X459541Y201523D01*
X453023Y201523D01*
G37*
%LPD*%
%LPC*%
G36*
X453023Y285523D02*
X453023Y285523D01*
X453023Y291541D01*
X457334Y291541D01*
X457981Y291368D01*
X458560Y291033D01*
X459033Y290560D01*
X459368Y289981D01*
X459541Y289334D01*
X459541Y285523D01*
X453023Y285523D01*
G37*
%LPD*%
%LPC*%
G36*
X326523Y18023D02*
X326523Y18023D01*
X326523Y24541D01*
X330335Y24541D01*
X330981Y24368D01*
X331560Y24033D01*
X332033Y23560D01*
X332368Y22981D01*
X332541Y22334D01*
X332541Y18023D01*
X326523Y18023D01*
G37*
%LPD*%
%LPC*%
G36*
X281523Y18023D02*
X281523Y18023D01*
X281523Y24041D01*
X285835Y24041D01*
X286481Y23868D01*
X287060Y23533D01*
X287533Y23060D01*
X287868Y22481D01*
X288041Y21834D01*
X288041Y18023D01*
X281523Y18023D01*
G37*
%LPD*%
%LPC*%
G36*
X443459Y285523D02*
X443459Y285523D01*
X443459Y289334D01*
X443632Y289981D01*
X443967Y290560D01*
X444440Y291033D01*
X445019Y291368D01*
X445666Y291541D01*
X449977Y291541D01*
X449977Y285523D01*
X443459Y285523D01*
G37*
%LPD*%
%LPC*%
G36*
X443459Y201523D02*
X443459Y201523D01*
X443459Y205334D01*
X443632Y205981D01*
X443967Y206560D01*
X444440Y207033D01*
X445019Y207368D01*
X445666Y207541D01*
X449977Y207541D01*
X449977Y201523D01*
X443459Y201523D01*
G37*
%LPD*%
%LPC*%
G36*
X190023Y116959D02*
X190023Y116959D01*
X190023Y123477D01*
X196041Y123477D01*
X196041Y119166D01*
X195868Y118519D01*
X195533Y117940D01*
X195060Y117467D01*
X194481Y117132D01*
X193834Y116959D01*
X190023Y116959D01*
G37*
%LPD*%
%LPC*%
G36*
X443459Y116523D02*
X443459Y116523D01*
X443459Y120334D01*
X443632Y120981D01*
X443967Y121560D01*
X444440Y122033D01*
X445019Y122368D01*
X445666Y122541D01*
X449977Y122541D01*
X449977Y116523D01*
X443459Y116523D01*
G37*
%LPD*%
%LPC*%
G36*
X385959Y216523D02*
X385959Y216523D01*
X385959Y220834D01*
X386132Y221481D01*
X386467Y222060D01*
X386940Y222533D01*
X387519Y222868D01*
X388166Y223041D01*
X391977Y223041D01*
X391977Y216523D01*
X385959Y216523D01*
G37*
%LPD*%
%LPC*%
G36*
X285959Y126523D02*
X285959Y126523D01*
X285959Y130834D01*
X286132Y131481D01*
X286467Y132060D01*
X286940Y132533D01*
X287519Y132868D01*
X288166Y133041D01*
X291977Y133041D01*
X291977Y126523D01*
X285959Y126523D01*
G37*
%LPD*%
%LPC*%
G36*
X317459Y18023D02*
X317459Y18023D01*
X317459Y22334D01*
X317632Y22981D01*
X317967Y23560D01*
X318440Y24033D01*
X319019Y24368D01*
X319666Y24541D01*
X323477Y24541D01*
X323477Y18023D01*
X317459Y18023D01*
G37*
%LPD*%
%LPC*%
G36*
X453023Y107459D02*
X453023Y107459D01*
X453023Y113477D01*
X459541Y113477D01*
X459541Y109665D01*
X459368Y109019D01*
X459033Y108440D01*
X458560Y107967D01*
X457981Y107632D01*
X457334Y107459D01*
X453023Y107459D01*
G37*
%LPD*%
%LPC*%
G36*
X453023Y276459D02*
X453023Y276459D01*
X453023Y282477D01*
X459541Y282477D01*
X459541Y278665D01*
X459368Y278019D01*
X459033Y277440D01*
X458560Y276967D01*
X457981Y276632D01*
X457334Y276459D01*
X453023Y276459D01*
G37*
%LPD*%
%LPC*%
G36*
X453023Y192459D02*
X453023Y192459D01*
X453023Y198477D01*
X459541Y198477D01*
X459541Y194665D01*
X459368Y194019D01*
X459033Y193440D01*
X458560Y192967D01*
X457981Y192632D01*
X457334Y192459D01*
X453023Y192459D01*
G37*
%LPD*%
%LPC*%
G36*
X445666Y107459D02*
X445666Y107459D01*
X445019Y107632D01*
X444440Y107967D01*
X443967Y108440D01*
X443632Y109019D01*
X443459Y109666D01*
X443459Y113477D01*
X449977Y113477D01*
X449977Y107459D01*
X445666Y107459D01*
G37*
%LPD*%
%LPC*%
G36*
X445666Y276459D02*
X445666Y276459D01*
X445019Y276632D01*
X444440Y276967D01*
X443967Y277440D01*
X443632Y278019D01*
X443459Y278666D01*
X443459Y282477D01*
X449977Y282477D01*
X449977Y276459D01*
X445666Y276459D01*
G37*
%LPD*%
%LPC*%
G36*
X445666Y192459D02*
X445666Y192459D01*
X445019Y192632D01*
X444440Y192967D01*
X443967Y193440D01*
X443632Y194019D01*
X443459Y194666D01*
X443459Y198477D01*
X449977Y198477D01*
X449977Y192459D01*
X445666Y192459D01*
G37*
%LPD*%
%LPC*%
G36*
X183166Y116959D02*
X183166Y116959D01*
X182519Y117132D01*
X181940Y117467D01*
X181467Y117940D01*
X181132Y118519D01*
X180959Y119166D01*
X180959Y123477D01*
X186977Y123477D01*
X186977Y116959D01*
X183166Y116959D01*
G37*
%LPD*%
%LPC*%
G36*
X288166Y116959D02*
X288166Y116959D01*
X287519Y117132D01*
X286940Y117467D01*
X286467Y117940D01*
X286132Y118519D01*
X285959Y119166D01*
X285959Y123477D01*
X291977Y123477D01*
X291977Y116959D01*
X288166Y116959D01*
G37*
%LPD*%
%LPC*%
G36*
X388166Y206959D02*
X388166Y206959D01*
X387519Y207132D01*
X386940Y207467D01*
X386467Y207940D01*
X386132Y208519D01*
X385959Y209166D01*
X385959Y213477D01*
X391977Y213477D01*
X391977Y206959D01*
X388166Y206959D01*
G37*
%LPD*%
%LPC*%
G36*
X52699Y214999D02*
X52699Y214999D01*
X52699Y215001D01*
X52701Y215001D01*
X52701Y214999D01*
X52699Y214999D01*
G37*
%LPD*%
%LPC*%
G36*
X444999Y249999D02*
X444999Y249999D01*
X444999Y250001D01*
X445001Y250001D01*
X445001Y249999D01*
X444999Y249999D01*
G37*
%LPD*%
%LPC*%
G36*
X444999Y79999D02*
X444999Y79999D01*
X444999Y80001D01*
X445001Y80001D01*
X445001Y79999D01*
X444999Y79999D01*
G37*
%LPD*%
%LPC*%
G36*
X217299Y289299D02*
X217299Y289299D01*
X217299Y289301D01*
X217301Y289301D01*
X217301Y289299D01*
X217299Y289299D01*
G37*
%LPD*%
%LPC*%
G36*
X52699Y74999D02*
X52699Y74999D01*
X52699Y75001D01*
X52701Y75001D01*
X52701Y74999D01*
X52699Y74999D01*
G37*
%LPD*%
%LPC*%
G36*
X444999Y164999D02*
X444999Y164999D01*
X444999Y165001D01*
X445001Y165001D01*
X445001Y164999D01*
X444999Y164999D01*
G37*
%LPD*%
%LPC*%
G36*
X52699Y144999D02*
X52699Y144999D01*
X52699Y145001D01*
X52701Y145001D01*
X52701Y144999D01*
X52699Y144999D01*
G37*
%LPD*%
%LPC*%
G36*
X112299Y289299D02*
X112299Y289299D01*
X112299Y289301D01*
X112301Y289301D01*
X112301Y289299D01*
X112299Y289299D01*
G37*
%LPD*%
%LPC*%
G36*
X347699Y60699D02*
X347699Y60699D01*
X347699Y60701D01*
X347701Y60701D01*
X347701Y60699D01*
X347699Y60699D01*
G37*
%LPD*%
%LPC*%
G36*
X137699Y60699D02*
X137699Y60699D01*
X137699Y60701D01*
X137701Y60701D01*
X137701Y60699D01*
X137699Y60699D01*
G37*
%LPD*%
%LPC*%
G36*
X451499Y283999D02*
X451499Y283999D01*
X451499Y284001D01*
X451501Y284001D01*
X451501Y283999D01*
X451499Y283999D01*
G37*
%LPD*%
%LPC*%
G36*
X451499Y199999D02*
X451499Y199999D01*
X451499Y200001D01*
X451501Y200001D01*
X451501Y199999D01*
X451499Y199999D01*
G37*
%LPD*%
%LPC*%
G36*
X451499Y114999D02*
X451499Y114999D01*
X451499Y115001D01*
X451501Y115001D01*
X451501Y114999D01*
X451499Y114999D01*
G37*
%LPD*%
D10*
X52700Y283700D03*
X27300Y283700D03*
D11*
X200296Y325000D02*
X213504Y325000D01*
X276496Y325000D02*
X289704Y325000D01*
X93504Y325000D02*
X80296Y325000D01*
X156496Y325000D02*
X169704Y325000D01*
D12*
X445000Y80000D03*
X470400Y80000D03*
X419600Y80000D03*
X445000Y250000D03*
X470400Y250000D03*
X419600Y250000D03*
D13*
X285000Y182500D03*
X275500Y182500D03*
X294500Y182500D03*
X285000Y157500D03*
X275500Y157500D03*
X294500Y157500D03*
X180000Y272500D03*
X170500Y272500D03*
X189500Y272500D03*
X180000Y247500D03*
X170500Y247500D03*
X189500Y247500D03*
D14*
X169000Y27400D03*
X169000Y17900D03*
X169000Y36900D03*
X194000Y27400D03*
X194000Y17900D03*
X194000Y36900D03*
D13*
X180000Y182500D03*
X170500Y182500D03*
X189500Y182500D03*
X180000Y157500D03*
X170500Y157500D03*
X189500Y157500D03*
X285000Y272500D03*
X275500Y272500D03*
X294500Y272500D03*
X285000Y247500D03*
X275500Y247500D03*
X294500Y247500D03*
D15*
X468500Y284000D03*
X451500Y284000D03*
X468500Y115000D03*
X451500Y115000D03*
D16*
X325000Y33500D03*
X325000Y16500D03*
X293500Y125000D03*
X276500Y125000D03*
X188500Y125000D03*
X171500Y125000D03*
D15*
X240000Y16500D03*
X240000Y33500D03*
X280000Y16500D03*
X280000Y33500D03*
D17*
X137700Y60700D03*
X112300Y60700D03*
X137700Y86100D03*
X112300Y86100D03*
X137700Y111500D03*
X112300Y111500D03*
X137700Y136900D03*
X112300Y136900D03*
X137700Y162300D03*
X112300Y162300D03*
X137700Y187700D03*
X112300Y187700D03*
X137700Y213100D03*
X112300Y213100D03*
X137700Y238500D03*
X112300Y238500D03*
X137700Y263900D03*
X112300Y263900D03*
X137700Y289300D03*
X112300Y289300D03*
X347700Y60700D03*
X322300Y60700D03*
X347700Y86100D03*
X322300Y86100D03*
X347700Y111500D03*
X322300Y111500D03*
X347700Y136900D03*
X322300Y136900D03*
X347700Y162300D03*
X322300Y162300D03*
X347700Y187700D03*
X322300Y187700D03*
X347700Y213100D03*
X322300Y213100D03*
X347700Y238500D03*
X322300Y238500D03*
X347700Y263900D03*
X322300Y263900D03*
X347700Y289300D03*
X322300Y289300D03*
X242700Y60700D03*
X217300Y60700D03*
X242700Y86100D03*
X217300Y86100D03*
X242700Y111500D03*
X217300Y111500D03*
X242700Y136900D03*
X217300Y136900D03*
X242700Y162300D03*
X217300Y162300D03*
X242700Y187700D03*
X217300Y187700D03*
X242700Y213100D03*
X217300Y213100D03*
X242700Y238500D03*
X217300Y238500D03*
X242700Y263900D03*
X217300Y263900D03*
X242700Y289300D03*
X217300Y289300D03*
D13*
X180000Y87500D03*
X170500Y87500D03*
X189500Y87500D03*
X180000Y62500D03*
X170500Y62500D03*
X189500Y62500D03*
D16*
X171500Y215000D03*
X188500Y215000D03*
D13*
X285000Y87500D03*
X275500Y87500D03*
X294500Y87500D03*
X285000Y62500D03*
X275500Y62500D03*
X294500Y62500D03*
D16*
X293500Y215000D03*
X276500Y215000D03*
D11*
X325296Y325000D02*
X338504Y325000D01*
X401496Y325000D02*
X414704Y325000D01*
D13*
X385000Y272500D03*
X375500Y272500D03*
X394500Y272500D03*
X385000Y247500D03*
X375500Y247500D03*
X394500Y247500D03*
X385000Y182500D03*
X375500Y182500D03*
X394500Y182500D03*
X385000Y157500D03*
X375500Y157500D03*
X394500Y157500D03*
D12*
X445000Y165000D03*
X470400Y165000D03*
X419600Y165000D03*
D15*
X468500Y200000D03*
X451500Y200000D03*
D16*
X393500Y215000D03*
X376500Y215000D03*
D13*
X385000Y87500D03*
X375500Y87500D03*
X394500Y87500D03*
X385000Y62500D03*
X375500Y62500D03*
X394500Y62500D03*
D16*
X393500Y125000D03*
X376500Y125000D03*
D10*
X52700Y215000D03*
X27300Y215000D03*
X52700Y145000D03*
X27300Y145000D03*
X52700Y75000D03*
X27300Y75000D03*
D18*
X417000Y33500D03*
X442000Y33500D03*
X392000Y33500D03*
D19*
X167640Y19558D02*
X153670Y19558D01*
X114554Y58674D01*
X167640Y19558D02*
X169000Y17900D01*
X114554Y58674D02*
X112300Y60700D01*
X469392Y251460D02*
X469392Y282194D01*
X468500Y284000D01*
X469392Y251460D02*
X470400Y250000D01*
X469392Y198374D02*
X469392Y167640D01*
X469392Y198374D02*
X468500Y200000D01*
X469392Y167640D02*
X470400Y165000D01*
X469392Y201168D02*
X469392Y248666D01*
X470400Y250000D01*
X469392Y201168D02*
X468500Y200000D01*
X111760Y61468D02*
X78232Y94996D01*
X78232Y245872D01*
X108966Y276606D01*
X125730Y276606D01*
X136906Y287782D01*
X111760Y61468D02*
X112300Y60700D01*
X136906Y287782D02*
X137700Y289300D01*
X53086Y212344D02*
X53086Y145288D01*
X52700Y145000D01*
X53086Y212344D02*
X52700Y215000D01*
X178816Y114554D02*
X187198Y122936D01*
X178816Y114554D02*
X164846Y114554D01*
X162052Y117348D01*
X162052Y134112D01*
X153670Y142494D01*
X153670Y243078D01*
X156464Y245872D01*
X156464Y284988D01*
X139700Y301752D01*
X125730Y301752D01*
X114554Y290576D01*
X188500Y125000D02*
X187198Y122936D01*
X112300Y289300D02*
X114554Y290576D01*
X53086Y229108D02*
X53086Y215138D01*
X53086Y229108D02*
X111760Y287782D01*
X53086Y215138D02*
X52700Y215000D01*
X111760Y287782D02*
X112300Y289300D01*
X293370Y122936D02*
X259842Y89408D01*
X259842Y78232D01*
X243078Y61468D01*
X293370Y122936D02*
X293500Y125000D01*
X243078Y61468D02*
X242700Y60700D01*
X282194Y16764D02*
X324104Y16764D01*
X282194Y16764D02*
X280000Y16500D01*
X324104Y16764D02*
X325000Y16500D01*
X326898Y16764D02*
X402336Y16764D01*
X416306Y30734D01*
X326898Y16764D02*
X325000Y16500D01*
X416306Y30734D02*
X417000Y33500D01*
X449834Y83820D02*
X449834Y114554D01*
X449834Y83820D02*
X447040Y81026D01*
X449834Y114554D02*
X451500Y115000D01*
X447040Y81026D02*
X445000Y80000D01*
X449834Y170434D02*
X449834Y198374D01*
X449834Y170434D02*
X447040Y167640D01*
X449834Y198374D02*
X451500Y200000D01*
X447040Y167640D02*
X445000Y165000D01*
X449834Y167640D02*
X449834Y117348D01*
X451500Y115000D01*
X445000Y165000D02*
X449834Y167640D01*
X393954Y215138D02*
X393954Y226314D01*
X393954Y215138D02*
X393500Y215000D01*
X449834Y254254D02*
X449834Y282194D01*
X449834Y254254D02*
X447040Y251460D01*
X449834Y282194D02*
X451500Y284000D01*
X447040Y251460D02*
X445000Y250000D01*
X449834Y251460D02*
X449834Y201168D01*
X451500Y200000D01*
X445000Y250000D02*
X449834Y251460D01*
D20*
X393954Y226314D03*
D19*
X259842Y153670D02*
X251460Y153670D01*
X243078Y162052D01*
X242700Y162300D01*
D20*
X259842Y153670D03*
D19*
X156464Y117348D02*
X139700Y134112D01*
X156464Y117348D02*
X156464Y114554D01*
X162052Y108966D01*
X184404Y108966D01*
X206756Y86614D01*
X206756Y81026D01*
X212344Y75438D01*
X223520Y75438D01*
X231902Y83820D01*
X231902Y92202D01*
X240284Y100584D01*
X248666Y100584D01*
X254254Y106172D01*
X254254Y122936D01*
X243078Y134112D01*
X139700Y134112D02*
X137700Y136900D01*
X242700Y136900D02*
X243078Y134112D01*
X346456Y134112D02*
X346456Y125730D01*
X332486Y111760D01*
X332486Y106172D01*
X326898Y100584D01*
X318516Y100584D01*
X310134Y108966D01*
X346456Y134112D02*
X347700Y136900D01*
D20*
X310134Y108966D03*
D19*
X324104Y164846D02*
X346456Y187198D01*
X324104Y164846D02*
X322300Y162300D01*
X346456Y187198D02*
X347700Y187700D01*
X240284Y201168D02*
X240284Y212344D01*
X240284Y201168D02*
X229108Y189992D01*
X229108Y184404D01*
X217932Y173228D01*
X212344Y173228D01*
X201168Y162052D01*
X201168Y111760D01*
X212344Y100584D01*
X220726Y100584D01*
X229108Y108966D01*
X229108Y114554D01*
X220726Y122936D01*
X220726Y131318D01*
X217932Y134112D01*
X240284Y212344D02*
X242700Y213100D01*
X217300Y136900D02*
X217932Y134112D01*
X114554Y240284D02*
X114554Y251460D01*
X125730Y262636D01*
X125730Y268224D01*
X134112Y276606D01*
X139700Y276606D01*
X148082Y268224D01*
X148082Y248666D01*
X114554Y240284D02*
X112300Y238500D01*
X321310Y240284D02*
X321310Y248666D01*
X310134Y259842D01*
X310134Y271018D01*
X312928Y273812D01*
X312928Y279400D01*
X296164Y296164D01*
X271018Y296164D01*
X259842Y284988D01*
X259842Y265430D01*
X243078Y248666D01*
X226314Y248666D01*
X217932Y240284D01*
X321310Y240284D02*
X322300Y238500D01*
X217932Y240284D02*
X217300Y238500D01*
D20*
X148082Y248666D03*
D19*
X469392Y114554D02*
X469392Y81026D01*
X469392Y114554D02*
X468500Y115000D01*
X469392Y81026D02*
X470400Y80000D01*
X346456Y83820D02*
X335280Y72644D01*
X346456Y83820D02*
X347700Y86100D01*
X111760Y257048D02*
X111760Y262636D01*
X111760Y257048D02*
X86614Y231902D01*
X86614Y120142D01*
X111760Y262636D02*
X112300Y263900D01*
D20*
X335280Y72644D03*
X86614Y120142D03*
D19*
X215138Y122936D02*
X215138Y111760D01*
X215138Y122936D02*
X206756Y131318D01*
X206756Y142494D01*
X215138Y150876D01*
X220726Y150876D01*
X231902Y162052D01*
X231902Y167640D01*
X240284Y176022D01*
X245872Y176022D01*
X254254Y184404D01*
X254254Y226314D01*
X243078Y237490D01*
X217300Y111500D02*
X215138Y111760D01*
X243078Y237490D02*
X242700Y238500D01*
X301752Y117348D02*
X301752Y75438D01*
X301752Y117348D02*
X304546Y120142D01*
X304546Y198374D01*
X304546Y254254D02*
X304546Y276606D01*
D20*
X301752Y75438D03*
X304546Y198374D03*
X304546Y254254D03*
X304546Y276606D03*
D19*
X111760Y120142D02*
X111760Y111760D01*
X111760Y120142D02*
X103378Y128524D01*
X111760Y111760D02*
X112300Y111500D01*
D20*
X103378Y128524D03*
D19*
X114554Y97790D02*
X114554Y86614D01*
X114554Y97790D02*
X125730Y108966D01*
X125730Y251460D01*
X136906Y262636D01*
X114554Y86614D02*
X112300Y86100D01*
X136906Y262636D02*
X137700Y263900D01*
X321310Y122936D02*
X321310Y111760D01*
X321310Y122936D02*
X310134Y134112D01*
X310134Y164846D01*
X321310Y176022D01*
X326898Y176022D01*
X335280Y184404D01*
X335280Y226314D01*
X346456Y237490D01*
X321310Y111760D02*
X322300Y111500D01*
X346456Y237490D02*
X347700Y238500D01*
X360426Y81026D02*
X354838Y75438D01*
X360426Y81026D02*
X360426Y251460D01*
X349250Y262636D01*
X347700Y263900D01*
D20*
X354838Y75438D03*
D19*
X173228Y237490D02*
X173228Y245872D01*
X173228Y237490D02*
X184404Y226314D01*
X265430Y237490D02*
X273812Y245872D01*
X173228Y245872D02*
X170500Y247500D01*
X273812Y245872D02*
X275500Y247500D01*
X173228Y156464D02*
X173228Y136906D01*
X173228Y125730D01*
X171500Y125000D01*
X173228Y156464D02*
X170500Y157500D01*
X276606Y156464D02*
X276606Y136906D01*
X276606Y125730D01*
X276500Y125000D01*
X276606Y156464D02*
X275500Y157500D01*
X192786Y136906D02*
X173228Y136906D01*
X265430Y167640D02*
X265430Y237490D01*
X265430Y167640D02*
X273812Y159258D01*
X275500Y157500D01*
X377190Y215138D02*
X377190Y245872D01*
X377190Y215138D02*
X376500Y215000D01*
X377190Y245872D02*
X375500Y247500D01*
X374396Y156464D02*
X374396Y142494D01*
X374396Y203962D02*
X374396Y212344D01*
X375500Y157500D02*
X374396Y156464D01*
X374396Y212344D02*
X376500Y215000D01*
X206756Y19558D02*
X195580Y19558D01*
X206756Y19558D02*
X209550Y22352D01*
X195580Y19558D02*
X194000Y17900D01*
X407924Y148082D02*
X407924Y324104D01*
X408100Y325000D01*
X201168Y287782D02*
X201168Y265430D01*
X201168Y287782D02*
X164846Y324104D01*
X163100Y325000D01*
D20*
X184404Y226314D03*
X265430Y237490D03*
X192786Y136906D03*
X276606Y136906D03*
X374396Y142494D03*
X374396Y203962D03*
X209550Y22352D03*
X407924Y148082D03*
X201168Y265430D03*
D19*
X276606Y212344D02*
X276606Y184404D01*
X276606Y212344D02*
X276500Y215000D01*
X276606Y184404D02*
X275500Y182500D01*
X276606Y94996D02*
X276606Y89408D01*
X276606Y94996D02*
X282194Y100584D01*
X276606Y89408D02*
X275500Y87500D01*
X276606Y215138D02*
X276606Y231902D01*
X276606Y215138D02*
X276500Y215000D01*
D20*
X282194Y100584D03*
X276606Y231902D03*
D19*
X170434Y36322D02*
X170434Y27940D01*
X170434Y36322D02*
X169000Y36900D01*
X195580Y36322D02*
X195580Y30734D01*
X195580Y27940D01*
X194000Y27400D01*
X195580Y36322D02*
X194000Y36900D01*
X192786Y27940D02*
X170434Y27940D01*
X169000Y27400D01*
X192786Y27940D02*
X194000Y27400D01*
X240284Y16764D02*
X262636Y16764D01*
X279400Y33528D01*
X240284Y16764D02*
X240000Y16500D01*
X279400Y33528D02*
X280000Y33500D01*
X220726Y30734D02*
X195580Y30734D01*
X220726Y30734D02*
X237490Y13970D01*
X240000Y16500D01*
X240284Y33528D02*
X262636Y33528D01*
X273812Y44704D01*
X312928Y44704D01*
X324104Y33528D01*
X240284Y33528D02*
X240000Y33500D01*
X324104Y33528D02*
X325000Y33500D01*
X346456Y100584D02*
X346456Y108966D01*
X346456Y100584D02*
X332486Y86614D01*
X332486Y81026D01*
X326898Y75438D01*
X315722Y75438D01*
X310134Y81026D01*
X346456Y108966D02*
X347700Y111500D01*
X237490Y50292D02*
X237490Y33528D01*
X237490Y50292D02*
X231902Y55880D01*
X231902Y64262D01*
X243078Y75438D01*
X248666Y75438D01*
X254254Y81026D01*
X254254Y97790D01*
X259842Y103378D01*
X259842Y134112D01*
X245872Y148082D01*
X237490Y148082D01*
X231902Y142494D01*
X231902Y120142D01*
X240284Y111760D01*
X240000Y33500D02*
X237490Y33528D01*
X242700Y111500D02*
X240284Y111760D01*
D20*
X310134Y81026D03*
D19*
X293370Y156464D02*
X287782Y156464D01*
X285000Y157500D01*
X293370Y156464D02*
X294500Y157500D01*
X293370Y181610D02*
X287782Y181610D01*
X285000Y182500D01*
X293370Y181610D02*
X294500Y182500D01*
X284988Y181610D02*
X284988Y159258D01*
X285000Y157500D01*
X284988Y181610D02*
X285000Y182500D01*
X287782Y248666D02*
X293370Y248666D01*
X287782Y248666D02*
X285000Y247500D01*
X293370Y248666D02*
X294500Y247500D01*
X293370Y273812D02*
X287782Y273812D01*
X285000Y272500D01*
X293370Y273812D02*
X294500Y272500D01*
X284988Y271018D02*
X284988Y248666D01*
X285000Y247500D01*
X284988Y271018D02*
X285000Y272500D01*
X296164Y201168D02*
X296164Y184404D01*
X296164Y201168D02*
X304546Y209550D01*
X304546Y237490D01*
X296164Y245872D01*
X296164Y184404D02*
X294500Y182500D01*
X296164Y245872D02*
X294500Y247500D01*
X187198Y212344D02*
X187198Y206756D01*
X173228Y192786D01*
X173228Y184404D01*
X187198Y212344D02*
X188500Y215000D01*
X173228Y184404D02*
X170500Y182500D01*
X170434Y100584D02*
X170434Y89408D01*
X162052Y145288D02*
X162052Y173228D01*
X170434Y181610D01*
X170434Y89408D02*
X170500Y87500D01*
X170434Y181610D02*
X170500Y182500D01*
X86614Y273812D02*
X86614Y324104D01*
X86900Y325000D01*
D20*
X170434Y100584D03*
X162052Y145288D03*
X86614Y273812D03*
D19*
X181610Y156464D02*
X187198Y156464D01*
X181610Y156464D02*
X180000Y157500D01*
X187198Y156464D02*
X189500Y157500D01*
X187198Y181610D02*
X181610Y181610D01*
X187198Y181610D02*
X189500Y182500D01*
X181610Y181610D02*
X181610Y159258D01*
X180000Y157500D01*
X181610Y181610D02*
X180000Y182500D01*
X181610Y248666D02*
X187198Y248666D01*
X189500Y247500D01*
X187198Y273812D02*
X181610Y273812D01*
X180000Y272500D01*
X187198Y273812D02*
X189500Y272500D01*
X181610Y271018D02*
X181610Y248666D01*
X180000Y247500D01*
X181610Y271018D02*
X180000Y272500D01*
X189992Y198374D02*
X189992Y184404D01*
X189992Y198374D02*
X198374Y206756D01*
X198374Y237490D01*
X189992Y245872D01*
X189992Y184404D02*
X189500Y182500D01*
X189992Y245872D02*
X189500Y247500D01*
X187198Y61468D02*
X181610Y61468D01*
X180000Y62500D01*
X187198Y61468D02*
X189500Y62500D01*
X187198Y86614D02*
X181610Y86614D01*
X187198Y86614D02*
X189500Y87500D01*
X181610Y86614D02*
X181610Y64262D01*
X180000Y62500D01*
X181610Y86614D02*
X180000Y87500D01*
X189992Y61468D02*
X201168Y61468D01*
X229108Y33528D01*
X357632Y27940D02*
X379984Y27940D01*
X385572Y22352D01*
X396748Y22352D01*
X405130Y30734D01*
X405130Y44704D01*
X430276Y69850D01*
X430276Y240284D01*
X421894Y248666D01*
X189500Y62500D02*
X189992Y61468D01*
X419600Y250000D02*
X421894Y248666D01*
D20*
X229108Y33528D03*
X357632Y27940D03*
D19*
X293370Y61468D02*
X287782Y61468D01*
X285000Y62500D01*
X293370Y61468D02*
X294500Y62500D01*
X293370Y86614D02*
X287782Y86614D01*
X285000Y87500D01*
X293370Y86614D02*
X294500Y87500D01*
X284988Y86614D02*
X284988Y64262D01*
X285000Y62500D01*
X284988Y86614D02*
X285000Y87500D01*
X296164Y61468D02*
X304546Y61468D01*
X321310Y44704D01*
X363220Y44704D01*
X366014Y41910D01*
X382778Y41910D01*
X391160Y50292D01*
X399542Y50292D01*
X419100Y69850D01*
X419100Y78232D01*
X296164Y61468D02*
X294500Y62500D01*
X419100Y78232D02*
X419600Y80000D01*
X377190Y89408D02*
X377190Y122936D01*
X376500Y125000D01*
X377190Y89408D02*
X375500Y87500D01*
X374396Y173228D02*
X374396Y181610D01*
X374396Y173228D02*
X366014Y164846D01*
X366014Y134112D01*
X374396Y125730D01*
X374396Y181610D02*
X375500Y182500D01*
X374396Y125730D02*
X376500Y125000D01*
X366014Y290576D02*
X332486Y324104D01*
X366014Y290576D02*
X366014Y192786D01*
X374396Y184404D01*
X332486Y324104D02*
X331900Y325000D01*
X374396Y184404D02*
X375500Y182500D01*
X385572Y156464D02*
X393954Y156464D01*
X385572Y156464D02*
X385000Y157500D01*
X393954Y156464D02*
X394500Y157500D01*
X393954Y181610D02*
X385572Y181610D01*
X393954Y181610D02*
X394500Y182500D01*
X385572Y181610D02*
X385572Y159258D01*
X385000Y157500D01*
X385572Y181610D02*
X385000Y182500D01*
X385572Y248666D02*
X393954Y248666D01*
X394500Y247500D01*
X393954Y273812D02*
X385572Y273812D01*
X385000Y272500D01*
X393954Y273812D02*
X394500Y272500D01*
X385572Y271018D02*
X385572Y248666D01*
X385000Y247500D01*
X385572Y271018D02*
X385000Y272500D01*
X396748Y201168D02*
X396748Y184404D01*
X396748Y201168D02*
X402336Y206756D01*
X402336Y240284D01*
X396748Y245872D01*
X396748Y184404D02*
X394500Y182500D01*
X396748Y245872D02*
X394500Y247500D01*
X393954Y61468D02*
X385572Y61468D01*
X385000Y62500D01*
X393954Y61468D02*
X394500Y62500D01*
X393954Y86614D02*
X385572Y86614D01*
X393954Y86614D02*
X394500Y87500D01*
X385572Y86614D02*
X385572Y64262D01*
X385000Y62500D01*
X385572Y86614D02*
X385000Y87500D01*
X396748Y89408D02*
X396748Y111760D01*
X419100Y134112D01*
X419100Y164846D01*
X396748Y89408D02*
X394500Y87500D01*
X419100Y164846D02*
X419600Y165000D01*
X273812Y273812D02*
X273812Y287782D01*
X254254Y298958D02*
X217932Y335280D01*
X75438Y335280D01*
X25146Y284988D01*
X273812Y273812D02*
X275500Y272500D01*
X27300Y283700D02*
X25146Y284988D01*
D20*
X273812Y287782D03*
X254254Y298958D03*
D19*
X170434Y282194D02*
X170434Y273812D01*
X170434Y282194D02*
X150876Y301752D01*
X170434Y273812D02*
X170500Y272500D01*
D20*
X150876Y301752D03*
D19*
X377190Y315722D02*
X377190Y273812D01*
X377190Y315722D02*
X396748Y335280D01*
X433070Y335280D01*
X483362Y284988D01*
X483362Y58674D01*
X447040Y22352D01*
X424688Y22352D01*
X375500Y272500D02*
X377190Y273812D01*
D20*
X424688Y22352D03*
D19*
X296164Y215138D02*
X296164Y226314D01*
X296164Y215138D02*
X293500Y215000D01*
X391160Y142494D02*
X391160Y125730D01*
X393500Y125000D01*
X273812Y61468D02*
X273812Y55880D01*
X268224Y50292D01*
X273812Y61468D02*
X275500Y62500D01*
X374396Y61468D02*
X374396Y55880D01*
X368808Y50292D01*
X374396Y61468D02*
X375500Y62500D01*
X173228Y203962D02*
X173228Y212344D01*
X171500Y215000D01*
X170434Y64262D02*
X150876Y64262D01*
X139700Y75438D01*
X106172Y75438D01*
X94996Y86614D01*
X94996Y195580D01*
X111760Y212344D01*
X170434Y64262D02*
X170500Y62500D01*
X111760Y212344D02*
X112300Y213100D01*
X173228Y53086D02*
X181610Y44704D01*
X173228Y53086D02*
X173228Y61468D01*
X170500Y62500D01*
D20*
X296164Y226314D03*
X391160Y142494D03*
X268224Y50292D03*
X368808Y50292D03*
X173228Y203962D03*
X181610Y44704D03*
D19*
X321310Y189992D02*
X321310Y198374D01*
X310134Y209550D01*
X310134Y217932D01*
X318516Y226314D01*
X326898Y226314D01*
X332486Y231902D01*
X332486Y296164D01*
X326898Y301752D01*
X268224Y301752D01*
X254254Y287782D01*
X254254Y284988D01*
X245872Y276606D01*
X240284Y276606D01*
X229108Y265430D01*
X229108Y259842D01*
X217932Y248666D01*
X212344Y248666D01*
X206756Y243078D01*
X206756Y198374D01*
X215138Y189992D01*
X321310Y189992D02*
X322300Y187700D01*
X217300Y187700D02*
X215138Y189992D01*
M02*
