M48
;GenerationSoftware,Autodesk,EAGLE,9.6.2*%
;CreationDate,2022-06-11T08:26:19Z*%
FMAT,2
ICI,OFF
METRIC,TZ,000.000
T12C0.200
T11C0.350
T10C0.750
T9C0.800
T8C0.813
T7C0.850
T6C1.000
T5C1.200
T4C2.000
T3C2.500
T2C3.000
T1C3.200
%
G90
M71
T1
X4510Y22290
X28510Y22290
X28510Y46290
X4510Y46290
T2
X97460Y2540
X97460Y58730
X2540Y58730
X2540Y2540
T3
X95900Y28640
T4
X81900Y54640
T5
X77470Y6350
X72390Y6350
T6
X88900Y5080
X15240Y5080
X17780Y5080
X12700Y5080
X27940Y5080
X30480Y5080
X25400Y5080
X83820Y5080
X91440Y5080
X86360Y5080
T7
X60730Y22860
X60730Y20320
X60730Y17780
X60730Y15240
X60730Y12700
X60730Y10160
X60730Y7620
X60730Y5080
X60730Y2540
X35560Y48260
X35560Y45720
X35560Y43180
X35560Y40640
X35560Y38100
X35560Y35560
X35560Y33020
X35560Y30480
X35560Y27940
X35560Y25400
X35560Y22860
X35560Y20320
X35560Y17780
X35560Y15240
X35560Y12700
X35560Y10160
X35560Y7620
X35560Y5080
X35560Y2540
X60730Y25400
X60730Y27940
X60730Y30480
X60730Y33020
X60730Y35560
X60730Y38100
X10160Y54610
X60730Y40640
X60730Y43180
X60730Y45720
X60730Y48260
X12700Y54610
X15240Y54610
X17780Y54610
X20320Y54610
X22860Y54610
X10160Y52070
X12700Y52070
X25400Y54610
X27940Y54610
X30480Y54610
X33020Y54610
X35560Y54610
X38100Y54610
X15240Y52070
X17780Y52070
X20320Y52070
X22860Y52070
X25400Y52070
X27940Y52070
X30480Y52070
X33020Y52070
X35560Y52070
X38100Y52070
X40640Y52070
X43180Y52070
X45720Y52070
X48260Y52070
X50800Y52070
X53340Y52070
X55880Y52070
X58420Y52070
X58420Y54610
X55880Y54610
X53340Y54610
X50800Y54610
X48260Y54610
X45720Y54610
X43180Y54610
X40640Y54610
T8
X43180Y11430
X53340Y16510
X43180Y16510
X53340Y21590
X43180Y21590
X53340Y26670
X43180Y26670
X53340Y31750
X43180Y31750
X53340Y36830
X43180Y36830
X53340Y11430
T9
X67310Y12700
X67310Y10160
X67310Y7620
X67310Y5080
X67310Y2540
X67310Y15240
X67310Y17780
X67310Y20320
X67310Y22860
X67310Y25400
X67310Y27940
X67310Y30480
X67310Y33020
X67310Y35560
X67310Y38100
X67310Y40640
X67310Y43180
X67310Y45720
X67310Y48260
X64770Y2540
X64770Y5080
X64770Y7620
X64770Y10160
X64770Y12700
X64770Y15240
X64770Y17780
X64770Y20320
X64770Y22860
X64770Y25400
X64770Y27940
X64770Y30480
X64770Y33020
X64770Y35560
X64770Y38100
X64770Y40640
X64770Y43180
X64770Y45720
X64770Y48260
X30226Y29210
X30226Y31750
X30226Y34290
X30226Y36830
X30226Y39370
X76830Y15320
X79360Y15320
X81900Y15320
X76830Y22940
X79360Y22940
X81900Y22940
T10
X97790Y22860
X97790Y20320
X97790Y17780
X97790Y15240
X97790Y12700
X97790Y10160
T11
X90170Y22860
X90170Y10160
T12
X72085Y38633
X74219Y39700
X52045Y32614
X53645Y35204
X71857Y42062
X50597Y39167
X73990Y49911
X49606Y40157
X73990Y55016
X59360Y23317
X52502Y28956
X51435Y31242
X51435Y37414
X52654Y28042
X50902Y30632
X50902Y38405
X55245Y27432
X72085Y25908
X33223Y37948
X38329Y32614
X40615Y32614
X40081Y28346
X80239Y28042
X68275Y55550
X81077Y30937
X72009Y13030
X85649Y30023
X77038Y26441
X87782Y27813
X66142Y29794
X73381Y25375
X74676Y22555
X58522Y39395
X41834Y30632
X80696Y26822
X84277Y21869
X72771Y13030
X65913Y9906
X71857Y23317
X72390Y16459
X59588Y3886
X51968Y30632
X67894Y11582
X71857Y21717
X71857Y17755
X59207Y28880
X57455Y30632
X54102Y33985
X52807Y34519
X37338Y50216
M30