M48
;GenerationSoftware,Autodesk,EAGLE,9.6.2*%
;CreationDate,2023-07-27T00:13:06Z*%
FMAT,2
ICI,OFF
METRIC,TZ,000.000
T2C1.000
T1C1.200
%
G90
M71
T1
X2239Y16827
X2239Y14287
X2239Y11747
X2239Y9207
X2239Y27876
X2239Y25336
X2239Y22796
X2239Y20256
X25400Y5080
X22860Y5080
X16510Y25400
X13970Y25400
X8890Y25400
X11430Y25400
X16510Y17780
X13970Y17780
X8890Y17780
X11430Y17780
X10160Y11430
X7620Y11430
X19050Y11430
X16510Y11430
T2
X13970Y4000
X16470Y4000
X11470Y4000
M30