G04 EAGLE Gerber RS-274X export*
G75*
%MOMM*%
%FSLAX34Y34*%
%LPD*%
%INTop Copper*%
%IPPOS*%
%AMOC8*
5,1,8,0,0,1.08239X$1,22.5*%
G01*
%ADD10R,0.500000X1.200000*%
%ADD11R,1.200000X0.500000*%
%ADD12R,2.200000X3.500000*%
%ADD13R,2.200000X1.200000*%
%ADD14R,1.500000X0.600000*%
%ADD15C,1.508000*%
%ADD16R,1.100000X1.000000*%
%ADD17R,0.800000X0.800000*%
%ADD18R,1.000000X1.100000*%
%ADD19R,1.600000X1.050000*%
%ADD20R,1.800000X1.800000*%
%ADD21C,1.524000*%
%ADD22R,0.700000X1.900000*%
%ADD23R,1.000000X1.900000*%
%ADD24R,1.200000X1.200000*%
%ADD25R,1.200000X0.800000*%
%ADD26R,1.200000X2.800000*%
%ADD27R,1.900000X1.900000*%
%ADD28C,0.300000*%
%ADD29C,0.756400*%

G36*
X449979Y-39065D02*
X449979Y-39065D01*
X450083Y-39063D01*
X450150Y-39045D01*
X450219Y-39037D01*
X450317Y-39002D01*
X450418Y-38976D01*
X450479Y-38943D01*
X450544Y-38920D01*
X450631Y-38863D01*
X450723Y-38814D01*
X450776Y-38769D01*
X450833Y-38731D01*
X450905Y-38656D01*
X450984Y-38587D01*
X451024Y-38531D01*
X451072Y-38481D01*
X451125Y-38391D01*
X451186Y-38306D01*
X451212Y-38242D01*
X451247Y-38183D01*
X451278Y-38083D01*
X451318Y-37987D01*
X451329Y-37918D01*
X451349Y-37852D01*
X451356Y-37748D01*
X451373Y-37645D01*
X451368Y-37576D01*
X451373Y-37507D01*
X451356Y-37405D01*
X451348Y-37300D01*
X451328Y-37234D01*
X451317Y-37166D01*
X451277Y-37070D01*
X451246Y-36970D01*
X451211Y-36911D01*
X451184Y-36847D01*
X451123Y-36763D01*
X451070Y-36673D01*
X451001Y-36594D01*
X450982Y-36567D01*
X450965Y-36552D01*
X450935Y-36518D01*
X449866Y-35449D01*
X446554Y-29712D01*
X444839Y-23313D01*
X444839Y-16687D01*
X446554Y-10288D01*
X449866Y-4551D01*
X454551Y134D01*
X460288Y3446D01*
X466687Y5161D01*
X473313Y5161D01*
X479712Y3446D01*
X485449Y134D01*
X486518Y-935D01*
X486600Y-1000D01*
X486675Y-1072D01*
X486735Y-1107D01*
X486789Y-1150D01*
X486883Y-1194D01*
X486973Y-1247D01*
X487039Y-1267D01*
X487102Y-1297D01*
X487204Y-1318D01*
X487304Y-1349D01*
X487373Y-1354D01*
X487440Y-1368D01*
X487544Y-1366D01*
X487649Y-1373D01*
X487717Y-1362D01*
X487786Y-1360D01*
X487887Y-1334D01*
X487990Y-1317D01*
X488054Y-1290D01*
X488120Y-1273D01*
X488213Y-1224D01*
X488309Y-1184D01*
X488365Y-1144D01*
X488426Y-1111D01*
X488505Y-1043D01*
X488589Y-982D01*
X488635Y-930D01*
X488687Y-884D01*
X488748Y-800D01*
X488816Y-721D01*
X488848Y-659D01*
X488889Y-603D01*
X488928Y-507D01*
X488977Y-415D01*
X488994Y-348D01*
X489020Y-284D01*
X489037Y-181D01*
X489063Y-80D01*
X489070Y24D01*
X489076Y58D01*
X489074Y80D01*
X489077Y125D01*
X489077Y399875D01*
X489065Y399979D01*
X489063Y400083D01*
X489045Y400150D01*
X489037Y400219D01*
X489002Y400317D01*
X488976Y400418D01*
X488943Y400479D01*
X488920Y400544D01*
X488863Y400631D01*
X488814Y400723D01*
X488769Y400776D01*
X488731Y400833D01*
X488656Y400905D01*
X488587Y400984D01*
X488531Y401024D01*
X488481Y401072D01*
X488391Y401125D01*
X488306Y401186D01*
X488242Y401212D01*
X488183Y401247D01*
X488083Y401278D01*
X487987Y401318D01*
X487918Y401329D01*
X487852Y401349D01*
X487748Y401356D01*
X487645Y401373D01*
X487576Y401368D01*
X487507Y401373D01*
X487405Y401356D01*
X487300Y401348D01*
X487234Y401328D01*
X487166Y401317D01*
X487070Y401277D01*
X486970Y401246D01*
X486911Y401211D01*
X486847Y401184D01*
X486763Y401123D01*
X486673Y401070D01*
X486594Y401001D01*
X486567Y400982D01*
X486552Y400965D01*
X486518Y400935D01*
X485449Y399866D01*
X479712Y396554D01*
X473313Y394839D01*
X466687Y394839D01*
X460288Y396554D01*
X454551Y399866D01*
X449866Y404551D01*
X446554Y410288D01*
X444839Y416687D01*
X444839Y423313D01*
X446554Y429712D01*
X449866Y435449D01*
X450935Y436518D01*
X451000Y436600D01*
X451072Y436675D01*
X451107Y436735D01*
X451150Y436789D01*
X451194Y436883D01*
X451247Y436973D01*
X451267Y437039D01*
X451297Y437102D01*
X451318Y437204D01*
X451349Y437304D01*
X451354Y437373D01*
X451368Y437440D01*
X451366Y437544D01*
X451373Y437649D01*
X451362Y437717D01*
X451360Y437786D01*
X451334Y437887D01*
X451317Y437990D01*
X451290Y438054D01*
X451273Y438120D01*
X451224Y438213D01*
X451184Y438309D01*
X451144Y438365D01*
X451111Y438426D01*
X451043Y438505D01*
X450982Y438589D01*
X450930Y438635D01*
X450884Y438687D01*
X450800Y438748D01*
X450721Y438816D01*
X450659Y438848D01*
X450603Y438889D01*
X450507Y438928D01*
X450415Y438977D01*
X450348Y438994D01*
X450284Y439020D01*
X450181Y439037D01*
X450080Y439063D01*
X449976Y439070D01*
X449942Y439076D01*
X449920Y439074D01*
X449875Y439077D01*
X435434Y439077D01*
X435399Y439073D01*
X435363Y439076D01*
X435227Y439053D01*
X435091Y439037D01*
X435057Y439025D01*
X435022Y439020D01*
X434895Y438967D01*
X434765Y438920D01*
X434736Y438901D01*
X434703Y438887D01*
X434591Y438806D01*
X434476Y438731D01*
X434451Y438705D01*
X434423Y438685D01*
X434332Y438581D01*
X434237Y438481D01*
X434219Y438450D01*
X434196Y438424D01*
X434132Y438301D01*
X434062Y438183D01*
X434052Y438149D01*
X434035Y438117D01*
X434001Y437984D01*
X433960Y437852D01*
X433958Y437817D01*
X433949Y437783D01*
X433935Y437578D01*
X433935Y407998D01*
X433042Y407105D01*
X419778Y407105D01*
X418885Y407998D01*
X418885Y437578D01*
X418881Y437613D01*
X418884Y437649D01*
X418861Y437785D01*
X418845Y437921D01*
X418833Y437955D01*
X418828Y437990D01*
X418775Y438117D01*
X418728Y438247D01*
X418709Y438276D01*
X418695Y438309D01*
X418614Y438421D01*
X418539Y438536D01*
X418513Y438561D01*
X418493Y438589D01*
X418389Y438680D01*
X418289Y438775D01*
X418258Y438793D01*
X418232Y438816D01*
X418109Y438880D01*
X417991Y438950D01*
X417957Y438960D01*
X417925Y438977D01*
X417792Y439011D01*
X417660Y439052D01*
X417625Y439054D01*
X417591Y439063D01*
X417386Y439077D01*
X297584Y439077D01*
X297549Y439073D01*
X297513Y439076D01*
X297377Y439053D01*
X297241Y439037D01*
X297207Y439025D01*
X297172Y439020D01*
X297045Y438967D01*
X296915Y438920D01*
X296886Y438901D01*
X296853Y438887D01*
X296741Y438806D01*
X296626Y438731D01*
X296601Y438705D01*
X296573Y438685D01*
X296482Y438581D01*
X296387Y438481D01*
X296369Y438450D01*
X296346Y438424D01*
X296282Y438301D01*
X296212Y438183D01*
X296202Y438149D01*
X296185Y438117D01*
X296151Y437984D01*
X296110Y437852D01*
X296108Y437817D01*
X296099Y437783D01*
X296085Y437578D01*
X296085Y418388D01*
X295192Y417495D01*
X274928Y417495D01*
X274035Y418388D01*
X274035Y437578D01*
X274031Y437613D01*
X274034Y437649D01*
X274011Y437785D01*
X273995Y437921D01*
X273983Y437955D01*
X273978Y437990D01*
X273925Y438117D01*
X273878Y438247D01*
X273859Y438276D01*
X273845Y438309D01*
X273764Y438421D01*
X273689Y438536D01*
X273663Y438561D01*
X273643Y438589D01*
X273539Y438680D01*
X273439Y438775D01*
X273408Y438793D01*
X273382Y438816D01*
X273259Y438880D01*
X273141Y438950D01*
X273107Y438960D01*
X273075Y438977D01*
X272942Y439011D01*
X272810Y439052D01*
X272775Y439054D01*
X272741Y439063D01*
X272536Y439077D01*
X12422Y439077D01*
X12387Y439073D01*
X12351Y439076D01*
X12215Y439053D01*
X12079Y439037D01*
X12045Y439025D01*
X12010Y439020D01*
X11883Y438967D01*
X11753Y438920D01*
X11724Y438901D01*
X11691Y438887D01*
X11579Y438806D01*
X11464Y438731D01*
X11439Y438705D01*
X11411Y438685D01*
X11320Y438581D01*
X11225Y438481D01*
X11207Y438450D01*
X11184Y438424D01*
X11120Y438301D01*
X11050Y438183D01*
X11040Y438149D01*
X11023Y438117D01*
X10989Y437984D01*
X10948Y437852D01*
X10946Y437817D01*
X10937Y437783D01*
X10923Y437578D01*
X10923Y278950D01*
X10935Y278846D01*
X10937Y278742D01*
X10955Y278675D01*
X10963Y278606D01*
X10998Y278508D01*
X11024Y278407D01*
X11057Y278346D01*
X11080Y278281D01*
X11137Y278194D01*
X11186Y278102D01*
X11231Y278049D01*
X11269Y277992D01*
X11344Y277920D01*
X11413Y277841D01*
X11469Y277801D01*
X11519Y277753D01*
X11609Y277700D01*
X11694Y277639D01*
X11758Y277613D01*
X11817Y277578D01*
X11917Y277547D01*
X12013Y277507D01*
X12082Y277496D01*
X12148Y277476D01*
X12252Y277469D01*
X12355Y277452D01*
X12424Y277457D01*
X12493Y277452D01*
X12595Y277469D01*
X12700Y277476D01*
X12766Y277497D01*
X12834Y277508D01*
X12930Y277548D01*
X13030Y277579D01*
X13089Y277614D01*
X13153Y277641D01*
X13237Y277702D01*
X13327Y277755D01*
X13406Y277823D01*
X13433Y277843D01*
X13448Y277860D01*
X13482Y277890D01*
X15020Y279428D01*
X21416Y285824D01*
X21438Y285852D01*
X21465Y285875D01*
X21546Y285987D01*
X21631Y286095D01*
X21646Y286127D01*
X21667Y286156D01*
X21719Y286283D01*
X21778Y286408D01*
X21785Y286443D01*
X21799Y286475D01*
X21821Y286612D01*
X21849Y286746D01*
X21848Y286782D01*
X21854Y286817D01*
X21844Y286954D01*
X21841Y287092D01*
X21832Y287126D01*
X21830Y287162D01*
X21789Y287293D01*
X21754Y287427D01*
X21737Y287458D01*
X21727Y287492D01*
X21657Y287611D01*
X21592Y287732D01*
X21569Y287759D01*
X21551Y287790D01*
X21416Y287944D01*
X18985Y290375D01*
X17605Y293707D01*
X17605Y297313D01*
X18985Y300645D01*
X21535Y303195D01*
X24867Y304575D01*
X28473Y304575D01*
X31805Y303195D01*
X34355Y300645D01*
X35735Y297313D01*
X35735Y296976D01*
X35747Y296872D01*
X35749Y296768D01*
X35767Y296701D01*
X35775Y296632D01*
X35810Y296534D01*
X35836Y296433D01*
X35869Y296372D01*
X35892Y296307D01*
X35949Y296220D01*
X35998Y296128D01*
X36043Y296076D01*
X36081Y296018D01*
X36156Y295946D01*
X36225Y295867D01*
X36281Y295827D01*
X36331Y295779D01*
X36421Y295726D01*
X36506Y295665D01*
X36570Y295639D01*
X36629Y295604D01*
X36729Y295573D01*
X36825Y295533D01*
X36894Y295522D01*
X36960Y295502D01*
X37064Y295495D01*
X37167Y295478D01*
X37236Y295483D01*
X37305Y295478D01*
X37407Y295495D01*
X37512Y295502D01*
X37578Y295523D01*
X37646Y295534D01*
X37742Y295574D01*
X37842Y295605D01*
X37901Y295640D01*
X37965Y295667D01*
X38050Y295728D01*
X38139Y295781D01*
X38218Y295849D01*
X38245Y295869D01*
X38260Y295886D01*
X38294Y295916D01*
X71182Y328804D01*
X71269Y328913D01*
X71360Y329018D01*
X71376Y329048D01*
X71397Y329075D01*
X71456Y329201D01*
X71521Y329324D01*
X71529Y329357D01*
X71544Y329388D01*
X71572Y329524D01*
X71607Y329659D01*
X71610Y329704D01*
X71615Y329726D01*
X71614Y329760D01*
X71621Y329864D01*
X71621Y330876D01*
X71617Y330911D01*
X71620Y330947D01*
X71597Y331083D01*
X71581Y331219D01*
X71569Y331253D01*
X71564Y331288D01*
X71511Y331415D01*
X71464Y331545D01*
X71445Y331574D01*
X71431Y331607D01*
X71350Y331719D01*
X71275Y331834D01*
X71249Y331859D01*
X71229Y331887D01*
X71125Y331978D01*
X71025Y332073D01*
X70994Y332091D01*
X70968Y332114D01*
X70845Y332178D01*
X70727Y332248D01*
X70693Y332258D01*
X70661Y332275D01*
X70528Y332309D01*
X70396Y332350D01*
X70361Y332352D01*
X70327Y332361D01*
X70122Y332375D01*
X66568Y332375D01*
X65675Y333268D01*
X65675Y352532D01*
X66568Y353425D01*
X85832Y353425D01*
X86725Y352532D01*
X86725Y333268D01*
X85832Y332375D01*
X79170Y332375D01*
X79135Y332371D01*
X79099Y332374D01*
X78963Y332351D01*
X78827Y332335D01*
X78793Y332323D01*
X78758Y332318D01*
X78631Y332265D01*
X78501Y332218D01*
X78472Y332199D01*
X78439Y332185D01*
X78327Y332104D01*
X78212Y332029D01*
X78187Y332003D01*
X78159Y331983D01*
X78068Y331879D01*
X77973Y331779D01*
X77955Y331748D01*
X77932Y331722D01*
X77868Y331599D01*
X77798Y331481D01*
X77788Y331447D01*
X77771Y331415D01*
X77737Y331282D01*
X77696Y331150D01*
X77694Y331115D01*
X77685Y331081D01*
X77671Y330876D01*
X77671Y326737D01*
X32870Y281936D01*
X32101Y281168D01*
X32006Y281048D01*
X31908Y280931D01*
X31899Y280912D01*
X31886Y280897D01*
X31821Y280758D01*
X31753Y280622D01*
X31748Y280602D01*
X31740Y280584D01*
X31708Y280434D01*
X31673Y280285D01*
X31673Y280265D01*
X31668Y280245D01*
X31672Y280092D01*
X31671Y279940D01*
X31676Y279920D01*
X31676Y279900D01*
X31715Y279751D01*
X31750Y279603D01*
X31758Y279585D01*
X31764Y279565D01*
X31835Y279430D01*
X31903Y279293D01*
X31916Y279277D01*
X31925Y279259D01*
X32025Y279145D01*
X32123Y279026D01*
X32143Y279009D01*
X32152Y278999D01*
X32176Y278981D01*
X32280Y278894D01*
X33237Y278199D01*
X34359Y277077D01*
X35292Y275793D01*
X36012Y274380D01*
X36457Y273009D01*
X27670Y273009D01*
X27635Y273005D01*
X27600Y273008D01*
X27464Y272985D01*
X27327Y272969D01*
X27293Y272957D01*
X27258Y272952D01*
X27131Y272899D01*
X27002Y272852D01*
X26972Y272833D01*
X26939Y272819D01*
X26827Y272738D01*
X26712Y272663D01*
X26688Y272637D01*
X26659Y272617D01*
X26568Y272513D01*
X26473Y272413D01*
X26455Y272382D01*
X26432Y272356D01*
X26368Y272233D01*
X26298Y272115D01*
X26288Y272081D01*
X26271Y272049D01*
X26237Y271916D01*
X26196Y271784D01*
X26194Y271749D01*
X26185Y271715D01*
X26171Y271510D01*
X26171Y271009D01*
X25670Y271009D01*
X25635Y271005D01*
X25599Y271007D01*
X25463Y270985D01*
X25327Y270969D01*
X25293Y270957D01*
X25258Y270951D01*
X25131Y270899D01*
X25001Y270852D01*
X24972Y270832D01*
X24939Y270819D01*
X24827Y270738D01*
X24712Y270663D01*
X24687Y270637D01*
X24659Y270616D01*
X24568Y270512D01*
X24473Y270413D01*
X24455Y270382D01*
X24432Y270355D01*
X24368Y270233D01*
X24298Y270115D01*
X24288Y270081D01*
X24271Y270049D01*
X24237Y269916D01*
X24196Y269784D01*
X24194Y269749D01*
X24185Y269714D01*
X24171Y269510D01*
X24171Y262392D01*
X24175Y262357D01*
X24172Y262321D01*
X24195Y262185D01*
X24211Y262049D01*
X24223Y262015D01*
X24228Y261980D01*
X24281Y261853D01*
X24328Y261723D01*
X24347Y261694D01*
X24361Y261661D01*
X24442Y261549D01*
X24517Y261434D01*
X24543Y261409D01*
X24563Y261381D01*
X24667Y261290D01*
X24767Y261195D01*
X24798Y261177D01*
X24824Y261154D01*
X24947Y261090D01*
X25065Y261020D01*
X25099Y261010D01*
X25130Y260993D01*
X25264Y260959D01*
X25396Y260918D01*
X25431Y260916D01*
X25465Y260907D01*
X25670Y260893D01*
X27670Y260893D01*
X27705Y260897D01*
X27741Y260894D01*
X27877Y260917D01*
X28013Y260933D01*
X28047Y260945D01*
X28082Y260950D01*
X28209Y261003D01*
X28339Y261050D01*
X28368Y261069D01*
X28401Y261083D01*
X28513Y261164D01*
X28628Y261239D01*
X28653Y261265D01*
X28681Y261285D01*
X28772Y261389D01*
X28867Y261489D01*
X28885Y261520D01*
X28908Y261546D01*
X28972Y261669D01*
X29042Y261787D01*
X29052Y261821D01*
X29069Y261853D01*
X29103Y261986D01*
X29144Y262118D01*
X29146Y262153D01*
X29155Y262187D01*
X29169Y262392D01*
X29169Y268011D01*
X36457Y268011D01*
X36012Y266640D01*
X35292Y265227D01*
X34359Y263943D01*
X33868Y263452D01*
X33804Y263370D01*
X33732Y263295D01*
X33697Y263235D01*
X33654Y263181D01*
X33609Y263087D01*
X33557Y262997D01*
X33536Y262931D01*
X33507Y262868D01*
X33485Y262766D01*
X33455Y262666D01*
X33450Y262597D01*
X33436Y262530D01*
X33438Y262426D01*
X33431Y262321D01*
X33442Y262253D01*
X33444Y262184D01*
X33470Y262083D01*
X33487Y261980D01*
X33513Y261917D01*
X33531Y261850D01*
X33580Y261757D01*
X33620Y261661D01*
X33660Y261605D01*
X33692Y261544D01*
X33761Y261465D01*
X33822Y261381D01*
X33874Y261335D01*
X33919Y261283D01*
X34004Y261222D01*
X34083Y261154D01*
X34144Y261122D01*
X34200Y261081D01*
X34297Y261042D01*
X34389Y260993D01*
X34456Y260976D01*
X34520Y260950D01*
X34623Y260933D01*
X34724Y260907D01*
X34828Y260900D01*
X34861Y260894D01*
X34884Y260896D01*
X34929Y260893D01*
X39707Y260893D01*
X60416Y240184D01*
X60498Y240119D01*
X60573Y240047D01*
X60633Y240012D01*
X60687Y239969D01*
X60781Y239925D01*
X60871Y239872D01*
X60937Y239852D01*
X61000Y239822D01*
X61102Y239801D01*
X61202Y239770D01*
X61271Y239765D01*
X61338Y239751D01*
X61442Y239753D01*
X61547Y239746D01*
X61615Y239757D01*
X61684Y239759D01*
X61785Y239785D01*
X61888Y239802D01*
X61952Y239829D01*
X62018Y239846D01*
X62111Y239895D01*
X62207Y239935D01*
X62263Y239975D01*
X62324Y240008D01*
X62403Y240076D01*
X62487Y240137D01*
X62533Y240189D01*
X62585Y240235D01*
X62646Y240319D01*
X62714Y240398D01*
X62746Y240459D01*
X62787Y240516D01*
X62826Y240612D01*
X62875Y240704D01*
X62892Y240771D01*
X62919Y240835D01*
X62935Y240938D01*
X62961Y241039D01*
X62968Y241143D01*
X62974Y241176D01*
X62972Y241199D01*
X62975Y241244D01*
X62975Y247132D01*
X63886Y248043D01*
X64028Y248055D01*
X64050Y248062D01*
X64073Y248065D01*
X64214Y248116D01*
X64357Y248162D01*
X64376Y248174D01*
X64398Y248182D01*
X64524Y248264D01*
X64652Y248342D01*
X64668Y248358D01*
X64688Y248371D01*
X64791Y248480D01*
X64898Y248585D01*
X64910Y248604D01*
X64926Y248621D01*
X65002Y248750D01*
X65082Y248878D01*
X65090Y248899D01*
X65101Y248919D01*
X65145Y249062D01*
X65194Y249205D01*
X65197Y249228D01*
X65203Y249250D01*
X65214Y249399D01*
X65229Y249549D01*
X65225Y249572D01*
X65227Y249595D01*
X65203Y249742D01*
X65183Y249891D01*
X65175Y249913D01*
X65171Y249936D01*
X65114Y250074D01*
X65060Y250215D01*
X65047Y250234D01*
X65038Y250255D01*
X64951Y250377D01*
X64867Y250501D01*
X64850Y250517D01*
X64836Y250535D01*
X64723Y250634D01*
X64613Y250736D01*
X64592Y250747D01*
X64575Y250762D01*
X64442Y250832D01*
X64312Y250906D01*
X64283Y250915D01*
X64269Y250923D01*
X64238Y250931D01*
X64117Y250972D01*
X63519Y251132D01*
X62940Y251467D01*
X62467Y251940D01*
X62132Y252519D01*
X61959Y253165D01*
X61959Y256001D01*
X69000Y256001D01*
X69035Y256005D01*
X69070Y256002D01*
X69206Y256025D01*
X69343Y256041D01*
X69377Y256053D01*
X69412Y256058D01*
X69539Y256111D01*
X69668Y256158D01*
X69698Y256177D01*
X69731Y256191D01*
X69843Y256272D01*
X69958Y256347D01*
X69982Y256373D01*
X70011Y256393D01*
X70102Y256497D01*
X70197Y256597D01*
X70215Y256628D01*
X70238Y256654D01*
X70302Y256777D01*
X70372Y256895D01*
X70382Y256929D01*
X70399Y256960D01*
X70433Y257094D01*
X70474Y257226D01*
X70476Y257261D01*
X70485Y257295D01*
X70499Y257500D01*
X70499Y258001D01*
X71000Y258001D01*
X71035Y258005D01*
X71071Y258003D01*
X71207Y258025D01*
X71343Y258041D01*
X71377Y258053D01*
X71412Y258059D01*
X71539Y258111D01*
X71669Y258158D01*
X71698Y258178D01*
X71731Y258191D01*
X71843Y258272D01*
X71958Y258347D01*
X71983Y258373D01*
X72011Y258394D01*
X72102Y258498D01*
X72197Y258597D01*
X72215Y258628D01*
X72238Y258655D01*
X72302Y258777D01*
X72372Y258895D01*
X72382Y258929D01*
X72399Y258961D01*
X72433Y259094D01*
X72474Y259226D01*
X72476Y259261D01*
X72485Y259296D01*
X72499Y259500D01*
X72499Y266041D01*
X74646Y266041D01*
X74681Y266045D01*
X74717Y266042D01*
X74853Y266065D01*
X74989Y266081D01*
X75023Y266093D01*
X75058Y266098D01*
X75185Y266151D01*
X75315Y266198D01*
X75344Y266217D01*
X75377Y266231D01*
X75489Y266312D01*
X75604Y266387D01*
X75629Y266413D01*
X75657Y266433D01*
X75748Y266537D01*
X75843Y266637D01*
X75861Y266668D01*
X75884Y266694D01*
X75948Y266817D01*
X76018Y266935D01*
X76028Y266969D01*
X76045Y267001D01*
X76079Y267134D01*
X76120Y267266D01*
X76122Y267301D01*
X76131Y267335D01*
X76145Y267540D01*
X76145Y269566D01*
X76129Y269704D01*
X76119Y269844D01*
X76109Y269876D01*
X76105Y269910D01*
X76058Y270040D01*
X76017Y270174D01*
X75999Y270203D01*
X75988Y270235D01*
X75912Y270352D01*
X75841Y270472D01*
X75811Y270506D01*
X75799Y270524D01*
X75775Y270548D01*
X75706Y270626D01*
X71796Y274536D01*
X71687Y274623D01*
X71582Y274714D01*
X71552Y274730D01*
X71525Y274751D01*
X71399Y274810D01*
X71276Y274875D01*
X71243Y274883D01*
X71212Y274898D01*
X71076Y274926D01*
X70941Y274961D01*
X70896Y274964D01*
X70874Y274969D01*
X70840Y274968D01*
X70736Y274975D01*
X63868Y274975D01*
X62975Y275868D01*
X62975Y287132D01*
X63868Y288025D01*
X76132Y288025D01*
X77025Y287132D01*
X77025Y278484D01*
X77041Y278346D01*
X77051Y278206D01*
X77061Y278174D01*
X77065Y278140D01*
X77112Y278010D01*
X77153Y277876D01*
X77171Y277847D01*
X77182Y277815D01*
X77258Y277698D01*
X77329Y277578D01*
X77359Y277544D01*
X77371Y277526D01*
X77395Y277502D01*
X77464Y277424D01*
X79984Y274904D01*
X80093Y274817D01*
X80198Y274726D01*
X80228Y274710D01*
X80255Y274689D01*
X80381Y274630D01*
X80504Y274565D01*
X80537Y274557D01*
X80568Y274542D01*
X80704Y274514D01*
X80839Y274479D01*
X80884Y274476D01*
X80906Y274471D01*
X80940Y274472D01*
X81044Y274465D01*
X86344Y274465D01*
X86482Y274481D01*
X86622Y274491D01*
X86654Y274501D01*
X86688Y274505D01*
X86818Y274552D01*
X86952Y274593D01*
X86981Y274611D01*
X87013Y274622D01*
X87130Y274698D01*
X87250Y274769D01*
X87284Y274799D01*
X87302Y274811D01*
X87326Y274835D01*
X87404Y274904D01*
X105036Y292536D01*
X105123Y292645D01*
X105214Y292750D01*
X105230Y292780D01*
X105251Y292807D01*
X105310Y292933D01*
X105375Y293056D01*
X105383Y293089D01*
X105398Y293120D01*
X105426Y293256D01*
X105461Y293391D01*
X105464Y293436D01*
X105469Y293458D01*
X105468Y293492D01*
X105475Y293596D01*
X105475Y295732D01*
X105534Y295790D01*
X105556Y295818D01*
X105582Y295841D01*
X105663Y295953D01*
X105748Y296061D01*
X105763Y296093D01*
X105784Y296122D01*
X105837Y296250D01*
X105895Y296374D01*
X105902Y296408D01*
X105916Y296441D01*
X105938Y296578D01*
X105966Y296712D01*
X105966Y296748D01*
X105971Y296783D01*
X105961Y296920D01*
X105958Y297058D01*
X105949Y297092D01*
X105947Y297128D01*
X105906Y297259D01*
X105871Y297392D01*
X105855Y297424D01*
X105844Y297458D01*
X105774Y297576D01*
X105710Y297698D01*
X105686Y297725D01*
X105668Y297755D01*
X105534Y297910D01*
X105475Y297968D01*
X105475Y301158D01*
X105463Y301262D01*
X105461Y301366D01*
X105443Y301433D01*
X105435Y301502D01*
X105400Y301600D01*
X105374Y301701D01*
X105341Y301762D01*
X105318Y301827D01*
X105261Y301914D01*
X105212Y302006D01*
X105167Y302058D01*
X105129Y302116D01*
X105054Y302188D01*
X104985Y302267D01*
X104929Y302307D01*
X104879Y302355D01*
X104789Y302408D01*
X104704Y302469D01*
X104640Y302495D01*
X104581Y302530D01*
X104481Y302561D01*
X104385Y302601D01*
X104316Y302612D01*
X104250Y302632D01*
X104146Y302639D01*
X104043Y302656D01*
X103974Y302651D01*
X103905Y302656D01*
X103803Y302639D01*
X103698Y302632D01*
X103632Y302611D01*
X103564Y302600D01*
X103468Y302560D01*
X103368Y302529D01*
X103309Y302494D01*
X103245Y302467D01*
X103160Y302406D01*
X103071Y302353D01*
X102992Y302285D01*
X102965Y302265D01*
X102950Y302248D01*
X102916Y302218D01*
X96257Y295559D01*
X78524Y295559D01*
X78489Y295555D01*
X78453Y295558D01*
X78317Y295535D01*
X78181Y295519D01*
X78147Y295507D01*
X78112Y295502D01*
X77985Y295449D01*
X77855Y295402D01*
X77826Y295383D01*
X77793Y295369D01*
X77681Y295288D01*
X77566Y295213D01*
X77541Y295187D01*
X77513Y295167D01*
X77422Y295063D01*
X77327Y294963D01*
X77309Y294932D01*
X77286Y294906D01*
X77222Y294783D01*
X77152Y294665D01*
X77142Y294631D01*
X77125Y294599D01*
X77091Y294466D01*
X77050Y294334D01*
X77048Y294299D01*
X77039Y294265D01*
X77025Y294060D01*
X77025Y292868D01*
X76132Y291975D01*
X63868Y291975D01*
X62975Y292868D01*
X62975Y304132D01*
X63868Y305025D01*
X76132Y305025D01*
X77025Y304132D01*
X77025Y303108D01*
X77029Y303073D01*
X77026Y303037D01*
X77049Y302901D01*
X77065Y302765D01*
X77077Y302731D01*
X77082Y302696D01*
X77135Y302569D01*
X77182Y302439D01*
X77201Y302410D01*
X77215Y302377D01*
X77296Y302265D01*
X77371Y302150D01*
X77397Y302125D01*
X77417Y302097D01*
X77521Y302006D01*
X77621Y301911D01*
X77652Y301893D01*
X77678Y301870D01*
X77801Y301806D01*
X77919Y301736D01*
X77953Y301726D01*
X77985Y301709D01*
X78118Y301675D01*
X78250Y301634D01*
X78285Y301632D01*
X78319Y301623D01*
X78524Y301609D01*
X93130Y301609D01*
X93268Y301625D01*
X93408Y301635D01*
X93440Y301645D01*
X93474Y301649D01*
X93604Y301696D01*
X93738Y301737D01*
X93767Y301755D01*
X93799Y301766D01*
X93916Y301842D01*
X94036Y301913D01*
X94070Y301943D01*
X94088Y301955D01*
X94112Y301979D01*
X94190Y302048D01*
X102830Y310688D01*
X102895Y310770D01*
X102966Y310844D01*
X102984Y310875D01*
X103008Y310902D01*
X103024Y310932D01*
X103045Y310959D01*
X103090Y311055D01*
X103141Y311143D01*
X103151Y311175D01*
X103169Y311208D01*
X103177Y311241D01*
X103192Y311272D01*
X103214Y311378D01*
X103243Y311473D01*
X103246Y311506D01*
X103255Y311543D01*
X103258Y311588D01*
X103263Y311610D01*
X103262Y311644D01*
X103269Y311748D01*
X103269Y313212D01*
X104077Y315162D01*
X105570Y316655D01*
X107520Y317463D01*
X109632Y317463D01*
X111582Y316655D01*
X113075Y315162D01*
X113883Y313212D01*
X113883Y311100D01*
X113075Y309150D01*
X112609Y308684D01*
X112544Y308602D01*
X112472Y308527D01*
X112437Y308467D01*
X112394Y308413D01*
X112350Y308319D01*
X112297Y308229D01*
X112277Y308163D01*
X112247Y308100D01*
X112226Y307998D01*
X112195Y307898D01*
X112190Y307829D01*
X112176Y307762D01*
X112179Y307658D01*
X112171Y307553D01*
X112183Y307485D01*
X112184Y307416D01*
X112211Y307315D01*
X112227Y307212D01*
X112254Y307149D01*
X112271Y307082D01*
X112320Y306989D01*
X112360Y306893D01*
X112401Y306837D01*
X112433Y306776D01*
X112501Y306697D01*
X112562Y306613D01*
X112615Y306567D01*
X112660Y306515D01*
X112745Y306454D01*
X112824Y306386D01*
X112885Y306354D01*
X112941Y306313D01*
X113037Y306274D01*
X113130Y306225D01*
X113197Y306208D01*
X113260Y306182D01*
X113363Y306165D01*
X113464Y306139D01*
X113568Y306132D01*
X113602Y306126D01*
X113624Y306128D01*
X113669Y306125D01*
X122632Y306125D01*
X123525Y305232D01*
X123525Y297968D01*
X123466Y297910D01*
X123444Y297882D01*
X123418Y297859D01*
X123337Y297747D01*
X123252Y297639D01*
X123237Y297607D01*
X123216Y297578D01*
X123164Y297451D01*
X123105Y297326D01*
X123098Y297291D01*
X123084Y297259D01*
X123062Y297122D01*
X123034Y296988D01*
X123034Y296952D01*
X123029Y296917D01*
X123039Y296780D01*
X123042Y296642D01*
X123051Y296608D01*
X123053Y296572D01*
X123094Y296441D01*
X123129Y296308D01*
X123145Y296276D01*
X123156Y296242D01*
X123226Y296123D01*
X123290Y296002D01*
X123314Y295975D01*
X123332Y295944D01*
X123466Y295790D01*
X123830Y295426D01*
X123871Y295364D01*
X123897Y295339D01*
X123917Y295311D01*
X124021Y295220D01*
X124121Y295125D01*
X124152Y295107D01*
X124178Y295084D01*
X124301Y295020D01*
X124419Y294950D01*
X124453Y294940D01*
X124485Y294923D01*
X124618Y294889D01*
X124750Y294848D01*
X124785Y294846D01*
X124819Y294837D01*
X125024Y294823D01*
X128976Y294823D01*
X129011Y294827D01*
X129047Y294824D01*
X129183Y294847D01*
X129319Y294863D01*
X129353Y294875D01*
X129388Y294880D01*
X129515Y294933D01*
X129645Y294980D01*
X129674Y294999D01*
X129707Y295013D01*
X129819Y295094D01*
X129934Y295169D01*
X129959Y295195D01*
X129987Y295215D01*
X130078Y295319D01*
X130173Y295419D01*
X130187Y295444D01*
X130534Y295790D01*
X130556Y295818D01*
X130582Y295841D01*
X130663Y295953D01*
X130748Y296061D01*
X130763Y296093D01*
X130784Y296122D01*
X130837Y296250D01*
X130895Y296374D01*
X130902Y296408D01*
X130916Y296441D01*
X130938Y296578D01*
X130966Y296712D01*
X130966Y296748D01*
X130971Y296783D01*
X130961Y296920D01*
X130958Y297058D01*
X130949Y297092D01*
X130947Y297128D01*
X130906Y297259D01*
X130871Y297392D01*
X130855Y297424D01*
X130844Y297458D01*
X130774Y297576D01*
X130710Y297698D01*
X130686Y297725D01*
X130668Y297755D01*
X130534Y297910D01*
X130475Y297968D01*
X130475Y305232D01*
X131368Y306125D01*
X147632Y306125D01*
X148525Y305232D01*
X148525Y297968D01*
X148466Y297910D01*
X148444Y297882D01*
X148418Y297859D01*
X148337Y297747D01*
X148252Y297639D01*
X148237Y297607D01*
X148216Y297578D01*
X148164Y297451D01*
X148105Y297326D01*
X148098Y297291D01*
X148084Y297259D01*
X148062Y297122D01*
X148034Y296988D01*
X148034Y296952D01*
X148029Y296917D01*
X148039Y296780D01*
X148042Y296642D01*
X148051Y296608D01*
X148053Y296572D01*
X148094Y296441D01*
X148129Y296308D01*
X148145Y296276D01*
X148156Y296242D01*
X148226Y296123D01*
X148290Y296002D01*
X148314Y295975D01*
X148332Y295944D01*
X148466Y295790D01*
X148525Y295732D01*
X148525Y292142D01*
X148537Y292038D01*
X148539Y291934D01*
X148557Y291867D01*
X148565Y291798D01*
X148600Y291700D01*
X148626Y291599D01*
X148659Y291538D01*
X148682Y291473D01*
X148739Y291386D01*
X148788Y291294D01*
X148833Y291242D01*
X148871Y291184D01*
X148946Y291112D01*
X149015Y291033D01*
X149071Y290993D01*
X149121Y290945D01*
X149211Y290892D01*
X149296Y290831D01*
X149360Y290805D01*
X149419Y290770D01*
X149519Y290739D01*
X149615Y290699D01*
X149684Y290688D01*
X149750Y290668D01*
X149854Y290661D01*
X149957Y290644D01*
X150026Y290649D01*
X150095Y290644D01*
X150197Y290661D01*
X150302Y290668D01*
X150368Y290689D01*
X150436Y290700D01*
X150532Y290740D01*
X150632Y290771D01*
X150691Y290806D01*
X150755Y290833D01*
X150840Y290894D01*
X150929Y290947D01*
X151008Y291015D01*
X151035Y291035D01*
X151050Y291052D01*
X151084Y291082D01*
X157087Y297085D01*
X160602Y297085D01*
X160637Y297089D01*
X160673Y297086D01*
X160809Y297109D01*
X160945Y297125D01*
X160979Y297137D01*
X161014Y297142D01*
X161141Y297195D01*
X161271Y297242D01*
X161300Y297261D01*
X161333Y297275D01*
X161445Y297356D01*
X161560Y297431D01*
X161585Y297457D01*
X161613Y297477D01*
X161704Y297581D01*
X161799Y297681D01*
X161817Y297712D01*
X161840Y297738D01*
X161904Y297861D01*
X161974Y297979D01*
X161984Y298013D01*
X162001Y298045D01*
X162035Y298178D01*
X162076Y298310D01*
X162078Y298345D01*
X162087Y298379D01*
X162101Y298584D01*
X162101Y330876D01*
X162097Y330911D01*
X162100Y330947D01*
X162077Y331083D01*
X162061Y331219D01*
X162049Y331253D01*
X162044Y331288D01*
X161991Y331415D01*
X161944Y331545D01*
X161925Y331574D01*
X161911Y331607D01*
X161830Y331719D01*
X161755Y331834D01*
X161729Y331859D01*
X161709Y331887D01*
X161605Y331978D01*
X161505Y332073D01*
X161474Y332091D01*
X161448Y332114D01*
X161325Y332178D01*
X161207Y332248D01*
X161173Y332258D01*
X161141Y332275D01*
X161008Y332309D01*
X160876Y332350D01*
X160841Y332352D01*
X160807Y332361D01*
X160602Y332375D01*
X155468Y332375D01*
X154575Y333268D01*
X154575Y352532D01*
X155468Y353425D01*
X174732Y353425D01*
X175625Y352532D01*
X175625Y333268D01*
X174732Y332375D01*
X169650Y332375D01*
X169615Y332371D01*
X169579Y332374D01*
X169443Y332351D01*
X169307Y332335D01*
X169273Y332323D01*
X169238Y332318D01*
X169111Y332265D01*
X168981Y332218D01*
X168952Y332199D01*
X168919Y332185D01*
X168807Y332104D01*
X168692Y332029D01*
X168667Y332003D01*
X168639Y331983D01*
X168548Y331879D01*
X168453Y331779D01*
X168435Y331748D01*
X168412Y331722D01*
X168348Y331599D01*
X168278Y331481D01*
X168268Y331447D01*
X168251Y331415D01*
X168217Y331282D01*
X168176Y331150D01*
X168174Y331115D01*
X168165Y331081D01*
X168151Y330876D01*
X168151Y301727D01*
X168163Y301623D01*
X168165Y301518D01*
X168183Y301452D01*
X168191Y301383D01*
X168226Y301285D01*
X168252Y301184D01*
X168285Y301123D01*
X168308Y301058D01*
X168365Y300970D01*
X168414Y300878D01*
X168459Y300826D01*
X168497Y300768D01*
X168572Y300696D01*
X168641Y300617D01*
X168697Y300577D01*
X168747Y300530D01*
X168837Y300477D01*
X168922Y300416D01*
X168986Y300390D01*
X169045Y300355D01*
X169145Y300324D01*
X169242Y300284D01*
X169310Y300273D01*
X169376Y300253D01*
X169480Y300245D01*
X169583Y300229D01*
X169652Y300234D01*
X169721Y300229D01*
X169824Y300246D01*
X169928Y300253D01*
X169994Y300274D01*
X170062Y300285D01*
X170158Y300325D01*
X179632Y300325D01*
X180525Y299432D01*
X180525Y290168D01*
X179632Y289275D01*
X170368Y289275D01*
X169048Y290596D01*
X168938Y290683D01*
X168833Y290774D01*
X168803Y290790D01*
X168777Y290811D01*
X168651Y290870D01*
X168527Y290935D01*
X168494Y290943D01*
X168464Y290958D01*
X168327Y290986D01*
X168192Y291021D01*
X168147Y291024D01*
X168125Y291029D01*
X168092Y291028D01*
X167987Y291035D01*
X160214Y291035D01*
X160076Y291019D01*
X159936Y291009D01*
X159904Y290999D01*
X159870Y290995D01*
X159740Y290948D01*
X159606Y290907D01*
X159577Y290889D01*
X159545Y290878D01*
X159428Y290802D01*
X159308Y290731D01*
X159274Y290701D01*
X159256Y290689D01*
X159232Y290665D01*
X159154Y290596D01*
X148964Y280406D01*
X148877Y280297D01*
X148786Y280192D01*
X148770Y280162D01*
X148749Y280135D01*
X148690Y280009D01*
X148625Y279886D01*
X148617Y279853D01*
X148602Y279822D01*
X148574Y279686D01*
X148539Y279551D01*
X148536Y279506D01*
X148531Y279484D01*
X148532Y279450D01*
X148525Y279346D01*
X148525Y278968D01*
X147632Y278075D01*
X131368Y278075D01*
X130475Y278968D01*
X130475Y286236D01*
X130522Y286296D01*
X130594Y286371D01*
X130629Y286431D01*
X130672Y286485D01*
X130717Y286579D01*
X130769Y286669D01*
X130790Y286735D01*
X130819Y286798D01*
X130841Y286900D01*
X130871Y287000D01*
X130876Y287069D01*
X130890Y287136D01*
X130888Y287240D01*
X130895Y287345D01*
X130884Y287413D01*
X130882Y287482D01*
X130856Y287583D01*
X130839Y287686D01*
X130813Y287749D01*
X130795Y287816D01*
X130746Y287909D01*
X130706Y288005D01*
X130666Y288061D01*
X130634Y288122D01*
X130565Y288201D01*
X130504Y288285D01*
X130452Y288331D01*
X130407Y288383D01*
X130322Y288444D01*
X130243Y288512D01*
X130182Y288544D01*
X130126Y288585D01*
X130029Y288624D01*
X129937Y288673D01*
X129870Y288690D01*
X129806Y288716D01*
X129703Y288733D01*
X129602Y288759D01*
X129498Y288766D01*
X129465Y288772D01*
X129442Y288770D01*
X129397Y288773D01*
X124603Y288773D01*
X124499Y288761D01*
X124395Y288759D01*
X124328Y288741D01*
X124259Y288733D01*
X124161Y288698D01*
X124060Y288672D01*
X123999Y288639D01*
X123934Y288616D01*
X123846Y288559D01*
X123754Y288510D01*
X123702Y288465D01*
X123644Y288427D01*
X123572Y288352D01*
X123494Y288283D01*
X123453Y288227D01*
X123406Y288177D01*
X123353Y288087D01*
X123292Y288002D01*
X123266Y287938D01*
X123231Y287879D01*
X123200Y287779D01*
X123160Y287683D01*
X123149Y287614D01*
X123129Y287548D01*
X123121Y287444D01*
X123105Y287341D01*
X123110Y287272D01*
X123105Y287203D01*
X123122Y287100D01*
X123129Y286996D01*
X123150Y286930D01*
X123161Y286862D01*
X123201Y286766D01*
X123232Y286666D01*
X123267Y286607D01*
X123294Y286543D01*
X123355Y286458D01*
X123408Y286368D01*
X123476Y286290D01*
X123496Y286263D01*
X123513Y286248D01*
X123525Y286234D01*
X123525Y278968D01*
X122632Y278075D01*
X115934Y278075D01*
X115819Y278062D01*
X115703Y278057D01*
X115648Y278042D01*
X115591Y278035D01*
X115482Y277996D01*
X115370Y277965D01*
X115320Y277937D01*
X115266Y277918D01*
X115168Y277854D01*
X115072Y277802D01*
X115037Y277794D01*
X114884Y277744D01*
X114727Y277696D01*
X114718Y277690D01*
X114708Y277687D01*
X114570Y277603D01*
X114429Y277520D01*
X114419Y277511D01*
X114413Y277507D01*
X114398Y277493D01*
X114275Y277385D01*
X105254Y268364D01*
X105167Y268255D01*
X105076Y268150D01*
X105060Y268120D01*
X105039Y268093D01*
X104980Y267967D01*
X104915Y267844D01*
X104907Y267811D01*
X104892Y267780D01*
X104864Y267644D01*
X104829Y267509D01*
X104826Y267464D01*
X104821Y267442D01*
X104822Y267408D01*
X104815Y267304D01*
X104815Y266524D01*
X104819Y266489D01*
X104816Y266453D01*
X104839Y266317D01*
X104855Y266181D01*
X104867Y266147D01*
X104872Y266112D01*
X104925Y265985D01*
X104972Y265855D01*
X104991Y265826D01*
X105005Y265793D01*
X105086Y265681D01*
X105161Y265566D01*
X105187Y265541D01*
X105207Y265513D01*
X105311Y265422D01*
X105411Y265327D01*
X105442Y265309D01*
X105468Y265286D01*
X105591Y265222D01*
X105709Y265152D01*
X105743Y265142D01*
X105775Y265125D01*
X105908Y265091D01*
X106040Y265050D01*
X106075Y265048D01*
X106109Y265039D01*
X106118Y265038D01*
X107025Y264132D01*
X107025Y257532D01*
X107041Y257394D01*
X107051Y257254D01*
X107061Y257222D01*
X107065Y257188D01*
X107112Y257058D01*
X107153Y256924D01*
X107171Y256895D01*
X107182Y256863D01*
X107258Y256746D01*
X107329Y256626D01*
X107359Y256592D01*
X107371Y256574D01*
X107395Y256550D01*
X107464Y256472D01*
X114302Y249634D01*
X114330Y249612D01*
X114353Y249585D01*
X114409Y249545D01*
X114459Y249497D01*
X114519Y249462D01*
X114573Y249419D01*
X114605Y249404D01*
X114634Y249383D01*
X114697Y249357D01*
X114757Y249322D01*
X114823Y249302D01*
X114886Y249272D01*
X114921Y249265D01*
X114953Y249251D01*
X115021Y249240D01*
X115088Y249220D01*
X115157Y249215D01*
X115224Y249201D01*
X115260Y249202D01*
X115295Y249196D01*
X115363Y249201D01*
X115433Y249196D01*
X115501Y249207D01*
X115570Y249209D01*
X115605Y249218D01*
X115640Y249221D01*
X115705Y249241D01*
X115774Y249252D01*
X115838Y249279D01*
X115904Y249296D01*
X115936Y249313D01*
X115970Y249323D01*
X116029Y249358D01*
X116093Y249385D01*
X116149Y249425D01*
X116210Y249458D01*
X116237Y249481D01*
X116267Y249499D01*
X116346Y249567D01*
X116373Y249587D01*
X116388Y249604D01*
X116422Y249634D01*
X123036Y256248D01*
X123123Y256357D01*
X123214Y256462D01*
X123230Y256492D01*
X123251Y256519D01*
X123310Y256645D01*
X123375Y256768D01*
X123383Y256801D01*
X123398Y256832D01*
X123426Y256968D01*
X123461Y257103D01*
X123464Y257148D01*
X123469Y257170D01*
X123468Y257204D01*
X123475Y257308D01*
X123475Y260690D01*
X123459Y260828D01*
X123449Y260968D01*
X123439Y261000D01*
X123435Y261034D01*
X123388Y261164D01*
X123347Y261298D01*
X123329Y261327D01*
X123318Y261359D01*
X123242Y261476D01*
X123171Y261596D01*
X123141Y261630D01*
X123129Y261648D01*
X123105Y261672D01*
X123036Y261750D01*
X121354Y263432D01*
X121245Y263519D01*
X121140Y263610D01*
X121110Y263626D01*
X121083Y263647D01*
X120957Y263706D01*
X120834Y263771D01*
X120801Y263779D01*
X120770Y263794D01*
X120634Y263822D01*
X120499Y263857D01*
X120454Y263860D01*
X120432Y263865D01*
X120398Y263864D01*
X120294Y263871D01*
X118830Y263871D01*
X116880Y264679D01*
X115387Y266172D01*
X114579Y268122D01*
X114579Y270234D01*
X115387Y272184D01*
X116880Y273677D01*
X118830Y274485D01*
X120942Y274485D01*
X122892Y273677D01*
X124385Y272184D01*
X125193Y270234D01*
X125193Y268770D01*
X125209Y268632D01*
X125219Y268492D01*
X125229Y268460D01*
X125233Y268426D01*
X125280Y268296D01*
X125321Y268162D01*
X125339Y268133D01*
X125350Y268101D01*
X125426Y267984D01*
X125497Y267864D01*
X125527Y267830D01*
X125539Y267812D01*
X125563Y267788D01*
X125632Y267710D01*
X127378Y265964D01*
X127487Y265877D01*
X127592Y265786D01*
X127622Y265770D01*
X127649Y265749D01*
X127775Y265690D01*
X127898Y265625D01*
X127931Y265617D01*
X127962Y265602D01*
X128098Y265574D01*
X128233Y265539D01*
X128278Y265536D01*
X128300Y265531D01*
X128334Y265532D01*
X128438Y265525D01*
X135632Y265525D01*
X136525Y264632D01*
X136525Y252368D01*
X135805Y251648D01*
X135768Y251603D01*
X135726Y251563D01*
X135661Y251467D01*
X135590Y251377D01*
X135565Y251324D01*
X135533Y251276D01*
X135492Y251168D01*
X135443Y251064D01*
X135431Y251007D01*
X135410Y250952D01*
X135396Y250839D01*
X135372Y250726D01*
X135373Y250668D01*
X135366Y250610D01*
X135377Y250495D01*
X135380Y250380D01*
X135395Y250324D01*
X135401Y250266D01*
X135438Y250157D01*
X135467Y250046D01*
X135495Y249994D01*
X135514Y249939D01*
X135575Y249842D01*
X135629Y249740D01*
X135667Y249696D01*
X135698Y249647D01*
X135780Y249566D01*
X135856Y249479D01*
X135903Y249445D01*
X135945Y249404D01*
X136115Y249290D01*
X136560Y249033D01*
X137033Y248560D01*
X137368Y247981D01*
X137541Y247335D01*
X137541Y243999D01*
X131000Y243999D01*
X130965Y243995D01*
X130930Y243998D01*
X130794Y243975D01*
X130657Y243959D01*
X130623Y243947D01*
X130588Y243942D01*
X130461Y243889D01*
X130332Y243842D01*
X130302Y243823D01*
X130269Y243809D01*
X130157Y243728D01*
X130042Y243653D01*
X130018Y243627D01*
X129989Y243607D01*
X129898Y243503D01*
X129803Y243403D01*
X129785Y243372D01*
X129762Y243346D01*
X129698Y243223D01*
X129628Y243105D01*
X129618Y243071D01*
X129601Y243039D01*
X129567Y242906D01*
X129526Y242774D01*
X129524Y242739D01*
X129515Y242705D01*
X129501Y242500D01*
X129501Y241999D01*
X129000Y241999D01*
X128965Y241995D01*
X128929Y241997D01*
X128793Y241975D01*
X128657Y241959D01*
X128623Y241947D01*
X128588Y241941D01*
X128461Y241889D01*
X128331Y241842D01*
X128302Y241822D01*
X128269Y241809D01*
X128157Y241728D01*
X128042Y241653D01*
X128017Y241627D01*
X127989Y241606D01*
X127898Y241502D01*
X127803Y241403D01*
X127785Y241372D01*
X127762Y241345D01*
X127698Y241223D01*
X127628Y241105D01*
X127618Y241071D01*
X127601Y241039D01*
X127567Y240906D01*
X127526Y240774D01*
X127524Y240739D01*
X127515Y240704D01*
X127501Y240500D01*
X127501Y233459D01*
X124557Y233459D01*
X124456Y233474D01*
X124398Y233469D01*
X124339Y233473D01*
X124226Y233455D01*
X124112Y233445D01*
X124056Y233427D01*
X123998Y233417D01*
X123892Y233373D01*
X123783Y233338D01*
X123733Y233307D01*
X123679Y233285D01*
X123586Y233217D01*
X123488Y233158D01*
X123446Y233117D01*
X123399Y233082D01*
X123323Y232996D01*
X123242Y232915D01*
X123210Y232866D01*
X123172Y232821D01*
X123119Y232719D01*
X123057Y232623D01*
X123038Y232567D01*
X123011Y232515D01*
X122982Y232404D01*
X122945Y232295D01*
X122939Y232237D01*
X122925Y232180D01*
X122911Y231976D01*
X122911Y198668D01*
X122927Y198530D01*
X122937Y198390D01*
X122947Y198358D01*
X122951Y198324D01*
X122998Y198194D01*
X123039Y198060D01*
X123057Y198031D01*
X123068Y197999D01*
X123144Y197882D01*
X123215Y197762D01*
X123245Y197728D01*
X123257Y197710D01*
X123281Y197686D01*
X123350Y197608D01*
X138745Y182213D01*
X138745Y163441D01*
X138757Y163337D01*
X138759Y163233D01*
X138777Y163166D01*
X138785Y163098D01*
X138820Y163000D01*
X138846Y162899D01*
X138879Y162837D01*
X138902Y162772D01*
X138959Y162685D01*
X139008Y162593D01*
X139053Y162541D01*
X139091Y162483D01*
X139166Y162411D01*
X139235Y162332D01*
X139291Y162292D01*
X139341Y162244D01*
X139431Y162191D01*
X139516Y162131D01*
X139580Y162104D01*
X139639Y162069D01*
X139739Y162038D01*
X139835Y161999D01*
X139904Y161988D01*
X139970Y161967D01*
X140074Y161960D01*
X140177Y161943D01*
X140246Y161948D01*
X140315Y161943D01*
X140417Y161960D01*
X140522Y161968D01*
X140588Y161988D01*
X140656Y161999D01*
X140752Y162039D01*
X140852Y162071D01*
X140911Y162106D01*
X140975Y162132D01*
X141060Y162193D01*
X141149Y162246D01*
X141228Y162315D01*
X141255Y162334D01*
X141270Y162351D01*
X141304Y162381D01*
X141762Y162839D01*
X143712Y163647D01*
X145824Y163647D01*
X147774Y162839D01*
X149267Y161346D01*
X150075Y159396D01*
X150075Y157284D01*
X149267Y155334D01*
X148232Y154299D01*
X148145Y154190D01*
X148054Y154084D01*
X148038Y154054D01*
X148017Y154028D01*
X147958Y153902D01*
X147893Y153778D01*
X147885Y153746D01*
X147870Y153715D01*
X147842Y153579D01*
X147807Y153444D01*
X147804Y153398D01*
X147799Y153377D01*
X147800Y153343D01*
X147793Y153239D01*
X147793Y65524D01*
X147797Y65489D01*
X147794Y65453D01*
X147817Y65317D01*
X147833Y65181D01*
X147845Y65147D01*
X147850Y65112D01*
X147903Y64985D01*
X147950Y64855D01*
X147969Y64826D01*
X147983Y64793D01*
X148064Y64681D01*
X148139Y64566D01*
X148165Y64541D01*
X148185Y64513D01*
X148289Y64422D01*
X148389Y64327D01*
X148420Y64309D01*
X148446Y64286D01*
X148569Y64222D01*
X148687Y64152D01*
X148721Y64142D01*
X148753Y64125D01*
X148886Y64091D01*
X149018Y64050D01*
X149053Y64048D01*
X149087Y64039D01*
X149292Y64025D01*
X165632Y64025D01*
X166525Y63132D01*
X166525Y55868D01*
X166466Y55810D01*
X166444Y55782D01*
X166418Y55759D01*
X166337Y55647D01*
X166252Y55539D01*
X166237Y55507D01*
X166216Y55478D01*
X166164Y55351D01*
X166105Y55226D01*
X166098Y55191D01*
X166084Y55159D01*
X166062Y55022D01*
X166034Y54888D01*
X166034Y54852D01*
X166029Y54817D01*
X166039Y54680D01*
X166042Y54542D01*
X166051Y54508D01*
X166053Y54472D01*
X166094Y54341D01*
X166129Y54208D01*
X166145Y54176D01*
X166156Y54142D01*
X166226Y54023D01*
X166290Y53902D01*
X166314Y53875D01*
X166332Y53844D01*
X166466Y53690D01*
X166928Y53228D01*
X167038Y53141D01*
X167143Y53050D01*
X167173Y53034D01*
X167200Y53013D01*
X167325Y52954D01*
X167449Y52889D01*
X167482Y52881D01*
X167513Y52866D01*
X167649Y52838D01*
X167784Y52803D01*
X167829Y52800D01*
X167851Y52795D01*
X167884Y52796D01*
X167989Y52789D01*
X172011Y52789D01*
X172150Y52805D01*
X172289Y52815D01*
X172321Y52825D01*
X172355Y52829D01*
X172486Y52876D01*
X172619Y52917D01*
X172648Y52935D01*
X172680Y52946D01*
X172797Y53022D01*
X172917Y53093D01*
X172951Y53123D01*
X172970Y53135D01*
X172993Y53159D01*
X173072Y53228D01*
X173534Y53690D01*
X173556Y53718D01*
X173582Y53741D01*
X173663Y53853D01*
X173748Y53961D01*
X173763Y53993D01*
X173784Y54022D01*
X173837Y54150D01*
X173895Y54274D01*
X173902Y54308D01*
X173916Y54341D01*
X173938Y54478D01*
X173966Y54612D01*
X173966Y54648D01*
X173971Y54683D01*
X173961Y54820D01*
X173958Y54958D01*
X173949Y54992D01*
X173947Y55028D01*
X173906Y55159D01*
X173871Y55292D01*
X173855Y55324D01*
X173844Y55358D01*
X173774Y55476D01*
X173710Y55598D01*
X173686Y55625D01*
X173668Y55655D01*
X173534Y55810D01*
X173475Y55868D01*
X173475Y63132D01*
X174368Y64025D01*
X181274Y64025D01*
X181412Y64041D01*
X181552Y64051D01*
X181584Y64061D01*
X181618Y64065D01*
X181748Y64112D01*
X181882Y64153D01*
X181911Y64171D01*
X181943Y64182D01*
X182060Y64258D01*
X182180Y64329D01*
X182214Y64359D01*
X182232Y64371D01*
X182256Y64395D01*
X182334Y64464D01*
X204640Y86770D01*
X204727Y86879D01*
X204818Y86984D01*
X204834Y87014D01*
X204855Y87041D01*
X204914Y87167D01*
X204979Y87290D01*
X204987Y87323D01*
X205002Y87354D01*
X205030Y87490D01*
X205065Y87625D01*
X205068Y87670D01*
X205073Y87692D01*
X205072Y87726D01*
X205079Y87830D01*
X205079Y105737D01*
X205067Y105841D01*
X205065Y105945D01*
X205047Y106012D01*
X205039Y106080D01*
X205004Y106178D01*
X204978Y106279D01*
X204945Y106341D01*
X204922Y106406D01*
X204865Y106493D01*
X204816Y106585D01*
X204771Y106637D01*
X204733Y106695D01*
X204658Y106767D01*
X204589Y106846D01*
X204533Y106886D01*
X204483Y106934D01*
X204393Y106987D01*
X204308Y107047D01*
X204244Y107074D01*
X204185Y107109D01*
X204085Y107140D01*
X203989Y107179D01*
X203920Y107190D01*
X203854Y107211D01*
X203750Y107218D01*
X203647Y107235D01*
X203578Y107230D01*
X203509Y107235D01*
X203407Y107218D01*
X203302Y107210D01*
X203236Y107190D01*
X203168Y107179D01*
X203072Y107139D01*
X202972Y107107D01*
X202913Y107072D01*
X202849Y107046D01*
X202764Y106985D01*
X202675Y106932D01*
X202596Y106863D01*
X202569Y106844D01*
X202554Y106827D01*
X202520Y106797D01*
X202062Y106339D01*
X200112Y105531D01*
X198000Y105531D01*
X196050Y106339D01*
X194557Y107832D01*
X193749Y109782D01*
X193749Y111894D01*
X194557Y113844D01*
X195592Y114879D01*
X195679Y114988D01*
X195770Y115094D01*
X195786Y115124D01*
X195807Y115150D01*
X195866Y115276D01*
X195931Y115400D01*
X195939Y115432D01*
X195954Y115463D01*
X195982Y115599D01*
X196017Y115734D01*
X196020Y115780D01*
X196025Y115801D01*
X196024Y115835D01*
X196031Y115939D01*
X196031Y120274D01*
X196015Y120412D01*
X196005Y120552D01*
X195995Y120584D01*
X195991Y120618D01*
X195944Y120748D01*
X195903Y120882D01*
X195885Y120911D01*
X195874Y120943D01*
X195798Y121060D01*
X195727Y121180D01*
X195697Y121214D01*
X195685Y121232D01*
X195661Y121256D01*
X195592Y121334D01*
X179924Y137002D01*
X179842Y137067D01*
X179767Y137139D01*
X179707Y137174D01*
X179653Y137217D01*
X179559Y137261D01*
X179469Y137314D01*
X179403Y137334D01*
X179340Y137364D01*
X179238Y137385D01*
X179138Y137416D01*
X179069Y137421D01*
X179002Y137435D01*
X178898Y137433D01*
X178793Y137440D01*
X178725Y137429D01*
X178656Y137427D01*
X178555Y137401D01*
X178452Y137384D01*
X178388Y137357D01*
X178322Y137340D01*
X178229Y137291D01*
X178133Y137251D01*
X178077Y137211D01*
X178016Y137178D01*
X177937Y137110D01*
X177853Y137049D01*
X177807Y136997D01*
X177755Y136951D01*
X177694Y136867D01*
X177626Y136788D01*
X177594Y136727D01*
X177553Y136670D01*
X177514Y136574D01*
X177465Y136482D01*
X177448Y136415D01*
X177421Y136351D01*
X177405Y136248D01*
X177379Y136147D01*
X177372Y136043D01*
X177366Y136010D01*
X177368Y135987D01*
X177365Y135942D01*
X177365Y119858D01*
X176472Y118965D01*
X157208Y118965D01*
X156315Y119858D01*
X156315Y139122D01*
X157208Y140015D01*
X173292Y140015D01*
X173396Y140027D01*
X173500Y140029D01*
X173567Y140047D01*
X173636Y140055D01*
X173734Y140090D01*
X173835Y140116D01*
X173896Y140149D01*
X173961Y140172D01*
X174048Y140229D01*
X174140Y140278D01*
X174192Y140323D01*
X174250Y140361D01*
X174322Y140436D01*
X174401Y140505D01*
X174441Y140561D01*
X174489Y140611D01*
X174542Y140701D01*
X174603Y140786D01*
X174629Y140850D01*
X174664Y140909D01*
X174695Y141009D01*
X174735Y141105D01*
X174746Y141174D01*
X174766Y141240D01*
X174773Y141344D01*
X174790Y141447D01*
X174785Y141516D01*
X174790Y141585D01*
X174773Y141687D01*
X174766Y141792D01*
X174745Y141858D01*
X174734Y141926D01*
X174694Y142022D01*
X174663Y142122D01*
X174628Y142181D01*
X174601Y142245D01*
X174540Y142330D01*
X174487Y142419D01*
X174419Y142498D01*
X174399Y142525D01*
X174382Y142540D01*
X174352Y142574D01*
X173100Y143826D01*
X172991Y143913D01*
X172886Y144004D01*
X172856Y144020D01*
X172829Y144041D01*
X172703Y144100D01*
X172580Y144165D01*
X172547Y144173D01*
X172516Y144188D01*
X172380Y144216D01*
X172245Y144251D01*
X172200Y144254D01*
X172178Y144259D01*
X172144Y144258D01*
X172040Y144265D01*
X157208Y144265D01*
X156315Y145158D01*
X156315Y164422D01*
X157208Y165315D01*
X176472Y165315D01*
X177365Y164422D01*
X177365Y148738D01*
X177381Y148600D01*
X177391Y148460D01*
X177401Y148428D01*
X177405Y148394D01*
X177452Y148264D01*
X177493Y148130D01*
X177511Y148101D01*
X177522Y148069D01*
X177598Y147952D01*
X177669Y147832D01*
X177699Y147798D01*
X177711Y147780D01*
X177735Y147756D01*
X177804Y147678D01*
X182162Y143320D01*
X182244Y143255D01*
X182319Y143183D01*
X182379Y143148D01*
X182433Y143105D01*
X182527Y143061D01*
X182617Y143008D01*
X182683Y142988D01*
X182746Y142958D01*
X182848Y142937D01*
X182948Y142906D01*
X183017Y142901D01*
X183084Y142887D01*
X183188Y142889D01*
X183293Y142882D01*
X183361Y142893D01*
X183430Y142895D01*
X183531Y142921D01*
X183634Y142938D01*
X183698Y142965D01*
X183764Y142982D01*
X183857Y143031D01*
X183953Y143071D01*
X184009Y143111D01*
X184070Y143144D01*
X184149Y143212D01*
X184233Y143273D01*
X184279Y143325D01*
X184331Y143371D01*
X184392Y143455D01*
X184460Y143534D01*
X184492Y143595D01*
X184533Y143652D01*
X184572Y143748D01*
X184621Y143840D01*
X184638Y143907D01*
X184665Y143971D01*
X184681Y144074D01*
X184707Y144175D01*
X184714Y144279D01*
X184720Y144312D01*
X184718Y144335D01*
X184721Y144380D01*
X184721Y297575D01*
X193279Y306133D01*
X207095Y306133D01*
X213442Y299786D01*
X213551Y299699D01*
X213656Y299608D01*
X213686Y299592D01*
X213713Y299571D01*
X213839Y299512D01*
X213962Y299447D01*
X213995Y299439D01*
X214026Y299424D01*
X214162Y299396D01*
X214297Y299361D01*
X214342Y299358D01*
X214364Y299353D01*
X214398Y299354D01*
X214502Y299347D01*
X218769Y299347D01*
X218908Y299363D01*
X219047Y299373D01*
X219079Y299383D01*
X219113Y299387D01*
X219244Y299434D01*
X219377Y299475D01*
X219406Y299493D01*
X219438Y299504D01*
X219555Y299580D01*
X219675Y299651D01*
X219709Y299681D01*
X219728Y299693D01*
X219751Y299717D01*
X219830Y299786D01*
X220368Y300325D01*
X227872Y300325D01*
X227976Y300337D01*
X228080Y300339D01*
X228147Y300357D01*
X228216Y300365D01*
X228314Y300400D01*
X228415Y300426D01*
X228476Y300459D01*
X228541Y300482D01*
X228628Y300539D01*
X228720Y300588D01*
X228772Y300633D01*
X228830Y300671D01*
X228902Y300746D01*
X228981Y300815D01*
X229021Y300871D01*
X229069Y300921D01*
X229122Y301011D01*
X229183Y301096D01*
X229209Y301160D01*
X229244Y301219D01*
X229275Y301319D01*
X229315Y301415D01*
X229326Y301484D01*
X229346Y301550D01*
X229353Y301654D01*
X229370Y301757D01*
X229365Y301826D01*
X229370Y301895D01*
X229353Y301997D01*
X229346Y302102D01*
X229325Y302168D01*
X229314Y302236D01*
X229274Y302332D01*
X229243Y302432D01*
X229208Y302491D01*
X229181Y302555D01*
X229120Y302640D01*
X229067Y302729D01*
X228999Y302808D01*
X228979Y302835D01*
X228962Y302850D01*
X228932Y302884D01*
X202766Y329050D01*
X200896Y330920D01*
X200787Y331007D01*
X200682Y331098D01*
X200652Y331114D01*
X200625Y331135D01*
X200499Y331194D01*
X200376Y331259D01*
X200343Y331267D01*
X200312Y331282D01*
X200176Y331310D01*
X200041Y331345D01*
X199996Y331348D01*
X199974Y331353D01*
X199940Y331352D01*
X199836Y331359D01*
X193499Y331359D01*
X193499Y341400D01*
X193495Y341435D01*
X193498Y341470D01*
X193475Y341607D01*
X193459Y341743D01*
X193447Y341777D01*
X193442Y341812D01*
X193389Y341939D01*
X193342Y342068D01*
X193322Y342098D01*
X193309Y342131D01*
X193228Y342243D01*
X193153Y342358D01*
X193127Y342383D01*
X193107Y342411D01*
X193002Y342502D01*
X192903Y342597D01*
X192872Y342615D01*
X192846Y342638D01*
X192723Y342702D01*
X192605Y342772D01*
X192571Y342782D01*
X192539Y342799D01*
X192406Y342833D01*
X192274Y342874D01*
X192239Y342876D01*
X192205Y342885D01*
X192000Y342899D01*
X190499Y342899D01*
X190499Y342901D01*
X192000Y342901D01*
X192035Y342905D01*
X192071Y342903D01*
X192207Y342925D01*
X192343Y342941D01*
X192377Y342953D01*
X192412Y342959D01*
X192539Y343011D01*
X192669Y343058D01*
X192698Y343078D01*
X192731Y343091D01*
X192843Y343172D01*
X192958Y343247D01*
X192983Y343273D01*
X193011Y343293D01*
X193102Y343398D01*
X193197Y343497D01*
X193215Y343528D01*
X193238Y343555D01*
X193302Y343677D01*
X193372Y343795D01*
X193382Y343829D01*
X193399Y343861D01*
X193433Y343994D01*
X193474Y344126D01*
X193476Y344161D01*
X193485Y344195D01*
X193499Y344400D01*
X193499Y354441D01*
X199056Y354441D01*
X199091Y354445D01*
X199127Y354442D01*
X199263Y354465D01*
X199399Y354481D01*
X199433Y354493D01*
X199468Y354498D01*
X199595Y354551D01*
X199725Y354598D01*
X199754Y354617D01*
X199787Y354631D01*
X199899Y354712D01*
X200014Y354787D01*
X200039Y354813D01*
X200067Y354833D01*
X200158Y354937D01*
X200253Y355037D01*
X200271Y355068D01*
X200294Y355094D01*
X200358Y355217D01*
X200428Y355335D01*
X200438Y355369D01*
X200455Y355401D01*
X200489Y355534D01*
X200530Y355666D01*
X200532Y355701D01*
X200541Y355735D01*
X200555Y355940D01*
X200555Y366832D01*
X200539Y366970D01*
X200529Y367110D01*
X200519Y367142D01*
X200515Y367176D01*
X200468Y367306D01*
X200427Y367440D01*
X200409Y367469D01*
X200398Y367501D01*
X200322Y367618D01*
X200251Y367738D01*
X200221Y367772D01*
X200209Y367790D01*
X200185Y367814D01*
X200116Y367892D01*
X187391Y380618D01*
X187363Y380640D01*
X187340Y380666D01*
X187227Y380747D01*
X187120Y380832D01*
X187088Y380847D01*
X187059Y380868D01*
X186931Y380921D01*
X186807Y380979D01*
X186772Y380987D01*
X186739Y381000D01*
X186603Y381022D01*
X186468Y381051D01*
X186433Y381050D01*
X186398Y381055D01*
X186260Y381046D01*
X186123Y381042D01*
X186088Y381033D01*
X186053Y381031D01*
X185921Y380990D01*
X185788Y380955D01*
X185757Y380939D01*
X185723Y380928D01*
X185604Y380858D01*
X185482Y380794D01*
X185456Y380771D01*
X185425Y380753D01*
X185270Y380618D01*
X182980Y378327D01*
X179619Y376935D01*
X175981Y376935D01*
X172620Y378327D01*
X170047Y380900D01*
X168655Y384261D01*
X168655Y403139D01*
X170047Y406500D01*
X172620Y409073D01*
X175981Y410465D01*
X179619Y410465D01*
X182980Y409073D01*
X185553Y406500D01*
X186945Y403139D01*
X186945Y390240D01*
X186961Y390102D01*
X186971Y389962D01*
X186981Y389930D01*
X186985Y389896D01*
X187032Y389766D01*
X187073Y389632D01*
X187091Y389603D01*
X187102Y389571D01*
X187178Y389454D01*
X187249Y389334D01*
X187279Y389300D01*
X187291Y389282D01*
X187315Y389258D01*
X187384Y389180D01*
X191496Y385068D01*
X191578Y385003D01*
X191653Y384931D01*
X191713Y384896D01*
X191767Y384853D01*
X191861Y384809D01*
X191951Y384756D01*
X192017Y384736D01*
X192080Y384706D01*
X192182Y384685D01*
X192282Y384654D01*
X192351Y384649D01*
X192418Y384635D01*
X192522Y384637D01*
X192627Y384630D01*
X192695Y384641D01*
X192764Y384643D01*
X192865Y384669D01*
X192968Y384686D01*
X193032Y384713D01*
X193098Y384730D01*
X193191Y384779D01*
X193287Y384819D01*
X193343Y384859D01*
X193404Y384892D01*
X193483Y384960D01*
X193567Y385021D01*
X193613Y385073D01*
X193665Y385119D01*
X193726Y385203D01*
X193794Y385282D01*
X193826Y385343D01*
X193867Y385400D01*
X193906Y385496D01*
X193955Y385588D01*
X193972Y385655D01*
X193999Y385719D01*
X194015Y385822D01*
X194041Y385923D01*
X194048Y386027D01*
X194054Y386060D01*
X194052Y386083D01*
X194055Y386128D01*
X194055Y403139D01*
X195447Y406500D01*
X198020Y409073D01*
X201381Y410465D01*
X205019Y410465D01*
X208380Y409073D01*
X210953Y406500D01*
X212345Y403139D01*
X212345Y384261D01*
X210953Y380900D01*
X208380Y378327D01*
X205019Y376935D01*
X203248Y376935D01*
X203144Y376923D01*
X203040Y376921D01*
X202973Y376903D01*
X202904Y376895D01*
X202806Y376860D01*
X202705Y376834D01*
X202644Y376801D01*
X202579Y376778D01*
X202492Y376721D01*
X202400Y376672D01*
X202348Y376627D01*
X202290Y376589D01*
X202218Y376514D01*
X202139Y376445D01*
X202099Y376389D01*
X202051Y376339D01*
X201998Y376249D01*
X201937Y376164D01*
X201911Y376100D01*
X201876Y376041D01*
X201845Y375941D01*
X201805Y375845D01*
X201794Y375776D01*
X201774Y375710D01*
X201767Y375606D01*
X201750Y375503D01*
X201755Y375434D01*
X201750Y375365D01*
X201767Y375263D01*
X201774Y375158D01*
X201795Y375092D01*
X201806Y375024D01*
X201846Y374928D01*
X201877Y374828D01*
X201912Y374769D01*
X201939Y374705D01*
X202000Y374620D01*
X202053Y374531D01*
X202121Y374452D01*
X202141Y374425D01*
X202158Y374410D01*
X202188Y374376D01*
X206605Y369959D01*
X206605Y354924D01*
X206609Y354889D01*
X206606Y354853D01*
X206629Y354717D01*
X206645Y354581D01*
X206657Y354547D01*
X206662Y354512D01*
X206715Y354385D01*
X206762Y354255D01*
X206781Y354226D01*
X206795Y354193D01*
X206876Y354081D01*
X206951Y353966D01*
X206977Y353941D01*
X206997Y353913D01*
X207101Y353822D01*
X207201Y353727D01*
X207232Y353709D01*
X207258Y353686D01*
X207381Y353622D01*
X207499Y353552D01*
X207533Y353542D01*
X207565Y353525D01*
X207698Y353491D01*
X207830Y353450D01*
X207865Y353448D01*
X207899Y353439D01*
X208104Y353425D01*
X225532Y353425D01*
X226425Y352532D01*
X226425Y333268D01*
X225532Y332375D01*
X211616Y332375D01*
X211512Y332363D01*
X211408Y332361D01*
X211341Y332343D01*
X211272Y332335D01*
X211174Y332300D01*
X211073Y332274D01*
X211012Y332241D01*
X210947Y332218D01*
X210860Y332161D01*
X210768Y332112D01*
X210716Y332067D01*
X210658Y332029D01*
X210586Y331954D01*
X210507Y331885D01*
X210467Y331829D01*
X210419Y331779D01*
X210366Y331689D01*
X210305Y331604D01*
X210279Y331540D01*
X210244Y331481D01*
X210213Y331381D01*
X210173Y331285D01*
X210162Y331216D01*
X210142Y331150D01*
X210135Y331046D01*
X210118Y330943D01*
X210123Y330874D01*
X210118Y330805D01*
X210135Y330703D01*
X210142Y330598D01*
X210163Y330532D01*
X210174Y330464D01*
X210214Y330368D01*
X210245Y330268D01*
X210280Y330209D01*
X210307Y330145D01*
X210368Y330060D01*
X210421Y329971D01*
X210489Y329892D01*
X210509Y329865D01*
X210526Y329850D01*
X210556Y329816D01*
X236011Y304361D01*
X236011Y282362D01*
X236027Y282224D01*
X236037Y282084D01*
X236047Y282052D01*
X236051Y282018D01*
X236098Y281888D01*
X236139Y281754D01*
X236157Y281725D01*
X236168Y281693D01*
X236244Y281576D01*
X236315Y281456D01*
X236345Y281422D01*
X236357Y281404D01*
X236381Y281380D01*
X236450Y281302D01*
X241916Y275836D01*
X241998Y275771D01*
X242073Y275699D01*
X242133Y275664D01*
X242187Y275621D01*
X242281Y275577D01*
X242371Y275524D01*
X242437Y275504D01*
X242500Y275474D01*
X242602Y275453D01*
X242702Y275422D01*
X242771Y275417D01*
X242838Y275403D01*
X242942Y275405D01*
X243047Y275398D01*
X243115Y275409D01*
X243184Y275411D01*
X243285Y275437D01*
X243388Y275454D01*
X243452Y275481D01*
X243518Y275498D01*
X243611Y275547D01*
X243707Y275587D01*
X243763Y275627D01*
X243824Y275660D01*
X243903Y275728D01*
X243987Y275789D01*
X244033Y275841D01*
X244085Y275887D01*
X244146Y275971D01*
X244214Y276050D01*
X244246Y276111D01*
X244287Y276168D01*
X244326Y276264D01*
X244375Y276356D01*
X244392Y276423D01*
X244418Y276487D01*
X244435Y276590D01*
X244461Y276691D01*
X244468Y276795D01*
X244474Y276828D01*
X244472Y276851D01*
X244475Y276896D01*
X244475Y282750D01*
X244471Y282785D01*
X244474Y282821D01*
X244451Y282957D01*
X244435Y283093D01*
X244423Y283127D01*
X244418Y283162D01*
X244365Y283289D01*
X244318Y283419D01*
X244299Y283448D01*
X244285Y283481D01*
X244204Y283593D01*
X244129Y283708D01*
X244103Y283733D01*
X244083Y283761D01*
X243979Y283852D01*
X243879Y283947D01*
X243848Y283965D01*
X243822Y283988D01*
X243699Y284052D01*
X243581Y284122D01*
X243547Y284132D01*
X243515Y284149D01*
X243382Y284183D01*
X243250Y284224D01*
X243215Y284226D01*
X243181Y284235D01*
X243048Y284244D01*
X239009Y288283D01*
X239009Y302099D01*
X245305Y308395D01*
X338291Y308395D01*
X340502Y306184D01*
X352814Y293872D01*
X352896Y293807D01*
X352971Y293735D01*
X353031Y293700D01*
X353085Y293657D01*
X353179Y293613D01*
X353269Y293560D01*
X353335Y293540D01*
X353398Y293510D01*
X353500Y293489D01*
X353600Y293458D01*
X353669Y293453D01*
X353736Y293439D01*
X353840Y293441D01*
X353945Y293434D01*
X354013Y293445D01*
X354082Y293447D01*
X354183Y293473D01*
X354286Y293490D01*
X354350Y293517D01*
X354416Y293534D01*
X354509Y293583D01*
X354605Y293623D01*
X354661Y293663D01*
X354722Y293696D01*
X354801Y293764D01*
X354885Y293825D01*
X354931Y293877D01*
X354983Y293923D01*
X355044Y294007D01*
X355112Y294086D01*
X355144Y294147D01*
X355185Y294204D01*
X355224Y294300D01*
X355273Y294392D01*
X355290Y294459D01*
X355317Y294523D01*
X355333Y294626D01*
X355359Y294727D01*
X355366Y294831D01*
X355372Y294864D01*
X355370Y294887D01*
X355373Y294932D01*
X355373Y296966D01*
X356181Y298916D01*
X357674Y300409D01*
X359624Y301217D01*
X361736Y301217D01*
X363686Y300409D01*
X365179Y298916D01*
X365987Y296966D01*
X365987Y295502D01*
X366003Y295364D01*
X366013Y295224D01*
X366023Y295192D01*
X366027Y295158D01*
X366074Y295028D01*
X366115Y294894D01*
X366133Y294865D01*
X366144Y294833D01*
X366220Y294716D01*
X366291Y294596D01*
X366321Y294562D01*
X366333Y294544D01*
X366357Y294520D01*
X366426Y294442D01*
X369648Y291219D01*
X369649Y291217D01*
X369665Y291081D01*
X369677Y291047D01*
X369682Y291012D01*
X369735Y290885D01*
X369782Y290755D01*
X369801Y290726D01*
X369815Y290693D01*
X369896Y290581D01*
X369971Y290466D01*
X369997Y290441D01*
X370017Y290413D01*
X370121Y290322D01*
X370221Y290227D01*
X370252Y290209D01*
X370278Y290186D01*
X370401Y290122D01*
X370519Y290052D01*
X370553Y290042D01*
X370585Y290025D01*
X370718Y289991D01*
X370850Y289950D01*
X370885Y289948D01*
X370919Y289939D01*
X371124Y289925D01*
X371136Y289925D01*
X371243Y289902D01*
X371279Y289903D01*
X371314Y289897D01*
X371451Y289907D01*
X371589Y289910D01*
X371623Y289919D01*
X371659Y289922D01*
X371790Y289962D01*
X371923Y289997D01*
X371955Y290014D01*
X371989Y290024D01*
X372107Y290094D01*
X372229Y290158D01*
X372256Y290182D01*
X372287Y290200D01*
X372442Y290335D01*
X372540Y290433D01*
X373119Y290768D01*
X373765Y290941D01*
X376341Y290941D01*
X376496Y290959D01*
X376651Y290973D01*
X376667Y290979D01*
X376684Y290981D01*
X376831Y291034D01*
X376979Y291083D01*
X376993Y291092D01*
X377009Y291098D01*
X377140Y291184D01*
X377273Y291266D01*
X377285Y291278D01*
X377299Y291287D01*
X377407Y291400D01*
X377517Y291510D01*
X377526Y291525D01*
X377537Y291537D01*
X377616Y291672D01*
X377699Y291805D01*
X377704Y291821D01*
X377712Y291835D01*
X377759Y291984D01*
X377808Y292133D01*
X377810Y292149D01*
X377815Y292166D01*
X377825Y292322D01*
X377839Y292477D01*
X377837Y292494D01*
X377838Y292511D01*
X377813Y292665D01*
X377791Y292819D01*
X377784Y292840D01*
X377782Y292852D01*
X377772Y292877D01*
X377726Y293014D01*
X376963Y294854D01*
X376963Y296966D01*
X377771Y298916D01*
X379264Y300409D01*
X381214Y301217D01*
X383326Y301217D01*
X385276Y300409D01*
X386769Y298916D01*
X387577Y296966D01*
X387577Y295502D01*
X387593Y295364D01*
X387603Y295224D01*
X387613Y295192D01*
X387617Y295158D01*
X387664Y295028D01*
X387705Y294894D01*
X387723Y294865D01*
X387734Y294833D01*
X387810Y294716D01*
X387881Y294596D01*
X387911Y294562D01*
X387923Y294544D01*
X387947Y294520D01*
X388016Y294442D01*
X391932Y290526D01*
X391971Y290466D01*
X391997Y290441D01*
X392017Y290413D01*
X392121Y290322D01*
X392221Y290227D01*
X392252Y290209D01*
X392278Y290186D01*
X392401Y290122D01*
X392519Y290052D01*
X392553Y290042D01*
X392585Y290025D01*
X392647Y290009D01*
X393040Y289616D01*
X393068Y289594D01*
X393091Y289568D01*
X393203Y289487D01*
X393311Y289402D01*
X393343Y289387D01*
X393372Y289366D01*
X393499Y289313D01*
X393624Y289255D01*
X393659Y289248D01*
X393691Y289234D01*
X393828Y289212D01*
X393962Y289184D01*
X393998Y289184D01*
X394033Y289179D01*
X394170Y289189D01*
X394308Y289192D01*
X394342Y289201D01*
X394378Y289203D01*
X394509Y289244D01*
X394642Y289279D01*
X394674Y289295D01*
X394708Y289306D01*
X394826Y289376D01*
X394948Y289440D01*
X394975Y289464D01*
X395005Y289482D01*
X395160Y289616D01*
X395468Y289925D01*
X403732Y289925D01*
X404040Y289616D01*
X404068Y289594D01*
X404091Y289568D01*
X404203Y289487D01*
X404311Y289402D01*
X404343Y289387D01*
X404372Y289366D01*
X404499Y289313D01*
X404624Y289255D01*
X404659Y289248D01*
X404691Y289234D01*
X404828Y289212D01*
X404962Y289184D01*
X404998Y289184D01*
X405033Y289179D01*
X405170Y289189D01*
X405308Y289192D01*
X405342Y289201D01*
X405378Y289203D01*
X405509Y289244D01*
X405642Y289279D01*
X405674Y289295D01*
X405708Y289306D01*
X405826Y289376D01*
X405948Y289440D01*
X405975Y289464D01*
X406005Y289482D01*
X406160Y289616D01*
X406468Y289925D01*
X414100Y289925D01*
X414135Y289929D01*
X414171Y289926D01*
X414307Y289949D01*
X414443Y289965D01*
X414477Y289977D01*
X414512Y289982D01*
X414639Y290035D01*
X414769Y290082D01*
X414798Y290101D01*
X414831Y290115D01*
X414943Y290196D01*
X415058Y290271D01*
X415083Y290297D01*
X415111Y290317D01*
X415202Y290421D01*
X415297Y290521D01*
X415315Y290552D01*
X415338Y290578D01*
X415402Y290700D01*
X415472Y290819D01*
X415482Y290853D01*
X415499Y290885D01*
X415533Y291018D01*
X415574Y291150D01*
X415576Y291185D01*
X415585Y291219D01*
X415599Y291424D01*
X415599Y318123D01*
X415583Y318262D01*
X415573Y318401D01*
X415563Y318433D01*
X415559Y318467D01*
X415512Y318598D01*
X415471Y318731D01*
X415453Y318760D01*
X415442Y318792D01*
X415366Y318909D01*
X415295Y319029D01*
X415265Y319063D01*
X415253Y319082D01*
X415229Y319105D01*
X415160Y319184D01*
X415075Y319268D01*
X415075Y332532D01*
X415160Y332616D01*
X415246Y332725D01*
X415338Y332831D01*
X415354Y332861D01*
X415375Y332887D01*
X415434Y333013D01*
X415499Y333137D01*
X415507Y333170D01*
X415522Y333200D01*
X415550Y333337D01*
X415585Y333472D01*
X415588Y333517D01*
X415593Y333539D01*
X415592Y333572D01*
X415599Y333677D01*
X415599Y368900D01*
X415600Y368901D01*
X429600Y368901D01*
X429601Y368900D01*
X429601Y333677D01*
X429617Y333538D01*
X429627Y333399D01*
X429637Y333367D01*
X429641Y333333D01*
X429688Y333202D01*
X429729Y333069D01*
X429747Y333040D01*
X429758Y333008D01*
X429834Y332891D01*
X429905Y332771D01*
X429935Y332737D01*
X429947Y332718D01*
X429971Y332695D01*
X430040Y332616D01*
X430125Y332532D01*
X430125Y319268D01*
X430040Y319184D01*
X429954Y319075D01*
X429862Y318969D01*
X429846Y318939D01*
X429825Y318913D01*
X429766Y318787D01*
X429701Y318663D01*
X429693Y318630D01*
X429678Y318600D01*
X429650Y318463D01*
X429615Y318328D01*
X429612Y318283D01*
X429607Y318261D01*
X429608Y318228D01*
X429601Y318123D01*
X429601Y285900D01*
X429600Y285899D01*
X417124Y285899D01*
X417089Y285895D01*
X417053Y285898D01*
X416917Y285875D01*
X416781Y285859D01*
X416747Y285847D01*
X416712Y285842D01*
X416585Y285789D01*
X416455Y285742D01*
X416426Y285723D01*
X416393Y285709D01*
X416281Y285628D01*
X416166Y285553D01*
X416141Y285527D01*
X416113Y285507D01*
X416022Y285403D01*
X415927Y285303D01*
X415909Y285272D01*
X415886Y285246D01*
X415822Y285123D01*
X415752Y285005D01*
X415742Y284971D01*
X415725Y284939D01*
X415691Y284806D01*
X415650Y284674D01*
X415648Y284639D01*
X415639Y284605D01*
X415625Y284400D01*
X415625Y268768D01*
X414732Y267875D01*
X406468Y267875D01*
X406160Y268184D01*
X406132Y268206D01*
X406109Y268232D01*
X405997Y268313D01*
X405889Y268398D01*
X405857Y268413D01*
X405828Y268434D01*
X405701Y268487D01*
X405576Y268545D01*
X405541Y268552D01*
X405509Y268566D01*
X405372Y268588D01*
X405238Y268616D01*
X405202Y268616D01*
X405167Y268621D01*
X405030Y268611D01*
X404892Y268608D01*
X404858Y268599D01*
X404822Y268597D01*
X404691Y268556D01*
X404558Y268521D01*
X404526Y268505D01*
X404492Y268494D01*
X404374Y268424D01*
X404252Y268360D01*
X404225Y268336D01*
X404194Y268318D01*
X404040Y268184D01*
X403732Y267875D01*
X395468Y267875D01*
X395160Y268184D01*
X395132Y268206D01*
X395109Y268232D01*
X394997Y268313D01*
X394889Y268398D01*
X394857Y268413D01*
X394828Y268434D01*
X394701Y268487D01*
X394576Y268545D01*
X394541Y268552D01*
X394509Y268566D01*
X394372Y268588D01*
X394238Y268616D01*
X394202Y268616D01*
X394167Y268621D01*
X394030Y268611D01*
X393892Y268608D01*
X393858Y268599D01*
X393822Y268597D01*
X393691Y268556D01*
X393558Y268521D01*
X393526Y268505D01*
X393492Y268494D01*
X393373Y268424D01*
X393252Y268360D01*
X393225Y268336D01*
X393195Y268318D01*
X393040Y268184D01*
X392652Y267796D01*
X392630Y267768D01*
X392603Y267745D01*
X392558Y267682D01*
X392549Y267673D01*
X392540Y267656D01*
X392523Y267633D01*
X392437Y267525D01*
X392422Y267493D01*
X392402Y267464D01*
X392349Y267336D01*
X392291Y267212D01*
X392283Y267177D01*
X392270Y267144D01*
X392248Y267008D01*
X392219Y266873D01*
X392220Y266838D01*
X392214Y266803D01*
X392224Y266666D01*
X392227Y266528D01*
X392236Y266493D01*
X392239Y266458D01*
X392280Y266326D01*
X392315Y266193D01*
X392331Y266162D01*
X392342Y266128D01*
X392412Y266009D01*
X392476Y265887D01*
X392499Y265861D01*
X392517Y265830D01*
X392652Y265676D01*
X413235Y245093D01*
X413235Y214647D01*
X411024Y212436D01*
X410382Y211794D01*
X410317Y211712D01*
X410245Y211637D01*
X410210Y211577D01*
X410167Y211523D01*
X410123Y211429D01*
X410070Y211339D01*
X410050Y211273D01*
X410020Y211210D01*
X409999Y211108D01*
X409968Y211008D01*
X409963Y210939D01*
X409949Y210872D01*
X409951Y210768D01*
X409944Y210663D01*
X409955Y210595D01*
X409957Y210526D01*
X409983Y210425D01*
X410000Y210322D01*
X410027Y210259D01*
X410044Y210192D01*
X410093Y210099D01*
X410133Y210003D01*
X410173Y209947D01*
X410206Y209886D01*
X410274Y209807D01*
X410335Y209723D01*
X410387Y209677D01*
X410433Y209625D01*
X410518Y209564D01*
X410596Y209496D01*
X410657Y209464D01*
X410714Y209423D01*
X410810Y209384D01*
X410902Y209335D01*
X410969Y209318D01*
X411033Y209292D01*
X411136Y209275D01*
X411237Y209249D01*
X411341Y209242D01*
X411374Y209236D01*
X411397Y209238D01*
X411442Y209235D01*
X420802Y209235D01*
X421695Y208342D01*
X421695Y202028D01*
X421672Y201999D01*
X421657Y201967D01*
X421636Y201938D01*
X421583Y201811D01*
X421525Y201686D01*
X421518Y201652D01*
X421504Y201619D01*
X421482Y201482D01*
X421454Y201348D01*
X421454Y201312D01*
X421449Y201277D01*
X421459Y201140D01*
X421462Y201002D01*
X421471Y200968D01*
X421473Y200932D01*
X421514Y200801D01*
X421549Y200668D01*
X421565Y200636D01*
X421576Y200602D01*
X421646Y200484D01*
X421695Y200391D01*
X421695Y194028D01*
X421672Y193999D01*
X421657Y193967D01*
X421636Y193938D01*
X421583Y193811D01*
X421525Y193686D01*
X421518Y193652D01*
X421504Y193619D01*
X421482Y193482D01*
X421454Y193348D01*
X421454Y193312D01*
X421449Y193277D01*
X421459Y193140D01*
X421462Y193002D01*
X421471Y192968D01*
X421473Y192932D01*
X421514Y192801D01*
X421549Y192668D01*
X421565Y192636D01*
X421576Y192602D01*
X421646Y192484D01*
X421695Y192391D01*
X421695Y186028D01*
X421672Y185999D01*
X421657Y185967D01*
X421636Y185938D01*
X421583Y185811D01*
X421525Y185686D01*
X421518Y185652D01*
X421504Y185619D01*
X421482Y185482D01*
X421454Y185348D01*
X421454Y185312D01*
X421449Y185277D01*
X421459Y185140D01*
X421462Y185002D01*
X421471Y184968D01*
X421473Y184932D01*
X421514Y184801D01*
X421549Y184668D01*
X421565Y184636D01*
X421576Y184602D01*
X421646Y184484D01*
X421710Y184362D01*
X421734Y184335D01*
X421752Y184305D01*
X421886Y184150D01*
X421932Y184105D01*
X421999Y183990D01*
X422029Y183956D01*
X422041Y183938D01*
X422065Y183914D01*
X422134Y183836D01*
X426070Y179900D01*
X428281Y177689D01*
X428281Y151554D01*
X428285Y151519D01*
X428282Y151483D01*
X428305Y151347D01*
X428321Y151211D01*
X428333Y151177D01*
X428338Y151142D01*
X428391Y151015D01*
X428438Y150885D01*
X428457Y150856D01*
X428471Y150823D01*
X428552Y150711D01*
X428627Y150596D01*
X428653Y150571D01*
X428673Y150543D01*
X428777Y150452D01*
X428877Y150357D01*
X428908Y150339D01*
X428934Y150316D01*
X429057Y150252D01*
X429175Y150182D01*
X429209Y150172D01*
X429241Y150155D01*
X429374Y150121D01*
X429506Y150080D01*
X429541Y150078D01*
X429575Y150069D01*
X429780Y150055D01*
X442343Y150055D01*
X450901Y141497D01*
X450901Y111847D01*
X415199Y76145D01*
X369715Y76145D01*
X365681Y80179D01*
X365681Y98519D01*
X367892Y100730D01*
X370336Y103174D01*
X370423Y103283D01*
X370514Y103388D01*
X370530Y103418D01*
X370551Y103445D01*
X370610Y103571D01*
X370675Y103694D01*
X370683Y103727D01*
X370698Y103758D01*
X370726Y103894D01*
X370761Y104029D01*
X370764Y104074D01*
X370769Y104096D01*
X370768Y104130D01*
X370775Y104234D01*
X370775Y111953D01*
X370759Y112091D01*
X370749Y112230D01*
X370739Y112263D01*
X370735Y112296D01*
X370688Y112427D01*
X370647Y112561D01*
X370629Y112590D01*
X370618Y112622D01*
X370542Y112738D01*
X370471Y112858D01*
X370441Y112892D01*
X370429Y112911D01*
X370405Y112934D01*
X370336Y113013D01*
X368731Y114618D01*
X367923Y116568D01*
X367923Y118680D01*
X368731Y120630D01*
X370224Y122123D01*
X372174Y122931D01*
X373638Y122931D01*
X373776Y122947D01*
X373916Y122957D01*
X373948Y122967D01*
X373982Y122971D01*
X374112Y123018D01*
X374246Y123059D01*
X374275Y123077D01*
X374307Y123088D01*
X374424Y123164D01*
X374544Y123235D01*
X374578Y123265D01*
X374596Y123277D01*
X374620Y123301D01*
X374698Y123370D01*
X375954Y124626D01*
X376019Y124708D01*
X376091Y124783D01*
X376126Y124843D01*
X376169Y124897D01*
X376213Y124991D01*
X376266Y125081D01*
X376286Y125147D01*
X376316Y125210D01*
X376337Y125312D01*
X376368Y125412D01*
X376373Y125481D01*
X376387Y125548D01*
X376385Y125652D01*
X376392Y125757D01*
X376381Y125825D01*
X376379Y125894D01*
X376353Y125995D01*
X376336Y126098D01*
X376309Y126162D01*
X376292Y126228D01*
X376243Y126321D01*
X376203Y126417D01*
X376163Y126473D01*
X376130Y126534D01*
X376062Y126613D01*
X376001Y126697D01*
X375949Y126743D01*
X375903Y126795D01*
X375819Y126856D01*
X375740Y126924D01*
X375679Y126956D01*
X375622Y126997D01*
X375526Y127036D01*
X375434Y127085D01*
X375367Y127102D01*
X375303Y127129D01*
X375200Y127145D01*
X375099Y127171D01*
X374995Y127178D01*
X374962Y127184D01*
X374939Y127182D01*
X374894Y127185D01*
X372488Y127185D01*
X372459Y127208D01*
X372427Y127223D01*
X372398Y127244D01*
X372271Y127297D01*
X372146Y127355D01*
X372112Y127362D01*
X372079Y127376D01*
X371942Y127398D01*
X371808Y127426D01*
X371772Y127426D01*
X371737Y127431D01*
X371600Y127421D01*
X371462Y127418D01*
X371428Y127409D01*
X371392Y127407D01*
X371261Y127366D01*
X371128Y127331D01*
X371096Y127315D01*
X371062Y127304D01*
X370944Y127234D01*
X370851Y127185D01*
X364182Y127185D01*
X364147Y127181D01*
X364111Y127184D01*
X363975Y127161D01*
X363839Y127145D01*
X363805Y127133D01*
X363770Y127128D01*
X363643Y127075D01*
X363513Y127028D01*
X363484Y127009D01*
X363451Y126995D01*
X363339Y126914D01*
X363224Y126839D01*
X363199Y126813D01*
X363171Y126793D01*
X363080Y126689D01*
X362985Y126589D01*
X362967Y126558D01*
X362944Y126532D01*
X362880Y126409D01*
X362810Y126291D01*
X362800Y126257D01*
X362783Y126225D01*
X362749Y126092D01*
X362708Y125960D01*
X362706Y125925D01*
X362697Y125891D01*
X362683Y125686D01*
X362683Y84703D01*
X354125Y76145D01*
X320816Y76145D01*
X320678Y76129D01*
X320538Y76119D01*
X320506Y76109D01*
X320472Y76105D01*
X320342Y76058D01*
X320208Y76017D01*
X320179Y75999D01*
X320147Y75988D01*
X320030Y75912D01*
X319910Y75841D01*
X319876Y75811D01*
X319858Y75799D01*
X319834Y75775D01*
X319756Y75706D01*
X280234Y36184D01*
X280169Y36102D01*
X280097Y36027D01*
X280062Y35967D01*
X280019Y35913D01*
X279975Y35819D01*
X279922Y35729D01*
X279902Y35663D01*
X279872Y35600D01*
X279851Y35498D01*
X279820Y35398D01*
X279815Y35329D01*
X279801Y35262D01*
X279803Y35158D01*
X279796Y35053D01*
X279807Y34985D01*
X279809Y34916D01*
X279835Y34815D01*
X279852Y34712D01*
X279879Y34648D01*
X279896Y34582D01*
X279945Y34489D01*
X279985Y34393D01*
X280025Y34337D01*
X280058Y34276D01*
X280126Y34197D01*
X280187Y34113D01*
X280239Y34067D01*
X280285Y34015D01*
X280369Y33954D01*
X280448Y33886D01*
X280509Y33854D01*
X280566Y33813D01*
X280662Y33774D01*
X280754Y33725D01*
X280821Y33708D01*
X280885Y33681D01*
X280988Y33665D01*
X281089Y33639D01*
X281193Y33632D01*
X281226Y33626D01*
X281249Y33628D01*
X281294Y33625D01*
X298972Y33625D01*
X299865Y32732D01*
X299865Y-3532D01*
X298972Y-4425D01*
X275708Y-4425D01*
X274815Y-3532D01*
X274815Y11312D01*
X274803Y11421D01*
X274799Y11531D01*
X274783Y11592D01*
X274775Y11656D01*
X274738Y11759D01*
X274710Y11865D01*
X274680Y11921D01*
X274658Y11981D01*
X274598Y12073D01*
X274546Y12169D01*
X274504Y12217D01*
X274469Y12270D01*
X274390Y12346D01*
X274317Y12428D01*
X274265Y12465D01*
X274219Y12509D01*
X274124Y12565D01*
X274035Y12628D01*
X273976Y12652D01*
X273921Y12684D01*
X273816Y12716D01*
X273714Y12758D01*
X273651Y12767D01*
X273590Y12786D01*
X273481Y12794D01*
X273372Y12810D01*
X273309Y12805D01*
X273245Y12810D01*
X273137Y12792D01*
X273028Y12783D01*
X272967Y12764D01*
X272904Y12754D01*
X272803Y12712D01*
X272698Y12678D01*
X272644Y12646D01*
X272585Y12621D01*
X272496Y12557D01*
X272466Y12539D01*
X272408Y12505D01*
X272406Y12503D01*
X272402Y12500D01*
X272332Y12438D01*
X272305Y12419D01*
X272289Y12401D01*
X272254Y12370D01*
X238763Y-21121D01*
X200065Y-21121D01*
X143586Y35358D01*
X143504Y35423D01*
X143429Y35495D01*
X143369Y35530D01*
X143315Y35573D01*
X143221Y35617D01*
X143131Y35670D01*
X143065Y35690D01*
X143002Y35720D01*
X142900Y35741D01*
X142800Y35772D01*
X142731Y35777D01*
X142664Y35791D01*
X142560Y35789D01*
X142455Y35796D01*
X142387Y35785D01*
X142318Y35783D01*
X142217Y35757D01*
X142114Y35740D01*
X142050Y35713D01*
X141984Y35696D01*
X141891Y35647D01*
X141795Y35607D01*
X141739Y35567D01*
X141678Y35534D01*
X141599Y35466D01*
X141515Y35405D01*
X141469Y35353D01*
X141417Y35307D01*
X141356Y35223D01*
X141288Y35144D01*
X141256Y35083D01*
X141215Y35026D01*
X141176Y34930D01*
X141127Y34838D01*
X141110Y34771D01*
X141083Y34707D01*
X141067Y34604D01*
X141041Y34503D01*
X141034Y34399D01*
X141028Y34366D01*
X141030Y34343D01*
X141027Y34298D01*
X141027Y32874D01*
X140219Y30924D01*
X138726Y29431D01*
X136776Y28623D01*
X134664Y28623D01*
X132577Y29488D01*
X132573Y29491D01*
X132445Y29544D01*
X132320Y29602D01*
X132286Y29609D01*
X132253Y29623D01*
X132117Y29645D01*
X131982Y29673D01*
X131947Y29673D01*
X131912Y29678D01*
X131774Y29669D01*
X131636Y29665D01*
X131602Y29656D01*
X131567Y29654D01*
X131435Y29613D01*
X131302Y29578D01*
X131271Y29562D01*
X131237Y29551D01*
X131118Y29481D01*
X130996Y29417D01*
X130969Y29393D01*
X130939Y29375D01*
X130784Y29241D01*
X127925Y26381D01*
X57559Y26381D01*
X48950Y34990D01*
X48841Y35077D01*
X48736Y35168D01*
X48706Y35184D01*
X48679Y35205D01*
X48553Y35264D01*
X48430Y35329D01*
X48397Y35337D01*
X48366Y35352D01*
X48230Y35380D01*
X48095Y35415D01*
X48050Y35418D01*
X48028Y35423D01*
X47994Y35422D01*
X47890Y35429D01*
X39457Y35429D01*
X39406Y35423D01*
X39355Y35426D01*
X39235Y35403D01*
X39113Y35389D01*
X39065Y35372D01*
X39015Y35363D01*
X38823Y35289D01*
X38597Y35183D01*
X38169Y35339D01*
X38015Y35375D01*
X37861Y35415D01*
X37843Y35416D01*
X37833Y35419D01*
X37807Y35419D01*
X37656Y35429D01*
X37201Y35429D01*
X37094Y35536D01*
X36985Y35623D01*
X36880Y35714D01*
X36850Y35730D01*
X36823Y35751D01*
X36697Y35810D01*
X36574Y35875D01*
X36541Y35883D01*
X36510Y35898D01*
X36374Y35926D01*
X36239Y35961D01*
X36194Y35964D01*
X36172Y35969D01*
X36138Y35968D01*
X36034Y35975D01*
X29368Y35975D01*
X28475Y36868D01*
X28475Y44132D01*
X28534Y44190D01*
X28556Y44218D01*
X28582Y44241D01*
X28663Y44353D01*
X28748Y44461D01*
X28763Y44493D01*
X28784Y44522D01*
X28836Y44649D01*
X28895Y44774D01*
X28902Y44809D01*
X28916Y44841D01*
X28938Y44977D01*
X28966Y45112D01*
X28966Y45148D01*
X28971Y45183D01*
X28961Y45320D01*
X28958Y45458D01*
X28949Y45492D01*
X28947Y45528D01*
X28906Y45659D01*
X28871Y45792D01*
X28855Y45824D01*
X28844Y45858D01*
X28774Y45977D01*
X28710Y46098D01*
X28686Y46125D01*
X28668Y46156D01*
X28534Y46310D01*
X28475Y46368D01*
X28475Y53632D01*
X28534Y53690D01*
X28556Y53718D01*
X28582Y53741D01*
X28663Y53853D01*
X28748Y53961D01*
X28763Y53993D01*
X28784Y54022D01*
X28837Y54150D01*
X28895Y54274D01*
X28902Y54308D01*
X28916Y54341D01*
X28938Y54478D01*
X28966Y54612D01*
X28966Y54648D01*
X28971Y54683D01*
X28961Y54820D01*
X28958Y54958D01*
X28949Y54992D01*
X28947Y55028D01*
X28906Y55159D01*
X28871Y55292D01*
X28855Y55324D01*
X28844Y55358D01*
X28774Y55476D01*
X28710Y55598D01*
X28686Y55625D01*
X28668Y55655D01*
X28534Y55810D01*
X28475Y55868D01*
X28475Y63132D01*
X29368Y64025D01*
X45632Y64025D01*
X46525Y63132D01*
X46525Y55868D01*
X46466Y55810D01*
X46444Y55782D01*
X46418Y55759D01*
X46337Y55647D01*
X46252Y55539D01*
X46237Y55507D01*
X46216Y55478D01*
X46164Y55351D01*
X46105Y55226D01*
X46098Y55191D01*
X46084Y55159D01*
X46062Y55022D01*
X46034Y54888D01*
X46034Y54852D01*
X46029Y54817D01*
X46039Y54680D01*
X46042Y54542D01*
X46051Y54508D01*
X46053Y54472D01*
X46094Y54341D01*
X46129Y54208D01*
X46145Y54176D01*
X46156Y54142D01*
X46226Y54023D01*
X46290Y53902D01*
X46314Y53875D01*
X46332Y53844D01*
X46466Y53690D01*
X46928Y53228D01*
X47038Y53141D01*
X47143Y53050D01*
X47173Y53034D01*
X47200Y53013D01*
X47325Y52954D01*
X47449Y52889D01*
X47482Y52881D01*
X47513Y52866D01*
X47649Y52838D01*
X47784Y52803D01*
X47829Y52800D01*
X47851Y52795D01*
X47884Y52796D01*
X47989Y52789D01*
X52011Y52789D01*
X52150Y52805D01*
X52289Y52815D01*
X52321Y52825D01*
X52355Y52829D01*
X52486Y52876D01*
X52619Y52917D01*
X52648Y52935D01*
X52680Y52946D01*
X52797Y53022D01*
X52917Y53093D01*
X52951Y53123D01*
X52970Y53135D01*
X52993Y53159D01*
X53072Y53228D01*
X53534Y53690D01*
X53556Y53718D01*
X53582Y53741D01*
X53663Y53853D01*
X53748Y53961D01*
X53763Y53993D01*
X53784Y54022D01*
X53837Y54150D01*
X53895Y54274D01*
X53902Y54308D01*
X53916Y54341D01*
X53938Y54478D01*
X53966Y54612D01*
X53966Y54648D01*
X53971Y54683D01*
X53961Y54820D01*
X53958Y54958D01*
X53949Y54992D01*
X53947Y55028D01*
X53906Y55159D01*
X53871Y55292D01*
X53855Y55324D01*
X53844Y55358D01*
X53774Y55476D01*
X53710Y55598D01*
X53686Y55625D01*
X53668Y55655D01*
X53534Y55810D01*
X53475Y55868D01*
X53475Y63132D01*
X54368Y64025D01*
X58812Y64025D01*
X58847Y64029D01*
X58883Y64026D01*
X59019Y64049D01*
X59155Y64065D01*
X59189Y64077D01*
X59224Y64082D01*
X59351Y64135D01*
X59481Y64182D01*
X59510Y64201D01*
X59543Y64215D01*
X59655Y64296D01*
X59770Y64371D01*
X59795Y64397D01*
X59823Y64417D01*
X59914Y64521D01*
X60009Y64621D01*
X60027Y64652D01*
X60050Y64678D01*
X60114Y64801D01*
X60184Y64919D01*
X60194Y64953D01*
X60211Y64985D01*
X60245Y65118D01*
X60286Y65250D01*
X60288Y65285D01*
X60297Y65319D01*
X60311Y65524D01*
X60311Y164117D01*
X89227Y193033D01*
X110838Y193033D01*
X110873Y193037D01*
X110909Y193034D01*
X111045Y193057D01*
X111181Y193073D01*
X111215Y193085D01*
X111250Y193090D01*
X111377Y193143D01*
X111507Y193190D01*
X111536Y193209D01*
X111569Y193223D01*
X111681Y193304D01*
X111796Y193379D01*
X111821Y193405D01*
X111849Y193425D01*
X111940Y193529D01*
X112035Y193629D01*
X112053Y193660D01*
X112076Y193686D01*
X112140Y193809D01*
X112210Y193927D01*
X112220Y193961D01*
X112237Y193993D01*
X112271Y194126D01*
X112312Y194258D01*
X112314Y194293D01*
X112323Y194327D01*
X112337Y194532D01*
X112337Y242422D01*
X112321Y242560D01*
X112311Y242700D01*
X112301Y242732D01*
X112297Y242766D01*
X112250Y242896D01*
X112209Y243030D01*
X112191Y243059D01*
X112180Y243091D01*
X112104Y243208D01*
X112033Y243328D01*
X112003Y243362D01*
X111991Y243380D01*
X111967Y243404D01*
X111898Y243482D01*
X109584Y245796D01*
X109502Y245861D01*
X109427Y245933D01*
X109367Y245968D01*
X109313Y246011D01*
X109219Y246055D01*
X109129Y246108D01*
X109063Y246128D01*
X109000Y246158D01*
X108898Y246179D01*
X108798Y246210D01*
X108729Y246215D01*
X108662Y246229D01*
X108558Y246227D01*
X108453Y246234D01*
X108385Y246223D01*
X108316Y246221D01*
X108215Y246195D01*
X108112Y246178D01*
X108048Y246151D01*
X107982Y246134D01*
X107889Y246085D01*
X107793Y246045D01*
X107737Y246005D01*
X107676Y245972D01*
X107597Y245904D01*
X107513Y245843D01*
X107467Y245791D01*
X107415Y245745D01*
X107354Y245661D01*
X107286Y245582D01*
X107254Y245520D01*
X107213Y245464D01*
X107174Y245368D01*
X107125Y245276D01*
X107108Y245209D01*
X107082Y245145D01*
X107065Y245042D01*
X107039Y244941D01*
X107032Y244837D01*
X107026Y244804D01*
X107028Y244781D01*
X107025Y244736D01*
X107025Y235868D01*
X106132Y234975D01*
X93868Y234975D01*
X92975Y235869D01*
X92947Y235891D01*
X92924Y235918D01*
X92812Y235998D01*
X92704Y236084D01*
X92672Y236099D01*
X92643Y236119D01*
X92515Y236172D01*
X92391Y236230D01*
X92356Y236238D01*
X92323Y236251D01*
X92187Y236273D01*
X92052Y236302D01*
X92017Y236301D01*
X91982Y236307D01*
X91844Y236297D01*
X91707Y236294D01*
X91672Y236285D01*
X91637Y236282D01*
X91505Y236241D01*
X91372Y236206D01*
X91341Y236190D01*
X91307Y236179D01*
X91188Y236109D01*
X91066Y236045D01*
X91040Y236022D01*
X91009Y236004D01*
X90855Y235869D01*
X82634Y227648D01*
X80423Y225437D01*
X41725Y225437D01*
X30768Y236394D01*
X30700Y236449D01*
X30638Y236510D01*
X30565Y236555D01*
X30497Y236609D01*
X30418Y236646D01*
X30343Y236692D01*
X30262Y236719D01*
X30184Y236756D01*
X30098Y236774D01*
X30015Y236801D01*
X29930Y236809D01*
X29846Y236827D01*
X29758Y236825D01*
X29671Y236833D01*
X29586Y236821D01*
X29500Y236819D01*
X29415Y236797D01*
X29329Y236785D01*
X29192Y236739D01*
X29166Y236732D01*
X29155Y236726D01*
X29134Y236719D01*
X28473Y236445D01*
X24867Y236445D01*
X21535Y237825D01*
X18985Y240375D01*
X17605Y243707D01*
X17605Y247313D01*
X18985Y250645D01*
X21215Y252875D01*
X21237Y252903D01*
X21264Y252926D01*
X21345Y253038D01*
X21430Y253146D01*
X21445Y253178D01*
X21466Y253207D01*
X21518Y253334D01*
X21577Y253459D01*
X21584Y253494D01*
X21598Y253526D01*
X21620Y253662D01*
X21648Y253797D01*
X21647Y253833D01*
X21653Y253868D01*
X21643Y254005D01*
X21640Y254143D01*
X21631Y254177D01*
X21629Y254212D01*
X21588Y254344D01*
X21553Y254477D01*
X21536Y254509D01*
X21526Y254543D01*
X21456Y254661D01*
X21391Y254783D01*
X21368Y254810D01*
X21350Y254840D01*
X21215Y254995D01*
X19156Y257054D01*
X13482Y262728D01*
X13400Y262793D01*
X13325Y262865D01*
X13265Y262900D01*
X13211Y262943D01*
X13117Y262987D01*
X13027Y263040D01*
X12961Y263060D01*
X12898Y263090D01*
X12796Y263111D01*
X12696Y263142D01*
X12627Y263147D01*
X12560Y263161D01*
X12456Y263159D01*
X12351Y263166D01*
X12283Y263155D01*
X12214Y263153D01*
X12113Y263127D01*
X12010Y263110D01*
X11946Y263083D01*
X11880Y263066D01*
X11787Y263017D01*
X11691Y262977D01*
X11635Y262937D01*
X11574Y262904D01*
X11495Y262836D01*
X11411Y262775D01*
X11365Y262723D01*
X11313Y262677D01*
X11252Y262593D01*
X11184Y262514D01*
X11152Y262453D01*
X11111Y262396D01*
X11072Y262300D01*
X11023Y262208D01*
X11006Y262141D01*
X10980Y262077D01*
X10963Y261974D01*
X10937Y261873D01*
X10930Y261769D01*
X10924Y261736D01*
X10926Y261713D01*
X10923Y261668D01*
X10923Y125D01*
X10935Y21D01*
X10937Y-83D01*
X10955Y-150D01*
X10963Y-219D01*
X10998Y-317D01*
X11024Y-418D01*
X11057Y-479D01*
X11080Y-544D01*
X11137Y-631D01*
X11186Y-723D01*
X11231Y-776D01*
X11269Y-833D01*
X11344Y-905D01*
X11413Y-984D01*
X11469Y-1024D01*
X11519Y-1072D01*
X11609Y-1125D01*
X11694Y-1186D01*
X11758Y-1212D01*
X11817Y-1247D01*
X11917Y-1278D01*
X12013Y-1318D01*
X12082Y-1329D01*
X12148Y-1349D01*
X12252Y-1356D01*
X12355Y-1373D01*
X12424Y-1368D01*
X12493Y-1373D01*
X12595Y-1356D01*
X12700Y-1349D01*
X12766Y-1328D01*
X12834Y-1317D01*
X12930Y-1277D01*
X13030Y-1246D01*
X13089Y-1211D01*
X13153Y-1184D01*
X13237Y-1123D01*
X13327Y-1070D01*
X13406Y-1001D01*
X13433Y-982D01*
X13448Y-965D01*
X13482Y-935D01*
X14551Y134D01*
X20288Y3446D01*
X26687Y5161D01*
X33313Y5161D01*
X39712Y3446D01*
X45449Y134D01*
X50134Y-4551D01*
X53446Y-10288D01*
X55161Y-16687D01*
X55161Y-23313D01*
X53446Y-29712D01*
X50134Y-35449D01*
X49065Y-36518D01*
X49000Y-36600D01*
X48928Y-36675D01*
X48893Y-36735D01*
X48850Y-36789D01*
X48806Y-36883D01*
X48753Y-36973D01*
X48733Y-37039D01*
X48703Y-37102D01*
X48682Y-37204D01*
X48651Y-37304D01*
X48646Y-37373D01*
X48632Y-37440D01*
X48634Y-37544D01*
X48627Y-37649D01*
X48638Y-37717D01*
X48640Y-37786D01*
X48666Y-37887D01*
X48683Y-37990D01*
X48710Y-38054D01*
X48727Y-38120D01*
X48776Y-38213D01*
X48816Y-38309D01*
X48856Y-38365D01*
X48889Y-38426D01*
X48957Y-38505D01*
X49018Y-38589D01*
X49070Y-38635D01*
X49116Y-38687D01*
X49200Y-38748D01*
X49279Y-38816D01*
X49341Y-38848D01*
X49397Y-38889D01*
X49493Y-38928D01*
X49585Y-38977D01*
X49652Y-38994D01*
X49716Y-39020D01*
X49819Y-39037D01*
X49920Y-39063D01*
X50024Y-39070D01*
X50058Y-39076D01*
X50080Y-39074D01*
X50125Y-39077D01*
X449875Y-39077D01*
X449979Y-39065D01*
G37*
G36*
X239366Y-11337D02*
X239366Y-11337D01*
X239435Y-11342D01*
X239537Y-11325D01*
X239642Y-11318D01*
X239708Y-11297D01*
X239776Y-11286D01*
X239872Y-11246D01*
X239972Y-11215D01*
X240031Y-11180D01*
X240095Y-11153D01*
X240180Y-11092D01*
X240269Y-11039D01*
X240348Y-10971D01*
X240375Y-10951D01*
X240390Y-10934D01*
X240424Y-10904D01*
X267976Y16648D01*
X268063Y16757D01*
X268154Y16862D01*
X268170Y16892D01*
X268191Y16919D01*
X268250Y17045D01*
X268315Y17168D01*
X268323Y17201D01*
X268338Y17232D01*
X268366Y17368D01*
X268401Y17503D01*
X268404Y17548D01*
X268409Y17570D01*
X268408Y17604D01*
X268415Y17708D01*
X268415Y32921D01*
X314710Y79216D01*
X314775Y79298D01*
X314847Y79373D01*
X314882Y79433D01*
X314925Y79487D01*
X314969Y79581D01*
X315022Y79671D01*
X315042Y79737D01*
X315072Y79800D01*
X315093Y79902D01*
X315124Y80002D01*
X315129Y80071D01*
X315143Y80138D01*
X315141Y80242D01*
X315148Y80347D01*
X315137Y80415D01*
X315135Y80484D01*
X315109Y80585D01*
X315092Y80688D01*
X315065Y80752D01*
X315048Y80818D01*
X314999Y80911D01*
X314959Y81007D01*
X314919Y81063D01*
X314886Y81124D01*
X314818Y81203D01*
X314757Y81287D01*
X314705Y81333D01*
X314659Y81385D01*
X314575Y81446D01*
X314496Y81514D01*
X314435Y81546D01*
X314378Y81587D01*
X314282Y81626D01*
X314190Y81675D01*
X314123Y81692D01*
X314059Y81719D01*
X313956Y81735D01*
X313855Y81761D01*
X313751Y81768D01*
X313718Y81774D01*
X313695Y81772D01*
X313650Y81775D01*
X311668Y81775D01*
X310775Y82668D01*
X310775Y91486D01*
X310759Y91624D01*
X310749Y91764D01*
X310739Y91796D01*
X310735Y91830D01*
X310688Y91960D01*
X310647Y92094D01*
X310629Y92123D01*
X310618Y92155D01*
X310542Y92272D01*
X310471Y92392D01*
X310441Y92426D01*
X310429Y92444D01*
X310405Y92468D01*
X310336Y92546D01*
X304611Y98271D01*
X304542Y98326D01*
X304479Y98389D01*
X304407Y98433D01*
X304340Y98486D01*
X304260Y98523D01*
X304185Y98570D01*
X304104Y98597D01*
X304027Y98633D01*
X303940Y98651D01*
X303857Y98679D01*
X303772Y98686D01*
X303689Y98704D01*
X303600Y98702D01*
X303512Y98710D01*
X303428Y98698D01*
X303343Y98696D01*
X303257Y98673D01*
X303170Y98661D01*
X303091Y98630D01*
X303009Y98609D01*
X302931Y98567D01*
X302848Y98535D01*
X302778Y98487D01*
X302703Y98447D01*
X302636Y98389D01*
X302563Y98339D01*
X302506Y98276D01*
X302442Y98220D01*
X302391Y98148D01*
X302331Y98082D01*
X302257Y97963D01*
X302241Y97939D01*
X302236Y97927D01*
X302224Y97908D01*
X299159Y92068D01*
X293497Y88160D01*
X290872Y87841D01*
X290713Y87803D01*
X290553Y87767D01*
X290545Y87763D01*
X290536Y87761D01*
X290390Y87687D01*
X290243Y87615D01*
X290236Y87609D01*
X290227Y87605D01*
X290102Y87500D01*
X289975Y87396D01*
X289970Y87388D01*
X289963Y87382D01*
X289865Y87251D01*
X289765Y87121D01*
X289761Y87113D01*
X289756Y87105D01*
X289691Y86955D01*
X289624Y86806D01*
X289622Y86797D01*
X289618Y86788D01*
X289589Y86628D01*
X289558Y86466D01*
X289558Y86457D01*
X289557Y86448D01*
X289565Y86285D01*
X289572Y86121D01*
X289574Y86112D01*
X289575Y86103D01*
X289620Y85946D01*
X289664Y85788D01*
X289669Y85777D01*
X289671Y85771D01*
X289681Y85754D01*
X289754Y85604D01*
X289768Y85581D01*
X289941Y84935D01*
X289941Y81974D01*
X282024Y81974D01*
X282024Y88057D01*
X282012Y88166D01*
X282008Y88276D01*
X281992Y88338D01*
X281984Y88400D01*
X281947Y88504D01*
X281918Y88610D01*
X281888Y88666D01*
X281867Y88726D01*
X281807Y88818D01*
X281755Y88915D01*
X281713Y88962D01*
X281678Y89015D01*
X281599Y89091D01*
X281525Y89174D01*
X281474Y89210D01*
X281428Y89254D01*
X281333Y89310D01*
X281243Y89373D01*
X281159Y89412D01*
X281130Y89429D01*
X281105Y89436D01*
X281057Y89459D01*
X280235Y89771D01*
X280203Y89806D01*
X280115Y89885D01*
X280033Y89970D01*
X279987Y90000D01*
X279945Y90037D01*
X279842Y90093D01*
X279743Y90157D01*
X279690Y90176D01*
X279642Y90202D01*
X279528Y90234D01*
X279417Y90273D01*
X279362Y90279D01*
X279308Y90294D01*
X279191Y90298D01*
X279073Y90311D01*
X279018Y90305D01*
X278963Y90307D01*
X278847Y90284D01*
X278730Y90270D01*
X278678Y90251D01*
X278624Y90240D01*
X278516Y90191D01*
X278406Y90151D01*
X278338Y90110D01*
X278309Y90097D01*
X278286Y90080D01*
X278229Y90046D01*
X277423Y89490D01*
X277346Y89422D01*
X277264Y89363D01*
X277217Y89309D01*
X277163Y89262D01*
X277104Y89179D01*
X277037Y89101D01*
X277004Y89038D01*
X276962Y88980D01*
X276924Y88886D01*
X276876Y88795D01*
X276858Y88726D01*
X276831Y88661D01*
X276815Y88560D01*
X276790Y88461D01*
X276782Y88352D01*
X276777Y88319D01*
X276779Y88298D01*
X276776Y88256D01*
X276776Y81974D01*
X268859Y81974D01*
X268859Y84935D01*
X269074Y85735D01*
X269093Y85866D01*
X269119Y85996D01*
X269118Y86037D01*
X269124Y86077D01*
X269113Y86209D01*
X269109Y86342D01*
X269098Y86381D01*
X269095Y86421D01*
X269053Y86547D01*
X269019Y86676D01*
X269000Y86711D01*
X268987Y86750D01*
X268918Y86863D01*
X268855Y86980D01*
X268828Y87011D01*
X268807Y87045D01*
X268714Y87140D01*
X268626Y87239D01*
X268593Y87263D01*
X268565Y87291D01*
X268452Y87362D01*
X268344Y87439D01*
X268294Y87462D01*
X268272Y87475D01*
X268241Y87486D01*
X268157Y87524D01*
X262235Y89771D01*
X257673Y94920D01*
X256026Y101600D01*
X257673Y108280D01*
X262235Y113429D01*
X268908Y115960D01*
X269005Y116011D01*
X269107Y116053D01*
X269158Y116090D01*
X269215Y116119D01*
X269298Y116191D01*
X269387Y116255D01*
X269429Y116303D01*
X269477Y116344D01*
X269542Y116433D01*
X269614Y116516D01*
X269644Y116573D01*
X269681Y116624D01*
X269724Y116725D01*
X269775Y116823D01*
X269791Y116884D01*
X269815Y116942D01*
X269834Y117051D01*
X269861Y117157D01*
X269868Y117250D01*
X269873Y117283D01*
X269872Y117308D01*
X269875Y117362D01*
X269875Y129732D01*
X270768Y130625D01*
X288032Y130625D01*
X288925Y129732D01*
X288925Y126672D01*
X288929Y126637D01*
X288926Y126601D01*
X288949Y126465D01*
X288965Y126329D01*
X288977Y126295D01*
X288982Y126260D01*
X289035Y126133D01*
X289082Y126003D01*
X289101Y125974D01*
X289115Y125941D01*
X289196Y125829D01*
X289271Y125714D01*
X289297Y125689D01*
X289317Y125661D01*
X289421Y125570D01*
X289521Y125475D01*
X289552Y125457D01*
X289578Y125434D01*
X289701Y125370D01*
X289819Y125300D01*
X289853Y125290D01*
X289885Y125273D01*
X290018Y125239D01*
X290150Y125198D01*
X290185Y125196D01*
X290219Y125187D01*
X290424Y125173D01*
X293051Y125173D01*
X307253Y110970D01*
X307317Y110920D01*
X307374Y110862D01*
X307452Y110813D01*
X307524Y110756D01*
X307598Y110721D01*
X307667Y110678D01*
X307754Y110648D01*
X307837Y110609D01*
X307917Y110592D01*
X307994Y110566D01*
X308086Y110557D01*
X308175Y110538D01*
X308257Y110540D01*
X308338Y110532D01*
X308429Y110544D01*
X308521Y110546D01*
X308600Y110566D01*
X308681Y110577D01*
X308767Y110610D01*
X308856Y110633D01*
X308928Y110671D01*
X309004Y110700D01*
X309080Y110751D01*
X309161Y110794D01*
X309223Y110848D01*
X309290Y110893D01*
X309353Y110961D01*
X309422Y111022D01*
X309470Y111088D01*
X309525Y111147D01*
X309570Y111228D01*
X309624Y111302D01*
X309655Y111378D01*
X309695Y111448D01*
X309747Y111602D01*
X309756Y111622D01*
X309757Y111630D01*
X309761Y111643D01*
X309932Y112281D01*
X310267Y112860D01*
X310740Y113333D01*
X311319Y113668D01*
X311965Y113841D01*
X314801Y113841D01*
X314801Y106800D01*
X314805Y106765D01*
X314802Y106730D01*
X314825Y106594D01*
X314841Y106457D01*
X314853Y106423D01*
X314858Y106388D01*
X314911Y106261D01*
X314958Y106132D01*
X314977Y106102D01*
X314991Y106069D01*
X315072Y105957D01*
X315147Y105842D01*
X315173Y105818D01*
X315193Y105789D01*
X315297Y105698D01*
X315397Y105603D01*
X315428Y105585D01*
X315454Y105562D01*
X315577Y105498D01*
X315695Y105428D01*
X315729Y105418D01*
X315760Y105401D01*
X315894Y105367D01*
X316026Y105326D01*
X316061Y105324D01*
X316095Y105315D01*
X316300Y105301D01*
X316801Y105301D01*
X316801Y104800D01*
X316803Y104784D01*
X316803Y104780D01*
X316805Y104767D01*
X316805Y104765D01*
X316803Y104729D01*
X316825Y104593D01*
X316841Y104457D01*
X316853Y104423D01*
X316859Y104388D01*
X316911Y104261D01*
X316958Y104131D01*
X316978Y104102D01*
X316991Y104069D01*
X317072Y103957D01*
X317147Y103842D01*
X317173Y103817D01*
X317194Y103789D01*
X317298Y103698D01*
X317397Y103603D01*
X317428Y103585D01*
X317455Y103562D01*
X317577Y103498D01*
X317695Y103428D01*
X317729Y103418D01*
X317761Y103401D01*
X317894Y103367D01*
X318026Y103326D01*
X318061Y103324D01*
X318096Y103315D01*
X318300Y103301D01*
X324841Y103301D01*
X324841Y99965D01*
X324668Y99319D01*
X324333Y98740D01*
X323860Y98267D01*
X323415Y98010D01*
X323368Y97975D01*
X323317Y97948D01*
X323230Y97872D01*
X323138Y97804D01*
X323100Y97759D01*
X323056Y97721D01*
X322989Y97627D01*
X322915Y97540D01*
X322888Y97487D01*
X322854Y97440D01*
X322810Y97334D01*
X322758Y97231D01*
X322745Y97174D01*
X322722Y97120D01*
X322704Y97007D01*
X322677Y96895D01*
X322676Y96837D01*
X322667Y96779D01*
X322675Y96664D01*
X322674Y96549D01*
X322687Y96493D01*
X322691Y96434D01*
X322726Y96324D01*
X322751Y96212D01*
X322777Y96160D01*
X322794Y96104D01*
X322853Y96005D01*
X322903Y95902D01*
X322940Y95857D01*
X322970Y95806D01*
X323105Y95652D01*
X323827Y94929D01*
X323849Y94797D01*
X323865Y94661D01*
X323877Y94627D01*
X323882Y94592D01*
X323935Y94465D01*
X323982Y94335D01*
X324001Y94306D01*
X324015Y94273D01*
X324096Y94161D01*
X324171Y94046D01*
X324197Y94021D01*
X324217Y93993D01*
X324321Y93902D01*
X324421Y93807D01*
X324452Y93789D01*
X324478Y93766D01*
X324601Y93702D01*
X324719Y93632D01*
X324753Y93622D01*
X324785Y93605D01*
X324918Y93571D01*
X325050Y93530D01*
X325085Y93528D01*
X325119Y93519D01*
X325324Y93505D01*
X338776Y93505D01*
X338811Y93509D01*
X338847Y93506D01*
X338983Y93529D01*
X339119Y93545D01*
X339153Y93557D01*
X339188Y93562D01*
X339315Y93615D01*
X339445Y93662D01*
X339474Y93681D01*
X339507Y93695D01*
X339619Y93776D01*
X339734Y93851D01*
X339759Y93877D01*
X339787Y93897D01*
X339878Y94001D01*
X339973Y94101D01*
X339991Y94132D01*
X340014Y94158D01*
X340027Y94184D01*
X341168Y95325D01*
X353432Y95325D01*
X354074Y94682D01*
X354156Y94618D01*
X354231Y94546D01*
X354291Y94511D01*
X354345Y94468D01*
X354439Y94423D01*
X354529Y94371D01*
X354595Y94350D01*
X354658Y94321D01*
X354760Y94299D01*
X354860Y94269D01*
X354929Y94264D01*
X354996Y94250D01*
X355100Y94252D01*
X355205Y94245D01*
X355273Y94256D01*
X355342Y94258D01*
X355443Y94284D01*
X355546Y94301D01*
X355609Y94327D01*
X355676Y94345D01*
X355769Y94394D01*
X355865Y94434D01*
X355921Y94474D01*
X355982Y94506D01*
X356061Y94575D01*
X356145Y94636D01*
X356191Y94688D01*
X356243Y94733D01*
X356304Y94818D01*
X356372Y94897D01*
X356404Y94958D01*
X356445Y95014D01*
X356484Y95110D01*
X356533Y95203D01*
X356550Y95270D01*
X356576Y95334D01*
X356593Y95437D01*
X356619Y95538D01*
X356626Y95642D01*
X356632Y95675D01*
X356630Y95698D01*
X356633Y95743D01*
X356633Y98857D01*
X356629Y98891D01*
X356632Y98924D01*
X356620Y98992D01*
X356619Y99065D01*
X356601Y99132D01*
X356593Y99201D01*
X356580Y99237D01*
X356576Y99266D01*
X356552Y99323D01*
X356532Y99400D01*
X356499Y99461D01*
X356476Y99526D01*
X356452Y99562D01*
X356443Y99585D01*
X356410Y99631D01*
X356370Y99706D01*
X356325Y99758D01*
X356287Y99816D01*
X356253Y99848D01*
X356241Y99865D01*
X356202Y99899D01*
X356143Y99966D01*
X356087Y100007D01*
X356037Y100054D01*
X355993Y100080D01*
X355980Y100092D01*
X355938Y100114D01*
X355862Y100168D01*
X355798Y100194D01*
X355739Y100229D01*
X355688Y100245D01*
X355673Y100253D01*
X355631Y100264D01*
X355543Y100300D01*
X355474Y100311D01*
X355408Y100331D01*
X355353Y100335D01*
X355339Y100339D01*
X355275Y100343D01*
X355201Y100355D01*
X355152Y100352D01*
X355134Y100353D01*
X355130Y100353D01*
X355117Y100351D01*
X355063Y100355D01*
X354961Y100338D01*
X354856Y100331D01*
X354807Y100316D01*
X354787Y100313D01*
X354769Y100307D01*
X354722Y100299D01*
X354626Y100259D01*
X354526Y100228D01*
X354487Y100205D01*
X354462Y100196D01*
X354441Y100182D01*
X354403Y100166D01*
X354318Y100105D01*
X354229Y100052D01*
X354189Y100018D01*
X354172Y100007D01*
X354152Y99985D01*
X354150Y99984D01*
X354123Y99964D01*
X354108Y99947D01*
X354074Y99918D01*
X353432Y99275D01*
X341168Y99275D01*
X340275Y100168D01*
X340275Y107226D01*
X340259Y107364D01*
X340249Y107504D01*
X340239Y107536D01*
X340235Y107570D01*
X340188Y107700D01*
X340147Y107834D01*
X340129Y107863D01*
X340118Y107895D01*
X340042Y108012D01*
X339971Y108132D01*
X339941Y108166D01*
X339929Y108184D01*
X339905Y108208D01*
X339836Y108286D01*
X322652Y125470D01*
X320002Y128120D01*
X295120Y153002D01*
X295092Y153024D01*
X295069Y153051D01*
X294957Y153132D01*
X294849Y153217D01*
X294817Y153232D01*
X294788Y153253D01*
X294661Y153305D01*
X294536Y153364D01*
X294501Y153371D01*
X294469Y153385D01*
X294332Y153407D01*
X294198Y153435D01*
X294162Y153434D01*
X294127Y153440D01*
X293990Y153430D01*
X293852Y153427D01*
X293818Y153418D01*
X293782Y153415D01*
X293651Y153375D01*
X293518Y153340D01*
X293486Y153323D01*
X293452Y153313D01*
X293333Y153242D01*
X293212Y153178D01*
X293185Y153155D01*
X293154Y153137D01*
X293058Y153053D01*
X255064Y153053D01*
X255029Y153049D01*
X254993Y153052D01*
X254857Y153029D01*
X254721Y153013D01*
X254687Y153001D01*
X254652Y152996D01*
X254525Y152943D01*
X254395Y152896D01*
X254366Y152877D01*
X254333Y152863D01*
X254221Y152782D01*
X254106Y152707D01*
X254081Y152681D01*
X254053Y152661D01*
X253962Y152557D01*
X253867Y152457D01*
X253849Y152426D01*
X253826Y152400D01*
X253762Y152277D01*
X253692Y152159D01*
X253682Y152125D01*
X253665Y152093D01*
X253631Y151960D01*
X253590Y151828D01*
X253588Y151793D01*
X253579Y151759D01*
X253565Y151554D01*
X253565Y145158D01*
X252672Y144265D01*
X248820Y144265D01*
X248785Y144261D01*
X248749Y144264D01*
X248613Y144241D01*
X248477Y144225D01*
X248443Y144213D01*
X248408Y144208D01*
X248281Y144155D01*
X248151Y144108D01*
X248122Y144089D01*
X248089Y144075D01*
X247977Y143994D01*
X247862Y143919D01*
X247837Y143893D01*
X247809Y143873D01*
X247718Y143769D01*
X247623Y143669D01*
X247605Y143638D01*
X247582Y143612D01*
X247518Y143489D01*
X247448Y143371D01*
X247438Y143337D01*
X247421Y143305D01*
X247387Y143172D01*
X247346Y143040D01*
X247344Y143005D01*
X247335Y142971D01*
X247321Y142766D01*
X247321Y141514D01*
X247325Y141479D01*
X247322Y141443D01*
X247345Y141307D01*
X247361Y141171D01*
X247373Y141137D01*
X247378Y141102D01*
X247431Y140975D01*
X247478Y140845D01*
X247497Y140816D01*
X247511Y140783D01*
X247592Y140671D01*
X247667Y140556D01*
X247693Y140531D01*
X247713Y140503D01*
X247817Y140412D01*
X247917Y140317D01*
X247948Y140299D01*
X247974Y140276D01*
X248097Y140212D01*
X248215Y140142D01*
X248249Y140132D01*
X248281Y140115D01*
X248414Y140081D01*
X248546Y140040D01*
X248581Y140038D01*
X248615Y140029D01*
X248820Y140015D01*
X252672Y140015D01*
X253565Y139122D01*
X253565Y119858D01*
X252672Y118965D01*
X246558Y118965D01*
X246523Y118961D01*
X246487Y118964D01*
X246351Y118941D01*
X246215Y118925D01*
X246181Y118913D01*
X246146Y118908D01*
X246019Y118855D01*
X245889Y118808D01*
X245860Y118789D01*
X245827Y118775D01*
X245715Y118694D01*
X245600Y118619D01*
X245575Y118593D01*
X245547Y118573D01*
X245456Y118469D01*
X245361Y118369D01*
X245343Y118338D01*
X245320Y118312D01*
X245256Y118189D01*
X245186Y118071D01*
X245176Y118037D01*
X245159Y118005D01*
X245125Y117872D01*
X245084Y117740D01*
X245082Y117705D01*
X245073Y117671D01*
X245059Y117466D01*
X245059Y30415D01*
X242848Y28204D01*
X237930Y23286D01*
X237908Y23259D01*
X237881Y23235D01*
X237801Y23123D01*
X237715Y23015D01*
X237700Y22983D01*
X237680Y22955D01*
X237627Y22827D01*
X237569Y22702D01*
X237561Y22668D01*
X237548Y22635D01*
X237526Y22499D01*
X237497Y22364D01*
X237498Y22329D01*
X237492Y22294D01*
X237502Y22156D01*
X237505Y22018D01*
X237514Y21984D01*
X237517Y21949D01*
X237558Y21817D01*
X237593Y21684D01*
X237609Y21653D01*
X237620Y21619D01*
X237690Y21500D01*
X237754Y21378D01*
X237777Y21351D01*
X237795Y21321D01*
X237865Y21241D01*
X237865Y7968D01*
X236972Y7075D01*
X213708Y7075D01*
X212815Y7968D01*
X212815Y21232D01*
X213708Y22125D01*
X227592Y22125D01*
X227730Y22141D01*
X227870Y22151D01*
X227902Y22161D01*
X227936Y22165D01*
X228066Y22212D01*
X228200Y22253D01*
X228229Y22271D01*
X228261Y22282D01*
X228378Y22358D01*
X228498Y22429D01*
X228532Y22459D01*
X228550Y22471D01*
X228574Y22495D01*
X228652Y22564D01*
X232588Y26500D01*
X232653Y26582D01*
X232725Y26657D01*
X232760Y26717D01*
X232803Y26771D01*
X232847Y26865D01*
X232900Y26955D01*
X232920Y27021D01*
X232950Y27084D01*
X232971Y27186D01*
X233002Y27286D01*
X233007Y27355D01*
X233021Y27422D01*
X233019Y27526D01*
X233026Y27631D01*
X233015Y27699D01*
X233013Y27768D01*
X232987Y27869D01*
X232970Y27972D01*
X232943Y28036D01*
X232926Y28102D01*
X232877Y28195D01*
X232837Y28291D01*
X232797Y28347D01*
X232764Y28408D01*
X232696Y28487D01*
X232635Y28571D01*
X232583Y28617D01*
X232537Y28669D01*
X232453Y28730D01*
X232374Y28798D01*
X232313Y28830D01*
X232256Y28871D01*
X232160Y28910D01*
X232068Y28959D01*
X232001Y28976D01*
X231937Y29003D01*
X231834Y29019D01*
X231733Y29045D01*
X231629Y29052D01*
X231596Y29058D01*
X231573Y29056D01*
X231528Y29059D01*
X228339Y29059D01*
X228339Y36100D01*
X228335Y36135D01*
X228338Y36170D01*
X228315Y36307D01*
X228299Y36443D01*
X228287Y36477D01*
X228282Y36512D01*
X228229Y36639D01*
X228182Y36769D01*
X228162Y36798D01*
X228149Y36831D01*
X228068Y36943D01*
X227993Y37058D01*
X227967Y37083D01*
X227947Y37111D01*
X227842Y37202D01*
X227743Y37297D01*
X227712Y37315D01*
X227685Y37338D01*
X227563Y37402D01*
X227445Y37472D01*
X227411Y37482D01*
X227379Y37499D01*
X227246Y37533D01*
X227114Y37574D01*
X227079Y37576D01*
X227045Y37585D01*
X226840Y37599D01*
X225339Y37599D01*
X225339Y37601D01*
X226840Y37601D01*
X226875Y37605D01*
X226910Y37603D01*
X227047Y37625D01*
X227183Y37641D01*
X227217Y37653D01*
X227252Y37659D01*
X227379Y37711D01*
X227509Y37758D01*
X227538Y37778D01*
X227571Y37791D01*
X227683Y37872D01*
X227798Y37947D01*
X227823Y37973D01*
X227851Y37993D01*
X227942Y38098D01*
X228037Y38197D01*
X228055Y38228D01*
X228078Y38255D01*
X228142Y38377D01*
X228212Y38495D01*
X228222Y38529D01*
X228239Y38561D01*
X228273Y38694D01*
X228314Y38826D01*
X228316Y38861D01*
X228325Y38895D01*
X228339Y39100D01*
X228339Y46141D01*
X236674Y46141D01*
X237122Y46021D01*
X237180Y46012D01*
X237236Y45995D01*
X237351Y45987D01*
X237464Y45970D01*
X237522Y45975D01*
X237581Y45971D01*
X237694Y45990D01*
X237809Y46000D01*
X237864Y46018D01*
X237922Y46027D01*
X238028Y46071D01*
X238137Y46107D01*
X238187Y46138D01*
X238241Y46160D01*
X238334Y46227D01*
X238432Y46287D01*
X238474Y46328D01*
X238521Y46362D01*
X238597Y46449D01*
X238679Y46530D01*
X238710Y46579D01*
X238748Y46623D01*
X238802Y46725D01*
X238863Y46822D01*
X238882Y46878D01*
X238909Y46930D01*
X238938Y47041D01*
X238975Y47150D01*
X238981Y47208D01*
X238995Y47264D01*
X239009Y47469D01*
X239009Y117466D01*
X239005Y117501D01*
X239008Y117537D01*
X238985Y117673D01*
X238969Y117809D01*
X238957Y117843D01*
X238952Y117878D01*
X238899Y118005D01*
X238852Y118135D01*
X238833Y118164D01*
X238819Y118197D01*
X238738Y118309D01*
X238663Y118424D01*
X238637Y118449D01*
X238617Y118477D01*
X238513Y118568D01*
X238413Y118663D01*
X238382Y118681D01*
X238356Y118704D01*
X238233Y118768D01*
X238115Y118838D01*
X238081Y118848D01*
X238049Y118865D01*
X237916Y118899D01*
X237784Y118940D01*
X237749Y118942D01*
X237715Y118951D01*
X237510Y118965D01*
X233408Y118965D01*
X232515Y119858D01*
X232515Y139122D01*
X233408Y140015D01*
X239772Y140015D01*
X239807Y140019D01*
X239843Y140016D01*
X239979Y140039D01*
X240115Y140055D01*
X240149Y140067D01*
X240184Y140072D01*
X240311Y140125D01*
X240441Y140172D01*
X240470Y140191D01*
X240503Y140205D01*
X240615Y140286D01*
X240730Y140361D01*
X240755Y140387D01*
X240783Y140407D01*
X240874Y140511D01*
X240969Y140611D01*
X240987Y140642D01*
X241010Y140668D01*
X241074Y140791D01*
X241144Y140909D01*
X241154Y140943D01*
X241171Y140975D01*
X241205Y141108D01*
X241246Y141240D01*
X241248Y141275D01*
X241257Y141309D01*
X241271Y141514D01*
X241271Y142766D01*
X241267Y142801D01*
X241270Y142837D01*
X241247Y142973D01*
X241231Y143109D01*
X241219Y143143D01*
X241214Y143178D01*
X241161Y143305D01*
X241114Y143435D01*
X241095Y143464D01*
X241081Y143497D01*
X241000Y143609D01*
X240925Y143724D01*
X240899Y143749D01*
X240879Y143777D01*
X240775Y143868D01*
X240675Y143963D01*
X240644Y143981D01*
X240618Y144004D01*
X240495Y144068D01*
X240377Y144138D01*
X240343Y144148D01*
X240311Y144165D01*
X240178Y144199D01*
X240046Y144240D01*
X240011Y144242D01*
X239977Y144251D01*
X239772Y144265D01*
X233408Y144265D01*
X232515Y145158D01*
X232515Y164422D01*
X233408Y165315D01*
X239772Y165315D01*
X239807Y165319D01*
X239843Y165316D01*
X239979Y165339D01*
X240115Y165355D01*
X240149Y165367D01*
X240184Y165372D01*
X240311Y165425D01*
X240441Y165472D01*
X240470Y165491D01*
X240503Y165505D01*
X240615Y165586D01*
X240730Y165661D01*
X240755Y165687D01*
X240783Y165707D01*
X240874Y165811D01*
X240969Y165911D01*
X240987Y165942D01*
X241010Y165968D01*
X241074Y166091D01*
X241144Y166209D01*
X241154Y166243D01*
X241171Y166275D01*
X241205Y166408D01*
X241246Y166540D01*
X241248Y166575D01*
X241257Y166609D01*
X241271Y166814D01*
X241271Y168166D01*
X241267Y168201D01*
X241270Y168237D01*
X241247Y168373D01*
X241231Y168509D01*
X241219Y168543D01*
X241214Y168578D01*
X241161Y168705D01*
X241114Y168835D01*
X241095Y168864D01*
X241081Y168897D01*
X241000Y169009D01*
X240925Y169124D01*
X240899Y169149D01*
X240879Y169177D01*
X240775Y169268D01*
X240675Y169363D01*
X240644Y169381D01*
X240618Y169404D01*
X240495Y169468D01*
X240377Y169538D01*
X240343Y169548D01*
X240311Y169565D01*
X240178Y169599D01*
X240046Y169640D01*
X240011Y169642D01*
X239977Y169651D01*
X239772Y169665D01*
X233408Y169665D01*
X232515Y170558D01*
X232515Y189822D01*
X233408Y190715D01*
X252672Y190715D01*
X253565Y189822D01*
X253565Y170558D01*
X252672Y169665D01*
X248820Y169665D01*
X248785Y169661D01*
X248749Y169664D01*
X248613Y169641D01*
X248477Y169625D01*
X248443Y169613D01*
X248408Y169608D01*
X248281Y169555D01*
X248151Y169508D01*
X248122Y169489D01*
X248089Y169475D01*
X247977Y169394D01*
X247862Y169319D01*
X247837Y169293D01*
X247809Y169273D01*
X247718Y169169D01*
X247623Y169069D01*
X247605Y169038D01*
X247582Y169012D01*
X247518Y168889D01*
X247448Y168771D01*
X247438Y168737D01*
X247421Y168705D01*
X247387Y168572D01*
X247346Y168440D01*
X247344Y168405D01*
X247335Y168371D01*
X247321Y168166D01*
X247321Y166814D01*
X247325Y166779D01*
X247322Y166743D01*
X247345Y166607D01*
X247361Y166471D01*
X247373Y166437D01*
X247378Y166402D01*
X247431Y166275D01*
X247478Y166145D01*
X247497Y166116D01*
X247511Y166083D01*
X247592Y165971D01*
X247667Y165856D01*
X247693Y165831D01*
X247713Y165803D01*
X247817Y165712D01*
X247917Y165617D01*
X247948Y165599D01*
X247974Y165576D01*
X248097Y165512D01*
X248215Y165442D01*
X248249Y165432D01*
X248281Y165415D01*
X248414Y165381D01*
X248546Y165340D01*
X248581Y165338D01*
X248615Y165329D01*
X248820Y165315D01*
X252672Y165315D01*
X253565Y164422D01*
X253565Y160602D01*
X253569Y160567D01*
X253566Y160531D01*
X253589Y160395D01*
X253605Y160259D01*
X253617Y160225D01*
X253622Y160190D01*
X253675Y160063D01*
X253722Y159933D01*
X253741Y159904D01*
X253755Y159871D01*
X253836Y159759D01*
X253911Y159644D01*
X253937Y159619D01*
X253957Y159591D01*
X254061Y159500D01*
X254161Y159405D01*
X254192Y159387D01*
X254218Y159364D01*
X254341Y159300D01*
X254459Y159230D01*
X254493Y159220D01*
X254525Y159203D01*
X254658Y159169D01*
X254790Y159128D01*
X254825Y159126D01*
X254859Y159117D01*
X255064Y159103D01*
X274060Y159103D01*
X274095Y159107D01*
X274131Y159104D01*
X274267Y159127D01*
X274403Y159143D01*
X274437Y159155D01*
X274472Y159160D01*
X274599Y159213D01*
X274729Y159260D01*
X274758Y159279D01*
X274791Y159293D01*
X274903Y159374D01*
X275018Y159449D01*
X275043Y159475D01*
X275071Y159495D01*
X275162Y159599D01*
X275257Y159699D01*
X275275Y159730D01*
X275298Y159756D01*
X275362Y159879D01*
X275432Y159997D01*
X275442Y160031D01*
X275459Y160063D01*
X275493Y160196D01*
X275534Y160328D01*
X275536Y160363D01*
X275545Y160397D01*
X275559Y160602D01*
X275559Y162601D01*
X282600Y162601D01*
X282635Y162605D01*
X282670Y162602D01*
X282806Y162625D01*
X282943Y162641D01*
X282977Y162653D01*
X283012Y162658D01*
X283139Y162711D01*
X283268Y162758D01*
X283298Y162777D01*
X283331Y162791D01*
X283443Y162872D01*
X283558Y162947D01*
X283582Y162973D01*
X283611Y162993D01*
X283702Y163097D01*
X283797Y163197D01*
X283815Y163228D01*
X283838Y163254D01*
X283902Y163377D01*
X283972Y163495D01*
X283982Y163529D01*
X283999Y163560D01*
X284033Y163694D01*
X284074Y163826D01*
X284076Y163861D01*
X284085Y163895D01*
X284099Y164100D01*
X284099Y164601D01*
X284600Y164601D01*
X284635Y164605D01*
X284671Y164603D01*
X284807Y164625D01*
X284943Y164641D01*
X284977Y164653D01*
X285012Y164659D01*
X285139Y164711D01*
X285269Y164758D01*
X285298Y164778D01*
X285331Y164791D01*
X285443Y164872D01*
X285558Y164947D01*
X285583Y164973D01*
X285611Y164994D01*
X285702Y165098D01*
X285797Y165197D01*
X285815Y165228D01*
X285838Y165255D01*
X285902Y165377D01*
X285972Y165495D01*
X285982Y165529D01*
X285999Y165561D01*
X286033Y165694D01*
X286074Y165826D01*
X286076Y165861D01*
X286085Y165896D01*
X286099Y166100D01*
X286099Y172641D01*
X289435Y172641D01*
X290081Y172468D01*
X290660Y172133D01*
X291133Y171660D01*
X291390Y171215D01*
X291425Y171168D01*
X291452Y171117D01*
X291528Y171030D01*
X291596Y170938D01*
X291641Y170900D01*
X291679Y170856D01*
X291773Y170789D01*
X291860Y170715D01*
X291913Y170688D01*
X291960Y170654D01*
X292066Y170610D01*
X292169Y170558D01*
X292226Y170545D01*
X292280Y170522D01*
X292393Y170504D01*
X292505Y170477D01*
X292563Y170476D01*
X292621Y170467D01*
X292736Y170475D01*
X292851Y170474D01*
X292907Y170487D01*
X292966Y170491D01*
X293076Y170526D01*
X293188Y170551D01*
X293240Y170577D01*
X293296Y170594D01*
X293395Y170653D01*
X293498Y170703D01*
X293543Y170740D01*
X293594Y170770D01*
X293748Y170905D01*
X294468Y171625D01*
X305370Y171625D01*
X305405Y171629D01*
X305441Y171626D01*
X305577Y171649D01*
X305713Y171665D01*
X305747Y171677D01*
X305782Y171682D01*
X305909Y171735D01*
X306039Y171782D01*
X306068Y171801D01*
X306101Y171815D01*
X306213Y171896D01*
X306328Y171971D01*
X306353Y171997D01*
X306381Y172017D01*
X306472Y172121D01*
X306567Y172221D01*
X306585Y172252D01*
X306608Y172278D01*
X306672Y172401D01*
X306742Y172519D01*
X306752Y172553D01*
X306769Y172585D01*
X306803Y172718D01*
X306844Y172850D01*
X306846Y172885D01*
X306855Y172919D01*
X306869Y173124D01*
X306869Y201706D01*
X306853Y201844D01*
X306843Y201984D01*
X306833Y202016D01*
X306829Y202050D01*
X306782Y202180D01*
X306741Y202314D01*
X306723Y202343D01*
X306712Y202375D01*
X306636Y202492D01*
X306565Y202612D01*
X306535Y202646D01*
X306523Y202664D01*
X306499Y202688D01*
X306430Y202766D01*
X281410Y227786D01*
X281288Y227883D01*
X281167Y227983D01*
X281152Y227991D01*
X281139Y228001D01*
X280997Y228068D01*
X280858Y228137D01*
X280841Y228141D01*
X280826Y228148D01*
X280673Y228180D01*
X280521Y228216D01*
X280504Y228216D01*
X280488Y228219D01*
X280331Y228216D01*
X280175Y228215D01*
X280159Y228212D01*
X280142Y228211D01*
X279991Y228172D01*
X279839Y228136D01*
X279824Y228128D01*
X279807Y228124D01*
X279670Y228051D01*
X279530Y227981D01*
X279516Y227970D01*
X279502Y227963D01*
X279384Y227860D01*
X279264Y227760D01*
X279254Y227747D01*
X279241Y227735D01*
X279150Y227608D01*
X279056Y227484D01*
X279046Y227464D01*
X279039Y227455D01*
X279029Y227429D01*
X278965Y227300D01*
X278201Y225456D01*
X276708Y223963D01*
X274758Y223155D01*
X272646Y223155D01*
X270696Y223963D01*
X269661Y224998D01*
X269552Y225085D01*
X269446Y225176D01*
X269416Y225192D01*
X269390Y225213D01*
X269264Y225272D01*
X269140Y225337D01*
X269108Y225345D01*
X269077Y225360D01*
X268941Y225388D01*
X268806Y225423D01*
X268760Y225426D01*
X268739Y225431D01*
X268705Y225430D01*
X268601Y225437D01*
X236257Y225437D01*
X234046Y227648D01*
X193330Y268364D01*
X193248Y268429D01*
X193173Y268501D01*
X193113Y268536D01*
X193059Y268579D01*
X192965Y268623D01*
X192875Y268676D01*
X192809Y268696D01*
X192746Y268726D01*
X192644Y268747D01*
X192544Y268778D01*
X192475Y268783D01*
X192408Y268797D01*
X192304Y268795D01*
X192199Y268802D01*
X192131Y268791D01*
X192062Y268789D01*
X191961Y268763D01*
X191858Y268746D01*
X191794Y268719D01*
X191728Y268702D01*
X191635Y268653D01*
X191539Y268613D01*
X191483Y268573D01*
X191422Y268540D01*
X191343Y268472D01*
X191259Y268411D01*
X191213Y268359D01*
X191161Y268313D01*
X191100Y268229D01*
X191032Y268150D01*
X191000Y268089D01*
X190959Y268032D01*
X190920Y267936D01*
X190871Y267844D01*
X190854Y267777D01*
X190827Y267713D01*
X190811Y267610D01*
X190785Y267509D01*
X190778Y267405D01*
X190772Y267372D01*
X190774Y267349D01*
X190771Y267304D01*
X190771Y142118D01*
X190787Y141980D01*
X190797Y141840D01*
X190807Y141808D01*
X190811Y141774D01*
X190858Y141644D01*
X190899Y141510D01*
X190917Y141481D01*
X190928Y141449D01*
X191004Y141332D01*
X191075Y141212D01*
X191105Y141178D01*
X191117Y141160D01*
X191141Y141136D01*
X191210Y141058D01*
X211129Y121139D01*
X211129Y84703D01*
X191601Y65175D01*
X191579Y65148D01*
X191552Y65124D01*
X191472Y65012D01*
X191386Y64904D01*
X191371Y64872D01*
X191351Y64844D01*
X191298Y64716D01*
X191240Y64591D01*
X191232Y64557D01*
X191219Y64524D01*
X191197Y64388D01*
X191168Y64253D01*
X191169Y64218D01*
X191163Y64183D01*
X191173Y64045D01*
X191176Y63907D01*
X191185Y63873D01*
X191188Y63838D01*
X191229Y63706D01*
X191264Y63573D01*
X191280Y63542D01*
X191291Y63508D01*
X191361Y63389D01*
X191425Y63267D01*
X191448Y63240D01*
X191466Y63210D01*
X191525Y63143D01*
X191525Y55868D01*
X191466Y55810D01*
X191444Y55782D01*
X191418Y55759D01*
X191337Y55647D01*
X191252Y55539D01*
X191237Y55507D01*
X191216Y55478D01*
X191164Y55351D01*
X191105Y55226D01*
X191098Y55191D01*
X191084Y55159D01*
X191062Y55022D01*
X191034Y54888D01*
X191034Y54852D01*
X191029Y54817D01*
X191039Y54680D01*
X191042Y54542D01*
X191051Y54508D01*
X191053Y54472D01*
X191094Y54341D01*
X191129Y54208D01*
X191145Y54176D01*
X191156Y54142D01*
X191226Y54023D01*
X191290Y53902D01*
X191314Y53875D01*
X191332Y53844D01*
X191466Y53690D01*
X191525Y53632D01*
X191525Y53146D01*
X191541Y53008D01*
X191551Y52868D01*
X191561Y52836D01*
X191565Y52802D01*
X191612Y52671D01*
X191653Y52538D01*
X191671Y52509D01*
X191682Y52477D01*
X191758Y52361D01*
X191829Y52240D01*
X191859Y52206D01*
X191871Y52188D01*
X191895Y52165D01*
X191964Y52086D01*
X193472Y50578D01*
X197557Y46493D01*
X197557Y17708D01*
X197573Y17570D01*
X197583Y17430D01*
X197593Y17398D01*
X197597Y17364D01*
X197644Y17234D01*
X197685Y17100D01*
X197703Y17071D01*
X197714Y17039D01*
X197790Y16922D01*
X197861Y16802D01*
X197891Y16768D01*
X197903Y16750D01*
X197927Y16726D01*
X197996Y16648D01*
X215080Y-436D01*
X215189Y-523D01*
X215294Y-614D01*
X215324Y-630D01*
X215351Y-651D01*
X215477Y-710D01*
X215600Y-775D01*
X215633Y-783D01*
X215664Y-798D01*
X215800Y-826D01*
X215935Y-861D01*
X215980Y-864D01*
X216002Y-869D01*
X216036Y-868D01*
X216140Y-875D01*
X236972Y-875D01*
X237865Y-1768D01*
X237865Y-9844D01*
X237877Y-9948D01*
X237879Y-10052D01*
X237897Y-10119D01*
X237905Y-10188D01*
X237940Y-10286D01*
X237966Y-10387D01*
X237999Y-10448D01*
X238022Y-10513D01*
X238079Y-10600D01*
X238128Y-10692D01*
X238173Y-10744D01*
X238211Y-10802D01*
X238286Y-10874D01*
X238355Y-10953D01*
X238411Y-10993D01*
X238461Y-11041D01*
X238551Y-11094D01*
X238636Y-11155D01*
X238700Y-11181D01*
X238759Y-11216D01*
X238859Y-11247D01*
X238955Y-11287D01*
X239024Y-11298D01*
X239090Y-11318D01*
X239194Y-11325D01*
X239297Y-11342D01*
X239366Y-11337D01*
G37*
G36*
X87115Y40083D02*
X87115Y40083D01*
X87184Y40085D01*
X87285Y40111D01*
X87388Y40128D01*
X87452Y40155D01*
X87518Y40172D01*
X87611Y40221D01*
X87707Y40261D01*
X87763Y40301D01*
X87824Y40334D01*
X87903Y40402D01*
X87987Y40463D01*
X88033Y40515D01*
X88085Y40561D01*
X88146Y40645D01*
X88214Y40724D01*
X88246Y40786D01*
X88287Y40842D01*
X88326Y40938D01*
X88375Y41030D01*
X88392Y41097D01*
X88418Y41161D01*
X88435Y41264D01*
X88461Y41365D01*
X88468Y41469D01*
X88474Y41502D01*
X88472Y41525D01*
X88475Y41570D01*
X88475Y44132D01*
X88534Y44190D01*
X88556Y44218D01*
X88582Y44241D01*
X88663Y44353D01*
X88748Y44461D01*
X88763Y44493D01*
X88784Y44522D01*
X88836Y44649D01*
X88895Y44774D01*
X88902Y44809D01*
X88916Y44841D01*
X88938Y44977D01*
X88966Y45112D01*
X88966Y45148D01*
X88971Y45183D01*
X88961Y45320D01*
X88958Y45458D01*
X88949Y45492D01*
X88947Y45528D01*
X88906Y45659D01*
X88871Y45792D01*
X88855Y45824D01*
X88844Y45858D01*
X88774Y45977D01*
X88710Y46098D01*
X88686Y46125D01*
X88668Y46156D01*
X88534Y46310D01*
X88475Y46368D01*
X88475Y53632D01*
X88534Y53690D01*
X88556Y53718D01*
X88582Y53741D01*
X88663Y53853D01*
X88748Y53961D01*
X88763Y53993D01*
X88784Y54022D01*
X88837Y54150D01*
X88895Y54274D01*
X88902Y54308D01*
X88916Y54341D01*
X88938Y54478D01*
X88966Y54612D01*
X88966Y54648D01*
X88971Y54683D01*
X88961Y54820D01*
X88958Y54958D01*
X88949Y54992D01*
X88947Y55028D01*
X88906Y55159D01*
X88871Y55292D01*
X88855Y55324D01*
X88844Y55358D01*
X88774Y55476D01*
X88710Y55598D01*
X88686Y55625D01*
X88668Y55655D01*
X88534Y55810D01*
X88475Y55868D01*
X88475Y63132D01*
X89368Y64025D01*
X92742Y64025D01*
X92777Y64029D01*
X92813Y64026D01*
X92949Y64049D01*
X93085Y64065D01*
X93119Y64077D01*
X93154Y64082D01*
X93281Y64135D01*
X93411Y64182D01*
X93440Y64201D01*
X93473Y64215D01*
X93585Y64296D01*
X93700Y64371D01*
X93725Y64397D01*
X93753Y64417D01*
X93844Y64521D01*
X93939Y64621D01*
X93957Y64652D01*
X93980Y64678D01*
X94044Y64801D01*
X94114Y64919D01*
X94124Y64953D01*
X94141Y64985D01*
X94175Y65118D01*
X94216Y65250D01*
X94218Y65285D01*
X94227Y65319D01*
X94241Y65524D01*
X94241Y93076D01*
X94237Y93111D01*
X94240Y93147D01*
X94217Y93283D01*
X94201Y93419D01*
X94189Y93453D01*
X94184Y93488D01*
X94131Y93615D01*
X94084Y93745D01*
X94065Y93774D01*
X94051Y93807D01*
X93970Y93919D01*
X93895Y94034D01*
X93869Y94059D01*
X93849Y94087D01*
X93745Y94178D01*
X93645Y94273D01*
X93614Y94291D01*
X93588Y94314D01*
X93465Y94378D01*
X93347Y94448D01*
X93313Y94458D01*
X93281Y94475D01*
X93148Y94509D01*
X93016Y94550D01*
X92981Y94552D01*
X92947Y94561D01*
X92742Y94575D01*
X91768Y94575D01*
X90857Y95486D01*
X90845Y95628D01*
X90838Y95650D01*
X90835Y95673D01*
X90784Y95814D01*
X90738Y95957D01*
X90726Y95976D01*
X90718Y95998D01*
X90636Y96124D01*
X90558Y96252D01*
X90542Y96268D01*
X90529Y96288D01*
X90421Y96391D01*
X90315Y96498D01*
X90296Y96510D01*
X90279Y96526D01*
X90150Y96602D01*
X90022Y96682D01*
X90001Y96690D01*
X89981Y96701D01*
X89838Y96745D01*
X89695Y96794D01*
X89672Y96797D01*
X89650Y96803D01*
X89501Y96814D01*
X89351Y96828D01*
X89328Y96825D01*
X89305Y96827D01*
X89157Y96803D01*
X89009Y96783D01*
X88987Y96775D01*
X88964Y96771D01*
X88826Y96713D01*
X88685Y96660D01*
X88666Y96647D01*
X88645Y96638D01*
X88523Y96551D01*
X88399Y96467D01*
X88383Y96450D01*
X88365Y96436D01*
X88266Y96323D01*
X88164Y96213D01*
X88153Y96192D01*
X88138Y96175D01*
X88068Y96042D01*
X87994Y95911D01*
X87985Y95883D01*
X87977Y95869D01*
X87969Y95838D01*
X87928Y95717D01*
X87768Y95119D01*
X87433Y94540D01*
X86960Y94067D01*
X86381Y93732D01*
X85735Y93559D01*
X82899Y93559D01*
X82899Y99101D01*
X89376Y99101D01*
X89411Y99105D01*
X89447Y99102D01*
X89583Y99125D01*
X89719Y99141D01*
X89753Y99153D01*
X89788Y99158D01*
X89915Y99211D01*
X90045Y99258D01*
X90074Y99277D01*
X90107Y99291D01*
X90219Y99372D01*
X90334Y99447D01*
X90359Y99473D01*
X90387Y99493D01*
X90478Y99597D01*
X90573Y99697D01*
X90591Y99728D01*
X90614Y99754D01*
X90678Y99877D01*
X90748Y99995D01*
X90758Y100029D01*
X90775Y100060D01*
X90809Y100194D01*
X90850Y100326D01*
X90852Y100361D01*
X90861Y100395D01*
X90875Y100600D01*
X90875Y102600D01*
X90871Y102635D01*
X90874Y102671D01*
X90851Y102807D01*
X90835Y102943D01*
X90823Y102977D01*
X90818Y103012D01*
X90765Y103139D01*
X90718Y103269D01*
X90699Y103298D01*
X90685Y103331D01*
X90604Y103443D01*
X90529Y103558D01*
X90503Y103583D01*
X90483Y103611D01*
X90379Y103702D01*
X90279Y103797D01*
X90248Y103815D01*
X90222Y103838D01*
X90099Y103902D01*
X89981Y103972D01*
X89947Y103982D01*
X89915Y103999D01*
X89782Y104033D01*
X89650Y104074D01*
X89615Y104076D01*
X89581Y104085D01*
X89376Y104099D01*
X82899Y104099D01*
X82899Y109641D01*
X85735Y109641D01*
X86381Y109468D01*
X86960Y109133D01*
X87433Y108660D01*
X87768Y108081D01*
X87928Y107483D01*
X87983Y107343D01*
X88034Y107202D01*
X88047Y107183D01*
X88055Y107161D01*
X88141Y107038D01*
X88223Y106912D01*
X88240Y106896D01*
X88253Y106877D01*
X88365Y106777D01*
X88473Y106674D01*
X88493Y106662D01*
X88510Y106647D01*
X88642Y106575D01*
X88771Y106499D01*
X88793Y106492D01*
X88814Y106481D01*
X88958Y106441D01*
X89102Y106397D01*
X89125Y106395D01*
X89147Y106389D01*
X89297Y106383D01*
X89447Y106373D01*
X89469Y106377D01*
X89492Y106376D01*
X89640Y106405D01*
X89788Y106429D01*
X89809Y106438D01*
X89832Y106442D01*
X89969Y106504D01*
X90107Y106562D01*
X90126Y106575D01*
X90147Y106585D01*
X90266Y106676D01*
X90387Y106764D01*
X90403Y106781D01*
X90421Y106795D01*
X90516Y106912D01*
X90614Y107025D01*
X90625Y107045D01*
X90639Y107063D01*
X90705Y107198D01*
X90775Y107331D01*
X90781Y107353D01*
X90791Y107374D01*
X90824Y107520D01*
X90861Y107666D01*
X90863Y107696D01*
X90867Y107712D01*
X90867Y107723D01*
X91768Y108625D01*
X101464Y108625D01*
X101602Y108641D01*
X101742Y108651D01*
X101774Y108661D01*
X101808Y108665D01*
X101938Y108712D01*
X102072Y108753D01*
X102101Y108771D01*
X102133Y108782D01*
X102250Y108858D01*
X102370Y108929D01*
X102404Y108959D01*
X102422Y108971D01*
X102446Y108995D01*
X102524Y109064D01*
X116422Y122962D01*
X116509Y123071D01*
X116600Y123176D01*
X116616Y123206D01*
X116637Y123233D01*
X116696Y123359D01*
X116761Y123482D01*
X116769Y123515D01*
X116784Y123546D01*
X116812Y123682D01*
X116847Y123817D01*
X116850Y123862D01*
X116855Y123884D01*
X116854Y123918D01*
X116861Y124022D01*
X116861Y160990D01*
X116849Y161094D01*
X116847Y161198D01*
X116829Y161265D01*
X116821Y161334D01*
X116786Y161432D01*
X116760Y161533D01*
X116727Y161594D01*
X116704Y161659D01*
X116647Y161746D01*
X116598Y161838D01*
X116553Y161890D01*
X116515Y161948D01*
X116440Y162020D01*
X116371Y162099D01*
X116315Y162139D01*
X116265Y162187D01*
X116175Y162240D01*
X116090Y162301D01*
X116026Y162327D01*
X115967Y162362D01*
X115867Y162393D01*
X115771Y162433D01*
X115702Y162444D01*
X115636Y162464D01*
X115532Y162471D01*
X115429Y162488D01*
X115360Y162483D01*
X115291Y162488D01*
X115189Y162471D01*
X115084Y162464D01*
X115018Y162443D01*
X114950Y162432D01*
X114854Y162392D01*
X114754Y162361D01*
X114695Y162326D01*
X114631Y162299D01*
X114547Y162238D01*
X114457Y162185D01*
X114378Y162117D01*
X114351Y162097D01*
X114336Y162080D01*
X114302Y162050D01*
X112564Y160312D01*
X112477Y160203D01*
X112386Y160098D01*
X112370Y160068D01*
X112349Y160041D01*
X112290Y159915D01*
X112225Y159792D01*
X112217Y159759D01*
X112202Y159728D01*
X112174Y159592D01*
X112139Y159457D01*
X112136Y159412D01*
X112131Y159390D01*
X112132Y159356D01*
X112125Y159252D01*
X112125Y142768D01*
X111232Y141875D01*
X91968Y141875D01*
X91075Y142768D01*
X91075Y162032D01*
X91968Y162925D01*
X106000Y162925D01*
X106139Y162941D01*
X106278Y162951D01*
X106310Y162961D01*
X106344Y162965D01*
X106475Y163012D01*
X106608Y163053D01*
X106637Y163071D01*
X106669Y163082D01*
X106786Y163158D01*
X106906Y163229D01*
X106940Y163259D01*
X106958Y163271D01*
X106982Y163295D01*
X107060Y163364D01*
X107396Y163700D01*
X107461Y163782D01*
X107533Y163857D01*
X107568Y163917D01*
X107611Y163971D01*
X107655Y164065D01*
X107708Y164155D01*
X107728Y164221D01*
X107758Y164284D01*
X107779Y164386D01*
X107810Y164486D01*
X107815Y164555D01*
X107829Y164622D01*
X107827Y164726D01*
X107834Y164831D01*
X107823Y164899D01*
X107821Y164968D01*
X107795Y165069D01*
X107778Y165172D01*
X107751Y165236D01*
X107734Y165302D01*
X107685Y165395D01*
X107645Y165491D01*
X107605Y165547D01*
X107572Y165608D01*
X107504Y165687D01*
X107443Y165771D01*
X107391Y165817D01*
X107345Y165869D01*
X107261Y165930D01*
X107182Y165998D01*
X107121Y166030D01*
X107064Y166071D01*
X106968Y166110D01*
X106876Y166159D01*
X106809Y166176D01*
X106745Y166202D01*
X106642Y166219D01*
X106541Y166245D01*
X106437Y166252D01*
X106404Y166258D01*
X106381Y166256D01*
X106336Y166259D01*
X104599Y166259D01*
X104599Y176300D01*
X104595Y176335D01*
X104598Y176370D01*
X104575Y176507D01*
X104559Y176643D01*
X104547Y176677D01*
X104542Y176712D01*
X104489Y176839D01*
X104442Y176968D01*
X104422Y176998D01*
X104409Y177031D01*
X104328Y177143D01*
X104253Y177258D01*
X104227Y177283D01*
X104207Y177311D01*
X104102Y177402D01*
X104003Y177497D01*
X103972Y177515D01*
X103946Y177538D01*
X103823Y177602D01*
X103705Y177672D01*
X103671Y177682D01*
X103639Y177699D01*
X103506Y177733D01*
X103374Y177774D01*
X103339Y177776D01*
X103305Y177785D01*
X103100Y177799D01*
X101599Y177799D01*
X101599Y179300D01*
X101595Y179335D01*
X101597Y179371D01*
X101575Y179507D01*
X101559Y179643D01*
X101547Y179677D01*
X101541Y179712D01*
X101489Y179839D01*
X101442Y179969D01*
X101422Y179998D01*
X101409Y180031D01*
X101328Y180143D01*
X101253Y180258D01*
X101227Y180283D01*
X101207Y180311D01*
X101102Y180402D01*
X101003Y180497D01*
X100972Y180515D01*
X100945Y180538D01*
X100823Y180602D01*
X100705Y180672D01*
X100671Y180682D01*
X100639Y180699D01*
X100506Y180733D01*
X100374Y180774D01*
X100339Y180776D01*
X100305Y180785D01*
X100100Y180799D01*
X90059Y180799D01*
X90059Y181690D01*
X90047Y181794D01*
X90045Y181898D01*
X90027Y181965D01*
X90019Y182034D01*
X89984Y182132D01*
X89958Y182233D01*
X89925Y182294D01*
X89902Y182359D01*
X89845Y182446D01*
X89796Y182538D01*
X89751Y182590D01*
X89713Y182648D01*
X89638Y182720D01*
X89569Y182799D01*
X89513Y182839D01*
X89463Y182887D01*
X89373Y182940D01*
X89288Y183001D01*
X89224Y183027D01*
X89165Y183062D01*
X89065Y183093D01*
X88969Y183133D01*
X88900Y183144D01*
X88834Y183164D01*
X88730Y183171D01*
X88627Y183188D01*
X88558Y183183D01*
X88489Y183188D01*
X88387Y183171D01*
X88282Y183164D01*
X88216Y183143D01*
X88148Y183132D01*
X88052Y183092D01*
X87952Y183061D01*
X87893Y183026D01*
X87829Y182999D01*
X87744Y182938D01*
X87655Y182885D01*
X87576Y182817D01*
X87549Y182797D01*
X87534Y182780D01*
X87500Y182750D01*
X66800Y162050D01*
X66713Y161941D01*
X66622Y161836D01*
X66606Y161806D01*
X66585Y161779D01*
X66526Y161653D01*
X66461Y161530D01*
X66453Y161497D01*
X66438Y161466D01*
X66410Y161330D01*
X66375Y161195D01*
X66372Y161150D01*
X66367Y161128D01*
X66368Y161094D01*
X66361Y160990D01*
X66361Y65524D01*
X66365Y65489D01*
X66362Y65453D01*
X66385Y65317D01*
X66401Y65181D01*
X66413Y65147D01*
X66418Y65112D01*
X66471Y64985D01*
X66518Y64855D01*
X66537Y64826D01*
X66551Y64793D01*
X66632Y64681D01*
X66707Y64566D01*
X66733Y64541D01*
X66753Y64513D01*
X66857Y64422D01*
X66957Y64327D01*
X66988Y64309D01*
X67014Y64286D01*
X67137Y64222D01*
X67255Y64152D01*
X67289Y64142D01*
X67321Y64125D01*
X67454Y64091D01*
X67586Y64050D01*
X67621Y64048D01*
X67655Y64039D01*
X67860Y64025D01*
X70632Y64025D01*
X71525Y63132D01*
X71525Y55868D01*
X71466Y55810D01*
X71444Y55782D01*
X71418Y55759D01*
X71337Y55647D01*
X71252Y55539D01*
X71237Y55507D01*
X71216Y55478D01*
X71164Y55351D01*
X71105Y55226D01*
X71098Y55191D01*
X71084Y55159D01*
X71062Y55022D01*
X71034Y54888D01*
X71034Y54852D01*
X71029Y54817D01*
X71039Y54680D01*
X71042Y54542D01*
X71051Y54508D01*
X71053Y54472D01*
X71094Y54341D01*
X71129Y54208D01*
X71145Y54176D01*
X71156Y54142D01*
X71226Y54023D01*
X71290Y53902D01*
X71314Y53875D01*
X71332Y53844D01*
X71466Y53690D01*
X71525Y53632D01*
X71525Y46368D01*
X71466Y46310D01*
X71444Y46282D01*
X71418Y46259D01*
X71337Y46147D01*
X71252Y46039D01*
X71237Y46007D01*
X71216Y45978D01*
X71163Y45850D01*
X71105Y45726D01*
X71098Y45692D01*
X71084Y45659D01*
X71062Y45522D01*
X71034Y45388D01*
X71034Y45352D01*
X71029Y45317D01*
X71039Y45180D01*
X71042Y45042D01*
X71051Y45008D01*
X71053Y44972D01*
X71094Y44841D01*
X71129Y44708D01*
X71145Y44676D01*
X71156Y44642D01*
X71226Y44524D01*
X71290Y44402D01*
X71314Y44375D01*
X71332Y44345D01*
X71466Y44190D01*
X71525Y44132D01*
X71525Y42978D01*
X71529Y42943D01*
X71526Y42907D01*
X71549Y42771D01*
X71565Y42635D01*
X71577Y42601D01*
X71582Y42566D01*
X71635Y42439D01*
X71682Y42309D01*
X71701Y42280D01*
X71715Y42247D01*
X71796Y42135D01*
X71871Y42020D01*
X71897Y41995D01*
X71917Y41967D01*
X72021Y41876D01*
X72121Y41781D01*
X72152Y41763D01*
X72178Y41740D01*
X72301Y41676D01*
X72419Y41606D01*
X72453Y41596D01*
X72485Y41579D01*
X72618Y41545D01*
X72750Y41504D01*
X72785Y41502D01*
X72819Y41493D01*
X73024Y41479D01*
X84947Y41479D01*
X85916Y40510D01*
X85998Y40445D01*
X86073Y40373D01*
X86133Y40338D01*
X86187Y40295D01*
X86281Y40251D01*
X86371Y40198D01*
X86437Y40178D01*
X86500Y40148D01*
X86602Y40127D01*
X86702Y40096D01*
X86771Y40091D01*
X86838Y40077D01*
X86942Y40079D01*
X87047Y40072D01*
X87115Y40083D01*
G37*
%LPC*%
G36*
X315600Y332899D02*
X315600Y332899D01*
X315599Y332900D01*
X315599Y352900D01*
X315600Y352901D01*
X401100Y352901D01*
X401135Y352905D01*
X401171Y352902D01*
X401307Y352925D01*
X401443Y352941D01*
X401477Y352953D01*
X401512Y352958D01*
X401639Y353011D01*
X401769Y353058D01*
X401798Y353077D01*
X401831Y353091D01*
X401943Y353172D01*
X402058Y353247D01*
X402083Y353273D01*
X402111Y353293D01*
X402202Y353397D01*
X402297Y353497D01*
X402315Y353528D01*
X402338Y353554D01*
X402402Y353677D01*
X402472Y353795D01*
X402482Y353829D01*
X402499Y353861D01*
X402533Y353994D01*
X402574Y354126D01*
X402576Y354161D01*
X402585Y354195D01*
X402599Y354400D01*
X402599Y420900D01*
X402600Y420901D01*
X412600Y420901D01*
X412601Y420900D01*
X412601Y393677D01*
X412613Y393573D01*
X412615Y393469D01*
X412633Y393402D01*
X412641Y393333D01*
X412676Y393235D01*
X412702Y393134D01*
X412735Y393073D01*
X412758Y393008D01*
X412815Y392921D01*
X412864Y392828D01*
X412909Y392776D01*
X412947Y392718D01*
X413022Y392646D01*
X413091Y392568D01*
X413147Y392527D01*
X413197Y392480D01*
X413287Y392427D01*
X413372Y392366D01*
X413436Y392340D01*
X413495Y392305D01*
X413595Y392274D01*
X413691Y392234D01*
X413760Y392223D01*
X413826Y392203D01*
X413930Y392195D01*
X414033Y392179D01*
X414102Y392184D01*
X414171Y392179D01*
X414273Y392196D01*
X414378Y392203D01*
X414444Y392224D01*
X414512Y392235D01*
X414608Y392275D01*
X414708Y392306D01*
X414767Y392341D01*
X414831Y392368D01*
X414915Y392429D01*
X415005Y392482D01*
X415084Y392550D01*
X415111Y392570D01*
X415126Y392587D01*
X415160Y392616D01*
X415968Y393425D01*
X429232Y393425D01*
X430125Y392532D01*
X430125Y383268D01*
X429232Y382375D01*
X415968Y382375D01*
X415160Y383184D01*
X415078Y383248D01*
X415003Y383320D01*
X414943Y383355D01*
X414889Y383398D01*
X414795Y383443D01*
X414705Y383495D01*
X414639Y383516D01*
X414576Y383545D01*
X414474Y383567D01*
X414374Y383597D01*
X414305Y383602D01*
X414238Y383616D01*
X414134Y383614D01*
X414029Y383621D01*
X413961Y383610D01*
X413892Y383608D01*
X413791Y383582D01*
X413688Y383565D01*
X413624Y383539D01*
X413558Y383521D01*
X413465Y383472D01*
X413369Y383432D01*
X413313Y383392D01*
X413252Y383360D01*
X413173Y383291D01*
X413089Y383230D01*
X413043Y383178D01*
X412991Y383133D01*
X412930Y383048D01*
X412862Y382969D01*
X412830Y382908D01*
X412789Y382852D01*
X412750Y382756D01*
X412701Y382663D01*
X412684Y382596D01*
X412658Y382532D01*
X412641Y382429D01*
X412615Y382328D01*
X412608Y382224D01*
X412602Y382191D01*
X412604Y382168D01*
X412601Y382123D01*
X412601Y352900D01*
X412600Y352899D01*
X407100Y352899D01*
X407065Y352895D01*
X407029Y352898D01*
X406893Y352875D01*
X406757Y352859D01*
X406723Y352847D01*
X406688Y352842D01*
X406561Y352789D01*
X406431Y352742D01*
X406402Y352723D01*
X406369Y352709D01*
X406257Y352628D01*
X406142Y352553D01*
X406117Y352527D01*
X406089Y352507D01*
X405998Y352403D01*
X405903Y352303D01*
X405885Y352272D01*
X405862Y352246D01*
X405798Y352123D01*
X405728Y352005D01*
X405718Y351971D01*
X405701Y351939D01*
X405667Y351806D01*
X405626Y351674D01*
X405624Y351639D01*
X405615Y351605D01*
X405601Y351400D01*
X405601Y332900D01*
X405600Y332899D01*
X315600Y332899D01*
G37*
%LPD*%
G36*
X397795Y82199D02*
X397795Y82199D01*
X397831Y82196D01*
X397967Y82219D01*
X398103Y82235D01*
X398137Y82247D01*
X398172Y82252D01*
X398299Y82305D01*
X398429Y82352D01*
X398458Y82371D01*
X398491Y82385D01*
X398603Y82466D01*
X398718Y82541D01*
X398743Y82567D01*
X398771Y82587D01*
X398862Y82691D01*
X398957Y82791D01*
X398975Y82822D01*
X398998Y82848D01*
X399062Y82971D01*
X399132Y83089D01*
X399142Y83123D01*
X399159Y83155D01*
X399193Y83288D01*
X399234Y83420D01*
X399236Y83455D01*
X399245Y83489D01*
X399259Y83694D01*
X399259Y86301D01*
X406300Y86301D01*
X406335Y86305D01*
X406370Y86302D01*
X406506Y86325D01*
X406643Y86341D01*
X406677Y86353D01*
X406712Y86358D01*
X406839Y86411D01*
X406968Y86458D01*
X406998Y86477D01*
X407031Y86491D01*
X407143Y86572D01*
X407258Y86647D01*
X407282Y86673D01*
X407306Y86690D01*
X407397Y86603D01*
X407428Y86585D01*
X407455Y86562D01*
X407577Y86498D01*
X407695Y86428D01*
X407729Y86418D01*
X407761Y86401D01*
X407894Y86367D01*
X408026Y86326D01*
X408061Y86324D01*
X408096Y86315D01*
X408300Y86301D01*
X416178Y86301D01*
X416316Y86317D01*
X416456Y86327D01*
X416488Y86337D01*
X416522Y86341D01*
X416652Y86388D01*
X416786Y86429D01*
X416815Y86447D01*
X416847Y86458D01*
X416964Y86534D01*
X417084Y86605D01*
X417118Y86635D01*
X417136Y86647D01*
X417160Y86671D01*
X417238Y86740D01*
X444412Y113914D01*
X444499Y114023D01*
X444590Y114128D01*
X444606Y114158D01*
X444627Y114185D01*
X444686Y114311D01*
X444751Y114434D01*
X444759Y114467D01*
X444774Y114498D01*
X444802Y114634D01*
X444837Y114769D01*
X444840Y114814D01*
X444845Y114836D01*
X444844Y114870D01*
X444851Y114974D01*
X444851Y132881D01*
X444839Y132985D01*
X444837Y133089D01*
X444819Y133156D01*
X444811Y133224D01*
X444776Y133322D01*
X444750Y133423D01*
X444717Y133485D01*
X444694Y133550D01*
X444637Y133637D01*
X444588Y133729D01*
X444543Y133781D01*
X444505Y133839D01*
X444430Y133911D01*
X444361Y133990D01*
X444305Y134030D01*
X444255Y134078D01*
X444165Y134131D01*
X444080Y134191D01*
X444016Y134218D01*
X443957Y134253D01*
X443857Y134284D01*
X443761Y134323D01*
X443692Y134334D01*
X443626Y134355D01*
X443522Y134362D01*
X443419Y134379D01*
X443350Y134374D01*
X443281Y134379D01*
X443179Y134362D01*
X443074Y134354D01*
X443008Y134334D01*
X442940Y134323D01*
X442844Y134283D01*
X442744Y134251D01*
X442685Y134216D01*
X442621Y134190D01*
X442536Y134129D01*
X442447Y134076D01*
X442368Y134007D01*
X442341Y133988D01*
X442326Y133971D01*
X442292Y133941D01*
X441834Y133483D01*
X439884Y132675D01*
X437772Y132675D01*
X435822Y133483D01*
X434787Y134518D01*
X434678Y134605D01*
X434572Y134696D01*
X434542Y134712D01*
X434516Y134733D01*
X434390Y134792D01*
X434266Y134857D01*
X434234Y134865D01*
X434203Y134880D01*
X434067Y134908D01*
X433932Y134943D01*
X433886Y134946D01*
X433865Y134951D01*
X433831Y134950D01*
X433727Y134957D01*
X410431Y134957D01*
X408220Y137168D01*
X407270Y138118D01*
X407188Y138183D01*
X407113Y138255D01*
X407053Y138290D01*
X406999Y138333D01*
X406904Y138377D01*
X406815Y138430D01*
X406749Y138450D01*
X406686Y138480D01*
X406584Y138501D01*
X406484Y138532D01*
X406415Y138537D01*
X406348Y138551D01*
X406244Y138549D01*
X406139Y138556D01*
X406071Y138545D01*
X406002Y138543D01*
X405901Y138517D01*
X405798Y138500D01*
X405735Y138473D01*
X405668Y138456D01*
X405575Y138407D01*
X405479Y138367D01*
X405423Y138327D01*
X405362Y138294D01*
X405283Y138226D01*
X405199Y138165D01*
X405153Y138113D01*
X405101Y138067D01*
X405040Y137983D01*
X404972Y137904D01*
X404940Y137842D01*
X404899Y137786D01*
X404860Y137690D01*
X404811Y137598D01*
X404794Y137531D01*
X404768Y137467D01*
X404751Y137364D01*
X404725Y137263D01*
X404718Y137159D01*
X404712Y137126D01*
X404714Y137103D01*
X404711Y137058D01*
X404711Y136209D01*
X399670Y136209D01*
X399635Y136205D01*
X399600Y136208D01*
X399464Y136185D01*
X399327Y136170D01*
X399294Y136157D01*
X399259Y136152D01*
X399131Y136099D01*
X399002Y136052D01*
X398972Y136033D01*
X398939Y136019D01*
X398828Y135939D01*
X398712Y135863D01*
X398688Y135838D01*
X398659Y135817D01*
X398568Y135713D01*
X398473Y135613D01*
X398456Y135583D01*
X398432Y135556D01*
X398368Y135433D01*
X398298Y135315D01*
X398288Y135281D01*
X398271Y135250D01*
X398237Y135116D01*
X398196Y134985D01*
X398194Y134949D01*
X398185Y134915D01*
X398171Y134710D01*
X398175Y134675D01*
X398173Y134640D01*
X398173Y134639D01*
X398195Y134503D01*
X398211Y134366D01*
X398223Y134333D01*
X398229Y134298D01*
X398282Y134171D01*
X398328Y134041D01*
X398348Y134011D01*
X398361Y133979D01*
X398442Y133867D01*
X398517Y133752D01*
X398543Y133727D01*
X398564Y133698D01*
X398668Y133608D01*
X398767Y133513D01*
X398798Y133495D01*
X398825Y133472D01*
X398947Y133408D01*
X399066Y133338D01*
X399099Y133328D01*
X399131Y133311D01*
X399264Y133277D01*
X399396Y133236D01*
X399431Y133233D01*
X399466Y133225D01*
X399670Y133211D01*
X404711Y133211D01*
X404711Y128375D01*
X404538Y127729D01*
X404203Y127150D01*
X403730Y126677D01*
X403151Y126342D01*
X402505Y126169D01*
X401988Y126169D01*
X401884Y126157D01*
X401780Y126155D01*
X401713Y126137D01*
X401644Y126129D01*
X401546Y126094D01*
X401445Y126068D01*
X401384Y126035D01*
X401319Y126012D01*
X401232Y125955D01*
X401140Y125906D01*
X401088Y125861D01*
X401030Y125823D01*
X400958Y125748D01*
X400879Y125679D01*
X400839Y125623D01*
X400791Y125573D01*
X400738Y125483D01*
X400677Y125398D01*
X400651Y125334D01*
X400616Y125275D01*
X400585Y125175D01*
X400545Y125079D01*
X400534Y125010D01*
X400514Y124944D01*
X400507Y124840D01*
X400490Y124737D01*
X400495Y124668D01*
X400490Y124599D01*
X400507Y124497D01*
X400514Y124392D01*
X400535Y124326D01*
X400546Y124258D01*
X400586Y124162D01*
X400617Y124062D01*
X400652Y124003D01*
X400679Y123939D01*
X400740Y123854D01*
X400793Y123765D01*
X400861Y123686D01*
X400881Y123659D01*
X400898Y123644D01*
X400928Y123610D01*
X410185Y114353D01*
X410185Y113824D01*
X410188Y113797D01*
X410186Y113776D01*
X410187Y113769D01*
X410186Y113753D01*
X410209Y113617D01*
X410225Y113481D01*
X410237Y113447D01*
X410242Y113412D01*
X410295Y113285D01*
X410342Y113155D01*
X410361Y113126D01*
X410375Y113093D01*
X410456Y112981D01*
X410531Y112866D01*
X410557Y112841D01*
X410577Y112813D01*
X410681Y112722D01*
X410781Y112627D01*
X410812Y112609D01*
X410838Y112586D01*
X410961Y112522D01*
X411079Y112452D01*
X411113Y112442D01*
X411145Y112425D01*
X411278Y112391D01*
X411410Y112350D01*
X411445Y112348D01*
X411479Y112339D01*
X411684Y112325D01*
X413432Y112325D01*
X414325Y111432D01*
X414325Y100168D01*
X413414Y99257D01*
X413272Y99245D01*
X413250Y99238D01*
X413227Y99235D01*
X413086Y99184D01*
X412943Y99138D01*
X412924Y99126D01*
X412902Y99118D01*
X412776Y99036D01*
X412648Y98958D01*
X412632Y98942D01*
X412612Y98929D01*
X412509Y98821D01*
X412402Y98715D01*
X412390Y98696D01*
X412374Y98679D01*
X412298Y98550D01*
X412218Y98422D01*
X412210Y98401D01*
X412199Y98381D01*
X412155Y98238D01*
X412106Y98095D01*
X412103Y98072D01*
X412097Y98050D01*
X412086Y97901D01*
X412072Y97751D01*
X412075Y97728D01*
X412073Y97705D01*
X412097Y97557D01*
X412117Y97409D01*
X412125Y97387D01*
X412129Y97364D01*
X412187Y97226D01*
X412240Y97085D01*
X412253Y97066D01*
X412262Y97045D01*
X412349Y96923D01*
X412433Y96799D01*
X412450Y96783D01*
X412464Y96765D01*
X412577Y96666D01*
X412687Y96564D01*
X412708Y96553D01*
X412725Y96538D01*
X412858Y96468D01*
X412989Y96394D01*
X413017Y96385D01*
X413031Y96377D01*
X413062Y96369D01*
X413183Y96328D01*
X413781Y96168D01*
X414360Y95833D01*
X414833Y95360D01*
X415168Y94781D01*
X415341Y94135D01*
X415341Y91299D01*
X409799Y91299D01*
X409799Y97776D01*
X409795Y97811D01*
X409798Y97847D01*
X409775Y97983D01*
X409759Y98119D01*
X409747Y98153D01*
X409742Y98188D01*
X409689Y98315D01*
X409642Y98445D01*
X409623Y98474D01*
X409609Y98507D01*
X409528Y98619D01*
X409453Y98734D01*
X409427Y98759D01*
X409407Y98787D01*
X409303Y98878D01*
X409203Y98973D01*
X409172Y98991D01*
X409146Y99014D01*
X409023Y99078D01*
X408905Y99148D01*
X408871Y99158D01*
X408839Y99175D01*
X408706Y99209D01*
X408574Y99250D01*
X408539Y99252D01*
X408505Y99261D01*
X408300Y99275D01*
X406300Y99275D01*
X406265Y99271D01*
X406229Y99274D01*
X406093Y99251D01*
X405957Y99235D01*
X405923Y99223D01*
X405888Y99218D01*
X405761Y99165D01*
X405631Y99118D01*
X405602Y99099D01*
X405569Y99085D01*
X405457Y99004D01*
X405342Y98929D01*
X405317Y98903D01*
X405289Y98883D01*
X405198Y98779D01*
X405103Y98679D01*
X405085Y98648D01*
X405062Y98622D01*
X404998Y98499D01*
X404928Y98381D01*
X404918Y98347D01*
X404901Y98315D01*
X404867Y98182D01*
X404826Y98050D01*
X404824Y98015D01*
X404815Y97981D01*
X404801Y97776D01*
X404801Y91299D01*
X399259Y91299D01*
X399259Y94135D01*
X399432Y94781D01*
X399767Y95360D01*
X400240Y95833D01*
X400819Y96168D01*
X401417Y96328D01*
X401557Y96383D01*
X401698Y96434D01*
X401717Y96447D01*
X401739Y96455D01*
X401862Y96541D01*
X401988Y96623D01*
X402004Y96640D01*
X402023Y96653D01*
X402123Y96765D01*
X402226Y96873D01*
X402238Y96893D01*
X402253Y96910D01*
X402325Y97042D01*
X402401Y97171D01*
X402408Y97193D01*
X402419Y97214D01*
X402459Y97358D01*
X402503Y97502D01*
X402505Y97525D01*
X402511Y97547D01*
X402517Y97697D01*
X402527Y97847D01*
X402523Y97869D01*
X402524Y97892D01*
X402495Y98040D01*
X402471Y98188D01*
X402462Y98209D01*
X402458Y98232D01*
X402396Y98369D01*
X402338Y98507D01*
X402325Y98526D01*
X402315Y98547D01*
X402224Y98666D01*
X402136Y98787D01*
X402119Y98803D01*
X402105Y98821D01*
X401988Y98916D01*
X401875Y99014D01*
X401855Y99025D01*
X401837Y99039D01*
X401702Y99105D01*
X401569Y99175D01*
X401547Y99181D01*
X401526Y99191D01*
X401380Y99224D01*
X401234Y99261D01*
X401204Y99263D01*
X401188Y99267D01*
X401177Y99267D01*
X400275Y100168D01*
X400275Y111432D01*
X401353Y112509D01*
X401375Y112537D01*
X401402Y112560D01*
X401482Y112672D01*
X401568Y112780D01*
X401583Y112812D01*
X401603Y112841D01*
X401656Y112969D01*
X401714Y113093D01*
X401722Y113128D01*
X401735Y113161D01*
X401757Y113297D01*
X401786Y113432D01*
X401785Y113467D01*
X401791Y113502D01*
X401781Y113640D01*
X401778Y113777D01*
X401769Y113812D01*
X401766Y113847D01*
X401725Y113979D01*
X401690Y114112D01*
X401674Y114143D01*
X401663Y114177D01*
X401593Y114296D01*
X401529Y114418D01*
X401506Y114444D01*
X401488Y114475D01*
X401353Y114629D01*
X392774Y123208D01*
X390563Y125419D01*
X390563Y125686D01*
X390559Y125721D01*
X390562Y125757D01*
X390539Y125893D01*
X390523Y126029D01*
X390511Y126063D01*
X390506Y126098D01*
X390453Y126225D01*
X390406Y126355D01*
X390387Y126384D01*
X390373Y126417D01*
X390292Y126529D01*
X390217Y126644D01*
X390191Y126669D01*
X390171Y126697D01*
X390067Y126788D01*
X389967Y126883D01*
X389936Y126901D01*
X389910Y126924D01*
X389787Y126988D01*
X389669Y127058D01*
X389635Y127068D01*
X389603Y127085D01*
X389470Y127119D01*
X389338Y127160D01*
X389303Y127162D01*
X389269Y127171D01*
X389064Y127185D01*
X388488Y127185D01*
X388459Y127208D01*
X388427Y127223D01*
X388398Y127244D01*
X388271Y127297D01*
X388146Y127355D01*
X388112Y127362D01*
X388079Y127376D01*
X387942Y127398D01*
X387808Y127426D01*
X387772Y127426D01*
X387737Y127431D01*
X387600Y127421D01*
X387462Y127418D01*
X387428Y127409D01*
X387392Y127407D01*
X387261Y127366D01*
X387128Y127331D01*
X387096Y127315D01*
X387062Y127304D01*
X386944Y127234D01*
X386851Y127185D01*
X386802Y127185D01*
X386767Y127181D01*
X386731Y127184D01*
X386595Y127161D01*
X386459Y127145D01*
X386425Y127133D01*
X386390Y127128D01*
X386263Y127075D01*
X386133Y127028D01*
X386104Y127009D01*
X386071Y126995D01*
X385959Y126914D01*
X385844Y126839D01*
X385819Y126813D01*
X385791Y126793D01*
X385700Y126689D01*
X385605Y126589D01*
X385587Y126558D01*
X385564Y126532D01*
X385500Y126409D01*
X385430Y126291D01*
X385420Y126257D01*
X385403Y126225D01*
X385369Y126092D01*
X385328Y125960D01*
X385326Y125925D01*
X385317Y125891D01*
X385303Y125686D01*
X385303Y125419D01*
X383092Y123208D01*
X378976Y119092D01*
X378889Y118983D01*
X378798Y118878D01*
X378782Y118848D01*
X378761Y118821D01*
X378702Y118695D01*
X378637Y118572D01*
X378629Y118539D01*
X378614Y118508D01*
X378586Y118371D01*
X378551Y118237D01*
X378548Y118192D01*
X378543Y118170D01*
X378544Y118136D01*
X378537Y118032D01*
X378537Y116568D01*
X377845Y114898D01*
X377802Y114747D01*
X377756Y114598D01*
X377755Y114581D01*
X377750Y114565D01*
X377743Y114410D01*
X377732Y114253D01*
X377735Y114237D01*
X377734Y114220D01*
X377763Y114066D01*
X377788Y113912D01*
X377795Y113897D01*
X377798Y113880D01*
X377861Y113736D01*
X377921Y113593D01*
X377931Y113579D01*
X377938Y113564D01*
X378032Y113439D01*
X378123Y113313D01*
X378136Y113301D01*
X378146Y113288D01*
X378266Y113188D01*
X378384Y113086D01*
X378399Y113078D01*
X378412Y113067D01*
X378552Y112998D01*
X378690Y112925D01*
X378707Y112921D01*
X378722Y112913D01*
X378874Y112878D01*
X379025Y112839D01*
X379047Y112837D01*
X379059Y112835D01*
X379086Y112835D01*
X379230Y112825D01*
X382932Y112825D01*
X383825Y111932D01*
X383825Y99668D01*
X383105Y98948D01*
X383068Y98903D01*
X383026Y98863D01*
X382961Y98767D01*
X382890Y98677D01*
X382865Y98624D01*
X382833Y98576D01*
X382792Y98468D01*
X382743Y98364D01*
X382731Y98307D01*
X382710Y98252D01*
X382696Y98139D01*
X382672Y98026D01*
X382673Y97968D01*
X382666Y97910D01*
X382677Y97795D01*
X382680Y97680D01*
X382695Y97624D01*
X382701Y97566D01*
X382738Y97457D01*
X382767Y97346D01*
X382795Y97294D01*
X382814Y97239D01*
X382875Y97142D01*
X382929Y97040D01*
X382967Y96996D01*
X382998Y96947D01*
X383080Y96866D01*
X383156Y96779D01*
X383203Y96745D01*
X383245Y96704D01*
X383415Y96590D01*
X383860Y96333D01*
X384333Y95860D01*
X384668Y95281D01*
X384841Y94635D01*
X384841Y91299D01*
X379799Y91299D01*
X379799Y97276D01*
X379795Y97311D01*
X379798Y97347D01*
X379775Y97483D01*
X379759Y97619D01*
X379747Y97653D01*
X379742Y97688D01*
X379689Y97815D01*
X379642Y97945D01*
X379623Y97974D01*
X379609Y98007D01*
X379528Y98119D01*
X379453Y98234D01*
X379427Y98259D01*
X379407Y98287D01*
X379303Y98378D01*
X379203Y98473D01*
X379172Y98491D01*
X379146Y98514D01*
X379023Y98578D01*
X378905Y98648D01*
X378871Y98658D01*
X378839Y98675D01*
X378706Y98709D01*
X378574Y98750D01*
X378539Y98752D01*
X378505Y98761D01*
X378300Y98775D01*
X376300Y98775D01*
X376265Y98771D01*
X376229Y98774D01*
X376093Y98751D01*
X375957Y98735D01*
X375923Y98723D01*
X375888Y98718D01*
X375761Y98665D01*
X375631Y98618D01*
X375602Y98599D01*
X375569Y98585D01*
X375457Y98504D01*
X375342Y98429D01*
X375317Y98403D01*
X375289Y98383D01*
X375198Y98279D01*
X375103Y98179D01*
X375085Y98148D01*
X375062Y98122D01*
X374998Y97999D01*
X374928Y97881D01*
X374918Y97847D01*
X374901Y97815D01*
X374867Y97682D01*
X374826Y97550D01*
X374824Y97515D01*
X374815Y97481D01*
X374801Y97276D01*
X374801Y89800D01*
X374805Y89765D01*
X374802Y89730D01*
X374825Y89594D01*
X374841Y89457D01*
X374853Y89423D01*
X374858Y89388D01*
X374911Y89261D01*
X374958Y89132D01*
X374977Y89102D01*
X374991Y89069D01*
X375072Y88957D01*
X375147Y88842D01*
X375173Y88818D01*
X375193Y88789D01*
X375297Y88698D01*
X375397Y88603D01*
X375428Y88585D01*
X375454Y88562D01*
X375577Y88498D01*
X375695Y88428D01*
X375729Y88418D01*
X375760Y88401D01*
X375894Y88367D01*
X376026Y88326D01*
X376061Y88324D01*
X376095Y88315D01*
X376300Y88301D01*
X376801Y88301D01*
X376801Y87800D01*
X376805Y87765D01*
X376803Y87729D01*
X376825Y87593D01*
X376841Y87457D01*
X376853Y87423D01*
X376859Y87388D01*
X376911Y87261D01*
X376958Y87131D01*
X376978Y87102D01*
X376991Y87069D01*
X377072Y86957D01*
X377147Y86842D01*
X377173Y86817D01*
X377194Y86789D01*
X377298Y86698D01*
X377397Y86603D01*
X377428Y86585D01*
X377455Y86562D01*
X377577Y86498D01*
X377695Y86428D01*
X377729Y86418D01*
X377761Y86401D01*
X377894Y86367D01*
X378026Y86326D01*
X378061Y86324D01*
X378096Y86315D01*
X378300Y86301D01*
X384841Y86301D01*
X384841Y83694D01*
X384845Y83659D01*
X384842Y83623D01*
X384865Y83487D01*
X384881Y83351D01*
X384893Y83317D01*
X384898Y83282D01*
X384951Y83155D01*
X384998Y83025D01*
X385017Y82996D01*
X385031Y82963D01*
X385112Y82851D01*
X385187Y82736D01*
X385213Y82711D01*
X385233Y82683D01*
X385337Y82592D01*
X385437Y82497D01*
X385468Y82479D01*
X385494Y82456D01*
X385617Y82392D01*
X385735Y82322D01*
X385769Y82312D01*
X385801Y82295D01*
X385934Y82261D01*
X386066Y82220D01*
X386101Y82218D01*
X386135Y82209D01*
X386340Y82195D01*
X397760Y82195D01*
X397795Y82199D01*
G37*
G36*
X343705Y218215D02*
X343705Y218215D01*
X343740Y218213D01*
X343741Y218213D01*
X343877Y218235D01*
X344014Y218251D01*
X344047Y218263D01*
X344082Y218269D01*
X344209Y218322D01*
X344339Y218368D01*
X344369Y218388D01*
X344401Y218401D01*
X344513Y218482D01*
X344628Y218557D01*
X344653Y218583D01*
X344682Y218604D01*
X344772Y218708D01*
X344867Y218807D01*
X344885Y218838D01*
X344908Y218865D01*
X344972Y218987D01*
X345042Y219106D01*
X345052Y219139D01*
X345069Y219171D01*
X345103Y219304D01*
X345144Y219436D01*
X345147Y219471D01*
X345155Y219506D01*
X345169Y219710D01*
X345169Y228251D01*
X346505Y228251D01*
X347151Y228078D01*
X347730Y227743D01*
X347799Y227674D01*
X347908Y227587D01*
X348014Y227496D01*
X348044Y227480D01*
X348070Y227459D01*
X348196Y227400D01*
X348320Y227335D01*
X348353Y227327D01*
X348383Y227312D01*
X348520Y227284D01*
X348655Y227249D01*
X348700Y227246D01*
X348722Y227241D01*
X348755Y227242D01*
X348859Y227235D01*
X354852Y227235D01*
X354881Y227212D01*
X354913Y227197D01*
X354942Y227176D01*
X355069Y227123D01*
X355194Y227065D01*
X355229Y227058D01*
X355261Y227044D01*
X355397Y227022D01*
X355532Y226994D01*
X355568Y226994D01*
X355603Y226989D01*
X355740Y226999D01*
X355878Y227002D01*
X355912Y227011D01*
X355948Y227013D01*
X356079Y227054D01*
X356212Y227089D01*
X356244Y227105D01*
X356278Y227116D01*
X356397Y227186D01*
X356489Y227235D01*
X357025Y227235D01*
X357128Y227247D01*
X357233Y227249D01*
X357300Y227267D01*
X357368Y227275D01*
X357466Y227310D01*
X357567Y227336D01*
X357628Y227369D01*
X357693Y227392D01*
X357781Y227449D01*
X357873Y227498D01*
X357925Y227543D01*
X357983Y227581D01*
X358055Y227656D01*
X358134Y227725D01*
X358174Y227781D01*
X358222Y227831D01*
X358274Y227921D01*
X358335Y228006D01*
X358362Y228070D01*
X358397Y228129D01*
X358427Y228229D01*
X358467Y228325D01*
X358478Y228394D01*
X358499Y228460D01*
X358506Y228564D01*
X358522Y228667D01*
X358518Y228736D01*
X358522Y228805D01*
X358505Y228907D01*
X358498Y229012D01*
X358478Y229078D01*
X358466Y229146D01*
X358426Y229242D01*
X358395Y229342D01*
X358360Y229401D01*
X358334Y229465D01*
X358273Y229550D01*
X358220Y229639D01*
X358151Y229718D01*
X358131Y229745D01*
X358114Y229760D01*
X358085Y229794D01*
X341575Y246304D01*
X341575Y258067D01*
X341563Y258171D01*
X341561Y258275D01*
X341543Y258342D01*
X341535Y258410D01*
X341500Y258508D01*
X341474Y258609D01*
X341441Y258671D01*
X341418Y258736D01*
X341361Y258823D01*
X341312Y258915D01*
X341267Y258967D01*
X341229Y259025D01*
X341154Y259097D01*
X341085Y259176D01*
X341029Y259216D01*
X340979Y259264D01*
X340889Y259317D01*
X340804Y259377D01*
X340740Y259404D01*
X340681Y259439D01*
X340581Y259470D01*
X340485Y259509D01*
X340416Y259520D01*
X340350Y259541D01*
X340246Y259548D01*
X340143Y259565D01*
X340074Y259560D01*
X340005Y259565D01*
X339903Y259548D01*
X339798Y259540D01*
X339732Y259520D01*
X339664Y259509D01*
X339568Y259469D01*
X339468Y259437D01*
X339409Y259402D01*
X339345Y259376D01*
X339261Y259315D01*
X339171Y259262D01*
X339092Y259193D01*
X339065Y259174D01*
X339050Y259157D01*
X339016Y259127D01*
X337782Y257893D01*
X335832Y257085D01*
X333720Y257085D01*
X331770Y257893D01*
X330277Y259386D01*
X329469Y261336D01*
X329469Y263448D01*
X330290Y265430D01*
X330332Y265473D01*
X330367Y265533D01*
X330410Y265587D01*
X330454Y265681D01*
X330507Y265771D01*
X330527Y265837D01*
X330557Y265900D01*
X330578Y266002D01*
X330609Y266102D01*
X330614Y266171D01*
X330628Y266238D01*
X330625Y266342D01*
X330633Y266447D01*
X330621Y266515D01*
X330620Y266584D01*
X330593Y266685D01*
X330577Y266788D01*
X330550Y266852D01*
X330533Y266918D01*
X330484Y267011D01*
X330444Y267107D01*
X330404Y267163D01*
X330371Y267224D01*
X330303Y267303D01*
X330242Y267387D01*
X330189Y267433D01*
X330144Y267485D01*
X330059Y267546D01*
X329980Y267614D01*
X329919Y267646D01*
X329863Y267686D01*
X329767Y267726D01*
X329674Y267775D01*
X329607Y267792D01*
X329544Y267818D01*
X329522Y267822D01*
X329160Y268184D01*
X329132Y268206D01*
X329109Y268232D01*
X328997Y268313D01*
X328889Y268398D01*
X328857Y268413D01*
X328828Y268434D01*
X328701Y268487D01*
X328576Y268545D01*
X328541Y268552D01*
X328509Y268566D01*
X328372Y268588D01*
X328238Y268616D01*
X328202Y268616D01*
X328167Y268621D01*
X328030Y268611D01*
X327892Y268608D01*
X327858Y268599D01*
X327822Y268597D01*
X327691Y268556D01*
X327558Y268521D01*
X327526Y268505D01*
X327492Y268494D01*
X327374Y268424D01*
X327252Y268360D01*
X327225Y268336D01*
X327195Y268318D01*
X327040Y268184D01*
X326732Y267875D01*
X318468Y267875D01*
X317575Y268768D01*
X317575Y289032D01*
X318468Y289925D01*
X326732Y289925D01*
X327040Y289616D01*
X327068Y289594D01*
X327091Y289568D01*
X327203Y289487D01*
X327311Y289402D01*
X327343Y289387D01*
X327372Y289366D01*
X327499Y289313D01*
X327624Y289255D01*
X327659Y289248D01*
X327691Y289234D01*
X327828Y289212D01*
X327962Y289184D01*
X327998Y289184D01*
X328033Y289179D01*
X328170Y289189D01*
X328308Y289192D01*
X328342Y289201D01*
X328378Y289203D01*
X328509Y289244D01*
X328642Y289279D01*
X328674Y289295D01*
X328708Y289306D01*
X328826Y289376D01*
X328948Y289440D01*
X328975Y289464D01*
X329006Y289482D01*
X329160Y289616D01*
X329468Y289925D01*
X331411Y289925D01*
X331514Y289937D01*
X331619Y289939D01*
X331686Y289957D01*
X331754Y289965D01*
X331852Y290000D01*
X331953Y290026D01*
X332015Y290059D01*
X332080Y290082D01*
X332167Y290139D01*
X332259Y290188D01*
X332311Y290233D01*
X332369Y290271D01*
X332441Y290346D01*
X332520Y290415D01*
X332560Y290471D01*
X332608Y290521D01*
X332661Y290611D01*
X332721Y290696D01*
X332748Y290760D01*
X332783Y290819D01*
X332814Y290919D01*
X332853Y291015D01*
X332864Y291084D01*
X332885Y291150D01*
X332892Y291254D01*
X332909Y291357D01*
X332904Y291426D01*
X332909Y291495D01*
X332892Y291597D01*
X332884Y291702D01*
X332864Y291768D01*
X332853Y291836D01*
X332813Y291932D01*
X332781Y292032D01*
X332746Y292091D01*
X332720Y292155D01*
X332659Y292240D01*
X332606Y292329D01*
X332537Y292408D01*
X332518Y292435D01*
X332501Y292450D01*
X332471Y292484D01*
X330781Y294174D01*
X329973Y296124D01*
X329973Y298236D01*
X330817Y300272D01*
X330860Y300422D01*
X330906Y300572D01*
X330907Y300589D01*
X330912Y300605D01*
X330919Y300760D01*
X330929Y300917D01*
X330927Y300933D01*
X330927Y300950D01*
X330899Y301104D01*
X330873Y301258D01*
X330867Y301273D01*
X330864Y301290D01*
X330800Y301433D01*
X330741Y301577D01*
X330731Y301591D01*
X330724Y301606D01*
X330630Y301731D01*
X330538Y301857D01*
X330526Y301869D01*
X330515Y301882D01*
X330396Y301981D01*
X330277Y302084D01*
X330262Y302092D01*
X330249Y302103D01*
X330110Y302172D01*
X329971Y302245D01*
X329955Y302249D01*
X329940Y302257D01*
X329788Y302292D01*
X329636Y302331D01*
X329615Y302333D01*
X329603Y302335D01*
X329575Y302335D01*
X329432Y302345D01*
X256231Y302345D01*
X256127Y302333D01*
X256023Y302331D01*
X255956Y302313D01*
X255887Y302305D01*
X255789Y302270D01*
X255688Y302244D01*
X255627Y302211D01*
X255562Y302188D01*
X255475Y302131D01*
X255382Y302082D01*
X255330Y302037D01*
X255272Y301999D01*
X255200Y301924D01*
X255122Y301855D01*
X255081Y301799D01*
X255034Y301749D01*
X254981Y301659D01*
X254920Y301574D01*
X254894Y301510D01*
X254859Y301451D01*
X254828Y301351D01*
X254788Y301255D01*
X254777Y301186D01*
X254757Y301120D01*
X254749Y301016D01*
X254733Y300913D01*
X254738Y300844D01*
X254733Y300775D01*
X254750Y300673D01*
X254757Y300568D01*
X254778Y300502D01*
X254789Y300434D01*
X254829Y300338D01*
X254860Y300238D01*
X254895Y300179D01*
X254922Y300115D01*
X254983Y300030D01*
X255036Y299941D01*
X255104Y299862D01*
X255124Y299835D01*
X255141Y299820D01*
X255170Y299786D01*
X255525Y299432D01*
X255525Y298584D01*
X255529Y298549D01*
X255526Y298513D01*
X255549Y298377D01*
X255565Y298241D01*
X255577Y298207D01*
X255582Y298172D01*
X255635Y298045D01*
X255682Y297915D01*
X255701Y297886D01*
X255715Y297853D01*
X255796Y297741D01*
X255871Y297626D01*
X255897Y297601D01*
X255917Y297573D01*
X256021Y297482D01*
X256121Y297387D01*
X256152Y297369D01*
X256178Y297346D01*
X256301Y297282D01*
X256419Y297212D01*
X256453Y297202D01*
X256485Y297185D01*
X256618Y297151D01*
X256750Y297110D01*
X256785Y297108D01*
X256819Y297099D01*
X257024Y297085D01*
X270431Y297085D01*
X298516Y269000D01*
X298598Y268935D01*
X298673Y268863D01*
X298733Y268828D01*
X298787Y268785D01*
X298881Y268741D01*
X298971Y268688D01*
X299037Y268668D01*
X299100Y268638D01*
X299202Y268617D01*
X299302Y268586D01*
X299371Y268581D01*
X299438Y268567D01*
X299542Y268569D01*
X299647Y268562D01*
X299715Y268573D01*
X299784Y268575D01*
X299885Y268601D01*
X299988Y268618D01*
X300052Y268645D01*
X300118Y268662D01*
X300211Y268711D01*
X300307Y268751D01*
X300363Y268791D01*
X300424Y268824D01*
X300503Y268892D01*
X300587Y268953D01*
X300633Y269005D01*
X300685Y269051D01*
X300746Y269135D01*
X300814Y269214D01*
X300846Y269275D01*
X300887Y269332D01*
X300926Y269428D01*
X300975Y269520D01*
X300992Y269587D01*
X301019Y269651D01*
X301035Y269754D01*
X301061Y269855D01*
X301068Y269959D01*
X301074Y269992D01*
X301072Y270015D01*
X301075Y270060D01*
X301075Y289222D01*
X301968Y290115D01*
X313232Y290115D01*
X314125Y289222D01*
X314125Y268958D01*
X313232Y268065D01*
X303070Y268065D01*
X302966Y268053D01*
X302862Y268051D01*
X302795Y268033D01*
X302726Y268025D01*
X302628Y267990D01*
X302527Y267964D01*
X302466Y267931D01*
X302401Y267908D01*
X302314Y267851D01*
X302222Y267802D01*
X302170Y267757D01*
X302112Y267719D01*
X302040Y267644D01*
X301961Y267575D01*
X301921Y267519D01*
X301873Y267469D01*
X301820Y267379D01*
X301759Y267294D01*
X301733Y267230D01*
X301698Y267171D01*
X301667Y267071D01*
X301627Y266975D01*
X301616Y266906D01*
X301596Y266840D01*
X301589Y266736D01*
X301572Y266633D01*
X301577Y266564D01*
X301572Y266495D01*
X301589Y266393D01*
X301596Y266288D01*
X301617Y266222D01*
X301628Y266154D01*
X301668Y266058D01*
X301699Y265958D01*
X301734Y265899D01*
X301761Y265835D01*
X301822Y265750D01*
X301875Y265661D01*
X301943Y265582D01*
X301963Y265555D01*
X301980Y265540D01*
X302010Y265506D01*
X335590Y231926D01*
X337801Y229715D01*
X337801Y229295D01*
X337810Y229214D01*
X337810Y229133D01*
X337830Y229043D01*
X337841Y228952D01*
X337868Y228875D01*
X337886Y228796D01*
X337927Y228713D01*
X337958Y228627D01*
X338003Y228558D01*
X338038Y228485D01*
X338097Y228414D01*
X338147Y228337D01*
X338206Y228281D01*
X338257Y228218D01*
X338330Y228162D01*
X338397Y228098D01*
X338467Y228057D01*
X338532Y228008D01*
X338616Y227970D01*
X338695Y227923D01*
X338773Y227899D01*
X338847Y227866D01*
X338938Y227849D01*
X339026Y227821D01*
X339107Y227816D01*
X339187Y227800D01*
X339279Y227804D01*
X339371Y227798D01*
X339451Y227811D01*
X339532Y227814D01*
X339621Y227839D01*
X339712Y227854D01*
X339787Y227885D01*
X339865Y227907D01*
X340011Y227978D01*
X340031Y227986D01*
X340037Y227991D01*
X340050Y227997D01*
X340189Y228078D01*
X340835Y228251D01*
X342171Y228251D01*
X342171Y219710D01*
X342175Y219675D01*
X342172Y219640D01*
X342195Y219504D01*
X342210Y219367D01*
X342222Y219334D01*
X342228Y219299D01*
X342281Y219171D01*
X342328Y219042D01*
X342347Y219012D01*
X342361Y218979D01*
X342441Y218868D01*
X342517Y218752D01*
X342542Y218728D01*
X342563Y218699D01*
X342667Y218608D01*
X342767Y218513D01*
X342797Y218496D01*
X342824Y218472D01*
X342947Y218408D01*
X343065Y218338D01*
X343099Y218328D01*
X343130Y218311D01*
X343264Y218277D01*
X343395Y218236D01*
X343431Y218234D01*
X343465Y218225D01*
X343670Y218211D01*
X343705Y218215D01*
G37*
G36*
X320285Y164309D02*
X320285Y164309D01*
X320354Y164311D01*
X320455Y164337D01*
X320558Y164354D01*
X320622Y164381D01*
X320688Y164398D01*
X320781Y164447D01*
X320877Y164487D01*
X320933Y164527D01*
X320994Y164560D01*
X321073Y164628D01*
X321157Y164689D01*
X321203Y164741D01*
X321255Y164787D01*
X321316Y164871D01*
X321384Y164950D01*
X321416Y165011D01*
X321457Y165068D01*
X321496Y165164D01*
X321545Y165256D01*
X321562Y165323D01*
X321588Y165387D01*
X321605Y165490D01*
X321631Y165591D01*
X321638Y165695D01*
X321644Y165728D01*
X321642Y165751D01*
X321645Y165796D01*
X321645Y168392D01*
X321668Y168421D01*
X321683Y168453D01*
X321704Y168482D01*
X321757Y168609D01*
X321815Y168734D01*
X321822Y168769D01*
X321836Y168801D01*
X321858Y168937D01*
X321886Y169072D01*
X321886Y169108D01*
X321891Y169143D01*
X321881Y169280D01*
X321878Y169418D01*
X321869Y169452D01*
X321867Y169488D01*
X321826Y169619D01*
X321791Y169752D01*
X321775Y169784D01*
X321764Y169818D01*
X321694Y169937D01*
X321645Y170029D01*
X321645Y176392D01*
X321668Y176421D01*
X321683Y176453D01*
X321704Y176482D01*
X321757Y176609D01*
X321815Y176734D01*
X321822Y176769D01*
X321836Y176801D01*
X321858Y176937D01*
X321886Y177072D01*
X321886Y177108D01*
X321891Y177143D01*
X321881Y177280D01*
X321878Y177418D01*
X321869Y177452D01*
X321867Y177488D01*
X321826Y177619D01*
X321791Y177752D01*
X321775Y177784D01*
X321764Y177818D01*
X321694Y177937D01*
X321645Y178029D01*
X321645Y184392D01*
X321668Y184421D01*
X321683Y184453D01*
X321704Y184482D01*
X321757Y184609D01*
X321815Y184734D01*
X321822Y184769D01*
X321836Y184801D01*
X321858Y184937D01*
X321886Y185072D01*
X321886Y185108D01*
X321891Y185143D01*
X321881Y185280D01*
X321878Y185418D01*
X321869Y185452D01*
X321867Y185488D01*
X321826Y185619D01*
X321791Y185752D01*
X321775Y185784D01*
X321764Y185818D01*
X321694Y185937D01*
X321645Y186029D01*
X321645Y192392D01*
X321668Y192421D01*
X321683Y192453D01*
X321704Y192482D01*
X321757Y192609D01*
X321815Y192734D01*
X321822Y192769D01*
X321836Y192801D01*
X321858Y192937D01*
X321886Y193072D01*
X321886Y193108D01*
X321891Y193143D01*
X321881Y193280D01*
X321878Y193418D01*
X321869Y193452D01*
X321867Y193488D01*
X321826Y193619D01*
X321791Y193752D01*
X321775Y193784D01*
X321764Y193818D01*
X321694Y193937D01*
X321645Y194029D01*
X321645Y200392D01*
X321668Y200421D01*
X321683Y200453D01*
X321704Y200482D01*
X321757Y200609D01*
X321815Y200734D01*
X321822Y200769D01*
X321836Y200801D01*
X321858Y200937D01*
X321886Y201072D01*
X321886Y201108D01*
X321891Y201143D01*
X321881Y201280D01*
X321878Y201418D01*
X321869Y201452D01*
X321867Y201488D01*
X321826Y201619D01*
X321791Y201752D01*
X321775Y201784D01*
X321764Y201818D01*
X321694Y201937D01*
X321645Y202029D01*
X321645Y207288D01*
X321629Y207426D01*
X321619Y207566D01*
X321609Y207598D01*
X321605Y207632D01*
X321558Y207763D01*
X321517Y207896D01*
X321499Y207925D01*
X321488Y207957D01*
X321412Y208074D01*
X321341Y208194D01*
X321311Y208228D01*
X321299Y208246D01*
X321275Y208270D01*
X321206Y208348D01*
X318179Y211375D01*
X318179Y218036D01*
X318175Y218071D01*
X318178Y218107D01*
X318155Y218243D01*
X318139Y218379D01*
X318127Y218413D01*
X318122Y218448D01*
X318069Y218575D01*
X318022Y218705D01*
X318003Y218734D01*
X317989Y218767D01*
X317908Y218879D01*
X317833Y218994D01*
X317807Y219019D01*
X317787Y219047D01*
X317683Y219138D01*
X317583Y219233D01*
X317552Y219251D01*
X317526Y219274D01*
X317403Y219338D01*
X317285Y219408D01*
X317251Y219418D01*
X317219Y219435D01*
X317086Y219469D01*
X316954Y219510D01*
X316919Y219512D01*
X316885Y219521D01*
X316680Y219535D01*
X314788Y219535D01*
X314068Y220255D01*
X314023Y220292D01*
X313983Y220334D01*
X313887Y220399D01*
X313797Y220470D01*
X313744Y220495D01*
X313696Y220527D01*
X313588Y220568D01*
X313484Y220617D01*
X313427Y220629D01*
X313372Y220650D01*
X313259Y220664D01*
X313146Y220688D01*
X313088Y220687D01*
X313030Y220694D01*
X312915Y220683D01*
X312800Y220680D01*
X312744Y220665D01*
X312686Y220659D01*
X312577Y220622D01*
X312466Y220593D01*
X312414Y220565D01*
X312359Y220546D01*
X312262Y220485D01*
X312160Y220431D01*
X312116Y220393D01*
X312067Y220362D01*
X311986Y220280D01*
X311899Y220204D01*
X311865Y220157D01*
X311824Y220115D01*
X311710Y219945D01*
X311453Y219500D01*
X310980Y219027D01*
X310401Y218692D01*
X309755Y218519D01*
X306419Y218519D01*
X306419Y225060D01*
X306415Y225095D01*
X306418Y225130D01*
X306395Y225266D01*
X306379Y225403D01*
X306367Y225437D01*
X306362Y225472D01*
X306309Y225599D01*
X306262Y225728D01*
X306243Y225758D01*
X306229Y225791D01*
X306148Y225903D01*
X306073Y226018D01*
X306047Y226042D01*
X306030Y226066D01*
X306117Y226157D01*
X306135Y226188D01*
X306158Y226215D01*
X306222Y226337D01*
X306292Y226455D01*
X306302Y226489D01*
X306319Y226521D01*
X306353Y226654D01*
X306394Y226786D01*
X306396Y226821D01*
X306405Y226856D01*
X306419Y227060D01*
X306419Y233601D01*
X308168Y233601D01*
X308272Y233613D01*
X308376Y233615D01*
X308443Y233633D01*
X308512Y233641D01*
X308610Y233676D01*
X308711Y233702D01*
X308772Y233735D01*
X308837Y233758D01*
X308924Y233815D01*
X309016Y233864D01*
X309068Y233909D01*
X309126Y233947D01*
X309198Y234022D01*
X309277Y234091D01*
X309317Y234147D01*
X309365Y234197D01*
X309418Y234287D01*
X309479Y234372D01*
X309505Y234436D01*
X309540Y234495D01*
X309571Y234595D01*
X309611Y234691D01*
X309622Y234760D01*
X309642Y234826D01*
X309649Y234930D01*
X309666Y235033D01*
X309661Y235102D01*
X309666Y235171D01*
X309649Y235273D01*
X309642Y235378D01*
X309621Y235444D01*
X309610Y235512D01*
X309570Y235608D01*
X309539Y235708D01*
X309504Y235767D01*
X309477Y235831D01*
X309416Y235916D01*
X309363Y236005D01*
X309295Y236084D01*
X309275Y236111D01*
X309258Y236126D01*
X309228Y236160D01*
X267838Y277550D01*
X267716Y277647D01*
X267595Y277747D01*
X267580Y277755D01*
X267567Y277765D01*
X267425Y277832D01*
X267286Y277901D01*
X267269Y277905D01*
X267254Y277912D01*
X267101Y277944D01*
X266949Y277980D01*
X266932Y277980D01*
X266916Y277983D01*
X266759Y277980D01*
X266603Y277979D01*
X266587Y277976D01*
X266570Y277975D01*
X266419Y277936D01*
X266267Y277900D01*
X266252Y277892D01*
X266235Y277888D01*
X266098Y277815D01*
X265958Y277745D01*
X265944Y277734D01*
X265930Y277727D01*
X265812Y277624D01*
X265692Y277524D01*
X265682Y277511D01*
X265669Y277499D01*
X265578Y277372D01*
X265484Y277248D01*
X265474Y277228D01*
X265467Y277219D01*
X265457Y277193D01*
X265393Y277064D01*
X264629Y275220D01*
X263136Y273727D01*
X261186Y272919D01*
X259074Y272919D01*
X257124Y273727D01*
X256664Y274187D01*
X256636Y274209D01*
X256613Y274236D01*
X256501Y274316D01*
X256393Y274402D01*
X256361Y274417D01*
X256332Y274438D01*
X256204Y274490D01*
X256080Y274549D01*
X256045Y274556D01*
X256012Y274570D01*
X255876Y274592D01*
X255742Y274620D01*
X255706Y274619D01*
X255671Y274625D01*
X255534Y274615D01*
X255396Y274612D01*
X255362Y274603D01*
X255326Y274601D01*
X255195Y274560D01*
X255061Y274525D01*
X255030Y274508D01*
X254996Y274498D01*
X254877Y274428D01*
X254756Y274363D01*
X254729Y274340D01*
X254698Y274322D01*
X254645Y274275D01*
X247096Y274275D01*
X246992Y274263D01*
X246888Y274261D01*
X246821Y274243D01*
X246752Y274235D01*
X246654Y274200D01*
X246553Y274174D01*
X246492Y274141D01*
X246427Y274118D01*
X246340Y274061D01*
X246248Y274012D01*
X246196Y273967D01*
X246138Y273929D01*
X246066Y273854D01*
X245987Y273785D01*
X245947Y273729D01*
X245899Y273679D01*
X245846Y273589D01*
X245785Y273504D01*
X245759Y273440D01*
X245724Y273381D01*
X245693Y273281D01*
X245653Y273185D01*
X245642Y273116D01*
X245622Y273050D01*
X245615Y272946D01*
X245598Y272843D01*
X245603Y272774D01*
X245598Y272705D01*
X245615Y272603D01*
X245622Y272498D01*
X245643Y272432D01*
X245654Y272364D01*
X245694Y272268D01*
X245725Y272168D01*
X245760Y272109D01*
X245787Y272045D01*
X245848Y271960D01*
X245901Y271871D01*
X245969Y271792D01*
X245989Y271765D01*
X245996Y271759D01*
X245998Y271755D01*
X246010Y271745D01*
X246036Y271716D01*
X293752Y224000D01*
X293861Y223913D01*
X293966Y223822D01*
X293996Y223806D01*
X294023Y223785D01*
X294149Y223726D01*
X294272Y223661D01*
X294305Y223653D01*
X294336Y223638D01*
X294472Y223610D01*
X294607Y223575D01*
X294652Y223572D01*
X294674Y223567D01*
X294708Y223568D01*
X294812Y223561D01*
X301421Y223561D01*
X301421Y217456D01*
X301409Y217429D01*
X301398Y217360D01*
X301378Y217294D01*
X301371Y217190D01*
X301354Y217087D01*
X301359Y217018D01*
X301354Y216949D01*
X301371Y216847D01*
X301378Y216742D01*
X301399Y216676D01*
X301410Y216608D01*
X301450Y216512D01*
X301481Y216412D01*
X301516Y216353D01*
X301543Y216289D01*
X301604Y216204D01*
X301657Y216115D01*
X301725Y216036D01*
X301745Y216009D01*
X301762Y215994D01*
X301792Y215960D01*
X312919Y204833D01*
X312919Y171524D01*
X312935Y171386D01*
X312945Y171246D01*
X312955Y171214D01*
X312959Y171180D01*
X313006Y171050D01*
X313047Y170916D01*
X313065Y170887D01*
X313076Y170855D01*
X313152Y170738D01*
X313223Y170618D01*
X313253Y170584D01*
X313265Y170566D01*
X313289Y170542D01*
X313358Y170464D01*
X319086Y164736D01*
X319168Y164671D01*
X319243Y164599D01*
X319303Y164564D01*
X319357Y164521D01*
X319451Y164477D01*
X319541Y164424D01*
X319607Y164404D01*
X319670Y164374D01*
X319772Y164353D01*
X319872Y164322D01*
X319941Y164317D01*
X320008Y164303D01*
X320112Y164305D01*
X320217Y164298D01*
X320285Y164309D01*
G37*
%LPC*%
G36*
X99781Y376935D02*
X99781Y376935D01*
X96420Y378327D01*
X93847Y380900D01*
X92455Y384261D01*
X92455Y403139D01*
X93847Y406500D01*
X96420Y409073D01*
X99781Y410465D01*
X103419Y410465D01*
X106780Y409073D01*
X109353Y406500D01*
X110745Y403139D01*
X110745Y384261D01*
X109353Y380900D01*
X106780Y378327D01*
X103419Y376935D01*
X99781Y376935D01*
G37*
%LPD*%
%LPC*%
G36*
X150581Y376935D02*
X150581Y376935D01*
X147220Y378327D01*
X144647Y380900D01*
X143255Y384261D01*
X143255Y403139D01*
X144647Y406500D01*
X147220Y409073D01*
X150581Y410465D01*
X154219Y410465D01*
X157580Y409073D01*
X160153Y406500D01*
X161545Y403139D01*
X161545Y384261D01*
X160153Y380900D01*
X157580Y378327D01*
X154219Y376935D01*
X150581Y376935D01*
G37*
%LPD*%
%LPC*%
G36*
X231668Y332375D02*
X231668Y332375D01*
X230775Y333268D01*
X230775Y352532D01*
X231668Y353425D01*
X250932Y353425D01*
X251825Y352532D01*
X251825Y333268D01*
X250932Y332375D01*
X231668Y332375D01*
G37*
%LPD*%
%LPC*%
G36*
X91968Y332375D02*
X91968Y332375D01*
X91075Y333268D01*
X91075Y352532D01*
X91968Y353425D01*
X111232Y353425D01*
X112125Y352532D01*
X112125Y333268D01*
X111232Y332375D01*
X91968Y332375D01*
G37*
%LPD*%
%LPC*%
G36*
X299600Y421899D02*
X299600Y421899D01*
X299599Y421900D01*
X299599Y435900D01*
X299600Y435901D01*
X321600Y435901D01*
X321601Y435900D01*
X321601Y421900D01*
X321600Y421899D01*
X299600Y421899D01*
G37*
%LPD*%
%LPC*%
G36*
X164070Y272919D02*
X164070Y272919D01*
X162120Y273727D01*
X160627Y275220D01*
X159819Y277170D01*
X159819Y279282D01*
X160627Y281232D01*
X162120Y282725D01*
X164070Y283533D01*
X166182Y283533D01*
X167402Y283027D01*
X167553Y282984D01*
X167702Y282938D01*
X167719Y282937D01*
X167735Y282932D01*
X167890Y282925D01*
X168047Y282915D01*
X168063Y282917D01*
X168080Y282917D01*
X168234Y282945D01*
X168388Y282971D01*
X168403Y282977D01*
X168420Y282980D01*
X168564Y283044D01*
X168707Y283103D01*
X168721Y283113D01*
X168736Y283120D01*
X168861Y283214D01*
X168987Y283306D01*
X168999Y283318D01*
X169012Y283329D01*
X169112Y283448D01*
X169214Y283567D01*
X169222Y283582D01*
X169233Y283595D01*
X169302Y283734D01*
X169375Y283873D01*
X169379Y283889D01*
X169387Y283904D01*
X169422Y284056D01*
X169461Y284208D01*
X169463Y284229D01*
X169465Y284241D01*
X169465Y284269D01*
X169475Y284412D01*
X169475Y284432D01*
X170368Y285325D01*
X179632Y285325D01*
X180525Y284432D01*
X180525Y275168D01*
X179632Y274275D01*
X170311Y274275D01*
X170281Y274289D01*
X170252Y274310D01*
X170125Y274362D01*
X170000Y274421D01*
X169966Y274428D01*
X169933Y274442D01*
X169797Y274464D01*
X169662Y274492D01*
X169627Y274491D01*
X169592Y274497D01*
X169454Y274487D01*
X169316Y274484D01*
X169282Y274475D01*
X169247Y274473D01*
X169115Y274431D01*
X168982Y274397D01*
X168951Y274380D01*
X168917Y274370D01*
X168798Y274300D01*
X168676Y274235D01*
X168649Y274212D01*
X168619Y274194D01*
X168464Y274059D01*
X168132Y273727D01*
X166182Y272919D01*
X164070Y272919D01*
G37*
%LPD*%
%LPC*%
G36*
X129539Y396239D02*
X129539Y396239D01*
X129539Y411179D01*
X130900Y410736D01*
X132325Y410010D01*
X133619Y409070D01*
X134750Y407939D01*
X135690Y406645D01*
X136416Y405220D01*
X136911Y403699D01*
X137161Y402120D01*
X137161Y396239D01*
X129539Y396239D01*
G37*
%LPD*%
%LPC*%
G36*
X129539Y391161D02*
X129539Y391161D01*
X137161Y391161D01*
X137161Y385280D01*
X136911Y383701D01*
X136416Y382180D01*
X135690Y380755D01*
X134750Y379461D01*
X133619Y378330D01*
X132325Y377390D01*
X130900Y376664D01*
X129539Y376221D01*
X129539Y391161D01*
G37*
%LPD*%
%LPC*%
G36*
X116839Y396239D02*
X116839Y396239D01*
X116839Y402120D01*
X117089Y403699D01*
X117584Y405220D01*
X118310Y406645D01*
X119250Y407939D01*
X120381Y409070D01*
X121675Y410010D01*
X123100Y410736D01*
X124461Y411179D01*
X124461Y396239D01*
X116839Y396239D01*
G37*
%LPD*%
%LPC*%
G36*
X123100Y376664D02*
X123100Y376664D01*
X121675Y377390D01*
X120381Y378330D01*
X119250Y379461D01*
X118310Y380755D01*
X117584Y382180D01*
X117089Y383701D01*
X116839Y385280D01*
X116839Y391161D01*
X124461Y391161D01*
X124461Y376221D01*
X123100Y376664D01*
G37*
%LPD*%
%LPC*%
G36*
X169839Y183189D02*
X169839Y183189D01*
X169839Y191731D01*
X176175Y191731D01*
X176821Y191558D01*
X177400Y191223D01*
X177873Y190750D01*
X178208Y190171D01*
X178381Y189525D01*
X178381Y183189D01*
X169839Y183189D01*
G37*
%LPD*%
%LPC*%
G36*
X178959Y345899D02*
X178959Y345899D01*
X178959Y352235D01*
X179132Y352881D01*
X179467Y353460D01*
X179940Y353933D01*
X180519Y354268D01*
X181165Y354441D01*
X187501Y354441D01*
X187501Y345899D01*
X178959Y345899D01*
G37*
%LPD*%
%LPC*%
G36*
X155299Y183189D02*
X155299Y183189D01*
X155299Y189525D01*
X155472Y190171D01*
X155807Y190750D01*
X156280Y191223D01*
X156859Y191558D01*
X157505Y191731D01*
X163841Y191731D01*
X163841Y183189D01*
X155299Y183189D01*
G37*
%LPD*%
%LPC*%
G36*
X169839Y168649D02*
X169839Y168649D01*
X169839Y177191D01*
X178381Y177191D01*
X178381Y170855D01*
X178208Y170209D01*
X177873Y169630D01*
X177400Y169157D01*
X176821Y168822D01*
X176175Y168649D01*
X169839Y168649D01*
G37*
%LPD*%
%LPC*%
G36*
X92265Y166259D02*
X92265Y166259D01*
X91619Y166432D01*
X91040Y166767D01*
X90567Y167240D01*
X90232Y167819D01*
X90059Y168465D01*
X90059Y174801D01*
X98601Y174801D01*
X98601Y166259D01*
X92265Y166259D01*
G37*
%LPD*%
%LPC*%
G36*
X181165Y331359D02*
X181165Y331359D01*
X180519Y331532D01*
X179940Y331867D01*
X179467Y332340D01*
X179132Y332919D01*
X178959Y333565D01*
X178959Y339901D01*
X187501Y339901D01*
X187501Y331359D01*
X181165Y331359D01*
G37*
%LPD*%
%LPC*%
G36*
X157505Y168649D02*
X157505Y168649D01*
X156859Y168822D01*
X156280Y169157D01*
X155807Y169630D01*
X155472Y170209D01*
X155299Y170855D01*
X155299Y177191D01*
X163841Y177191D01*
X163841Y168649D01*
X157505Y168649D01*
G37*
%LPD*%
%LPC*%
G36*
X211799Y40599D02*
X211799Y40599D01*
X211799Y43935D01*
X211972Y44581D01*
X212307Y45160D01*
X212780Y45633D01*
X213359Y45968D01*
X214005Y46141D01*
X222341Y46141D01*
X222341Y40599D01*
X211799Y40599D01*
G37*
%LPD*%
%LPC*%
G36*
X214005Y29059D02*
X214005Y29059D01*
X213359Y29232D01*
X212780Y29567D01*
X212307Y30040D01*
X211972Y30619D01*
X211799Y31265D01*
X211799Y34601D01*
X222341Y34601D01*
X222341Y29059D01*
X214005Y29059D01*
G37*
%LPD*%
%LPC*%
G36*
X282024Y71559D02*
X282024Y71559D01*
X282024Y76726D01*
X289941Y76726D01*
X289941Y73765D01*
X289768Y73119D01*
X289433Y72540D01*
X288960Y72067D01*
X288381Y71732D01*
X287735Y71559D01*
X282024Y71559D01*
G37*
%LPD*%
%LPC*%
G36*
X271065Y71559D02*
X271065Y71559D01*
X270419Y71732D01*
X269840Y72067D01*
X269367Y72540D01*
X269032Y73119D01*
X268859Y73765D01*
X268859Y76726D01*
X276776Y76726D01*
X276776Y71559D01*
X271065Y71559D01*
G37*
%LPD*%
%LPC*%
G36*
X319799Y108299D02*
X319799Y108299D01*
X319799Y113841D01*
X322635Y113841D01*
X323281Y113668D01*
X323860Y113333D01*
X324333Y112860D01*
X324668Y112281D01*
X324841Y111635D01*
X324841Y108299D01*
X319799Y108299D01*
G37*
%LPD*%
%LPC*%
G36*
X61959Y260999D02*
X61959Y260999D01*
X61959Y263835D01*
X62132Y264481D01*
X62467Y265060D01*
X62940Y265533D01*
X63519Y265868D01*
X64165Y266041D01*
X67501Y266041D01*
X67501Y260999D01*
X61959Y260999D01*
G37*
%LPD*%
%LPC*%
G36*
X275559Y167599D02*
X275559Y167599D01*
X275559Y170435D01*
X275732Y171081D01*
X276067Y171660D01*
X276540Y172133D01*
X277119Y172468D01*
X277765Y172641D01*
X281101Y172641D01*
X281101Y167599D01*
X275559Y167599D01*
G37*
%LPD*%
%LPC*%
G36*
X295879Y228559D02*
X295879Y228559D01*
X295879Y231395D01*
X296052Y232041D01*
X296387Y232620D01*
X296860Y233093D01*
X297439Y233428D01*
X298085Y233601D01*
X301421Y233601D01*
X301421Y228559D01*
X295879Y228559D01*
G37*
%LPD*%
%LPC*%
G36*
X132499Y233459D02*
X132499Y233459D01*
X132499Y239001D01*
X137541Y239001D01*
X137541Y235665D01*
X137368Y235019D01*
X137033Y234440D01*
X136560Y233967D01*
X135981Y233632D01*
X135335Y233459D01*
X132499Y233459D01*
G37*
%LPD*%
%LPC*%
G36*
X72859Y104099D02*
X72859Y104099D01*
X72859Y107435D01*
X73032Y108081D01*
X73367Y108660D01*
X73840Y109133D01*
X74419Y109468D01*
X75065Y109641D01*
X77901Y109641D01*
X77901Y104099D01*
X72859Y104099D01*
G37*
%LPD*%
%LPC*%
G36*
X75065Y93559D02*
X75065Y93559D01*
X74419Y93732D01*
X73840Y94067D01*
X73367Y94540D01*
X73032Y95119D01*
X72859Y95765D01*
X72859Y99101D01*
X77901Y99101D01*
X77901Y93559D01*
X75065Y93559D01*
G37*
%LPD*%
%LPC*%
G36*
X166839Y180189D02*
X166839Y180189D01*
X166839Y180191D01*
X166841Y180191D01*
X166841Y180189D01*
X166839Y180189D01*
G37*
%LPD*%
D10*
X399670Y219710D03*
X391670Y219710D03*
X383670Y219710D03*
X375670Y219710D03*
X367670Y219710D03*
X359670Y219710D03*
X351670Y219710D03*
X343670Y219710D03*
D11*
X414170Y205210D03*
X414170Y197210D03*
X414170Y189210D03*
X414170Y181210D03*
X414170Y173210D03*
X414170Y165210D03*
X414170Y157210D03*
X414170Y149210D03*
X329170Y205210D03*
X329170Y197210D03*
X329170Y189210D03*
X329170Y181210D03*
X329170Y173210D03*
X329170Y165210D03*
X329170Y157210D03*
X329170Y149210D03*
D10*
X399670Y134710D03*
X391670Y134710D03*
X383670Y134710D03*
X375670Y134710D03*
X367670Y134710D03*
X359670Y134710D03*
X351670Y134710D03*
X343670Y134710D03*
D12*
X287340Y14600D03*
D13*
X225340Y14600D03*
X225340Y37600D03*
X225340Y-8400D03*
D14*
X62500Y50000D03*
X62500Y40500D03*
X62500Y59500D03*
X37500Y50000D03*
X37500Y40500D03*
X37500Y59500D03*
X122500Y50000D03*
X122500Y40500D03*
X122500Y59500D03*
X97500Y50000D03*
X97500Y40500D03*
X97500Y59500D03*
X182500Y50000D03*
X182500Y40500D03*
X182500Y59500D03*
X157500Y50000D03*
X157500Y40500D03*
X157500Y59500D03*
D15*
X26670Y270510D03*
X26670Y295510D03*
X26670Y245510D03*
D16*
X100000Y241500D03*
X100000Y258500D03*
D17*
X225000Y279800D03*
X225000Y294800D03*
D16*
X347300Y88800D03*
X347300Y105800D03*
D18*
X317300Y88800D03*
X317300Y105800D03*
D19*
X279400Y123850D03*
X279400Y79350D03*
D17*
X250000Y279800D03*
X250000Y294800D03*
X200000Y279800D03*
X200000Y294800D03*
D16*
X407300Y105800D03*
X407300Y88800D03*
X300600Y165100D03*
X283600Y165100D03*
X320920Y226060D03*
X303920Y226060D03*
D18*
X377300Y105800D03*
X377300Y88800D03*
D17*
X175000Y279800D03*
X175000Y294800D03*
D20*
X166840Y180190D03*
X166840Y154790D03*
X166840Y129490D03*
X243040Y180190D03*
X243040Y154790D03*
X243040Y129490D03*
D21*
X203200Y386080D02*
X203200Y401320D01*
X177800Y401320D02*
X177800Y386080D01*
X152400Y386080D02*
X152400Y401320D01*
X127000Y401320D02*
X127000Y386080D01*
X101600Y386080D02*
X101600Y401320D01*
D14*
X139500Y292100D03*
X139500Y282600D03*
X139500Y301600D03*
X114500Y292100D03*
X114500Y282600D03*
X114500Y301600D03*
D18*
X130000Y258500D03*
X130000Y241500D03*
D16*
X70000Y281500D03*
X70000Y298500D03*
X70000Y258500D03*
X70000Y241500D03*
X377190Y239150D03*
X377190Y256150D03*
D22*
X355600Y278900D03*
X344600Y278900D03*
X333600Y278900D03*
X322600Y278900D03*
X366600Y278900D03*
X377600Y278900D03*
X388600Y278900D03*
X399600Y278900D03*
D23*
X307600Y279090D03*
D22*
X410600Y278900D03*
D24*
X422600Y325900D03*
D25*
X422600Y387900D03*
D26*
X426410Y422630D03*
D27*
X285060Y428520D03*
D20*
X241300Y342900D03*
X215900Y342900D03*
X165100Y342900D03*
X190500Y342900D03*
X101600Y177800D03*
X101600Y152400D03*
D18*
X80400Y101600D03*
X97400Y101600D03*
D20*
X101600Y342900D03*
X76200Y342900D03*
D28*
X382278Y133458D02*
X382278Y126672D01*
X373230Y117624D01*
X199056Y122148D02*
X199056Y110838D01*
X199056Y122148D02*
X167388Y153816D01*
X382278Y133458D02*
X383670Y134710D01*
X167388Y153816D02*
X166840Y154790D01*
D29*
X373230Y117624D03*
X199056Y110838D03*
D28*
X337038Y128934D02*
X341562Y133458D01*
X337038Y128934D02*
X334776Y128934D01*
X341562Y133458D02*
X343670Y134710D01*
D29*
X334776Y128934D03*
D28*
X393588Y221676D02*
X393588Y242034D01*
X393588Y221676D02*
X391670Y219710D01*
X334776Y262392D02*
X334776Y278226D01*
X333600Y278900D01*
D29*
X393588Y242034D03*
X334776Y262392D03*
D28*
X381194Y222186D02*
X383670Y219710D01*
X381194Y222186D02*
X381194Y226963D01*
X377190Y230967D02*
X377190Y239150D01*
X377190Y230967D02*
X381194Y226963D01*
X375670Y219710D02*
X375670Y208530D01*
X381000Y203200D01*
X397510Y203200D01*
X410210Y215900D01*
X410210Y243840D01*
X388600Y265450D02*
X388600Y278900D01*
X388600Y265450D02*
X410210Y243840D01*
X388600Y278900D02*
X388600Y289580D01*
X382270Y295910D01*
D29*
X382270Y295910D03*
D28*
X365194Y222186D02*
X367670Y219710D01*
X365194Y222186D02*
X365194Y226963D01*
X344600Y247557D02*
X344600Y278900D01*
X344600Y247557D02*
X365194Y226963D01*
X344600Y278900D02*
X344600Y287860D01*
X335280Y297180D01*
D29*
X335280Y297180D03*
D28*
X375492Y104052D02*
X368706Y97266D01*
X368706Y81432D01*
X370968Y79170D01*
X413946Y79170D01*
X447876Y113100D01*
X447876Y140244D01*
X441090Y147030D01*
X425256Y147030D02*
X416208Y147030D01*
X425256Y147030D02*
X441090Y147030D01*
X377300Y105800D02*
X375492Y104052D01*
X416208Y147030D02*
X414170Y149210D01*
X416208Y180960D02*
X420732Y180960D01*
X425256Y176436D01*
X425256Y147030D01*
X416208Y180960D02*
X414170Y181210D01*
X321204Y212628D02*
X321204Y223938D01*
X321204Y212628D02*
X327990Y205842D01*
X321204Y223938D02*
X320920Y226060D01*
X327990Y205842D02*
X329170Y205210D01*
X355134Y280488D02*
X355134Y287274D01*
X337038Y305370D01*
X246558Y305370D01*
X242034Y300846D01*
X242034Y289536D01*
X244296Y287274D01*
X262392Y287274D01*
X318942Y230724D01*
X318942Y226200D01*
X355600Y278900D02*
X355134Y280488D01*
X320920Y226060D02*
X318942Y226200D01*
X359658Y180960D02*
X413946Y180960D01*
X359658Y180960D02*
X337038Y203580D01*
X330252Y203580D01*
X413946Y180960D02*
X414170Y181210D01*
X330252Y203580D02*
X329170Y205210D01*
X242034Y31668D02*
X226200Y15834D01*
X242034Y31668D02*
X242034Y128934D01*
X226200Y15834D02*
X225340Y14600D01*
X242034Y128934D02*
X243040Y129490D01*
X291798Y156078D02*
X294060Y158340D01*
X298584Y162864D01*
X291798Y156078D02*
X244296Y156078D01*
X298584Y162864D02*
X300600Y165100D01*
X294060Y158340D02*
X323466Y128934D01*
X346086Y106314D01*
X347300Y105800D01*
X244296Y156078D02*
X244296Y178698D01*
X243040Y180190D01*
X244296Y156078D02*
X243040Y154790D01*
X244296Y153816D02*
X244296Y131196D01*
X243040Y129490D01*
X244296Y153816D02*
X243040Y154790D01*
X359658Y165126D02*
X359658Y180960D01*
X359658Y165126D02*
X323466Y128934D01*
X165126Y294060D02*
X158340Y294060D01*
X165126Y294060D02*
X174174Y294060D01*
X158340Y294060D02*
X147030Y282750D01*
X140244Y282750D01*
X174174Y294060D02*
X175000Y294800D01*
X140244Y282750D02*
X139500Y282600D01*
X165126Y294060D02*
X165126Y341562D01*
X165100Y342900D01*
X289536Y133458D02*
X316680Y106314D01*
X289536Y133458D02*
X271440Y133458D01*
X253344Y115362D01*
X253344Y95004D01*
X266916Y81432D01*
X278226Y81432D01*
X316680Y106314D02*
X317300Y105800D01*
X278226Y81432D02*
X279400Y79350D01*
X282750Y165126D02*
X255606Y192270D01*
X248820Y192270D02*
X230724Y192270D01*
X248820Y192270D02*
X255606Y192270D01*
X230724Y192270D02*
X226200Y187746D01*
X226200Y38454D01*
X282750Y165126D02*
X283600Y165100D01*
X226200Y38454D02*
X225340Y37600D01*
X266916Y33930D02*
X266916Y81432D01*
X266916Y33930D02*
X237510Y4524D01*
X212628Y4524D01*
X210366Y6786D01*
X210366Y22620D01*
X223938Y36192D01*
X225340Y37600D01*
X131196Y214890D02*
X131196Y239772D01*
X131196Y214890D02*
X165126Y180960D01*
X131196Y239772D02*
X130000Y241500D01*
X165126Y180960D02*
X166840Y180190D01*
X377754Y90480D02*
X407160Y90480D01*
X377754Y90480D02*
X377300Y88800D01*
X407160Y90480D02*
X407300Y88800D01*
X400374Y128934D02*
X400374Y133458D01*
X407160Y122148D02*
X416208Y113100D01*
X407160Y122148D02*
X400374Y128934D01*
X416208Y113100D02*
X416208Y97266D01*
X409422Y90480D01*
X400374Y133458D02*
X399670Y134710D01*
X409422Y90480D02*
X407300Y88800D01*
X303108Y226200D02*
X266916Y262392D01*
X303108Y226200D02*
X303920Y226060D01*
X341562Y221676D02*
X341562Y232986D01*
X341562Y221676D02*
X343670Y219710D01*
X407160Y122148D02*
X409422Y122148D01*
X151554Y242034D02*
X131196Y242034D01*
X151554Y242034D02*
X183222Y273702D01*
X183222Y334776D01*
X190008Y341562D01*
X131196Y242034D02*
X130000Y241500D01*
X190008Y341562D02*
X190500Y342900D01*
X248820Y219414D02*
X248820Y192270D01*
X61074Y260130D02*
X42978Y260130D01*
X61074Y260130D02*
X67860Y260130D01*
X42978Y260130D02*
X33930Y269178D01*
X27144Y269178D01*
X67860Y260130D02*
X70000Y258500D01*
X27144Y269178D02*
X26670Y270510D01*
X81432Y158340D02*
X81432Y101790D01*
X81432Y158340D02*
X99528Y176436D01*
X81432Y101790D02*
X80400Y101600D01*
X99528Y176436D02*
X101600Y177800D01*
X375492Y280488D02*
X375492Y291798D01*
X337038Y330252D01*
X289536Y330252D01*
X205842Y413946D01*
X147030Y413946D01*
X128934Y395850D01*
X375492Y280488D02*
X377600Y278900D01*
X128934Y395850D02*
X127000Y393700D01*
X61074Y305370D02*
X61074Y260130D01*
X61074Y305370D02*
X85956Y330252D01*
X113100Y330252D01*
X126672Y343824D01*
X126672Y355134D02*
X126672Y393588D01*
X126672Y355134D02*
X126672Y343824D01*
X126672Y393588D02*
X127000Y393700D01*
X178698Y355134D02*
X190008Y343824D01*
X178698Y355134D02*
X126672Y355134D01*
X190008Y343824D02*
X190500Y342900D01*
D29*
X266916Y262392D03*
X341562Y232986D03*
X409422Y122148D03*
X248820Y219414D03*
D28*
X352872Y142506D02*
X352872Y135720D01*
X352872Y142506D02*
X355134Y144768D01*
X404898Y144768D01*
X411684Y137982D01*
X438828Y137982D01*
X352872Y135720D02*
X351670Y134710D01*
D29*
X438828Y137982D03*
D28*
X334776Y149292D02*
X330252Y149292D01*
X334776Y149292D02*
X350610Y165126D01*
X350610Y167388D01*
X373230Y190008D02*
X395850Y190008D01*
X402636Y196794D01*
X330252Y149292D02*
X329170Y149210D01*
D29*
X350610Y167388D03*
X373230Y190008D03*
X402636Y196794D03*
D28*
X327990Y158340D02*
X321204Y158340D01*
X309894Y169650D01*
X309894Y203580D01*
X232986Y280488D01*
X232986Y303108D01*
X203580Y332514D01*
X203580Y368706D01*
X178698Y393588D01*
X327990Y158340D02*
X329170Y157210D01*
X178698Y393588D02*
X177800Y393700D01*
X251082Y294060D02*
X269178Y294060D01*
X334776Y228462D01*
X334776Y212628D01*
X348348Y199056D01*
X352872Y199056D01*
X359658Y205842D01*
X359658Y219414D01*
X251082Y294060D02*
X250000Y294800D01*
X359670Y219710D02*
X359658Y219414D01*
X199056Y294060D02*
X192270Y287274D01*
X192270Y273702D01*
X237510Y228462D01*
X273702Y228462D01*
X350610Y219414D02*
X350610Y208104D01*
X200000Y294800D02*
X199056Y294060D01*
X350610Y219414D02*
X351670Y219710D01*
D29*
X273702Y228462D03*
X350610Y208104D03*
D28*
X83694Y38454D02*
X63336Y38454D01*
X83694Y38454D02*
X88218Y33930D01*
X117624Y33930D01*
X122148Y38454D01*
X63336Y38454D02*
X62500Y40500D01*
X122148Y38454D02*
X122500Y40500D01*
X99528Y239772D02*
X90480Y239772D01*
X79170Y228462D01*
X42978Y228462D01*
X27144Y244296D01*
X99528Y239772D02*
X100000Y241500D01*
X27144Y244296D02*
X26670Y245510D01*
X151554Y40716D02*
X156078Y40716D01*
X151554Y40716D02*
X144768Y47502D01*
X144768Y158340D01*
X156078Y40716D02*
X157500Y40500D01*
D29*
X144768Y158340D03*
D28*
X214890Y278226D02*
X223938Y278226D01*
X225000Y279800D01*
D29*
X214890Y278226D03*
D28*
X158340Y58812D02*
X158340Y52026D01*
X157500Y50000D01*
X158340Y58812D02*
X157500Y59500D01*
X212628Y296322D02*
X223938Y296322D01*
X212628Y296322D02*
X205842Y303108D01*
X194532Y303108D01*
X187746Y296322D01*
X187746Y140244D01*
X208104Y119886D01*
X208104Y85956D01*
X183222Y61074D01*
X225000Y294800D02*
X223938Y296322D01*
X183222Y61074D02*
X182500Y59500D01*
X183222Y58812D02*
X183222Y52026D01*
X182500Y50000D01*
X183222Y58812D02*
X182500Y59500D01*
X180960Y49764D02*
X158340Y49764D01*
X157500Y50000D01*
X180960Y49764D02*
X182500Y50000D01*
X217152Y-6786D02*
X223938Y-6786D01*
X217152Y-6786D02*
X194532Y15834D01*
X194532Y45240D01*
X190008Y49764D01*
X183222Y49764D01*
X223938Y-6786D02*
X225340Y-8400D01*
X183222Y49764D02*
X182500Y50000D01*
X38454Y52026D02*
X38454Y58812D01*
X38454Y52026D02*
X37500Y50000D01*
X38454Y58812D02*
X37500Y59500D01*
X63336Y58812D02*
X63336Y52026D01*
X62500Y50000D01*
X63336Y58812D02*
X62500Y59500D01*
X61074Y49764D02*
X38454Y49764D01*
X37500Y50000D01*
X61074Y49764D02*
X62500Y50000D01*
X63336Y61074D02*
X63336Y162864D01*
X90480Y190008D01*
X113100Y190008D01*
X115362Y187746D01*
X115362Y167388D01*
X101790Y153816D01*
X63336Y61074D02*
X62500Y59500D01*
X101600Y152400D02*
X101790Y153816D01*
X318942Y90480D02*
X346086Y90480D01*
X318942Y90480D02*
X317300Y88800D01*
X346086Y90480D02*
X347300Y88800D01*
X291798Y122148D02*
X280488Y122148D01*
X291798Y122148D02*
X307632Y106314D01*
X307632Y99528D01*
X316680Y90480D01*
X280488Y122148D02*
X279400Y123850D01*
X316680Y90480D02*
X317300Y88800D01*
X260130Y278226D02*
X251082Y278226D01*
X250000Y279800D01*
D29*
X260130Y278226D03*
D28*
X212628Y266916D02*
X201318Y278226D01*
X200000Y279800D01*
D29*
X212628Y266916D03*
D28*
X407160Y113100D02*
X407160Y106314D01*
X407160Y113100D02*
X393588Y126672D01*
X393588Y133458D01*
X407160Y106314D02*
X407300Y105800D01*
X393588Y133458D02*
X391670Y134710D01*
X174174Y278226D02*
X165126Y278226D01*
X174174Y278226D02*
X175000Y279800D01*
D29*
X165126Y278226D03*
D28*
X49764Y38454D02*
X38454Y38454D01*
X49764Y38454D02*
X58812Y29406D01*
X126672Y29406D01*
X133458Y36192D01*
X133458Y45240D01*
X128934Y49764D01*
X124410Y49764D01*
X38454Y38454D02*
X37500Y40500D01*
X122500Y50000D02*
X124410Y49764D01*
X122148Y52026D02*
X122148Y58812D01*
X122148Y52026D02*
X122500Y50000D01*
X174174Y38454D02*
X180960Y38454D01*
X174174Y38454D02*
X169650Y33930D01*
X135720Y33930D02*
X133458Y36192D01*
X180960Y38454D02*
X182500Y40500D01*
X101790Y260130D02*
X101790Y269178D01*
X113100Y280488D01*
X101790Y260130D02*
X100000Y258500D01*
X113100Y280488D02*
X114500Y282600D01*
X97266Y49764D02*
X97266Y40716D01*
X97500Y40500D01*
X97266Y49764D02*
X97500Y50000D01*
X97266Y61074D02*
X97266Y99528D01*
X97400Y101600D01*
X97266Y61074D02*
X97500Y59500D01*
X97266Y58812D02*
X97266Y52026D01*
X97500Y50000D01*
X97266Y58812D02*
X97500Y59500D01*
X115362Y244296D02*
X101790Y257868D01*
X115362Y244296D02*
X115362Y194532D01*
X119886Y190008D01*
X119886Y122148D01*
X99528Y101790D01*
X101790Y257868D02*
X100000Y258500D01*
X99528Y101790D02*
X97400Y101600D01*
X74646Y327990D02*
X74646Y341562D01*
X74646Y327990D02*
X29406Y282750D01*
X22620Y282750D01*
X15834Y275964D01*
X15834Y264654D01*
X22620Y257868D01*
X38454Y257868D01*
X63336Y232986D01*
X76908Y232986D01*
X90480Y246558D01*
X90480Y248820D01*
X99528Y257868D01*
X74646Y341562D02*
X76200Y342900D01*
X100000Y258500D02*
X99528Y257868D01*
X99528Y58812D02*
X122148Y58812D01*
X122500Y59500D01*
X99528Y58812D02*
X97500Y59500D01*
D29*
X169650Y33930D03*
X135720Y33930D03*
D28*
X70122Y242034D02*
X79170Y251082D01*
X79170Y271440D01*
X70122Y280488D01*
X70122Y242034D02*
X70000Y241500D01*
X70122Y280488D02*
X70000Y281500D01*
X115362Y294060D02*
X115362Y300846D01*
X115362Y294060D02*
X114500Y292100D01*
X115362Y300846D02*
X114500Y301600D01*
X140244Y300846D02*
X140244Y294060D01*
X139500Y292100D01*
X140244Y300846D02*
X139500Y301600D01*
X137982Y291798D02*
X115362Y291798D01*
X114500Y292100D01*
X137982Y291798D02*
X139500Y292100D01*
X88218Y271440D02*
X79170Y271440D01*
X88218Y271440D02*
X108576Y291798D01*
X113100Y291798D01*
X114500Y292100D01*
X128934Y257868D02*
X119886Y248820D01*
X119886Y196794D01*
X135720Y180960D01*
X135720Y49764D01*
X144768Y40716D01*
X144768Y38454D01*
X201318Y-18096D01*
X237510Y-18096D01*
X271440Y15834D01*
X271440Y31668D01*
X318942Y79170D01*
X352872Y79170D01*
X359658Y85956D01*
X359658Y133458D01*
X130000Y258500D02*
X128934Y257868D01*
X359670Y134710D02*
X359658Y133458D01*
X95004Y298584D02*
X70122Y298584D01*
X95004Y298584D02*
X108576Y312156D01*
X119886Y269178D02*
X128934Y260130D01*
X70122Y298584D02*
X70000Y298500D01*
X128934Y260130D02*
X130000Y258500D01*
D29*
X108576Y312156D03*
X119886Y269178D03*
D28*
X371076Y268147D02*
X371076Y274424D01*
X366600Y278900D01*
X377190Y262033D02*
X377190Y256150D01*
X377190Y262033D02*
X371076Y268147D01*
X366600Y278900D02*
X366600Y289990D01*
X360680Y295910D01*
D29*
X360680Y295910D03*
M02*
