G04 EAGLE Gerber RS-274X export*
G75*
%MOMM*%
%FSLAX34Y34*%
%LPD*%
%INSolderpaste Top*%
%IPPOS*%
%AMOC8*
5,1,8,0,0,1.08239X$1,22.5*%
G01*
%ADD10R,0.500000X1.200000*%
%ADD11R,1.200000X0.500000*%
%ADD12R,2.200000X3.500000*%
%ADD13R,2.200000X1.200000*%
%ADD14R,1.500000X0.600000*%
%ADD15R,1.100000X1.000000*%
%ADD16R,0.800000X0.800000*%
%ADD17R,1.000000X1.100000*%
%ADD18R,1.600000X1.050000*%
%ADD19R,0.700000X1.900000*%
%ADD20R,1.000000X1.900000*%
%ADD21R,1.200000X1.200000*%
%ADD22R,1.200000X0.800000*%
%ADD23R,1.200000X2.800000*%
%ADD24R,1.900000X1.900000*%


D10*
X399670Y219710D03*
X391670Y219710D03*
X383670Y219710D03*
X375670Y219710D03*
X367670Y219710D03*
X359670Y219710D03*
X351670Y219710D03*
X343670Y219710D03*
D11*
X414170Y205210D03*
X414170Y197210D03*
X414170Y189210D03*
X414170Y181210D03*
X414170Y173210D03*
X414170Y165210D03*
X414170Y157210D03*
X414170Y149210D03*
X329170Y205210D03*
X329170Y197210D03*
X329170Y189210D03*
X329170Y181210D03*
X329170Y173210D03*
X329170Y165210D03*
X329170Y157210D03*
X329170Y149210D03*
D10*
X399670Y134710D03*
X391670Y134710D03*
X383670Y134710D03*
X375670Y134710D03*
X367670Y134710D03*
X359670Y134710D03*
X351670Y134710D03*
X343670Y134710D03*
D12*
X287340Y14600D03*
D13*
X225340Y14600D03*
X225340Y37600D03*
X225340Y-8400D03*
D14*
X62500Y50000D03*
X62500Y40500D03*
X62500Y59500D03*
X37500Y50000D03*
X37500Y40500D03*
X37500Y59500D03*
X122500Y50000D03*
X122500Y40500D03*
X122500Y59500D03*
X97500Y50000D03*
X97500Y40500D03*
X97500Y59500D03*
X182500Y50000D03*
X182500Y40500D03*
X182500Y59500D03*
X157500Y50000D03*
X157500Y40500D03*
X157500Y59500D03*
D15*
X100000Y241500D03*
X100000Y258500D03*
D16*
X225000Y279800D03*
X225000Y294800D03*
D15*
X347300Y88800D03*
X347300Y105800D03*
D17*
X317300Y88800D03*
X317300Y105800D03*
D18*
X279400Y123850D03*
X279400Y79350D03*
D16*
X250000Y279800D03*
X250000Y294800D03*
X200000Y279800D03*
X200000Y294800D03*
D15*
X407300Y105800D03*
X407300Y88800D03*
X300600Y165100D03*
X283600Y165100D03*
X320920Y226060D03*
X303920Y226060D03*
D17*
X377300Y105800D03*
X377300Y88800D03*
D16*
X175000Y279800D03*
X175000Y294800D03*
D14*
X139500Y292100D03*
X139500Y282600D03*
X139500Y301600D03*
X114500Y292100D03*
X114500Y282600D03*
X114500Y301600D03*
D17*
X130000Y258500D03*
X130000Y241500D03*
D15*
X70000Y281500D03*
X70000Y298500D03*
X70000Y258500D03*
X70000Y241500D03*
X377190Y239150D03*
X377190Y256150D03*
D19*
X355600Y278900D03*
X344600Y278900D03*
X333600Y278900D03*
X322600Y278900D03*
X366600Y278900D03*
X377600Y278900D03*
X388600Y278900D03*
X399600Y278900D03*
D20*
X307600Y279090D03*
D19*
X410600Y278900D03*
D21*
X422600Y325900D03*
D22*
X422600Y387900D03*
D23*
X426410Y422630D03*
D24*
X285060Y428520D03*
D17*
X80400Y101600D03*
X97400Y101600D03*
M02*
