G04 EAGLE Gerber RS-274X export*
G75*
%MOMM*%
%FSLAX34Y34*%
%LPD*%
%INBottom Copper*%
%IPPOS*%
%AMOC8*
5,1,8,0,0,1.08239X$1,22.5*%
G01*
%ADD10C,1.308000*%
%ADD11R,1.508000X1.508000*%
%ADD12C,0.635000*%
%ADD13C,0.756400*%

G36*
X375844Y10930D02*
X375844Y10930D01*
X375890Y10928D01*
X375965Y10950D01*
X376042Y10962D01*
X376082Y10984D01*
X376126Y10997D01*
X376190Y11041D01*
X376259Y11078D01*
X376291Y11111D01*
X376328Y11137D01*
X376375Y11200D01*
X376428Y11256D01*
X376448Y11298D01*
X376475Y11334D01*
X376499Y11408D01*
X376532Y11479D01*
X376537Y11525D01*
X376551Y11568D01*
X376550Y11646D01*
X376559Y11723D01*
X376549Y11768D01*
X376549Y11814D01*
X376511Y11946D01*
X376507Y11964D01*
X376504Y11968D01*
X376502Y11975D01*
X374839Y15990D01*
X374839Y24010D01*
X377909Y31420D01*
X383580Y37091D01*
X390990Y40161D01*
X399010Y40161D01*
X403025Y38498D01*
X403069Y38487D01*
X403111Y38468D01*
X403188Y38459D01*
X403264Y38442D01*
X403310Y38446D01*
X403355Y38441D01*
X403432Y38457D01*
X403509Y38465D01*
X403551Y38483D01*
X403596Y38493D01*
X403663Y38533D01*
X403734Y38565D01*
X403768Y38596D01*
X403807Y38619D01*
X403858Y38678D01*
X403915Y38731D01*
X403937Y38771D01*
X403967Y38806D01*
X403996Y38879D01*
X404033Y38947D01*
X404042Y38992D01*
X404059Y39034D01*
X404074Y39170D01*
X404077Y39189D01*
X404076Y39194D01*
X404077Y39201D01*
X404077Y310799D01*
X404070Y310844D01*
X404072Y310890D01*
X404050Y310965D01*
X404038Y311042D01*
X404016Y311082D01*
X404003Y311126D01*
X403959Y311190D01*
X403922Y311259D01*
X403889Y311291D01*
X403863Y311328D01*
X403800Y311375D01*
X403744Y311428D01*
X403702Y311448D01*
X403666Y311475D01*
X403592Y311499D01*
X403521Y311532D01*
X403475Y311537D01*
X403432Y311551D01*
X403354Y311550D01*
X403277Y311559D01*
X403232Y311549D01*
X403186Y311549D01*
X403054Y311511D01*
X403036Y311507D01*
X403032Y311504D01*
X403025Y311502D01*
X399010Y309839D01*
X390990Y309839D01*
X383580Y312909D01*
X377909Y318580D01*
X374839Y325990D01*
X374839Y334010D01*
X376502Y338025D01*
X376513Y338069D01*
X376532Y338111D01*
X376541Y338188D01*
X376558Y338264D01*
X376554Y338310D01*
X376559Y338355D01*
X376543Y338432D01*
X376535Y338509D01*
X376517Y338551D01*
X376507Y338596D01*
X376467Y338663D01*
X376435Y338734D01*
X376404Y338768D01*
X376381Y338807D01*
X376322Y338858D01*
X376269Y338915D01*
X376229Y338937D01*
X376194Y338967D01*
X376121Y338996D01*
X376053Y339033D01*
X376008Y339042D01*
X375966Y339059D01*
X375830Y339074D01*
X375811Y339077D01*
X375806Y339076D01*
X375799Y339077D01*
X39201Y339077D01*
X39156Y339070D01*
X39110Y339072D01*
X39035Y339050D01*
X38958Y339038D01*
X38918Y339016D01*
X38874Y339003D01*
X38810Y338959D01*
X38741Y338922D01*
X38709Y338889D01*
X38672Y338863D01*
X38625Y338800D01*
X38572Y338744D01*
X38552Y338702D01*
X38525Y338666D01*
X38501Y338592D01*
X38468Y338521D01*
X38463Y338475D01*
X38449Y338432D01*
X38450Y338354D01*
X38441Y338277D01*
X38451Y338232D01*
X38451Y338186D01*
X38489Y338054D01*
X38493Y338036D01*
X38496Y338032D01*
X38498Y338025D01*
X40161Y334010D01*
X40161Y325990D01*
X37091Y318580D01*
X31420Y312909D01*
X24010Y309839D01*
X15990Y309839D01*
X11975Y311502D01*
X11931Y311513D01*
X11889Y311532D01*
X11812Y311541D01*
X11736Y311558D01*
X11690Y311554D01*
X11645Y311559D01*
X11568Y311543D01*
X11491Y311535D01*
X11449Y311517D01*
X11404Y311507D01*
X11337Y311467D01*
X11266Y311435D01*
X11232Y311404D01*
X11193Y311381D01*
X11142Y311322D01*
X11085Y311269D01*
X11063Y311229D01*
X11033Y311194D01*
X11004Y311121D01*
X10967Y311053D01*
X10958Y311008D01*
X10941Y310966D01*
X10926Y310830D01*
X10923Y310811D01*
X10924Y310806D01*
X10923Y310799D01*
X10923Y39201D01*
X10930Y39156D01*
X10928Y39110D01*
X10950Y39035D01*
X10962Y38958D01*
X10984Y38918D01*
X10997Y38874D01*
X11041Y38810D01*
X11078Y38741D01*
X11111Y38709D01*
X11137Y38672D01*
X11200Y38625D01*
X11256Y38572D01*
X11298Y38552D01*
X11334Y38525D01*
X11408Y38501D01*
X11479Y38468D01*
X11525Y38463D01*
X11568Y38449D01*
X11646Y38450D01*
X11723Y38441D01*
X11768Y38451D01*
X11814Y38451D01*
X11946Y38489D01*
X11964Y38493D01*
X11968Y38496D01*
X11975Y38498D01*
X15990Y40161D01*
X24010Y40161D01*
X31420Y37091D01*
X37091Y31420D01*
X40161Y24010D01*
X40161Y15990D01*
X38498Y11975D01*
X38487Y11931D01*
X38468Y11889D01*
X38459Y11812D01*
X38442Y11736D01*
X38446Y11690D01*
X38441Y11645D01*
X38457Y11568D01*
X38465Y11491D01*
X38483Y11449D01*
X38493Y11404D01*
X38533Y11337D01*
X38565Y11266D01*
X38596Y11232D01*
X38619Y11193D01*
X38678Y11142D01*
X38731Y11085D01*
X38771Y11063D01*
X38806Y11033D01*
X38879Y11004D01*
X38947Y10967D01*
X38992Y10958D01*
X39034Y10941D01*
X39170Y10926D01*
X39189Y10923D01*
X39194Y10924D01*
X39201Y10923D01*
X375799Y10923D01*
X375844Y10930D01*
G37*
%LPC*%
G36*
X258828Y82135D02*
X258828Y82135D01*
X257935Y83028D01*
X257935Y85090D01*
X257932Y85110D01*
X257934Y85129D01*
X257912Y85231D01*
X257896Y85333D01*
X257886Y85350D01*
X257882Y85370D01*
X257829Y85459D01*
X257780Y85550D01*
X257766Y85564D01*
X257756Y85581D01*
X257677Y85648D01*
X257602Y85720D01*
X257584Y85728D01*
X257569Y85741D01*
X257473Y85780D01*
X257379Y85823D01*
X257359Y85825D01*
X257341Y85833D01*
X257174Y85851D01*
X253958Y85851D01*
X243331Y96478D01*
X243331Y151553D01*
X247045Y155267D01*
X247098Y155341D01*
X247158Y155410D01*
X247170Y155440D01*
X247189Y155466D01*
X247216Y155553D01*
X247250Y155638D01*
X247254Y155679D01*
X247261Y155702D01*
X247260Y155734D01*
X247268Y155805D01*
X247268Y174903D01*
X247254Y174993D01*
X247246Y175084D01*
X247234Y175114D01*
X247229Y175146D01*
X247186Y175226D01*
X247150Y175310D01*
X247124Y175342D01*
X247113Y175363D01*
X247090Y175385D01*
X247045Y175441D01*
X226622Y195864D01*
X226548Y195917D01*
X226479Y195977D01*
X226449Y195989D01*
X226423Y196008D01*
X226336Y196035D01*
X226251Y196069D01*
X226210Y196073D01*
X226187Y196080D01*
X226155Y196079D01*
X226084Y196087D01*
X223993Y196087D01*
X223922Y196076D01*
X223850Y196074D01*
X223801Y196056D01*
X223750Y196048D01*
X223687Y196014D01*
X223619Y195989D01*
X223579Y195957D01*
X223532Y195932D01*
X223483Y195880D01*
X223427Y195836D01*
X223399Y195792D01*
X223363Y195754D01*
X223333Y195689D01*
X223294Y195629D01*
X223281Y195578D01*
X223259Y195531D01*
X223252Y195460D01*
X223234Y195390D01*
X223238Y195338D01*
X223232Y195287D01*
X223248Y195216D01*
X223253Y195145D01*
X223274Y195097D01*
X223285Y195046D01*
X223321Y194985D01*
X223350Y194919D01*
X223394Y194863D01*
X223411Y194835D01*
X223429Y194820D01*
X223454Y194788D01*
X224753Y193489D01*
X225747Y192001D01*
X226432Y190349D01*
X226656Y189223D01*
X218462Y189223D01*
X218442Y189220D01*
X218423Y189222D01*
X218321Y189200D01*
X218219Y189183D01*
X218202Y189174D01*
X218182Y189170D01*
X218093Y189117D01*
X218002Y189068D01*
X217988Y189054D01*
X217971Y189044D01*
X217904Y188965D01*
X217833Y188890D01*
X217824Y188872D01*
X217811Y188857D01*
X217773Y188761D01*
X217729Y188667D01*
X217727Y188647D01*
X217719Y188629D01*
X217701Y188462D01*
X217701Y187699D01*
X217699Y187699D01*
X217699Y188462D01*
X217696Y188482D01*
X217698Y188501D01*
X217676Y188603D01*
X217659Y188705D01*
X217650Y188722D01*
X217646Y188742D01*
X217593Y188831D01*
X217544Y188922D01*
X217530Y188936D01*
X217520Y188953D01*
X217441Y189020D01*
X217366Y189091D01*
X217348Y189100D01*
X217333Y189113D01*
X217237Y189152D01*
X217143Y189195D01*
X217123Y189197D01*
X217105Y189205D01*
X216938Y189223D01*
X208744Y189223D01*
X208968Y190349D01*
X209653Y192001D01*
X210647Y193489D01*
X211946Y194788D01*
X211988Y194846D01*
X212037Y194898D01*
X212059Y194945D01*
X212089Y194987D01*
X212110Y195056D01*
X212141Y195121D01*
X212146Y195173D01*
X212162Y195223D01*
X212160Y195294D01*
X212168Y195365D01*
X212157Y195416D01*
X212155Y195468D01*
X212131Y195536D01*
X212115Y195606D01*
X212089Y195651D01*
X212071Y195699D01*
X212026Y195755D01*
X211989Y195817D01*
X211950Y195851D01*
X211917Y195891D01*
X211857Y195930D01*
X211802Y195977D01*
X211754Y195996D01*
X211710Y196024D01*
X211641Y196042D01*
X211574Y196069D01*
X211503Y196077D01*
X211472Y196085D01*
X211448Y196083D01*
X211407Y196087D01*
X206714Y196087D01*
X196995Y205807D01*
X196900Y205875D01*
X196806Y205945D01*
X196800Y205947D01*
X196795Y205950D01*
X196684Y205984D01*
X196572Y206021D01*
X196566Y206021D01*
X196560Y206023D01*
X196443Y206020D01*
X196326Y206019D01*
X196319Y206016D01*
X196314Y206016D01*
X196297Y206010D01*
X196165Y205972D01*
X193904Y205035D01*
X190696Y205035D01*
X187732Y206263D01*
X185463Y208532D01*
X184235Y211496D01*
X184235Y214704D01*
X185463Y217668D01*
X187732Y219937D01*
X190745Y221185D01*
X190762Y221187D01*
X190792Y221199D01*
X190824Y221204D01*
X190881Y221235D01*
X191197Y221235D01*
X191221Y221239D01*
X191246Y221236D01*
X191342Y221258D01*
X191440Y221274D01*
X191462Y221286D01*
X191485Y221291D01*
X191633Y221372D01*
X191822Y221504D01*
X193263Y221247D01*
X193294Y221246D01*
X193396Y221235D01*
X194860Y221235D01*
X195023Y221071D01*
X195043Y221057D01*
X195058Y221038D01*
X195142Y220986D01*
X195223Y220928D01*
X195246Y220921D01*
X195267Y220908D01*
X195428Y220860D01*
X195655Y220820D01*
X195900Y220468D01*
X195907Y220461D01*
X195911Y220453D01*
X195992Y220373D01*
X196072Y220291D01*
X196080Y220287D01*
X196087Y220281D01*
X196233Y220200D01*
X196868Y219937D01*
X199137Y217668D01*
X199582Y216595D01*
X199616Y216539D01*
X199642Y216479D01*
X199694Y216414D01*
X199711Y216386D01*
X199726Y216373D01*
X199747Y216348D01*
X210385Y205710D01*
X210459Y205657D01*
X210528Y205597D01*
X210558Y205585D01*
X210584Y205566D01*
X210671Y205539D01*
X210756Y205505D01*
X210797Y205501D01*
X210820Y205494D01*
X210852Y205495D01*
X210923Y205487D01*
X212070Y205487D01*
X212141Y205498D01*
X212213Y205500D01*
X212262Y205518D01*
X212313Y205526D01*
X212376Y205560D01*
X212444Y205585D01*
X212484Y205617D01*
X212530Y205642D01*
X212580Y205694D01*
X212636Y205738D01*
X212664Y205782D01*
X212700Y205820D01*
X212730Y205885D01*
X212769Y205945D01*
X212781Y205996D01*
X212803Y206043D01*
X212811Y206114D01*
X212829Y206184D01*
X212825Y206236D01*
X212830Y206287D01*
X212815Y206358D01*
X212810Y206429D01*
X212789Y206477D01*
X212778Y206528D01*
X212741Y206589D01*
X212713Y206655D01*
X212669Y206711D01*
X212652Y206739D01*
X212634Y206754D01*
X212609Y206786D01*
X210863Y208532D01*
X209635Y211496D01*
X209635Y214704D01*
X210051Y215708D01*
X210078Y215821D01*
X210106Y215935D01*
X210106Y215941D01*
X210107Y215947D01*
X210096Y216064D01*
X210087Y216180D01*
X210085Y216186D01*
X210084Y216192D01*
X210036Y216300D01*
X209991Y216407D01*
X209986Y216412D01*
X209984Y216417D01*
X209971Y216431D01*
X209886Y216538D01*
X203000Y223423D01*
X200024Y226399D01*
X200024Y232981D01*
X200013Y233052D01*
X200011Y233124D01*
X199993Y233173D01*
X199985Y233224D01*
X199951Y233287D01*
X199926Y233355D01*
X199894Y233395D01*
X199869Y233441D01*
X199817Y233491D01*
X199773Y233547D01*
X199729Y233575D01*
X199691Y233611D01*
X199626Y233641D01*
X199566Y233680D01*
X199515Y233692D01*
X199468Y233714D01*
X199397Y233722D01*
X199327Y233740D01*
X199275Y233736D01*
X199224Y233741D01*
X199153Y233726D01*
X199082Y233721D01*
X199034Y233700D01*
X198983Y233689D01*
X198922Y233652D01*
X198856Y233624D01*
X198800Y233580D01*
X198772Y233563D01*
X198757Y233545D01*
X198725Y233520D01*
X196868Y231663D01*
X193904Y230435D01*
X190696Y230435D01*
X187732Y231663D01*
X185463Y233932D01*
X184235Y236896D01*
X184235Y240104D01*
X185463Y243068D01*
X187732Y245337D01*
X188859Y245804D01*
X188942Y245855D01*
X189027Y245901D01*
X189045Y245919D01*
X189068Y245933D01*
X189130Y246009D01*
X189197Y246079D01*
X189208Y246103D01*
X189224Y246123D01*
X189259Y246214D01*
X189300Y246302D01*
X189303Y246328D01*
X189313Y246352D01*
X189317Y246450D01*
X189328Y246546D01*
X189322Y246572D01*
X189323Y246598D01*
X189296Y246692D01*
X189275Y246787D01*
X189262Y246809D01*
X189255Y246834D01*
X189199Y246914D01*
X189149Y246998D01*
X189129Y247015D01*
X189114Y247036D01*
X189036Y247095D01*
X188962Y247158D01*
X188938Y247168D01*
X188917Y247183D01*
X188824Y247213D01*
X188734Y247250D01*
X188702Y247253D01*
X188683Y247259D01*
X188650Y247259D01*
X188567Y247268D01*
X187301Y247268D01*
X187211Y247254D01*
X187120Y247246D01*
X187090Y247234D01*
X187058Y247229D01*
X186978Y247186D01*
X186894Y247150D01*
X186862Y247124D01*
X186841Y247113D01*
X186819Y247090D01*
X186763Y247045D01*
X166340Y226622D01*
X166287Y226548D01*
X166227Y226479D01*
X166215Y226449D01*
X166196Y226423D01*
X166169Y226336D01*
X166135Y226251D01*
X166131Y226210D01*
X166124Y226187D01*
X166125Y226155D01*
X166117Y226084D01*
X166117Y222462D01*
X155490Y211835D01*
X153326Y211835D01*
X153306Y211832D01*
X153287Y211834D01*
X153185Y211812D01*
X153083Y211796D01*
X153066Y211786D01*
X153046Y211782D01*
X152957Y211729D01*
X152866Y211680D01*
X152852Y211666D01*
X152835Y211656D01*
X152768Y211577D01*
X152696Y211502D01*
X152688Y211484D01*
X152675Y211469D01*
X152636Y211373D01*
X152593Y211279D01*
X152591Y211259D01*
X152583Y211241D01*
X152565Y211074D01*
X152565Y207628D01*
X151672Y206735D01*
X135328Y206735D01*
X134435Y207628D01*
X134435Y223972D01*
X135328Y224865D01*
X151672Y224865D01*
X152577Y223960D01*
X152578Y223899D01*
X152596Y223850D01*
X152604Y223798D01*
X152638Y223735D01*
X152663Y223668D01*
X152695Y223627D01*
X152720Y223581D01*
X152772Y223531D01*
X152816Y223475D01*
X152860Y223447D01*
X152898Y223411D01*
X152963Y223381D01*
X153023Y223342D01*
X153074Y223330D01*
X153121Y223308D01*
X153192Y223300D01*
X153262Y223282D01*
X153314Y223286D01*
X153365Y223281D01*
X153436Y223296D01*
X153507Y223302D01*
X153555Y223322D01*
X153606Y223333D01*
X153667Y223370D01*
X153733Y223398D01*
X153789Y223443D01*
X153817Y223459D01*
X153832Y223477D01*
X153864Y223503D01*
X156494Y226133D01*
X156547Y226207D01*
X156607Y226276D01*
X156619Y226306D01*
X156638Y226332D01*
X156665Y226420D01*
X156699Y226504D01*
X156703Y226545D01*
X156710Y226568D01*
X156709Y226600D01*
X156717Y226671D01*
X156717Y230293D01*
X183092Y256668D01*
X186289Y256668D01*
X186360Y256679D01*
X186432Y256681D01*
X186481Y256699D01*
X186532Y256707D01*
X186595Y256741D01*
X186663Y256766D01*
X186703Y256798D01*
X186749Y256823D01*
X186799Y256875D01*
X186855Y256919D01*
X186883Y256963D01*
X186919Y257001D01*
X186949Y257066D01*
X186988Y257126D01*
X187000Y257177D01*
X187022Y257224D01*
X187030Y257295D01*
X187048Y257365D01*
X187044Y257417D01*
X187049Y257468D01*
X187034Y257539D01*
X187029Y257610D01*
X187008Y257658D01*
X186997Y257709D01*
X186960Y257770D01*
X186932Y257836D01*
X186888Y257892D01*
X186871Y257920D01*
X186853Y257935D01*
X186828Y257967D01*
X185463Y259332D01*
X184235Y262296D01*
X184235Y265504D01*
X185463Y268468D01*
X187732Y270737D01*
X190248Y271779D01*
X190304Y271814D01*
X190364Y271839D01*
X190429Y271891D01*
X190457Y271909D01*
X190469Y271924D01*
X190495Y271944D01*
X195864Y277314D01*
X198840Y280290D01*
X214552Y280290D01*
X214648Y280305D01*
X214745Y280315D01*
X214769Y280325D01*
X214794Y280329D01*
X214880Y280375D01*
X214969Y280415D01*
X214989Y280432D01*
X215012Y280445D01*
X215079Y280515D01*
X215150Y280581D01*
X215163Y280604D01*
X215181Y280623D01*
X215222Y280711D01*
X215269Y280797D01*
X215274Y280822D01*
X215285Y280846D01*
X215295Y280943D01*
X215313Y281039D01*
X215309Y281065D01*
X215312Y281090D01*
X215291Y281186D01*
X215277Y281282D01*
X215265Y281305D01*
X215260Y281331D01*
X215210Y281414D01*
X215165Y281501D01*
X215147Y281520D01*
X215133Y281542D01*
X215059Y281605D01*
X214990Y281673D01*
X214961Y281689D01*
X214946Y281702D01*
X214916Y281714D01*
X214843Y281754D01*
X213132Y282463D01*
X210863Y284732D01*
X209635Y287696D01*
X209635Y290904D01*
X210863Y293868D01*
X213132Y296137D01*
X215178Y296985D01*
X215261Y297036D01*
X215347Y297082D01*
X215365Y297101D01*
X215387Y297114D01*
X215450Y297189D01*
X215517Y297260D01*
X215528Y297284D01*
X215544Y297304D01*
X215579Y297395D01*
X215620Y297483D01*
X215623Y297509D01*
X215632Y297533D01*
X215637Y297631D01*
X215647Y297727D01*
X215642Y297753D01*
X215643Y297779D01*
X215616Y297873D01*
X215595Y297968D01*
X215582Y297990D01*
X215574Y298015D01*
X215519Y298095D01*
X215469Y298179D01*
X215449Y298196D01*
X215434Y298217D01*
X215356Y298276D01*
X215282Y298339D01*
X215258Y298349D01*
X215237Y298364D01*
X215144Y298394D01*
X215054Y298431D01*
X215021Y298434D01*
X215003Y298440D01*
X214970Y298440D01*
X214887Y298449D01*
X195113Y298449D01*
X195017Y298434D01*
X194920Y298424D01*
X194896Y298414D01*
X194870Y298410D01*
X194784Y298364D01*
X194695Y298324D01*
X194676Y298307D01*
X194653Y298294D01*
X194586Y298224D01*
X194514Y298158D01*
X194501Y298135D01*
X194483Y298116D01*
X194442Y298028D01*
X194395Y297942D01*
X194391Y297917D01*
X194380Y297893D01*
X194369Y297796D01*
X194352Y297700D01*
X194356Y297674D01*
X194353Y297649D01*
X194373Y297553D01*
X194388Y297457D01*
X194399Y297434D01*
X194405Y297408D01*
X194455Y297325D01*
X194499Y297238D01*
X194518Y297219D01*
X194531Y297197D01*
X194605Y297134D01*
X194675Y297066D01*
X194703Y297050D01*
X194718Y297037D01*
X194749Y297025D01*
X194822Y296985D01*
X196868Y296137D01*
X199137Y293868D01*
X200365Y290904D01*
X200365Y287696D01*
X199137Y284732D01*
X196868Y282463D01*
X193904Y281235D01*
X190696Y281235D01*
X187732Y282463D01*
X185463Y284732D01*
X184235Y287696D01*
X184235Y290904D01*
X185463Y293868D01*
X187732Y296137D01*
X189778Y296985D01*
X189861Y297036D01*
X189947Y297082D01*
X189965Y297101D01*
X189987Y297114D01*
X190050Y297189D01*
X190117Y297260D01*
X190128Y297284D01*
X190144Y297304D01*
X190179Y297395D01*
X190220Y297483D01*
X190223Y297509D01*
X190232Y297533D01*
X190237Y297631D01*
X190247Y297727D01*
X190242Y297753D01*
X190243Y297779D01*
X190216Y297873D01*
X190195Y297968D01*
X190182Y297990D01*
X190174Y298015D01*
X190119Y298095D01*
X190069Y298179D01*
X190049Y298196D01*
X190034Y298217D01*
X189956Y298276D01*
X189882Y298339D01*
X189858Y298349D01*
X189837Y298364D01*
X189744Y298394D01*
X189654Y298431D01*
X189621Y298434D01*
X189603Y298440D01*
X189570Y298440D01*
X189487Y298449D01*
X128246Y298449D01*
X128156Y298435D01*
X128065Y298427D01*
X128035Y298415D01*
X128003Y298410D01*
X127923Y298367D01*
X127839Y298331D01*
X127807Y298305D01*
X127786Y298294D01*
X127764Y298271D01*
X127708Y298226D01*
X120988Y291506D01*
X120935Y291432D01*
X120875Y291363D01*
X120863Y291333D01*
X120844Y291307D01*
X120817Y291220D01*
X120783Y291135D01*
X120779Y291094D01*
X120772Y291071D01*
X120773Y291039D01*
X120765Y290968D01*
X120765Y287696D01*
X119537Y284732D01*
X117268Y282463D01*
X115557Y281754D01*
X115474Y281703D01*
X115388Y281657D01*
X115370Y281639D01*
X115348Y281625D01*
X115286Y281549D01*
X115219Y281479D01*
X115208Y281455D01*
X115191Y281435D01*
X115156Y281344D01*
X115115Y281256D01*
X115112Y281230D01*
X115103Y281206D01*
X115099Y281108D01*
X115088Y281012D01*
X115094Y280986D01*
X115093Y280960D01*
X115120Y280866D01*
X115140Y280771D01*
X115154Y280749D01*
X115161Y280724D01*
X115217Y280644D01*
X115267Y280560D01*
X115287Y280543D01*
X115301Y280522D01*
X115380Y280463D01*
X115454Y280400D01*
X115478Y280390D01*
X115499Y280375D01*
X115591Y280345D01*
X115682Y280308D01*
X115714Y280305D01*
X115733Y280299D01*
X115766Y280299D01*
X115848Y280290D01*
X131596Y280290D01*
X131686Y280304D01*
X131777Y280312D01*
X131807Y280324D01*
X131839Y280329D01*
X131919Y280372D01*
X132003Y280408D01*
X132035Y280434D01*
X132056Y280445D01*
X132078Y280468D01*
X132134Y280513D01*
X144076Y292455D01*
X144129Y292529D01*
X144189Y292598D01*
X144201Y292628D01*
X144220Y292654D01*
X144247Y292741D01*
X144281Y292826D01*
X144285Y292867D01*
X144292Y292890D01*
X144291Y292922D01*
X144299Y292993D01*
X144299Y293536D01*
X147408Y296645D01*
X151804Y296645D01*
X154913Y293536D01*
X154913Y289381D01*
X154924Y289310D01*
X154926Y289239D01*
X154944Y289190D01*
X154952Y289138D01*
X154986Y289075D01*
X155011Y289008D01*
X155043Y288967D01*
X155068Y288921D01*
X155120Y288871D01*
X155164Y288815D01*
X155208Y288787D01*
X155246Y288751D01*
X155311Y288721D01*
X155371Y288682D01*
X155422Y288670D01*
X155469Y288648D01*
X155540Y288640D01*
X155610Y288622D01*
X155662Y288626D01*
X155713Y288621D01*
X155784Y288636D01*
X155855Y288642D01*
X155903Y288662D01*
X155954Y288673D01*
X156015Y288710D01*
X156081Y288738D01*
X156137Y288783D01*
X156165Y288799D01*
X156180Y288817D01*
X156212Y288843D01*
X160431Y293062D01*
X163407Y296038D01*
X170108Y296038D01*
X170198Y296052D01*
X170289Y296060D01*
X170318Y296072D01*
X170350Y296077D01*
X170431Y296120D01*
X170515Y296156D01*
X170547Y296182D01*
X170568Y296193D01*
X170590Y296216D01*
X170646Y296261D01*
X171030Y296645D01*
X175426Y296645D01*
X178535Y293536D01*
X178535Y289140D01*
X175426Y286031D01*
X171030Y286031D01*
X170646Y286415D01*
X170572Y286468D01*
X170502Y286528D01*
X170472Y286540D01*
X170446Y286559D01*
X170359Y286586D01*
X170274Y286620D01*
X170233Y286624D01*
X170211Y286631D01*
X170179Y286630D01*
X170108Y286638D01*
X167616Y286638D01*
X167526Y286624D01*
X167435Y286616D01*
X167405Y286604D01*
X167373Y286599D01*
X167293Y286556D01*
X167209Y286520D01*
X167177Y286494D01*
X167156Y286483D01*
X167134Y286460D01*
X167078Y286415D01*
X127931Y247268D01*
X116433Y247268D01*
X116337Y247253D01*
X116240Y247243D01*
X116216Y247233D01*
X116190Y247229D01*
X116104Y247183D01*
X116015Y247143D01*
X115996Y247126D01*
X115973Y247113D01*
X115906Y247043D01*
X115834Y246977D01*
X115821Y246954D01*
X115803Y246935D01*
X115762Y246847D01*
X115715Y246761D01*
X115711Y246736D01*
X115700Y246712D01*
X115689Y246615D01*
X115672Y246519D01*
X115675Y246493D01*
X115672Y246468D01*
X115693Y246372D01*
X115707Y246276D01*
X115719Y246253D01*
X115725Y246227D01*
X115775Y246144D01*
X115819Y246057D01*
X115838Y246038D01*
X115851Y246016D01*
X115925Y245953D01*
X115994Y245885D01*
X116023Y245869D01*
X116038Y245856D01*
X116069Y245844D01*
X116141Y245804D01*
X117268Y245337D01*
X119537Y243068D01*
X120765Y240104D01*
X120765Y236896D01*
X119537Y233932D01*
X117268Y231663D01*
X114304Y230435D01*
X111096Y230435D01*
X108132Y231663D01*
X105863Y233932D01*
X104635Y236896D01*
X104635Y240104D01*
X105863Y243068D01*
X108132Y245337D01*
X109259Y245804D01*
X109342Y245855D01*
X109427Y245901D01*
X109445Y245919D01*
X109468Y245933D01*
X109530Y246009D01*
X109597Y246079D01*
X109608Y246103D01*
X109624Y246123D01*
X109659Y246214D01*
X109700Y246302D01*
X109703Y246328D01*
X109713Y246352D01*
X109717Y246450D01*
X109728Y246546D01*
X109722Y246572D01*
X109723Y246598D01*
X109696Y246692D01*
X109675Y246787D01*
X109662Y246809D01*
X109655Y246834D01*
X109599Y246914D01*
X109549Y246998D01*
X109529Y247015D01*
X109514Y247036D01*
X109436Y247095D01*
X109362Y247158D01*
X109338Y247168D01*
X109317Y247183D01*
X109224Y247213D01*
X109134Y247250D01*
X109102Y247253D01*
X109083Y247259D01*
X109050Y247259D01*
X108967Y247268D01*
X104624Y247268D01*
X104534Y247254D01*
X104443Y247246D01*
X104413Y247234D01*
X104381Y247229D01*
X104301Y247186D01*
X104217Y247150D01*
X104185Y247124D01*
X104164Y247113D01*
X104142Y247090D01*
X104086Y247045D01*
X95588Y238547D01*
X95535Y238473D01*
X95475Y238404D01*
X95463Y238374D01*
X95444Y238348D01*
X95417Y238261D01*
X95383Y238176D01*
X95379Y238135D01*
X95372Y238112D01*
X95373Y238080D01*
X95365Y238009D01*
X95365Y236896D01*
X94137Y233932D01*
X91868Y231663D01*
X88904Y230435D01*
X85696Y230435D01*
X82732Y231663D01*
X80463Y233932D01*
X79235Y236896D01*
X79235Y240104D01*
X80463Y243068D01*
X82732Y245337D01*
X85696Y246565D01*
X88904Y246565D01*
X89430Y246347D01*
X89543Y246320D01*
X89657Y246292D01*
X89663Y246292D01*
X89669Y246291D01*
X89786Y246302D01*
X89902Y246311D01*
X89908Y246313D01*
X89914Y246314D01*
X90022Y246362D01*
X90129Y246407D01*
X90134Y246412D01*
X90139Y246414D01*
X90153Y246427D01*
X90260Y246512D01*
X97439Y253692D01*
X100415Y256668D01*
X106689Y256668D01*
X106760Y256679D01*
X106832Y256681D01*
X106881Y256699D01*
X106932Y256707D01*
X106995Y256741D01*
X107063Y256766D01*
X107103Y256798D01*
X107149Y256823D01*
X107199Y256875D01*
X107255Y256919D01*
X107283Y256963D01*
X107319Y257001D01*
X107349Y257066D01*
X107388Y257126D01*
X107400Y257177D01*
X107422Y257224D01*
X107430Y257295D01*
X107448Y257365D01*
X107444Y257417D01*
X107449Y257468D01*
X107434Y257539D01*
X107429Y257610D01*
X107408Y257658D01*
X107397Y257709D01*
X107360Y257770D01*
X107332Y257836D01*
X107288Y257892D01*
X107271Y257920D01*
X107253Y257935D01*
X107228Y257967D01*
X105863Y259332D01*
X104635Y262296D01*
X104635Y265504D01*
X105863Y268468D01*
X106986Y269591D01*
X107027Y269649D01*
X107077Y269701D01*
X107099Y269748D01*
X107129Y269790D01*
X107150Y269859D01*
X107180Y269924D01*
X107186Y269976D01*
X107201Y270026D01*
X107200Y270097D01*
X107207Y270168D01*
X107196Y270219D01*
X107195Y270271D01*
X107170Y270339D01*
X107155Y270409D01*
X107128Y270454D01*
X107111Y270502D01*
X107066Y270558D01*
X107029Y270620D01*
X106989Y270654D01*
X106957Y270694D01*
X106897Y270733D01*
X106842Y270780D01*
X106794Y270799D01*
X106750Y270827D01*
X106680Y270845D01*
X106614Y270872D01*
X106543Y270880D01*
X106511Y270888D01*
X106488Y270886D01*
X106447Y270890D01*
X104624Y270890D01*
X104534Y270876D01*
X104443Y270868D01*
X104413Y270856D01*
X104381Y270851D01*
X104301Y270808D01*
X104217Y270772D01*
X104185Y270746D01*
X104164Y270735D01*
X104142Y270712D01*
X104086Y270667D01*
X96435Y263016D01*
X96126Y263016D01*
X96106Y263013D01*
X96087Y263015D01*
X95985Y262993D01*
X95883Y262977D01*
X95866Y262967D01*
X95846Y262963D01*
X95757Y262910D01*
X95666Y262861D01*
X95652Y262847D01*
X95635Y262837D01*
X95568Y262758D01*
X95496Y262683D01*
X95488Y262665D01*
X95475Y262650D01*
X95436Y262554D01*
X95393Y262460D01*
X95391Y262440D01*
X95383Y262422D01*
X95371Y262311D01*
X94137Y259332D01*
X91868Y257063D01*
X88904Y255835D01*
X85696Y255835D01*
X82732Y257063D01*
X80463Y259332D01*
X79235Y262296D01*
X79235Y265504D01*
X80463Y268468D01*
X82732Y270737D01*
X85696Y271965D01*
X87645Y271965D01*
X87764Y271984D01*
X87884Y272003D01*
X87886Y272004D01*
X87888Y272004D01*
X87993Y272060D01*
X88102Y272117D01*
X88104Y272119D01*
X88105Y272120D01*
X88110Y272124D01*
X88225Y272232D01*
X88245Y272256D01*
X88292Y272260D01*
X88350Y272284D01*
X88411Y272299D01*
X88463Y272332D01*
X88519Y272356D01*
X88591Y272414D01*
X88594Y272416D01*
X90333Y272416D01*
X90355Y272419D01*
X90394Y272418D01*
X92330Y272573D01*
X92336Y272571D01*
X92416Y272580D01*
X92431Y272581D01*
X92434Y272582D01*
X92449Y272583D01*
X92561Y272592D01*
X92571Y272596D01*
X92581Y272597D01*
X92684Y272644D01*
X92788Y272688D01*
X92797Y272696D01*
X92805Y272699D01*
X92823Y272717D01*
X92919Y272793D01*
X97439Y277314D01*
X100415Y280290D01*
X109552Y280290D01*
X109648Y280305D01*
X109745Y280315D01*
X109769Y280325D01*
X109794Y280329D01*
X109880Y280375D01*
X109969Y280415D01*
X109989Y280432D01*
X110012Y280445D01*
X110079Y280515D01*
X110150Y280581D01*
X110163Y280604D01*
X110181Y280623D01*
X110222Y280711D01*
X110269Y280797D01*
X110274Y280822D01*
X110285Y280846D01*
X110295Y280943D01*
X110313Y281039D01*
X110309Y281065D01*
X110312Y281090D01*
X110291Y281186D01*
X110277Y281282D01*
X110265Y281305D01*
X110260Y281331D01*
X110210Y281414D01*
X110165Y281501D01*
X110147Y281520D01*
X110133Y281542D01*
X110059Y281605D01*
X109990Y281673D01*
X109961Y281689D01*
X109946Y281702D01*
X109916Y281714D01*
X109843Y281754D01*
X108132Y282463D01*
X105863Y284732D01*
X104635Y287696D01*
X104635Y290904D01*
X105863Y293868D01*
X108132Y296137D01*
X111096Y297365D01*
X113238Y297365D01*
X113328Y297379D01*
X113419Y297387D01*
X113449Y297399D01*
X113481Y297404D01*
X113561Y297447D01*
X113645Y297483D01*
X113677Y297509D01*
X113698Y297520D01*
X113720Y297543D01*
X113776Y297588D01*
X121061Y304873D01*
X121212Y305024D01*
X121254Y305082D01*
X121304Y305134D01*
X121325Y305181D01*
X121356Y305223D01*
X121377Y305292D01*
X121407Y305357D01*
X121413Y305409D01*
X121428Y305458D01*
X121426Y305530D01*
X121434Y305601D01*
X121423Y305652D01*
X121422Y305704D01*
X121397Y305772D01*
X121382Y305842D01*
X121355Y305887D01*
X121337Y305935D01*
X121293Y305991D01*
X121256Y306053D01*
X121216Y306087D01*
X121184Y306127D01*
X121123Y306166D01*
X121069Y306213D01*
X121021Y306232D01*
X120977Y306260D01*
X120907Y306278D01*
X120841Y306305D01*
X120770Y306313D01*
X120738Y306321D01*
X120715Y306319D01*
X120674Y306323D01*
X116435Y306323D01*
X116345Y306309D01*
X116254Y306301D01*
X116224Y306289D01*
X116192Y306284D01*
X116112Y306241D01*
X116028Y306205D01*
X115996Y306179D01*
X115975Y306168D01*
X115953Y306145D01*
X115897Y306100D01*
X94373Y284576D01*
X94365Y284565D01*
X94354Y284557D01*
X94254Y284422D01*
X93627Y283350D01*
X93174Y283231D01*
X93067Y283183D01*
X92960Y283137D01*
X92954Y283133D01*
X92949Y283131D01*
X92935Y283118D01*
X92829Y283033D01*
X92498Y282701D01*
X92422Y282701D01*
X92332Y282687D01*
X92241Y282679D01*
X92211Y282667D01*
X92179Y282662D01*
X92098Y282619D01*
X92015Y282583D01*
X91982Y282557D01*
X91962Y282546D01*
X91951Y282535D01*
X91949Y282534D01*
X91937Y282521D01*
X91884Y282478D01*
X91868Y282463D01*
X88904Y281235D01*
X85696Y281235D01*
X82732Y282463D01*
X80463Y284732D01*
X79235Y287696D01*
X79235Y290904D01*
X80463Y293868D01*
X82732Y296137D01*
X85696Y297365D01*
X88904Y297365D01*
X91944Y296105D01*
X92058Y296079D01*
X92172Y296050D01*
X92178Y296051D01*
X92184Y296049D01*
X92300Y296060D01*
X92417Y296069D01*
X92422Y296072D01*
X92429Y296072D01*
X92536Y296120D01*
X92643Y296166D01*
X92649Y296170D01*
X92653Y296172D01*
X92667Y296185D01*
X92774Y296270D01*
X112226Y315723D01*
X277537Y315723D01*
X295672Y297588D01*
X295746Y297535D01*
X295815Y297475D01*
X295845Y297463D01*
X295871Y297444D01*
X295958Y297417D01*
X296043Y297383D01*
X296084Y297379D01*
X296107Y297372D01*
X296139Y297373D01*
X296210Y297365D01*
X298904Y297365D01*
X301868Y296137D01*
X304137Y293868D01*
X305365Y290904D01*
X305365Y287696D01*
X304137Y284732D01*
X301868Y282463D01*
X300157Y281754D01*
X300074Y281703D01*
X299988Y281657D01*
X299970Y281639D01*
X299948Y281625D01*
X299886Y281549D01*
X299819Y281479D01*
X299808Y281455D01*
X299791Y281435D01*
X299756Y281344D01*
X299715Y281256D01*
X299712Y281230D01*
X299703Y281206D01*
X299699Y281108D01*
X299688Y281012D01*
X299694Y280986D01*
X299693Y280960D01*
X299720Y280866D01*
X299740Y280771D01*
X299754Y280749D01*
X299761Y280724D01*
X299817Y280644D01*
X299867Y280560D01*
X299887Y280543D01*
X299901Y280522D01*
X299980Y280463D01*
X300054Y280400D01*
X300078Y280390D01*
X300099Y280375D01*
X300191Y280345D01*
X300282Y280308D01*
X300314Y280305D01*
X300333Y280299D01*
X300366Y280299D01*
X300448Y280290D01*
X304824Y280290D01*
X304914Y280304D01*
X305005Y280312D01*
X305035Y280324D01*
X305067Y280329D01*
X305147Y280372D01*
X305231Y280408D01*
X305263Y280434D01*
X305284Y280445D01*
X305306Y280468D01*
X305362Y280513D01*
X314412Y289563D01*
X314465Y289637D01*
X314525Y289706D01*
X314537Y289736D01*
X314556Y289762D01*
X314583Y289849D01*
X314617Y289934D01*
X314621Y289975D01*
X314628Y289998D01*
X314627Y290030D01*
X314635Y290101D01*
X314635Y290904D01*
X315863Y293868D01*
X318132Y296137D01*
X321096Y297365D01*
X324304Y297365D01*
X327268Y296137D01*
X329537Y293868D01*
X330765Y290904D01*
X330765Y287696D01*
X329537Y284732D01*
X327268Y282463D01*
X324304Y281235D01*
X321096Y281235D01*
X320351Y281544D01*
X320237Y281571D01*
X320124Y281599D01*
X320118Y281599D01*
X320111Y281600D01*
X319995Y281589D01*
X319879Y281580D01*
X319873Y281578D01*
X319867Y281577D01*
X319759Y281529D01*
X319652Y281484D01*
X319646Y281479D01*
X319642Y281477D01*
X319628Y281464D01*
X319521Y281379D01*
X309033Y270890D01*
X303553Y270890D01*
X303482Y270879D01*
X303410Y270877D01*
X303361Y270859D01*
X303310Y270851D01*
X303247Y270817D01*
X303179Y270792D01*
X303139Y270760D01*
X303093Y270735D01*
X303043Y270683D01*
X302987Y270639D01*
X302959Y270595D01*
X302923Y270557D01*
X302893Y270492D01*
X302854Y270432D01*
X302842Y270381D01*
X302820Y270334D01*
X302812Y270263D01*
X302794Y270193D01*
X302798Y270141D01*
X302793Y270090D01*
X302808Y270019D01*
X302813Y269948D01*
X302834Y269900D01*
X302845Y269849D01*
X302882Y269787D01*
X302910Y269722D01*
X302954Y269666D01*
X302971Y269638D01*
X302989Y269623D01*
X303014Y269591D01*
X304137Y268468D01*
X305365Y265504D01*
X305365Y262296D01*
X304137Y259332D01*
X301868Y257063D01*
X298904Y255835D01*
X295696Y255835D01*
X292732Y257063D01*
X290463Y259332D01*
X289235Y262296D01*
X289235Y265504D01*
X290463Y268468D01*
X291586Y269591D01*
X291627Y269649D01*
X291677Y269701D01*
X291699Y269748D01*
X291729Y269790D01*
X291750Y269859D01*
X291780Y269924D01*
X291786Y269976D01*
X291801Y270026D01*
X291800Y270097D01*
X291807Y270168D01*
X291796Y270219D01*
X291795Y270271D01*
X291770Y270339D01*
X291755Y270409D01*
X291728Y270454D01*
X291711Y270502D01*
X291666Y270558D01*
X291629Y270620D01*
X291589Y270654D01*
X291557Y270694D01*
X291497Y270733D01*
X291442Y270780D01*
X291394Y270799D01*
X291350Y270827D01*
X291280Y270845D01*
X291214Y270872D01*
X291143Y270880D01*
X291111Y270888D01*
X291088Y270886D01*
X291047Y270890D01*
X285454Y270890D01*
X278764Y277580D01*
X278764Y285139D01*
X278750Y285229D01*
X278742Y285320D01*
X278730Y285350D01*
X278725Y285382D01*
X278682Y285462D01*
X278646Y285546D01*
X278620Y285579D01*
X278609Y285599D01*
X278586Y285621D01*
X278541Y285677D01*
X277864Y286354D01*
X277806Y286396D01*
X277754Y286446D01*
X277707Y286467D01*
X277665Y286498D01*
X277596Y286519D01*
X277531Y286549D01*
X277479Y286555D01*
X277429Y286570D01*
X277358Y286568D01*
X277287Y286576D01*
X277236Y286565D01*
X277184Y286564D01*
X277116Y286539D01*
X277046Y286524D01*
X277001Y286497D01*
X276953Y286479D01*
X276897Y286435D01*
X276835Y286398D01*
X276801Y286358D01*
X276761Y286326D01*
X276722Y286265D01*
X276675Y286211D01*
X276656Y286163D01*
X276628Y286119D01*
X276610Y286049D01*
X276583Y285983D01*
X276575Y285911D01*
X276567Y285880D01*
X276569Y285857D01*
X276565Y285816D01*
X276565Y269828D01*
X275672Y268935D01*
X259328Y268935D01*
X258435Y269828D01*
X258435Y286172D01*
X259328Y287065D01*
X275316Y287065D01*
X275387Y287076D01*
X275458Y287078D01*
X275507Y287096D01*
X275559Y287104D01*
X275622Y287138D01*
X275689Y287163D01*
X275730Y287195D01*
X275776Y287220D01*
X275826Y287272D01*
X275882Y287316D01*
X275910Y287360D01*
X275946Y287398D01*
X275976Y287463D01*
X276015Y287523D01*
X276027Y287574D01*
X276049Y287621D01*
X276057Y287692D01*
X276075Y287762D01*
X276071Y287814D01*
X276076Y287865D01*
X276061Y287936D01*
X276055Y288007D01*
X276035Y288055D01*
X276024Y288106D01*
X275987Y288167D01*
X275959Y288233D01*
X275914Y288289D01*
X275898Y288317D01*
X275880Y288332D01*
X275854Y288364D01*
X265992Y298226D01*
X265918Y298279D01*
X265849Y298339D01*
X265819Y298351D01*
X265793Y298370D01*
X265706Y298397D01*
X265621Y298431D01*
X265580Y298435D01*
X265557Y298442D01*
X265525Y298441D01*
X265454Y298449D01*
X220513Y298449D01*
X220417Y298434D01*
X220320Y298424D01*
X220296Y298414D01*
X220270Y298410D01*
X220184Y298364D01*
X220095Y298324D01*
X220076Y298307D01*
X220053Y298294D01*
X219986Y298224D01*
X219914Y298158D01*
X219901Y298135D01*
X219883Y298116D01*
X219842Y298028D01*
X219795Y297942D01*
X219791Y297917D01*
X219780Y297893D01*
X219769Y297796D01*
X219752Y297700D01*
X219756Y297674D01*
X219753Y297649D01*
X219773Y297553D01*
X219788Y297457D01*
X219799Y297434D01*
X219805Y297408D01*
X219855Y297325D01*
X219899Y297238D01*
X219918Y297219D01*
X219931Y297197D01*
X220005Y297134D01*
X220075Y297066D01*
X220103Y297050D01*
X220118Y297037D01*
X220149Y297025D01*
X220222Y296985D01*
X222268Y296137D01*
X224537Y293868D01*
X225765Y290904D01*
X225765Y287696D01*
X224537Y284732D01*
X222268Y282463D01*
X220557Y281754D01*
X220474Y281703D01*
X220388Y281657D01*
X220370Y281639D01*
X220348Y281625D01*
X220286Y281549D01*
X220219Y281479D01*
X220208Y281455D01*
X220191Y281435D01*
X220156Y281344D01*
X220115Y281256D01*
X220112Y281230D01*
X220103Y281206D01*
X220099Y281108D01*
X220088Y281012D01*
X220094Y280986D01*
X220093Y280960D01*
X220120Y280866D01*
X220140Y280771D01*
X220154Y280749D01*
X220161Y280724D01*
X220217Y280644D01*
X220267Y280560D01*
X220287Y280543D01*
X220301Y280522D01*
X220380Y280463D01*
X220454Y280400D01*
X220478Y280390D01*
X220499Y280375D01*
X220591Y280345D01*
X220682Y280308D01*
X220714Y280305D01*
X220733Y280299D01*
X220766Y280299D01*
X220848Y280290D01*
X234230Y280290D01*
X257136Y257384D01*
X257194Y257342D01*
X257246Y257292D01*
X257293Y257270D01*
X257335Y257240D01*
X257404Y257219D01*
X257469Y257189D01*
X257521Y257183D01*
X257571Y257168D01*
X257642Y257170D01*
X257713Y257162D01*
X257764Y257173D01*
X257816Y257174D01*
X257884Y257199D01*
X257954Y257214D01*
X257999Y257241D01*
X258047Y257259D01*
X258103Y257303D01*
X258165Y257340D01*
X258199Y257380D01*
X258239Y257412D01*
X258278Y257473D01*
X258325Y257527D01*
X258344Y257575D01*
X258372Y257619D01*
X258390Y257689D01*
X258417Y257755D01*
X258425Y257827D01*
X258433Y257858D01*
X258431Y257881D01*
X258435Y257922D01*
X258435Y260772D01*
X259328Y261665D01*
X275672Y261665D01*
X276565Y260772D01*
X276565Y244428D01*
X275672Y243535D01*
X259328Y243535D01*
X258435Y244428D01*
X258435Y246507D01*
X258432Y246527D01*
X258434Y246546D01*
X258412Y246648D01*
X258396Y246750D01*
X258386Y246767D01*
X258382Y246787D01*
X258329Y246876D01*
X258280Y246967D01*
X258266Y246981D01*
X258256Y246998D01*
X258177Y247065D01*
X258102Y247137D01*
X258084Y247145D01*
X258069Y247158D01*
X257973Y247197D01*
X257879Y247240D01*
X257859Y247242D01*
X257841Y247250D01*
X257674Y247268D01*
X253958Y247268D01*
X230559Y270667D01*
X230485Y270720D01*
X230416Y270780D01*
X230386Y270792D01*
X230360Y270811D01*
X230273Y270838D01*
X230188Y270872D01*
X230147Y270876D01*
X230124Y270883D01*
X230092Y270882D01*
X230021Y270890D01*
X223953Y270890D01*
X223882Y270879D01*
X223810Y270877D01*
X223761Y270859D01*
X223710Y270851D01*
X223647Y270817D01*
X223579Y270792D01*
X223539Y270760D01*
X223493Y270735D01*
X223443Y270683D01*
X223387Y270639D01*
X223359Y270595D01*
X223323Y270557D01*
X223293Y270492D01*
X223254Y270432D01*
X223242Y270381D01*
X223220Y270334D01*
X223212Y270263D01*
X223194Y270193D01*
X223198Y270141D01*
X223193Y270090D01*
X223208Y270019D01*
X223213Y269948D01*
X223234Y269900D01*
X223245Y269849D01*
X223282Y269787D01*
X223310Y269722D01*
X223354Y269666D01*
X223371Y269638D01*
X223389Y269623D01*
X223414Y269591D01*
X224537Y268468D01*
X225765Y265504D01*
X225765Y262296D01*
X224537Y259332D01*
X222268Y257063D01*
X219304Y255835D01*
X216096Y255835D01*
X213132Y257063D01*
X210863Y259332D01*
X209635Y262296D01*
X209635Y265504D01*
X210863Y268468D01*
X211986Y269591D01*
X212027Y269649D01*
X212077Y269701D01*
X212099Y269748D01*
X212129Y269790D01*
X212150Y269859D01*
X212180Y269924D01*
X212186Y269976D01*
X212201Y270026D01*
X212200Y270097D01*
X212207Y270168D01*
X212196Y270219D01*
X212195Y270271D01*
X212170Y270339D01*
X212155Y270409D01*
X212128Y270454D01*
X212111Y270502D01*
X212066Y270558D01*
X212029Y270620D01*
X211989Y270654D01*
X211957Y270694D01*
X211897Y270733D01*
X211842Y270780D01*
X211794Y270799D01*
X211750Y270827D01*
X211680Y270845D01*
X211614Y270872D01*
X211543Y270880D01*
X211511Y270888D01*
X211488Y270886D01*
X211447Y270890D01*
X203049Y270890D01*
X202959Y270876D01*
X202868Y270868D01*
X202838Y270856D01*
X202806Y270851D01*
X202726Y270808D01*
X202642Y270772D01*
X202610Y270746D01*
X202589Y270735D01*
X202567Y270712D01*
X202511Y270667D01*
X199841Y267997D01*
X199798Y267938D01*
X199754Y267892D01*
X199737Y267855D01*
X199703Y267809D01*
X199701Y267803D01*
X199697Y267798D01*
X199671Y267712D01*
X199651Y267669D01*
X199648Y267639D01*
X199627Y267575D01*
X199627Y267568D01*
X199625Y267562D01*
X199627Y267458D01*
X199624Y267425D01*
X199628Y267404D01*
X199629Y267329D01*
X199631Y267322D01*
X199631Y267317D01*
X199638Y267299D01*
X199676Y267168D01*
X200365Y265504D01*
X200365Y262296D01*
X199137Y259332D01*
X197772Y257967D01*
X197731Y257909D01*
X197681Y257857D01*
X197659Y257810D01*
X197629Y257768D01*
X197608Y257699D01*
X197578Y257634D01*
X197572Y257582D01*
X197557Y257532D01*
X197558Y257461D01*
X197551Y257390D01*
X197562Y257339D01*
X197563Y257287D01*
X197588Y257219D01*
X197603Y257149D01*
X197630Y257104D01*
X197647Y257056D01*
X197692Y257000D01*
X197729Y256938D01*
X197769Y256904D01*
X197801Y256864D01*
X197861Y256825D01*
X197916Y256778D01*
X197964Y256759D01*
X198008Y256731D01*
X198077Y256713D01*
X198144Y256686D01*
X198215Y256678D01*
X198247Y256670D01*
X198270Y256672D01*
X198311Y256668D01*
X202734Y256668D01*
X209424Y249978D01*
X209424Y243420D01*
X209439Y243324D01*
X209449Y243227D01*
X209459Y243203D01*
X209463Y243178D01*
X209509Y243092D01*
X209549Y243002D01*
X209566Y242983D01*
X209579Y242960D01*
X209649Y242893D01*
X209715Y242821D01*
X209738Y242809D01*
X209757Y242791D01*
X209845Y242750D01*
X209931Y242703D01*
X209956Y242698D01*
X209980Y242687D01*
X210077Y242677D01*
X210173Y242659D01*
X210199Y242663D01*
X210224Y242660D01*
X210320Y242681D01*
X210416Y242695D01*
X210439Y242707D01*
X210465Y242712D01*
X210548Y242763D01*
X210635Y242807D01*
X210654Y242825D01*
X210676Y242839D01*
X210739Y242913D01*
X210808Y242982D01*
X210823Y243011D01*
X210836Y243026D01*
X210846Y243052D01*
X213132Y245337D01*
X216096Y246565D01*
X219304Y246565D01*
X222268Y245337D01*
X224537Y243068D01*
X225765Y240104D01*
X225765Y236896D01*
X224537Y233932D01*
X222268Y231663D01*
X219304Y230435D01*
X216096Y230435D01*
X213132Y231663D01*
X210832Y233962D01*
X210791Y234040D01*
X210773Y234058D01*
X210759Y234080D01*
X210684Y234142D01*
X210613Y234209D01*
X210589Y234220D01*
X210569Y234237D01*
X210478Y234272D01*
X210390Y234313D01*
X210364Y234316D01*
X210340Y234325D01*
X210242Y234329D01*
X210146Y234340D01*
X210120Y234334D01*
X210094Y234335D01*
X210000Y234308D01*
X209905Y234288D01*
X209883Y234274D01*
X209858Y234267D01*
X209778Y234211D01*
X209694Y234161D01*
X209677Y234142D01*
X209656Y234127D01*
X209598Y234049D01*
X209534Y233974D01*
X209524Y233950D01*
X209509Y233929D01*
X209479Y233837D01*
X209442Y233746D01*
X209439Y233714D01*
X209433Y233696D01*
X209433Y233662D01*
X209424Y233580D01*
X209424Y230608D01*
X209438Y230518D01*
X209446Y230427D01*
X209458Y230397D01*
X209463Y230365D01*
X209506Y230285D01*
X209542Y230201D01*
X209568Y230169D01*
X209579Y230148D01*
X209602Y230126D01*
X209647Y230070D01*
X218329Y221388D01*
X218403Y221335D01*
X218472Y221275D01*
X218502Y221263D01*
X218528Y221244D01*
X218615Y221217D01*
X218700Y221183D01*
X218741Y221179D01*
X218764Y221172D01*
X218796Y221173D01*
X218867Y221165D01*
X219304Y221165D01*
X222268Y219937D01*
X224537Y217668D01*
X225765Y214704D01*
X225765Y214267D01*
X225779Y214177D01*
X225787Y214086D01*
X225799Y214056D01*
X225804Y214024D01*
X225847Y213944D01*
X225883Y213860D01*
X225909Y213827D01*
X225920Y213807D01*
X225943Y213785D01*
X225988Y213729D01*
X226133Y213584D01*
X226207Y213530D01*
X226276Y213471D01*
X226306Y213459D01*
X226333Y213440D01*
X226420Y213413D01*
X226504Y213379D01*
X226545Y213375D01*
X226568Y213368D01*
X226600Y213369D01*
X226671Y213361D01*
X234230Y213361D01*
X257629Y189962D01*
X257703Y189909D01*
X257772Y189849D01*
X257802Y189837D01*
X257828Y189818D01*
X257915Y189791D01*
X258000Y189757D01*
X258041Y189753D01*
X258064Y189746D01*
X258096Y189747D01*
X258167Y189739D01*
X277265Y189739D01*
X277355Y189753D01*
X277446Y189761D01*
X277476Y189773D01*
X277508Y189778D01*
X277588Y189821D01*
X277672Y189857D01*
X277705Y189883D01*
X277725Y189894D01*
X277747Y189917D01*
X277803Y189962D01*
X278541Y190700D01*
X278594Y190774D01*
X278654Y190843D01*
X278666Y190873D01*
X278685Y190899D01*
X278712Y190987D01*
X278746Y191071D01*
X278750Y191112D01*
X278757Y191135D01*
X278756Y191167D01*
X278764Y191238D01*
X278764Y198797D01*
X285454Y205487D01*
X291670Y205487D01*
X291741Y205498D01*
X291813Y205500D01*
X291862Y205518D01*
X291913Y205526D01*
X291976Y205560D01*
X292044Y205585D01*
X292084Y205617D01*
X292130Y205642D01*
X292180Y205694D01*
X292236Y205738D01*
X292264Y205782D01*
X292300Y205820D01*
X292330Y205885D01*
X292369Y205945D01*
X292381Y205996D01*
X292403Y206043D01*
X292411Y206114D01*
X292429Y206184D01*
X292425Y206236D01*
X292430Y206287D01*
X292415Y206358D01*
X292410Y206429D01*
X292389Y206477D01*
X292378Y206528D01*
X292341Y206589D01*
X292313Y206655D01*
X292269Y206711D01*
X292252Y206739D01*
X292234Y206754D01*
X292209Y206786D01*
X290463Y208532D01*
X289235Y211496D01*
X289235Y214704D01*
X290463Y217668D01*
X292732Y219937D01*
X295696Y221165D01*
X298904Y221165D01*
X301868Y219937D01*
X304137Y217668D01*
X305365Y214704D01*
X305365Y211496D01*
X304137Y208532D01*
X302391Y206786D01*
X302350Y206728D01*
X302300Y206676D01*
X302278Y206629D01*
X302248Y206587D01*
X302227Y206518D01*
X302197Y206453D01*
X302191Y206401D01*
X302176Y206351D01*
X302177Y206280D01*
X302170Y206209D01*
X302181Y206158D01*
X302182Y206106D01*
X302207Y206038D01*
X302222Y205968D01*
X302249Y205923D01*
X302266Y205875D01*
X302311Y205819D01*
X302348Y205757D01*
X302388Y205723D01*
X302420Y205683D01*
X302480Y205644D01*
X302535Y205597D01*
X302583Y205578D01*
X302627Y205550D01*
X302696Y205532D01*
X302763Y205505D01*
X302834Y205497D01*
X302866Y205489D01*
X302889Y205491D01*
X302930Y205487D01*
X309033Y205487D01*
X319081Y195439D01*
X319175Y195371D01*
X319269Y195301D01*
X319275Y195299D01*
X319280Y195295D01*
X319391Y195261D01*
X319503Y195225D01*
X319510Y195225D01*
X319516Y195223D01*
X319632Y195226D01*
X319749Y195227D01*
X319756Y195229D01*
X319761Y195229D01*
X319779Y195236D01*
X319910Y195274D01*
X321096Y195765D01*
X324304Y195765D01*
X327268Y194537D01*
X329537Y192268D01*
X330765Y189304D01*
X330765Y186096D01*
X329537Y183132D01*
X327268Y180863D01*
X324304Y179635D01*
X321096Y179635D01*
X318132Y180863D01*
X315863Y183132D01*
X314635Y186096D01*
X314635Y186276D01*
X314621Y186366D01*
X314613Y186457D01*
X314601Y186487D01*
X314596Y186519D01*
X314553Y186599D01*
X314517Y186683D01*
X314491Y186715D01*
X314480Y186736D01*
X314457Y186758D01*
X314412Y186814D01*
X305362Y195864D01*
X305288Y195917D01*
X305219Y195977D01*
X305189Y195989D01*
X305163Y196008D01*
X305076Y196035D01*
X304991Y196069D01*
X304950Y196073D01*
X304927Y196080D01*
X304895Y196079D01*
X304824Y196087D01*
X301953Y196087D01*
X301856Y196072D01*
X301759Y196062D01*
X301735Y196052D01*
X301710Y196048D01*
X301624Y196002D01*
X301535Y195962D01*
X301515Y195945D01*
X301492Y195932D01*
X301425Y195862D01*
X301354Y195796D01*
X301341Y195773D01*
X301323Y195754D01*
X301282Y195666D01*
X301235Y195580D01*
X301230Y195555D01*
X301219Y195531D01*
X301209Y195434D01*
X301191Y195338D01*
X301195Y195312D01*
X301192Y195287D01*
X301213Y195192D01*
X301227Y195095D01*
X301239Y195072D01*
X301245Y195046D01*
X301295Y194963D01*
X301339Y194876D01*
X301357Y194857D01*
X301371Y194835D01*
X301445Y194772D01*
X301514Y194704D01*
X301543Y194688D01*
X301558Y194675D01*
X301588Y194663D01*
X301661Y194623D01*
X301868Y194537D01*
X304137Y192268D01*
X305365Y189304D01*
X305365Y186096D01*
X304137Y183132D01*
X301868Y180863D01*
X300445Y180273D01*
X300345Y180212D01*
X300245Y180152D01*
X300241Y180147D01*
X300236Y180144D01*
X300161Y180054D01*
X300085Y179965D01*
X300083Y179959D01*
X300079Y179954D01*
X300037Y179846D01*
X299993Y179737D01*
X299992Y179729D01*
X299991Y179725D01*
X299990Y179706D01*
X299975Y179570D01*
X299975Y179155D01*
X273600Y152780D01*
X258167Y152780D01*
X258077Y152766D01*
X257986Y152758D01*
X257956Y152746D01*
X257924Y152741D01*
X257844Y152698D01*
X257760Y152662D01*
X257728Y152636D01*
X257707Y152625D01*
X257685Y152602D01*
X257629Y152557D01*
X252954Y147882D01*
X252901Y147808D01*
X252841Y147739D01*
X252829Y147709D01*
X252810Y147683D01*
X252783Y147596D01*
X252749Y147511D01*
X252745Y147470D01*
X252738Y147447D01*
X252739Y147415D01*
X252731Y147344D01*
X252731Y100687D01*
X252745Y100597D01*
X252753Y100506D01*
X252765Y100476D01*
X252770Y100444D01*
X252813Y100364D01*
X252849Y100280D01*
X252875Y100248D01*
X252886Y100227D01*
X252909Y100205D01*
X252954Y100149D01*
X256636Y96467D01*
X256694Y96425D01*
X256746Y96375D01*
X256793Y96354D01*
X256835Y96323D01*
X256904Y96302D01*
X256969Y96272D01*
X257021Y96266D01*
X257071Y96251D01*
X257142Y96253D01*
X257213Y96245D01*
X257264Y96256D01*
X257316Y96257D01*
X257384Y96282D01*
X257454Y96297D01*
X257499Y96324D01*
X257547Y96342D01*
X257603Y96386D01*
X257665Y96423D01*
X257699Y96463D01*
X257739Y96495D01*
X257778Y96556D01*
X257825Y96610D01*
X257844Y96658D01*
X257872Y96702D01*
X257890Y96772D01*
X257917Y96838D01*
X257925Y96910D01*
X257933Y96941D01*
X257931Y96964D01*
X257935Y97005D01*
X257935Y99372D01*
X258828Y100265D01*
X275172Y100265D01*
X276065Y99372D01*
X276065Y83028D01*
X275172Y82135D01*
X258828Y82135D01*
G37*
%LPD*%
%LPC*%
G36*
X187029Y38607D02*
X187029Y38607D01*
X140969Y84667D01*
X140969Y155174D01*
X140966Y155194D01*
X140968Y155213D01*
X140946Y155315D01*
X140930Y155417D01*
X140920Y155434D01*
X140916Y155454D01*
X140863Y155543D01*
X140814Y155634D01*
X140800Y155648D01*
X140790Y155665D01*
X140711Y155732D01*
X140636Y155804D01*
X140618Y155812D01*
X140603Y155825D01*
X140507Y155864D01*
X140413Y155907D01*
X140393Y155909D01*
X140375Y155917D01*
X140208Y155935D01*
X135328Y155935D01*
X134435Y156828D01*
X134435Y173172D01*
X135328Y174065D01*
X151672Y174065D01*
X152565Y173172D01*
X152565Y156828D01*
X151672Y155935D01*
X151130Y155935D01*
X151110Y155932D01*
X151091Y155934D01*
X150989Y155912D01*
X150887Y155896D01*
X150870Y155886D01*
X150850Y155882D01*
X150761Y155829D01*
X150670Y155780D01*
X150656Y155766D01*
X150639Y155756D01*
X150572Y155677D01*
X150500Y155602D01*
X150492Y155584D01*
X150479Y155569D01*
X150440Y155473D01*
X150397Y155379D01*
X150395Y155359D01*
X150387Y155341D01*
X150369Y155174D01*
X150369Y88876D01*
X150383Y88786D01*
X150391Y88695D01*
X150403Y88665D01*
X150408Y88633D01*
X150451Y88553D01*
X150487Y88469D01*
X150513Y88437D01*
X150524Y88416D01*
X150547Y88394D01*
X150592Y88338D01*
X190700Y48230D01*
X190774Y48177D01*
X190843Y48117D01*
X190873Y48105D01*
X190899Y48086D01*
X190986Y48059D01*
X191071Y48025D01*
X191112Y48021D01*
X191135Y48014D01*
X191167Y48015D01*
X191238Y48007D01*
X269391Y48007D01*
X269481Y48021D01*
X269572Y48029D01*
X269602Y48041D01*
X269634Y48046D01*
X269714Y48089D01*
X269798Y48125D01*
X269830Y48151D01*
X269851Y48162D01*
X269873Y48185D01*
X269929Y48230D01*
X278541Y56842D01*
X278586Y56905D01*
X278611Y56931D01*
X278616Y56941D01*
X278654Y56985D01*
X278666Y57015D01*
X278685Y57041D01*
X278712Y57128D01*
X278746Y57213D01*
X278750Y57254D01*
X278757Y57277D01*
X278756Y57309D01*
X278764Y57380D01*
X278764Y151553D01*
X281740Y154529D01*
X289012Y161801D01*
X289065Y161875D01*
X289125Y161944D01*
X289137Y161974D01*
X289156Y162000D01*
X289183Y162087D01*
X289217Y162172D01*
X289221Y162213D01*
X289228Y162236D01*
X289227Y162268D01*
X289235Y162339D01*
X289235Y163904D01*
X290463Y166868D01*
X292732Y169137D01*
X295696Y170365D01*
X298904Y170365D01*
X301868Y169137D01*
X304137Y166868D01*
X305365Y163904D01*
X305365Y160696D01*
X304137Y157732D01*
X301868Y155463D01*
X298904Y154235D01*
X295696Y154235D01*
X295490Y154321D01*
X295376Y154347D01*
X295263Y154376D01*
X295256Y154375D01*
X295250Y154377D01*
X295134Y154366D01*
X295017Y154357D01*
X295012Y154354D01*
X295005Y154354D01*
X294898Y154306D01*
X294791Y154260D01*
X294785Y154256D01*
X294781Y154254D01*
X294767Y154241D01*
X294660Y154156D01*
X288387Y147882D01*
X288334Y147808D01*
X288274Y147739D01*
X288262Y147709D01*
X288243Y147683D01*
X288216Y147596D01*
X288182Y147511D01*
X288178Y147470D01*
X288171Y147447D01*
X288172Y147415D01*
X288164Y147344D01*
X288164Y139744D01*
X288179Y139648D01*
X288189Y139551D01*
X288199Y139527D01*
X288203Y139502D01*
X288249Y139416D01*
X288289Y139327D01*
X288306Y139307D01*
X288319Y139284D01*
X288389Y139217D01*
X288455Y139145D01*
X288478Y139133D01*
X288497Y139115D01*
X288585Y139074D01*
X288671Y139027D01*
X288696Y139022D01*
X288720Y139011D01*
X288817Y139000D01*
X288913Y138983D01*
X288939Y138987D01*
X288964Y138984D01*
X289060Y139005D01*
X289156Y139019D01*
X289179Y139031D01*
X289205Y139036D01*
X289288Y139086D01*
X289375Y139130D01*
X289394Y139149D01*
X289416Y139162D01*
X289479Y139236D01*
X289547Y139306D01*
X289563Y139335D01*
X289576Y139349D01*
X289588Y139380D01*
X289628Y139453D01*
X290463Y141468D01*
X292732Y143737D01*
X295696Y144965D01*
X298904Y144965D01*
X301868Y143737D01*
X304137Y141468D01*
X305365Y138504D01*
X305365Y135296D01*
X304137Y132332D01*
X301868Y130063D01*
X298904Y128835D01*
X295696Y128835D01*
X292732Y130063D01*
X290463Y132332D01*
X289628Y134347D01*
X289577Y134430D01*
X289531Y134516D01*
X289512Y134534D01*
X289499Y134556D01*
X289424Y134618D01*
X289353Y134685D01*
X289329Y134696D01*
X289309Y134713D01*
X289218Y134748D01*
X289130Y134789D01*
X289104Y134792D01*
X289080Y134801D01*
X288982Y134805D01*
X288886Y134816D01*
X288860Y134810D01*
X288834Y134812D01*
X288740Y134784D01*
X288645Y134764D01*
X288623Y134750D01*
X288598Y134743D01*
X288518Y134687D01*
X288434Y134638D01*
X288417Y134618D01*
X288396Y134603D01*
X288337Y134525D01*
X288274Y134451D01*
X288264Y134426D01*
X288249Y134405D01*
X288219Y134313D01*
X288182Y134222D01*
X288179Y134190D01*
X288173Y134171D01*
X288173Y134138D01*
X288164Y134056D01*
X288164Y114344D01*
X288179Y114248D01*
X288189Y114151D01*
X288199Y114127D01*
X288203Y114102D01*
X288249Y114016D01*
X288289Y113927D01*
X288306Y113907D01*
X288319Y113884D01*
X288389Y113817D01*
X288455Y113745D01*
X288478Y113733D01*
X288497Y113715D01*
X288585Y113674D01*
X288671Y113627D01*
X288696Y113622D01*
X288720Y113611D01*
X288817Y113600D01*
X288913Y113583D01*
X288939Y113587D01*
X288964Y113584D01*
X289060Y113605D01*
X289156Y113619D01*
X289179Y113631D01*
X289205Y113636D01*
X289288Y113686D01*
X289375Y113730D01*
X289394Y113749D01*
X289416Y113762D01*
X289479Y113836D01*
X289547Y113906D01*
X289563Y113935D01*
X289576Y113949D01*
X289588Y113980D01*
X289628Y114053D01*
X290463Y116068D01*
X292732Y118337D01*
X295696Y119565D01*
X298904Y119565D01*
X301868Y118337D01*
X304137Y116068D01*
X305365Y113104D01*
X305365Y109896D01*
X304137Y106932D01*
X301868Y104663D01*
X298904Y103435D01*
X295696Y103435D01*
X292732Y104663D01*
X290463Y106932D01*
X289628Y108947D01*
X289577Y109030D01*
X289531Y109116D01*
X289512Y109134D01*
X289499Y109156D01*
X289424Y109218D01*
X289353Y109285D01*
X289329Y109296D01*
X289309Y109313D01*
X289218Y109348D01*
X289130Y109389D01*
X289104Y109392D01*
X289080Y109401D01*
X288982Y109405D01*
X288886Y109416D01*
X288860Y109410D01*
X288834Y109412D01*
X288740Y109384D01*
X288645Y109364D01*
X288623Y109350D01*
X288598Y109343D01*
X288518Y109287D01*
X288434Y109238D01*
X288417Y109218D01*
X288396Y109203D01*
X288337Y109125D01*
X288274Y109051D01*
X288264Y109026D01*
X288249Y109005D01*
X288219Y108913D01*
X288182Y108822D01*
X288179Y108790D01*
X288173Y108771D01*
X288173Y108738D01*
X288164Y108656D01*
X288164Y88944D01*
X288179Y88848D01*
X288189Y88751D01*
X288199Y88727D01*
X288203Y88702D01*
X288249Y88616D01*
X288289Y88527D01*
X288306Y88507D01*
X288319Y88484D01*
X288389Y88417D01*
X288455Y88345D01*
X288478Y88333D01*
X288497Y88315D01*
X288585Y88274D01*
X288671Y88227D01*
X288696Y88222D01*
X288720Y88211D01*
X288817Y88200D01*
X288913Y88183D01*
X288939Y88187D01*
X288964Y88184D01*
X289060Y88205D01*
X289156Y88219D01*
X289179Y88231D01*
X289205Y88236D01*
X289288Y88286D01*
X289375Y88330D01*
X289394Y88349D01*
X289416Y88362D01*
X289479Y88436D01*
X289547Y88506D01*
X289563Y88535D01*
X289576Y88549D01*
X289588Y88580D01*
X289628Y88653D01*
X290463Y90668D01*
X292732Y92937D01*
X295696Y94165D01*
X298904Y94165D01*
X301868Y92937D01*
X304137Y90668D01*
X305365Y87704D01*
X305365Y84496D01*
X304137Y81532D01*
X301868Y79263D01*
X298904Y78035D01*
X295696Y78035D01*
X292732Y79263D01*
X290463Y81532D01*
X289628Y83547D01*
X289577Y83630D01*
X289531Y83716D01*
X289512Y83734D01*
X289499Y83756D01*
X289424Y83818D01*
X289353Y83885D01*
X289329Y83896D01*
X289309Y83913D01*
X289218Y83948D01*
X289130Y83989D01*
X289104Y83992D01*
X289080Y84001D01*
X288982Y84005D01*
X288886Y84016D01*
X288860Y84010D01*
X288834Y84012D01*
X288740Y83984D01*
X288645Y83964D01*
X288623Y83950D01*
X288598Y83943D01*
X288518Y83887D01*
X288434Y83838D01*
X288417Y83818D01*
X288396Y83803D01*
X288337Y83725D01*
X288274Y83651D01*
X288264Y83626D01*
X288249Y83605D01*
X288219Y83513D01*
X288192Y83447D01*
X288192Y83446D01*
X288182Y83422D01*
X288179Y83390D01*
X288173Y83371D01*
X288173Y83338D01*
X288164Y83256D01*
X288164Y63544D01*
X288179Y63448D01*
X288189Y63351D01*
X288199Y63327D01*
X288203Y63302D01*
X288249Y63216D01*
X288289Y63127D01*
X288306Y63107D01*
X288319Y63084D01*
X288389Y63017D01*
X288455Y62945D01*
X288478Y62933D01*
X288497Y62915D01*
X288585Y62874D01*
X288671Y62827D01*
X288696Y62822D01*
X288720Y62811D01*
X288817Y62800D01*
X288913Y62783D01*
X288939Y62787D01*
X288964Y62784D01*
X289060Y62805D01*
X289156Y62819D01*
X289179Y62831D01*
X289205Y62836D01*
X289288Y62886D01*
X289375Y62930D01*
X289394Y62949D01*
X289416Y62962D01*
X289479Y63036D01*
X289547Y63106D01*
X289563Y63135D01*
X289576Y63149D01*
X289588Y63180D01*
X289628Y63253D01*
X290463Y65268D01*
X292732Y67537D01*
X295696Y68765D01*
X298904Y68765D01*
X301868Y67537D01*
X304137Y65268D01*
X305365Y62304D01*
X305365Y59096D01*
X304137Y56132D01*
X301868Y53863D01*
X298904Y52635D01*
X295696Y52635D01*
X292732Y53863D01*
X290463Y56132D01*
X289628Y58147D01*
X289577Y58230D01*
X289531Y58316D01*
X289512Y58334D01*
X289499Y58356D01*
X289424Y58418D01*
X289353Y58485D01*
X289329Y58496D01*
X289309Y58513D01*
X289218Y58548D01*
X289130Y58589D01*
X289104Y58592D01*
X289080Y58601D01*
X288982Y58605D01*
X288886Y58616D01*
X288860Y58610D01*
X288834Y58612D01*
X288740Y58584D01*
X288645Y58564D01*
X288623Y58550D01*
X288598Y58543D01*
X288518Y58487D01*
X288434Y58438D01*
X288417Y58418D01*
X288396Y58403D01*
X288337Y58325D01*
X288274Y58251D01*
X288264Y58226D01*
X288249Y58205D01*
X288219Y58113D01*
X288182Y58022D01*
X288179Y57990D01*
X288173Y57971D01*
X288173Y57938D01*
X288164Y57856D01*
X288164Y53171D01*
X273600Y38607D01*
X187029Y38607D01*
G37*
%LPD*%
%LPC*%
G36*
X135328Y181335D02*
X135328Y181335D01*
X134435Y182228D01*
X134435Y198572D01*
X135328Y199465D01*
X151672Y199465D01*
X152565Y198572D01*
X152565Y182228D01*
X151672Y181335D01*
X135328Y181335D01*
G37*
%LPD*%
%LPC*%
G36*
X259328Y218135D02*
X259328Y218135D01*
X258435Y219028D01*
X258435Y235372D01*
X259328Y236265D01*
X275672Y236265D01*
X276565Y235372D01*
X276565Y219028D01*
X275672Y218135D01*
X259328Y218135D01*
G37*
%LPD*%
%LPC*%
G36*
X258828Y107535D02*
X258828Y107535D01*
X257935Y108428D01*
X257935Y124772D01*
X258828Y125665D01*
X275172Y125665D01*
X276065Y124772D01*
X276065Y108428D01*
X275172Y107535D01*
X258828Y107535D01*
G37*
%LPD*%
%LPC*%
G36*
X258828Y132935D02*
X258828Y132935D01*
X257935Y133828D01*
X257935Y150172D01*
X258828Y151065D01*
X275172Y151065D01*
X276065Y150172D01*
X276065Y133828D01*
X275172Y132935D01*
X258828Y132935D01*
G37*
%LPD*%
%LPC*%
G36*
X259328Y192735D02*
X259328Y192735D01*
X258435Y193628D01*
X258435Y209972D01*
X259328Y210865D01*
X275672Y210865D01*
X276565Y209972D01*
X276565Y193628D01*
X275672Y192735D01*
X259328Y192735D01*
G37*
%LPD*%
%LPC*%
G36*
X258828Y56735D02*
X258828Y56735D01*
X257935Y57628D01*
X257935Y73972D01*
X258828Y74865D01*
X275172Y74865D01*
X276065Y73972D01*
X276065Y57628D01*
X275172Y56735D01*
X258828Y56735D01*
G37*
%LPD*%
%LPC*%
G36*
X321096Y255835D02*
X321096Y255835D01*
X318132Y257063D01*
X315863Y259332D01*
X314635Y262296D01*
X314635Y265504D01*
X315863Y268468D01*
X318132Y270737D01*
X321096Y271965D01*
X324304Y271965D01*
X327268Y270737D01*
X329537Y268468D01*
X330765Y265504D01*
X330765Y262296D01*
X329537Y259332D01*
X327268Y257063D01*
X324304Y255835D01*
X321096Y255835D01*
G37*
%LPD*%
%LPC*%
G36*
X321096Y78035D02*
X321096Y78035D01*
X318132Y79263D01*
X315863Y81532D01*
X314635Y84496D01*
X314635Y87704D01*
X315863Y90668D01*
X318132Y92937D01*
X321096Y94165D01*
X324304Y94165D01*
X327268Y92937D01*
X329537Y90668D01*
X330765Y87704D01*
X330765Y84496D01*
X329537Y81532D01*
X327268Y79263D01*
X324304Y78035D01*
X321096Y78035D01*
G37*
%LPD*%
%LPC*%
G36*
X85696Y78035D02*
X85696Y78035D01*
X82732Y79263D01*
X80463Y81532D01*
X79235Y84496D01*
X79235Y87704D01*
X80463Y90668D01*
X82732Y92937D01*
X85696Y94165D01*
X88904Y94165D01*
X91868Y92937D01*
X94137Y90668D01*
X95365Y87704D01*
X95365Y84496D01*
X94137Y81532D01*
X91868Y79263D01*
X88904Y78035D01*
X85696Y78035D01*
G37*
%LPD*%
%LPC*%
G36*
X321096Y230435D02*
X321096Y230435D01*
X318132Y231663D01*
X315863Y233932D01*
X314635Y236896D01*
X314635Y240104D01*
X315863Y243068D01*
X318132Y245337D01*
X321096Y246565D01*
X324304Y246565D01*
X327268Y245337D01*
X329537Y243068D01*
X330765Y240104D01*
X330765Y236896D01*
X329537Y233932D01*
X327268Y231663D01*
X324304Y230435D01*
X321096Y230435D01*
G37*
%LPD*%
%LPC*%
G36*
X295696Y230435D02*
X295696Y230435D01*
X292732Y231663D01*
X290463Y233932D01*
X289235Y236896D01*
X289235Y240104D01*
X290463Y243068D01*
X292732Y245337D01*
X295696Y246565D01*
X298904Y246565D01*
X301868Y245337D01*
X304137Y243068D01*
X305365Y240104D01*
X305365Y236896D01*
X304137Y233932D01*
X301868Y231663D01*
X298904Y230435D01*
X295696Y230435D01*
G37*
%LPD*%
%LPC*%
G36*
X321096Y52635D02*
X321096Y52635D01*
X318132Y53863D01*
X315863Y56132D01*
X314635Y59096D01*
X314635Y62304D01*
X315863Y65268D01*
X318132Y67537D01*
X321096Y68765D01*
X324304Y68765D01*
X327268Y67537D01*
X329537Y65268D01*
X330765Y62304D01*
X330765Y59096D01*
X329537Y56132D01*
X327268Y53863D01*
X324304Y52635D01*
X321096Y52635D01*
G37*
%LPD*%
%LPC*%
G36*
X216096Y52635D02*
X216096Y52635D01*
X213132Y53863D01*
X210863Y56132D01*
X209635Y59096D01*
X209635Y62304D01*
X210863Y65268D01*
X213132Y67537D01*
X216096Y68765D01*
X219304Y68765D01*
X222268Y67537D01*
X224537Y65268D01*
X225765Y62304D01*
X225765Y59096D01*
X224537Y56132D01*
X222268Y53863D01*
X219304Y52635D01*
X216096Y52635D01*
G37*
%LPD*%
%LPC*%
G36*
X321096Y205035D02*
X321096Y205035D01*
X318132Y206263D01*
X315863Y208532D01*
X314635Y211496D01*
X314635Y214704D01*
X315863Y217668D01*
X318132Y219937D01*
X321096Y221165D01*
X324304Y221165D01*
X327268Y219937D01*
X329537Y217668D01*
X330765Y214704D01*
X330765Y211496D01*
X329537Y208532D01*
X327268Y206263D01*
X324304Y205035D01*
X321096Y205035D01*
G37*
%LPD*%
%LPC*%
G36*
X111096Y205035D02*
X111096Y205035D01*
X108132Y206263D01*
X105863Y208532D01*
X104635Y211496D01*
X104635Y214704D01*
X105863Y217668D01*
X108132Y219937D01*
X111096Y221165D01*
X114304Y221165D01*
X117268Y219937D01*
X119537Y217668D01*
X120765Y214704D01*
X120765Y211496D01*
X119537Y208532D01*
X117268Y206263D01*
X114304Y205035D01*
X111096Y205035D01*
G37*
%LPD*%
%LPC*%
G36*
X85696Y205035D02*
X85696Y205035D01*
X82732Y206263D01*
X80463Y208532D01*
X79235Y211496D01*
X79235Y214704D01*
X80463Y217668D01*
X82732Y219937D01*
X85696Y221165D01*
X88904Y221165D01*
X91868Y219937D01*
X94137Y217668D01*
X95365Y214704D01*
X95365Y211496D01*
X94137Y208532D01*
X91868Y206263D01*
X88904Y205035D01*
X85696Y205035D01*
G37*
%LPD*%
%LPC*%
G36*
X190696Y52635D02*
X190696Y52635D01*
X187732Y53863D01*
X185463Y56132D01*
X184235Y59096D01*
X184235Y62304D01*
X185463Y65268D01*
X187732Y67537D01*
X190696Y68765D01*
X193904Y68765D01*
X196868Y67537D01*
X199137Y65268D01*
X200365Y62304D01*
X200365Y59096D01*
X199137Y56132D01*
X196868Y53863D01*
X193904Y52635D01*
X190696Y52635D01*
G37*
%LPD*%
%LPC*%
G36*
X190696Y179635D02*
X190696Y179635D01*
X187732Y180863D01*
X185463Y183132D01*
X184235Y186096D01*
X184235Y189304D01*
X185463Y192268D01*
X187732Y194537D01*
X190696Y195765D01*
X193904Y195765D01*
X196868Y194537D01*
X199137Y192268D01*
X200365Y189304D01*
X200365Y186096D01*
X199137Y183132D01*
X196868Y180863D01*
X193904Y179635D01*
X190696Y179635D01*
G37*
%LPD*%
%LPC*%
G36*
X111096Y179635D02*
X111096Y179635D01*
X108132Y180863D01*
X105863Y183132D01*
X104635Y186096D01*
X104635Y189304D01*
X105863Y192268D01*
X108132Y194537D01*
X111096Y195765D01*
X114304Y195765D01*
X117268Y194537D01*
X119537Y192268D01*
X120765Y189304D01*
X120765Y186096D01*
X119537Y183132D01*
X117268Y180863D01*
X114304Y179635D01*
X111096Y179635D01*
G37*
%LPD*%
%LPC*%
G36*
X85696Y179635D02*
X85696Y179635D01*
X82732Y180863D01*
X80463Y183132D01*
X79235Y186096D01*
X79235Y189304D01*
X80463Y192268D01*
X82732Y194537D01*
X85696Y195765D01*
X88904Y195765D01*
X91868Y194537D01*
X94137Y192268D01*
X95365Y189304D01*
X95365Y186096D01*
X94137Y183132D01*
X91868Y180863D01*
X88904Y179635D01*
X85696Y179635D01*
G37*
%LPD*%
%LPC*%
G36*
X111096Y52635D02*
X111096Y52635D01*
X108132Y53863D01*
X105863Y56132D01*
X104635Y59096D01*
X104635Y62304D01*
X105863Y65268D01*
X108132Y67537D01*
X111096Y68765D01*
X114304Y68765D01*
X117268Y67537D01*
X119537Y65268D01*
X120765Y62304D01*
X120765Y59096D01*
X119537Y56132D01*
X117268Y53863D01*
X114304Y52635D01*
X111096Y52635D01*
G37*
%LPD*%
%LPC*%
G36*
X85696Y52635D02*
X85696Y52635D01*
X82732Y53863D01*
X80463Y56132D01*
X79235Y59096D01*
X79235Y62304D01*
X80463Y65268D01*
X82732Y67537D01*
X85696Y68765D01*
X88904Y68765D01*
X91868Y67537D01*
X94137Y65268D01*
X95365Y62304D01*
X95365Y59096D01*
X94137Y56132D01*
X91868Y53863D01*
X88904Y52635D01*
X85696Y52635D01*
G37*
%LPD*%
%LPC*%
G36*
X321096Y128835D02*
X321096Y128835D01*
X318132Y130063D01*
X315863Y132332D01*
X314635Y135296D01*
X314635Y138504D01*
X315863Y141468D01*
X318132Y143737D01*
X321096Y144965D01*
X324304Y144965D01*
X327268Y143737D01*
X329537Y141468D01*
X330765Y138504D01*
X330765Y135296D01*
X329537Y132332D01*
X327268Y130063D01*
X324304Y128835D01*
X321096Y128835D01*
G37*
%LPD*%
%LPC*%
G36*
X190696Y154235D02*
X190696Y154235D01*
X187732Y155463D01*
X185463Y157732D01*
X184235Y160696D01*
X184235Y163904D01*
X185463Y166868D01*
X187732Y169137D01*
X190696Y170365D01*
X193904Y170365D01*
X196868Y169137D01*
X199137Y166868D01*
X200365Y163904D01*
X200365Y160696D01*
X199137Y157732D01*
X196868Y155463D01*
X193904Y154235D01*
X190696Y154235D01*
G37*
%LPD*%
%LPC*%
G36*
X85696Y154235D02*
X85696Y154235D01*
X82732Y155463D01*
X80463Y157732D01*
X79235Y160696D01*
X79235Y163904D01*
X80463Y166868D01*
X82732Y169137D01*
X85696Y170365D01*
X88904Y170365D01*
X91868Y169137D01*
X94137Y166868D01*
X95365Y163904D01*
X95365Y160696D01*
X94137Y157732D01*
X91868Y155463D01*
X88904Y154235D01*
X85696Y154235D01*
G37*
%LPD*%
%LPC*%
G36*
X216096Y154235D02*
X216096Y154235D01*
X213132Y155463D01*
X210863Y157732D01*
X209635Y160696D01*
X209635Y163904D01*
X210863Y166868D01*
X213132Y169137D01*
X216096Y170365D01*
X219304Y170365D01*
X222268Y169137D01*
X224537Y166868D01*
X225765Y163904D01*
X225765Y160696D01*
X224537Y157732D01*
X222268Y155463D01*
X219304Y154235D01*
X216096Y154235D01*
G37*
%LPD*%
%LPC*%
G36*
X111096Y78035D02*
X111096Y78035D01*
X108132Y79263D01*
X105863Y81532D01*
X104635Y84496D01*
X104635Y87704D01*
X105863Y90668D01*
X108132Y92937D01*
X111096Y94165D01*
X114304Y94165D01*
X117268Y92937D01*
X119537Y90668D01*
X120765Y87704D01*
X120765Y84496D01*
X119537Y81532D01*
X117268Y79263D01*
X114304Y78035D01*
X111096Y78035D01*
G37*
%LPD*%
%LPC*%
G36*
X216096Y128835D02*
X216096Y128835D01*
X213132Y130063D01*
X210863Y132332D01*
X209635Y135296D01*
X209635Y138504D01*
X210863Y141468D01*
X213132Y143737D01*
X216096Y144965D01*
X219304Y144965D01*
X222268Y143737D01*
X224537Y141468D01*
X225765Y138504D01*
X225765Y135296D01*
X224537Y132332D01*
X222268Y130063D01*
X219304Y128835D01*
X216096Y128835D01*
G37*
%LPD*%
%LPC*%
G36*
X190696Y128835D02*
X190696Y128835D01*
X187732Y130063D01*
X185463Y132332D01*
X184235Y135296D01*
X184235Y138504D01*
X185463Y141468D01*
X187732Y143737D01*
X190696Y144965D01*
X193904Y144965D01*
X196868Y143737D01*
X199137Y141468D01*
X200365Y138504D01*
X200365Y135296D01*
X199137Y132332D01*
X196868Y130063D01*
X193904Y128835D01*
X190696Y128835D01*
G37*
%LPD*%
%LPC*%
G36*
X111096Y128835D02*
X111096Y128835D01*
X108132Y130063D01*
X105863Y132332D01*
X104635Y135296D01*
X104635Y138504D01*
X105863Y141468D01*
X108132Y143737D01*
X111096Y144965D01*
X114304Y144965D01*
X117268Y143737D01*
X119537Y141468D01*
X120765Y138504D01*
X120765Y135296D01*
X119537Y132332D01*
X117268Y130063D01*
X114304Y128835D01*
X111096Y128835D01*
G37*
%LPD*%
%LPC*%
G36*
X85696Y128835D02*
X85696Y128835D01*
X82732Y130063D01*
X80463Y132332D01*
X79235Y135296D01*
X79235Y138504D01*
X80463Y141468D01*
X82732Y143737D01*
X85696Y144965D01*
X88904Y144965D01*
X91868Y143737D01*
X94137Y141468D01*
X95365Y138504D01*
X95365Y135296D01*
X94137Y132332D01*
X91868Y130063D01*
X88904Y128835D01*
X85696Y128835D01*
G37*
%LPD*%
%LPC*%
G36*
X321096Y103435D02*
X321096Y103435D01*
X318132Y104663D01*
X315863Y106932D01*
X314635Y109896D01*
X314635Y113104D01*
X315863Y116068D01*
X318132Y118337D01*
X321096Y119565D01*
X324304Y119565D01*
X327268Y118337D01*
X329537Y116068D01*
X330765Y113104D01*
X330765Y109896D01*
X329537Y106932D01*
X327268Y104663D01*
X324304Y103435D01*
X321096Y103435D01*
G37*
%LPD*%
%LPC*%
G36*
X216096Y103435D02*
X216096Y103435D01*
X213132Y104663D01*
X210863Y106932D01*
X209635Y109896D01*
X209635Y113104D01*
X210863Y116068D01*
X213132Y118337D01*
X216096Y119565D01*
X219304Y119565D01*
X222268Y118337D01*
X224537Y116068D01*
X225765Y113104D01*
X225765Y109896D01*
X224537Y106932D01*
X222268Y104663D01*
X219304Y103435D01*
X216096Y103435D01*
G37*
%LPD*%
%LPC*%
G36*
X190696Y103435D02*
X190696Y103435D01*
X187732Y104663D01*
X185463Y106932D01*
X184235Y109896D01*
X184235Y113104D01*
X185463Y116068D01*
X187732Y118337D01*
X190696Y119565D01*
X193904Y119565D01*
X196868Y118337D01*
X199137Y116068D01*
X200365Y113104D01*
X200365Y109896D01*
X199137Y106932D01*
X196868Y104663D01*
X193904Y103435D01*
X190696Y103435D01*
G37*
%LPD*%
%LPC*%
G36*
X111096Y103435D02*
X111096Y103435D01*
X108132Y104663D01*
X105863Y106932D01*
X104635Y109896D01*
X104635Y113104D01*
X105863Y116068D01*
X108132Y118337D01*
X111096Y119565D01*
X114304Y119565D01*
X117268Y118337D01*
X119537Y116068D01*
X120765Y113104D01*
X120765Y109896D01*
X119537Y106932D01*
X117268Y104663D01*
X114304Y103435D01*
X111096Y103435D01*
G37*
%LPD*%
%LPC*%
G36*
X85696Y103435D02*
X85696Y103435D01*
X82732Y104663D01*
X80463Y106932D01*
X79235Y109896D01*
X79235Y113104D01*
X80463Y116068D01*
X82732Y118337D01*
X85696Y119565D01*
X88904Y119565D01*
X91868Y118337D01*
X94137Y116068D01*
X95365Y113104D01*
X95365Y109896D01*
X94137Y106932D01*
X91868Y104663D01*
X88904Y103435D01*
X85696Y103435D01*
G37*
%LPD*%
%LPC*%
G36*
X216096Y78035D02*
X216096Y78035D01*
X213132Y79263D01*
X210863Y81532D01*
X209635Y84496D01*
X209635Y87704D01*
X210863Y90668D01*
X213132Y92937D01*
X216096Y94165D01*
X219304Y94165D01*
X222268Y92937D01*
X224537Y90668D01*
X225765Y87704D01*
X225765Y84496D01*
X224537Y81532D01*
X222268Y79263D01*
X219304Y78035D01*
X216096Y78035D01*
G37*
%LPD*%
%LPC*%
G36*
X190696Y78035D02*
X190696Y78035D01*
X187732Y79263D01*
X185463Y81532D01*
X184235Y84496D01*
X184235Y87704D01*
X185463Y90668D01*
X187732Y92937D01*
X190696Y94165D01*
X193904Y94165D01*
X196868Y92937D01*
X199137Y90668D01*
X200365Y87704D01*
X200365Y84496D01*
X199137Y81532D01*
X196868Y79263D01*
X193904Y78035D01*
X190696Y78035D01*
G37*
%LPD*%
%LPC*%
G36*
X145023Y242723D02*
X145023Y242723D01*
X145023Y251281D01*
X151374Y251281D01*
X152021Y251108D01*
X152600Y250773D01*
X153073Y250300D01*
X153408Y249721D01*
X153581Y249074D01*
X153581Y242723D01*
X145023Y242723D01*
G37*
%LPD*%
%LPC*%
G36*
X133419Y242723D02*
X133419Y242723D01*
X133419Y249074D01*
X133592Y249721D01*
X133927Y250300D01*
X134400Y250773D01*
X134979Y251108D01*
X135626Y251281D01*
X141977Y251281D01*
X141977Y242723D01*
X133419Y242723D01*
G37*
%LPD*%
%LPC*%
G36*
X145023Y231119D02*
X145023Y231119D01*
X145023Y239677D01*
X153581Y239677D01*
X153581Y233326D01*
X153408Y232679D01*
X153073Y232100D01*
X152600Y231627D01*
X152021Y231292D01*
X151374Y231119D01*
X145023Y231119D01*
G37*
%LPD*%
%LPC*%
G36*
X135626Y231119D02*
X135626Y231119D01*
X134979Y231292D01*
X134400Y231627D01*
X133927Y232100D01*
X133592Y232679D01*
X133419Y233326D01*
X133419Y239677D01*
X141977Y239677D01*
X141977Y231119D01*
X135626Y231119D01*
G37*
%LPD*%
%LPC*%
G36*
X114223Y163823D02*
X114223Y163823D01*
X114223Y171256D01*
X115349Y171032D01*
X117001Y170347D01*
X118489Y169353D01*
X119753Y168089D01*
X120747Y166601D01*
X121432Y164949D01*
X121656Y163823D01*
X114223Y163823D01*
G37*
%LPD*%
%LPC*%
G36*
X324223Y163823D02*
X324223Y163823D01*
X324223Y171256D01*
X325349Y171032D01*
X327001Y170347D01*
X328489Y169353D01*
X329753Y168089D01*
X330747Y166601D01*
X331432Y164949D01*
X331656Y163823D01*
X324223Y163823D01*
G37*
%LPD*%
%LPC*%
G36*
X219223Y186177D02*
X219223Y186177D01*
X226656Y186177D01*
X226432Y185051D01*
X225747Y183399D01*
X224753Y181911D01*
X223489Y180647D01*
X222001Y179653D01*
X220349Y178968D01*
X219223Y178744D01*
X219223Y186177D01*
G37*
%LPD*%
%LPC*%
G36*
X114223Y160777D02*
X114223Y160777D01*
X121656Y160777D01*
X121432Y159651D01*
X120747Y157999D01*
X119753Y156511D01*
X118489Y155247D01*
X117001Y154253D01*
X115349Y153568D01*
X114223Y153344D01*
X114223Y160777D01*
G37*
%LPD*%
%LPC*%
G36*
X313744Y163823D02*
X313744Y163823D01*
X313968Y164949D01*
X314653Y166601D01*
X315647Y168089D01*
X316911Y169353D01*
X318399Y170347D01*
X320051Y171032D01*
X321177Y171256D01*
X321177Y163823D01*
X313744Y163823D01*
G37*
%LPD*%
%LPC*%
G36*
X103744Y163823D02*
X103744Y163823D01*
X103968Y164949D01*
X104653Y166601D01*
X105647Y168089D01*
X106911Y169353D01*
X108399Y170347D01*
X110051Y171032D01*
X111177Y171256D01*
X111177Y163823D01*
X103744Y163823D01*
G37*
%LPD*%
%LPC*%
G36*
X324223Y160777D02*
X324223Y160777D01*
X331656Y160777D01*
X331432Y159651D01*
X330747Y157999D01*
X329753Y156511D01*
X328489Y155247D01*
X327001Y154253D01*
X325349Y153568D01*
X324223Y153344D01*
X324223Y160777D01*
G37*
%LPD*%
%LPC*%
G36*
X215051Y178968D02*
X215051Y178968D01*
X213399Y179653D01*
X211911Y180647D01*
X210647Y181911D01*
X209653Y183399D01*
X208968Y185051D01*
X208744Y186177D01*
X216177Y186177D01*
X216177Y178744D01*
X215051Y178968D01*
G37*
%LPD*%
%LPC*%
G36*
X110051Y153568D02*
X110051Y153568D01*
X108399Y154253D01*
X106911Y155247D01*
X105647Y156511D01*
X104653Y157999D01*
X103968Y159651D01*
X103744Y160777D01*
X111177Y160777D01*
X111177Y153344D01*
X110051Y153568D01*
G37*
%LPD*%
%LPC*%
G36*
X320051Y153568D02*
X320051Y153568D01*
X318399Y154253D01*
X316911Y155247D01*
X315647Y156511D01*
X314653Y157999D01*
X313968Y159651D01*
X313744Y160777D01*
X321177Y160777D01*
X321177Y153344D01*
X320051Y153568D01*
G37*
%LPD*%
%LPC*%
G36*
X143499Y241199D02*
X143499Y241199D01*
X143499Y241201D01*
X143501Y241201D01*
X143501Y241199D01*
X143499Y241199D01*
G37*
%LPD*%
%LPC*%
G36*
X322699Y162299D02*
X322699Y162299D01*
X322699Y162301D01*
X322701Y162301D01*
X322701Y162299D01*
X322699Y162299D01*
G37*
%LPD*%
%LPC*%
G36*
X112699Y162299D02*
X112699Y162299D01*
X112699Y162301D01*
X112701Y162301D01*
X112701Y162299D01*
X112699Y162299D01*
G37*
%LPD*%
D10*
X112700Y60700D03*
X87300Y60700D03*
X112700Y86100D03*
X87300Y86100D03*
X112700Y111500D03*
X87300Y111500D03*
X112700Y136900D03*
X87300Y136900D03*
X112700Y162300D03*
X87300Y162300D03*
X112700Y187700D03*
X87300Y187700D03*
X112700Y213100D03*
X87300Y213100D03*
X112700Y238500D03*
X87300Y238500D03*
X112700Y263900D03*
X87300Y263900D03*
X112700Y289300D03*
X87300Y289300D03*
X217700Y60700D03*
X192300Y60700D03*
X217700Y86100D03*
X192300Y86100D03*
X217700Y111500D03*
X192300Y111500D03*
X217700Y136900D03*
X192300Y136900D03*
X217700Y162300D03*
X192300Y162300D03*
X217700Y187700D03*
X192300Y187700D03*
X217700Y213100D03*
X192300Y213100D03*
X217700Y238500D03*
X192300Y238500D03*
X217700Y263900D03*
X192300Y263900D03*
X217700Y289300D03*
X192300Y289300D03*
X322700Y60700D03*
X297300Y60700D03*
X322700Y86100D03*
X297300Y86100D03*
X322700Y111500D03*
X297300Y111500D03*
X322700Y136900D03*
X297300Y136900D03*
X322700Y162300D03*
X297300Y162300D03*
X322700Y187700D03*
X297300Y187700D03*
X322700Y213100D03*
X297300Y213100D03*
X322700Y238500D03*
X297300Y238500D03*
X322700Y263900D03*
X297300Y263900D03*
X322700Y289300D03*
X297300Y289300D03*
D11*
X143500Y241200D03*
X143500Y165000D03*
X143500Y215800D03*
X143500Y190400D03*
X267000Y65800D03*
X267000Y142000D03*
X267000Y91200D03*
X267000Y116600D03*
X267500Y201800D03*
X267500Y278000D03*
X267500Y227200D03*
X267500Y252600D03*
D12*
X216535Y216535D02*
X204724Y228346D01*
X204724Y248031D01*
X200787Y251968D01*
X185039Y251968D01*
X161417Y228346D01*
X161417Y224409D01*
X153543Y216535D01*
X145669Y216535D01*
X216535Y216535D02*
X217700Y213100D01*
X145669Y216535D02*
X143500Y215800D01*
X307086Y200787D02*
X318897Y188976D01*
X307086Y200787D02*
X287401Y200787D01*
X283464Y196850D01*
X283464Y188976D01*
X279527Y185039D01*
X255905Y185039D01*
X232283Y208661D01*
X224409Y208661D01*
X220472Y212598D01*
X318897Y188976D02*
X322700Y187700D01*
X220472Y212598D02*
X217700Y213100D01*
X125984Y303149D02*
X114173Y291338D01*
X125984Y303149D02*
X267716Y303149D01*
X283464Y287401D01*
X283464Y279527D01*
X287401Y275590D01*
X307086Y275590D01*
X318897Y287401D01*
X114173Y291338D02*
X112700Y289300D01*
X318897Y287401D02*
X322700Y289300D01*
X295275Y291338D02*
X275590Y311023D01*
X114173Y311023D01*
X90551Y287401D01*
X295275Y291338D02*
X297300Y289300D01*
X90551Y287401D02*
X87300Y289300D01*
X295275Y185039D02*
X295275Y181102D01*
X271653Y157480D01*
X255905Y157480D01*
X253937Y155512D02*
X248031Y149606D01*
X253937Y155512D02*
X255905Y157480D01*
X248031Y149606D02*
X248031Y98425D01*
X255905Y90551D01*
X263779Y90551D01*
X295275Y185039D02*
X297300Y187700D01*
X267000Y91200D02*
X263779Y90551D01*
X251968Y157480D02*
X251968Y177165D01*
X228346Y200787D01*
X208661Y200787D01*
X192913Y216535D01*
X251968Y157480D02*
X253937Y155512D01*
X192300Y213100D02*
X192913Y216535D01*
X283464Y149606D02*
X295275Y161417D01*
X283464Y149606D02*
X283464Y55118D01*
X271653Y43307D01*
X188976Y43307D01*
X145669Y86614D01*
X145669Y161417D01*
X295275Y161417D02*
X297300Y162300D01*
X145669Y161417D02*
X143500Y165000D01*
X94488Y267716D02*
X90551Y267716D01*
X94488Y267716D02*
X102362Y275590D01*
X133858Y275590D01*
X149606Y291338D01*
X90551Y267716D02*
X87300Y263900D01*
D13*
X149606Y291338D03*
D12*
X102362Y251968D02*
X90551Y240157D01*
X102362Y251968D02*
X125984Y251968D01*
X165354Y291338D01*
X173228Y291338D01*
X90551Y240157D02*
X87300Y238500D01*
D13*
X173228Y291338D03*
D12*
X192913Y267716D02*
X200787Y275590D01*
X232283Y275590D01*
X255905Y251968D01*
X263779Y251968D01*
X192300Y263900D02*
X192913Y267716D01*
X263779Y251968D02*
X267500Y252600D01*
M02*
