G04 EAGLE Gerber RS-274X export*
G75*
%MOMM*%
%FSLAX34Y34*%
%LPD*%
%INSilkscreen Top*%
%IPPOS*%
%AMOC8*
5,1,8,0,0,1.08239X$1,22.5*%
G01*
%ADD10C,0.152400*%
%ADD11C,0.127000*%
%ADD12C,0.101600*%


D10*
X270762Y32432D02*
X270762Y48688D01*
X275278Y48688D01*
X275411Y48686D01*
X275543Y48680D01*
X275675Y48670D01*
X275807Y48657D01*
X275939Y48639D01*
X276069Y48618D01*
X276200Y48593D01*
X276329Y48564D01*
X276457Y48531D01*
X276585Y48495D01*
X276711Y48455D01*
X276836Y48411D01*
X276960Y48363D01*
X277082Y48312D01*
X277203Y48257D01*
X277322Y48199D01*
X277440Y48137D01*
X277555Y48072D01*
X277669Y48003D01*
X277780Y47932D01*
X277889Y47856D01*
X277996Y47778D01*
X278101Y47697D01*
X278203Y47612D01*
X278303Y47525D01*
X278400Y47435D01*
X278495Y47342D01*
X278586Y47246D01*
X278675Y47148D01*
X278761Y47047D01*
X278844Y46943D01*
X278924Y46837D01*
X279000Y46729D01*
X279074Y46619D01*
X279144Y46506D01*
X279211Y46392D01*
X279274Y46275D01*
X279334Y46157D01*
X279391Y46037D01*
X279444Y45915D01*
X279493Y45792D01*
X279539Y45668D01*
X279581Y45542D01*
X279619Y45415D01*
X279654Y45287D01*
X279685Y45158D01*
X279712Y45029D01*
X279735Y44898D01*
X279755Y44767D01*
X279770Y44635D01*
X279782Y44503D01*
X279790Y44371D01*
X279794Y44238D01*
X279794Y44106D01*
X279790Y43973D01*
X279782Y43841D01*
X279770Y43709D01*
X279755Y43577D01*
X279735Y43446D01*
X279712Y43315D01*
X279685Y43186D01*
X279654Y43057D01*
X279619Y42929D01*
X279581Y42802D01*
X279539Y42676D01*
X279493Y42552D01*
X279444Y42429D01*
X279391Y42307D01*
X279334Y42187D01*
X279274Y42069D01*
X279211Y41952D01*
X279144Y41838D01*
X279074Y41725D01*
X279000Y41615D01*
X278924Y41507D01*
X278844Y41401D01*
X278761Y41297D01*
X278675Y41196D01*
X278586Y41098D01*
X278495Y41002D01*
X278400Y40909D01*
X278303Y40819D01*
X278203Y40732D01*
X278101Y40647D01*
X277996Y40566D01*
X277889Y40488D01*
X277780Y40412D01*
X277669Y40341D01*
X277555Y40272D01*
X277440Y40207D01*
X277322Y40145D01*
X277203Y40087D01*
X277082Y40032D01*
X276960Y39981D01*
X276836Y39933D01*
X276711Y39889D01*
X276585Y39849D01*
X276457Y39813D01*
X276329Y39780D01*
X276200Y39751D01*
X276069Y39726D01*
X275939Y39705D01*
X275807Y39687D01*
X275675Y39674D01*
X275543Y39664D01*
X275411Y39658D01*
X275278Y39656D01*
X275278Y39657D02*
X270762Y39657D01*
X276181Y39657D02*
X279793Y32432D01*
X286163Y36044D02*
X286163Y39657D01*
X286165Y39776D01*
X286171Y39896D01*
X286181Y40015D01*
X286195Y40133D01*
X286212Y40252D01*
X286234Y40369D01*
X286259Y40486D01*
X286289Y40601D01*
X286322Y40716D01*
X286359Y40830D01*
X286399Y40942D01*
X286444Y41053D01*
X286492Y41162D01*
X286543Y41270D01*
X286598Y41376D01*
X286657Y41480D01*
X286719Y41582D01*
X286784Y41682D01*
X286853Y41780D01*
X286925Y41876D01*
X287000Y41969D01*
X287077Y42059D01*
X287158Y42147D01*
X287242Y42232D01*
X287329Y42314D01*
X287418Y42394D01*
X287510Y42470D01*
X287604Y42544D01*
X287701Y42614D01*
X287799Y42681D01*
X287900Y42745D01*
X288004Y42805D01*
X288109Y42862D01*
X288216Y42915D01*
X288324Y42965D01*
X288434Y43011D01*
X288546Y43053D01*
X288659Y43092D01*
X288773Y43127D01*
X288888Y43158D01*
X289005Y43186D01*
X289122Y43209D01*
X289239Y43229D01*
X289358Y43245D01*
X289477Y43257D01*
X289596Y43265D01*
X289715Y43269D01*
X289835Y43269D01*
X289954Y43265D01*
X290073Y43257D01*
X290192Y43245D01*
X290311Y43229D01*
X290428Y43209D01*
X290545Y43186D01*
X290662Y43158D01*
X290777Y43127D01*
X290891Y43092D01*
X291004Y43053D01*
X291116Y43011D01*
X291226Y42965D01*
X291334Y42915D01*
X291441Y42862D01*
X291546Y42805D01*
X291650Y42745D01*
X291751Y42681D01*
X291849Y42614D01*
X291946Y42544D01*
X292040Y42470D01*
X292132Y42394D01*
X292221Y42314D01*
X292308Y42232D01*
X292392Y42147D01*
X292473Y42059D01*
X292550Y41969D01*
X292625Y41876D01*
X292697Y41780D01*
X292766Y41682D01*
X292831Y41582D01*
X292893Y41480D01*
X292952Y41376D01*
X293007Y41270D01*
X293058Y41162D01*
X293106Y41053D01*
X293151Y40942D01*
X293191Y40830D01*
X293228Y40716D01*
X293261Y40601D01*
X293291Y40486D01*
X293316Y40369D01*
X293338Y40252D01*
X293355Y40133D01*
X293369Y40015D01*
X293379Y39896D01*
X293385Y39776D01*
X293387Y39657D01*
X293388Y39657D02*
X293388Y36044D01*
X293387Y36044D02*
X293385Y35925D01*
X293379Y35805D01*
X293369Y35686D01*
X293355Y35568D01*
X293338Y35449D01*
X293316Y35332D01*
X293291Y35215D01*
X293261Y35100D01*
X293228Y34985D01*
X293191Y34871D01*
X293151Y34759D01*
X293106Y34648D01*
X293058Y34539D01*
X293007Y34431D01*
X292952Y34325D01*
X292893Y34221D01*
X292831Y34119D01*
X292766Y34019D01*
X292697Y33921D01*
X292625Y33825D01*
X292550Y33732D01*
X292473Y33642D01*
X292392Y33554D01*
X292308Y33469D01*
X292221Y33387D01*
X292132Y33307D01*
X292040Y33231D01*
X291946Y33157D01*
X291849Y33087D01*
X291751Y33020D01*
X291650Y32956D01*
X291546Y32896D01*
X291441Y32839D01*
X291334Y32786D01*
X291226Y32736D01*
X291116Y32690D01*
X291004Y32648D01*
X290891Y32609D01*
X290777Y32574D01*
X290662Y32543D01*
X290545Y32515D01*
X290428Y32492D01*
X290311Y32472D01*
X290192Y32456D01*
X290073Y32444D01*
X289954Y32436D01*
X289835Y32432D01*
X289715Y32432D01*
X289596Y32436D01*
X289477Y32444D01*
X289358Y32456D01*
X289239Y32472D01*
X289122Y32492D01*
X289005Y32515D01*
X288888Y32543D01*
X288773Y32574D01*
X288659Y32609D01*
X288546Y32648D01*
X288434Y32690D01*
X288324Y32736D01*
X288216Y32786D01*
X288109Y32839D01*
X288004Y32896D01*
X287900Y32956D01*
X287799Y33020D01*
X287701Y33087D01*
X287604Y33157D01*
X287510Y33231D01*
X287418Y33307D01*
X287329Y33387D01*
X287242Y33469D01*
X287158Y33554D01*
X287077Y33642D01*
X287000Y33732D01*
X286925Y33825D01*
X286853Y33921D01*
X286784Y34019D01*
X286719Y34119D01*
X286657Y34221D01*
X286598Y34325D01*
X286543Y34431D01*
X286492Y34539D01*
X286444Y34648D01*
X286399Y34759D01*
X286359Y34871D01*
X286322Y34985D01*
X286289Y35100D01*
X286259Y35215D01*
X286234Y35332D01*
X286212Y35449D01*
X286195Y35568D01*
X286181Y35686D01*
X286171Y35805D01*
X286165Y35925D01*
X286163Y36044D01*
X302437Y32432D02*
X306049Y32432D01*
X302437Y32432D02*
X302336Y32434D01*
X302235Y32440D01*
X302134Y32449D01*
X302033Y32462D01*
X301933Y32479D01*
X301834Y32500D01*
X301736Y32524D01*
X301639Y32552D01*
X301542Y32584D01*
X301447Y32619D01*
X301354Y32658D01*
X301262Y32700D01*
X301171Y32746D01*
X301083Y32795D01*
X300996Y32847D01*
X300911Y32903D01*
X300828Y32961D01*
X300748Y33023D01*
X300670Y33088D01*
X300594Y33155D01*
X300521Y33225D01*
X300451Y33298D01*
X300384Y33374D01*
X300319Y33452D01*
X300257Y33532D01*
X300199Y33615D01*
X300143Y33700D01*
X300091Y33786D01*
X300042Y33875D01*
X299996Y33966D01*
X299954Y34058D01*
X299915Y34151D01*
X299880Y34246D01*
X299848Y34343D01*
X299820Y34440D01*
X299796Y34538D01*
X299775Y34637D01*
X299758Y34737D01*
X299745Y34838D01*
X299736Y34939D01*
X299730Y35040D01*
X299728Y35141D01*
X299727Y35141D02*
X299727Y40560D01*
X299728Y40560D02*
X299730Y40661D01*
X299736Y40762D01*
X299745Y40863D01*
X299758Y40964D01*
X299775Y41064D01*
X299796Y41163D01*
X299820Y41261D01*
X299848Y41358D01*
X299880Y41455D01*
X299915Y41550D01*
X299954Y41643D01*
X299996Y41735D01*
X300042Y41826D01*
X300091Y41915D01*
X300143Y42001D01*
X300199Y42086D01*
X300257Y42169D01*
X300319Y42249D01*
X300384Y42327D01*
X300451Y42403D01*
X300521Y42476D01*
X300594Y42546D01*
X300670Y42613D01*
X300748Y42678D01*
X300828Y42740D01*
X300911Y42798D01*
X300996Y42854D01*
X301083Y42906D01*
X301171Y42955D01*
X301262Y43001D01*
X301354Y43043D01*
X301447Y43082D01*
X301542Y43117D01*
X301639Y43149D01*
X301736Y43177D01*
X301834Y43201D01*
X301933Y43222D01*
X302033Y43239D01*
X302134Y43252D01*
X302235Y43261D01*
X302336Y43267D01*
X302437Y43269D01*
X306049Y43269D01*
X312384Y48688D02*
X312384Y32432D01*
X312384Y37851D02*
X319608Y43269D01*
X315544Y40108D02*
X319608Y32432D01*
X327950Y32432D02*
X332466Y32432D01*
X327950Y32432D02*
X327849Y32434D01*
X327748Y32440D01*
X327647Y32449D01*
X327546Y32462D01*
X327446Y32479D01*
X327347Y32500D01*
X327249Y32524D01*
X327152Y32552D01*
X327055Y32584D01*
X326960Y32619D01*
X326867Y32658D01*
X326775Y32700D01*
X326684Y32746D01*
X326596Y32795D01*
X326509Y32847D01*
X326424Y32903D01*
X326341Y32961D01*
X326261Y33023D01*
X326183Y33088D01*
X326107Y33155D01*
X326034Y33225D01*
X325964Y33298D01*
X325897Y33374D01*
X325832Y33452D01*
X325770Y33532D01*
X325712Y33615D01*
X325656Y33700D01*
X325604Y33786D01*
X325555Y33875D01*
X325509Y33966D01*
X325467Y34058D01*
X325428Y34151D01*
X325393Y34246D01*
X325361Y34343D01*
X325333Y34440D01*
X325309Y34538D01*
X325288Y34637D01*
X325271Y34737D01*
X325258Y34838D01*
X325249Y34939D01*
X325243Y35040D01*
X325241Y35141D01*
X325241Y39657D01*
X325243Y39776D01*
X325249Y39896D01*
X325259Y40015D01*
X325273Y40133D01*
X325290Y40252D01*
X325312Y40369D01*
X325337Y40486D01*
X325367Y40601D01*
X325400Y40716D01*
X325437Y40830D01*
X325477Y40942D01*
X325522Y41053D01*
X325570Y41162D01*
X325621Y41270D01*
X325676Y41376D01*
X325735Y41480D01*
X325797Y41582D01*
X325862Y41682D01*
X325931Y41780D01*
X326003Y41876D01*
X326078Y41969D01*
X326155Y42059D01*
X326236Y42147D01*
X326320Y42232D01*
X326407Y42314D01*
X326496Y42394D01*
X326588Y42470D01*
X326682Y42544D01*
X326779Y42614D01*
X326877Y42681D01*
X326978Y42745D01*
X327082Y42805D01*
X327187Y42862D01*
X327294Y42915D01*
X327402Y42965D01*
X327512Y43011D01*
X327624Y43053D01*
X327737Y43092D01*
X327851Y43127D01*
X327966Y43158D01*
X328083Y43186D01*
X328200Y43209D01*
X328317Y43229D01*
X328436Y43245D01*
X328555Y43257D01*
X328674Y43265D01*
X328793Y43269D01*
X328913Y43269D01*
X329032Y43265D01*
X329151Y43257D01*
X329270Y43245D01*
X329389Y43229D01*
X329506Y43209D01*
X329623Y43186D01*
X329740Y43158D01*
X329855Y43127D01*
X329969Y43092D01*
X330082Y43053D01*
X330194Y43011D01*
X330304Y42965D01*
X330412Y42915D01*
X330519Y42862D01*
X330624Y42805D01*
X330728Y42745D01*
X330829Y42681D01*
X330927Y42614D01*
X331024Y42544D01*
X331118Y42470D01*
X331210Y42394D01*
X331299Y42314D01*
X331386Y42232D01*
X331470Y42147D01*
X331551Y42059D01*
X331628Y41969D01*
X331703Y41876D01*
X331775Y41780D01*
X331844Y41682D01*
X331909Y41582D01*
X331971Y41480D01*
X332030Y41376D01*
X332085Y41270D01*
X332136Y41162D01*
X332184Y41053D01*
X332229Y40942D01*
X332269Y40830D01*
X332306Y40716D01*
X332339Y40601D01*
X332369Y40486D01*
X332394Y40369D01*
X332416Y40252D01*
X332433Y40133D01*
X332447Y40015D01*
X332457Y39896D01*
X332463Y39776D01*
X332465Y39657D01*
X332466Y39657D02*
X332466Y37851D01*
X325241Y37851D01*
X337491Y43269D02*
X342909Y43269D01*
X339297Y48688D02*
X339297Y35141D01*
X339299Y35040D01*
X339305Y34939D01*
X339314Y34838D01*
X339327Y34737D01*
X339344Y34637D01*
X339365Y34538D01*
X339389Y34440D01*
X339417Y34343D01*
X339449Y34246D01*
X339484Y34151D01*
X339523Y34058D01*
X339565Y33966D01*
X339611Y33875D01*
X339660Y33786D01*
X339712Y33700D01*
X339768Y33615D01*
X339826Y33532D01*
X339888Y33452D01*
X339953Y33374D01*
X340020Y33298D01*
X340090Y33225D01*
X340163Y33155D01*
X340239Y33088D01*
X340317Y33023D01*
X340397Y32961D01*
X340480Y32903D01*
X340565Y32847D01*
X340652Y32795D01*
X340740Y32746D01*
X340831Y32700D01*
X340923Y32658D01*
X341016Y32619D01*
X341111Y32584D01*
X341208Y32552D01*
X341305Y32524D01*
X341403Y32500D01*
X341502Y32479D01*
X341602Y32462D01*
X341703Y32449D01*
X341804Y32440D01*
X341905Y32434D01*
X342006Y32432D01*
X342909Y32432D01*
X277987Y5762D02*
X274374Y5762D01*
X274256Y5764D01*
X274138Y5770D01*
X274020Y5779D01*
X273903Y5793D01*
X273786Y5810D01*
X273669Y5831D01*
X273554Y5856D01*
X273439Y5885D01*
X273325Y5918D01*
X273213Y5954D01*
X273102Y5994D01*
X272992Y6037D01*
X272883Y6084D01*
X272776Y6134D01*
X272671Y6189D01*
X272568Y6246D01*
X272467Y6307D01*
X272367Y6371D01*
X272270Y6438D01*
X272175Y6508D01*
X272083Y6582D01*
X271992Y6658D01*
X271905Y6738D01*
X271820Y6820D01*
X271738Y6905D01*
X271658Y6992D01*
X271582Y7083D01*
X271508Y7175D01*
X271438Y7270D01*
X271371Y7367D01*
X271307Y7467D01*
X271246Y7568D01*
X271189Y7671D01*
X271134Y7776D01*
X271084Y7883D01*
X271037Y7992D01*
X270994Y8102D01*
X270954Y8213D01*
X270918Y8325D01*
X270885Y8439D01*
X270856Y8554D01*
X270831Y8669D01*
X270810Y8786D01*
X270793Y8903D01*
X270779Y9020D01*
X270770Y9138D01*
X270764Y9256D01*
X270762Y9374D01*
X270762Y18406D01*
X270764Y18524D01*
X270770Y18642D01*
X270779Y18760D01*
X270793Y18877D01*
X270810Y18994D01*
X270831Y19111D01*
X270856Y19226D01*
X270885Y19341D01*
X270918Y19455D01*
X270954Y19567D01*
X270994Y19678D01*
X271037Y19788D01*
X271084Y19897D01*
X271134Y20004D01*
X271188Y20109D01*
X271246Y20212D01*
X271307Y20313D01*
X271371Y20413D01*
X271438Y20510D01*
X271508Y20605D01*
X271582Y20697D01*
X271658Y20788D01*
X271738Y20875D01*
X271820Y20960D01*
X271905Y21042D01*
X271992Y21122D01*
X272083Y21198D01*
X272175Y21272D01*
X272270Y21342D01*
X272367Y21409D01*
X272467Y21473D01*
X272568Y21534D01*
X272671Y21591D01*
X272776Y21645D01*
X272883Y21696D01*
X272992Y21743D01*
X273102Y21786D01*
X273213Y21826D01*
X273325Y21862D01*
X273439Y21895D01*
X273554Y21924D01*
X273669Y21949D01*
X273786Y21970D01*
X273903Y21987D01*
X274020Y22001D01*
X274138Y22010D01*
X274256Y22016D01*
X274374Y22018D01*
X277987Y22018D01*
X283689Y12987D02*
X283689Y9374D01*
X283689Y12987D02*
X283691Y13106D01*
X283697Y13226D01*
X283707Y13345D01*
X283721Y13463D01*
X283738Y13582D01*
X283760Y13699D01*
X283785Y13816D01*
X283815Y13931D01*
X283848Y14046D01*
X283885Y14160D01*
X283925Y14272D01*
X283970Y14383D01*
X284018Y14492D01*
X284069Y14600D01*
X284124Y14706D01*
X284183Y14810D01*
X284245Y14912D01*
X284310Y15012D01*
X284379Y15110D01*
X284451Y15206D01*
X284526Y15299D01*
X284603Y15389D01*
X284684Y15477D01*
X284768Y15562D01*
X284855Y15644D01*
X284944Y15724D01*
X285036Y15800D01*
X285130Y15874D01*
X285227Y15944D01*
X285325Y16011D01*
X285426Y16075D01*
X285530Y16135D01*
X285635Y16192D01*
X285742Y16245D01*
X285850Y16295D01*
X285960Y16341D01*
X286072Y16383D01*
X286185Y16422D01*
X286299Y16457D01*
X286414Y16488D01*
X286531Y16516D01*
X286648Y16539D01*
X286765Y16559D01*
X286884Y16575D01*
X287003Y16587D01*
X287122Y16595D01*
X287241Y16599D01*
X287361Y16599D01*
X287480Y16595D01*
X287599Y16587D01*
X287718Y16575D01*
X287837Y16559D01*
X287954Y16539D01*
X288071Y16516D01*
X288188Y16488D01*
X288303Y16457D01*
X288417Y16422D01*
X288530Y16383D01*
X288642Y16341D01*
X288752Y16295D01*
X288860Y16245D01*
X288967Y16192D01*
X289072Y16135D01*
X289176Y16075D01*
X289277Y16011D01*
X289375Y15944D01*
X289472Y15874D01*
X289566Y15800D01*
X289658Y15724D01*
X289747Y15644D01*
X289834Y15562D01*
X289918Y15477D01*
X289999Y15389D01*
X290076Y15299D01*
X290151Y15206D01*
X290223Y15110D01*
X290292Y15012D01*
X290357Y14912D01*
X290419Y14810D01*
X290478Y14706D01*
X290533Y14600D01*
X290584Y14492D01*
X290632Y14383D01*
X290677Y14272D01*
X290717Y14160D01*
X290754Y14046D01*
X290787Y13931D01*
X290817Y13816D01*
X290842Y13699D01*
X290864Y13582D01*
X290881Y13463D01*
X290895Y13345D01*
X290905Y13226D01*
X290911Y13106D01*
X290913Y12987D01*
X290913Y9374D01*
X290911Y9255D01*
X290905Y9135D01*
X290895Y9016D01*
X290881Y8898D01*
X290864Y8779D01*
X290842Y8662D01*
X290817Y8545D01*
X290787Y8430D01*
X290754Y8315D01*
X290717Y8201D01*
X290677Y8089D01*
X290632Y7978D01*
X290584Y7869D01*
X290533Y7761D01*
X290478Y7655D01*
X290419Y7551D01*
X290357Y7449D01*
X290292Y7349D01*
X290223Y7251D01*
X290151Y7155D01*
X290076Y7062D01*
X289999Y6972D01*
X289918Y6884D01*
X289834Y6799D01*
X289747Y6717D01*
X289658Y6637D01*
X289566Y6561D01*
X289472Y6487D01*
X289375Y6417D01*
X289277Y6350D01*
X289176Y6286D01*
X289072Y6226D01*
X288967Y6169D01*
X288860Y6116D01*
X288752Y6066D01*
X288642Y6020D01*
X288530Y5978D01*
X288417Y5939D01*
X288303Y5904D01*
X288188Y5873D01*
X288071Y5845D01*
X287954Y5822D01*
X287837Y5802D01*
X287718Y5786D01*
X287599Y5774D01*
X287480Y5766D01*
X287361Y5762D01*
X287241Y5762D01*
X287122Y5766D01*
X287003Y5774D01*
X286884Y5786D01*
X286765Y5802D01*
X286648Y5822D01*
X286531Y5845D01*
X286414Y5873D01*
X286299Y5904D01*
X286185Y5939D01*
X286072Y5978D01*
X285960Y6020D01*
X285850Y6066D01*
X285742Y6116D01*
X285635Y6169D01*
X285530Y6226D01*
X285426Y6286D01*
X285325Y6350D01*
X285227Y6417D01*
X285130Y6487D01*
X285036Y6561D01*
X284944Y6637D01*
X284855Y6717D01*
X284768Y6799D01*
X284684Y6884D01*
X284603Y6972D01*
X284526Y7062D01*
X284451Y7155D01*
X284379Y7251D01*
X284310Y7349D01*
X284245Y7449D01*
X284183Y7551D01*
X284124Y7655D01*
X284069Y7761D01*
X284018Y7869D01*
X283970Y7978D01*
X283925Y8089D01*
X283885Y8201D01*
X283848Y8315D01*
X283815Y8430D01*
X283785Y8545D01*
X283760Y8662D01*
X283738Y8779D01*
X283721Y8898D01*
X283707Y9016D01*
X283697Y9135D01*
X283691Y9255D01*
X283689Y9374D01*
X297757Y5762D02*
X297757Y16599D01*
X302272Y16599D01*
X302376Y16597D01*
X302479Y16591D01*
X302583Y16581D01*
X302686Y16567D01*
X302788Y16549D01*
X302889Y16528D01*
X302990Y16502D01*
X303089Y16473D01*
X303188Y16440D01*
X303285Y16403D01*
X303380Y16362D01*
X303474Y16318D01*
X303566Y16270D01*
X303656Y16219D01*
X303745Y16164D01*
X303831Y16106D01*
X303914Y16044D01*
X303996Y15980D01*
X304074Y15912D01*
X304150Y15842D01*
X304224Y15769D01*
X304294Y15692D01*
X304362Y15614D01*
X304426Y15532D01*
X304488Y15449D01*
X304546Y15363D01*
X304601Y15274D01*
X304652Y15184D01*
X304700Y15092D01*
X304744Y14998D01*
X304785Y14903D01*
X304822Y14806D01*
X304855Y14707D01*
X304884Y14608D01*
X304910Y14507D01*
X304931Y14406D01*
X304949Y14304D01*
X304963Y14201D01*
X304973Y14097D01*
X304979Y13994D01*
X304981Y13890D01*
X304982Y13890D02*
X304982Y5762D01*
X310527Y16599D02*
X315946Y16599D01*
X312334Y22018D02*
X312334Y8471D01*
X312336Y8370D01*
X312342Y8269D01*
X312351Y8168D01*
X312364Y8067D01*
X312381Y7967D01*
X312402Y7868D01*
X312426Y7770D01*
X312454Y7673D01*
X312486Y7576D01*
X312521Y7481D01*
X312560Y7388D01*
X312602Y7296D01*
X312648Y7205D01*
X312697Y7116D01*
X312749Y7030D01*
X312805Y6945D01*
X312863Y6862D01*
X312925Y6782D01*
X312990Y6704D01*
X313057Y6628D01*
X313127Y6555D01*
X313200Y6485D01*
X313276Y6418D01*
X313354Y6353D01*
X313434Y6291D01*
X313517Y6233D01*
X313602Y6177D01*
X313689Y6125D01*
X313777Y6076D01*
X313868Y6030D01*
X313960Y5988D01*
X314053Y5949D01*
X314148Y5914D01*
X314245Y5882D01*
X314342Y5854D01*
X314440Y5830D01*
X314539Y5809D01*
X314639Y5792D01*
X314740Y5779D01*
X314841Y5770D01*
X314942Y5764D01*
X315043Y5762D01*
X315946Y5762D01*
X322330Y5762D02*
X322330Y16599D01*
X327749Y16599D01*
X327749Y14793D01*
X332666Y12987D02*
X332666Y9374D01*
X332667Y12987D02*
X332669Y13106D01*
X332675Y13226D01*
X332685Y13345D01*
X332699Y13463D01*
X332716Y13582D01*
X332738Y13699D01*
X332763Y13816D01*
X332793Y13931D01*
X332826Y14046D01*
X332863Y14160D01*
X332903Y14272D01*
X332948Y14383D01*
X332996Y14492D01*
X333047Y14600D01*
X333102Y14706D01*
X333161Y14810D01*
X333223Y14912D01*
X333288Y15012D01*
X333357Y15110D01*
X333429Y15206D01*
X333504Y15299D01*
X333581Y15389D01*
X333662Y15477D01*
X333746Y15562D01*
X333833Y15644D01*
X333922Y15724D01*
X334014Y15800D01*
X334108Y15874D01*
X334205Y15944D01*
X334303Y16011D01*
X334404Y16075D01*
X334508Y16135D01*
X334613Y16192D01*
X334720Y16245D01*
X334828Y16295D01*
X334938Y16341D01*
X335050Y16383D01*
X335163Y16422D01*
X335277Y16457D01*
X335392Y16488D01*
X335509Y16516D01*
X335626Y16539D01*
X335743Y16559D01*
X335862Y16575D01*
X335981Y16587D01*
X336100Y16595D01*
X336219Y16599D01*
X336339Y16599D01*
X336458Y16595D01*
X336577Y16587D01*
X336696Y16575D01*
X336815Y16559D01*
X336932Y16539D01*
X337049Y16516D01*
X337166Y16488D01*
X337281Y16457D01*
X337395Y16422D01*
X337508Y16383D01*
X337620Y16341D01*
X337730Y16295D01*
X337838Y16245D01*
X337945Y16192D01*
X338050Y16135D01*
X338154Y16075D01*
X338255Y16011D01*
X338353Y15944D01*
X338450Y15874D01*
X338544Y15800D01*
X338636Y15724D01*
X338725Y15644D01*
X338812Y15562D01*
X338896Y15477D01*
X338977Y15389D01*
X339054Y15299D01*
X339129Y15206D01*
X339201Y15110D01*
X339270Y15012D01*
X339335Y14912D01*
X339397Y14810D01*
X339456Y14706D01*
X339511Y14600D01*
X339562Y14492D01*
X339610Y14383D01*
X339655Y14272D01*
X339695Y14160D01*
X339732Y14046D01*
X339765Y13931D01*
X339795Y13816D01*
X339820Y13699D01*
X339842Y13582D01*
X339859Y13463D01*
X339873Y13345D01*
X339883Y13226D01*
X339889Y13106D01*
X339891Y12987D01*
X339891Y9374D01*
X339889Y9255D01*
X339883Y9135D01*
X339873Y9016D01*
X339859Y8898D01*
X339842Y8779D01*
X339820Y8662D01*
X339795Y8545D01*
X339765Y8430D01*
X339732Y8315D01*
X339695Y8201D01*
X339655Y8089D01*
X339610Y7978D01*
X339562Y7869D01*
X339511Y7761D01*
X339456Y7655D01*
X339397Y7551D01*
X339335Y7449D01*
X339270Y7349D01*
X339201Y7251D01*
X339129Y7155D01*
X339054Y7062D01*
X338977Y6972D01*
X338896Y6884D01*
X338812Y6799D01*
X338725Y6717D01*
X338636Y6637D01*
X338544Y6561D01*
X338450Y6487D01*
X338353Y6417D01*
X338255Y6350D01*
X338154Y6286D01*
X338050Y6226D01*
X337945Y6169D01*
X337838Y6116D01*
X337730Y6066D01*
X337620Y6020D01*
X337508Y5978D01*
X337395Y5939D01*
X337281Y5904D01*
X337166Y5873D01*
X337049Y5845D01*
X336932Y5822D01*
X336815Y5802D01*
X336696Y5786D01*
X336577Y5774D01*
X336458Y5766D01*
X336339Y5762D01*
X336219Y5762D01*
X336100Y5766D01*
X335981Y5774D01*
X335862Y5786D01*
X335743Y5802D01*
X335626Y5822D01*
X335509Y5845D01*
X335392Y5873D01*
X335277Y5904D01*
X335163Y5939D01*
X335050Y5978D01*
X334938Y6020D01*
X334828Y6066D01*
X334720Y6116D01*
X334613Y6169D01*
X334508Y6226D01*
X334404Y6286D01*
X334303Y6350D01*
X334205Y6417D01*
X334108Y6487D01*
X334014Y6561D01*
X333922Y6637D01*
X333833Y6717D01*
X333746Y6799D01*
X333662Y6884D01*
X333581Y6972D01*
X333504Y7062D01*
X333429Y7155D01*
X333357Y7251D01*
X333288Y7349D01*
X333223Y7449D01*
X333161Y7551D01*
X333102Y7655D01*
X333047Y7761D01*
X332996Y7869D01*
X332948Y7978D01*
X332903Y8089D01*
X332863Y8201D01*
X332826Y8315D01*
X332793Y8430D01*
X332763Y8545D01*
X332738Y8662D01*
X332716Y8779D01*
X332699Y8898D01*
X332685Y9016D01*
X332675Y9135D01*
X332669Y9255D01*
X332667Y9374D01*
X346450Y8471D02*
X346450Y22018D01*
X346451Y8471D02*
X346453Y8370D01*
X346459Y8269D01*
X346468Y8168D01*
X346481Y8067D01*
X346498Y7967D01*
X346519Y7868D01*
X346543Y7770D01*
X346571Y7673D01*
X346603Y7576D01*
X346638Y7481D01*
X346677Y7388D01*
X346719Y7296D01*
X346765Y7205D01*
X346814Y7116D01*
X346866Y7030D01*
X346922Y6945D01*
X346980Y6862D01*
X347042Y6782D01*
X347107Y6704D01*
X347174Y6628D01*
X347244Y6555D01*
X347317Y6485D01*
X347393Y6418D01*
X347471Y6353D01*
X347551Y6291D01*
X347634Y6233D01*
X347719Y6177D01*
X347806Y6125D01*
X347894Y6076D01*
X347985Y6030D01*
X348077Y5988D01*
X348170Y5949D01*
X348265Y5914D01*
X348362Y5882D01*
X348459Y5854D01*
X348557Y5830D01*
X348656Y5809D01*
X348756Y5792D01*
X348857Y5779D01*
X348958Y5770D01*
X349059Y5764D01*
X349160Y5762D01*
X354787Y8471D02*
X354787Y22018D01*
X354787Y8471D02*
X354789Y8370D01*
X354795Y8269D01*
X354804Y8168D01*
X354817Y8067D01*
X354834Y7967D01*
X354855Y7868D01*
X354879Y7770D01*
X354907Y7673D01*
X354939Y7576D01*
X354974Y7481D01*
X355013Y7388D01*
X355055Y7296D01*
X355101Y7205D01*
X355150Y7116D01*
X355202Y7030D01*
X355258Y6945D01*
X355316Y6862D01*
X355378Y6782D01*
X355443Y6704D01*
X355510Y6628D01*
X355580Y6555D01*
X355653Y6485D01*
X355729Y6418D01*
X355807Y6353D01*
X355887Y6291D01*
X355970Y6233D01*
X356055Y6177D01*
X356142Y6125D01*
X356230Y6076D01*
X356321Y6030D01*
X356413Y5988D01*
X356506Y5949D01*
X356601Y5914D01*
X356698Y5882D01*
X356795Y5854D01*
X356893Y5830D01*
X356992Y5809D01*
X357092Y5792D01*
X357193Y5779D01*
X357294Y5770D01*
X357395Y5764D01*
X357496Y5762D01*
X365596Y5762D02*
X370112Y5762D01*
X365596Y5762D02*
X365495Y5764D01*
X365394Y5770D01*
X365293Y5779D01*
X365192Y5792D01*
X365092Y5809D01*
X364993Y5830D01*
X364895Y5854D01*
X364798Y5882D01*
X364701Y5914D01*
X364606Y5949D01*
X364513Y5988D01*
X364421Y6030D01*
X364330Y6076D01*
X364242Y6125D01*
X364155Y6177D01*
X364070Y6233D01*
X363987Y6291D01*
X363907Y6353D01*
X363829Y6418D01*
X363753Y6485D01*
X363680Y6555D01*
X363610Y6628D01*
X363543Y6704D01*
X363478Y6782D01*
X363416Y6862D01*
X363358Y6945D01*
X363302Y7030D01*
X363250Y7116D01*
X363201Y7205D01*
X363155Y7296D01*
X363113Y7388D01*
X363074Y7481D01*
X363039Y7576D01*
X363007Y7673D01*
X362979Y7770D01*
X362955Y7868D01*
X362934Y7967D01*
X362917Y8067D01*
X362904Y8168D01*
X362895Y8269D01*
X362889Y8370D01*
X362887Y8471D01*
X362887Y12987D01*
X362889Y13106D01*
X362895Y13226D01*
X362905Y13345D01*
X362919Y13463D01*
X362936Y13582D01*
X362958Y13699D01*
X362983Y13816D01*
X363013Y13931D01*
X363046Y14046D01*
X363083Y14160D01*
X363123Y14272D01*
X363168Y14383D01*
X363216Y14492D01*
X363267Y14600D01*
X363322Y14706D01*
X363381Y14810D01*
X363443Y14912D01*
X363508Y15012D01*
X363577Y15110D01*
X363649Y15206D01*
X363724Y15299D01*
X363801Y15389D01*
X363882Y15477D01*
X363966Y15562D01*
X364053Y15644D01*
X364142Y15724D01*
X364234Y15800D01*
X364328Y15874D01*
X364425Y15944D01*
X364523Y16011D01*
X364624Y16075D01*
X364728Y16135D01*
X364833Y16192D01*
X364940Y16245D01*
X365048Y16295D01*
X365158Y16341D01*
X365270Y16383D01*
X365383Y16422D01*
X365497Y16457D01*
X365612Y16488D01*
X365729Y16516D01*
X365846Y16539D01*
X365963Y16559D01*
X366082Y16575D01*
X366201Y16587D01*
X366320Y16595D01*
X366439Y16599D01*
X366559Y16599D01*
X366678Y16595D01*
X366797Y16587D01*
X366916Y16575D01*
X367035Y16559D01*
X367152Y16539D01*
X367269Y16516D01*
X367386Y16488D01*
X367501Y16457D01*
X367615Y16422D01*
X367728Y16383D01*
X367840Y16341D01*
X367950Y16295D01*
X368058Y16245D01*
X368165Y16192D01*
X368270Y16135D01*
X368374Y16075D01*
X368475Y16011D01*
X368573Y15944D01*
X368670Y15874D01*
X368764Y15800D01*
X368856Y15724D01*
X368945Y15644D01*
X369032Y15562D01*
X369116Y15477D01*
X369197Y15389D01*
X369274Y15299D01*
X369349Y15206D01*
X369421Y15110D01*
X369490Y15012D01*
X369555Y14912D01*
X369617Y14810D01*
X369676Y14706D01*
X369731Y14600D01*
X369782Y14492D01*
X369830Y14383D01*
X369875Y14272D01*
X369915Y14160D01*
X369952Y14046D01*
X369985Y13931D01*
X370015Y13816D01*
X370040Y13699D01*
X370062Y13582D01*
X370079Y13463D01*
X370093Y13345D01*
X370103Y13226D01*
X370109Y13106D01*
X370111Y12987D01*
X370112Y12987D02*
X370112Y11181D01*
X362887Y11181D01*
X377040Y5762D02*
X377040Y16599D01*
X382458Y16599D01*
X382458Y14793D01*
X175762Y32432D02*
X175762Y48688D01*
X180278Y48688D01*
X180409Y48686D01*
X180541Y48680D01*
X180672Y48671D01*
X180802Y48657D01*
X180933Y48640D01*
X181062Y48619D01*
X181191Y48595D01*
X181319Y48566D01*
X181447Y48534D01*
X181573Y48498D01*
X181698Y48459D01*
X181823Y48416D01*
X181945Y48369D01*
X182067Y48319D01*
X182187Y48265D01*
X182305Y48208D01*
X182421Y48147D01*
X182536Y48083D01*
X182649Y48016D01*
X182760Y47945D01*
X182868Y47871D01*
X182975Y47794D01*
X183079Y47714D01*
X183181Y47631D01*
X183280Y47546D01*
X183377Y47457D01*
X183471Y47365D01*
X183563Y47271D01*
X183652Y47174D01*
X183737Y47075D01*
X183820Y46973D01*
X183900Y46869D01*
X183977Y46762D01*
X184051Y46654D01*
X184122Y46543D01*
X184189Y46430D01*
X184253Y46315D01*
X184314Y46199D01*
X184371Y46081D01*
X184425Y45961D01*
X184475Y45839D01*
X184522Y45717D01*
X184565Y45592D01*
X184604Y45467D01*
X184640Y45341D01*
X184672Y45213D01*
X184701Y45085D01*
X184725Y44956D01*
X184746Y44827D01*
X184763Y44696D01*
X184777Y44566D01*
X184786Y44435D01*
X184792Y44303D01*
X184794Y44172D01*
X184793Y44172D02*
X184793Y36948D01*
X184794Y36948D02*
X184792Y36817D01*
X184786Y36685D01*
X184777Y36554D01*
X184763Y36424D01*
X184746Y36293D01*
X184725Y36164D01*
X184701Y36035D01*
X184672Y35907D01*
X184640Y35779D01*
X184604Y35653D01*
X184565Y35528D01*
X184522Y35403D01*
X184475Y35281D01*
X184425Y35159D01*
X184371Y35039D01*
X184314Y34921D01*
X184253Y34805D01*
X184189Y34690D01*
X184122Y34577D01*
X184051Y34466D01*
X183977Y34358D01*
X183900Y34251D01*
X183820Y34147D01*
X183737Y34045D01*
X183652Y33946D01*
X183563Y33849D01*
X183471Y33755D01*
X183377Y33663D01*
X183280Y33574D01*
X183181Y33489D01*
X183079Y33406D01*
X182975Y33326D01*
X182868Y33249D01*
X182760Y33175D01*
X182649Y33104D01*
X182536Y33037D01*
X182421Y32973D01*
X182305Y32912D01*
X182187Y32855D01*
X182067Y32801D01*
X181945Y32751D01*
X181823Y32704D01*
X181698Y32661D01*
X181573Y32622D01*
X181447Y32586D01*
X181319Y32554D01*
X181191Y32525D01*
X181062Y32501D01*
X180932Y32480D01*
X180802Y32463D01*
X180672Y32449D01*
X180541Y32440D01*
X180409Y32434D01*
X180278Y32432D01*
X175762Y32432D01*
X194863Y38754D02*
X198927Y38754D01*
X194863Y38754D02*
X194751Y38752D01*
X194640Y38746D01*
X194529Y38736D01*
X194418Y38723D01*
X194308Y38705D01*
X194199Y38683D01*
X194090Y38658D01*
X193982Y38629D01*
X193876Y38596D01*
X193770Y38559D01*
X193666Y38519D01*
X193564Y38475D01*
X193463Y38427D01*
X193364Y38376D01*
X193266Y38321D01*
X193171Y38263D01*
X193078Y38202D01*
X192987Y38137D01*
X192898Y38069D01*
X192812Y37998D01*
X192729Y37925D01*
X192648Y37848D01*
X192569Y37768D01*
X192494Y37686D01*
X192422Y37601D01*
X192352Y37514D01*
X192286Y37424D01*
X192223Y37332D01*
X192163Y37237D01*
X192107Y37141D01*
X192054Y37043D01*
X192005Y36943D01*
X191959Y36841D01*
X191917Y36738D01*
X191878Y36633D01*
X191843Y36527D01*
X191812Y36420D01*
X191785Y36312D01*
X191761Y36203D01*
X191742Y36093D01*
X191726Y35983D01*
X191714Y35872D01*
X191706Y35760D01*
X191702Y35649D01*
X191702Y35537D01*
X191706Y35426D01*
X191714Y35314D01*
X191726Y35203D01*
X191742Y35093D01*
X191761Y34983D01*
X191785Y34874D01*
X191812Y34766D01*
X191843Y34659D01*
X191878Y34553D01*
X191917Y34448D01*
X191959Y34345D01*
X192005Y34243D01*
X192054Y34143D01*
X192107Y34045D01*
X192163Y33949D01*
X192223Y33854D01*
X192286Y33762D01*
X192352Y33672D01*
X192422Y33585D01*
X192494Y33500D01*
X192569Y33418D01*
X192648Y33338D01*
X192729Y33261D01*
X192812Y33188D01*
X192898Y33117D01*
X192987Y33049D01*
X193078Y32984D01*
X193171Y32923D01*
X193266Y32865D01*
X193364Y32810D01*
X193463Y32759D01*
X193564Y32711D01*
X193666Y32667D01*
X193770Y32627D01*
X193876Y32590D01*
X193982Y32557D01*
X194090Y32528D01*
X194199Y32503D01*
X194308Y32481D01*
X194418Y32463D01*
X194529Y32450D01*
X194640Y32440D01*
X194751Y32434D01*
X194863Y32432D01*
X198927Y32432D01*
X198927Y40560D01*
X198925Y40661D01*
X198919Y40762D01*
X198910Y40863D01*
X198897Y40964D01*
X198880Y41064D01*
X198859Y41163D01*
X198835Y41261D01*
X198807Y41358D01*
X198775Y41455D01*
X198740Y41550D01*
X198701Y41643D01*
X198659Y41735D01*
X198613Y41826D01*
X198564Y41915D01*
X198512Y42001D01*
X198456Y42086D01*
X198398Y42169D01*
X198336Y42249D01*
X198271Y42327D01*
X198204Y42403D01*
X198134Y42476D01*
X198061Y42546D01*
X197985Y42613D01*
X197907Y42678D01*
X197827Y42740D01*
X197744Y42798D01*
X197659Y42854D01*
X197573Y42906D01*
X197484Y42955D01*
X197393Y43001D01*
X197301Y43043D01*
X197208Y43082D01*
X197113Y43117D01*
X197016Y43149D01*
X196919Y43177D01*
X196821Y43201D01*
X196722Y43222D01*
X196622Y43239D01*
X196521Y43252D01*
X196420Y43261D01*
X196319Y43267D01*
X196218Y43269D01*
X192605Y43269D01*
X204546Y43269D02*
X209965Y43269D01*
X206352Y48688D02*
X206352Y35141D01*
X206353Y35141D02*
X206355Y35040D01*
X206361Y34939D01*
X206370Y34838D01*
X206383Y34737D01*
X206400Y34637D01*
X206421Y34538D01*
X206445Y34440D01*
X206473Y34343D01*
X206505Y34246D01*
X206540Y34151D01*
X206579Y34058D01*
X206621Y33966D01*
X206667Y33875D01*
X206716Y33786D01*
X206768Y33700D01*
X206824Y33615D01*
X206882Y33532D01*
X206944Y33452D01*
X207009Y33374D01*
X207076Y33298D01*
X207146Y33225D01*
X207219Y33155D01*
X207295Y33088D01*
X207373Y33023D01*
X207453Y32961D01*
X207536Y32903D01*
X207621Y32847D01*
X207708Y32795D01*
X207796Y32746D01*
X207887Y32700D01*
X207979Y32658D01*
X208072Y32619D01*
X208167Y32584D01*
X208264Y32552D01*
X208361Y32524D01*
X208459Y32500D01*
X208558Y32479D01*
X208658Y32462D01*
X208759Y32449D01*
X208860Y32440D01*
X208961Y32434D01*
X209062Y32432D01*
X209965Y32432D01*
X218831Y38754D02*
X222895Y38754D01*
X218831Y38754D02*
X218719Y38752D01*
X218608Y38746D01*
X218497Y38736D01*
X218386Y38723D01*
X218276Y38705D01*
X218167Y38683D01*
X218058Y38658D01*
X217950Y38629D01*
X217844Y38596D01*
X217738Y38559D01*
X217634Y38519D01*
X217532Y38475D01*
X217431Y38427D01*
X217332Y38376D01*
X217234Y38321D01*
X217139Y38263D01*
X217046Y38202D01*
X216955Y38137D01*
X216866Y38069D01*
X216780Y37998D01*
X216697Y37925D01*
X216616Y37848D01*
X216537Y37768D01*
X216462Y37686D01*
X216390Y37601D01*
X216320Y37514D01*
X216254Y37424D01*
X216191Y37332D01*
X216131Y37237D01*
X216075Y37141D01*
X216022Y37043D01*
X215973Y36943D01*
X215927Y36841D01*
X215885Y36738D01*
X215846Y36633D01*
X215811Y36527D01*
X215780Y36420D01*
X215753Y36312D01*
X215729Y36203D01*
X215710Y36093D01*
X215694Y35983D01*
X215682Y35872D01*
X215674Y35760D01*
X215670Y35649D01*
X215670Y35537D01*
X215674Y35426D01*
X215682Y35314D01*
X215694Y35203D01*
X215710Y35093D01*
X215729Y34983D01*
X215753Y34874D01*
X215780Y34766D01*
X215811Y34659D01*
X215846Y34553D01*
X215885Y34448D01*
X215927Y34345D01*
X215973Y34243D01*
X216022Y34143D01*
X216075Y34045D01*
X216131Y33949D01*
X216191Y33854D01*
X216254Y33762D01*
X216320Y33672D01*
X216390Y33585D01*
X216462Y33500D01*
X216537Y33418D01*
X216616Y33338D01*
X216697Y33261D01*
X216780Y33188D01*
X216866Y33117D01*
X216955Y33049D01*
X217046Y32984D01*
X217139Y32923D01*
X217234Y32865D01*
X217332Y32810D01*
X217431Y32759D01*
X217532Y32711D01*
X217634Y32667D01*
X217738Y32627D01*
X217844Y32590D01*
X217950Y32557D01*
X218058Y32528D01*
X218167Y32503D01*
X218276Y32481D01*
X218386Y32463D01*
X218497Y32450D01*
X218608Y32440D01*
X218719Y32434D01*
X218831Y32432D01*
X222895Y32432D01*
X222895Y40560D01*
X222894Y40560D02*
X222892Y40661D01*
X222886Y40762D01*
X222877Y40863D01*
X222864Y40964D01*
X222847Y41064D01*
X222826Y41163D01*
X222802Y41261D01*
X222774Y41358D01*
X222742Y41455D01*
X222707Y41550D01*
X222668Y41643D01*
X222626Y41735D01*
X222580Y41826D01*
X222531Y41915D01*
X222479Y42001D01*
X222423Y42086D01*
X222365Y42169D01*
X222303Y42249D01*
X222238Y42327D01*
X222171Y42403D01*
X222101Y42476D01*
X222028Y42546D01*
X221952Y42613D01*
X221874Y42678D01*
X221794Y42740D01*
X221711Y42798D01*
X221626Y42854D01*
X221540Y42906D01*
X221451Y42955D01*
X221360Y43001D01*
X221268Y43043D01*
X221175Y43082D01*
X221080Y43117D01*
X220983Y43149D01*
X220886Y43177D01*
X220788Y43201D01*
X220689Y43222D01*
X220589Y43239D01*
X220488Y43252D01*
X220387Y43261D01*
X220286Y43267D01*
X220185Y43269D01*
X216573Y43269D01*
X175762Y22018D02*
X175762Y5762D01*
X182987Y5762D01*
X188619Y9374D02*
X188619Y12987D01*
X188620Y12987D02*
X188622Y13106D01*
X188628Y13226D01*
X188638Y13345D01*
X188652Y13463D01*
X188669Y13582D01*
X188691Y13699D01*
X188716Y13816D01*
X188746Y13931D01*
X188779Y14046D01*
X188816Y14160D01*
X188856Y14272D01*
X188901Y14383D01*
X188949Y14492D01*
X189000Y14600D01*
X189055Y14706D01*
X189114Y14810D01*
X189176Y14912D01*
X189241Y15012D01*
X189310Y15110D01*
X189382Y15206D01*
X189457Y15299D01*
X189534Y15389D01*
X189615Y15477D01*
X189699Y15562D01*
X189786Y15644D01*
X189875Y15724D01*
X189967Y15800D01*
X190061Y15874D01*
X190158Y15944D01*
X190256Y16011D01*
X190357Y16075D01*
X190461Y16135D01*
X190566Y16192D01*
X190673Y16245D01*
X190781Y16295D01*
X190891Y16341D01*
X191003Y16383D01*
X191116Y16422D01*
X191230Y16457D01*
X191345Y16488D01*
X191462Y16516D01*
X191579Y16539D01*
X191696Y16559D01*
X191815Y16575D01*
X191934Y16587D01*
X192053Y16595D01*
X192172Y16599D01*
X192292Y16599D01*
X192411Y16595D01*
X192530Y16587D01*
X192649Y16575D01*
X192768Y16559D01*
X192885Y16539D01*
X193002Y16516D01*
X193119Y16488D01*
X193234Y16457D01*
X193348Y16422D01*
X193461Y16383D01*
X193573Y16341D01*
X193683Y16295D01*
X193791Y16245D01*
X193898Y16192D01*
X194003Y16135D01*
X194107Y16075D01*
X194208Y16011D01*
X194306Y15944D01*
X194403Y15874D01*
X194497Y15800D01*
X194589Y15724D01*
X194678Y15644D01*
X194765Y15562D01*
X194849Y15477D01*
X194930Y15389D01*
X195007Y15299D01*
X195082Y15206D01*
X195154Y15110D01*
X195223Y15012D01*
X195288Y14912D01*
X195350Y14810D01*
X195409Y14706D01*
X195464Y14600D01*
X195515Y14492D01*
X195563Y14383D01*
X195608Y14272D01*
X195648Y14160D01*
X195685Y14046D01*
X195718Y13931D01*
X195748Y13816D01*
X195773Y13699D01*
X195795Y13582D01*
X195812Y13463D01*
X195826Y13345D01*
X195836Y13226D01*
X195842Y13106D01*
X195844Y12987D01*
X195844Y9374D01*
X195842Y9255D01*
X195836Y9135D01*
X195826Y9016D01*
X195812Y8898D01*
X195795Y8779D01*
X195773Y8662D01*
X195748Y8545D01*
X195718Y8430D01*
X195685Y8315D01*
X195648Y8201D01*
X195608Y8089D01*
X195563Y7978D01*
X195515Y7869D01*
X195464Y7761D01*
X195409Y7655D01*
X195350Y7551D01*
X195288Y7449D01*
X195223Y7349D01*
X195154Y7251D01*
X195082Y7155D01*
X195007Y7062D01*
X194930Y6972D01*
X194849Y6884D01*
X194765Y6799D01*
X194678Y6717D01*
X194589Y6637D01*
X194497Y6561D01*
X194403Y6487D01*
X194306Y6417D01*
X194208Y6350D01*
X194107Y6286D01*
X194003Y6226D01*
X193898Y6169D01*
X193791Y6116D01*
X193683Y6066D01*
X193573Y6020D01*
X193461Y5978D01*
X193348Y5939D01*
X193234Y5904D01*
X193119Y5873D01*
X193002Y5845D01*
X192885Y5822D01*
X192768Y5802D01*
X192649Y5786D01*
X192530Y5774D01*
X192411Y5766D01*
X192292Y5762D01*
X192172Y5762D01*
X192053Y5766D01*
X191934Y5774D01*
X191815Y5786D01*
X191696Y5802D01*
X191579Y5822D01*
X191462Y5845D01*
X191345Y5873D01*
X191230Y5904D01*
X191116Y5939D01*
X191003Y5978D01*
X190891Y6020D01*
X190781Y6066D01*
X190673Y6116D01*
X190566Y6169D01*
X190461Y6226D01*
X190357Y6286D01*
X190256Y6350D01*
X190158Y6417D01*
X190061Y6487D01*
X189967Y6561D01*
X189875Y6637D01*
X189786Y6717D01*
X189699Y6799D01*
X189615Y6884D01*
X189534Y6972D01*
X189457Y7062D01*
X189382Y7155D01*
X189310Y7251D01*
X189241Y7349D01*
X189176Y7449D01*
X189114Y7551D01*
X189055Y7655D01*
X189000Y7761D01*
X188949Y7869D01*
X188901Y7978D01*
X188856Y8089D01*
X188816Y8201D01*
X188779Y8315D01*
X188746Y8430D01*
X188716Y8545D01*
X188691Y8662D01*
X188669Y8779D01*
X188652Y8898D01*
X188638Y9016D01*
X188628Y9135D01*
X188622Y9255D01*
X188620Y9374D01*
X204802Y5762D02*
X209318Y5762D01*
X204802Y5762D02*
X204701Y5764D01*
X204600Y5770D01*
X204499Y5779D01*
X204398Y5792D01*
X204298Y5809D01*
X204199Y5830D01*
X204101Y5854D01*
X204004Y5882D01*
X203907Y5914D01*
X203812Y5949D01*
X203719Y5988D01*
X203627Y6030D01*
X203536Y6076D01*
X203448Y6125D01*
X203361Y6177D01*
X203276Y6233D01*
X203193Y6291D01*
X203113Y6353D01*
X203035Y6418D01*
X202959Y6485D01*
X202886Y6555D01*
X202816Y6628D01*
X202749Y6704D01*
X202684Y6782D01*
X202622Y6862D01*
X202564Y6945D01*
X202508Y7030D01*
X202456Y7116D01*
X202407Y7205D01*
X202361Y7296D01*
X202319Y7388D01*
X202280Y7481D01*
X202245Y7576D01*
X202213Y7673D01*
X202185Y7770D01*
X202161Y7868D01*
X202140Y7967D01*
X202123Y8067D01*
X202110Y8168D01*
X202101Y8269D01*
X202095Y8370D01*
X202093Y8471D01*
X202093Y13890D01*
X202095Y13991D01*
X202101Y14092D01*
X202110Y14193D01*
X202123Y14294D01*
X202140Y14394D01*
X202161Y14493D01*
X202185Y14591D01*
X202213Y14688D01*
X202245Y14785D01*
X202280Y14880D01*
X202319Y14973D01*
X202361Y15065D01*
X202407Y15156D01*
X202456Y15244D01*
X202508Y15331D01*
X202564Y15416D01*
X202622Y15499D01*
X202684Y15579D01*
X202749Y15657D01*
X202816Y15733D01*
X202886Y15806D01*
X202959Y15876D01*
X203035Y15943D01*
X203113Y16008D01*
X203193Y16070D01*
X203276Y16128D01*
X203361Y16184D01*
X203448Y16236D01*
X203536Y16285D01*
X203627Y16331D01*
X203719Y16373D01*
X203812Y16412D01*
X203907Y16447D01*
X204004Y16479D01*
X204101Y16507D01*
X204199Y16531D01*
X204298Y16552D01*
X204398Y16569D01*
X204499Y16582D01*
X204600Y16591D01*
X204701Y16597D01*
X204802Y16599D01*
X209318Y16599D01*
X209318Y3053D01*
X209316Y2949D01*
X209310Y2846D01*
X209300Y2742D01*
X209286Y2639D01*
X209268Y2537D01*
X209247Y2436D01*
X209221Y2335D01*
X209192Y2236D01*
X209159Y2137D01*
X209122Y2040D01*
X209081Y1945D01*
X209037Y1851D01*
X208989Y1759D01*
X208938Y1669D01*
X208883Y1580D01*
X208825Y1494D01*
X208763Y1411D01*
X208699Y1329D01*
X208631Y1251D01*
X208561Y1175D01*
X208488Y1101D01*
X208411Y1031D01*
X208333Y963D01*
X208251Y899D01*
X208168Y837D01*
X208082Y779D01*
X207993Y724D01*
X207903Y673D01*
X207811Y625D01*
X207717Y581D01*
X207622Y540D01*
X207525Y503D01*
X207426Y470D01*
X207327Y441D01*
X207226Y415D01*
X207125Y394D01*
X207023Y376D01*
X206920Y362D01*
X206816Y352D01*
X206713Y346D01*
X206609Y344D01*
X206609Y343D02*
X202996Y343D01*
X218870Y5762D02*
X223386Y5762D01*
X218870Y5762D02*
X218769Y5764D01*
X218668Y5770D01*
X218567Y5779D01*
X218466Y5792D01*
X218366Y5809D01*
X218267Y5830D01*
X218169Y5854D01*
X218072Y5882D01*
X217975Y5914D01*
X217880Y5949D01*
X217787Y5988D01*
X217695Y6030D01*
X217604Y6076D01*
X217516Y6125D01*
X217429Y6177D01*
X217344Y6233D01*
X217261Y6291D01*
X217181Y6353D01*
X217103Y6418D01*
X217027Y6485D01*
X216954Y6555D01*
X216884Y6628D01*
X216817Y6704D01*
X216752Y6782D01*
X216690Y6862D01*
X216632Y6945D01*
X216576Y7030D01*
X216524Y7116D01*
X216475Y7205D01*
X216429Y7296D01*
X216387Y7388D01*
X216348Y7481D01*
X216313Y7576D01*
X216281Y7673D01*
X216253Y7770D01*
X216229Y7868D01*
X216208Y7967D01*
X216191Y8067D01*
X216178Y8168D01*
X216169Y8269D01*
X216163Y8370D01*
X216161Y8471D01*
X216161Y13890D01*
X216163Y13991D01*
X216169Y14092D01*
X216178Y14193D01*
X216191Y14294D01*
X216208Y14394D01*
X216229Y14493D01*
X216253Y14591D01*
X216281Y14688D01*
X216313Y14785D01*
X216348Y14880D01*
X216387Y14973D01*
X216429Y15065D01*
X216475Y15156D01*
X216524Y15244D01*
X216576Y15331D01*
X216632Y15416D01*
X216690Y15499D01*
X216752Y15579D01*
X216817Y15657D01*
X216884Y15733D01*
X216954Y15806D01*
X217027Y15876D01*
X217103Y15943D01*
X217181Y16008D01*
X217261Y16070D01*
X217344Y16128D01*
X217429Y16184D01*
X217516Y16236D01*
X217604Y16285D01*
X217695Y16331D01*
X217787Y16373D01*
X217880Y16412D01*
X217975Y16447D01*
X218072Y16479D01*
X218169Y16507D01*
X218267Y16531D01*
X218366Y16552D01*
X218466Y16569D01*
X218567Y16582D01*
X218668Y16591D01*
X218769Y16597D01*
X218870Y16599D01*
X223386Y16599D01*
X223386Y3053D01*
X223384Y2949D01*
X223378Y2846D01*
X223368Y2742D01*
X223354Y2639D01*
X223336Y2537D01*
X223315Y2436D01*
X223289Y2335D01*
X223260Y2236D01*
X223227Y2137D01*
X223190Y2040D01*
X223149Y1945D01*
X223105Y1851D01*
X223057Y1759D01*
X223006Y1669D01*
X222951Y1580D01*
X222893Y1494D01*
X222831Y1411D01*
X222767Y1329D01*
X222699Y1251D01*
X222629Y1175D01*
X222556Y1101D01*
X222479Y1031D01*
X222401Y963D01*
X222319Y899D01*
X222236Y837D01*
X222150Y779D01*
X222061Y724D01*
X221971Y673D01*
X221879Y625D01*
X221785Y581D01*
X221690Y540D01*
X221593Y503D01*
X221494Y470D01*
X221395Y441D01*
X221294Y415D01*
X221193Y394D01*
X221091Y376D01*
X220988Y362D01*
X220884Y352D01*
X220781Y346D01*
X220677Y344D01*
X220677Y343D02*
X217064Y343D01*
X233012Y5762D02*
X237527Y5762D01*
X233012Y5762D02*
X232911Y5764D01*
X232810Y5770D01*
X232709Y5779D01*
X232608Y5792D01*
X232508Y5809D01*
X232409Y5830D01*
X232311Y5854D01*
X232214Y5882D01*
X232117Y5914D01*
X232022Y5949D01*
X231929Y5988D01*
X231837Y6030D01*
X231746Y6076D01*
X231658Y6125D01*
X231571Y6177D01*
X231486Y6233D01*
X231403Y6291D01*
X231323Y6353D01*
X231245Y6418D01*
X231169Y6485D01*
X231096Y6555D01*
X231026Y6628D01*
X230959Y6704D01*
X230894Y6782D01*
X230832Y6862D01*
X230774Y6945D01*
X230718Y7030D01*
X230666Y7116D01*
X230617Y7205D01*
X230571Y7296D01*
X230529Y7388D01*
X230490Y7481D01*
X230455Y7576D01*
X230423Y7673D01*
X230395Y7770D01*
X230371Y7868D01*
X230350Y7967D01*
X230333Y8067D01*
X230320Y8168D01*
X230311Y8269D01*
X230305Y8370D01*
X230303Y8471D01*
X230303Y12987D01*
X230305Y13106D01*
X230311Y13226D01*
X230321Y13345D01*
X230335Y13463D01*
X230352Y13582D01*
X230374Y13699D01*
X230399Y13816D01*
X230429Y13931D01*
X230462Y14046D01*
X230499Y14160D01*
X230539Y14272D01*
X230584Y14383D01*
X230632Y14492D01*
X230683Y14600D01*
X230738Y14706D01*
X230797Y14810D01*
X230859Y14912D01*
X230924Y15012D01*
X230993Y15110D01*
X231065Y15206D01*
X231140Y15299D01*
X231217Y15389D01*
X231298Y15477D01*
X231382Y15562D01*
X231469Y15644D01*
X231558Y15724D01*
X231650Y15800D01*
X231744Y15874D01*
X231841Y15944D01*
X231939Y16011D01*
X232040Y16075D01*
X232144Y16135D01*
X232249Y16192D01*
X232356Y16245D01*
X232464Y16295D01*
X232574Y16341D01*
X232686Y16383D01*
X232799Y16422D01*
X232913Y16457D01*
X233028Y16488D01*
X233145Y16516D01*
X233262Y16539D01*
X233379Y16559D01*
X233498Y16575D01*
X233617Y16587D01*
X233736Y16595D01*
X233855Y16599D01*
X233975Y16599D01*
X234094Y16595D01*
X234213Y16587D01*
X234332Y16575D01*
X234451Y16559D01*
X234568Y16539D01*
X234685Y16516D01*
X234802Y16488D01*
X234917Y16457D01*
X235031Y16422D01*
X235144Y16383D01*
X235256Y16341D01*
X235366Y16295D01*
X235474Y16245D01*
X235581Y16192D01*
X235686Y16135D01*
X235790Y16075D01*
X235891Y16011D01*
X235989Y15944D01*
X236086Y15874D01*
X236180Y15800D01*
X236272Y15724D01*
X236361Y15644D01*
X236448Y15562D01*
X236532Y15477D01*
X236613Y15389D01*
X236690Y15299D01*
X236765Y15206D01*
X236837Y15110D01*
X236906Y15012D01*
X236971Y14912D01*
X237033Y14810D01*
X237092Y14706D01*
X237147Y14600D01*
X237198Y14492D01*
X237246Y14383D01*
X237291Y14272D01*
X237331Y14160D01*
X237368Y14046D01*
X237401Y13931D01*
X237431Y13816D01*
X237456Y13699D01*
X237478Y13582D01*
X237495Y13463D01*
X237509Y13345D01*
X237519Y13226D01*
X237525Y13106D01*
X237527Y12987D01*
X237527Y11181D01*
X230303Y11181D01*
X244455Y16599D02*
X244455Y5762D01*
X244455Y16599D02*
X249874Y16599D01*
X249874Y14793D01*
X69793Y41463D02*
X67084Y41463D01*
X69793Y41463D02*
X69793Y32432D01*
X64374Y32432D01*
X64256Y32434D01*
X64138Y32440D01*
X64020Y32449D01*
X63903Y32463D01*
X63786Y32480D01*
X63669Y32501D01*
X63554Y32526D01*
X63439Y32555D01*
X63325Y32588D01*
X63213Y32624D01*
X63102Y32664D01*
X62992Y32707D01*
X62883Y32754D01*
X62776Y32804D01*
X62671Y32859D01*
X62568Y32916D01*
X62467Y32977D01*
X62367Y33041D01*
X62270Y33108D01*
X62175Y33178D01*
X62083Y33252D01*
X61992Y33328D01*
X61905Y33408D01*
X61820Y33490D01*
X61738Y33575D01*
X61658Y33662D01*
X61582Y33753D01*
X61508Y33845D01*
X61438Y33940D01*
X61371Y34037D01*
X61307Y34137D01*
X61246Y34238D01*
X61189Y34341D01*
X61134Y34446D01*
X61084Y34553D01*
X61037Y34662D01*
X60994Y34772D01*
X60954Y34883D01*
X60918Y34995D01*
X60885Y35109D01*
X60856Y35224D01*
X60831Y35339D01*
X60810Y35456D01*
X60793Y35573D01*
X60779Y35690D01*
X60770Y35808D01*
X60764Y35926D01*
X60762Y36044D01*
X60762Y45076D01*
X60764Y45194D01*
X60770Y45312D01*
X60779Y45430D01*
X60793Y45547D01*
X60810Y45664D01*
X60831Y45781D01*
X60856Y45896D01*
X60885Y46011D01*
X60918Y46125D01*
X60954Y46237D01*
X60994Y46348D01*
X61037Y46458D01*
X61084Y46567D01*
X61134Y46674D01*
X61188Y46779D01*
X61246Y46882D01*
X61307Y46983D01*
X61371Y47083D01*
X61438Y47180D01*
X61508Y47275D01*
X61582Y47367D01*
X61658Y47458D01*
X61738Y47545D01*
X61820Y47630D01*
X61905Y47712D01*
X61992Y47792D01*
X62083Y47868D01*
X62175Y47942D01*
X62270Y48012D01*
X62367Y48079D01*
X62467Y48143D01*
X62568Y48204D01*
X62671Y48261D01*
X62776Y48315D01*
X62883Y48366D01*
X62992Y48413D01*
X63102Y48456D01*
X63213Y48496D01*
X63325Y48532D01*
X63439Y48565D01*
X63554Y48594D01*
X63669Y48619D01*
X63786Y48640D01*
X63903Y48657D01*
X64020Y48671D01*
X64138Y48680D01*
X64256Y48686D01*
X64374Y48688D01*
X69793Y48688D01*
X77646Y48688D02*
X77646Y32432D01*
X77646Y48688D02*
X82162Y48688D01*
X82295Y48686D01*
X82427Y48680D01*
X82559Y48670D01*
X82691Y48657D01*
X82823Y48639D01*
X82953Y48618D01*
X83084Y48593D01*
X83213Y48564D01*
X83341Y48531D01*
X83469Y48495D01*
X83595Y48455D01*
X83720Y48411D01*
X83844Y48363D01*
X83966Y48312D01*
X84087Y48257D01*
X84206Y48199D01*
X84324Y48137D01*
X84439Y48072D01*
X84553Y48003D01*
X84664Y47932D01*
X84773Y47856D01*
X84880Y47778D01*
X84985Y47697D01*
X85087Y47612D01*
X85187Y47525D01*
X85284Y47435D01*
X85379Y47342D01*
X85470Y47246D01*
X85559Y47148D01*
X85645Y47047D01*
X85728Y46943D01*
X85808Y46837D01*
X85884Y46729D01*
X85958Y46619D01*
X86028Y46506D01*
X86095Y46392D01*
X86158Y46275D01*
X86218Y46157D01*
X86275Y46037D01*
X86328Y45915D01*
X86377Y45792D01*
X86423Y45668D01*
X86465Y45542D01*
X86503Y45415D01*
X86538Y45287D01*
X86569Y45158D01*
X86596Y45029D01*
X86619Y44898D01*
X86639Y44767D01*
X86654Y44635D01*
X86666Y44503D01*
X86674Y44371D01*
X86678Y44238D01*
X86678Y44106D01*
X86674Y43973D01*
X86666Y43841D01*
X86654Y43709D01*
X86639Y43577D01*
X86619Y43446D01*
X86596Y43315D01*
X86569Y43186D01*
X86538Y43057D01*
X86503Y42929D01*
X86465Y42802D01*
X86423Y42676D01*
X86377Y42552D01*
X86328Y42429D01*
X86275Y42307D01*
X86218Y42187D01*
X86158Y42069D01*
X86095Y41952D01*
X86028Y41838D01*
X85958Y41725D01*
X85884Y41615D01*
X85808Y41507D01*
X85728Y41401D01*
X85645Y41297D01*
X85559Y41196D01*
X85470Y41098D01*
X85379Y41002D01*
X85284Y40909D01*
X85187Y40819D01*
X85087Y40732D01*
X84985Y40647D01*
X84880Y40566D01*
X84773Y40488D01*
X84664Y40412D01*
X84553Y40341D01*
X84439Y40272D01*
X84324Y40207D01*
X84206Y40145D01*
X84087Y40087D01*
X83966Y40032D01*
X83844Y39981D01*
X83720Y39933D01*
X83595Y39889D01*
X83469Y39849D01*
X83341Y39813D01*
X83213Y39780D01*
X83084Y39751D01*
X82953Y39726D01*
X82823Y39705D01*
X82691Y39687D01*
X82559Y39674D01*
X82427Y39664D01*
X82295Y39658D01*
X82162Y39656D01*
X82162Y39657D02*
X77646Y39657D01*
X97443Y32432D02*
X97561Y32434D01*
X97679Y32440D01*
X97797Y32449D01*
X97914Y32463D01*
X98031Y32480D01*
X98148Y32501D01*
X98263Y32526D01*
X98378Y32555D01*
X98492Y32588D01*
X98604Y32624D01*
X98715Y32664D01*
X98825Y32707D01*
X98934Y32754D01*
X99041Y32804D01*
X99146Y32859D01*
X99249Y32916D01*
X99350Y32977D01*
X99450Y33041D01*
X99547Y33108D01*
X99642Y33178D01*
X99734Y33252D01*
X99825Y33328D01*
X99912Y33408D01*
X99997Y33490D01*
X100079Y33575D01*
X100159Y33662D01*
X100235Y33753D01*
X100309Y33845D01*
X100379Y33940D01*
X100446Y34037D01*
X100510Y34137D01*
X100571Y34238D01*
X100628Y34341D01*
X100683Y34446D01*
X100733Y34553D01*
X100780Y34662D01*
X100823Y34772D01*
X100863Y34883D01*
X100899Y34995D01*
X100932Y35109D01*
X100961Y35224D01*
X100986Y35339D01*
X101007Y35456D01*
X101024Y35573D01*
X101038Y35690D01*
X101047Y35808D01*
X101053Y35926D01*
X101055Y36044D01*
X97443Y32432D02*
X97260Y32434D01*
X97078Y32441D01*
X96896Y32452D01*
X96714Y32467D01*
X96532Y32487D01*
X96351Y32510D01*
X96171Y32539D01*
X95991Y32571D01*
X95812Y32608D01*
X95635Y32649D01*
X95458Y32695D01*
X95282Y32744D01*
X95108Y32798D01*
X94934Y32856D01*
X94763Y32918D01*
X94593Y32984D01*
X94424Y33055D01*
X94257Y33129D01*
X94092Y33207D01*
X93929Y33289D01*
X93768Y33375D01*
X93609Y33465D01*
X93452Y33559D01*
X93298Y33656D01*
X93146Y33757D01*
X92996Y33862D01*
X92849Y33970D01*
X92705Y34081D01*
X92563Y34196D01*
X92424Y34315D01*
X92288Y34437D01*
X92155Y34562D01*
X92025Y34690D01*
X92476Y45076D02*
X92478Y45194D01*
X92484Y45312D01*
X92493Y45430D01*
X92507Y45547D01*
X92524Y45664D01*
X92545Y45781D01*
X92570Y45896D01*
X92599Y46011D01*
X92632Y46125D01*
X92668Y46237D01*
X92708Y46348D01*
X92751Y46458D01*
X92798Y46567D01*
X92848Y46674D01*
X92903Y46779D01*
X92960Y46882D01*
X93021Y46983D01*
X93085Y47083D01*
X93152Y47180D01*
X93222Y47275D01*
X93296Y47367D01*
X93372Y47458D01*
X93452Y47545D01*
X93534Y47630D01*
X93619Y47712D01*
X93706Y47792D01*
X93797Y47868D01*
X93889Y47942D01*
X93984Y48012D01*
X94081Y48079D01*
X94181Y48143D01*
X94282Y48204D01*
X94385Y48262D01*
X94490Y48316D01*
X94597Y48366D01*
X94706Y48413D01*
X94816Y48457D01*
X94927Y48496D01*
X95040Y48532D01*
X95153Y48565D01*
X95268Y48594D01*
X95383Y48619D01*
X95500Y48640D01*
X95617Y48657D01*
X95734Y48671D01*
X95852Y48680D01*
X95970Y48686D01*
X96088Y48688D01*
X96249Y48686D01*
X96411Y48680D01*
X96572Y48671D01*
X96733Y48657D01*
X96893Y48640D01*
X97053Y48619D01*
X97213Y48594D01*
X97372Y48565D01*
X97530Y48533D01*
X97687Y48497D01*
X97843Y48457D01*
X97999Y48413D01*
X98153Y48365D01*
X98306Y48314D01*
X98458Y48260D01*
X98609Y48201D01*
X98758Y48140D01*
X98905Y48074D01*
X99051Y48005D01*
X99196Y47933D01*
X99338Y47857D01*
X99479Y47778D01*
X99618Y47696D01*
X99754Y47610D01*
X99889Y47521D01*
X100022Y47429D01*
X100152Y47333D01*
X94282Y41915D02*
X94181Y41977D01*
X94081Y42042D01*
X93984Y42111D01*
X93889Y42183D01*
X93796Y42257D01*
X93706Y42335D01*
X93618Y42416D01*
X93533Y42499D01*
X93451Y42585D01*
X93372Y42674D01*
X93295Y42765D01*
X93222Y42859D01*
X93151Y42955D01*
X93084Y43053D01*
X93020Y43153D01*
X92959Y43256D01*
X92902Y43360D01*
X92848Y43466D01*
X92798Y43574D01*
X92751Y43683D01*
X92707Y43794D01*
X92667Y43906D01*
X92631Y44020D01*
X92599Y44134D01*
X92570Y44250D01*
X92545Y44366D01*
X92524Y44483D01*
X92507Y44601D01*
X92493Y44719D01*
X92484Y44838D01*
X92478Y44957D01*
X92476Y45076D01*
X99250Y39205D02*
X99351Y39143D01*
X99451Y39078D01*
X99548Y39009D01*
X99643Y38937D01*
X99736Y38863D01*
X99826Y38785D01*
X99914Y38704D01*
X99999Y38621D01*
X100081Y38535D01*
X100160Y38446D01*
X100237Y38355D01*
X100310Y38261D01*
X100381Y38165D01*
X100448Y38067D01*
X100512Y37967D01*
X100573Y37864D01*
X100630Y37760D01*
X100684Y37654D01*
X100734Y37546D01*
X100781Y37437D01*
X100825Y37326D01*
X100865Y37214D01*
X100901Y37100D01*
X100933Y36986D01*
X100962Y36870D01*
X100987Y36754D01*
X101008Y36637D01*
X101025Y36519D01*
X101039Y36401D01*
X101048Y36282D01*
X101054Y36163D01*
X101056Y36044D01*
X99249Y39205D02*
X94282Y41915D01*
X60762Y22018D02*
X60762Y5762D01*
X60762Y22018D02*
X65278Y22018D01*
X65409Y22016D01*
X65541Y22010D01*
X65672Y22001D01*
X65802Y21987D01*
X65933Y21970D01*
X66062Y21949D01*
X66191Y21925D01*
X66319Y21896D01*
X66447Y21864D01*
X66573Y21828D01*
X66698Y21789D01*
X66823Y21746D01*
X66945Y21699D01*
X67067Y21649D01*
X67187Y21595D01*
X67305Y21538D01*
X67421Y21477D01*
X67536Y21413D01*
X67649Y21346D01*
X67760Y21275D01*
X67868Y21201D01*
X67975Y21124D01*
X68079Y21044D01*
X68181Y20961D01*
X68280Y20876D01*
X68377Y20787D01*
X68471Y20695D01*
X68563Y20601D01*
X68652Y20504D01*
X68737Y20405D01*
X68820Y20303D01*
X68900Y20199D01*
X68977Y20092D01*
X69051Y19984D01*
X69122Y19873D01*
X69189Y19760D01*
X69253Y19645D01*
X69314Y19529D01*
X69371Y19411D01*
X69425Y19291D01*
X69475Y19169D01*
X69522Y19047D01*
X69565Y18922D01*
X69604Y18797D01*
X69640Y18671D01*
X69672Y18543D01*
X69701Y18415D01*
X69725Y18286D01*
X69746Y18157D01*
X69763Y18026D01*
X69777Y17896D01*
X69786Y17765D01*
X69792Y17633D01*
X69794Y17502D01*
X69793Y17502D02*
X69793Y10278D01*
X69794Y10278D02*
X69792Y10147D01*
X69786Y10015D01*
X69777Y9884D01*
X69763Y9754D01*
X69746Y9623D01*
X69725Y9494D01*
X69701Y9365D01*
X69672Y9237D01*
X69640Y9109D01*
X69604Y8983D01*
X69565Y8858D01*
X69522Y8733D01*
X69475Y8611D01*
X69425Y8489D01*
X69371Y8369D01*
X69314Y8251D01*
X69253Y8135D01*
X69189Y8020D01*
X69122Y7907D01*
X69051Y7796D01*
X68977Y7688D01*
X68900Y7581D01*
X68820Y7477D01*
X68737Y7375D01*
X68652Y7276D01*
X68563Y7179D01*
X68471Y7085D01*
X68377Y6993D01*
X68280Y6904D01*
X68181Y6819D01*
X68079Y6736D01*
X67975Y6656D01*
X67868Y6579D01*
X67760Y6505D01*
X67649Y6434D01*
X67536Y6367D01*
X67421Y6303D01*
X67305Y6242D01*
X67187Y6185D01*
X67067Y6131D01*
X66945Y6081D01*
X66823Y6034D01*
X66698Y5991D01*
X66573Y5952D01*
X66447Y5916D01*
X66319Y5884D01*
X66191Y5855D01*
X66062Y5831D01*
X65932Y5810D01*
X65802Y5793D01*
X65672Y5779D01*
X65541Y5770D01*
X65409Y5764D01*
X65278Y5762D01*
X60762Y5762D01*
X76775Y9374D02*
X76775Y12987D01*
X76776Y12987D02*
X76778Y13106D01*
X76784Y13226D01*
X76794Y13345D01*
X76808Y13463D01*
X76825Y13582D01*
X76847Y13699D01*
X76872Y13816D01*
X76902Y13931D01*
X76935Y14046D01*
X76972Y14160D01*
X77012Y14272D01*
X77057Y14383D01*
X77105Y14492D01*
X77156Y14600D01*
X77211Y14706D01*
X77270Y14810D01*
X77332Y14912D01*
X77397Y15012D01*
X77466Y15110D01*
X77538Y15206D01*
X77613Y15299D01*
X77690Y15389D01*
X77771Y15477D01*
X77855Y15562D01*
X77942Y15644D01*
X78031Y15724D01*
X78123Y15800D01*
X78217Y15874D01*
X78314Y15944D01*
X78412Y16011D01*
X78513Y16075D01*
X78617Y16135D01*
X78722Y16192D01*
X78829Y16245D01*
X78937Y16295D01*
X79047Y16341D01*
X79159Y16383D01*
X79272Y16422D01*
X79386Y16457D01*
X79501Y16488D01*
X79618Y16516D01*
X79735Y16539D01*
X79852Y16559D01*
X79971Y16575D01*
X80090Y16587D01*
X80209Y16595D01*
X80328Y16599D01*
X80448Y16599D01*
X80567Y16595D01*
X80686Y16587D01*
X80805Y16575D01*
X80924Y16559D01*
X81041Y16539D01*
X81158Y16516D01*
X81275Y16488D01*
X81390Y16457D01*
X81504Y16422D01*
X81617Y16383D01*
X81729Y16341D01*
X81839Y16295D01*
X81947Y16245D01*
X82054Y16192D01*
X82159Y16135D01*
X82263Y16075D01*
X82364Y16011D01*
X82462Y15944D01*
X82559Y15874D01*
X82653Y15800D01*
X82745Y15724D01*
X82834Y15644D01*
X82921Y15562D01*
X83005Y15477D01*
X83086Y15389D01*
X83163Y15299D01*
X83238Y15206D01*
X83310Y15110D01*
X83379Y15012D01*
X83444Y14912D01*
X83506Y14810D01*
X83565Y14706D01*
X83620Y14600D01*
X83671Y14492D01*
X83719Y14383D01*
X83764Y14272D01*
X83804Y14160D01*
X83841Y14046D01*
X83874Y13931D01*
X83904Y13816D01*
X83929Y13699D01*
X83951Y13582D01*
X83968Y13463D01*
X83982Y13345D01*
X83992Y13226D01*
X83998Y13106D01*
X84000Y12987D01*
X84000Y9374D01*
X83998Y9255D01*
X83992Y9135D01*
X83982Y9016D01*
X83968Y8898D01*
X83951Y8779D01*
X83929Y8662D01*
X83904Y8545D01*
X83874Y8430D01*
X83841Y8315D01*
X83804Y8201D01*
X83764Y8089D01*
X83719Y7978D01*
X83671Y7869D01*
X83620Y7761D01*
X83565Y7655D01*
X83506Y7551D01*
X83444Y7449D01*
X83379Y7349D01*
X83310Y7251D01*
X83238Y7155D01*
X83163Y7062D01*
X83086Y6972D01*
X83005Y6884D01*
X82921Y6799D01*
X82834Y6717D01*
X82745Y6637D01*
X82653Y6561D01*
X82559Y6487D01*
X82462Y6417D01*
X82364Y6350D01*
X82263Y6286D01*
X82159Y6226D01*
X82054Y6169D01*
X81947Y6116D01*
X81839Y6066D01*
X81729Y6020D01*
X81617Y5978D01*
X81504Y5939D01*
X81390Y5904D01*
X81275Y5873D01*
X81158Y5845D01*
X81041Y5822D01*
X80924Y5802D01*
X80805Y5786D01*
X80686Y5774D01*
X80567Y5766D01*
X80448Y5762D01*
X80328Y5762D01*
X80209Y5766D01*
X80090Y5774D01*
X79971Y5786D01*
X79852Y5802D01*
X79735Y5822D01*
X79618Y5845D01*
X79501Y5873D01*
X79386Y5904D01*
X79272Y5939D01*
X79159Y5978D01*
X79047Y6020D01*
X78937Y6066D01*
X78829Y6116D01*
X78722Y6169D01*
X78617Y6226D01*
X78513Y6286D01*
X78412Y6350D01*
X78314Y6417D01*
X78217Y6487D01*
X78123Y6561D01*
X78031Y6637D01*
X77942Y6717D01*
X77855Y6799D01*
X77771Y6884D01*
X77690Y6972D01*
X77613Y7062D01*
X77538Y7155D01*
X77466Y7251D01*
X77397Y7349D01*
X77332Y7449D01*
X77270Y7551D01*
X77211Y7655D01*
X77156Y7761D01*
X77105Y7869D01*
X77057Y7978D01*
X77012Y8089D01*
X76972Y8201D01*
X76935Y8315D01*
X76902Y8430D01*
X76872Y8545D01*
X76847Y8662D01*
X76825Y8779D01*
X76808Y8898D01*
X76794Y9016D01*
X76784Y9135D01*
X76778Y9255D01*
X76776Y9374D01*
X90079Y16599D02*
X92789Y5762D01*
X95498Y12987D01*
X98207Y5762D01*
X100917Y16599D01*
X107517Y16599D02*
X107517Y5762D01*
X107517Y16599D02*
X112032Y16599D01*
X112136Y16597D01*
X112239Y16591D01*
X112343Y16581D01*
X112446Y16567D01*
X112548Y16549D01*
X112649Y16528D01*
X112750Y16502D01*
X112849Y16473D01*
X112948Y16440D01*
X113045Y16403D01*
X113140Y16362D01*
X113234Y16318D01*
X113326Y16270D01*
X113416Y16219D01*
X113505Y16164D01*
X113591Y16106D01*
X113674Y16044D01*
X113756Y15980D01*
X113834Y15912D01*
X113910Y15842D01*
X113984Y15769D01*
X114054Y15692D01*
X114122Y15614D01*
X114186Y15532D01*
X114248Y15449D01*
X114306Y15363D01*
X114361Y15274D01*
X114412Y15184D01*
X114460Y15092D01*
X114504Y14998D01*
X114545Y14903D01*
X114582Y14806D01*
X114615Y14707D01*
X114644Y14608D01*
X114670Y14507D01*
X114691Y14406D01*
X114709Y14304D01*
X114723Y14201D01*
X114733Y14097D01*
X114739Y13994D01*
X114741Y13890D01*
X114742Y13890D02*
X114742Y5762D01*
X121822Y8471D02*
X121822Y22018D01*
X121822Y8471D02*
X121824Y8370D01*
X121830Y8269D01*
X121839Y8168D01*
X121852Y8067D01*
X121869Y7967D01*
X121890Y7868D01*
X121914Y7770D01*
X121942Y7673D01*
X121974Y7576D01*
X122009Y7481D01*
X122048Y7388D01*
X122090Y7296D01*
X122136Y7205D01*
X122185Y7116D01*
X122237Y7030D01*
X122293Y6945D01*
X122351Y6862D01*
X122413Y6782D01*
X122478Y6704D01*
X122545Y6628D01*
X122615Y6555D01*
X122688Y6485D01*
X122764Y6418D01*
X122842Y6353D01*
X122922Y6291D01*
X123005Y6233D01*
X123090Y6177D01*
X123177Y6125D01*
X123265Y6076D01*
X123356Y6030D01*
X123448Y5988D01*
X123541Y5949D01*
X123636Y5914D01*
X123733Y5882D01*
X123830Y5854D01*
X123928Y5830D01*
X124027Y5809D01*
X124127Y5792D01*
X124228Y5779D01*
X124329Y5770D01*
X124430Y5764D01*
X124531Y5762D01*
X129887Y5762D02*
X129887Y16599D01*
X129435Y21115D02*
X129435Y22018D01*
X130338Y22018D01*
X130338Y21115D01*
X129435Y21115D01*
X136695Y16599D02*
X136695Y5762D01*
X136695Y16599D02*
X141211Y16599D01*
X141315Y16597D01*
X141418Y16591D01*
X141522Y16581D01*
X141625Y16567D01*
X141727Y16549D01*
X141828Y16528D01*
X141929Y16502D01*
X142028Y16473D01*
X142127Y16440D01*
X142224Y16403D01*
X142319Y16362D01*
X142413Y16318D01*
X142505Y16270D01*
X142595Y16219D01*
X142684Y16164D01*
X142770Y16106D01*
X142853Y16044D01*
X142935Y15980D01*
X143013Y15912D01*
X143089Y15842D01*
X143163Y15769D01*
X143233Y15692D01*
X143301Y15614D01*
X143365Y15532D01*
X143427Y15449D01*
X143485Y15363D01*
X143540Y15274D01*
X143591Y15184D01*
X143639Y15092D01*
X143683Y14998D01*
X143724Y14903D01*
X143761Y14806D01*
X143794Y14707D01*
X143823Y14608D01*
X143849Y14507D01*
X143870Y14406D01*
X143888Y14304D01*
X143902Y14201D01*
X143912Y14097D01*
X143918Y13994D01*
X143920Y13890D01*
X143920Y5762D01*
X151453Y5762D02*
X151453Y22018D01*
X158678Y16599D02*
X151453Y11181D01*
X154614Y13438D02*
X158678Y5762D01*
X135000Y310000D02*
X65000Y310000D01*
X135000Y310000D02*
X135000Y155000D01*
X65000Y155000D01*
X65000Y310000D01*
X170000Y310000D02*
X240000Y310000D01*
X240000Y175000D01*
X170000Y175000D01*
X170000Y310000D01*
X275000Y310000D02*
X345000Y310000D01*
X345000Y150000D01*
X275000Y150000D01*
X275000Y310000D01*
D11*
X125400Y302000D02*
X125400Y48000D01*
X74600Y48000D01*
X74600Y302000D01*
X125400Y302000D01*
D12*
X131101Y289300D02*
X131101Y287353D01*
X131101Y289300D02*
X137592Y289300D01*
X137592Y285405D01*
X137590Y285306D01*
X137584Y285206D01*
X137575Y285107D01*
X137562Y285009D01*
X137545Y284911D01*
X137524Y284813D01*
X137499Y284717D01*
X137471Y284622D01*
X137439Y284528D01*
X137404Y284435D01*
X137365Y284343D01*
X137322Y284253D01*
X137277Y284165D01*
X137227Y284078D01*
X137175Y283994D01*
X137119Y283911D01*
X137061Y283831D01*
X136999Y283753D01*
X136934Y283678D01*
X136866Y283605D01*
X136796Y283535D01*
X136723Y283467D01*
X136648Y283402D01*
X136570Y283340D01*
X136490Y283282D01*
X136407Y283226D01*
X136323Y283174D01*
X136236Y283124D01*
X136148Y283079D01*
X136058Y283036D01*
X135966Y282997D01*
X135873Y282962D01*
X135779Y282930D01*
X135684Y282902D01*
X135588Y282877D01*
X135490Y282856D01*
X135392Y282839D01*
X135294Y282826D01*
X135195Y282817D01*
X135095Y282811D01*
X134996Y282809D01*
X128504Y282809D01*
X128504Y282808D02*
X128405Y282810D01*
X128305Y282816D01*
X128206Y282825D01*
X128108Y282838D01*
X128010Y282856D01*
X127912Y282876D01*
X127816Y282901D01*
X127720Y282929D01*
X127626Y282961D01*
X127533Y282996D01*
X127442Y283035D01*
X127352Y283078D01*
X127263Y283123D01*
X127177Y283173D01*
X127092Y283225D01*
X127010Y283281D01*
X126930Y283340D01*
X126852Y283401D01*
X126776Y283466D01*
X126703Y283534D01*
X126633Y283604D01*
X126565Y283677D01*
X126500Y283753D01*
X126439Y283831D01*
X126380Y283911D01*
X126324Y283993D01*
X126272Y284078D01*
X126223Y284164D01*
X126177Y284253D01*
X126134Y284343D01*
X126095Y284434D01*
X126060Y284527D01*
X126028Y284621D01*
X126000Y284717D01*
X125975Y284813D01*
X125955Y284911D01*
X125937Y285009D01*
X125924Y285107D01*
X125915Y285206D01*
X125909Y285305D01*
X125907Y285405D01*
X125908Y285405D02*
X125908Y289300D01*
X125908Y295001D02*
X137592Y295001D01*
X125908Y295001D02*
X125908Y298246D01*
X125910Y298359D01*
X125916Y298472D01*
X125926Y298585D01*
X125940Y298698D01*
X125957Y298810D01*
X125979Y298921D01*
X126004Y299031D01*
X126034Y299141D01*
X126067Y299249D01*
X126104Y299356D01*
X126144Y299462D01*
X126189Y299566D01*
X126237Y299669D01*
X126288Y299770D01*
X126343Y299869D01*
X126401Y299966D01*
X126463Y300061D01*
X126528Y300154D01*
X126596Y300244D01*
X126667Y300332D01*
X126742Y300418D01*
X126819Y300501D01*
X126899Y300581D01*
X126982Y300658D01*
X127068Y300733D01*
X127156Y300804D01*
X127246Y300872D01*
X127339Y300937D01*
X127434Y300999D01*
X127531Y301057D01*
X127630Y301112D01*
X127731Y301163D01*
X127834Y301211D01*
X127938Y301256D01*
X128044Y301296D01*
X128151Y301333D01*
X128259Y301366D01*
X128369Y301396D01*
X128479Y301421D01*
X128590Y301443D01*
X128702Y301460D01*
X128815Y301474D01*
X128928Y301484D01*
X129041Y301490D01*
X129154Y301492D01*
X134346Y301492D01*
X134459Y301490D01*
X134572Y301484D01*
X134685Y301474D01*
X134798Y301460D01*
X134910Y301443D01*
X135021Y301421D01*
X135131Y301396D01*
X135241Y301366D01*
X135349Y301333D01*
X135456Y301296D01*
X135562Y301256D01*
X135666Y301211D01*
X135769Y301163D01*
X135870Y301112D01*
X135969Y301057D01*
X136066Y300999D01*
X136161Y300937D01*
X136254Y300872D01*
X136344Y300804D01*
X136432Y300733D01*
X136518Y300658D01*
X136601Y300581D01*
X136681Y300501D01*
X136758Y300418D01*
X136833Y300332D01*
X136904Y300244D01*
X136972Y300154D01*
X137037Y300061D01*
X137099Y299966D01*
X137157Y299869D01*
X137212Y299770D01*
X137263Y299669D01*
X137311Y299566D01*
X137356Y299462D01*
X137396Y299356D01*
X137433Y299249D01*
X137466Y299141D01*
X137496Y299031D01*
X137521Y298921D01*
X137543Y298810D01*
X137560Y298698D01*
X137574Y298585D01*
X137584Y298472D01*
X137590Y298359D01*
X137592Y298246D01*
X137592Y295001D01*
D11*
X230400Y302000D02*
X230400Y48000D01*
X179600Y48000D01*
X179600Y302000D01*
X230400Y302000D01*
D12*
X230908Y284085D02*
X242592Y284085D01*
X230908Y284085D02*
X230908Y287330D01*
X230910Y287443D01*
X230916Y287556D01*
X230926Y287669D01*
X230940Y287782D01*
X230957Y287894D01*
X230979Y288005D01*
X231004Y288115D01*
X231034Y288225D01*
X231067Y288333D01*
X231104Y288440D01*
X231144Y288546D01*
X231189Y288650D01*
X231237Y288753D01*
X231288Y288854D01*
X231343Y288953D01*
X231401Y289050D01*
X231463Y289145D01*
X231528Y289238D01*
X231596Y289328D01*
X231667Y289416D01*
X231742Y289502D01*
X231819Y289585D01*
X231899Y289665D01*
X231982Y289742D01*
X232068Y289817D01*
X232156Y289888D01*
X232246Y289956D01*
X232339Y290021D01*
X232434Y290083D01*
X232531Y290141D01*
X232630Y290196D01*
X232731Y290247D01*
X232834Y290295D01*
X232938Y290340D01*
X233044Y290380D01*
X233151Y290417D01*
X233259Y290450D01*
X233369Y290480D01*
X233479Y290505D01*
X233590Y290527D01*
X233702Y290544D01*
X233815Y290558D01*
X233928Y290568D01*
X234041Y290574D01*
X234154Y290576D01*
X239346Y290576D01*
X239459Y290574D01*
X239572Y290568D01*
X239685Y290558D01*
X239798Y290544D01*
X239910Y290527D01*
X240021Y290505D01*
X240131Y290480D01*
X240241Y290450D01*
X240349Y290417D01*
X240456Y290380D01*
X240562Y290340D01*
X240666Y290295D01*
X240769Y290247D01*
X240870Y290196D01*
X240969Y290141D01*
X241066Y290083D01*
X241161Y290021D01*
X241254Y289956D01*
X241344Y289888D01*
X241432Y289817D01*
X241518Y289742D01*
X241601Y289665D01*
X241681Y289585D01*
X241758Y289502D01*
X241833Y289416D01*
X241904Y289328D01*
X241972Y289238D01*
X242037Y289145D01*
X242099Y289050D01*
X242157Y288953D01*
X242212Y288854D01*
X242263Y288753D01*
X242311Y288650D01*
X242356Y288546D01*
X242396Y288440D01*
X242433Y288333D01*
X242466Y288225D01*
X242496Y288115D01*
X242521Y288005D01*
X242543Y287894D01*
X242560Y287782D01*
X242574Y287669D01*
X242584Y287556D01*
X242590Y287443D01*
X242592Y287330D01*
X242592Y284085D01*
X242592Y296299D02*
X230908Y296299D01*
X242592Y296299D02*
X242592Y301492D01*
D11*
X335400Y302000D02*
X335400Y48000D01*
X284600Y48000D01*
X284600Y302000D01*
X335400Y302000D01*
D12*
X335908Y284976D02*
X347592Y284976D01*
X335908Y284976D02*
X335908Y288222D01*
X335910Y288335D01*
X335916Y288448D01*
X335926Y288561D01*
X335940Y288674D01*
X335957Y288786D01*
X335979Y288897D01*
X336004Y289007D01*
X336034Y289117D01*
X336067Y289225D01*
X336104Y289332D01*
X336144Y289438D01*
X336189Y289542D01*
X336237Y289645D01*
X336288Y289746D01*
X336343Y289845D01*
X336401Y289942D01*
X336463Y290037D01*
X336528Y290130D01*
X336596Y290220D01*
X336667Y290308D01*
X336742Y290394D01*
X336819Y290477D01*
X336899Y290557D01*
X336982Y290634D01*
X337068Y290709D01*
X337156Y290780D01*
X337246Y290848D01*
X337339Y290913D01*
X337434Y290975D01*
X337531Y291033D01*
X337630Y291088D01*
X337731Y291139D01*
X337834Y291187D01*
X337938Y291232D01*
X338044Y291272D01*
X338151Y291309D01*
X338259Y291342D01*
X338369Y291372D01*
X338479Y291397D01*
X338590Y291419D01*
X338702Y291436D01*
X338815Y291450D01*
X338928Y291460D01*
X339041Y291466D01*
X339154Y291468D01*
X339267Y291466D01*
X339380Y291460D01*
X339493Y291450D01*
X339606Y291436D01*
X339718Y291419D01*
X339829Y291397D01*
X339939Y291372D01*
X340049Y291342D01*
X340157Y291309D01*
X340264Y291272D01*
X340370Y291232D01*
X340474Y291187D01*
X340577Y291139D01*
X340678Y291088D01*
X340777Y291033D01*
X340874Y290975D01*
X340969Y290913D01*
X341062Y290848D01*
X341152Y290780D01*
X341240Y290709D01*
X341326Y290634D01*
X341409Y290557D01*
X341489Y290477D01*
X341566Y290394D01*
X341641Y290308D01*
X341712Y290220D01*
X341780Y290130D01*
X341845Y290037D01*
X341907Y289942D01*
X341965Y289845D01*
X342020Y289746D01*
X342071Y289645D01*
X342119Y289542D01*
X342164Y289438D01*
X342204Y289332D01*
X342241Y289225D01*
X342274Y289117D01*
X342304Y289007D01*
X342329Y288897D01*
X342351Y288786D01*
X342368Y288674D01*
X342382Y288561D01*
X342392Y288448D01*
X342398Y288335D01*
X342400Y288222D01*
X342399Y288222D02*
X342399Y284976D01*
X342399Y288871D02*
X347592Y291467D01*
X347592Y298896D02*
X347592Y301492D01*
X347592Y298896D02*
X347590Y298797D01*
X347584Y298697D01*
X347575Y298598D01*
X347562Y298500D01*
X347545Y298402D01*
X347524Y298304D01*
X347499Y298208D01*
X347471Y298113D01*
X347439Y298019D01*
X347404Y297926D01*
X347365Y297834D01*
X347322Y297744D01*
X347277Y297656D01*
X347227Y297569D01*
X347175Y297485D01*
X347119Y297402D01*
X347061Y297322D01*
X346999Y297244D01*
X346934Y297169D01*
X346866Y297096D01*
X346796Y297026D01*
X346723Y296958D01*
X346648Y296893D01*
X346570Y296831D01*
X346490Y296773D01*
X346407Y296717D01*
X346323Y296665D01*
X346236Y296615D01*
X346148Y296570D01*
X346058Y296527D01*
X345966Y296488D01*
X345873Y296453D01*
X345779Y296421D01*
X345684Y296393D01*
X345588Y296368D01*
X345490Y296347D01*
X345392Y296330D01*
X345294Y296317D01*
X345195Y296308D01*
X345095Y296302D01*
X344996Y296300D01*
X344996Y296299D02*
X338504Y296299D01*
X338405Y296301D01*
X338305Y296307D01*
X338206Y296316D01*
X338108Y296329D01*
X338010Y296347D01*
X337912Y296367D01*
X337816Y296392D01*
X337720Y296420D01*
X337626Y296452D01*
X337533Y296487D01*
X337442Y296526D01*
X337352Y296569D01*
X337263Y296614D01*
X337177Y296664D01*
X337092Y296716D01*
X337010Y296772D01*
X336930Y296831D01*
X336852Y296892D01*
X336776Y296957D01*
X336703Y297025D01*
X336633Y297095D01*
X336565Y297168D01*
X336500Y297244D01*
X336439Y297322D01*
X336380Y297402D01*
X336324Y297484D01*
X336272Y297569D01*
X336223Y297655D01*
X336177Y297744D01*
X336134Y297834D01*
X336095Y297925D01*
X336060Y298018D01*
X336028Y298112D01*
X336000Y298208D01*
X335975Y298304D01*
X335955Y298402D01*
X335937Y298500D01*
X335924Y298598D01*
X335915Y298697D01*
X335909Y298796D01*
X335907Y298896D01*
X335908Y298896D02*
X335908Y301492D01*
M02*
