G04 EAGLE Gerber RS-274X export*
G75*
%MOMM*%
%FSLAX34Y34*%
%LPD*%
%INSilkscreen Bottom*%
%IPPOS*%
%AMOC8*
5,1,8,0,0,1.08239X$1,22.5*%
G01*
%ADD10C,0.127000*%
%ADD11C,0.101600*%


D10*
X64400Y277000D02*
X64400Y162000D01*
X189600Y162000D01*
X189600Y277000D01*
X184600Y277000D01*
X69400Y277000D02*
X64400Y277000D01*
X184600Y277000D02*
X184600Y232000D01*
X69400Y232000D01*
X69400Y277000D01*
D11*
X170801Y282504D02*
X170803Y282405D01*
X170809Y282305D01*
X170818Y282206D01*
X170831Y282108D01*
X170848Y282010D01*
X170869Y281912D01*
X170894Y281816D01*
X170922Y281721D01*
X170954Y281627D01*
X170989Y281534D01*
X171028Y281442D01*
X171071Y281352D01*
X171116Y281264D01*
X171166Y281177D01*
X171218Y281093D01*
X171274Y281010D01*
X171332Y280930D01*
X171394Y280852D01*
X171459Y280777D01*
X171527Y280704D01*
X171597Y280634D01*
X171670Y280566D01*
X171745Y280501D01*
X171823Y280439D01*
X171903Y280381D01*
X171986Y280325D01*
X172070Y280273D01*
X172157Y280223D01*
X172245Y280178D01*
X172335Y280135D01*
X172427Y280096D01*
X172520Y280061D01*
X172614Y280029D01*
X172709Y280001D01*
X172805Y279976D01*
X172903Y279955D01*
X173001Y279938D01*
X173099Y279925D01*
X173198Y279916D01*
X173298Y279910D01*
X173397Y279908D01*
X173541Y279910D01*
X173686Y279916D01*
X173830Y279925D01*
X173973Y279938D01*
X174117Y279955D01*
X174260Y279976D01*
X174402Y280001D01*
X174543Y280029D01*
X174684Y280061D01*
X174824Y280097D01*
X174963Y280136D01*
X175101Y280179D01*
X175237Y280226D01*
X175373Y280276D01*
X175507Y280330D01*
X175639Y280387D01*
X175770Y280448D01*
X175899Y280512D01*
X176027Y280580D01*
X176153Y280651D01*
X176277Y280725D01*
X176398Y280802D01*
X176518Y280883D01*
X176636Y280966D01*
X176751Y281053D01*
X176864Y281143D01*
X176975Y281236D01*
X177083Y281331D01*
X177189Y281430D01*
X177292Y281531D01*
X176967Y288996D02*
X176965Y289095D01*
X176959Y289195D01*
X176950Y289294D01*
X176937Y289392D01*
X176920Y289490D01*
X176899Y289588D01*
X176874Y289684D01*
X176846Y289779D01*
X176814Y289873D01*
X176779Y289966D01*
X176740Y290058D01*
X176697Y290148D01*
X176652Y290236D01*
X176602Y290323D01*
X176550Y290407D01*
X176494Y290490D01*
X176436Y290570D01*
X176374Y290648D01*
X176309Y290723D01*
X176241Y290796D01*
X176171Y290866D01*
X176098Y290934D01*
X176023Y290999D01*
X175945Y291061D01*
X175865Y291119D01*
X175782Y291175D01*
X175698Y291227D01*
X175611Y291277D01*
X175523Y291322D01*
X175433Y291365D01*
X175341Y291404D01*
X175248Y291439D01*
X175154Y291471D01*
X175059Y291499D01*
X174963Y291524D01*
X174865Y291545D01*
X174767Y291562D01*
X174669Y291575D01*
X174570Y291584D01*
X174470Y291590D01*
X174371Y291592D01*
X174235Y291590D01*
X174099Y291584D01*
X173963Y291575D01*
X173827Y291562D01*
X173692Y291544D01*
X173558Y291524D01*
X173424Y291499D01*
X173290Y291471D01*
X173158Y291438D01*
X173027Y291403D01*
X172896Y291363D01*
X172767Y291320D01*
X172639Y291274D01*
X172513Y291223D01*
X172387Y291170D01*
X172264Y291112D01*
X172142Y291052D01*
X172022Y290988D01*
X171903Y290920D01*
X171787Y290850D01*
X171673Y290776D01*
X171560Y290699D01*
X171450Y290618D01*
X175669Y286724D02*
X175755Y286777D01*
X175839Y286834D01*
X175921Y286893D01*
X176001Y286956D01*
X176078Y287022D01*
X176153Y287090D01*
X176225Y287162D01*
X176294Y287236D01*
X176360Y287313D01*
X176423Y287392D01*
X176483Y287474D01*
X176540Y287558D01*
X176594Y287644D01*
X176644Y287732D01*
X176691Y287822D01*
X176735Y287913D01*
X176774Y288007D01*
X176811Y288101D01*
X176843Y288197D01*
X176872Y288295D01*
X176897Y288393D01*
X176918Y288492D01*
X176936Y288592D01*
X176949Y288692D01*
X176959Y288793D01*
X176965Y288895D01*
X176967Y288996D01*
X172099Y284776D02*
X172013Y284723D01*
X171929Y284666D01*
X171847Y284607D01*
X171767Y284544D01*
X171690Y284478D01*
X171615Y284410D01*
X171543Y284338D01*
X171474Y284264D01*
X171408Y284187D01*
X171345Y284108D01*
X171285Y284026D01*
X171228Y283942D01*
X171174Y283856D01*
X171124Y283768D01*
X171077Y283678D01*
X171033Y283587D01*
X170994Y283493D01*
X170957Y283399D01*
X170925Y283303D01*
X170896Y283205D01*
X170871Y283107D01*
X170850Y283008D01*
X170832Y282908D01*
X170819Y282808D01*
X170809Y282707D01*
X170803Y282605D01*
X170801Y282504D01*
X172099Y284776D02*
X175669Y286724D01*
X165283Y291592D02*
X165283Y279908D01*
X163985Y279908D02*
X166582Y279908D01*
X166582Y291592D02*
X163985Y291592D01*
X154460Y286399D02*
X152513Y286399D01*
X152513Y279908D01*
X156408Y279908D01*
X156507Y279910D01*
X156607Y279916D01*
X156706Y279925D01*
X156804Y279938D01*
X156902Y279955D01*
X157000Y279976D01*
X157096Y280001D01*
X157191Y280029D01*
X157285Y280061D01*
X157378Y280096D01*
X157470Y280135D01*
X157560Y280178D01*
X157648Y280223D01*
X157735Y280273D01*
X157819Y280325D01*
X157902Y280381D01*
X157982Y280439D01*
X158060Y280501D01*
X158135Y280566D01*
X158208Y280634D01*
X158278Y280704D01*
X158346Y280777D01*
X158411Y280852D01*
X158473Y280930D01*
X158531Y281010D01*
X158587Y281093D01*
X158639Y281177D01*
X158689Y281264D01*
X158734Y281352D01*
X158777Y281442D01*
X158816Y281534D01*
X158851Y281627D01*
X158883Y281721D01*
X158911Y281816D01*
X158936Y281912D01*
X158957Y282010D01*
X158974Y282108D01*
X158987Y282206D01*
X158996Y282305D01*
X159002Y282405D01*
X159004Y282504D01*
X159004Y288996D01*
X159002Y289095D01*
X158996Y289195D01*
X158987Y289294D01*
X158974Y289392D01*
X158957Y289490D01*
X158936Y289588D01*
X158911Y289684D01*
X158883Y289779D01*
X158851Y289873D01*
X158816Y289966D01*
X158777Y290058D01*
X158734Y290148D01*
X158689Y290236D01*
X158639Y290323D01*
X158587Y290407D01*
X158531Y290490D01*
X158473Y290570D01*
X158411Y290648D01*
X158346Y290723D01*
X158278Y290796D01*
X158208Y290866D01*
X158135Y290934D01*
X158060Y290999D01*
X157982Y291061D01*
X157902Y291119D01*
X157819Y291175D01*
X157735Y291227D01*
X157648Y291277D01*
X157560Y291322D01*
X157470Y291365D01*
X157378Y291404D01*
X157285Y291439D01*
X157191Y291471D01*
X157096Y291499D01*
X157000Y291524D01*
X156902Y291545D01*
X156804Y291562D01*
X156706Y291575D01*
X156607Y291584D01*
X156507Y291590D01*
X156408Y291592D01*
X152513Y291592D01*
X146812Y291592D02*
X146812Y279908D01*
X140321Y279908D02*
X146812Y291592D01*
X140321Y291592D02*
X140321Y279908D01*
X135650Y279908D02*
X131756Y291592D01*
X127861Y279908D01*
X128835Y282829D02*
X134677Y282829D01*
X123168Y279908D02*
X123168Y291592D01*
X123168Y279908D02*
X117975Y279908D01*
D10*
X64400Y200800D02*
X64400Y85800D01*
X189600Y85800D01*
X189600Y200800D01*
X184600Y200800D01*
X69400Y200800D02*
X64400Y200800D01*
X184600Y200800D02*
X184600Y155800D01*
X69400Y155800D01*
X69400Y200800D01*
D11*
X170801Y206304D02*
X170803Y206205D01*
X170809Y206105D01*
X170818Y206006D01*
X170831Y205908D01*
X170848Y205810D01*
X170869Y205712D01*
X170894Y205616D01*
X170922Y205521D01*
X170954Y205427D01*
X170989Y205334D01*
X171028Y205242D01*
X171071Y205152D01*
X171116Y205064D01*
X171166Y204977D01*
X171218Y204893D01*
X171274Y204810D01*
X171332Y204730D01*
X171394Y204652D01*
X171459Y204577D01*
X171527Y204504D01*
X171597Y204434D01*
X171670Y204366D01*
X171745Y204301D01*
X171823Y204239D01*
X171903Y204181D01*
X171986Y204125D01*
X172070Y204073D01*
X172157Y204023D01*
X172245Y203978D01*
X172335Y203935D01*
X172427Y203896D01*
X172520Y203861D01*
X172614Y203829D01*
X172709Y203801D01*
X172805Y203776D01*
X172903Y203755D01*
X173001Y203738D01*
X173099Y203725D01*
X173198Y203716D01*
X173298Y203710D01*
X173397Y203708D01*
X173541Y203710D01*
X173686Y203716D01*
X173830Y203725D01*
X173973Y203738D01*
X174117Y203755D01*
X174260Y203776D01*
X174402Y203801D01*
X174543Y203829D01*
X174684Y203861D01*
X174824Y203897D01*
X174963Y203936D01*
X175101Y203979D01*
X175237Y204026D01*
X175373Y204076D01*
X175507Y204130D01*
X175639Y204187D01*
X175770Y204248D01*
X175899Y204312D01*
X176027Y204380D01*
X176153Y204451D01*
X176277Y204525D01*
X176398Y204602D01*
X176518Y204683D01*
X176636Y204766D01*
X176751Y204853D01*
X176864Y204943D01*
X176975Y205036D01*
X177083Y205131D01*
X177189Y205230D01*
X177292Y205331D01*
X176967Y212796D02*
X176965Y212895D01*
X176959Y212995D01*
X176950Y213094D01*
X176937Y213192D01*
X176920Y213290D01*
X176899Y213388D01*
X176874Y213484D01*
X176846Y213579D01*
X176814Y213673D01*
X176779Y213766D01*
X176740Y213858D01*
X176697Y213948D01*
X176652Y214036D01*
X176602Y214123D01*
X176550Y214207D01*
X176494Y214290D01*
X176436Y214370D01*
X176374Y214448D01*
X176309Y214523D01*
X176241Y214596D01*
X176171Y214666D01*
X176098Y214734D01*
X176023Y214799D01*
X175945Y214861D01*
X175865Y214919D01*
X175782Y214975D01*
X175698Y215027D01*
X175611Y215077D01*
X175523Y215122D01*
X175433Y215165D01*
X175341Y215204D01*
X175248Y215239D01*
X175154Y215271D01*
X175059Y215299D01*
X174963Y215324D01*
X174865Y215345D01*
X174767Y215362D01*
X174669Y215375D01*
X174570Y215384D01*
X174470Y215390D01*
X174371Y215392D01*
X174235Y215390D01*
X174099Y215384D01*
X173963Y215375D01*
X173827Y215362D01*
X173692Y215344D01*
X173558Y215324D01*
X173424Y215299D01*
X173290Y215271D01*
X173158Y215238D01*
X173027Y215203D01*
X172896Y215163D01*
X172767Y215120D01*
X172639Y215074D01*
X172513Y215023D01*
X172387Y214970D01*
X172264Y214912D01*
X172142Y214852D01*
X172022Y214788D01*
X171903Y214720D01*
X171787Y214650D01*
X171673Y214576D01*
X171560Y214499D01*
X171450Y214418D01*
X175669Y210524D02*
X175755Y210577D01*
X175839Y210634D01*
X175921Y210693D01*
X176001Y210756D01*
X176078Y210822D01*
X176153Y210890D01*
X176225Y210962D01*
X176294Y211036D01*
X176360Y211113D01*
X176423Y211192D01*
X176483Y211274D01*
X176540Y211358D01*
X176594Y211444D01*
X176644Y211532D01*
X176691Y211622D01*
X176735Y211713D01*
X176774Y211807D01*
X176811Y211901D01*
X176843Y211997D01*
X176872Y212095D01*
X176897Y212193D01*
X176918Y212292D01*
X176936Y212392D01*
X176949Y212492D01*
X176959Y212593D01*
X176965Y212695D01*
X176967Y212796D01*
X172099Y208576D02*
X172013Y208523D01*
X171929Y208466D01*
X171847Y208407D01*
X171767Y208344D01*
X171690Y208278D01*
X171615Y208210D01*
X171543Y208138D01*
X171474Y208064D01*
X171408Y207987D01*
X171345Y207908D01*
X171285Y207826D01*
X171228Y207742D01*
X171174Y207656D01*
X171124Y207568D01*
X171077Y207478D01*
X171033Y207387D01*
X170994Y207293D01*
X170957Y207199D01*
X170925Y207103D01*
X170896Y207005D01*
X170871Y206907D01*
X170850Y206808D01*
X170832Y206708D01*
X170819Y206608D01*
X170809Y206507D01*
X170803Y206405D01*
X170801Y206304D01*
X172099Y208576D02*
X175669Y210524D01*
X165283Y215392D02*
X165283Y203708D01*
X163985Y203708D02*
X166582Y203708D01*
X166582Y215392D02*
X163985Y215392D01*
X154460Y210199D02*
X152513Y210199D01*
X152513Y203708D01*
X156408Y203708D01*
X156507Y203710D01*
X156607Y203716D01*
X156706Y203725D01*
X156804Y203738D01*
X156902Y203755D01*
X157000Y203776D01*
X157096Y203801D01*
X157191Y203829D01*
X157285Y203861D01*
X157378Y203896D01*
X157470Y203935D01*
X157560Y203978D01*
X157648Y204023D01*
X157735Y204073D01*
X157819Y204125D01*
X157902Y204181D01*
X157982Y204239D01*
X158060Y204301D01*
X158135Y204366D01*
X158208Y204434D01*
X158278Y204504D01*
X158346Y204577D01*
X158411Y204652D01*
X158473Y204730D01*
X158531Y204810D01*
X158587Y204893D01*
X158639Y204977D01*
X158689Y205064D01*
X158734Y205152D01*
X158777Y205242D01*
X158816Y205334D01*
X158851Y205427D01*
X158883Y205521D01*
X158911Y205616D01*
X158936Y205712D01*
X158957Y205810D01*
X158974Y205908D01*
X158987Y206006D01*
X158996Y206105D01*
X159002Y206205D01*
X159004Y206304D01*
X159004Y212796D01*
X159002Y212895D01*
X158996Y212995D01*
X158987Y213094D01*
X158974Y213192D01*
X158957Y213290D01*
X158936Y213388D01*
X158911Y213484D01*
X158883Y213579D01*
X158851Y213673D01*
X158816Y213766D01*
X158777Y213858D01*
X158734Y213948D01*
X158689Y214036D01*
X158639Y214123D01*
X158587Y214207D01*
X158531Y214290D01*
X158473Y214370D01*
X158411Y214448D01*
X158346Y214523D01*
X158278Y214596D01*
X158208Y214666D01*
X158135Y214734D01*
X158060Y214799D01*
X157982Y214861D01*
X157902Y214919D01*
X157819Y214975D01*
X157735Y215027D01*
X157648Y215077D01*
X157560Y215122D01*
X157470Y215165D01*
X157378Y215204D01*
X157285Y215239D01*
X157191Y215271D01*
X157096Y215299D01*
X157000Y215324D01*
X156902Y215345D01*
X156804Y215362D01*
X156706Y215375D01*
X156607Y215384D01*
X156507Y215390D01*
X156408Y215392D01*
X152513Y215392D01*
X146812Y215392D02*
X146812Y203708D01*
X140321Y203708D02*
X146812Y215392D01*
X140321Y215392D02*
X140321Y203708D01*
X135650Y203708D02*
X131756Y215392D01*
X127861Y203708D01*
X128835Y206629D02*
X134677Y206629D01*
X123168Y203708D02*
X123168Y215392D01*
X123168Y203708D02*
X117975Y203708D01*
X113665Y212796D02*
X110420Y215392D01*
X110420Y203708D01*
X113665Y203708D02*
X107174Y203708D01*
D10*
X114300Y137800D02*
X126100Y137800D01*
X51700Y137800D02*
X51700Y80300D01*
X126100Y80300D01*
X126100Y137800D01*
X114300Y137800D02*
X114300Y132080D01*
X107950Y132080D01*
X107950Y137800D01*
X69850Y137800D02*
X69850Y132080D01*
X63500Y132080D01*
X63500Y137800D01*
X51700Y137800D01*
X69850Y137800D02*
X107950Y137800D01*
D11*
X121299Y140208D02*
X123896Y140208D01*
X123995Y140210D01*
X124095Y140216D01*
X124194Y140225D01*
X124292Y140238D01*
X124390Y140255D01*
X124488Y140276D01*
X124584Y140301D01*
X124679Y140329D01*
X124773Y140361D01*
X124866Y140396D01*
X124958Y140435D01*
X125048Y140478D01*
X125136Y140523D01*
X125223Y140573D01*
X125307Y140625D01*
X125390Y140681D01*
X125470Y140739D01*
X125548Y140801D01*
X125623Y140866D01*
X125696Y140934D01*
X125766Y141004D01*
X125834Y141077D01*
X125899Y141152D01*
X125961Y141230D01*
X126019Y141310D01*
X126075Y141393D01*
X126127Y141477D01*
X126177Y141564D01*
X126222Y141652D01*
X126265Y141742D01*
X126304Y141834D01*
X126339Y141927D01*
X126371Y142021D01*
X126399Y142116D01*
X126424Y142212D01*
X126445Y142310D01*
X126462Y142408D01*
X126475Y142506D01*
X126484Y142605D01*
X126490Y142705D01*
X126492Y142804D01*
X126492Y149296D01*
X126490Y149395D01*
X126484Y149495D01*
X126475Y149594D01*
X126462Y149692D01*
X126445Y149790D01*
X126424Y149888D01*
X126399Y149984D01*
X126371Y150079D01*
X126339Y150173D01*
X126304Y150266D01*
X126265Y150358D01*
X126222Y150448D01*
X126177Y150536D01*
X126127Y150623D01*
X126075Y150707D01*
X126019Y150790D01*
X125961Y150870D01*
X125899Y150948D01*
X125834Y151023D01*
X125766Y151096D01*
X125696Y151166D01*
X125623Y151234D01*
X125548Y151299D01*
X125470Y151361D01*
X125390Y151419D01*
X125307Y151475D01*
X125223Y151527D01*
X125136Y151577D01*
X125048Y151622D01*
X124958Y151665D01*
X124866Y151704D01*
X124773Y151739D01*
X124679Y151771D01*
X124584Y151799D01*
X124488Y151824D01*
X124390Y151845D01*
X124292Y151862D01*
X124194Y151875D01*
X124095Y151884D01*
X123995Y151890D01*
X123896Y151892D01*
X121299Y151892D01*
X116934Y148646D02*
X116934Y143454D01*
X116934Y148646D02*
X116932Y148759D01*
X116926Y148872D01*
X116916Y148985D01*
X116902Y149098D01*
X116885Y149210D01*
X116863Y149321D01*
X116838Y149431D01*
X116808Y149541D01*
X116775Y149649D01*
X116738Y149756D01*
X116698Y149862D01*
X116653Y149966D01*
X116605Y150069D01*
X116554Y150170D01*
X116499Y150269D01*
X116441Y150366D01*
X116379Y150461D01*
X116314Y150554D01*
X116246Y150644D01*
X116175Y150732D01*
X116100Y150818D01*
X116023Y150901D01*
X115943Y150981D01*
X115860Y151058D01*
X115774Y151133D01*
X115686Y151204D01*
X115596Y151272D01*
X115503Y151337D01*
X115408Y151399D01*
X115311Y151457D01*
X115212Y151512D01*
X115111Y151563D01*
X115008Y151611D01*
X114904Y151656D01*
X114798Y151696D01*
X114691Y151733D01*
X114583Y151766D01*
X114473Y151796D01*
X114363Y151821D01*
X114252Y151843D01*
X114140Y151860D01*
X114027Y151874D01*
X113914Y151884D01*
X113801Y151890D01*
X113688Y151892D01*
X113575Y151890D01*
X113462Y151884D01*
X113349Y151874D01*
X113236Y151860D01*
X113124Y151843D01*
X113013Y151821D01*
X112903Y151796D01*
X112793Y151766D01*
X112685Y151733D01*
X112578Y151696D01*
X112472Y151656D01*
X112368Y151611D01*
X112265Y151563D01*
X112164Y151512D01*
X112065Y151457D01*
X111968Y151399D01*
X111873Y151337D01*
X111780Y151272D01*
X111690Y151204D01*
X111602Y151133D01*
X111516Y151058D01*
X111433Y150981D01*
X111353Y150901D01*
X111276Y150818D01*
X111201Y150732D01*
X111130Y150644D01*
X111062Y150554D01*
X110997Y150461D01*
X110935Y150366D01*
X110877Y150269D01*
X110822Y150170D01*
X110771Y150069D01*
X110723Y149966D01*
X110678Y149862D01*
X110638Y149756D01*
X110601Y149649D01*
X110568Y149541D01*
X110538Y149431D01*
X110513Y149321D01*
X110491Y149210D01*
X110474Y149098D01*
X110460Y148985D01*
X110450Y148872D01*
X110444Y148759D01*
X110442Y148646D01*
X110443Y148646D02*
X110443Y143454D01*
X110442Y143454D02*
X110444Y143341D01*
X110450Y143228D01*
X110460Y143115D01*
X110474Y143002D01*
X110491Y142890D01*
X110513Y142779D01*
X110538Y142669D01*
X110568Y142559D01*
X110601Y142451D01*
X110638Y142344D01*
X110678Y142238D01*
X110723Y142134D01*
X110771Y142031D01*
X110822Y141930D01*
X110877Y141831D01*
X110935Y141734D01*
X110997Y141639D01*
X111062Y141546D01*
X111130Y141456D01*
X111201Y141368D01*
X111276Y141282D01*
X111353Y141199D01*
X111433Y141119D01*
X111516Y141042D01*
X111602Y140967D01*
X111690Y140896D01*
X111780Y140828D01*
X111873Y140763D01*
X111968Y140701D01*
X112065Y140643D01*
X112164Y140588D01*
X112265Y140537D01*
X112368Y140489D01*
X112472Y140444D01*
X112578Y140404D01*
X112685Y140367D01*
X112793Y140334D01*
X112903Y140304D01*
X113013Y140279D01*
X113124Y140257D01*
X113236Y140240D01*
X113349Y140226D01*
X113462Y140216D01*
X113575Y140210D01*
X113688Y140208D01*
X113801Y140210D01*
X113914Y140216D01*
X114027Y140226D01*
X114140Y140240D01*
X114252Y140257D01*
X114363Y140279D01*
X114473Y140304D01*
X114583Y140334D01*
X114691Y140367D01*
X114798Y140404D01*
X114904Y140444D01*
X115008Y140489D01*
X115111Y140537D01*
X115212Y140588D01*
X115311Y140643D01*
X115408Y140701D01*
X115503Y140763D01*
X115596Y140828D01*
X115686Y140896D01*
X115774Y140967D01*
X115860Y141042D01*
X115943Y141119D01*
X116023Y141199D01*
X116100Y141282D01*
X116175Y141368D01*
X116246Y141456D01*
X116314Y141546D01*
X116379Y141639D01*
X116441Y141734D01*
X116499Y141831D01*
X116554Y141930D01*
X116605Y142031D01*
X116653Y142134D01*
X116698Y142238D01*
X116738Y142344D01*
X116775Y142451D01*
X116808Y142559D01*
X116838Y142669D01*
X116863Y142779D01*
X116885Y142890D01*
X116902Y143002D01*
X116916Y143115D01*
X116926Y143228D01*
X116932Y143341D01*
X116934Y143454D01*
X105123Y140208D02*
X105123Y151892D01*
X98632Y140208D01*
X98632Y151892D01*
X93312Y149296D02*
X90066Y151892D01*
X90066Y140208D01*
X86821Y140208D02*
X93312Y140208D01*
D10*
X203200Y137800D02*
X215000Y137800D01*
X140600Y137800D02*
X140600Y80300D01*
X215000Y80300D01*
X215000Y137800D01*
X203200Y137800D02*
X203200Y132080D01*
X196850Y132080D01*
X196850Y137800D01*
X158750Y137800D02*
X158750Y132080D01*
X152400Y132080D01*
X152400Y137800D01*
X140600Y137800D01*
X158750Y137800D02*
X196850Y137800D01*
D11*
X210199Y140208D02*
X212796Y140208D01*
X212895Y140210D01*
X212995Y140216D01*
X213094Y140225D01*
X213192Y140238D01*
X213290Y140255D01*
X213388Y140276D01*
X213484Y140301D01*
X213579Y140329D01*
X213673Y140361D01*
X213766Y140396D01*
X213858Y140435D01*
X213948Y140478D01*
X214036Y140523D01*
X214123Y140573D01*
X214207Y140625D01*
X214290Y140681D01*
X214370Y140739D01*
X214448Y140801D01*
X214523Y140866D01*
X214596Y140934D01*
X214666Y141004D01*
X214734Y141077D01*
X214799Y141152D01*
X214861Y141230D01*
X214919Y141310D01*
X214975Y141393D01*
X215027Y141477D01*
X215077Y141564D01*
X215122Y141652D01*
X215165Y141742D01*
X215204Y141834D01*
X215239Y141927D01*
X215271Y142021D01*
X215299Y142116D01*
X215324Y142212D01*
X215345Y142310D01*
X215362Y142408D01*
X215375Y142506D01*
X215384Y142605D01*
X215390Y142705D01*
X215392Y142804D01*
X215392Y149296D01*
X215390Y149395D01*
X215384Y149495D01*
X215375Y149594D01*
X215362Y149692D01*
X215345Y149790D01*
X215324Y149888D01*
X215299Y149984D01*
X215271Y150079D01*
X215239Y150173D01*
X215204Y150266D01*
X215165Y150358D01*
X215122Y150448D01*
X215077Y150536D01*
X215027Y150623D01*
X214975Y150707D01*
X214919Y150790D01*
X214861Y150870D01*
X214799Y150948D01*
X214734Y151023D01*
X214666Y151096D01*
X214596Y151166D01*
X214523Y151234D01*
X214448Y151299D01*
X214370Y151361D01*
X214290Y151419D01*
X214207Y151475D01*
X214123Y151527D01*
X214036Y151577D01*
X213948Y151622D01*
X213858Y151665D01*
X213766Y151704D01*
X213673Y151739D01*
X213579Y151771D01*
X213484Y151799D01*
X213388Y151824D01*
X213290Y151845D01*
X213192Y151862D01*
X213094Y151875D01*
X212995Y151884D01*
X212895Y151890D01*
X212796Y151892D01*
X210199Y151892D01*
X205834Y148646D02*
X205834Y143454D01*
X205834Y148646D02*
X205832Y148759D01*
X205826Y148872D01*
X205816Y148985D01*
X205802Y149098D01*
X205785Y149210D01*
X205763Y149321D01*
X205738Y149431D01*
X205708Y149541D01*
X205675Y149649D01*
X205638Y149756D01*
X205598Y149862D01*
X205553Y149966D01*
X205505Y150069D01*
X205454Y150170D01*
X205399Y150269D01*
X205341Y150366D01*
X205279Y150461D01*
X205214Y150554D01*
X205146Y150644D01*
X205075Y150732D01*
X205000Y150818D01*
X204923Y150901D01*
X204843Y150981D01*
X204760Y151058D01*
X204674Y151133D01*
X204586Y151204D01*
X204496Y151272D01*
X204403Y151337D01*
X204308Y151399D01*
X204211Y151457D01*
X204112Y151512D01*
X204011Y151563D01*
X203908Y151611D01*
X203804Y151656D01*
X203698Y151696D01*
X203591Y151733D01*
X203483Y151766D01*
X203373Y151796D01*
X203263Y151821D01*
X203152Y151843D01*
X203040Y151860D01*
X202927Y151874D01*
X202814Y151884D01*
X202701Y151890D01*
X202588Y151892D01*
X202475Y151890D01*
X202362Y151884D01*
X202249Y151874D01*
X202136Y151860D01*
X202024Y151843D01*
X201913Y151821D01*
X201803Y151796D01*
X201693Y151766D01*
X201585Y151733D01*
X201478Y151696D01*
X201372Y151656D01*
X201268Y151611D01*
X201165Y151563D01*
X201064Y151512D01*
X200965Y151457D01*
X200868Y151399D01*
X200773Y151337D01*
X200680Y151272D01*
X200590Y151204D01*
X200502Y151133D01*
X200416Y151058D01*
X200333Y150981D01*
X200253Y150901D01*
X200176Y150818D01*
X200101Y150732D01*
X200030Y150644D01*
X199962Y150554D01*
X199897Y150461D01*
X199835Y150366D01*
X199777Y150269D01*
X199722Y150170D01*
X199671Y150069D01*
X199623Y149966D01*
X199578Y149862D01*
X199538Y149756D01*
X199501Y149649D01*
X199468Y149541D01*
X199438Y149431D01*
X199413Y149321D01*
X199391Y149210D01*
X199374Y149098D01*
X199360Y148985D01*
X199350Y148872D01*
X199344Y148759D01*
X199342Y148646D01*
X199343Y148646D02*
X199343Y143454D01*
X199342Y143454D02*
X199344Y143341D01*
X199350Y143228D01*
X199360Y143115D01*
X199374Y143002D01*
X199391Y142890D01*
X199413Y142779D01*
X199438Y142669D01*
X199468Y142559D01*
X199501Y142451D01*
X199538Y142344D01*
X199578Y142238D01*
X199623Y142134D01*
X199671Y142031D01*
X199722Y141930D01*
X199777Y141831D01*
X199835Y141734D01*
X199897Y141639D01*
X199962Y141546D01*
X200030Y141456D01*
X200101Y141368D01*
X200176Y141282D01*
X200253Y141199D01*
X200333Y141119D01*
X200416Y141042D01*
X200502Y140967D01*
X200590Y140896D01*
X200680Y140828D01*
X200773Y140763D01*
X200868Y140701D01*
X200965Y140643D01*
X201064Y140588D01*
X201165Y140537D01*
X201268Y140489D01*
X201372Y140444D01*
X201478Y140404D01*
X201585Y140367D01*
X201693Y140334D01*
X201803Y140304D01*
X201913Y140279D01*
X202024Y140257D01*
X202136Y140240D01*
X202249Y140226D01*
X202362Y140216D01*
X202475Y140210D01*
X202588Y140208D01*
X202701Y140210D01*
X202814Y140216D01*
X202927Y140226D01*
X203040Y140240D01*
X203152Y140257D01*
X203263Y140279D01*
X203373Y140304D01*
X203483Y140334D01*
X203591Y140367D01*
X203698Y140404D01*
X203804Y140444D01*
X203908Y140489D01*
X204011Y140537D01*
X204112Y140588D01*
X204211Y140643D01*
X204308Y140701D01*
X204403Y140763D01*
X204496Y140828D01*
X204586Y140896D01*
X204674Y140967D01*
X204760Y141042D01*
X204843Y141119D01*
X204923Y141199D01*
X205000Y141282D01*
X205075Y141368D01*
X205146Y141456D01*
X205214Y141546D01*
X205279Y141639D01*
X205341Y141734D01*
X205399Y141831D01*
X205454Y141930D01*
X205505Y142031D01*
X205553Y142134D01*
X205598Y142238D01*
X205638Y142344D01*
X205675Y142451D01*
X205708Y142559D01*
X205738Y142669D01*
X205763Y142779D01*
X205785Y142890D01*
X205802Y143002D01*
X205816Y143115D01*
X205826Y143228D01*
X205832Y143341D01*
X205834Y143454D01*
X194023Y140208D02*
X194023Y151892D01*
X187532Y140208D01*
X187532Y151892D01*
X178642Y151892D02*
X178535Y151890D01*
X178429Y151884D01*
X178323Y151874D01*
X178217Y151861D01*
X178111Y151843D01*
X178007Y151822D01*
X177903Y151797D01*
X177800Y151768D01*
X177699Y151736D01*
X177599Y151699D01*
X177500Y151659D01*
X177402Y151616D01*
X177306Y151569D01*
X177212Y151518D01*
X177120Y151464D01*
X177030Y151407D01*
X176942Y151347D01*
X176857Y151283D01*
X176774Y151216D01*
X176693Y151146D01*
X176615Y151074D01*
X176539Y150998D01*
X176467Y150920D01*
X176397Y150839D01*
X176330Y150756D01*
X176266Y150671D01*
X176206Y150583D01*
X176149Y150493D01*
X176095Y150401D01*
X176044Y150307D01*
X175997Y150211D01*
X175954Y150113D01*
X175914Y150014D01*
X175877Y149914D01*
X175845Y149813D01*
X175816Y149710D01*
X175791Y149606D01*
X175770Y149502D01*
X175752Y149396D01*
X175739Y149290D01*
X175729Y149184D01*
X175723Y149078D01*
X175721Y148971D01*
X178642Y151892D02*
X178763Y151890D01*
X178884Y151884D01*
X179004Y151874D01*
X179125Y151861D01*
X179244Y151843D01*
X179364Y151822D01*
X179482Y151797D01*
X179599Y151768D01*
X179716Y151735D01*
X179831Y151699D01*
X179945Y151658D01*
X180058Y151615D01*
X180170Y151567D01*
X180279Y151516D01*
X180387Y151461D01*
X180494Y151403D01*
X180598Y151342D01*
X180700Y151277D01*
X180800Y151209D01*
X180898Y151138D01*
X180994Y151064D01*
X181087Y150987D01*
X181177Y150906D01*
X181265Y150823D01*
X181350Y150737D01*
X181433Y150648D01*
X181512Y150557D01*
X181589Y150463D01*
X181662Y150367D01*
X181732Y150269D01*
X181799Y150168D01*
X181863Y150065D01*
X181924Y149960D01*
X181981Y149853D01*
X182034Y149745D01*
X182084Y149635D01*
X182130Y149523D01*
X182173Y149410D01*
X182212Y149295D01*
X176695Y146699D02*
X176616Y146777D01*
X176540Y146857D01*
X176467Y146940D01*
X176397Y147026D01*
X176330Y147113D01*
X176266Y147204D01*
X176206Y147296D01*
X176148Y147390D01*
X176094Y147487D01*
X176044Y147585D01*
X175997Y147685D01*
X175953Y147786D01*
X175913Y147889D01*
X175877Y147994D01*
X175845Y148099D01*
X175816Y148206D01*
X175791Y148313D01*
X175769Y148422D01*
X175752Y148531D01*
X175738Y148640D01*
X175729Y148750D01*
X175723Y148861D01*
X175721Y148971D01*
X176694Y146699D02*
X182212Y140208D01*
X175721Y140208D01*
M02*
