G04 EAGLE Gerber RS-274X export*
G75*
%MOMM*%
%FSLAX34Y34*%
%LPD*%
%INSilkscreen Top*%
%IPPOS*%
%AMOC8*
5,1,8,0,0,1.08239X$1,22.5*%
G01*
%ADD10C,0.076200*%
%ADD11C,0.101600*%
%ADD12C,0.152400*%
%ADD13C,0.406400*%
%ADD14C,0.127000*%


D10*
X461199Y141020D02*
X460381Y141020D01*
X460381Y145112D01*
X467747Y143066D01*
X467747Y148918D02*
X460381Y148918D01*
X467747Y148099D02*
X467747Y149736D01*
X460381Y149736D02*
X460381Y148099D01*
X460381Y152968D02*
X467747Y152968D01*
X467747Y157060D02*
X460381Y152968D01*
X460381Y157060D02*
X467747Y157060D01*
X464064Y160527D02*
X463911Y160529D01*
X463758Y160535D01*
X463606Y160544D01*
X463453Y160558D01*
X463301Y160575D01*
X463150Y160596D01*
X462999Y160621D01*
X462849Y160650D01*
X462699Y160682D01*
X462551Y160719D01*
X462403Y160759D01*
X462256Y160802D01*
X462111Y160850D01*
X461967Y160901D01*
X461824Y160955D01*
X461682Y161014D01*
X461543Y161075D01*
X461404Y161141D01*
X461334Y161167D01*
X461264Y161197D01*
X461197Y161230D01*
X461131Y161266D01*
X461067Y161305D01*
X461005Y161348D01*
X460946Y161394D01*
X460888Y161442D01*
X460834Y161493D01*
X460781Y161547D01*
X460732Y161604D01*
X460685Y161663D01*
X460642Y161724D01*
X460601Y161787D01*
X460564Y161852D01*
X460529Y161919D01*
X460499Y161988D01*
X460471Y162058D01*
X460448Y162129D01*
X460427Y162201D01*
X460411Y162274D01*
X460398Y162348D01*
X460388Y162423D01*
X460383Y162498D01*
X460381Y162573D01*
X460383Y162648D01*
X460388Y162723D01*
X460398Y162798D01*
X460411Y162872D01*
X460427Y162945D01*
X460448Y163017D01*
X460471Y163088D01*
X460499Y163158D01*
X460529Y163227D01*
X460564Y163294D01*
X460601Y163359D01*
X460642Y163422D01*
X460685Y163483D01*
X460732Y163542D01*
X460781Y163599D01*
X460834Y163653D01*
X460888Y163704D01*
X460946Y163753D01*
X461005Y163798D01*
X461067Y163841D01*
X461131Y163880D01*
X461197Y163917D01*
X461265Y163949D01*
X461334Y163979D01*
X461404Y164005D01*
X461542Y164070D01*
X461682Y164132D01*
X461824Y164190D01*
X461967Y164245D01*
X462111Y164296D01*
X462256Y164344D01*
X462403Y164387D01*
X462550Y164427D01*
X462699Y164464D01*
X462849Y164496D01*
X462999Y164525D01*
X463150Y164550D01*
X463301Y164571D01*
X463453Y164588D01*
X463606Y164602D01*
X463758Y164611D01*
X463911Y164617D01*
X464064Y164619D01*
X464064Y160527D02*
X464217Y160529D01*
X464370Y160535D01*
X464522Y160544D01*
X464675Y160558D01*
X464827Y160575D01*
X464978Y160596D01*
X465129Y160621D01*
X465279Y160650D01*
X465429Y160682D01*
X465577Y160719D01*
X465725Y160759D01*
X465872Y160802D01*
X466017Y160850D01*
X466161Y160901D01*
X466304Y160955D01*
X466446Y161014D01*
X466585Y161075D01*
X466724Y161141D01*
X466795Y161167D01*
X466864Y161197D01*
X466931Y161230D01*
X466997Y161266D01*
X467061Y161305D01*
X467123Y161348D01*
X467182Y161394D01*
X467240Y161442D01*
X467294Y161493D01*
X467347Y161547D01*
X467396Y161604D01*
X467443Y161663D01*
X467486Y161724D01*
X467527Y161787D01*
X467564Y161852D01*
X467599Y161919D01*
X467629Y161988D01*
X467657Y162058D01*
X467680Y162129D01*
X467701Y162201D01*
X467717Y162274D01*
X467730Y162348D01*
X467740Y162423D01*
X467745Y162498D01*
X467747Y162573D01*
X466724Y164005D02*
X466586Y164070D01*
X466446Y164132D01*
X466304Y164190D01*
X466161Y164245D01*
X466017Y164296D01*
X465872Y164344D01*
X465725Y164387D01*
X465578Y164427D01*
X465429Y164464D01*
X465279Y164496D01*
X465129Y164525D01*
X464978Y164550D01*
X464827Y164571D01*
X464675Y164588D01*
X464522Y164602D01*
X464370Y164611D01*
X464217Y164617D01*
X464064Y164619D01*
X466724Y164005D02*
X466794Y163979D01*
X466864Y163949D01*
X466931Y163916D01*
X466997Y163880D01*
X467061Y163841D01*
X467123Y163798D01*
X467182Y163752D01*
X467240Y163704D01*
X467294Y163653D01*
X467347Y163599D01*
X467396Y163542D01*
X467443Y163483D01*
X467486Y163422D01*
X467527Y163359D01*
X467564Y163294D01*
X467599Y163227D01*
X467629Y163158D01*
X467657Y163088D01*
X467680Y163017D01*
X467701Y162945D01*
X467717Y162872D01*
X467730Y162798D01*
X467740Y162723D01*
X467745Y162648D01*
X467747Y162573D01*
X466110Y160936D02*
X462018Y164210D01*
X460381Y174085D02*
X467747Y174085D01*
X460381Y174085D02*
X460381Y177359D01*
X463655Y177359D02*
X463655Y174085D01*
X460381Y180527D02*
X467747Y180527D01*
X460381Y180527D02*
X460381Y182573D01*
X460383Y182662D01*
X460389Y182751D01*
X460399Y182840D01*
X460412Y182928D01*
X460429Y183016D01*
X460451Y183103D01*
X460476Y183188D01*
X460504Y183273D01*
X460537Y183356D01*
X460573Y183438D01*
X460612Y183518D01*
X460655Y183596D01*
X460701Y183672D01*
X460751Y183747D01*
X460804Y183819D01*
X460860Y183888D01*
X460919Y183955D01*
X460980Y184020D01*
X461045Y184081D01*
X461112Y184140D01*
X461181Y184196D01*
X461253Y184249D01*
X461328Y184299D01*
X461404Y184345D01*
X461482Y184388D01*
X461562Y184427D01*
X461644Y184463D01*
X461727Y184496D01*
X461812Y184524D01*
X461897Y184549D01*
X461984Y184571D01*
X462072Y184588D01*
X462160Y184601D01*
X462249Y184611D01*
X462338Y184617D01*
X462427Y184619D01*
X462516Y184617D01*
X462605Y184611D01*
X462694Y184601D01*
X462782Y184588D01*
X462870Y184571D01*
X462957Y184549D01*
X463042Y184524D01*
X463127Y184496D01*
X463210Y184463D01*
X463292Y184427D01*
X463372Y184388D01*
X463450Y184345D01*
X463526Y184299D01*
X463601Y184249D01*
X463673Y184196D01*
X463742Y184140D01*
X463809Y184081D01*
X463874Y184020D01*
X463935Y183955D01*
X463994Y183888D01*
X464050Y183819D01*
X464103Y183747D01*
X464153Y183672D01*
X464199Y183596D01*
X464242Y183518D01*
X464281Y183438D01*
X464317Y183356D01*
X464350Y183273D01*
X464378Y183188D01*
X464403Y183103D01*
X464425Y183016D01*
X464442Y182928D01*
X464455Y182840D01*
X464465Y182751D01*
X464471Y182662D01*
X464473Y182573D01*
X464473Y180527D01*
D11*
X375508Y10446D02*
X375508Y5254D01*
X375508Y10446D02*
X375510Y10559D01*
X375516Y10672D01*
X375526Y10785D01*
X375540Y10898D01*
X375557Y11010D01*
X375579Y11121D01*
X375604Y11231D01*
X375634Y11341D01*
X375667Y11449D01*
X375704Y11556D01*
X375744Y11662D01*
X375789Y11766D01*
X375837Y11869D01*
X375888Y11970D01*
X375943Y12069D01*
X376001Y12166D01*
X376063Y12261D01*
X376128Y12354D01*
X376196Y12444D01*
X376267Y12532D01*
X376342Y12618D01*
X376419Y12701D01*
X376499Y12781D01*
X376582Y12858D01*
X376668Y12933D01*
X376756Y13004D01*
X376846Y13072D01*
X376939Y13137D01*
X377034Y13199D01*
X377131Y13257D01*
X377230Y13312D01*
X377331Y13363D01*
X377434Y13411D01*
X377538Y13456D01*
X377644Y13496D01*
X377751Y13533D01*
X377859Y13566D01*
X377969Y13596D01*
X378079Y13621D01*
X378190Y13643D01*
X378302Y13660D01*
X378415Y13674D01*
X378528Y13684D01*
X378641Y13690D01*
X378754Y13692D01*
X378867Y13690D01*
X378980Y13684D01*
X379093Y13674D01*
X379206Y13660D01*
X379318Y13643D01*
X379429Y13621D01*
X379539Y13596D01*
X379649Y13566D01*
X379757Y13533D01*
X379864Y13496D01*
X379970Y13456D01*
X380074Y13411D01*
X380177Y13363D01*
X380278Y13312D01*
X380377Y13257D01*
X380474Y13199D01*
X380569Y13137D01*
X380662Y13072D01*
X380752Y13004D01*
X380840Y12933D01*
X380926Y12858D01*
X381009Y12781D01*
X381089Y12701D01*
X381166Y12618D01*
X381241Y12532D01*
X381312Y12444D01*
X381380Y12354D01*
X381445Y12261D01*
X381507Y12166D01*
X381565Y12069D01*
X381620Y11970D01*
X381671Y11869D01*
X381719Y11766D01*
X381764Y11662D01*
X381804Y11556D01*
X381841Y11449D01*
X381874Y11341D01*
X381904Y11231D01*
X381929Y11121D01*
X381951Y11010D01*
X381968Y10898D01*
X381982Y10785D01*
X381992Y10672D01*
X381998Y10559D01*
X382000Y10446D01*
X381999Y10446D02*
X381999Y5254D01*
X382000Y5254D02*
X381998Y5141D01*
X381992Y5028D01*
X381982Y4915D01*
X381968Y4802D01*
X381951Y4690D01*
X381929Y4579D01*
X381904Y4469D01*
X381874Y4359D01*
X381841Y4251D01*
X381804Y4144D01*
X381764Y4038D01*
X381719Y3934D01*
X381671Y3831D01*
X381620Y3730D01*
X381565Y3631D01*
X381507Y3534D01*
X381445Y3439D01*
X381380Y3346D01*
X381312Y3256D01*
X381241Y3168D01*
X381166Y3082D01*
X381089Y2999D01*
X381009Y2919D01*
X380926Y2842D01*
X380840Y2767D01*
X380752Y2696D01*
X380662Y2628D01*
X380569Y2563D01*
X380474Y2501D01*
X380377Y2443D01*
X380278Y2388D01*
X380177Y2337D01*
X380074Y2289D01*
X379970Y2244D01*
X379864Y2204D01*
X379757Y2167D01*
X379649Y2134D01*
X379539Y2104D01*
X379429Y2079D01*
X379318Y2057D01*
X379206Y2040D01*
X379093Y2026D01*
X378980Y2016D01*
X378867Y2010D01*
X378754Y2008D01*
X378641Y2010D01*
X378528Y2016D01*
X378415Y2026D01*
X378302Y2040D01*
X378190Y2057D01*
X378079Y2079D01*
X377969Y2104D01*
X377859Y2134D01*
X377751Y2167D01*
X377644Y2204D01*
X377538Y2244D01*
X377434Y2289D01*
X377331Y2337D01*
X377230Y2388D01*
X377131Y2443D01*
X377034Y2501D01*
X376939Y2563D01*
X376846Y2628D01*
X376756Y2696D01*
X376668Y2767D01*
X376582Y2842D01*
X376499Y2919D01*
X376419Y2999D01*
X376342Y3082D01*
X376267Y3168D01*
X376196Y3256D01*
X376128Y3346D01*
X376063Y3439D01*
X376001Y3534D01*
X375943Y3631D01*
X375888Y3730D01*
X375837Y3831D01*
X375789Y3934D01*
X375744Y4038D01*
X375704Y4144D01*
X375667Y4251D01*
X375634Y4359D01*
X375604Y4469D01*
X375579Y4579D01*
X375557Y4690D01*
X375540Y4802D01*
X375526Y4915D01*
X375516Y5028D01*
X375510Y5141D01*
X375508Y5254D01*
X387319Y2008D02*
X387319Y13692D01*
X393810Y2008D01*
X393810Y13692D01*
X425508Y10946D02*
X425508Y5754D01*
X425508Y10946D02*
X425510Y11059D01*
X425516Y11172D01*
X425526Y11285D01*
X425540Y11398D01*
X425557Y11510D01*
X425579Y11621D01*
X425604Y11731D01*
X425634Y11841D01*
X425667Y11949D01*
X425704Y12056D01*
X425744Y12162D01*
X425789Y12266D01*
X425837Y12369D01*
X425888Y12470D01*
X425943Y12569D01*
X426001Y12666D01*
X426063Y12761D01*
X426128Y12854D01*
X426196Y12944D01*
X426267Y13032D01*
X426342Y13118D01*
X426419Y13201D01*
X426499Y13281D01*
X426582Y13358D01*
X426668Y13433D01*
X426756Y13504D01*
X426846Y13572D01*
X426939Y13637D01*
X427034Y13699D01*
X427131Y13757D01*
X427230Y13812D01*
X427331Y13863D01*
X427434Y13911D01*
X427538Y13956D01*
X427644Y13996D01*
X427751Y14033D01*
X427859Y14066D01*
X427969Y14096D01*
X428079Y14121D01*
X428190Y14143D01*
X428302Y14160D01*
X428415Y14174D01*
X428528Y14184D01*
X428641Y14190D01*
X428754Y14192D01*
X428867Y14190D01*
X428980Y14184D01*
X429093Y14174D01*
X429206Y14160D01*
X429318Y14143D01*
X429429Y14121D01*
X429539Y14096D01*
X429649Y14066D01*
X429757Y14033D01*
X429864Y13996D01*
X429970Y13956D01*
X430074Y13911D01*
X430177Y13863D01*
X430278Y13812D01*
X430377Y13757D01*
X430474Y13699D01*
X430569Y13637D01*
X430662Y13572D01*
X430752Y13504D01*
X430840Y13433D01*
X430926Y13358D01*
X431009Y13281D01*
X431089Y13201D01*
X431166Y13118D01*
X431241Y13032D01*
X431312Y12944D01*
X431380Y12854D01*
X431445Y12761D01*
X431507Y12666D01*
X431565Y12569D01*
X431620Y12470D01*
X431671Y12369D01*
X431719Y12266D01*
X431764Y12162D01*
X431804Y12056D01*
X431841Y11949D01*
X431874Y11841D01*
X431904Y11731D01*
X431929Y11621D01*
X431951Y11510D01*
X431968Y11398D01*
X431982Y11285D01*
X431992Y11172D01*
X431998Y11059D01*
X432000Y10946D01*
X431999Y10946D02*
X431999Y5754D01*
X432000Y5754D02*
X431998Y5641D01*
X431992Y5528D01*
X431982Y5415D01*
X431968Y5302D01*
X431951Y5190D01*
X431929Y5079D01*
X431904Y4969D01*
X431874Y4859D01*
X431841Y4751D01*
X431804Y4644D01*
X431764Y4538D01*
X431719Y4434D01*
X431671Y4331D01*
X431620Y4230D01*
X431565Y4131D01*
X431507Y4034D01*
X431445Y3939D01*
X431380Y3846D01*
X431312Y3756D01*
X431241Y3668D01*
X431166Y3582D01*
X431089Y3499D01*
X431009Y3419D01*
X430926Y3342D01*
X430840Y3267D01*
X430752Y3196D01*
X430662Y3128D01*
X430569Y3063D01*
X430474Y3001D01*
X430377Y2943D01*
X430278Y2888D01*
X430177Y2837D01*
X430074Y2789D01*
X429970Y2744D01*
X429864Y2704D01*
X429757Y2667D01*
X429649Y2634D01*
X429539Y2604D01*
X429429Y2579D01*
X429318Y2557D01*
X429206Y2540D01*
X429093Y2526D01*
X428980Y2516D01*
X428867Y2510D01*
X428754Y2508D01*
X428641Y2510D01*
X428528Y2516D01*
X428415Y2526D01*
X428302Y2540D01*
X428190Y2557D01*
X428079Y2579D01*
X427969Y2604D01*
X427859Y2634D01*
X427751Y2667D01*
X427644Y2704D01*
X427538Y2744D01*
X427434Y2789D01*
X427331Y2837D01*
X427230Y2888D01*
X427131Y2943D01*
X427034Y3001D01*
X426939Y3063D01*
X426846Y3128D01*
X426756Y3196D01*
X426668Y3267D01*
X426582Y3342D01*
X426499Y3419D01*
X426419Y3499D01*
X426342Y3582D01*
X426267Y3668D01*
X426196Y3756D01*
X426128Y3846D01*
X426063Y3939D01*
X426001Y4034D01*
X425943Y4131D01*
X425888Y4230D01*
X425837Y4331D01*
X425789Y4434D01*
X425744Y4538D01*
X425704Y4644D01*
X425667Y4751D01*
X425634Y4859D01*
X425604Y4969D01*
X425579Y5079D01*
X425557Y5190D01*
X425540Y5302D01*
X425526Y5415D01*
X425516Y5528D01*
X425510Y5641D01*
X425508Y5754D01*
X437342Y2508D02*
X437342Y14192D01*
X442534Y14192D01*
X442534Y8999D02*
X437342Y8999D01*
X447248Y14192D02*
X447248Y2508D01*
X447248Y14192D02*
X452440Y14192D01*
X452440Y8999D02*
X447248Y8999D01*
X210508Y29558D02*
X210508Y41242D01*
X213754Y41242D01*
X213867Y41240D01*
X213980Y41234D01*
X214093Y41224D01*
X214206Y41210D01*
X214318Y41193D01*
X214429Y41171D01*
X214539Y41146D01*
X214649Y41116D01*
X214757Y41083D01*
X214864Y41046D01*
X214970Y41006D01*
X215074Y40961D01*
X215177Y40913D01*
X215278Y40862D01*
X215377Y40807D01*
X215474Y40749D01*
X215569Y40687D01*
X215662Y40622D01*
X215752Y40554D01*
X215840Y40483D01*
X215926Y40408D01*
X216009Y40331D01*
X216089Y40251D01*
X216166Y40168D01*
X216241Y40082D01*
X216312Y39994D01*
X216380Y39904D01*
X216445Y39811D01*
X216507Y39716D01*
X216565Y39619D01*
X216620Y39520D01*
X216671Y39419D01*
X216719Y39316D01*
X216764Y39212D01*
X216804Y39106D01*
X216841Y38999D01*
X216874Y38891D01*
X216904Y38781D01*
X216929Y38671D01*
X216951Y38560D01*
X216968Y38448D01*
X216982Y38335D01*
X216992Y38222D01*
X216998Y38109D01*
X217000Y37996D01*
X216999Y37996D02*
X216999Y32804D01*
X217000Y32804D02*
X216998Y32691D01*
X216992Y32578D01*
X216982Y32465D01*
X216968Y32352D01*
X216951Y32240D01*
X216929Y32129D01*
X216904Y32019D01*
X216874Y31909D01*
X216841Y31801D01*
X216804Y31694D01*
X216764Y31588D01*
X216719Y31484D01*
X216671Y31381D01*
X216620Y31280D01*
X216565Y31181D01*
X216507Y31084D01*
X216445Y30989D01*
X216380Y30896D01*
X216312Y30806D01*
X216241Y30718D01*
X216166Y30632D01*
X216089Y30549D01*
X216009Y30469D01*
X215926Y30392D01*
X215840Y30317D01*
X215752Y30246D01*
X215662Y30178D01*
X215569Y30113D01*
X215474Y30051D01*
X215377Y29993D01*
X215278Y29938D01*
X215177Y29887D01*
X215074Y29839D01*
X214970Y29794D01*
X214864Y29754D01*
X214757Y29717D01*
X214649Y29684D01*
X214539Y29654D01*
X214429Y29629D01*
X214318Y29607D01*
X214206Y29590D01*
X214093Y29576D01*
X213980Y29566D01*
X213867Y29560D01*
X213754Y29558D01*
X210508Y29558D01*
X224419Y34102D02*
X227340Y34102D01*
X224419Y34102D02*
X224325Y34100D01*
X224231Y34094D01*
X224138Y34085D01*
X224045Y34071D01*
X223953Y34054D01*
X223861Y34032D01*
X223771Y34008D01*
X223681Y33979D01*
X223593Y33947D01*
X223506Y33911D01*
X223421Y33871D01*
X223338Y33828D01*
X223256Y33782D01*
X223176Y33732D01*
X223099Y33679D01*
X223024Y33623D01*
X222951Y33564D01*
X222880Y33502D01*
X222812Y33437D01*
X222747Y33369D01*
X222685Y33298D01*
X222626Y33225D01*
X222570Y33150D01*
X222517Y33073D01*
X222467Y32993D01*
X222421Y32911D01*
X222378Y32828D01*
X222338Y32743D01*
X222302Y32656D01*
X222270Y32568D01*
X222241Y32478D01*
X222217Y32388D01*
X222195Y32296D01*
X222178Y32204D01*
X222164Y32111D01*
X222155Y32018D01*
X222149Y31924D01*
X222147Y31830D01*
X222149Y31736D01*
X222155Y31642D01*
X222164Y31549D01*
X222178Y31456D01*
X222195Y31364D01*
X222217Y31272D01*
X222241Y31182D01*
X222270Y31092D01*
X222302Y31004D01*
X222338Y30917D01*
X222378Y30832D01*
X222421Y30749D01*
X222467Y30667D01*
X222517Y30587D01*
X222570Y30510D01*
X222626Y30435D01*
X222685Y30362D01*
X222747Y30291D01*
X222812Y30223D01*
X222880Y30158D01*
X222951Y30096D01*
X223024Y30037D01*
X223099Y29981D01*
X223176Y29928D01*
X223256Y29878D01*
X223338Y29832D01*
X223421Y29789D01*
X223506Y29749D01*
X223593Y29713D01*
X223681Y29681D01*
X223771Y29652D01*
X223861Y29628D01*
X223953Y29606D01*
X224045Y29589D01*
X224138Y29575D01*
X224231Y29566D01*
X224325Y29560D01*
X224419Y29558D01*
X227340Y29558D01*
X227340Y35400D01*
X227338Y35487D01*
X227332Y35575D01*
X227322Y35661D01*
X227309Y35748D01*
X227291Y35833D01*
X227270Y35918D01*
X227245Y36002D01*
X227216Y36084D01*
X227183Y36165D01*
X227147Y36245D01*
X227108Y36323D01*
X227064Y36399D01*
X227018Y36473D01*
X226968Y36544D01*
X226915Y36614D01*
X226859Y36681D01*
X226800Y36745D01*
X226738Y36807D01*
X226674Y36866D01*
X226607Y36922D01*
X226537Y36975D01*
X226466Y37025D01*
X226392Y37071D01*
X226316Y37115D01*
X226238Y37154D01*
X226158Y37190D01*
X226077Y37223D01*
X225995Y37252D01*
X225911Y37277D01*
X225826Y37298D01*
X225741Y37316D01*
X225654Y37329D01*
X225568Y37339D01*
X225480Y37345D01*
X225393Y37347D01*
X222796Y37347D01*
X231526Y37347D02*
X235420Y37347D01*
X232824Y41242D02*
X232824Y31505D01*
X232826Y31418D01*
X232832Y31330D01*
X232842Y31244D01*
X232855Y31157D01*
X232873Y31072D01*
X232894Y30987D01*
X232919Y30903D01*
X232948Y30821D01*
X232981Y30740D01*
X233017Y30660D01*
X233056Y30582D01*
X233100Y30506D01*
X233146Y30432D01*
X233196Y30361D01*
X233249Y30291D01*
X233305Y30224D01*
X233364Y30160D01*
X233426Y30098D01*
X233490Y30039D01*
X233557Y29983D01*
X233627Y29930D01*
X233698Y29880D01*
X233772Y29834D01*
X233848Y29790D01*
X233926Y29751D01*
X234006Y29715D01*
X234087Y29682D01*
X234169Y29653D01*
X234253Y29628D01*
X234338Y29607D01*
X234423Y29589D01*
X234510Y29576D01*
X234596Y29566D01*
X234684Y29560D01*
X234771Y29558D01*
X235420Y29558D01*
X241945Y34102D02*
X244866Y34102D01*
X241945Y34102D02*
X241851Y34100D01*
X241757Y34094D01*
X241664Y34085D01*
X241571Y34071D01*
X241479Y34054D01*
X241387Y34032D01*
X241297Y34008D01*
X241207Y33979D01*
X241119Y33947D01*
X241032Y33911D01*
X240947Y33871D01*
X240864Y33828D01*
X240782Y33782D01*
X240702Y33732D01*
X240625Y33679D01*
X240550Y33623D01*
X240477Y33564D01*
X240406Y33502D01*
X240338Y33437D01*
X240273Y33369D01*
X240211Y33298D01*
X240152Y33225D01*
X240096Y33150D01*
X240043Y33073D01*
X239993Y32993D01*
X239947Y32911D01*
X239904Y32828D01*
X239864Y32743D01*
X239828Y32656D01*
X239796Y32568D01*
X239767Y32478D01*
X239743Y32388D01*
X239721Y32296D01*
X239704Y32204D01*
X239690Y32111D01*
X239681Y32018D01*
X239675Y31924D01*
X239673Y31830D01*
X239675Y31736D01*
X239681Y31642D01*
X239690Y31549D01*
X239704Y31456D01*
X239721Y31364D01*
X239743Y31272D01*
X239767Y31182D01*
X239796Y31092D01*
X239828Y31004D01*
X239864Y30917D01*
X239904Y30832D01*
X239947Y30749D01*
X239993Y30667D01*
X240043Y30587D01*
X240096Y30510D01*
X240152Y30435D01*
X240211Y30362D01*
X240273Y30291D01*
X240338Y30223D01*
X240406Y30158D01*
X240477Y30096D01*
X240550Y30037D01*
X240625Y29981D01*
X240702Y29928D01*
X240782Y29878D01*
X240864Y29832D01*
X240947Y29789D01*
X241032Y29749D01*
X241119Y29713D01*
X241207Y29681D01*
X241297Y29652D01*
X241387Y29628D01*
X241479Y29606D01*
X241571Y29589D01*
X241664Y29575D01*
X241757Y29566D01*
X241851Y29560D01*
X241945Y29558D01*
X244866Y29558D01*
X244866Y35400D01*
X244864Y35487D01*
X244858Y35575D01*
X244848Y35661D01*
X244835Y35748D01*
X244817Y35833D01*
X244796Y35918D01*
X244771Y36002D01*
X244742Y36084D01*
X244709Y36165D01*
X244673Y36245D01*
X244634Y36323D01*
X244590Y36399D01*
X244544Y36473D01*
X244494Y36544D01*
X244441Y36614D01*
X244385Y36681D01*
X244326Y36745D01*
X244264Y36807D01*
X244200Y36866D01*
X244133Y36922D01*
X244063Y36975D01*
X243992Y37025D01*
X243918Y37071D01*
X243842Y37115D01*
X243764Y37154D01*
X243684Y37190D01*
X243603Y37223D01*
X243521Y37252D01*
X243437Y37277D01*
X243352Y37298D01*
X243267Y37316D01*
X243180Y37329D01*
X243094Y37339D01*
X243006Y37345D01*
X242919Y37347D01*
X240322Y37347D01*
X210508Y22192D02*
X210508Y10508D01*
X215701Y10508D01*
X219898Y13104D02*
X219898Y15701D01*
X219900Y15802D01*
X219906Y15902D01*
X219916Y16002D01*
X219929Y16102D01*
X219947Y16201D01*
X219968Y16300D01*
X219993Y16397D01*
X220022Y16494D01*
X220055Y16589D01*
X220091Y16683D01*
X220131Y16775D01*
X220174Y16866D01*
X220221Y16955D01*
X220271Y17042D01*
X220325Y17128D01*
X220382Y17211D01*
X220442Y17291D01*
X220505Y17370D01*
X220572Y17446D01*
X220641Y17519D01*
X220713Y17589D01*
X220787Y17657D01*
X220864Y17722D01*
X220944Y17783D01*
X221026Y17842D01*
X221110Y17897D01*
X221196Y17949D01*
X221284Y17998D01*
X221374Y18043D01*
X221466Y18085D01*
X221559Y18123D01*
X221654Y18157D01*
X221749Y18188D01*
X221846Y18215D01*
X221944Y18238D01*
X222043Y18258D01*
X222143Y18273D01*
X222243Y18285D01*
X222343Y18293D01*
X222444Y18297D01*
X222544Y18297D01*
X222645Y18293D01*
X222745Y18285D01*
X222845Y18273D01*
X222945Y18258D01*
X223044Y18238D01*
X223142Y18215D01*
X223239Y18188D01*
X223334Y18157D01*
X223429Y18123D01*
X223522Y18085D01*
X223614Y18043D01*
X223704Y17998D01*
X223792Y17949D01*
X223878Y17897D01*
X223962Y17842D01*
X224044Y17783D01*
X224124Y17722D01*
X224201Y17657D01*
X224275Y17589D01*
X224347Y17519D01*
X224416Y17446D01*
X224483Y17370D01*
X224546Y17291D01*
X224606Y17211D01*
X224663Y17128D01*
X224717Y17042D01*
X224767Y16955D01*
X224814Y16866D01*
X224857Y16775D01*
X224897Y16683D01*
X224933Y16589D01*
X224966Y16494D01*
X224995Y16397D01*
X225020Y16300D01*
X225041Y16201D01*
X225059Y16102D01*
X225072Y16002D01*
X225082Y15902D01*
X225088Y15802D01*
X225090Y15701D01*
X225090Y13104D01*
X225088Y13003D01*
X225082Y12903D01*
X225072Y12803D01*
X225059Y12703D01*
X225041Y12604D01*
X225020Y12505D01*
X224995Y12408D01*
X224966Y12311D01*
X224933Y12216D01*
X224897Y12122D01*
X224857Y12030D01*
X224814Y11939D01*
X224767Y11850D01*
X224717Y11763D01*
X224663Y11677D01*
X224606Y11594D01*
X224546Y11514D01*
X224483Y11435D01*
X224416Y11359D01*
X224347Y11286D01*
X224275Y11216D01*
X224201Y11148D01*
X224124Y11083D01*
X224044Y11022D01*
X223962Y10963D01*
X223878Y10908D01*
X223792Y10856D01*
X223704Y10807D01*
X223614Y10762D01*
X223522Y10720D01*
X223429Y10682D01*
X223334Y10648D01*
X223239Y10617D01*
X223142Y10590D01*
X223044Y10567D01*
X222945Y10547D01*
X222845Y10532D01*
X222745Y10520D01*
X222645Y10512D01*
X222544Y10508D01*
X222444Y10508D01*
X222343Y10512D01*
X222243Y10520D01*
X222143Y10532D01*
X222043Y10547D01*
X221944Y10567D01*
X221846Y10590D01*
X221749Y10617D01*
X221654Y10648D01*
X221559Y10682D01*
X221466Y10720D01*
X221374Y10762D01*
X221284Y10807D01*
X221196Y10856D01*
X221110Y10908D01*
X221026Y10963D01*
X220944Y11022D01*
X220864Y11083D01*
X220787Y11148D01*
X220713Y11216D01*
X220641Y11286D01*
X220572Y11359D01*
X220505Y11435D01*
X220442Y11514D01*
X220382Y11594D01*
X220325Y11677D01*
X220271Y11763D01*
X220221Y11850D01*
X220174Y11939D01*
X220131Y12030D01*
X220091Y12122D01*
X220055Y12216D01*
X220022Y12311D01*
X219993Y12408D01*
X219968Y12505D01*
X219947Y12604D01*
X219929Y12703D01*
X219916Y12803D01*
X219906Y12903D01*
X219900Y13003D01*
X219898Y13104D01*
X231692Y10508D02*
X234938Y10508D01*
X231692Y10508D02*
X231605Y10510D01*
X231517Y10516D01*
X231431Y10526D01*
X231344Y10539D01*
X231259Y10557D01*
X231174Y10578D01*
X231090Y10603D01*
X231008Y10632D01*
X230927Y10665D01*
X230847Y10701D01*
X230769Y10740D01*
X230693Y10784D01*
X230619Y10830D01*
X230548Y10880D01*
X230478Y10933D01*
X230411Y10989D01*
X230347Y11048D01*
X230285Y11110D01*
X230226Y11174D01*
X230170Y11241D01*
X230117Y11311D01*
X230067Y11382D01*
X230021Y11456D01*
X229977Y11532D01*
X229938Y11610D01*
X229902Y11690D01*
X229869Y11771D01*
X229840Y11853D01*
X229815Y11937D01*
X229794Y12022D01*
X229776Y12107D01*
X229763Y12194D01*
X229753Y12280D01*
X229747Y12368D01*
X229745Y12455D01*
X229745Y16350D01*
X229747Y16437D01*
X229753Y16525D01*
X229763Y16611D01*
X229776Y16698D01*
X229794Y16783D01*
X229815Y16868D01*
X229840Y16952D01*
X229869Y17034D01*
X229902Y17115D01*
X229938Y17195D01*
X229977Y17273D01*
X230021Y17349D01*
X230067Y17423D01*
X230117Y17494D01*
X230170Y17564D01*
X230226Y17631D01*
X230285Y17695D01*
X230347Y17757D01*
X230411Y17816D01*
X230478Y17872D01*
X230548Y17925D01*
X230619Y17975D01*
X230693Y18021D01*
X230769Y18065D01*
X230847Y18104D01*
X230927Y18140D01*
X231008Y18173D01*
X231090Y18202D01*
X231174Y18227D01*
X231259Y18248D01*
X231344Y18266D01*
X231431Y18279D01*
X231517Y18289D01*
X231605Y18295D01*
X231692Y18297D01*
X234938Y18297D01*
X234938Y8561D01*
X234937Y8561D02*
X234935Y8474D01*
X234929Y8386D01*
X234919Y8300D01*
X234906Y8213D01*
X234888Y8128D01*
X234867Y8043D01*
X234842Y7959D01*
X234813Y7877D01*
X234780Y7796D01*
X234744Y7716D01*
X234705Y7638D01*
X234661Y7562D01*
X234615Y7488D01*
X234565Y7417D01*
X234512Y7347D01*
X234456Y7280D01*
X234397Y7216D01*
X234336Y7154D01*
X234271Y7095D01*
X234204Y7039D01*
X234134Y6986D01*
X234063Y6936D01*
X233989Y6890D01*
X233913Y6846D01*
X233835Y6807D01*
X233755Y6771D01*
X233674Y6738D01*
X233592Y6709D01*
X233508Y6684D01*
X233423Y6663D01*
X233338Y6645D01*
X233251Y6632D01*
X233165Y6622D01*
X233077Y6616D01*
X232990Y6614D01*
X232990Y6613D02*
X230394Y6613D01*
X241979Y10508D02*
X245224Y10508D01*
X241979Y10508D02*
X241892Y10510D01*
X241804Y10516D01*
X241718Y10526D01*
X241631Y10539D01*
X241546Y10557D01*
X241461Y10578D01*
X241377Y10603D01*
X241295Y10632D01*
X241214Y10665D01*
X241134Y10701D01*
X241056Y10740D01*
X240980Y10784D01*
X240906Y10830D01*
X240835Y10880D01*
X240765Y10933D01*
X240698Y10989D01*
X240634Y11048D01*
X240572Y11110D01*
X240513Y11174D01*
X240457Y11241D01*
X240404Y11311D01*
X240354Y11382D01*
X240308Y11456D01*
X240264Y11532D01*
X240225Y11610D01*
X240189Y11690D01*
X240156Y11771D01*
X240127Y11853D01*
X240102Y11937D01*
X240081Y12022D01*
X240063Y12107D01*
X240050Y12194D01*
X240040Y12280D01*
X240034Y12368D01*
X240032Y12455D01*
X240032Y16350D01*
X240034Y16437D01*
X240040Y16525D01*
X240050Y16611D01*
X240063Y16698D01*
X240081Y16783D01*
X240102Y16868D01*
X240127Y16952D01*
X240156Y17034D01*
X240189Y17115D01*
X240225Y17195D01*
X240264Y17273D01*
X240308Y17349D01*
X240354Y17423D01*
X240404Y17494D01*
X240457Y17564D01*
X240513Y17631D01*
X240572Y17695D01*
X240634Y17757D01*
X240698Y17816D01*
X240765Y17872D01*
X240835Y17925D01*
X240906Y17975D01*
X240980Y18021D01*
X241056Y18065D01*
X241134Y18104D01*
X241214Y18140D01*
X241295Y18173D01*
X241377Y18202D01*
X241461Y18227D01*
X241546Y18248D01*
X241631Y18266D01*
X241718Y18279D01*
X241804Y18289D01*
X241892Y18295D01*
X241979Y18297D01*
X245224Y18297D01*
X245224Y8561D01*
X245222Y8474D01*
X245216Y8386D01*
X245206Y8300D01*
X245193Y8213D01*
X245175Y8128D01*
X245154Y8043D01*
X245129Y7959D01*
X245100Y7877D01*
X245067Y7796D01*
X245031Y7716D01*
X244992Y7638D01*
X244948Y7562D01*
X244902Y7488D01*
X244852Y7417D01*
X244799Y7347D01*
X244743Y7280D01*
X244684Y7216D01*
X244623Y7154D01*
X244558Y7095D01*
X244491Y7039D01*
X244421Y6986D01*
X244350Y6936D01*
X244276Y6890D01*
X244200Y6846D01*
X244122Y6807D01*
X244042Y6771D01*
X243961Y6738D01*
X243879Y6709D01*
X243795Y6684D01*
X243710Y6663D01*
X243625Y6645D01*
X243538Y6632D01*
X243452Y6622D01*
X243364Y6616D01*
X243277Y6614D01*
X243277Y6613D02*
X240681Y6613D01*
X252325Y10508D02*
X255570Y10508D01*
X252325Y10508D02*
X252238Y10510D01*
X252150Y10516D01*
X252064Y10526D01*
X251977Y10539D01*
X251892Y10557D01*
X251807Y10578D01*
X251723Y10603D01*
X251641Y10632D01*
X251560Y10665D01*
X251480Y10701D01*
X251402Y10740D01*
X251326Y10784D01*
X251252Y10830D01*
X251181Y10880D01*
X251111Y10933D01*
X251044Y10989D01*
X250980Y11048D01*
X250918Y11110D01*
X250859Y11174D01*
X250803Y11241D01*
X250750Y11311D01*
X250700Y11382D01*
X250654Y11456D01*
X250610Y11532D01*
X250571Y11610D01*
X250535Y11690D01*
X250502Y11771D01*
X250473Y11853D01*
X250448Y11937D01*
X250427Y12022D01*
X250409Y12107D01*
X250396Y12194D01*
X250386Y12280D01*
X250380Y12368D01*
X250378Y12455D01*
X250377Y12455D02*
X250377Y15701D01*
X250378Y15701D02*
X250380Y15802D01*
X250386Y15902D01*
X250396Y16002D01*
X250409Y16102D01*
X250427Y16201D01*
X250448Y16300D01*
X250473Y16397D01*
X250502Y16494D01*
X250535Y16589D01*
X250571Y16683D01*
X250611Y16775D01*
X250654Y16866D01*
X250701Y16955D01*
X250751Y17042D01*
X250805Y17128D01*
X250862Y17211D01*
X250922Y17291D01*
X250985Y17370D01*
X251052Y17446D01*
X251121Y17519D01*
X251193Y17589D01*
X251267Y17657D01*
X251344Y17722D01*
X251424Y17783D01*
X251506Y17842D01*
X251590Y17897D01*
X251676Y17949D01*
X251764Y17998D01*
X251854Y18043D01*
X251946Y18085D01*
X252039Y18123D01*
X252134Y18157D01*
X252229Y18188D01*
X252326Y18215D01*
X252424Y18238D01*
X252523Y18258D01*
X252623Y18273D01*
X252723Y18285D01*
X252823Y18293D01*
X252924Y18297D01*
X253024Y18297D01*
X253125Y18293D01*
X253225Y18285D01*
X253325Y18273D01*
X253425Y18258D01*
X253524Y18238D01*
X253622Y18215D01*
X253719Y18188D01*
X253814Y18157D01*
X253909Y18123D01*
X254002Y18085D01*
X254094Y18043D01*
X254184Y17998D01*
X254272Y17949D01*
X254358Y17897D01*
X254442Y17842D01*
X254524Y17783D01*
X254604Y17722D01*
X254681Y17657D01*
X254755Y17589D01*
X254827Y17519D01*
X254896Y17446D01*
X254963Y17370D01*
X255026Y17291D01*
X255086Y17211D01*
X255143Y17128D01*
X255197Y17042D01*
X255247Y16955D01*
X255294Y16866D01*
X255337Y16775D01*
X255377Y16683D01*
X255413Y16589D01*
X255446Y16494D01*
X255475Y16397D01*
X255500Y16300D01*
X255521Y16201D01*
X255539Y16102D01*
X255552Y16002D01*
X255562Y15902D01*
X255568Y15802D01*
X255570Y15701D01*
X255570Y14403D01*
X250377Y14403D01*
X260731Y10508D02*
X260731Y18297D01*
X264626Y18297D01*
X264626Y16999D01*
X295508Y29558D02*
X295508Y41242D01*
X298754Y41242D01*
X298867Y41240D01*
X298980Y41234D01*
X299093Y41224D01*
X299206Y41210D01*
X299318Y41193D01*
X299429Y41171D01*
X299539Y41146D01*
X299649Y41116D01*
X299757Y41083D01*
X299864Y41046D01*
X299970Y41006D01*
X300074Y40961D01*
X300177Y40913D01*
X300278Y40862D01*
X300377Y40807D01*
X300474Y40749D01*
X300569Y40687D01*
X300662Y40622D01*
X300752Y40554D01*
X300840Y40483D01*
X300926Y40408D01*
X301009Y40331D01*
X301089Y40251D01*
X301166Y40168D01*
X301241Y40082D01*
X301312Y39994D01*
X301380Y39904D01*
X301445Y39811D01*
X301507Y39716D01*
X301565Y39619D01*
X301620Y39520D01*
X301671Y39419D01*
X301719Y39316D01*
X301764Y39212D01*
X301804Y39106D01*
X301841Y38999D01*
X301874Y38891D01*
X301904Y38781D01*
X301929Y38671D01*
X301951Y38560D01*
X301968Y38448D01*
X301982Y38335D01*
X301992Y38222D01*
X301998Y38109D01*
X302000Y37996D01*
X301998Y37883D01*
X301992Y37770D01*
X301982Y37657D01*
X301968Y37544D01*
X301951Y37432D01*
X301929Y37321D01*
X301904Y37211D01*
X301874Y37101D01*
X301841Y36993D01*
X301804Y36886D01*
X301764Y36780D01*
X301719Y36676D01*
X301671Y36573D01*
X301620Y36472D01*
X301565Y36373D01*
X301507Y36276D01*
X301445Y36181D01*
X301380Y36088D01*
X301312Y35998D01*
X301241Y35910D01*
X301166Y35824D01*
X301089Y35741D01*
X301009Y35661D01*
X300926Y35584D01*
X300840Y35509D01*
X300752Y35438D01*
X300662Y35370D01*
X300569Y35305D01*
X300474Y35243D01*
X300377Y35185D01*
X300278Y35130D01*
X300177Y35079D01*
X300074Y35031D01*
X299970Y34986D01*
X299864Y34946D01*
X299757Y34909D01*
X299649Y34876D01*
X299539Y34846D01*
X299429Y34821D01*
X299318Y34799D01*
X299206Y34782D01*
X299093Y34768D01*
X298980Y34758D01*
X298867Y34752D01*
X298754Y34750D01*
X298754Y34751D02*
X295508Y34751D01*
X299403Y34751D02*
X301999Y29558D01*
X306751Y32154D02*
X306751Y34751D01*
X306752Y34751D02*
X306754Y34852D01*
X306760Y34952D01*
X306770Y35052D01*
X306783Y35152D01*
X306801Y35251D01*
X306822Y35350D01*
X306847Y35447D01*
X306876Y35544D01*
X306909Y35639D01*
X306945Y35733D01*
X306985Y35825D01*
X307028Y35916D01*
X307075Y36005D01*
X307125Y36092D01*
X307179Y36178D01*
X307236Y36261D01*
X307296Y36341D01*
X307359Y36420D01*
X307426Y36496D01*
X307495Y36569D01*
X307567Y36639D01*
X307641Y36707D01*
X307718Y36772D01*
X307798Y36833D01*
X307880Y36892D01*
X307964Y36947D01*
X308050Y36999D01*
X308138Y37048D01*
X308228Y37093D01*
X308320Y37135D01*
X308413Y37173D01*
X308508Y37207D01*
X308603Y37238D01*
X308700Y37265D01*
X308798Y37288D01*
X308897Y37308D01*
X308997Y37323D01*
X309097Y37335D01*
X309197Y37343D01*
X309298Y37347D01*
X309398Y37347D01*
X309499Y37343D01*
X309599Y37335D01*
X309699Y37323D01*
X309799Y37308D01*
X309898Y37288D01*
X309996Y37265D01*
X310093Y37238D01*
X310188Y37207D01*
X310283Y37173D01*
X310376Y37135D01*
X310468Y37093D01*
X310558Y37048D01*
X310646Y36999D01*
X310732Y36947D01*
X310816Y36892D01*
X310898Y36833D01*
X310978Y36772D01*
X311055Y36707D01*
X311129Y36639D01*
X311201Y36569D01*
X311270Y36496D01*
X311337Y36420D01*
X311400Y36341D01*
X311460Y36261D01*
X311517Y36178D01*
X311571Y36092D01*
X311621Y36005D01*
X311668Y35916D01*
X311711Y35825D01*
X311751Y35733D01*
X311787Y35639D01*
X311820Y35544D01*
X311849Y35447D01*
X311874Y35350D01*
X311895Y35251D01*
X311913Y35152D01*
X311926Y35052D01*
X311936Y34952D01*
X311942Y34852D01*
X311944Y34751D01*
X311944Y32154D01*
X311942Y32053D01*
X311936Y31953D01*
X311926Y31853D01*
X311913Y31753D01*
X311895Y31654D01*
X311874Y31555D01*
X311849Y31458D01*
X311820Y31361D01*
X311787Y31266D01*
X311751Y31172D01*
X311711Y31080D01*
X311668Y30989D01*
X311621Y30900D01*
X311571Y30813D01*
X311517Y30727D01*
X311460Y30644D01*
X311400Y30564D01*
X311337Y30485D01*
X311270Y30409D01*
X311201Y30336D01*
X311129Y30266D01*
X311055Y30198D01*
X310978Y30133D01*
X310898Y30072D01*
X310816Y30013D01*
X310732Y29958D01*
X310646Y29906D01*
X310558Y29857D01*
X310468Y29812D01*
X310376Y29770D01*
X310283Y29732D01*
X310188Y29698D01*
X310093Y29667D01*
X309996Y29640D01*
X309898Y29617D01*
X309799Y29597D01*
X309699Y29582D01*
X309599Y29570D01*
X309499Y29562D01*
X309398Y29558D01*
X309298Y29558D01*
X309197Y29562D01*
X309097Y29570D01*
X308997Y29582D01*
X308897Y29597D01*
X308798Y29617D01*
X308700Y29640D01*
X308603Y29667D01*
X308508Y29698D01*
X308413Y29732D01*
X308320Y29770D01*
X308228Y29812D01*
X308138Y29857D01*
X308050Y29906D01*
X307964Y29958D01*
X307880Y30013D01*
X307798Y30072D01*
X307718Y30133D01*
X307641Y30198D01*
X307567Y30266D01*
X307495Y30336D01*
X307426Y30409D01*
X307359Y30485D01*
X307296Y30564D01*
X307236Y30644D01*
X307179Y30727D01*
X307125Y30813D01*
X307075Y30900D01*
X307028Y30989D01*
X306985Y31080D01*
X306945Y31172D01*
X306909Y31266D01*
X306876Y31361D01*
X306847Y31458D01*
X306822Y31555D01*
X306801Y31654D01*
X306783Y31753D01*
X306770Y31853D01*
X306760Y31953D01*
X306754Y32053D01*
X306752Y32154D01*
X318618Y29558D02*
X321215Y29558D01*
X318618Y29558D02*
X318531Y29560D01*
X318443Y29566D01*
X318357Y29576D01*
X318270Y29589D01*
X318185Y29607D01*
X318100Y29628D01*
X318016Y29653D01*
X317934Y29682D01*
X317853Y29715D01*
X317773Y29751D01*
X317695Y29790D01*
X317619Y29834D01*
X317545Y29880D01*
X317474Y29930D01*
X317404Y29983D01*
X317337Y30039D01*
X317273Y30098D01*
X317211Y30160D01*
X317152Y30224D01*
X317096Y30291D01*
X317043Y30361D01*
X316993Y30432D01*
X316947Y30506D01*
X316903Y30582D01*
X316864Y30660D01*
X316828Y30740D01*
X316795Y30821D01*
X316766Y30903D01*
X316741Y30987D01*
X316720Y31072D01*
X316702Y31157D01*
X316689Y31244D01*
X316679Y31330D01*
X316673Y31418D01*
X316671Y31505D01*
X316671Y35400D01*
X316673Y35487D01*
X316679Y35575D01*
X316689Y35661D01*
X316702Y35748D01*
X316720Y35833D01*
X316741Y35918D01*
X316766Y36002D01*
X316795Y36084D01*
X316828Y36165D01*
X316864Y36245D01*
X316903Y36323D01*
X316947Y36399D01*
X316993Y36473D01*
X317043Y36544D01*
X317096Y36614D01*
X317152Y36681D01*
X317211Y36745D01*
X317273Y36807D01*
X317337Y36866D01*
X317404Y36922D01*
X317474Y36975D01*
X317545Y37025D01*
X317619Y37071D01*
X317695Y37115D01*
X317773Y37154D01*
X317853Y37190D01*
X317934Y37223D01*
X318016Y37252D01*
X318100Y37277D01*
X318185Y37298D01*
X318270Y37316D01*
X318357Y37329D01*
X318443Y37339D01*
X318531Y37345D01*
X318618Y37347D01*
X321215Y37347D01*
X325937Y41242D02*
X325937Y29558D01*
X325937Y33453D02*
X331130Y37347D01*
X328209Y35075D02*
X331130Y29558D01*
X337274Y29558D02*
X340519Y29558D01*
X337274Y29558D02*
X337187Y29560D01*
X337099Y29566D01*
X337013Y29576D01*
X336926Y29589D01*
X336841Y29607D01*
X336756Y29628D01*
X336672Y29653D01*
X336590Y29682D01*
X336509Y29715D01*
X336429Y29751D01*
X336351Y29790D01*
X336275Y29834D01*
X336201Y29880D01*
X336130Y29930D01*
X336060Y29983D01*
X335993Y30039D01*
X335929Y30098D01*
X335867Y30160D01*
X335808Y30224D01*
X335752Y30291D01*
X335699Y30361D01*
X335649Y30432D01*
X335603Y30506D01*
X335559Y30582D01*
X335520Y30660D01*
X335484Y30740D01*
X335451Y30821D01*
X335422Y30903D01*
X335397Y30987D01*
X335376Y31072D01*
X335358Y31157D01*
X335345Y31244D01*
X335335Y31330D01*
X335329Y31418D01*
X335327Y31505D01*
X335326Y31505D02*
X335326Y34751D01*
X335327Y34751D02*
X335329Y34852D01*
X335335Y34952D01*
X335345Y35052D01*
X335358Y35152D01*
X335376Y35251D01*
X335397Y35350D01*
X335422Y35447D01*
X335451Y35544D01*
X335484Y35639D01*
X335520Y35733D01*
X335560Y35825D01*
X335603Y35916D01*
X335650Y36005D01*
X335700Y36092D01*
X335754Y36178D01*
X335811Y36261D01*
X335871Y36341D01*
X335934Y36420D01*
X336001Y36496D01*
X336070Y36569D01*
X336142Y36639D01*
X336216Y36707D01*
X336293Y36772D01*
X336373Y36833D01*
X336455Y36892D01*
X336539Y36947D01*
X336625Y36999D01*
X336713Y37048D01*
X336803Y37093D01*
X336895Y37135D01*
X336988Y37173D01*
X337083Y37207D01*
X337178Y37238D01*
X337275Y37265D01*
X337373Y37288D01*
X337472Y37308D01*
X337572Y37323D01*
X337672Y37335D01*
X337772Y37343D01*
X337873Y37347D01*
X337973Y37347D01*
X338074Y37343D01*
X338174Y37335D01*
X338274Y37323D01*
X338374Y37308D01*
X338473Y37288D01*
X338571Y37265D01*
X338668Y37238D01*
X338763Y37207D01*
X338858Y37173D01*
X338951Y37135D01*
X339043Y37093D01*
X339133Y37048D01*
X339221Y36999D01*
X339307Y36947D01*
X339391Y36892D01*
X339473Y36833D01*
X339553Y36772D01*
X339630Y36707D01*
X339704Y36639D01*
X339776Y36569D01*
X339845Y36496D01*
X339912Y36420D01*
X339975Y36341D01*
X340035Y36261D01*
X340092Y36178D01*
X340146Y36092D01*
X340196Y36005D01*
X340243Y35916D01*
X340286Y35825D01*
X340326Y35733D01*
X340362Y35639D01*
X340395Y35544D01*
X340424Y35447D01*
X340449Y35350D01*
X340470Y35251D01*
X340488Y35152D01*
X340501Y35052D01*
X340511Y34952D01*
X340517Y34852D01*
X340519Y34751D01*
X340519Y33453D01*
X335326Y33453D01*
X344265Y37347D02*
X348160Y37347D01*
X345563Y41242D02*
X345563Y31505D01*
X345564Y31505D02*
X345566Y31418D01*
X345572Y31330D01*
X345582Y31244D01*
X345595Y31157D01*
X345613Y31072D01*
X345634Y30987D01*
X345659Y30903D01*
X345688Y30821D01*
X345721Y30740D01*
X345757Y30660D01*
X345796Y30582D01*
X345840Y30506D01*
X345886Y30432D01*
X345936Y30361D01*
X345989Y30291D01*
X346045Y30224D01*
X346104Y30160D01*
X346166Y30098D01*
X346230Y30039D01*
X346297Y29983D01*
X346367Y29930D01*
X346438Y29880D01*
X346512Y29834D01*
X346588Y29790D01*
X346666Y29751D01*
X346746Y29715D01*
X346827Y29682D01*
X346909Y29653D01*
X346993Y29628D01*
X347078Y29607D01*
X347163Y29589D01*
X347250Y29576D01*
X347336Y29566D01*
X347424Y29560D01*
X347511Y29558D01*
X348160Y29558D01*
X300701Y10508D02*
X298104Y10508D01*
X298005Y10510D01*
X297905Y10516D01*
X297806Y10525D01*
X297708Y10538D01*
X297610Y10555D01*
X297512Y10576D01*
X297416Y10601D01*
X297321Y10629D01*
X297227Y10661D01*
X297134Y10696D01*
X297042Y10735D01*
X296952Y10778D01*
X296864Y10823D01*
X296777Y10873D01*
X296693Y10925D01*
X296610Y10981D01*
X296530Y11039D01*
X296452Y11101D01*
X296377Y11166D01*
X296304Y11234D01*
X296234Y11304D01*
X296166Y11377D01*
X296101Y11452D01*
X296039Y11530D01*
X295981Y11610D01*
X295925Y11693D01*
X295873Y11777D01*
X295823Y11864D01*
X295778Y11952D01*
X295735Y12042D01*
X295696Y12134D01*
X295661Y12227D01*
X295629Y12321D01*
X295601Y12416D01*
X295576Y12512D01*
X295555Y12610D01*
X295538Y12708D01*
X295525Y12806D01*
X295516Y12905D01*
X295510Y13005D01*
X295508Y13104D01*
X295508Y19596D01*
X295510Y19695D01*
X295516Y19795D01*
X295525Y19894D01*
X295538Y19992D01*
X295555Y20090D01*
X295576Y20188D01*
X295601Y20284D01*
X295629Y20379D01*
X295661Y20473D01*
X295696Y20566D01*
X295735Y20658D01*
X295778Y20748D01*
X295823Y20836D01*
X295873Y20923D01*
X295925Y21007D01*
X295981Y21090D01*
X296039Y21170D01*
X296101Y21248D01*
X296166Y21323D01*
X296234Y21396D01*
X296304Y21466D01*
X296377Y21534D01*
X296452Y21599D01*
X296530Y21661D01*
X296610Y21719D01*
X296693Y21775D01*
X296777Y21827D01*
X296864Y21877D01*
X296952Y21922D01*
X297042Y21965D01*
X297134Y22004D01*
X297226Y22039D01*
X297321Y22071D01*
X297416Y22099D01*
X297512Y22124D01*
X297610Y22145D01*
X297708Y22162D01*
X297806Y22175D01*
X297905Y22184D01*
X298005Y22190D01*
X298104Y22192D01*
X300701Y22192D01*
X304953Y15701D02*
X304953Y13104D01*
X304954Y15701D02*
X304956Y15802D01*
X304962Y15902D01*
X304972Y16002D01*
X304985Y16102D01*
X305003Y16201D01*
X305024Y16300D01*
X305049Y16397D01*
X305078Y16494D01*
X305111Y16589D01*
X305147Y16683D01*
X305187Y16775D01*
X305230Y16866D01*
X305277Y16955D01*
X305327Y17042D01*
X305381Y17128D01*
X305438Y17211D01*
X305498Y17291D01*
X305561Y17370D01*
X305628Y17446D01*
X305697Y17519D01*
X305769Y17589D01*
X305843Y17657D01*
X305920Y17722D01*
X306000Y17783D01*
X306082Y17842D01*
X306166Y17897D01*
X306252Y17949D01*
X306340Y17998D01*
X306430Y18043D01*
X306522Y18085D01*
X306615Y18123D01*
X306710Y18157D01*
X306805Y18188D01*
X306902Y18215D01*
X307000Y18238D01*
X307099Y18258D01*
X307199Y18273D01*
X307299Y18285D01*
X307399Y18293D01*
X307500Y18297D01*
X307600Y18297D01*
X307701Y18293D01*
X307801Y18285D01*
X307901Y18273D01*
X308001Y18258D01*
X308100Y18238D01*
X308198Y18215D01*
X308295Y18188D01*
X308390Y18157D01*
X308485Y18123D01*
X308578Y18085D01*
X308670Y18043D01*
X308760Y17998D01*
X308848Y17949D01*
X308934Y17897D01*
X309018Y17842D01*
X309100Y17783D01*
X309180Y17722D01*
X309257Y17657D01*
X309331Y17589D01*
X309403Y17519D01*
X309472Y17446D01*
X309539Y17370D01*
X309602Y17291D01*
X309662Y17211D01*
X309719Y17128D01*
X309773Y17042D01*
X309823Y16955D01*
X309870Y16866D01*
X309913Y16775D01*
X309953Y16683D01*
X309989Y16589D01*
X310022Y16494D01*
X310051Y16397D01*
X310076Y16300D01*
X310097Y16201D01*
X310115Y16102D01*
X310128Y16002D01*
X310138Y15902D01*
X310144Y15802D01*
X310146Y15701D01*
X310146Y13104D01*
X310144Y13003D01*
X310138Y12903D01*
X310128Y12803D01*
X310115Y12703D01*
X310097Y12604D01*
X310076Y12505D01*
X310051Y12408D01*
X310022Y12311D01*
X309989Y12216D01*
X309953Y12122D01*
X309913Y12030D01*
X309870Y11939D01*
X309823Y11850D01*
X309773Y11763D01*
X309719Y11677D01*
X309662Y11594D01*
X309602Y11514D01*
X309539Y11435D01*
X309472Y11359D01*
X309403Y11286D01*
X309331Y11216D01*
X309257Y11148D01*
X309180Y11083D01*
X309100Y11022D01*
X309018Y10963D01*
X308934Y10908D01*
X308848Y10856D01*
X308760Y10807D01*
X308670Y10762D01*
X308578Y10720D01*
X308485Y10682D01*
X308390Y10648D01*
X308295Y10617D01*
X308198Y10590D01*
X308100Y10567D01*
X308001Y10547D01*
X307901Y10532D01*
X307801Y10520D01*
X307701Y10512D01*
X307600Y10508D01*
X307500Y10508D01*
X307399Y10512D01*
X307299Y10520D01*
X307199Y10532D01*
X307099Y10547D01*
X307000Y10567D01*
X306902Y10590D01*
X306805Y10617D01*
X306710Y10648D01*
X306615Y10682D01*
X306522Y10720D01*
X306430Y10762D01*
X306340Y10807D01*
X306252Y10856D01*
X306166Y10908D01*
X306082Y10963D01*
X306000Y11022D01*
X305920Y11083D01*
X305843Y11148D01*
X305769Y11216D01*
X305697Y11286D01*
X305628Y11359D01*
X305561Y11435D01*
X305498Y11514D01*
X305438Y11594D01*
X305381Y11677D01*
X305327Y11763D01*
X305277Y11850D01*
X305230Y11939D01*
X305187Y12030D01*
X305147Y12122D01*
X305111Y12216D01*
X305078Y12311D01*
X305049Y12408D01*
X305024Y12505D01*
X305003Y12604D01*
X304985Y12703D01*
X304972Y12803D01*
X304962Y12903D01*
X304956Y13003D01*
X304954Y13104D01*
X315240Y10508D02*
X315240Y18297D01*
X318486Y18297D01*
X318573Y18295D01*
X318661Y18289D01*
X318747Y18279D01*
X318834Y18266D01*
X318919Y18248D01*
X319004Y18227D01*
X319088Y18202D01*
X319170Y18173D01*
X319251Y18140D01*
X319331Y18104D01*
X319409Y18065D01*
X319485Y18021D01*
X319559Y17975D01*
X319630Y17925D01*
X319700Y17872D01*
X319767Y17816D01*
X319831Y17757D01*
X319893Y17696D01*
X319952Y17631D01*
X320008Y17564D01*
X320061Y17494D01*
X320111Y17423D01*
X320157Y17349D01*
X320201Y17273D01*
X320240Y17195D01*
X320276Y17115D01*
X320309Y17034D01*
X320338Y16952D01*
X320363Y16868D01*
X320384Y16783D01*
X320402Y16698D01*
X320415Y16611D01*
X320425Y16525D01*
X320431Y16437D01*
X320433Y16350D01*
X320433Y10508D01*
X324560Y18297D02*
X328455Y18297D01*
X325858Y22192D02*
X325858Y12455D01*
X325859Y12455D02*
X325861Y12368D01*
X325867Y12280D01*
X325877Y12194D01*
X325890Y12107D01*
X325908Y12022D01*
X325929Y11937D01*
X325954Y11853D01*
X325983Y11771D01*
X326016Y11690D01*
X326052Y11610D01*
X326091Y11532D01*
X326135Y11456D01*
X326181Y11382D01*
X326231Y11311D01*
X326284Y11241D01*
X326340Y11174D01*
X326399Y11110D01*
X326461Y11048D01*
X326525Y10989D01*
X326592Y10933D01*
X326662Y10880D01*
X326733Y10830D01*
X326807Y10784D01*
X326883Y10740D01*
X326961Y10701D01*
X327041Y10665D01*
X327122Y10632D01*
X327204Y10603D01*
X327288Y10578D01*
X327373Y10557D01*
X327458Y10539D01*
X327545Y10526D01*
X327631Y10516D01*
X327719Y10510D01*
X327806Y10508D01*
X328455Y10508D01*
X333214Y10508D02*
X333214Y18297D01*
X337108Y18297D01*
X337108Y16999D01*
X340767Y15701D02*
X340767Y13104D01*
X340768Y15701D02*
X340770Y15802D01*
X340776Y15902D01*
X340786Y16002D01*
X340799Y16102D01*
X340817Y16201D01*
X340838Y16300D01*
X340863Y16397D01*
X340892Y16494D01*
X340925Y16589D01*
X340961Y16683D01*
X341001Y16775D01*
X341044Y16866D01*
X341091Y16955D01*
X341141Y17042D01*
X341195Y17128D01*
X341252Y17211D01*
X341312Y17291D01*
X341375Y17370D01*
X341442Y17446D01*
X341511Y17519D01*
X341583Y17589D01*
X341657Y17657D01*
X341734Y17722D01*
X341814Y17783D01*
X341896Y17842D01*
X341980Y17897D01*
X342066Y17949D01*
X342154Y17998D01*
X342244Y18043D01*
X342336Y18085D01*
X342429Y18123D01*
X342524Y18157D01*
X342619Y18188D01*
X342716Y18215D01*
X342814Y18238D01*
X342913Y18258D01*
X343013Y18273D01*
X343113Y18285D01*
X343213Y18293D01*
X343314Y18297D01*
X343414Y18297D01*
X343515Y18293D01*
X343615Y18285D01*
X343715Y18273D01*
X343815Y18258D01*
X343914Y18238D01*
X344012Y18215D01*
X344109Y18188D01*
X344204Y18157D01*
X344299Y18123D01*
X344392Y18085D01*
X344484Y18043D01*
X344574Y17998D01*
X344662Y17949D01*
X344748Y17897D01*
X344832Y17842D01*
X344914Y17783D01*
X344994Y17722D01*
X345071Y17657D01*
X345145Y17589D01*
X345217Y17519D01*
X345286Y17446D01*
X345353Y17370D01*
X345416Y17291D01*
X345476Y17211D01*
X345533Y17128D01*
X345587Y17042D01*
X345637Y16955D01*
X345684Y16866D01*
X345727Y16775D01*
X345767Y16683D01*
X345803Y16589D01*
X345836Y16494D01*
X345865Y16397D01*
X345890Y16300D01*
X345911Y16201D01*
X345929Y16102D01*
X345942Y16002D01*
X345952Y15902D01*
X345958Y15802D01*
X345960Y15701D01*
X345960Y13104D01*
X345958Y13003D01*
X345952Y12903D01*
X345942Y12803D01*
X345929Y12703D01*
X345911Y12604D01*
X345890Y12505D01*
X345865Y12408D01*
X345836Y12311D01*
X345803Y12216D01*
X345767Y12122D01*
X345727Y12030D01*
X345684Y11939D01*
X345637Y11850D01*
X345587Y11763D01*
X345533Y11677D01*
X345476Y11594D01*
X345416Y11514D01*
X345353Y11435D01*
X345286Y11359D01*
X345217Y11286D01*
X345145Y11216D01*
X345071Y11148D01*
X344994Y11083D01*
X344914Y11022D01*
X344832Y10963D01*
X344748Y10908D01*
X344662Y10856D01*
X344574Y10807D01*
X344484Y10762D01*
X344392Y10720D01*
X344299Y10682D01*
X344204Y10648D01*
X344109Y10617D01*
X344012Y10590D01*
X343914Y10567D01*
X343815Y10547D01*
X343715Y10532D01*
X343615Y10520D01*
X343515Y10512D01*
X343414Y10508D01*
X343314Y10508D01*
X343213Y10512D01*
X343113Y10520D01*
X343013Y10532D01*
X342913Y10547D01*
X342814Y10567D01*
X342716Y10590D01*
X342619Y10617D01*
X342524Y10648D01*
X342429Y10682D01*
X342336Y10720D01*
X342244Y10762D01*
X342154Y10807D01*
X342066Y10856D01*
X341980Y10908D01*
X341896Y10963D01*
X341814Y11022D01*
X341734Y11083D01*
X341657Y11148D01*
X341583Y11216D01*
X341511Y11286D01*
X341442Y11359D01*
X341375Y11435D01*
X341312Y11514D01*
X341252Y11594D01*
X341195Y11677D01*
X341141Y11763D01*
X341091Y11850D01*
X341044Y11939D01*
X341001Y12030D01*
X340961Y12122D01*
X340925Y12216D01*
X340892Y12311D01*
X340863Y12408D01*
X340838Y12505D01*
X340817Y12604D01*
X340799Y12703D01*
X340786Y12803D01*
X340776Y12903D01*
X340770Y13003D01*
X340768Y13104D01*
X350823Y12455D02*
X350823Y22192D01*
X350823Y12455D02*
X350825Y12368D01*
X350831Y12280D01*
X350841Y12194D01*
X350854Y12107D01*
X350872Y12022D01*
X350893Y11937D01*
X350918Y11853D01*
X350947Y11771D01*
X350980Y11690D01*
X351016Y11610D01*
X351055Y11532D01*
X351099Y11456D01*
X351145Y11382D01*
X351195Y11311D01*
X351248Y11241D01*
X351304Y11174D01*
X351363Y11110D01*
X351425Y11048D01*
X351489Y10989D01*
X351556Y10933D01*
X351626Y10880D01*
X351697Y10830D01*
X351771Y10784D01*
X351847Y10740D01*
X351925Y10701D01*
X352005Y10665D01*
X352086Y10632D01*
X352168Y10603D01*
X352252Y10578D01*
X352337Y10557D01*
X352422Y10539D01*
X352509Y10526D01*
X352595Y10516D01*
X352683Y10510D01*
X352770Y10508D01*
X356919Y12455D02*
X356919Y22192D01*
X356919Y12455D02*
X356921Y12368D01*
X356927Y12280D01*
X356937Y12194D01*
X356950Y12107D01*
X356968Y12022D01*
X356989Y11937D01*
X357014Y11853D01*
X357043Y11771D01*
X357076Y11690D01*
X357112Y11610D01*
X357151Y11532D01*
X357195Y11456D01*
X357241Y11382D01*
X357291Y11311D01*
X357344Y11241D01*
X357400Y11174D01*
X357459Y11110D01*
X357521Y11048D01*
X357585Y10989D01*
X357652Y10933D01*
X357722Y10880D01*
X357793Y10830D01*
X357867Y10784D01*
X357943Y10740D01*
X358021Y10701D01*
X358101Y10665D01*
X358182Y10632D01*
X358264Y10603D01*
X358348Y10578D01*
X358433Y10557D01*
X358518Y10539D01*
X358605Y10526D01*
X358691Y10516D01*
X358779Y10510D01*
X358866Y10508D01*
X364813Y10508D02*
X368058Y10508D01*
X364813Y10508D02*
X364726Y10510D01*
X364638Y10516D01*
X364552Y10526D01*
X364465Y10539D01*
X364380Y10557D01*
X364295Y10578D01*
X364211Y10603D01*
X364129Y10632D01*
X364048Y10665D01*
X363968Y10701D01*
X363890Y10740D01*
X363814Y10784D01*
X363740Y10830D01*
X363669Y10880D01*
X363599Y10933D01*
X363532Y10989D01*
X363468Y11048D01*
X363406Y11110D01*
X363347Y11174D01*
X363291Y11241D01*
X363238Y11311D01*
X363188Y11382D01*
X363142Y11456D01*
X363098Y11532D01*
X363059Y11610D01*
X363023Y11690D01*
X362990Y11771D01*
X362961Y11853D01*
X362936Y11937D01*
X362915Y12022D01*
X362897Y12107D01*
X362884Y12194D01*
X362874Y12280D01*
X362868Y12368D01*
X362866Y12455D01*
X362865Y12455D02*
X362865Y15701D01*
X362866Y15701D02*
X362868Y15802D01*
X362874Y15902D01*
X362884Y16002D01*
X362897Y16102D01*
X362915Y16201D01*
X362936Y16300D01*
X362961Y16397D01*
X362990Y16494D01*
X363023Y16589D01*
X363059Y16683D01*
X363099Y16775D01*
X363142Y16866D01*
X363189Y16955D01*
X363239Y17042D01*
X363293Y17128D01*
X363350Y17211D01*
X363410Y17291D01*
X363473Y17370D01*
X363540Y17446D01*
X363609Y17519D01*
X363681Y17589D01*
X363755Y17657D01*
X363832Y17722D01*
X363912Y17783D01*
X363994Y17842D01*
X364078Y17897D01*
X364164Y17949D01*
X364252Y17998D01*
X364342Y18043D01*
X364434Y18085D01*
X364527Y18123D01*
X364622Y18157D01*
X364717Y18188D01*
X364814Y18215D01*
X364912Y18238D01*
X365011Y18258D01*
X365111Y18273D01*
X365211Y18285D01*
X365311Y18293D01*
X365412Y18297D01*
X365512Y18297D01*
X365613Y18293D01*
X365713Y18285D01*
X365813Y18273D01*
X365913Y18258D01*
X366012Y18238D01*
X366110Y18215D01*
X366207Y18188D01*
X366302Y18157D01*
X366397Y18123D01*
X366490Y18085D01*
X366582Y18043D01*
X366672Y17998D01*
X366760Y17949D01*
X366846Y17897D01*
X366930Y17842D01*
X367012Y17783D01*
X367092Y17722D01*
X367169Y17657D01*
X367243Y17589D01*
X367315Y17519D01*
X367384Y17446D01*
X367451Y17370D01*
X367514Y17291D01*
X367574Y17211D01*
X367631Y17128D01*
X367685Y17042D01*
X367735Y16955D01*
X367782Y16866D01*
X367825Y16775D01*
X367865Y16683D01*
X367901Y16589D01*
X367934Y16494D01*
X367963Y16397D01*
X367988Y16300D01*
X368009Y16201D01*
X368027Y16102D01*
X368040Y16002D01*
X368050Y15902D01*
X368056Y15802D01*
X368058Y15701D01*
X368058Y14403D01*
X362865Y14403D01*
X373219Y10508D02*
X373219Y18297D01*
X377113Y18297D01*
X377113Y16999D01*
X106999Y36049D02*
X105052Y36049D01*
X106999Y36049D02*
X106999Y29558D01*
X103104Y29558D01*
X103005Y29560D01*
X102905Y29566D01*
X102806Y29575D01*
X102708Y29588D01*
X102610Y29605D01*
X102512Y29626D01*
X102416Y29651D01*
X102321Y29679D01*
X102227Y29711D01*
X102134Y29746D01*
X102042Y29785D01*
X101952Y29828D01*
X101864Y29873D01*
X101777Y29923D01*
X101693Y29975D01*
X101610Y30031D01*
X101530Y30089D01*
X101452Y30151D01*
X101377Y30216D01*
X101304Y30284D01*
X101234Y30354D01*
X101166Y30427D01*
X101101Y30502D01*
X101039Y30580D01*
X100981Y30660D01*
X100925Y30743D01*
X100873Y30827D01*
X100823Y30914D01*
X100778Y31002D01*
X100735Y31092D01*
X100696Y31184D01*
X100661Y31277D01*
X100629Y31371D01*
X100601Y31466D01*
X100576Y31562D01*
X100555Y31660D01*
X100538Y31758D01*
X100525Y31856D01*
X100516Y31955D01*
X100510Y32055D01*
X100508Y32154D01*
X100508Y38646D01*
X100510Y38745D01*
X100516Y38845D01*
X100525Y38944D01*
X100538Y39042D01*
X100555Y39140D01*
X100576Y39238D01*
X100601Y39334D01*
X100629Y39429D01*
X100661Y39523D01*
X100696Y39616D01*
X100735Y39708D01*
X100778Y39798D01*
X100823Y39886D01*
X100873Y39973D01*
X100925Y40057D01*
X100981Y40140D01*
X101039Y40220D01*
X101101Y40298D01*
X101166Y40373D01*
X101234Y40446D01*
X101304Y40516D01*
X101377Y40584D01*
X101452Y40649D01*
X101530Y40711D01*
X101610Y40769D01*
X101693Y40825D01*
X101777Y40877D01*
X101864Y40927D01*
X101952Y40972D01*
X102042Y41015D01*
X102134Y41054D01*
X102226Y41089D01*
X102321Y41121D01*
X102416Y41149D01*
X102512Y41174D01*
X102610Y41195D01*
X102708Y41212D01*
X102806Y41225D01*
X102905Y41234D01*
X103005Y41240D01*
X103104Y41242D01*
X106999Y41242D01*
X112869Y41242D02*
X112869Y29558D01*
X112869Y41242D02*
X116115Y41242D01*
X116228Y41240D01*
X116341Y41234D01*
X116454Y41224D01*
X116567Y41210D01*
X116679Y41193D01*
X116790Y41171D01*
X116900Y41146D01*
X117010Y41116D01*
X117118Y41083D01*
X117225Y41046D01*
X117331Y41006D01*
X117435Y40961D01*
X117538Y40913D01*
X117639Y40862D01*
X117738Y40807D01*
X117835Y40749D01*
X117930Y40687D01*
X118023Y40622D01*
X118113Y40554D01*
X118201Y40483D01*
X118287Y40408D01*
X118370Y40331D01*
X118450Y40251D01*
X118527Y40168D01*
X118602Y40082D01*
X118673Y39994D01*
X118741Y39904D01*
X118806Y39811D01*
X118868Y39716D01*
X118926Y39619D01*
X118981Y39520D01*
X119032Y39419D01*
X119080Y39316D01*
X119125Y39212D01*
X119165Y39106D01*
X119202Y38999D01*
X119235Y38891D01*
X119265Y38781D01*
X119290Y38671D01*
X119312Y38560D01*
X119329Y38448D01*
X119343Y38335D01*
X119353Y38222D01*
X119359Y38109D01*
X119361Y37996D01*
X119359Y37883D01*
X119353Y37770D01*
X119343Y37657D01*
X119329Y37544D01*
X119312Y37432D01*
X119290Y37321D01*
X119265Y37211D01*
X119235Y37101D01*
X119202Y36993D01*
X119165Y36886D01*
X119125Y36780D01*
X119080Y36676D01*
X119032Y36573D01*
X118981Y36472D01*
X118926Y36373D01*
X118868Y36276D01*
X118806Y36181D01*
X118741Y36088D01*
X118673Y35998D01*
X118602Y35910D01*
X118527Y35824D01*
X118450Y35741D01*
X118370Y35661D01*
X118287Y35584D01*
X118201Y35509D01*
X118113Y35438D01*
X118023Y35370D01*
X117930Y35305D01*
X117835Y35243D01*
X117738Y35185D01*
X117639Y35130D01*
X117538Y35079D01*
X117435Y35031D01*
X117331Y34986D01*
X117225Y34946D01*
X117118Y34909D01*
X117010Y34876D01*
X116900Y34846D01*
X116790Y34821D01*
X116679Y34799D01*
X116567Y34782D01*
X116454Y34768D01*
X116341Y34758D01*
X116228Y34752D01*
X116115Y34750D01*
X116115Y34751D02*
X112869Y34751D01*
X127263Y29558D02*
X127362Y29560D01*
X127462Y29566D01*
X127561Y29575D01*
X127659Y29588D01*
X127757Y29605D01*
X127855Y29626D01*
X127951Y29651D01*
X128046Y29679D01*
X128140Y29711D01*
X128233Y29746D01*
X128325Y29785D01*
X128415Y29828D01*
X128503Y29873D01*
X128590Y29923D01*
X128674Y29975D01*
X128757Y30031D01*
X128837Y30089D01*
X128915Y30151D01*
X128990Y30216D01*
X129063Y30284D01*
X129133Y30354D01*
X129201Y30427D01*
X129266Y30502D01*
X129328Y30580D01*
X129386Y30660D01*
X129442Y30743D01*
X129494Y30827D01*
X129544Y30914D01*
X129589Y31002D01*
X129632Y31092D01*
X129671Y31184D01*
X129706Y31277D01*
X129738Y31371D01*
X129766Y31466D01*
X129791Y31562D01*
X129812Y31660D01*
X129829Y31758D01*
X129842Y31856D01*
X129851Y31955D01*
X129857Y32055D01*
X129859Y32154D01*
X127263Y29558D02*
X127119Y29560D01*
X126974Y29566D01*
X126830Y29575D01*
X126687Y29588D01*
X126543Y29605D01*
X126400Y29626D01*
X126258Y29651D01*
X126117Y29679D01*
X125976Y29711D01*
X125836Y29747D01*
X125697Y29786D01*
X125559Y29829D01*
X125423Y29876D01*
X125287Y29926D01*
X125153Y29980D01*
X125021Y30037D01*
X124890Y30098D01*
X124761Y30162D01*
X124633Y30230D01*
X124507Y30300D01*
X124383Y30375D01*
X124262Y30452D01*
X124142Y30533D01*
X124024Y30616D01*
X123909Y30703D01*
X123796Y30793D01*
X123685Y30886D01*
X123577Y30981D01*
X123471Y31080D01*
X123368Y31181D01*
X123693Y38646D02*
X123695Y38745D01*
X123701Y38845D01*
X123710Y38944D01*
X123723Y39042D01*
X123740Y39140D01*
X123761Y39238D01*
X123786Y39334D01*
X123814Y39429D01*
X123846Y39523D01*
X123881Y39616D01*
X123920Y39708D01*
X123963Y39798D01*
X124008Y39886D01*
X124058Y39973D01*
X124110Y40057D01*
X124166Y40140D01*
X124224Y40220D01*
X124286Y40298D01*
X124351Y40373D01*
X124419Y40446D01*
X124489Y40516D01*
X124562Y40584D01*
X124637Y40649D01*
X124715Y40711D01*
X124795Y40769D01*
X124878Y40825D01*
X124962Y40877D01*
X125049Y40927D01*
X125137Y40972D01*
X125227Y41015D01*
X125319Y41054D01*
X125412Y41089D01*
X125506Y41121D01*
X125601Y41149D01*
X125698Y41174D01*
X125795Y41195D01*
X125893Y41212D01*
X125991Y41225D01*
X126090Y41234D01*
X126190Y41240D01*
X126289Y41242D01*
X126425Y41240D01*
X126561Y41234D01*
X126697Y41225D01*
X126833Y41212D01*
X126968Y41194D01*
X127102Y41174D01*
X127236Y41149D01*
X127370Y41121D01*
X127502Y41088D01*
X127633Y41053D01*
X127764Y41013D01*
X127893Y40970D01*
X128021Y40924D01*
X128147Y40873D01*
X128273Y40820D01*
X128396Y40762D01*
X128518Y40702D01*
X128638Y40638D01*
X128757Y40570D01*
X128873Y40500D01*
X128987Y40426D01*
X129100Y40349D01*
X129210Y40268D01*
X124990Y36374D02*
X124904Y36427D01*
X124820Y36484D01*
X124738Y36543D01*
X124658Y36606D01*
X124581Y36672D01*
X124506Y36740D01*
X124434Y36812D01*
X124365Y36886D01*
X124299Y36963D01*
X124236Y37042D01*
X124176Y37124D01*
X124119Y37208D01*
X124065Y37294D01*
X124015Y37382D01*
X123968Y37472D01*
X123924Y37563D01*
X123885Y37657D01*
X123848Y37751D01*
X123816Y37847D01*
X123787Y37945D01*
X123762Y38043D01*
X123741Y38142D01*
X123723Y38242D01*
X123710Y38342D01*
X123700Y38443D01*
X123694Y38545D01*
X123692Y38646D01*
X128561Y34426D02*
X128647Y34373D01*
X128731Y34316D01*
X128813Y34257D01*
X128893Y34194D01*
X128970Y34128D01*
X129045Y34060D01*
X129117Y33988D01*
X129186Y33914D01*
X129252Y33837D01*
X129315Y33758D01*
X129375Y33676D01*
X129432Y33592D01*
X129486Y33506D01*
X129536Y33418D01*
X129583Y33328D01*
X129627Y33237D01*
X129666Y33143D01*
X129703Y33049D01*
X129735Y32953D01*
X129764Y32855D01*
X129789Y32757D01*
X129810Y32658D01*
X129828Y32558D01*
X129841Y32458D01*
X129851Y32357D01*
X129857Y32255D01*
X129859Y32154D01*
X128561Y34426D02*
X124991Y36374D01*
X100508Y22192D02*
X100508Y10508D01*
X100508Y22192D02*
X103754Y22192D01*
X103867Y22190D01*
X103980Y22184D01*
X104093Y22174D01*
X104206Y22160D01*
X104318Y22143D01*
X104429Y22121D01*
X104539Y22096D01*
X104649Y22066D01*
X104757Y22033D01*
X104864Y21996D01*
X104970Y21956D01*
X105074Y21911D01*
X105177Y21863D01*
X105278Y21812D01*
X105377Y21757D01*
X105474Y21699D01*
X105569Y21637D01*
X105662Y21572D01*
X105752Y21504D01*
X105840Y21433D01*
X105926Y21358D01*
X106009Y21281D01*
X106089Y21201D01*
X106166Y21118D01*
X106241Y21032D01*
X106312Y20944D01*
X106380Y20854D01*
X106445Y20761D01*
X106507Y20666D01*
X106565Y20569D01*
X106620Y20470D01*
X106671Y20369D01*
X106719Y20266D01*
X106764Y20162D01*
X106804Y20056D01*
X106841Y19949D01*
X106874Y19841D01*
X106904Y19731D01*
X106929Y19621D01*
X106951Y19510D01*
X106968Y19398D01*
X106982Y19285D01*
X106992Y19172D01*
X106998Y19059D01*
X107000Y18946D01*
X106999Y18946D02*
X106999Y13754D01*
X107000Y13754D02*
X106998Y13641D01*
X106992Y13528D01*
X106982Y13415D01*
X106968Y13302D01*
X106951Y13190D01*
X106929Y13079D01*
X106904Y12969D01*
X106874Y12859D01*
X106841Y12751D01*
X106804Y12644D01*
X106764Y12538D01*
X106719Y12434D01*
X106671Y12331D01*
X106620Y12230D01*
X106565Y12131D01*
X106507Y12034D01*
X106445Y11939D01*
X106380Y11846D01*
X106312Y11756D01*
X106241Y11668D01*
X106166Y11582D01*
X106089Y11499D01*
X106009Y11419D01*
X105926Y11342D01*
X105840Y11267D01*
X105752Y11196D01*
X105662Y11128D01*
X105569Y11063D01*
X105474Y11001D01*
X105377Y10943D01*
X105278Y10888D01*
X105177Y10837D01*
X105074Y10789D01*
X104970Y10744D01*
X104864Y10704D01*
X104757Y10667D01*
X104649Y10634D01*
X104539Y10604D01*
X104429Y10579D01*
X104318Y10557D01*
X104206Y10540D01*
X104093Y10526D01*
X103980Y10516D01*
X103867Y10510D01*
X103754Y10508D01*
X100508Y10508D01*
X112206Y13104D02*
X112206Y15701D01*
X112207Y15701D02*
X112209Y15802D01*
X112215Y15902D01*
X112225Y16002D01*
X112238Y16102D01*
X112256Y16201D01*
X112277Y16300D01*
X112302Y16397D01*
X112331Y16494D01*
X112364Y16589D01*
X112400Y16683D01*
X112440Y16775D01*
X112483Y16866D01*
X112530Y16955D01*
X112580Y17042D01*
X112634Y17128D01*
X112691Y17211D01*
X112751Y17291D01*
X112814Y17370D01*
X112881Y17446D01*
X112950Y17519D01*
X113022Y17589D01*
X113096Y17657D01*
X113173Y17722D01*
X113253Y17783D01*
X113335Y17842D01*
X113419Y17897D01*
X113505Y17949D01*
X113593Y17998D01*
X113683Y18043D01*
X113775Y18085D01*
X113868Y18123D01*
X113963Y18157D01*
X114058Y18188D01*
X114155Y18215D01*
X114253Y18238D01*
X114352Y18258D01*
X114452Y18273D01*
X114552Y18285D01*
X114652Y18293D01*
X114753Y18297D01*
X114853Y18297D01*
X114954Y18293D01*
X115054Y18285D01*
X115154Y18273D01*
X115254Y18258D01*
X115353Y18238D01*
X115451Y18215D01*
X115548Y18188D01*
X115643Y18157D01*
X115738Y18123D01*
X115831Y18085D01*
X115923Y18043D01*
X116013Y17998D01*
X116101Y17949D01*
X116187Y17897D01*
X116271Y17842D01*
X116353Y17783D01*
X116433Y17722D01*
X116510Y17657D01*
X116584Y17589D01*
X116656Y17519D01*
X116725Y17446D01*
X116792Y17370D01*
X116855Y17291D01*
X116915Y17211D01*
X116972Y17128D01*
X117026Y17042D01*
X117076Y16955D01*
X117123Y16866D01*
X117166Y16775D01*
X117206Y16683D01*
X117242Y16589D01*
X117275Y16494D01*
X117304Y16397D01*
X117329Y16300D01*
X117350Y16201D01*
X117368Y16102D01*
X117381Y16002D01*
X117391Y15902D01*
X117397Y15802D01*
X117399Y15701D01*
X117399Y13104D01*
X117397Y13003D01*
X117391Y12903D01*
X117381Y12803D01*
X117368Y12703D01*
X117350Y12604D01*
X117329Y12505D01*
X117304Y12408D01*
X117275Y12311D01*
X117242Y12216D01*
X117206Y12122D01*
X117166Y12030D01*
X117123Y11939D01*
X117076Y11850D01*
X117026Y11763D01*
X116972Y11677D01*
X116915Y11594D01*
X116855Y11514D01*
X116792Y11435D01*
X116725Y11359D01*
X116656Y11286D01*
X116584Y11216D01*
X116510Y11148D01*
X116433Y11083D01*
X116353Y11022D01*
X116271Y10963D01*
X116187Y10908D01*
X116101Y10856D01*
X116013Y10807D01*
X115923Y10762D01*
X115831Y10720D01*
X115738Y10682D01*
X115643Y10648D01*
X115548Y10617D01*
X115451Y10590D01*
X115353Y10567D01*
X115254Y10547D01*
X115154Y10532D01*
X115054Y10520D01*
X114954Y10512D01*
X114853Y10508D01*
X114753Y10508D01*
X114652Y10512D01*
X114552Y10520D01*
X114452Y10532D01*
X114352Y10547D01*
X114253Y10567D01*
X114155Y10590D01*
X114058Y10617D01*
X113963Y10648D01*
X113868Y10682D01*
X113775Y10720D01*
X113683Y10762D01*
X113593Y10807D01*
X113505Y10856D01*
X113419Y10908D01*
X113335Y10963D01*
X113253Y11022D01*
X113173Y11083D01*
X113096Y11148D01*
X113022Y11216D01*
X112950Y11286D01*
X112881Y11359D01*
X112814Y11435D01*
X112751Y11514D01*
X112691Y11594D01*
X112634Y11677D01*
X112580Y11763D01*
X112530Y11850D01*
X112483Y11939D01*
X112440Y12030D01*
X112400Y12122D01*
X112364Y12216D01*
X112331Y12311D01*
X112302Y12408D01*
X112277Y12505D01*
X112256Y12604D01*
X112238Y12703D01*
X112225Y12803D01*
X112215Y12903D01*
X112209Y13003D01*
X112207Y13104D01*
X121957Y18297D02*
X123904Y10508D01*
X125852Y15701D01*
X127799Y10508D01*
X129746Y18297D01*
X134685Y18297D02*
X134685Y10508D01*
X134685Y18297D02*
X137931Y18297D01*
X138018Y18295D01*
X138106Y18289D01*
X138192Y18279D01*
X138279Y18266D01*
X138364Y18248D01*
X138449Y18227D01*
X138533Y18202D01*
X138615Y18173D01*
X138696Y18140D01*
X138776Y18104D01*
X138854Y18065D01*
X138930Y18021D01*
X139004Y17975D01*
X139075Y17925D01*
X139145Y17872D01*
X139212Y17816D01*
X139276Y17757D01*
X139338Y17696D01*
X139397Y17631D01*
X139453Y17564D01*
X139506Y17494D01*
X139556Y17423D01*
X139602Y17349D01*
X139646Y17273D01*
X139685Y17195D01*
X139721Y17115D01*
X139754Y17034D01*
X139783Y16952D01*
X139808Y16868D01*
X139829Y16783D01*
X139847Y16698D01*
X139860Y16611D01*
X139870Y16525D01*
X139876Y16437D01*
X139878Y16350D01*
X139878Y10508D01*
X145489Y10508D02*
X145489Y22192D01*
X145489Y10508D02*
X150681Y10508D01*
X154808Y10508D02*
X154808Y18297D01*
X154483Y21543D02*
X154483Y22192D01*
X155132Y22192D01*
X155132Y21543D01*
X154483Y21543D01*
X159831Y18297D02*
X159831Y10508D01*
X159831Y18297D02*
X163077Y18297D01*
X163164Y18295D01*
X163252Y18289D01*
X163338Y18279D01*
X163425Y18266D01*
X163510Y18248D01*
X163595Y18227D01*
X163679Y18202D01*
X163761Y18173D01*
X163842Y18140D01*
X163922Y18104D01*
X164000Y18065D01*
X164076Y18021D01*
X164150Y17975D01*
X164221Y17925D01*
X164291Y17872D01*
X164358Y17816D01*
X164422Y17757D01*
X164484Y17696D01*
X164543Y17631D01*
X164599Y17564D01*
X164652Y17494D01*
X164702Y17423D01*
X164748Y17349D01*
X164792Y17273D01*
X164831Y17195D01*
X164867Y17115D01*
X164900Y17034D01*
X164929Y16952D01*
X164954Y16868D01*
X164975Y16783D01*
X164993Y16698D01*
X165006Y16611D01*
X165016Y16525D01*
X165022Y16437D01*
X165024Y16350D01*
X165024Y10508D01*
X170635Y10508D02*
X170635Y22192D01*
X175827Y18297D02*
X170635Y14403D01*
X172906Y16025D02*
X175827Y10508D01*
D12*
X85000Y10000D02*
X85000Y340000D01*
X85000Y10000D02*
X50000Y10000D01*
X50000Y340000D01*
D13*
X57032Y25207D02*
X88189Y25207D01*
X88189Y325207D02*
X57032Y325207D01*
D12*
X50000Y340000D02*
X85000Y340000D01*
D11*
X9177Y115508D02*
X5508Y115508D01*
X9177Y115508D02*
X9297Y115510D01*
X9417Y115516D01*
X9537Y115526D01*
X9656Y115539D01*
X9775Y115557D01*
X9893Y115578D01*
X10010Y115604D01*
X10127Y115633D01*
X10242Y115666D01*
X10356Y115703D01*
X10469Y115743D01*
X10581Y115787D01*
X10691Y115835D01*
X10800Y115886D01*
X10907Y115941D01*
X11012Y116000D01*
X11114Y116061D01*
X11215Y116126D01*
X11314Y116195D01*
X11411Y116266D01*
X11505Y116341D01*
X11596Y116418D01*
X11685Y116499D01*
X11771Y116583D01*
X11855Y116669D01*
X11936Y116758D01*
X12013Y116849D01*
X12088Y116943D01*
X12159Y117040D01*
X12228Y117139D01*
X12293Y117240D01*
X12354Y117343D01*
X12413Y117447D01*
X12468Y117554D01*
X12519Y117663D01*
X12567Y117773D01*
X12611Y117885D01*
X12651Y117998D01*
X12688Y118112D01*
X12721Y118227D01*
X12750Y118344D01*
X12776Y118461D01*
X12797Y118579D01*
X12815Y118698D01*
X12828Y118817D01*
X12838Y118937D01*
X12844Y119057D01*
X12846Y119177D01*
X12844Y119297D01*
X12838Y119417D01*
X12828Y119537D01*
X12815Y119656D01*
X12797Y119775D01*
X12776Y119893D01*
X12750Y120010D01*
X12721Y120127D01*
X12688Y120242D01*
X12651Y120356D01*
X12611Y120469D01*
X12567Y120581D01*
X12519Y120691D01*
X12468Y120800D01*
X12413Y120907D01*
X12354Y121012D01*
X12293Y121114D01*
X12228Y121215D01*
X12159Y121314D01*
X12088Y121411D01*
X12013Y121505D01*
X11936Y121596D01*
X11855Y121685D01*
X11771Y121771D01*
X11685Y121855D01*
X11596Y121936D01*
X11505Y122013D01*
X11411Y122088D01*
X11314Y122159D01*
X11215Y122228D01*
X11114Y122293D01*
X11011Y122354D01*
X10907Y122413D01*
X10800Y122468D01*
X10691Y122519D01*
X10581Y122567D01*
X10469Y122611D01*
X10356Y122651D01*
X10242Y122688D01*
X10127Y122721D01*
X10010Y122750D01*
X9893Y122776D01*
X9775Y122797D01*
X9656Y122815D01*
X9537Y122828D01*
X9417Y122838D01*
X9297Y122844D01*
X9177Y122846D01*
X9911Y128716D02*
X5508Y128716D01*
X9911Y128716D02*
X10018Y128714D01*
X10125Y128708D01*
X10232Y128698D01*
X10338Y128685D01*
X10444Y128667D01*
X10549Y128646D01*
X10653Y128621D01*
X10757Y128592D01*
X10859Y128559D01*
X10959Y128522D01*
X11059Y128482D01*
X11157Y128438D01*
X11253Y128391D01*
X11347Y128340D01*
X11440Y128286D01*
X11530Y128229D01*
X11619Y128168D01*
X11705Y128104D01*
X11788Y128037D01*
X11870Y127967D01*
X11948Y127894D01*
X12024Y127818D01*
X12097Y127740D01*
X12167Y127658D01*
X12234Y127575D01*
X12298Y127489D01*
X12359Y127400D01*
X12416Y127310D01*
X12470Y127217D01*
X12521Y127123D01*
X12568Y127027D01*
X12612Y126929D01*
X12652Y126829D01*
X12689Y126729D01*
X12722Y126627D01*
X12751Y126523D01*
X12776Y126419D01*
X12797Y126314D01*
X12815Y126208D01*
X12828Y126102D01*
X12838Y125995D01*
X12844Y125888D01*
X12846Y125781D01*
X12844Y125674D01*
X12838Y125567D01*
X12828Y125460D01*
X12815Y125354D01*
X12797Y125248D01*
X12776Y125143D01*
X12751Y125039D01*
X12722Y124935D01*
X12689Y124833D01*
X12652Y124733D01*
X12612Y124633D01*
X12568Y124535D01*
X12521Y124439D01*
X12470Y124345D01*
X12416Y124252D01*
X12359Y124162D01*
X12298Y124073D01*
X12234Y123987D01*
X12167Y123904D01*
X12097Y123822D01*
X12024Y123744D01*
X11948Y123668D01*
X11870Y123595D01*
X11788Y123525D01*
X11705Y123458D01*
X11619Y123394D01*
X11530Y123333D01*
X11440Y123276D01*
X11347Y123222D01*
X11253Y123171D01*
X11157Y123124D01*
X11059Y123080D01*
X10959Y123040D01*
X10859Y123003D01*
X10757Y122970D01*
X10653Y122941D01*
X10549Y122916D01*
X10444Y122895D01*
X10338Y122877D01*
X10232Y122864D01*
X10125Y122854D01*
X10018Y122848D01*
X9911Y122846D01*
X6976Y122846D01*
X17771Y116242D02*
X17771Y115508D01*
X17771Y116242D02*
X18505Y116242D01*
X18505Y115508D01*
X17771Y115508D01*
X23430Y127248D02*
X23430Y128716D01*
X30768Y128716D01*
X27099Y115508D01*
X36351Y120644D02*
X45157Y120644D01*
X50740Y125781D02*
X54409Y128716D01*
X54409Y115508D01*
X50740Y115508D02*
X58078Y115508D01*
X9177Y45508D02*
X5508Y45508D01*
X9177Y45508D02*
X9297Y45510D01*
X9417Y45516D01*
X9537Y45526D01*
X9656Y45539D01*
X9775Y45557D01*
X9893Y45578D01*
X10010Y45604D01*
X10127Y45633D01*
X10242Y45666D01*
X10356Y45703D01*
X10469Y45743D01*
X10581Y45787D01*
X10691Y45835D01*
X10800Y45886D01*
X10907Y45941D01*
X11012Y46000D01*
X11114Y46061D01*
X11215Y46126D01*
X11314Y46195D01*
X11411Y46266D01*
X11505Y46341D01*
X11596Y46418D01*
X11685Y46499D01*
X11771Y46583D01*
X11855Y46669D01*
X11936Y46758D01*
X12013Y46849D01*
X12088Y46943D01*
X12159Y47040D01*
X12228Y47139D01*
X12293Y47240D01*
X12354Y47343D01*
X12413Y47447D01*
X12468Y47554D01*
X12519Y47663D01*
X12567Y47773D01*
X12611Y47885D01*
X12651Y47998D01*
X12688Y48112D01*
X12721Y48227D01*
X12750Y48344D01*
X12776Y48461D01*
X12797Y48579D01*
X12815Y48698D01*
X12828Y48817D01*
X12838Y48937D01*
X12844Y49057D01*
X12846Y49177D01*
X12844Y49297D01*
X12838Y49417D01*
X12828Y49537D01*
X12815Y49656D01*
X12797Y49775D01*
X12776Y49893D01*
X12750Y50010D01*
X12721Y50127D01*
X12688Y50242D01*
X12651Y50356D01*
X12611Y50469D01*
X12567Y50581D01*
X12519Y50691D01*
X12468Y50800D01*
X12413Y50907D01*
X12354Y51012D01*
X12293Y51114D01*
X12228Y51215D01*
X12159Y51314D01*
X12088Y51411D01*
X12013Y51505D01*
X11936Y51596D01*
X11855Y51685D01*
X11771Y51771D01*
X11685Y51855D01*
X11596Y51936D01*
X11505Y52013D01*
X11411Y52088D01*
X11314Y52159D01*
X11215Y52228D01*
X11114Y52293D01*
X11011Y52354D01*
X10907Y52413D01*
X10800Y52468D01*
X10691Y52519D01*
X10581Y52567D01*
X10469Y52611D01*
X10356Y52651D01*
X10242Y52688D01*
X10127Y52721D01*
X10010Y52750D01*
X9893Y52776D01*
X9775Y52797D01*
X9656Y52815D01*
X9537Y52828D01*
X9417Y52838D01*
X9297Y52844D01*
X9177Y52846D01*
X9911Y58716D02*
X5508Y58716D01*
X9911Y58716D02*
X10018Y58714D01*
X10125Y58708D01*
X10232Y58698D01*
X10338Y58685D01*
X10444Y58667D01*
X10549Y58646D01*
X10653Y58621D01*
X10757Y58592D01*
X10859Y58559D01*
X10959Y58522D01*
X11059Y58482D01*
X11157Y58438D01*
X11253Y58391D01*
X11347Y58340D01*
X11440Y58286D01*
X11530Y58229D01*
X11619Y58168D01*
X11705Y58104D01*
X11788Y58037D01*
X11870Y57967D01*
X11948Y57894D01*
X12024Y57818D01*
X12097Y57740D01*
X12167Y57658D01*
X12234Y57575D01*
X12298Y57489D01*
X12359Y57400D01*
X12416Y57310D01*
X12470Y57217D01*
X12521Y57123D01*
X12568Y57027D01*
X12612Y56929D01*
X12652Y56829D01*
X12689Y56729D01*
X12722Y56627D01*
X12751Y56523D01*
X12776Y56419D01*
X12797Y56314D01*
X12815Y56208D01*
X12828Y56102D01*
X12838Y55995D01*
X12844Y55888D01*
X12846Y55781D01*
X12844Y55674D01*
X12838Y55567D01*
X12828Y55460D01*
X12815Y55354D01*
X12797Y55248D01*
X12776Y55143D01*
X12751Y55039D01*
X12722Y54935D01*
X12689Y54833D01*
X12652Y54733D01*
X12612Y54633D01*
X12568Y54535D01*
X12521Y54439D01*
X12470Y54345D01*
X12416Y54252D01*
X12359Y54162D01*
X12298Y54073D01*
X12234Y53987D01*
X12167Y53904D01*
X12097Y53822D01*
X12024Y53744D01*
X11948Y53668D01*
X11870Y53595D01*
X11788Y53525D01*
X11705Y53458D01*
X11619Y53394D01*
X11530Y53333D01*
X11440Y53276D01*
X11347Y53222D01*
X11253Y53171D01*
X11157Y53124D01*
X11059Y53080D01*
X10959Y53040D01*
X10859Y53003D01*
X10757Y52970D01*
X10653Y52941D01*
X10549Y52916D01*
X10444Y52895D01*
X10338Y52877D01*
X10232Y52864D01*
X10125Y52854D01*
X10018Y52848D01*
X9911Y52846D01*
X6976Y52846D01*
X17771Y46242D02*
X17771Y45508D01*
X17771Y46242D02*
X18505Y46242D01*
X18505Y45508D01*
X17771Y45508D01*
X23430Y57248D02*
X23430Y58716D01*
X30768Y58716D01*
X27099Y45508D01*
X36351Y50644D02*
X45157Y50644D01*
X54776Y58716D02*
X54889Y58714D01*
X55001Y58708D01*
X55114Y58699D01*
X55226Y58685D01*
X55337Y58668D01*
X55448Y58647D01*
X55558Y58622D01*
X55667Y58594D01*
X55775Y58561D01*
X55882Y58525D01*
X55987Y58486D01*
X56092Y58443D01*
X56194Y58396D01*
X56295Y58346D01*
X56394Y58292D01*
X56492Y58235D01*
X56587Y58175D01*
X56680Y58112D01*
X56771Y58045D01*
X56860Y57975D01*
X56946Y57903D01*
X57030Y57827D01*
X57111Y57749D01*
X57189Y57668D01*
X57265Y57584D01*
X57337Y57498D01*
X57407Y57409D01*
X57474Y57318D01*
X57537Y57225D01*
X57597Y57130D01*
X57654Y57032D01*
X57708Y56933D01*
X57758Y56832D01*
X57805Y56730D01*
X57848Y56625D01*
X57887Y56520D01*
X57923Y56413D01*
X57956Y56305D01*
X57984Y56196D01*
X58009Y56086D01*
X58030Y55975D01*
X58047Y55864D01*
X58061Y55752D01*
X58070Y55639D01*
X58076Y55527D01*
X58078Y55414D01*
X54776Y58716D02*
X54649Y58714D01*
X54522Y58708D01*
X54395Y58699D01*
X54269Y58686D01*
X54143Y58669D01*
X54018Y58648D01*
X53893Y58623D01*
X53770Y58595D01*
X53647Y58563D01*
X53525Y58527D01*
X53404Y58488D01*
X53284Y58445D01*
X53166Y58399D01*
X53049Y58349D01*
X52934Y58295D01*
X52821Y58238D01*
X52709Y58178D01*
X52599Y58115D01*
X52491Y58048D01*
X52385Y57978D01*
X52281Y57905D01*
X52179Y57828D01*
X52080Y57749D01*
X51983Y57667D01*
X51889Y57582D01*
X51797Y57494D01*
X51708Y57404D01*
X51622Y57310D01*
X51538Y57215D01*
X51458Y57117D01*
X51380Y57016D01*
X51305Y56913D01*
X51234Y56808D01*
X51166Y56701D01*
X51101Y56592D01*
X51039Y56481D01*
X50980Y56368D01*
X50925Y56254D01*
X50874Y56138D01*
X50826Y56020D01*
X50781Y55901D01*
X50740Y55781D01*
X56977Y52846D02*
X57059Y52926D01*
X57138Y53009D01*
X57215Y53095D01*
X57289Y53183D01*
X57359Y53274D01*
X57427Y53366D01*
X57492Y53461D01*
X57554Y53558D01*
X57612Y53657D01*
X57668Y53758D01*
X57720Y53860D01*
X57768Y53964D01*
X57813Y54070D01*
X57855Y54177D01*
X57894Y54285D01*
X57928Y54395D01*
X57960Y54505D01*
X57987Y54617D01*
X58011Y54729D01*
X58032Y54842D01*
X58048Y54956D01*
X58061Y55070D01*
X58071Y55184D01*
X58076Y55299D01*
X58078Y55414D01*
X56977Y52846D02*
X50740Y45508D01*
X58078Y45508D01*
X10508Y267248D02*
X10508Y268716D01*
X17846Y268716D01*
X14177Y255508D01*
X22771Y255508D02*
X22771Y256242D01*
X23505Y256242D01*
X23505Y255508D01*
X22771Y255508D01*
X28430Y258443D02*
X31365Y268716D01*
X28430Y258443D02*
X35768Y258443D01*
X33567Y261378D02*
X33567Y255508D01*
D12*
X25000Y230000D02*
X25000Y215000D01*
X25000Y230000D02*
X40000Y245000D01*
X40000Y270000D01*
X55000Y285000D01*
D11*
X410508Y105508D02*
X414911Y105508D01*
X415018Y105510D01*
X415125Y105516D01*
X415232Y105526D01*
X415338Y105539D01*
X415444Y105557D01*
X415549Y105578D01*
X415653Y105603D01*
X415757Y105632D01*
X415859Y105665D01*
X415959Y105702D01*
X416059Y105742D01*
X416157Y105786D01*
X416253Y105833D01*
X416347Y105884D01*
X416440Y105938D01*
X416530Y105995D01*
X416619Y106056D01*
X416705Y106120D01*
X416788Y106187D01*
X416870Y106257D01*
X416948Y106330D01*
X417024Y106406D01*
X417097Y106484D01*
X417167Y106566D01*
X417234Y106649D01*
X417298Y106735D01*
X417359Y106824D01*
X417416Y106914D01*
X417470Y107007D01*
X417521Y107101D01*
X417569Y107197D01*
X417612Y107295D01*
X417652Y107395D01*
X417689Y107495D01*
X417722Y107597D01*
X417751Y107701D01*
X417776Y107805D01*
X417797Y107910D01*
X417815Y108016D01*
X417828Y108122D01*
X417838Y108229D01*
X417844Y108336D01*
X417846Y108443D01*
X417846Y109911D01*
X417844Y110018D01*
X417838Y110125D01*
X417828Y110232D01*
X417815Y110338D01*
X417797Y110444D01*
X417776Y110549D01*
X417751Y110653D01*
X417722Y110757D01*
X417689Y110859D01*
X417652Y110959D01*
X417612Y111059D01*
X417568Y111157D01*
X417521Y111253D01*
X417470Y111347D01*
X417416Y111440D01*
X417359Y111530D01*
X417298Y111619D01*
X417234Y111705D01*
X417167Y111788D01*
X417097Y111870D01*
X417024Y111948D01*
X416948Y112024D01*
X416870Y112097D01*
X416788Y112167D01*
X416705Y112234D01*
X416619Y112298D01*
X416530Y112359D01*
X416440Y112416D01*
X416347Y112470D01*
X416253Y112521D01*
X416157Y112568D01*
X416059Y112612D01*
X415959Y112652D01*
X415859Y112689D01*
X415757Y112722D01*
X415653Y112751D01*
X415549Y112776D01*
X415444Y112797D01*
X415338Y112815D01*
X415232Y112828D01*
X415125Y112838D01*
X415018Y112844D01*
X414911Y112846D01*
X410508Y112846D01*
X410508Y118716D01*
X417846Y118716D01*
X422576Y118716D02*
X426978Y105508D01*
X431381Y118716D01*
X409177Y270508D02*
X405508Y270508D01*
X409177Y270508D02*
X409297Y270510D01*
X409417Y270516D01*
X409537Y270526D01*
X409656Y270539D01*
X409775Y270557D01*
X409893Y270578D01*
X410010Y270604D01*
X410127Y270633D01*
X410242Y270666D01*
X410356Y270703D01*
X410469Y270743D01*
X410581Y270787D01*
X410691Y270835D01*
X410800Y270886D01*
X410907Y270941D01*
X411012Y271000D01*
X411114Y271061D01*
X411215Y271126D01*
X411314Y271195D01*
X411411Y271266D01*
X411505Y271341D01*
X411596Y271418D01*
X411685Y271499D01*
X411771Y271583D01*
X411855Y271669D01*
X411936Y271758D01*
X412013Y271849D01*
X412088Y271943D01*
X412159Y272040D01*
X412228Y272139D01*
X412293Y272240D01*
X412354Y272343D01*
X412413Y272447D01*
X412468Y272554D01*
X412519Y272663D01*
X412567Y272773D01*
X412611Y272885D01*
X412651Y272998D01*
X412688Y273112D01*
X412721Y273227D01*
X412750Y273344D01*
X412776Y273461D01*
X412797Y273579D01*
X412815Y273698D01*
X412828Y273817D01*
X412838Y273937D01*
X412844Y274057D01*
X412846Y274177D01*
X412844Y274297D01*
X412838Y274417D01*
X412828Y274537D01*
X412815Y274656D01*
X412797Y274775D01*
X412776Y274893D01*
X412750Y275010D01*
X412721Y275127D01*
X412688Y275242D01*
X412651Y275356D01*
X412611Y275469D01*
X412567Y275581D01*
X412519Y275691D01*
X412468Y275800D01*
X412413Y275907D01*
X412354Y276012D01*
X412293Y276114D01*
X412228Y276215D01*
X412159Y276314D01*
X412088Y276411D01*
X412013Y276505D01*
X411936Y276596D01*
X411855Y276685D01*
X411771Y276771D01*
X411685Y276855D01*
X411596Y276936D01*
X411505Y277013D01*
X411411Y277088D01*
X411314Y277159D01*
X411215Y277228D01*
X411114Y277293D01*
X411011Y277354D01*
X410907Y277413D01*
X410800Y277468D01*
X410691Y277519D01*
X410581Y277567D01*
X410469Y277611D01*
X410356Y277651D01*
X410242Y277688D01*
X410127Y277721D01*
X410010Y277750D01*
X409893Y277776D01*
X409775Y277797D01*
X409656Y277815D01*
X409537Y277828D01*
X409417Y277838D01*
X409297Y277844D01*
X409177Y277846D01*
X409911Y283716D02*
X405508Y283716D01*
X409911Y283716D02*
X410018Y283714D01*
X410125Y283708D01*
X410232Y283698D01*
X410338Y283685D01*
X410444Y283667D01*
X410549Y283646D01*
X410653Y283621D01*
X410757Y283592D01*
X410859Y283559D01*
X410959Y283522D01*
X411059Y283482D01*
X411157Y283438D01*
X411253Y283391D01*
X411347Y283340D01*
X411440Y283286D01*
X411530Y283229D01*
X411619Y283168D01*
X411705Y283104D01*
X411788Y283037D01*
X411870Y282967D01*
X411948Y282894D01*
X412024Y282818D01*
X412097Y282740D01*
X412167Y282658D01*
X412234Y282575D01*
X412298Y282489D01*
X412359Y282400D01*
X412416Y282310D01*
X412470Y282217D01*
X412521Y282123D01*
X412568Y282027D01*
X412612Y281929D01*
X412652Y281829D01*
X412689Y281729D01*
X412722Y281627D01*
X412751Y281523D01*
X412776Y281419D01*
X412797Y281314D01*
X412815Y281208D01*
X412828Y281102D01*
X412838Y280995D01*
X412844Y280888D01*
X412846Y280781D01*
X412844Y280674D01*
X412838Y280567D01*
X412828Y280460D01*
X412815Y280354D01*
X412797Y280248D01*
X412776Y280143D01*
X412751Y280039D01*
X412722Y279935D01*
X412689Y279833D01*
X412652Y279733D01*
X412612Y279633D01*
X412568Y279535D01*
X412521Y279439D01*
X412470Y279345D01*
X412416Y279252D01*
X412359Y279162D01*
X412298Y279073D01*
X412234Y278987D01*
X412167Y278904D01*
X412097Y278822D01*
X412024Y278744D01*
X411948Y278668D01*
X411870Y278595D01*
X411788Y278525D01*
X411705Y278458D01*
X411619Y278394D01*
X411530Y278333D01*
X411440Y278276D01*
X411347Y278222D01*
X411253Y278171D01*
X411157Y278124D01*
X411059Y278080D01*
X410959Y278040D01*
X410859Y278003D01*
X410757Y277970D01*
X410653Y277941D01*
X410549Y277916D01*
X410444Y277895D01*
X410338Y277877D01*
X410232Y277864D01*
X410125Y277854D01*
X410018Y277848D01*
X409911Y277846D01*
X406976Y277846D01*
X417576Y283716D02*
X421978Y270508D01*
X426381Y283716D01*
X431111Y270508D02*
X434780Y270508D01*
X434900Y270510D01*
X435020Y270516D01*
X435140Y270526D01*
X435259Y270539D01*
X435378Y270557D01*
X435496Y270578D01*
X435613Y270604D01*
X435730Y270633D01*
X435845Y270666D01*
X435959Y270703D01*
X436072Y270743D01*
X436184Y270787D01*
X436294Y270835D01*
X436403Y270886D01*
X436510Y270941D01*
X436615Y271000D01*
X436717Y271061D01*
X436818Y271126D01*
X436917Y271195D01*
X437014Y271266D01*
X437108Y271341D01*
X437199Y271418D01*
X437288Y271499D01*
X437374Y271583D01*
X437458Y271669D01*
X437539Y271758D01*
X437616Y271849D01*
X437691Y271943D01*
X437762Y272040D01*
X437831Y272139D01*
X437896Y272240D01*
X437957Y272343D01*
X438016Y272447D01*
X438071Y272554D01*
X438122Y272663D01*
X438170Y272773D01*
X438214Y272885D01*
X438254Y272998D01*
X438291Y273112D01*
X438324Y273227D01*
X438353Y273344D01*
X438379Y273461D01*
X438400Y273579D01*
X438418Y273698D01*
X438431Y273817D01*
X438441Y273937D01*
X438447Y274057D01*
X438449Y274177D01*
X438447Y274297D01*
X438441Y274417D01*
X438431Y274537D01*
X438418Y274656D01*
X438400Y274775D01*
X438379Y274893D01*
X438353Y275010D01*
X438324Y275127D01*
X438291Y275242D01*
X438254Y275356D01*
X438214Y275469D01*
X438170Y275581D01*
X438122Y275691D01*
X438071Y275800D01*
X438016Y275907D01*
X437957Y276012D01*
X437896Y276114D01*
X437831Y276215D01*
X437762Y276314D01*
X437691Y276411D01*
X437616Y276505D01*
X437539Y276596D01*
X437458Y276685D01*
X437374Y276771D01*
X437288Y276855D01*
X437199Y276936D01*
X437108Y277013D01*
X437014Y277088D01*
X436917Y277159D01*
X436818Y277228D01*
X436717Y277293D01*
X436614Y277354D01*
X436510Y277413D01*
X436403Y277468D01*
X436294Y277519D01*
X436184Y277567D01*
X436072Y277611D01*
X435959Y277651D01*
X435845Y277688D01*
X435730Y277721D01*
X435613Y277750D01*
X435496Y277776D01*
X435378Y277797D01*
X435259Y277815D01*
X435140Y277828D01*
X435020Y277838D01*
X434900Y277844D01*
X434780Y277846D01*
X435514Y283716D02*
X431111Y283716D01*
X435514Y283716D02*
X435621Y283714D01*
X435728Y283708D01*
X435835Y283698D01*
X435941Y283685D01*
X436047Y283667D01*
X436152Y283646D01*
X436256Y283621D01*
X436360Y283592D01*
X436462Y283559D01*
X436562Y283522D01*
X436662Y283482D01*
X436760Y283438D01*
X436856Y283391D01*
X436950Y283340D01*
X437043Y283286D01*
X437133Y283229D01*
X437222Y283168D01*
X437308Y283104D01*
X437391Y283037D01*
X437473Y282967D01*
X437551Y282894D01*
X437627Y282818D01*
X437700Y282740D01*
X437770Y282658D01*
X437837Y282575D01*
X437901Y282489D01*
X437962Y282400D01*
X438019Y282310D01*
X438073Y282217D01*
X438124Y282123D01*
X438171Y282027D01*
X438215Y281929D01*
X438255Y281829D01*
X438292Y281729D01*
X438325Y281627D01*
X438354Y281523D01*
X438379Y281419D01*
X438400Y281314D01*
X438418Y281208D01*
X438431Y281102D01*
X438441Y280995D01*
X438447Y280888D01*
X438449Y280781D01*
X438447Y280674D01*
X438441Y280567D01*
X438431Y280460D01*
X438418Y280354D01*
X438400Y280248D01*
X438379Y280143D01*
X438354Y280039D01*
X438325Y279935D01*
X438292Y279833D01*
X438255Y279733D01*
X438215Y279633D01*
X438171Y279535D01*
X438124Y279439D01*
X438073Y279345D01*
X438019Y279252D01*
X437962Y279162D01*
X437901Y279073D01*
X437837Y278987D01*
X437770Y278904D01*
X437700Y278822D01*
X437627Y278744D01*
X437551Y278668D01*
X437473Y278595D01*
X437391Y278525D01*
X437308Y278458D01*
X437222Y278394D01*
X437133Y278333D01*
X437043Y278276D01*
X436950Y278222D01*
X436856Y278171D01*
X436760Y278124D01*
X436662Y278080D01*
X436562Y278040D01*
X436462Y278003D01*
X436360Y277970D01*
X436256Y277941D01*
X436152Y277916D01*
X436047Y277895D01*
X435941Y277877D01*
X435835Y277864D01*
X435728Y277854D01*
X435621Y277848D01*
X435514Y277846D01*
X432579Y277846D01*
X409177Y180508D02*
X405508Y180508D01*
X409177Y180508D02*
X409297Y180510D01*
X409417Y180516D01*
X409537Y180526D01*
X409656Y180539D01*
X409775Y180557D01*
X409893Y180578D01*
X410010Y180604D01*
X410127Y180633D01*
X410242Y180666D01*
X410356Y180703D01*
X410469Y180743D01*
X410581Y180787D01*
X410691Y180835D01*
X410800Y180886D01*
X410907Y180941D01*
X411012Y181000D01*
X411114Y181061D01*
X411215Y181126D01*
X411314Y181195D01*
X411411Y181266D01*
X411505Y181341D01*
X411596Y181418D01*
X411685Y181499D01*
X411771Y181583D01*
X411855Y181669D01*
X411936Y181758D01*
X412013Y181849D01*
X412088Y181943D01*
X412159Y182040D01*
X412228Y182139D01*
X412293Y182240D01*
X412354Y182343D01*
X412413Y182447D01*
X412468Y182554D01*
X412519Y182663D01*
X412567Y182773D01*
X412611Y182885D01*
X412651Y182998D01*
X412688Y183112D01*
X412721Y183227D01*
X412750Y183344D01*
X412776Y183461D01*
X412797Y183579D01*
X412815Y183698D01*
X412828Y183817D01*
X412838Y183937D01*
X412844Y184057D01*
X412846Y184177D01*
X412844Y184297D01*
X412838Y184417D01*
X412828Y184537D01*
X412815Y184656D01*
X412797Y184775D01*
X412776Y184893D01*
X412750Y185010D01*
X412721Y185127D01*
X412688Y185242D01*
X412651Y185356D01*
X412611Y185469D01*
X412567Y185581D01*
X412519Y185691D01*
X412468Y185800D01*
X412413Y185907D01*
X412354Y186012D01*
X412293Y186114D01*
X412228Y186215D01*
X412159Y186314D01*
X412088Y186411D01*
X412013Y186505D01*
X411936Y186596D01*
X411855Y186685D01*
X411771Y186771D01*
X411685Y186855D01*
X411596Y186936D01*
X411505Y187013D01*
X411411Y187088D01*
X411314Y187159D01*
X411215Y187228D01*
X411114Y187293D01*
X411011Y187354D01*
X410907Y187413D01*
X410800Y187468D01*
X410691Y187519D01*
X410581Y187567D01*
X410469Y187611D01*
X410356Y187651D01*
X410242Y187688D01*
X410127Y187721D01*
X410010Y187750D01*
X409893Y187776D01*
X409775Y187797D01*
X409656Y187815D01*
X409537Y187828D01*
X409417Y187838D01*
X409297Y187844D01*
X409177Y187846D01*
X409911Y193716D02*
X405508Y193716D01*
X409911Y193716D02*
X410018Y193714D01*
X410125Y193708D01*
X410232Y193698D01*
X410338Y193685D01*
X410444Y193667D01*
X410549Y193646D01*
X410653Y193621D01*
X410757Y193592D01*
X410859Y193559D01*
X410959Y193522D01*
X411059Y193482D01*
X411157Y193438D01*
X411253Y193391D01*
X411347Y193340D01*
X411440Y193286D01*
X411530Y193229D01*
X411619Y193168D01*
X411705Y193104D01*
X411788Y193037D01*
X411870Y192967D01*
X411948Y192894D01*
X412024Y192818D01*
X412097Y192740D01*
X412167Y192658D01*
X412234Y192575D01*
X412298Y192489D01*
X412359Y192400D01*
X412416Y192310D01*
X412470Y192217D01*
X412521Y192123D01*
X412568Y192027D01*
X412612Y191929D01*
X412652Y191829D01*
X412689Y191729D01*
X412722Y191627D01*
X412751Y191523D01*
X412776Y191419D01*
X412797Y191314D01*
X412815Y191208D01*
X412828Y191102D01*
X412838Y190995D01*
X412844Y190888D01*
X412846Y190781D01*
X412844Y190674D01*
X412838Y190567D01*
X412828Y190460D01*
X412815Y190354D01*
X412797Y190248D01*
X412776Y190143D01*
X412751Y190039D01*
X412722Y189935D01*
X412689Y189833D01*
X412652Y189733D01*
X412612Y189633D01*
X412568Y189535D01*
X412521Y189439D01*
X412470Y189345D01*
X412416Y189252D01*
X412359Y189162D01*
X412298Y189073D01*
X412234Y188987D01*
X412167Y188904D01*
X412097Y188822D01*
X412024Y188744D01*
X411948Y188668D01*
X411870Y188595D01*
X411788Y188525D01*
X411705Y188458D01*
X411619Y188394D01*
X411530Y188333D01*
X411440Y188276D01*
X411347Y188222D01*
X411253Y188171D01*
X411157Y188124D01*
X411059Y188080D01*
X410959Y188040D01*
X410859Y188003D01*
X410757Y187970D01*
X410653Y187941D01*
X410549Y187916D01*
X410444Y187895D01*
X410338Y187877D01*
X410232Y187864D01*
X410125Y187854D01*
X410018Y187848D01*
X409911Y187846D01*
X406976Y187846D01*
X417576Y193716D02*
X421978Y180508D01*
X426381Y193716D01*
X431111Y180508D02*
X434780Y180508D01*
X434900Y180510D01*
X435020Y180516D01*
X435140Y180526D01*
X435259Y180539D01*
X435378Y180557D01*
X435496Y180578D01*
X435613Y180604D01*
X435730Y180633D01*
X435845Y180666D01*
X435959Y180703D01*
X436072Y180743D01*
X436184Y180787D01*
X436294Y180835D01*
X436403Y180886D01*
X436510Y180941D01*
X436615Y181000D01*
X436717Y181061D01*
X436818Y181126D01*
X436917Y181195D01*
X437014Y181266D01*
X437108Y181341D01*
X437199Y181418D01*
X437288Y181499D01*
X437374Y181583D01*
X437458Y181669D01*
X437539Y181758D01*
X437616Y181849D01*
X437691Y181943D01*
X437762Y182040D01*
X437831Y182139D01*
X437896Y182240D01*
X437957Y182343D01*
X438016Y182447D01*
X438071Y182554D01*
X438122Y182663D01*
X438170Y182773D01*
X438214Y182885D01*
X438254Y182998D01*
X438291Y183112D01*
X438324Y183227D01*
X438353Y183344D01*
X438379Y183461D01*
X438400Y183579D01*
X438418Y183698D01*
X438431Y183817D01*
X438441Y183937D01*
X438447Y184057D01*
X438449Y184177D01*
X438447Y184297D01*
X438441Y184417D01*
X438431Y184537D01*
X438418Y184656D01*
X438400Y184775D01*
X438379Y184893D01*
X438353Y185010D01*
X438324Y185127D01*
X438291Y185242D01*
X438254Y185356D01*
X438214Y185469D01*
X438170Y185581D01*
X438122Y185691D01*
X438071Y185800D01*
X438016Y185907D01*
X437957Y186012D01*
X437896Y186114D01*
X437831Y186215D01*
X437762Y186314D01*
X437691Y186411D01*
X437616Y186505D01*
X437539Y186596D01*
X437458Y186685D01*
X437374Y186771D01*
X437288Y186855D01*
X437199Y186936D01*
X437108Y187013D01*
X437014Y187088D01*
X436917Y187159D01*
X436818Y187228D01*
X436717Y187293D01*
X436614Y187354D01*
X436510Y187413D01*
X436403Y187468D01*
X436294Y187519D01*
X436184Y187567D01*
X436072Y187611D01*
X435959Y187651D01*
X435845Y187688D01*
X435730Y187721D01*
X435613Y187750D01*
X435496Y187776D01*
X435378Y187797D01*
X435259Y187815D01*
X435140Y187828D01*
X435020Y187838D01*
X434900Y187844D01*
X434780Y187846D01*
X435514Y193716D02*
X431111Y193716D01*
X435514Y193716D02*
X435621Y193714D01*
X435728Y193708D01*
X435835Y193698D01*
X435941Y193685D01*
X436047Y193667D01*
X436152Y193646D01*
X436256Y193621D01*
X436360Y193592D01*
X436462Y193559D01*
X436562Y193522D01*
X436662Y193482D01*
X436760Y193438D01*
X436856Y193391D01*
X436950Y193340D01*
X437043Y193286D01*
X437133Y193229D01*
X437222Y193168D01*
X437308Y193104D01*
X437391Y193037D01*
X437473Y192967D01*
X437551Y192894D01*
X437627Y192818D01*
X437700Y192740D01*
X437770Y192658D01*
X437837Y192575D01*
X437901Y192489D01*
X437962Y192400D01*
X438019Y192310D01*
X438073Y192217D01*
X438124Y192123D01*
X438171Y192027D01*
X438215Y191929D01*
X438255Y191829D01*
X438292Y191729D01*
X438325Y191627D01*
X438354Y191523D01*
X438379Y191419D01*
X438400Y191314D01*
X438418Y191208D01*
X438431Y191102D01*
X438441Y190995D01*
X438447Y190888D01*
X438449Y190781D01*
X438447Y190674D01*
X438441Y190567D01*
X438431Y190460D01*
X438418Y190354D01*
X438400Y190248D01*
X438379Y190143D01*
X438354Y190039D01*
X438325Y189935D01*
X438292Y189833D01*
X438255Y189733D01*
X438215Y189633D01*
X438171Y189535D01*
X438124Y189439D01*
X438073Y189345D01*
X438019Y189252D01*
X437962Y189162D01*
X437901Y189073D01*
X437837Y188987D01*
X437770Y188904D01*
X437700Y188822D01*
X437627Y188744D01*
X437551Y188668D01*
X437473Y188595D01*
X437391Y188525D01*
X437308Y188458D01*
X437222Y188394D01*
X437133Y188333D01*
X437043Y188276D01*
X436950Y188222D01*
X436856Y188171D01*
X436760Y188124D01*
X436662Y188080D01*
X436562Y188040D01*
X436462Y188003D01*
X436360Y187970D01*
X436256Y187941D01*
X436152Y187916D01*
X436047Y187895D01*
X435941Y187877D01*
X435835Y187864D01*
X435728Y187854D01*
X435621Y187848D01*
X435514Y187846D01*
X432579Y187846D01*
X106999Y336049D02*
X105052Y336049D01*
X106999Y336049D02*
X106999Y329558D01*
X103104Y329558D01*
X103005Y329560D01*
X102905Y329566D01*
X102806Y329575D01*
X102708Y329588D01*
X102610Y329605D01*
X102512Y329626D01*
X102416Y329651D01*
X102321Y329679D01*
X102227Y329711D01*
X102134Y329746D01*
X102042Y329785D01*
X101952Y329828D01*
X101864Y329873D01*
X101777Y329923D01*
X101693Y329975D01*
X101610Y330031D01*
X101530Y330089D01*
X101452Y330151D01*
X101377Y330216D01*
X101304Y330284D01*
X101234Y330354D01*
X101166Y330427D01*
X101101Y330502D01*
X101039Y330580D01*
X100981Y330660D01*
X100925Y330743D01*
X100873Y330827D01*
X100823Y330914D01*
X100778Y331002D01*
X100735Y331092D01*
X100696Y331184D01*
X100661Y331277D01*
X100629Y331371D01*
X100601Y331466D01*
X100576Y331562D01*
X100555Y331660D01*
X100538Y331758D01*
X100525Y331856D01*
X100516Y331955D01*
X100510Y332055D01*
X100508Y332154D01*
X100508Y338646D01*
X100510Y338745D01*
X100516Y338845D01*
X100525Y338944D01*
X100538Y339042D01*
X100555Y339140D01*
X100576Y339238D01*
X100601Y339334D01*
X100629Y339429D01*
X100661Y339523D01*
X100696Y339616D01*
X100735Y339708D01*
X100778Y339798D01*
X100823Y339886D01*
X100873Y339973D01*
X100925Y340057D01*
X100981Y340140D01*
X101039Y340220D01*
X101101Y340298D01*
X101166Y340373D01*
X101234Y340446D01*
X101304Y340516D01*
X101377Y340584D01*
X101452Y340649D01*
X101530Y340711D01*
X101610Y340769D01*
X101693Y340825D01*
X101777Y340877D01*
X101864Y340927D01*
X101952Y340972D01*
X102042Y341015D01*
X102134Y341054D01*
X102226Y341089D01*
X102321Y341121D01*
X102416Y341149D01*
X102512Y341174D01*
X102610Y341195D01*
X102708Y341212D01*
X102806Y341225D01*
X102905Y341234D01*
X103005Y341240D01*
X103104Y341242D01*
X106999Y341242D01*
X112869Y341242D02*
X112869Y329558D01*
X112869Y341242D02*
X116115Y341242D01*
X116228Y341240D01*
X116341Y341234D01*
X116454Y341224D01*
X116567Y341210D01*
X116679Y341193D01*
X116790Y341171D01*
X116900Y341146D01*
X117010Y341116D01*
X117118Y341083D01*
X117225Y341046D01*
X117331Y341006D01*
X117435Y340961D01*
X117538Y340913D01*
X117639Y340862D01*
X117738Y340807D01*
X117835Y340749D01*
X117930Y340687D01*
X118023Y340622D01*
X118113Y340554D01*
X118201Y340483D01*
X118287Y340408D01*
X118370Y340331D01*
X118450Y340251D01*
X118527Y340168D01*
X118602Y340082D01*
X118673Y339994D01*
X118741Y339904D01*
X118806Y339811D01*
X118868Y339716D01*
X118926Y339619D01*
X118981Y339520D01*
X119032Y339419D01*
X119080Y339316D01*
X119125Y339212D01*
X119165Y339106D01*
X119202Y338999D01*
X119235Y338891D01*
X119265Y338781D01*
X119290Y338671D01*
X119312Y338560D01*
X119329Y338448D01*
X119343Y338335D01*
X119353Y338222D01*
X119359Y338109D01*
X119361Y337996D01*
X119359Y337883D01*
X119353Y337770D01*
X119343Y337657D01*
X119329Y337544D01*
X119312Y337432D01*
X119290Y337321D01*
X119265Y337211D01*
X119235Y337101D01*
X119202Y336993D01*
X119165Y336886D01*
X119125Y336780D01*
X119080Y336676D01*
X119032Y336573D01*
X118981Y336472D01*
X118926Y336373D01*
X118868Y336276D01*
X118806Y336181D01*
X118741Y336088D01*
X118673Y335998D01*
X118602Y335910D01*
X118527Y335824D01*
X118450Y335741D01*
X118370Y335661D01*
X118287Y335584D01*
X118201Y335509D01*
X118113Y335438D01*
X118023Y335370D01*
X117930Y335305D01*
X117835Y335243D01*
X117738Y335185D01*
X117639Y335130D01*
X117538Y335079D01*
X117435Y335031D01*
X117331Y334986D01*
X117225Y334946D01*
X117118Y334909D01*
X117010Y334876D01*
X116900Y334846D01*
X116790Y334821D01*
X116679Y334799D01*
X116567Y334782D01*
X116454Y334768D01*
X116341Y334758D01*
X116228Y334752D01*
X116115Y334750D01*
X116115Y334751D02*
X112869Y334751D01*
X127263Y329558D02*
X127362Y329560D01*
X127462Y329566D01*
X127561Y329575D01*
X127659Y329588D01*
X127757Y329605D01*
X127855Y329626D01*
X127951Y329651D01*
X128046Y329679D01*
X128140Y329711D01*
X128233Y329746D01*
X128325Y329785D01*
X128415Y329828D01*
X128503Y329873D01*
X128590Y329923D01*
X128674Y329975D01*
X128757Y330031D01*
X128837Y330089D01*
X128915Y330151D01*
X128990Y330216D01*
X129063Y330284D01*
X129133Y330354D01*
X129201Y330427D01*
X129266Y330502D01*
X129328Y330580D01*
X129386Y330660D01*
X129442Y330743D01*
X129494Y330827D01*
X129544Y330914D01*
X129589Y331002D01*
X129632Y331092D01*
X129671Y331184D01*
X129706Y331277D01*
X129738Y331371D01*
X129766Y331466D01*
X129791Y331562D01*
X129812Y331660D01*
X129829Y331758D01*
X129842Y331856D01*
X129851Y331955D01*
X129857Y332055D01*
X129859Y332154D01*
X127263Y329558D02*
X127119Y329560D01*
X126974Y329566D01*
X126830Y329575D01*
X126687Y329588D01*
X126543Y329605D01*
X126400Y329626D01*
X126258Y329651D01*
X126117Y329679D01*
X125976Y329711D01*
X125836Y329747D01*
X125697Y329786D01*
X125559Y329829D01*
X125423Y329876D01*
X125287Y329926D01*
X125153Y329980D01*
X125021Y330037D01*
X124890Y330098D01*
X124761Y330162D01*
X124633Y330230D01*
X124507Y330300D01*
X124383Y330375D01*
X124262Y330452D01*
X124142Y330533D01*
X124024Y330616D01*
X123909Y330703D01*
X123796Y330793D01*
X123685Y330886D01*
X123577Y330981D01*
X123471Y331080D01*
X123368Y331181D01*
X123693Y338646D02*
X123695Y338745D01*
X123701Y338845D01*
X123710Y338944D01*
X123723Y339042D01*
X123740Y339140D01*
X123761Y339238D01*
X123786Y339334D01*
X123814Y339429D01*
X123846Y339523D01*
X123881Y339616D01*
X123920Y339708D01*
X123963Y339798D01*
X124008Y339886D01*
X124058Y339973D01*
X124110Y340057D01*
X124166Y340140D01*
X124224Y340220D01*
X124286Y340298D01*
X124351Y340373D01*
X124419Y340446D01*
X124489Y340516D01*
X124562Y340584D01*
X124637Y340649D01*
X124715Y340711D01*
X124795Y340769D01*
X124878Y340825D01*
X124962Y340877D01*
X125049Y340927D01*
X125137Y340972D01*
X125227Y341015D01*
X125319Y341054D01*
X125412Y341089D01*
X125506Y341121D01*
X125601Y341149D01*
X125698Y341174D01*
X125795Y341195D01*
X125893Y341212D01*
X125991Y341225D01*
X126090Y341234D01*
X126190Y341240D01*
X126289Y341242D01*
X126425Y341240D01*
X126561Y341234D01*
X126697Y341225D01*
X126833Y341212D01*
X126968Y341194D01*
X127102Y341174D01*
X127236Y341149D01*
X127370Y341121D01*
X127502Y341088D01*
X127633Y341053D01*
X127764Y341013D01*
X127893Y340970D01*
X128021Y340924D01*
X128147Y340873D01*
X128273Y340820D01*
X128396Y340762D01*
X128518Y340702D01*
X128638Y340638D01*
X128757Y340570D01*
X128873Y340500D01*
X128987Y340426D01*
X129100Y340349D01*
X129210Y340268D01*
X124990Y336374D02*
X124904Y336427D01*
X124820Y336484D01*
X124738Y336543D01*
X124658Y336606D01*
X124581Y336672D01*
X124506Y336740D01*
X124434Y336812D01*
X124365Y336886D01*
X124299Y336963D01*
X124236Y337042D01*
X124176Y337124D01*
X124119Y337208D01*
X124065Y337294D01*
X124015Y337382D01*
X123968Y337472D01*
X123924Y337563D01*
X123885Y337657D01*
X123848Y337751D01*
X123816Y337847D01*
X123787Y337945D01*
X123762Y338043D01*
X123741Y338142D01*
X123723Y338242D01*
X123710Y338342D01*
X123700Y338443D01*
X123694Y338545D01*
X123692Y338646D01*
X128561Y334426D02*
X128647Y334373D01*
X128731Y334316D01*
X128813Y334257D01*
X128893Y334194D01*
X128970Y334128D01*
X129045Y334060D01*
X129117Y333988D01*
X129186Y333914D01*
X129252Y333837D01*
X129315Y333758D01*
X129375Y333676D01*
X129432Y333592D01*
X129486Y333506D01*
X129536Y333418D01*
X129583Y333328D01*
X129627Y333237D01*
X129666Y333143D01*
X129703Y333049D01*
X129735Y332953D01*
X129764Y332855D01*
X129789Y332757D01*
X129810Y332658D01*
X129828Y332558D01*
X129841Y332458D01*
X129851Y332357D01*
X129857Y332255D01*
X129859Y332154D01*
X128561Y334426D02*
X124991Y336374D01*
X100508Y322192D02*
X100508Y310508D01*
X100508Y322192D02*
X103754Y322192D01*
X103867Y322190D01*
X103980Y322184D01*
X104093Y322174D01*
X104206Y322160D01*
X104318Y322143D01*
X104429Y322121D01*
X104539Y322096D01*
X104649Y322066D01*
X104757Y322033D01*
X104864Y321996D01*
X104970Y321956D01*
X105074Y321911D01*
X105177Y321863D01*
X105278Y321812D01*
X105377Y321757D01*
X105474Y321699D01*
X105569Y321637D01*
X105662Y321572D01*
X105752Y321504D01*
X105840Y321433D01*
X105926Y321358D01*
X106009Y321281D01*
X106089Y321201D01*
X106166Y321118D01*
X106241Y321032D01*
X106312Y320944D01*
X106380Y320854D01*
X106445Y320761D01*
X106507Y320666D01*
X106565Y320569D01*
X106620Y320470D01*
X106671Y320369D01*
X106719Y320266D01*
X106764Y320162D01*
X106804Y320056D01*
X106841Y319949D01*
X106874Y319841D01*
X106904Y319731D01*
X106929Y319621D01*
X106951Y319510D01*
X106968Y319398D01*
X106982Y319285D01*
X106992Y319172D01*
X106998Y319059D01*
X107000Y318946D01*
X106999Y318946D02*
X106999Y313754D01*
X107000Y313754D02*
X106998Y313641D01*
X106992Y313528D01*
X106982Y313415D01*
X106968Y313302D01*
X106951Y313190D01*
X106929Y313079D01*
X106904Y312969D01*
X106874Y312859D01*
X106841Y312751D01*
X106804Y312644D01*
X106764Y312538D01*
X106719Y312434D01*
X106671Y312331D01*
X106620Y312230D01*
X106565Y312131D01*
X106507Y312034D01*
X106445Y311939D01*
X106380Y311846D01*
X106312Y311756D01*
X106241Y311668D01*
X106166Y311582D01*
X106089Y311499D01*
X106009Y311419D01*
X105926Y311342D01*
X105840Y311267D01*
X105752Y311196D01*
X105662Y311128D01*
X105569Y311063D01*
X105474Y311001D01*
X105377Y310943D01*
X105278Y310888D01*
X105177Y310837D01*
X105074Y310789D01*
X104970Y310744D01*
X104864Y310704D01*
X104757Y310667D01*
X104649Y310634D01*
X104539Y310604D01*
X104429Y310579D01*
X104318Y310557D01*
X104206Y310540D01*
X104093Y310526D01*
X103980Y310516D01*
X103867Y310510D01*
X103754Y310508D01*
X100508Y310508D01*
X112206Y313104D02*
X112206Y315701D01*
X112207Y315701D02*
X112209Y315802D01*
X112215Y315902D01*
X112225Y316002D01*
X112238Y316102D01*
X112256Y316201D01*
X112277Y316300D01*
X112302Y316397D01*
X112331Y316494D01*
X112364Y316589D01*
X112400Y316683D01*
X112440Y316775D01*
X112483Y316866D01*
X112530Y316955D01*
X112580Y317042D01*
X112634Y317128D01*
X112691Y317211D01*
X112751Y317291D01*
X112814Y317370D01*
X112881Y317446D01*
X112950Y317519D01*
X113022Y317589D01*
X113096Y317657D01*
X113173Y317722D01*
X113253Y317783D01*
X113335Y317842D01*
X113419Y317897D01*
X113505Y317949D01*
X113593Y317998D01*
X113683Y318043D01*
X113775Y318085D01*
X113868Y318123D01*
X113963Y318157D01*
X114058Y318188D01*
X114155Y318215D01*
X114253Y318238D01*
X114352Y318258D01*
X114452Y318273D01*
X114552Y318285D01*
X114652Y318293D01*
X114753Y318297D01*
X114853Y318297D01*
X114954Y318293D01*
X115054Y318285D01*
X115154Y318273D01*
X115254Y318258D01*
X115353Y318238D01*
X115451Y318215D01*
X115548Y318188D01*
X115643Y318157D01*
X115738Y318123D01*
X115831Y318085D01*
X115923Y318043D01*
X116013Y317998D01*
X116101Y317949D01*
X116187Y317897D01*
X116271Y317842D01*
X116353Y317783D01*
X116433Y317722D01*
X116510Y317657D01*
X116584Y317589D01*
X116656Y317519D01*
X116725Y317446D01*
X116792Y317370D01*
X116855Y317291D01*
X116915Y317211D01*
X116972Y317128D01*
X117026Y317042D01*
X117076Y316955D01*
X117123Y316866D01*
X117166Y316775D01*
X117206Y316683D01*
X117242Y316589D01*
X117275Y316494D01*
X117304Y316397D01*
X117329Y316300D01*
X117350Y316201D01*
X117368Y316102D01*
X117381Y316002D01*
X117391Y315902D01*
X117397Y315802D01*
X117399Y315701D01*
X117399Y313104D01*
X117397Y313003D01*
X117391Y312903D01*
X117381Y312803D01*
X117368Y312703D01*
X117350Y312604D01*
X117329Y312505D01*
X117304Y312408D01*
X117275Y312311D01*
X117242Y312216D01*
X117206Y312122D01*
X117166Y312030D01*
X117123Y311939D01*
X117076Y311850D01*
X117026Y311763D01*
X116972Y311677D01*
X116915Y311594D01*
X116855Y311514D01*
X116792Y311435D01*
X116725Y311359D01*
X116656Y311286D01*
X116584Y311216D01*
X116510Y311148D01*
X116433Y311083D01*
X116353Y311022D01*
X116271Y310963D01*
X116187Y310908D01*
X116101Y310856D01*
X116013Y310807D01*
X115923Y310762D01*
X115831Y310720D01*
X115738Y310682D01*
X115643Y310648D01*
X115548Y310617D01*
X115451Y310590D01*
X115353Y310567D01*
X115254Y310547D01*
X115154Y310532D01*
X115054Y310520D01*
X114954Y310512D01*
X114853Y310508D01*
X114753Y310508D01*
X114652Y310512D01*
X114552Y310520D01*
X114452Y310532D01*
X114352Y310547D01*
X114253Y310567D01*
X114155Y310590D01*
X114058Y310617D01*
X113963Y310648D01*
X113868Y310682D01*
X113775Y310720D01*
X113683Y310762D01*
X113593Y310807D01*
X113505Y310856D01*
X113419Y310908D01*
X113335Y310963D01*
X113253Y311022D01*
X113173Y311083D01*
X113096Y311148D01*
X113022Y311216D01*
X112950Y311286D01*
X112881Y311359D01*
X112814Y311435D01*
X112751Y311514D01*
X112691Y311594D01*
X112634Y311677D01*
X112580Y311763D01*
X112530Y311850D01*
X112483Y311939D01*
X112440Y312030D01*
X112400Y312122D01*
X112364Y312216D01*
X112331Y312311D01*
X112302Y312408D01*
X112277Y312505D01*
X112256Y312604D01*
X112238Y312703D01*
X112225Y312803D01*
X112215Y312903D01*
X112209Y313003D01*
X112207Y313104D01*
X121957Y318297D02*
X123904Y310508D01*
X125852Y315701D01*
X127799Y310508D01*
X129746Y318297D01*
X134685Y318297D02*
X134685Y310508D01*
X134685Y318297D02*
X137931Y318297D01*
X138018Y318295D01*
X138106Y318289D01*
X138192Y318279D01*
X138279Y318266D01*
X138364Y318248D01*
X138449Y318227D01*
X138533Y318202D01*
X138615Y318173D01*
X138696Y318140D01*
X138776Y318104D01*
X138854Y318065D01*
X138930Y318021D01*
X139004Y317975D01*
X139075Y317925D01*
X139145Y317872D01*
X139212Y317816D01*
X139276Y317757D01*
X139338Y317696D01*
X139397Y317631D01*
X139453Y317564D01*
X139506Y317494D01*
X139556Y317423D01*
X139602Y317349D01*
X139646Y317273D01*
X139685Y317195D01*
X139721Y317115D01*
X139754Y317034D01*
X139783Y316952D01*
X139808Y316868D01*
X139829Y316783D01*
X139847Y316698D01*
X139860Y316611D01*
X139870Y316525D01*
X139876Y316437D01*
X139878Y316350D01*
X139878Y310508D01*
X145489Y310508D02*
X145489Y322192D01*
X145489Y310508D02*
X150681Y310508D01*
X154808Y310508D02*
X154808Y318297D01*
X154483Y321543D02*
X154483Y322192D01*
X155132Y322192D01*
X155132Y321543D01*
X154483Y321543D01*
X159831Y318297D02*
X159831Y310508D01*
X159831Y318297D02*
X163077Y318297D01*
X163164Y318295D01*
X163252Y318289D01*
X163338Y318279D01*
X163425Y318266D01*
X163510Y318248D01*
X163595Y318227D01*
X163679Y318202D01*
X163761Y318173D01*
X163842Y318140D01*
X163922Y318104D01*
X164000Y318065D01*
X164076Y318021D01*
X164150Y317975D01*
X164221Y317925D01*
X164291Y317872D01*
X164358Y317816D01*
X164422Y317757D01*
X164484Y317696D01*
X164543Y317631D01*
X164599Y317564D01*
X164652Y317494D01*
X164702Y317423D01*
X164748Y317349D01*
X164792Y317273D01*
X164831Y317195D01*
X164867Y317115D01*
X164900Y317034D01*
X164929Y316952D01*
X164954Y316868D01*
X164975Y316783D01*
X164993Y316698D01*
X165006Y316611D01*
X165016Y316525D01*
X165022Y316437D01*
X165024Y316350D01*
X165024Y310508D01*
X170635Y310508D02*
X170635Y322192D01*
X175827Y318297D02*
X170635Y314403D01*
X172906Y316025D02*
X175827Y310508D01*
X210508Y329558D02*
X210508Y341242D01*
X213754Y341242D01*
X213867Y341240D01*
X213980Y341234D01*
X214093Y341224D01*
X214206Y341210D01*
X214318Y341193D01*
X214429Y341171D01*
X214539Y341146D01*
X214649Y341116D01*
X214757Y341083D01*
X214864Y341046D01*
X214970Y341006D01*
X215074Y340961D01*
X215177Y340913D01*
X215278Y340862D01*
X215377Y340807D01*
X215474Y340749D01*
X215569Y340687D01*
X215662Y340622D01*
X215752Y340554D01*
X215840Y340483D01*
X215926Y340408D01*
X216009Y340331D01*
X216089Y340251D01*
X216166Y340168D01*
X216241Y340082D01*
X216312Y339994D01*
X216380Y339904D01*
X216445Y339811D01*
X216507Y339716D01*
X216565Y339619D01*
X216620Y339520D01*
X216671Y339419D01*
X216719Y339316D01*
X216764Y339212D01*
X216804Y339106D01*
X216841Y338999D01*
X216874Y338891D01*
X216904Y338781D01*
X216929Y338671D01*
X216951Y338560D01*
X216968Y338448D01*
X216982Y338335D01*
X216992Y338222D01*
X216998Y338109D01*
X217000Y337996D01*
X216999Y337996D02*
X216999Y332804D01*
X217000Y332804D02*
X216998Y332691D01*
X216992Y332578D01*
X216982Y332465D01*
X216968Y332352D01*
X216951Y332240D01*
X216929Y332129D01*
X216904Y332019D01*
X216874Y331909D01*
X216841Y331801D01*
X216804Y331694D01*
X216764Y331588D01*
X216719Y331484D01*
X216671Y331381D01*
X216620Y331280D01*
X216565Y331181D01*
X216507Y331084D01*
X216445Y330989D01*
X216380Y330896D01*
X216312Y330806D01*
X216241Y330718D01*
X216166Y330632D01*
X216089Y330549D01*
X216009Y330469D01*
X215926Y330392D01*
X215840Y330317D01*
X215752Y330246D01*
X215662Y330178D01*
X215569Y330113D01*
X215474Y330051D01*
X215377Y329993D01*
X215278Y329938D01*
X215177Y329887D01*
X215074Y329839D01*
X214970Y329794D01*
X214864Y329754D01*
X214757Y329717D01*
X214649Y329684D01*
X214539Y329654D01*
X214429Y329629D01*
X214318Y329607D01*
X214206Y329590D01*
X214093Y329576D01*
X213980Y329566D01*
X213867Y329560D01*
X213754Y329558D01*
X210508Y329558D01*
X224419Y334102D02*
X227340Y334102D01*
X224419Y334102D02*
X224325Y334100D01*
X224231Y334094D01*
X224138Y334085D01*
X224045Y334071D01*
X223953Y334054D01*
X223861Y334032D01*
X223771Y334008D01*
X223681Y333979D01*
X223593Y333947D01*
X223506Y333911D01*
X223421Y333871D01*
X223338Y333828D01*
X223256Y333782D01*
X223176Y333732D01*
X223099Y333679D01*
X223024Y333623D01*
X222951Y333564D01*
X222880Y333502D01*
X222812Y333437D01*
X222747Y333369D01*
X222685Y333298D01*
X222626Y333225D01*
X222570Y333150D01*
X222517Y333073D01*
X222467Y332993D01*
X222421Y332911D01*
X222378Y332828D01*
X222338Y332743D01*
X222302Y332656D01*
X222270Y332568D01*
X222241Y332478D01*
X222217Y332388D01*
X222195Y332296D01*
X222178Y332204D01*
X222164Y332111D01*
X222155Y332018D01*
X222149Y331924D01*
X222147Y331830D01*
X222149Y331736D01*
X222155Y331642D01*
X222164Y331549D01*
X222178Y331456D01*
X222195Y331364D01*
X222217Y331272D01*
X222241Y331182D01*
X222270Y331092D01*
X222302Y331004D01*
X222338Y330917D01*
X222378Y330832D01*
X222421Y330749D01*
X222467Y330667D01*
X222517Y330587D01*
X222570Y330510D01*
X222626Y330435D01*
X222685Y330362D01*
X222747Y330291D01*
X222812Y330223D01*
X222880Y330158D01*
X222951Y330096D01*
X223024Y330037D01*
X223099Y329981D01*
X223176Y329928D01*
X223256Y329878D01*
X223338Y329832D01*
X223421Y329789D01*
X223506Y329749D01*
X223593Y329713D01*
X223681Y329681D01*
X223771Y329652D01*
X223861Y329628D01*
X223953Y329606D01*
X224045Y329589D01*
X224138Y329575D01*
X224231Y329566D01*
X224325Y329560D01*
X224419Y329558D01*
X227340Y329558D01*
X227340Y335400D01*
X227338Y335487D01*
X227332Y335575D01*
X227322Y335661D01*
X227309Y335748D01*
X227291Y335833D01*
X227270Y335918D01*
X227245Y336002D01*
X227216Y336084D01*
X227183Y336165D01*
X227147Y336245D01*
X227108Y336323D01*
X227064Y336399D01*
X227018Y336473D01*
X226968Y336544D01*
X226915Y336614D01*
X226859Y336681D01*
X226800Y336745D01*
X226738Y336807D01*
X226674Y336866D01*
X226607Y336922D01*
X226537Y336975D01*
X226466Y337025D01*
X226392Y337071D01*
X226316Y337115D01*
X226238Y337154D01*
X226158Y337190D01*
X226077Y337223D01*
X225995Y337252D01*
X225911Y337277D01*
X225826Y337298D01*
X225741Y337316D01*
X225654Y337329D01*
X225568Y337339D01*
X225480Y337345D01*
X225393Y337347D01*
X222796Y337347D01*
X231526Y337347D02*
X235420Y337347D01*
X232824Y341242D02*
X232824Y331505D01*
X232826Y331418D01*
X232832Y331330D01*
X232842Y331244D01*
X232855Y331157D01*
X232873Y331072D01*
X232894Y330987D01*
X232919Y330903D01*
X232948Y330821D01*
X232981Y330740D01*
X233017Y330660D01*
X233056Y330582D01*
X233100Y330506D01*
X233146Y330432D01*
X233196Y330361D01*
X233249Y330291D01*
X233305Y330224D01*
X233364Y330160D01*
X233426Y330098D01*
X233490Y330039D01*
X233557Y329983D01*
X233627Y329930D01*
X233698Y329880D01*
X233772Y329834D01*
X233848Y329790D01*
X233926Y329751D01*
X234006Y329715D01*
X234087Y329682D01*
X234169Y329653D01*
X234253Y329628D01*
X234338Y329607D01*
X234423Y329589D01*
X234510Y329576D01*
X234596Y329566D01*
X234684Y329560D01*
X234771Y329558D01*
X235420Y329558D01*
X241945Y334102D02*
X244866Y334102D01*
X241945Y334102D02*
X241851Y334100D01*
X241757Y334094D01*
X241664Y334085D01*
X241571Y334071D01*
X241479Y334054D01*
X241387Y334032D01*
X241297Y334008D01*
X241207Y333979D01*
X241119Y333947D01*
X241032Y333911D01*
X240947Y333871D01*
X240864Y333828D01*
X240782Y333782D01*
X240702Y333732D01*
X240625Y333679D01*
X240550Y333623D01*
X240477Y333564D01*
X240406Y333502D01*
X240338Y333437D01*
X240273Y333369D01*
X240211Y333298D01*
X240152Y333225D01*
X240096Y333150D01*
X240043Y333073D01*
X239993Y332993D01*
X239947Y332911D01*
X239904Y332828D01*
X239864Y332743D01*
X239828Y332656D01*
X239796Y332568D01*
X239767Y332478D01*
X239743Y332388D01*
X239721Y332296D01*
X239704Y332204D01*
X239690Y332111D01*
X239681Y332018D01*
X239675Y331924D01*
X239673Y331830D01*
X239675Y331736D01*
X239681Y331642D01*
X239690Y331549D01*
X239704Y331456D01*
X239721Y331364D01*
X239743Y331272D01*
X239767Y331182D01*
X239796Y331092D01*
X239828Y331004D01*
X239864Y330917D01*
X239904Y330832D01*
X239947Y330749D01*
X239993Y330667D01*
X240043Y330587D01*
X240096Y330510D01*
X240152Y330435D01*
X240211Y330362D01*
X240273Y330291D01*
X240338Y330223D01*
X240406Y330158D01*
X240477Y330096D01*
X240550Y330037D01*
X240625Y329981D01*
X240702Y329928D01*
X240782Y329878D01*
X240864Y329832D01*
X240947Y329789D01*
X241032Y329749D01*
X241119Y329713D01*
X241207Y329681D01*
X241297Y329652D01*
X241387Y329628D01*
X241479Y329606D01*
X241571Y329589D01*
X241664Y329575D01*
X241757Y329566D01*
X241851Y329560D01*
X241945Y329558D01*
X244866Y329558D01*
X244866Y335400D01*
X244864Y335487D01*
X244858Y335575D01*
X244848Y335661D01*
X244835Y335748D01*
X244817Y335833D01*
X244796Y335918D01*
X244771Y336002D01*
X244742Y336084D01*
X244709Y336165D01*
X244673Y336245D01*
X244634Y336323D01*
X244590Y336399D01*
X244544Y336473D01*
X244494Y336544D01*
X244441Y336614D01*
X244385Y336681D01*
X244326Y336745D01*
X244264Y336807D01*
X244200Y336866D01*
X244133Y336922D01*
X244063Y336975D01*
X243992Y337025D01*
X243918Y337071D01*
X243842Y337115D01*
X243764Y337154D01*
X243684Y337190D01*
X243603Y337223D01*
X243521Y337252D01*
X243437Y337277D01*
X243352Y337298D01*
X243267Y337316D01*
X243180Y337329D01*
X243094Y337339D01*
X243006Y337345D01*
X242919Y337347D01*
X240322Y337347D01*
X210508Y322192D02*
X210508Y310508D01*
X215701Y310508D01*
X219898Y313104D02*
X219898Y315701D01*
X219900Y315802D01*
X219906Y315902D01*
X219916Y316002D01*
X219929Y316102D01*
X219947Y316201D01*
X219968Y316300D01*
X219993Y316397D01*
X220022Y316494D01*
X220055Y316589D01*
X220091Y316683D01*
X220131Y316775D01*
X220174Y316866D01*
X220221Y316955D01*
X220271Y317042D01*
X220325Y317128D01*
X220382Y317211D01*
X220442Y317291D01*
X220505Y317370D01*
X220572Y317446D01*
X220641Y317519D01*
X220713Y317589D01*
X220787Y317657D01*
X220864Y317722D01*
X220944Y317783D01*
X221026Y317842D01*
X221110Y317897D01*
X221196Y317949D01*
X221284Y317998D01*
X221374Y318043D01*
X221466Y318085D01*
X221559Y318123D01*
X221654Y318157D01*
X221749Y318188D01*
X221846Y318215D01*
X221944Y318238D01*
X222043Y318258D01*
X222143Y318273D01*
X222243Y318285D01*
X222343Y318293D01*
X222444Y318297D01*
X222544Y318297D01*
X222645Y318293D01*
X222745Y318285D01*
X222845Y318273D01*
X222945Y318258D01*
X223044Y318238D01*
X223142Y318215D01*
X223239Y318188D01*
X223334Y318157D01*
X223429Y318123D01*
X223522Y318085D01*
X223614Y318043D01*
X223704Y317998D01*
X223792Y317949D01*
X223878Y317897D01*
X223962Y317842D01*
X224044Y317783D01*
X224124Y317722D01*
X224201Y317657D01*
X224275Y317589D01*
X224347Y317519D01*
X224416Y317446D01*
X224483Y317370D01*
X224546Y317291D01*
X224606Y317211D01*
X224663Y317128D01*
X224717Y317042D01*
X224767Y316955D01*
X224814Y316866D01*
X224857Y316775D01*
X224897Y316683D01*
X224933Y316589D01*
X224966Y316494D01*
X224995Y316397D01*
X225020Y316300D01*
X225041Y316201D01*
X225059Y316102D01*
X225072Y316002D01*
X225082Y315902D01*
X225088Y315802D01*
X225090Y315701D01*
X225090Y313104D01*
X225088Y313003D01*
X225082Y312903D01*
X225072Y312803D01*
X225059Y312703D01*
X225041Y312604D01*
X225020Y312505D01*
X224995Y312408D01*
X224966Y312311D01*
X224933Y312216D01*
X224897Y312122D01*
X224857Y312030D01*
X224814Y311939D01*
X224767Y311850D01*
X224717Y311763D01*
X224663Y311677D01*
X224606Y311594D01*
X224546Y311514D01*
X224483Y311435D01*
X224416Y311359D01*
X224347Y311286D01*
X224275Y311216D01*
X224201Y311148D01*
X224124Y311083D01*
X224044Y311022D01*
X223962Y310963D01*
X223878Y310908D01*
X223792Y310856D01*
X223704Y310807D01*
X223614Y310762D01*
X223522Y310720D01*
X223429Y310682D01*
X223334Y310648D01*
X223239Y310617D01*
X223142Y310590D01*
X223044Y310567D01*
X222945Y310547D01*
X222845Y310532D01*
X222745Y310520D01*
X222645Y310512D01*
X222544Y310508D01*
X222444Y310508D01*
X222343Y310512D01*
X222243Y310520D01*
X222143Y310532D01*
X222043Y310547D01*
X221944Y310567D01*
X221846Y310590D01*
X221749Y310617D01*
X221654Y310648D01*
X221559Y310682D01*
X221466Y310720D01*
X221374Y310762D01*
X221284Y310807D01*
X221196Y310856D01*
X221110Y310908D01*
X221026Y310963D01*
X220944Y311022D01*
X220864Y311083D01*
X220787Y311148D01*
X220713Y311216D01*
X220641Y311286D01*
X220572Y311359D01*
X220505Y311435D01*
X220442Y311514D01*
X220382Y311594D01*
X220325Y311677D01*
X220271Y311763D01*
X220221Y311850D01*
X220174Y311939D01*
X220131Y312030D01*
X220091Y312122D01*
X220055Y312216D01*
X220022Y312311D01*
X219993Y312408D01*
X219968Y312505D01*
X219947Y312604D01*
X219929Y312703D01*
X219916Y312803D01*
X219906Y312903D01*
X219900Y313003D01*
X219898Y313104D01*
X231692Y310508D02*
X234938Y310508D01*
X231692Y310508D02*
X231605Y310510D01*
X231517Y310516D01*
X231431Y310526D01*
X231344Y310539D01*
X231259Y310557D01*
X231174Y310578D01*
X231090Y310603D01*
X231008Y310632D01*
X230927Y310665D01*
X230847Y310701D01*
X230769Y310740D01*
X230693Y310784D01*
X230619Y310830D01*
X230548Y310880D01*
X230478Y310933D01*
X230411Y310989D01*
X230347Y311048D01*
X230285Y311110D01*
X230226Y311174D01*
X230170Y311241D01*
X230117Y311311D01*
X230067Y311382D01*
X230021Y311456D01*
X229977Y311532D01*
X229938Y311610D01*
X229902Y311690D01*
X229869Y311771D01*
X229840Y311853D01*
X229815Y311937D01*
X229794Y312022D01*
X229776Y312107D01*
X229763Y312194D01*
X229753Y312280D01*
X229747Y312368D01*
X229745Y312455D01*
X229745Y316350D01*
X229747Y316437D01*
X229753Y316525D01*
X229763Y316611D01*
X229776Y316698D01*
X229794Y316783D01*
X229815Y316868D01*
X229840Y316952D01*
X229869Y317034D01*
X229902Y317115D01*
X229938Y317195D01*
X229977Y317273D01*
X230021Y317349D01*
X230067Y317423D01*
X230117Y317494D01*
X230170Y317564D01*
X230226Y317631D01*
X230285Y317695D01*
X230347Y317757D01*
X230411Y317816D01*
X230478Y317872D01*
X230548Y317925D01*
X230619Y317975D01*
X230693Y318021D01*
X230769Y318065D01*
X230847Y318104D01*
X230927Y318140D01*
X231008Y318173D01*
X231090Y318202D01*
X231174Y318227D01*
X231259Y318248D01*
X231344Y318266D01*
X231431Y318279D01*
X231517Y318289D01*
X231605Y318295D01*
X231692Y318297D01*
X234938Y318297D01*
X234938Y308561D01*
X234937Y308561D02*
X234935Y308474D01*
X234929Y308386D01*
X234919Y308300D01*
X234906Y308213D01*
X234888Y308128D01*
X234867Y308043D01*
X234842Y307959D01*
X234813Y307877D01*
X234780Y307796D01*
X234744Y307716D01*
X234705Y307638D01*
X234661Y307562D01*
X234615Y307488D01*
X234565Y307417D01*
X234512Y307347D01*
X234456Y307280D01*
X234397Y307216D01*
X234336Y307154D01*
X234271Y307095D01*
X234204Y307039D01*
X234134Y306986D01*
X234063Y306936D01*
X233989Y306890D01*
X233913Y306846D01*
X233835Y306807D01*
X233755Y306771D01*
X233674Y306738D01*
X233592Y306709D01*
X233508Y306684D01*
X233423Y306663D01*
X233338Y306645D01*
X233251Y306632D01*
X233165Y306622D01*
X233077Y306616D01*
X232990Y306614D01*
X232990Y306613D02*
X230394Y306613D01*
X241979Y310508D02*
X245224Y310508D01*
X241979Y310508D02*
X241892Y310510D01*
X241804Y310516D01*
X241718Y310526D01*
X241631Y310539D01*
X241546Y310557D01*
X241461Y310578D01*
X241377Y310603D01*
X241295Y310632D01*
X241214Y310665D01*
X241134Y310701D01*
X241056Y310740D01*
X240980Y310784D01*
X240906Y310830D01*
X240835Y310880D01*
X240765Y310933D01*
X240698Y310989D01*
X240634Y311048D01*
X240572Y311110D01*
X240513Y311174D01*
X240457Y311241D01*
X240404Y311311D01*
X240354Y311382D01*
X240308Y311456D01*
X240264Y311532D01*
X240225Y311610D01*
X240189Y311690D01*
X240156Y311771D01*
X240127Y311853D01*
X240102Y311937D01*
X240081Y312022D01*
X240063Y312107D01*
X240050Y312194D01*
X240040Y312280D01*
X240034Y312368D01*
X240032Y312455D01*
X240032Y316350D01*
X240034Y316437D01*
X240040Y316525D01*
X240050Y316611D01*
X240063Y316698D01*
X240081Y316783D01*
X240102Y316868D01*
X240127Y316952D01*
X240156Y317034D01*
X240189Y317115D01*
X240225Y317195D01*
X240264Y317273D01*
X240308Y317349D01*
X240354Y317423D01*
X240404Y317494D01*
X240457Y317564D01*
X240513Y317631D01*
X240572Y317695D01*
X240634Y317757D01*
X240698Y317816D01*
X240765Y317872D01*
X240835Y317925D01*
X240906Y317975D01*
X240980Y318021D01*
X241056Y318065D01*
X241134Y318104D01*
X241214Y318140D01*
X241295Y318173D01*
X241377Y318202D01*
X241461Y318227D01*
X241546Y318248D01*
X241631Y318266D01*
X241718Y318279D01*
X241804Y318289D01*
X241892Y318295D01*
X241979Y318297D01*
X245224Y318297D01*
X245224Y308561D01*
X245222Y308474D01*
X245216Y308386D01*
X245206Y308300D01*
X245193Y308213D01*
X245175Y308128D01*
X245154Y308043D01*
X245129Y307959D01*
X245100Y307877D01*
X245067Y307796D01*
X245031Y307716D01*
X244992Y307638D01*
X244948Y307562D01*
X244902Y307488D01*
X244852Y307417D01*
X244799Y307347D01*
X244743Y307280D01*
X244684Y307216D01*
X244623Y307154D01*
X244558Y307095D01*
X244491Y307039D01*
X244421Y306986D01*
X244350Y306936D01*
X244276Y306890D01*
X244200Y306846D01*
X244122Y306807D01*
X244042Y306771D01*
X243961Y306738D01*
X243879Y306709D01*
X243795Y306684D01*
X243710Y306663D01*
X243625Y306645D01*
X243538Y306632D01*
X243452Y306622D01*
X243364Y306616D01*
X243277Y306614D01*
X243277Y306613D02*
X240681Y306613D01*
X252325Y310508D02*
X255570Y310508D01*
X252325Y310508D02*
X252238Y310510D01*
X252150Y310516D01*
X252064Y310526D01*
X251977Y310539D01*
X251892Y310557D01*
X251807Y310578D01*
X251723Y310603D01*
X251641Y310632D01*
X251560Y310665D01*
X251480Y310701D01*
X251402Y310740D01*
X251326Y310784D01*
X251252Y310830D01*
X251181Y310880D01*
X251111Y310933D01*
X251044Y310989D01*
X250980Y311048D01*
X250918Y311110D01*
X250859Y311174D01*
X250803Y311241D01*
X250750Y311311D01*
X250700Y311382D01*
X250654Y311456D01*
X250610Y311532D01*
X250571Y311610D01*
X250535Y311690D01*
X250502Y311771D01*
X250473Y311853D01*
X250448Y311937D01*
X250427Y312022D01*
X250409Y312107D01*
X250396Y312194D01*
X250386Y312280D01*
X250380Y312368D01*
X250378Y312455D01*
X250377Y312455D02*
X250377Y315701D01*
X250378Y315701D02*
X250380Y315802D01*
X250386Y315902D01*
X250396Y316002D01*
X250409Y316102D01*
X250427Y316201D01*
X250448Y316300D01*
X250473Y316397D01*
X250502Y316494D01*
X250535Y316589D01*
X250571Y316683D01*
X250611Y316775D01*
X250654Y316866D01*
X250701Y316955D01*
X250751Y317042D01*
X250805Y317128D01*
X250862Y317211D01*
X250922Y317291D01*
X250985Y317370D01*
X251052Y317446D01*
X251121Y317519D01*
X251193Y317589D01*
X251267Y317657D01*
X251344Y317722D01*
X251424Y317783D01*
X251506Y317842D01*
X251590Y317897D01*
X251676Y317949D01*
X251764Y317998D01*
X251854Y318043D01*
X251946Y318085D01*
X252039Y318123D01*
X252134Y318157D01*
X252229Y318188D01*
X252326Y318215D01*
X252424Y318238D01*
X252523Y318258D01*
X252623Y318273D01*
X252723Y318285D01*
X252823Y318293D01*
X252924Y318297D01*
X253024Y318297D01*
X253125Y318293D01*
X253225Y318285D01*
X253325Y318273D01*
X253425Y318258D01*
X253524Y318238D01*
X253622Y318215D01*
X253719Y318188D01*
X253814Y318157D01*
X253909Y318123D01*
X254002Y318085D01*
X254094Y318043D01*
X254184Y317998D01*
X254272Y317949D01*
X254358Y317897D01*
X254442Y317842D01*
X254524Y317783D01*
X254604Y317722D01*
X254681Y317657D01*
X254755Y317589D01*
X254827Y317519D01*
X254896Y317446D01*
X254963Y317370D01*
X255026Y317291D01*
X255086Y317211D01*
X255143Y317128D01*
X255197Y317042D01*
X255247Y316955D01*
X255294Y316866D01*
X255337Y316775D01*
X255377Y316683D01*
X255413Y316589D01*
X255446Y316494D01*
X255475Y316397D01*
X255500Y316300D01*
X255521Y316201D01*
X255539Y316102D01*
X255552Y316002D01*
X255562Y315902D01*
X255568Y315802D01*
X255570Y315701D01*
X255570Y314403D01*
X250377Y314403D01*
X260731Y310508D02*
X260731Y318297D01*
X264626Y318297D01*
X264626Y316999D01*
X310508Y329558D02*
X310508Y341242D01*
X313754Y341242D01*
X313867Y341240D01*
X313980Y341234D01*
X314093Y341224D01*
X314206Y341210D01*
X314318Y341193D01*
X314429Y341171D01*
X314539Y341146D01*
X314649Y341116D01*
X314757Y341083D01*
X314864Y341046D01*
X314970Y341006D01*
X315074Y340961D01*
X315177Y340913D01*
X315278Y340862D01*
X315377Y340807D01*
X315474Y340749D01*
X315569Y340687D01*
X315662Y340622D01*
X315752Y340554D01*
X315840Y340483D01*
X315926Y340408D01*
X316009Y340331D01*
X316089Y340251D01*
X316166Y340168D01*
X316241Y340082D01*
X316312Y339994D01*
X316380Y339904D01*
X316445Y339811D01*
X316507Y339716D01*
X316565Y339619D01*
X316620Y339520D01*
X316671Y339419D01*
X316719Y339316D01*
X316764Y339212D01*
X316804Y339106D01*
X316841Y338999D01*
X316874Y338891D01*
X316904Y338781D01*
X316929Y338671D01*
X316951Y338560D01*
X316968Y338448D01*
X316982Y338335D01*
X316992Y338222D01*
X316998Y338109D01*
X317000Y337996D01*
X316998Y337883D01*
X316992Y337770D01*
X316982Y337657D01*
X316968Y337544D01*
X316951Y337432D01*
X316929Y337321D01*
X316904Y337211D01*
X316874Y337101D01*
X316841Y336993D01*
X316804Y336886D01*
X316764Y336780D01*
X316719Y336676D01*
X316671Y336573D01*
X316620Y336472D01*
X316565Y336373D01*
X316507Y336276D01*
X316445Y336181D01*
X316380Y336088D01*
X316312Y335998D01*
X316241Y335910D01*
X316166Y335824D01*
X316089Y335741D01*
X316009Y335661D01*
X315926Y335584D01*
X315840Y335509D01*
X315752Y335438D01*
X315662Y335370D01*
X315569Y335305D01*
X315474Y335243D01*
X315377Y335185D01*
X315278Y335130D01*
X315177Y335079D01*
X315074Y335031D01*
X314970Y334986D01*
X314864Y334946D01*
X314757Y334909D01*
X314649Y334876D01*
X314539Y334846D01*
X314429Y334821D01*
X314318Y334799D01*
X314206Y334782D01*
X314093Y334768D01*
X313980Y334758D01*
X313867Y334752D01*
X313754Y334750D01*
X313754Y334751D02*
X310508Y334751D01*
X314403Y334751D02*
X316999Y329558D01*
X321751Y332154D02*
X321751Y334751D01*
X321752Y334751D02*
X321754Y334852D01*
X321760Y334952D01*
X321770Y335052D01*
X321783Y335152D01*
X321801Y335251D01*
X321822Y335350D01*
X321847Y335447D01*
X321876Y335544D01*
X321909Y335639D01*
X321945Y335733D01*
X321985Y335825D01*
X322028Y335916D01*
X322075Y336005D01*
X322125Y336092D01*
X322179Y336178D01*
X322236Y336261D01*
X322296Y336341D01*
X322359Y336420D01*
X322426Y336496D01*
X322495Y336569D01*
X322567Y336639D01*
X322641Y336707D01*
X322718Y336772D01*
X322798Y336833D01*
X322880Y336892D01*
X322964Y336947D01*
X323050Y336999D01*
X323138Y337048D01*
X323228Y337093D01*
X323320Y337135D01*
X323413Y337173D01*
X323508Y337207D01*
X323603Y337238D01*
X323700Y337265D01*
X323798Y337288D01*
X323897Y337308D01*
X323997Y337323D01*
X324097Y337335D01*
X324197Y337343D01*
X324298Y337347D01*
X324398Y337347D01*
X324499Y337343D01*
X324599Y337335D01*
X324699Y337323D01*
X324799Y337308D01*
X324898Y337288D01*
X324996Y337265D01*
X325093Y337238D01*
X325188Y337207D01*
X325283Y337173D01*
X325376Y337135D01*
X325468Y337093D01*
X325558Y337048D01*
X325646Y336999D01*
X325732Y336947D01*
X325816Y336892D01*
X325898Y336833D01*
X325978Y336772D01*
X326055Y336707D01*
X326129Y336639D01*
X326201Y336569D01*
X326270Y336496D01*
X326337Y336420D01*
X326400Y336341D01*
X326460Y336261D01*
X326517Y336178D01*
X326571Y336092D01*
X326621Y336005D01*
X326668Y335916D01*
X326711Y335825D01*
X326751Y335733D01*
X326787Y335639D01*
X326820Y335544D01*
X326849Y335447D01*
X326874Y335350D01*
X326895Y335251D01*
X326913Y335152D01*
X326926Y335052D01*
X326936Y334952D01*
X326942Y334852D01*
X326944Y334751D01*
X326944Y332154D01*
X326942Y332053D01*
X326936Y331953D01*
X326926Y331853D01*
X326913Y331753D01*
X326895Y331654D01*
X326874Y331555D01*
X326849Y331458D01*
X326820Y331361D01*
X326787Y331266D01*
X326751Y331172D01*
X326711Y331080D01*
X326668Y330989D01*
X326621Y330900D01*
X326571Y330813D01*
X326517Y330727D01*
X326460Y330644D01*
X326400Y330564D01*
X326337Y330485D01*
X326270Y330409D01*
X326201Y330336D01*
X326129Y330266D01*
X326055Y330198D01*
X325978Y330133D01*
X325898Y330072D01*
X325816Y330013D01*
X325732Y329958D01*
X325646Y329906D01*
X325558Y329857D01*
X325468Y329812D01*
X325376Y329770D01*
X325283Y329732D01*
X325188Y329698D01*
X325093Y329667D01*
X324996Y329640D01*
X324898Y329617D01*
X324799Y329597D01*
X324699Y329582D01*
X324599Y329570D01*
X324499Y329562D01*
X324398Y329558D01*
X324298Y329558D01*
X324197Y329562D01*
X324097Y329570D01*
X323997Y329582D01*
X323897Y329597D01*
X323798Y329617D01*
X323700Y329640D01*
X323603Y329667D01*
X323508Y329698D01*
X323413Y329732D01*
X323320Y329770D01*
X323228Y329812D01*
X323138Y329857D01*
X323050Y329906D01*
X322964Y329958D01*
X322880Y330013D01*
X322798Y330072D01*
X322718Y330133D01*
X322641Y330198D01*
X322567Y330266D01*
X322495Y330336D01*
X322426Y330409D01*
X322359Y330485D01*
X322296Y330564D01*
X322236Y330644D01*
X322179Y330727D01*
X322125Y330813D01*
X322075Y330900D01*
X322028Y330989D01*
X321985Y331080D01*
X321945Y331172D01*
X321909Y331266D01*
X321876Y331361D01*
X321847Y331458D01*
X321822Y331555D01*
X321801Y331654D01*
X321783Y331753D01*
X321770Y331853D01*
X321760Y331953D01*
X321754Y332053D01*
X321752Y332154D01*
X333618Y329558D02*
X336215Y329558D01*
X333618Y329558D02*
X333531Y329560D01*
X333443Y329566D01*
X333357Y329576D01*
X333270Y329589D01*
X333185Y329607D01*
X333100Y329628D01*
X333016Y329653D01*
X332934Y329682D01*
X332853Y329715D01*
X332773Y329751D01*
X332695Y329790D01*
X332619Y329834D01*
X332545Y329880D01*
X332474Y329930D01*
X332404Y329983D01*
X332337Y330039D01*
X332273Y330098D01*
X332211Y330160D01*
X332152Y330224D01*
X332096Y330291D01*
X332043Y330361D01*
X331993Y330432D01*
X331947Y330506D01*
X331903Y330582D01*
X331864Y330660D01*
X331828Y330740D01*
X331795Y330821D01*
X331766Y330903D01*
X331741Y330987D01*
X331720Y331072D01*
X331702Y331157D01*
X331689Y331244D01*
X331679Y331330D01*
X331673Y331418D01*
X331671Y331505D01*
X331671Y335400D01*
X331673Y335487D01*
X331679Y335575D01*
X331689Y335661D01*
X331702Y335748D01*
X331720Y335833D01*
X331741Y335918D01*
X331766Y336002D01*
X331795Y336084D01*
X331828Y336165D01*
X331864Y336245D01*
X331903Y336323D01*
X331947Y336399D01*
X331993Y336473D01*
X332043Y336544D01*
X332096Y336614D01*
X332152Y336681D01*
X332211Y336745D01*
X332273Y336807D01*
X332337Y336866D01*
X332404Y336922D01*
X332474Y336975D01*
X332545Y337025D01*
X332619Y337071D01*
X332695Y337115D01*
X332773Y337154D01*
X332853Y337190D01*
X332934Y337223D01*
X333016Y337252D01*
X333100Y337277D01*
X333185Y337298D01*
X333270Y337316D01*
X333357Y337329D01*
X333443Y337339D01*
X333531Y337345D01*
X333618Y337347D01*
X336215Y337347D01*
X340937Y341242D02*
X340937Y329558D01*
X340937Y333453D02*
X346130Y337347D01*
X343209Y335075D02*
X346130Y329558D01*
X352274Y329558D02*
X355519Y329558D01*
X352274Y329558D02*
X352187Y329560D01*
X352099Y329566D01*
X352013Y329576D01*
X351926Y329589D01*
X351841Y329607D01*
X351756Y329628D01*
X351672Y329653D01*
X351590Y329682D01*
X351509Y329715D01*
X351429Y329751D01*
X351351Y329790D01*
X351275Y329834D01*
X351201Y329880D01*
X351130Y329930D01*
X351060Y329983D01*
X350993Y330039D01*
X350929Y330098D01*
X350867Y330160D01*
X350808Y330224D01*
X350752Y330291D01*
X350699Y330361D01*
X350649Y330432D01*
X350603Y330506D01*
X350559Y330582D01*
X350520Y330660D01*
X350484Y330740D01*
X350451Y330821D01*
X350422Y330903D01*
X350397Y330987D01*
X350376Y331072D01*
X350358Y331157D01*
X350345Y331244D01*
X350335Y331330D01*
X350329Y331418D01*
X350327Y331505D01*
X350326Y331505D02*
X350326Y334751D01*
X350327Y334751D02*
X350329Y334852D01*
X350335Y334952D01*
X350345Y335052D01*
X350358Y335152D01*
X350376Y335251D01*
X350397Y335350D01*
X350422Y335447D01*
X350451Y335544D01*
X350484Y335639D01*
X350520Y335733D01*
X350560Y335825D01*
X350603Y335916D01*
X350650Y336005D01*
X350700Y336092D01*
X350754Y336178D01*
X350811Y336261D01*
X350871Y336341D01*
X350934Y336420D01*
X351001Y336496D01*
X351070Y336569D01*
X351142Y336639D01*
X351216Y336707D01*
X351293Y336772D01*
X351373Y336833D01*
X351455Y336892D01*
X351539Y336947D01*
X351625Y336999D01*
X351713Y337048D01*
X351803Y337093D01*
X351895Y337135D01*
X351988Y337173D01*
X352083Y337207D01*
X352178Y337238D01*
X352275Y337265D01*
X352373Y337288D01*
X352472Y337308D01*
X352572Y337323D01*
X352672Y337335D01*
X352772Y337343D01*
X352873Y337347D01*
X352973Y337347D01*
X353074Y337343D01*
X353174Y337335D01*
X353274Y337323D01*
X353374Y337308D01*
X353473Y337288D01*
X353571Y337265D01*
X353668Y337238D01*
X353763Y337207D01*
X353858Y337173D01*
X353951Y337135D01*
X354043Y337093D01*
X354133Y337048D01*
X354221Y336999D01*
X354307Y336947D01*
X354391Y336892D01*
X354473Y336833D01*
X354553Y336772D01*
X354630Y336707D01*
X354704Y336639D01*
X354776Y336569D01*
X354845Y336496D01*
X354912Y336420D01*
X354975Y336341D01*
X355035Y336261D01*
X355092Y336178D01*
X355146Y336092D01*
X355196Y336005D01*
X355243Y335916D01*
X355286Y335825D01*
X355326Y335733D01*
X355362Y335639D01*
X355395Y335544D01*
X355424Y335447D01*
X355449Y335350D01*
X355470Y335251D01*
X355488Y335152D01*
X355501Y335052D01*
X355511Y334952D01*
X355517Y334852D01*
X355519Y334751D01*
X355519Y333453D01*
X350326Y333453D01*
X359265Y337347D02*
X363160Y337347D01*
X360563Y341242D02*
X360563Y331505D01*
X360564Y331505D02*
X360566Y331418D01*
X360572Y331330D01*
X360582Y331244D01*
X360595Y331157D01*
X360613Y331072D01*
X360634Y330987D01*
X360659Y330903D01*
X360688Y330821D01*
X360721Y330740D01*
X360757Y330660D01*
X360796Y330582D01*
X360840Y330506D01*
X360886Y330432D01*
X360936Y330361D01*
X360989Y330291D01*
X361045Y330224D01*
X361104Y330160D01*
X361166Y330098D01*
X361230Y330039D01*
X361297Y329983D01*
X361367Y329930D01*
X361438Y329880D01*
X361512Y329834D01*
X361588Y329790D01*
X361666Y329751D01*
X361746Y329715D01*
X361827Y329682D01*
X361909Y329653D01*
X361993Y329628D01*
X362078Y329607D01*
X362163Y329589D01*
X362250Y329576D01*
X362336Y329566D01*
X362424Y329560D01*
X362511Y329558D01*
X363160Y329558D01*
X315701Y310508D02*
X313104Y310508D01*
X313005Y310510D01*
X312905Y310516D01*
X312806Y310525D01*
X312708Y310538D01*
X312610Y310555D01*
X312512Y310576D01*
X312416Y310601D01*
X312321Y310629D01*
X312227Y310661D01*
X312134Y310696D01*
X312042Y310735D01*
X311952Y310778D01*
X311864Y310823D01*
X311777Y310873D01*
X311693Y310925D01*
X311610Y310981D01*
X311530Y311039D01*
X311452Y311101D01*
X311377Y311166D01*
X311304Y311234D01*
X311234Y311304D01*
X311166Y311377D01*
X311101Y311452D01*
X311039Y311530D01*
X310981Y311610D01*
X310925Y311693D01*
X310873Y311777D01*
X310823Y311864D01*
X310778Y311952D01*
X310735Y312042D01*
X310696Y312134D01*
X310661Y312227D01*
X310629Y312321D01*
X310601Y312416D01*
X310576Y312512D01*
X310555Y312610D01*
X310538Y312708D01*
X310525Y312806D01*
X310516Y312905D01*
X310510Y313005D01*
X310508Y313104D01*
X310508Y319596D01*
X310510Y319695D01*
X310516Y319795D01*
X310525Y319894D01*
X310538Y319992D01*
X310555Y320090D01*
X310576Y320188D01*
X310601Y320284D01*
X310629Y320379D01*
X310661Y320473D01*
X310696Y320566D01*
X310735Y320658D01*
X310778Y320748D01*
X310823Y320836D01*
X310873Y320923D01*
X310925Y321007D01*
X310981Y321090D01*
X311039Y321170D01*
X311101Y321248D01*
X311166Y321323D01*
X311234Y321396D01*
X311304Y321466D01*
X311377Y321534D01*
X311452Y321599D01*
X311530Y321661D01*
X311610Y321719D01*
X311693Y321775D01*
X311777Y321827D01*
X311864Y321877D01*
X311952Y321922D01*
X312042Y321965D01*
X312134Y322004D01*
X312226Y322039D01*
X312321Y322071D01*
X312416Y322099D01*
X312512Y322124D01*
X312610Y322145D01*
X312708Y322162D01*
X312806Y322175D01*
X312905Y322184D01*
X313005Y322190D01*
X313104Y322192D01*
X315701Y322192D01*
X319953Y315701D02*
X319953Y313104D01*
X319954Y315701D02*
X319956Y315802D01*
X319962Y315902D01*
X319972Y316002D01*
X319985Y316102D01*
X320003Y316201D01*
X320024Y316300D01*
X320049Y316397D01*
X320078Y316494D01*
X320111Y316589D01*
X320147Y316683D01*
X320187Y316775D01*
X320230Y316866D01*
X320277Y316955D01*
X320327Y317042D01*
X320381Y317128D01*
X320438Y317211D01*
X320498Y317291D01*
X320561Y317370D01*
X320628Y317446D01*
X320697Y317519D01*
X320769Y317589D01*
X320843Y317657D01*
X320920Y317722D01*
X321000Y317783D01*
X321082Y317842D01*
X321166Y317897D01*
X321252Y317949D01*
X321340Y317998D01*
X321430Y318043D01*
X321522Y318085D01*
X321615Y318123D01*
X321710Y318157D01*
X321805Y318188D01*
X321902Y318215D01*
X322000Y318238D01*
X322099Y318258D01*
X322199Y318273D01*
X322299Y318285D01*
X322399Y318293D01*
X322500Y318297D01*
X322600Y318297D01*
X322701Y318293D01*
X322801Y318285D01*
X322901Y318273D01*
X323001Y318258D01*
X323100Y318238D01*
X323198Y318215D01*
X323295Y318188D01*
X323390Y318157D01*
X323485Y318123D01*
X323578Y318085D01*
X323670Y318043D01*
X323760Y317998D01*
X323848Y317949D01*
X323934Y317897D01*
X324018Y317842D01*
X324100Y317783D01*
X324180Y317722D01*
X324257Y317657D01*
X324331Y317589D01*
X324403Y317519D01*
X324472Y317446D01*
X324539Y317370D01*
X324602Y317291D01*
X324662Y317211D01*
X324719Y317128D01*
X324773Y317042D01*
X324823Y316955D01*
X324870Y316866D01*
X324913Y316775D01*
X324953Y316683D01*
X324989Y316589D01*
X325022Y316494D01*
X325051Y316397D01*
X325076Y316300D01*
X325097Y316201D01*
X325115Y316102D01*
X325128Y316002D01*
X325138Y315902D01*
X325144Y315802D01*
X325146Y315701D01*
X325146Y313104D01*
X325144Y313003D01*
X325138Y312903D01*
X325128Y312803D01*
X325115Y312703D01*
X325097Y312604D01*
X325076Y312505D01*
X325051Y312408D01*
X325022Y312311D01*
X324989Y312216D01*
X324953Y312122D01*
X324913Y312030D01*
X324870Y311939D01*
X324823Y311850D01*
X324773Y311763D01*
X324719Y311677D01*
X324662Y311594D01*
X324602Y311514D01*
X324539Y311435D01*
X324472Y311359D01*
X324403Y311286D01*
X324331Y311216D01*
X324257Y311148D01*
X324180Y311083D01*
X324100Y311022D01*
X324018Y310963D01*
X323934Y310908D01*
X323848Y310856D01*
X323760Y310807D01*
X323670Y310762D01*
X323578Y310720D01*
X323485Y310682D01*
X323390Y310648D01*
X323295Y310617D01*
X323198Y310590D01*
X323100Y310567D01*
X323001Y310547D01*
X322901Y310532D01*
X322801Y310520D01*
X322701Y310512D01*
X322600Y310508D01*
X322500Y310508D01*
X322399Y310512D01*
X322299Y310520D01*
X322199Y310532D01*
X322099Y310547D01*
X322000Y310567D01*
X321902Y310590D01*
X321805Y310617D01*
X321710Y310648D01*
X321615Y310682D01*
X321522Y310720D01*
X321430Y310762D01*
X321340Y310807D01*
X321252Y310856D01*
X321166Y310908D01*
X321082Y310963D01*
X321000Y311022D01*
X320920Y311083D01*
X320843Y311148D01*
X320769Y311216D01*
X320697Y311286D01*
X320628Y311359D01*
X320561Y311435D01*
X320498Y311514D01*
X320438Y311594D01*
X320381Y311677D01*
X320327Y311763D01*
X320277Y311850D01*
X320230Y311939D01*
X320187Y312030D01*
X320147Y312122D01*
X320111Y312216D01*
X320078Y312311D01*
X320049Y312408D01*
X320024Y312505D01*
X320003Y312604D01*
X319985Y312703D01*
X319972Y312803D01*
X319962Y312903D01*
X319956Y313003D01*
X319954Y313104D01*
X330240Y310508D02*
X330240Y318297D01*
X333486Y318297D01*
X333573Y318295D01*
X333661Y318289D01*
X333747Y318279D01*
X333834Y318266D01*
X333919Y318248D01*
X334004Y318227D01*
X334088Y318202D01*
X334170Y318173D01*
X334251Y318140D01*
X334331Y318104D01*
X334409Y318065D01*
X334485Y318021D01*
X334559Y317975D01*
X334630Y317925D01*
X334700Y317872D01*
X334767Y317816D01*
X334831Y317757D01*
X334893Y317696D01*
X334952Y317631D01*
X335008Y317564D01*
X335061Y317494D01*
X335111Y317423D01*
X335157Y317349D01*
X335201Y317273D01*
X335240Y317195D01*
X335276Y317115D01*
X335309Y317034D01*
X335338Y316952D01*
X335363Y316868D01*
X335384Y316783D01*
X335402Y316698D01*
X335415Y316611D01*
X335425Y316525D01*
X335431Y316437D01*
X335433Y316350D01*
X335433Y310508D01*
X339560Y318297D02*
X343455Y318297D01*
X340858Y322192D02*
X340858Y312455D01*
X340859Y312455D02*
X340861Y312368D01*
X340867Y312280D01*
X340877Y312194D01*
X340890Y312107D01*
X340908Y312022D01*
X340929Y311937D01*
X340954Y311853D01*
X340983Y311771D01*
X341016Y311690D01*
X341052Y311610D01*
X341091Y311532D01*
X341135Y311456D01*
X341181Y311382D01*
X341231Y311311D01*
X341284Y311241D01*
X341340Y311174D01*
X341399Y311110D01*
X341461Y311048D01*
X341525Y310989D01*
X341592Y310933D01*
X341662Y310880D01*
X341733Y310830D01*
X341807Y310784D01*
X341883Y310740D01*
X341961Y310701D01*
X342041Y310665D01*
X342122Y310632D01*
X342204Y310603D01*
X342288Y310578D01*
X342373Y310557D01*
X342458Y310539D01*
X342545Y310526D01*
X342631Y310516D01*
X342719Y310510D01*
X342806Y310508D01*
X343455Y310508D01*
X348214Y310508D02*
X348214Y318297D01*
X352108Y318297D01*
X352108Y316999D01*
X355767Y315701D02*
X355767Y313104D01*
X355768Y315701D02*
X355770Y315802D01*
X355776Y315902D01*
X355786Y316002D01*
X355799Y316102D01*
X355817Y316201D01*
X355838Y316300D01*
X355863Y316397D01*
X355892Y316494D01*
X355925Y316589D01*
X355961Y316683D01*
X356001Y316775D01*
X356044Y316866D01*
X356091Y316955D01*
X356141Y317042D01*
X356195Y317128D01*
X356252Y317211D01*
X356312Y317291D01*
X356375Y317370D01*
X356442Y317446D01*
X356511Y317519D01*
X356583Y317589D01*
X356657Y317657D01*
X356734Y317722D01*
X356814Y317783D01*
X356896Y317842D01*
X356980Y317897D01*
X357066Y317949D01*
X357154Y317998D01*
X357244Y318043D01*
X357336Y318085D01*
X357429Y318123D01*
X357524Y318157D01*
X357619Y318188D01*
X357716Y318215D01*
X357814Y318238D01*
X357913Y318258D01*
X358013Y318273D01*
X358113Y318285D01*
X358213Y318293D01*
X358314Y318297D01*
X358414Y318297D01*
X358515Y318293D01*
X358615Y318285D01*
X358715Y318273D01*
X358815Y318258D01*
X358914Y318238D01*
X359012Y318215D01*
X359109Y318188D01*
X359204Y318157D01*
X359299Y318123D01*
X359392Y318085D01*
X359484Y318043D01*
X359574Y317998D01*
X359662Y317949D01*
X359748Y317897D01*
X359832Y317842D01*
X359914Y317783D01*
X359994Y317722D01*
X360071Y317657D01*
X360145Y317589D01*
X360217Y317519D01*
X360286Y317446D01*
X360353Y317370D01*
X360416Y317291D01*
X360476Y317211D01*
X360533Y317128D01*
X360587Y317042D01*
X360637Y316955D01*
X360684Y316866D01*
X360727Y316775D01*
X360767Y316683D01*
X360803Y316589D01*
X360836Y316494D01*
X360865Y316397D01*
X360890Y316300D01*
X360911Y316201D01*
X360929Y316102D01*
X360942Y316002D01*
X360952Y315902D01*
X360958Y315802D01*
X360960Y315701D01*
X360960Y313104D01*
X360958Y313003D01*
X360952Y312903D01*
X360942Y312803D01*
X360929Y312703D01*
X360911Y312604D01*
X360890Y312505D01*
X360865Y312408D01*
X360836Y312311D01*
X360803Y312216D01*
X360767Y312122D01*
X360727Y312030D01*
X360684Y311939D01*
X360637Y311850D01*
X360587Y311763D01*
X360533Y311677D01*
X360476Y311594D01*
X360416Y311514D01*
X360353Y311435D01*
X360286Y311359D01*
X360217Y311286D01*
X360145Y311216D01*
X360071Y311148D01*
X359994Y311083D01*
X359914Y311022D01*
X359832Y310963D01*
X359748Y310908D01*
X359662Y310856D01*
X359574Y310807D01*
X359484Y310762D01*
X359392Y310720D01*
X359299Y310682D01*
X359204Y310648D01*
X359109Y310617D01*
X359012Y310590D01*
X358914Y310567D01*
X358815Y310547D01*
X358715Y310532D01*
X358615Y310520D01*
X358515Y310512D01*
X358414Y310508D01*
X358314Y310508D01*
X358213Y310512D01*
X358113Y310520D01*
X358013Y310532D01*
X357913Y310547D01*
X357814Y310567D01*
X357716Y310590D01*
X357619Y310617D01*
X357524Y310648D01*
X357429Y310682D01*
X357336Y310720D01*
X357244Y310762D01*
X357154Y310807D01*
X357066Y310856D01*
X356980Y310908D01*
X356896Y310963D01*
X356814Y311022D01*
X356734Y311083D01*
X356657Y311148D01*
X356583Y311216D01*
X356511Y311286D01*
X356442Y311359D01*
X356375Y311435D01*
X356312Y311514D01*
X356252Y311594D01*
X356195Y311677D01*
X356141Y311763D01*
X356091Y311850D01*
X356044Y311939D01*
X356001Y312030D01*
X355961Y312122D01*
X355925Y312216D01*
X355892Y312311D01*
X355863Y312408D01*
X355838Y312505D01*
X355817Y312604D01*
X355799Y312703D01*
X355786Y312803D01*
X355776Y312903D01*
X355770Y313003D01*
X355768Y313104D01*
X365823Y312455D02*
X365823Y322192D01*
X365823Y312455D02*
X365825Y312368D01*
X365831Y312280D01*
X365841Y312194D01*
X365854Y312107D01*
X365872Y312022D01*
X365893Y311937D01*
X365918Y311853D01*
X365947Y311771D01*
X365980Y311690D01*
X366016Y311610D01*
X366055Y311532D01*
X366099Y311456D01*
X366145Y311382D01*
X366195Y311311D01*
X366248Y311241D01*
X366304Y311174D01*
X366363Y311110D01*
X366425Y311048D01*
X366489Y310989D01*
X366556Y310933D01*
X366626Y310880D01*
X366697Y310830D01*
X366771Y310784D01*
X366847Y310740D01*
X366925Y310701D01*
X367005Y310665D01*
X367086Y310632D01*
X367168Y310603D01*
X367252Y310578D01*
X367337Y310557D01*
X367422Y310539D01*
X367509Y310526D01*
X367595Y310516D01*
X367683Y310510D01*
X367770Y310508D01*
X371919Y312455D02*
X371919Y322192D01*
X371919Y312455D02*
X371921Y312368D01*
X371927Y312280D01*
X371937Y312194D01*
X371950Y312107D01*
X371968Y312022D01*
X371989Y311937D01*
X372014Y311853D01*
X372043Y311771D01*
X372076Y311690D01*
X372112Y311610D01*
X372151Y311532D01*
X372195Y311456D01*
X372241Y311382D01*
X372291Y311311D01*
X372344Y311241D01*
X372400Y311174D01*
X372459Y311110D01*
X372521Y311048D01*
X372585Y310989D01*
X372652Y310933D01*
X372722Y310880D01*
X372793Y310830D01*
X372867Y310784D01*
X372943Y310740D01*
X373021Y310701D01*
X373101Y310665D01*
X373182Y310632D01*
X373264Y310603D01*
X373348Y310578D01*
X373433Y310557D01*
X373518Y310539D01*
X373605Y310526D01*
X373691Y310516D01*
X373779Y310510D01*
X373866Y310508D01*
X379813Y310508D02*
X383058Y310508D01*
X379813Y310508D02*
X379726Y310510D01*
X379638Y310516D01*
X379552Y310526D01*
X379465Y310539D01*
X379380Y310557D01*
X379295Y310578D01*
X379211Y310603D01*
X379129Y310632D01*
X379048Y310665D01*
X378968Y310701D01*
X378890Y310740D01*
X378814Y310784D01*
X378740Y310830D01*
X378669Y310880D01*
X378599Y310933D01*
X378532Y310989D01*
X378468Y311048D01*
X378406Y311110D01*
X378347Y311174D01*
X378291Y311241D01*
X378238Y311311D01*
X378188Y311382D01*
X378142Y311456D01*
X378098Y311532D01*
X378059Y311610D01*
X378023Y311690D01*
X377990Y311771D01*
X377961Y311853D01*
X377936Y311937D01*
X377915Y312022D01*
X377897Y312107D01*
X377884Y312194D01*
X377874Y312280D01*
X377868Y312368D01*
X377866Y312455D01*
X377865Y312455D02*
X377865Y315701D01*
X377866Y315701D02*
X377868Y315802D01*
X377874Y315902D01*
X377884Y316002D01*
X377897Y316102D01*
X377915Y316201D01*
X377936Y316300D01*
X377961Y316397D01*
X377990Y316494D01*
X378023Y316589D01*
X378059Y316683D01*
X378099Y316775D01*
X378142Y316866D01*
X378189Y316955D01*
X378239Y317042D01*
X378293Y317128D01*
X378350Y317211D01*
X378410Y317291D01*
X378473Y317370D01*
X378540Y317446D01*
X378609Y317519D01*
X378681Y317589D01*
X378755Y317657D01*
X378832Y317722D01*
X378912Y317783D01*
X378994Y317842D01*
X379078Y317897D01*
X379164Y317949D01*
X379252Y317998D01*
X379342Y318043D01*
X379434Y318085D01*
X379527Y318123D01*
X379622Y318157D01*
X379717Y318188D01*
X379814Y318215D01*
X379912Y318238D01*
X380011Y318258D01*
X380111Y318273D01*
X380211Y318285D01*
X380311Y318293D01*
X380412Y318297D01*
X380512Y318297D01*
X380613Y318293D01*
X380713Y318285D01*
X380813Y318273D01*
X380913Y318258D01*
X381012Y318238D01*
X381110Y318215D01*
X381207Y318188D01*
X381302Y318157D01*
X381397Y318123D01*
X381490Y318085D01*
X381582Y318043D01*
X381672Y317998D01*
X381760Y317949D01*
X381846Y317897D01*
X381930Y317842D01*
X382012Y317783D01*
X382092Y317722D01*
X382169Y317657D01*
X382243Y317589D01*
X382315Y317519D01*
X382384Y317446D01*
X382451Y317370D01*
X382514Y317291D01*
X382574Y317211D01*
X382631Y317128D01*
X382685Y317042D01*
X382735Y316955D01*
X382782Y316866D01*
X382825Y316775D01*
X382865Y316683D01*
X382901Y316589D01*
X382934Y316494D01*
X382963Y316397D01*
X382988Y316300D01*
X383009Y316201D01*
X383027Y316102D01*
X383040Y316002D01*
X383050Y315902D01*
X383056Y315802D01*
X383058Y315701D01*
X383058Y314403D01*
X377865Y314403D01*
X388219Y310508D02*
X388219Y318297D01*
X392113Y318297D01*
X392113Y316999D01*
D14*
X497600Y135500D02*
X497600Y60000D01*
X497600Y135500D02*
X392400Y135500D01*
X392400Y60000D01*
X497600Y60000D01*
D10*
X453581Y137781D02*
X453581Y147179D01*
X456192Y147179D01*
X456292Y147177D01*
X456392Y147171D01*
X456491Y147162D01*
X456591Y147148D01*
X456689Y147131D01*
X456787Y147110D01*
X456884Y147086D01*
X456980Y147057D01*
X457075Y147025D01*
X457168Y146990D01*
X457260Y146951D01*
X457351Y146908D01*
X457439Y146862D01*
X457526Y146812D01*
X457611Y146760D01*
X457694Y146704D01*
X457775Y146645D01*
X457853Y146582D01*
X457929Y146517D01*
X458003Y146449D01*
X458073Y146379D01*
X458141Y146305D01*
X458206Y146229D01*
X458269Y146151D01*
X458328Y146070D01*
X458384Y145987D01*
X458436Y145902D01*
X458486Y145815D01*
X458532Y145727D01*
X458575Y145636D01*
X458614Y145544D01*
X458649Y145451D01*
X458681Y145356D01*
X458710Y145260D01*
X458734Y145163D01*
X458755Y145065D01*
X458772Y144967D01*
X458786Y144867D01*
X458795Y144768D01*
X458801Y144668D01*
X458803Y144568D01*
X458802Y144568D02*
X458802Y140392D01*
X458803Y140392D02*
X458801Y140292D01*
X458795Y140192D01*
X458786Y140093D01*
X458772Y139993D01*
X458755Y139895D01*
X458734Y139797D01*
X458710Y139700D01*
X458681Y139604D01*
X458649Y139509D01*
X458614Y139416D01*
X458575Y139324D01*
X458532Y139233D01*
X458486Y139145D01*
X458436Y139058D01*
X458384Y138973D01*
X458328Y138890D01*
X458269Y138809D01*
X458206Y138731D01*
X458141Y138655D01*
X458073Y138581D01*
X458003Y138511D01*
X457929Y138443D01*
X457853Y138378D01*
X457775Y138315D01*
X457694Y138256D01*
X457611Y138200D01*
X457526Y138148D01*
X457439Y138098D01*
X457351Y138052D01*
X457260Y138009D01*
X457168Y137970D01*
X457075Y137935D01*
X456980Y137903D01*
X456884Y137874D01*
X456787Y137850D01*
X456689Y137829D01*
X456591Y137812D01*
X456491Y137798D01*
X456392Y137789D01*
X456292Y137783D01*
X456192Y137781D01*
X453581Y137781D01*
X465092Y137781D02*
X467181Y137781D01*
X465092Y137781D02*
X465003Y137783D01*
X464915Y137789D01*
X464827Y137798D01*
X464739Y137811D01*
X464652Y137828D01*
X464566Y137848D01*
X464481Y137873D01*
X464396Y137900D01*
X464313Y137932D01*
X464232Y137966D01*
X464152Y138005D01*
X464074Y138046D01*
X463997Y138091D01*
X463923Y138139D01*
X463850Y138190D01*
X463780Y138244D01*
X463713Y138302D01*
X463647Y138362D01*
X463585Y138424D01*
X463525Y138490D01*
X463467Y138557D01*
X463413Y138627D01*
X463362Y138700D01*
X463314Y138774D01*
X463269Y138851D01*
X463228Y138929D01*
X463189Y139009D01*
X463155Y139090D01*
X463123Y139173D01*
X463096Y139258D01*
X463071Y139343D01*
X463051Y139429D01*
X463034Y139516D01*
X463021Y139604D01*
X463012Y139692D01*
X463006Y139780D01*
X463004Y139869D01*
X463004Y145091D01*
X463005Y145091D02*
X463007Y145182D01*
X463013Y145273D01*
X463023Y145364D01*
X463037Y145454D01*
X463054Y145543D01*
X463076Y145631D01*
X463102Y145719D01*
X463131Y145805D01*
X463164Y145890D01*
X463201Y145973D01*
X463241Y146055D01*
X463285Y146135D01*
X463332Y146213D01*
X463383Y146289D01*
X463436Y146362D01*
X463493Y146433D01*
X463554Y146502D01*
X463617Y146567D01*
X463682Y146630D01*
X463751Y146690D01*
X463822Y146748D01*
X463895Y146801D01*
X463971Y146852D01*
X464049Y146899D01*
X464129Y146943D01*
X464211Y146983D01*
X464294Y147020D01*
X464379Y147053D01*
X464465Y147082D01*
X464553Y147108D01*
X464641Y147130D01*
X464730Y147147D01*
X464820Y147161D01*
X464911Y147171D01*
X465002Y147177D01*
X465093Y147179D01*
X465092Y147179D02*
X467181Y147179D01*
X470955Y147179D02*
X470955Y137781D01*
X470955Y147179D02*
X473565Y147179D01*
X473665Y147177D01*
X473765Y147171D01*
X473864Y147162D01*
X473964Y147148D01*
X474062Y147131D01*
X474160Y147110D01*
X474257Y147086D01*
X474353Y147057D01*
X474448Y147025D01*
X474541Y146990D01*
X474633Y146951D01*
X474724Y146908D01*
X474812Y146862D01*
X474899Y146812D01*
X474984Y146760D01*
X475067Y146704D01*
X475148Y146645D01*
X475226Y146582D01*
X475302Y146517D01*
X475376Y146449D01*
X475446Y146379D01*
X475514Y146305D01*
X475579Y146229D01*
X475642Y146151D01*
X475701Y146070D01*
X475757Y145987D01*
X475809Y145902D01*
X475859Y145815D01*
X475905Y145727D01*
X475948Y145636D01*
X475987Y145544D01*
X476022Y145451D01*
X476054Y145356D01*
X476083Y145260D01*
X476107Y145163D01*
X476128Y145065D01*
X476145Y144967D01*
X476159Y144867D01*
X476168Y144768D01*
X476174Y144668D01*
X476176Y144568D01*
X476176Y140392D01*
X476174Y140292D01*
X476168Y140192D01*
X476159Y140093D01*
X476145Y139993D01*
X476128Y139895D01*
X476107Y139797D01*
X476083Y139700D01*
X476054Y139604D01*
X476022Y139509D01*
X475987Y139416D01*
X475948Y139324D01*
X475905Y139233D01*
X475859Y139145D01*
X475809Y139058D01*
X475757Y138973D01*
X475701Y138890D01*
X475642Y138809D01*
X475579Y138731D01*
X475514Y138655D01*
X475446Y138581D01*
X475376Y138511D01*
X475302Y138443D01*
X475226Y138378D01*
X475148Y138315D01*
X475067Y138256D01*
X474984Y138200D01*
X474899Y138148D01*
X474812Y138098D01*
X474724Y138052D01*
X474633Y138009D01*
X474541Y137970D01*
X474448Y137935D01*
X474353Y137903D01*
X474257Y137874D01*
X474160Y137850D01*
X474062Y137829D01*
X473964Y137812D01*
X473864Y137798D01*
X473765Y137789D01*
X473665Y137783D01*
X473565Y137781D01*
X470955Y137781D01*
X482466Y137781D02*
X484554Y137781D01*
X482466Y137781D02*
X482377Y137783D01*
X482289Y137789D01*
X482201Y137798D01*
X482113Y137811D01*
X482026Y137828D01*
X481940Y137848D01*
X481855Y137873D01*
X481770Y137900D01*
X481687Y137932D01*
X481606Y137966D01*
X481526Y138005D01*
X481448Y138046D01*
X481371Y138091D01*
X481297Y138139D01*
X481224Y138190D01*
X481154Y138244D01*
X481087Y138302D01*
X481021Y138362D01*
X480959Y138424D01*
X480899Y138490D01*
X480841Y138557D01*
X480787Y138627D01*
X480736Y138700D01*
X480688Y138774D01*
X480643Y138851D01*
X480602Y138929D01*
X480563Y139009D01*
X480529Y139090D01*
X480497Y139173D01*
X480470Y139258D01*
X480445Y139343D01*
X480425Y139429D01*
X480408Y139516D01*
X480395Y139604D01*
X480386Y139692D01*
X480380Y139780D01*
X480378Y139869D01*
X480378Y145091D01*
X480380Y145182D01*
X480386Y145273D01*
X480396Y145364D01*
X480410Y145454D01*
X480427Y145543D01*
X480449Y145631D01*
X480475Y145719D01*
X480504Y145805D01*
X480537Y145890D01*
X480574Y145973D01*
X480614Y146055D01*
X480658Y146135D01*
X480705Y146213D01*
X480756Y146289D01*
X480809Y146362D01*
X480866Y146433D01*
X480927Y146502D01*
X480990Y146567D01*
X481055Y146630D01*
X481124Y146690D01*
X481195Y146748D01*
X481268Y146801D01*
X481344Y146852D01*
X481422Y146899D01*
X481502Y146943D01*
X481584Y146983D01*
X481667Y147020D01*
X481752Y147053D01*
X481838Y147082D01*
X481926Y147108D01*
X482014Y147130D01*
X482103Y147147D01*
X482193Y147161D01*
X482284Y147171D01*
X482375Y147177D01*
X482466Y147179D01*
X484554Y147179D01*
X488023Y145091D02*
X490634Y147179D01*
X490634Y137781D01*
X493244Y137781D02*
X488023Y137781D01*
D14*
X497600Y230000D02*
X497600Y305500D01*
X392400Y305500D01*
X392400Y230000D01*
X497600Y230000D01*
D10*
X449981Y307781D02*
X449981Y317179D01*
X452592Y317179D01*
X452692Y317177D01*
X452792Y317171D01*
X452891Y317162D01*
X452991Y317148D01*
X453089Y317131D01*
X453187Y317110D01*
X453284Y317086D01*
X453380Y317057D01*
X453475Y317025D01*
X453568Y316990D01*
X453660Y316951D01*
X453751Y316908D01*
X453839Y316862D01*
X453926Y316812D01*
X454011Y316760D01*
X454094Y316704D01*
X454175Y316645D01*
X454253Y316582D01*
X454329Y316517D01*
X454403Y316449D01*
X454473Y316379D01*
X454541Y316305D01*
X454606Y316229D01*
X454669Y316151D01*
X454728Y316070D01*
X454784Y315987D01*
X454836Y315902D01*
X454886Y315815D01*
X454932Y315727D01*
X454975Y315636D01*
X455014Y315544D01*
X455049Y315451D01*
X455081Y315356D01*
X455110Y315260D01*
X455134Y315163D01*
X455155Y315065D01*
X455172Y314967D01*
X455186Y314867D01*
X455195Y314768D01*
X455201Y314668D01*
X455203Y314568D01*
X455202Y314568D02*
X455202Y310392D01*
X455203Y310392D02*
X455201Y310292D01*
X455195Y310192D01*
X455186Y310093D01*
X455172Y309993D01*
X455155Y309895D01*
X455134Y309797D01*
X455110Y309700D01*
X455081Y309604D01*
X455049Y309509D01*
X455014Y309416D01*
X454975Y309324D01*
X454932Y309233D01*
X454886Y309145D01*
X454836Y309058D01*
X454784Y308973D01*
X454728Y308890D01*
X454669Y308809D01*
X454606Y308731D01*
X454541Y308655D01*
X454473Y308581D01*
X454403Y308511D01*
X454329Y308443D01*
X454253Y308378D01*
X454175Y308315D01*
X454094Y308256D01*
X454011Y308200D01*
X453926Y308148D01*
X453839Y308098D01*
X453751Y308052D01*
X453660Y308009D01*
X453568Y307970D01*
X453475Y307935D01*
X453380Y307903D01*
X453284Y307874D01*
X453187Y307850D01*
X453089Y307829D01*
X452991Y307812D01*
X452891Y307798D01*
X452792Y307789D01*
X452692Y307783D01*
X452592Y307781D01*
X449981Y307781D01*
X461492Y307781D02*
X463581Y307781D01*
X461492Y307781D02*
X461403Y307783D01*
X461315Y307789D01*
X461227Y307798D01*
X461139Y307811D01*
X461052Y307828D01*
X460966Y307848D01*
X460881Y307873D01*
X460796Y307900D01*
X460713Y307932D01*
X460632Y307966D01*
X460552Y308005D01*
X460474Y308046D01*
X460397Y308091D01*
X460323Y308139D01*
X460250Y308190D01*
X460180Y308244D01*
X460113Y308302D01*
X460047Y308362D01*
X459985Y308424D01*
X459925Y308490D01*
X459867Y308557D01*
X459813Y308627D01*
X459762Y308700D01*
X459714Y308774D01*
X459669Y308851D01*
X459628Y308929D01*
X459589Y309009D01*
X459555Y309090D01*
X459523Y309173D01*
X459496Y309258D01*
X459471Y309343D01*
X459451Y309429D01*
X459434Y309516D01*
X459421Y309604D01*
X459412Y309692D01*
X459406Y309780D01*
X459404Y309869D01*
X459404Y315091D01*
X459405Y315091D02*
X459407Y315182D01*
X459413Y315273D01*
X459423Y315364D01*
X459437Y315454D01*
X459454Y315543D01*
X459476Y315631D01*
X459502Y315719D01*
X459531Y315805D01*
X459564Y315890D01*
X459601Y315973D01*
X459641Y316055D01*
X459685Y316135D01*
X459732Y316213D01*
X459783Y316289D01*
X459836Y316362D01*
X459893Y316433D01*
X459954Y316502D01*
X460017Y316567D01*
X460082Y316630D01*
X460151Y316690D01*
X460222Y316748D01*
X460295Y316801D01*
X460371Y316852D01*
X460449Y316899D01*
X460529Y316943D01*
X460611Y316983D01*
X460694Y317020D01*
X460779Y317053D01*
X460865Y317082D01*
X460953Y317108D01*
X461041Y317130D01*
X461130Y317147D01*
X461220Y317161D01*
X461311Y317171D01*
X461402Y317177D01*
X461493Y317179D01*
X461492Y317179D02*
X463581Y317179D01*
X467355Y317179D02*
X467355Y307781D01*
X467355Y317179D02*
X469965Y317179D01*
X470065Y317177D01*
X470165Y317171D01*
X470264Y317162D01*
X470364Y317148D01*
X470462Y317131D01*
X470560Y317110D01*
X470657Y317086D01*
X470753Y317057D01*
X470848Y317025D01*
X470941Y316990D01*
X471033Y316951D01*
X471124Y316908D01*
X471212Y316862D01*
X471299Y316812D01*
X471384Y316760D01*
X471467Y316704D01*
X471548Y316645D01*
X471626Y316582D01*
X471702Y316517D01*
X471776Y316449D01*
X471846Y316379D01*
X471914Y316305D01*
X471979Y316229D01*
X472042Y316151D01*
X472101Y316070D01*
X472157Y315987D01*
X472209Y315902D01*
X472259Y315815D01*
X472305Y315727D01*
X472348Y315636D01*
X472387Y315544D01*
X472422Y315451D01*
X472454Y315356D01*
X472483Y315260D01*
X472507Y315163D01*
X472528Y315065D01*
X472545Y314967D01*
X472559Y314867D01*
X472568Y314768D01*
X472574Y314668D01*
X472576Y314568D01*
X472576Y310392D01*
X472574Y310292D01*
X472568Y310192D01*
X472559Y310093D01*
X472545Y309993D01*
X472528Y309895D01*
X472507Y309797D01*
X472483Y309700D01*
X472454Y309604D01*
X472422Y309509D01*
X472387Y309416D01*
X472348Y309324D01*
X472305Y309233D01*
X472259Y309145D01*
X472209Y309058D01*
X472157Y308973D01*
X472101Y308890D01*
X472042Y308809D01*
X471979Y308731D01*
X471914Y308655D01*
X471846Y308581D01*
X471776Y308511D01*
X471702Y308443D01*
X471626Y308378D01*
X471548Y308315D01*
X471467Y308256D01*
X471384Y308200D01*
X471299Y308148D01*
X471212Y308098D01*
X471124Y308052D01*
X471033Y308009D01*
X470941Y307970D01*
X470848Y307935D01*
X470753Y307903D01*
X470657Y307874D01*
X470560Y307850D01*
X470462Y307829D01*
X470364Y307812D01*
X470264Y307798D01*
X470165Y307789D01*
X470065Y307783D01*
X469965Y307781D01*
X467355Y307781D01*
X478866Y307781D02*
X480954Y307781D01*
X478866Y307781D02*
X478777Y307783D01*
X478689Y307789D01*
X478601Y307798D01*
X478513Y307811D01*
X478426Y307828D01*
X478340Y307848D01*
X478255Y307873D01*
X478170Y307900D01*
X478087Y307932D01*
X478006Y307966D01*
X477926Y308005D01*
X477848Y308046D01*
X477771Y308091D01*
X477697Y308139D01*
X477624Y308190D01*
X477554Y308244D01*
X477487Y308302D01*
X477421Y308362D01*
X477359Y308424D01*
X477299Y308490D01*
X477241Y308557D01*
X477187Y308627D01*
X477136Y308700D01*
X477088Y308774D01*
X477043Y308851D01*
X477002Y308929D01*
X476963Y309009D01*
X476929Y309090D01*
X476897Y309173D01*
X476870Y309258D01*
X476845Y309343D01*
X476825Y309429D01*
X476808Y309516D01*
X476795Y309604D01*
X476786Y309692D01*
X476780Y309780D01*
X476778Y309869D01*
X476778Y315091D01*
X476780Y315182D01*
X476786Y315273D01*
X476796Y315364D01*
X476810Y315454D01*
X476827Y315543D01*
X476849Y315631D01*
X476875Y315719D01*
X476904Y315805D01*
X476937Y315890D01*
X476974Y315973D01*
X477014Y316055D01*
X477058Y316135D01*
X477105Y316213D01*
X477156Y316289D01*
X477209Y316362D01*
X477266Y316433D01*
X477327Y316502D01*
X477390Y316567D01*
X477455Y316630D01*
X477524Y316690D01*
X477595Y316748D01*
X477668Y316801D01*
X477744Y316852D01*
X477822Y316899D01*
X477902Y316943D01*
X477984Y316983D01*
X478067Y317020D01*
X478152Y317053D01*
X478238Y317082D01*
X478326Y317108D01*
X478414Y317130D01*
X478503Y317147D01*
X478593Y317161D01*
X478684Y317171D01*
X478775Y317177D01*
X478866Y317179D01*
X480954Y317179D01*
X487295Y317180D02*
X487390Y317178D01*
X487484Y317172D01*
X487578Y317163D01*
X487672Y317150D01*
X487765Y317133D01*
X487857Y317112D01*
X487949Y317087D01*
X488039Y317059D01*
X488128Y317027D01*
X488216Y316992D01*
X488302Y316953D01*
X488387Y316911D01*
X488470Y316865D01*
X488551Y316816D01*
X488630Y316764D01*
X488707Y316709D01*
X488781Y316650D01*
X488853Y316589D01*
X488923Y316525D01*
X488990Y316458D01*
X489054Y316388D01*
X489115Y316316D01*
X489174Y316242D01*
X489229Y316165D01*
X489281Y316086D01*
X489330Y316005D01*
X489376Y315922D01*
X489418Y315837D01*
X489457Y315751D01*
X489492Y315663D01*
X489524Y315574D01*
X489552Y315484D01*
X489577Y315392D01*
X489598Y315300D01*
X489615Y315207D01*
X489628Y315113D01*
X489637Y315019D01*
X489643Y314925D01*
X489645Y314830D01*
X487295Y317179D02*
X487187Y317177D01*
X487078Y317171D01*
X486970Y317161D01*
X486863Y317148D01*
X486756Y317130D01*
X486649Y317109D01*
X486544Y317084D01*
X486439Y317055D01*
X486336Y317023D01*
X486234Y316986D01*
X486133Y316946D01*
X486034Y316903D01*
X485936Y316856D01*
X485840Y316805D01*
X485746Y316751D01*
X485654Y316694D01*
X485564Y316633D01*
X485476Y316569D01*
X485391Y316503D01*
X485308Y316433D01*
X485228Y316360D01*
X485150Y316284D01*
X485075Y316206D01*
X485003Y316125D01*
X484934Y316041D01*
X484868Y315955D01*
X484805Y315867D01*
X484746Y315776D01*
X484689Y315684D01*
X484636Y315589D01*
X484587Y315493D01*
X484541Y315394D01*
X484498Y315295D01*
X484459Y315193D01*
X484424Y315091D01*
X488862Y313002D02*
X488931Y313071D01*
X488997Y313142D01*
X489061Y313215D01*
X489122Y313291D01*
X489180Y313370D01*
X489234Y313450D01*
X489286Y313533D01*
X489334Y313617D01*
X489380Y313703D01*
X489421Y313791D01*
X489460Y313881D01*
X489495Y313972D01*
X489526Y314064D01*
X489554Y314157D01*
X489578Y314251D01*
X489598Y314346D01*
X489615Y314442D01*
X489628Y314539D01*
X489637Y314636D01*
X489643Y314733D01*
X489645Y314830D01*
X488861Y313002D02*
X484423Y307781D01*
X489644Y307781D01*
D14*
X150400Y302000D02*
X150400Y48000D01*
X99600Y48000D01*
X99600Y302000D01*
X150400Y302000D01*
D11*
X156101Y289300D02*
X156101Y287353D01*
X156101Y289300D02*
X162592Y289300D01*
X162592Y285405D01*
X162590Y285306D01*
X162584Y285206D01*
X162575Y285107D01*
X162562Y285009D01*
X162545Y284911D01*
X162524Y284813D01*
X162499Y284717D01*
X162471Y284622D01*
X162439Y284528D01*
X162404Y284435D01*
X162365Y284343D01*
X162322Y284253D01*
X162277Y284165D01*
X162227Y284078D01*
X162175Y283994D01*
X162119Y283911D01*
X162061Y283831D01*
X161999Y283753D01*
X161934Y283678D01*
X161866Y283605D01*
X161796Y283535D01*
X161723Y283467D01*
X161648Y283402D01*
X161570Y283340D01*
X161490Y283282D01*
X161407Y283226D01*
X161323Y283174D01*
X161236Y283124D01*
X161148Y283079D01*
X161058Y283036D01*
X160966Y282997D01*
X160873Y282962D01*
X160779Y282930D01*
X160684Y282902D01*
X160588Y282877D01*
X160490Y282856D01*
X160392Y282839D01*
X160294Y282826D01*
X160195Y282817D01*
X160095Y282811D01*
X159996Y282809D01*
X153504Y282809D01*
X153504Y282808D02*
X153405Y282810D01*
X153305Y282816D01*
X153206Y282825D01*
X153108Y282838D01*
X153010Y282856D01*
X152912Y282876D01*
X152816Y282901D01*
X152720Y282929D01*
X152626Y282961D01*
X152533Y282996D01*
X152442Y283035D01*
X152352Y283078D01*
X152263Y283123D01*
X152177Y283173D01*
X152092Y283225D01*
X152010Y283281D01*
X151930Y283340D01*
X151852Y283401D01*
X151776Y283466D01*
X151703Y283534D01*
X151633Y283604D01*
X151565Y283677D01*
X151500Y283753D01*
X151439Y283831D01*
X151380Y283911D01*
X151324Y283993D01*
X151272Y284078D01*
X151223Y284164D01*
X151177Y284253D01*
X151134Y284343D01*
X151095Y284434D01*
X151060Y284527D01*
X151028Y284621D01*
X151000Y284717D01*
X150975Y284813D01*
X150955Y284911D01*
X150937Y285009D01*
X150924Y285107D01*
X150915Y285206D01*
X150909Y285305D01*
X150907Y285405D01*
X150908Y285405D02*
X150908Y289300D01*
X150908Y295001D02*
X162592Y295001D01*
X150908Y295001D02*
X150908Y298246D01*
X150910Y298359D01*
X150916Y298472D01*
X150926Y298585D01*
X150940Y298698D01*
X150957Y298810D01*
X150979Y298921D01*
X151004Y299031D01*
X151034Y299141D01*
X151067Y299249D01*
X151104Y299356D01*
X151144Y299462D01*
X151189Y299566D01*
X151237Y299669D01*
X151288Y299770D01*
X151343Y299869D01*
X151401Y299966D01*
X151463Y300061D01*
X151528Y300154D01*
X151596Y300244D01*
X151667Y300332D01*
X151742Y300418D01*
X151819Y300501D01*
X151899Y300581D01*
X151982Y300658D01*
X152068Y300733D01*
X152156Y300804D01*
X152246Y300872D01*
X152339Y300937D01*
X152434Y300999D01*
X152531Y301057D01*
X152630Y301112D01*
X152731Y301163D01*
X152834Y301211D01*
X152938Y301256D01*
X153044Y301296D01*
X153151Y301333D01*
X153259Y301366D01*
X153369Y301396D01*
X153479Y301421D01*
X153590Y301443D01*
X153702Y301460D01*
X153815Y301474D01*
X153928Y301484D01*
X154041Y301490D01*
X154154Y301492D01*
X159346Y301492D01*
X159459Y301490D01*
X159572Y301484D01*
X159685Y301474D01*
X159798Y301460D01*
X159910Y301443D01*
X160021Y301421D01*
X160131Y301396D01*
X160241Y301366D01*
X160349Y301333D01*
X160456Y301296D01*
X160562Y301256D01*
X160666Y301211D01*
X160769Y301163D01*
X160870Y301112D01*
X160969Y301057D01*
X161066Y300999D01*
X161161Y300937D01*
X161254Y300872D01*
X161344Y300804D01*
X161432Y300733D01*
X161518Y300658D01*
X161601Y300581D01*
X161681Y300501D01*
X161758Y300418D01*
X161833Y300332D01*
X161904Y300244D01*
X161972Y300154D01*
X162037Y300061D01*
X162099Y299966D01*
X162157Y299869D01*
X162212Y299770D01*
X162263Y299669D01*
X162311Y299566D01*
X162356Y299462D01*
X162396Y299356D01*
X162433Y299249D01*
X162466Y299141D01*
X162496Y299031D01*
X162521Y298921D01*
X162543Y298810D01*
X162560Y298698D01*
X162574Y298585D01*
X162584Y298472D01*
X162590Y298359D01*
X162592Y298246D01*
X162592Y295001D01*
D14*
X360400Y302000D02*
X360400Y48000D01*
X309600Y48000D01*
X309600Y302000D01*
X360400Y302000D01*
D11*
X360908Y284976D02*
X372592Y284976D01*
X360908Y284976D02*
X360908Y288222D01*
X360910Y288335D01*
X360916Y288448D01*
X360926Y288561D01*
X360940Y288674D01*
X360957Y288786D01*
X360979Y288897D01*
X361004Y289007D01*
X361034Y289117D01*
X361067Y289225D01*
X361104Y289332D01*
X361144Y289438D01*
X361189Y289542D01*
X361237Y289645D01*
X361288Y289746D01*
X361343Y289845D01*
X361401Y289942D01*
X361463Y290037D01*
X361528Y290130D01*
X361596Y290220D01*
X361667Y290308D01*
X361742Y290394D01*
X361819Y290477D01*
X361899Y290557D01*
X361982Y290634D01*
X362068Y290709D01*
X362156Y290780D01*
X362246Y290848D01*
X362339Y290913D01*
X362434Y290975D01*
X362531Y291033D01*
X362630Y291088D01*
X362731Y291139D01*
X362834Y291187D01*
X362938Y291232D01*
X363044Y291272D01*
X363151Y291309D01*
X363259Y291342D01*
X363369Y291372D01*
X363479Y291397D01*
X363590Y291419D01*
X363702Y291436D01*
X363815Y291450D01*
X363928Y291460D01*
X364041Y291466D01*
X364154Y291468D01*
X364267Y291466D01*
X364380Y291460D01*
X364493Y291450D01*
X364606Y291436D01*
X364718Y291419D01*
X364829Y291397D01*
X364939Y291372D01*
X365049Y291342D01*
X365157Y291309D01*
X365264Y291272D01*
X365370Y291232D01*
X365474Y291187D01*
X365577Y291139D01*
X365678Y291088D01*
X365777Y291033D01*
X365874Y290975D01*
X365969Y290913D01*
X366062Y290848D01*
X366152Y290780D01*
X366240Y290709D01*
X366326Y290634D01*
X366409Y290557D01*
X366489Y290477D01*
X366566Y290394D01*
X366641Y290308D01*
X366712Y290220D01*
X366780Y290130D01*
X366845Y290037D01*
X366907Y289942D01*
X366965Y289845D01*
X367020Y289746D01*
X367071Y289645D01*
X367119Y289542D01*
X367164Y289438D01*
X367204Y289332D01*
X367241Y289225D01*
X367274Y289117D01*
X367304Y289007D01*
X367329Y288897D01*
X367351Y288786D01*
X367368Y288674D01*
X367382Y288561D01*
X367392Y288448D01*
X367398Y288335D01*
X367400Y288222D01*
X367399Y288222D02*
X367399Y284976D01*
X367399Y288871D02*
X372592Y291467D01*
X372592Y298896D02*
X372592Y301492D01*
X372592Y298896D02*
X372590Y298797D01*
X372584Y298697D01*
X372575Y298598D01*
X372562Y298500D01*
X372545Y298402D01*
X372524Y298304D01*
X372499Y298208D01*
X372471Y298113D01*
X372439Y298019D01*
X372404Y297926D01*
X372365Y297834D01*
X372322Y297744D01*
X372277Y297656D01*
X372227Y297569D01*
X372175Y297485D01*
X372119Y297402D01*
X372061Y297322D01*
X371999Y297244D01*
X371934Y297169D01*
X371866Y297096D01*
X371796Y297026D01*
X371723Y296958D01*
X371648Y296893D01*
X371570Y296831D01*
X371490Y296773D01*
X371407Y296717D01*
X371323Y296665D01*
X371236Y296615D01*
X371148Y296570D01*
X371058Y296527D01*
X370966Y296488D01*
X370873Y296453D01*
X370779Y296421D01*
X370684Y296393D01*
X370588Y296368D01*
X370490Y296347D01*
X370392Y296330D01*
X370294Y296317D01*
X370195Y296308D01*
X370095Y296302D01*
X369996Y296300D01*
X369996Y296299D02*
X363504Y296299D01*
X363405Y296301D01*
X363305Y296307D01*
X363206Y296316D01*
X363108Y296329D01*
X363010Y296347D01*
X362912Y296367D01*
X362816Y296392D01*
X362720Y296420D01*
X362626Y296452D01*
X362533Y296487D01*
X362442Y296526D01*
X362352Y296569D01*
X362263Y296614D01*
X362177Y296664D01*
X362092Y296716D01*
X362010Y296772D01*
X361930Y296831D01*
X361852Y296892D01*
X361776Y296957D01*
X361703Y297025D01*
X361633Y297095D01*
X361565Y297168D01*
X361500Y297244D01*
X361439Y297322D01*
X361380Y297402D01*
X361324Y297484D01*
X361272Y297569D01*
X361223Y297655D01*
X361177Y297744D01*
X361134Y297834D01*
X361095Y297925D01*
X361060Y298018D01*
X361028Y298112D01*
X361000Y298208D01*
X360975Y298304D01*
X360955Y298402D01*
X360937Y298500D01*
X360924Y298598D01*
X360915Y298697D01*
X360909Y298796D01*
X360907Y298896D01*
X360908Y298896D02*
X360908Y301492D01*
D14*
X255400Y302000D02*
X255400Y48000D01*
X204600Y48000D01*
X204600Y302000D01*
X255400Y302000D01*
D11*
X255908Y284085D02*
X267592Y284085D01*
X255908Y284085D02*
X255908Y287330D01*
X255910Y287443D01*
X255916Y287556D01*
X255926Y287669D01*
X255940Y287782D01*
X255957Y287894D01*
X255979Y288005D01*
X256004Y288115D01*
X256034Y288225D01*
X256067Y288333D01*
X256104Y288440D01*
X256144Y288546D01*
X256189Y288650D01*
X256237Y288753D01*
X256288Y288854D01*
X256343Y288953D01*
X256401Y289050D01*
X256463Y289145D01*
X256528Y289238D01*
X256596Y289328D01*
X256667Y289416D01*
X256742Y289502D01*
X256819Y289585D01*
X256899Y289665D01*
X256982Y289742D01*
X257068Y289817D01*
X257156Y289888D01*
X257246Y289956D01*
X257339Y290021D01*
X257434Y290083D01*
X257531Y290141D01*
X257630Y290196D01*
X257731Y290247D01*
X257834Y290295D01*
X257938Y290340D01*
X258044Y290380D01*
X258151Y290417D01*
X258259Y290450D01*
X258369Y290480D01*
X258479Y290505D01*
X258590Y290527D01*
X258702Y290544D01*
X258815Y290558D01*
X258928Y290568D01*
X259041Y290574D01*
X259154Y290576D01*
X264346Y290576D01*
X264459Y290574D01*
X264572Y290568D01*
X264685Y290558D01*
X264798Y290544D01*
X264910Y290527D01*
X265021Y290505D01*
X265131Y290480D01*
X265241Y290450D01*
X265349Y290417D01*
X265456Y290380D01*
X265562Y290340D01*
X265666Y290295D01*
X265769Y290247D01*
X265870Y290196D01*
X265969Y290141D01*
X266066Y290083D01*
X266161Y290021D01*
X266254Y289956D01*
X266344Y289888D01*
X266432Y289817D01*
X266518Y289742D01*
X266601Y289665D01*
X266681Y289585D01*
X266758Y289502D01*
X266833Y289416D01*
X266904Y289328D01*
X266972Y289238D01*
X267037Y289145D01*
X267099Y289050D01*
X267157Y288953D01*
X267212Y288854D01*
X267263Y288753D01*
X267311Y288650D01*
X267356Y288546D01*
X267396Y288440D01*
X267433Y288333D01*
X267466Y288225D01*
X267496Y288115D01*
X267521Y288005D01*
X267543Y287894D01*
X267560Y287782D01*
X267574Y287669D01*
X267584Y287556D01*
X267590Y287443D01*
X267592Y287330D01*
X267592Y284085D01*
X267592Y296299D02*
X255908Y296299D01*
X267592Y296299D02*
X267592Y301492D01*
D14*
X497600Y220500D02*
X497600Y145000D01*
X497600Y220500D02*
X392400Y220500D01*
X392400Y145000D01*
X497600Y145000D01*
D10*
X455756Y219821D02*
X455756Y229219D01*
X458366Y229219D01*
X458466Y229217D01*
X458566Y229211D01*
X458665Y229202D01*
X458765Y229188D01*
X458863Y229171D01*
X458961Y229150D01*
X459058Y229126D01*
X459154Y229097D01*
X459249Y229065D01*
X459342Y229030D01*
X459434Y228991D01*
X459525Y228948D01*
X459613Y228902D01*
X459700Y228852D01*
X459785Y228800D01*
X459868Y228744D01*
X459949Y228685D01*
X460027Y228622D01*
X460103Y228557D01*
X460177Y228489D01*
X460247Y228419D01*
X460315Y228345D01*
X460380Y228269D01*
X460443Y228191D01*
X460502Y228110D01*
X460558Y228027D01*
X460610Y227942D01*
X460660Y227855D01*
X460706Y227767D01*
X460749Y227676D01*
X460788Y227584D01*
X460823Y227491D01*
X460855Y227396D01*
X460884Y227300D01*
X460908Y227203D01*
X460929Y227105D01*
X460946Y227007D01*
X460960Y226907D01*
X460969Y226808D01*
X460975Y226708D01*
X460977Y226608D01*
X460977Y222432D01*
X460975Y222332D01*
X460969Y222232D01*
X460960Y222133D01*
X460946Y222033D01*
X460929Y221935D01*
X460908Y221837D01*
X460884Y221740D01*
X460855Y221644D01*
X460823Y221549D01*
X460788Y221456D01*
X460749Y221364D01*
X460706Y221273D01*
X460660Y221185D01*
X460610Y221098D01*
X460558Y221013D01*
X460502Y220930D01*
X460443Y220849D01*
X460380Y220771D01*
X460315Y220695D01*
X460247Y220621D01*
X460177Y220551D01*
X460103Y220483D01*
X460027Y220418D01*
X459949Y220355D01*
X459868Y220296D01*
X459785Y220240D01*
X459700Y220188D01*
X459613Y220138D01*
X459525Y220092D01*
X459434Y220049D01*
X459342Y220010D01*
X459249Y219975D01*
X459154Y219943D01*
X459058Y219914D01*
X458961Y219890D01*
X458863Y219869D01*
X458765Y219852D01*
X458665Y219838D01*
X458566Y219829D01*
X458466Y219823D01*
X458366Y219821D01*
X455756Y219821D01*
X467267Y219821D02*
X469356Y219821D01*
X467267Y219821D02*
X467178Y219823D01*
X467090Y219829D01*
X467002Y219838D01*
X466914Y219851D01*
X466827Y219868D01*
X466741Y219888D01*
X466656Y219913D01*
X466571Y219940D01*
X466488Y219972D01*
X466407Y220006D01*
X466327Y220045D01*
X466249Y220086D01*
X466172Y220131D01*
X466098Y220179D01*
X466025Y220230D01*
X465955Y220284D01*
X465888Y220342D01*
X465822Y220402D01*
X465760Y220464D01*
X465700Y220530D01*
X465642Y220597D01*
X465588Y220667D01*
X465537Y220740D01*
X465489Y220814D01*
X465444Y220891D01*
X465403Y220969D01*
X465364Y221049D01*
X465330Y221130D01*
X465298Y221213D01*
X465271Y221298D01*
X465246Y221383D01*
X465226Y221469D01*
X465209Y221556D01*
X465196Y221644D01*
X465187Y221732D01*
X465181Y221820D01*
X465179Y221909D01*
X465179Y227131D01*
X465181Y227222D01*
X465187Y227313D01*
X465197Y227404D01*
X465211Y227494D01*
X465228Y227583D01*
X465250Y227671D01*
X465276Y227759D01*
X465305Y227845D01*
X465338Y227930D01*
X465375Y228013D01*
X465415Y228095D01*
X465459Y228175D01*
X465506Y228253D01*
X465557Y228329D01*
X465610Y228402D01*
X465667Y228473D01*
X465728Y228542D01*
X465791Y228607D01*
X465856Y228670D01*
X465925Y228730D01*
X465996Y228788D01*
X466069Y228841D01*
X466145Y228892D01*
X466223Y228939D01*
X466303Y228983D01*
X466385Y229023D01*
X466468Y229060D01*
X466553Y229093D01*
X466639Y229122D01*
X466727Y229148D01*
X466815Y229170D01*
X466904Y229187D01*
X466994Y229201D01*
X467085Y229211D01*
X467176Y229217D01*
X467267Y229219D01*
X469356Y229219D01*
X473129Y229219D02*
X473129Y219821D01*
X473129Y229219D02*
X475740Y229219D01*
X475840Y229217D01*
X475940Y229211D01*
X476039Y229202D01*
X476139Y229188D01*
X476237Y229171D01*
X476335Y229150D01*
X476432Y229126D01*
X476528Y229097D01*
X476623Y229065D01*
X476716Y229030D01*
X476808Y228991D01*
X476899Y228948D01*
X476987Y228902D01*
X477074Y228852D01*
X477159Y228800D01*
X477242Y228744D01*
X477323Y228685D01*
X477401Y228622D01*
X477477Y228557D01*
X477551Y228489D01*
X477621Y228419D01*
X477689Y228345D01*
X477754Y228269D01*
X477817Y228191D01*
X477876Y228110D01*
X477932Y228027D01*
X477984Y227942D01*
X478034Y227855D01*
X478080Y227767D01*
X478123Y227676D01*
X478162Y227584D01*
X478197Y227491D01*
X478229Y227396D01*
X478258Y227300D01*
X478282Y227203D01*
X478303Y227105D01*
X478320Y227007D01*
X478334Y226907D01*
X478343Y226808D01*
X478349Y226708D01*
X478351Y226608D01*
X478350Y226608D02*
X478350Y222432D01*
X478351Y222432D02*
X478349Y222332D01*
X478343Y222232D01*
X478334Y222133D01*
X478320Y222033D01*
X478303Y221935D01*
X478282Y221837D01*
X478258Y221740D01*
X478229Y221644D01*
X478197Y221549D01*
X478162Y221456D01*
X478123Y221364D01*
X478080Y221273D01*
X478034Y221185D01*
X477984Y221098D01*
X477932Y221013D01*
X477876Y220930D01*
X477817Y220849D01*
X477754Y220771D01*
X477689Y220695D01*
X477621Y220621D01*
X477551Y220551D01*
X477477Y220483D01*
X477401Y220418D01*
X477323Y220355D01*
X477242Y220296D01*
X477159Y220240D01*
X477074Y220188D01*
X476987Y220138D01*
X476899Y220092D01*
X476808Y220049D01*
X476716Y220010D01*
X476623Y219975D01*
X476528Y219943D01*
X476432Y219914D01*
X476335Y219890D01*
X476237Y219869D01*
X476139Y219852D01*
X476039Y219838D01*
X475940Y219829D01*
X475840Y219823D01*
X475740Y219821D01*
X473129Y219821D01*
X484641Y219821D02*
X486729Y219821D01*
X484641Y219821D02*
X484552Y219823D01*
X484464Y219829D01*
X484376Y219838D01*
X484288Y219851D01*
X484201Y219868D01*
X484115Y219888D01*
X484030Y219913D01*
X483945Y219940D01*
X483862Y219972D01*
X483781Y220006D01*
X483701Y220045D01*
X483623Y220086D01*
X483546Y220131D01*
X483472Y220179D01*
X483399Y220230D01*
X483329Y220284D01*
X483262Y220342D01*
X483196Y220402D01*
X483134Y220464D01*
X483074Y220530D01*
X483016Y220597D01*
X482962Y220667D01*
X482911Y220740D01*
X482863Y220814D01*
X482818Y220891D01*
X482777Y220969D01*
X482738Y221049D01*
X482704Y221130D01*
X482672Y221213D01*
X482645Y221298D01*
X482620Y221383D01*
X482600Y221469D01*
X482583Y221556D01*
X482570Y221644D01*
X482561Y221732D01*
X482555Y221820D01*
X482553Y221909D01*
X482552Y221909D02*
X482552Y227131D01*
X482553Y227131D02*
X482555Y227222D01*
X482561Y227313D01*
X482571Y227404D01*
X482585Y227494D01*
X482602Y227583D01*
X482624Y227671D01*
X482650Y227759D01*
X482679Y227845D01*
X482712Y227930D01*
X482749Y228013D01*
X482789Y228095D01*
X482833Y228175D01*
X482880Y228253D01*
X482931Y228329D01*
X482984Y228402D01*
X483041Y228473D01*
X483102Y228542D01*
X483165Y228607D01*
X483230Y228670D01*
X483299Y228730D01*
X483370Y228788D01*
X483443Y228841D01*
X483519Y228892D01*
X483597Y228939D01*
X483677Y228983D01*
X483759Y229023D01*
X483842Y229060D01*
X483927Y229093D01*
X484013Y229122D01*
X484101Y229148D01*
X484189Y229170D01*
X484278Y229187D01*
X484368Y229201D01*
X484459Y229211D01*
X484550Y229217D01*
X484641Y229219D01*
X486729Y229219D01*
X490198Y219821D02*
X492808Y219821D01*
X492909Y219823D01*
X493010Y219829D01*
X493111Y219839D01*
X493211Y219852D01*
X493311Y219870D01*
X493410Y219891D01*
X493508Y219917D01*
X493605Y219946D01*
X493701Y219978D01*
X493795Y220015D01*
X493888Y220055D01*
X493980Y220099D01*
X494069Y220146D01*
X494157Y220197D01*
X494243Y220251D01*
X494326Y220308D01*
X494408Y220368D01*
X494486Y220432D01*
X494563Y220498D01*
X494636Y220568D01*
X494707Y220640D01*
X494775Y220715D01*
X494840Y220793D01*
X494902Y220873D01*
X494961Y220955D01*
X495017Y221040D01*
X495069Y221126D01*
X495118Y221215D01*
X495164Y221306D01*
X495205Y221398D01*
X495244Y221492D01*
X495278Y221587D01*
X495309Y221683D01*
X495336Y221781D01*
X495360Y221879D01*
X495379Y221979D01*
X495395Y222079D01*
X495407Y222179D01*
X495415Y222280D01*
X495419Y222381D01*
X495419Y222483D01*
X495415Y222584D01*
X495407Y222685D01*
X495395Y222785D01*
X495379Y222885D01*
X495360Y222985D01*
X495336Y223083D01*
X495309Y223181D01*
X495278Y223277D01*
X495244Y223372D01*
X495205Y223466D01*
X495164Y223558D01*
X495118Y223649D01*
X495069Y223737D01*
X495017Y223824D01*
X494961Y223909D01*
X494902Y223991D01*
X494840Y224071D01*
X494775Y224149D01*
X494707Y224224D01*
X494636Y224296D01*
X494563Y224366D01*
X494486Y224432D01*
X494408Y224496D01*
X494326Y224556D01*
X494243Y224613D01*
X494157Y224667D01*
X494069Y224718D01*
X493980Y224765D01*
X493888Y224809D01*
X493795Y224849D01*
X493701Y224886D01*
X493605Y224918D01*
X493508Y224947D01*
X493410Y224973D01*
X493311Y224994D01*
X493211Y225012D01*
X493111Y225025D01*
X493010Y225035D01*
X492909Y225041D01*
X492808Y225043D01*
X493331Y229219D02*
X490198Y229219D01*
X493331Y229219D02*
X493421Y229217D01*
X493510Y229211D01*
X493600Y229202D01*
X493689Y229188D01*
X493777Y229171D01*
X493864Y229150D01*
X493951Y229125D01*
X494036Y229096D01*
X494120Y229064D01*
X494202Y229029D01*
X494283Y228989D01*
X494362Y228947D01*
X494439Y228901D01*
X494514Y228851D01*
X494587Y228799D01*
X494658Y228743D01*
X494726Y228685D01*
X494791Y228623D01*
X494854Y228559D01*
X494914Y228492D01*
X494971Y228423D01*
X495025Y228351D01*
X495076Y228277D01*
X495124Y228201D01*
X495168Y228123D01*
X495209Y228043D01*
X495247Y227961D01*
X495281Y227878D01*
X495311Y227793D01*
X495338Y227707D01*
X495361Y227621D01*
X495380Y227533D01*
X495395Y227444D01*
X495407Y227355D01*
X495415Y227266D01*
X495419Y227176D01*
X495419Y227086D01*
X495415Y226996D01*
X495407Y226907D01*
X495395Y226818D01*
X495380Y226729D01*
X495361Y226641D01*
X495338Y226555D01*
X495311Y226469D01*
X495281Y226384D01*
X495247Y226301D01*
X495209Y226219D01*
X495168Y226139D01*
X495124Y226061D01*
X495076Y225985D01*
X495025Y225911D01*
X494971Y225839D01*
X494914Y225770D01*
X494854Y225703D01*
X494791Y225639D01*
X494726Y225577D01*
X494658Y225519D01*
X494587Y225463D01*
X494514Y225411D01*
X494439Y225361D01*
X494362Y225315D01*
X494283Y225273D01*
X494202Y225233D01*
X494120Y225198D01*
X494036Y225166D01*
X493951Y225137D01*
X493864Y225112D01*
X493777Y225091D01*
X493689Y225074D01*
X493600Y225060D01*
X493510Y225051D01*
X493421Y225045D01*
X493331Y225043D01*
X493331Y225042D02*
X491242Y225042D01*
D11*
X391858Y143542D02*
X391858Y131858D01*
X391858Y143542D02*
X395104Y143542D01*
X395217Y143540D01*
X395330Y143534D01*
X395443Y143524D01*
X395556Y143510D01*
X395668Y143493D01*
X395779Y143471D01*
X395889Y143446D01*
X395999Y143416D01*
X396107Y143383D01*
X396214Y143346D01*
X396320Y143306D01*
X396424Y143261D01*
X396527Y143213D01*
X396628Y143162D01*
X396727Y143107D01*
X396824Y143049D01*
X396919Y142987D01*
X397012Y142922D01*
X397102Y142854D01*
X397190Y142783D01*
X397276Y142708D01*
X397359Y142631D01*
X397439Y142551D01*
X397516Y142468D01*
X397591Y142382D01*
X397662Y142294D01*
X397730Y142204D01*
X397795Y142111D01*
X397857Y142016D01*
X397915Y141919D01*
X397970Y141820D01*
X398021Y141719D01*
X398069Y141616D01*
X398114Y141512D01*
X398154Y141406D01*
X398191Y141299D01*
X398224Y141191D01*
X398254Y141081D01*
X398279Y140971D01*
X398301Y140860D01*
X398318Y140748D01*
X398332Y140635D01*
X398342Y140522D01*
X398348Y140409D01*
X398350Y140296D01*
X398348Y140183D01*
X398342Y140070D01*
X398332Y139957D01*
X398318Y139844D01*
X398301Y139732D01*
X398279Y139621D01*
X398254Y139511D01*
X398224Y139401D01*
X398191Y139293D01*
X398154Y139186D01*
X398114Y139080D01*
X398069Y138976D01*
X398021Y138873D01*
X397970Y138772D01*
X397915Y138673D01*
X397857Y138576D01*
X397795Y138481D01*
X397730Y138388D01*
X397662Y138298D01*
X397591Y138210D01*
X397516Y138124D01*
X397439Y138041D01*
X397359Y137961D01*
X397276Y137884D01*
X397190Y137809D01*
X397102Y137738D01*
X397012Y137670D01*
X396919Y137605D01*
X396824Y137543D01*
X396727Y137485D01*
X396628Y137430D01*
X396527Y137379D01*
X396424Y137331D01*
X396320Y137286D01*
X396214Y137246D01*
X396107Y137209D01*
X395999Y137176D01*
X395889Y137146D01*
X395779Y137121D01*
X395668Y137099D01*
X395556Y137082D01*
X395443Y137068D01*
X395330Y137058D01*
X395217Y137052D01*
X395104Y137050D01*
X395104Y137051D02*
X391858Y137051D01*
X395753Y137051D02*
X398349Y131858D01*
X403214Y135104D02*
X403216Y135217D01*
X403222Y135330D01*
X403232Y135443D01*
X403246Y135556D01*
X403263Y135668D01*
X403285Y135779D01*
X403310Y135889D01*
X403340Y135999D01*
X403373Y136107D01*
X403410Y136214D01*
X403450Y136320D01*
X403495Y136424D01*
X403543Y136527D01*
X403594Y136628D01*
X403649Y136727D01*
X403707Y136824D01*
X403769Y136919D01*
X403834Y137012D01*
X403902Y137102D01*
X403973Y137190D01*
X404048Y137276D01*
X404125Y137359D01*
X404205Y137439D01*
X404288Y137516D01*
X404374Y137591D01*
X404462Y137662D01*
X404552Y137730D01*
X404645Y137795D01*
X404740Y137857D01*
X404837Y137915D01*
X404936Y137970D01*
X405037Y138021D01*
X405140Y138069D01*
X405244Y138114D01*
X405350Y138154D01*
X405457Y138191D01*
X405565Y138224D01*
X405675Y138254D01*
X405785Y138279D01*
X405896Y138301D01*
X406008Y138318D01*
X406121Y138332D01*
X406234Y138342D01*
X406347Y138348D01*
X406460Y138350D01*
X406573Y138348D01*
X406686Y138342D01*
X406799Y138332D01*
X406912Y138318D01*
X407024Y138301D01*
X407135Y138279D01*
X407245Y138254D01*
X407355Y138224D01*
X407463Y138191D01*
X407570Y138154D01*
X407676Y138114D01*
X407780Y138069D01*
X407883Y138021D01*
X407984Y137970D01*
X408083Y137915D01*
X408180Y137857D01*
X408275Y137795D01*
X408368Y137730D01*
X408458Y137662D01*
X408546Y137591D01*
X408632Y137516D01*
X408715Y137439D01*
X408795Y137359D01*
X408872Y137276D01*
X408947Y137190D01*
X409018Y137102D01*
X409086Y137012D01*
X409151Y136919D01*
X409213Y136824D01*
X409271Y136727D01*
X409326Y136628D01*
X409377Y136527D01*
X409425Y136424D01*
X409470Y136320D01*
X409510Y136214D01*
X409547Y136107D01*
X409580Y135999D01*
X409610Y135889D01*
X409635Y135779D01*
X409657Y135668D01*
X409674Y135556D01*
X409688Y135443D01*
X409698Y135330D01*
X409704Y135217D01*
X409706Y135104D01*
X409704Y134991D01*
X409698Y134878D01*
X409688Y134765D01*
X409674Y134652D01*
X409657Y134540D01*
X409635Y134429D01*
X409610Y134319D01*
X409580Y134209D01*
X409547Y134101D01*
X409510Y133994D01*
X409470Y133888D01*
X409425Y133784D01*
X409377Y133681D01*
X409326Y133580D01*
X409271Y133481D01*
X409213Y133384D01*
X409151Y133289D01*
X409086Y133196D01*
X409018Y133106D01*
X408947Y133018D01*
X408872Y132932D01*
X408795Y132849D01*
X408715Y132769D01*
X408632Y132692D01*
X408546Y132617D01*
X408458Y132546D01*
X408368Y132478D01*
X408275Y132413D01*
X408180Y132351D01*
X408083Y132293D01*
X407984Y132238D01*
X407883Y132187D01*
X407780Y132139D01*
X407676Y132094D01*
X407570Y132054D01*
X407463Y132017D01*
X407355Y131984D01*
X407245Y131954D01*
X407135Y131929D01*
X407024Y131907D01*
X406912Y131890D01*
X406799Y131876D01*
X406686Y131866D01*
X406573Y131860D01*
X406460Y131858D01*
X406347Y131860D01*
X406234Y131866D01*
X406121Y131876D01*
X406008Y131890D01*
X405896Y131907D01*
X405785Y131929D01*
X405675Y131954D01*
X405565Y131984D01*
X405457Y132017D01*
X405350Y132054D01*
X405244Y132094D01*
X405140Y132139D01*
X405037Y132187D01*
X404936Y132238D01*
X404837Y132293D01*
X404740Y132351D01*
X404645Y132413D01*
X404552Y132478D01*
X404462Y132546D01*
X404374Y132617D01*
X404288Y132692D01*
X404205Y132769D01*
X404125Y132849D01*
X404048Y132932D01*
X403973Y133018D01*
X403902Y133106D01*
X403834Y133196D01*
X403769Y133289D01*
X403707Y133384D01*
X403649Y133481D01*
X403594Y133580D01*
X403543Y133681D01*
X403495Y133784D01*
X403450Y133888D01*
X403410Y133994D01*
X403373Y134101D01*
X403340Y134209D01*
X403310Y134319D01*
X403285Y134429D01*
X403263Y134540D01*
X403246Y134652D01*
X403232Y134765D01*
X403222Y134878D01*
X403216Y134991D01*
X403214Y135104D01*
X403864Y140946D02*
X403866Y141047D01*
X403872Y141147D01*
X403882Y141247D01*
X403895Y141347D01*
X403913Y141446D01*
X403934Y141545D01*
X403959Y141642D01*
X403988Y141739D01*
X404021Y141834D01*
X404057Y141928D01*
X404097Y142020D01*
X404140Y142111D01*
X404187Y142200D01*
X404237Y142287D01*
X404291Y142373D01*
X404348Y142456D01*
X404408Y142536D01*
X404471Y142615D01*
X404538Y142691D01*
X404607Y142764D01*
X404679Y142834D01*
X404753Y142902D01*
X404830Y142967D01*
X404910Y143028D01*
X404992Y143087D01*
X405076Y143142D01*
X405162Y143194D01*
X405250Y143243D01*
X405340Y143288D01*
X405432Y143330D01*
X405525Y143368D01*
X405620Y143402D01*
X405715Y143433D01*
X405812Y143460D01*
X405910Y143483D01*
X406009Y143503D01*
X406109Y143518D01*
X406209Y143530D01*
X406309Y143538D01*
X406410Y143542D01*
X406510Y143542D01*
X406611Y143538D01*
X406711Y143530D01*
X406811Y143518D01*
X406911Y143503D01*
X407010Y143483D01*
X407108Y143460D01*
X407205Y143433D01*
X407300Y143402D01*
X407395Y143368D01*
X407488Y143330D01*
X407580Y143288D01*
X407670Y143243D01*
X407758Y143194D01*
X407844Y143142D01*
X407928Y143087D01*
X408010Y143028D01*
X408090Y142967D01*
X408167Y142902D01*
X408241Y142834D01*
X408313Y142764D01*
X408382Y142691D01*
X408449Y142615D01*
X408512Y142536D01*
X408572Y142456D01*
X408629Y142373D01*
X408683Y142287D01*
X408733Y142200D01*
X408780Y142111D01*
X408823Y142020D01*
X408863Y141928D01*
X408899Y141834D01*
X408932Y141739D01*
X408961Y141642D01*
X408986Y141545D01*
X409007Y141446D01*
X409025Y141347D01*
X409038Y141247D01*
X409048Y141147D01*
X409054Y141047D01*
X409056Y140946D01*
X409054Y140845D01*
X409048Y140745D01*
X409038Y140645D01*
X409025Y140545D01*
X409007Y140446D01*
X408986Y140347D01*
X408961Y140250D01*
X408932Y140153D01*
X408899Y140058D01*
X408863Y139964D01*
X408823Y139872D01*
X408780Y139781D01*
X408733Y139692D01*
X408683Y139605D01*
X408629Y139519D01*
X408572Y139436D01*
X408512Y139356D01*
X408449Y139277D01*
X408382Y139201D01*
X408313Y139128D01*
X408241Y139058D01*
X408167Y138990D01*
X408090Y138925D01*
X408010Y138864D01*
X407928Y138805D01*
X407844Y138750D01*
X407758Y138698D01*
X407670Y138649D01*
X407580Y138604D01*
X407488Y138562D01*
X407395Y138524D01*
X407300Y138490D01*
X407205Y138459D01*
X407108Y138432D01*
X407010Y138409D01*
X406911Y138389D01*
X406811Y138374D01*
X406711Y138362D01*
X406611Y138354D01*
X406510Y138350D01*
X406410Y138350D01*
X406309Y138354D01*
X406209Y138362D01*
X406109Y138374D01*
X406009Y138389D01*
X405910Y138409D01*
X405812Y138432D01*
X405715Y138459D01*
X405620Y138490D01*
X405525Y138524D01*
X405432Y138562D01*
X405340Y138604D01*
X405250Y138649D01*
X405162Y138698D01*
X405076Y138750D01*
X404992Y138805D01*
X404910Y138864D01*
X404830Y138925D01*
X404753Y138990D01*
X404679Y139058D01*
X404607Y139128D01*
X404538Y139201D01*
X404471Y139277D01*
X404408Y139356D01*
X404348Y139436D01*
X404291Y139519D01*
X404237Y139605D01*
X404187Y139692D01*
X404140Y139781D01*
X404097Y139872D01*
X404057Y139964D01*
X404021Y140058D01*
X403988Y140153D01*
X403959Y140250D01*
X403934Y140347D01*
X403913Y140446D01*
X403895Y140545D01*
X403882Y140645D01*
X403872Y140745D01*
X403866Y140845D01*
X403864Y140946D01*
D14*
X459500Y51000D02*
X459500Y16000D01*
X374500Y16000D01*
X374500Y51000D01*
X459500Y51000D01*
M02*
