G04 EAGLE Gerber RS-274X export*
G75*
%MOMM*%
%FSLAX34Y34*%
%LPD*%
%INSilkscreen Bottom*%
%IPPOS*%
%AMOC8*
5,1,8,0,0,1.08239X$1,22.5*%
G01*
%ADD10C,0.127000*%
%ADD11C,0.152400*%
%ADD12R,0.508000X2.032000*%
%ADD13R,0.635000X0.508000*%
%ADD14C,0.050800*%
%ADD15C,0.025400*%
%ADD16C,0.101600*%


D10*
X77200Y307200D02*
X65400Y307200D01*
X2800Y307200D02*
X2800Y249700D01*
X77200Y249700D01*
X77200Y307200D01*
X65400Y307200D02*
X65400Y301480D01*
X59050Y301480D01*
X59050Y307200D01*
X20950Y307200D02*
X20950Y301480D01*
X14600Y301480D01*
X14600Y307200D01*
X2800Y307200D01*
X20950Y307200D02*
X59050Y307200D01*
D11*
X238650Y325000D02*
X245000Y325000D01*
X255160Y318650D02*
X255160Y331350D01*
X245000Y325000D01*
X260240Y325000D01*
X255160Y318650D02*
X245000Y325000D01*
X245000Y318650D01*
X245000Y325000D02*
X245000Y331350D01*
X265320Y314840D02*
X265420Y314842D01*
X265519Y314848D01*
X265619Y314858D01*
X265717Y314871D01*
X265816Y314889D01*
X265913Y314910D01*
X266009Y314935D01*
X266105Y314964D01*
X266199Y314997D01*
X266292Y315033D01*
X266383Y315073D01*
X266473Y315117D01*
X266561Y315164D01*
X266647Y315214D01*
X266731Y315268D01*
X266813Y315325D01*
X266892Y315385D01*
X266970Y315449D01*
X267044Y315515D01*
X267116Y315584D01*
X267185Y315656D01*
X267251Y315730D01*
X267315Y315808D01*
X267375Y315887D01*
X267432Y315969D01*
X267486Y316053D01*
X267536Y316139D01*
X267583Y316227D01*
X267627Y316317D01*
X267667Y316408D01*
X267703Y316501D01*
X267736Y316595D01*
X267765Y316691D01*
X267790Y316787D01*
X267811Y316884D01*
X267829Y316983D01*
X267842Y317081D01*
X267852Y317181D01*
X267858Y317280D01*
X267860Y317380D01*
X267860Y332620D01*
X267858Y332720D01*
X267852Y332819D01*
X267842Y332919D01*
X267829Y333017D01*
X267811Y333116D01*
X267790Y333213D01*
X267765Y333309D01*
X267736Y333405D01*
X267703Y333499D01*
X267667Y333592D01*
X267627Y333683D01*
X267583Y333773D01*
X267536Y333861D01*
X267486Y333947D01*
X267432Y334031D01*
X267375Y334113D01*
X267315Y334192D01*
X267251Y334270D01*
X267185Y334344D01*
X267116Y334416D01*
X267044Y334485D01*
X266970Y334551D01*
X266892Y334615D01*
X266813Y334675D01*
X266731Y334732D01*
X266647Y334786D01*
X266561Y334836D01*
X266473Y334883D01*
X266383Y334927D01*
X266292Y334967D01*
X266199Y335003D01*
X266105Y335036D01*
X266009Y335065D01*
X265913Y335090D01*
X265816Y335111D01*
X265717Y335129D01*
X265619Y335142D01*
X265519Y335152D01*
X265420Y335158D01*
X265320Y335160D01*
X224680Y314840D02*
X224580Y314842D01*
X224481Y314848D01*
X224381Y314858D01*
X224283Y314871D01*
X224184Y314889D01*
X224087Y314910D01*
X223991Y314935D01*
X223895Y314964D01*
X223801Y314997D01*
X223708Y315033D01*
X223617Y315073D01*
X223527Y315117D01*
X223439Y315164D01*
X223353Y315214D01*
X223269Y315268D01*
X223187Y315325D01*
X223108Y315385D01*
X223030Y315449D01*
X222956Y315515D01*
X222884Y315584D01*
X222815Y315656D01*
X222749Y315730D01*
X222685Y315808D01*
X222625Y315887D01*
X222568Y315969D01*
X222514Y316053D01*
X222464Y316139D01*
X222417Y316227D01*
X222373Y316317D01*
X222333Y316408D01*
X222297Y316501D01*
X222264Y316595D01*
X222235Y316691D01*
X222210Y316787D01*
X222189Y316884D01*
X222171Y316983D01*
X222158Y317081D01*
X222148Y317181D01*
X222142Y317280D01*
X222140Y317380D01*
X222140Y332620D02*
X222142Y332720D01*
X222148Y332819D01*
X222158Y332919D01*
X222171Y333017D01*
X222189Y333116D01*
X222210Y333213D01*
X222235Y333309D01*
X222264Y333405D01*
X222297Y333499D01*
X222333Y333592D01*
X222373Y333683D01*
X222417Y333773D01*
X222464Y333861D01*
X222514Y333947D01*
X222568Y334031D01*
X222625Y334113D01*
X222685Y334192D01*
X222749Y334270D01*
X222815Y334344D01*
X222884Y334416D01*
X222956Y334485D01*
X223030Y334551D01*
X223108Y334615D01*
X223187Y334675D01*
X223269Y334732D01*
X223353Y334786D01*
X223439Y334836D01*
X223527Y334883D01*
X223617Y334927D01*
X223708Y334967D01*
X223801Y335003D01*
X223895Y335036D01*
X223991Y335065D01*
X224087Y335090D01*
X224184Y335111D01*
X224283Y335129D01*
X224381Y335142D01*
X224481Y335152D01*
X224580Y335158D01*
X224680Y335160D01*
X265320Y335160D01*
X222140Y332620D02*
X222140Y317380D01*
X224680Y314840D02*
X265320Y314840D01*
D12*
X228490Y325000D03*
D13*
X271035Y325000D03*
X218965Y325000D03*
D14*
X231168Y312046D02*
X231168Y306458D01*
X231168Y312046D02*
X229615Y312046D01*
X229539Y312044D01*
X229463Y312039D01*
X229387Y312029D01*
X229312Y312016D01*
X229238Y311999D01*
X229164Y311979D01*
X229092Y311955D01*
X229021Y311928D01*
X228951Y311897D01*
X228883Y311863D01*
X228817Y311825D01*
X228753Y311784D01*
X228690Y311741D01*
X228630Y311694D01*
X228573Y311644D01*
X228518Y311591D01*
X228465Y311536D01*
X228415Y311479D01*
X228368Y311419D01*
X228325Y311356D01*
X228284Y311292D01*
X228246Y311226D01*
X228212Y311158D01*
X228181Y311088D01*
X228154Y311017D01*
X228130Y310945D01*
X228110Y310871D01*
X228093Y310797D01*
X228080Y310722D01*
X228070Y310646D01*
X228065Y310570D01*
X228063Y310494D01*
X228063Y308010D01*
X228065Y307934D01*
X228070Y307858D01*
X228080Y307782D01*
X228093Y307707D01*
X228110Y307633D01*
X228130Y307559D01*
X228154Y307487D01*
X228181Y307416D01*
X228212Y307346D01*
X228246Y307278D01*
X228284Y307212D01*
X228325Y307148D01*
X228368Y307085D01*
X228415Y307025D01*
X228465Y306968D01*
X228518Y306913D01*
X228573Y306860D01*
X228630Y306810D01*
X228690Y306763D01*
X228753Y306720D01*
X228817Y306679D01*
X228883Y306641D01*
X228951Y306607D01*
X229021Y306576D01*
X229092Y306549D01*
X229164Y306525D01*
X229238Y306505D01*
X229312Y306488D01*
X229387Y306475D01*
X229463Y306465D01*
X229539Y306460D01*
X229615Y306458D01*
X231168Y306458D01*
X225498Y310804D02*
X223946Y312046D01*
X223946Y306458D01*
X225498Y306458D02*
X222394Y306458D01*
D11*
X125000Y325000D02*
X118650Y325000D01*
X135160Y318650D02*
X135160Y331350D01*
X125000Y325000D01*
X140240Y325000D01*
X135160Y318650D02*
X125000Y325000D01*
X125000Y318650D01*
X125000Y325000D02*
X125000Y331350D01*
X145320Y314840D02*
X145420Y314842D01*
X145519Y314848D01*
X145619Y314858D01*
X145717Y314871D01*
X145816Y314889D01*
X145913Y314910D01*
X146009Y314935D01*
X146105Y314964D01*
X146199Y314997D01*
X146292Y315033D01*
X146383Y315073D01*
X146473Y315117D01*
X146561Y315164D01*
X146647Y315214D01*
X146731Y315268D01*
X146813Y315325D01*
X146892Y315385D01*
X146970Y315449D01*
X147044Y315515D01*
X147116Y315584D01*
X147185Y315656D01*
X147251Y315730D01*
X147315Y315808D01*
X147375Y315887D01*
X147432Y315969D01*
X147486Y316053D01*
X147536Y316139D01*
X147583Y316227D01*
X147627Y316317D01*
X147667Y316408D01*
X147703Y316501D01*
X147736Y316595D01*
X147765Y316691D01*
X147790Y316787D01*
X147811Y316884D01*
X147829Y316983D01*
X147842Y317081D01*
X147852Y317181D01*
X147858Y317280D01*
X147860Y317380D01*
X147860Y332620D01*
X147858Y332720D01*
X147852Y332819D01*
X147842Y332919D01*
X147829Y333017D01*
X147811Y333116D01*
X147790Y333213D01*
X147765Y333309D01*
X147736Y333405D01*
X147703Y333499D01*
X147667Y333592D01*
X147627Y333683D01*
X147583Y333773D01*
X147536Y333861D01*
X147486Y333947D01*
X147432Y334031D01*
X147375Y334113D01*
X147315Y334192D01*
X147251Y334270D01*
X147185Y334344D01*
X147116Y334416D01*
X147044Y334485D01*
X146970Y334551D01*
X146892Y334615D01*
X146813Y334675D01*
X146731Y334732D01*
X146647Y334786D01*
X146561Y334836D01*
X146473Y334883D01*
X146383Y334927D01*
X146292Y334967D01*
X146199Y335003D01*
X146105Y335036D01*
X146009Y335065D01*
X145913Y335090D01*
X145816Y335111D01*
X145717Y335129D01*
X145619Y335142D01*
X145519Y335152D01*
X145420Y335158D01*
X145320Y335160D01*
X104680Y314840D02*
X104580Y314842D01*
X104481Y314848D01*
X104381Y314858D01*
X104283Y314871D01*
X104184Y314889D01*
X104087Y314910D01*
X103991Y314935D01*
X103895Y314964D01*
X103801Y314997D01*
X103708Y315033D01*
X103617Y315073D01*
X103527Y315117D01*
X103439Y315164D01*
X103353Y315214D01*
X103269Y315268D01*
X103187Y315325D01*
X103108Y315385D01*
X103030Y315449D01*
X102956Y315515D01*
X102884Y315584D01*
X102815Y315656D01*
X102749Y315730D01*
X102685Y315808D01*
X102625Y315887D01*
X102568Y315969D01*
X102514Y316053D01*
X102464Y316139D01*
X102417Y316227D01*
X102373Y316317D01*
X102333Y316408D01*
X102297Y316501D01*
X102264Y316595D01*
X102235Y316691D01*
X102210Y316787D01*
X102189Y316884D01*
X102171Y316983D01*
X102158Y317081D01*
X102148Y317181D01*
X102142Y317280D01*
X102140Y317380D01*
X102140Y332620D02*
X102142Y332720D01*
X102148Y332819D01*
X102158Y332919D01*
X102171Y333017D01*
X102189Y333116D01*
X102210Y333213D01*
X102235Y333309D01*
X102264Y333405D01*
X102297Y333499D01*
X102333Y333592D01*
X102373Y333683D01*
X102417Y333773D01*
X102464Y333861D01*
X102514Y333947D01*
X102568Y334031D01*
X102625Y334113D01*
X102685Y334192D01*
X102749Y334270D01*
X102815Y334344D01*
X102884Y334416D01*
X102956Y334485D01*
X103030Y334551D01*
X103108Y334615D01*
X103187Y334675D01*
X103269Y334732D01*
X103353Y334786D01*
X103439Y334836D01*
X103527Y334883D01*
X103617Y334927D01*
X103708Y334967D01*
X103801Y335003D01*
X103895Y335036D01*
X103991Y335065D01*
X104087Y335090D01*
X104184Y335111D01*
X104283Y335129D01*
X104381Y335142D01*
X104481Y335152D01*
X104580Y335158D01*
X104680Y335160D01*
X145320Y335160D01*
X102140Y332620D02*
X102140Y317380D01*
X104680Y314840D02*
X145320Y314840D01*
D12*
X108490Y325000D03*
D13*
X151035Y325000D03*
X98965Y325000D03*
D14*
X111168Y312046D02*
X111168Y306458D01*
X111168Y312046D02*
X109615Y312046D01*
X109539Y312044D01*
X109463Y312039D01*
X109387Y312029D01*
X109312Y312016D01*
X109238Y311999D01*
X109164Y311979D01*
X109092Y311955D01*
X109021Y311928D01*
X108951Y311897D01*
X108883Y311863D01*
X108817Y311825D01*
X108753Y311784D01*
X108690Y311741D01*
X108630Y311694D01*
X108573Y311644D01*
X108518Y311591D01*
X108465Y311536D01*
X108415Y311479D01*
X108368Y311419D01*
X108325Y311356D01*
X108284Y311292D01*
X108246Y311226D01*
X108212Y311158D01*
X108181Y311088D01*
X108154Y311017D01*
X108130Y310945D01*
X108110Y310871D01*
X108093Y310797D01*
X108080Y310722D01*
X108070Y310646D01*
X108065Y310570D01*
X108063Y310494D01*
X108063Y308010D01*
X108065Y307934D01*
X108070Y307858D01*
X108080Y307782D01*
X108093Y307707D01*
X108110Y307633D01*
X108130Y307559D01*
X108154Y307487D01*
X108181Y307416D01*
X108212Y307346D01*
X108246Y307278D01*
X108284Y307212D01*
X108325Y307148D01*
X108368Y307085D01*
X108415Y307025D01*
X108465Y306968D01*
X108518Y306913D01*
X108573Y306860D01*
X108630Y306810D01*
X108690Y306763D01*
X108753Y306720D01*
X108817Y306679D01*
X108883Y306641D01*
X108951Y306607D01*
X109021Y306576D01*
X109092Y306549D01*
X109164Y306525D01*
X109238Y306505D01*
X109312Y306488D01*
X109387Y306475D01*
X109463Y306465D01*
X109539Y306460D01*
X109615Y306458D01*
X111168Y306458D01*
X103791Y312046D02*
X103718Y312044D01*
X103645Y312038D01*
X103572Y312029D01*
X103501Y312015D01*
X103429Y311998D01*
X103359Y311978D01*
X103290Y311953D01*
X103223Y311925D01*
X103157Y311894D01*
X103093Y311859D01*
X103030Y311821D01*
X102970Y311779D01*
X102912Y311735D01*
X102856Y311687D01*
X102803Y311637D01*
X102753Y311584D01*
X102705Y311528D01*
X102661Y311470D01*
X102619Y311410D01*
X102581Y311348D01*
X102546Y311283D01*
X102515Y311217D01*
X102487Y311150D01*
X102462Y311081D01*
X102442Y311011D01*
X102425Y310939D01*
X102411Y310868D01*
X102402Y310795D01*
X102396Y310722D01*
X102394Y310649D01*
X103791Y312046D02*
X103875Y312044D01*
X103958Y312038D01*
X104041Y312029D01*
X104123Y312015D01*
X104205Y311998D01*
X104286Y311976D01*
X104366Y311951D01*
X104444Y311923D01*
X104522Y311891D01*
X104597Y311855D01*
X104671Y311816D01*
X104743Y311773D01*
X104813Y311727D01*
X104880Y311678D01*
X104946Y311625D01*
X105008Y311570D01*
X105068Y311512D01*
X105126Y311451D01*
X105180Y311388D01*
X105232Y311322D01*
X105280Y311254D01*
X105325Y311183D01*
X105367Y311111D01*
X105405Y311036D01*
X105440Y310960D01*
X105471Y310883D01*
X105499Y310804D01*
X102860Y309563D02*
X102806Y309616D01*
X102755Y309673D01*
X102707Y309732D01*
X102662Y309793D01*
X102621Y309856D01*
X102582Y309922D01*
X102547Y309989D01*
X102515Y310058D01*
X102487Y310129D01*
X102463Y310200D01*
X102442Y310273D01*
X102425Y310347D01*
X102411Y310422D01*
X102402Y310497D01*
X102396Y310573D01*
X102394Y310649D01*
X102860Y309562D02*
X105498Y306458D01*
X102394Y306458D01*
D10*
X270500Y159000D02*
X299500Y159000D01*
X270500Y159000D02*
X270500Y181000D01*
X299500Y181000D01*
X299500Y159000D01*
X292000Y164000D02*
X292002Y164089D01*
X292008Y164178D01*
X292018Y164267D01*
X292032Y164355D01*
X292049Y164442D01*
X292071Y164528D01*
X292097Y164614D01*
X292126Y164698D01*
X292159Y164781D01*
X292195Y164862D01*
X292236Y164942D01*
X292279Y165019D01*
X292326Y165095D01*
X292377Y165168D01*
X292430Y165239D01*
X292487Y165308D01*
X292547Y165374D01*
X292610Y165438D01*
X292675Y165498D01*
X292743Y165556D01*
X292814Y165610D01*
X292887Y165661D01*
X292962Y165709D01*
X293039Y165754D01*
X293118Y165795D01*
X293199Y165832D01*
X293281Y165866D01*
X293365Y165897D01*
X293450Y165923D01*
X293536Y165946D01*
X293623Y165964D01*
X293711Y165979D01*
X293800Y165990D01*
X293889Y165997D01*
X293978Y166000D01*
X294067Y165999D01*
X294156Y165994D01*
X294244Y165985D01*
X294333Y165972D01*
X294420Y165955D01*
X294507Y165935D01*
X294593Y165910D01*
X294677Y165882D01*
X294760Y165850D01*
X294842Y165814D01*
X294922Y165775D01*
X295000Y165732D01*
X295076Y165686D01*
X295150Y165636D01*
X295222Y165583D01*
X295291Y165527D01*
X295358Y165468D01*
X295422Y165406D01*
X295483Y165342D01*
X295542Y165274D01*
X295597Y165204D01*
X295649Y165132D01*
X295698Y165057D01*
X295743Y164981D01*
X295785Y164902D01*
X295823Y164822D01*
X295858Y164740D01*
X295889Y164656D01*
X295917Y164571D01*
X295940Y164485D01*
X295960Y164398D01*
X295976Y164311D01*
X295988Y164222D01*
X295996Y164134D01*
X296000Y164045D01*
X296000Y163955D01*
X295996Y163866D01*
X295988Y163778D01*
X295976Y163689D01*
X295960Y163602D01*
X295940Y163515D01*
X295917Y163429D01*
X295889Y163344D01*
X295858Y163260D01*
X295823Y163178D01*
X295785Y163098D01*
X295743Y163019D01*
X295698Y162943D01*
X295649Y162868D01*
X295597Y162796D01*
X295542Y162726D01*
X295483Y162658D01*
X295422Y162594D01*
X295358Y162532D01*
X295291Y162473D01*
X295222Y162417D01*
X295150Y162364D01*
X295076Y162314D01*
X295000Y162268D01*
X294922Y162225D01*
X294842Y162186D01*
X294760Y162150D01*
X294677Y162118D01*
X294593Y162090D01*
X294507Y162065D01*
X294420Y162045D01*
X294333Y162028D01*
X294244Y162015D01*
X294156Y162006D01*
X294067Y162001D01*
X293978Y162000D01*
X293889Y162003D01*
X293800Y162010D01*
X293711Y162021D01*
X293623Y162036D01*
X293536Y162054D01*
X293450Y162077D01*
X293365Y162103D01*
X293281Y162134D01*
X293199Y162168D01*
X293118Y162205D01*
X293039Y162246D01*
X292962Y162291D01*
X292887Y162339D01*
X292814Y162390D01*
X292743Y162444D01*
X292675Y162502D01*
X292610Y162562D01*
X292547Y162626D01*
X292487Y162692D01*
X292430Y162761D01*
X292377Y162832D01*
X292326Y162905D01*
X292279Y162981D01*
X292236Y163058D01*
X292195Y163138D01*
X292159Y163219D01*
X292126Y163302D01*
X292097Y163386D01*
X292071Y163472D01*
X292049Y163558D01*
X292032Y163645D01*
X292018Y163733D01*
X292008Y163822D01*
X292002Y163911D01*
X292000Y164000D01*
D15*
X297573Y192987D02*
X297573Y196797D01*
X296303Y194680D01*
X295033Y196797D01*
X295033Y192987D01*
X293338Y194045D02*
X293338Y195739D01*
X293336Y195803D01*
X293330Y195867D01*
X293321Y195930D01*
X293307Y195992D01*
X293290Y196054D01*
X293269Y196114D01*
X293245Y196173D01*
X293217Y196231D01*
X293185Y196286D01*
X293151Y196340D01*
X293113Y196391D01*
X293072Y196441D01*
X293028Y196487D01*
X292982Y196531D01*
X292932Y196572D01*
X292881Y196610D01*
X292827Y196644D01*
X292772Y196676D01*
X292714Y196704D01*
X292655Y196728D01*
X292595Y196749D01*
X292533Y196766D01*
X292471Y196780D01*
X292408Y196789D01*
X292344Y196795D01*
X292280Y196797D01*
X292216Y196795D01*
X292152Y196789D01*
X292089Y196780D01*
X292027Y196766D01*
X291965Y196749D01*
X291905Y196728D01*
X291846Y196704D01*
X291788Y196676D01*
X291733Y196644D01*
X291679Y196610D01*
X291628Y196572D01*
X291578Y196531D01*
X291532Y196487D01*
X291488Y196441D01*
X291447Y196391D01*
X291409Y196340D01*
X291375Y196286D01*
X291343Y196231D01*
X291315Y196173D01*
X291291Y196114D01*
X291270Y196054D01*
X291253Y195992D01*
X291239Y195930D01*
X291230Y195867D01*
X291224Y195803D01*
X291222Y195739D01*
X291221Y195739D02*
X291221Y194045D01*
X291222Y194045D02*
X291224Y193981D01*
X291230Y193917D01*
X291239Y193854D01*
X291253Y193792D01*
X291270Y193730D01*
X291291Y193670D01*
X291315Y193611D01*
X291343Y193553D01*
X291375Y193498D01*
X291409Y193444D01*
X291447Y193393D01*
X291488Y193343D01*
X291532Y193297D01*
X291578Y193253D01*
X291628Y193212D01*
X291679Y193174D01*
X291733Y193140D01*
X291788Y193108D01*
X291846Y193080D01*
X291905Y193056D01*
X291965Y193035D01*
X292027Y193018D01*
X292089Y193004D01*
X292152Y192995D01*
X292216Y192989D01*
X292280Y192987D01*
X292344Y192989D01*
X292408Y192995D01*
X292471Y193004D01*
X292533Y193018D01*
X292595Y193035D01*
X292655Y193056D01*
X292714Y193080D01*
X292772Y193108D01*
X292827Y193140D01*
X292881Y193174D01*
X292932Y193212D01*
X292982Y193253D01*
X293028Y193297D01*
X293072Y193343D01*
X293113Y193393D01*
X293151Y193444D01*
X293185Y193498D01*
X293217Y193553D01*
X293245Y193611D01*
X293269Y193670D01*
X293290Y193730D01*
X293307Y193792D01*
X293321Y193854D01*
X293330Y193917D01*
X293336Y193981D01*
X293338Y194045D01*
X288532Y192987D02*
X288477Y192989D01*
X288421Y192994D01*
X288367Y193003D01*
X288313Y193016D01*
X288260Y193032D01*
X288208Y193051D01*
X288157Y193074D01*
X288109Y193100D01*
X288061Y193130D01*
X288016Y193162D01*
X287974Y193197D01*
X287933Y193235D01*
X287895Y193276D01*
X287860Y193318D01*
X287828Y193363D01*
X287798Y193411D01*
X287772Y193459D01*
X287749Y193510D01*
X287730Y193562D01*
X287714Y193615D01*
X287701Y193669D01*
X287692Y193723D01*
X287687Y193779D01*
X287685Y193834D01*
X288532Y192987D02*
X288615Y192989D01*
X288698Y192995D01*
X288780Y193004D01*
X288862Y193018D01*
X288944Y193035D01*
X289024Y193056D01*
X289103Y193081D01*
X289182Y193109D01*
X289258Y193141D01*
X289333Y193177D01*
X289407Y193215D01*
X289478Y193258D01*
X289548Y193303D01*
X289615Y193352D01*
X289680Y193404D01*
X289742Y193459D01*
X289802Y193516D01*
X289697Y195950D02*
X289695Y196005D01*
X289690Y196061D01*
X289681Y196115D01*
X289668Y196169D01*
X289652Y196222D01*
X289633Y196274D01*
X289610Y196325D01*
X289584Y196374D01*
X289554Y196421D01*
X289522Y196466D01*
X289487Y196508D01*
X289449Y196549D01*
X289408Y196587D01*
X289366Y196622D01*
X289321Y196654D01*
X289274Y196684D01*
X289225Y196710D01*
X289174Y196733D01*
X289122Y196752D01*
X289069Y196768D01*
X289015Y196781D01*
X288961Y196790D01*
X288905Y196795D01*
X288850Y196797D01*
X288850Y196798D02*
X288771Y196796D01*
X288693Y196790D01*
X288615Y196781D01*
X288538Y196767D01*
X288461Y196750D01*
X288385Y196728D01*
X288311Y196704D01*
X288237Y196675D01*
X288166Y196643D01*
X288096Y196607D01*
X288027Y196568D01*
X287961Y196526D01*
X287897Y196480D01*
X289274Y195209D02*
X289321Y195239D01*
X289366Y195272D01*
X289409Y195308D01*
X289449Y195346D01*
X289487Y195387D01*
X289522Y195430D01*
X289554Y195476D01*
X289584Y195523D01*
X289610Y195573D01*
X289633Y195624D01*
X289652Y195676D01*
X289668Y195729D01*
X289681Y195784D01*
X289690Y195839D01*
X289695Y195894D01*
X289697Y195950D01*
X288109Y194575D02*
X288062Y194545D01*
X288017Y194512D01*
X287974Y194476D01*
X287934Y194438D01*
X287896Y194397D01*
X287861Y194354D01*
X287829Y194308D01*
X287799Y194261D01*
X287773Y194211D01*
X287750Y194160D01*
X287731Y194108D01*
X287715Y194055D01*
X287702Y194000D01*
X287693Y193945D01*
X287688Y193890D01*
X287686Y193834D01*
X288109Y194575D02*
X289273Y195210D01*
X286267Y192987D02*
X285208Y192987D01*
X285144Y192989D01*
X285080Y192995D01*
X285017Y193004D01*
X284955Y193018D01*
X284893Y193035D01*
X284833Y193056D01*
X284774Y193080D01*
X284716Y193108D01*
X284661Y193140D01*
X284607Y193174D01*
X284556Y193212D01*
X284506Y193253D01*
X284460Y193297D01*
X284416Y193343D01*
X284375Y193393D01*
X284337Y193444D01*
X284303Y193498D01*
X284271Y193553D01*
X284243Y193611D01*
X284219Y193670D01*
X284198Y193730D01*
X284181Y193792D01*
X284167Y193854D01*
X284158Y193917D01*
X284152Y193981D01*
X284150Y194045D01*
X284152Y194109D01*
X284158Y194173D01*
X284167Y194236D01*
X284181Y194298D01*
X284198Y194360D01*
X284219Y194420D01*
X284243Y194479D01*
X284271Y194537D01*
X284303Y194592D01*
X284337Y194646D01*
X284375Y194697D01*
X284416Y194747D01*
X284460Y194793D01*
X284506Y194837D01*
X284556Y194878D01*
X284607Y194916D01*
X284661Y194950D01*
X284716Y194982D01*
X284774Y195010D01*
X284833Y195034D01*
X284893Y195055D01*
X284955Y195072D01*
X285017Y195086D01*
X285080Y195095D01*
X285144Y195101D01*
X285208Y195103D01*
X284997Y196797D02*
X286267Y196797D01*
X284997Y196797D02*
X284940Y196795D01*
X284884Y196789D01*
X284828Y196780D01*
X284773Y196767D01*
X284719Y196750D01*
X284666Y196730D01*
X284615Y196706D01*
X284565Y196679D01*
X284518Y196648D01*
X284472Y196615D01*
X284429Y196578D01*
X284388Y196539D01*
X284350Y196497D01*
X284315Y196452D01*
X284283Y196406D01*
X284254Y196357D01*
X284229Y196307D01*
X284207Y196254D01*
X284188Y196201D01*
X284173Y196146D01*
X284162Y196091D01*
X284154Y196035D01*
X284150Y195978D01*
X284150Y195922D01*
X284154Y195865D01*
X284162Y195809D01*
X284173Y195754D01*
X284188Y195699D01*
X284207Y195646D01*
X284229Y195593D01*
X284254Y195543D01*
X284283Y195494D01*
X284315Y195448D01*
X284350Y195403D01*
X284388Y195361D01*
X284429Y195322D01*
X284472Y195285D01*
X284518Y195252D01*
X284565Y195221D01*
X284615Y195194D01*
X284666Y195170D01*
X284719Y195150D01*
X284773Y195133D01*
X284828Y195120D01*
X284884Y195111D01*
X284940Y195105D01*
X284997Y195103D01*
X284997Y195104D02*
X285843Y195104D01*
D10*
X194500Y249000D02*
X165500Y249000D01*
X165500Y271000D01*
X194500Y271000D01*
X194500Y249000D01*
X187000Y254000D02*
X187002Y254089D01*
X187008Y254178D01*
X187018Y254267D01*
X187032Y254355D01*
X187049Y254442D01*
X187071Y254528D01*
X187097Y254614D01*
X187126Y254698D01*
X187159Y254781D01*
X187195Y254862D01*
X187236Y254942D01*
X187279Y255019D01*
X187326Y255095D01*
X187377Y255168D01*
X187430Y255239D01*
X187487Y255308D01*
X187547Y255374D01*
X187610Y255438D01*
X187675Y255498D01*
X187743Y255556D01*
X187814Y255610D01*
X187887Y255661D01*
X187962Y255709D01*
X188039Y255754D01*
X188118Y255795D01*
X188199Y255832D01*
X188281Y255866D01*
X188365Y255897D01*
X188450Y255923D01*
X188536Y255946D01*
X188623Y255964D01*
X188711Y255979D01*
X188800Y255990D01*
X188889Y255997D01*
X188978Y256000D01*
X189067Y255999D01*
X189156Y255994D01*
X189244Y255985D01*
X189333Y255972D01*
X189420Y255955D01*
X189507Y255935D01*
X189593Y255910D01*
X189677Y255882D01*
X189760Y255850D01*
X189842Y255814D01*
X189922Y255775D01*
X190000Y255732D01*
X190076Y255686D01*
X190150Y255636D01*
X190222Y255583D01*
X190291Y255527D01*
X190358Y255468D01*
X190422Y255406D01*
X190483Y255342D01*
X190542Y255274D01*
X190597Y255204D01*
X190649Y255132D01*
X190698Y255057D01*
X190743Y254981D01*
X190785Y254902D01*
X190823Y254822D01*
X190858Y254740D01*
X190889Y254656D01*
X190917Y254571D01*
X190940Y254485D01*
X190960Y254398D01*
X190976Y254311D01*
X190988Y254222D01*
X190996Y254134D01*
X191000Y254045D01*
X191000Y253955D01*
X190996Y253866D01*
X190988Y253778D01*
X190976Y253689D01*
X190960Y253602D01*
X190940Y253515D01*
X190917Y253429D01*
X190889Y253344D01*
X190858Y253260D01*
X190823Y253178D01*
X190785Y253098D01*
X190743Y253019D01*
X190698Y252943D01*
X190649Y252868D01*
X190597Y252796D01*
X190542Y252726D01*
X190483Y252658D01*
X190422Y252594D01*
X190358Y252532D01*
X190291Y252473D01*
X190222Y252417D01*
X190150Y252364D01*
X190076Y252314D01*
X190000Y252268D01*
X189922Y252225D01*
X189842Y252186D01*
X189760Y252150D01*
X189677Y252118D01*
X189593Y252090D01*
X189507Y252065D01*
X189420Y252045D01*
X189333Y252028D01*
X189244Y252015D01*
X189156Y252006D01*
X189067Y252001D01*
X188978Y252000D01*
X188889Y252003D01*
X188800Y252010D01*
X188711Y252021D01*
X188623Y252036D01*
X188536Y252054D01*
X188450Y252077D01*
X188365Y252103D01*
X188281Y252134D01*
X188199Y252168D01*
X188118Y252205D01*
X188039Y252246D01*
X187962Y252291D01*
X187887Y252339D01*
X187814Y252390D01*
X187743Y252444D01*
X187675Y252502D01*
X187610Y252562D01*
X187547Y252626D01*
X187487Y252692D01*
X187430Y252761D01*
X187377Y252832D01*
X187326Y252905D01*
X187279Y252981D01*
X187236Y253058D01*
X187195Y253138D01*
X187159Y253219D01*
X187126Y253302D01*
X187097Y253386D01*
X187071Y253472D01*
X187049Y253558D01*
X187032Y253645D01*
X187018Y253733D01*
X187008Y253822D01*
X187002Y253911D01*
X187000Y254000D01*
D15*
X192573Y282987D02*
X192573Y286797D01*
X191303Y284680D01*
X190033Y286797D01*
X190033Y282987D01*
X188338Y284045D02*
X188338Y285739D01*
X188336Y285803D01*
X188330Y285867D01*
X188321Y285930D01*
X188307Y285992D01*
X188290Y286054D01*
X188269Y286114D01*
X188245Y286173D01*
X188217Y286231D01*
X188185Y286286D01*
X188151Y286340D01*
X188113Y286391D01*
X188072Y286441D01*
X188028Y286487D01*
X187982Y286531D01*
X187932Y286572D01*
X187881Y286610D01*
X187827Y286644D01*
X187772Y286676D01*
X187714Y286704D01*
X187655Y286728D01*
X187595Y286749D01*
X187533Y286766D01*
X187471Y286780D01*
X187408Y286789D01*
X187344Y286795D01*
X187280Y286797D01*
X187216Y286795D01*
X187152Y286789D01*
X187089Y286780D01*
X187027Y286766D01*
X186965Y286749D01*
X186905Y286728D01*
X186846Y286704D01*
X186788Y286676D01*
X186733Y286644D01*
X186679Y286610D01*
X186628Y286572D01*
X186578Y286531D01*
X186532Y286487D01*
X186488Y286441D01*
X186447Y286391D01*
X186409Y286340D01*
X186375Y286286D01*
X186343Y286231D01*
X186315Y286173D01*
X186291Y286114D01*
X186270Y286054D01*
X186253Y285992D01*
X186239Y285930D01*
X186230Y285867D01*
X186224Y285803D01*
X186222Y285739D01*
X186221Y285739D02*
X186221Y284045D01*
X186222Y284045D02*
X186224Y283981D01*
X186230Y283917D01*
X186239Y283854D01*
X186253Y283792D01*
X186270Y283730D01*
X186291Y283670D01*
X186315Y283611D01*
X186343Y283553D01*
X186375Y283498D01*
X186409Y283444D01*
X186447Y283393D01*
X186488Y283343D01*
X186532Y283297D01*
X186578Y283253D01*
X186628Y283212D01*
X186679Y283174D01*
X186733Y283140D01*
X186788Y283108D01*
X186846Y283080D01*
X186905Y283056D01*
X186965Y283035D01*
X187027Y283018D01*
X187089Y283004D01*
X187152Y282995D01*
X187216Y282989D01*
X187280Y282987D01*
X187344Y282989D01*
X187408Y282995D01*
X187471Y283004D01*
X187533Y283018D01*
X187595Y283035D01*
X187655Y283056D01*
X187714Y283080D01*
X187772Y283108D01*
X187827Y283140D01*
X187881Y283174D01*
X187932Y283212D01*
X187982Y283253D01*
X188028Y283297D01*
X188072Y283343D01*
X188113Y283393D01*
X188151Y283444D01*
X188185Y283498D01*
X188217Y283553D01*
X188245Y283611D01*
X188269Y283670D01*
X188290Y283730D01*
X188307Y283792D01*
X188321Y283854D01*
X188330Y283917D01*
X188336Y283981D01*
X188338Y284045D01*
X183532Y282987D02*
X183477Y282989D01*
X183421Y282994D01*
X183367Y283003D01*
X183313Y283016D01*
X183260Y283032D01*
X183208Y283051D01*
X183157Y283074D01*
X183109Y283100D01*
X183061Y283130D01*
X183016Y283162D01*
X182974Y283197D01*
X182933Y283235D01*
X182895Y283276D01*
X182860Y283318D01*
X182828Y283363D01*
X182798Y283411D01*
X182772Y283459D01*
X182749Y283510D01*
X182730Y283562D01*
X182714Y283615D01*
X182701Y283669D01*
X182692Y283723D01*
X182687Y283779D01*
X182685Y283834D01*
X183532Y282987D02*
X183615Y282989D01*
X183698Y282995D01*
X183780Y283004D01*
X183862Y283018D01*
X183944Y283035D01*
X184024Y283056D01*
X184103Y283081D01*
X184182Y283109D01*
X184258Y283141D01*
X184333Y283177D01*
X184407Y283215D01*
X184478Y283258D01*
X184548Y283303D01*
X184615Y283352D01*
X184680Y283404D01*
X184742Y283459D01*
X184802Y283516D01*
X184697Y285950D02*
X184695Y286005D01*
X184690Y286061D01*
X184681Y286115D01*
X184668Y286169D01*
X184652Y286222D01*
X184633Y286274D01*
X184610Y286325D01*
X184584Y286374D01*
X184554Y286421D01*
X184522Y286466D01*
X184487Y286508D01*
X184449Y286549D01*
X184408Y286587D01*
X184366Y286622D01*
X184321Y286654D01*
X184274Y286684D01*
X184225Y286710D01*
X184174Y286733D01*
X184122Y286752D01*
X184069Y286768D01*
X184015Y286781D01*
X183961Y286790D01*
X183905Y286795D01*
X183850Y286797D01*
X183850Y286798D02*
X183771Y286796D01*
X183693Y286790D01*
X183615Y286781D01*
X183538Y286767D01*
X183461Y286750D01*
X183385Y286728D01*
X183311Y286704D01*
X183237Y286675D01*
X183166Y286643D01*
X183096Y286607D01*
X183027Y286568D01*
X182961Y286526D01*
X182897Y286480D01*
X184274Y285209D02*
X184321Y285239D01*
X184366Y285272D01*
X184409Y285308D01*
X184449Y285346D01*
X184487Y285387D01*
X184522Y285430D01*
X184554Y285476D01*
X184584Y285523D01*
X184610Y285573D01*
X184633Y285624D01*
X184652Y285676D01*
X184668Y285729D01*
X184681Y285784D01*
X184690Y285839D01*
X184695Y285894D01*
X184697Y285950D01*
X183109Y284575D02*
X183062Y284545D01*
X183017Y284512D01*
X182974Y284476D01*
X182934Y284438D01*
X182896Y284397D01*
X182861Y284354D01*
X182829Y284308D01*
X182799Y284261D01*
X182773Y284211D01*
X182750Y284160D01*
X182731Y284108D01*
X182715Y284055D01*
X182702Y284000D01*
X182693Y283945D01*
X182688Y283890D01*
X182686Y283834D01*
X183109Y284575D02*
X184273Y285210D01*
X181267Y283834D02*
X180420Y286797D01*
X181267Y283834D02*
X179150Y283834D01*
X179785Y284680D02*
X179785Y282987D01*
D10*
X192500Y41900D02*
X192500Y12900D01*
X170500Y12900D01*
X170500Y41900D01*
X192500Y41900D01*
X185500Y36400D02*
X185502Y36489D01*
X185508Y36578D01*
X185518Y36667D01*
X185532Y36755D01*
X185549Y36842D01*
X185571Y36928D01*
X185597Y37014D01*
X185626Y37098D01*
X185659Y37181D01*
X185695Y37262D01*
X185736Y37342D01*
X185779Y37419D01*
X185826Y37495D01*
X185877Y37568D01*
X185930Y37639D01*
X185987Y37708D01*
X186047Y37774D01*
X186110Y37838D01*
X186175Y37898D01*
X186243Y37956D01*
X186314Y38010D01*
X186387Y38061D01*
X186462Y38109D01*
X186539Y38154D01*
X186618Y38195D01*
X186699Y38232D01*
X186781Y38266D01*
X186865Y38297D01*
X186950Y38323D01*
X187036Y38346D01*
X187123Y38364D01*
X187211Y38379D01*
X187300Y38390D01*
X187389Y38397D01*
X187478Y38400D01*
X187567Y38399D01*
X187656Y38394D01*
X187744Y38385D01*
X187833Y38372D01*
X187920Y38355D01*
X188007Y38335D01*
X188093Y38310D01*
X188177Y38282D01*
X188260Y38250D01*
X188342Y38214D01*
X188422Y38175D01*
X188500Y38132D01*
X188576Y38086D01*
X188650Y38036D01*
X188722Y37983D01*
X188791Y37927D01*
X188858Y37868D01*
X188922Y37806D01*
X188983Y37742D01*
X189042Y37674D01*
X189097Y37604D01*
X189149Y37532D01*
X189198Y37457D01*
X189243Y37381D01*
X189285Y37302D01*
X189323Y37222D01*
X189358Y37140D01*
X189389Y37056D01*
X189417Y36971D01*
X189440Y36885D01*
X189460Y36798D01*
X189476Y36711D01*
X189488Y36622D01*
X189496Y36534D01*
X189500Y36445D01*
X189500Y36355D01*
X189496Y36266D01*
X189488Y36178D01*
X189476Y36089D01*
X189460Y36002D01*
X189440Y35915D01*
X189417Y35829D01*
X189389Y35744D01*
X189358Y35660D01*
X189323Y35578D01*
X189285Y35498D01*
X189243Y35419D01*
X189198Y35343D01*
X189149Y35268D01*
X189097Y35196D01*
X189042Y35126D01*
X188983Y35058D01*
X188922Y34994D01*
X188858Y34932D01*
X188791Y34873D01*
X188722Y34817D01*
X188650Y34764D01*
X188576Y34714D01*
X188500Y34668D01*
X188422Y34625D01*
X188342Y34586D01*
X188260Y34550D01*
X188177Y34518D01*
X188093Y34490D01*
X188007Y34465D01*
X187920Y34445D01*
X187833Y34428D01*
X187744Y34415D01*
X187656Y34406D01*
X187567Y34401D01*
X187478Y34400D01*
X187389Y34403D01*
X187300Y34410D01*
X187211Y34421D01*
X187123Y34436D01*
X187036Y34454D01*
X186950Y34477D01*
X186865Y34503D01*
X186781Y34534D01*
X186699Y34568D01*
X186618Y34605D01*
X186539Y34646D01*
X186462Y34691D01*
X186387Y34739D01*
X186314Y34790D01*
X186243Y34844D01*
X186175Y34902D01*
X186110Y34962D01*
X186047Y35026D01*
X185987Y35092D01*
X185930Y35161D01*
X185877Y35232D01*
X185826Y35305D01*
X185779Y35381D01*
X185736Y35458D01*
X185695Y35538D01*
X185659Y35619D01*
X185626Y35702D01*
X185597Y35786D01*
X185571Y35872D01*
X185549Y35958D01*
X185532Y36045D01*
X185518Y36133D01*
X185508Y36222D01*
X185502Y36311D01*
X185500Y36400D01*
D15*
X158513Y26550D02*
X154703Y26550D01*
X156396Y27820D02*
X158513Y26550D01*
X156396Y27820D02*
X158513Y29090D01*
X154703Y29090D01*
X155761Y30785D02*
X157455Y30785D01*
X157519Y30787D01*
X157583Y30793D01*
X157646Y30802D01*
X157708Y30816D01*
X157770Y30833D01*
X157830Y30854D01*
X157889Y30878D01*
X157947Y30906D01*
X158002Y30938D01*
X158056Y30972D01*
X158107Y31010D01*
X158157Y31051D01*
X158203Y31095D01*
X158247Y31141D01*
X158288Y31191D01*
X158326Y31242D01*
X158360Y31296D01*
X158392Y31351D01*
X158420Y31409D01*
X158444Y31468D01*
X158465Y31528D01*
X158482Y31590D01*
X158496Y31652D01*
X158505Y31715D01*
X158511Y31779D01*
X158513Y31843D01*
X158511Y31907D01*
X158505Y31971D01*
X158496Y32034D01*
X158482Y32096D01*
X158465Y32158D01*
X158444Y32218D01*
X158420Y32277D01*
X158392Y32335D01*
X158360Y32390D01*
X158326Y32444D01*
X158288Y32495D01*
X158247Y32545D01*
X158203Y32591D01*
X158157Y32635D01*
X158107Y32676D01*
X158056Y32714D01*
X158002Y32748D01*
X157947Y32780D01*
X157889Y32808D01*
X157830Y32832D01*
X157770Y32853D01*
X157708Y32870D01*
X157646Y32884D01*
X157583Y32893D01*
X157519Y32899D01*
X157455Y32901D01*
X157455Y32902D02*
X155761Y32902D01*
X155761Y32901D02*
X155697Y32899D01*
X155633Y32893D01*
X155570Y32884D01*
X155508Y32870D01*
X155446Y32853D01*
X155386Y32832D01*
X155327Y32808D01*
X155269Y32780D01*
X155214Y32748D01*
X155160Y32714D01*
X155109Y32676D01*
X155059Y32635D01*
X155013Y32591D01*
X154969Y32545D01*
X154928Y32495D01*
X154890Y32444D01*
X154856Y32390D01*
X154824Y32335D01*
X154796Y32277D01*
X154772Y32218D01*
X154751Y32158D01*
X154734Y32096D01*
X154720Y32034D01*
X154711Y31971D01*
X154705Y31907D01*
X154703Y31843D01*
X154705Y31779D01*
X154711Y31715D01*
X154720Y31652D01*
X154734Y31590D01*
X154751Y31528D01*
X154772Y31468D01*
X154796Y31409D01*
X154824Y31351D01*
X154856Y31296D01*
X154890Y31242D01*
X154928Y31191D01*
X154969Y31141D01*
X155013Y31095D01*
X155059Y31051D01*
X155109Y31010D01*
X155160Y30972D01*
X155214Y30938D01*
X155269Y30906D01*
X155327Y30878D01*
X155386Y30854D01*
X155446Y30833D01*
X155508Y30816D01*
X155570Y30802D01*
X155633Y30793D01*
X155697Y30787D01*
X155761Y30785D01*
X154703Y35591D02*
X154705Y35649D01*
X154711Y35706D01*
X154721Y35763D01*
X154734Y35820D01*
X154752Y35875D01*
X154773Y35928D01*
X154798Y35981D01*
X154826Y36031D01*
X154858Y36079D01*
X154893Y36126D01*
X154931Y36169D01*
X154972Y36210D01*
X155015Y36248D01*
X155062Y36283D01*
X155110Y36315D01*
X155160Y36343D01*
X155213Y36368D01*
X155266Y36389D01*
X155321Y36407D01*
X155378Y36420D01*
X155435Y36430D01*
X155492Y36436D01*
X155550Y36438D01*
X154703Y35591D02*
X154705Y35508D01*
X154711Y35425D01*
X154720Y35343D01*
X154734Y35261D01*
X154751Y35180D01*
X154772Y35099D01*
X154797Y35020D01*
X154825Y34942D01*
X154857Y34865D01*
X154892Y34790D01*
X154931Y34717D01*
X154974Y34645D01*
X155019Y34576D01*
X155068Y34509D01*
X155120Y34444D01*
X155174Y34381D01*
X155232Y34321D01*
X157666Y34426D02*
X157721Y34428D01*
X157777Y34433D01*
X157831Y34442D01*
X157885Y34455D01*
X157938Y34471D01*
X157990Y34490D01*
X158041Y34513D01*
X158090Y34539D01*
X158137Y34569D01*
X158182Y34601D01*
X158224Y34636D01*
X158265Y34674D01*
X158303Y34715D01*
X158338Y34757D01*
X158370Y34802D01*
X158400Y34850D01*
X158426Y34898D01*
X158449Y34949D01*
X158468Y35001D01*
X158484Y35054D01*
X158497Y35108D01*
X158506Y35162D01*
X158511Y35218D01*
X158513Y35273D01*
X158514Y35273D02*
X158512Y35352D01*
X158506Y35430D01*
X158497Y35508D01*
X158483Y35585D01*
X158466Y35662D01*
X158444Y35738D01*
X158420Y35812D01*
X158391Y35886D01*
X158359Y35957D01*
X158323Y36027D01*
X158284Y36096D01*
X158242Y36162D01*
X158196Y36226D01*
X156925Y34849D02*
X156955Y34802D01*
X156988Y34757D01*
X157024Y34714D01*
X157062Y34674D01*
X157103Y34636D01*
X157146Y34601D01*
X157192Y34569D01*
X157239Y34539D01*
X157289Y34513D01*
X157340Y34490D01*
X157392Y34471D01*
X157445Y34455D01*
X157500Y34442D01*
X157555Y34433D01*
X157610Y34428D01*
X157666Y34426D01*
X156291Y36014D02*
X156261Y36061D01*
X156228Y36106D01*
X156192Y36149D01*
X156154Y36189D01*
X156113Y36227D01*
X156070Y36262D01*
X156024Y36294D01*
X155977Y36324D01*
X155927Y36350D01*
X155876Y36373D01*
X155824Y36392D01*
X155771Y36408D01*
X155716Y36421D01*
X155661Y36430D01*
X155606Y36435D01*
X155550Y36437D01*
X156291Y36014D02*
X156926Y34850D01*
X154703Y37856D02*
X154703Y39126D01*
X154705Y39181D01*
X154710Y39237D01*
X154719Y39291D01*
X154732Y39345D01*
X154748Y39398D01*
X154767Y39450D01*
X154790Y39501D01*
X154816Y39550D01*
X154846Y39597D01*
X154878Y39642D01*
X154913Y39684D01*
X154951Y39725D01*
X154992Y39763D01*
X155034Y39798D01*
X155079Y39830D01*
X155127Y39860D01*
X155175Y39886D01*
X155226Y39909D01*
X155278Y39928D01*
X155331Y39944D01*
X155385Y39957D01*
X155439Y39966D01*
X155495Y39971D01*
X155550Y39973D01*
X155973Y39973D01*
X156028Y39971D01*
X156084Y39966D01*
X156138Y39957D01*
X156192Y39944D01*
X156245Y39928D01*
X156297Y39909D01*
X156348Y39886D01*
X156397Y39860D01*
X156444Y39830D01*
X156489Y39798D01*
X156531Y39763D01*
X156572Y39725D01*
X156610Y39684D01*
X156645Y39642D01*
X156677Y39597D01*
X156707Y39550D01*
X156733Y39501D01*
X156756Y39450D01*
X156775Y39398D01*
X156791Y39345D01*
X156804Y39291D01*
X156813Y39237D01*
X156818Y39181D01*
X156820Y39126D01*
X156820Y37856D01*
X158513Y37856D01*
X158513Y39973D01*
D10*
X165500Y159000D02*
X194500Y159000D01*
X165500Y159000D02*
X165500Y181000D01*
X194500Y181000D01*
X194500Y159000D01*
X187000Y164000D02*
X187002Y164089D01*
X187008Y164178D01*
X187018Y164267D01*
X187032Y164355D01*
X187049Y164442D01*
X187071Y164528D01*
X187097Y164614D01*
X187126Y164698D01*
X187159Y164781D01*
X187195Y164862D01*
X187236Y164942D01*
X187279Y165019D01*
X187326Y165095D01*
X187377Y165168D01*
X187430Y165239D01*
X187487Y165308D01*
X187547Y165374D01*
X187610Y165438D01*
X187675Y165498D01*
X187743Y165556D01*
X187814Y165610D01*
X187887Y165661D01*
X187962Y165709D01*
X188039Y165754D01*
X188118Y165795D01*
X188199Y165832D01*
X188281Y165866D01*
X188365Y165897D01*
X188450Y165923D01*
X188536Y165946D01*
X188623Y165964D01*
X188711Y165979D01*
X188800Y165990D01*
X188889Y165997D01*
X188978Y166000D01*
X189067Y165999D01*
X189156Y165994D01*
X189244Y165985D01*
X189333Y165972D01*
X189420Y165955D01*
X189507Y165935D01*
X189593Y165910D01*
X189677Y165882D01*
X189760Y165850D01*
X189842Y165814D01*
X189922Y165775D01*
X190000Y165732D01*
X190076Y165686D01*
X190150Y165636D01*
X190222Y165583D01*
X190291Y165527D01*
X190358Y165468D01*
X190422Y165406D01*
X190483Y165342D01*
X190542Y165274D01*
X190597Y165204D01*
X190649Y165132D01*
X190698Y165057D01*
X190743Y164981D01*
X190785Y164902D01*
X190823Y164822D01*
X190858Y164740D01*
X190889Y164656D01*
X190917Y164571D01*
X190940Y164485D01*
X190960Y164398D01*
X190976Y164311D01*
X190988Y164222D01*
X190996Y164134D01*
X191000Y164045D01*
X191000Y163955D01*
X190996Y163866D01*
X190988Y163778D01*
X190976Y163689D01*
X190960Y163602D01*
X190940Y163515D01*
X190917Y163429D01*
X190889Y163344D01*
X190858Y163260D01*
X190823Y163178D01*
X190785Y163098D01*
X190743Y163019D01*
X190698Y162943D01*
X190649Y162868D01*
X190597Y162796D01*
X190542Y162726D01*
X190483Y162658D01*
X190422Y162594D01*
X190358Y162532D01*
X190291Y162473D01*
X190222Y162417D01*
X190150Y162364D01*
X190076Y162314D01*
X190000Y162268D01*
X189922Y162225D01*
X189842Y162186D01*
X189760Y162150D01*
X189677Y162118D01*
X189593Y162090D01*
X189507Y162065D01*
X189420Y162045D01*
X189333Y162028D01*
X189244Y162015D01*
X189156Y162006D01*
X189067Y162001D01*
X188978Y162000D01*
X188889Y162003D01*
X188800Y162010D01*
X188711Y162021D01*
X188623Y162036D01*
X188536Y162054D01*
X188450Y162077D01*
X188365Y162103D01*
X188281Y162134D01*
X188199Y162168D01*
X188118Y162205D01*
X188039Y162246D01*
X187962Y162291D01*
X187887Y162339D01*
X187814Y162390D01*
X187743Y162444D01*
X187675Y162502D01*
X187610Y162562D01*
X187547Y162626D01*
X187487Y162692D01*
X187430Y162761D01*
X187377Y162832D01*
X187326Y162905D01*
X187279Y162981D01*
X187236Y163058D01*
X187195Y163138D01*
X187159Y163219D01*
X187126Y163302D01*
X187097Y163386D01*
X187071Y163472D01*
X187049Y163558D01*
X187032Y163645D01*
X187018Y163733D01*
X187008Y163822D01*
X187002Y163911D01*
X187000Y164000D01*
D15*
X192573Y192987D02*
X192573Y196797D01*
X191303Y194680D01*
X190033Y196797D01*
X190033Y192987D01*
X188338Y194045D02*
X188338Y195739D01*
X188336Y195803D01*
X188330Y195867D01*
X188321Y195930D01*
X188307Y195992D01*
X188290Y196054D01*
X188269Y196114D01*
X188245Y196173D01*
X188217Y196231D01*
X188185Y196286D01*
X188151Y196340D01*
X188113Y196391D01*
X188072Y196441D01*
X188028Y196487D01*
X187982Y196531D01*
X187932Y196572D01*
X187881Y196610D01*
X187827Y196644D01*
X187772Y196676D01*
X187714Y196704D01*
X187655Y196728D01*
X187595Y196749D01*
X187533Y196766D01*
X187471Y196780D01*
X187408Y196789D01*
X187344Y196795D01*
X187280Y196797D01*
X187216Y196795D01*
X187152Y196789D01*
X187089Y196780D01*
X187027Y196766D01*
X186965Y196749D01*
X186905Y196728D01*
X186846Y196704D01*
X186788Y196676D01*
X186733Y196644D01*
X186679Y196610D01*
X186628Y196572D01*
X186578Y196531D01*
X186532Y196487D01*
X186488Y196441D01*
X186447Y196391D01*
X186409Y196340D01*
X186375Y196286D01*
X186343Y196231D01*
X186315Y196173D01*
X186291Y196114D01*
X186270Y196054D01*
X186253Y195992D01*
X186239Y195930D01*
X186230Y195867D01*
X186224Y195803D01*
X186222Y195739D01*
X186221Y195739D02*
X186221Y194045D01*
X186222Y194045D02*
X186224Y193981D01*
X186230Y193917D01*
X186239Y193854D01*
X186253Y193792D01*
X186270Y193730D01*
X186291Y193670D01*
X186315Y193611D01*
X186343Y193553D01*
X186375Y193498D01*
X186409Y193444D01*
X186447Y193393D01*
X186488Y193343D01*
X186532Y193297D01*
X186578Y193253D01*
X186628Y193212D01*
X186679Y193174D01*
X186733Y193140D01*
X186788Y193108D01*
X186846Y193080D01*
X186905Y193056D01*
X186965Y193035D01*
X187027Y193018D01*
X187089Y193004D01*
X187152Y192995D01*
X187216Y192989D01*
X187280Y192987D01*
X187344Y192989D01*
X187408Y192995D01*
X187471Y193004D01*
X187533Y193018D01*
X187595Y193035D01*
X187655Y193056D01*
X187714Y193080D01*
X187772Y193108D01*
X187827Y193140D01*
X187881Y193174D01*
X187932Y193212D01*
X187982Y193253D01*
X188028Y193297D01*
X188072Y193343D01*
X188113Y193393D01*
X188151Y193444D01*
X188185Y193498D01*
X188217Y193553D01*
X188245Y193611D01*
X188269Y193670D01*
X188290Y193730D01*
X188307Y193792D01*
X188321Y193854D01*
X188330Y193917D01*
X188336Y193981D01*
X188338Y194045D01*
X183532Y192987D02*
X183477Y192989D01*
X183421Y192994D01*
X183367Y193003D01*
X183313Y193016D01*
X183260Y193032D01*
X183208Y193051D01*
X183157Y193074D01*
X183109Y193100D01*
X183061Y193130D01*
X183016Y193162D01*
X182974Y193197D01*
X182933Y193235D01*
X182895Y193276D01*
X182860Y193318D01*
X182828Y193363D01*
X182798Y193411D01*
X182772Y193459D01*
X182749Y193510D01*
X182730Y193562D01*
X182714Y193615D01*
X182701Y193669D01*
X182692Y193723D01*
X182687Y193779D01*
X182685Y193834D01*
X183532Y192987D02*
X183615Y192989D01*
X183698Y192995D01*
X183780Y193004D01*
X183862Y193018D01*
X183944Y193035D01*
X184024Y193056D01*
X184103Y193081D01*
X184182Y193109D01*
X184258Y193141D01*
X184333Y193177D01*
X184407Y193215D01*
X184478Y193258D01*
X184548Y193303D01*
X184615Y193352D01*
X184680Y193404D01*
X184742Y193459D01*
X184802Y193516D01*
X184697Y195950D02*
X184695Y196005D01*
X184690Y196061D01*
X184681Y196115D01*
X184668Y196169D01*
X184652Y196222D01*
X184633Y196274D01*
X184610Y196325D01*
X184584Y196374D01*
X184554Y196421D01*
X184522Y196466D01*
X184487Y196508D01*
X184449Y196549D01*
X184408Y196587D01*
X184366Y196622D01*
X184321Y196654D01*
X184274Y196684D01*
X184225Y196710D01*
X184174Y196733D01*
X184122Y196752D01*
X184069Y196768D01*
X184015Y196781D01*
X183961Y196790D01*
X183905Y196795D01*
X183850Y196797D01*
X183850Y196798D02*
X183771Y196796D01*
X183693Y196790D01*
X183615Y196781D01*
X183538Y196767D01*
X183461Y196750D01*
X183385Y196728D01*
X183311Y196704D01*
X183237Y196675D01*
X183166Y196643D01*
X183096Y196607D01*
X183027Y196568D01*
X182961Y196526D01*
X182897Y196480D01*
X184274Y195209D02*
X184321Y195239D01*
X184366Y195272D01*
X184409Y195308D01*
X184449Y195346D01*
X184487Y195387D01*
X184522Y195430D01*
X184554Y195476D01*
X184584Y195523D01*
X184610Y195573D01*
X184633Y195624D01*
X184652Y195676D01*
X184668Y195729D01*
X184681Y195784D01*
X184690Y195839D01*
X184695Y195894D01*
X184697Y195950D01*
X183109Y194575D02*
X183062Y194545D01*
X183017Y194512D01*
X182974Y194476D01*
X182934Y194438D01*
X182896Y194397D01*
X182861Y194354D01*
X182829Y194308D01*
X182799Y194261D01*
X182773Y194211D01*
X182750Y194160D01*
X182731Y194108D01*
X182715Y194055D01*
X182702Y194000D01*
X182693Y193945D01*
X182688Y193890D01*
X182686Y193834D01*
X183109Y194575D02*
X184273Y195210D01*
X181267Y195104D02*
X179997Y195104D01*
X179939Y195102D01*
X179882Y195096D01*
X179825Y195086D01*
X179768Y195073D01*
X179713Y195055D01*
X179660Y195034D01*
X179607Y195009D01*
X179557Y194981D01*
X179509Y194949D01*
X179462Y194914D01*
X179419Y194876D01*
X179378Y194835D01*
X179340Y194792D01*
X179305Y194745D01*
X179273Y194697D01*
X179245Y194647D01*
X179220Y194594D01*
X179199Y194541D01*
X179181Y194486D01*
X179168Y194429D01*
X179158Y194372D01*
X179152Y194315D01*
X179150Y194257D01*
X179150Y194045D01*
X179152Y193981D01*
X179158Y193917D01*
X179167Y193854D01*
X179181Y193792D01*
X179198Y193730D01*
X179219Y193670D01*
X179243Y193611D01*
X179271Y193553D01*
X179303Y193498D01*
X179337Y193444D01*
X179375Y193393D01*
X179416Y193343D01*
X179460Y193297D01*
X179506Y193253D01*
X179556Y193212D01*
X179607Y193174D01*
X179661Y193140D01*
X179716Y193108D01*
X179774Y193080D01*
X179833Y193056D01*
X179893Y193035D01*
X179955Y193018D01*
X180017Y193004D01*
X180080Y192995D01*
X180144Y192989D01*
X180208Y192987D01*
X180272Y192989D01*
X180336Y192995D01*
X180399Y193004D01*
X180461Y193018D01*
X180523Y193035D01*
X180583Y193056D01*
X180642Y193080D01*
X180700Y193108D01*
X180755Y193140D01*
X180809Y193174D01*
X180860Y193212D01*
X180910Y193253D01*
X180956Y193297D01*
X181000Y193343D01*
X181041Y193393D01*
X181079Y193444D01*
X181113Y193498D01*
X181145Y193553D01*
X181173Y193611D01*
X181197Y193670D01*
X181218Y193730D01*
X181235Y193792D01*
X181249Y193854D01*
X181258Y193917D01*
X181264Y193981D01*
X181266Y194045D01*
X181267Y194045D02*
X181267Y195104D01*
X181266Y195104D02*
X181264Y195185D01*
X181258Y195265D01*
X181249Y195345D01*
X181235Y195424D01*
X181218Y195503D01*
X181197Y195581D01*
X181173Y195658D01*
X181145Y195733D01*
X181113Y195807D01*
X181078Y195880D01*
X181039Y195951D01*
X180997Y196019D01*
X180952Y196086D01*
X180904Y196151D01*
X180852Y196213D01*
X180798Y196272D01*
X180741Y196329D01*
X180682Y196383D01*
X180620Y196435D01*
X180555Y196483D01*
X180488Y196528D01*
X180420Y196570D01*
X180349Y196609D01*
X180276Y196644D01*
X180202Y196676D01*
X180127Y196704D01*
X180050Y196728D01*
X179972Y196749D01*
X179893Y196766D01*
X179814Y196780D01*
X179734Y196789D01*
X179654Y196795D01*
X179573Y196797D01*
D10*
X270500Y249000D02*
X299500Y249000D01*
X270500Y249000D02*
X270500Y271000D01*
X299500Y271000D01*
X299500Y249000D01*
X292000Y254000D02*
X292002Y254089D01*
X292008Y254178D01*
X292018Y254267D01*
X292032Y254355D01*
X292049Y254442D01*
X292071Y254528D01*
X292097Y254614D01*
X292126Y254698D01*
X292159Y254781D01*
X292195Y254862D01*
X292236Y254942D01*
X292279Y255019D01*
X292326Y255095D01*
X292377Y255168D01*
X292430Y255239D01*
X292487Y255308D01*
X292547Y255374D01*
X292610Y255438D01*
X292675Y255498D01*
X292743Y255556D01*
X292814Y255610D01*
X292887Y255661D01*
X292962Y255709D01*
X293039Y255754D01*
X293118Y255795D01*
X293199Y255832D01*
X293281Y255866D01*
X293365Y255897D01*
X293450Y255923D01*
X293536Y255946D01*
X293623Y255964D01*
X293711Y255979D01*
X293800Y255990D01*
X293889Y255997D01*
X293978Y256000D01*
X294067Y255999D01*
X294156Y255994D01*
X294244Y255985D01*
X294333Y255972D01*
X294420Y255955D01*
X294507Y255935D01*
X294593Y255910D01*
X294677Y255882D01*
X294760Y255850D01*
X294842Y255814D01*
X294922Y255775D01*
X295000Y255732D01*
X295076Y255686D01*
X295150Y255636D01*
X295222Y255583D01*
X295291Y255527D01*
X295358Y255468D01*
X295422Y255406D01*
X295483Y255342D01*
X295542Y255274D01*
X295597Y255204D01*
X295649Y255132D01*
X295698Y255057D01*
X295743Y254981D01*
X295785Y254902D01*
X295823Y254822D01*
X295858Y254740D01*
X295889Y254656D01*
X295917Y254571D01*
X295940Y254485D01*
X295960Y254398D01*
X295976Y254311D01*
X295988Y254222D01*
X295996Y254134D01*
X296000Y254045D01*
X296000Y253955D01*
X295996Y253866D01*
X295988Y253778D01*
X295976Y253689D01*
X295960Y253602D01*
X295940Y253515D01*
X295917Y253429D01*
X295889Y253344D01*
X295858Y253260D01*
X295823Y253178D01*
X295785Y253098D01*
X295743Y253019D01*
X295698Y252943D01*
X295649Y252868D01*
X295597Y252796D01*
X295542Y252726D01*
X295483Y252658D01*
X295422Y252594D01*
X295358Y252532D01*
X295291Y252473D01*
X295222Y252417D01*
X295150Y252364D01*
X295076Y252314D01*
X295000Y252268D01*
X294922Y252225D01*
X294842Y252186D01*
X294760Y252150D01*
X294677Y252118D01*
X294593Y252090D01*
X294507Y252065D01*
X294420Y252045D01*
X294333Y252028D01*
X294244Y252015D01*
X294156Y252006D01*
X294067Y252001D01*
X293978Y252000D01*
X293889Y252003D01*
X293800Y252010D01*
X293711Y252021D01*
X293623Y252036D01*
X293536Y252054D01*
X293450Y252077D01*
X293365Y252103D01*
X293281Y252134D01*
X293199Y252168D01*
X293118Y252205D01*
X293039Y252246D01*
X292962Y252291D01*
X292887Y252339D01*
X292814Y252390D01*
X292743Y252444D01*
X292675Y252502D01*
X292610Y252562D01*
X292547Y252626D01*
X292487Y252692D01*
X292430Y252761D01*
X292377Y252832D01*
X292326Y252905D01*
X292279Y252981D01*
X292236Y253058D01*
X292195Y253138D01*
X292159Y253219D01*
X292126Y253302D01*
X292097Y253386D01*
X292071Y253472D01*
X292049Y253558D01*
X292032Y253645D01*
X292018Y253733D01*
X292008Y253822D01*
X292002Y253911D01*
X292000Y254000D01*
D15*
X297573Y272987D02*
X297573Y276797D01*
X296303Y274680D01*
X295033Y276797D01*
X295033Y272987D01*
X293338Y274045D02*
X293338Y275739D01*
X293336Y275803D01*
X293330Y275867D01*
X293321Y275930D01*
X293307Y275992D01*
X293290Y276054D01*
X293269Y276114D01*
X293245Y276173D01*
X293217Y276231D01*
X293185Y276286D01*
X293151Y276340D01*
X293113Y276391D01*
X293072Y276441D01*
X293028Y276487D01*
X292982Y276531D01*
X292932Y276572D01*
X292881Y276610D01*
X292827Y276644D01*
X292772Y276676D01*
X292714Y276704D01*
X292655Y276728D01*
X292595Y276749D01*
X292533Y276766D01*
X292471Y276780D01*
X292408Y276789D01*
X292344Y276795D01*
X292280Y276797D01*
X292216Y276795D01*
X292152Y276789D01*
X292089Y276780D01*
X292027Y276766D01*
X291965Y276749D01*
X291905Y276728D01*
X291846Y276704D01*
X291788Y276676D01*
X291733Y276644D01*
X291679Y276610D01*
X291628Y276572D01*
X291578Y276531D01*
X291532Y276487D01*
X291488Y276441D01*
X291447Y276391D01*
X291409Y276340D01*
X291375Y276286D01*
X291343Y276231D01*
X291315Y276173D01*
X291291Y276114D01*
X291270Y276054D01*
X291253Y275992D01*
X291239Y275930D01*
X291230Y275867D01*
X291224Y275803D01*
X291222Y275739D01*
X291221Y275739D02*
X291221Y274045D01*
X291222Y274045D02*
X291224Y273981D01*
X291230Y273917D01*
X291239Y273854D01*
X291253Y273792D01*
X291270Y273730D01*
X291291Y273670D01*
X291315Y273611D01*
X291343Y273553D01*
X291375Y273498D01*
X291409Y273444D01*
X291447Y273393D01*
X291488Y273343D01*
X291532Y273297D01*
X291578Y273253D01*
X291628Y273212D01*
X291679Y273174D01*
X291733Y273140D01*
X291788Y273108D01*
X291846Y273080D01*
X291905Y273056D01*
X291965Y273035D01*
X292027Y273018D01*
X292089Y273004D01*
X292152Y272995D01*
X292216Y272989D01*
X292280Y272987D01*
X292344Y272989D01*
X292408Y272995D01*
X292471Y273004D01*
X292533Y273018D01*
X292595Y273035D01*
X292655Y273056D01*
X292714Y273080D01*
X292772Y273108D01*
X292827Y273140D01*
X292881Y273174D01*
X292932Y273212D01*
X292982Y273253D01*
X293028Y273297D01*
X293072Y273343D01*
X293113Y273393D01*
X293151Y273444D01*
X293185Y273498D01*
X293217Y273553D01*
X293245Y273611D01*
X293269Y273670D01*
X293290Y273730D01*
X293307Y273792D01*
X293321Y273854D01*
X293330Y273917D01*
X293336Y273981D01*
X293338Y274045D01*
X288532Y272987D02*
X288477Y272989D01*
X288421Y272994D01*
X288367Y273003D01*
X288313Y273016D01*
X288260Y273032D01*
X288208Y273051D01*
X288157Y273074D01*
X288109Y273100D01*
X288061Y273130D01*
X288016Y273162D01*
X287974Y273197D01*
X287933Y273235D01*
X287895Y273276D01*
X287860Y273318D01*
X287828Y273363D01*
X287798Y273411D01*
X287772Y273459D01*
X287749Y273510D01*
X287730Y273562D01*
X287714Y273615D01*
X287701Y273669D01*
X287692Y273723D01*
X287687Y273779D01*
X287685Y273834D01*
X288532Y272987D02*
X288615Y272989D01*
X288698Y272995D01*
X288780Y273004D01*
X288862Y273018D01*
X288944Y273035D01*
X289024Y273056D01*
X289103Y273081D01*
X289182Y273109D01*
X289258Y273141D01*
X289333Y273177D01*
X289407Y273215D01*
X289478Y273258D01*
X289548Y273303D01*
X289615Y273352D01*
X289680Y273404D01*
X289742Y273459D01*
X289802Y273516D01*
X289697Y275950D02*
X289695Y276005D01*
X289690Y276061D01*
X289681Y276115D01*
X289668Y276169D01*
X289652Y276222D01*
X289633Y276274D01*
X289610Y276325D01*
X289584Y276374D01*
X289554Y276421D01*
X289522Y276466D01*
X289487Y276508D01*
X289449Y276549D01*
X289408Y276587D01*
X289366Y276622D01*
X289321Y276654D01*
X289274Y276684D01*
X289225Y276710D01*
X289174Y276733D01*
X289122Y276752D01*
X289069Y276768D01*
X289015Y276781D01*
X288961Y276790D01*
X288905Y276795D01*
X288850Y276797D01*
X288850Y276798D02*
X288771Y276796D01*
X288693Y276790D01*
X288615Y276781D01*
X288538Y276767D01*
X288461Y276750D01*
X288385Y276728D01*
X288311Y276704D01*
X288237Y276675D01*
X288166Y276643D01*
X288096Y276607D01*
X288027Y276568D01*
X287961Y276526D01*
X287897Y276480D01*
X289274Y275209D02*
X289321Y275239D01*
X289366Y275272D01*
X289409Y275308D01*
X289449Y275346D01*
X289487Y275387D01*
X289522Y275430D01*
X289554Y275476D01*
X289584Y275523D01*
X289610Y275573D01*
X289633Y275624D01*
X289652Y275676D01*
X289668Y275729D01*
X289681Y275784D01*
X289690Y275839D01*
X289695Y275894D01*
X289697Y275950D01*
X288109Y274575D02*
X288062Y274545D01*
X288017Y274512D01*
X287974Y274476D01*
X287934Y274438D01*
X287896Y274397D01*
X287861Y274354D01*
X287829Y274308D01*
X287799Y274261D01*
X287773Y274211D01*
X287750Y274160D01*
X287731Y274108D01*
X287715Y274055D01*
X287702Y274000D01*
X287693Y273945D01*
X287688Y273890D01*
X287686Y273834D01*
X288109Y274575D02*
X289273Y275210D01*
X286267Y276374D02*
X286267Y276797D01*
X284150Y276797D01*
X285208Y272987D01*
D14*
X481113Y273308D02*
X482355Y273308D01*
X482425Y273310D01*
X482494Y273316D01*
X482563Y273326D01*
X482631Y273339D01*
X482699Y273357D01*
X482765Y273378D01*
X482830Y273403D01*
X482894Y273431D01*
X482956Y273463D01*
X483016Y273498D01*
X483074Y273537D01*
X483129Y273579D01*
X483183Y273624D01*
X483233Y273672D01*
X483281Y273722D01*
X483326Y273776D01*
X483368Y273831D01*
X483407Y273889D01*
X483442Y273949D01*
X483474Y274011D01*
X483502Y274075D01*
X483527Y274140D01*
X483548Y274206D01*
X483566Y274274D01*
X483579Y274342D01*
X483589Y274411D01*
X483595Y274480D01*
X483597Y274550D01*
X483597Y277654D01*
X483595Y277724D01*
X483589Y277793D01*
X483579Y277862D01*
X483566Y277930D01*
X483548Y277998D01*
X483527Y278064D01*
X483502Y278129D01*
X483474Y278193D01*
X483442Y278255D01*
X483407Y278315D01*
X483368Y278373D01*
X483326Y278428D01*
X483281Y278482D01*
X483233Y278532D01*
X483183Y278580D01*
X483129Y278625D01*
X483074Y278667D01*
X483016Y278706D01*
X482956Y278741D01*
X482894Y278773D01*
X482830Y278801D01*
X482765Y278826D01*
X482699Y278847D01*
X482631Y278865D01*
X482563Y278878D01*
X482494Y278888D01*
X482425Y278894D01*
X482355Y278896D01*
X481113Y278896D01*
X477301Y278896D02*
X477228Y278894D01*
X477155Y278888D01*
X477082Y278879D01*
X477011Y278865D01*
X476939Y278848D01*
X476869Y278828D01*
X476800Y278803D01*
X476733Y278775D01*
X476667Y278744D01*
X476603Y278709D01*
X476540Y278671D01*
X476480Y278629D01*
X476422Y278585D01*
X476366Y278537D01*
X476313Y278487D01*
X476263Y278434D01*
X476215Y278378D01*
X476171Y278320D01*
X476129Y278260D01*
X476091Y278198D01*
X476056Y278133D01*
X476025Y278067D01*
X475997Y278000D01*
X475972Y277931D01*
X475952Y277861D01*
X475935Y277789D01*
X475921Y277718D01*
X475912Y277645D01*
X475906Y277572D01*
X475904Y277499D01*
X477301Y278896D02*
X477385Y278894D01*
X477468Y278888D01*
X477551Y278879D01*
X477633Y278865D01*
X477715Y278848D01*
X477796Y278826D01*
X477876Y278801D01*
X477954Y278773D01*
X478032Y278741D01*
X478107Y278705D01*
X478181Y278666D01*
X478253Y278623D01*
X478323Y278577D01*
X478390Y278528D01*
X478456Y278475D01*
X478518Y278420D01*
X478578Y278362D01*
X478636Y278301D01*
X478690Y278238D01*
X478742Y278172D01*
X478790Y278104D01*
X478835Y278033D01*
X478877Y277961D01*
X478915Y277886D01*
X478950Y277810D01*
X478981Y277733D01*
X479009Y277654D01*
X476370Y276413D02*
X476316Y276466D01*
X476265Y276523D01*
X476217Y276582D01*
X476172Y276643D01*
X476131Y276706D01*
X476092Y276772D01*
X476057Y276839D01*
X476025Y276908D01*
X475997Y276979D01*
X475973Y277050D01*
X475952Y277123D01*
X475935Y277197D01*
X475921Y277272D01*
X475912Y277347D01*
X475906Y277423D01*
X475904Y277499D01*
X476370Y276412D02*
X479008Y273308D01*
X475904Y273308D01*
X481113Y104308D02*
X482355Y104308D01*
X482425Y104310D01*
X482494Y104316D01*
X482563Y104326D01*
X482631Y104339D01*
X482699Y104357D01*
X482765Y104378D01*
X482830Y104403D01*
X482894Y104431D01*
X482956Y104463D01*
X483016Y104498D01*
X483074Y104537D01*
X483129Y104579D01*
X483183Y104624D01*
X483233Y104672D01*
X483281Y104722D01*
X483326Y104776D01*
X483368Y104831D01*
X483407Y104889D01*
X483442Y104949D01*
X483474Y105011D01*
X483502Y105075D01*
X483527Y105140D01*
X483548Y105206D01*
X483566Y105274D01*
X483579Y105342D01*
X483589Y105411D01*
X483595Y105480D01*
X483597Y105550D01*
X483597Y108654D01*
X483595Y108724D01*
X483589Y108793D01*
X483579Y108862D01*
X483566Y108930D01*
X483548Y108998D01*
X483527Y109064D01*
X483502Y109129D01*
X483474Y109193D01*
X483442Y109255D01*
X483407Y109315D01*
X483368Y109373D01*
X483326Y109428D01*
X483281Y109482D01*
X483233Y109532D01*
X483183Y109580D01*
X483129Y109625D01*
X483074Y109667D01*
X483016Y109706D01*
X482956Y109741D01*
X482894Y109773D01*
X482830Y109801D01*
X482765Y109826D01*
X482699Y109847D01*
X482631Y109865D01*
X482563Y109878D01*
X482494Y109888D01*
X482425Y109894D01*
X482355Y109896D01*
X481113Y109896D01*
X479008Y108654D02*
X477456Y109896D01*
X477456Y104308D01*
X479008Y104308D02*
X475904Y104308D01*
D15*
X309713Y12742D02*
X309713Y11896D01*
X309715Y11841D01*
X309720Y11785D01*
X309729Y11731D01*
X309742Y11677D01*
X309758Y11624D01*
X309777Y11572D01*
X309800Y11521D01*
X309826Y11473D01*
X309856Y11425D01*
X309888Y11380D01*
X309923Y11338D01*
X309961Y11297D01*
X310002Y11259D01*
X310044Y11224D01*
X310089Y11192D01*
X310137Y11162D01*
X310185Y11136D01*
X310236Y11113D01*
X310288Y11094D01*
X310341Y11078D01*
X310395Y11065D01*
X310449Y11056D01*
X310505Y11051D01*
X310560Y11049D01*
X312676Y11049D01*
X312734Y11051D01*
X312791Y11057D01*
X312848Y11067D01*
X312905Y11080D01*
X312960Y11098D01*
X313013Y11119D01*
X313066Y11144D01*
X313116Y11172D01*
X313164Y11204D01*
X313211Y11239D01*
X313254Y11277D01*
X313295Y11318D01*
X313333Y11361D01*
X313368Y11408D01*
X313400Y11456D01*
X313428Y11506D01*
X313453Y11559D01*
X313474Y11612D01*
X313492Y11667D01*
X313505Y11724D01*
X313515Y11781D01*
X313521Y11838D01*
X313523Y11896D01*
X313523Y12742D01*
X309713Y14106D02*
X309713Y15165D01*
X309715Y15229D01*
X309721Y15293D01*
X309730Y15356D01*
X309744Y15418D01*
X309761Y15480D01*
X309782Y15540D01*
X309806Y15599D01*
X309834Y15657D01*
X309866Y15712D01*
X309900Y15766D01*
X309938Y15817D01*
X309979Y15867D01*
X310023Y15913D01*
X310069Y15957D01*
X310119Y15998D01*
X310170Y16036D01*
X310224Y16070D01*
X310279Y16102D01*
X310337Y16130D01*
X310396Y16154D01*
X310456Y16175D01*
X310518Y16192D01*
X310580Y16206D01*
X310643Y16215D01*
X310707Y16221D01*
X310771Y16223D01*
X310835Y16221D01*
X310899Y16215D01*
X310962Y16206D01*
X311024Y16192D01*
X311086Y16175D01*
X311146Y16154D01*
X311205Y16130D01*
X311263Y16102D01*
X311318Y16070D01*
X311372Y16036D01*
X311423Y15998D01*
X311473Y15957D01*
X311519Y15913D01*
X311563Y15867D01*
X311604Y15817D01*
X311642Y15766D01*
X311676Y15712D01*
X311708Y15657D01*
X311736Y15599D01*
X311760Y15540D01*
X311781Y15480D01*
X311798Y15418D01*
X311812Y15356D01*
X311821Y15293D01*
X311827Y15229D01*
X311829Y15165D01*
X313523Y15376D02*
X313523Y14106D01*
X313523Y15376D02*
X313521Y15433D01*
X313515Y15489D01*
X313506Y15545D01*
X313493Y15600D01*
X313476Y15654D01*
X313456Y15707D01*
X313432Y15758D01*
X313405Y15808D01*
X313374Y15855D01*
X313341Y15901D01*
X313304Y15944D01*
X313265Y15985D01*
X313223Y16023D01*
X313178Y16058D01*
X313132Y16090D01*
X313083Y16119D01*
X313033Y16144D01*
X312980Y16166D01*
X312927Y16185D01*
X312872Y16200D01*
X312817Y16211D01*
X312761Y16219D01*
X312704Y16223D01*
X312648Y16223D01*
X312591Y16219D01*
X312535Y16211D01*
X312480Y16200D01*
X312425Y16185D01*
X312372Y16166D01*
X312319Y16144D01*
X312269Y16119D01*
X312220Y16090D01*
X312174Y16058D01*
X312129Y16023D01*
X312087Y15985D01*
X312048Y15944D01*
X312011Y15901D01*
X311978Y15855D01*
X311947Y15808D01*
X311920Y15758D01*
X311896Y15707D01*
X311876Y15654D01*
X311859Y15600D01*
X311846Y15545D01*
X311837Y15489D01*
X311831Y15433D01*
X311829Y15376D01*
X311830Y15376D02*
X311830Y14530D01*
D14*
X311096Y101604D02*
X311096Y107192D01*
X309544Y107192D01*
X309467Y107190D01*
X309389Y107184D01*
X309313Y107175D01*
X309236Y107161D01*
X309161Y107144D01*
X309087Y107123D01*
X309013Y107098D01*
X308941Y107070D01*
X308871Y107038D01*
X308802Y107003D01*
X308735Y106964D01*
X308670Y106922D01*
X308607Y106877D01*
X308546Y106829D01*
X308488Y106778D01*
X308433Y106724D01*
X308380Y106667D01*
X308331Y106608D01*
X308284Y106546D01*
X308240Y106482D01*
X308200Y106416D01*
X308163Y106348D01*
X308129Y106278D01*
X308099Y106207D01*
X308073Y106134D01*
X308050Y106060D01*
X308031Y105985D01*
X308016Y105910D01*
X308004Y105833D01*
X307996Y105756D01*
X307992Y105679D01*
X307992Y105601D01*
X307996Y105524D01*
X308004Y105447D01*
X308016Y105370D01*
X308031Y105295D01*
X308050Y105220D01*
X308073Y105146D01*
X308099Y105073D01*
X308129Y105002D01*
X308163Y104932D01*
X308200Y104864D01*
X308240Y104798D01*
X308284Y104734D01*
X308331Y104672D01*
X308380Y104613D01*
X308433Y104556D01*
X308488Y104502D01*
X308546Y104451D01*
X308607Y104403D01*
X308670Y104358D01*
X308735Y104316D01*
X308802Y104277D01*
X308871Y104242D01*
X308941Y104210D01*
X309013Y104182D01*
X309087Y104157D01*
X309161Y104136D01*
X309236Y104119D01*
X309313Y104105D01*
X309389Y104096D01*
X309467Y104090D01*
X309544Y104088D01*
X311096Y104088D01*
X309233Y104088D02*
X307992Y101604D01*
X305646Y105950D02*
X304094Y107192D01*
X304094Y101604D01*
X305646Y101604D02*
X302541Y101604D01*
X206096Y101604D02*
X206096Y107192D01*
X204544Y107192D01*
X204467Y107190D01*
X204389Y107184D01*
X204313Y107175D01*
X204236Y107161D01*
X204161Y107144D01*
X204087Y107123D01*
X204013Y107098D01*
X203941Y107070D01*
X203871Y107038D01*
X203802Y107003D01*
X203735Y106964D01*
X203670Y106922D01*
X203607Y106877D01*
X203546Y106829D01*
X203488Y106778D01*
X203433Y106724D01*
X203380Y106667D01*
X203331Y106608D01*
X203284Y106546D01*
X203240Y106482D01*
X203200Y106416D01*
X203163Y106348D01*
X203129Y106278D01*
X203099Y106207D01*
X203073Y106134D01*
X203050Y106060D01*
X203031Y105985D01*
X203016Y105910D01*
X203004Y105833D01*
X202996Y105756D01*
X202992Y105679D01*
X202992Y105601D01*
X202996Y105524D01*
X203004Y105447D01*
X203016Y105370D01*
X203031Y105295D01*
X203050Y105220D01*
X203073Y105146D01*
X203099Y105073D01*
X203129Y105002D01*
X203163Y104932D01*
X203200Y104864D01*
X203240Y104798D01*
X203284Y104734D01*
X203331Y104672D01*
X203380Y104613D01*
X203433Y104556D01*
X203488Y104502D01*
X203546Y104451D01*
X203607Y104403D01*
X203670Y104358D01*
X203735Y104316D01*
X203802Y104277D01*
X203871Y104242D01*
X203941Y104210D01*
X204013Y104182D01*
X204087Y104157D01*
X204161Y104136D01*
X204236Y104119D01*
X204313Y104105D01*
X204389Y104096D01*
X204467Y104090D01*
X204544Y104088D01*
X206096Y104088D01*
X204233Y104088D02*
X202992Y101604D01*
X197541Y105795D02*
X197543Y105868D01*
X197549Y105941D01*
X197558Y106014D01*
X197572Y106085D01*
X197589Y106157D01*
X197609Y106227D01*
X197634Y106296D01*
X197662Y106363D01*
X197693Y106429D01*
X197728Y106494D01*
X197766Y106556D01*
X197808Y106616D01*
X197852Y106674D01*
X197900Y106730D01*
X197950Y106783D01*
X198003Y106833D01*
X198059Y106881D01*
X198117Y106925D01*
X198177Y106967D01*
X198240Y107005D01*
X198304Y107040D01*
X198370Y107071D01*
X198437Y107099D01*
X198506Y107124D01*
X198576Y107144D01*
X198648Y107161D01*
X198719Y107175D01*
X198792Y107184D01*
X198865Y107190D01*
X198938Y107192D01*
X199022Y107190D01*
X199105Y107184D01*
X199188Y107175D01*
X199270Y107161D01*
X199352Y107144D01*
X199433Y107122D01*
X199513Y107097D01*
X199591Y107069D01*
X199669Y107037D01*
X199744Y107001D01*
X199818Y106962D01*
X199890Y106919D01*
X199960Y106873D01*
X200027Y106824D01*
X200093Y106771D01*
X200155Y106716D01*
X200215Y106658D01*
X200273Y106597D01*
X200327Y106534D01*
X200379Y106468D01*
X200427Y106400D01*
X200472Y106329D01*
X200514Y106257D01*
X200552Y106182D01*
X200587Y106106D01*
X200618Y106029D01*
X200646Y105950D01*
X198008Y104709D02*
X197954Y104762D01*
X197903Y104819D01*
X197855Y104878D01*
X197810Y104939D01*
X197769Y105002D01*
X197730Y105068D01*
X197695Y105135D01*
X197663Y105204D01*
X197635Y105275D01*
X197611Y105346D01*
X197590Y105419D01*
X197573Y105493D01*
X197559Y105568D01*
X197550Y105643D01*
X197544Y105719D01*
X197542Y105795D01*
X198007Y104708D02*
X200646Y101604D01*
X197541Y101604D01*
D15*
X251477Y13777D02*
X255287Y13777D01*
X255287Y14835D01*
X255285Y14899D01*
X255279Y14963D01*
X255270Y15026D01*
X255256Y15088D01*
X255239Y15150D01*
X255218Y15210D01*
X255194Y15269D01*
X255166Y15327D01*
X255134Y15382D01*
X255100Y15436D01*
X255062Y15487D01*
X255021Y15537D01*
X254977Y15583D01*
X254931Y15627D01*
X254881Y15668D01*
X254830Y15706D01*
X254776Y15740D01*
X254721Y15772D01*
X254663Y15800D01*
X254604Y15824D01*
X254544Y15845D01*
X254482Y15862D01*
X254420Y15876D01*
X254357Y15885D01*
X254293Y15891D01*
X254229Y15893D01*
X254165Y15891D01*
X254101Y15885D01*
X254038Y15876D01*
X253976Y15862D01*
X253914Y15845D01*
X253854Y15824D01*
X253795Y15800D01*
X253737Y15772D01*
X253682Y15740D01*
X253628Y15706D01*
X253577Y15668D01*
X253527Y15627D01*
X253481Y15583D01*
X253437Y15537D01*
X253396Y15487D01*
X253358Y15436D01*
X253324Y15382D01*
X253292Y15327D01*
X253264Y15269D01*
X253240Y15210D01*
X253219Y15150D01*
X253202Y15088D01*
X253188Y15026D01*
X253179Y14963D01*
X253173Y14899D01*
X253171Y14835D01*
X253170Y14835D02*
X253170Y13777D01*
X253170Y15047D02*
X251477Y15894D01*
X251477Y17414D02*
X251477Y18472D01*
X251479Y18536D01*
X251485Y18600D01*
X251494Y18663D01*
X251508Y18725D01*
X251525Y18787D01*
X251546Y18847D01*
X251570Y18906D01*
X251598Y18964D01*
X251630Y19019D01*
X251664Y19073D01*
X251702Y19124D01*
X251743Y19174D01*
X251787Y19220D01*
X251833Y19264D01*
X251883Y19305D01*
X251934Y19343D01*
X251988Y19377D01*
X252043Y19409D01*
X252101Y19437D01*
X252160Y19461D01*
X252220Y19482D01*
X252282Y19499D01*
X252344Y19513D01*
X252407Y19522D01*
X252471Y19528D01*
X252535Y19530D01*
X252599Y19528D01*
X252663Y19522D01*
X252726Y19513D01*
X252788Y19499D01*
X252850Y19482D01*
X252910Y19461D01*
X252969Y19437D01*
X253027Y19409D01*
X253082Y19377D01*
X253136Y19343D01*
X253187Y19305D01*
X253237Y19264D01*
X253283Y19220D01*
X253327Y19174D01*
X253368Y19124D01*
X253406Y19073D01*
X253440Y19019D01*
X253472Y18964D01*
X253500Y18906D01*
X253524Y18847D01*
X253545Y18787D01*
X253562Y18725D01*
X253576Y18663D01*
X253585Y18600D01*
X253591Y18536D01*
X253593Y18472D01*
X255287Y18684D02*
X255287Y17414D01*
X255287Y18684D02*
X255285Y18741D01*
X255279Y18797D01*
X255270Y18853D01*
X255257Y18908D01*
X255240Y18962D01*
X255220Y19015D01*
X255196Y19066D01*
X255169Y19116D01*
X255138Y19163D01*
X255105Y19209D01*
X255068Y19252D01*
X255029Y19293D01*
X254987Y19331D01*
X254942Y19366D01*
X254896Y19398D01*
X254847Y19427D01*
X254797Y19452D01*
X254744Y19474D01*
X254691Y19493D01*
X254636Y19508D01*
X254581Y19519D01*
X254525Y19527D01*
X254468Y19531D01*
X254412Y19531D01*
X254355Y19527D01*
X254299Y19519D01*
X254244Y19508D01*
X254189Y19493D01*
X254136Y19474D01*
X254083Y19452D01*
X254033Y19427D01*
X253984Y19398D01*
X253938Y19366D01*
X253893Y19331D01*
X253851Y19293D01*
X253812Y19252D01*
X253775Y19209D01*
X253742Y19163D01*
X253711Y19116D01*
X253684Y19066D01*
X253660Y19015D01*
X253640Y18962D01*
X253623Y18908D01*
X253610Y18853D01*
X253601Y18797D01*
X253595Y18741D01*
X253593Y18684D01*
X253594Y18684D02*
X253594Y17837D01*
X295713Y34970D02*
X299523Y34970D01*
X299523Y36028D01*
X299521Y36092D01*
X299515Y36156D01*
X299506Y36219D01*
X299492Y36281D01*
X299475Y36343D01*
X299454Y36403D01*
X299430Y36462D01*
X299402Y36520D01*
X299370Y36575D01*
X299336Y36629D01*
X299298Y36680D01*
X299257Y36730D01*
X299213Y36776D01*
X299167Y36820D01*
X299117Y36861D01*
X299066Y36899D01*
X299012Y36933D01*
X298957Y36965D01*
X298899Y36993D01*
X298840Y37017D01*
X298780Y37038D01*
X298718Y37055D01*
X298656Y37069D01*
X298593Y37078D01*
X298529Y37084D01*
X298465Y37086D01*
X298401Y37084D01*
X298337Y37078D01*
X298274Y37069D01*
X298212Y37055D01*
X298150Y37038D01*
X298090Y37017D01*
X298031Y36993D01*
X297973Y36965D01*
X297918Y36933D01*
X297864Y36899D01*
X297813Y36861D01*
X297763Y36820D01*
X297717Y36776D01*
X297673Y36730D01*
X297632Y36680D01*
X297594Y36629D01*
X297560Y36575D01*
X297528Y36520D01*
X297500Y36462D01*
X297476Y36403D01*
X297455Y36343D01*
X297438Y36281D01*
X297424Y36219D01*
X297415Y36156D01*
X297409Y36092D01*
X297407Y36028D01*
X297406Y36028D02*
X297406Y34970D01*
X297406Y36240D02*
X295713Y37086D01*
X297830Y38606D02*
X297830Y39876D01*
X297828Y39931D01*
X297823Y39987D01*
X297814Y40041D01*
X297801Y40095D01*
X297785Y40148D01*
X297766Y40200D01*
X297743Y40251D01*
X297717Y40300D01*
X297687Y40347D01*
X297655Y40392D01*
X297620Y40434D01*
X297582Y40475D01*
X297541Y40513D01*
X297499Y40548D01*
X297454Y40580D01*
X297407Y40610D01*
X297358Y40636D01*
X297307Y40659D01*
X297255Y40678D01*
X297202Y40694D01*
X297148Y40707D01*
X297094Y40716D01*
X297038Y40721D01*
X296983Y40723D01*
X296771Y40723D01*
X296707Y40721D01*
X296643Y40715D01*
X296580Y40706D01*
X296518Y40692D01*
X296456Y40675D01*
X296396Y40654D01*
X296337Y40630D01*
X296279Y40602D01*
X296224Y40570D01*
X296170Y40536D01*
X296119Y40498D01*
X296069Y40457D01*
X296023Y40413D01*
X295979Y40367D01*
X295938Y40317D01*
X295900Y40266D01*
X295866Y40212D01*
X295834Y40157D01*
X295806Y40099D01*
X295782Y40040D01*
X295761Y39980D01*
X295744Y39918D01*
X295730Y39856D01*
X295721Y39793D01*
X295715Y39729D01*
X295713Y39665D01*
X295715Y39601D01*
X295721Y39537D01*
X295730Y39474D01*
X295744Y39412D01*
X295761Y39350D01*
X295782Y39290D01*
X295806Y39231D01*
X295834Y39173D01*
X295866Y39118D01*
X295900Y39064D01*
X295938Y39013D01*
X295979Y38963D01*
X296023Y38917D01*
X296069Y38873D01*
X296119Y38832D01*
X296170Y38794D01*
X296224Y38760D01*
X296279Y38728D01*
X296337Y38700D01*
X296396Y38676D01*
X296456Y38655D01*
X296518Y38638D01*
X296580Y38624D01*
X296643Y38615D01*
X296707Y38609D01*
X296771Y38607D01*
X296771Y38606D02*
X297830Y38606D01*
X297830Y38607D02*
X297911Y38609D01*
X297991Y38615D01*
X298071Y38624D01*
X298150Y38638D01*
X298229Y38655D01*
X298307Y38676D01*
X298384Y38700D01*
X298459Y38728D01*
X298533Y38760D01*
X298606Y38795D01*
X298676Y38834D01*
X298745Y38876D01*
X298812Y38921D01*
X298877Y38969D01*
X298939Y39021D01*
X298998Y39075D01*
X299055Y39132D01*
X299109Y39191D01*
X299161Y39253D01*
X299209Y39318D01*
X299254Y39385D01*
X299296Y39453D01*
X299335Y39524D01*
X299370Y39597D01*
X299402Y39671D01*
X299430Y39746D01*
X299454Y39823D01*
X299475Y39901D01*
X299492Y39980D01*
X299506Y40059D01*
X299515Y40139D01*
X299521Y40219D01*
X299523Y40300D01*
D10*
X194500Y64000D02*
X165500Y64000D01*
X165500Y86000D01*
X194500Y86000D01*
X194500Y64000D01*
X187000Y69000D02*
X187002Y69089D01*
X187008Y69178D01*
X187018Y69267D01*
X187032Y69355D01*
X187049Y69442D01*
X187071Y69528D01*
X187097Y69614D01*
X187126Y69698D01*
X187159Y69781D01*
X187195Y69862D01*
X187236Y69942D01*
X187279Y70019D01*
X187326Y70095D01*
X187377Y70168D01*
X187430Y70239D01*
X187487Y70308D01*
X187547Y70374D01*
X187610Y70438D01*
X187675Y70498D01*
X187743Y70556D01*
X187814Y70610D01*
X187887Y70661D01*
X187962Y70709D01*
X188039Y70754D01*
X188118Y70795D01*
X188199Y70832D01*
X188281Y70866D01*
X188365Y70897D01*
X188450Y70923D01*
X188536Y70946D01*
X188623Y70964D01*
X188711Y70979D01*
X188800Y70990D01*
X188889Y70997D01*
X188978Y71000D01*
X189067Y70999D01*
X189156Y70994D01*
X189244Y70985D01*
X189333Y70972D01*
X189420Y70955D01*
X189507Y70935D01*
X189593Y70910D01*
X189677Y70882D01*
X189760Y70850D01*
X189842Y70814D01*
X189922Y70775D01*
X190000Y70732D01*
X190076Y70686D01*
X190150Y70636D01*
X190222Y70583D01*
X190291Y70527D01*
X190358Y70468D01*
X190422Y70406D01*
X190483Y70342D01*
X190542Y70274D01*
X190597Y70204D01*
X190649Y70132D01*
X190698Y70057D01*
X190743Y69981D01*
X190785Y69902D01*
X190823Y69822D01*
X190858Y69740D01*
X190889Y69656D01*
X190917Y69571D01*
X190940Y69485D01*
X190960Y69398D01*
X190976Y69311D01*
X190988Y69222D01*
X190996Y69134D01*
X191000Y69045D01*
X191000Y68955D01*
X190996Y68866D01*
X190988Y68778D01*
X190976Y68689D01*
X190960Y68602D01*
X190940Y68515D01*
X190917Y68429D01*
X190889Y68344D01*
X190858Y68260D01*
X190823Y68178D01*
X190785Y68098D01*
X190743Y68019D01*
X190698Y67943D01*
X190649Y67868D01*
X190597Y67796D01*
X190542Y67726D01*
X190483Y67658D01*
X190422Y67594D01*
X190358Y67532D01*
X190291Y67473D01*
X190222Y67417D01*
X190150Y67364D01*
X190076Y67314D01*
X190000Y67268D01*
X189922Y67225D01*
X189842Y67186D01*
X189760Y67150D01*
X189677Y67118D01*
X189593Y67090D01*
X189507Y67065D01*
X189420Y67045D01*
X189333Y67028D01*
X189244Y67015D01*
X189156Y67006D01*
X189067Y67001D01*
X188978Y67000D01*
X188889Y67003D01*
X188800Y67010D01*
X188711Y67021D01*
X188623Y67036D01*
X188536Y67054D01*
X188450Y67077D01*
X188365Y67103D01*
X188281Y67134D01*
X188199Y67168D01*
X188118Y67205D01*
X188039Y67246D01*
X187962Y67291D01*
X187887Y67339D01*
X187814Y67390D01*
X187743Y67444D01*
X187675Y67502D01*
X187610Y67562D01*
X187547Y67626D01*
X187487Y67692D01*
X187430Y67761D01*
X187377Y67832D01*
X187326Y67905D01*
X187279Y67981D01*
X187236Y68058D01*
X187195Y68138D01*
X187159Y68219D01*
X187126Y68302D01*
X187097Y68386D01*
X187071Y68472D01*
X187049Y68558D01*
X187032Y68645D01*
X187018Y68733D01*
X187008Y68822D01*
X187002Y68911D01*
X187000Y69000D01*
D15*
X192573Y97987D02*
X192573Y101797D01*
X191303Y99680D01*
X190033Y101797D01*
X190033Y97987D01*
X188338Y99045D02*
X188338Y100739D01*
X188336Y100803D01*
X188330Y100867D01*
X188321Y100930D01*
X188307Y100992D01*
X188290Y101054D01*
X188269Y101114D01*
X188245Y101173D01*
X188217Y101231D01*
X188185Y101286D01*
X188151Y101340D01*
X188113Y101391D01*
X188072Y101441D01*
X188028Y101487D01*
X187982Y101531D01*
X187932Y101572D01*
X187881Y101610D01*
X187827Y101644D01*
X187772Y101676D01*
X187714Y101704D01*
X187655Y101728D01*
X187595Y101749D01*
X187533Y101766D01*
X187471Y101780D01*
X187408Y101789D01*
X187344Y101795D01*
X187280Y101797D01*
X187216Y101795D01*
X187152Y101789D01*
X187089Y101780D01*
X187027Y101766D01*
X186965Y101749D01*
X186905Y101728D01*
X186846Y101704D01*
X186788Y101676D01*
X186733Y101644D01*
X186679Y101610D01*
X186628Y101572D01*
X186578Y101531D01*
X186532Y101487D01*
X186488Y101441D01*
X186447Y101391D01*
X186409Y101340D01*
X186375Y101286D01*
X186343Y101231D01*
X186315Y101173D01*
X186291Y101114D01*
X186270Y101054D01*
X186253Y100992D01*
X186239Y100930D01*
X186230Y100867D01*
X186224Y100803D01*
X186222Y100739D01*
X186221Y100739D02*
X186221Y99045D01*
X186222Y99045D02*
X186224Y98981D01*
X186230Y98917D01*
X186239Y98854D01*
X186253Y98792D01*
X186270Y98730D01*
X186291Y98670D01*
X186315Y98611D01*
X186343Y98553D01*
X186375Y98498D01*
X186409Y98444D01*
X186447Y98393D01*
X186488Y98343D01*
X186532Y98297D01*
X186578Y98253D01*
X186628Y98212D01*
X186679Y98174D01*
X186733Y98140D01*
X186788Y98108D01*
X186846Y98080D01*
X186905Y98056D01*
X186965Y98035D01*
X187027Y98018D01*
X187089Y98004D01*
X187152Y97995D01*
X187216Y97989D01*
X187280Y97987D01*
X187344Y97989D01*
X187408Y97995D01*
X187471Y98004D01*
X187533Y98018D01*
X187595Y98035D01*
X187655Y98056D01*
X187714Y98080D01*
X187772Y98108D01*
X187827Y98140D01*
X187881Y98174D01*
X187932Y98212D01*
X187982Y98253D01*
X188028Y98297D01*
X188072Y98343D01*
X188113Y98393D01*
X188151Y98444D01*
X188185Y98498D01*
X188217Y98553D01*
X188245Y98611D01*
X188269Y98670D01*
X188290Y98730D01*
X188307Y98792D01*
X188321Y98854D01*
X188330Y98917D01*
X188336Y98981D01*
X188338Y99045D01*
X183532Y97987D02*
X183477Y97989D01*
X183421Y97994D01*
X183367Y98003D01*
X183313Y98016D01*
X183260Y98032D01*
X183208Y98051D01*
X183157Y98074D01*
X183109Y98100D01*
X183061Y98130D01*
X183016Y98162D01*
X182974Y98197D01*
X182933Y98235D01*
X182895Y98276D01*
X182860Y98318D01*
X182828Y98363D01*
X182798Y98411D01*
X182772Y98459D01*
X182749Y98510D01*
X182730Y98562D01*
X182714Y98615D01*
X182701Y98669D01*
X182692Y98723D01*
X182687Y98779D01*
X182685Y98834D01*
X183532Y97987D02*
X183615Y97989D01*
X183698Y97995D01*
X183780Y98004D01*
X183862Y98018D01*
X183944Y98035D01*
X184024Y98056D01*
X184103Y98081D01*
X184182Y98109D01*
X184258Y98141D01*
X184333Y98177D01*
X184407Y98215D01*
X184478Y98258D01*
X184548Y98303D01*
X184615Y98352D01*
X184680Y98404D01*
X184742Y98459D01*
X184802Y98516D01*
X184697Y100950D02*
X184695Y101005D01*
X184690Y101061D01*
X184681Y101115D01*
X184668Y101169D01*
X184652Y101222D01*
X184633Y101274D01*
X184610Y101325D01*
X184584Y101374D01*
X184554Y101421D01*
X184522Y101466D01*
X184487Y101508D01*
X184449Y101549D01*
X184408Y101587D01*
X184366Y101622D01*
X184321Y101654D01*
X184274Y101684D01*
X184225Y101710D01*
X184174Y101733D01*
X184122Y101752D01*
X184069Y101768D01*
X184015Y101781D01*
X183961Y101790D01*
X183905Y101795D01*
X183850Y101797D01*
X183850Y101798D02*
X183771Y101796D01*
X183693Y101790D01*
X183615Y101781D01*
X183538Y101767D01*
X183461Y101750D01*
X183385Y101728D01*
X183311Y101704D01*
X183237Y101675D01*
X183166Y101643D01*
X183096Y101607D01*
X183027Y101568D01*
X182961Y101526D01*
X182897Y101480D01*
X184274Y100209D02*
X184321Y100239D01*
X184366Y100272D01*
X184409Y100308D01*
X184449Y100346D01*
X184487Y100387D01*
X184522Y100430D01*
X184554Y100476D01*
X184584Y100523D01*
X184610Y100573D01*
X184633Y100624D01*
X184652Y100676D01*
X184668Y100729D01*
X184681Y100784D01*
X184690Y100839D01*
X184695Y100894D01*
X184697Y100950D01*
X183109Y99575D02*
X183062Y99545D01*
X183017Y99512D01*
X182974Y99476D01*
X182934Y99438D01*
X182896Y99397D01*
X182861Y99354D01*
X182829Y99308D01*
X182799Y99261D01*
X182773Y99211D01*
X182750Y99160D01*
X182731Y99108D01*
X182715Y99055D01*
X182702Y99000D01*
X182693Y98945D01*
X182688Y98890D01*
X182686Y98834D01*
X183109Y99575D02*
X184273Y100210D01*
X180103Y101798D02*
X180043Y101796D01*
X179984Y101790D01*
X179924Y101781D01*
X179866Y101768D01*
X179809Y101751D01*
X179752Y101731D01*
X179697Y101707D01*
X179644Y101680D01*
X179592Y101650D01*
X179543Y101616D01*
X179496Y101579D01*
X179451Y101540D01*
X179408Y101497D01*
X179369Y101452D01*
X179332Y101405D01*
X179298Y101356D01*
X179268Y101304D01*
X179241Y101251D01*
X179217Y101196D01*
X179197Y101139D01*
X179180Y101082D01*
X179167Y101024D01*
X179158Y100964D01*
X179152Y100905D01*
X179150Y100845D01*
X180103Y101797D02*
X180170Y101795D01*
X180237Y101790D01*
X180303Y101781D01*
X180369Y101768D01*
X180433Y101752D01*
X180497Y101732D01*
X180560Y101708D01*
X180622Y101682D01*
X180681Y101652D01*
X180739Y101619D01*
X180796Y101582D01*
X180850Y101543D01*
X180902Y101501D01*
X180951Y101456D01*
X180998Y101408D01*
X181042Y101358D01*
X181084Y101305D01*
X181122Y101250D01*
X181158Y101194D01*
X181190Y101135D01*
X181219Y101075D01*
X181245Y101013D01*
X181267Y100950D01*
X179467Y100104D02*
X179426Y100146D01*
X179387Y100191D01*
X179350Y100237D01*
X179316Y100286D01*
X179285Y100336D01*
X179258Y100388D01*
X179233Y100442D01*
X179211Y100497D01*
X179192Y100553D01*
X179177Y100610D01*
X179165Y100668D01*
X179157Y100727D01*
X179152Y100786D01*
X179150Y100845D01*
X179468Y100104D02*
X181267Y97987D01*
X179150Y97987D01*
D16*
X192005Y196458D02*
X192005Y208142D01*
X188760Y208142D01*
X188647Y208140D01*
X188534Y208134D01*
X188421Y208124D01*
X188308Y208110D01*
X188196Y208093D01*
X188085Y208071D01*
X187975Y208046D01*
X187865Y208016D01*
X187757Y207983D01*
X187650Y207946D01*
X187544Y207906D01*
X187440Y207861D01*
X187337Y207813D01*
X187236Y207762D01*
X187137Y207707D01*
X187040Y207649D01*
X186945Y207587D01*
X186852Y207522D01*
X186762Y207454D01*
X186674Y207383D01*
X186588Y207308D01*
X186505Y207231D01*
X186425Y207151D01*
X186348Y207068D01*
X186273Y206982D01*
X186202Y206894D01*
X186134Y206804D01*
X186069Y206711D01*
X186007Y206616D01*
X185949Y206519D01*
X185894Y206420D01*
X185843Y206319D01*
X185795Y206216D01*
X185750Y206112D01*
X185710Y206006D01*
X185673Y205899D01*
X185640Y205791D01*
X185610Y205681D01*
X185585Y205571D01*
X185563Y205460D01*
X185546Y205348D01*
X185532Y205235D01*
X185522Y205122D01*
X185516Y205009D01*
X185514Y204896D01*
X185516Y204783D01*
X185522Y204670D01*
X185532Y204557D01*
X185546Y204444D01*
X185563Y204332D01*
X185585Y204221D01*
X185610Y204111D01*
X185640Y204001D01*
X185673Y203893D01*
X185710Y203786D01*
X185750Y203680D01*
X185795Y203576D01*
X185843Y203473D01*
X185894Y203372D01*
X185949Y203273D01*
X186007Y203176D01*
X186069Y203081D01*
X186134Y202988D01*
X186202Y202898D01*
X186273Y202810D01*
X186348Y202724D01*
X186425Y202641D01*
X186505Y202561D01*
X186588Y202484D01*
X186674Y202409D01*
X186762Y202338D01*
X186852Y202270D01*
X186945Y202205D01*
X187040Y202143D01*
X187137Y202085D01*
X187236Y202030D01*
X187337Y201979D01*
X187440Y201931D01*
X187544Y201886D01*
X187650Y201846D01*
X187757Y201809D01*
X187865Y201776D01*
X187975Y201746D01*
X188085Y201721D01*
X188196Y201699D01*
X188308Y201682D01*
X188421Y201668D01*
X188534Y201658D01*
X188647Y201652D01*
X188760Y201650D01*
X188760Y201651D02*
X192005Y201651D01*
X188111Y201651D02*
X185514Y196458D01*
X180649Y196458D02*
X176754Y196458D01*
X176655Y196460D01*
X176555Y196466D01*
X176456Y196475D01*
X176358Y196488D01*
X176260Y196505D01*
X176162Y196526D01*
X176066Y196551D01*
X175971Y196579D01*
X175877Y196611D01*
X175784Y196646D01*
X175692Y196685D01*
X175602Y196728D01*
X175514Y196773D01*
X175427Y196823D01*
X175343Y196875D01*
X175260Y196931D01*
X175180Y196989D01*
X175102Y197051D01*
X175027Y197116D01*
X174954Y197184D01*
X174884Y197254D01*
X174816Y197327D01*
X174751Y197402D01*
X174689Y197480D01*
X174631Y197560D01*
X174575Y197643D01*
X174523Y197727D01*
X174473Y197814D01*
X174428Y197902D01*
X174385Y197992D01*
X174346Y198084D01*
X174311Y198177D01*
X174279Y198271D01*
X174251Y198366D01*
X174226Y198462D01*
X174205Y198560D01*
X174188Y198658D01*
X174175Y198756D01*
X174166Y198855D01*
X174160Y198955D01*
X174158Y199054D01*
X174158Y200353D01*
X174160Y200452D01*
X174166Y200552D01*
X174175Y200651D01*
X174188Y200749D01*
X174205Y200847D01*
X174226Y200945D01*
X174251Y201041D01*
X174279Y201136D01*
X174311Y201230D01*
X174346Y201323D01*
X174385Y201415D01*
X174428Y201505D01*
X174473Y201593D01*
X174523Y201680D01*
X174575Y201764D01*
X174631Y201847D01*
X174689Y201927D01*
X174751Y202005D01*
X174816Y202080D01*
X174884Y202153D01*
X174954Y202223D01*
X175027Y202291D01*
X175102Y202356D01*
X175180Y202418D01*
X175260Y202476D01*
X175343Y202532D01*
X175427Y202584D01*
X175514Y202634D01*
X175602Y202679D01*
X175692Y202722D01*
X175784Y202761D01*
X175877Y202796D01*
X175971Y202828D01*
X176066Y202856D01*
X176162Y202881D01*
X176260Y202902D01*
X176358Y202919D01*
X176456Y202932D01*
X176555Y202941D01*
X176655Y202947D01*
X176754Y202949D01*
X180649Y202949D01*
X180649Y208142D01*
X174158Y208142D01*
D10*
X270500Y64000D02*
X299500Y64000D01*
X270500Y64000D02*
X270500Y86000D01*
X299500Y86000D01*
X299500Y64000D01*
X292000Y69000D02*
X292002Y69089D01*
X292008Y69178D01*
X292018Y69267D01*
X292032Y69355D01*
X292049Y69442D01*
X292071Y69528D01*
X292097Y69614D01*
X292126Y69698D01*
X292159Y69781D01*
X292195Y69862D01*
X292236Y69942D01*
X292279Y70019D01*
X292326Y70095D01*
X292377Y70168D01*
X292430Y70239D01*
X292487Y70308D01*
X292547Y70374D01*
X292610Y70438D01*
X292675Y70498D01*
X292743Y70556D01*
X292814Y70610D01*
X292887Y70661D01*
X292962Y70709D01*
X293039Y70754D01*
X293118Y70795D01*
X293199Y70832D01*
X293281Y70866D01*
X293365Y70897D01*
X293450Y70923D01*
X293536Y70946D01*
X293623Y70964D01*
X293711Y70979D01*
X293800Y70990D01*
X293889Y70997D01*
X293978Y71000D01*
X294067Y70999D01*
X294156Y70994D01*
X294244Y70985D01*
X294333Y70972D01*
X294420Y70955D01*
X294507Y70935D01*
X294593Y70910D01*
X294677Y70882D01*
X294760Y70850D01*
X294842Y70814D01*
X294922Y70775D01*
X295000Y70732D01*
X295076Y70686D01*
X295150Y70636D01*
X295222Y70583D01*
X295291Y70527D01*
X295358Y70468D01*
X295422Y70406D01*
X295483Y70342D01*
X295542Y70274D01*
X295597Y70204D01*
X295649Y70132D01*
X295698Y70057D01*
X295743Y69981D01*
X295785Y69902D01*
X295823Y69822D01*
X295858Y69740D01*
X295889Y69656D01*
X295917Y69571D01*
X295940Y69485D01*
X295960Y69398D01*
X295976Y69311D01*
X295988Y69222D01*
X295996Y69134D01*
X296000Y69045D01*
X296000Y68955D01*
X295996Y68866D01*
X295988Y68778D01*
X295976Y68689D01*
X295960Y68602D01*
X295940Y68515D01*
X295917Y68429D01*
X295889Y68344D01*
X295858Y68260D01*
X295823Y68178D01*
X295785Y68098D01*
X295743Y68019D01*
X295698Y67943D01*
X295649Y67868D01*
X295597Y67796D01*
X295542Y67726D01*
X295483Y67658D01*
X295422Y67594D01*
X295358Y67532D01*
X295291Y67473D01*
X295222Y67417D01*
X295150Y67364D01*
X295076Y67314D01*
X295000Y67268D01*
X294922Y67225D01*
X294842Y67186D01*
X294760Y67150D01*
X294677Y67118D01*
X294593Y67090D01*
X294507Y67065D01*
X294420Y67045D01*
X294333Y67028D01*
X294244Y67015D01*
X294156Y67006D01*
X294067Y67001D01*
X293978Y67000D01*
X293889Y67003D01*
X293800Y67010D01*
X293711Y67021D01*
X293623Y67036D01*
X293536Y67054D01*
X293450Y67077D01*
X293365Y67103D01*
X293281Y67134D01*
X293199Y67168D01*
X293118Y67205D01*
X293039Y67246D01*
X292962Y67291D01*
X292887Y67339D01*
X292814Y67390D01*
X292743Y67444D01*
X292675Y67502D01*
X292610Y67562D01*
X292547Y67626D01*
X292487Y67692D01*
X292430Y67761D01*
X292377Y67832D01*
X292326Y67905D01*
X292279Y67981D01*
X292236Y68058D01*
X292195Y68138D01*
X292159Y68219D01*
X292126Y68302D01*
X292097Y68386D01*
X292071Y68472D01*
X292049Y68558D01*
X292032Y68645D01*
X292018Y68733D01*
X292008Y68822D01*
X292002Y68911D01*
X292000Y69000D01*
D15*
X297573Y97987D02*
X297573Y101797D01*
X296303Y99680D01*
X295033Y101797D01*
X295033Y97987D01*
X293338Y99045D02*
X293338Y100739D01*
X293336Y100803D01*
X293330Y100867D01*
X293321Y100930D01*
X293307Y100992D01*
X293290Y101054D01*
X293269Y101114D01*
X293245Y101173D01*
X293217Y101231D01*
X293185Y101286D01*
X293151Y101340D01*
X293113Y101391D01*
X293072Y101441D01*
X293028Y101487D01*
X292982Y101531D01*
X292932Y101572D01*
X292881Y101610D01*
X292827Y101644D01*
X292772Y101676D01*
X292714Y101704D01*
X292655Y101728D01*
X292595Y101749D01*
X292533Y101766D01*
X292471Y101780D01*
X292408Y101789D01*
X292344Y101795D01*
X292280Y101797D01*
X292216Y101795D01*
X292152Y101789D01*
X292089Y101780D01*
X292027Y101766D01*
X291965Y101749D01*
X291905Y101728D01*
X291846Y101704D01*
X291788Y101676D01*
X291733Y101644D01*
X291679Y101610D01*
X291628Y101572D01*
X291578Y101531D01*
X291532Y101487D01*
X291488Y101441D01*
X291447Y101391D01*
X291409Y101340D01*
X291375Y101286D01*
X291343Y101231D01*
X291315Y101173D01*
X291291Y101114D01*
X291270Y101054D01*
X291253Y100992D01*
X291239Y100930D01*
X291230Y100867D01*
X291224Y100803D01*
X291222Y100739D01*
X291221Y100739D02*
X291221Y99045D01*
X291222Y99045D02*
X291224Y98981D01*
X291230Y98917D01*
X291239Y98854D01*
X291253Y98792D01*
X291270Y98730D01*
X291291Y98670D01*
X291315Y98611D01*
X291343Y98553D01*
X291375Y98498D01*
X291409Y98444D01*
X291447Y98393D01*
X291488Y98343D01*
X291532Y98297D01*
X291578Y98253D01*
X291628Y98212D01*
X291679Y98174D01*
X291733Y98140D01*
X291788Y98108D01*
X291846Y98080D01*
X291905Y98056D01*
X291965Y98035D01*
X292027Y98018D01*
X292089Y98004D01*
X292152Y97995D01*
X292216Y97989D01*
X292280Y97987D01*
X292344Y97989D01*
X292408Y97995D01*
X292471Y98004D01*
X292533Y98018D01*
X292595Y98035D01*
X292655Y98056D01*
X292714Y98080D01*
X292772Y98108D01*
X292827Y98140D01*
X292881Y98174D01*
X292932Y98212D01*
X292982Y98253D01*
X293028Y98297D01*
X293072Y98343D01*
X293113Y98393D01*
X293151Y98444D01*
X293185Y98498D01*
X293217Y98553D01*
X293245Y98611D01*
X293269Y98670D01*
X293290Y98730D01*
X293307Y98792D01*
X293321Y98854D01*
X293330Y98917D01*
X293336Y98981D01*
X293338Y99045D01*
X288532Y97987D02*
X288477Y97989D01*
X288421Y97994D01*
X288367Y98003D01*
X288313Y98016D01*
X288260Y98032D01*
X288208Y98051D01*
X288157Y98074D01*
X288109Y98100D01*
X288061Y98130D01*
X288016Y98162D01*
X287974Y98197D01*
X287933Y98235D01*
X287895Y98276D01*
X287860Y98318D01*
X287828Y98363D01*
X287798Y98411D01*
X287772Y98459D01*
X287749Y98510D01*
X287730Y98562D01*
X287714Y98615D01*
X287701Y98669D01*
X287692Y98723D01*
X287687Y98779D01*
X287685Y98834D01*
X288532Y97987D02*
X288615Y97989D01*
X288698Y97995D01*
X288780Y98004D01*
X288862Y98018D01*
X288944Y98035D01*
X289024Y98056D01*
X289103Y98081D01*
X289182Y98109D01*
X289258Y98141D01*
X289333Y98177D01*
X289407Y98215D01*
X289478Y98258D01*
X289548Y98303D01*
X289615Y98352D01*
X289680Y98404D01*
X289742Y98459D01*
X289802Y98516D01*
X289697Y100950D02*
X289695Y101005D01*
X289690Y101061D01*
X289681Y101115D01*
X289668Y101169D01*
X289652Y101222D01*
X289633Y101274D01*
X289610Y101325D01*
X289584Y101374D01*
X289554Y101421D01*
X289522Y101466D01*
X289487Y101508D01*
X289449Y101549D01*
X289408Y101587D01*
X289366Y101622D01*
X289321Y101654D01*
X289274Y101684D01*
X289225Y101710D01*
X289174Y101733D01*
X289122Y101752D01*
X289069Y101768D01*
X289015Y101781D01*
X288961Y101790D01*
X288905Y101795D01*
X288850Y101797D01*
X288850Y101798D02*
X288771Y101796D01*
X288693Y101790D01*
X288615Y101781D01*
X288538Y101767D01*
X288461Y101750D01*
X288385Y101728D01*
X288311Y101704D01*
X288237Y101675D01*
X288166Y101643D01*
X288096Y101607D01*
X288027Y101568D01*
X287961Y101526D01*
X287897Y101480D01*
X289274Y100209D02*
X289321Y100239D01*
X289366Y100272D01*
X289409Y100308D01*
X289449Y100346D01*
X289487Y100387D01*
X289522Y100430D01*
X289554Y100476D01*
X289584Y100523D01*
X289610Y100573D01*
X289633Y100624D01*
X289652Y100676D01*
X289668Y100729D01*
X289681Y100784D01*
X289690Y100839D01*
X289695Y100894D01*
X289697Y100950D01*
X288109Y99575D02*
X288062Y99545D01*
X288017Y99512D01*
X287974Y99476D01*
X287934Y99438D01*
X287896Y99397D01*
X287861Y99354D01*
X287829Y99308D01*
X287799Y99261D01*
X287773Y99211D01*
X287750Y99160D01*
X287731Y99108D01*
X287715Y99055D01*
X287702Y99000D01*
X287693Y98945D01*
X287688Y98890D01*
X287686Y98834D01*
X288109Y99575D02*
X289273Y100210D01*
X286267Y100950D02*
X285208Y101797D01*
X285208Y97987D01*
X284150Y97987D02*
X286267Y97987D01*
D16*
X290842Y221858D02*
X290842Y233542D01*
X287596Y233542D01*
X287483Y233540D01*
X287370Y233534D01*
X287257Y233524D01*
X287144Y233510D01*
X287032Y233493D01*
X286921Y233471D01*
X286811Y233446D01*
X286701Y233416D01*
X286593Y233383D01*
X286486Y233346D01*
X286380Y233306D01*
X286276Y233261D01*
X286173Y233213D01*
X286072Y233162D01*
X285973Y233107D01*
X285876Y233049D01*
X285781Y232987D01*
X285688Y232922D01*
X285598Y232854D01*
X285510Y232783D01*
X285424Y232708D01*
X285341Y232631D01*
X285261Y232551D01*
X285184Y232468D01*
X285109Y232382D01*
X285038Y232294D01*
X284970Y232204D01*
X284905Y232111D01*
X284843Y232016D01*
X284785Y231919D01*
X284730Y231820D01*
X284679Y231719D01*
X284631Y231616D01*
X284586Y231512D01*
X284546Y231406D01*
X284509Y231299D01*
X284476Y231191D01*
X284446Y231081D01*
X284421Y230971D01*
X284399Y230860D01*
X284382Y230748D01*
X284368Y230635D01*
X284358Y230522D01*
X284352Y230409D01*
X284350Y230296D01*
X284352Y230183D01*
X284358Y230070D01*
X284368Y229957D01*
X284382Y229844D01*
X284399Y229732D01*
X284421Y229621D01*
X284446Y229511D01*
X284476Y229401D01*
X284509Y229293D01*
X284546Y229186D01*
X284586Y229080D01*
X284631Y228976D01*
X284679Y228873D01*
X284730Y228772D01*
X284785Y228673D01*
X284843Y228576D01*
X284905Y228481D01*
X284970Y228388D01*
X285038Y228298D01*
X285109Y228210D01*
X285184Y228124D01*
X285261Y228041D01*
X285341Y227961D01*
X285424Y227884D01*
X285510Y227809D01*
X285598Y227738D01*
X285688Y227670D01*
X285781Y227605D01*
X285876Y227543D01*
X285973Y227485D01*
X286072Y227430D01*
X286173Y227379D01*
X286276Y227331D01*
X286380Y227286D01*
X286486Y227246D01*
X286593Y227209D01*
X286701Y227176D01*
X286811Y227146D01*
X286921Y227121D01*
X287032Y227099D01*
X287144Y227082D01*
X287257Y227068D01*
X287370Y227058D01*
X287483Y227052D01*
X287596Y227050D01*
X287596Y227051D02*
X290842Y227051D01*
X286947Y227051D02*
X284351Y221858D01*
X279486Y224454D02*
X276889Y233542D01*
X279486Y224454D02*
X272995Y224454D01*
X274942Y227051D02*
X274942Y221858D01*
D11*
X363650Y325000D02*
X370000Y325000D01*
X380160Y318650D02*
X380160Y331350D01*
X370000Y325000D01*
X385240Y325000D01*
X380160Y318650D02*
X370000Y325000D01*
X370000Y318650D01*
X370000Y325000D02*
X370000Y331350D01*
X390320Y314840D02*
X390420Y314842D01*
X390519Y314848D01*
X390619Y314858D01*
X390717Y314871D01*
X390816Y314889D01*
X390913Y314910D01*
X391009Y314935D01*
X391105Y314964D01*
X391199Y314997D01*
X391292Y315033D01*
X391383Y315073D01*
X391473Y315117D01*
X391561Y315164D01*
X391647Y315214D01*
X391731Y315268D01*
X391813Y315325D01*
X391892Y315385D01*
X391970Y315449D01*
X392044Y315515D01*
X392116Y315584D01*
X392185Y315656D01*
X392251Y315730D01*
X392315Y315808D01*
X392375Y315887D01*
X392432Y315969D01*
X392486Y316053D01*
X392536Y316139D01*
X392583Y316227D01*
X392627Y316317D01*
X392667Y316408D01*
X392703Y316501D01*
X392736Y316595D01*
X392765Y316691D01*
X392790Y316787D01*
X392811Y316884D01*
X392829Y316983D01*
X392842Y317081D01*
X392852Y317181D01*
X392858Y317280D01*
X392860Y317380D01*
X392860Y332620D01*
X392858Y332720D01*
X392852Y332819D01*
X392842Y332919D01*
X392829Y333017D01*
X392811Y333116D01*
X392790Y333213D01*
X392765Y333309D01*
X392736Y333405D01*
X392703Y333499D01*
X392667Y333592D01*
X392627Y333683D01*
X392583Y333773D01*
X392536Y333861D01*
X392486Y333947D01*
X392432Y334031D01*
X392375Y334113D01*
X392315Y334192D01*
X392251Y334270D01*
X392185Y334344D01*
X392116Y334416D01*
X392044Y334485D01*
X391970Y334551D01*
X391892Y334615D01*
X391813Y334675D01*
X391731Y334732D01*
X391647Y334786D01*
X391561Y334836D01*
X391473Y334883D01*
X391383Y334927D01*
X391292Y334967D01*
X391199Y335003D01*
X391105Y335036D01*
X391009Y335065D01*
X390913Y335090D01*
X390816Y335111D01*
X390717Y335129D01*
X390619Y335142D01*
X390519Y335152D01*
X390420Y335158D01*
X390320Y335160D01*
X349680Y314840D02*
X349580Y314842D01*
X349481Y314848D01*
X349381Y314858D01*
X349283Y314871D01*
X349184Y314889D01*
X349087Y314910D01*
X348991Y314935D01*
X348895Y314964D01*
X348801Y314997D01*
X348708Y315033D01*
X348617Y315073D01*
X348527Y315117D01*
X348439Y315164D01*
X348353Y315214D01*
X348269Y315268D01*
X348187Y315325D01*
X348108Y315385D01*
X348030Y315449D01*
X347956Y315515D01*
X347884Y315584D01*
X347815Y315656D01*
X347749Y315730D01*
X347685Y315808D01*
X347625Y315887D01*
X347568Y315969D01*
X347514Y316053D01*
X347464Y316139D01*
X347417Y316227D01*
X347373Y316317D01*
X347333Y316408D01*
X347297Y316501D01*
X347264Y316595D01*
X347235Y316691D01*
X347210Y316787D01*
X347189Y316884D01*
X347171Y316983D01*
X347158Y317081D01*
X347148Y317181D01*
X347142Y317280D01*
X347140Y317380D01*
X347140Y332620D02*
X347142Y332720D01*
X347148Y332819D01*
X347158Y332919D01*
X347171Y333017D01*
X347189Y333116D01*
X347210Y333213D01*
X347235Y333309D01*
X347264Y333405D01*
X347297Y333499D01*
X347333Y333592D01*
X347373Y333683D01*
X347417Y333773D01*
X347464Y333861D01*
X347514Y333947D01*
X347568Y334031D01*
X347625Y334113D01*
X347685Y334192D01*
X347749Y334270D01*
X347815Y334344D01*
X347884Y334416D01*
X347956Y334485D01*
X348030Y334551D01*
X348108Y334615D01*
X348187Y334675D01*
X348269Y334732D01*
X348353Y334786D01*
X348439Y334836D01*
X348527Y334883D01*
X348617Y334927D01*
X348708Y334967D01*
X348801Y335003D01*
X348895Y335036D01*
X348991Y335065D01*
X349087Y335090D01*
X349184Y335111D01*
X349283Y335129D01*
X349381Y335142D01*
X349481Y335152D01*
X349580Y335158D01*
X349680Y335160D01*
X390320Y335160D01*
X347140Y332620D02*
X347140Y317380D01*
X349680Y314840D02*
X390320Y314840D01*
D12*
X353490Y325000D03*
D13*
X396035Y325000D03*
X343965Y325000D03*
D10*
X365936Y311665D02*
X365936Y300235D01*
X365936Y311665D02*
X362761Y311665D01*
X362650Y311663D01*
X362540Y311657D01*
X362429Y311648D01*
X362319Y311634D01*
X362210Y311617D01*
X362101Y311596D01*
X361993Y311571D01*
X361886Y311542D01*
X361780Y311510D01*
X361675Y311474D01*
X361572Y311434D01*
X361470Y311391D01*
X361369Y311344D01*
X361270Y311293D01*
X361174Y311240D01*
X361079Y311183D01*
X360986Y311122D01*
X360895Y311059D01*
X360806Y310992D01*
X360720Y310922D01*
X360637Y310849D01*
X360555Y310774D01*
X360477Y310696D01*
X360402Y310614D01*
X360329Y310531D01*
X360259Y310445D01*
X360192Y310356D01*
X360129Y310265D01*
X360068Y310172D01*
X360011Y310078D01*
X359958Y309981D01*
X359907Y309882D01*
X359860Y309781D01*
X359817Y309679D01*
X359777Y309576D01*
X359741Y309471D01*
X359709Y309365D01*
X359680Y309258D01*
X359655Y309150D01*
X359634Y309041D01*
X359617Y308932D01*
X359603Y308822D01*
X359594Y308711D01*
X359588Y308601D01*
X359586Y308490D01*
X359586Y303410D01*
X359588Y303299D01*
X359594Y303189D01*
X359603Y303078D01*
X359617Y302968D01*
X359634Y302859D01*
X359655Y302750D01*
X359680Y302642D01*
X359709Y302535D01*
X359741Y302429D01*
X359777Y302324D01*
X359817Y302221D01*
X359860Y302119D01*
X359907Y302018D01*
X359958Y301919D01*
X360011Y301823D01*
X360068Y301728D01*
X360129Y301635D01*
X360192Y301544D01*
X360259Y301455D01*
X360329Y301369D01*
X360402Y301286D01*
X360477Y301204D01*
X360555Y301126D01*
X360637Y301051D01*
X360720Y300978D01*
X360806Y300908D01*
X360895Y300841D01*
X360986Y300778D01*
X361079Y300717D01*
X361174Y300660D01*
X361270Y300607D01*
X361369Y300556D01*
X361470Y300509D01*
X361572Y300466D01*
X361675Y300426D01*
X361780Y300390D01*
X361886Y300358D01*
X361993Y300329D01*
X362101Y300304D01*
X362210Y300283D01*
X362319Y300266D01*
X362429Y300252D01*
X362540Y300243D01*
X362650Y300237D01*
X362761Y300235D01*
X365936Y300235D01*
X354125Y300235D02*
X350950Y300235D01*
X350839Y300237D01*
X350729Y300243D01*
X350618Y300252D01*
X350508Y300266D01*
X350399Y300283D01*
X350290Y300304D01*
X350182Y300329D01*
X350075Y300358D01*
X349969Y300390D01*
X349864Y300426D01*
X349761Y300466D01*
X349659Y300509D01*
X349558Y300556D01*
X349459Y300607D01*
X349363Y300660D01*
X349268Y300717D01*
X349175Y300778D01*
X349084Y300841D01*
X348995Y300908D01*
X348909Y300978D01*
X348826Y301051D01*
X348744Y301126D01*
X348666Y301204D01*
X348591Y301286D01*
X348518Y301369D01*
X348448Y301455D01*
X348381Y301544D01*
X348318Y301635D01*
X348257Y301728D01*
X348200Y301823D01*
X348147Y301919D01*
X348096Y302018D01*
X348049Y302119D01*
X348006Y302221D01*
X347966Y302324D01*
X347930Y302429D01*
X347898Y302535D01*
X347869Y302642D01*
X347844Y302750D01*
X347823Y302859D01*
X347806Y302968D01*
X347792Y303078D01*
X347783Y303189D01*
X347777Y303299D01*
X347775Y303410D01*
X347777Y303521D01*
X347783Y303631D01*
X347792Y303742D01*
X347806Y303852D01*
X347823Y303961D01*
X347844Y304070D01*
X347869Y304178D01*
X347898Y304285D01*
X347930Y304391D01*
X347966Y304496D01*
X348006Y304599D01*
X348049Y304701D01*
X348096Y304802D01*
X348147Y304901D01*
X348200Y304998D01*
X348257Y305092D01*
X348318Y305185D01*
X348381Y305276D01*
X348448Y305365D01*
X348518Y305451D01*
X348591Y305534D01*
X348666Y305616D01*
X348744Y305694D01*
X348826Y305769D01*
X348909Y305842D01*
X348995Y305912D01*
X349084Y305979D01*
X349175Y306042D01*
X349268Y306103D01*
X349363Y306160D01*
X349459Y306213D01*
X349558Y306264D01*
X349659Y306311D01*
X349761Y306354D01*
X349864Y306394D01*
X349969Y306430D01*
X350075Y306462D01*
X350182Y306491D01*
X350290Y306516D01*
X350399Y306537D01*
X350508Y306554D01*
X350618Y306568D01*
X350729Y306577D01*
X350839Y306583D01*
X350950Y306585D01*
X350315Y311665D02*
X354125Y311665D01*
X350315Y311665D02*
X350215Y311663D01*
X350116Y311657D01*
X350016Y311647D01*
X349918Y311634D01*
X349819Y311616D01*
X349722Y311595D01*
X349626Y311570D01*
X349530Y311541D01*
X349436Y311508D01*
X349343Y311472D01*
X349252Y311432D01*
X349162Y311388D01*
X349074Y311341D01*
X348988Y311291D01*
X348904Y311237D01*
X348822Y311180D01*
X348743Y311120D01*
X348665Y311056D01*
X348591Y310990D01*
X348519Y310921D01*
X348450Y310849D01*
X348384Y310775D01*
X348320Y310697D01*
X348260Y310618D01*
X348203Y310536D01*
X348149Y310452D01*
X348099Y310366D01*
X348052Y310278D01*
X348008Y310188D01*
X347968Y310097D01*
X347932Y310004D01*
X347899Y309910D01*
X347870Y309814D01*
X347845Y309718D01*
X347824Y309621D01*
X347806Y309522D01*
X347793Y309424D01*
X347783Y309324D01*
X347777Y309225D01*
X347775Y309125D01*
X347777Y309025D01*
X347783Y308926D01*
X347793Y308826D01*
X347806Y308728D01*
X347824Y308629D01*
X347845Y308532D01*
X347870Y308436D01*
X347899Y308340D01*
X347932Y308246D01*
X347968Y308153D01*
X348008Y308062D01*
X348052Y307972D01*
X348099Y307884D01*
X348149Y307798D01*
X348203Y307714D01*
X348260Y307632D01*
X348320Y307553D01*
X348384Y307475D01*
X348450Y307401D01*
X348519Y307329D01*
X348591Y307260D01*
X348665Y307194D01*
X348743Y307130D01*
X348822Y307070D01*
X348904Y307013D01*
X348988Y306959D01*
X349074Y306909D01*
X349162Y306862D01*
X349252Y306818D01*
X349343Y306778D01*
X349436Y306742D01*
X349530Y306709D01*
X349626Y306680D01*
X349722Y306655D01*
X349819Y306634D01*
X349918Y306616D01*
X350016Y306603D01*
X350116Y306593D01*
X350215Y306587D01*
X350315Y306585D01*
X352855Y306585D01*
X370500Y249000D02*
X399500Y249000D01*
X370500Y249000D02*
X370500Y271000D01*
X399500Y271000D01*
X399500Y249000D01*
X392000Y254000D02*
X392002Y254089D01*
X392008Y254178D01*
X392018Y254267D01*
X392032Y254355D01*
X392049Y254442D01*
X392071Y254528D01*
X392097Y254614D01*
X392126Y254698D01*
X392159Y254781D01*
X392195Y254862D01*
X392236Y254942D01*
X392279Y255019D01*
X392326Y255095D01*
X392377Y255168D01*
X392430Y255239D01*
X392487Y255308D01*
X392547Y255374D01*
X392610Y255438D01*
X392675Y255498D01*
X392743Y255556D01*
X392814Y255610D01*
X392887Y255661D01*
X392962Y255709D01*
X393039Y255754D01*
X393118Y255795D01*
X393199Y255832D01*
X393281Y255866D01*
X393365Y255897D01*
X393450Y255923D01*
X393536Y255946D01*
X393623Y255964D01*
X393711Y255979D01*
X393800Y255990D01*
X393889Y255997D01*
X393978Y256000D01*
X394067Y255999D01*
X394156Y255994D01*
X394244Y255985D01*
X394333Y255972D01*
X394420Y255955D01*
X394507Y255935D01*
X394593Y255910D01*
X394677Y255882D01*
X394760Y255850D01*
X394842Y255814D01*
X394922Y255775D01*
X395000Y255732D01*
X395076Y255686D01*
X395150Y255636D01*
X395222Y255583D01*
X395291Y255527D01*
X395358Y255468D01*
X395422Y255406D01*
X395483Y255342D01*
X395542Y255274D01*
X395597Y255204D01*
X395649Y255132D01*
X395698Y255057D01*
X395743Y254981D01*
X395785Y254902D01*
X395823Y254822D01*
X395858Y254740D01*
X395889Y254656D01*
X395917Y254571D01*
X395940Y254485D01*
X395960Y254398D01*
X395976Y254311D01*
X395988Y254222D01*
X395996Y254134D01*
X396000Y254045D01*
X396000Y253955D01*
X395996Y253866D01*
X395988Y253778D01*
X395976Y253689D01*
X395960Y253602D01*
X395940Y253515D01*
X395917Y253429D01*
X395889Y253344D01*
X395858Y253260D01*
X395823Y253178D01*
X395785Y253098D01*
X395743Y253019D01*
X395698Y252943D01*
X395649Y252868D01*
X395597Y252796D01*
X395542Y252726D01*
X395483Y252658D01*
X395422Y252594D01*
X395358Y252532D01*
X395291Y252473D01*
X395222Y252417D01*
X395150Y252364D01*
X395076Y252314D01*
X395000Y252268D01*
X394922Y252225D01*
X394842Y252186D01*
X394760Y252150D01*
X394677Y252118D01*
X394593Y252090D01*
X394507Y252065D01*
X394420Y252045D01*
X394333Y252028D01*
X394244Y252015D01*
X394156Y252006D01*
X394067Y252001D01*
X393978Y252000D01*
X393889Y252003D01*
X393800Y252010D01*
X393711Y252021D01*
X393623Y252036D01*
X393536Y252054D01*
X393450Y252077D01*
X393365Y252103D01*
X393281Y252134D01*
X393199Y252168D01*
X393118Y252205D01*
X393039Y252246D01*
X392962Y252291D01*
X392887Y252339D01*
X392814Y252390D01*
X392743Y252444D01*
X392675Y252502D01*
X392610Y252562D01*
X392547Y252626D01*
X392487Y252692D01*
X392430Y252761D01*
X392377Y252832D01*
X392326Y252905D01*
X392279Y252981D01*
X392236Y253058D01*
X392195Y253138D01*
X392159Y253219D01*
X392126Y253302D01*
X392097Y253386D01*
X392071Y253472D01*
X392049Y253558D01*
X392032Y253645D01*
X392018Y253733D01*
X392008Y253822D01*
X392002Y253911D01*
X392000Y254000D01*
D15*
X397573Y282987D02*
X397573Y286797D01*
X396303Y284680D01*
X395033Y286797D01*
X395033Y282987D01*
X393338Y284045D02*
X393338Y285739D01*
X393336Y285803D01*
X393330Y285867D01*
X393321Y285930D01*
X393307Y285992D01*
X393290Y286054D01*
X393269Y286114D01*
X393245Y286173D01*
X393217Y286231D01*
X393185Y286286D01*
X393151Y286340D01*
X393113Y286391D01*
X393072Y286441D01*
X393028Y286487D01*
X392982Y286531D01*
X392932Y286572D01*
X392881Y286610D01*
X392827Y286644D01*
X392772Y286676D01*
X392714Y286704D01*
X392655Y286728D01*
X392595Y286749D01*
X392533Y286766D01*
X392471Y286780D01*
X392408Y286789D01*
X392344Y286795D01*
X392280Y286797D01*
X392216Y286795D01*
X392152Y286789D01*
X392089Y286780D01*
X392027Y286766D01*
X391965Y286749D01*
X391905Y286728D01*
X391846Y286704D01*
X391788Y286676D01*
X391733Y286644D01*
X391679Y286610D01*
X391628Y286572D01*
X391578Y286531D01*
X391532Y286487D01*
X391488Y286441D01*
X391447Y286391D01*
X391409Y286340D01*
X391375Y286286D01*
X391343Y286231D01*
X391315Y286173D01*
X391291Y286114D01*
X391270Y286054D01*
X391253Y285992D01*
X391239Y285930D01*
X391230Y285867D01*
X391224Y285803D01*
X391222Y285739D01*
X391221Y285739D02*
X391221Y284045D01*
X391222Y284045D02*
X391224Y283981D01*
X391230Y283917D01*
X391239Y283854D01*
X391253Y283792D01*
X391270Y283730D01*
X391291Y283670D01*
X391315Y283611D01*
X391343Y283553D01*
X391375Y283498D01*
X391409Y283444D01*
X391447Y283393D01*
X391488Y283343D01*
X391532Y283297D01*
X391578Y283253D01*
X391628Y283212D01*
X391679Y283174D01*
X391733Y283140D01*
X391788Y283108D01*
X391846Y283080D01*
X391905Y283056D01*
X391965Y283035D01*
X392027Y283018D01*
X392089Y283004D01*
X392152Y282995D01*
X392216Y282989D01*
X392280Y282987D01*
X392344Y282989D01*
X392408Y282995D01*
X392471Y283004D01*
X392533Y283018D01*
X392595Y283035D01*
X392655Y283056D01*
X392714Y283080D01*
X392772Y283108D01*
X392827Y283140D01*
X392881Y283174D01*
X392932Y283212D01*
X392982Y283253D01*
X393028Y283297D01*
X393072Y283343D01*
X393113Y283393D01*
X393151Y283444D01*
X393185Y283498D01*
X393217Y283553D01*
X393245Y283611D01*
X393269Y283670D01*
X393290Y283730D01*
X393307Y283792D01*
X393321Y283854D01*
X393330Y283917D01*
X393336Y283981D01*
X393338Y284045D01*
X388532Y282987D02*
X388477Y282989D01*
X388421Y282994D01*
X388367Y283003D01*
X388313Y283016D01*
X388260Y283032D01*
X388208Y283051D01*
X388157Y283074D01*
X388109Y283100D01*
X388061Y283130D01*
X388016Y283162D01*
X387974Y283197D01*
X387933Y283235D01*
X387895Y283276D01*
X387860Y283318D01*
X387828Y283363D01*
X387798Y283411D01*
X387772Y283459D01*
X387749Y283510D01*
X387730Y283562D01*
X387714Y283615D01*
X387701Y283669D01*
X387692Y283723D01*
X387687Y283779D01*
X387685Y283834D01*
X388532Y282987D02*
X388615Y282989D01*
X388698Y282995D01*
X388780Y283004D01*
X388862Y283018D01*
X388944Y283035D01*
X389024Y283056D01*
X389103Y283081D01*
X389182Y283109D01*
X389258Y283141D01*
X389333Y283177D01*
X389407Y283215D01*
X389478Y283258D01*
X389548Y283303D01*
X389615Y283352D01*
X389680Y283404D01*
X389742Y283459D01*
X389802Y283516D01*
X389697Y285950D02*
X389695Y286005D01*
X389690Y286061D01*
X389681Y286115D01*
X389668Y286169D01*
X389652Y286222D01*
X389633Y286274D01*
X389610Y286325D01*
X389584Y286374D01*
X389554Y286421D01*
X389522Y286466D01*
X389487Y286508D01*
X389449Y286549D01*
X389408Y286587D01*
X389366Y286622D01*
X389321Y286654D01*
X389274Y286684D01*
X389225Y286710D01*
X389174Y286733D01*
X389122Y286752D01*
X389069Y286768D01*
X389015Y286781D01*
X388961Y286790D01*
X388905Y286795D01*
X388850Y286797D01*
X388850Y286798D02*
X388771Y286796D01*
X388693Y286790D01*
X388615Y286781D01*
X388538Y286767D01*
X388461Y286750D01*
X388385Y286728D01*
X388311Y286704D01*
X388237Y286675D01*
X388166Y286643D01*
X388096Y286607D01*
X388027Y286568D01*
X387961Y286526D01*
X387897Y286480D01*
X389274Y285209D02*
X389321Y285239D01*
X389366Y285272D01*
X389409Y285308D01*
X389449Y285346D01*
X389487Y285387D01*
X389522Y285430D01*
X389554Y285476D01*
X389584Y285523D01*
X389610Y285573D01*
X389633Y285624D01*
X389652Y285676D01*
X389668Y285729D01*
X389681Y285784D01*
X389690Y285839D01*
X389695Y285894D01*
X389697Y285950D01*
X388109Y284575D02*
X388062Y284545D01*
X388017Y284512D01*
X387974Y284476D01*
X387934Y284438D01*
X387896Y284397D01*
X387861Y284354D01*
X387829Y284308D01*
X387799Y284261D01*
X387773Y284211D01*
X387750Y284160D01*
X387731Y284108D01*
X387715Y284055D01*
X387702Y284000D01*
X387693Y283945D01*
X387688Y283890D01*
X387686Y283834D01*
X388109Y284575D02*
X389273Y285210D01*
X386266Y284045D02*
X386264Y284109D01*
X386258Y284173D01*
X386249Y284236D01*
X386235Y284298D01*
X386218Y284360D01*
X386197Y284420D01*
X386173Y284479D01*
X386145Y284537D01*
X386113Y284592D01*
X386079Y284646D01*
X386041Y284697D01*
X386000Y284747D01*
X385956Y284793D01*
X385910Y284837D01*
X385860Y284878D01*
X385809Y284916D01*
X385755Y284950D01*
X385700Y284982D01*
X385642Y285010D01*
X385583Y285034D01*
X385523Y285055D01*
X385461Y285072D01*
X385399Y285086D01*
X385336Y285095D01*
X385272Y285101D01*
X385208Y285103D01*
X385144Y285101D01*
X385080Y285095D01*
X385017Y285086D01*
X384955Y285072D01*
X384893Y285055D01*
X384833Y285034D01*
X384774Y285010D01*
X384716Y284982D01*
X384661Y284950D01*
X384607Y284916D01*
X384556Y284878D01*
X384506Y284837D01*
X384460Y284793D01*
X384416Y284747D01*
X384375Y284697D01*
X384337Y284646D01*
X384303Y284592D01*
X384271Y284537D01*
X384243Y284479D01*
X384219Y284420D01*
X384198Y284360D01*
X384181Y284298D01*
X384167Y284236D01*
X384158Y284173D01*
X384152Y284109D01*
X384150Y284045D01*
X384152Y283981D01*
X384158Y283917D01*
X384167Y283854D01*
X384181Y283792D01*
X384198Y283730D01*
X384219Y283670D01*
X384243Y283611D01*
X384271Y283553D01*
X384303Y283498D01*
X384337Y283444D01*
X384375Y283393D01*
X384416Y283343D01*
X384460Y283297D01*
X384506Y283253D01*
X384556Y283212D01*
X384607Y283174D01*
X384661Y283140D01*
X384716Y283108D01*
X384774Y283080D01*
X384833Y283056D01*
X384893Y283035D01*
X384955Y283018D01*
X385017Y283004D01*
X385080Y282995D01*
X385144Y282989D01*
X385208Y282987D01*
X385272Y282989D01*
X385336Y282995D01*
X385399Y283004D01*
X385461Y283018D01*
X385523Y283035D01*
X385583Y283056D01*
X385642Y283080D01*
X385700Y283108D01*
X385755Y283140D01*
X385809Y283174D01*
X385860Y283212D01*
X385910Y283253D01*
X385956Y283297D01*
X386000Y283343D01*
X386041Y283393D01*
X386079Y283444D01*
X386113Y283498D01*
X386145Y283553D01*
X386173Y283611D01*
X386197Y283670D01*
X386218Y283730D01*
X386235Y283792D01*
X386249Y283854D01*
X386258Y283917D01*
X386264Y283981D01*
X386266Y284045D01*
X386055Y285950D02*
X386053Y286007D01*
X386047Y286063D01*
X386038Y286119D01*
X386025Y286174D01*
X386008Y286228D01*
X385988Y286281D01*
X385964Y286332D01*
X385937Y286382D01*
X385906Y286429D01*
X385873Y286475D01*
X385836Y286518D01*
X385797Y286559D01*
X385755Y286597D01*
X385710Y286632D01*
X385664Y286664D01*
X385615Y286693D01*
X385565Y286718D01*
X385512Y286740D01*
X385459Y286759D01*
X385404Y286774D01*
X385349Y286785D01*
X385293Y286793D01*
X385236Y286797D01*
X385180Y286797D01*
X385123Y286793D01*
X385067Y286785D01*
X385012Y286774D01*
X384957Y286759D01*
X384904Y286740D01*
X384851Y286718D01*
X384801Y286693D01*
X384752Y286664D01*
X384706Y286632D01*
X384661Y286597D01*
X384619Y286559D01*
X384580Y286518D01*
X384543Y286475D01*
X384510Y286429D01*
X384479Y286382D01*
X384452Y286332D01*
X384428Y286281D01*
X384408Y286228D01*
X384391Y286174D01*
X384378Y286119D01*
X384369Y286063D01*
X384363Y286007D01*
X384361Y285950D01*
X384363Y285893D01*
X384369Y285837D01*
X384378Y285781D01*
X384391Y285726D01*
X384408Y285672D01*
X384428Y285619D01*
X384452Y285568D01*
X384479Y285518D01*
X384510Y285471D01*
X384543Y285425D01*
X384580Y285382D01*
X384619Y285341D01*
X384661Y285303D01*
X384706Y285268D01*
X384752Y285236D01*
X384801Y285207D01*
X384851Y285182D01*
X384904Y285160D01*
X384957Y285141D01*
X385012Y285126D01*
X385067Y285115D01*
X385123Y285107D01*
X385180Y285103D01*
X385236Y285103D01*
X385293Y285107D01*
X385349Y285115D01*
X385404Y285126D01*
X385459Y285141D01*
X385512Y285160D01*
X385565Y285182D01*
X385615Y285207D01*
X385664Y285236D01*
X385710Y285268D01*
X385755Y285303D01*
X385797Y285341D01*
X385836Y285382D01*
X385873Y285425D01*
X385906Y285471D01*
X385937Y285518D01*
X385964Y285568D01*
X385988Y285619D01*
X386008Y285672D01*
X386025Y285726D01*
X386038Y285781D01*
X386047Y285837D01*
X386053Y285893D01*
X386055Y285950D01*
D10*
X399500Y159000D02*
X370500Y159000D01*
X370500Y181000D01*
X399500Y181000D01*
X399500Y159000D01*
X392000Y164000D02*
X392002Y164089D01*
X392008Y164178D01*
X392018Y164267D01*
X392032Y164355D01*
X392049Y164442D01*
X392071Y164528D01*
X392097Y164614D01*
X392126Y164698D01*
X392159Y164781D01*
X392195Y164862D01*
X392236Y164942D01*
X392279Y165019D01*
X392326Y165095D01*
X392377Y165168D01*
X392430Y165239D01*
X392487Y165308D01*
X392547Y165374D01*
X392610Y165438D01*
X392675Y165498D01*
X392743Y165556D01*
X392814Y165610D01*
X392887Y165661D01*
X392962Y165709D01*
X393039Y165754D01*
X393118Y165795D01*
X393199Y165832D01*
X393281Y165866D01*
X393365Y165897D01*
X393450Y165923D01*
X393536Y165946D01*
X393623Y165964D01*
X393711Y165979D01*
X393800Y165990D01*
X393889Y165997D01*
X393978Y166000D01*
X394067Y165999D01*
X394156Y165994D01*
X394244Y165985D01*
X394333Y165972D01*
X394420Y165955D01*
X394507Y165935D01*
X394593Y165910D01*
X394677Y165882D01*
X394760Y165850D01*
X394842Y165814D01*
X394922Y165775D01*
X395000Y165732D01*
X395076Y165686D01*
X395150Y165636D01*
X395222Y165583D01*
X395291Y165527D01*
X395358Y165468D01*
X395422Y165406D01*
X395483Y165342D01*
X395542Y165274D01*
X395597Y165204D01*
X395649Y165132D01*
X395698Y165057D01*
X395743Y164981D01*
X395785Y164902D01*
X395823Y164822D01*
X395858Y164740D01*
X395889Y164656D01*
X395917Y164571D01*
X395940Y164485D01*
X395960Y164398D01*
X395976Y164311D01*
X395988Y164222D01*
X395996Y164134D01*
X396000Y164045D01*
X396000Y163955D01*
X395996Y163866D01*
X395988Y163778D01*
X395976Y163689D01*
X395960Y163602D01*
X395940Y163515D01*
X395917Y163429D01*
X395889Y163344D01*
X395858Y163260D01*
X395823Y163178D01*
X395785Y163098D01*
X395743Y163019D01*
X395698Y162943D01*
X395649Y162868D01*
X395597Y162796D01*
X395542Y162726D01*
X395483Y162658D01*
X395422Y162594D01*
X395358Y162532D01*
X395291Y162473D01*
X395222Y162417D01*
X395150Y162364D01*
X395076Y162314D01*
X395000Y162268D01*
X394922Y162225D01*
X394842Y162186D01*
X394760Y162150D01*
X394677Y162118D01*
X394593Y162090D01*
X394507Y162065D01*
X394420Y162045D01*
X394333Y162028D01*
X394244Y162015D01*
X394156Y162006D01*
X394067Y162001D01*
X393978Y162000D01*
X393889Y162003D01*
X393800Y162010D01*
X393711Y162021D01*
X393623Y162036D01*
X393536Y162054D01*
X393450Y162077D01*
X393365Y162103D01*
X393281Y162134D01*
X393199Y162168D01*
X393118Y162205D01*
X393039Y162246D01*
X392962Y162291D01*
X392887Y162339D01*
X392814Y162390D01*
X392743Y162444D01*
X392675Y162502D01*
X392610Y162562D01*
X392547Y162626D01*
X392487Y162692D01*
X392430Y162761D01*
X392377Y162832D01*
X392326Y162905D01*
X392279Y162981D01*
X392236Y163058D01*
X392195Y163138D01*
X392159Y163219D01*
X392126Y163302D01*
X392097Y163386D01*
X392071Y163472D01*
X392049Y163558D01*
X392032Y163645D01*
X392018Y163733D01*
X392008Y163822D01*
X392002Y163911D01*
X392000Y164000D01*
D15*
X397573Y192987D02*
X397573Y196797D01*
X396303Y194680D01*
X395033Y196797D01*
X395033Y192987D01*
X393338Y194045D02*
X393338Y195739D01*
X393336Y195803D01*
X393330Y195867D01*
X393321Y195930D01*
X393307Y195992D01*
X393290Y196054D01*
X393269Y196114D01*
X393245Y196173D01*
X393217Y196231D01*
X393185Y196286D01*
X393151Y196340D01*
X393113Y196391D01*
X393072Y196441D01*
X393028Y196487D01*
X392982Y196531D01*
X392932Y196572D01*
X392881Y196610D01*
X392827Y196644D01*
X392772Y196676D01*
X392714Y196704D01*
X392655Y196728D01*
X392595Y196749D01*
X392533Y196766D01*
X392471Y196780D01*
X392408Y196789D01*
X392344Y196795D01*
X392280Y196797D01*
X392216Y196795D01*
X392152Y196789D01*
X392089Y196780D01*
X392027Y196766D01*
X391965Y196749D01*
X391905Y196728D01*
X391846Y196704D01*
X391788Y196676D01*
X391733Y196644D01*
X391679Y196610D01*
X391628Y196572D01*
X391578Y196531D01*
X391532Y196487D01*
X391488Y196441D01*
X391447Y196391D01*
X391409Y196340D01*
X391375Y196286D01*
X391343Y196231D01*
X391315Y196173D01*
X391291Y196114D01*
X391270Y196054D01*
X391253Y195992D01*
X391239Y195930D01*
X391230Y195867D01*
X391224Y195803D01*
X391222Y195739D01*
X391221Y195739D02*
X391221Y194045D01*
X391222Y194045D02*
X391224Y193981D01*
X391230Y193917D01*
X391239Y193854D01*
X391253Y193792D01*
X391270Y193730D01*
X391291Y193670D01*
X391315Y193611D01*
X391343Y193553D01*
X391375Y193498D01*
X391409Y193444D01*
X391447Y193393D01*
X391488Y193343D01*
X391532Y193297D01*
X391578Y193253D01*
X391628Y193212D01*
X391679Y193174D01*
X391733Y193140D01*
X391788Y193108D01*
X391846Y193080D01*
X391905Y193056D01*
X391965Y193035D01*
X392027Y193018D01*
X392089Y193004D01*
X392152Y192995D01*
X392216Y192989D01*
X392280Y192987D01*
X392344Y192989D01*
X392408Y192995D01*
X392471Y193004D01*
X392533Y193018D01*
X392595Y193035D01*
X392655Y193056D01*
X392714Y193080D01*
X392772Y193108D01*
X392827Y193140D01*
X392881Y193174D01*
X392932Y193212D01*
X392982Y193253D01*
X393028Y193297D01*
X393072Y193343D01*
X393113Y193393D01*
X393151Y193444D01*
X393185Y193498D01*
X393217Y193553D01*
X393245Y193611D01*
X393269Y193670D01*
X393290Y193730D01*
X393307Y193792D01*
X393321Y193854D01*
X393330Y193917D01*
X393336Y193981D01*
X393338Y194045D01*
X388532Y192987D02*
X388477Y192989D01*
X388421Y192994D01*
X388367Y193003D01*
X388313Y193016D01*
X388260Y193032D01*
X388208Y193051D01*
X388157Y193074D01*
X388109Y193100D01*
X388061Y193130D01*
X388016Y193162D01*
X387974Y193197D01*
X387933Y193235D01*
X387895Y193276D01*
X387860Y193318D01*
X387828Y193363D01*
X387798Y193411D01*
X387772Y193459D01*
X387749Y193510D01*
X387730Y193562D01*
X387714Y193615D01*
X387701Y193669D01*
X387692Y193723D01*
X387687Y193779D01*
X387685Y193834D01*
X388532Y192987D02*
X388615Y192989D01*
X388698Y192995D01*
X388780Y193004D01*
X388862Y193018D01*
X388944Y193035D01*
X389024Y193056D01*
X389103Y193081D01*
X389182Y193109D01*
X389258Y193141D01*
X389333Y193177D01*
X389407Y193215D01*
X389478Y193258D01*
X389548Y193303D01*
X389615Y193352D01*
X389680Y193404D01*
X389742Y193459D01*
X389802Y193516D01*
X389697Y195950D02*
X389695Y196005D01*
X389690Y196061D01*
X389681Y196115D01*
X389668Y196169D01*
X389652Y196222D01*
X389633Y196274D01*
X389610Y196325D01*
X389584Y196374D01*
X389554Y196421D01*
X389522Y196466D01*
X389487Y196508D01*
X389449Y196549D01*
X389408Y196587D01*
X389366Y196622D01*
X389321Y196654D01*
X389274Y196684D01*
X389225Y196710D01*
X389174Y196733D01*
X389122Y196752D01*
X389069Y196768D01*
X389015Y196781D01*
X388961Y196790D01*
X388905Y196795D01*
X388850Y196797D01*
X388850Y196798D02*
X388771Y196796D01*
X388693Y196790D01*
X388615Y196781D01*
X388538Y196767D01*
X388461Y196750D01*
X388385Y196728D01*
X388311Y196704D01*
X388237Y196675D01*
X388166Y196643D01*
X388096Y196607D01*
X388027Y196568D01*
X387961Y196526D01*
X387897Y196480D01*
X389274Y195209D02*
X389321Y195239D01*
X389366Y195272D01*
X389409Y195308D01*
X389449Y195346D01*
X389487Y195387D01*
X389522Y195430D01*
X389554Y195476D01*
X389584Y195523D01*
X389610Y195573D01*
X389633Y195624D01*
X389652Y195676D01*
X389668Y195729D01*
X389681Y195784D01*
X389690Y195839D01*
X389695Y195894D01*
X389697Y195950D01*
X388109Y194575D02*
X388062Y194545D01*
X388017Y194512D01*
X387974Y194476D01*
X387934Y194438D01*
X387896Y194397D01*
X387861Y194354D01*
X387829Y194308D01*
X387799Y194261D01*
X387773Y194211D01*
X387750Y194160D01*
X387731Y194108D01*
X387715Y194055D01*
X387702Y194000D01*
X387693Y193945D01*
X387688Y193890D01*
X387686Y193834D01*
X388109Y194575D02*
X389273Y195210D01*
X385420Y194680D02*
X384150Y194680D01*
X385420Y194680D02*
X385475Y194682D01*
X385531Y194687D01*
X385585Y194696D01*
X385639Y194709D01*
X385692Y194725D01*
X385744Y194744D01*
X385795Y194767D01*
X385844Y194793D01*
X385891Y194823D01*
X385936Y194855D01*
X385978Y194890D01*
X386019Y194928D01*
X386057Y194969D01*
X386092Y195011D01*
X386124Y195056D01*
X386154Y195104D01*
X386180Y195152D01*
X386203Y195203D01*
X386222Y195255D01*
X386238Y195308D01*
X386251Y195362D01*
X386260Y195416D01*
X386265Y195472D01*
X386267Y195527D01*
X386267Y195739D01*
X386266Y195739D02*
X386264Y195803D01*
X386258Y195867D01*
X386249Y195930D01*
X386235Y195992D01*
X386218Y196054D01*
X386197Y196114D01*
X386173Y196173D01*
X386145Y196231D01*
X386113Y196286D01*
X386079Y196340D01*
X386041Y196391D01*
X386000Y196441D01*
X385956Y196487D01*
X385910Y196531D01*
X385860Y196572D01*
X385809Y196610D01*
X385755Y196644D01*
X385700Y196676D01*
X385642Y196704D01*
X385583Y196728D01*
X385523Y196749D01*
X385461Y196766D01*
X385399Y196780D01*
X385336Y196789D01*
X385272Y196795D01*
X385208Y196797D01*
X385144Y196795D01*
X385080Y196789D01*
X385017Y196780D01*
X384955Y196766D01*
X384893Y196749D01*
X384833Y196728D01*
X384774Y196704D01*
X384716Y196676D01*
X384661Y196644D01*
X384607Y196610D01*
X384556Y196572D01*
X384506Y196531D01*
X384460Y196487D01*
X384416Y196441D01*
X384375Y196391D01*
X384337Y196340D01*
X384303Y196286D01*
X384271Y196231D01*
X384243Y196173D01*
X384219Y196114D01*
X384198Y196054D01*
X384181Y195992D01*
X384167Y195930D01*
X384158Y195867D01*
X384152Y195803D01*
X384150Y195739D01*
X384150Y194680D01*
X384152Y194599D01*
X384158Y194519D01*
X384167Y194439D01*
X384181Y194360D01*
X384198Y194281D01*
X384219Y194203D01*
X384243Y194126D01*
X384271Y194051D01*
X384303Y193977D01*
X384338Y193904D01*
X384377Y193833D01*
X384419Y193765D01*
X384464Y193698D01*
X384512Y193633D01*
X384564Y193571D01*
X384618Y193512D01*
X384675Y193455D01*
X384734Y193401D01*
X384796Y193349D01*
X384861Y193301D01*
X384928Y193256D01*
X384997Y193214D01*
X385067Y193175D01*
X385140Y193140D01*
X385214Y193108D01*
X385289Y193080D01*
X385366Y193056D01*
X385444Y193035D01*
X385523Y193018D01*
X385602Y193004D01*
X385682Y192995D01*
X385762Y192989D01*
X385843Y192987D01*
D16*
X460649Y206858D02*
X463246Y206858D01*
X463345Y206860D01*
X463445Y206866D01*
X463544Y206875D01*
X463642Y206888D01*
X463740Y206905D01*
X463838Y206926D01*
X463934Y206951D01*
X464029Y206979D01*
X464123Y207011D01*
X464216Y207046D01*
X464308Y207085D01*
X464398Y207128D01*
X464486Y207173D01*
X464573Y207223D01*
X464657Y207275D01*
X464740Y207331D01*
X464820Y207389D01*
X464898Y207451D01*
X464973Y207516D01*
X465046Y207584D01*
X465116Y207654D01*
X465184Y207727D01*
X465249Y207802D01*
X465311Y207880D01*
X465369Y207960D01*
X465425Y208043D01*
X465477Y208127D01*
X465527Y208214D01*
X465572Y208302D01*
X465615Y208392D01*
X465654Y208484D01*
X465689Y208577D01*
X465721Y208671D01*
X465749Y208766D01*
X465774Y208862D01*
X465795Y208960D01*
X465812Y209058D01*
X465825Y209156D01*
X465834Y209255D01*
X465840Y209355D01*
X465842Y209454D01*
X465842Y215946D01*
X465840Y216045D01*
X465834Y216145D01*
X465825Y216244D01*
X465812Y216342D01*
X465795Y216440D01*
X465774Y216538D01*
X465749Y216634D01*
X465721Y216729D01*
X465689Y216823D01*
X465654Y216916D01*
X465615Y217008D01*
X465572Y217098D01*
X465527Y217186D01*
X465477Y217273D01*
X465425Y217357D01*
X465369Y217440D01*
X465311Y217520D01*
X465249Y217598D01*
X465184Y217673D01*
X465116Y217746D01*
X465046Y217816D01*
X464973Y217884D01*
X464898Y217949D01*
X464820Y218011D01*
X464740Y218069D01*
X464657Y218125D01*
X464573Y218177D01*
X464486Y218227D01*
X464398Y218272D01*
X464308Y218315D01*
X464216Y218354D01*
X464123Y218389D01*
X464029Y218421D01*
X463934Y218449D01*
X463838Y218474D01*
X463740Y218495D01*
X463642Y218512D01*
X463544Y218525D01*
X463445Y218534D01*
X463345Y218540D01*
X463246Y218542D01*
X460649Y218542D01*
X453687Y218542D02*
X456284Y209454D01*
X449793Y209454D01*
X451740Y212051D02*
X451740Y206858D01*
X390842Y221858D02*
X390842Y233542D01*
X387596Y233542D01*
X387483Y233540D01*
X387370Y233534D01*
X387257Y233524D01*
X387144Y233510D01*
X387032Y233493D01*
X386921Y233471D01*
X386811Y233446D01*
X386701Y233416D01*
X386593Y233383D01*
X386486Y233346D01*
X386380Y233306D01*
X386276Y233261D01*
X386173Y233213D01*
X386072Y233162D01*
X385973Y233107D01*
X385876Y233049D01*
X385781Y232987D01*
X385688Y232922D01*
X385598Y232854D01*
X385510Y232783D01*
X385424Y232708D01*
X385341Y232631D01*
X385261Y232551D01*
X385184Y232468D01*
X385109Y232382D01*
X385038Y232294D01*
X384970Y232204D01*
X384905Y232111D01*
X384843Y232016D01*
X384785Y231919D01*
X384730Y231820D01*
X384679Y231719D01*
X384631Y231616D01*
X384586Y231512D01*
X384546Y231406D01*
X384509Y231299D01*
X384476Y231191D01*
X384446Y231081D01*
X384421Y230971D01*
X384399Y230860D01*
X384382Y230748D01*
X384368Y230635D01*
X384358Y230522D01*
X384352Y230409D01*
X384350Y230296D01*
X384352Y230183D01*
X384358Y230070D01*
X384368Y229957D01*
X384382Y229844D01*
X384399Y229732D01*
X384421Y229621D01*
X384446Y229511D01*
X384476Y229401D01*
X384509Y229293D01*
X384546Y229186D01*
X384586Y229080D01*
X384631Y228976D01*
X384679Y228873D01*
X384730Y228772D01*
X384785Y228673D01*
X384843Y228576D01*
X384905Y228481D01*
X384970Y228388D01*
X385038Y228298D01*
X385109Y228210D01*
X385184Y228124D01*
X385261Y228041D01*
X385341Y227961D01*
X385424Y227884D01*
X385510Y227809D01*
X385598Y227738D01*
X385688Y227670D01*
X385781Y227605D01*
X385876Y227543D01*
X385973Y227485D01*
X386072Y227430D01*
X386173Y227379D01*
X386276Y227331D01*
X386380Y227286D01*
X386486Y227246D01*
X386593Y227209D01*
X386701Y227176D01*
X386811Y227146D01*
X386921Y227121D01*
X387032Y227099D01*
X387144Y227082D01*
X387257Y227068D01*
X387370Y227058D01*
X387483Y227052D01*
X387596Y227050D01*
X387596Y227051D02*
X390842Y227051D01*
X386947Y227051D02*
X384351Y221858D01*
X379486Y232244D02*
X379486Y233542D01*
X372995Y233542D01*
X376240Y221858D01*
D10*
X370500Y64000D02*
X399500Y64000D01*
X370500Y64000D02*
X370500Y86000D01*
X399500Y86000D01*
X399500Y64000D01*
X392000Y69000D02*
X392002Y69089D01*
X392008Y69178D01*
X392018Y69267D01*
X392032Y69355D01*
X392049Y69442D01*
X392071Y69528D01*
X392097Y69614D01*
X392126Y69698D01*
X392159Y69781D01*
X392195Y69862D01*
X392236Y69942D01*
X392279Y70019D01*
X392326Y70095D01*
X392377Y70168D01*
X392430Y70239D01*
X392487Y70308D01*
X392547Y70374D01*
X392610Y70438D01*
X392675Y70498D01*
X392743Y70556D01*
X392814Y70610D01*
X392887Y70661D01*
X392962Y70709D01*
X393039Y70754D01*
X393118Y70795D01*
X393199Y70832D01*
X393281Y70866D01*
X393365Y70897D01*
X393450Y70923D01*
X393536Y70946D01*
X393623Y70964D01*
X393711Y70979D01*
X393800Y70990D01*
X393889Y70997D01*
X393978Y71000D01*
X394067Y70999D01*
X394156Y70994D01*
X394244Y70985D01*
X394333Y70972D01*
X394420Y70955D01*
X394507Y70935D01*
X394593Y70910D01*
X394677Y70882D01*
X394760Y70850D01*
X394842Y70814D01*
X394922Y70775D01*
X395000Y70732D01*
X395076Y70686D01*
X395150Y70636D01*
X395222Y70583D01*
X395291Y70527D01*
X395358Y70468D01*
X395422Y70406D01*
X395483Y70342D01*
X395542Y70274D01*
X395597Y70204D01*
X395649Y70132D01*
X395698Y70057D01*
X395743Y69981D01*
X395785Y69902D01*
X395823Y69822D01*
X395858Y69740D01*
X395889Y69656D01*
X395917Y69571D01*
X395940Y69485D01*
X395960Y69398D01*
X395976Y69311D01*
X395988Y69222D01*
X395996Y69134D01*
X396000Y69045D01*
X396000Y68955D01*
X395996Y68866D01*
X395988Y68778D01*
X395976Y68689D01*
X395960Y68602D01*
X395940Y68515D01*
X395917Y68429D01*
X395889Y68344D01*
X395858Y68260D01*
X395823Y68178D01*
X395785Y68098D01*
X395743Y68019D01*
X395698Y67943D01*
X395649Y67868D01*
X395597Y67796D01*
X395542Y67726D01*
X395483Y67658D01*
X395422Y67594D01*
X395358Y67532D01*
X395291Y67473D01*
X395222Y67417D01*
X395150Y67364D01*
X395076Y67314D01*
X395000Y67268D01*
X394922Y67225D01*
X394842Y67186D01*
X394760Y67150D01*
X394677Y67118D01*
X394593Y67090D01*
X394507Y67065D01*
X394420Y67045D01*
X394333Y67028D01*
X394244Y67015D01*
X394156Y67006D01*
X394067Y67001D01*
X393978Y67000D01*
X393889Y67003D01*
X393800Y67010D01*
X393711Y67021D01*
X393623Y67036D01*
X393536Y67054D01*
X393450Y67077D01*
X393365Y67103D01*
X393281Y67134D01*
X393199Y67168D01*
X393118Y67205D01*
X393039Y67246D01*
X392962Y67291D01*
X392887Y67339D01*
X392814Y67390D01*
X392743Y67444D01*
X392675Y67502D01*
X392610Y67562D01*
X392547Y67626D01*
X392487Y67692D01*
X392430Y67761D01*
X392377Y67832D01*
X392326Y67905D01*
X392279Y67981D01*
X392236Y68058D01*
X392195Y68138D01*
X392159Y68219D01*
X392126Y68302D01*
X392097Y68386D01*
X392071Y68472D01*
X392049Y68558D01*
X392032Y68645D01*
X392018Y68733D01*
X392008Y68822D01*
X392002Y68911D01*
X392000Y69000D01*
D15*
X397573Y97987D02*
X397573Y101797D01*
X396303Y99680D01*
X395033Y101797D01*
X395033Y97987D01*
X393338Y99045D02*
X393338Y100739D01*
X393336Y100803D01*
X393330Y100867D01*
X393321Y100930D01*
X393307Y100992D01*
X393290Y101054D01*
X393269Y101114D01*
X393245Y101173D01*
X393217Y101231D01*
X393185Y101286D01*
X393151Y101340D01*
X393113Y101391D01*
X393072Y101441D01*
X393028Y101487D01*
X392982Y101531D01*
X392932Y101572D01*
X392881Y101610D01*
X392827Y101644D01*
X392772Y101676D01*
X392714Y101704D01*
X392655Y101728D01*
X392595Y101749D01*
X392533Y101766D01*
X392471Y101780D01*
X392408Y101789D01*
X392344Y101795D01*
X392280Y101797D01*
X392216Y101795D01*
X392152Y101789D01*
X392089Y101780D01*
X392027Y101766D01*
X391965Y101749D01*
X391905Y101728D01*
X391846Y101704D01*
X391788Y101676D01*
X391733Y101644D01*
X391679Y101610D01*
X391628Y101572D01*
X391578Y101531D01*
X391532Y101487D01*
X391488Y101441D01*
X391447Y101391D01*
X391409Y101340D01*
X391375Y101286D01*
X391343Y101231D01*
X391315Y101173D01*
X391291Y101114D01*
X391270Y101054D01*
X391253Y100992D01*
X391239Y100930D01*
X391230Y100867D01*
X391224Y100803D01*
X391222Y100739D01*
X391221Y100739D02*
X391221Y99045D01*
X391222Y99045D02*
X391224Y98981D01*
X391230Y98917D01*
X391239Y98854D01*
X391253Y98792D01*
X391270Y98730D01*
X391291Y98670D01*
X391315Y98611D01*
X391343Y98553D01*
X391375Y98498D01*
X391409Y98444D01*
X391447Y98393D01*
X391488Y98343D01*
X391532Y98297D01*
X391578Y98253D01*
X391628Y98212D01*
X391679Y98174D01*
X391733Y98140D01*
X391788Y98108D01*
X391846Y98080D01*
X391905Y98056D01*
X391965Y98035D01*
X392027Y98018D01*
X392089Y98004D01*
X392152Y97995D01*
X392216Y97989D01*
X392280Y97987D01*
X392344Y97989D01*
X392408Y97995D01*
X392471Y98004D01*
X392533Y98018D01*
X392595Y98035D01*
X392655Y98056D01*
X392714Y98080D01*
X392772Y98108D01*
X392827Y98140D01*
X392881Y98174D01*
X392932Y98212D01*
X392982Y98253D01*
X393028Y98297D01*
X393072Y98343D01*
X393113Y98393D01*
X393151Y98444D01*
X393185Y98498D01*
X393217Y98553D01*
X393245Y98611D01*
X393269Y98670D01*
X393290Y98730D01*
X393307Y98792D01*
X393321Y98854D01*
X393330Y98917D01*
X393336Y98981D01*
X393338Y99045D01*
X388532Y97987D02*
X388477Y97989D01*
X388421Y97994D01*
X388367Y98003D01*
X388313Y98016D01*
X388260Y98032D01*
X388208Y98051D01*
X388157Y98074D01*
X388109Y98100D01*
X388061Y98130D01*
X388016Y98162D01*
X387974Y98197D01*
X387933Y98235D01*
X387895Y98276D01*
X387860Y98318D01*
X387828Y98363D01*
X387798Y98411D01*
X387772Y98459D01*
X387749Y98510D01*
X387730Y98562D01*
X387714Y98615D01*
X387701Y98669D01*
X387692Y98723D01*
X387687Y98779D01*
X387685Y98834D01*
X388532Y97987D02*
X388615Y97989D01*
X388698Y97995D01*
X388780Y98004D01*
X388862Y98018D01*
X388944Y98035D01*
X389024Y98056D01*
X389103Y98081D01*
X389182Y98109D01*
X389258Y98141D01*
X389333Y98177D01*
X389407Y98215D01*
X389478Y98258D01*
X389548Y98303D01*
X389615Y98352D01*
X389680Y98404D01*
X389742Y98459D01*
X389802Y98516D01*
X389697Y100950D02*
X389695Y101005D01*
X389690Y101061D01*
X389681Y101115D01*
X389668Y101169D01*
X389652Y101222D01*
X389633Y101274D01*
X389610Y101325D01*
X389584Y101374D01*
X389554Y101421D01*
X389522Y101466D01*
X389487Y101508D01*
X389449Y101549D01*
X389408Y101587D01*
X389366Y101622D01*
X389321Y101654D01*
X389274Y101684D01*
X389225Y101710D01*
X389174Y101733D01*
X389122Y101752D01*
X389069Y101768D01*
X389015Y101781D01*
X388961Y101790D01*
X388905Y101795D01*
X388850Y101797D01*
X388850Y101798D02*
X388771Y101796D01*
X388693Y101790D01*
X388615Y101781D01*
X388538Y101767D01*
X388461Y101750D01*
X388385Y101728D01*
X388311Y101704D01*
X388237Y101675D01*
X388166Y101643D01*
X388096Y101607D01*
X388027Y101568D01*
X387961Y101526D01*
X387897Y101480D01*
X389274Y100209D02*
X389321Y100239D01*
X389366Y100272D01*
X389409Y100308D01*
X389449Y100346D01*
X389487Y100387D01*
X389522Y100430D01*
X389554Y100476D01*
X389584Y100523D01*
X389610Y100573D01*
X389633Y100624D01*
X389652Y100676D01*
X389668Y100729D01*
X389681Y100784D01*
X389690Y100839D01*
X389695Y100894D01*
X389697Y100950D01*
X388109Y99575D02*
X388062Y99545D01*
X388017Y99512D01*
X387974Y99476D01*
X387934Y99438D01*
X387896Y99397D01*
X387861Y99354D01*
X387829Y99308D01*
X387799Y99261D01*
X387773Y99211D01*
X387750Y99160D01*
X387731Y99108D01*
X387715Y99055D01*
X387702Y99000D01*
X387693Y98945D01*
X387688Y98890D01*
X387686Y98834D01*
X388109Y99575D02*
X389273Y100210D01*
X386267Y100950D02*
X385208Y101797D01*
X385208Y97987D01*
X384150Y97987D02*
X386267Y97987D01*
X382609Y99892D02*
X382607Y100002D01*
X382601Y100111D01*
X382592Y100220D01*
X382578Y100329D01*
X382561Y100437D01*
X382540Y100545D01*
X382516Y100651D01*
X382487Y100757D01*
X382455Y100862D01*
X382420Y100966D01*
X382381Y101068D01*
X382338Y101169D01*
X382291Y101268D01*
X382292Y101268D02*
X382272Y101318D01*
X382250Y101367D01*
X382224Y101415D01*
X382195Y101460D01*
X382162Y101503D01*
X382127Y101544D01*
X382089Y101583D01*
X382049Y101618D01*
X382006Y101651D01*
X381961Y101681D01*
X381914Y101708D01*
X381866Y101731D01*
X381816Y101751D01*
X381764Y101767D01*
X381712Y101780D01*
X381659Y101790D01*
X381605Y101795D01*
X381551Y101797D01*
X381497Y101795D01*
X381443Y101790D01*
X381390Y101780D01*
X381338Y101767D01*
X381286Y101751D01*
X381236Y101731D01*
X381188Y101708D01*
X381141Y101681D01*
X381096Y101651D01*
X381053Y101618D01*
X381013Y101583D01*
X380975Y101544D01*
X380940Y101503D01*
X380907Y101460D01*
X380878Y101415D01*
X380852Y101367D01*
X380830Y101318D01*
X380810Y101268D01*
X380763Y101169D01*
X380720Y101068D01*
X380681Y100966D01*
X380646Y100862D01*
X380614Y100757D01*
X380585Y100651D01*
X380561Y100545D01*
X380540Y100437D01*
X380523Y100329D01*
X380509Y100220D01*
X380500Y100111D01*
X380494Y100002D01*
X380492Y99892D01*
X382609Y99892D02*
X382607Y99782D01*
X382601Y99673D01*
X382592Y99564D01*
X382578Y99455D01*
X382561Y99347D01*
X382540Y99239D01*
X382516Y99133D01*
X382487Y99027D01*
X382455Y98922D01*
X382420Y98819D01*
X382381Y98716D01*
X382338Y98615D01*
X382291Y98516D01*
X382292Y98516D02*
X382272Y98466D01*
X382250Y98417D01*
X382224Y98369D01*
X382195Y98324D01*
X382162Y98281D01*
X382127Y98240D01*
X382089Y98201D01*
X382049Y98166D01*
X382006Y98133D01*
X381961Y98103D01*
X381914Y98076D01*
X381866Y98053D01*
X381816Y98033D01*
X381764Y98017D01*
X381712Y98004D01*
X381659Y97994D01*
X381605Y97989D01*
X381551Y97987D01*
X380810Y98516D02*
X380763Y98615D01*
X380720Y98716D01*
X380681Y98819D01*
X380646Y98922D01*
X380614Y99027D01*
X380585Y99133D01*
X380561Y99239D01*
X380540Y99347D01*
X380523Y99455D01*
X380509Y99564D01*
X380500Y99673D01*
X380494Y99782D01*
X380492Y99892D01*
X380810Y98516D02*
X380830Y98466D01*
X380852Y98417D01*
X380878Y98369D01*
X380907Y98324D01*
X380940Y98281D01*
X380975Y98240D01*
X381013Y98201D01*
X381053Y98166D01*
X381096Y98133D01*
X381141Y98103D01*
X381188Y98076D01*
X381236Y98053D01*
X381287Y98033D01*
X381338Y98017D01*
X381390Y98004D01*
X381443Y97994D01*
X381497Y97989D01*
X381551Y97987D01*
X382397Y98834D02*
X380704Y100950D01*
D10*
X77200Y238500D02*
X65400Y238500D01*
X2800Y238500D02*
X2800Y181000D01*
X77200Y181000D01*
X77200Y238500D01*
X65400Y238500D02*
X65400Y232780D01*
X59050Y232780D01*
X59050Y238500D01*
X20950Y238500D02*
X20950Y232780D01*
X14600Y232780D01*
X14600Y238500D01*
X2800Y238500D01*
X20950Y238500D02*
X59050Y238500D01*
X65400Y168500D02*
X77200Y168500D01*
X2800Y168500D02*
X2800Y111000D01*
X77200Y111000D01*
X77200Y168500D01*
X65400Y168500D02*
X65400Y162780D01*
X59050Y162780D01*
X59050Y168500D01*
X20950Y168500D02*
X20950Y162780D01*
X14600Y162780D01*
X14600Y168500D01*
X2800Y168500D01*
X20950Y168500D02*
X59050Y168500D01*
X65400Y98500D02*
X77200Y98500D01*
X2800Y98500D02*
X2800Y41000D01*
X77200Y41000D01*
X77200Y98500D01*
X65400Y98500D02*
X65400Y92780D01*
X59050Y92780D01*
X59050Y98500D01*
X20950Y98500D02*
X20950Y92780D01*
X14600Y92780D01*
X14600Y98500D01*
X2800Y98500D01*
X20950Y98500D02*
X59050Y98500D01*
M02*
