M48
;GenerationSoftware,Autodesk,EAGLE,9.6.2*%
;CreationDate,2023-07-27T00:06:24Z*%
FMAT,2
ICI,OFF
METRIC,TZ,000.000
T5C0.350
T4C1.000
T3C1.016
T2C1.200
T1C3.000
%
G90
M71
T1
X47000Y42000
X3000Y-2000
X47000Y-2000
T2
X7620Y34290
X16684Y18019
X16684Y15479
X16684Y12949
X24304Y18019
X24304Y15479
X24304Y12949
X21590Y34290
X24130Y34290
X16510Y34290
X19050Y34290
X10160Y17780
X10160Y15240
X10160Y34290
T3
X17780Y39370
X15240Y39370
X12700Y39370
X10160Y39370
X20320Y39370
T4
X2667Y24551
X2667Y27051
X2667Y29551
T5
X11989Y26918
X33528Y29718
X37323Y11762
X19906Y11084
X33478Y12893
X39359Y24203
X33478Y26239
X36068Y29591
X38227Y29591
X26692Y26239
X34156Y23299
X40942Y12215
X24882Y21941
X43883Y13798
X35061Y16739
X37323Y19001
X40264Y19679
X27370Y22846
X35061Y20810
X14477Y15834
X21263Y26692
X21489Y27823
X26013Y27823
X16513Y27823
X16965Y3393
X13572Y3393
X10858Y31216
M30