G04 EAGLE Gerber RS-274X export*
G75*
%MOMM*%
%FSLAX34Y34*%
%LPD*%
%INSoldermask Bottom*%
%IPPOS*%
%AMOC8*
5,1,8,0,0,1.08239X$1,22.5*%
G01*
%ADD10C,2.203200*%
%ADD11C,1.511200*%
%ADD12R,1.711200X1.711200*%
%ADD13C,0.959600*%


D10*
X20000Y330000D03*
X395000Y330000D03*
X20000Y20000D03*
X395000Y20000D03*
D11*
X112700Y60700D03*
X87300Y60700D03*
X112700Y86100D03*
X87300Y86100D03*
X112700Y111500D03*
X87300Y111500D03*
X112700Y136900D03*
X87300Y136900D03*
X112700Y162300D03*
X87300Y162300D03*
X112700Y187700D03*
X87300Y187700D03*
X112700Y213100D03*
X87300Y213100D03*
X112700Y238500D03*
X87300Y238500D03*
X112700Y263900D03*
X87300Y263900D03*
X112700Y289300D03*
X87300Y289300D03*
X217700Y60700D03*
X192300Y60700D03*
X217700Y86100D03*
X192300Y86100D03*
X217700Y111500D03*
X192300Y111500D03*
X217700Y136900D03*
X192300Y136900D03*
X217700Y162300D03*
X192300Y162300D03*
X217700Y187700D03*
X192300Y187700D03*
X217700Y213100D03*
X192300Y213100D03*
X217700Y238500D03*
X192300Y238500D03*
X217700Y263900D03*
X192300Y263900D03*
X217700Y289300D03*
X192300Y289300D03*
X322700Y60700D03*
X297300Y60700D03*
X322700Y86100D03*
X297300Y86100D03*
X322700Y111500D03*
X297300Y111500D03*
X322700Y136900D03*
X297300Y136900D03*
X322700Y162300D03*
X297300Y162300D03*
X322700Y187700D03*
X297300Y187700D03*
X322700Y213100D03*
X297300Y213100D03*
X322700Y238500D03*
X297300Y238500D03*
X322700Y263900D03*
X297300Y263900D03*
X322700Y289300D03*
X297300Y289300D03*
D12*
X143500Y241200D03*
X143500Y165000D03*
X143500Y215800D03*
X143500Y190400D03*
X267000Y65800D03*
X267000Y142000D03*
X267000Y91200D03*
X267000Y116600D03*
X267500Y201800D03*
X267500Y278000D03*
X267500Y227200D03*
X267500Y252600D03*
D13*
X149606Y291338D03*
X173228Y291338D03*
M02*
