G04 EAGLE Gerber RS-274X export*
G75*
%MOMM*%
%FSLAX34Y34*%
%LPD*%
%INTop Copper*%
%IPPOS*%
%AMOC8*
5,1,8,0,0,1.08239X$1,22.5*%
G01*
%ADD10R,1.100000X1.000000*%
%ADD11R,1.000000X1.100000*%
%ADD12P,1.649562X8X202.500000*%
%ADD13R,0.800000X0.800000*%
%ADD14R,1.600000X1.050000*%
%ADD15R,0.500000X1.200000*%
%ADD16R,1.200000X0.500000*%
%ADD17C,1.308000*%
%ADD18P,1.649562X8X22.500000*%
%ADD19R,1.100000X0.300000*%
%ADD20C,0.152400*%
%ADD21C,0.756400*%

G36*
X310844Y10930D02*
X310844Y10930D01*
X310890Y10928D01*
X310965Y10950D01*
X311042Y10962D01*
X311082Y10984D01*
X311126Y10997D01*
X311190Y11041D01*
X311259Y11078D01*
X311291Y11111D01*
X311328Y11137D01*
X311375Y11200D01*
X311428Y11256D01*
X311448Y11298D01*
X311475Y11334D01*
X311499Y11408D01*
X311532Y11479D01*
X311537Y11525D01*
X311551Y11568D01*
X311550Y11646D01*
X311559Y11723D01*
X311549Y11768D01*
X311549Y11814D01*
X311511Y11946D01*
X311507Y11964D01*
X311504Y11968D01*
X311502Y11975D01*
X309839Y15990D01*
X309839Y24010D01*
X312909Y31420D01*
X318580Y37091D01*
X325990Y40161D01*
X334010Y40161D01*
X338025Y38498D01*
X338069Y38487D01*
X338111Y38468D01*
X338188Y38459D01*
X338264Y38442D01*
X338310Y38446D01*
X338355Y38441D01*
X338432Y38457D01*
X338509Y38465D01*
X338551Y38483D01*
X338596Y38493D01*
X338663Y38533D01*
X338734Y38565D01*
X338768Y38596D01*
X338807Y38619D01*
X338858Y38678D01*
X338915Y38731D01*
X338937Y38771D01*
X338967Y38806D01*
X338996Y38879D01*
X339033Y38947D01*
X339042Y38992D01*
X339059Y39034D01*
X339074Y39170D01*
X339077Y39189D01*
X339076Y39194D01*
X339077Y39201D01*
X339077Y299547D01*
X339062Y299643D01*
X339052Y299740D01*
X339042Y299764D01*
X339038Y299790D01*
X338992Y299876D01*
X338952Y299965D01*
X338935Y299984D01*
X338922Y300007D01*
X338852Y300074D01*
X338786Y300146D01*
X338763Y300159D01*
X338744Y300177D01*
X338656Y300218D01*
X338570Y300265D01*
X338545Y300269D01*
X338521Y300280D01*
X338424Y300291D01*
X338328Y300308D01*
X338302Y300304D01*
X338277Y300307D01*
X338181Y300287D01*
X338085Y300272D01*
X338062Y300261D01*
X338036Y300255D01*
X337953Y300205D01*
X337866Y300161D01*
X337847Y300142D01*
X337825Y300129D01*
X337762Y300055D01*
X337694Y299985D01*
X337678Y299957D01*
X337665Y299942D01*
X337653Y299911D01*
X337613Y299838D01*
X337091Y298580D01*
X331420Y292909D01*
X324010Y289839D01*
X315990Y289839D01*
X308580Y292909D01*
X302909Y298580D01*
X299839Y305990D01*
X299839Y314010D01*
X302921Y321449D01*
X302926Y321471D01*
X302936Y321490D01*
X302954Y321590D01*
X302977Y321689D01*
X302975Y321711D01*
X302979Y321732D01*
X302963Y321833D01*
X302954Y321934D01*
X302945Y321954D01*
X302941Y321976D01*
X302895Y322066D01*
X302854Y322158D01*
X302839Y322175D01*
X302829Y322194D01*
X302756Y322265D01*
X302687Y322340D01*
X302668Y322350D01*
X302652Y322365D01*
X302561Y322409D01*
X302472Y322458D01*
X302450Y322462D01*
X302430Y322472D01*
X302330Y322484D01*
X302230Y322502D01*
X302208Y322499D01*
X302186Y322501D01*
X302020Y322476D01*
X299644Y321839D01*
X292756Y321839D01*
X286102Y323622D01*
X280137Y327066D01*
X275266Y331937D01*
X271822Y337902D01*
X270039Y344556D01*
X270039Y351444D01*
X271822Y358098D01*
X275266Y364063D01*
X280137Y368934D01*
X286102Y372378D01*
X292756Y374161D01*
X299644Y374161D01*
X306298Y372378D01*
X312263Y368934D01*
X317134Y364063D01*
X320578Y358098D01*
X322361Y351444D01*
X322361Y344556D01*
X320578Y337902D01*
X317134Y331937D01*
X316657Y331460D01*
X316615Y331402D01*
X316566Y331350D01*
X316544Y331303D01*
X316514Y331261D01*
X316492Y331192D01*
X316462Y331127D01*
X316457Y331075D01*
X316441Y331025D01*
X316443Y330954D01*
X316435Y330883D01*
X316446Y330832D01*
X316448Y330780D01*
X316472Y330712D01*
X316487Y330642D01*
X316514Y330597D01*
X316532Y330549D01*
X316577Y330493D01*
X316614Y330431D01*
X316653Y330397D01*
X316686Y330357D01*
X316746Y330318D01*
X316801Y330271D01*
X316849Y330252D01*
X316893Y330224D01*
X316962Y330206D01*
X317029Y330179D01*
X317100Y330171D01*
X317131Y330163D01*
X317154Y330165D01*
X317195Y330161D01*
X324010Y330161D01*
X331420Y327091D01*
X337091Y321420D01*
X337613Y320162D01*
X337664Y320079D01*
X337710Y319993D01*
X337729Y319975D01*
X337742Y319953D01*
X337817Y319890D01*
X337888Y319823D01*
X337912Y319812D01*
X337932Y319796D01*
X338023Y319761D01*
X338111Y319720D01*
X338137Y319717D01*
X338161Y319708D01*
X338259Y319703D01*
X338355Y319693D01*
X338381Y319698D01*
X338407Y319697D01*
X338501Y319724D01*
X338596Y319745D01*
X338618Y319758D01*
X338643Y319766D01*
X338723Y319821D01*
X338807Y319871D01*
X338824Y319891D01*
X338845Y319906D01*
X338904Y319984D01*
X338967Y320058D01*
X338977Y320082D01*
X338992Y320103D01*
X339022Y320196D01*
X339059Y320286D01*
X339062Y320319D01*
X339068Y320337D01*
X339068Y320370D01*
X339077Y320453D01*
X339077Y410799D01*
X339070Y410844D01*
X339072Y410890D01*
X339050Y410965D01*
X339038Y411042D01*
X339016Y411082D01*
X339003Y411126D01*
X338959Y411190D01*
X338922Y411259D01*
X338889Y411291D01*
X338863Y411328D01*
X338800Y411375D01*
X338744Y411428D01*
X338702Y411448D01*
X338666Y411475D01*
X338592Y411499D01*
X338521Y411532D01*
X338475Y411537D01*
X338432Y411551D01*
X338354Y411550D01*
X338277Y411559D01*
X338232Y411549D01*
X338186Y411549D01*
X338054Y411511D01*
X338036Y411507D01*
X338032Y411504D01*
X338025Y411502D01*
X334010Y409839D01*
X325990Y409839D01*
X318580Y412909D01*
X312909Y418580D01*
X309839Y425990D01*
X309839Y434010D01*
X311502Y438025D01*
X311513Y438069D01*
X311532Y438111D01*
X311541Y438188D01*
X311558Y438264D01*
X311554Y438310D01*
X311559Y438355D01*
X311543Y438432D01*
X311535Y438509D01*
X311517Y438551D01*
X311507Y438596D01*
X311467Y438663D01*
X311435Y438734D01*
X311404Y438768D01*
X311381Y438807D01*
X311322Y438858D01*
X311269Y438915D01*
X311229Y438937D01*
X311194Y438967D01*
X311121Y438996D01*
X311053Y439033D01*
X311008Y439042D01*
X310966Y439059D01*
X310830Y439074D01*
X310811Y439077D01*
X310806Y439076D01*
X310799Y439077D01*
X39201Y439077D01*
X39156Y439070D01*
X39110Y439072D01*
X39035Y439050D01*
X38958Y439038D01*
X38918Y439016D01*
X38874Y439003D01*
X38810Y438959D01*
X38741Y438922D01*
X38709Y438889D01*
X38672Y438863D01*
X38625Y438800D01*
X38572Y438744D01*
X38552Y438702D01*
X38525Y438666D01*
X38501Y438592D01*
X38468Y438521D01*
X38463Y438475D01*
X38449Y438432D01*
X38450Y438354D01*
X38441Y438277D01*
X38451Y438232D01*
X38451Y438186D01*
X38489Y438054D01*
X38493Y438036D01*
X38496Y438032D01*
X38498Y438025D01*
X40161Y434010D01*
X40161Y425990D01*
X37091Y418580D01*
X31420Y412909D01*
X24010Y409839D01*
X15990Y409839D01*
X11975Y411502D01*
X11931Y411513D01*
X11889Y411532D01*
X11812Y411541D01*
X11736Y411558D01*
X11690Y411554D01*
X11645Y411559D01*
X11568Y411543D01*
X11491Y411535D01*
X11449Y411517D01*
X11404Y411507D01*
X11337Y411467D01*
X11266Y411435D01*
X11232Y411404D01*
X11193Y411381D01*
X11142Y411322D01*
X11085Y411269D01*
X11063Y411229D01*
X11033Y411194D01*
X11004Y411121D01*
X10967Y411053D01*
X10958Y411008D01*
X10941Y410966D01*
X10926Y410830D01*
X10923Y410811D01*
X10924Y410806D01*
X10923Y410799D01*
X10923Y39201D01*
X10930Y39156D01*
X10928Y39110D01*
X10950Y39035D01*
X10962Y38958D01*
X10984Y38918D01*
X10997Y38874D01*
X11041Y38810D01*
X11078Y38741D01*
X11111Y38709D01*
X11137Y38672D01*
X11200Y38625D01*
X11256Y38572D01*
X11298Y38552D01*
X11334Y38525D01*
X11408Y38501D01*
X11479Y38468D01*
X11525Y38463D01*
X11568Y38449D01*
X11646Y38450D01*
X11723Y38441D01*
X11768Y38451D01*
X11814Y38451D01*
X11946Y38489D01*
X11964Y38493D01*
X11968Y38496D01*
X11975Y38498D01*
X15990Y40161D01*
X24010Y40161D01*
X31420Y37091D01*
X37091Y31420D01*
X40161Y24010D01*
X40161Y15990D01*
X38498Y11975D01*
X38487Y11931D01*
X38468Y11889D01*
X38459Y11812D01*
X38442Y11736D01*
X38446Y11690D01*
X38441Y11645D01*
X38457Y11568D01*
X38465Y11491D01*
X38483Y11449D01*
X38493Y11404D01*
X38533Y11337D01*
X38565Y11266D01*
X38596Y11232D01*
X38619Y11193D01*
X38678Y11142D01*
X38731Y11085D01*
X38771Y11063D01*
X38806Y11033D01*
X38879Y11004D01*
X38947Y10967D01*
X38992Y10958D01*
X39034Y10941D01*
X39170Y10926D01*
X39189Y10923D01*
X39194Y10924D01*
X39201Y10923D01*
X310799Y10923D01*
X310844Y10930D01*
G37*
%LPC*%
G36*
X53917Y32765D02*
X53917Y32765D01*
X14477Y72205D01*
X14477Y359087D01*
X55441Y400051D01*
X59697Y400051D01*
X59787Y400065D01*
X59878Y400073D01*
X59908Y400085D01*
X59940Y400090D01*
X60021Y400133D01*
X60105Y400169D01*
X60137Y400195D01*
X60158Y400206D01*
X60180Y400229D01*
X60236Y400274D01*
X61418Y401456D01*
X61460Y401514D01*
X61509Y401566D01*
X61531Y401613D01*
X61561Y401655D01*
X61582Y401724D01*
X61613Y401789D01*
X61618Y401841D01*
X61634Y401891D01*
X61632Y401962D01*
X61640Y402033D01*
X61629Y402084D01*
X61627Y402136D01*
X61603Y402204D01*
X61588Y402274D01*
X61561Y402319D01*
X61543Y402367D01*
X61498Y402423D01*
X61461Y402485D01*
X61422Y402519D01*
X61389Y402559D01*
X61329Y402598D01*
X61274Y402645D01*
X61226Y402664D01*
X61182Y402692D01*
X61113Y402710D01*
X61046Y402737D01*
X60975Y402745D01*
X60944Y402753D01*
X60920Y402751D01*
X60880Y402755D01*
X56712Y402755D01*
X51355Y408112D01*
X51355Y415688D01*
X56712Y421045D01*
X64288Y421045D01*
X69823Y415510D01*
X69840Y415497D01*
X69854Y415480D01*
X69940Y415425D01*
X70023Y415366D01*
X70043Y415360D01*
X70061Y415348D01*
X70160Y415324D01*
X70258Y415294D01*
X70279Y415294D01*
X70300Y415289D01*
X70402Y415297D01*
X70504Y415300D01*
X70524Y415307D01*
X70545Y415309D01*
X70639Y415349D01*
X70735Y415384D01*
X70752Y415398D01*
X70771Y415406D01*
X70902Y415512D01*
X70904Y415514D01*
X79825Y424435D01*
X90863Y424435D01*
X99784Y415514D01*
X99858Y415461D01*
X99928Y415401D01*
X99958Y415389D01*
X99984Y415370D01*
X100071Y415343D01*
X100156Y415309D01*
X100197Y415305D01*
X100219Y415298D01*
X100251Y415299D01*
X100323Y415291D01*
X101443Y415291D01*
X101533Y415305D01*
X101624Y415313D01*
X101654Y415325D01*
X101686Y415330D01*
X101766Y415373D01*
X101850Y415409D01*
X101882Y415435D01*
X101903Y415446D01*
X101925Y415469D01*
X101981Y415514D01*
X107512Y421045D01*
X115088Y421045D01*
X120445Y415688D01*
X120445Y408112D01*
X116731Y404398D01*
X116689Y404340D01*
X116640Y404288D01*
X116618Y404241D01*
X116587Y404199D01*
X116566Y404130D01*
X116536Y404065D01*
X116530Y404013D01*
X116515Y403963D01*
X116517Y403892D01*
X116509Y403821D01*
X116520Y403770D01*
X116521Y403718D01*
X116546Y403650D01*
X116561Y403580D01*
X116588Y403535D01*
X116606Y403487D01*
X116651Y403431D01*
X116687Y403369D01*
X116727Y403335D01*
X116759Y403295D01*
X116820Y403256D01*
X116874Y403209D01*
X116923Y403190D01*
X116966Y403162D01*
X117036Y403144D01*
X117102Y403117D01*
X117174Y403109D01*
X117205Y403101D01*
X117228Y403103D01*
X117269Y403099D01*
X130731Y403099D01*
X130802Y403110D01*
X130873Y403112D01*
X130922Y403130D01*
X130974Y403138D01*
X131037Y403172D01*
X131104Y403197D01*
X131145Y403229D01*
X131191Y403254D01*
X131240Y403306D01*
X131296Y403350D01*
X131325Y403394D01*
X131360Y403432D01*
X131391Y403497D01*
X131429Y403557D01*
X131442Y403608D01*
X131464Y403655D01*
X131472Y403726D01*
X131489Y403796D01*
X131485Y403848D01*
X131491Y403899D01*
X131476Y403970D01*
X131470Y404041D01*
X131450Y404089D01*
X131439Y404140D01*
X131402Y404201D01*
X131374Y404267D01*
X131329Y404323D01*
X131313Y404351D01*
X131295Y404366D01*
X131269Y404398D01*
X127555Y408112D01*
X127555Y415688D01*
X132912Y421045D01*
X140488Y421045D01*
X145845Y415688D01*
X145845Y408112D01*
X142131Y404398D01*
X142089Y404340D01*
X142040Y404288D01*
X142018Y404241D01*
X141987Y404199D01*
X141966Y404130D01*
X141936Y404065D01*
X141930Y404013D01*
X141915Y403963D01*
X141917Y403892D01*
X141909Y403821D01*
X141920Y403770D01*
X141921Y403718D01*
X141946Y403650D01*
X141961Y403580D01*
X141988Y403535D01*
X142006Y403487D01*
X142051Y403431D01*
X142087Y403369D01*
X142127Y403335D01*
X142159Y403295D01*
X142220Y403256D01*
X142274Y403209D01*
X142323Y403190D01*
X142366Y403162D01*
X142436Y403144D01*
X142502Y403117D01*
X142574Y403109D01*
X142605Y403101D01*
X142628Y403103D01*
X142669Y403099D01*
X156131Y403099D01*
X156202Y403110D01*
X156273Y403112D01*
X156322Y403130D01*
X156374Y403138D01*
X156437Y403172D01*
X156504Y403197D01*
X156545Y403229D01*
X156591Y403254D01*
X156640Y403306D01*
X156696Y403350D01*
X156725Y403394D01*
X156760Y403432D01*
X156791Y403497D01*
X156829Y403557D01*
X156842Y403608D01*
X156864Y403655D01*
X156872Y403726D01*
X156889Y403796D01*
X156885Y403848D01*
X156891Y403899D01*
X156876Y403970D01*
X156870Y404041D01*
X156850Y404089D01*
X156839Y404140D01*
X156802Y404201D01*
X156774Y404267D01*
X156729Y404323D01*
X156713Y404351D01*
X156695Y404366D01*
X156669Y404398D01*
X152955Y408112D01*
X152955Y415688D01*
X158312Y421045D01*
X165888Y421045D01*
X171245Y415688D01*
X171245Y408112D01*
X167531Y404398D01*
X167489Y404340D01*
X167440Y404288D01*
X167418Y404241D01*
X167387Y404199D01*
X167366Y404130D01*
X167336Y404065D01*
X167330Y404013D01*
X167315Y403963D01*
X167317Y403892D01*
X167309Y403821D01*
X167320Y403770D01*
X167321Y403718D01*
X167346Y403650D01*
X167361Y403580D01*
X167388Y403535D01*
X167406Y403487D01*
X167451Y403431D01*
X167487Y403369D01*
X167527Y403335D01*
X167559Y403295D01*
X167620Y403256D01*
X167674Y403209D01*
X167723Y403190D01*
X167766Y403162D01*
X167836Y403144D01*
X167902Y403117D01*
X167974Y403109D01*
X168005Y403101D01*
X168028Y403103D01*
X168069Y403099D01*
X181531Y403099D01*
X181602Y403110D01*
X181673Y403112D01*
X181722Y403130D01*
X181774Y403138D01*
X181837Y403172D01*
X181904Y403197D01*
X181945Y403229D01*
X181991Y403254D01*
X182040Y403306D01*
X182096Y403350D01*
X182125Y403394D01*
X182160Y403432D01*
X182191Y403497D01*
X182229Y403557D01*
X182242Y403608D01*
X182264Y403655D01*
X182272Y403726D01*
X182289Y403796D01*
X182285Y403848D01*
X182291Y403899D01*
X182276Y403970D01*
X182270Y404041D01*
X182250Y404089D01*
X182239Y404140D01*
X182202Y404201D01*
X182174Y404267D01*
X182129Y404323D01*
X182113Y404351D01*
X182095Y404366D01*
X182069Y404398D01*
X178355Y408112D01*
X178355Y415688D01*
X183712Y421045D01*
X191288Y421045D01*
X196645Y415688D01*
X196645Y408112D01*
X191288Y402755D01*
X190580Y402755D01*
X190510Y402744D01*
X190438Y402742D01*
X190389Y402724D01*
X190338Y402716D01*
X190274Y402682D01*
X190207Y402657D01*
X190166Y402625D01*
X190120Y402600D01*
X190071Y402548D01*
X190015Y402504D01*
X189987Y402460D01*
X189951Y402422D01*
X189921Y402357D01*
X189882Y402297D01*
X189869Y402246D01*
X189847Y402199D01*
X189839Y402128D01*
X189822Y402058D01*
X189826Y402006D01*
X189820Y401955D01*
X189835Y401884D01*
X189841Y401813D01*
X189861Y401765D01*
X189872Y401714D01*
X189909Y401653D01*
X189937Y401587D01*
X189982Y401531D01*
X189999Y401503D01*
X190016Y401488D01*
X190042Y401456D01*
X293360Y298138D01*
X293434Y298085D01*
X293504Y298025D01*
X293534Y298013D01*
X293560Y297994D01*
X293647Y297967D01*
X293732Y297933D01*
X293773Y297929D01*
X293795Y297922D01*
X293827Y297923D01*
X293899Y297915D01*
X297854Y297915D01*
X300963Y294806D01*
X300963Y290410D01*
X297854Y287301D01*
X293458Y287301D01*
X290349Y290410D01*
X290349Y294365D01*
X290335Y294456D01*
X290327Y294546D01*
X290315Y294576D01*
X290310Y294608D01*
X290267Y294689D01*
X290231Y294773D01*
X290205Y294805D01*
X290194Y294826D01*
X290171Y294848D01*
X290126Y294904D01*
X198960Y386070D01*
X198902Y386112D01*
X198850Y386161D01*
X198803Y386183D01*
X198761Y386213D01*
X198692Y386234D01*
X198627Y386265D01*
X198575Y386270D01*
X198525Y386286D01*
X198454Y386284D01*
X198383Y386292D01*
X198332Y386281D01*
X198280Y386279D01*
X198212Y386255D01*
X198142Y386240D01*
X198098Y386213D01*
X198049Y386195D01*
X197993Y386150D01*
X197931Y386113D01*
X197897Y386074D01*
X197857Y386041D01*
X197818Y385981D01*
X197771Y385926D01*
X197752Y385878D01*
X197724Y385834D01*
X197706Y385765D01*
X197679Y385698D01*
X197671Y385627D01*
X197663Y385596D01*
X197665Y385572D01*
X197661Y385532D01*
X197661Y382291D01*
X191709Y376339D01*
X189023Y376339D01*
X189023Y385738D01*
X189020Y385758D01*
X189022Y385777D01*
X189000Y385879D01*
X188983Y385981D01*
X188974Y385998D01*
X188970Y386018D01*
X188917Y386107D01*
X188868Y386198D01*
X188854Y386212D01*
X188844Y386229D01*
X188765Y386296D01*
X188690Y386367D01*
X188672Y386376D01*
X188657Y386389D01*
X188561Y386427D01*
X188467Y386471D01*
X188447Y386473D01*
X188429Y386481D01*
X188262Y386499D01*
X187499Y386499D01*
X187499Y387262D01*
X187496Y387282D01*
X187498Y387301D01*
X187476Y387403D01*
X187459Y387505D01*
X187450Y387522D01*
X187446Y387542D01*
X187393Y387631D01*
X187344Y387722D01*
X187330Y387736D01*
X187320Y387753D01*
X187241Y387820D01*
X187166Y387891D01*
X187148Y387900D01*
X187133Y387913D01*
X187037Y387952D01*
X186943Y387995D01*
X186923Y387997D01*
X186905Y388005D01*
X186738Y388023D01*
X177339Y388023D01*
X177339Y390709D01*
X183291Y396661D01*
X186532Y396661D01*
X186602Y396672D01*
X186674Y396674D01*
X186723Y396692D01*
X186774Y396700D01*
X186838Y396734D01*
X186905Y396759D01*
X186946Y396791D01*
X186992Y396816D01*
X187041Y396867D01*
X187097Y396912D01*
X187125Y396956D01*
X187161Y396994D01*
X187191Y397059D01*
X187230Y397119D01*
X187243Y397170D01*
X187265Y397217D01*
X187273Y397288D01*
X187290Y397358D01*
X187286Y397410D01*
X187292Y397461D01*
X187277Y397532D01*
X187271Y397603D01*
X187251Y397651D01*
X187240Y397702D01*
X187203Y397763D01*
X187175Y397829D01*
X187130Y397885D01*
X187113Y397913D01*
X187096Y397928D01*
X187070Y397960D01*
X186728Y398302D01*
X186654Y398355D01*
X186584Y398415D01*
X186554Y398427D01*
X186528Y398446D01*
X186441Y398473D01*
X186356Y398507D01*
X186315Y398511D01*
X186293Y398518D01*
X186261Y398517D01*
X186189Y398525D01*
X170426Y398525D01*
X170356Y398514D01*
X170284Y398512D01*
X170235Y398494D01*
X170184Y398486D01*
X170120Y398452D01*
X170053Y398427D01*
X170012Y398395D01*
X169966Y398370D01*
X169917Y398318D01*
X169861Y398274D01*
X169833Y398230D01*
X169797Y398192D01*
X169767Y398127D01*
X169728Y398067D01*
X169715Y398016D01*
X169693Y397969D01*
X169685Y397898D01*
X169668Y397828D01*
X169672Y397776D01*
X169666Y397725D01*
X169681Y397654D01*
X169687Y397583D01*
X169707Y397535D01*
X169718Y397484D01*
X169755Y397423D01*
X169783Y397357D01*
X169828Y397301D01*
X169845Y397273D01*
X169862Y397258D01*
X169888Y397226D01*
X174499Y392615D01*
X174499Y388359D01*
X174513Y388268D01*
X174521Y388178D01*
X174533Y388148D01*
X174538Y388116D01*
X174581Y388035D01*
X174617Y387951D01*
X174643Y387919D01*
X174654Y387898D01*
X174677Y387876D01*
X174722Y387820D01*
X177342Y385200D01*
X177416Y385147D01*
X177486Y385087D01*
X177516Y385075D01*
X177542Y385056D01*
X177629Y385029D01*
X177714Y384995D01*
X177755Y384991D01*
X177777Y384984D01*
X177809Y384985D01*
X177880Y384977D01*
X185977Y384977D01*
X185977Y376880D01*
X185992Y376790D01*
X185999Y376699D01*
X186011Y376670D01*
X186017Y376638D01*
X186059Y376557D01*
X186095Y376473D01*
X186121Y376441D01*
X186132Y376420D01*
X186155Y376398D01*
X186200Y376342D01*
X191224Y371318D01*
X191298Y371265D01*
X191368Y371205D01*
X191398Y371193D01*
X191424Y371174D01*
X191511Y371147D01*
X191596Y371113D01*
X191637Y371109D01*
X191659Y371102D01*
X191691Y371103D01*
X191763Y371095D01*
X193714Y371095D01*
X193734Y371098D01*
X193753Y371096D01*
X193855Y371118D01*
X193957Y371134D01*
X193974Y371144D01*
X193994Y371148D01*
X194083Y371201D01*
X194174Y371250D01*
X194188Y371264D01*
X194205Y371274D01*
X194272Y371353D01*
X194344Y371428D01*
X194352Y371446D01*
X194365Y371461D01*
X194404Y371557D01*
X194447Y371651D01*
X194449Y371671D01*
X194457Y371689D01*
X194475Y371856D01*
X194475Y372132D01*
X195368Y373025D01*
X204632Y373025D01*
X205525Y372132D01*
X205525Y362712D01*
X205528Y362692D01*
X205526Y362673D01*
X205548Y362571D01*
X205564Y362469D01*
X205574Y362452D01*
X205578Y362432D01*
X205631Y362343D01*
X205680Y362252D01*
X205694Y362238D01*
X205704Y362221D01*
X205783Y362154D01*
X205858Y362082D01*
X205876Y362074D01*
X205891Y362061D01*
X205987Y362022D01*
X206081Y361979D01*
X206101Y361977D01*
X206119Y361969D01*
X206286Y361951D01*
X214307Y361951D01*
X297456Y278802D01*
X297514Y278760D01*
X297566Y278711D01*
X297613Y278689D01*
X297655Y278659D01*
X297724Y278638D01*
X297789Y278607D01*
X297841Y278602D01*
X297891Y278586D01*
X297962Y278588D01*
X298033Y278580D01*
X298084Y278591D01*
X298136Y278593D01*
X298204Y278617D01*
X298274Y278632D01*
X298318Y278659D01*
X298367Y278677D01*
X298423Y278722D01*
X298485Y278759D01*
X298519Y278798D01*
X298559Y278831D01*
X298598Y278891D01*
X298645Y278946D01*
X298664Y278994D01*
X298692Y279038D01*
X298710Y279107D01*
X298737Y279174D01*
X298745Y279245D01*
X298753Y279276D01*
X298751Y279300D01*
X298755Y279340D01*
X298755Y280404D01*
X299983Y283368D01*
X302252Y285637D01*
X305216Y286865D01*
X321504Y286865D01*
X324468Y285637D01*
X326737Y283368D01*
X327965Y280404D01*
X327965Y277196D01*
X326737Y274232D01*
X324468Y271963D01*
X321504Y270735D01*
X307360Y270735D01*
X307290Y270724D01*
X307218Y270722D01*
X307169Y270704D01*
X307118Y270696D01*
X307054Y270662D01*
X306987Y270637D01*
X306946Y270605D01*
X306900Y270580D01*
X306851Y270528D01*
X306795Y270484D01*
X306767Y270440D01*
X306731Y270402D01*
X306701Y270337D01*
X306662Y270277D01*
X306649Y270226D01*
X306627Y270179D01*
X306619Y270108D01*
X306602Y270038D01*
X306606Y269986D01*
X306600Y269935D01*
X306615Y269864D01*
X306621Y269793D01*
X306641Y269745D01*
X306652Y269694D01*
X306689Y269633D01*
X306717Y269567D01*
X306762Y269511D01*
X306779Y269483D01*
X306796Y269468D01*
X306822Y269436D01*
X310096Y266162D01*
X310170Y266109D01*
X310240Y266049D01*
X310270Y266037D01*
X310296Y266018D01*
X310383Y265991D01*
X310468Y265957D01*
X310509Y265953D01*
X310531Y265946D01*
X310563Y265947D01*
X310635Y265939D01*
X324035Y265939D01*
X334519Y255455D01*
X334519Y99637D01*
X293864Y58982D01*
X293852Y58966D01*
X293837Y58953D01*
X293781Y58866D01*
X293720Y58782D01*
X293715Y58763D01*
X293704Y58747D01*
X293678Y58646D01*
X293648Y58547D01*
X293649Y58527D01*
X293644Y58508D01*
X293652Y58405D01*
X293654Y58301D01*
X293661Y58283D01*
X293663Y58263D01*
X293703Y58168D01*
X293739Y58070D01*
X293751Y58055D01*
X293759Y58036D01*
X293864Y57905D01*
X299461Y52309D01*
X299461Y49623D01*
X290062Y49623D01*
X290042Y49620D01*
X290023Y49622D01*
X289921Y49600D01*
X289819Y49583D01*
X289802Y49574D01*
X289782Y49570D01*
X289693Y49517D01*
X289602Y49468D01*
X289588Y49454D01*
X289571Y49444D01*
X289504Y49365D01*
X289433Y49290D01*
X289424Y49272D01*
X289411Y49257D01*
X289373Y49161D01*
X289329Y49067D01*
X289327Y49047D01*
X289319Y49029D01*
X289301Y48862D01*
X289301Y48099D01*
X288538Y48099D01*
X288518Y48096D01*
X288499Y48098D01*
X288397Y48076D01*
X288295Y48059D01*
X288278Y48050D01*
X288258Y48046D01*
X288169Y47993D01*
X288078Y47944D01*
X288064Y47930D01*
X288047Y47920D01*
X287980Y47841D01*
X287909Y47766D01*
X287900Y47748D01*
X287887Y47733D01*
X287848Y47637D01*
X287805Y47543D01*
X287803Y47523D01*
X287795Y47505D01*
X287777Y47338D01*
X287777Y37939D01*
X285091Y37939D01*
X279139Y43891D01*
X279139Y46992D01*
X279128Y47062D01*
X279126Y47134D01*
X279108Y47183D01*
X279099Y47234D01*
X279066Y47298D01*
X279041Y47365D01*
X279009Y47406D01*
X278984Y47452D01*
X278932Y47501D01*
X278888Y47557D01*
X278844Y47585D01*
X278806Y47621D01*
X278741Y47651D01*
X278681Y47690D01*
X278630Y47703D01*
X278583Y47725D01*
X278512Y47733D01*
X278442Y47750D01*
X278390Y47746D01*
X278339Y47752D01*
X278268Y47736D01*
X278197Y47731D01*
X278149Y47711D01*
X278098Y47699D01*
X278037Y47663D01*
X277971Y47635D01*
X277915Y47590D01*
X277887Y47573D01*
X277872Y47555D01*
X277840Y47530D01*
X276830Y46520D01*
X276777Y46446D01*
X276717Y46376D01*
X276705Y46346D01*
X276686Y46320D01*
X276659Y46233D01*
X276625Y46148D01*
X276621Y46107D01*
X276614Y46085D01*
X276615Y46053D01*
X276607Y45981D01*
X276607Y43249D01*
X269171Y35813D01*
X156025Y35813D01*
X148589Y43249D01*
X148589Y122867D01*
X158078Y132356D01*
X158120Y132414D01*
X158169Y132466D01*
X158191Y132513D01*
X158221Y132555D01*
X158242Y132624D01*
X158273Y132689D01*
X158278Y132741D01*
X158294Y132791D01*
X158292Y132862D01*
X158300Y132933D01*
X158289Y132984D01*
X158287Y133036D01*
X158263Y133104D01*
X158248Y133174D01*
X158221Y133219D01*
X158203Y133267D01*
X158158Y133323D01*
X158121Y133385D01*
X158082Y133419D01*
X158049Y133459D01*
X157989Y133498D01*
X157934Y133545D01*
X157886Y133564D01*
X157842Y133592D01*
X157773Y133610D01*
X157706Y133637D01*
X157635Y133645D01*
X157604Y133653D01*
X157580Y133651D01*
X157540Y133655D01*
X155028Y133655D01*
X154698Y133985D01*
X154682Y133997D01*
X154670Y134013D01*
X154583Y134069D01*
X154499Y134129D01*
X154480Y134135D01*
X154463Y134146D01*
X154362Y134171D01*
X154263Y134201D01*
X154244Y134201D01*
X154224Y134206D01*
X154121Y134198D01*
X154018Y134195D01*
X153999Y134188D01*
X153979Y134187D01*
X153884Y134146D01*
X153787Y134111D01*
X153771Y134098D01*
X153753Y134090D01*
X153622Y133985D01*
X153292Y133655D01*
X147028Y133655D01*
X146698Y133985D01*
X146682Y133997D01*
X146670Y134013D01*
X146583Y134069D01*
X146499Y134129D01*
X146480Y134135D01*
X146463Y134146D01*
X146362Y134171D01*
X146263Y134201D01*
X146244Y134201D01*
X146224Y134206D01*
X146121Y134198D01*
X146018Y134195D01*
X145999Y134188D01*
X145979Y134187D01*
X145884Y134146D01*
X145787Y134111D01*
X145771Y134098D01*
X145753Y134090D01*
X145622Y133985D01*
X145292Y133655D01*
X143300Y133655D01*
X143210Y133641D01*
X143119Y133633D01*
X143090Y133621D01*
X143058Y133616D01*
X142977Y133573D01*
X142893Y133537D01*
X142861Y133511D01*
X142840Y133500D01*
X142818Y133477D01*
X142762Y133432D01*
X142456Y133126D01*
X129002Y119672D01*
X128949Y119598D01*
X128889Y119528D01*
X128877Y119498D01*
X128858Y119472D01*
X128831Y119385D01*
X128797Y119300D01*
X128793Y119259D01*
X128786Y119237D01*
X128787Y119205D01*
X128779Y119133D01*
X128779Y80149D01*
X128790Y80078D01*
X128792Y80007D01*
X128810Y79958D01*
X128818Y79906D01*
X128852Y79843D01*
X128877Y79776D01*
X128909Y79735D01*
X128934Y79689D01*
X128986Y79640D01*
X129030Y79584D01*
X129074Y79555D01*
X129112Y79520D01*
X129177Y79489D01*
X129237Y79451D01*
X129288Y79438D01*
X129335Y79416D01*
X129406Y79408D01*
X129476Y79391D01*
X129528Y79395D01*
X129579Y79389D01*
X129650Y79404D01*
X129721Y79410D01*
X129769Y79430D01*
X129820Y79441D01*
X129881Y79478D01*
X129947Y79506D01*
X130003Y79551D01*
X130031Y79567D01*
X130046Y79585D01*
X130078Y79611D01*
X133112Y82645D01*
X140688Y82645D01*
X146045Y77288D01*
X146045Y69712D01*
X140688Y64355D01*
X133112Y64355D01*
X129845Y67622D01*
X129829Y67634D01*
X129816Y67650D01*
X129729Y67706D01*
X129645Y67766D01*
X129626Y67772D01*
X129609Y67783D01*
X129509Y67808D01*
X129410Y67838D01*
X129390Y67838D01*
X129371Y67843D01*
X129268Y67835D01*
X129164Y67832D01*
X129145Y67825D01*
X129126Y67824D01*
X129031Y67783D01*
X128933Y67748D01*
X128918Y67735D01*
X128899Y67727D01*
X128768Y67622D01*
X127216Y66070D01*
X118295Y57149D01*
X117221Y57149D01*
X117150Y57138D01*
X117079Y57136D01*
X117030Y57118D01*
X116978Y57110D01*
X116915Y57076D01*
X116848Y57051D01*
X116807Y57019D01*
X116761Y56994D01*
X116712Y56942D01*
X116656Y56898D01*
X116627Y56854D01*
X116592Y56816D01*
X116561Y56751D01*
X116523Y56691D01*
X116510Y56640D01*
X116488Y56593D01*
X116480Y56522D01*
X116463Y56452D01*
X116467Y56400D01*
X116461Y56349D01*
X116476Y56278D01*
X116482Y56207D01*
X116502Y56159D01*
X116513Y56108D01*
X116550Y56047D01*
X116578Y55981D01*
X116623Y55925D01*
X116639Y55897D01*
X116657Y55882D01*
X116683Y55850D01*
X120645Y51888D01*
X120645Y44312D01*
X115288Y38955D01*
X107712Y38955D01*
X107493Y39174D01*
X107477Y39186D01*
X107464Y39202D01*
X107377Y39258D01*
X107293Y39318D01*
X107274Y39324D01*
X107257Y39335D01*
X107157Y39360D01*
X107058Y39390D01*
X107038Y39390D01*
X107019Y39395D01*
X106916Y39387D01*
X106812Y39384D01*
X106793Y39377D01*
X106774Y39376D01*
X106679Y39335D01*
X106581Y39300D01*
X106566Y39287D01*
X106547Y39279D01*
X106416Y39174D01*
X100007Y32765D01*
X53917Y32765D01*
G37*
%LPD*%
G36*
X231718Y115066D02*
X231718Y115066D01*
X231737Y115064D01*
X231839Y115086D01*
X231941Y115102D01*
X231958Y115112D01*
X231978Y115116D01*
X232067Y115169D01*
X232158Y115218D01*
X232172Y115232D01*
X232189Y115242D01*
X232256Y115321D01*
X232328Y115396D01*
X232336Y115414D01*
X232349Y115429D01*
X232388Y115525D01*
X232431Y115619D01*
X232433Y115639D01*
X232441Y115657D01*
X232459Y115824D01*
X232459Y119977D01*
X239238Y119977D01*
X239258Y119980D01*
X239277Y119978D01*
X239379Y120000D01*
X239481Y120017D01*
X239498Y120026D01*
X239518Y120030D01*
X239607Y120083D01*
X239698Y120132D01*
X239712Y120146D01*
X239729Y120156D01*
X239796Y120235D01*
X239867Y120310D01*
X239876Y120328D01*
X239889Y120343D01*
X239928Y120439D01*
X239971Y120533D01*
X239973Y120553D01*
X239981Y120571D01*
X239999Y120738D01*
X239999Y121501D01*
X240001Y121501D01*
X240001Y120738D01*
X240004Y120718D01*
X240002Y120699D01*
X240024Y120597D01*
X240041Y120495D01*
X240050Y120478D01*
X240054Y120458D01*
X240107Y120369D01*
X240156Y120278D01*
X240170Y120264D01*
X240180Y120247D01*
X240259Y120180D01*
X240334Y120109D01*
X240352Y120100D01*
X240367Y120087D01*
X240463Y120048D01*
X240557Y120005D01*
X240577Y120003D01*
X240595Y119995D01*
X240762Y119977D01*
X247549Y119977D01*
X247552Y119954D01*
X247554Y119882D01*
X247572Y119833D01*
X247580Y119782D01*
X247614Y119718D01*
X247639Y119651D01*
X247671Y119610D01*
X247696Y119564D01*
X247748Y119515D01*
X247792Y119459D01*
X247836Y119431D01*
X247874Y119395D01*
X247939Y119365D01*
X247999Y119326D01*
X248050Y119313D01*
X248097Y119291D01*
X248168Y119283D01*
X248238Y119266D01*
X248290Y119270D01*
X248341Y119264D01*
X248412Y119279D01*
X248483Y119285D01*
X248531Y119305D01*
X248582Y119316D01*
X248643Y119353D01*
X248709Y119381D01*
X248765Y119426D01*
X248793Y119443D01*
X248808Y119460D01*
X248840Y119486D01*
X294670Y165316D01*
X294723Y165390D01*
X294783Y165460D01*
X294795Y165490D01*
X294814Y165516D01*
X294841Y165603D01*
X294875Y165688D01*
X294879Y165729D01*
X294886Y165751D01*
X294885Y165783D01*
X294893Y165855D01*
X294893Y182303D01*
X302329Y189739D01*
X326136Y189739D01*
X326156Y189742D01*
X326175Y189740D01*
X326277Y189762D01*
X326379Y189778D01*
X326396Y189788D01*
X326416Y189792D01*
X326505Y189845D01*
X326596Y189894D01*
X326610Y189908D01*
X326627Y189918D01*
X326694Y189997D01*
X326766Y190072D01*
X326774Y190090D01*
X326787Y190105D01*
X326826Y190201D01*
X326869Y190295D01*
X326871Y190315D01*
X326879Y190333D01*
X326897Y190500D01*
X326897Y194930D01*
X326878Y195048D01*
X326859Y195167D01*
X326858Y195170D01*
X326858Y195173D01*
X326802Y195277D01*
X326746Y195385D01*
X326744Y195387D01*
X326742Y195390D01*
X326657Y195471D01*
X326569Y195556D01*
X326566Y195557D01*
X326564Y195559D01*
X326456Y195609D01*
X326347Y195661D01*
X326344Y195662D01*
X326341Y195663D01*
X326223Y195676D01*
X326103Y195690D01*
X326100Y195690D01*
X326097Y195690D01*
X325980Y195665D01*
X325862Y195640D01*
X325859Y195638D01*
X325856Y195638D01*
X325847Y195632D01*
X325713Y195563D01*
X324201Y194553D01*
X322549Y193868D01*
X320794Y193519D01*
X314883Y193519D01*
X314883Y201838D01*
X314880Y201858D01*
X314882Y201877D01*
X314860Y201979D01*
X314843Y202081D01*
X314834Y202098D01*
X314830Y202118D01*
X314777Y202207D01*
X314728Y202298D01*
X314714Y202312D01*
X314704Y202329D01*
X314625Y202396D01*
X314550Y202467D01*
X314532Y202476D01*
X314517Y202489D01*
X314421Y202527D01*
X314327Y202571D01*
X314307Y202573D01*
X314289Y202581D01*
X314122Y202599D01*
X313359Y202599D01*
X313359Y203362D01*
X313356Y203382D01*
X313358Y203401D01*
X313336Y203503D01*
X313319Y203605D01*
X313310Y203622D01*
X313306Y203642D01*
X313253Y203731D01*
X313204Y203822D01*
X313190Y203836D01*
X313180Y203853D01*
X313101Y203920D01*
X313026Y203991D01*
X313008Y204000D01*
X312993Y204013D01*
X312897Y204052D01*
X312803Y204095D01*
X312783Y204097D01*
X312765Y204105D01*
X312598Y204123D01*
X297864Y204123D01*
X298088Y205249D01*
X298773Y206901D01*
X299767Y208389D01*
X301031Y209653D01*
X302519Y210647D01*
X304171Y211332D01*
X304836Y211464D01*
X304949Y211506D01*
X305060Y211547D01*
X305063Y211549D01*
X305066Y211550D01*
X305159Y211626D01*
X305252Y211701D01*
X305254Y211704D01*
X305257Y211705D01*
X305320Y211807D01*
X305385Y211908D01*
X305386Y211911D01*
X305388Y211913D01*
X305416Y212030D01*
X305446Y212146D01*
X305445Y212149D01*
X305446Y212152D01*
X305436Y212273D01*
X305426Y212392D01*
X305425Y212394D01*
X305425Y212398D01*
X305376Y212510D01*
X305330Y212618D01*
X305328Y212621D01*
X305327Y212623D01*
X305319Y212631D01*
X305225Y212749D01*
X252221Y265753D01*
X252221Y295774D01*
X252218Y295794D01*
X252220Y295813D01*
X252198Y295915D01*
X252182Y296017D01*
X252172Y296034D01*
X252168Y296054D01*
X252115Y296143D01*
X252066Y296234D01*
X252052Y296248D01*
X252042Y296265D01*
X251963Y296332D01*
X251888Y296404D01*
X251870Y296412D01*
X251855Y296425D01*
X251759Y296464D01*
X251665Y296507D01*
X251645Y296509D01*
X251627Y296517D01*
X251460Y296535D01*
X248538Y296535D01*
X247645Y297428D01*
X247645Y309692D01*
X248538Y310585D01*
X257368Y310585D01*
X257438Y310596D01*
X257510Y310598D01*
X257559Y310616D01*
X257610Y310624D01*
X257674Y310658D01*
X257741Y310683D01*
X257782Y310715D01*
X257828Y310740D01*
X257877Y310792D01*
X257933Y310836D01*
X257961Y310880D01*
X257997Y310918D01*
X258027Y310983D01*
X258066Y311043D01*
X258079Y311094D01*
X258101Y311141D01*
X258109Y311212D01*
X258126Y311282D01*
X258122Y311334D01*
X258128Y311385D01*
X258113Y311456D01*
X258107Y311527D01*
X258087Y311575D01*
X258076Y311626D01*
X258039Y311687D01*
X258011Y311753D01*
X257966Y311809D01*
X257949Y311837D01*
X257932Y311852D01*
X257906Y311884D01*
X212636Y357154D01*
X212562Y357207D01*
X212492Y357267D01*
X212462Y357279D01*
X212436Y357298D01*
X212349Y357325D01*
X212264Y357359D01*
X212223Y357363D01*
X212201Y357370D01*
X212169Y357369D01*
X212097Y357377D01*
X206286Y357377D01*
X206266Y357374D01*
X206247Y357376D01*
X206145Y357354D01*
X206043Y357338D01*
X206026Y357328D01*
X206006Y357324D01*
X205917Y357271D01*
X205826Y357222D01*
X205812Y357208D01*
X205795Y357198D01*
X205728Y357119D01*
X205656Y357044D01*
X205648Y357026D01*
X205635Y357011D01*
X205596Y356915D01*
X205553Y356821D01*
X205551Y356801D01*
X205543Y356783D01*
X205525Y356616D01*
X205525Y347868D01*
X204632Y346975D01*
X204216Y346975D01*
X204196Y346972D01*
X204177Y346974D01*
X204075Y346952D01*
X203973Y346936D01*
X203956Y346926D01*
X203936Y346922D01*
X203847Y346869D01*
X203756Y346820D01*
X203742Y346806D01*
X203725Y346796D01*
X203658Y346717D01*
X203586Y346642D01*
X203578Y346624D01*
X203565Y346609D01*
X203526Y346513D01*
X203483Y346419D01*
X203481Y346399D01*
X203473Y346381D01*
X203455Y346214D01*
X203455Y342639D01*
X203469Y342548D01*
X203477Y342458D01*
X203489Y342428D01*
X203494Y342396D01*
X203537Y342315D01*
X203573Y342231D01*
X203599Y342199D01*
X203610Y342178D01*
X203633Y342156D01*
X203678Y342100D01*
X205530Y340248D01*
X205604Y340195D01*
X205674Y340135D01*
X205704Y340123D01*
X205730Y340104D01*
X205817Y340077D01*
X205902Y340043D01*
X205943Y340039D01*
X205965Y340032D01*
X205997Y340033D01*
X206069Y340025D01*
X216132Y340025D01*
X217025Y339132D01*
X217025Y327868D01*
X216132Y326975D01*
X203868Y326975D01*
X202975Y327868D01*
X202975Y336019D01*
X202961Y336110D01*
X202953Y336200D01*
X202941Y336230D01*
X202936Y336262D01*
X202893Y336343D01*
X202857Y336427D01*
X202831Y336459D01*
X202820Y336480D01*
X202797Y336502D01*
X202752Y336558D01*
X198881Y340429D01*
X198881Y346214D01*
X198878Y346234D01*
X198880Y346253D01*
X198858Y346355D01*
X198842Y346457D01*
X198832Y346474D01*
X198828Y346494D01*
X198775Y346583D01*
X198726Y346674D01*
X198712Y346688D01*
X198702Y346705D01*
X198623Y346772D01*
X198548Y346844D01*
X198530Y346852D01*
X198515Y346865D01*
X198419Y346904D01*
X198325Y346947D01*
X198305Y346949D01*
X198287Y346957D01*
X198120Y346975D01*
X195368Y346975D01*
X194475Y347868D01*
X194475Y356616D01*
X194472Y356636D01*
X194474Y356655D01*
X194452Y356757D01*
X194436Y356859D01*
X194426Y356876D01*
X194422Y356896D01*
X194369Y356985D01*
X194320Y357076D01*
X194306Y357090D01*
X194296Y357107D01*
X194217Y357174D01*
X194142Y357246D01*
X194124Y357254D01*
X194109Y357267D01*
X194013Y357306D01*
X193919Y357349D01*
X193899Y357351D01*
X193881Y357359D01*
X193714Y357377D01*
X186286Y357377D01*
X186266Y357374D01*
X186247Y357376D01*
X186145Y357354D01*
X186043Y357338D01*
X186026Y357328D01*
X186006Y357324D01*
X185917Y357271D01*
X185826Y357222D01*
X185812Y357208D01*
X185795Y357198D01*
X185728Y357119D01*
X185656Y357044D01*
X185648Y357026D01*
X185635Y357011D01*
X185596Y356915D01*
X185553Y356821D01*
X185551Y356801D01*
X185543Y356783D01*
X185525Y356616D01*
X185525Y347868D01*
X184632Y346975D01*
X184404Y346975D01*
X184384Y346972D01*
X184365Y346974D01*
X184263Y346952D01*
X184161Y346936D01*
X184144Y346926D01*
X184124Y346922D01*
X184035Y346869D01*
X183944Y346820D01*
X183930Y346806D01*
X183913Y346796D01*
X183846Y346717D01*
X183774Y346642D01*
X183766Y346624D01*
X183753Y346609D01*
X183714Y346513D01*
X183671Y346419D01*
X183669Y346399D01*
X183661Y346381D01*
X183643Y346214D01*
X183643Y340786D01*
X183646Y340766D01*
X183644Y340747D01*
X183666Y340645D01*
X183682Y340543D01*
X183692Y340526D01*
X183696Y340506D01*
X183749Y340417D01*
X183798Y340326D01*
X183812Y340312D01*
X183822Y340295D01*
X183901Y340228D01*
X183976Y340156D01*
X183994Y340148D01*
X184009Y340135D01*
X184105Y340096D01*
X184199Y340053D01*
X184219Y340051D01*
X184237Y340043D01*
X184404Y340025D01*
X191132Y340025D01*
X192025Y339132D01*
X192025Y327660D01*
X192028Y327640D01*
X192026Y327621D01*
X192048Y327519D01*
X192064Y327417D01*
X192074Y327400D01*
X192078Y327380D01*
X192131Y327291D01*
X192180Y327200D01*
X192194Y327186D01*
X192204Y327169D01*
X192283Y327102D01*
X192358Y327030D01*
X192376Y327022D01*
X192391Y327009D01*
X192487Y326970D01*
X192581Y326927D01*
X192601Y326925D01*
X192619Y326917D01*
X192786Y326899D01*
X192971Y326899D01*
X195835Y324035D01*
X195835Y299665D01*
X195849Y299575D01*
X195857Y299484D01*
X195869Y299455D01*
X195874Y299423D01*
X195917Y299342D01*
X195953Y299258D01*
X195979Y299226D01*
X195990Y299205D01*
X196013Y299183D01*
X196058Y299127D01*
X198855Y296330D01*
X198855Y291934D01*
X197932Y291011D01*
X197920Y290995D01*
X197904Y290982D01*
X197848Y290895D01*
X197788Y290811D01*
X197782Y290792D01*
X197771Y290775D01*
X197746Y290675D01*
X197716Y290576D01*
X197716Y290556D01*
X197711Y290537D01*
X197719Y290434D01*
X197722Y290330D01*
X197729Y290311D01*
X197731Y290292D01*
X197771Y290197D01*
X197807Y290099D01*
X197819Y290083D01*
X197827Y290065D01*
X197932Y289934D01*
X206754Y281112D01*
X206812Y281070D01*
X206864Y281021D01*
X206911Y280999D01*
X206953Y280969D01*
X207022Y280948D01*
X207087Y280917D01*
X207139Y280912D01*
X207189Y280896D01*
X207260Y280898D01*
X207331Y280890D01*
X207382Y280901D01*
X207434Y280903D01*
X207502Y280927D01*
X207572Y280942D01*
X207617Y280969D01*
X207665Y280987D01*
X207721Y281032D01*
X207783Y281069D01*
X207817Y281108D01*
X207857Y281141D01*
X207896Y281201D01*
X207943Y281256D01*
X207962Y281304D01*
X207990Y281348D01*
X208008Y281417D01*
X208035Y281484D01*
X208043Y281555D01*
X208051Y281586D01*
X208049Y281610D01*
X208053Y281650D01*
X208053Y284138D01*
X211162Y287247D01*
X215558Y287247D01*
X218667Y284138D01*
X218667Y280183D01*
X218681Y280092D01*
X218689Y280002D01*
X218701Y279972D01*
X218706Y279940D01*
X218749Y279859D01*
X218785Y279775D01*
X218811Y279743D01*
X218822Y279722D01*
X218845Y279700D01*
X218890Y279644D01*
X246127Y252407D01*
X246127Y166693D01*
X226510Y147076D01*
X226457Y147002D01*
X226397Y146932D01*
X226385Y146902D01*
X226366Y146876D01*
X226339Y146789D01*
X226305Y146704D01*
X226301Y146663D01*
X226294Y146641D01*
X226295Y146609D01*
X226287Y146537D01*
X226287Y142582D01*
X225975Y142270D01*
X225933Y142212D01*
X225884Y142160D01*
X225862Y142113D01*
X225832Y142071D01*
X225810Y142002D01*
X225780Y141937D01*
X225775Y141885D01*
X225759Y141835D01*
X225761Y141764D01*
X225753Y141693D01*
X225764Y141642D01*
X225766Y141590D01*
X225790Y141522D01*
X225805Y141452D01*
X225832Y141407D01*
X225850Y141359D01*
X225895Y141303D01*
X225932Y141241D01*
X225971Y141207D01*
X226004Y141167D01*
X226064Y141128D01*
X226119Y141081D01*
X226167Y141062D01*
X226211Y141034D01*
X226280Y141016D01*
X226347Y140989D01*
X226418Y140981D01*
X226449Y140973D01*
X226472Y140975D01*
X226513Y140971D01*
X232714Y140971D01*
X232734Y140974D01*
X232753Y140972D01*
X232855Y140994D01*
X232957Y141010D01*
X232974Y141020D01*
X232994Y141024D01*
X233083Y141077D01*
X233174Y141126D01*
X233188Y141140D01*
X233205Y141150D01*
X233272Y141229D01*
X233344Y141304D01*
X233352Y141322D01*
X233365Y141337D01*
X233404Y141433D01*
X233447Y141527D01*
X233449Y141547D01*
X233457Y141565D01*
X233475Y141732D01*
X233475Y144632D01*
X234368Y145525D01*
X245632Y145525D01*
X246525Y144632D01*
X246525Y132368D01*
X245632Y131475D01*
X234368Y131475D01*
X233475Y132368D01*
X233475Y135636D01*
X233472Y135656D01*
X233474Y135675D01*
X233452Y135777D01*
X233436Y135879D01*
X233426Y135896D01*
X233422Y135916D01*
X233369Y136005D01*
X233320Y136096D01*
X233306Y136110D01*
X233296Y136127D01*
X233217Y136194D01*
X233142Y136266D01*
X233124Y136274D01*
X233109Y136287D01*
X233013Y136326D01*
X232919Y136369D01*
X232899Y136371D01*
X232881Y136379D01*
X232714Y136397D01*
X217286Y136397D01*
X217266Y136394D01*
X217247Y136396D01*
X217145Y136374D01*
X217043Y136358D01*
X217026Y136348D01*
X217006Y136344D01*
X216917Y136291D01*
X216826Y136242D01*
X216812Y136228D01*
X216795Y136218D01*
X216728Y136139D01*
X216656Y136064D01*
X216648Y136046D01*
X216635Y136031D01*
X216596Y135935D01*
X216553Y135841D01*
X216551Y135821D01*
X216543Y135803D01*
X216525Y135636D01*
X216525Y132368D01*
X215632Y131475D01*
X209700Y131475D01*
X209610Y131461D01*
X209519Y131453D01*
X209490Y131441D01*
X209458Y131436D01*
X209377Y131393D01*
X209293Y131357D01*
X209261Y131331D01*
X209240Y131320D01*
X209218Y131297D01*
X209162Y131252D01*
X208700Y130790D01*
X208647Y130716D01*
X208587Y130646D01*
X208575Y130616D01*
X208556Y130590D01*
X208529Y130503D01*
X208495Y130418D01*
X208491Y130377D01*
X208484Y130355D01*
X208485Y130323D01*
X208477Y130252D01*
X208477Y122262D01*
X208480Y122242D01*
X208478Y122223D01*
X208500Y122121D01*
X208517Y122019D01*
X208526Y122002D01*
X208530Y121982D01*
X208583Y121893D01*
X208632Y121802D01*
X208646Y121788D01*
X208656Y121771D01*
X208735Y121704D01*
X208810Y121633D01*
X208828Y121624D01*
X208843Y121611D01*
X208939Y121572D01*
X209033Y121529D01*
X209053Y121527D01*
X209071Y121519D01*
X209238Y121501D01*
X210001Y121501D01*
X210001Y120738D01*
X210004Y120718D01*
X210002Y120699D01*
X210024Y120597D01*
X210041Y120495D01*
X210050Y120478D01*
X210054Y120458D01*
X210107Y120369D01*
X210156Y120278D01*
X210170Y120264D01*
X210180Y120247D01*
X210259Y120180D01*
X210334Y120109D01*
X210352Y120100D01*
X210367Y120087D01*
X210463Y120048D01*
X210557Y120005D01*
X210577Y120003D01*
X210595Y119995D01*
X210762Y119977D01*
X217541Y119977D01*
X217541Y115824D01*
X217544Y115804D01*
X217542Y115785D01*
X217564Y115683D01*
X217580Y115581D01*
X217590Y115564D01*
X217594Y115544D01*
X217647Y115455D01*
X217696Y115364D01*
X217710Y115350D01*
X217720Y115333D01*
X217799Y115266D01*
X217874Y115194D01*
X217892Y115186D01*
X217907Y115173D01*
X218003Y115134D01*
X218097Y115091D01*
X218117Y115089D01*
X218135Y115081D01*
X218302Y115063D01*
X231698Y115063D01*
X231718Y115066D01*
G37*
G36*
X76804Y257555D02*
X76804Y257555D01*
X76856Y257557D01*
X76924Y257581D01*
X76994Y257596D01*
X77039Y257623D01*
X77087Y257641D01*
X77143Y257686D01*
X77205Y257723D01*
X77239Y257762D01*
X77279Y257795D01*
X77318Y257855D01*
X77365Y257910D01*
X77384Y257958D01*
X77412Y258002D01*
X77430Y258071D01*
X77457Y258138D01*
X77465Y258209D01*
X77473Y258240D01*
X77471Y258264D01*
X77475Y258304D01*
X77475Y259736D01*
X77491Y259798D01*
X77521Y259897D01*
X77521Y259917D01*
X77526Y259936D01*
X77518Y260039D01*
X77515Y260142D01*
X77508Y260161D01*
X77507Y260181D01*
X77475Y260255D01*
X77475Y264736D01*
X77491Y264798D01*
X77521Y264896D01*
X77521Y264916D01*
X77526Y264936D01*
X77518Y265039D01*
X77515Y265142D01*
X77508Y265161D01*
X77507Y265181D01*
X77475Y265254D01*
X77475Y269736D01*
X77491Y269798D01*
X77521Y269896D01*
X77521Y269916D01*
X77526Y269936D01*
X77518Y270039D01*
X77515Y270142D01*
X77508Y270161D01*
X77507Y270181D01*
X77475Y270254D01*
X77475Y274736D01*
X77491Y274798D01*
X77521Y274896D01*
X77521Y274916D01*
X77526Y274936D01*
X77518Y275039D01*
X77515Y275142D01*
X77508Y275161D01*
X77507Y275181D01*
X77475Y275254D01*
X77475Y279736D01*
X77491Y279798D01*
X77521Y279896D01*
X77521Y279916D01*
X77526Y279936D01*
X77518Y280039D01*
X77515Y280142D01*
X77508Y280161D01*
X77507Y280181D01*
X77475Y280254D01*
X77475Y284736D01*
X77491Y284798D01*
X77521Y284896D01*
X77521Y284916D01*
X77526Y284936D01*
X77518Y285039D01*
X77515Y285142D01*
X77508Y285161D01*
X77507Y285181D01*
X77475Y285254D01*
X77475Y289736D01*
X77491Y289798D01*
X77521Y289896D01*
X77521Y289916D01*
X77526Y289936D01*
X77518Y290039D01*
X77515Y290142D01*
X77508Y290161D01*
X77507Y290181D01*
X77475Y290254D01*
X77475Y293616D01*
X77461Y293706D01*
X77453Y293797D01*
X77441Y293827D01*
X77436Y293859D01*
X77393Y293940D01*
X77357Y294024D01*
X77331Y294056D01*
X77320Y294076D01*
X77297Y294099D01*
X77252Y294155D01*
X76967Y294440D01*
X76632Y295019D01*
X76459Y295666D01*
X76459Y296739D01*
X84500Y296739D01*
X92541Y296739D01*
X92541Y295666D01*
X92368Y295019D01*
X92033Y294440D01*
X91748Y294155D01*
X91695Y294081D01*
X91635Y294011D01*
X91623Y293981D01*
X91604Y293955D01*
X91577Y293868D01*
X91543Y293783D01*
X91539Y293742D01*
X91532Y293720D01*
X91533Y293688D01*
X91525Y293616D01*
X91525Y290264D01*
X91509Y290202D01*
X91479Y290103D01*
X91479Y290083D01*
X91474Y290064D01*
X91482Y289961D01*
X91485Y289858D01*
X91492Y289839D01*
X91493Y289819D01*
X91525Y289745D01*
X91525Y285264D01*
X91509Y285202D01*
X91479Y285103D01*
X91479Y285083D01*
X91474Y285064D01*
X91482Y284961D01*
X91485Y284858D01*
X91492Y284839D01*
X91493Y284819D01*
X91525Y284745D01*
X91525Y280264D01*
X91509Y280202D01*
X91479Y280103D01*
X91479Y280083D01*
X91474Y280064D01*
X91482Y279961D01*
X91485Y279858D01*
X91492Y279839D01*
X91493Y279819D01*
X91525Y279745D01*
X91525Y275264D01*
X91509Y275202D01*
X91479Y275103D01*
X91479Y275083D01*
X91474Y275064D01*
X91482Y274961D01*
X91485Y274858D01*
X91492Y274839D01*
X91493Y274819D01*
X91525Y274745D01*
X91525Y271272D01*
X91528Y271252D01*
X91526Y271233D01*
X91548Y271131D01*
X91564Y271029D01*
X91574Y271012D01*
X91578Y270992D01*
X91631Y270903D01*
X91680Y270812D01*
X91694Y270798D01*
X91704Y270781D01*
X91783Y270714D01*
X91858Y270642D01*
X91876Y270634D01*
X91891Y270621D01*
X91987Y270582D01*
X92081Y270539D01*
X92101Y270537D01*
X92119Y270529D01*
X92286Y270511D01*
X145041Y270511D01*
X145132Y270525D01*
X145222Y270533D01*
X145252Y270545D01*
X145284Y270550D01*
X145365Y270593D01*
X145449Y270629D01*
X145481Y270655D01*
X145502Y270666D01*
X145524Y270689D01*
X145580Y270734D01*
X165169Y290323D01*
X188015Y290323D01*
X188085Y290334D01*
X188157Y290336D01*
X188206Y290354D01*
X188257Y290362D01*
X188321Y290396D01*
X188388Y290421D01*
X188429Y290453D01*
X188475Y290478D01*
X188524Y290530D01*
X188580Y290574D01*
X188608Y290618D01*
X188644Y290656D01*
X188674Y290721D01*
X188713Y290781D01*
X188726Y290832D01*
X188748Y290879D01*
X188756Y290950D01*
X188773Y291020D01*
X188769Y291072D01*
X188775Y291123D01*
X188760Y291194D01*
X188754Y291265D01*
X188734Y291313D01*
X188723Y291364D01*
X188686Y291425D01*
X188658Y291491D01*
X188613Y291547D01*
X188596Y291575D01*
X188579Y291590D01*
X188553Y291622D01*
X188241Y291934D01*
X188241Y296330D01*
X191038Y299127D01*
X191091Y299201D01*
X191151Y299271D01*
X191163Y299301D01*
X191182Y299327D01*
X191209Y299414D01*
X191243Y299499D01*
X191247Y299540D01*
X191254Y299562D01*
X191253Y299594D01*
X191261Y299665D01*
X191261Y308198D01*
X191258Y308218D01*
X191260Y308237D01*
X191238Y308339D01*
X191222Y308441D01*
X191212Y308458D01*
X191208Y308478D01*
X191155Y308567D01*
X191106Y308658D01*
X191092Y308672D01*
X191082Y308689D01*
X191003Y308756D01*
X190928Y308828D01*
X190910Y308836D01*
X190895Y308849D01*
X190799Y308888D01*
X190705Y308931D01*
X190685Y308933D01*
X190667Y308941D01*
X190500Y308959D01*
X186523Y308959D01*
X186523Y315738D01*
X186520Y315758D01*
X186522Y315777D01*
X186500Y315879D01*
X186483Y315981D01*
X186474Y315998D01*
X186470Y316018D01*
X186417Y316107D01*
X186368Y316198D01*
X186354Y316212D01*
X186344Y316229D01*
X186265Y316296D01*
X186190Y316367D01*
X186172Y316376D01*
X186157Y316389D01*
X186061Y316428D01*
X185967Y316471D01*
X185947Y316473D01*
X185929Y316481D01*
X185762Y316499D01*
X184999Y316499D01*
X184999Y317262D01*
X184996Y317282D01*
X184998Y317301D01*
X184976Y317403D01*
X184959Y317505D01*
X184950Y317522D01*
X184946Y317542D01*
X184893Y317631D01*
X184844Y317722D01*
X184830Y317736D01*
X184820Y317753D01*
X184741Y317820D01*
X184666Y317891D01*
X184648Y317900D01*
X184633Y317913D01*
X184537Y317952D01*
X184443Y317995D01*
X184423Y317997D01*
X184405Y318005D01*
X184238Y318023D01*
X176959Y318023D01*
X176959Y321834D01*
X177132Y322481D01*
X177425Y322987D01*
X177440Y323028D01*
X177464Y323065D01*
X177484Y323143D01*
X177512Y323217D01*
X177513Y323261D01*
X177524Y323304D01*
X177518Y323383D01*
X177521Y323463D01*
X177508Y323505D01*
X177505Y323549D01*
X177474Y323622D01*
X177451Y323699D01*
X177426Y323735D01*
X177409Y323775D01*
X177318Y323889D01*
X177310Y323900D01*
X177307Y323902D01*
X177304Y323906D01*
X169925Y331285D01*
X169925Y350781D01*
X169911Y350872D01*
X169903Y350962D01*
X169891Y350992D01*
X169886Y351024D01*
X169843Y351105D01*
X169807Y351189D01*
X169781Y351221D01*
X169770Y351242D01*
X169747Y351264D01*
X169702Y351320D01*
X166824Y354198D01*
X166766Y354240D01*
X166714Y354289D01*
X166667Y354311D01*
X166625Y354341D01*
X166556Y354362D01*
X166491Y354393D01*
X166439Y354398D01*
X166389Y354414D01*
X166318Y354412D01*
X166247Y354420D01*
X166196Y354409D01*
X166144Y354407D01*
X166076Y354383D01*
X166006Y354368D01*
X165961Y354341D01*
X165913Y354323D01*
X165857Y354278D01*
X165795Y354241D01*
X165761Y354202D01*
X165721Y354169D01*
X165682Y354109D01*
X165635Y354054D01*
X165616Y354006D01*
X165588Y353962D01*
X165570Y353893D01*
X165543Y353826D01*
X165535Y353755D01*
X165527Y353724D01*
X165529Y353700D01*
X165525Y353660D01*
X165525Y347868D01*
X164632Y346975D01*
X163068Y346975D01*
X163048Y346972D01*
X163029Y346974D01*
X162927Y346952D01*
X162825Y346936D01*
X162808Y346926D01*
X162788Y346922D01*
X162699Y346869D01*
X162608Y346820D01*
X162594Y346806D01*
X162577Y346796D01*
X162510Y346717D01*
X162438Y346642D01*
X162430Y346624D01*
X162417Y346609D01*
X162378Y346513D01*
X162335Y346419D01*
X162333Y346399D01*
X162325Y346381D01*
X162307Y346214D01*
X162307Y340786D01*
X162310Y340766D01*
X162308Y340747D01*
X162330Y340645D01*
X162346Y340543D01*
X162356Y340526D01*
X162360Y340506D01*
X162413Y340417D01*
X162462Y340326D01*
X162476Y340312D01*
X162486Y340295D01*
X162565Y340228D01*
X162640Y340156D01*
X162658Y340148D01*
X162673Y340135D01*
X162769Y340096D01*
X162863Y340053D01*
X162883Y340051D01*
X162901Y340043D01*
X163068Y340025D01*
X166132Y340025D01*
X167025Y339132D01*
X167025Y327868D01*
X166132Y326975D01*
X153868Y326975D01*
X152975Y327868D01*
X152975Y339132D01*
X153868Y340025D01*
X156972Y340025D01*
X156992Y340028D01*
X157011Y340026D01*
X157113Y340048D01*
X157215Y340064D01*
X157232Y340074D01*
X157252Y340078D01*
X157341Y340131D01*
X157432Y340180D01*
X157446Y340194D01*
X157463Y340204D01*
X157530Y340283D01*
X157602Y340358D01*
X157610Y340376D01*
X157623Y340391D01*
X157662Y340487D01*
X157705Y340581D01*
X157707Y340601D01*
X157715Y340619D01*
X157733Y340786D01*
X157733Y346214D01*
X157730Y346234D01*
X157732Y346253D01*
X157710Y346355D01*
X157694Y346457D01*
X157684Y346474D01*
X157680Y346494D01*
X157627Y346583D01*
X157578Y346674D01*
X157564Y346688D01*
X157554Y346705D01*
X157475Y346772D01*
X157400Y346844D01*
X157382Y346852D01*
X157367Y346865D01*
X157271Y346904D01*
X157177Y346947D01*
X157157Y346949D01*
X157139Y346957D01*
X156972Y346975D01*
X155368Y346975D01*
X154475Y347868D01*
X154475Y357088D01*
X154461Y357178D01*
X154453Y357269D01*
X154441Y357298D01*
X154436Y357330D01*
X154393Y357411D01*
X154357Y357495D01*
X154331Y357527D01*
X154320Y357548D01*
X154297Y357570D01*
X154252Y357626D01*
X152938Y358940D01*
X147104Y364774D01*
X147030Y364827D01*
X146960Y364887D01*
X146930Y364899D01*
X146904Y364918D01*
X146817Y364945D01*
X146732Y364979D01*
X146691Y364983D01*
X146669Y364990D01*
X146637Y364989D01*
X146565Y364997D01*
X146286Y364997D01*
X146266Y364994D01*
X146247Y364996D01*
X146145Y364974D01*
X146043Y364958D01*
X146026Y364948D01*
X146006Y364944D01*
X145917Y364891D01*
X145826Y364842D01*
X145812Y364828D01*
X145795Y364818D01*
X145728Y364739D01*
X145656Y364664D01*
X145648Y364646D01*
X145635Y364631D01*
X145596Y364535D01*
X145553Y364441D01*
X145551Y364421D01*
X145543Y364403D01*
X145525Y364236D01*
X145525Y362868D01*
X144632Y361975D01*
X135368Y361975D01*
X134475Y362868D01*
X134475Y372132D01*
X135368Y373025D01*
X144632Y373025D01*
X145525Y372132D01*
X145525Y370332D01*
X145528Y370312D01*
X145526Y370293D01*
X145548Y370191D01*
X145564Y370089D01*
X145574Y370072D01*
X145578Y370052D01*
X145631Y369963D01*
X145680Y369872D01*
X145694Y369858D01*
X145704Y369841D01*
X145783Y369774D01*
X145858Y369702D01*
X145876Y369694D01*
X145891Y369681D01*
X145987Y369642D01*
X146081Y369599D01*
X146101Y369597D01*
X146119Y369589D01*
X146286Y369571D01*
X148775Y369571D01*
X153176Y365170D01*
X153234Y365128D01*
X153286Y365079D01*
X153333Y365057D01*
X153375Y365027D01*
X153444Y365006D01*
X153509Y364975D01*
X153561Y364970D01*
X153611Y364954D01*
X153682Y364956D01*
X153753Y364948D01*
X153804Y364959D01*
X153856Y364961D01*
X153924Y364985D01*
X153994Y365000D01*
X154039Y365027D01*
X154087Y365045D01*
X154143Y365090D01*
X154205Y365127D01*
X154239Y365166D01*
X154279Y365199D01*
X154318Y365259D01*
X154365Y365314D01*
X154384Y365362D01*
X154412Y365406D01*
X154430Y365475D01*
X154457Y365542D01*
X154465Y365613D01*
X154473Y365644D01*
X154471Y365668D01*
X154475Y365708D01*
X154475Y372132D01*
X155368Y373025D01*
X164632Y373025D01*
X165525Y372132D01*
X165525Y370332D01*
X165528Y370312D01*
X165526Y370293D01*
X165548Y370191D01*
X165564Y370089D01*
X165574Y370072D01*
X165578Y370052D01*
X165631Y369963D01*
X165680Y369872D01*
X165694Y369858D01*
X165704Y369841D01*
X165783Y369774D01*
X165858Y369702D01*
X165876Y369694D01*
X165891Y369681D01*
X165987Y369642D01*
X166081Y369599D01*
X166101Y369597D01*
X166119Y369589D01*
X166286Y369571D01*
X168587Y369571D01*
X173176Y364982D01*
X173234Y364940D01*
X173286Y364891D01*
X173333Y364869D01*
X173375Y364839D01*
X173444Y364818D01*
X173509Y364787D01*
X173561Y364782D01*
X173611Y364766D01*
X173682Y364768D01*
X173753Y364760D01*
X173804Y364771D01*
X173856Y364773D01*
X173924Y364797D01*
X173994Y364812D01*
X174039Y364839D01*
X174087Y364857D01*
X174143Y364902D01*
X174205Y364939D01*
X174239Y364978D01*
X174279Y365011D01*
X174318Y365071D01*
X174365Y365126D01*
X174384Y365174D01*
X174412Y365218D01*
X174430Y365287D01*
X174457Y365354D01*
X174465Y365425D01*
X174473Y365456D01*
X174471Y365480D01*
X174475Y365520D01*
X174475Y370616D01*
X174461Y370706D01*
X174453Y370797D01*
X174441Y370826D01*
X174436Y370858D01*
X174393Y370939D01*
X174357Y371023D01*
X174331Y371055D01*
X174320Y371076D01*
X174297Y371098D01*
X174252Y371154D01*
X167508Y377898D01*
X167491Y377910D01*
X167479Y377926D01*
X167392Y377982D01*
X167308Y378042D01*
X167289Y378048D01*
X167272Y378059D01*
X167172Y378084D01*
X167073Y378114D01*
X167053Y378114D01*
X167034Y378119D01*
X166931Y378111D01*
X166827Y378108D01*
X166808Y378101D01*
X166788Y378100D01*
X166693Y378059D01*
X166596Y378024D01*
X166580Y378011D01*
X166562Y378003D01*
X166431Y377898D01*
X165888Y377355D01*
X158312Y377355D01*
X152955Y382712D01*
X152955Y390288D01*
X156845Y394178D01*
X156887Y394236D01*
X156936Y394288D01*
X156958Y394335D01*
X156989Y394377D01*
X157010Y394446D01*
X157040Y394511D01*
X157046Y394563D01*
X157061Y394613D01*
X157059Y394684D01*
X157067Y394755D01*
X157056Y394806D01*
X157055Y394858D01*
X157030Y394926D01*
X157015Y394996D01*
X156988Y395041D01*
X156970Y395089D01*
X156925Y395145D01*
X156889Y395207D01*
X156849Y395241D01*
X156817Y395281D01*
X156756Y395320D01*
X156702Y395367D01*
X156653Y395386D01*
X156610Y395414D01*
X156540Y395432D01*
X156474Y395459D01*
X156402Y395467D01*
X156371Y395475D01*
X156348Y395473D01*
X156307Y395477D01*
X142493Y395477D01*
X142422Y395466D01*
X142351Y395464D01*
X142302Y395446D01*
X142250Y395438D01*
X142187Y395404D01*
X142120Y395379D01*
X142079Y395347D01*
X142033Y395322D01*
X141984Y395270D01*
X141928Y395226D01*
X141899Y395182D01*
X141864Y395144D01*
X141833Y395079D01*
X141795Y395019D01*
X141782Y394968D01*
X141760Y394921D01*
X141752Y394850D01*
X141735Y394780D01*
X141739Y394728D01*
X141733Y394677D01*
X141748Y394606D01*
X141754Y394535D01*
X141774Y394487D01*
X141785Y394436D01*
X141822Y394375D01*
X141850Y394309D01*
X141895Y394253D01*
X141911Y394225D01*
X141929Y394210D01*
X141955Y394178D01*
X145845Y390288D01*
X145845Y382712D01*
X140488Y377355D01*
X132912Y377355D01*
X127555Y382712D01*
X127555Y390288D01*
X131445Y394178D01*
X131487Y394236D01*
X131536Y394288D01*
X131558Y394335D01*
X131589Y394377D01*
X131610Y394446D01*
X131640Y394511D01*
X131646Y394563D01*
X131661Y394613D01*
X131659Y394684D01*
X131667Y394755D01*
X131656Y394806D01*
X131655Y394858D01*
X131630Y394926D01*
X131615Y394996D01*
X131588Y395041D01*
X131570Y395089D01*
X131525Y395145D01*
X131489Y395207D01*
X131449Y395241D01*
X131417Y395281D01*
X131356Y395320D01*
X131302Y395367D01*
X131253Y395386D01*
X131210Y395414D01*
X131140Y395432D01*
X131074Y395459D01*
X131002Y395467D01*
X130971Y395475D01*
X130948Y395473D01*
X130907Y395477D01*
X117093Y395477D01*
X117022Y395466D01*
X116951Y395464D01*
X116902Y395446D01*
X116850Y395438D01*
X116787Y395404D01*
X116720Y395379D01*
X116679Y395347D01*
X116633Y395322D01*
X116584Y395270D01*
X116528Y395226D01*
X116499Y395182D01*
X116464Y395144D01*
X116433Y395079D01*
X116395Y395019D01*
X116382Y394968D01*
X116360Y394921D01*
X116352Y394850D01*
X116335Y394780D01*
X116339Y394728D01*
X116333Y394677D01*
X116348Y394606D01*
X116354Y394535D01*
X116374Y394487D01*
X116385Y394436D01*
X116422Y394375D01*
X116450Y394309D01*
X116495Y394253D01*
X116511Y394225D01*
X116529Y394210D01*
X116555Y394178D01*
X120445Y390288D01*
X120445Y382712D01*
X115473Y377740D01*
X115461Y377724D01*
X115446Y377712D01*
X115390Y377625D01*
X115329Y377541D01*
X115324Y377522D01*
X115313Y377505D01*
X115288Y377404D01*
X115257Y377306D01*
X115258Y377286D01*
X115253Y377266D01*
X115261Y377163D01*
X115263Y377060D01*
X115270Y377041D01*
X115272Y377021D01*
X115312Y376926D01*
X115348Y376829D01*
X115360Y376813D01*
X115368Y376795D01*
X115473Y376664D01*
X116559Y375578D01*
X116559Y371182D01*
X113450Y368073D01*
X110106Y368073D01*
X110086Y368070D01*
X110067Y368072D01*
X109965Y368050D01*
X109863Y368034D01*
X109846Y368024D01*
X109826Y368020D01*
X109737Y367967D01*
X109646Y367918D01*
X109632Y367904D01*
X109615Y367894D01*
X109548Y367815D01*
X109476Y367740D01*
X109468Y367722D01*
X109455Y367707D01*
X109416Y367611D01*
X109373Y367517D01*
X109371Y367497D01*
X109363Y367479D01*
X109345Y367312D01*
X109345Y356698D01*
X108353Y355707D01*
X108338Y355686D01*
X108318Y355669D01*
X108266Y355586D01*
X108210Y355507D01*
X108202Y355482D01*
X108188Y355460D01*
X108166Y355365D01*
X108137Y355272D01*
X108138Y355246D01*
X108132Y355221D01*
X108141Y355124D01*
X108144Y355026D01*
X108152Y355002D01*
X108155Y354976D01*
X108194Y354887D01*
X108228Y354795D01*
X108244Y354775D01*
X108255Y354751D01*
X108321Y354679D01*
X108382Y354603D01*
X108403Y354589D01*
X108421Y354570D01*
X108506Y354523D01*
X108589Y354470D01*
X108614Y354464D01*
X108636Y354451D01*
X108800Y354413D01*
X113925Y353790D01*
X119596Y349876D01*
X122798Y343775D01*
X122798Y336885D01*
X119596Y330784D01*
X113925Y326870D01*
X110081Y326403D01*
X110056Y326396D01*
X110030Y326395D01*
X109938Y326361D01*
X109845Y326334D01*
X109823Y326319D01*
X109799Y326310D01*
X109723Y326249D01*
X109643Y326194D01*
X109627Y326173D01*
X109607Y326157D01*
X109554Y326075D01*
X109496Y325996D01*
X109488Y325972D01*
X109474Y325950D01*
X109450Y325855D01*
X109420Y325762D01*
X109420Y325736D01*
X109414Y325711D01*
X109422Y325614D01*
X109423Y325516D01*
X109431Y325492D01*
X109433Y325466D01*
X109471Y325376D01*
X109504Y325284D01*
X109519Y325264D01*
X109530Y325240D01*
X109634Y325109D01*
X109853Y324890D01*
X110188Y324311D01*
X110361Y323664D01*
X110361Y319603D01*
X101343Y319603D01*
X101343Y325871D01*
X103374Y325871D01*
X103482Y325888D01*
X103590Y325902D01*
X103603Y325908D01*
X103617Y325910D01*
X103713Y325961D01*
X103811Y326009D01*
X103822Y326019D01*
X103835Y326026D01*
X103909Y326104D01*
X103987Y326180D01*
X103994Y326193D01*
X104004Y326204D01*
X104050Y326303D01*
X104099Y326399D01*
X104101Y326414D01*
X104108Y326427D01*
X104120Y326535D01*
X104136Y326643D01*
X104133Y326657D01*
X104135Y326671D01*
X104112Y326778D01*
X104093Y326885D01*
X104086Y326898D01*
X104082Y326912D01*
X104027Y327005D01*
X103974Y327101D01*
X103964Y327110D01*
X103956Y327123D01*
X103874Y327194D01*
X103794Y327267D01*
X103778Y327275D01*
X103769Y327283D01*
X103742Y327294D01*
X103644Y327344D01*
X100642Y328482D01*
X100186Y328997D01*
X100111Y329059D01*
X100040Y329125D01*
X100016Y329136D01*
X99995Y329153D01*
X99904Y329187D01*
X99816Y329227D01*
X99790Y329230D01*
X99765Y329239D01*
X99668Y329242D01*
X99571Y329252D01*
X99546Y329247D01*
X99519Y329248D01*
X99426Y329220D01*
X99331Y329198D01*
X99302Y329183D01*
X99283Y329177D01*
X99257Y329158D01*
X99184Y329119D01*
X96488Y327258D01*
X96476Y327246D01*
X96461Y327238D01*
X96388Y327162D01*
X96311Y327088D01*
X96303Y327073D01*
X96291Y327060D01*
X96247Y326964D01*
X96198Y326870D01*
X96195Y326853D01*
X96188Y326837D01*
X96176Y326731D01*
X96160Y326627D01*
X96162Y326610D01*
X96161Y326593D01*
X96183Y326489D01*
X96201Y326384D01*
X96209Y326369D01*
X96213Y326352D01*
X96267Y326261D01*
X96318Y326168D01*
X96330Y326156D01*
X96339Y326141D01*
X96420Y326072D01*
X96497Y326000D01*
X96513Y325992D01*
X96526Y325981D01*
X96625Y325941D01*
X96721Y325897D01*
X96738Y325896D01*
X96754Y325889D01*
X96921Y325871D01*
X98297Y325871D01*
X98297Y319603D01*
X89279Y319603D01*
X89279Y323664D01*
X89452Y324311D01*
X89791Y324897D01*
X89797Y324914D01*
X89808Y324929D01*
X89841Y325029D01*
X89878Y325127D01*
X89879Y325145D01*
X89884Y325163D01*
X89883Y325268D01*
X89887Y325373D01*
X89882Y325391D01*
X89882Y325409D01*
X89847Y325508D01*
X89817Y325609D01*
X89807Y325624D01*
X89801Y325641D01*
X89736Y325724D01*
X89676Y325810D01*
X89661Y325821D01*
X89650Y325835D01*
X89562Y325894D01*
X89478Y325956D01*
X89461Y325961D01*
X89445Y325972D01*
X89344Y325999D01*
X89243Y326031D01*
X89225Y326031D01*
X89208Y326035D01*
X89098Y326034D01*
X82642Y328482D01*
X78800Y332819D01*
X78786Y332831D01*
X78775Y332846D01*
X78691Y332908D01*
X78610Y332974D01*
X78592Y332981D01*
X78576Y332992D01*
X78477Y333024D01*
X78379Y333061D01*
X78360Y333061D01*
X78342Y333067D01*
X78238Y333066D01*
X78134Y333069D01*
X78115Y333064D01*
X78096Y333063D01*
X77998Y333029D01*
X77898Y332999D01*
X77882Y332988D01*
X77864Y332981D01*
X77782Y332917D01*
X77697Y332857D01*
X77686Y332842D01*
X77671Y332830D01*
X77571Y332695D01*
X77134Y331937D01*
X72263Y327066D01*
X66298Y323622D01*
X59644Y321839D01*
X52756Y321839D01*
X46102Y323622D01*
X40137Y327066D01*
X35266Y331937D01*
X32663Y336445D01*
X32633Y336483D01*
X32610Y336525D01*
X32555Y336577D01*
X32507Y336636D01*
X32467Y336661D01*
X32432Y336694D01*
X32363Y336726D01*
X32299Y336766D01*
X32252Y336778D01*
X32209Y336798D01*
X32134Y336806D01*
X32060Y336824D01*
X32012Y336820D01*
X31965Y336825D01*
X31890Y336809D01*
X31815Y336802D01*
X31771Y336783D01*
X31724Y336773D01*
X31659Y336734D01*
X31590Y336703D01*
X31554Y336671D01*
X31513Y336647D01*
X31464Y336589D01*
X31408Y336538D01*
X31384Y336496D01*
X31353Y336460D01*
X31325Y336389D01*
X31288Y336323D01*
X31279Y336276D01*
X31261Y336231D01*
X31247Y336103D01*
X31243Y336081D01*
X31244Y336075D01*
X31243Y336065D01*
X31243Y331971D01*
X31257Y331880D01*
X31265Y331790D01*
X31277Y331760D01*
X31282Y331728D01*
X31325Y331647D01*
X31361Y331563D01*
X31387Y331531D01*
X31398Y331510D01*
X31421Y331488D01*
X31466Y331432D01*
X55627Y307271D01*
X55627Y293185D01*
X52748Y290306D01*
X52695Y290232D01*
X52635Y290162D01*
X52623Y290132D01*
X52604Y290106D01*
X52577Y290019D01*
X52543Y289934D01*
X52539Y289893D01*
X52532Y289871D01*
X52533Y289839D01*
X52525Y289767D01*
X52525Y285264D01*
X52509Y285202D01*
X52479Y285104D01*
X52479Y285084D01*
X52474Y285064D01*
X52482Y284961D01*
X52485Y284858D01*
X52492Y284839D01*
X52493Y284819D01*
X52525Y284746D01*
X52525Y280264D01*
X52509Y280202D01*
X52479Y280104D01*
X52479Y280084D01*
X52474Y280064D01*
X52482Y279961D01*
X52485Y279858D01*
X52492Y279839D01*
X52493Y279819D01*
X52525Y279746D01*
X52525Y275844D01*
X52528Y275824D01*
X52526Y275805D01*
X52548Y275703D01*
X52564Y275601D01*
X52574Y275584D01*
X52578Y275564D01*
X52631Y275475D01*
X52680Y275384D01*
X52694Y275370D01*
X52704Y275353D01*
X52783Y275286D01*
X52858Y275214D01*
X52876Y275206D01*
X52891Y275193D01*
X52987Y275154D01*
X53081Y275111D01*
X53101Y275109D01*
X53119Y275101D01*
X53286Y275083D01*
X58859Y275083D01*
X76176Y257766D01*
X76234Y257724D01*
X76286Y257675D01*
X76333Y257653D01*
X76375Y257623D01*
X76444Y257602D01*
X76509Y257571D01*
X76561Y257566D01*
X76611Y257550D01*
X76682Y257552D01*
X76753Y257544D01*
X76804Y257555D01*
G37*
G36*
X59958Y71980D02*
X59958Y71980D01*
X59977Y71978D01*
X60079Y72000D01*
X60181Y72017D01*
X60198Y72026D01*
X60218Y72030D01*
X60307Y72083D01*
X60398Y72132D01*
X60412Y72146D01*
X60429Y72156D01*
X60496Y72235D01*
X60567Y72310D01*
X60576Y72328D01*
X60589Y72343D01*
X60627Y72439D01*
X60671Y72533D01*
X60673Y72553D01*
X60681Y72571D01*
X60699Y72738D01*
X60699Y74262D01*
X60696Y74282D01*
X60698Y74301D01*
X60676Y74403D01*
X60659Y74505D01*
X60650Y74522D01*
X60646Y74542D01*
X60593Y74631D01*
X60544Y74722D01*
X60530Y74736D01*
X60520Y74753D01*
X60441Y74820D01*
X60366Y74891D01*
X60348Y74900D01*
X60333Y74913D01*
X60237Y74952D01*
X60143Y74995D01*
X60123Y74997D01*
X60105Y75005D01*
X59938Y75023D01*
X50539Y75023D01*
X50539Y77709D01*
X53370Y80540D01*
X53412Y80598D01*
X53462Y80650D01*
X53483Y80697D01*
X53514Y80739D01*
X53535Y80808D01*
X53565Y80873D01*
X53571Y80925D01*
X53586Y80975D01*
X53584Y81046D01*
X53592Y81117D01*
X53581Y81168D01*
X53580Y81220D01*
X53555Y81288D01*
X53540Y81358D01*
X53513Y81403D01*
X53495Y81451D01*
X53451Y81507D01*
X53414Y81569D01*
X53374Y81603D01*
X53342Y81643D01*
X53281Y81682D01*
X53227Y81729D01*
X53179Y81748D01*
X53135Y81776D01*
X53065Y81794D01*
X52999Y81821D01*
X52927Y81829D01*
X52896Y81837D01*
X52873Y81835D01*
X52832Y81839D01*
X52756Y81839D01*
X46102Y83622D01*
X40137Y87066D01*
X35266Y91937D01*
X31822Y97902D01*
X30039Y104556D01*
X30039Y111444D01*
X31822Y118098D01*
X35266Y124063D01*
X40137Y128934D01*
X46102Y132378D01*
X52756Y134161D01*
X59644Y134161D01*
X66298Y132378D01*
X72263Y128934D01*
X77134Y124063D01*
X80578Y118098D01*
X81561Y114430D01*
X81571Y114408D01*
X81575Y114384D01*
X81621Y114296D01*
X81662Y114206D01*
X81678Y114188D01*
X81690Y114167D01*
X81762Y114098D01*
X81829Y114025D01*
X81850Y114014D01*
X81868Y113997D01*
X81958Y113955D01*
X82045Y113908D01*
X82069Y113904D01*
X82091Y113894D01*
X82190Y113883D01*
X82288Y113866D01*
X82312Y113869D01*
X82335Y113867D01*
X82433Y113888D01*
X82531Y113903D01*
X82552Y113914D01*
X82576Y113919D01*
X82661Y113970D01*
X82750Y114015D01*
X82766Y114033D01*
X82787Y114045D01*
X82852Y114121D01*
X82921Y114192D01*
X82931Y114214D01*
X82947Y114232D01*
X82984Y114324D01*
X83027Y114414D01*
X83030Y114438D01*
X83039Y114460D01*
X83057Y114627D01*
X83057Y162623D01*
X83042Y162719D01*
X83032Y162816D01*
X83022Y162840D01*
X83018Y162866D01*
X82972Y162952D01*
X82932Y163041D01*
X82915Y163060D01*
X82902Y163083D01*
X82832Y163150D01*
X82766Y163222D01*
X82743Y163234D01*
X82724Y163252D01*
X82636Y163293D01*
X82550Y163340D01*
X82525Y163345D01*
X82501Y163356D01*
X82404Y163367D01*
X82308Y163384D01*
X82282Y163380D01*
X82257Y163383D01*
X82161Y163362D01*
X82065Y163348D01*
X82042Y163336D01*
X82016Y163331D01*
X81933Y163281D01*
X81846Y163237D01*
X81827Y163218D01*
X81805Y163205D01*
X81742Y163131D01*
X81674Y163061D01*
X81658Y163032D01*
X81645Y163018D01*
X81633Y162987D01*
X81593Y162914D01*
X79211Y157164D01*
X72836Y150789D01*
X64507Y147339D01*
X55493Y147339D01*
X47164Y150789D01*
X40789Y157164D01*
X37339Y165493D01*
X37339Y174507D01*
X40789Y182836D01*
X47164Y189211D01*
X53912Y192006D01*
X53951Y192030D01*
X53994Y192046D01*
X54055Y192095D01*
X54121Y192136D01*
X54150Y192171D01*
X54186Y192200D01*
X54228Y192265D01*
X54278Y192325D01*
X54295Y192368D01*
X54319Y192407D01*
X54338Y192482D01*
X54366Y192555D01*
X54368Y192601D01*
X54379Y192645D01*
X54373Y192723D01*
X54377Y192801D01*
X54364Y192845D01*
X54360Y192890D01*
X54330Y192962D01*
X54308Y193037D01*
X54282Y193074D01*
X54264Y193117D01*
X54179Y193223D01*
X54168Y193239D01*
X54164Y193242D01*
X54159Y193248D01*
X53967Y193440D01*
X53632Y194019D01*
X53459Y194666D01*
X53459Y198477D01*
X60738Y198477D01*
X60758Y198480D01*
X60777Y198478D01*
X60879Y198500D01*
X60981Y198517D01*
X60998Y198526D01*
X61018Y198530D01*
X61107Y198583D01*
X61198Y198632D01*
X61212Y198646D01*
X61229Y198656D01*
X61296Y198735D01*
X61367Y198810D01*
X61376Y198828D01*
X61389Y198843D01*
X61428Y198939D01*
X61471Y199033D01*
X61473Y199053D01*
X61481Y199071D01*
X61499Y199238D01*
X61499Y200001D01*
X62262Y200001D01*
X62282Y200004D01*
X62301Y200002D01*
X62403Y200024D01*
X62505Y200041D01*
X62522Y200050D01*
X62542Y200054D01*
X62631Y200107D01*
X62722Y200156D01*
X62736Y200170D01*
X62753Y200180D01*
X62820Y200259D01*
X62891Y200334D01*
X62900Y200352D01*
X62913Y200367D01*
X62952Y200463D01*
X62995Y200557D01*
X62997Y200577D01*
X63005Y200595D01*
X63023Y200762D01*
X63023Y206525D01*
X63008Y206615D01*
X63001Y206706D01*
X62989Y206735D01*
X62983Y206767D01*
X62941Y206848D01*
X62905Y206932D01*
X62879Y206964D01*
X62868Y206985D01*
X62845Y207007D01*
X62800Y207063D01*
X61749Y208114D01*
X61749Y212510D01*
X64858Y215619D01*
X69254Y215619D01*
X72363Y212510D01*
X72363Y208555D01*
X72377Y208464D01*
X72385Y208374D01*
X72391Y208359D01*
X72391Y207286D01*
X72394Y207266D01*
X72392Y207247D01*
X72414Y207145D01*
X72430Y207043D01*
X72440Y207026D01*
X72444Y207006D01*
X72497Y206917D01*
X72546Y206826D01*
X72560Y206812D01*
X72570Y206795D01*
X72649Y206728D01*
X72724Y206656D01*
X72742Y206648D01*
X72757Y206635D01*
X72853Y206596D01*
X72947Y206553D01*
X72967Y206551D01*
X72985Y206543D01*
X73152Y206525D01*
X84632Y206525D01*
X85525Y205632D01*
X85525Y204216D01*
X85528Y204196D01*
X85526Y204177D01*
X85548Y204075D01*
X85564Y203973D01*
X85574Y203956D01*
X85578Y203936D01*
X85631Y203847D01*
X85680Y203756D01*
X85694Y203742D01*
X85704Y203725D01*
X85783Y203658D01*
X85858Y203586D01*
X85876Y203578D01*
X85891Y203565D01*
X85987Y203526D01*
X86081Y203483D01*
X86101Y203481D01*
X86119Y203473D01*
X86286Y203455D01*
X87129Y203455D01*
X87220Y203469D01*
X87310Y203477D01*
X87340Y203489D01*
X87372Y203494D01*
X87453Y203537D01*
X87537Y203573D01*
X87569Y203599D01*
X87590Y203610D01*
X87612Y203633D01*
X87668Y203678D01*
X95912Y211922D01*
X95965Y211996D01*
X96025Y212066D01*
X96037Y212096D01*
X96056Y212122D01*
X96083Y212209D01*
X96117Y212294D01*
X96121Y212335D01*
X96128Y212357D01*
X96127Y212389D01*
X96135Y212461D01*
X96135Y214812D01*
X97028Y215705D01*
X106884Y215705D01*
X106954Y215716D01*
X107026Y215718D01*
X107075Y215736D01*
X107126Y215744D01*
X107190Y215778D01*
X107257Y215803D01*
X107298Y215835D01*
X107344Y215860D01*
X107393Y215912D01*
X107449Y215956D01*
X107477Y216000D01*
X107513Y216038D01*
X107543Y216103D01*
X107582Y216163D01*
X107595Y216214D01*
X107617Y216261D01*
X107625Y216332D01*
X107642Y216402D01*
X107638Y216454D01*
X107644Y216505D01*
X107629Y216576D01*
X107623Y216647D01*
X107603Y216695D01*
X107592Y216746D01*
X107555Y216807D01*
X107527Y216873D01*
X107482Y216929D01*
X107465Y216957D01*
X107448Y216972D01*
X107422Y217004D01*
X98336Y226090D01*
X98262Y226143D01*
X98192Y226203D01*
X98162Y226215D01*
X98136Y226234D01*
X98049Y226261D01*
X97964Y226295D01*
X97923Y226299D01*
X97901Y226306D01*
X97869Y226305D01*
X97797Y226313D01*
X86286Y226313D01*
X86266Y226310D01*
X86247Y226312D01*
X86145Y226290D01*
X86043Y226274D01*
X86026Y226264D01*
X86006Y226260D01*
X85917Y226207D01*
X85826Y226158D01*
X85812Y226144D01*
X85795Y226134D01*
X85728Y226055D01*
X85656Y225980D01*
X85648Y225962D01*
X85635Y225947D01*
X85596Y225851D01*
X85553Y225757D01*
X85551Y225737D01*
X85543Y225719D01*
X85525Y225552D01*
X85525Y224368D01*
X84632Y223475D01*
X72368Y223475D01*
X71475Y224368D01*
X71475Y235632D01*
X72368Y236525D01*
X72649Y236525D01*
X72719Y236536D01*
X72791Y236538D01*
X72840Y236556D01*
X72891Y236564D01*
X72955Y236598D01*
X73022Y236623D01*
X73063Y236655D01*
X73109Y236680D01*
X73158Y236732D01*
X73214Y236776D01*
X73242Y236820D01*
X73278Y236858D01*
X73308Y236923D01*
X73347Y236983D01*
X73360Y237034D01*
X73382Y237081D01*
X73390Y237152D01*
X73407Y237222D01*
X73403Y237274D01*
X73409Y237325D01*
X73394Y237396D01*
X73388Y237467D01*
X73368Y237515D01*
X73357Y237566D01*
X73320Y237627D01*
X73292Y237693D01*
X73247Y237749D01*
X73230Y237777D01*
X73213Y237792D01*
X73187Y237824D01*
X72417Y238594D01*
X72417Y242990D01*
X75526Y246099D01*
X79922Y246099D01*
X83031Y242990D01*
X83031Y238594D01*
X82261Y237824D01*
X82219Y237766D01*
X82170Y237714D01*
X82148Y237667D01*
X82118Y237625D01*
X82096Y237556D01*
X82066Y237491D01*
X82061Y237439D01*
X82045Y237389D01*
X82047Y237318D01*
X82039Y237247D01*
X82050Y237196D01*
X82052Y237144D01*
X82076Y237076D01*
X82091Y237006D01*
X82118Y236961D01*
X82136Y236913D01*
X82181Y236857D01*
X82218Y236795D01*
X82257Y236761D01*
X82290Y236721D01*
X82350Y236682D01*
X82405Y236635D01*
X82453Y236616D01*
X82497Y236588D01*
X82566Y236570D01*
X82633Y236543D01*
X82704Y236535D01*
X82735Y236527D01*
X82758Y236529D01*
X82799Y236525D01*
X84632Y236525D01*
X85525Y235632D01*
X85525Y231648D01*
X85528Y231628D01*
X85526Y231609D01*
X85548Y231507D01*
X85564Y231405D01*
X85574Y231388D01*
X85578Y231368D01*
X85631Y231279D01*
X85680Y231188D01*
X85694Y231174D01*
X85704Y231157D01*
X85783Y231090D01*
X85858Y231018D01*
X85876Y231010D01*
X85891Y230997D01*
X85987Y230958D01*
X86081Y230915D01*
X86101Y230913D01*
X86119Y230905D01*
X86286Y230887D01*
X100007Y230887D01*
X111868Y219026D01*
X111907Y218998D01*
X111940Y218962D01*
X112007Y218926D01*
X112068Y218882D01*
X112114Y218868D01*
X112156Y218845D01*
X112231Y218832D01*
X112303Y218810D01*
X112351Y218811D01*
X112398Y218803D01*
X112473Y218814D01*
X112549Y218816D01*
X112594Y218832D01*
X112642Y218840D01*
X112709Y218874D01*
X112780Y218900D01*
X112818Y218930D01*
X112860Y218952D01*
X112913Y219007D01*
X112972Y219054D01*
X112998Y219095D01*
X113031Y219129D01*
X113064Y219197D01*
X113105Y219261D01*
X113117Y219308D01*
X113138Y219351D01*
X113147Y219426D01*
X113165Y219500D01*
X113161Y219547D01*
X113167Y219595D01*
X113148Y219723D01*
X113146Y219745D01*
X113143Y219751D01*
X113142Y219761D01*
X113119Y219846D01*
X113119Y224931D01*
X117672Y224931D01*
X117691Y224934D01*
X117711Y224932D01*
X117813Y224954D01*
X117915Y224970D01*
X117932Y224980D01*
X117952Y224984D01*
X118041Y225037D01*
X118132Y225086D01*
X118146Y225100D01*
X118163Y225110D01*
X118230Y225189D01*
X118301Y225264D01*
X118310Y225282D01*
X118323Y225297D01*
X118361Y225393D01*
X118405Y225487D01*
X118407Y225507D01*
X118415Y225525D01*
X118433Y225692D01*
X118433Y225907D01*
X118648Y225907D01*
X118668Y225910D01*
X118687Y225908D01*
X118789Y225930D01*
X118891Y225947D01*
X118908Y225956D01*
X118928Y225960D01*
X119017Y226013D01*
X119108Y226062D01*
X119122Y226076D01*
X119139Y226086D01*
X119206Y226165D01*
X119278Y226240D01*
X119286Y226258D01*
X119299Y226273D01*
X119338Y226370D01*
X119381Y226463D01*
X119383Y226483D01*
X119391Y226501D01*
X119409Y226668D01*
X119409Y234721D01*
X120994Y234721D01*
X121641Y234548D01*
X122220Y234213D01*
X122505Y233928D01*
X122579Y233875D01*
X122649Y233815D01*
X122679Y233803D01*
X122705Y233784D01*
X122792Y233757D01*
X122877Y233723D01*
X122918Y233719D01*
X122940Y233712D01*
X122972Y233713D01*
X123044Y233705D01*
X125000Y233705D01*
X125090Y233719D01*
X125181Y233727D01*
X125210Y233739D01*
X125242Y233744D01*
X125323Y233787D01*
X125407Y233823D01*
X125439Y233849D01*
X125460Y233860D01*
X125482Y233883D01*
X125538Y233928D01*
X125768Y234158D01*
X148366Y256756D01*
X149929Y258319D01*
X169774Y258319D01*
X169794Y258322D01*
X169813Y258320D01*
X169915Y258342D01*
X170017Y258358D01*
X170034Y258368D01*
X170054Y258372D01*
X170143Y258425D01*
X170234Y258474D01*
X170248Y258488D01*
X170265Y258498D01*
X170332Y258577D01*
X170404Y258652D01*
X170412Y258670D01*
X170425Y258685D01*
X170464Y258781D01*
X170507Y258875D01*
X170509Y258895D01*
X170517Y258913D01*
X170535Y259080D01*
X170535Y262382D01*
X171428Y263275D01*
X182692Y263275D01*
X183585Y262382D01*
X183585Y251460D01*
X183587Y251447D01*
X183586Y251438D01*
X183587Y251432D01*
X183586Y251421D01*
X183608Y251319D01*
X183624Y251217D01*
X183634Y251200D01*
X183638Y251180D01*
X183691Y251091D01*
X183740Y251000D01*
X183754Y250986D01*
X183764Y250969D01*
X183843Y250902D01*
X183918Y250830D01*
X183936Y250822D01*
X183951Y250809D01*
X184047Y250770D01*
X184141Y250727D01*
X184161Y250725D01*
X184179Y250717D01*
X184346Y250699D01*
X185758Y250699D01*
X185778Y250702D01*
X185797Y250700D01*
X185899Y250722D01*
X186001Y250738D01*
X186018Y250748D01*
X186038Y250752D01*
X186127Y250805D01*
X186218Y250854D01*
X186232Y250868D01*
X186249Y250878D01*
X186316Y250957D01*
X186388Y251032D01*
X186396Y251050D01*
X186409Y251065D01*
X186448Y251161D01*
X186491Y251255D01*
X186493Y251275D01*
X186501Y251293D01*
X186519Y251460D01*
X186519Y254727D01*
X193298Y254727D01*
X193318Y254730D01*
X193337Y254728D01*
X193439Y254750D01*
X193541Y254767D01*
X193558Y254776D01*
X193578Y254780D01*
X193667Y254833D01*
X193758Y254882D01*
X193772Y254896D01*
X193789Y254906D01*
X193856Y254985D01*
X193927Y255060D01*
X193936Y255078D01*
X193949Y255093D01*
X193988Y255189D01*
X194031Y255283D01*
X194033Y255303D01*
X194041Y255321D01*
X194059Y255488D01*
X194059Y256251D01*
X194061Y256251D01*
X194061Y255488D01*
X194064Y255468D01*
X194062Y255449D01*
X194084Y255347D01*
X194101Y255245D01*
X194110Y255228D01*
X194114Y255208D01*
X194167Y255119D01*
X194216Y255028D01*
X194230Y255014D01*
X194240Y254997D01*
X194319Y254930D01*
X194394Y254859D01*
X194412Y254850D01*
X194427Y254837D01*
X194523Y254798D01*
X194617Y254755D01*
X194637Y254753D01*
X194655Y254745D01*
X194822Y254727D01*
X201601Y254727D01*
X201601Y251460D01*
X201603Y251447D01*
X201602Y251438D01*
X201603Y251432D01*
X201602Y251421D01*
X201624Y251319D01*
X201640Y251217D01*
X201650Y251200D01*
X201654Y251180D01*
X201707Y251091D01*
X201756Y251000D01*
X201770Y250986D01*
X201780Y250969D01*
X201859Y250902D01*
X201934Y250830D01*
X201952Y250822D01*
X201967Y250809D01*
X202063Y250770D01*
X202157Y250727D01*
X202177Y250725D01*
X202195Y250717D01*
X202362Y250699D01*
X216971Y250699D01*
X217061Y250713D01*
X217152Y250721D01*
X217181Y250733D01*
X217213Y250738D01*
X217294Y250781D01*
X217378Y250817D01*
X217410Y250843D01*
X217431Y250854D01*
X217447Y250870D01*
X217448Y250871D01*
X217457Y250880D01*
X217509Y250922D01*
X220306Y253719D01*
X221270Y253719D01*
X221340Y253730D01*
X221412Y253732D01*
X221461Y253750D01*
X221512Y253758D01*
X221576Y253792D01*
X221643Y253817D01*
X221684Y253849D01*
X221730Y253874D01*
X221779Y253926D01*
X221835Y253970D01*
X221863Y254014D01*
X221899Y254052D01*
X221929Y254117D01*
X221968Y254177D01*
X221981Y254228D01*
X222003Y254275D01*
X222011Y254346D01*
X222028Y254416D01*
X222024Y254468D01*
X222030Y254519D01*
X222015Y254590D01*
X222009Y254661D01*
X221989Y254709D01*
X221978Y254760D01*
X221941Y254821D01*
X221913Y254887D01*
X221868Y254943D01*
X221851Y254971D01*
X221834Y254986D01*
X221808Y255018D01*
X194348Y282478D01*
X194274Y282531D01*
X194204Y282591D01*
X194174Y282603D01*
X194148Y282622D01*
X194061Y282649D01*
X193976Y282683D01*
X193935Y282687D01*
X193913Y282694D01*
X193881Y282693D01*
X193809Y282701D01*
X168902Y282701D01*
X168812Y282687D01*
X168721Y282679D01*
X168692Y282667D01*
X168660Y282662D01*
X168579Y282619D01*
X168495Y282583D01*
X168463Y282557D01*
X168442Y282546D01*
X168431Y282535D01*
X168430Y282534D01*
X168418Y282521D01*
X168364Y282478D01*
X138146Y252260D01*
X136583Y250697D01*
X76777Y250697D01*
X57188Y270286D01*
X57114Y270339D01*
X57044Y270399D01*
X57014Y270411D01*
X56988Y270430D01*
X56901Y270457D01*
X56816Y270491D01*
X56775Y270495D01*
X56753Y270502D01*
X56721Y270501D01*
X56649Y270509D01*
X53286Y270509D01*
X53266Y270506D01*
X53247Y270508D01*
X53145Y270486D01*
X53043Y270470D01*
X53026Y270460D01*
X53006Y270456D01*
X52917Y270403D01*
X52826Y270354D01*
X52812Y270340D01*
X52795Y270330D01*
X52728Y270251D01*
X52656Y270176D01*
X52648Y270158D01*
X52635Y270143D01*
X52596Y270047D01*
X52553Y269953D01*
X52551Y269933D01*
X52543Y269915D01*
X52525Y269748D01*
X52525Y265264D01*
X52509Y265202D01*
X52479Y265104D01*
X52479Y265084D01*
X52474Y265064D01*
X52482Y264961D01*
X52485Y264858D01*
X52492Y264839D01*
X52493Y264819D01*
X52525Y264746D01*
X52525Y260264D01*
X52509Y260202D01*
X52479Y260104D01*
X52479Y260084D01*
X52474Y260064D01*
X52482Y259961D01*
X52485Y259858D01*
X52492Y259839D01*
X52493Y259819D01*
X52525Y259746D01*
X52525Y255368D01*
X51632Y254475D01*
X47244Y254475D01*
X47224Y254472D01*
X47205Y254474D01*
X47103Y254452D01*
X47001Y254436D01*
X46984Y254426D01*
X46964Y254422D01*
X46875Y254369D01*
X46784Y254320D01*
X46770Y254306D01*
X46753Y254296D01*
X46686Y254217D01*
X46614Y254142D01*
X46606Y254124D01*
X46593Y254109D01*
X46554Y254013D01*
X46511Y253919D01*
X46509Y253899D01*
X46501Y253881D01*
X46483Y253714D01*
X46483Y191077D01*
X28418Y173012D01*
X28365Y172938D01*
X28305Y172868D01*
X28293Y172838D01*
X28274Y172812D01*
X28247Y172725D01*
X28213Y172640D01*
X28209Y172599D01*
X28202Y172577D01*
X28203Y172545D01*
X28195Y172473D01*
X28195Y94227D01*
X28209Y94136D01*
X28217Y94046D01*
X28229Y94016D01*
X28234Y93984D01*
X28277Y93903D01*
X28313Y93819D01*
X28339Y93787D01*
X28350Y93766D01*
X28373Y93744D01*
X28418Y93688D01*
X49906Y72200D01*
X49980Y72147D01*
X50050Y72087D01*
X50080Y72075D01*
X50106Y72056D01*
X50193Y72029D01*
X50278Y71995D01*
X50319Y71991D01*
X50341Y71984D01*
X50373Y71985D01*
X50444Y71977D01*
X59938Y71977D01*
X59958Y71980D01*
G37*
G36*
X154034Y78388D02*
X154034Y78388D01*
X154105Y78394D01*
X154153Y78414D01*
X154204Y78425D01*
X154265Y78462D01*
X154331Y78490D01*
X154387Y78535D01*
X154415Y78551D01*
X154430Y78569D01*
X154462Y78595D01*
X158512Y82645D01*
X166088Y82645D01*
X166407Y82326D01*
X166423Y82314D01*
X166436Y82298D01*
X166523Y82242D01*
X166607Y82182D01*
X166626Y82176D01*
X166643Y82165D01*
X166743Y82140D01*
X166842Y82110D01*
X166862Y82110D01*
X166881Y82105D01*
X166984Y82113D01*
X167088Y82116D01*
X167107Y82123D01*
X167126Y82124D01*
X167221Y82165D01*
X167319Y82200D01*
X167334Y82213D01*
X167353Y82221D01*
X167484Y82326D01*
X177322Y92164D01*
X177375Y92238D01*
X177435Y92308D01*
X177447Y92338D01*
X177466Y92364D01*
X177493Y92451D01*
X177527Y92536D01*
X177531Y92577D01*
X177538Y92599D01*
X177537Y92631D01*
X177545Y92703D01*
X177545Y131878D01*
X177542Y131898D01*
X177544Y131917D01*
X177522Y132019D01*
X177506Y132121D01*
X177496Y132138D01*
X177492Y132158D01*
X177439Y132247D01*
X177390Y132338D01*
X177376Y132352D01*
X177366Y132369D01*
X177287Y132436D01*
X177212Y132508D01*
X177194Y132516D01*
X177179Y132529D01*
X177083Y132568D01*
X176989Y132611D01*
X176969Y132613D01*
X176951Y132621D01*
X176784Y132639D01*
X175409Y132639D01*
X175409Y140692D01*
X175406Y140711D01*
X175408Y140731D01*
X175386Y140833D01*
X175370Y140935D01*
X175360Y140952D01*
X175356Y140972D01*
X175303Y141061D01*
X175254Y141152D01*
X175240Y141166D01*
X175230Y141183D01*
X175226Y141186D01*
X175278Y141240D01*
X175286Y141258D01*
X175299Y141273D01*
X175338Y141370D01*
X175381Y141463D01*
X175383Y141483D01*
X175391Y141501D01*
X175409Y141668D01*
X175409Y148701D01*
X175395Y148791D01*
X175387Y148882D01*
X175375Y148912D01*
X175370Y148944D01*
X175350Y148981D01*
X175348Y148989D01*
X175327Y149025D01*
X175291Y149109D01*
X175265Y149141D01*
X175254Y149162D01*
X175233Y149182D01*
X175222Y149200D01*
X175209Y149211D01*
X175186Y149240D01*
X174210Y150216D01*
X174152Y150258D01*
X174100Y150307D01*
X174053Y150329D01*
X174011Y150359D01*
X173942Y150380D01*
X173877Y150411D01*
X173825Y150416D01*
X173775Y150432D01*
X173704Y150430D01*
X173632Y150438D01*
X173625Y150436D01*
X173622Y150470D01*
X173628Y150521D01*
X173613Y150592D01*
X173607Y150663D01*
X173587Y150711D01*
X173576Y150762D01*
X173539Y150823D01*
X173511Y150889D01*
X173466Y150945D01*
X173449Y150973D01*
X173432Y150988D01*
X173406Y151020D01*
X166877Y157549D01*
X166877Y186875D01*
X177361Y197359D01*
X180374Y197359D01*
X180394Y197362D01*
X180413Y197360D01*
X180515Y197382D01*
X180617Y197398D01*
X180634Y197408D01*
X180654Y197412D01*
X180743Y197465D01*
X180834Y197514D01*
X180848Y197528D01*
X180865Y197538D01*
X180932Y197617D01*
X181004Y197692D01*
X181012Y197710D01*
X181025Y197725D01*
X181064Y197821D01*
X181107Y197915D01*
X181109Y197935D01*
X181117Y197953D01*
X181135Y198120D01*
X181135Y198812D01*
X181465Y199142D01*
X181477Y199158D01*
X181493Y199170D01*
X181549Y199257D01*
X181609Y199341D01*
X181615Y199360D01*
X181626Y199377D01*
X181651Y199478D01*
X181681Y199577D01*
X181681Y199596D01*
X181686Y199616D01*
X181678Y199719D01*
X181675Y199822D01*
X181668Y199841D01*
X181667Y199861D01*
X181626Y199956D01*
X181591Y200053D01*
X181578Y200069D01*
X181570Y200087D01*
X181465Y200218D01*
X181135Y200548D01*
X181135Y206812D01*
X181465Y207142D01*
X181477Y207158D01*
X181493Y207170D01*
X181549Y207257D01*
X181609Y207341D01*
X181615Y207360D01*
X181626Y207377D01*
X181651Y207478D01*
X181681Y207577D01*
X181681Y207596D01*
X181686Y207616D01*
X181678Y207719D01*
X181675Y207822D01*
X181668Y207841D01*
X181667Y207861D01*
X181626Y207956D01*
X181591Y208053D01*
X181578Y208069D01*
X181570Y208087D01*
X181465Y208218D01*
X181100Y208584D01*
X181096Y208611D01*
X181062Y208675D01*
X181037Y208742D01*
X181005Y208783D01*
X180980Y208829D01*
X180928Y208878D01*
X180884Y208934D01*
X180840Y208962D01*
X180802Y208998D01*
X180737Y209028D01*
X180677Y209067D01*
X180626Y209080D01*
X180579Y209102D01*
X180508Y209110D01*
X180438Y209127D01*
X180386Y209123D01*
X180335Y209129D01*
X180264Y209114D01*
X180193Y209108D01*
X180145Y209088D01*
X180094Y209077D01*
X180033Y209040D01*
X179967Y209012D01*
X179911Y208967D01*
X179883Y208950D01*
X179868Y208933D01*
X179836Y208907D01*
X177458Y206529D01*
X173062Y206529D01*
X169953Y209638D01*
X169953Y214034D01*
X173275Y217356D01*
X173317Y217414D01*
X173366Y217466D01*
X173388Y217513D01*
X173418Y217555D01*
X173440Y217624D01*
X173470Y217689D01*
X173475Y217741D01*
X173491Y217791D01*
X173489Y217862D01*
X173497Y217933D01*
X173486Y217984D01*
X173484Y218036D01*
X173460Y218104D01*
X173445Y218174D01*
X173418Y218219D01*
X173400Y218267D01*
X173355Y218323D01*
X173318Y218385D01*
X173279Y218419D01*
X173246Y218459D01*
X173186Y218498D01*
X173131Y218545D01*
X173083Y218564D01*
X173039Y218592D01*
X172970Y218610D01*
X172903Y218637D01*
X172832Y218645D01*
X172801Y218653D01*
X172778Y218651D01*
X172737Y218655D01*
X171028Y218655D01*
X170698Y218985D01*
X170682Y218997D01*
X170670Y219013D01*
X170583Y219069D01*
X170499Y219129D01*
X170480Y219135D01*
X170463Y219146D01*
X170362Y219171D01*
X170263Y219201D01*
X170244Y219201D01*
X170224Y219206D01*
X170121Y219198D01*
X170018Y219195D01*
X169999Y219188D01*
X169979Y219187D01*
X169884Y219146D01*
X169787Y219111D01*
X169771Y219098D01*
X169753Y219090D01*
X169622Y218985D01*
X169292Y218655D01*
X163028Y218655D01*
X162698Y218985D01*
X162682Y218997D01*
X162670Y219013D01*
X162583Y219069D01*
X162499Y219129D01*
X162480Y219135D01*
X162463Y219146D01*
X162362Y219171D01*
X162263Y219201D01*
X162244Y219201D01*
X162224Y219206D01*
X162121Y219198D01*
X162018Y219195D01*
X161999Y219188D01*
X161979Y219187D01*
X161884Y219146D01*
X161787Y219111D01*
X161771Y219098D01*
X161753Y219090D01*
X161622Y218985D01*
X161292Y218655D01*
X160020Y218655D01*
X160000Y218652D01*
X159981Y218654D01*
X159879Y218632D01*
X159777Y218616D01*
X159760Y218606D01*
X159740Y218602D01*
X159651Y218549D01*
X159560Y218500D01*
X159546Y218486D01*
X159529Y218476D01*
X159462Y218397D01*
X159390Y218322D01*
X159382Y218304D01*
X159369Y218289D01*
X159330Y218193D01*
X159287Y218099D01*
X159285Y218079D01*
X159277Y218061D01*
X159259Y217894D01*
X159259Y194125D01*
X118334Y153200D01*
X118281Y153126D01*
X118221Y153056D01*
X118209Y153026D01*
X118190Y153000D01*
X118163Y152913D01*
X118129Y152828D01*
X118125Y152787D01*
X118118Y152765D01*
X118119Y152733D01*
X118111Y152661D01*
X118111Y150614D01*
X118122Y150544D01*
X118124Y150472D01*
X118142Y150423D01*
X118150Y150372D01*
X118184Y150308D01*
X118209Y150241D01*
X118241Y150200D01*
X118266Y150154D01*
X118318Y150105D01*
X118362Y150049D01*
X118406Y150021D01*
X118444Y149985D01*
X118509Y149955D01*
X118569Y149916D01*
X118620Y149903D01*
X118667Y149881D01*
X118738Y149873D01*
X118808Y149856D01*
X118860Y149860D01*
X118911Y149854D01*
X118982Y149869D01*
X119053Y149875D01*
X119101Y149895D01*
X119152Y149906D01*
X119213Y149943D01*
X119279Y149971D01*
X119335Y150016D01*
X119363Y150033D01*
X119378Y150050D01*
X119410Y150076D01*
X123982Y154648D01*
X125545Y156211D01*
X145343Y156211D01*
X145433Y156225D01*
X145524Y156233D01*
X145553Y156245D01*
X145585Y156250D01*
X145666Y156293D01*
X145750Y156329D01*
X145782Y156355D01*
X145803Y156366D01*
X145825Y156389D01*
X145881Y156434D01*
X148678Y159231D01*
X153074Y159231D01*
X154910Y157395D01*
X154926Y157384D01*
X154938Y157368D01*
X155026Y157312D01*
X155109Y157252D01*
X155128Y157246D01*
X155145Y157235D01*
X155246Y157210D01*
X155345Y157179D01*
X155364Y157180D01*
X155384Y157175D01*
X155487Y157183D01*
X155590Y157186D01*
X155609Y157192D01*
X155629Y157194D01*
X155724Y157234D01*
X155821Y157270D01*
X155837Y157283D01*
X155855Y157290D01*
X155986Y157395D01*
X157822Y159231D01*
X162218Y159231D01*
X165327Y156122D01*
X165327Y151726D01*
X163605Y150004D01*
X163563Y149946D01*
X163514Y149894D01*
X163492Y149847D01*
X163462Y149805D01*
X163440Y149736D01*
X163410Y149671D01*
X163405Y149619D01*
X163389Y149569D01*
X163391Y149498D01*
X163383Y149427D01*
X163394Y149376D01*
X163396Y149324D01*
X163420Y149256D01*
X163435Y149186D01*
X163462Y149141D01*
X163480Y149093D01*
X163525Y149037D01*
X163562Y148975D01*
X163601Y148941D01*
X163634Y148901D01*
X163694Y148862D01*
X163749Y148815D01*
X163797Y148796D01*
X163841Y148768D01*
X163910Y148750D01*
X163977Y148723D01*
X164048Y148715D01*
X164079Y148707D01*
X164102Y148709D01*
X164143Y148705D01*
X169276Y148705D01*
X169366Y148719D01*
X169457Y148727D01*
X169487Y148739D01*
X169519Y148744D01*
X169600Y148787D01*
X169684Y148823D01*
X169716Y148849D01*
X169736Y148860D01*
X169740Y148864D01*
X169741Y148864D01*
X169759Y148884D01*
X169815Y148928D01*
X170100Y149213D01*
X170679Y149548D01*
X171326Y149721D01*
X172868Y149721D01*
X172914Y149728D01*
X172915Y149719D01*
X172911Y149678D01*
X172911Y141668D01*
X172914Y141649D01*
X172912Y141629D01*
X172934Y141527D01*
X172950Y141425D01*
X172960Y141408D01*
X172964Y141388D01*
X173017Y141299D01*
X173066Y141208D01*
X173080Y141194D01*
X173090Y141177D01*
X173094Y141174D01*
X173042Y141120D01*
X173034Y141102D01*
X173021Y141087D01*
X172982Y140990D01*
X172939Y140897D01*
X172937Y140877D01*
X172929Y140859D01*
X172911Y140692D01*
X172911Y132639D01*
X171326Y132639D01*
X170679Y132812D01*
X170100Y133147D01*
X169815Y133432D01*
X169741Y133485D01*
X169671Y133545D01*
X169641Y133557D01*
X169615Y133576D01*
X169528Y133603D01*
X169443Y133637D01*
X169402Y133641D01*
X169380Y133648D01*
X169348Y133647D01*
X169276Y133655D01*
X166161Y133655D01*
X166070Y133641D01*
X165980Y133633D01*
X165950Y133621D01*
X165918Y133616D01*
X165837Y133573D01*
X165753Y133537D01*
X165721Y133511D01*
X165700Y133500D01*
X165678Y133477D01*
X165622Y133432D01*
X153386Y121196D01*
X153333Y121122D01*
X153273Y121052D01*
X153261Y121022D01*
X153242Y120996D01*
X153215Y120909D01*
X153181Y120824D01*
X153177Y120783D01*
X153170Y120761D01*
X153171Y120729D01*
X153163Y120657D01*
X153163Y79133D01*
X153174Y79062D01*
X153176Y78991D01*
X153194Y78942D01*
X153202Y78890D01*
X153236Y78827D01*
X153261Y78760D01*
X153293Y78719D01*
X153318Y78673D01*
X153370Y78624D01*
X153414Y78568D01*
X153458Y78539D01*
X153496Y78504D01*
X153561Y78473D01*
X153621Y78435D01*
X153672Y78422D01*
X153719Y78400D01*
X153790Y78392D01*
X153860Y78375D01*
X153912Y78379D01*
X153963Y78373D01*
X154034Y78388D01*
G37*
%LPC*%
G36*
X231538Y296535D02*
X231538Y296535D01*
X230645Y297428D01*
X230645Y306825D01*
X230631Y306916D01*
X230623Y307006D01*
X230611Y307036D01*
X230606Y307068D01*
X230563Y307149D01*
X230527Y307233D01*
X230501Y307265D01*
X230490Y307286D01*
X230467Y307308D01*
X230422Y307364D01*
X223276Y314510D01*
X223202Y314563D01*
X223132Y314623D01*
X223102Y314635D01*
X223076Y314654D01*
X222989Y314681D01*
X222904Y314715D01*
X222863Y314719D01*
X222841Y314726D01*
X222809Y314725D01*
X222737Y314733D01*
X218802Y314733D01*
X218782Y314730D01*
X218763Y314732D01*
X218661Y314710D01*
X218559Y314694D01*
X218542Y314684D01*
X218522Y314680D01*
X218433Y314627D01*
X218342Y314578D01*
X218328Y314564D01*
X218311Y314554D01*
X218244Y314475D01*
X218172Y314400D01*
X218164Y314382D01*
X218151Y314367D01*
X218112Y314271D01*
X218069Y314177D01*
X218067Y314157D01*
X218059Y314139D01*
X218041Y313972D01*
X218041Y311166D01*
X217868Y310519D01*
X217533Y309940D01*
X217060Y309467D01*
X216481Y309132D01*
X215834Y308959D01*
X211523Y308959D01*
X211523Y315738D01*
X211520Y315758D01*
X211522Y315777D01*
X211500Y315879D01*
X211483Y315981D01*
X211474Y315998D01*
X211470Y316018D01*
X211417Y316107D01*
X211368Y316198D01*
X211354Y316212D01*
X211344Y316229D01*
X211265Y316296D01*
X211190Y316367D01*
X211172Y316376D01*
X211157Y316389D01*
X211061Y316428D01*
X210967Y316471D01*
X210947Y316473D01*
X210929Y316481D01*
X210762Y316499D01*
X209999Y316499D01*
X209999Y316501D01*
X210762Y316501D01*
X210782Y316504D01*
X210801Y316502D01*
X210903Y316524D01*
X211005Y316541D01*
X211022Y316550D01*
X211042Y316554D01*
X211131Y316607D01*
X211222Y316656D01*
X211236Y316670D01*
X211253Y316680D01*
X211320Y316759D01*
X211391Y316834D01*
X211400Y316852D01*
X211413Y316867D01*
X211452Y316963D01*
X211495Y317057D01*
X211497Y317077D01*
X211505Y317095D01*
X211523Y317262D01*
X211523Y324041D01*
X215834Y324041D01*
X216481Y323868D01*
X216496Y323859D01*
X216537Y323843D01*
X216574Y323820D01*
X216651Y323800D01*
X216726Y323772D01*
X216770Y323770D01*
X216812Y323759D01*
X216892Y323766D01*
X216972Y323763D01*
X217014Y323775D01*
X217058Y323779D01*
X217131Y323810D01*
X217208Y323833D01*
X217244Y323858D01*
X217284Y323875D01*
X217397Y323966D01*
X217409Y323974D01*
X217411Y323977D01*
X217415Y323980D01*
X218782Y325347D01*
X223178Y325347D01*
X226287Y322238D01*
X226287Y318283D01*
X226301Y318192D01*
X226309Y318102D01*
X226321Y318072D01*
X226326Y318040D01*
X226369Y317959D01*
X226405Y317875D01*
X226431Y317843D01*
X226442Y317822D01*
X226465Y317800D01*
X226510Y317744D01*
X233446Y310808D01*
X233520Y310755D01*
X233590Y310695D01*
X233620Y310683D01*
X233646Y310664D01*
X233733Y310637D01*
X233818Y310603D01*
X233859Y310599D01*
X233881Y310592D01*
X233913Y310593D01*
X233985Y310585D01*
X242802Y310585D01*
X243695Y309692D01*
X243695Y297428D01*
X242802Y296535D01*
X231538Y296535D01*
G37*
%LPD*%
%LPC*%
G36*
X128868Y326975D02*
X128868Y326975D01*
X127975Y327868D01*
X127975Y339132D01*
X128868Y340025D01*
X135636Y340025D01*
X135656Y340028D01*
X135675Y340026D01*
X135777Y340048D01*
X135879Y340064D01*
X135896Y340074D01*
X135916Y340078D01*
X136005Y340131D01*
X136096Y340180D01*
X136110Y340194D01*
X136127Y340204D01*
X136194Y340283D01*
X136266Y340358D01*
X136274Y340376D01*
X136287Y340391D01*
X136326Y340487D01*
X136369Y340581D01*
X136371Y340601D01*
X136379Y340619D01*
X136397Y340786D01*
X136397Y346214D01*
X136394Y346234D01*
X136396Y346253D01*
X136374Y346355D01*
X136358Y346457D01*
X136348Y346474D01*
X136344Y346494D01*
X136291Y346583D01*
X136242Y346674D01*
X136228Y346688D01*
X136218Y346705D01*
X136139Y346772D01*
X136064Y346844D01*
X136046Y346852D01*
X136031Y346865D01*
X135935Y346904D01*
X135841Y346947D01*
X135821Y346949D01*
X135803Y346957D01*
X135636Y346975D01*
X135368Y346975D01*
X134475Y347868D01*
X134475Y357132D01*
X135368Y358025D01*
X144632Y358025D01*
X145525Y357132D01*
X145525Y347868D01*
X144632Y346975D01*
X141732Y346975D01*
X141712Y346972D01*
X141693Y346974D01*
X141591Y346952D01*
X141489Y346936D01*
X141472Y346926D01*
X141452Y346922D01*
X141363Y346869D01*
X141272Y346820D01*
X141258Y346806D01*
X141241Y346796D01*
X141174Y346717D01*
X141102Y346642D01*
X141094Y346624D01*
X141081Y346609D01*
X141042Y346513D01*
X140999Y346419D01*
X140997Y346399D01*
X140989Y346381D01*
X140971Y346214D01*
X140971Y340501D01*
X140985Y340411D01*
X140993Y340320D01*
X141005Y340290D01*
X141010Y340258D01*
X141053Y340177D01*
X141089Y340094D01*
X141115Y340061D01*
X141126Y340041D01*
X141149Y340019D01*
X141194Y339963D01*
X142025Y339132D01*
X142025Y327868D01*
X141132Y326975D01*
X128868Y326975D01*
G37*
%LPD*%
G36*
X80130Y64782D02*
X80130Y64782D01*
X80201Y64784D01*
X80250Y64802D01*
X80302Y64810D01*
X80365Y64844D01*
X80432Y64869D01*
X80473Y64901D01*
X80519Y64926D01*
X80568Y64978D01*
X80624Y65022D01*
X80653Y65066D01*
X80688Y65104D01*
X80719Y65169D01*
X80757Y65229D01*
X80770Y65280D01*
X80792Y65327D01*
X80800Y65398D01*
X80817Y65468D01*
X80813Y65520D01*
X80819Y65571D01*
X80804Y65642D01*
X80798Y65713D01*
X80778Y65761D01*
X80767Y65812D01*
X80730Y65873D01*
X80702Y65939D01*
X80657Y65995D01*
X80641Y66023D01*
X80623Y66038D01*
X80597Y66070D01*
X76955Y69712D01*
X76955Y77288D01*
X82315Y82648D01*
X82316Y82648D01*
X82335Y82646D01*
X82437Y82668D01*
X82539Y82684D01*
X82556Y82694D01*
X82576Y82698D01*
X82665Y82751D01*
X82756Y82800D01*
X82770Y82814D01*
X82787Y82824D01*
X82854Y82903D01*
X82926Y82978D01*
X82934Y82996D01*
X82947Y83011D01*
X82986Y83107D01*
X83029Y83201D01*
X83031Y83221D01*
X83039Y83239D01*
X83057Y83406D01*
X83057Y101373D01*
X83053Y101397D01*
X83056Y101421D01*
X83034Y101518D01*
X83018Y101616D01*
X83006Y101637D01*
X83001Y101661D01*
X82949Y101746D01*
X82902Y101833D01*
X82885Y101850D01*
X82872Y101870D01*
X82796Y101934D01*
X82724Y102003D01*
X82702Y102013D01*
X82684Y102028D01*
X82591Y102064D01*
X82501Y102106D01*
X82477Y102109D01*
X82455Y102118D01*
X82355Y102122D01*
X82257Y102133D01*
X82233Y102128D01*
X82209Y102129D01*
X82113Y102102D01*
X82016Y102081D01*
X81996Y102069D01*
X81972Y102062D01*
X81890Y102006D01*
X81805Y101955D01*
X81789Y101937D01*
X81770Y101923D01*
X81710Y101844D01*
X81645Y101768D01*
X81636Y101746D01*
X81622Y101726D01*
X81561Y101570D01*
X80578Y97902D01*
X77134Y91937D01*
X72263Y87066D01*
X66301Y83624D01*
X66210Y83550D01*
X66116Y83474D01*
X66114Y83471D01*
X66110Y83468D01*
X66047Y83367D01*
X65983Y83267D01*
X65982Y83263D01*
X65980Y83260D01*
X65952Y83144D01*
X65923Y83029D01*
X65923Y83025D01*
X65922Y83021D01*
X65933Y82901D01*
X65942Y82784D01*
X65944Y82780D01*
X65944Y82776D01*
X65993Y82663D01*
X66038Y82557D01*
X66041Y82553D01*
X66043Y82550D01*
X66052Y82540D01*
X66143Y82426D01*
X70861Y77709D01*
X70861Y75023D01*
X61462Y75023D01*
X61442Y75020D01*
X61423Y75022D01*
X61321Y75000D01*
X61219Y74983D01*
X61202Y74974D01*
X61182Y74970D01*
X61093Y74917D01*
X61002Y74868D01*
X60988Y74854D01*
X60971Y74844D01*
X60904Y74765D01*
X60833Y74690D01*
X60824Y74672D01*
X60811Y74657D01*
X60773Y74561D01*
X60729Y74467D01*
X60727Y74447D01*
X60719Y74429D01*
X60701Y74262D01*
X60701Y72738D01*
X60704Y72718D01*
X60702Y72699D01*
X60724Y72597D01*
X60741Y72495D01*
X60750Y72478D01*
X60754Y72458D01*
X60807Y72369D01*
X60856Y72278D01*
X60870Y72264D01*
X60880Y72247D01*
X60959Y72180D01*
X61034Y72109D01*
X61052Y72100D01*
X61067Y72087D01*
X61163Y72048D01*
X61257Y72005D01*
X61277Y72003D01*
X61295Y71995D01*
X61462Y71977D01*
X70861Y71977D01*
X70861Y69291D01*
X67640Y66070D01*
X67598Y66012D01*
X67548Y65960D01*
X67527Y65913D01*
X67496Y65871D01*
X67475Y65802D01*
X67445Y65737D01*
X67439Y65685D01*
X67424Y65635D01*
X67426Y65564D01*
X67418Y65493D01*
X67429Y65442D01*
X67430Y65390D01*
X67455Y65322D01*
X67470Y65252D01*
X67497Y65207D01*
X67515Y65159D01*
X67559Y65103D01*
X67596Y65041D01*
X67636Y65007D01*
X67668Y64967D01*
X67729Y64928D01*
X67783Y64881D01*
X67831Y64862D01*
X67875Y64834D01*
X67945Y64816D01*
X68011Y64789D01*
X68083Y64781D01*
X68114Y64773D01*
X68137Y64775D01*
X68178Y64771D01*
X80059Y64771D01*
X80130Y64782D01*
G37*
%LPC*%
G36*
X133112Y38955D02*
X133112Y38955D01*
X127755Y44312D01*
X127755Y51888D01*
X133112Y57245D01*
X140688Y57245D01*
X146045Y51888D01*
X146045Y44312D01*
X140688Y38955D01*
X133112Y38955D01*
G37*
%LPD*%
%LPC*%
G36*
X84500Y298261D02*
X84500Y298261D01*
X76459Y298261D01*
X76459Y299334D01*
X76632Y299981D01*
X76967Y300560D01*
X77252Y300845D01*
X77305Y300919D01*
X77365Y300989D01*
X77377Y301019D01*
X77396Y301045D01*
X77423Y301132D01*
X77457Y301217D01*
X77461Y301258D01*
X77468Y301280D01*
X77467Y301312D01*
X77475Y301384D01*
X77475Y304632D01*
X78368Y305525D01*
X90632Y305525D01*
X91525Y304632D01*
X91525Y301384D01*
X91539Y301294D01*
X91547Y301203D01*
X91559Y301173D01*
X91564Y301141D01*
X91607Y301060D01*
X91643Y300976D01*
X91669Y300944D01*
X91680Y300924D01*
X91703Y300901D01*
X91748Y300845D01*
X92033Y300560D01*
X92368Y299981D01*
X92541Y299334D01*
X92541Y298261D01*
X84500Y298261D01*
X84500Y298261D01*
G37*
%LPD*%
%LPC*%
G36*
X305926Y193519D02*
X305926Y193519D01*
X304171Y193868D01*
X302519Y194553D01*
X301031Y195547D01*
X299767Y196811D01*
X298773Y198299D01*
X298088Y199951D01*
X297864Y201077D01*
X311837Y201077D01*
X311837Y193519D01*
X305926Y193519D01*
G37*
%LPD*%
%LPC*%
G36*
X290823Y37939D02*
X290823Y37939D01*
X290823Y46577D01*
X299461Y46577D01*
X299461Y43891D01*
X293509Y37939D01*
X290823Y37939D01*
G37*
%LPD*%
%LPC*%
G36*
X101343Y310289D02*
X101343Y310289D01*
X101343Y316557D01*
X110361Y316557D01*
X110361Y312495D01*
X110188Y311849D01*
X109853Y311270D01*
X109380Y310797D01*
X108801Y310462D01*
X108154Y310289D01*
X101343Y310289D01*
G37*
%LPD*%
%LPC*%
G36*
X91486Y310289D02*
X91486Y310289D01*
X90839Y310462D01*
X90260Y310797D01*
X89787Y311270D01*
X89452Y311849D01*
X89279Y312496D01*
X89279Y316557D01*
X98297Y316557D01*
X98297Y310289D01*
X91486Y310289D01*
G37*
%LPD*%
%LPC*%
G36*
X161523Y318023D02*
X161523Y318023D01*
X161523Y324041D01*
X165834Y324041D01*
X166481Y323868D01*
X167060Y323533D01*
X167533Y323060D01*
X167868Y322481D01*
X168041Y321834D01*
X168041Y318023D01*
X161523Y318023D01*
G37*
%LPD*%
%LPC*%
G36*
X136523Y318023D02*
X136523Y318023D01*
X136523Y324041D01*
X140834Y324041D01*
X141481Y323868D01*
X142060Y323533D01*
X142533Y323060D01*
X142868Y322481D01*
X143041Y321834D01*
X143041Y318023D01*
X136523Y318023D01*
G37*
%LPD*%
%LPC*%
G36*
X195583Y257773D02*
X195583Y257773D01*
X195583Y264291D01*
X199394Y264291D01*
X200041Y264118D01*
X200620Y263783D01*
X201093Y263310D01*
X201428Y262731D01*
X201601Y262084D01*
X201601Y257773D01*
X195583Y257773D01*
G37*
%LPD*%
%LPC*%
G36*
X63023Y231523D02*
X63023Y231523D01*
X63023Y237541D01*
X67334Y237541D01*
X67981Y237368D01*
X68560Y237033D01*
X69033Y236560D01*
X69368Y235981D01*
X69541Y235334D01*
X69541Y231523D01*
X63023Y231523D01*
G37*
%LPD*%
%LPC*%
G36*
X241523Y123023D02*
X241523Y123023D01*
X241523Y129541D01*
X245335Y129541D01*
X245981Y129368D01*
X246560Y129033D01*
X247033Y128560D01*
X247368Y127981D01*
X247541Y127334D01*
X247541Y123023D01*
X241523Y123023D01*
G37*
%LPD*%
%LPC*%
G36*
X211523Y123023D02*
X211523Y123023D01*
X211523Y129541D01*
X215335Y129541D01*
X215981Y129368D01*
X216560Y129033D01*
X217033Y128560D01*
X217368Y127981D01*
X217541Y127334D01*
X217541Y123023D01*
X211523Y123023D01*
G37*
%LPD*%
%LPC*%
G36*
X201959Y318023D02*
X201959Y318023D01*
X201959Y321834D01*
X202132Y322481D01*
X202467Y323060D01*
X202940Y323533D01*
X203519Y323868D01*
X204166Y324041D01*
X208477Y324041D01*
X208477Y318023D01*
X201959Y318023D01*
G37*
%LPD*%
%LPC*%
G36*
X126959Y318023D02*
X126959Y318023D01*
X126959Y321834D01*
X127132Y322481D01*
X127467Y323060D01*
X127940Y323533D01*
X128519Y323868D01*
X129166Y324041D01*
X133477Y324041D01*
X133477Y318023D01*
X126959Y318023D01*
G37*
%LPD*%
%LPC*%
G36*
X151959Y318023D02*
X151959Y318023D01*
X151959Y321834D01*
X152132Y322481D01*
X152467Y323060D01*
X152940Y323533D01*
X153519Y323868D01*
X154166Y324041D01*
X158477Y324041D01*
X158477Y318023D01*
X151959Y318023D01*
G37*
%LPD*%
%LPC*%
G36*
X53459Y231523D02*
X53459Y231523D01*
X53459Y235334D01*
X53632Y235981D01*
X53967Y236560D01*
X54440Y237033D01*
X55019Y237368D01*
X55666Y237541D01*
X59977Y237541D01*
X59977Y231523D01*
X53459Y231523D01*
G37*
%LPD*%
%LPC*%
G36*
X53459Y201523D02*
X53459Y201523D01*
X53459Y205334D01*
X53632Y205981D01*
X53967Y206560D01*
X54440Y207033D01*
X55019Y207368D01*
X55666Y207541D01*
X59977Y207541D01*
X59977Y201523D01*
X53459Y201523D01*
G37*
%LPD*%
%LPC*%
G36*
X136523Y308959D02*
X136523Y308959D01*
X136523Y314977D01*
X143041Y314977D01*
X143041Y311166D01*
X142868Y310519D01*
X142533Y309940D01*
X142060Y309467D01*
X141481Y309132D01*
X140834Y308959D01*
X136523Y308959D01*
G37*
%LPD*%
%LPC*%
G36*
X161523Y308959D02*
X161523Y308959D01*
X161523Y314977D01*
X168041Y314977D01*
X168041Y311166D01*
X167868Y310519D01*
X167533Y309940D01*
X167060Y309467D01*
X166481Y309132D01*
X165834Y308959D01*
X161523Y308959D01*
G37*
%LPD*%
%LPC*%
G36*
X186519Y257773D02*
X186519Y257773D01*
X186519Y262084D01*
X186692Y262731D01*
X187027Y263310D01*
X187500Y263783D01*
X188079Y264118D01*
X188726Y264291D01*
X192537Y264291D01*
X192537Y257773D01*
X186519Y257773D01*
G37*
%LPD*%
%LPC*%
G36*
X232459Y123023D02*
X232459Y123023D01*
X232459Y127334D01*
X232632Y127981D01*
X232967Y128560D01*
X233440Y129033D01*
X234019Y129368D01*
X234666Y129541D01*
X238477Y129541D01*
X238477Y123023D01*
X232459Y123023D01*
G37*
%LPD*%
%LPC*%
G36*
X63023Y222459D02*
X63023Y222459D01*
X63023Y228477D01*
X69541Y228477D01*
X69541Y224665D01*
X69368Y224019D01*
X69033Y223440D01*
X68560Y222967D01*
X67981Y222632D01*
X67334Y222459D01*
X63023Y222459D01*
G37*
%LPD*%
%LPC*%
G36*
X204166Y308959D02*
X204166Y308959D01*
X203519Y309132D01*
X202940Y309467D01*
X202467Y309940D01*
X202132Y310519D01*
X201959Y311166D01*
X201959Y314977D01*
X208477Y314977D01*
X208477Y308959D01*
X204166Y308959D01*
G37*
%LPD*%
%LPC*%
G36*
X55666Y222459D02*
X55666Y222459D01*
X55019Y222632D01*
X54440Y222967D01*
X53967Y223440D01*
X53632Y224019D01*
X53459Y224666D01*
X53459Y228477D01*
X59977Y228477D01*
X59977Y222459D01*
X55666Y222459D01*
G37*
%LPD*%
%LPC*%
G36*
X179166Y308959D02*
X179166Y308959D01*
X178519Y309132D01*
X177940Y309467D01*
X177467Y309940D01*
X177132Y310519D01*
X176959Y311166D01*
X176959Y314977D01*
X183477Y314977D01*
X183477Y308959D01*
X179166Y308959D01*
G37*
%LPD*%
%LPC*%
G36*
X129166Y308959D02*
X129166Y308959D01*
X128519Y309132D01*
X127940Y309467D01*
X127467Y309940D01*
X127132Y310519D01*
X126959Y311166D01*
X126959Y314977D01*
X133477Y314977D01*
X133477Y308959D01*
X129166Y308959D01*
G37*
%LPD*%
%LPC*%
G36*
X154166Y308959D02*
X154166Y308959D01*
X153519Y309132D01*
X152940Y309467D01*
X152467Y309940D01*
X152132Y310519D01*
X151959Y311166D01*
X151959Y314977D01*
X158477Y314977D01*
X158477Y308959D01*
X154166Y308959D01*
G37*
%LPD*%
%LPC*%
G36*
X113119Y227429D02*
X113119Y227429D01*
X113119Y232514D01*
X113292Y233161D01*
X113627Y233740D01*
X114100Y234213D01*
X114679Y234548D01*
X115326Y234721D01*
X116911Y234721D01*
X116911Y227429D01*
X113119Y227429D01*
G37*
%LPD*%
%LPC*%
G36*
X99819Y318079D02*
X99819Y318079D01*
X99819Y318081D01*
X99821Y318081D01*
X99821Y318079D01*
X99819Y318079D01*
G37*
%LPD*%
%LPC*%
G36*
X61499Y229999D02*
X61499Y229999D01*
X61499Y230001D01*
X61501Y230001D01*
X61501Y229999D01*
X61499Y229999D01*
G37*
%LPD*%
%LPC*%
G36*
X134999Y316499D02*
X134999Y316499D01*
X134999Y316501D01*
X135001Y316501D01*
X135001Y316499D01*
X134999Y316499D01*
G37*
%LPD*%
%LPC*%
G36*
X159999Y316499D02*
X159999Y316499D01*
X159999Y316501D01*
X160001Y316501D01*
X160001Y316499D01*
X159999Y316499D01*
G37*
%LPD*%
D10*
X78500Y200000D03*
X61500Y200000D03*
D11*
X210000Y138500D03*
X210000Y121500D03*
X240000Y138500D03*
X240000Y121500D03*
D10*
X78500Y230000D03*
X61500Y230000D03*
D12*
X289300Y48100D03*
X263900Y48100D03*
X238500Y48100D03*
X213100Y48100D03*
X187700Y48100D03*
X162300Y48100D03*
X136900Y48100D03*
X111500Y48100D03*
X86100Y48100D03*
X60700Y48100D03*
X289300Y73500D03*
X263900Y73500D03*
X238500Y73500D03*
X213100Y73500D03*
X187700Y73500D03*
X162300Y73500D03*
X136900Y73500D03*
X111500Y73500D03*
X86100Y73500D03*
X60700Y73500D03*
D13*
X140000Y352500D03*
X140000Y367500D03*
X160000Y352500D03*
X160000Y367500D03*
X180000Y352500D03*
X180000Y367500D03*
D11*
X177060Y256250D03*
X194060Y256250D03*
X237170Y303560D03*
X254170Y303560D03*
D10*
X185000Y316500D03*
X185000Y333500D03*
X135000Y316500D03*
X135000Y333500D03*
X160000Y316500D03*
X160000Y333500D03*
D14*
X99820Y362580D03*
X99820Y318080D03*
D15*
X118160Y141180D03*
X126160Y141180D03*
X134160Y141180D03*
X142160Y141180D03*
X150160Y141180D03*
X158160Y141180D03*
X166160Y141180D03*
X174160Y141180D03*
D16*
X103660Y155680D03*
X103660Y163680D03*
X103660Y171680D03*
X103660Y179680D03*
X103660Y187680D03*
X103660Y195680D03*
X103660Y203680D03*
X103660Y211680D03*
X188660Y155680D03*
X188660Y163680D03*
X188660Y171680D03*
X188660Y179680D03*
X188660Y187680D03*
X188660Y195680D03*
X188660Y203680D03*
X188660Y211680D03*
D15*
X118160Y226180D03*
X126160Y226180D03*
X134160Y226180D03*
X142160Y226180D03*
X150160Y226180D03*
X158160Y226180D03*
X166160Y226180D03*
X174160Y226180D03*
D17*
X306820Y177200D02*
X319900Y177200D01*
X319900Y202600D02*
X306820Y202600D01*
X306820Y228000D02*
X319900Y228000D01*
X319900Y253400D02*
X306820Y253400D01*
X306820Y278800D02*
X319900Y278800D01*
D18*
X60500Y411900D03*
X85900Y411900D03*
X111300Y411900D03*
X136700Y411900D03*
X162100Y411900D03*
X187500Y411900D03*
X60500Y386500D03*
X85900Y386500D03*
X111300Y386500D03*
X136700Y386500D03*
X162100Y386500D03*
X187500Y386500D03*
D19*
X45500Y302500D03*
X45500Y297500D03*
X45500Y292500D03*
X45500Y287500D03*
X45500Y282500D03*
X45500Y277500D03*
X45500Y272500D03*
X45500Y267500D03*
X45500Y262500D03*
X45500Y257500D03*
X84500Y257500D03*
X84500Y262500D03*
X84500Y267500D03*
X84500Y272500D03*
X84500Y277500D03*
X84500Y282500D03*
X84500Y287500D03*
X84500Y292500D03*
X84500Y297500D03*
X84500Y302500D03*
D13*
X200000Y352500D03*
X200000Y367500D03*
D10*
X210000Y316500D03*
X210000Y333500D03*
D20*
X210312Y138684D02*
X239268Y138684D01*
X210312Y138684D02*
X210000Y138500D01*
X239268Y138684D02*
X240000Y138500D01*
X192024Y155448D02*
X188976Y155448D01*
X192024Y155448D02*
X208788Y138684D01*
X188976Y155448D02*
X188660Y155680D01*
X208788Y138684D02*
X210000Y138500D01*
X254508Y266700D02*
X254508Y303276D01*
X254508Y266700D02*
X309372Y211836D01*
X324612Y211836D01*
X329184Y207264D01*
X329184Y187452D02*
X329184Y102108D01*
X329184Y187452D02*
X329184Y207264D01*
X329184Y102108D02*
X301752Y74676D01*
X289560Y74676D01*
X254508Y303276D02*
X254170Y303560D01*
X289560Y74676D02*
X289300Y73500D01*
X208788Y134112D02*
X208788Y137160D01*
X208788Y134112D02*
X202692Y128016D01*
X202692Y114300D01*
X204216Y112776D01*
X245364Y112776D01*
X297180Y164592D01*
X297180Y181356D01*
X303276Y187452D01*
X329184Y187452D01*
X210000Y138500D02*
X208788Y137160D01*
X179832Y368808D02*
X163068Y385572D01*
X179832Y368808D02*
X180000Y367500D01*
X163068Y385572D02*
X162100Y386500D01*
X88392Y201168D02*
X79248Y201168D01*
X88392Y201168D02*
X97536Y210312D01*
X103632Y210312D01*
X79248Y201168D02*
X78500Y200000D01*
X103632Y210312D02*
X103660Y211680D01*
X103632Y179832D02*
X99060Y179832D01*
X88392Y190500D01*
X88392Y201168D01*
X103632Y179832D02*
X103660Y179680D01*
X44196Y297180D02*
X39624Y297180D01*
X22860Y280416D01*
X22860Y85344D01*
X59436Y48768D01*
X44196Y297180D02*
X45500Y297500D01*
X59436Y48768D02*
X60700Y48100D01*
X94488Y175260D02*
X99060Y179832D01*
X94488Y175260D02*
X94488Y147828D01*
X99060Y179832D02*
X103660Y179680D01*
D21*
X94488Y147828D03*
D20*
X60960Y201168D02*
X60960Y228600D01*
X60960Y201168D02*
X61500Y200000D01*
X60960Y228600D02*
X61500Y230000D01*
X190500Y257556D02*
X193548Y257556D01*
X190500Y257556D02*
X182880Y265176D01*
X152400Y265176D01*
X118872Y231648D01*
X118872Y227076D01*
X194060Y256250D02*
X193548Y257556D01*
X118872Y227076D02*
X118160Y226180D01*
X62484Y230124D02*
X62484Y234696D01*
X74676Y246888D01*
X103632Y246888D01*
X118872Y231648D01*
X62484Y230124D02*
X61500Y230000D01*
X118160Y226180D02*
X118872Y231648D01*
X173736Y149352D02*
X173736Y141732D01*
X173736Y149352D02*
X163068Y160020D01*
X131064Y160020D01*
X173736Y141732D02*
X174160Y141180D01*
X60960Y199644D02*
X56388Y199644D01*
X28956Y172212D01*
X28956Y96012D01*
X50292Y74676D01*
X59436Y74676D01*
X60960Y199644D02*
X61500Y200000D01*
X59436Y74676D02*
X60700Y73500D01*
X85344Y298704D02*
X91440Y298704D01*
X99060Y306324D01*
X99060Y316992D01*
X85344Y298704D02*
X84500Y297500D01*
X99060Y316992D02*
X99820Y318080D01*
X135636Y316992D02*
X158496Y316992D01*
X135636Y316992D02*
X135000Y316500D01*
X158496Y316992D02*
X160000Y316500D01*
X160020Y316992D02*
X184404Y316992D01*
X185000Y316500D01*
X160020Y316992D02*
X160000Y316500D01*
X134112Y316992D02*
X100584Y316992D01*
X99820Y318080D01*
X134112Y316992D02*
X135000Y316500D01*
X210312Y121920D02*
X239268Y121920D01*
X210312Y121920D02*
X210000Y121500D01*
X239268Y121920D02*
X240000Y121500D01*
X210312Y304800D02*
X210312Y315468D01*
X210312Y304800D02*
X312420Y202692D01*
X210312Y315468D02*
X210000Y316500D01*
X312420Y202692D02*
X313360Y202600D01*
X240792Y124968D02*
X240792Y121920D01*
X240792Y124968D02*
X294132Y178308D01*
X294132Y182880D01*
X312420Y201168D01*
X240792Y121920D02*
X240000Y121500D01*
X312420Y201168D02*
X313360Y202600D01*
X208788Y316992D02*
X198120Y327660D01*
X208788Y316992D02*
X210000Y316500D01*
X185928Y315468D02*
X185928Y304800D01*
X185928Y315468D02*
X185000Y316500D01*
X182880Y278892D02*
X182880Y265176D01*
D21*
X131064Y160020D03*
X198120Y327660D03*
X185928Y304800D03*
X182880Y278892D03*
D20*
X176784Y256032D02*
X150876Y256032D01*
X126492Y231648D01*
X126492Y227076D01*
X176784Y256032D02*
X177060Y256250D01*
X126492Y227076D02*
X126160Y226180D01*
X134112Y207264D02*
X134112Y176784D01*
X134112Y207264D02*
X134112Y225552D01*
X134112Y176784D02*
X112776Y155448D01*
X112776Y152400D01*
X92964Y132588D01*
X92964Y94488D01*
X134112Y225552D02*
X134160Y226180D01*
X251460Y74676D02*
X263652Y74676D01*
X251460Y74676D02*
X242316Y83820D01*
X196596Y83820D01*
X263652Y74676D02*
X263900Y73500D01*
D21*
X92964Y94488D03*
X134112Y207264D03*
X196596Y83820D03*
D20*
X99060Y228600D02*
X79248Y228600D01*
X99060Y228600D02*
X112776Y214884D01*
X112776Y192024D01*
X109728Y188976D01*
X105156Y188976D01*
X79248Y228600D02*
X78500Y230000D01*
X105156Y188976D02*
X103660Y187680D01*
X220980Y320040D02*
X236220Y304800D01*
X237170Y303560D01*
X111252Y373380D02*
X100584Y362712D01*
X99820Y362580D01*
X77724Y240792D02*
X77724Y230124D01*
X78500Y230000D01*
D21*
X220980Y320040D03*
X111252Y373380D03*
X77724Y240792D03*
D20*
X181356Y336804D02*
X181356Y352044D01*
X181356Y336804D02*
X184404Y333756D01*
X181356Y352044D02*
X180000Y352500D01*
X184404Y333756D02*
X185000Y333500D01*
X147828Y367284D02*
X140208Y367284D01*
X147828Y367284D02*
X155448Y359664D01*
X164592Y359664D01*
X172212Y352044D01*
X172212Y332232D01*
X179832Y324612D01*
X192024Y324612D01*
X193548Y323088D01*
X193548Y294132D01*
X160020Y153924D02*
X160020Y143256D01*
X158496Y141732D01*
X140208Y367284D02*
X140000Y367500D01*
X158496Y141732D02*
X158160Y141180D01*
D21*
X193548Y294132D03*
X160020Y153924D03*
D20*
X160020Y367284D02*
X167640Y367284D01*
X175260Y359664D01*
X213360Y359664D01*
X309372Y263652D01*
X323088Y263652D01*
X332232Y254508D01*
X332232Y100584D01*
X291084Y59436D01*
X286512Y59436D01*
X274320Y47244D01*
X274320Y44196D01*
X268224Y38100D01*
X156972Y38100D01*
X150876Y44196D01*
X150876Y121920D01*
X166116Y137160D01*
X166116Y140208D01*
X160020Y367284D02*
X160000Y367500D01*
X166160Y141180D02*
X166116Y140208D01*
X166116Y227076D02*
X166116Y242316D01*
X161544Y246888D01*
X166116Y227076D02*
X166160Y226180D01*
D21*
X161544Y246888D03*
D20*
X175260Y225552D02*
X185928Y225552D01*
X190500Y220980D01*
X175260Y225552D02*
X174160Y226180D01*
X111252Y413004D02*
X99060Y413004D01*
X89916Y422148D01*
X80772Y422148D01*
X71628Y413004D01*
X71628Y408432D01*
X60960Y397764D01*
X56388Y397764D01*
X16764Y358140D01*
X16764Y73152D01*
X54864Y35052D01*
X99060Y35052D01*
X111252Y47244D01*
X111300Y411900D02*
X111252Y413004D01*
X111500Y48100D02*
X111252Y47244D01*
D21*
X190500Y220980D03*
D20*
X187452Y211836D02*
X175260Y211836D01*
X187452Y211836D02*
X188660Y211680D01*
D21*
X175260Y211836D03*
D20*
X188976Y204216D02*
X193548Y204216D01*
X216408Y227076D01*
X188976Y204216D02*
X188660Y203680D01*
D21*
X216408Y227076D03*
D20*
X187452Y195072D02*
X178308Y195072D01*
X169164Y185928D01*
X169164Y158496D01*
X179832Y147828D01*
X179832Y91440D01*
X163068Y74676D01*
X187452Y195072D02*
X188660Y195680D01*
X163068Y74676D02*
X162300Y73500D01*
X179832Y187452D02*
X187452Y187452D01*
X179832Y187452D02*
X175260Y182880D01*
X187452Y187452D02*
X188660Y187680D01*
D21*
X175260Y182880D03*
D20*
X187452Y73152D02*
X163068Y48768D01*
X162300Y48100D01*
X187452Y73152D02*
X187700Y73500D01*
X67056Y387096D02*
X60960Y387096D01*
X67056Y387096D02*
X80772Y400812D01*
X187452Y400812D01*
X295656Y292608D01*
X60960Y387096D02*
X60500Y386500D01*
D21*
X295656Y292608D03*
D20*
X138684Y336804D02*
X138684Y352044D01*
X138684Y336804D02*
X135636Y333756D01*
X138684Y352044D02*
X140000Y352500D01*
X135636Y333756D02*
X135000Y333500D01*
X160020Y333756D02*
X160020Y352044D01*
X160000Y352500D01*
X160020Y333756D02*
X160000Y333500D01*
X109728Y156972D02*
X105156Y156972D01*
X109728Y156972D02*
X118872Y166116D01*
X118872Y213360D01*
X152400Y246888D02*
X158496Y252984D01*
X166116Y252984D01*
X170688Y248412D01*
X222504Y248412D01*
X105156Y156972D02*
X103660Y155680D01*
D21*
X118872Y213360D03*
X152400Y246888D03*
X222504Y248412D03*
D20*
X118872Y146304D02*
X118872Y141732D01*
X118872Y146304D02*
X126492Y153924D01*
X150876Y153924D01*
X201168Y170688D02*
X201168Y178308D01*
X237744Y214884D01*
X237744Y248412D01*
X118872Y141732D02*
X118160Y141180D01*
D21*
X150876Y153924D03*
X201168Y170688D03*
X237744Y248412D03*
D20*
X312420Y176784D02*
X312420Y163068D01*
X268224Y118872D01*
X268224Y83820D01*
X274320Y77724D01*
X274320Y57912D01*
X265176Y48768D01*
X312420Y176784D02*
X313360Y177200D01*
X265176Y48768D02*
X263900Y48100D01*
X70104Y207264D02*
X67056Y210312D01*
X70104Y207264D02*
X70104Y193548D01*
X85344Y178308D01*
X85344Y74676D01*
X86100Y73500D01*
D21*
X67056Y210312D03*
D20*
X156972Y195072D02*
X156972Y225552D01*
X156972Y195072D02*
X115824Y153924D01*
X115824Y150876D01*
X112776Y147828D01*
X112776Y74676D01*
X156972Y225552D02*
X158160Y226180D01*
X112776Y74676D02*
X111500Y73500D01*
X243840Y251460D02*
X213360Y281940D01*
X243840Y251460D02*
X243840Y167640D01*
X220980Y144780D01*
D21*
X213360Y281940D03*
X220980Y144780D03*
D20*
X44196Y192024D02*
X44196Y256032D01*
X44196Y192024D02*
X25908Y173736D01*
X25908Y92964D01*
X56388Y62484D01*
X115824Y62484D01*
X123444Y70104D01*
X123444Y126492D01*
X134112Y137160D01*
X134112Y140208D01*
X44196Y256032D02*
X45500Y257500D01*
X134160Y141180D02*
X134112Y140208D01*
X44196Y301752D02*
X38100Y301752D01*
X19812Y283464D01*
X19812Y74676D01*
X56388Y38100D01*
X91440Y38100D01*
X100584Y47244D01*
X100584Y51816D01*
X108204Y59436D01*
X117348Y59436D01*
X126492Y68580D01*
X126492Y120396D01*
X141732Y135636D01*
X141732Y140208D01*
X45500Y302500D02*
X44196Y301752D01*
X142160Y141180D02*
X141732Y140208D01*
X146304Y268224D02*
X85344Y268224D01*
X146304Y268224D02*
X166116Y288036D01*
X196596Y288036D01*
X231648Y252984D01*
X231648Y213360D01*
X198120Y179832D01*
X198120Y176784D01*
X193548Y172212D01*
X188976Y172212D01*
X85344Y268224D02*
X84500Y267500D01*
X188976Y172212D02*
X188660Y171680D01*
X57912Y272796D02*
X45720Y272796D01*
X57912Y272796D02*
X77724Y252984D01*
X135636Y252984D01*
X167640Y284988D01*
X195072Y284988D01*
X228600Y251460D01*
X228600Y214884D01*
X193548Y179832D01*
X188976Y179832D01*
X45720Y272796D02*
X45500Y272500D01*
X188660Y179680D02*
X188976Y179832D01*
X190500Y368808D02*
X199644Y368808D01*
X190500Y368808D02*
X172212Y387096D01*
X172212Y391668D01*
X166116Y397764D01*
X82296Y397764D01*
X71628Y387096D01*
X71628Y382524D01*
X65532Y376428D01*
X45720Y376428D01*
X28956Y359664D01*
X28956Y330708D01*
X53340Y306324D01*
X53340Y294132D01*
X51816Y292608D01*
X45720Y292608D01*
X200000Y367500D02*
X199644Y368808D01*
X45720Y292608D02*
X45500Y292500D01*
X201168Y341376D02*
X201168Y352044D01*
X201168Y341376D02*
X208788Y333756D01*
X201168Y352044D02*
X200000Y352500D01*
X208788Y333756D02*
X210000Y333500D01*
M02*
