G04 EAGLE Gerber RS-274X export*
G75*
%MOMM*%
%FSLAX34Y34*%
%LPD*%
%INTop Copper*%
%IPPOS*%
%AMOC8*
5,1,8,0,0,1.08239X$1,22.5*%
G01*
%ADD10R,1.100000X1.000000*%
%ADD11R,1.000000X1.100000*%
%ADD12P,1.649562X8X202.500000*%
%ADD13R,0.800000X0.800000*%
%ADD14R,1.600000X1.050000*%
%ADD15C,1.508000*%
%ADD16R,0.500000X1.200000*%
%ADD17R,1.200000X0.500000*%
%ADD18C,1.308000*%
%ADD19R,0.858000X0.858000*%
%ADD20P,1.649562X8X22.500000*%
%ADD21C,0.279400*%
%ADD22C,0.756400*%

G36*
X310844Y10930D02*
X310844Y10930D01*
X310890Y10928D01*
X310965Y10950D01*
X311042Y10962D01*
X311082Y10984D01*
X311126Y10997D01*
X311190Y11041D01*
X311259Y11078D01*
X311291Y11111D01*
X311328Y11137D01*
X311375Y11200D01*
X311428Y11256D01*
X311448Y11298D01*
X311475Y11334D01*
X311499Y11408D01*
X311532Y11479D01*
X311537Y11525D01*
X311551Y11568D01*
X311550Y11646D01*
X311559Y11723D01*
X311549Y11768D01*
X311549Y11814D01*
X311511Y11946D01*
X311507Y11964D01*
X311504Y11968D01*
X311502Y11975D01*
X309839Y15990D01*
X309839Y24010D01*
X312909Y31420D01*
X318580Y37091D01*
X325990Y40161D01*
X334010Y40161D01*
X338025Y38498D01*
X338069Y38487D01*
X338111Y38468D01*
X338188Y38459D01*
X338264Y38442D01*
X338310Y38446D01*
X338355Y38441D01*
X338432Y38457D01*
X338509Y38465D01*
X338551Y38483D01*
X338596Y38493D01*
X338663Y38533D01*
X338734Y38565D01*
X338768Y38596D01*
X338807Y38619D01*
X338858Y38678D01*
X338915Y38731D01*
X338937Y38771D01*
X338967Y38806D01*
X338996Y38879D01*
X339033Y38947D01*
X339042Y38992D01*
X339059Y39034D01*
X339074Y39170D01*
X339077Y39189D01*
X339076Y39194D01*
X339077Y39201D01*
X339077Y193108D01*
X339066Y193178D01*
X339064Y193250D01*
X339046Y193299D01*
X339038Y193350D01*
X339004Y193414D01*
X338979Y193481D01*
X338947Y193522D01*
X338922Y193568D01*
X338870Y193617D01*
X338826Y193673D01*
X338782Y193701D01*
X338744Y193737D01*
X338679Y193767D01*
X338619Y193806D01*
X338568Y193819D01*
X338521Y193841D01*
X338450Y193849D01*
X338380Y193866D01*
X338328Y193862D01*
X338277Y193868D01*
X338206Y193852D01*
X338135Y193847D01*
X338087Y193827D01*
X338036Y193815D01*
X337975Y193779D01*
X337909Y193751D01*
X337853Y193706D01*
X337825Y193689D01*
X337810Y193672D01*
X337778Y193646D01*
X326852Y182720D01*
X326806Y182657D01*
X326783Y182632D01*
X326773Y182611D01*
X326714Y182531D01*
X326712Y182525D01*
X326708Y182520D01*
X326674Y182409D01*
X326637Y182297D01*
X326637Y182291D01*
X326636Y182285D01*
X326639Y182168D01*
X326640Y182051D01*
X326642Y182044D01*
X326642Y182039D01*
X326648Y182021D01*
X326687Y181890D01*
X327965Y178804D01*
X327965Y175596D01*
X326737Y172632D01*
X324468Y170363D01*
X321504Y169135D01*
X305216Y169135D01*
X302252Y170363D01*
X299983Y172632D01*
X298755Y175596D01*
X298755Y178804D01*
X299983Y181768D01*
X302252Y184037D01*
X305216Y185265D01*
X320817Y185265D01*
X320908Y185279D01*
X320998Y185287D01*
X321028Y185299D01*
X321060Y185304D01*
X321141Y185347D01*
X321225Y185383D01*
X321257Y185409D01*
X321278Y185420D01*
X321300Y185443D01*
X321356Y185488D01*
X331855Y195987D01*
X331908Y196061D01*
X331968Y196131D01*
X331980Y196161D01*
X331999Y196187D01*
X332026Y196274D01*
X332060Y196359D01*
X332064Y196400D01*
X332071Y196422D01*
X332070Y196454D01*
X332078Y196526D01*
X332078Y218609D01*
X332067Y218679D01*
X332065Y218751D01*
X332047Y218800D01*
X332039Y218851D01*
X332005Y218914D01*
X331980Y218982D01*
X331948Y219023D01*
X331923Y219069D01*
X331872Y219118D01*
X331827Y219174D01*
X331783Y219202D01*
X331745Y219238D01*
X331680Y219268D01*
X331620Y219307D01*
X331569Y219320D01*
X331522Y219342D01*
X331451Y219350D01*
X331381Y219367D01*
X331329Y219363D01*
X331278Y219369D01*
X331207Y219353D01*
X331136Y219348D01*
X331088Y219328D01*
X331037Y219316D01*
X330976Y219280D01*
X330910Y219252D01*
X330854Y219207D01*
X330826Y219190D01*
X330811Y219173D01*
X330779Y219147D01*
X328030Y216398D01*
X327977Y216324D01*
X327917Y216254D01*
X327905Y216224D01*
X327886Y216198D01*
X327859Y216111D01*
X327825Y216026D01*
X327821Y215985D01*
X327814Y215963D01*
X327815Y215931D01*
X327807Y215859D01*
X327807Y212802D01*
X325712Y210707D01*
X325700Y210691D01*
X325685Y210678D01*
X325628Y210591D01*
X325568Y210507D01*
X325562Y210488D01*
X325552Y210471D01*
X325526Y210371D01*
X325496Y210272D01*
X325496Y210252D01*
X325491Y210233D01*
X325500Y210130D01*
X325502Y210026D01*
X325509Y210007D01*
X325511Y209988D01*
X325551Y209893D01*
X325587Y209795D01*
X325599Y209780D01*
X325607Y209761D01*
X325712Y209630D01*
X326953Y208389D01*
X327947Y206901D01*
X328632Y205249D01*
X328856Y204123D01*
X314883Y204123D01*
X314883Y211681D01*
X316477Y211681D01*
X316548Y211692D01*
X316619Y211694D01*
X316668Y211712D01*
X316719Y211720D01*
X316783Y211754D01*
X316850Y211779D01*
X316891Y211811D01*
X316937Y211836D01*
X316986Y211888D01*
X317042Y211932D01*
X317070Y211976D01*
X317106Y212014D01*
X317136Y212079D01*
X317175Y212139D01*
X317188Y212190D01*
X317210Y212237D01*
X317218Y212308D01*
X317235Y212378D01*
X317231Y212430D01*
X317237Y212481D01*
X317222Y212552D01*
X317216Y212623D01*
X317196Y212671D01*
X317193Y212682D01*
X317193Y217198D01*
X318631Y218636D01*
X318673Y218694D01*
X318722Y218746D01*
X318744Y218793D01*
X318774Y218835D01*
X318796Y218904D01*
X318826Y218969D01*
X318831Y219021D01*
X318847Y219071D01*
X318845Y219142D01*
X318853Y219213D01*
X318842Y219264D01*
X318840Y219316D01*
X318816Y219384D01*
X318801Y219454D01*
X318774Y219499D01*
X318756Y219547D01*
X318711Y219603D01*
X318674Y219665D01*
X318635Y219699D01*
X318602Y219739D01*
X318542Y219778D01*
X318487Y219825D01*
X318439Y219844D01*
X318395Y219872D01*
X318326Y219890D01*
X318259Y219917D01*
X318188Y219925D01*
X318157Y219933D01*
X318134Y219931D01*
X318093Y219935D01*
X305216Y219935D01*
X302252Y221163D01*
X299983Y223432D01*
X298755Y226396D01*
X298755Y229604D01*
X299983Y232568D01*
X302252Y234837D01*
X305216Y236065D01*
X321504Y236065D01*
X324468Y234837D01*
X325779Y233526D01*
X325837Y233485D01*
X325889Y233435D01*
X325936Y233413D01*
X325978Y233383D01*
X326047Y233362D01*
X326112Y233332D01*
X326164Y233326D01*
X326214Y233311D01*
X326285Y233312D01*
X326356Y233305D01*
X326407Y233316D01*
X326459Y233317D01*
X326527Y233342D01*
X326597Y233357D01*
X326642Y233384D01*
X326690Y233401D01*
X326746Y233446D01*
X326808Y233483D01*
X326842Y233523D01*
X326882Y233555D01*
X326921Y233615D01*
X326968Y233670D01*
X326987Y233718D01*
X327015Y233762D01*
X327033Y233831D01*
X327060Y233898D01*
X327068Y233969D01*
X327076Y234001D01*
X327074Y234024D01*
X327078Y234065D01*
X327078Y235974D01*
X327064Y236065D01*
X327056Y236155D01*
X327044Y236185D01*
X327039Y236217D01*
X326996Y236298D01*
X326960Y236382D01*
X326934Y236414D01*
X326923Y236435D01*
X326900Y236457D01*
X326855Y236513D01*
X318256Y245112D01*
X318182Y245165D01*
X318112Y245225D01*
X318082Y245237D01*
X318056Y245256D01*
X317969Y245283D01*
X317884Y245317D01*
X317843Y245321D01*
X317821Y245328D01*
X317789Y245327D01*
X317717Y245335D01*
X305216Y245335D01*
X302252Y246563D01*
X299983Y248832D01*
X298755Y251796D01*
X298755Y255004D01*
X299983Y257968D01*
X302252Y260237D01*
X305216Y261465D01*
X321504Y261465D01*
X324468Y260237D01*
X326737Y257968D01*
X327965Y255004D01*
X327965Y251796D01*
X326737Y248832D01*
X325307Y247402D01*
X325295Y247385D01*
X325280Y247373D01*
X325224Y247286D01*
X325163Y247202D01*
X325157Y247183D01*
X325147Y247166D01*
X325121Y247066D01*
X325091Y246967D01*
X325091Y246947D01*
X325087Y246928D01*
X325095Y246825D01*
X325097Y246721D01*
X325104Y246702D01*
X325106Y246682D01*
X325146Y246588D01*
X325182Y246490D01*
X325194Y246474D01*
X325202Y246456D01*
X325307Y246325D01*
X330779Y240853D01*
X330837Y240811D01*
X330889Y240762D01*
X330936Y240740D01*
X330978Y240710D01*
X331047Y240689D01*
X331112Y240658D01*
X331164Y240653D01*
X331214Y240637D01*
X331285Y240639D01*
X331356Y240631D01*
X331407Y240642D01*
X331459Y240644D01*
X331527Y240668D01*
X331597Y240684D01*
X331641Y240710D01*
X331690Y240728D01*
X331746Y240773D01*
X331808Y240810D01*
X331842Y240849D01*
X331882Y240882D01*
X331921Y240942D01*
X331968Y240997D01*
X331987Y241045D01*
X332015Y241089D01*
X332033Y241158D01*
X332060Y241225D01*
X332068Y241296D01*
X332076Y241327D01*
X332074Y241351D01*
X332078Y241391D01*
X332078Y348474D01*
X332064Y348565D01*
X332056Y348655D01*
X332044Y348685D01*
X332039Y348717D01*
X331996Y348798D01*
X331960Y348882D01*
X331934Y348914D01*
X331923Y348935D01*
X331900Y348957D01*
X331855Y349013D01*
X321672Y359196D01*
X321652Y359210D01*
X321637Y359229D01*
X321552Y359282D01*
X321472Y359340D01*
X321449Y359347D01*
X321428Y359360D01*
X321332Y359383D01*
X321237Y359412D01*
X321213Y359412D01*
X321189Y359417D01*
X321090Y359409D01*
X320991Y359406D01*
X320968Y359398D01*
X320944Y359396D01*
X320853Y359356D01*
X320760Y359322D01*
X320741Y359306D01*
X320719Y359297D01*
X320646Y359230D01*
X320568Y359168D01*
X320555Y359148D01*
X320537Y359131D01*
X320489Y359045D01*
X320435Y358961D01*
X320429Y358937D01*
X320417Y358917D01*
X320399Y358819D01*
X320375Y358722D01*
X320377Y358698D01*
X320372Y358675D01*
X320386Y358576D01*
X320394Y358477D01*
X320403Y358455D01*
X320407Y358431D01*
X320474Y358278D01*
X320578Y358098D01*
X322361Y351444D01*
X322361Y344556D01*
X320578Y337902D01*
X317134Y331937D01*
X312263Y327066D01*
X306298Y323622D01*
X299644Y321839D01*
X292756Y321839D01*
X286102Y323622D01*
X280137Y327066D01*
X275266Y331937D01*
X271822Y337902D01*
X270039Y344556D01*
X270039Y351444D01*
X271822Y358098D01*
X275266Y364063D01*
X280137Y368934D01*
X286102Y372378D01*
X292756Y374161D01*
X299644Y374161D01*
X306298Y372378D01*
X306478Y372274D01*
X306500Y372266D01*
X306520Y372252D01*
X306614Y372222D01*
X306708Y372187D01*
X306732Y372186D01*
X306755Y372179D01*
X306854Y372182D01*
X306953Y372178D01*
X306977Y372185D01*
X307001Y372186D01*
X307094Y372220D01*
X307189Y372248D01*
X307209Y372262D01*
X307232Y372270D01*
X307309Y372332D01*
X307391Y372389D01*
X307405Y372409D01*
X307424Y372424D01*
X307477Y372507D01*
X307536Y372587D01*
X307544Y372610D01*
X307557Y372631D01*
X307581Y372727D01*
X307611Y372822D01*
X307611Y372846D01*
X307617Y372869D01*
X307609Y372968D01*
X307607Y373068D01*
X307599Y373090D01*
X307598Y373114D01*
X307559Y373205D01*
X307526Y373300D01*
X307511Y373319D01*
X307501Y373341D01*
X307396Y373472D01*
X256513Y424355D01*
X256439Y424408D01*
X256369Y424468D01*
X256339Y424480D01*
X256313Y424499D01*
X256226Y424526D01*
X256141Y424560D01*
X256100Y424564D01*
X256078Y424571D01*
X256046Y424570D01*
X255974Y424578D01*
X136526Y424578D01*
X136435Y424564D01*
X136345Y424556D01*
X136315Y424544D01*
X136283Y424539D01*
X136202Y424496D01*
X136118Y424460D01*
X136086Y424434D01*
X136065Y424423D01*
X136043Y424400D01*
X135987Y424355D01*
X133976Y422344D01*
X133934Y422286D01*
X133885Y422234D01*
X133863Y422187D01*
X133833Y422145D01*
X133812Y422076D01*
X133781Y422011D01*
X133776Y421959D01*
X133760Y421909D01*
X133762Y421838D01*
X133754Y421767D01*
X133765Y421716D01*
X133767Y421664D01*
X133791Y421596D01*
X133807Y421526D01*
X133833Y421481D01*
X133851Y421433D01*
X133896Y421377D01*
X133933Y421315D01*
X133972Y421281D01*
X134005Y421241D01*
X134065Y421202D01*
X134120Y421155D01*
X134168Y421136D01*
X134212Y421108D01*
X134281Y421090D01*
X134348Y421063D01*
X134419Y421055D01*
X134450Y421047D01*
X134474Y421049D01*
X134514Y421045D01*
X140488Y421045D01*
X145845Y415688D01*
X145845Y408112D01*
X140488Y402755D01*
X132910Y402755D01*
X132909Y402757D01*
X132822Y402813D01*
X132738Y402873D01*
X132719Y402879D01*
X132702Y402890D01*
X132602Y402915D01*
X132503Y402945D01*
X132483Y402945D01*
X132464Y402950D01*
X132361Y402942D01*
X132257Y402939D01*
X132238Y402932D01*
X132219Y402931D01*
X132124Y402890D01*
X132026Y402855D01*
X132011Y402842D01*
X131992Y402834D01*
X131861Y402729D01*
X128145Y399013D01*
X128092Y398939D01*
X128032Y398869D01*
X128020Y398839D01*
X128001Y398813D01*
X127974Y398726D01*
X127940Y398641D01*
X127936Y398600D01*
X127929Y398578D01*
X127930Y398546D01*
X127922Y398474D01*
X127922Y392492D01*
X127933Y392421D01*
X127935Y392350D01*
X127953Y392301D01*
X127961Y392249D01*
X127995Y392186D01*
X128020Y392119D01*
X128052Y392078D01*
X128077Y392032D01*
X128129Y391983D01*
X128173Y391927D01*
X128217Y391898D01*
X128255Y391863D01*
X128320Y391832D01*
X128380Y391794D01*
X128431Y391781D01*
X128478Y391759D01*
X128549Y391751D01*
X128619Y391734D01*
X128671Y391738D01*
X128722Y391732D01*
X128793Y391747D01*
X128864Y391753D01*
X128912Y391773D01*
X128963Y391784D01*
X129024Y391821D01*
X129090Y391849D01*
X129146Y391894D01*
X129174Y391910D01*
X129189Y391928D01*
X129221Y391954D01*
X132912Y395645D01*
X140488Y395645D01*
X145845Y390288D01*
X145845Y382712D01*
X140488Y377355D01*
X132912Y377355D01*
X127738Y382529D01*
X127722Y382541D01*
X127709Y382557D01*
X127622Y382613D01*
X127538Y382673D01*
X127519Y382679D01*
X127502Y382690D01*
X127402Y382715D01*
X127303Y382745D01*
X127283Y382745D01*
X127264Y382750D01*
X127161Y382742D01*
X127057Y382739D01*
X127038Y382732D01*
X127019Y382731D01*
X126924Y382690D01*
X126826Y382655D01*
X126811Y382642D01*
X126792Y382634D01*
X126661Y382529D01*
X125987Y381855D01*
X109568Y365436D01*
X109525Y365376D01*
X109483Y365332D01*
X109476Y365316D01*
X109455Y365292D01*
X109443Y365262D01*
X109424Y365236D01*
X109397Y365149D01*
X109394Y365140D01*
X109379Y365109D01*
X109379Y365103D01*
X109363Y365064D01*
X109359Y365023D01*
X109352Y365001D01*
X109353Y364969D01*
X109345Y364897D01*
X109345Y356698D01*
X108353Y355707D01*
X108338Y355686D01*
X108318Y355669D01*
X108266Y355586D01*
X108210Y355507D01*
X108202Y355482D01*
X108188Y355460D01*
X108166Y355365D01*
X108137Y355272D01*
X108138Y355246D01*
X108132Y355221D01*
X108141Y355124D01*
X108144Y355026D01*
X108152Y355002D01*
X108155Y354976D01*
X108194Y354887D01*
X108228Y354795D01*
X108244Y354775D01*
X108255Y354751D01*
X108321Y354679D01*
X108382Y354603D01*
X108403Y354589D01*
X108421Y354570D01*
X108506Y354523D01*
X108589Y354470D01*
X108614Y354464D01*
X108636Y354451D01*
X108800Y354413D01*
X113925Y353790D01*
X119596Y349876D01*
X122798Y343775D01*
X122798Y336885D01*
X119596Y330784D01*
X113925Y326870D01*
X110081Y326403D01*
X110056Y326396D01*
X110030Y326395D01*
X109938Y326361D01*
X109845Y326334D01*
X109823Y326319D01*
X109799Y326310D01*
X109723Y326249D01*
X109643Y326194D01*
X109627Y326173D01*
X109607Y326157D01*
X109554Y326075D01*
X109496Y325996D01*
X109488Y325972D01*
X109474Y325950D01*
X109450Y325855D01*
X109420Y325762D01*
X109420Y325736D01*
X109414Y325711D01*
X109422Y325614D01*
X109423Y325516D01*
X109431Y325492D01*
X109433Y325466D01*
X109471Y325376D01*
X109504Y325284D01*
X109519Y325264D01*
X109530Y325240D01*
X109634Y325109D01*
X109853Y324890D01*
X110188Y324311D01*
X110361Y323664D01*
X110361Y319603D01*
X101343Y319603D01*
X101343Y325871D01*
X103374Y325871D01*
X103482Y325888D01*
X103590Y325902D01*
X103603Y325908D01*
X103617Y325910D01*
X103713Y325961D01*
X103811Y326009D01*
X103822Y326019D01*
X103835Y326026D01*
X103909Y326104D01*
X103987Y326180D01*
X103994Y326193D01*
X104004Y326204D01*
X104050Y326303D01*
X104099Y326399D01*
X104101Y326414D01*
X104108Y326427D01*
X104120Y326535D01*
X104136Y326643D01*
X104133Y326657D01*
X104135Y326671D01*
X104112Y326778D01*
X104093Y326885D01*
X104086Y326898D01*
X104082Y326912D01*
X104027Y327005D01*
X103974Y327101D01*
X103964Y327110D01*
X103956Y327123D01*
X103874Y327194D01*
X103794Y327267D01*
X103778Y327275D01*
X103769Y327283D01*
X103742Y327294D01*
X103644Y327344D01*
X100642Y328482D01*
X100186Y328997D01*
X100111Y329059D01*
X100040Y329125D01*
X100016Y329136D01*
X99995Y329153D01*
X99904Y329187D01*
X99816Y329227D01*
X99790Y329230D01*
X99765Y329239D01*
X99668Y329242D01*
X99571Y329252D01*
X99546Y329247D01*
X99519Y329248D01*
X99426Y329220D01*
X99331Y329198D01*
X99302Y329183D01*
X99283Y329177D01*
X99257Y329158D01*
X99184Y329119D01*
X96488Y327258D01*
X96476Y327246D01*
X96461Y327238D01*
X96388Y327162D01*
X96311Y327088D01*
X96303Y327073D01*
X96291Y327060D01*
X96247Y326964D01*
X96198Y326870D01*
X96195Y326853D01*
X96188Y326837D01*
X96176Y326731D01*
X96160Y326627D01*
X96162Y326610D01*
X96161Y326593D01*
X96183Y326489D01*
X96201Y326384D01*
X96209Y326369D01*
X96213Y326352D01*
X96267Y326261D01*
X96318Y326168D01*
X96330Y326156D01*
X96339Y326141D01*
X96420Y326072D01*
X96497Y326000D01*
X96513Y325992D01*
X96526Y325981D01*
X96625Y325941D01*
X96721Y325897D01*
X96738Y325896D01*
X96754Y325889D01*
X96921Y325871D01*
X98297Y325871D01*
X98297Y319603D01*
X89279Y319603D01*
X89279Y323664D01*
X89452Y324311D01*
X89791Y324897D01*
X89797Y324914D01*
X89808Y324929D01*
X89841Y325029D01*
X89878Y325127D01*
X89879Y325145D01*
X89884Y325163D01*
X89883Y325268D01*
X89887Y325373D01*
X89882Y325391D01*
X89882Y325409D01*
X89847Y325508D01*
X89817Y325609D01*
X89807Y325624D01*
X89801Y325641D01*
X89736Y325724D01*
X89676Y325810D01*
X89661Y325821D01*
X89650Y325835D01*
X89562Y325894D01*
X89478Y325956D01*
X89461Y325961D01*
X89445Y325972D01*
X89344Y325999D01*
X89243Y326031D01*
X89225Y326031D01*
X89208Y326035D01*
X89098Y326034D01*
X82642Y328482D01*
X78800Y332819D01*
X78786Y332831D01*
X78775Y332846D01*
X78691Y332908D01*
X78610Y332974D01*
X78592Y332981D01*
X78576Y332992D01*
X78477Y333024D01*
X78379Y333061D01*
X78360Y333061D01*
X78342Y333067D01*
X78238Y333066D01*
X78134Y333069D01*
X78115Y333064D01*
X78096Y333063D01*
X77998Y333029D01*
X77898Y332999D01*
X77882Y332988D01*
X77864Y332981D01*
X77782Y332917D01*
X77697Y332857D01*
X77686Y332842D01*
X77671Y332830D01*
X77571Y332695D01*
X77134Y331937D01*
X72263Y327066D01*
X66298Y323622D01*
X59644Y321839D01*
X52756Y321839D01*
X48037Y323104D01*
X47989Y323108D01*
X47944Y323123D01*
X47868Y323121D01*
X47792Y323128D01*
X47746Y323117D01*
X47698Y323116D01*
X47627Y323090D01*
X47553Y323073D01*
X47512Y323048D01*
X47467Y323032D01*
X47408Y322984D01*
X47343Y322945D01*
X47312Y322908D01*
X47275Y322878D01*
X47234Y322814D01*
X47185Y322756D01*
X47168Y322711D01*
X47142Y322671D01*
X47123Y322598D01*
X47096Y322527D01*
X47093Y322479D01*
X47082Y322433D01*
X47088Y322357D01*
X47084Y322281D01*
X47097Y322235D01*
X47101Y322187D01*
X47130Y322118D01*
X47151Y322045D01*
X47178Y322005D01*
X47197Y321961D01*
X47278Y321860D01*
X47290Y321842D01*
X47296Y321838D01*
X47302Y321830D01*
X49554Y319578D01*
X49628Y319525D01*
X49698Y319465D01*
X49728Y319453D01*
X49754Y319434D01*
X49841Y319407D01*
X49926Y319373D01*
X49967Y319369D01*
X49989Y319362D01*
X50021Y319363D01*
X50093Y319355D01*
X59692Y319355D01*
X60585Y318462D01*
X60585Y307198D01*
X59692Y306305D01*
X50753Y306305D01*
X50662Y306291D01*
X50572Y306283D01*
X50542Y306271D01*
X50510Y306266D01*
X50429Y306223D01*
X50345Y306187D01*
X50313Y306161D01*
X50292Y306150D01*
X50277Y306134D01*
X50275Y306133D01*
X50267Y306124D01*
X50214Y306082D01*
X48145Y304013D01*
X48092Y303939D01*
X48032Y303869D01*
X48020Y303839D01*
X48001Y303813D01*
X47974Y303726D01*
X47940Y303641D01*
X47936Y303600D01*
X47929Y303578D01*
X47930Y303546D01*
X47922Y303474D01*
X47922Y303116D01*
X47925Y303096D01*
X47923Y303077D01*
X47945Y302975D01*
X47961Y302873D01*
X47971Y302856D01*
X47975Y302836D01*
X48028Y302747D01*
X48077Y302656D01*
X48091Y302642D01*
X48101Y302625D01*
X48180Y302558D01*
X48255Y302486D01*
X48273Y302478D01*
X48288Y302465D01*
X48384Y302426D01*
X48478Y302383D01*
X48498Y302381D01*
X48516Y302373D01*
X48683Y302355D01*
X59692Y302355D01*
X60585Y301462D01*
X60585Y301183D01*
X60588Y301163D01*
X60586Y301144D01*
X60608Y301042D01*
X60624Y300940D01*
X60634Y300923D01*
X60638Y300903D01*
X60691Y300814D01*
X60740Y300723D01*
X60754Y300709D01*
X60764Y300692D01*
X60843Y300625D01*
X60918Y300553D01*
X60936Y300545D01*
X60951Y300532D01*
X61047Y300493D01*
X61141Y300450D01*
X61161Y300448D01*
X61179Y300440D01*
X61346Y300422D01*
X180974Y300422D01*
X181065Y300436D01*
X181155Y300444D01*
X181185Y300456D01*
X181217Y300461D01*
X181298Y300504D01*
X181382Y300540D01*
X181414Y300566D01*
X181435Y300577D01*
X181457Y300600D01*
X181513Y300645D01*
X188528Y307660D01*
X188570Y307718D01*
X188619Y307770D01*
X188641Y307817D01*
X188671Y307859D01*
X188692Y307928D01*
X188723Y307993D01*
X188728Y308045D01*
X188744Y308095D01*
X188742Y308166D01*
X188750Y308237D01*
X188739Y308288D01*
X188737Y308340D01*
X188713Y308408D01*
X188697Y308478D01*
X188671Y308523D01*
X188653Y308571D01*
X188608Y308627D01*
X188571Y308689D01*
X188532Y308723D01*
X188499Y308763D01*
X188439Y308802D01*
X188384Y308849D01*
X188336Y308868D01*
X188292Y308896D01*
X188223Y308914D01*
X188156Y308941D01*
X188085Y308949D01*
X188054Y308957D01*
X188030Y308955D01*
X187990Y308959D01*
X186523Y308959D01*
X186523Y315738D01*
X186520Y315758D01*
X186522Y315777D01*
X186500Y315879D01*
X186483Y315981D01*
X186474Y315998D01*
X186470Y316018D01*
X186417Y316107D01*
X186368Y316198D01*
X186354Y316212D01*
X186344Y316229D01*
X186265Y316296D01*
X186190Y316367D01*
X186172Y316376D01*
X186157Y316389D01*
X186061Y316428D01*
X185967Y316471D01*
X185947Y316473D01*
X185929Y316481D01*
X185762Y316499D01*
X184999Y316499D01*
X184999Y316501D01*
X185762Y316501D01*
X185782Y316504D01*
X185801Y316502D01*
X185903Y316524D01*
X186005Y316541D01*
X186022Y316550D01*
X186042Y316554D01*
X186131Y316607D01*
X186222Y316656D01*
X186236Y316670D01*
X186253Y316680D01*
X186320Y316759D01*
X186391Y316834D01*
X186400Y316852D01*
X186413Y316867D01*
X186452Y316963D01*
X186495Y317057D01*
X186497Y317077D01*
X186505Y317095D01*
X186523Y317262D01*
X186523Y324041D01*
X190835Y324041D01*
X191120Y323964D01*
X191238Y323952D01*
X191356Y323939D01*
X191361Y323940D01*
X191365Y323940D01*
X191480Y323966D01*
X191597Y323992D01*
X191600Y323994D01*
X191604Y323995D01*
X191707Y324057D01*
X191808Y324118D01*
X191811Y324121D01*
X191814Y324123D01*
X191890Y324214D01*
X191968Y324305D01*
X191969Y324309D01*
X191972Y324312D01*
X192015Y324422D01*
X192060Y324533D01*
X192060Y324538D01*
X192062Y324541D01*
X192062Y324554D01*
X192078Y324700D01*
X192078Y326214D01*
X192075Y326234D01*
X192077Y326253D01*
X192055Y326355D01*
X192039Y326457D01*
X192029Y326474D01*
X192025Y326494D01*
X191972Y326583D01*
X191923Y326674D01*
X191909Y326688D01*
X191899Y326705D01*
X191820Y326772D01*
X191745Y326844D01*
X191727Y326852D01*
X191712Y326865D01*
X191616Y326904D01*
X191522Y326947D01*
X191502Y326949D01*
X191484Y326957D01*
X191317Y326975D01*
X178868Y326975D01*
X177975Y327868D01*
X177975Y337577D01*
X177961Y337668D01*
X177953Y337758D01*
X177941Y337788D01*
X177936Y337820D01*
X177893Y337901D01*
X177857Y337985D01*
X177831Y338017D01*
X177820Y338038D01*
X177797Y338060D01*
X177752Y338116D01*
X177078Y338790D01*
X177078Y346214D01*
X177075Y346234D01*
X177077Y346253D01*
X177055Y346355D01*
X177039Y346457D01*
X177029Y346474D01*
X177025Y346494D01*
X176972Y346583D01*
X176923Y346674D01*
X176909Y346688D01*
X176899Y346705D01*
X176820Y346772D01*
X176745Y346844D01*
X176727Y346852D01*
X176712Y346865D01*
X176616Y346904D01*
X176522Y346947D01*
X176502Y346949D01*
X176484Y346957D01*
X176317Y346975D01*
X175368Y346975D01*
X174475Y347868D01*
X174475Y357132D01*
X175368Y358025D01*
X183506Y358025D01*
X183576Y358036D01*
X183648Y358038D01*
X183697Y358056D01*
X183748Y358064D01*
X183811Y358098D01*
X183879Y358123D01*
X183920Y358155D01*
X183966Y358180D01*
X184015Y358231D01*
X184071Y358276D01*
X184099Y358320D01*
X184135Y358358D01*
X184165Y358423D01*
X184204Y358483D01*
X184217Y358534D01*
X184239Y358581D01*
X184247Y358652D01*
X184264Y358722D01*
X184260Y358774D01*
X184266Y358825D01*
X184250Y358896D01*
X184245Y358967D01*
X184225Y359015D01*
X184213Y359066D01*
X184177Y359127D01*
X184149Y359193D01*
X184104Y359249D01*
X184087Y359277D01*
X184070Y359292D01*
X184059Y359305D01*
X184044Y359324D01*
X181616Y361752D01*
X181542Y361805D01*
X181472Y361865D01*
X181442Y361877D01*
X181416Y361896D01*
X181329Y361923D01*
X181244Y361957D01*
X181203Y361961D01*
X181181Y361968D01*
X181149Y361967D01*
X181077Y361975D01*
X175368Y361975D01*
X174475Y362868D01*
X174475Y368577D01*
X174461Y368668D01*
X174453Y368758D01*
X174441Y368788D01*
X174436Y368820D01*
X174393Y368901D01*
X174357Y368985D01*
X174331Y369017D01*
X174320Y369038D01*
X174297Y369060D01*
X174252Y369116D01*
X166236Y377132D01*
X166162Y377185D01*
X166092Y377245D01*
X166062Y377257D01*
X166036Y377276D01*
X165949Y377303D01*
X165864Y377337D01*
X165823Y377341D01*
X165801Y377348D01*
X165769Y377347D01*
X165697Y377355D01*
X158312Y377355D01*
X152955Y382712D01*
X152955Y390288D01*
X158312Y395645D01*
X165888Y395645D01*
X171245Y390288D01*
X171245Y382712D01*
X170621Y382088D01*
X170609Y382072D01*
X170593Y382059D01*
X170537Y381972D01*
X170477Y381888D01*
X170471Y381869D01*
X170460Y381852D01*
X170435Y381752D01*
X170405Y381653D01*
X170405Y381633D01*
X170400Y381614D01*
X170408Y381511D01*
X170411Y381407D01*
X170418Y381389D01*
X170419Y381369D01*
X170460Y381274D01*
X170495Y381176D01*
X170508Y381161D01*
X170516Y381142D01*
X170621Y381011D01*
X178384Y373248D01*
X178458Y373195D01*
X178528Y373135D01*
X178558Y373123D01*
X178584Y373104D01*
X178671Y373077D01*
X178756Y373043D01*
X178797Y373039D01*
X178819Y373032D01*
X178851Y373033D01*
X178923Y373025D01*
X184632Y373025D01*
X185525Y372132D01*
X185525Y366423D01*
X185528Y366404D01*
X185526Y366387D01*
X185541Y366319D01*
X185547Y366242D01*
X185559Y366212D01*
X185564Y366180D01*
X185575Y366159D01*
X185578Y366147D01*
X185609Y366095D01*
X185643Y366015D01*
X185669Y365983D01*
X185680Y365962D01*
X185699Y365943D01*
X185704Y365936D01*
X185712Y365929D01*
X185748Y365884D01*
X195987Y355645D01*
X197922Y353710D01*
X197922Y308790D01*
X185645Y296513D01*
X184746Y295614D01*
X184704Y295556D01*
X184655Y295504D01*
X184633Y295457D01*
X184603Y295415D01*
X184582Y295346D01*
X184551Y295281D01*
X184546Y295229D01*
X184530Y295179D01*
X184532Y295108D01*
X184524Y295037D01*
X184535Y294986D01*
X184537Y294934D01*
X184561Y294866D01*
X184577Y294796D01*
X184603Y294751D01*
X184621Y294703D01*
X184666Y294647D01*
X184703Y294585D01*
X184742Y294551D01*
X184775Y294511D01*
X184835Y294472D01*
X184890Y294425D01*
X184938Y294406D01*
X184982Y294378D01*
X185051Y294360D01*
X185118Y294333D01*
X185189Y294325D01*
X185220Y294317D01*
X185244Y294319D01*
X185284Y294315D01*
X193822Y294315D01*
X194712Y293425D01*
X194728Y293413D01*
X194740Y293397D01*
X194828Y293341D01*
X194911Y293281D01*
X194930Y293275D01*
X194947Y293264D01*
X195048Y293239D01*
X195147Y293209D01*
X195166Y293209D01*
X195186Y293204D01*
X195289Y293212D01*
X195392Y293215D01*
X195411Y293222D01*
X195431Y293223D01*
X195526Y293264D01*
X195623Y293299D01*
X195639Y293312D01*
X195657Y293320D01*
X195788Y293425D01*
X196678Y294315D01*
X206522Y294315D01*
X207412Y293425D01*
X207428Y293413D01*
X207440Y293397D01*
X207528Y293341D01*
X207611Y293281D01*
X207630Y293275D01*
X207647Y293264D01*
X207748Y293239D01*
X207847Y293209D01*
X207866Y293209D01*
X207886Y293204D01*
X207989Y293212D01*
X208092Y293215D01*
X208111Y293222D01*
X208131Y293223D01*
X208226Y293264D01*
X208323Y293299D01*
X208339Y293312D01*
X208357Y293320D01*
X208488Y293425D01*
X209355Y294292D01*
X209408Y294366D01*
X209468Y294435D01*
X209480Y294465D01*
X209499Y294491D01*
X209526Y294578D01*
X209560Y294663D01*
X209564Y294704D01*
X209571Y294726D01*
X209570Y294759D01*
X209578Y294830D01*
X209578Y325974D01*
X209564Y326065D01*
X209556Y326155D01*
X209544Y326185D01*
X209539Y326217D01*
X209496Y326298D01*
X209460Y326382D01*
X209434Y326414D01*
X209423Y326435D01*
X209400Y326457D01*
X209355Y326513D01*
X204578Y331290D01*
X204578Y363710D01*
X216406Y375538D01*
X216433Y375575D01*
X216466Y375606D01*
X216504Y375674D01*
X216549Y375738D01*
X216563Y375781D01*
X216585Y375822D01*
X216599Y375898D01*
X216622Y375973D01*
X216621Y376019D01*
X216629Y376064D01*
X216617Y376141D01*
X216615Y376219D01*
X216600Y376262D01*
X216593Y376307D01*
X216558Y376376D01*
X216531Y376450D01*
X216502Y376485D01*
X216481Y376526D01*
X216426Y376581D01*
X216377Y376642D01*
X216339Y376666D01*
X216306Y376699D01*
X216186Y376765D01*
X216170Y376775D01*
X216165Y376776D01*
X216159Y376779D01*
X214865Y377315D01*
X212315Y379865D01*
X210935Y383197D01*
X210935Y386803D01*
X212315Y390135D01*
X214865Y392685D01*
X218197Y394065D01*
X221803Y394065D01*
X225135Y392685D01*
X227685Y390135D01*
X229065Y386803D01*
X229065Y383197D01*
X227685Y379865D01*
X225135Y377315D01*
X224099Y376886D01*
X224016Y376835D01*
X223930Y376789D01*
X223912Y376770D01*
X223890Y376757D01*
X223828Y376682D01*
X223761Y376611D01*
X223750Y376587D01*
X223733Y376567D01*
X223698Y376476D01*
X223657Y376388D01*
X223654Y376362D01*
X223645Y376338D01*
X223641Y376240D01*
X223630Y376144D01*
X223636Y376118D01*
X223635Y376092D01*
X223662Y375998D01*
X223682Y375903D01*
X223696Y375881D01*
X223703Y375856D01*
X223759Y375776D01*
X223809Y375692D01*
X223828Y375675D01*
X223843Y375654D01*
X223921Y375595D01*
X223995Y375532D01*
X224020Y375522D01*
X224041Y375507D01*
X224133Y375477D01*
X224224Y375440D01*
X224256Y375437D01*
X224275Y375431D01*
X224308Y375431D01*
X224390Y375422D01*
X245974Y375422D01*
X246065Y375436D01*
X246155Y375444D01*
X246185Y375456D01*
X246217Y375461D01*
X246298Y375504D01*
X246382Y375540D01*
X246414Y375566D01*
X246435Y375577D01*
X246457Y375600D01*
X246513Y375645D01*
X251492Y380624D01*
X251560Y380719D01*
X251630Y380813D01*
X251632Y380819D01*
X251636Y380824D01*
X251670Y380935D01*
X251706Y381047D01*
X251706Y381053D01*
X251708Y381059D01*
X251705Y381176D01*
X251704Y381293D01*
X251702Y381300D01*
X251702Y381305D01*
X251695Y381322D01*
X251657Y381454D01*
X250935Y383197D01*
X250935Y386803D01*
X252315Y390135D01*
X254865Y392685D01*
X258197Y394065D01*
X261803Y394065D01*
X265135Y392685D01*
X267685Y390135D01*
X269065Y386803D01*
X269065Y383197D01*
X267685Y379865D01*
X265135Y377315D01*
X261803Y375935D01*
X258197Y375935D01*
X256454Y376657D01*
X256340Y376684D01*
X256227Y376713D01*
X256220Y376712D01*
X256214Y376713D01*
X256098Y376702D01*
X255981Y376693D01*
X255976Y376691D01*
X255969Y376690D01*
X255862Y376643D01*
X255755Y376597D01*
X255749Y376592D01*
X255745Y376590D01*
X255731Y376578D01*
X255624Y376492D01*
X248710Y369578D01*
X226310Y369578D01*
X226302Y369577D01*
X226294Y369578D01*
X226180Y369557D01*
X226067Y369539D01*
X226060Y369535D01*
X226052Y369533D01*
X225952Y369477D01*
X225850Y369423D01*
X225844Y369418D01*
X225837Y369414D01*
X225760Y369329D01*
X225680Y369245D01*
X225677Y369238D01*
X225672Y369232D01*
X225625Y369126D01*
X225577Y369022D01*
X225576Y369014D01*
X225573Y369007D01*
X225562Y368892D01*
X225550Y368778D01*
X225551Y368770D01*
X225551Y368762D01*
X225577Y368649D01*
X225602Y368537D01*
X225606Y368530D01*
X225608Y368523D01*
X225669Y368424D01*
X225728Y368326D01*
X225734Y368321D01*
X225738Y368314D01*
X225862Y368201D01*
X226567Y367689D01*
X227689Y366567D01*
X228622Y365283D01*
X229342Y363870D01*
X229833Y362361D01*
X229965Y361523D01*
X220762Y361523D01*
X220742Y361520D01*
X220723Y361522D01*
X220621Y361500D01*
X220519Y361483D01*
X220502Y361474D01*
X220482Y361470D01*
X220393Y361417D01*
X220302Y361368D01*
X220288Y361354D01*
X220271Y361344D01*
X220204Y361265D01*
X220133Y361190D01*
X220124Y361172D01*
X220111Y361157D01*
X220073Y361061D01*
X220029Y360967D01*
X220027Y360947D01*
X220019Y360929D01*
X220001Y360762D01*
X220001Y359999D01*
X219238Y359999D01*
X219218Y359996D01*
X219199Y359998D01*
X219097Y359976D01*
X218995Y359959D01*
X218978Y359950D01*
X218958Y359946D01*
X218869Y359893D01*
X218778Y359844D01*
X218764Y359830D01*
X218747Y359820D01*
X218680Y359741D01*
X218609Y359666D01*
X218600Y359648D01*
X218587Y359633D01*
X218548Y359537D01*
X218505Y359443D01*
X218503Y359423D01*
X218495Y359405D01*
X218477Y359238D01*
X218477Y350035D01*
X217639Y350167D01*
X216130Y350658D01*
X214717Y351378D01*
X213433Y352311D01*
X212311Y353433D01*
X211799Y354138D01*
X211793Y354143D01*
X211789Y354150D01*
X211706Y354229D01*
X211624Y354311D01*
X211617Y354314D01*
X211611Y354320D01*
X211507Y354368D01*
X211403Y354419D01*
X211395Y354420D01*
X211388Y354423D01*
X211274Y354436D01*
X211159Y354451D01*
X211151Y354449D01*
X211144Y354450D01*
X211031Y354426D01*
X210918Y354404D01*
X210911Y354400D01*
X210903Y354398D01*
X210804Y354339D01*
X210704Y354282D01*
X210699Y354276D01*
X210692Y354272D01*
X210617Y354184D01*
X210540Y354098D01*
X210537Y354091D01*
X210532Y354085D01*
X210489Y353978D01*
X210444Y353872D01*
X210443Y353864D01*
X210440Y353857D01*
X210422Y353690D01*
X210422Y339390D01*
X210437Y339294D01*
X210447Y339197D01*
X210457Y339173D01*
X210461Y339148D01*
X210507Y339062D01*
X210547Y338973D01*
X210564Y338953D01*
X210577Y338930D01*
X210647Y338863D01*
X210713Y338791D01*
X210736Y338779D01*
X210755Y338761D01*
X210843Y338720D01*
X210929Y338673D01*
X210954Y338668D01*
X210978Y338657D01*
X211075Y338646D01*
X211171Y338629D01*
X211197Y338633D01*
X211222Y338630D01*
X211317Y338651D01*
X211414Y338665D01*
X211437Y338677D01*
X211463Y338682D01*
X211547Y338732D01*
X211633Y338776D01*
X211651Y338795D01*
X211674Y338809D01*
X211737Y338883D01*
X211805Y338952D01*
X211821Y338981D01*
X211834Y338995D01*
X211846Y339026D01*
X211886Y339099D01*
X212315Y340135D01*
X214865Y342685D01*
X218197Y344065D01*
X221803Y344065D01*
X225135Y342685D01*
X227685Y340135D01*
X229065Y336803D01*
X229065Y333197D01*
X227980Y330577D01*
X227965Y330514D01*
X227940Y330453D01*
X227931Y330370D01*
X227924Y330338D01*
X227925Y330319D01*
X227922Y330286D01*
X227922Y295076D01*
X227925Y295056D01*
X227923Y295037D01*
X227945Y294935D01*
X227961Y294833D01*
X227971Y294816D01*
X227975Y294796D01*
X228028Y294707D01*
X228077Y294616D01*
X228091Y294602D01*
X228101Y294585D01*
X228180Y294518D01*
X228255Y294446D01*
X228273Y294438D01*
X228288Y294425D01*
X228384Y294386D01*
X228478Y294343D01*
X228498Y294341D01*
X228516Y294333D01*
X228683Y294315D01*
X231922Y294315D01*
X232130Y294107D01*
X232225Y294038D01*
X232322Y293967D01*
X232326Y293965D01*
X232330Y293963D01*
X232442Y293928D01*
X232556Y293892D01*
X232561Y293892D01*
X232565Y293891D01*
X232683Y293894D01*
X232802Y293895D01*
X232806Y293897D01*
X232811Y293897D01*
X232923Y293938D01*
X233034Y293977D01*
X233038Y293980D01*
X233042Y293981D01*
X233135Y294056D01*
X233228Y294129D01*
X233231Y294133D01*
X233234Y294135D01*
X233241Y294147D01*
X233327Y294264D01*
X233377Y294350D01*
X233850Y294823D01*
X234429Y295158D01*
X235076Y295331D01*
X238826Y295331D01*
X238826Y288613D01*
X238829Y288594D01*
X238827Y288574D01*
X238840Y288514D01*
X238826Y288387D01*
X238826Y281669D01*
X235076Y281669D01*
X234429Y281842D01*
X233850Y282177D01*
X233377Y282650D01*
X233327Y282736D01*
X233253Y282827D01*
X233178Y282921D01*
X233174Y282923D01*
X233172Y282926D01*
X233072Y282989D01*
X232971Y283054D01*
X232967Y283055D01*
X232963Y283057D01*
X232848Y283085D01*
X232732Y283114D01*
X232728Y283113D01*
X232724Y283114D01*
X232605Y283104D01*
X232487Y283095D01*
X232483Y283093D01*
X232479Y283093D01*
X232370Y283045D01*
X232261Y282998D01*
X232257Y282995D01*
X232254Y282994D01*
X232244Y282985D01*
X232130Y282893D01*
X231922Y282685D01*
X222078Y282685D01*
X221188Y283575D01*
X221172Y283587D01*
X221160Y283603D01*
X221072Y283659D01*
X220989Y283719D01*
X220970Y283725D01*
X220953Y283736D01*
X220852Y283761D01*
X220753Y283791D01*
X220734Y283791D01*
X220714Y283796D01*
X220611Y283788D01*
X220508Y283785D01*
X220489Y283778D01*
X220469Y283777D01*
X220374Y283736D01*
X220277Y283701D01*
X220261Y283688D01*
X220243Y283680D01*
X220112Y283575D01*
X219222Y282685D01*
X209378Y282685D01*
X208488Y283575D01*
X208472Y283587D01*
X208460Y283603D01*
X208372Y283659D01*
X208289Y283719D01*
X208270Y283725D01*
X208253Y283736D01*
X208152Y283761D01*
X208053Y283791D01*
X208034Y283791D01*
X208014Y283796D01*
X207911Y283788D01*
X207808Y283785D01*
X207789Y283778D01*
X207769Y283777D01*
X207674Y283736D01*
X207577Y283701D01*
X207561Y283688D01*
X207543Y283680D01*
X207412Y283575D01*
X206522Y282685D01*
X196678Y282685D01*
X195788Y283575D01*
X195772Y283587D01*
X195760Y283603D01*
X195672Y283659D01*
X195589Y283719D01*
X195570Y283725D01*
X195553Y283736D01*
X195452Y283761D01*
X195353Y283791D01*
X195334Y283791D01*
X195314Y283796D01*
X195211Y283788D01*
X195108Y283785D01*
X195089Y283778D01*
X195069Y283777D01*
X194974Y283736D01*
X194877Y283701D01*
X194861Y283688D01*
X194843Y283680D01*
X194712Y283575D01*
X193822Y282685D01*
X183978Y282685D01*
X183088Y283575D01*
X183072Y283587D01*
X183060Y283603D01*
X182972Y283659D01*
X182889Y283719D01*
X182870Y283725D01*
X182853Y283736D01*
X182752Y283761D01*
X182653Y283791D01*
X182634Y283791D01*
X182614Y283796D01*
X182511Y283788D01*
X182408Y283785D01*
X182389Y283778D01*
X182369Y283777D01*
X182274Y283736D01*
X182177Y283701D01*
X182161Y283688D01*
X182143Y283680D01*
X182012Y283575D01*
X181122Y282685D01*
X171278Y282685D01*
X170388Y283575D01*
X170372Y283587D01*
X170360Y283603D01*
X170272Y283659D01*
X170189Y283719D01*
X170170Y283725D01*
X170153Y283736D01*
X170052Y283761D01*
X169953Y283791D01*
X169934Y283791D01*
X169914Y283796D01*
X169811Y283788D01*
X169708Y283785D01*
X169689Y283778D01*
X169669Y283777D01*
X169574Y283736D01*
X169477Y283701D01*
X169461Y283688D01*
X169443Y283680D01*
X169312Y283575D01*
X168422Y282685D01*
X158578Y282685D01*
X157688Y283575D01*
X157672Y283587D01*
X157660Y283603D01*
X157572Y283659D01*
X157489Y283719D01*
X157470Y283725D01*
X157453Y283736D01*
X157352Y283761D01*
X157253Y283791D01*
X157234Y283791D01*
X157214Y283796D01*
X157111Y283788D01*
X157008Y283785D01*
X156989Y283778D01*
X156969Y283777D01*
X156874Y283736D01*
X156777Y283701D01*
X156761Y283688D01*
X156743Y283680D01*
X156612Y283575D01*
X155722Y282685D01*
X145878Y282685D01*
X144988Y283575D01*
X144972Y283587D01*
X144960Y283603D01*
X144872Y283659D01*
X144789Y283719D01*
X144770Y283725D01*
X144753Y283736D01*
X144652Y283761D01*
X144553Y283791D01*
X144534Y283791D01*
X144514Y283796D01*
X144411Y283788D01*
X144308Y283785D01*
X144289Y283778D01*
X144269Y283777D01*
X144174Y283736D01*
X144077Y283701D01*
X144061Y283688D01*
X144043Y283680D01*
X143912Y283575D01*
X143145Y282808D01*
X143092Y282734D01*
X143032Y282665D01*
X143020Y282635D01*
X143001Y282609D01*
X142974Y282522D01*
X142940Y282437D01*
X142936Y282396D01*
X142929Y282374D01*
X142930Y282341D01*
X142922Y282270D01*
X142922Y272536D01*
X142925Y272516D01*
X142923Y272497D01*
X142945Y272395D01*
X142961Y272293D01*
X142971Y272276D01*
X142975Y272256D01*
X143028Y272167D01*
X143077Y272076D01*
X143091Y272062D01*
X143101Y272045D01*
X143180Y271978D01*
X143255Y271906D01*
X143273Y271898D01*
X143288Y271885D01*
X143384Y271846D01*
X143478Y271803D01*
X143498Y271801D01*
X143516Y271793D01*
X143683Y271775D01*
X144232Y271775D01*
X145125Y270882D01*
X145125Y259467D01*
X145136Y259397D01*
X145138Y259325D01*
X145156Y259276D01*
X145164Y259225D01*
X145198Y259161D01*
X145223Y259094D01*
X145255Y259053D01*
X145280Y259007D01*
X145332Y258958D01*
X145376Y258902D01*
X145420Y258874D01*
X145458Y258838D01*
X145523Y258808D01*
X145583Y258769D01*
X145634Y258756D01*
X145681Y258734D01*
X145752Y258726D01*
X145822Y258709D01*
X145874Y258713D01*
X145925Y258707D01*
X145996Y258722D01*
X146067Y258728D01*
X146115Y258748D01*
X146166Y258759D01*
X146227Y258796D01*
X146293Y258824D01*
X146349Y258869D01*
X146377Y258886D01*
X146392Y258903D01*
X146424Y258929D01*
X147802Y260307D01*
X152198Y260307D01*
X154360Y258145D01*
X154434Y258092D01*
X154504Y258032D01*
X154534Y258020D01*
X154560Y258001D01*
X154647Y257974D01*
X154732Y257940D01*
X154773Y257936D01*
X154795Y257929D01*
X154827Y257930D01*
X154898Y257922D01*
X169774Y257922D01*
X169794Y257925D01*
X169813Y257923D01*
X169915Y257945D01*
X170017Y257961D01*
X170034Y257971D01*
X170054Y257975D01*
X170143Y258028D01*
X170234Y258077D01*
X170248Y258091D01*
X170265Y258101D01*
X170332Y258180D01*
X170404Y258255D01*
X170412Y258273D01*
X170425Y258288D01*
X170464Y258384D01*
X170507Y258478D01*
X170509Y258498D01*
X170517Y258516D01*
X170535Y258683D01*
X170535Y262382D01*
X171428Y263275D01*
X182692Y263275D01*
X183585Y262382D01*
X183585Y250118D01*
X182692Y249225D01*
X171428Y249225D01*
X170535Y250118D01*
X170535Y251317D01*
X170532Y251337D01*
X170534Y251356D01*
X170512Y251458D01*
X170496Y251560D01*
X170486Y251577D01*
X170482Y251597D01*
X170429Y251686D01*
X170380Y251777D01*
X170366Y251791D01*
X170356Y251808D01*
X170277Y251875D01*
X170202Y251947D01*
X170184Y251955D01*
X170169Y251968D01*
X170073Y252007D01*
X169979Y252050D01*
X169959Y252052D01*
X169941Y252060D01*
X169774Y252078D01*
X154898Y252078D01*
X154808Y252064D01*
X154717Y252056D01*
X154688Y252044D01*
X154656Y252039D01*
X154575Y251996D01*
X154491Y251960D01*
X154459Y251934D01*
X154438Y251923D01*
X154416Y251900D01*
X154360Y251855D01*
X152198Y249693D01*
X147802Y249693D01*
X147440Y250055D01*
X147382Y250097D01*
X147330Y250146D01*
X147283Y250168D01*
X147241Y250198D01*
X147172Y250220D01*
X147107Y250250D01*
X147055Y250255D01*
X147005Y250271D01*
X146934Y250269D01*
X146863Y250277D01*
X146812Y250266D01*
X146760Y250264D01*
X146692Y250240D01*
X146622Y250225D01*
X146577Y250198D01*
X146529Y250180D01*
X146473Y250135D01*
X146411Y250098D01*
X146377Y250059D01*
X146337Y250026D01*
X146298Y249966D01*
X146251Y249911D01*
X146232Y249863D01*
X146204Y249819D01*
X146192Y249773D01*
X139623Y249773D01*
X139623Y255791D01*
X143932Y255791D01*
X143952Y255794D01*
X143971Y255792D01*
X144073Y255814D01*
X144175Y255830D01*
X144192Y255840D01*
X144212Y255844D01*
X144301Y255897D01*
X144392Y255946D01*
X144406Y255960D01*
X144423Y255970D01*
X144490Y256049D01*
X144562Y256124D01*
X144570Y256142D01*
X144583Y256157D01*
X144622Y256253D01*
X144665Y256347D01*
X144667Y256367D01*
X144675Y256385D01*
X144693Y256552D01*
X144693Y257198D01*
X144921Y257426D01*
X144963Y257484D01*
X145012Y257536D01*
X145034Y257583D01*
X145064Y257625D01*
X145086Y257694D01*
X145116Y257759D01*
X145121Y257811D01*
X145137Y257861D01*
X145135Y257932D01*
X145143Y258003D01*
X145132Y258054D01*
X145130Y258106D01*
X145106Y258174D01*
X145091Y258244D01*
X145064Y258289D01*
X145046Y258337D01*
X145001Y258393D01*
X144964Y258455D01*
X144925Y258489D01*
X144892Y258529D01*
X144832Y258568D01*
X144777Y258615D01*
X144729Y258634D01*
X144685Y258662D01*
X144616Y258680D01*
X144549Y258707D01*
X144478Y258715D01*
X144447Y258723D01*
X144424Y258721D01*
X144383Y258725D01*
X131968Y258725D01*
X131075Y259618D01*
X131075Y270882D01*
X131968Y271775D01*
X136317Y271775D01*
X136337Y271778D01*
X136356Y271776D01*
X136458Y271798D01*
X136560Y271814D01*
X136577Y271824D01*
X136597Y271828D01*
X136686Y271881D01*
X136777Y271930D01*
X136791Y271944D01*
X136808Y271954D01*
X136875Y272033D01*
X136947Y272108D01*
X136955Y272126D01*
X136968Y272141D01*
X137007Y272237D01*
X137050Y272331D01*
X137052Y272351D01*
X137060Y272369D01*
X137078Y272536D01*
X137078Y281924D01*
X137075Y281944D01*
X137077Y281963D01*
X137055Y282065D01*
X137039Y282167D01*
X137029Y282184D01*
X137025Y282204D01*
X136972Y282293D01*
X136923Y282384D01*
X136909Y282398D01*
X136899Y282415D01*
X136820Y282482D01*
X136745Y282554D01*
X136727Y282562D01*
X136712Y282575D01*
X136616Y282614D01*
X136522Y282657D01*
X136502Y282659D01*
X136484Y282667D01*
X136317Y282685D01*
X133178Y282685D01*
X132288Y283575D01*
X132272Y283587D01*
X132260Y283603D01*
X132172Y283659D01*
X132089Y283719D01*
X132070Y283725D01*
X132053Y283736D01*
X131952Y283761D01*
X131853Y283791D01*
X131834Y283791D01*
X131814Y283796D01*
X131711Y283788D01*
X131608Y283785D01*
X131589Y283778D01*
X131569Y283777D01*
X131474Y283736D01*
X131377Y283701D01*
X131361Y283688D01*
X131343Y283680D01*
X131212Y283575D01*
X130322Y282685D01*
X120478Y282685D01*
X119588Y283575D01*
X119572Y283587D01*
X119560Y283603D01*
X119472Y283659D01*
X119389Y283719D01*
X119370Y283725D01*
X119353Y283736D01*
X119252Y283761D01*
X119153Y283791D01*
X119134Y283791D01*
X119114Y283796D01*
X119011Y283788D01*
X118908Y283785D01*
X118889Y283778D01*
X118869Y283777D01*
X118774Y283736D01*
X118677Y283701D01*
X118661Y283688D01*
X118643Y283680D01*
X118512Y283575D01*
X117622Y282685D01*
X107778Y282685D01*
X106888Y283575D01*
X106872Y283587D01*
X106860Y283603D01*
X106772Y283659D01*
X106689Y283719D01*
X106670Y283725D01*
X106653Y283736D01*
X106552Y283761D01*
X106453Y283791D01*
X106434Y283791D01*
X106414Y283796D01*
X106311Y283788D01*
X106208Y283785D01*
X106189Y283778D01*
X106169Y283777D01*
X106074Y283736D01*
X105977Y283701D01*
X105961Y283688D01*
X105943Y283680D01*
X105812Y283575D01*
X104922Y282685D01*
X95078Y282685D01*
X94188Y283575D01*
X94172Y283587D01*
X94160Y283603D01*
X94072Y283659D01*
X93989Y283719D01*
X93970Y283725D01*
X93953Y283736D01*
X93852Y283761D01*
X93753Y283791D01*
X93734Y283791D01*
X93714Y283796D01*
X93611Y283788D01*
X93508Y283785D01*
X93489Y283778D01*
X93469Y283777D01*
X93374Y283736D01*
X93277Y283701D01*
X93261Y283688D01*
X93243Y283680D01*
X93112Y283575D01*
X92222Y282685D01*
X85784Y282685D01*
X85714Y282674D01*
X85642Y282672D01*
X85593Y282654D01*
X85542Y282646D01*
X85478Y282612D01*
X85411Y282587D01*
X85370Y282555D01*
X85324Y282530D01*
X85275Y282478D01*
X85219Y282434D01*
X85191Y282390D01*
X85155Y282352D01*
X85125Y282287D01*
X85086Y282227D01*
X85073Y282176D01*
X85051Y282129D01*
X85043Y282058D01*
X85026Y281988D01*
X85030Y281936D01*
X85024Y281885D01*
X85040Y281814D01*
X85045Y281743D01*
X85065Y281695D01*
X85077Y281644D01*
X85113Y281583D01*
X85141Y281517D01*
X85186Y281461D01*
X85203Y281433D01*
X85220Y281418D01*
X85246Y281386D01*
X93487Y273145D01*
X93561Y273092D01*
X93631Y273032D01*
X93661Y273020D01*
X93687Y273001D01*
X93774Y272974D01*
X93859Y272940D01*
X93900Y272936D01*
X93922Y272929D01*
X93954Y272930D01*
X94026Y272922D01*
X96210Y272922D01*
X100422Y268710D01*
X100422Y239764D01*
X100433Y239694D01*
X100435Y239622D01*
X100453Y239573D01*
X100461Y239522D01*
X100495Y239458D01*
X100520Y239391D01*
X100552Y239350D01*
X100577Y239304D01*
X100629Y239255D01*
X100673Y239199D01*
X100717Y239171D01*
X100755Y239135D01*
X100820Y239105D01*
X100880Y239066D01*
X100931Y239053D01*
X100978Y239031D01*
X101049Y239023D01*
X101119Y239006D01*
X101171Y239010D01*
X101222Y239004D01*
X101293Y239019D01*
X101364Y239025D01*
X101412Y239045D01*
X101463Y239056D01*
X101524Y239093D01*
X101590Y239121D01*
X101646Y239166D01*
X101674Y239183D01*
X101689Y239200D01*
X101721Y239226D01*
X102802Y240307D01*
X107198Y240307D01*
X110307Y237198D01*
X110307Y232802D01*
X108145Y230640D01*
X108092Y230566D01*
X108032Y230496D01*
X108020Y230466D01*
X108001Y230440D01*
X107974Y230353D01*
X107940Y230268D01*
X107936Y230227D01*
X107929Y230205D01*
X107930Y230173D01*
X107922Y230102D01*
X107922Y226526D01*
X107936Y226435D01*
X107944Y226345D01*
X107956Y226315D01*
X107961Y226283D01*
X108004Y226202D01*
X108040Y226118D01*
X108066Y226086D01*
X108077Y226065D01*
X108100Y226043D01*
X108145Y225987D01*
X111820Y222312D01*
X111878Y222270D01*
X111930Y222221D01*
X111977Y222199D01*
X112019Y222169D01*
X112088Y222148D01*
X112153Y222117D01*
X112205Y222112D01*
X112255Y222096D01*
X112326Y222098D01*
X112397Y222090D01*
X112448Y222101D01*
X112500Y222103D01*
X112568Y222127D01*
X112638Y222143D01*
X112683Y222169D01*
X112731Y222187D01*
X112787Y222232D01*
X112849Y222269D01*
X112883Y222308D01*
X112923Y222341D01*
X112962Y222401D01*
X113009Y222456D01*
X113028Y222504D01*
X113056Y222548D01*
X113074Y222617D01*
X113101Y222684D01*
X113109Y222755D01*
X113117Y222786D01*
X113115Y222810D01*
X113119Y222850D01*
X113119Y224931D01*
X116911Y224931D01*
X116911Y217537D01*
X116925Y217446D01*
X116933Y217356D01*
X116945Y217326D01*
X116950Y217294D01*
X116993Y217213D01*
X117029Y217129D01*
X117055Y217097D01*
X117066Y217076D01*
X117089Y217054D01*
X117134Y216998D01*
X117922Y216210D01*
X117922Y206526D01*
X117936Y206435D01*
X117944Y206345D01*
X117956Y206315D01*
X117961Y206283D01*
X118004Y206202D01*
X118040Y206118D01*
X118066Y206086D01*
X118077Y206065D01*
X118100Y206043D01*
X118145Y205987D01*
X167922Y156210D01*
X167922Y149466D01*
X167925Y149448D01*
X167923Y149431D01*
X167923Y149429D01*
X167923Y149427D01*
X167945Y149325D01*
X167961Y149223D01*
X167971Y149206D01*
X167975Y149186D01*
X168028Y149097D01*
X168077Y149006D01*
X168091Y148992D01*
X168101Y148975D01*
X168180Y148908D01*
X168255Y148836D01*
X168273Y148828D01*
X168288Y148815D01*
X168384Y148776D01*
X168478Y148733D01*
X168498Y148731D01*
X168516Y148723D01*
X168683Y148705D01*
X169276Y148705D01*
X169366Y148719D01*
X169457Y148727D01*
X169487Y148739D01*
X169519Y148744D01*
X169600Y148787D01*
X169684Y148823D01*
X169716Y148849D01*
X169736Y148860D01*
X169740Y148864D01*
X169741Y148864D01*
X169759Y148884D01*
X169815Y148928D01*
X170100Y149213D01*
X170679Y149548D01*
X171326Y149721D01*
X172911Y149721D01*
X172911Y141668D01*
X172914Y141649D01*
X172912Y141629D01*
X172934Y141527D01*
X172950Y141425D01*
X172960Y141408D01*
X172964Y141388D01*
X173017Y141299D01*
X173066Y141208D01*
X173080Y141194D01*
X173090Y141177D01*
X173094Y141174D01*
X173042Y141120D01*
X173034Y141102D01*
X173021Y141087D01*
X172982Y140990D01*
X172939Y140897D01*
X172937Y140877D01*
X172929Y140859D01*
X172911Y140692D01*
X172911Y132639D01*
X171326Y132639D01*
X170679Y132812D01*
X170100Y133147D01*
X169815Y133432D01*
X169741Y133485D01*
X169671Y133545D01*
X169641Y133557D01*
X169615Y133576D01*
X169528Y133603D01*
X169443Y133637D01*
X169402Y133641D01*
X169380Y133648D01*
X169348Y133647D01*
X169276Y133655D01*
X163028Y133655D01*
X162698Y133985D01*
X162682Y133997D01*
X162670Y134013D01*
X162583Y134069D01*
X162499Y134129D01*
X162480Y134135D01*
X162463Y134146D01*
X162362Y134171D01*
X162263Y134201D01*
X162244Y134201D01*
X162224Y134206D01*
X162121Y134198D01*
X162018Y134195D01*
X161999Y134188D01*
X161979Y134187D01*
X161884Y134146D01*
X161787Y134111D01*
X161771Y134098D01*
X161753Y134090D01*
X161622Y133985D01*
X161292Y133655D01*
X155028Y133655D01*
X154698Y133985D01*
X154682Y133997D01*
X154670Y134013D01*
X154583Y134069D01*
X154499Y134129D01*
X154480Y134135D01*
X154463Y134146D01*
X154362Y134171D01*
X154263Y134201D01*
X154244Y134201D01*
X154224Y134206D01*
X154121Y134198D01*
X154018Y134195D01*
X153999Y134188D01*
X153979Y134187D01*
X153884Y134146D01*
X153787Y134111D01*
X153771Y134098D01*
X153753Y134090D01*
X153622Y133985D01*
X153292Y133655D01*
X147028Y133655D01*
X146698Y133985D01*
X146682Y133997D01*
X146670Y134013D01*
X146583Y134069D01*
X146499Y134129D01*
X146480Y134135D01*
X146463Y134146D01*
X146362Y134171D01*
X146263Y134201D01*
X146244Y134201D01*
X146224Y134206D01*
X146121Y134198D01*
X146018Y134195D01*
X145999Y134188D01*
X145979Y134187D01*
X145884Y134146D01*
X145787Y134111D01*
X145771Y134098D01*
X145753Y134090D01*
X145622Y133985D01*
X145292Y133655D01*
X139028Y133655D01*
X138698Y133985D01*
X138682Y133997D01*
X138670Y134013D01*
X138583Y134069D01*
X138499Y134129D01*
X138480Y134135D01*
X138463Y134146D01*
X138362Y134171D01*
X138263Y134201D01*
X138244Y134201D01*
X138224Y134206D01*
X138121Y134198D01*
X138018Y134195D01*
X137999Y134188D01*
X137979Y134187D01*
X137884Y134146D01*
X137787Y134111D01*
X137771Y134098D01*
X137753Y134090D01*
X137622Y133985D01*
X137292Y133655D01*
X131028Y133655D01*
X130698Y133985D01*
X130682Y133997D01*
X130670Y134013D01*
X130583Y134069D01*
X130499Y134129D01*
X130480Y134135D01*
X130463Y134146D01*
X130362Y134171D01*
X130263Y134201D01*
X130244Y134201D01*
X130224Y134206D01*
X130121Y134198D01*
X130018Y134195D01*
X129999Y134188D01*
X129979Y134187D01*
X129884Y134146D01*
X129787Y134111D01*
X129771Y134098D01*
X129753Y134090D01*
X129622Y133985D01*
X129292Y133655D01*
X123028Y133655D01*
X122698Y133985D01*
X122682Y133997D01*
X122670Y134013D01*
X122583Y134069D01*
X122499Y134129D01*
X122480Y134135D01*
X122463Y134146D01*
X122362Y134171D01*
X122263Y134201D01*
X122244Y134201D01*
X122224Y134206D01*
X122121Y134198D01*
X122018Y134195D01*
X121999Y134188D01*
X121979Y134187D01*
X121884Y134146D01*
X121787Y134111D01*
X121771Y134098D01*
X121753Y134090D01*
X121622Y133985D01*
X121292Y133655D01*
X114814Y133655D01*
X114744Y133644D01*
X114672Y133642D01*
X114623Y133624D01*
X114572Y133616D01*
X114508Y133582D01*
X114441Y133557D01*
X114400Y133525D01*
X114354Y133500D01*
X114305Y133448D01*
X114249Y133404D01*
X114221Y133360D01*
X114185Y133322D01*
X114155Y133257D01*
X114116Y133197D01*
X114103Y133146D01*
X114081Y133099D01*
X114073Y133028D01*
X114056Y132958D01*
X114060Y132906D01*
X114054Y132855D01*
X114070Y132784D01*
X114075Y132713D01*
X114095Y132665D01*
X114107Y132614D01*
X114143Y132553D01*
X114171Y132487D01*
X114216Y132431D01*
X114233Y132403D01*
X114250Y132388D01*
X114276Y132356D01*
X138487Y108145D01*
X138561Y108092D01*
X138631Y108032D01*
X138661Y108020D01*
X138687Y108001D01*
X138774Y107974D01*
X138859Y107940D01*
X138900Y107936D01*
X138922Y107929D01*
X138954Y107930D01*
X139026Y107922D01*
X221210Y107922D01*
X225594Y103538D01*
X225668Y103485D01*
X225738Y103425D01*
X225768Y103413D01*
X225794Y103394D01*
X225881Y103367D01*
X225966Y103333D01*
X226007Y103329D01*
X226029Y103322D01*
X226061Y103323D01*
X226133Y103315D01*
X231922Y103315D01*
X232130Y103107D01*
X232226Y103037D01*
X232322Y102967D01*
X232326Y102965D01*
X232330Y102963D01*
X232443Y102928D01*
X232557Y102892D01*
X232561Y102892D01*
X232565Y102891D01*
X232684Y102894D01*
X232802Y102895D01*
X232806Y102897D01*
X232810Y102897D01*
X232922Y102938D01*
X233034Y102977D01*
X233038Y102980D01*
X233041Y102981D01*
X233134Y103055D01*
X233228Y103129D01*
X233231Y103133D01*
X233234Y103135D01*
X233241Y103147D01*
X233327Y103264D01*
X233377Y103350D01*
X233850Y103823D01*
X234429Y104158D01*
X235076Y104331D01*
X238826Y104331D01*
X238826Y97613D01*
X238829Y97594D01*
X238827Y97574D01*
X238849Y97472D01*
X238865Y97370D01*
X238875Y97353D01*
X238879Y97333D01*
X238932Y97244D01*
X238981Y97153D01*
X238995Y97139D01*
X239005Y97122D01*
X239084Y97055D01*
X239159Y96984D01*
X239177Y96975D01*
X239185Y96969D01*
X239207Y96927D01*
X239221Y96913D01*
X239231Y96896D01*
X239310Y96829D01*
X239385Y96757D01*
X239403Y96749D01*
X239418Y96736D01*
X239515Y96697D01*
X239608Y96654D01*
X239628Y96652D01*
X239646Y96644D01*
X239813Y96626D01*
X246531Y96626D01*
X246531Y93683D01*
X246534Y93663D01*
X246532Y93644D01*
X246554Y93542D01*
X246570Y93440D01*
X246580Y93423D01*
X246584Y93403D01*
X246637Y93314D01*
X246686Y93223D01*
X246700Y93209D01*
X246710Y93192D01*
X246789Y93125D01*
X246864Y93053D01*
X246882Y93045D01*
X246897Y93032D01*
X246993Y92993D01*
X247087Y92950D01*
X247107Y92948D01*
X247125Y92940D01*
X247292Y92922D01*
X248710Y92922D01*
X259011Y82621D01*
X259028Y82609D01*
X259040Y82593D01*
X259127Y82537D01*
X259211Y82477D01*
X259230Y82471D01*
X259247Y82460D01*
X259347Y82435D01*
X259446Y82405D01*
X259466Y82405D01*
X259486Y82400D01*
X259589Y82408D01*
X259692Y82411D01*
X259711Y82418D01*
X259731Y82419D01*
X259826Y82460D01*
X259923Y82495D01*
X259939Y82508D01*
X259957Y82516D01*
X260088Y82621D01*
X260112Y82645D01*
X267688Y82645D01*
X273045Y77288D01*
X273045Y69712D01*
X267688Y64355D01*
X260112Y64355D01*
X254755Y69712D01*
X254755Y77288D01*
X254879Y77412D01*
X254891Y77428D01*
X254907Y77441D01*
X254963Y77528D01*
X255023Y77612D01*
X255029Y77631D01*
X255040Y77648D01*
X255065Y77748D01*
X255095Y77847D01*
X255095Y77867D01*
X255100Y77886D01*
X255092Y77989D01*
X255089Y78093D01*
X255082Y78111D01*
X255081Y78131D01*
X255040Y78226D01*
X255005Y78324D01*
X254992Y78339D01*
X254984Y78358D01*
X254879Y78489D01*
X246513Y86855D01*
X246439Y86908D01*
X246369Y86968D01*
X246339Y86980D01*
X246313Y86999D01*
X246226Y87026D01*
X246141Y87060D01*
X246100Y87064D01*
X246078Y87071D01*
X246046Y87070D01*
X245974Y87078D01*
X231391Y87078D01*
X231321Y87067D01*
X231249Y87065D01*
X231200Y87047D01*
X231149Y87039D01*
X231085Y87005D01*
X231018Y86980D01*
X230977Y86948D01*
X230931Y86923D01*
X230882Y86871D01*
X230826Y86827D01*
X230798Y86783D01*
X230762Y86745D01*
X230732Y86680D01*
X230693Y86620D01*
X230680Y86569D01*
X230658Y86522D01*
X230650Y86451D01*
X230633Y86381D01*
X230637Y86329D01*
X230631Y86278D01*
X230647Y86207D01*
X230652Y86136D01*
X230672Y86088D01*
X230684Y86037D01*
X230720Y85976D01*
X230748Y85910D01*
X230793Y85854D01*
X230810Y85826D01*
X230827Y85811D01*
X230853Y85779D01*
X233811Y82821D01*
X233828Y82809D01*
X233840Y82793D01*
X233927Y82737D01*
X234011Y82677D01*
X234030Y82671D01*
X234047Y82660D01*
X234147Y82635D01*
X234246Y82605D01*
X234266Y82605D01*
X234286Y82600D01*
X234389Y82608D01*
X234492Y82611D01*
X234511Y82618D01*
X234531Y82619D01*
X234590Y82645D01*
X242288Y82645D01*
X247645Y77288D01*
X247645Y69712D01*
X242288Y64355D01*
X234712Y64355D01*
X229355Y69712D01*
X229355Y77288D01*
X229679Y77612D01*
X229691Y77628D01*
X229707Y77641D01*
X229763Y77728D01*
X229823Y77812D01*
X229829Y77831D01*
X229840Y77848D01*
X229865Y77948D01*
X229895Y78047D01*
X229895Y78067D01*
X229900Y78086D01*
X229892Y78189D01*
X229889Y78293D01*
X229882Y78311D01*
X229881Y78331D01*
X229840Y78426D01*
X229805Y78524D01*
X229792Y78539D01*
X229784Y78558D01*
X229679Y78689D01*
X226513Y81855D01*
X226439Y81908D01*
X226369Y81968D01*
X226339Y81980D01*
X226313Y81999D01*
X226226Y82026D01*
X226141Y82060D01*
X226100Y82064D01*
X226078Y82071D01*
X226046Y82070D01*
X225974Y82078D01*
X219292Y82078D01*
X219221Y82067D01*
X219150Y82065D01*
X219101Y82047D01*
X219049Y82039D01*
X218986Y82005D01*
X218919Y81980D01*
X218878Y81948D01*
X218832Y81923D01*
X218783Y81871D01*
X218727Y81827D01*
X218698Y81783D01*
X218663Y81745D01*
X218632Y81680D01*
X218594Y81620D01*
X218581Y81569D01*
X218559Y81522D01*
X218551Y81451D01*
X218534Y81381D01*
X218538Y81329D01*
X218532Y81278D01*
X218547Y81207D01*
X218553Y81136D01*
X218573Y81088D01*
X218584Y81037D01*
X218621Y80976D01*
X218649Y80910D01*
X218694Y80854D01*
X218710Y80826D01*
X218728Y80811D01*
X218754Y80779D01*
X222245Y77288D01*
X222245Y69712D01*
X216888Y64355D01*
X209263Y64355D01*
X209238Y64373D01*
X209219Y64379D01*
X209202Y64390D01*
X209102Y64415D01*
X209003Y64445D01*
X208983Y64445D01*
X208964Y64450D01*
X208861Y64442D01*
X208757Y64439D01*
X208738Y64432D01*
X208719Y64431D01*
X208624Y64390D01*
X208526Y64355D01*
X208511Y64342D01*
X208492Y64334D01*
X208361Y64229D01*
X203710Y59578D01*
X161526Y59578D01*
X161435Y59564D01*
X161345Y59556D01*
X161315Y59544D01*
X161283Y59539D01*
X161202Y59496D01*
X161118Y59460D01*
X161086Y59434D01*
X161065Y59423D01*
X161043Y59400D01*
X160987Y59355D01*
X160176Y58544D01*
X160134Y58486D01*
X160085Y58434D01*
X160063Y58387D01*
X160033Y58345D01*
X160012Y58276D01*
X159981Y58211D01*
X159976Y58159D01*
X159960Y58109D01*
X159962Y58038D01*
X159954Y57967D01*
X159965Y57916D01*
X159967Y57864D01*
X159991Y57796D01*
X160007Y57726D01*
X160033Y57682D01*
X160051Y57633D01*
X160096Y57577D01*
X160133Y57515D01*
X160172Y57481D01*
X160205Y57441D01*
X160265Y57402D01*
X160320Y57355D01*
X160368Y57336D01*
X160412Y57308D01*
X160481Y57290D01*
X160548Y57263D01*
X160619Y57255D01*
X160650Y57247D01*
X160674Y57249D01*
X160714Y57245D01*
X166088Y57245D01*
X171445Y51888D01*
X171445Y44312D01*
X166088Y38955D01*
X158512Y38955D01*
X153155Y44312D01*
X153155Y49686D01*
X153144Y49756D01*
X153142Y49828D01*
X153124Y49877D01*
X153116Y49928D01*
X153082Y49991D01*
X153057Y50059D01*
X153025Y50100D01*
X153000Y50146D01*
X152949Y50195D01*
X152904Y50251D01*
X152860Y50279D01*
X152822Y50315D01*
X152757Y50345D01*
X152697Y50384D01*
X152646Y50397D01*
X152599Y50419D01*
X152528Y50427D01*
X152458Y50444D01*
X152406Y50440D01*
X152355Y50446D01*
X152284Y50430D01*
X152213Y50425D01*
X152165Y50405D01*
X152114Y50393D01*
X152053Y50357D01*
X151987Y50329D01*
X151931Y50284D01*
X151903Y50267D01*
X151888Y50250D01*
X151856Y50224D01*
X150645Y49013D01*
X148710Y47078D01*
X146806Y47078D01*
X146786Y47075D01*
X146767Y47077D01*
X146665Y47055D01*
X146563Y47039D01*
X146546Y47029D01*
X146526Y47025D01*
X146437Y46972D01*
X146346Y46923D01*
X146332Y46909D01*
X146315Y46899D01*
X146248Y46820D01*
X146176Y46745D01*
X146168Y46727D01*
X146155Y46712D01*
X146116Y46616D01*
X146073Y46522D01*
X146071Y46502D01*
X146063Y46484D01*
X146045Y46317D01*
X146045Y44312D01*
X140688Y38955D01*
X137014Y38955D01*
X136944Y38944D01*
X136872Y38942D01*
X136823Y38924D01*
X136772Y38916D01*
X136708Y38882D01*
X136641Y38857D01*
X136600Y38825D01*
X136554Y38800D01*
X136505Y38748D01*
X136449Y38704D01*
X136421Y38660D01*
X136385Y38622D01*
X136355Y38557D01*
X136316Y38497D01*
X136303Y38446D01*
X136281Y38399D01*
X136273Y38328D01*
X136256Y38258D01*
X136260Y38206D01*
X136254Y38155D01*
X136270Y38084D01*
X136275Y38013D01*
X136295Y37965D01*
X136307Y37914D01*
X136343Y37853D01*
X136371Y37787D01*
X136416Y37731D01*
X136433Y37703D01*
X136450Y37688D01*
X136476Y37656D01*
X138487Y35645D01*
X138561Y35592D01*
X138631Y35532D01*
X138661Y35520D01*
X138687Y35501D01*
X138774Y35474D01*
X138859Y35440D01*
X138900Y35436D01*
X138922Y35429D01*
X138954Y35430D01*
X139026Y35422D01*
X271109Y35422D01*
X271179Y35433D01*
X271251Y35435D01*
X271300Y35453D01*
X271351Y35461D01*
X271415Y35495D01*
X271482Y35520D01*
X271523Y35552D01*
X271569Y35577D01*
X271618Y35629D01*
X271674Y35673D01*
X271702Y35717D01*
X271738Y35755D01*
X271768Y35820D01*
X271807Y35880D01*
X271820Y35931D01*
X271842Y35978D01*
X271850Y36049D01*
X271867Y36119D01*
X271863Y36171D01*
X271869Y36222D01*
X271853Y36293D01*
X271848Y36364D01*
X271828Y36412D01*
X271816Y36463D01*
X271780Y36524D01*
X271752Y36590D01*
X271707Y36646D01*
X271690Y36674D01*
X271673Y36689D01*
X271647Y36721D01*
X269089Y39279D01*
X269072Y39291D01*
X269060Y39307D01*
X268973Y39362D01*
X268889Y39423D01*
X268870Y39429D01*
X268853Y39440D01*
X268753Y39465D01*
X268654Y39495D01*
X268634Y39495D01*
X268615Y39500D01*
X268512Y39492D01*
X268408Y39489D01*
X268389Y39482D01*
X268369Y39481D01*
X268274Y39440D01*
X268177Y39405D01*
X268161Y39392D01*
X268143Y39384D01*
X268012Y39279D01*
X267688Y38955D01*
X260112Y38955D01*
X254755Y44312D01*
X254755Y51888D01*
X260112Y57245D01*
X267688Y57245D01*
X273045Y51888D01*
X273045Y44190D01*
X273035Y44152D01*
X273005Y44053D01*
X273005Y44033D01*
X273000Y44014D01*
X273008Y43911D01*
X273011Y43808D01*
X273018Y43789D01*
X273019Y43769D01*
X273060Y43674D01*
X273095Y43576D01*
X273108Y43561D01*
X273116Y43542D01*
X273221Y43411D01*
X275987Y40645D01*
X276061Y40592D01*
X276131Y40532D01*
X276161Y40520D01*
X276187Y40501D01*
X276274Y40474D01*
X276359Y40440D01*
X276400Y40436D01*
X276422Y40429D01*
X276454Y40430D01*
X276526Y40422D01*
X280771Y40422D01*
X280842Y40433D01*
X280913Y40435D01*
X280962Y40453D01*
X281014Y40461D01*
X281077Y40495D01*
X281144Y40520D01*
X281185Y40552D01*
X281231Y40577D01*
X281281Y40629D01*
X281337Y40673D01*
X281365Y40717D01*
X281401Y40755D01*
X281431Y40820D01*
X281470Y40880D01*
X281482Y40931D01*
X281504Y40978D01*
X281512Y41049D01*
X281530Y41119D01*
X281526Y41171D01*
X281531Y41222D01*
X281516Y41293D01*
X281510Y41364D01*
X281490Y41412D01*
X281479Y41463D01*
X281442Y41524D01*
X281414Y41590D01*
X281369Y41646D01*
X281353Y41674D01*
X281335Y41689D01*
X281309Y41721D01*
X279139Y43891D01*
X279139Y46577D01*
X288538Y46577D01*
X288558Y46580D01*
X288577Y46578D01*
X288679Y46600D01*
X288781Y46617D01*
X288798Y46626D01*
X288818Y46630D01*
X288907Y46683D01*
X288998Y46732D01*
X289012Y46746D01*
X289029Y46756D01*
X289096Y46835D01*
X289167Y46910D01*
X289176Y46928D01*
X289189Y46943D01*
X289227Y47039D01*
X289271Y47133D01*
X289273Y47153D01*
X289281Y47171D01*
X289299Y47338D01*
X289299Y48101D01*
X290062Y48101D01*
X290082Y48104D01*
X290101Y48102D01*
X290203Y48124D01*
X290305Y48141D01*
X290322Y48150D01*
X290342Y48154D01*
X290431Y48207D01*
X290522Y48256D01*
X290536Y48270D01*
X290553Y48280D01*
X290620Y48359D01*
X290691Y48434D01*
X290700Y48452D01*
X290713Y48467D01*
X290752Y48563D01*
X290795Y48657D01*
X290797Y48677D01*
X290805Y48695D01*
X290823Y48862D01*
X290823Y58261D01*
X293509Y58261D01*
X298279Y53491D01*
X298337Y53449D01*
X298389Y53399D01*
X298436Y53378D01*
X298478Y53347D01*
X298547Y53326D01*
X298612Y53296D01*
X298664Y53290D01*
X298714Y53275D01*
X298785Y53277D01*
X298856Y53269D01*
X298907Y53280D01*
X298959Y53281D01*
X299027Y53306D01*
X299097Y53321D01*
X299142Y53348D01*
X299190Y53366D01*
X299246Y53410D01*
X299308Y53447D01*
X299342Y53487D01*
X299382Y53519D01*
X299421Y53580D01*
X299468Y53634D01*
X299487Y53682D01*
X299515Y53726D01*
X299533Y53796D01*
X299560Y53862D01*
X299568Y53934D01*
X299576Y53965D01*
X299574Y53988D01*
X299578Y54029D01*
X299578Y65102D01*
X299564Y65192D01*
X299556Y65283D01*
X299544Y65312D01*
X299539Y65344D01*
X299496Y65425D01*
X299460Y65509D01*
X299434Y65541D01*
X299423Y65562D01*
X299400Y65584D01*
X299355Y65640D01*
X297402Y67593D01*
X297386Y67605D01*
X297374Y67620D01*
X297286Y67676D01*
X297202Y67737D01*
X297183Y67742D01*
X297167Y67753D01*
X297066Y67778D01*
X296967Y67809D01*
X296947Y67808D01*
X296928Y67813D01*
X296825Y67805D01*
X296721Y67803D01*
X296703Y67796D01*
X296683Y67794D01*
X296588Y67754D01*
X296490Y67718D01*
X296475Y67706D01*
X296457Y67698D01*
X296326Y67593D01*
X293088Y64355D01*
X285512Y64355D01*
X280155Y69712D01*
X280155Y77316D01*
X280163Y77328D01*
X280223Y77412D01*
X280229Y77431D01*
X280240Y77448D01*
X280265Y77548D01*
X280295Y77647D01*
X280295Y77667D01*
X280300Y77686D01*
X280292Y77789D01*
X280289Y77893D01*
X280282Y77911D01*
X280281Y77931D01*
X280240Y78026D01*
X280205Y78124D01*
X280192Y78139D01*
X280184Y78158D01*
X280079Y78289D01*
X247078Y111290D01*
X247078Y112948D01*
X247076Y112960D01*
X247077Y112970D01*
X247067Y113018D01*
X247063Y113042D01*
X247054Y113137D01*
X247043Y113163D01*
X247039Y113190D01*
X246994Y113275D01*
X246955Y113362D01*
X246937Y113383D01*
X246923Y113408D01*
X246854Y113473D01*
X246790Y113544D01*
X246765Y113558D01*
X246745Y113577D01*
X246658Y113617D01*
X246575Y113664D01*
X246547Y113669D01*
X246522Y113681D01*
X246427Y113691D01*
X246333Y113709D01*
X246305Y113705D01*
X246278Y113708D01*
X246184Y113688D01*
X246090Y113674D01*
X246057Y113660D01*
X246037Y113656D01*
X246013Y113641D01*
X245334Y113459D01*
X241523Y113459D01*
X241523Y120738D01*
X241520Y120758D01*
X241522Y120777D01*
X241500Y120879D01*
X241483Y120981D01*
X241474Y120998D01*
X241470Y121018D01*
X241417Y121107D01*
X241368Y121198D01*
X241354Y121212D01*
X241344Y121229D01*
X241265Y121296D01*
X241190Y121367D01*
X241172Y121376D01*
X241157Y121389D01*
X241061Y121428D01*
X240967Y121471D01*
X240947Y121473D01*
X240929Y121481D01*
X240762Y121499D01*
X239999Y121499D01*
X239999Y121501D01*
X240762Y121501D01*
X240782Y121504D01*
X240801Y121502D01*
X240903Y121524D01*
X241005Y121541D01*
X241022Y121550D01*
X241042Y121554D01*
X241131Y121607D01*
X241222Y121656D01*
X241236Y121670D01*
X241253Y121680D01*
X241320Y121759D01*
X241391Y121834D01*
X241400Y121852D01*
X241413Y121867D01*
X241452Y121963D01*
X241495Y122057D01*
X241497Y122077D01*
X241505Y122095D01*
X241523Y122262D01*
X241523Y129541D01*
X241990Y129541D01*
X242060Y129552D01*
X242132Y129554D01*
X242181Y129572D01*
X242232Y129580D01*
X242296Y129614D01*
X242363Y129639D01*
X242404Y129671D01*
X242450Y129696D01*
X242499Y129747D01*
X242555Y129792D01*
X242583Y129836D01*
X242619Y129874D01*
X242649Y129939D01*
X242688Y129999D01*
X242701Y130050D01*
X242723Y130097D01*
X242731Y130168D01*
X242748Y130238D01*
X242744Y130290D01*
X242750Y130341D01*
X242735Y130412D01*
X242729Y130483D01*
X242709Y130531D01*
X242698Y130582D01*
X242661Y130643D01*
X242633Y130709D01*
X242588Y130765D01*
X242571Y130793D01*
X242554Y130808D01*
X242528Y130840D01*
X242116Y131252D01*
X242042Y131306D01*
X241972Y131365D01*
X241942Y131377D01*
X241916Y131396D01*
X241829Y131423D01*
X241744Y131457D01*
X241703Y131461D01*
X241681Y131468D01*
X241649Y131467D01*
X241577Y131475D01*
X234368Y131475D01*
X233475Y132368D01*
X233475Y136317D01*
X233472Y136337D01*
X233474Y136356D01*
X233452Y136458D01*
X233436Y136560D01*
X233426Y136577D01*
X233422Y136597D01*
X233369Y136686D01*
X233320Y136777D01*
X233306Y136791D01*
X233296Y136808D01*
X233217Y136875D01*
X233142Y136947D01*
X233124Y136955D01*
X233109Y136968D01*
X233013Y137007D01*
X232919Y137050D01*
X232899Y137052D01*
X232881Y137060D01*
X232714Y137078D01*
X226183Y137078D01*
X226163Y137075D01*
X226144Y137077D01*
X226042Y137055D01*
X225940Y137039D01*
X225923Y137029D01*
X225903Y137025D01*
X225814Y136972D01*
X225723Y136923D01*
X225709Y136909D01*
X225692Y136899D01*
X225625Y136820D01*
X225553Y136745D01*
X225545Y136727D01*
X225532Y136712D01*
X225493Y136616D01*
X225450Y136522D01*
X225448Y136502D01*
X225440Y136484D01*
X225422Y136317D01*
X225422Y132398D01*
X225436Y132308D01*
X225444Y132217D01*
X225456Y132188D01*
X225461Y132156D01*
X225504Y132075D01*
X225540Y131991D01*
X225566Y131959D01*
X225577Y131938D01*
X225600Y131916D01*
X225645Y131860D01*
X227807Y129698D01*
X227807Y125302D01*
X224698Y122193D01*
X220302Y122193D01*
X218840Y123655D01*
X218782Y123697D01*
X218730Y123746D01*
X218683Y123768D01*
X218641Y123798D01*
X218572Y123820D01*
X218507Y123850D01*
X218455Y123855D01*
X218405Y123871D01*
X218334Y123869D01*
X218263Y123877D01*
X218212Y123866D01*
X218160Y123864D01*
X218092Y123840D01*
X218022Y123825D01*
X217977Y123798D01*
X217929Y123780D01*
X217873Y123735D01*
X217811Y123698D01*
X217777Y123659D01*
X217737Y123626D01*
X217698Y123566D01*
X217651Y123511D01*
X217632Y123463D01*
X217604Y123419D01*
X217586Y123350D01*
X217559Y123283D01*
X217551Y123212D01*
X217543Y123181D01*
X217545Y123158D01*
X217541Y123117D01*
X217541Y123023D01*
X211523Y123023D01*
X211523Y129541D01*
X215335Y129541D01*
X215981Y129368D01*
X216051Y129327D01*
X216140Y129293D01*
X216227Y129253D01*
X216255Y129250D01*
X216281Y129240D01*
X216377Y129236D01*
X216471Y129226D01*
X216499Y129232D01*
X216527Y129231D01*
X216619Y129258D01*
X216712Y129278D01*
X216736Y129292D01*
X216763Y129300D01*
X216841Y129355D01*
X216923Y129404D01*
X216941Y129426D01*
X216964Y129442D01*
X217021Y129519D01*
X217063Y129568D01*
X219355Y131860D01*
X219408Y131934D01*
X219468Y132004D01*
X219480Y132034D01*
X219499Y132060D01*
X219526Y132147D01*
X219560Y132232D01*
X219564Y132273D01*
X219571Y132295D01*
X219570Y132327D01*
X219578Y132398D01*
X219578Y136317D01*
X219575Y136337D01*
X219577Y136356D01*
X219555Y136458D01*
X219539Y136560D01*
X219529Y136577D01*
X219525Y136597D01*
X219472Y136686D01*
X219423Y136777D01*
X219409Y136791D01*
X219399Y136808D01*
X219320Y136875D01*
X219245Y136947D01*
X219227Y136955D01*
X219212Y136968D01*
X219116Y137007D01*
X219022Y137050D01*
X219002Y137052D01*
X218984Y137060D01*
X218817Y137078D01*
X217286Y137078D01*
X217266Y137075D01*
X217247Y137077D01*
X217145Y137055D01*
X217043Y137039D01*
X217026Y137029D01*
X217006Y137025D01*
X216917Y136972D01*
X216826Y136923D01*
X216812Y136909D01*
X216795Y136899D01*
X216728Y136820D01*
X216656Y136745D01*
X216648Y136727D01*
X216635Y136712D01*
X216596Y136616D01*
X216553Y136522D01*
X216551Y136502D01*
X216543Y136484D01*
X216525Y136317D01*
X216525Y132368D01*
X215632Y131475D01*
X204368Y131475D01*
X203475Y132368D01*
X203475Y142077D01*
X203461Y142168D01*
X203453Y142258D01*
X203441Y142288D01*
X203436Y142320D01*
X203393Y142401D01*
X203357Y142485D01*
X203331Y142517D01*
X203320Y142538D01*
X203297Y142560D01*
X203252Y142616D01*
X194436Y151432D01*
X194362Y151485D01*
X194292Y151545D01*
X194262Y151557D01*
X194236Y151576D01*
X194149Y151603D01*
X194064Y151637D01*
X194023Y151641D01*
X194001Y151648D01*
X193969Y151647D01*
X193897Y151655D01*
X182028Y151655D01*
X181135Y152548D01*
X181135Y158812D01*
X181465Y159142D01*
X181477Y159158D01*
X181493Y159170D01*
X181549Y159257D01*
X181609Y159341D01*
X181615Y159360D01*
X181626Y159377D01*
X181651Y159478D01*
X181681Y159577D01*
X181681Y159596D01*
X181686Y159616D01*
X181678Y159719D01*
X181675Y159822D01*
X181668Y159841D01*
X181667Y159861D01*
X181626Y159956D01*
X181591Y160053D01*
X181578Y160069D01*
X181570Y160087D01*
X181465Y160218D01*
X181135Y160548D01*
X181135Y166812D01*
X181465Y167142D01*
X181477Y167158D01*
X181493Y167170D01*
X181549Y167257D01*
X181609Y167341D01*
X181615Y167360D01*
X181626Y167377D01*
X181651Y167478D01*
X181681Y167577D01*
X181681Y167596D01*
X181686Y167616D01*
X181678Y167719D01*
X181675Y167822D01*
X181668Y167841D01*
X181667Y167861D01*
X181626Y167956D01*
X181591Y168053D01*
X181578Y168069D01*
X181570Y168087D01*
X181465Y168218D01*
X181135Y168548D01*
X181135Y168817D01*
X181132Y168837D01*
X181134Y168856D01*
X181112Y168958D01*
X181096Y169060D01*
X181086Y169077D01*
X181082Y169097D01*
X181029Y169186D01*
X180980Y169277D01*
X180966Y169291D01*
X180956Y169308D01*
X180877Y169375D01*
X180802Y169447D01*
X180784Y169455D01*
X180769Y169468D01*
X180673Y169507D01*
X180579Y169550D01*
X180559Y169552D01*
X180541Y169560D01*
X180374Y169578D01*
X166260Y169578D01*
X166254Y169583D01*
X166224Y169595D01*
X166198Y169614D01*
X166111Y169641D01*
X166026Y169675D01*
X165985Y169679D01*
X165963Y169686D01*
X165931Y169685D01*
X165859Y169693D01*
X162802Y169693D01*
X159693Y172802D01*
X159693Y177198D01*
X162802Y180307D01*
X167198Y180307D01*
X170307Y177198D01*
X170307Y176183D01*
X170310Y176163D01*
X170308Y176144D01*
X170330Y176042D01*
X170346Y175940D01*
X170356Y175923D01*
X170360Y175903D01*
X170413Y175814D01*
X170462Y175723D01*
X170476Y175709D01*
X170486Y175692D01*
X170565Y175625D01*
X170640Y175553D01*
X170658Y175545D01*
X170673Y175532D01*
X170769Y175493D01*
X170863Y175450D01*
X170883Y175448D01*
X170901Y175440D01*
X171068Y175422D01*
X180424Y175422D01*
X180495Y175433D01*
X180567Y175435D01*
X180616Y175453D01*
X180667Y175461D01*
X180730Y175495D01*
X180798Y175520D01*
X180838Y175552D01*
X180884Y175577D01*
X180934Y175629D01*
X180990Y175674D01*
X181018Y175717D01*
X181054Y175755D01*
X181084Y175820D01*
X181123Y175880D01*
X181135Y175931D01*
X181157Y175978D01*
X181165Y176049D01*
X181183Y176119D01*
X181179Y176171D01*
X181184Y176222D01*
X181169Y176293D01*
X181164Y176364D01*
X181143Y176412D01*
X181135Y176448D01*
X181135Y176917D01*
X181121Y177008D01*
X181113Y177098D01*
X181101Y177128D01*
X181096Y177160D01*
X181053Y177241D01*
X181017Y177325D01*
X180991Y177357D01*
X180980Y177378D01*
X180957Y177400D01*
X180912Y177456D01*
X176513Y181855D01*
X174578Y183790D01*
X174578Y216210D01*
X175724Y217356D01*
X175766Y217414D01*
X175815Y217466D01*
X175837Y217513D01*
X175867Y217555D01*
X175888Y217624D01*
X175919Y217689D01*
X175924Y217741D01*
X175940Y217791D01*
X175938Y217862D01*
X175946Y217933D01*
X175935Y217984D01*
X175933Y218036D01*
X175909Y218104D01*
X175893Y218174D01*
X175867Y218219D01*
X175849Y218267D01*
X175804Y218323D01*
X175767Y218385D01*
X175728Y218419D01*
X175695Y218459D01*
X175635Y218498D01*
X175580Y218545D01*
X175532Y218564D01*
X175488Y218592D01*
X175419Y218610D01*
X175352Y218637D01*
X175281Y218645D01*
X175250Y218653D01*
X175226Y218651D01*
X175186Y218655D01*
X171028Y218655D01*
X170698Y218985D01*
X170682Y218997D01*
X170670Y219013D01*
X170583Y219069D01*
X170499Y219129D01*
X170480Y219135D01*
X170463Y219146D01*
X170362Y219171D01*
X170263Y219201D01*
X170244Y219201D01*
X170224Y219206D01*
X170121Y219198D01*
X170018Y219195D01*
X169999Y219188D01*
X169979Y219187D01*
X169884Y219146D01*
X169787Y219111D01*
X169771Y219098D01*
X169753Y219090D01*
X169622Y218985D01*
X169292Y218655D01*
X168683Y218655D01*
X168663Y218652D01*
X168644Y218654D01*
X168542Y218632D01*
X168440Y218616D01*
X168423Y218606D01*
X168403Y218602D01*
X168314Y218549D01*
X168223Y218500D01*
X168209Y218486D01*
X168192Y218476D01*
X168125Y218397D01*
X168053Y218322D01*
X168045Y218304D01*
X168032Y218289D01*
X167993Y218193D01*
X167950Y218099D01*
X167948Y218079D01*
X167940Y218061D01*
X167922Y217894D01*
X167922Y217398D01*
X167936Y217308D01*
X167944Y217217D01*
X167956Y217188D01*
X167961Y217156D01*
X168004Y217075D01*
X168040Y216991D01*
X168066Y216959D01*
X168077Y216938D01*
X168100Y216916D01*
X168145Y216860D01*
X170307Y214698D01*
X170307Y210302D01*
X167198Y207193D01*
X162802Y207193D01*
X159693Y210302D01*
X159693Y214698D01*
X161855Y216860D01*
X161908Y216934D01*
X161968Y217004D01*
X161980Y217034D01*
X161999Y217060D01*
X162026Y217147D01*
X162060Y217232D01*
X162064Y217273D01*
X162071Y217295D01*
X162070Y217327D01*
X162078Y217398D01*
X162078Y217894D01*
X162075Y217914D01*
X162077Y217933D01*
X162055Y218035D01*
X162039Y218137D01*
X162029Y218154D01*
X162025Y218174D01*
X161972Y218263D01*
X161923Y218354D01*
X161909Y218368D01*
X161899Y218385D01*
X161820Y218452D01*
X161745Y218524D01*
X161727Y218532D01*
X161712Y218545D01*
X161616Y218584D01*
X161522Y218627D01*
X161502Y218629D01*
X161484Y218637D01*
X161317Y218655D01*
X155028Y218655D01*
X154698Y218985D01*
X154682Y218997D01*
X154670Y219013D01*
X154583Y219069D01*
X154499Y219129D01*
X154480Y219135D01*
X154463Y219146D01*
X154362Y219171D01*
X154263Y219201D01*
X154244Y219201D01*
X154224Y219206D01*
X154121Y219198D01*
X154018Y219195D01*
X153999Y219188D01*
X153979Y219187D01*
X153884Y219146D01*
X153787Y219111D01*
X153771Y219098D01*
X153753Y219090D01*
X153622Y218985D01*
X153292Y218655D01*
X147028Y218655D01*
X146698Y218985D01*
X146682Y218997D01*
X146670Y219013D01*
X146583Y219069D01*
X146499Y219129D01*
X146480Y219135D01*
X146463Y219146D01*
X146362Y219171D01*
X146263Y219201D01*
X146244Y219201D01*
X146224Y219206D01*
X146121Y219198D01*
X146018Y219195D01*
X145999Y219188D01*
X145979Y219187D01*
X145884Y219146D01*
X145787Y219111D01*
X145771Y219098D01*
X145753Y219090D01*
X145622Y218985D01*
X145292Y218655D01*
X139028Y218655D01*
X138698Y218985D01*
X138682Y218997D01*
X138670Y219013D01*
X138583Y219069D01*
X138499Y219129D01*
X138480Y219135D01*
X138463Y219146D01*
X138362Y219171D01*
X138263Y219201D01*
X138244Y219201D01*
X138224Y219206D01*
X138121Y219198D01*
X138018Y219195D01*
X137999Y219188D01*
X137979Y219187D01*
X137884Y219146D01*
X137787Y219111D01*
X137771Y219098D01*
X137753Y219090D01*
X137622Y218985D01*
X137292Y218655D01*
X136183Y218655D01*
X136163Y218652D01*
X136144Y218654D01*
X136042Y218632D01*
X135940Y218616D01*
X135923Y218606D01*
X135903Y218602D01*
X135814Y218549D01*
X135723Y218500D01*
X135709Y218486D01*
X135692Y218476D01*
X135625Y218397D01*
X135553Y218322D01*
X135545Y218304D01*
X135532Y218289D01*
X135493Y218193D01*
X135450Y218099D01*
X135448Y218079D01*
X135440Y218061D01*
X135422Y217894D01*
X135422Y217398D01*
X135436Y217308D01*
X135444Y217217D01*
X135456Y217188D01*
X135461Y217156D01*
X135504Y217075D01*
X135540Y216991D01*
X135566Y216959D01*
X135577Y216938D01*
X135600Y216916D01*
X135645Y216860D01*
X137807Y214698D01*
X137807Y210302D01*
X134698Y207193D01*
X130302Y207193D01*
X127193Y210302D01*
X127193Y214698D01*
X129355Y216860D01*
X129408Y216934D01*
X129468Y217004D01*
X129480Y217034D01*
X129499Y217060D01*
X129526Y217147D01*
X129560Y217232D01*
X129564Y217273D01*
X129571Y217295D01*
X129570Y217327D01*
X129578Y217398D01*
X129578Y217894D01*
X129575Y217914D01*
X129577Y217933D01*
X129555Y218035D01*
X129539Y218137D01*
X129529Y218154D01*
X129525Y218174D01*
X129472Y218263D01*
X129423Y218354D01*
X129409Y218368D01*
X129399Y218385D01*
X129320Y218452D01*
X129245Y218524D01*
X129227Y218532D01*
X129212Y218545D01*
X129116Y218584D01*
X129022Y218627D01*
X129002Y218629D01*
X128984Y218637D01*
X128817Y218655D01*
X123044Y218655D01*
X122954Y218641D01*
X122863Y218633D01*
X122833Y218621D01*
X122801Y218616D01*
X122720Y218573D01*
X122636Y218537D01*
X122604Y218511D01*
X122584Y218500D01*
X122561Y218477D01*
X122505Y218432D01*
X122220Y218147D01*
X121641Y217812D01*
X120994Y217639D01*
X119409Y217639D01*
X119409Y225692D01*
X119406Y225711D01*
X119408Y225731D01*
X119386Y225833D01*
X119370Y225935D01*
X119360Y225952D01*
X119356Y225972D01*
X119303Y226061D01*
X119254Y226152D01*
X119240Y226166D01*
X119230Y226183D01*
X119226Y226186D01*
X119278Y226240D01*
X119286Y226258D01*
X119299Y226273D01*
X119338Y226370D01*
X119381Y226463D01*
X119383Y226483D01*
X119391Y226501D01*
X119409Y226668D01*
X119409Y234721D01*
X120994Y234721D01*
X121641Y234548D01*
X122220Y234213D01*
X122505Y233928D01*
X122579Y233875D01*
X122649Y233815D01*
X122679Y233803D01*
X122705Y233784D01*
X122792Y233757D01*
X122877Y233723D01*
X122918Y233719D01*
X122940Y233712D01*
X122972Y233713D01*
X123044Y233705D01*
X124257Y233705D01*
X124348Y233719D01*
X124438Y233727D01*
X124468Y233739D01*
X124500Y233744D01*
X124581Y233787D01*
X124665Y233823D01*
X124697Y233849D01*
X124718Y233860D01*
X124740Y233883D01*
X124796Y233928D01*
X126970Y236102D01*
X127023Y236176D01*
X127083Y236246D01*
X127095Y236276D01*
X127114Y236302D01*
X127141Y236389D01*
X127175Y236474D01*
X127179Y236515D01*
X127186Y236537D01*
X127185Y236569D01*
X127193Y236641D01*
X127193Y239698D01*
X129836Y242341D01*
X129889Y242415D01*
X129949Y242485D01*
X129961Y242515D01*
X129980Y242541D01*
X130007Y242628D01*
X130041Y242713D01*
X130045Y242754D01*
X130052Y242776D01*
X130051Y242808D01*
X130059Y242879D01*
X130059Y246727D01*
X136577Y246727D01*
X136577Y241243D01*
X136592Y241153D01*
X136599Y241062D01*
X136611Y241033D01*
X136617Y241001D01*
X136659Y240920D01*
X136695Y240836D01*
X136721Y240804D01*
X136732Y240783D01*
X136755Y240761D01*
X136800Y240705D01*
X137807Y239698D01*
X137807Y235302D01*
X137289Y234784D01*
X137277Y234768D01*
X137262Y234755D01*
X137206Y234668D01*
X137145Y234584D01*
X137139Y234565D01*
X137129Y234548D01*
X137103Y234448D01*
X137073Y234349D01*
X137073Y234329D01*
X137069Y234310D01*
X137077Y234207D01*
X137079Y234103D01*
X137086Y234084D01*
X137088Y234065D01*
X137128Y233970D01*
X137164Y233872D01*
X137176Y233857D01*
X137184Y233838D01*
X137289Y233707D01*
X137622Y233375D01*
X137638Y233363D01*
X137650Y233347D01*
X137738Y233291D01*
X137821Y233231D01*
X137840Y233225D01*
X137857Y233214D01*
X137958Y233189D01*
X138057Y233159D01*
X138076Y233159D01*
X138096Y233154D01*
X138199Y233162D01*
X138302Y233165D01*
X138321Y233172D01*
X138341Y233173D01*
X138436Y233214D01*
X138533Y233249D01*
X138549Y233262D01*
X138567Y233270D01*
X138698Y233375D01*
X139028Y233705D01*
X145292Y233705D01*
X145622Y233375D01*
X145638Y233363D01*
X145650Y233347D01*
X145737Y233291D01*
X145821Y233231D01*
X145840Y233225D01*
X145857Y233214D01*
X145958Y233189D01*
X146057Y233159D01*
X146076Y233159D01*
X146096Y233154D01*
X146199Y233162D01*
X146302Y233165D01*
X146321Y233172D01*
X146341Y233173D01*
X146436Y233214D01*
X146533Y233249D01*
X146549Y233262D01*
X146567Y233270D01*
X146698Y233375D01*
X147028Y233705D01*
X153292Y233705D01*
X153622Y233375D01*
X153638Y233363D01*
X153650Y233347D01*
X153737Y233291D01*
X153821Y233231D01*
X153840Y233225D01*
X153857Y233214D01*
X153958Y233189D01*
X154057Y233159D01*
X154076Y233159D01*
X154096Y233154D01*
X154199Y233162D01*
X154302Y233165D01*
X154321Y233172D01*
X154341Y233173D01*
X154436Y233214D01*
X154533Y233249D01*
X154549Y233262D01*
X154567Y233270D01*
X154698Y233375D01*
X155028Y233705D01*
X156317Y233705D01*
X156337Y233708D01*
X156356Y233706D01*
X156458Y233728D01*
X156560Y233744D01*
X156577Y233754D01*
X156597Y233758D01*
X156686Y233811D01*
X156777Y233860D01*
X156791Y233874D01*
X156808Y233884D01*
X156875Y233963D01*
X156947Y234038D01*
X156955Y234056D01*
X156968Y234071D01*
X157007Y234167D01*
X157050Y234261D01*
X157052Y234281D01*
X157060Y234299D01*
X157078Y234466D01*
X157078Y236210D01*
X166290Y245422D01*
X208710Y245422D01*
X308487Y145645D01*
X308561Y145592D01*
X308631Y145532D01*
X308661Y145520D01*
X308687Y145501D01*
X308774Y145474D01*
X308859Y145440D01*
X308900Y145436D01*
X308922Y145429D01*
X308954Y145430D01*
X309026Y145422D01*
X311210Y145422D01*
X330987Y125645D01*
X332922Y123710D01*
X332922Y56290D01*
X293710Y17078D01*
X121290Y17078D01*
X97078Y41290D01*
X97078Y61109D01*
X97067Y61179D01*
X97065Y61251D01*
X97047Y61300D01*
X97039Y61351D01*
X97005Y61415D01*
X96980Y61482D01*
X96948Y61523D01*
X96923Y61569D01*
X96871Y61618D01*
X96827Y61674D01*
X96783Y61702D01*
X96745Y61738D01*
X96680Y61768D01*
X96620Y61807D01*
X96569Y61820D01*
X96522Y61842D01*
X96451Y61850D01*
X96381Y61867D01*
X96329Y61863D01*
X96278Y61869D01*
X96207Y61853D01*
X96136Y61848D01*
X96088Y61828D01*
X96037Y61816D01*
X95976Y61780D01*
X95910Y61752D01*
X95854Y61707D01*
X95826Y61690D01*
X95811Y61673D01*
X95779Y61647D01*
X91171Y57039D01*
X91159Y57022D01*
X91143Y57010D01*
X91087Y56923D01*
X91027Y56839D01*
X91021Y56820D01*
X91010Y56803D01*
X90985Y56703D01*
X90955Y56604D01*
X90955Y56584D01*
X90950Y56565D01*
X90958Y56462D01*
X90961Y56358D01*
X90968Y56339D01*
X90969Y56319D01*
X91010Y56224D01*
X91045Y56127D01*
X91058Y56111D01*
X91066Y56093D01*
X91171Y55962D01*
X95245Y51888D01*
X95245Y44312D01*
X89888Y38955D01*
X82312Y38955D01*
X76955Y44312D01*
X76955Y51888D01*
X82312Y57245D01*
X83817Y57245D01*
X83837Y57248D01*
X83856Y57246D01*
X83958Y57268D01*
X84060Y57284D01*
X84077Y57294D01*
X84097Y57298D01*
X84186Y57351D01*
X84277Y57400D01*
X84291Y57414D01*
X84308Y57424D01*
X84375Y57503D01*
X84447Y57578D01*
X84455Y57596D01*
X84468Y57611D01*
X84507Y57707D01*
X84550Y57801D01*
X84552Y57821D01*
X84560Y57839D01*
X84578Y58006D01*
X84578Y58710D01*
X88924Y63056D01*
X88966Y63114D01*
X89015Y63166D01*
X89037Y63213D01*
X89067Y63255D01*
X89088Y63324D01*
X89119Y63389D01*
X89124Y63441D01*
X89140Y63491D01*
X89138Y63562D01*
X89146Y63633D01*
X89135Y63684D01*
X89133Y63736D01*
X89109Y63804D01*
X89093Y63874D01*
X89067Y63919D01*
X89049Y63967D01*
X89004Y64023D01*
X88967Y64085D01*
X88928Y64119D01*
X88895Y64159D01*
X88835Y64198D01*
X88780Y64245D01*
X88732Y64264D01*
X88688Y64292D01*
X88619Y64310D01*
X88552Y64337D01*
X88481Y64345D01*
X88450Y64353D01*
X88426Y64351D01*
X88386Y64355D01*
X82312Y64355D01*
X77188Y69479D01*
X77172Y69491D01*
X77159Y69507D01*
X77072Y69563D01*
X76988Y69623D01*
X76969Y69629D01*
X76952Y69640D01*
X76852Y69665D01*
X76753Y69695D01*
X76733Y69695D01*
X76714Y69700D01*
X76611Y69692D01*
X76507Y69689D01*
X76489Y69682D01*
X76469Y69681D01*
X76374Y69640D01*
X76276Y69605D01*
X76261Y69592D01*
X76242Y69584D01*
X76111Y69479D01*
X65645Y59013D01*
X65592Y58939D01*
X65532Y58869D01*
X65520Y58839D01*
X65501Y58813D01*
X65474Y58726D01*
X65440Y58641D01*
X65436Y58600D01*
X65429Y58578D01*
X65430Y58546D01*
X65422Y58474D01*
X65422Y56626D01*
X65436Y56536D01*
X65444Y56445D01*
X65456Y56415D01*
X65461Y56383D01*
X65504Y56303D01*
X65540Y56219D01*
X65566Y56187D01*
X65577Y56166D01*
X65600Y56144D01*
X65645Y56088D01*
X69845Y51888D01*
X69845Y44312D01*
X64488Y38955D01*
X59514Y38955D01*
X59444Y38944D01*
X59372Y38942D01*
X59323Y38924D01*
X59272Y38916D01*
X59209Y38882D01*
X59141Y38857D01*
X59100Y38825D01*
X59054Y38800D01*
X59005Y38749D01*
X58949Y38704D01*
X58921Y38660D01*
X58885Y38622D01*
X58855Y38557D01*
X58816Y38497D01*
X58803Y38446D01*
X58781Y38399D01*
X58773Y38328D01*
X58756Y38258D01*
X58760Y38206D01*
X58754Y38155D01*
X58770Y38084D01*
X58775Y38013D01*
X58795Y37965D01*
X58807Y37914D01*
X58843Y37853D01*
X58871Y37787D01*
X58916Y37731D01*
X58933Y37703D01*
X58950Y37688D01*
X58976Y37656D01*
X66102Y30530D01*
X66176Y30477D01*
X66246Y30417D01*
X66276Y30405D01*
X66302Y30386D01*
X66389Y30359D01*
X66474Y30325D01*
X66515Y30321D01*
X66537Y30314D01*
X66569Y30315D01*
X66641Y30307D01*
X69698Y30307D01*
X72807Y27198D01*
X72807Y22802D01*
X69698Y19693D01*
X65302Y19693D01*
X62193Y22802D01*
X62193Y25859D01*
X62179Y25950D01*
X62171Y26040D01*
X62159Y26070D01*
X62154Y26102D01*
X62111Y26183D01*
X62075Y26267D01*
X62049Y26299D01*
X62038Y26320D01*
X62015Y26342D01*
X61970Y26398D01*
X51606Y36762D01*
X51548Y36804D01*
X51496Y36853D01*
X51449Y36875D01*
X51407Y36905D01*
X51338Y36926D01*
X51273Y36957D01*
X51221Y36962D01*
X51171Y36978D01*
X51100Y36976D01*
X51029Y36984D01*
X50978Y36973D01*
X50926Y36971D01*
X50858Y36947D01*
X50788Y36931D01*
X50744Y36905D01*
X50695Y36887D01*
X50639Y36842D01*
X50577Y36805D01*
X50543Y36766D01*
X50503Y36733D01*
X50464Y36673D01*
X50417Y36618D01*
X50398Y36570D01*
X50370Y36526D01*
X50352Y36457D01*
X50325Y36390D01*
X50317Y36319D01*
X50309Y36288D01*
X50311Y36264D01*
X50307Y36224D01*
X50307Y35302D01*
X47198Y32193D01*
X42802Y32193D01*
X39693Y35302D01*
X39693Y38359D01*
X39692Y38366D01*
X39692Y38367D01*
X39691Y38372D01*
X39679Y38450D01*
X39671Y38540D01*
X39659Y38570D01*
X39654Y38602D01*
X39611Y38683D01*
X39575Y38767D01*
X39549Y38799D01*
X39538Y38820D01*
X39515Y38842D01*
X39470Y38898D01*
X12222Y66146D01*
X12164Y66188D01*
X12112Y66237D01*
X12065Y66259D01*
X12023Y66289D01*
X11954Y66310D01*
X11889Y66341D01*
X11837Y66346D01*
X11787Y66362D01*
X11716Y66360D01*
X11645Y66368D01*
X11594Y66357D01*
X11542Y66355D01*
X11474Y66331D01*
X11404Y66315D01*
X11360Y66289D01*
X11311Y66271D01*
X11255Y66226D01*
X11193Y66189D01*
X11159Y66150D01*
X11119Y66117D01*
X11080Y66057D01*
X11033Y66002D01*
X11014Y65954D01*
X10986Y65910D01*
X10968Y65841D01*
X10941Y65774D01*
X10933Y65703D01*
X10925Y65672D01*
X10927Y65648D01*
X10923Y65608D01*
X10923Y39201D01*
X10930Y39156D01*
X10928Y39110D01*
X10950Y39035D01*
X10962Y38958D01*
X10984Y38918D01*
X10997Y38874D01*
X11041Y38810D01*
X11078Y38741D01*
X11111Y38709D01*
X11137Y38672D01*
X11200Y38625D01*
X11256Y38572D01*
X11298Y38552D01*
X11334Y38525D01*
X11408Y38501D01*
X11479Y38468D01*
X11525Y38463D01*
X11568Y38449D01*
X11646Y38450D01*
X11723Y38441D01*
X11768Y38451D01*
X11814Y38451D01*
X11946Y38489D01*
X11964Y38493D01*
X11968Y38496D01*
X11975Y38498D01*
X15990Y40161D01*
X24010Y40161D01*
X31420Y37091D01*
X37091Y31420D01*
X40161Y24010D01*
X40161Y15990D01*
X38498Y11975D01*
X38487Y11931D01*
X38468Y11889D01*
X38459Y11812D01*
X38442Y11736D01*
X38446Y11690D01*
X38441Y11645D01*
X38457Y11568D01*
X38465Y11491D01*
X38483Y11449D01*
X38493Y11404D01*
X38533Y11337D01*
X38565Y11266D01*
X38596Y11232D01*
X38619Y11193D01*
X38678Y11142D01*
X38731Y11085D01*
X38771Y11063D01*
X38806Y11033D01*
X38879Y11004D01*
X38947Y10967D01*
X38992Y10958D01*
X39034Y10941D01*
X39170Y10926D01*
X39189Y10923D01*
X39194Y10924D01*
X39201Y10923D01*
X310799Y10923D01*
X310844Y10930D01*
G37*
G36*
X50884Y46165D02*
X50884Y46165D01*
X50936Y46167D01*
X51004Y46191D01*
X51074Y46207D01*
X51119Y46233D01*
X51167Y46251D01*
X51223Y46296D01*
X51285Y46333D01*
X51319Y46372D01*
X51359Y46405D01*
X51398Y46465D01*
X51445Y46520D01*
X51464Y46568D01*
X51492Y46612D01*
X51510Y46681D01*
X51537Y46748D01*
X51545Y46819D01*
X51553Y46850D01*
X51551Y46874D01*
X51555Y46914D01*
X51555Y51888D01*
X56912Y57245D01*
X58817Y57245D01*
X58837Y57248D01*
X58856Y57246D01*
X58958Y57268D01*
X59060Y57284D01*
X59077Y57294D01*
X59097Y57298D01*
X59186Y57351D01*
X59277Y57400D01*
X59291Y57414D01*
X59308Y57424D01*
X59375Y57503D01*
X59447Y57578D01*
X59455Y57596D01*
X59468Y57611D01*
X59507Y57707D01*
X59550Y57801D01*
X59552Y57821D01*
X59560Y57839D01*
X59578Y58006D01*
X59578Y61210D01*
X60408Y62040D01*
X60450Y62098D01*
X60499Y62150D01*
X60521Y62197D01*
X60551Y62239D01*
X60572Y62308D01*
X60603Y62373D01*
X60608Y62425D01*
X60624Y62475D01*
X60622Y62546D01*
X60630Y62617D01*
X60619Y62668D01*
X60617Y62720D01*
X60593Y62788D01*
X60577Y62858D01*
X60551Y62903D01*
X60533Y62951D01*
X60488Y63007D01*
X60451Y63069D01*
X60412Y63103D01*
X60379Y63143D01*
X60319Y63182D01*
X60264Y63229D01*
X60216Y63248D01*
X60172Y63276D01*
X60103Y63294D01*
X60036Y63321D01*
X59965Y63329D01*
X59934Y63337D01*
X59910Y63335D01*
X59870Y63339D01*
X56491Y63339D01*
X50539Y69291D01*
X50539Y71977D01*
X59938Y71977D01*
X59958Y71980D01*
X59977Y71978D01*
X60079Y72000D01*
X60181Y72017D01*
X60198Y72026D01*
X60218Y72030D01*
X60307Y72083D01*
X60398Y72132D01*
X60412Y72146D01*
X60429Y72156D01*
X60496Y72235D01*
X60567Y72310D01*
X60576Y72328D01*
X60589Y72343D01*
X60627Y72439D01*
X60671Y72533D01*
X60673Y72553D01*
X60681Y72571D01*
X60699Y72738D01*
X60699Y73501D01*
X61462Y73501D01*
X61482Y73504D01*
X61501Y73502D01*
X61603Y73524D01*
X61705Y73541D01*
X61722Y73550D01*
X61742Y73554D01*
X61831Y73607D01*
X61922Y73656D01*
X61936Y73670D01*
X61953Y73680D01*
X62020Y73759D01*
X62091Y73834D01*
X62100Y73852D01*
X62113Y73867D01*
X62152Y73963D01*
X62195Y74057D01*
X62197Y74077D01*
X62205Y74095D01*
X62223Y74262D01*
X62223Y81538D01*
X62204Y81655D01*
X62186Y81773D01*
X62184Y81777D01*
X62183Y81781D01*
X62128Y81887D01*
X62073Y81992D01*
X62070Y81995D01*
X62068Y81998D01*
X61982Y82080D01*
X61897Y82163D01*
X61893Y82165D01*
X61890Y82168D01*
X61782Y82218D01*
X61675Y82269D01*
X61671Y82270D01*
X61667Y82271D01*
X61549Y82284D01*
X61431Y82299D01*
X61426Y82298D01*
X61422Y82298D01*
X61409Y82296D01*
X61265Y82274D01*
X59741Y81865D01*
X59701Y81847D01*
X59658Y81838D01*
X59590Y81797D01*
X59517Y81764D01*
X59485Y81734D01*
X59447Y81712D01*
X59395Y81651D01*
X59337Y81597D01*
X59316Y81558D01*
X59287Y81525D01*
X59257Y81451D01*
X59219Y81380D01*
X59212Y81337D01*
X59195Y81297D01*
X59179Y81152D01*
X59177Y81138D01*
X59177Y81135D01*
X59177Y81130D01*
X59177Y75023D01*
X50539Y75023D01*
X50539Y77709D01*
X53370Y80540D01*
X53412Y80598D01*
X53462Y80650D01*
X53483Y80697D01*
X53514Y80739D01*
X53535Y80808D01*
X53565Y80873D01*
X53571Y80925D01*
X53586Y80975D01*
X53584Y81046D01*
X53592Y81117D01*
X53581Y81168D01*
X53580Y81220D01*
X53555Y81288D01*
X53540Y81358D01*
X53513Y81403D01*
X53495Y81451D01*
X53451Y81507D01*
X53414Y81569D01*
X53374Y81603D01*
X53342Y81643D01*
X53281Y81682D01*
X53227Y81729D01*
X53179Y81748D01*
X53135Y81776D01*
X53065Y81794D01*
X52999Y81821D01*
X52927Y81829D01*
X52896Y81837D01*
X52873Y81835D01*
X52832Y81839D01*
X52756Y81839D01*
X46102Y83622D01*
X40137Y87066D01*
X35266Y91937D01*
X31822Y97902D01*
X30039Y104556D01*
X30039Y111444D01*
X31822Y118098D01*
X35266Y124063D01*
X40137Y128934D01*
X46102Y132378D01*
X52756Y134161D01*
X59644Y134161D01*
X66298Y132378D01*
X72263Y128934D01*
X77134Y124063D01*
X80578Y118098D01*
X82361Y111444D01*
X82361Y104556D01*
X82285Y104273D01*
X82273Y104154D01*
X82260Y104037D01*
X82261Y104032D01*
X82260Y104028D01*
X82287Y103912D01*
X82312Y103796D01*
X82314Y103793D01*
X82315Y103789D01*
X82379Y103685D01*
X82438Y103585D01*
X82442Y103582D01*
X82444Y103579D01*
X82535Y103502D01*
X82625Y103425D01*
X82629Y103424D01*
X82632Y103421D01*
X82742Y103378D01*
X82854Y103333D01*
X82858Y103333D01*
X82862Y103331D01*
X82875Y103331D01*
X83020Y103315D01*
X83817Y103315D01*
X83837Y103318D01*
X83856Y103316D01*
X83958Y103338D01*
X84060Y103354D01*
X84077Y103364D01*
X84097Y103368D01*
X84186Y103421D01*
X84277Y103470D01*
X84291Y103484D01*
X84308Y103494D01*
X84375Y103573D01*
X84447Y103648D01*
X84455Y103666D01*
X84468Y103681D01*
X84507Y103777D01*
X84550Y103871D01*
X84552Y103891D01*
X84560Y103909D01*
X84578Y104076D01*
X84578Y176432D01*
X84575Y176452D01*
X84577Y176471D01*
X84555Y176573D01*
X84539Y176675D01*
X84529Y176692D01*
X84525Y176712D01*
X84472Y176801D01*
X84423Y176892D01*
X84409Y176906D01*
X84399Y176923D01*
X84320Y176990D01*
X84245Y177062D01*
X84227Y177070D01*
X84212Y177083D01*
X84116Y177122D01*
X84022Y177165D01*
X84002Y177167D01*
X83984Y177175D01*
X83817Y177193D01*
X80302Y177193D01*
X77193Y180302D01*
X77193Y184698D01*
X79355Y186860D01*
X79408Y186934D01*
X79468Y187004D01*
X79480Y187034D01*
X79499Y187060D01*
X79526Y187147D01*
X79560Y187232D01*
X79564Y187273D01*
X79571Y187295D01*
X79570Y187327D01*
X79578Y187398D01*
X79578Y190236D01*
X79567Y190306D01*
X79565Y190378D01*
X79547Y190427D01*
X79539Y190478D01*
X79505Y190542D01*
X79480Y190609D01*
X79448Y190650D01*
X79423Y190696D01*
X79371Y190745D01*
X79327Y190801D01*
X79283Y190829D01*
X79245Y190865D01*
X79180Y190895D01*
X79120Y190934D01*
X79069Y190947D01*
X79022Y190969D01*
X78951Y190977D01*
X78881Y190994D01*
X78829Y190990D01*
X78778Y190996D01*
X78707Y190981D01*
X78636Y190975D01*
X78588Y190955D01*
X78537Y190944D01*
X78476Y190907D01*
X78410Y190879D01*
X78354Y190834D01*
X78326Y190817D01*
X78311Y190800D01*
X78279Y190774D01*
X77198Y189693D01*
X72802Y189693D01*
X69693Y192802D01*
X69693Y197198D01*
X72802Y200307D01*
X73359Y200307D01*
X73450Y200321D01*
X73540Y200329D01*
X73570Y200341D01*
X73602Y200346D01*
X73683Y200389D01*
X73767Y200425D01*
X73799Y200451D01*
X73820Y200462D01*
X73842Y200485D01*
X73898Y200530D01*
X76855Y203487D01*
X76908Y203561D01*
X76968Y203631D01*
X76980Y203661D01*
X76999Y203687D01*
X77026Y203774D01*
X77060Y203859D01*
X77064Y203900D01*
X77071Y203922D01*
X77070Y203954D01*
X77078Y204026D01*
X77078Y221698D01*
X77075Y221718D01*
X77077Y221737D01*
X77055Y221839D01*
X77039Y221941D01*
X77029Y221958D01*
X77025Y221978D01*
X76972Y222067D01*
X76923Y222158D01*
X76909Y222172D01*
X76899Y222189D01*
X76820Y222256D01*
X76745Y222328D01*
X76727Y222336D01*
X76712Y222349D01*
X76616Y222388D01*
X76522Y222431D01*
X76502Y222433D01*
X76484Y222441D01*
X76317Y222459D01*
X73023Y222459D01*
X73023Y228477D01*
X76317Y228477D01*
X76337Y228480D01*
X76356Y228478D01*
X76458Y228500D01*
X76560Y228517D01*
X76577Y228526D01*
X76597Y228530D01*
X76686Y228583D01*
X76777Y228632D01*
X76791Y228646D01*
X76808Y228656D01*
X76875Y228735D01*
X76947Y228810D01*
X76955Y228828D01*
X76968Y228843D01*
X77007Y228939D01*
X77050Y229033D01*
X77052Y229053D01*
X77060Y229071D01*
X77078Y229238D01*
X77078Y230762D01*
X77075Y230782D01*
X77077Y230801D01*
X77055Y230903D01*
X77039Y231005D01*
X77029Y231022D01*
X77025Y231042D01*
X76972Y231131D01*
X76923Y231222D01*
X76909Y231236D01*
X76899Y231253D01*
X76820Y231320D01*
X76745Y231391D01*
X76727Y231400D01*
X76712Y231413D01*
X76616Y231452D01*
X76522Y231495D01*
X76502Y231497D01*
X76484Y231505D01*
X76317Y231523D01*
X73023Y231523D01*
X73023Y237541D01*
X76317Y237541D01*
X76337Y237544D01*
X76356Y237542D01*
X76458Y237564D01*
X76560Y237580D01*
X76577Y237590D01*
X76597Y237594D01*
X76686Y237647D01*
X76777Y237696D01*
X76791Y237710D01*
X76808Y237720D01*
X76875Y237799D01*
X76947Y237874D01*
X76955Y237892D01*
X76968Y237907D01*
X77007Y238003D01*
X77050Y238097D01*
X77052Y238117D01*
X77060Y238135D01*
X77078Y238302D01*
X77078Y251698D01*
X77075Y251718D01*
X77077Y251737D01*
X77055Y251839D01*
X77039Y251941D01*
X77029Y251958D01*
X77025Y251978D01*
X76972Y252067D01*
X76923Y252158D01*
X76909Y252172D01*
X76899Y252189D01*
X76820Y252256D01*
X76745Y252328D01*
X76727Y252336D01*
X76712Y252349D01*
X76616Y252388D01*
X76522Y252431D01*
X76502Y252433D01*
X76484Y252441D01*
X76317Y252459D01*
X73023Y252459D01*
X73023Y258477D01*
X76317Y258477D01*
X76337Y258480D01*
X76356Y258478D01*
X76458Y258500D01*
X76560Y258517D01*
X76577Y258526D01*
X76597Y258530D01*
X76686Y258583D01*
X76777Y258632D01*
X76791Y258646D01*
X76808Y258656D01*
X76875Y258735D01*
X76947Y258810D01*
X76955Y258828D01*
X76968Y258843D01*
X77007Y258939D01*
X77050Y259033D01*
X77052Y259053D01*
X77060Y259071D01*
X77078Y259238D01*
X77078Y260762D01*
X77075Y260782D01*
X77077Y260801D01*
X77055Y260903D01*
X77039Y261005D01*
X77029Y261022D01*
X77025Y261042D01*
X76972Y261131D01*
X76923Y261222D01*
X76909Y261236D01*
X76899Y261253D01*
X76820Y261320D01*
X76745Y261391D01*
X76727Y261400D01*
X76712Y261413D01*
X76616Y261452D01*
X76522Y261495D01*
X76502Y261497D01*
X76484Y261505D01*
X76317Y261523D01*
X73023Y261523D01*
X73023Y267541D01*
X73990Y267541D01*
X74060Y267552D01*
X74132Y267554D01*
X74181Y267572D01*
X74232Y267580D01*
X74296Y267614D01*
X74363Y267639D01*
X74404Y267671D01*
X74450Y267696D01*
X74499Y267748D01*
X74555Y267792D01*
X74583Y267836D01*
X74619Y267874D01*
X74649Y267939D01*
X74688Y267999D01*
X74701Y268050D01*
X74723Y268097D01*
X74731Y268168D01*
X74748Y268238D01*
X74744Y268290D01*
X74750Y268341D01*
X74734Y268412D01*
X74729Y268483D01*
X74709Y268531D01*
X74697Y268582D01*
X74661Y268643D01*
X74633Y268709D01*
X74588Y268765D01*
X74571Y268793D01*
X74554Y268808D01*
X74528Y268840D01*
X59013Y284355D01*
X58939Y284408D01*
X58869Y284468D01*
X58839Y284480D01*
X58813Y284499D01*
X58726Y284526D01*
X58641Y284560D01*
X58600Y284564D01*
X58578Y284571D01*
X58546Y284570D01*
X58474Y284578D01*
X43790Y284578D01*
X42078Y286290D01*
X42078Y306210D01*
X46312Y310444D01*
X46365Y310518D01*
X46425Y310588D01*
X46437Y310618D01*
X46456Y310644D01*
X46483Y310731D01*
X46517Y310816D01*
X46521Y310857D01*
X46528Y310879D01*
X46527Y310911D01*
X46535Y310983D01*
X46535Y314017D01*
X46521Y314108D01*
X46513Y314198D01*
X46501Y314228D01*
X46496Y314260D01*
X46453Y314341D01*
X46417Y314425D01*
X46391Y314457D01*
X46380Y314478D01*
X46357Y314500D01*
X46312Y314556D01*
X24578Y336290D01*
X24578Y371109D01*
X24567Y371179D01*
X24565Y371251D01*
X24547Y371300D01*
X24539Y371351D01*
X24505Y371415D01*
X24480Y371482D01*
X24448Y371523D01*
X24423Y371569D01*
X24371Y371618D01*
X24327Y371674D01*
X24283Y371702D01*
X24245Y371738D01*
X24180Y371768D01*
X24120Y371807D01*
X24069Y371820D01*
X24022Y371842D01*
X23951Y371850D01*
X23881Y371867D01*
X23829Y371863D01*
X23778Y371869D01*
X23707Y371853D01*
X23636Y371848D01*
X23588Y371828D01*
X23537Y371816D01*
X23476Y371780D01*
X23410Y371752D01*
X23354Y371707D01*
X23326Y371690D01*
X23311Y371673D01*
X23279Y371647D01*
X20645Y369013D01*
X20592Y368939D01*
X20532Y368869D01*
X20520Y368839D01*
X20501Y368813D01*
X20474Y368726D01*
X20440Y368641D01*
X20436Y368600D01*
X20429Y368578D01*
X20430Y368546D01*
X20422Y368474D01*
X20422Y259026D01*
X20436Y258935D01*
X20444Y258845D01*
X20456Y258815D01*
X20461Y258783D01*
X20504Y258702D01*
X20540Y258618D01*
X20566Y258586D01*
X20577Y258565D01*
X20600Y258543D01*
X20645Y258487D01*
X36102Y243030D01*
X36176Y242977D01*
X36246Y242917D01*
X36276Y242905D01*
X36302Y242886D01*
X36389Y242859D01*
X36474Y242825D01*
X36515Y242821D01*
X36537Y242814D01*
X36569Y242815D01*
X36641Y242807D01*
X39698Y242807D01*
X40779Y241726D01*
X40837Y241684D01*
X40889Y241635D01*
X40936Y241613D01*
X40978Y241583D01*
X41047Y241561D01*
X41112Y241531D01*
X41164Y241526D01*
X41214Y241510D01*
X41285Y241512D01*
X41356Y241504D01*
X41407Y241515D01*
X41459Y241517D01*
X41527Y241541D01*
X41597Y241556D01*
X41642Y241583D01*
X41690Y241601D01*
X41746Y241646D01*
X41808Y241683D01*
X41842Y241722D01*
X41882Y241755D01*
X41921Y241815D01*
X41968Y241870D01*
X41987Y241918D01*
X42015Y241962D01*
X42033Y242031D01*
X42060Y242098D01*
X42068Y242169D01*
X42076Y242200D01*
X42074Y242223D01*
X42078Y242264D01*
X42078Y272602D01*
X42064Y272692D01*
X42056Y272783D01*
X42044Y272812D01*
X42039Y272844D01*
X41996Y272925D01*
X41960Y273009D01*
X41934Y273041D01*
X41923Y273062D01*
X41900Y273084D01*
X41855Y273140D01*
X39693Y275302D01*
X39693Y279698D01*
X42802Y282807D01*
X47198Y282807D01*
X50307Y279698D01*
X50307Y275302D01*
X48145Y273140D01*
X48092Y273066D01*
X48032Y272996D01*
X48020Y272966D01*
X48001Y272940D01*
X47974Y272853D01*
X47940Y272768D01*
X47936Y272727D01*
X47929Y272705D01*
X47930Y272673D01*
X47922Y272602D01*
X47922Y223790D01*
X45987Y221855D01*
X28238Y204106D01*
X28196Y204048D01*
X28147Y203996D01*
X28125Y203949D01*
X28095Y203907D01*
X28074Y203838D01*
X28043Y203773D01*
X28038Y203721D01*
X28022Y203671D01*
X28024Y203600D01*
X28016Y203529D01*
X28027Y203478D01*
X28029Y203426D01*
X28053Y203358D01*
X28069Y203288D01*
X28095Y203243D01*
X28113Y203195D01*
X28158Y203139D01*
X28195Y203077D01*
X28234Y203043D01*
X28267Y203003D01*
X28327Y202964D01*
X28382Y202917D01*
X28430Y202898D01*
X28474Y202870D01*
X28543Y202852D01*
X28610Y202825D01*
X28681Y202817D01*
X28712Y202809D01*
X28736Y202811D01*
X28776Y202807D01*
X29698Y202807D01*
X32807Y199698D01*
X32807Y195302D01*
X30645Y193140D01*
X30592Y193066D01*
X30532Y192996D01*
X30520Y192966D01*
X30501Y192940D01*
X30474Y192853D01*
X30440Y192768D01*
X30436Y192727D01*
X30429Y192705D01*
X30430Y192673D01*
X30422Y192602D01*
X30422Y154898D01*
X30436Y154808D01*
X30444Y154717D01*
X30456Y154688D01*
X30461Y154656D01*
X30504Y154575D01*
X30540Y154491D01*
X30566Y154459D01*
X30577Y154438D01*
X30600Y154416D01*
X30645Y154360D01*
X32807Y152198D01*
X32807Y147802D01*
X29698Y144693D01*
X25302Y144693D01*
X22193Y147802D01*
X22193Y152198D01*
X24355Y154360D01*
X24408Y154434D01*
X24468Y154504D01*
X24480Y154534D01*
X24499Y154560D01*
X24526Y154647D01*
X24560Y154732D01*
X24564Y154773D01*
X24571Y154795D01*
X24570Y154827D01*
X24578Y154898D01*
X24578Y192602D01*
X24564Y192692D01*
X24556Y192783D01*
X24544Y192812D01*
X24539Y192844D01*
X24496Y192925D01*
X24460Y193009D01*
X24434Y193041D01*
X24423Y193062D01*
X24400Y193084D01*
X24355Y193140D01*
X22193Y195302D01*
X22193Y196224D01*
X22182Y196294D01*
X22180Y196366D01*
X22162Y196415D01*
X22154Y196466D01*
X22120Y196530D01*
X22095Y196597D01*
X22063Y196638D01*
X22038Y196684D01*
X21987Y196733D01*
X21942Y196789D01*
X21898Y196817D01*
X21860Y196853D01*
X21795Y196883D01*
X21735Y196922D01*
X21684Y196935D01*
X21637Y196957D01*
X21566Y196965D01*
X21496Y196982D01*
X21444Y196978D01*
X21393Y196984D01*
X21322Y196968D01*
X21251Y196963D01*
X21203Y196943D01*
X21152Y196931D01*
X21091Y196895D01*
X21025Y196867D01*
X20969Y196822D01*
X20941Y196805D01*
X20926Y196788D01*
X20894Y196762D01*
X20645Y196513D01*
X20592Y196439D01*
X20532Y196369D01*
X20520Y196339D01*
X20501Y196313D01*
X20474Y196226D01*
X20440Y196141D01*
X20436Y196100D01*
X20429Y196078D01*
X20430Y196046D01*
X20422Y195974D01*
X20422Y76526D01*
X20436Y76435D01*
X20444Y76345D01*
X20456Y76315D01*
X20461Y76283D01*
X20504Y76202D01*
X20540Y76118D01*
X20566Y76086D01*
X20577Y76065D01*
X20600Y76043D01*
X20645Y75987D01*
X50256Y46376D01*
X50314Y46334D01*
X50366Y46285D01*
X50413Y46263D01*
X50455Y46233D01*
X50524Y46212D01*
X50589Y46181D01*
X50641Y46176D01*
X50691Y46160D01*
X50762Y46162D01*
X50833Y46154D01*
X50884Y46165D01*
G37*
%LPC*%
G36*
X128868Y326975D02*
X128868Y326975D01*
X127975Y327868D01*
X127975Y339132D01*
X128868Y340025D01*
X135577Y340025D01*
X135668Y340039D01*
X135758Y340047D01*
X135788Y340059D01*
X135820Y340064D01*
X135901Y340107D01*
X135985Y340143D01*
X136017Y340169D01*
X136038Y340180D01*
X136060Y340203D01*
X136116Y340248D01*
X136855Y340987D01*
X136908Y341061D01*
X136968Y341131D01*
X136980Y341161D01*
X136999Y341187D01*
X137026Y341274D01*
X137060Y341359D01*
X137064Y341400D01*
X137071Y341422D01*
X137070Y341454D01*
X137078Y341526D01*
X137078Y346214D01*
X137075Y346234D01*
X137077Y346253D01*
X137055Y346355D01*
X137039Y346457D01*
X137029Y346474D01*
X137025Y346494D01*
X136972Y346583D01*
X136923Y346674D01*
X136909Y346688D01*
X136899Y346705D01*
X136820Y346772D01*
X136745Y346844D01*
X136727Y346852D01*
X136712Y346865D01*
X136616Y346904D01*
X136522Y346947D01*
X136502Y346949D01*
X136484Y346957D01*
X136317Y346975D01*
X135368Y346975D01*
X134475Y347868D01*
X134475Y357132D01*
X135368Y358025D01*
X143932Y358025D01*
X143952Y358028D01*
X143971Y358026D01*
X144073Y358048D01*
X144175Y358064D01*
X144192Y358074D01*
X144212Y358078D01*
X144301Y358131D01*
X144392Y358180D01*
X144406Y358194D01*
X144423Y358204D01*
X144490Y358283D01*
X144562Y358358D01*
X144570Y358376D01*
X144583Y358391D01*
X144622Y358487D01*
X144665Y358581D01*
X144667Y358601D01*
X144675Y358619D01*
X144693Y358786D01*
X144693Y359698D01*
X146957Y361962D01*
X146968Y361978D01*
X146984Y361990D01*
X147040Y362078D01*
X147100Y362161D01*
X147106Y362180D01*
X147117Y362197D01*
X147142Y362298D01*
X147173Y362397D01*
X147172Y362416D01*
X147177Y362436D01*
X147169Y362539D01*
X147166Y362642D01*
X147160Y362661D01*
X147158Y362681D01*
X147118Y362776D01*
X147082Y362873D01*
X147069Y362889D01*
X147062Y362907D01*
X146957Y363038D01*
X146824Y363171D01*
X146766Y363213D01*
X146714Y363262D01*
X146667Y363284D01*
X146625Y363314D01*
X146556Y363335D01*
X146491Y363366D01*
X146439Y363371D01*
X146389Y363387D01*
X146318Y363385D01*
X146247Y363393D01*
X146196Y363382D01*
X146144Y363380D01*
X146076Y363356D01*
X146006Y363341D01*
X145962Y363314D01*
X145913Y363296D01*
X145857Y363251D01*
X145795Y363214D01*
X145761Y363175D01*
X145721Y363142D01*
X145682Y363082D01*
X145635Y363027D01*
X145616Y362979D01*
X145588Y362935D01*
X145586Y362930D01*
X144632Y361975D01*
X135368Y361975D01*
X134475Y362868D01*
X134475Y372132D01*
X135368Y373025D01*
X144632Y373025D01*
X145600Y372057D01*
X145623Y371994D01*
X145655Y371953D01*
X145680Y371907D01*
X145732Y371858D01*
X145776Y371802D01*
X145820Y371774D01*
X145858Y371738D01*
X145923Y371708D01*
X145983Y371669D01*
X146034Y371656D01*
X146081Y371634D01*
X146152Y371626D01*
X146222Y371609D01*
X146274Y371613D01*
X146325Y371607D01*
X146396Y371622D01*
X146467Y371628D01*
X146515Y371648D01*
X146566Y371659D01*
X146627Y371696D01*
X146693Y371724D01*
X146749Y371769D01*
X146777Y371786D01*
X146792Y371803D01*
X146824Y371829D01*
X147802Y372807D01*
X152198Y372807D01*
X153176Y371829D01*
X153234Y371787D01*
X153286Y371738D01*
X153333Y371716D01*
X153375Y371686D01*
X153444Y371664D01*
X153509Y371634D01*
X153561Y371629D01*
X153611Y371613D01*
X153682Y371615D01*
X153753Y371607D01*
X153804Y371618D01*
X153856Y371620D01*
X153924Y371644D01*
X153994Y371659D01*
X154039Y371686D01*
X154087Y371704D01*
X154143Y371749D01*
X154205Y371786D01*
X154239Y371825D01*
X154279Y371858D01*
X154318Y371918D01*
X154365Y371973D01*
X154384Y372021D01*
X154412Y372065D01*
X154414Y372070D01*
X155368Y373025D01*
X164632Y373025D01*
X165525Y372132D01*
X165525Y362868D01*
X164632Y361975D01*
X158923Y361975D01*
X158832Y361961D01*
X158742Y361953D01*
X158712Y361941D01*
X158680Y361936D01*
X158599Y361893D01*
X158515Y361857D01*
X158483Y361831D01*
X158462Y361820D01*
X158440Y361797D01*
X158384Y361752D01*
X155956Y359324D01*
X155914Y359266D01*
X155865Y359214D01*
X155843Y359167D01*
X155813Y359125D01*
X155792Y359056D01*
X155761Y358991D01*
X155756Y358939D01*
X155740Y358889D01*
X155742Y358818D01*
X155734Y358747D01*
X155745Y358696D01*
X155747Y358644D01*
X155771Y358576D01*
X155787Y358506D01*
X155813Y358462D01*
X155831Y358413D01*
X155876Y358357D01*
X155913Y358295D01*
X155952Y358261D01*
X155985Y358221D01*
X156045Y358182D01*
X156100Y358135D01*
X156148Y358116D01*
X156192Y358088D01*
X156261Y358070D01*
X156328Y358043D01*
X156399Y358035D01*
X156430Y358027D01*
X156454Y358029D01*
X156494Y358025D01*
X164632Y358025D01*
X165525Y357132D01*
X165525Y347868D01*
X164632Y346975D01*
X163683Y346975D01*
X163663Y346972D01*
X163644Y346974D01*
X163542Y346952D01*
X163440Y346936D01*
X163423Y346926D01*
X163403Y346922D01*
X163314Y346869D01*
X163223Y346820D01*
X163209Y346806D01*
X163192Y346796D01*
X163125Y346717D01*
X163053Y346642D01*
X163045Y346624D01*
X163032Y346609D01*
X162993Y346513D01*
X162950Y346419D01*
X162948Y346399D01*
X162940Y346381D01*
X162922Y346214D01*
X162922Y340786D01*
X162925Y340766D01*
X162923Y340747D01*
X162945Y340645D01*
X162961Y340543D01*
X162971Y340526D01*
X162975Y340506D01*
X163028Y340417D01*
X163077Y340326D01*
X163091Y340312D01*
X163101Y340295D01*
X163180Y340228D01*
X163255Y340156D01*
X163273Y340148D01*
X163288Y340135D01*
X163384Y340096D01*
X163478Y340053D01*
X163498Y340051D01*
X163516Y340043D01*
X163683Y340025D01*
X166132Y340025D01*
X167025Y339132D01*
X167025Y327868D01*
X166132Y326975D01*
X153868Y326975D01*
X152975Y327868D01*
X152975Y339132D01*
X153868Y340025D01*
X156317Y340025D01*
X156337Y340028D01*
X156356Y340026D01*
X156458Y340048D01*
X156560Y340064D01*
X156577Y340074D01*
X156597Y340078D01*
X156686Y340131D01*
X156777Y340180D01*
X156791Y340194D01*
X156808Y340204D01*
X156875Y340283D01*
X156947Y340358D01*
X156955Y340376D01*
X156968Y340391D01*
X157007Y340487D01*
X157050Y340581D01*
X157052Y340601D01*
X157060Y340619D01*
X157078Y340786D01*
X157078Y346214D01*
X157075Y346234D01*
X157077Y346253D01*
X157055Y346355D01*
X157039Y346457D01*
X157029Y346474D01*
X157025Y346494D01*
X156972Y346583D01*
X156923Y346674D01*
X156909Y346688D01*
X156899Y346705D01*
X156820Y346772D01*
X156745Y346844D01*
X156727Y346852D01*
X156712Y346865D01*
X156616Y346904D01*
X156522Y346947D01*
X156502Y346949D01*
X156484Y346957D01*
X156317Y346975D01*
X155368Y346975D01*
X154475Y347868D01*
X154475Y352633D01*
X154464Y352703D01*
X154462Y352775D01*
X154444Y352824D01*
X154436Y352875D01*
X154402Y352939D01*
X154377Y353006D01*
X154345Y353047D01*
X154320Y353093D01*
X154268Y353142D01*
X154224Y353198D01*
X154180Y353226D01*
X154142Y353262D01*
X154077Y353292D01*
X154017Y353331D01*
X153966Y353344D01*
X153919Y353366D01*
X153848Y353374D01*
X153778Y353391D01*
X153726Y353387D01*
X153675Y353393D01*
X153604Y353378D01*
X153533Y353372D01*
X153485Y353352D01*
X153434Y353341D01*
X153373Y353304D01*
X153307Y353276D01*
X153251Y353231D01*
X153223Y353214D01*
X153208Y353197D01*
X153176Y353171D01*
X152198Y352193D01*
X147802Y352193D01*
X146824Y353171D01*
X146766Y353213D01*
X146714Y353262D01*
X146667Y353284D01*
X146625Y353314D01*
X146556Y353336D01*
X146491Y353366D01*
X146439Y353371D01*
X146389Y353387D01*
X146318Y353385D01*
X146247Y353393D01*
X146196Y353382D01*
X146144Y353380D01*
X146076Y353356D01*
X146006Y353341D01*
X145961Y353314D01*
X145913Y353296D01*
X145857Y353251D01*
X145795Y353214D01*
X145761Y353175D01*
X145721Y353142D01*
X145682Y353082D01*
X145635Y353027D01*
X145616Y352979D01*
X145588Y352935D01*
X145570Y352866D01*
X145543Y352799D01*
X145535Y352728D01*
X145527Y352697D01*
X145529Y352674D01*
X145525Y352633D01*
X145525Y347868D01*
X144632Y346975D01*
X143683Y346975D01*
X143663Y346972D01*
X143644Y346974D01*
X143542Y346952D01*
X143440Y346936D01*
X143423Y346926D01*
X143403Y346922D01*
X143314Y346869D01*
X143223Y346820D01*
X143209Y346806D01*
X143192Y346796D01*
X143125Y346717D01*
X143053Y346642D01*
X143045Y346624D01*
X143032Y346609D01*
X142993Y346513D01*
X142950Y346419D01*
X142948Y346399D01*
X142940Y346381D01*
X142922Y346214D01*
X142922Y338790D01*
X142248Y338116D01*
X142195Y338042D01*
X142135Y337972D01*
X142123Y337942D01*
X142104Y337916D01*
X142077Y337829D01*
X142043Y337744D01*
X142039Y337703D01*
X142032Y337681D01*
X142033Y337649D01*
X142025Y337577D01*
X142025Y327868D01*
X141132Y326975D01*
X128868Y326975D01*
G37*
%LPD*%
%LPC*%
G36*
X305216Y270735D02*
X305216Y270735D01*
X302252Y271963D01*
X299983Y274232D01*
X298755Y277196D01*
X298755Y280404D01*
X299983Y283368D01*
X302252Y285637D01*
X305216Y286865D01*
X321504Y286865D01*
X324468Y285637D01*
X326737Y283368D01*
X327965Y280404D01*
X327965Y277196D01*
X326737Y274232D01*
X324468Y271963D01*
X321504Y270735D01*
X305216Y270735D01*
G37*
%LPD*%
%LPC*%
G36*
X158312Y402755D02*
X158312Y402755D01*
X152955Y408112D01*
X152955Y415688D01*
X158312Y421045D01*
X165888Y421045D01*
X171245Y415688D01*
X171245Y408112D01*
X165888Y402755D01*
X158312Y402755D01*
G37*
%LPD*%
%LPC*%
G36*
X183712Y402755D02*
X183712Y402755D01*
X178355Y408112D01*
X178355Y415688D01*
X183712Y421045D01*
X191288Y421045D01*
X196645Y415688D01*
X196645Y408112D01*
X191288Y402755D01*
X183712Y402755D01*
G37*
%LPD*%
%LPC*%
G36*
X209312Y38955D02*
X209312Y38955D01*
X203955Y44312D01*
X203955Y51888D01*
X209312Y57245D01*
X216888Y57245D01*
X222245Y51888D01*
X222245Y44312D01*
X216888Y38955D01*
X209312Y38955D01*
G37*
%LPD*%
%LPC*%
G36*
X234712Y38955D02*
X234712Y38955D01*
X229355Y44312D01*
X229355Y51888D01*
X234712Y57245D01*
X242288Y57245D01*
X247645Y51888D01*
X247645Y44312D01*
X242288Y38955D01*
X234712Y38955D01*
G37*
%LPD*%
%LPC*%
G36*
X183912Y38955D02*
X183912Y38955D01*
X178555Y44312D01*
X178555Y51888D01*
X183912Y57245D01*
X191488Y57245D01*
X196845Y51888D01*
X196845Y44312D01*
X191488Y38955D01*
X183912Y38955D01*
G37*
%LPD*%
%LPC*%
G36*
X258197Y325935D02*
X258197Y325935D01*
X254865Y327315D01*
X252315Y329865D01*
X250935Y333197D01*
X250935Y336803D01*
X252315Y340135D01*
X254865Y342685D01*
X258197Y344065D01*
X261803Y344065D01*
X265135Y342685D01*
X267685Y340135D01*
X269065Y336803D01*
X269065Y333197D01*
X267685Y329865D01*
X265135Y327315D01*
X261803Y325935D01*
X258197Y325935D01*
G37*
%LPD*%
%LPC*%
G36*
X297864Y204123D02*
X297864Y204123D01*
X298088Y205249D01*
X298773Y206901D01*
X299767Y208389D01*
X301031Y209653D01*
X302519Y210647D01*
X304171Y211332D01*
X305926Y211681D01*
X311837Y211681D01*
X311837Y204123D01*
X297864Y204123D01*
G37*
%LPD*%
%LPC*%
G36*
X314883Y193519D02*
X314883Y193519D01*
X314883Y201077D01*
X328856Y201077D01*
X328632Y199951D01*
X327947Y198299D01*
X326953Y196811D01*
X325689Y195547D01*
X324201Y194553D01*
X322549Y193868D01*
X320794Y193519D01*
X314883Y193519D01*
G37*
%LPD*%
%LPC*%
G36*
X305926Y193519D02*
X305926Y193519D01*
X304171Y193868D01*
X302519Y194553D01*
X301031Y195547D01*
X299767Y196811D01*
X298773Y198299D01*
X298088Y199951D01*
X297864Y201077D01*
X311837Y201077D01*
X311837Y193519D01*
X305926Y193519D01*
G37*
%LPD*%
%LPC*%
G36*
X189023Y388023D02*
X189023Y388023D01*
X189023Y396661D01*
X191709Y396661D01*
X197661Y390709D01*
X197661Y388023D01*
X189023Y388023D01*
G37*
%LPD*%
%LPC*%
G36*
X177339Y388023D02*
X177339Y388023D01*
X177339Y390709D01*
X183291Y396661D01*
X185977Y396661D01*
X185977Y388023D01*
X177339Y388023D01*
G37*
%LPD*%
%LPC*%
G36*
X279139Y49623D02*
X279139Y49623D01*
X279139Y52309D01*
X285091Y58261D01*
X287777Y58261D01*
X287777Y49623D01*
X279139Y49623D01*
G37*
%LPD*%
%LPC*%
G36*
X189023Y376339D02*
X189023Y376339D01*
X189023Y384977D01*
X197661Y384977D01*
X197661Y382291D01*
X191709Y376339D01*
X189023Y376339D01*
G37*
%LPD*%
%LPC*%
G36*
X183291Y376339D02*
X183291Y376339D01*
X177339Y382291D01*
X177339Y384977D01*
X185977Y384977D01*
X185977Y376339D01*
X183291Y376339D01*
G37*
%LPD*%
%LPC*%
G36*
X101343Y310289D02*
X101343Y310289D01*
X101343Y316557D01*
X110361Y316557D01*
X110361Y312495D01*
X110188Y311849D01*
X109853Y311270D01*
X109380Y310797D01*
X108801Y310462D01*
X108154Y310289D01*
X101343Y310289D01*
G37*
%LPD*%
%LPC*%
G36*
X91486Y310289D02*
X91486Y310289D01*
X90839Y310462D01*
X90260Y310797D01*
X89787Y311270D01*
X89452Y311849D01*
X89279Y312496D01*
X89279Y316557D01*
X98297Y316557D01*
X98297Y310289D01*
X91486Y310289D01*
G37*
%LPD*%
%LPC*%
G36*
X261523Y361523D02*
X261523Y361523D01*
X261523Y369965D01*
X262361Y369833D01*
X263870Y369342D01*
X265283Y368622D01*
X266567Y367689D01*
X267689Y366567D01*
X268622Y365283D01*
X269342Y363870D01*
X269833Y362361D01*
X269965Y361523D01*
X261523Y361523D01*
G37*
%LPD*%
%LPC*%
G36*
X250035Y361523D02*
X250035Y361523D01*
X250167Y362361D01*
X250658Y363870D01*
X251378Y365283D01*
X252311Y366567D01*
X253433Y367689D01*
X254717Y368622D01*
X256130Y369342D01*
X257639Y369833D01*
X258477Y369965D01*
X258477Y361523D01*
X250035Y361523D01*
G37*
%LPD*%
%LPC*%
G36*
X221523Y358477D02*
X221523Y358477D01*
X229965Y358477D01*
X229833Y357639D01*
X229342Y356130D01*
X228622Y354717D01*
X227689Y353433D01*
X226567Y352311D01*
X225283Y351378D01*
X223870Y350658D01*
X222361Y350167D01*
X221523Y350035D01*
X221523Y358477D01*
G37*
%LPD*%
%LPC*%
G36*
X261523Y358477D02*
X261523Y358477D01*
X269965Y358477D01*
X269833Y357639D01*
X269342Y356130D01*
X268622Y354717D01*
X267689Y353433D01*
X266567Y352311D01*
X265283Y351378D01*
X263870Y350658D01*
X262361Y350167D01*
X261523Y350035D01*
X261523Y358477D01*
G37*
%LPD*%
%LPC*%
G36*
X257639Y350167D02*
X257639Y350167D01*
X256130Y350658D01*
X254717Y351378D01*
X253433Y352311D01*
X252311Y353433D01*
X251378Y354717D01*
X250658Y356130D01*
X250167Y357639D01*
X250035Y358477D01*
X258477Y358477D01*
X258477Y350035D01*
X257639Y350167D01*
G37*
%LPD*%
%LPC*%
G36*
X161523Y318023D02*
X161523Y318023D01*
X161523Y324041D01*
X165834Y324041D01*
X166481Y323868D01*
X167060Y323533D01*
X167533Y323060D01*
X167868Y322481D01*
X168041Y321834D01*
X168041Y318023D01*
X161523Y318023D01*
G37*
%LPD*%
%LPC*%
G36*
X136523Y318023D02*
X136523Y318023D01*
X136523Y324041D01*
X140834Y324041D01*
X141481Y323868D01*
X142060Y323533D01*
X142533Y323060D01*
X142868Y322481D01*
X143041Y321834D01*
X143041Y318023D01*
X136523Y318023D01*
G37*
%LPD*%
%LPC*%
G36*
X195583Y257773D02*
X195583Y257773D01*
X195583Y264291D01*
X199394Y264291D01*
X200041Y264118D01*
X200620Y263783D01*
X201093Y263310D01*
X201428Y262731D01*
X201601Y262084D01*
X201601Y257773D01*
X195583Y257773D01*
G37*
%LPD*%
%LPC*%
G36*
X195583Y248209D02*
X195583Y248209D01*
X195583Y254727D01*
X201601Y254727D01*
X201601Y250416D01*
X201428Y249769D01*
X201093Y249190D01*
X200620Y248717D01*
X200041Y248382D01*
X199394Y248209D01*
X195583Y248209D01*
G37*
%LPD*%
%LPC*%
G36*
X176959Y318023D02*
X176959Y318023D01*
X176959Y321834D01*
X177132Y322481D01*
X177467Y323060D01*
X177940Y323533D01*
X178519Y323868D01*
X179166Y324041D01*
X183477Y324041D01*
X183477Y318023D01*
X176959Y318023D01*
G37*
%LPD*%
%LPC*%
G36*
X126959Y318023D02*
X126959Y318023D01*
X126959Y321834D01*
X127132Y322481D01*
X127467Y323060D01*
X127940Y323533D01*
X128519Y323868D01*
X129166Y324041D01*
X133477Y324041D01*
X133477Y318023D01*
X126959Y318023D01*
G37*
%LPD*%
%LPC*%
G36*
X151959Y318023D02*
X151959Y318023D01*
X151959Y321834D01*
X152132Y322481D01*
X152467Y323060D01*
X152940Y323533D01*
X153519Y323868D01*
X154166Y324041D01*
X158477Y324041D01*
X158477Y318023D01*
X151959Y318023D01*
G37*
%LPD*%
%LPC*%
G36*
X130059Y249773D02*
X130059Y249773D01*
X130059Y253584D01*
X130232Y254231D01*
X130567Y254810D01*
X131040Y255283D01*
X131619Y255618D01*
X132266Y255791D01*
X136577Y255791D01*
X136577Y249773D01*
X130059Y249773D01*
G37*
%LPD*%
%LPC*%
G36*
X211523Y113459D02*
X211523Y113459D01*
X211523Y119977D01*
X217541Y119977D01*
X217541Y115666D01*
X217368Y115019D01*
X217033Y114440D01*
X216560Y113967D01*
X215981Y113632D01*
X215334Y113459D01*
X211523Y113459D01*
G37*
%LPD*%
%LPC*%
G36*
X63459Y231523D02*
X63459Y231523D01*
X63459Y235334D01*
X63632Y235981D01*
X63967Y236560D01*
X64440Y237033D01*
X65019Y237368D01*
X65666Y237541D01*
X69977Y237541D01*
X69977Y231523D01*
X63459Y231523D01*
G37*
%LPD*%
%LPC*%
G36*
X63459Y261523D02*
X63459Y261523D01*
X63459Y265334D01*
X63632Y265981D01*
X63967Y266560D01*
X64440Y267033D01*
X65019Y267368D01*
X65666Y267541D01*
X69977Y267541D01*
X69977Y261523D01*
X63459Y261523D01*
G37*
%LPD*%
%LPC*%
G36*
X202459Y123023D02*
X202459Y123023D01*
X202459Y127334D01*
X202632Y127981D01*
X202967Y128560D01*
X203440Y129033D01*
X204019Y129368D01*
X204666Y129541D01*
X208477Y129541D01*
X208477Y123023D01*
X202459Y123023D01*
G37*
%LPD*%
%LPC*%
G36*
X136523Y308959D02*
X136523Y308959D01*
X136523Y314977D01*
X143041Y314977D01*
X143041Y311166D01*
X142868Y310519D01*
X142533Y309940D01*
X142060Y309467D01*
X141481Y309132D01*
X140834Y308959D01*
X136523Y308959D01*
G37*
%LPD*%
%LPC*%
G36*
X186519Y257773D02*
X186519Y257773D01*
X186519Y262084D01*
X186692Y262731D01*
X187027Y263310D01*
X187500Y263783D01*
X188079Y264118D01*
X188726Y264291D01*
X192537Y264291D01*
X192537Y257773D01*
X186519Y257773D01*
G37*
%LPD*%
%LPC*%
G36*
X161523Y308959D02*
X161523Y308959D01*
X161523Y314977D01*
X168041Y314977D01*
X168041Y311166D01*
X167868Y310519D01*
X167533Y309940D01*
X167060Y309467D01*
X166481Y309132D01*
X165834Y308959D01*
X161523Y308959D01*
G37*
%LPD*%
%LPC*%
G36*
X139623Y240709D02*
X139623Y240709D01*
X139623Y246727D01*
X146141Y246727D01*
X146141Y242916D01*
X145968Y242269D01*
X145633Y241690D01*
X145160Y241217D01*
X144581Y240882D01*
X143934Y240709D01*
X139623Y240709D01*
G37*
%LPD*%
%LPC*%
G36*
X232459Y123023D02*
X232459Y123023D01*
X232459Y127334D01*
X232632Y127981D01*
X232967Y128560D01*
X233440Y129033D01*
X234019Y129368D01*
X234666Y129541D01*
X238477Y129541D01*
X238477Y123023D01*
X232459Y123023D01*
G37*
%LPD*%
%LPC*%
G36*
X65666Y252459D02*
X65666Y252459D01*
X65019Y252632D01*
X64440Y252967D01*
X63967Y253440D01*
X63632Y254019D01*
X63459Y254666D01*
X63459Y258477D01*
X69977Y258477D01*
X69977Y252459D01*
X65666Y252459D01*
G37*
%LPD*%
%LPC*%
G36*
X65666Y222459D02*
X65666Y222459D01*
X65019Y222632D01*
X64440Y222967D01*
X63967Y223440D01*
X63632Y224019D01*
X63459Y224666D01*
X63459Y228477D01*
X69977Y228477D01*
X69977Y222459D01*
X65666Y222459D01*
G37*
%LPD*%
%LPC*%
G36*
X129166Y308959D02*
X129166Y308959D01*
X128519Y309132D01*
X127940Y309467D01*
X127467Y309940D01*
X127132Y310519D01*
X126959Y311166D01*
X126959Y314977D01*
X133477Y314977D01*
X133477Y308959D01*
X129166Y308959D01*
G37*
%LPD*%
%LPC*%
G36*
X154166Y308959D02*
X154166Y308959D01*
X153519Y309132D01*
X152940Y309467D01*
X152467Y309940D01*
X152132Y310519D01*
X151959Y311166D01*
X151959Y314977D01*
X158477Y314977D01*
X158477Y308959D01*
X154166Y308959D01*
G37*
%LPD*%
%LPC*%
G36*
X234666Y113459D02*
X234666Y113459D01*
X234019Y113632D01*
X233440Y113967D01*
X232967Y114440D01*
X232632Y115019D01*
X232459Y115666D01*
X232459Y119977D01*
X238477Y119977D01*
X238477Y113459D01*
X234666Y113459D01*
G37*
%LPD*%
%LPC*%
G36*
X204666Y113459D02*
X204666Y113459D01*
X204019Y113632D01*
X203440Y113967D01*
X202967Y114440D01*
X202632Y115019D01*
X202459Y115666D01*
X202459Y119977D01*
X208477Y119977D01*
X208477Y113459D01*
X204666Y113459D01*
G37*
%LPD*%
%LPC*%
G36*
X188726Y248209D02*
X188726Y248209D01*
X188079Y248382D01*
X187500Y248717D01*
X187027Y249190D01*
X186692Y249769D01*
X186519Y250416D01*
X186519Y254727D01*
X192537Y254727D01*
X192537Y248209D01*
X188726Y248209D01*
G37*
%LPD*%
%LPC*%
G36*
X179166Y308959D02*
X179166Y308959D01*
X178519Y309132D01*
X177940Y309467D01*
X177467Y309940D01*
X177132Y310519D01*
X176959Y311166D01*
X176959Y314977D01*
X183477Y314977D01*
X183477Y308959D01*
X179166Y308959D01*
G37*
%LPD*%
%LPC*%
G36*
X240574Y289374D02*
X240574Y289374D01*
X240574Y295331D01*
X244325Y295331D01*
X244971Y295158D01*
X245550Y294823D01*
X246023Y294350D01*
X246358Y293771D01*
X246531Y293124D01*
X246531Y289374D01*
X240574Y289374D01*
G37*
%LPD*%
%LPC*%
G36*
X240574Y98374D02*
X240574Y98374D01*
X240574Y104331D01*
X244325Y104331D01*
X244971Y104158D01*
X245550Y103823D01*
X246023Y103350D01*
X246358Y102771D01*
X246531Y102124D01*
X246531Y98374D01*
X240574Y98374D01*
G37*
%LPD*%
%LPC*%
G36*
X240574Y287626D02*
X240574Y287626D01*
X246531Y287626D01*
X246531Y283876D01*
X246358Y283229D01*
X246023Y282650D01*
X245550Y282177D01*
X244971Y281842D01*
X244324Y281669D01*
X240574Y281669D01*
X240574Y287626D01*
G37*
%LPD*%
%LPC*%
G36*
X175409Y142429D02*
X175409Y142429D01*
X175409Y149721D01*
X176994Y149721D01*
X177641Y149548D01*
X178220Y149213D01*
X178693Y148740D01*
X179028Y148161D01*
X179201Y147514D01*
X179201Y142429D01*
X175409Y142429D01*
G37*
%LPD*%
%LPC*%
G36*
X175409Y132639D02*
X175409Y132639D01*
X175409Y139931D01*
X179201Y139931D01*
X179201Y134846D01*
X179028Y134199D01*
X178693Y133620D01*
X178220Y133147D01*
X177641Y132812D01*
X176994Y132639D01*
X175409Y132639D01*
G37*
%LPD*%
%LPC*%
G36*
X113119Y227429D02*
X113119Y227429D01*
X113119Y232514D01*
X113292Y233161D01*
X113627Y233740D01*
X114100Y234213D01*
X114679Y234548D01*
X115326Y234721D01*
X116911Y234721D01*
X116911Y227429D01*
X113119Y227429D01*
G37*
%LPD*%
%LPC*%
G36*
X187499Y386499D02*
X187499Y386499D01*
X187499Y386501D01*
X187501Y386501D01*
X187501Y386499D01*
X187499Y386499D01*
G37*
%LPD*%
%LPC*%
G36*
X259999Y359999D02*
X259999Y359999D01*
X259999Y360001D01*
X260001Y360001D01*
X260001Y359999D01*
X259999Y359999D01*
G37*
%LPD*%
%LPC*%
G36*
X313359Y202599D02*
X313359Y202599D01*
X313359Y202601D01*
X313361Y202601D01*
X313361Y202599D01*
X313359Y202599D01*
G37*
%LPD*%
%LPC*%
G36*
X138099Y248249D02*
X138099Y248249D01*
X138099Y248251D01*
X138101Y248251D01*
X138101Y248249D01*
X138099Y248249D01*
G37*
%LPD*%
%LPC*%
G36*
X194059Y256249D02*
X194059Y256249D01*
X194059Y256251D01*
X194061Y256251D01*
X194061Y256249D01*
X194059Y256249D01*
G37*
%LPD*%
%LPC*%
G36*
X71499Y229999D02*
X71499Y229999D01*
X71499Y230001D01*
X71501Y230001D01*
X71501Y229999D01*
X71499Y229999D01*
G37*
%LPD*%
%LPC*%
G36*
X134999Y316499D02*
X134999Y316499D01*
X134999Y316501D01*
X135001Y316501D01*
X135001Y316499D01*
X134999Y316499D01*
G37*
%LPD*%
%LPC*%
G36*
X71499Y259999D02*
X71499Y259999D01*
X71499Y260001D01*
X71501Y260001D01*
X71501Y259999D01*
X71499Y259999D01*
G37*
%LPD*%
%LPC*%
G36*
X159999Y316499D02*
X159999Y316499D01*
X159999Y316501D01*
X160001Y316501D01*
X160001Y316499D01*
X159999Y316499D01*
G37*
%LPD*%
%LPC*%
G36*
X99819Y318079D02*
X99819Y318079D01*
X99819Y318081D01*
X99821Y318081D01*
X99821Y318079D01*
X99819Y318079D01*
G37*
%LPD*%
%LPC*%
G36*
X209999Y121499D02*
X209999Y121499D01*
X209999Y121501D01*
X210001Y121501D01*
X210001Y121499D01*
X209999Y121499D01*
G37*
%LPD*%
D10*
X88500Y230000D03*
X71500Y230000D03*
D11*
X210000Y138500D03*
X210000Y121500D03*
X240000Y138500D03*
X240000Y121500D03*
D10*
X88500Y260000D03*
X71500Y260000D03*
D12*
X289300Y48100D03*
X263900Y48100D03*
X238500Y48100D03*
X213100Y48100D03*
X187700Y48100D03*
X162300Y48100D03*
X136900Y48100D03*
X111500Y48100D03*
X86100Y48100D03*
X60700Y48100D03*
X289300Y73500D03*
X263900Y73500D03*
X238500Y73500D03*
X213100Y73500D03*
X187700Y73500D03*
X162300Y73500D03*
X136900Y73500D03*
X111500Y73500D03*
X86100Y73500D03*
X60700Y73500D03*
D13*
X140000Y352500D03*
X140000Y367500D03*
X160000Y352500D03*
X160000Y367500D03*
X180000Y352500D03*
X180000Y367500D03*
D11*
X177060Y256250D03*
X194060Y256250D03*
D10*
X53560Y312830D03*
X53560Y295830D03*
X185000Y316500D03*
X185000Y333500D03*
X135000Y316500D03*
X135000Y333500D03*
X160000Y316500D03*
X160000Y333500D03*
X138100Y248250D03*
X138100Y265250D03*
D14*
X99820Y362580D03*
X99820Y318080D03*
D15*
X220000Y360000D03*
X220000Y335000D03*
X220000Y385000D03*
D16*
X118160Y141180D03*
X126160Y141180D03*
X134160Y141180D03*
X142160Y141180D03*
X150160Y141180D03*
X158160Y141180D03*
X166160Y141180D03*
X174160Y141180D03*
D17*
X103660Y155680D03*
X103660Y163680D03*
X103660Y171680D03*
X103660Y179680D03*
X103660Y187680D03*
X103660Y195680D03*
X103660Y203680D03*
X103660Y211680D03*
X188660Y155680D03*
X188660Y163680D03*
X188660Y171680D03*
X188660Y179680D03*
X188660Y187680D03*
X188660Y195680D03*
X188660Y203680D03*
X188660Y211680D03*
D16*
X118160Y226180D03*
X126160Y226180D03*
X134160Y226180D03*
X142160Y226180D03*
X150160Y226180D03*
X158160Y226180D03*
X166160Y226180D03*
X174160Y226180D03*
D18*
X306820Y177200D02*
X319900Y177200D01*
X319900Y202600D02*
X306820Y202600D01*
X306820Y228000D02*
X319900Y228000D01*
X319900Y253400D02*
X306820Y253400D01*
X306820Y278800D02*
X319900Y278800D01*
D19*
X87300Y288500D03*
X100000Y288500D03*
X112700Y288500D03*
X125400Y288500D03*
X138100Y288500D03*
X150800Y288500D03*
X163500Y288500D03*
X176200Y288500D03*
X188900Y288500D03*
X201600Y288500D03*
X214300Y288500D03*
X227000Y288500D03*
X239700Y288500D03*
X87300Y97500D03*
X100000Y97500D03*
X112700Y97500D03*
X125400Y97500D03*
X138100Y97500D03*
X150800Y97500D03*
X163500Y97500D03*
X176200Y97500D03*
X188900Y97500D03*
X201600Y97500D03*
X214300Y97500D03*
X227000Y97500D03*
X239700Y97500D03*
D15*
X260000Y360000D03*
X260000Y385000D03*
X260000Y335000D03*
D20*
X60500Y411900D03*
X85900Y411900D03*
X111300Y411900D03*
X136700Y411900D03*
X162100Y411900D03*
X187500Y411900D03*
X60500Y386500D03*
X85900Y386500D03*
X111300Y386500D03*
X136700Y386500D03*
X162100Y386500D03*
X187500Y386500D03*
D21*
X222500Y140000D02*
X240000Y140000D01*
X222500Y140000D02*
X210000Y140000D01*
X240000Y140000D02*
X240000Y138500D01*
X195000Y155000D02*
X190000Y155000D01*
X195000Y155000D02*
X210000Y140000D01*
X190000Y155000D02*
X188660Y155680D01*
X210000Y140000D02*
X210000Y138500D01*
X250000Y112500D02*
X287500Y75000D01*
X250000Y112500D02*
X250000Y127500D01*
X240000Y137500D01*
X287500Y75000D02*
X289300Y73500D01*
X240000Y137500D02*
X240000Y138500D01*
X100000Y97500D02*
X87500Y97500D01*
X87500Y182500D02*
X95000Y182500D01*
X87500Y182500D02*
X82500Y182500D01*
X95000Y182500D02*
X97500Y180000D01*
X102500Y180000D01*
X103660Y179680D01*
X87500Y182500D02*
X87500Y97500D01*
X87300Y97500D01*
X62500Y60000D02*
X62500Y50000D01*
X62500Y60000D02*
X75000Y72500D01*
X75000Y87500D01*
X85000Y97500D01*
X62500Y50000D02*
X60700Y48100D01*
X85000Y97500D02*
X87300Y97500D01*
X180000Y367500D02*
X162500Y385000D01*
X162100Y386500D01*
X90000Y230000D02*
X90000Y225000D01*
X100000Y215000D02*
X102500Y212500D01*
X100000Y215000D02*
X97500Y217500D01*
X90000Y225000D01*
X90000Y230000D02*
X88500Y230000D01*
X102500Y212500D02*
X103660Y211680D01*
X67500Y295000D02*
X55000Y295000D01*
X67500Y295000D02*
X92500Y270000D01*
X95000Y270000D01*
X97500Y267500D01*
X97500Y217500D01*
X55000Y295000D02*
X53560Y295830D01*
X180000Y367500D02*
X195000Y352500D01*
X195000Y310000D01*
X182500Y297500D01*
X55000Y297500D01*
X53560Y295830D01*
X82500Y197500D02*
X82500Y182500D01*
X82500Y197500D02*
X100000Y215000D01*
X222500Y140000D02*
X222500Y127500D01*
D22*
X82500Y182500D03*
X222500Y127500D03*
D21*
X160000Y317500D02*
X135000Y317500D01*
X160000Y317500D02*
X170000Y317500D01*
X185000Y317500D01*
X185000Y316500D01*
X160000Y316500D02*
X160000Y317500D01*
X135000Y317500D02*
X100000Y317500D01*
X99820Y318080D01*
X135000Y317500D02*
X135000Y316500D01*
X240000Y360000D02*
X260000Y360000D01*
X240000Y360000D02*
X220000Y360000D01*
X170000Y370000D02*
X170000Y317500D01*
X170000Y370000D02*
X165000Y375000D01*
X157500Y375000D01*
X150000Y382500D01*
X150000Y390000D01*
X157500Y397500D01*
X177500Y397500D01*
X187500Y387500D01*
X187500Y386500D01*
X210000Y120000D02*
X240000Y120000D01*
X210000Y120000D02*
X210000Y121500D01*
X192500Y140000D02*
X175000Y140000D01*
X192500Y140000D02*
X210000Y122500D01*
X175000Y140000D02*
X174160Y141180D01*
X210000Y122500D02*
X210000Y121500D01*
X240000Y120000D02*
X240000Y112500D01*
X240000Y97500D01*
X239700Y97500D01*
X240000Y120000D02*
X240000Y121500D01*
X287500Y60000D02*
X287500Y50000D01*
X287500Y60000D02*
X275000Y72500D01*
X275000Y77500D01*
X240000Y112500D01*
X287500Y50000D02*
X289300Y48100D01*
X185000Y247500D02*
X140000Y247500D01*
X185000Y247500D02*
X192500Y255000D01*
X140000Y247500D02*
X138100Y248250D01*
X192500Y255000D02*
X194060Y256250D01*
X120000Y235000D02*
X120000Y227500D01*
X120000Y235000D02*
X132500Y247500D01*
X137500Y247500D01*
X120000Y227500D02*
X118160Y226180D01*
X137500Y247500D02*
X138100Y248250D01*
X72500Y260000D02*
X72500Y230000D01*
X72500Y260000D02*
X71500Y260000D01*
X72500Y230000D02*
X72500Y207500D01*
X72500Y230000D02*
X71500Y230000D01*
X240000Y277500D02*
X260000Y257500D01*
X312500Y205000D01*
X240000Y277500D02*
X240000Y287500D01*
X312500Y205000D02*
X313360Y202600D01*
X240000Y287500D02*
X239700Y288500D01*
X60000Y75000D02*
X50000Y75000D01*
X27500Y97500D01*
X27500Y140000D01*
X55000Y167500D01*
X55000Y190000D01*
X72500Y207500D01*
X60000Y75000D02*
X60700Y73500D01*
X195000Y257500D02*
X260000Y257500D01*
X195000Y257500D02*
X194060Y256250D01*
X172500Y157500D02*
X172500Y142500D01*
X172500Y157500D02*
X120000Y210000D01*
X120000Y225000D01*
X172500Y142500D02*
X174160Y141180D01*
X120000Y225000D02*
X118160Y226180D01*
X240000Y290000D02*
X240000Y360000D01*
X240000Y290000D02*
X239700Y288500D01*
D22*
X72500Y207500D03*
D21*
X150000Y255000D02*
X175000Y255000D01*
X132500Y237500D02*
X127500Y232500D01*
X127500Y227500D01*
X175000Y255000D02*
X177060Y256250D01*
X127500Y227500D02*
X126160Y226180D01*
D22*
X150000Y255000D03*
X132500Y237500D03*
D21*
X87500Y57500D02*
X87500Y50000D01*
X87500Y57500D02*
X100000Y70000D01*
X100000Y77500D01*
X112500Y90000D01*
X247500Y90000D01*
X262500Y75000D01*
X87500Y50000D02*
X86100Y48100D01*
X262500Y75000D02*
X263900Y73500D01*
X132500Y212500D02*
X132500Y225000D01*
X134160Y226180D01*
X27500Y197500D02*
X27500Y150000D01*
D22*
X132500Y212500D03*
X27500Y150000D03*
X27500Y197500D03*
D21*
X100000Y365000D02*
X105000Y365000D01*
X125000Y385000D01*
X125000Y400000D01*
X135000Y410000D01*
X100000Y365000D02*
X99820Y362580D01*
X135000Y410000D02*
X136700Y411900D01*
X60000Y287500D02*
X80000Y267500D01*
X87500Y260000D01*
X60000Y287500D02*
X45000Y287500D01*
X45000Y305000D01*
X52500Y312500D01*
X87500Y260000D02*
X88500Y260000D01*
X90000Y190000D02*
X102500Y190000D01*
X75000Y195000D02*
X75000Y197500D01*
X80000Y202500D01*
X80000Y267500D01*
X102500Y190000D02*
X103660Y187680D01*
X97500Y365000D02*
X90000Y365000D01*
X72500Y382500D01*
X72500Y390000D01*
X65000Y397500D01*
X55000Y397500D01*
X27500Y370000D01*
X27500Y337500D01*
X52500Y312500D01*
X99820Y362580D02*
X97500Y365000D01*
X53560Y312830D02*
X52500Y312500D01*
D22*
X90000Y190000D03*
X75000Y195000D03*
D21*
X180000Y340000D02*
X180000Y352500D01*
X180000Y340000D02*
X185000Y335000D01*
X185000Y333500D01*
X150000Y367500D02*
X140000Y367500D01*
X132500Y177500D02*
X147500Y162500D01*
X150000Y162500D01*
X157500Y155000D01*
X157500Y142500D01*
X158160Y141180D01*
D22*
X150000Y367500D03*
X132500Y177500D03*
D21*
X150000Y357500D02*
X160000Y367500D01*
X105000Y235000D02*
X105000Y225000D01*
X115000Y215000D01*
X115000Y205000D01*
X165000Y155000D01*
X165000Y142500D01*
X166160Y141180D01*
D22*
X150000Y357500D03*
X105000Y235000D03*
D21*
X165000Y225000D02*
X165000Y212500D01*
X37500Y237500D02*
X17500Y257500D01*
X17500Y370000D01*
X45000Y397500D01*
X166160Y226180D02*
X165000Y225000D01*
D22*
X165000Y212500D03*
X37500Y237500D03*
X45000Y397500D03*
D21*
X112500Y57500D02*
X112500Y50000D01*
X112500Y57500D02*
X125000Y70000D01*
X125000Y77500D01*
X132500Y85000D01*
X227500Y85000D01*
X237500Y75000D01*
X112500Y50000D02*
X111500Y48100D01*
X237500Y75000D02*
X238500Y73500D01*
X182500Y227500D02*
X175000Y227500D01*
X37500Y227500D02*
X12500Y252500D01*
X12500Y380000D01*
X55000Y422500D01*
X100000Y422500D01*
X110000Y412500D01*
X175000Y227500D02*
X174160Y226180D01*
X111300Y411900D02*
X110000Y412500D01*
X12500Y70000D02*
X45000Y37500D01*
X12500Y70000D02*
X12500Y252500D01*
D22*
X182500Y227500D03*
X37500Y227500D03*
X45000Y37500D03*
D21*
X190000Y210000D02*
X227500Y210000D01*
X190000Y210000D02*
X188660Y211680D01*
D22*
X227500Y210000D03*
D21*
X210000Y202500D02*
X190000Y202500D01*
X188660Y203680D01*
D22*
X210000Y202500D03*
D21*
X215000Y195000D02*
X190000Y195000D01*
X215000Y195000D02*
X255000Y155000D01*
X190000Y195000D02*
X188660Y195680D01*
D22*
X255000Y155000D03*
D21*
X212500Y187500D02*
X190000Y187500D01*
X212500Y187500D02*
X265000Y135000D01*
X290000Y135000D01*
X292500Y137500D01*
X307500Y137500D01*
X325000Y120000D01*
X325000Y60000D01*
X297500Y32500D01*
X137500Y32500D01*
X125000Y45000D01*
X125000Y62500D01*
X135000Y72500D01*
X188660Y187680D02*
X190000Y187500D01*
X136900Y73500D02*
X135000Y72500D01*
X137500Y50000D02*
X147500Y50000D01*
X160000Y62500D01*
X202500Y62500D01*
X212500Y72500D01*
X137500Y50000D02*
X136900Y48100D01*
X212500Y72500D02*
X213100Y73500D01*
X67500Y25000D02*
X17500Y75000D01*
X17500Y197500D01*
X45000Y225000D01*
X45000Y277500D01*
D22*
X67500Y25000D03*
X45000Y277500D03*
D21*
X140000Y340000D02*
X140000Y352500D01*
X140000Y340000D02*
X135000Y335000D01*
X135000Y333500D01*
X160000Y333500D02*
X160000Y352500D01*
X182500Y180000D02*
X187500Y180000D01*
X182500Y180000D02*
X177500Y185000D01*
X177500Y215000D01*
X182500Y220000D01*
X185000Y220000D01*
X190000Y225000D01*
X190000Y235000D01*
X187500Y180000D02*
X188660Y179680D01*
D22*
X190000Y235000D03*
D21*
X187500Y172500D02*
X167500Y172500D01*
X165000Y175000D01*
X100000Y142500D02*
X137500Y105000D01*
X220000Y105000D01*
X227500Y97500D01*
X188660Y171680D02*
X187500Y172500D01*
X227000Y97500D02*
X227500Y97500D01*
D22*
X165000Y175000D03*
X100000Y142500D03*
D21*
X105000Y155000D02*
X147500Y155000D01*
X105000Y155000D02*
X103660Y155680D01*
D22*
X147500Y155000D03*
D21*
X117500Y142500D02*
X110000Y142500D01*
X322500Y215000D02*
X330000Y222500D01*
X330000Y237500D01*
X315000Y252500D01*
X117500Y142500D02*
X118160Y141180D01*
X313360Y253400D02*
X315000Y252500D01*
D22*
X110000Y142500D03*
X322500Y215000D03*
D21*
X302500Y70000D02*
X302500Y45000D01*
X295000Y37500D01*
X275000Y37500D01*
X265000Y47500D01*
X263900Y48100D01*
X72500Y410000D02*
X62500Y410000D01*
X72500Y410000D02*
X82500Y400000D01*
X115000Y400000D01*
X125000Y410000D01*
X125000Y417500D01*
X135000Y427500D01*
X257500Y427500D01*
X335000Y350000D01*
X335000Y195000D01*
X315000Y175000D01*
X62500Y410000D02*
X60500Y411900D01*
X313360Y177200D02*
X315000Y175000D01*
D22*
X302500Y70000D03*
D21*
X140000Y267500D02*
X140000Y287500D01*
X140000Y267500D02*
X138100Y265250D01*
X140000Y287500D02*
X138100Y288500D01*
X225000Y290000D02*
X225000Y330000D01*
X220000Y335000D01*
X225000Y290000D02*
X227000Y288500D01*
X160000Y235000D02*
X160000Y227500D01*
X160000Y235000D02*
X167500Y242500D01*
X207500Y242500D01*
X307500Y142500D01*
X310000Y142500D01*
X330000Y122500D01*
X330000Y57500D01*
X292500Y20000D01*
X122500Y20000D01*
X100000Y42500D01*
X100000Y62500D01*
X110000Y72500D01*
X158160Y226180D02*
X160000Y227500D01*
X111500Y73500D02*
X110000Y72500D01*
X212500Y290000D02*
X212500Y327500D01*
X207500Y332500D01*
X207500Y362500D01*
X217500Y372500D01*
X247500Y372500D01*
X260000Y385000D01*
X212500Y290000D02*
X214300Y288500D01*
M02*
