G04 EAGLE Gerber RS-274X export*
G75*
%MOMM*%
%FSLAX34Y34*%
%LPD*%
%INTop Copper*%
%IPPOS*%
%AMOC8*
5,1,8,0,0,1.08239X$1,22.5*%
G01*
%ADD10R,1.158000X1.158000*%
%ADD11C,1.524000*%
%ADD12C,0.152400*%
%ADD13C,0.756400*%


D10*
X161300Y68600D03*
X174000Y68600D03*
X186700Y68600D03*
X199400Y68600D03*
X212100Y68600D03*
X224800Y68600D03*
X237500Y68600D03*
X250200Y68600D03*
X262900Y68600D03*
X275600Y68600D03*
X288300Y68600D03*
X301000Y68600D03*
X313700Y68600D03*
X313700Y81300D03*
X301000Y81300D03*
X288300Y81300D03*
X275600Y81300D03*
X262900Y81300D03*
X250200Y81300D03*
X237500Y81300D03*
X224800Y81300D03*
X212100Y81300D03*
X199400Y81300D03*
X186700Y81300D03*
X174000Y81300D03*
X161300Y81300D03*
D11*
X436880Y76200D02*
X452120Y76200D01*
X452120Y101600D02*
X436880Y101600D01*
X436880Y127000D02*
X452120Y127000D01*
X452120Y152400D02*
X436880Y152400D01*
X436880Y177800D02*
X452120Y177800D01*
X452120Y203200D02*
X436880Y203200D01*
X436880Y228600D02*
X452120Y228600D01*
X452120Y254000D02*
X436880Y254000D01*
X436880Y279400D02*
X452120Y279400D01*
X452120Y304800D02*
X436880Y304800D01*
X436880Y330200D02*
X452120Y330200D01*
X452120Y355600D02*
X436880Y355600D01*
X436880Y381000D02*
X452120Y381000D01*
X58420Y355600D02*
X43180Y355600D01*
X43180Y330200D02*
X58420Y330200D01*
X58420Y304800D02*
X43180Y304800D01*
X43180Y279400D02*
X58420Y279400D01*
X58420Y254000D02*
X43180Y254000D01*
X43180Y228600D02*
X58420Y228600D01*
X58420Y203200D02*
X43180Y203200D01*
X43180Y177800D02*
X58420Y177800D01*
X58420Y152400D02*
X43180Y152400D01*
X43180Y127000D02*
X58420Y127000D01*
X58420Y101600D02*
X43180Y101600D01*
X43180Y76200D02*
X58420Y76200D01*
D12*
X120396Y198120D02*
X120396Y210312D01*
X51816Y278892D01*
X50800Y279400D01*
D13*
X120396Y198120D03*
D12*
X211836Y111252D02*
X211836Y82296D01*
X211836Y111252D02*
X147828Y175260D01*
X118872Y175260D01*
X68580Y225552D01*
X68580Y236220D01*
X50800Y254000D01*
X211836Y82296D02*
X212100Y81300D01*
X211836Y68580D02*
X211836Y65532D01*
X202692Y56388D01*
X91440Y56388D01*
X68580Y79248D01*
X68580Y106680D01*
X62484Y112776D01*
X38100Y112776D01*
X25908Y124968D01*
X25908Y204216D01*
X50292Y228600D01*
X211836Y68580D02*
X212100Y68600D01*
X50800Y228600D02*
X50292Y228600D01*
X185928Y68580D02*
X185928Y65532D01*
X179832Y59436D01*
X152400Y59436D01*
X96012Y115824D01*
X39624Y115824D01*
X28956Y126492D01*
X28956Y181356D01*
X50800Y203200D01*
X185928Y68580D02*
X186700Y68600D01*
X198120Y82296D02*
X198120Y120396D01*
X173736Y144780D01*
X85344Y144780D01*
X51816Y178308D01*
X198120Y82296D02*
X199400Y81300D01*
X51816Y178308D02*
X50800Y177800D01*
X146304Y70104D02*
X160020Y70104D01*
X146304Y70104D02*
X64008Y152400D01*
X50800Y152400D01*
X160020Y70104D02*
X161300Y68600D01*
X192024Y117348D02*
X108204Y117348D01*
X62484Y163068D01*
X39624Y163068D01*
X32004Y155448D01*
X32004Y146304D01*
X50292Y128016D01*
X50800Y127000D01*
D13*
X192024Y117348D03*
D12*
X236220Y115824D02*
X236220Y82296D01*
X236220Y115824D02*
X62484Y289560D01*
X38100Y289560D01*
X22860Y274320D01*
X22860Y103632D01*
X50292Y76200D01*
X236220Y82296D02*
X237500Y81300D01*
X50800Y76200D02*
X50292Y76200D01*
X313944Y68580D02*
X359664Y68580D01*
X371856Y56388D01*
X423672Y56388D01*
X443484Y76200D01*
X313944Y68580D02*
X313700Y68600D01*
X443484Y76200D02*
X444500Y76200D01*
X353568Y82296D02*
X313944Y82296D01*
X353568Y82296D02*
X371856Y100584D01*
X443484Y100584D01*
X313944Y82296D02*
X313700Y81300D01*
X443484Y100584D02*
X444500Y101600D01*
X301752Y85344D02*
X301752Y82296D01*
X301752Y85344D02*
X368808Y152400D01*
X444500Y152400D01*
X301752Y82296D02*
X301000Y81300D01*
X289560Y68580D02*
X289560Y64008D01*
X300228Y53340D01*
X443484Y53340D01*
X463296Y73152D01*
X463296Y158496D01*
X445008Y176784D01*
X289560Y68580D02*
X288300Y68600D01*
X445008Y176784D02*
X444500Y177800D01*
X289560Y85344D02*
X289560Y82296D01*
X289560Y85344D02*
X406908Y202692D01*
X443484Y202692D01*
X289560Y82296D02*
X288300Y81300D01*
X443484Y202692D02*
X444500Y203200D01*
X275844Y68580D02*
X275844Y65532D01*
X320040Y21336D01*
X416052Y21336D01*
X466344Y71628D01*
X466344Y207264D01*
X445008Y228600D01*
X275844Y68580D02*
X275600Y68600D01*
X444500Y228600D02*
X445008Y228600D01*
X275844Y85344D02*
X275844Y82296D01*
X275844Y85344D02*
X444500Y254000D01*
X275844Y82296D02*
X275600Y81300D01*
X263652Y68580D02*
X263652Y65532D01*
X310896Y18288D01*
X422148Y18288D01*
X469392Y65532D01*
X469392Y254508D01*
X444500Y279400D01*
X263652Y68580D02*
X262900Y68600D01*
X263652Y82296D02*
X263652Y124968D01*
X443484Y304800D01*
X263652Y82296D02*
X262900Y81300D01*
X443484Y304800D02*
X444500Y304800D01*
X251460Y68580D02*
X251460Y64008D01*
X300228Y15240D01*
X423672Y15240D01*
X472440Y64008D01*
X472440Y301752D01*
X445008Y329184D01*
X251460Y68580D02*
X250200Y68600D01*
X445008Y329184D02*
X444500Y330200D01*
X251460Y163068D02*
X251460Y82296D01*
X251460Y163068D02*
X443484Y355092D01*
X251460Y82296D02*
X250200Y81300D01*
X443484Y355092D02*
X444500Y355600D01*
M02*
