G04 EAGLE Gerber RS-274X export*
G75*
%MOMM*%
%FSLAX34Y34*%
%LPD*%
%IN*%
%IPPOS*%
%AMOC8*
5,1,8,0,0,1.08239X$1,22.5*%
G01*
%ADD10C,0.254000*%


D10*
X0Y0D02*
X492000Y0D01*
X492000Y457100D01*
X100Y457200D01*
X0Y0D01*
X112300Y78168D02*
X112232Y77306D01*
X112097Y76452D01*
X111895Y75612D01*
X111628Y74790D01*
X111297Y73991D01*
X110905Y73221D01*
X110453Y72484D01*
X109945Y71785D01*
X109384Y71127D01*
X108773Y70516D01*
X108115Y69955D01*
X107416Y69447D01*
X106679Y68995D01*
X105909Y68603D01*
X105110Y68272D01*
X104288Y68005D01*
X103448Y67803D01*
X102594Y67668D01*
X101732Y67600D01*
X100868Y67600D01*
X100006Y67668D01*
X99152Y67803D01*
X98312Y68005D01*
X97490Y68272D01*
X96691Y68603D01*
X95921Y68995D01*
X95184Y69447D01*
X94485Y69955D01*
X93827Y70516D01*
X93216Y71127D01*
X92655Y71785D01*
X92147Y72484D01*
X91695Y73221D01*
X91303Y73991D01*
X90972Y74790D01*
X90705Y75612D01*
X90503Y76452D01*
X90368Y77306D01*
X90300Y78168D01*
X90300Y79032D01*
X90368Y79894D01*
X90503Y80748D01*
X90705Y81588D01*
X90972Y82410D01*
X91303Y83209D01*
X91695Y83979D01*
X92147Y84716D01*
X92655Y85415D01*
X93216Y86073D01*
X93827Y86684D01*
X94485Y87245D01*
X95184Y87753D01*
X95921Y88205D01*
X96691Y88597D01*
X97490Y88928D01*
X98312Y89195D01*
X99152Y89397D01*
X100006Y89532D01*
X100868Y89600D01*
X101732Y89600D01*
X102594Y89532D01*
X103448Y89397D01*
X104288Y89195D01*
X105110Y88928D01*
X105909Y88597D01*
X106679Y88205D01*
X107416Y87753D01*
X108115Y87245D01*
X108773Y86684D01*
X109384Y86073D01*
X109945Y85415D01*
X110453Y84716D01*
X110905Y83979D01*
X111297Y83209D01*
X111628Y82410D01*
X111895Y81588D01*
X112097Y80748D01*
X112232Y79894D01*
X112300Y79032D01*
X112300Y78168D01*
X392300Y78168D02*
X392232Y77306D01*
X392097Y76452D01*
X391895Y75612D01*
X391628Y74790D01*
X391297Y73991D01*
X390905Y73221D01*
X390453Y72484D01*
X389945Y71785D01*
X389384Y71127D01*
X388773Y70516D01*
X388115Y69955D01*
X387416Y69447D01*
X386679Y68995D01*
X385909Y68603D01*
X385110Y68272D01*
X384288Y68005D01*
X383448Y67803D01*
X382594Y67668D01*
X381732Y67600D01*
X380868Y67600D01*
X380006Y67668D01*
X379152Y67803D01*
X378312Y68005D01*
X377490Y68272D01*
X376691Y68603D01*
X375921Y68995D01*
X375184Y69447D01*
X374485Y69955D01*
X373827Y70516D01*
X373216Y71127D01*
X372655Y71785D01*
X372147Y72484D01*
X371695Y73221D01*
X371303Y73991D01*
X370972Y74790D01*
X370705Y75612D01*
X370503Y76452D01*
X370368Y77306D01*
X370300Y78168D01*
X370300Y79032D01*
X370368Y79894D01*
X370503Y80748D01*
X370705Y81588D01*
X370972Y82410D01*
X371303Y83209D01*
X371695Y83979D01*
X372147Y84716D01*
X372655Y85415D01*
X373216Y86073D01*
X373827Y86684D01*
X374485Y87245D01*
X375184Y87753D01*
X375921Y88205D01*
X376691Y88597D01*
X377490Y88928D01*
X378312Y89195D01*
X379152Y89397D01*
X380006Y89532D01*
X380868Y89600D01*
X381732Y89600D01*
X382594Y89532D01*
X383448Y89397D01*
X384288Y89195D01*
X385110Y88928D01*
X385909Y88597D01*
X386679Y88205D01*
X387416Y87753D01*
X388115Y87245D01*
X388773Y86684D01*
X389384Y86073D01*
X389945Y85415D01*
X390453Y84716D01*
X390905Y83979D01*
X391297Y83209D01*
X391628Y82410D01*
X391895Y81588D01*
X392097Y80748D01*
X392232Y79894D01*
X392300Y79032D01*
X392300Y78168D01*
X252300Y418168D02*
X252232Y417306D01*
X252097Y416452D01*
X251895Y415612D01*
X251628Y414790D01*
X251297Y413991D01*
X250905Y413221D01*
X250453Y412484D01*
X249945Y411785D01*
X249384Y411127D01*
X248773Y410516D01*
X248115Y409955D01*
X247416Y409447D01*
X246679Y408995D01*
X245909Y408603D01*
X245110Y408272D01*
X244288Y408005D01*
X243448Y407803D01*
X242594Y407668D01*
X241732Y407600D01*
X240868Y407600D01*
X240006Y407668D01*
X239152Y407803D01*
X238312Y408005D01*
X237490Y408272D01*
X236691Y408603D01*
X235921Y408995D01*
X235184Y409447D01*
X234485Y409955D01*
X233827Y410516D01*
X233216Y411127D01*
X232655Y411785D01*
X232147Y412484D01*
X231695Y413221D01*
X231303Y413991D01*
X230972Y414790D01*
X230705Y415612D01*
X230503Y416452D01*
X230368Y417306D01*
X230300Y418168D01*
X230300Y419032D01*
X230368Y419894D01*
X230503Y420748D01*
X230705Y421588D01*
X230972Y422410D01*
X231303Y423209D01*
X231695Y423979D01*
X232147Y424716D01*
X232655Y425415D01*
X233216Y426073D01*
X233827Y426684D01*
X234485Y427245D01*
X235184Y427753D01*
X235921Y428205D01*
X236691Y428597D01*
X237490Y428928D01*
X238312Y429195D01*
X239152Y429397D01*
X240006Y429532D01*
X240868Y429600D01*
X241732Y429600D01*
X242594Y429532D01*
X243448Y429397D01*
X244288Y429195D01*
X245110Y428928D01*
X245909Y428597D01*
X246679Y428205D01*
X247416Y427753D01*
X248115Y427245D01*
X248773Y426684D01*
X249384Y426073D01*
X249945Y425415D01*
X250453Y424716D01*
X250905Y423979D01*
X251297Y423209D01*
X251628Y422410D01*
X251895Y421588D01*
X252097Y420748D01*
X252232Y419894D01*
X252300Y419032D01*
X252300Y418168D01*
M02*
