G04 EAGLE Gerber RS-274X export*
G75*
%MOMM*%
%FSLAX34Y34*%
%LPD*%
%INSilkscreen Top*%
%IPPOS*%
%AMOC8*
5,1,8,0,0,1.08239X$1,22.5*%
G01*
%ADD10C,0.127000*%
%ADD11C,0.101600*%
%ADD12C,0.152400*%
%ADD13C,0.254000*%


D10*
X391300Y28600D02*
X91300Y28600D01*
X91300Y67600D01*
X391300Y67600D02*
X391300Y28600D01*
X391300Y89600D02*
X391300Y428600D01*
X252300Y428600D01*
X230300Y428600D02*
X91300Y428600D01*
X91300Y89600D01*
X102300Y89600D01*
X102300Y67600D02*
X91300Y67600D01*
X380300Y89600D02*
X391300Y89600D01*
X391300Y67600D02*
X380300Y67600D01*
X252300Y417600D02*
X252300Y428600D01*
X230300Y428600D02*
X230300Y417600D01*
X230303Y417332D01*
X230313Y417064D01*
X230329Y416797D01*
X230352Y416530D01*
X230381Y416264D01*
X230417Y415998D01*
X230459Y415734D01*
X230508Y415470D01*
X230563Y415208D01*
X230625Y414948D01*
X230692Y414688D01*
X230766Y414431D01*
X230847Y414175D01*
X230933Y413922D01*
X231026Y413670D01*
X231125Y413421D01*
X231229Y413175D01*
X231340Y412931D01*
X231457Y412690D01*
X231579Y412452D01*
X231707Y412216D01*
X231841Y411984D01*
X231981Y411756D01*
X232126Y411531D01*
X232277Y411309D01*
X232432Y411091D01*
X232594Y410877D01*
X232760Y410667D01*
X232931Y410461D01*
X233108Y410259D01*
X233289Y410062D01*
X233475Y409869D01*
X233665Y409681D01*
X233860Y409497D01*
X234060Y409319D01*
X234264Y409145D01*
X234472Y408976D01*
X234684Y408812D01*
X234900Y408654D01*
X235119Y408501D01*
X235343Y408353D01*
X235570Y408210D01*
X235800Y408074D01*
X236034Y407943D01*
X236270Y407817D01*
X236510Y407698D01*
X236753Y407584D01*
X236998Y407476D01*
X237246Y407374D01*
X237496Y407279D01*
X237748Y407189D01*
X238003Y407106D01*
X238259Y407029D01*
X238518Y406958D01*
X238778Y406893D01*
X239039Y406835D01*
X239302Y406783D01*
X239566Y406738D01*
X239831Y406699D01*
X240097Y406666D01*
X240364Y406640D01*
X240631Y406620D01*
X240898Y406607D01*
X241166Y406601D01*
X241434Y406601D01*
X241702Y406607D01*
X241969Y406620D01*
X242236Y406640D01*
X242503Y406666D01*
X242769Y406699D01*
X243034Y406738D01*
X243298Y406783D01*
X243561Y406835D01*
X243822Y406893D01*
X244082Y406958D01*
X244341Y407029D01*
X244597Y407106D01*
X244852Y407189D01*
X245104Y407279D01*
X245354Y407374D01*
X245602Y407476D01*
X245847Y407584D01*
X246090Y407698D01*
X246330Y407817D01*
X246566Y407943D01*
X246800Y408074D01*
X247030Y408210D01*
X247257Y408353D01*
X247481Y408501D01*
X247700Y408654D01*
X247916Y408812D01*
X248128Y408976D01*
X248336Y409145D01*
X248540Y409319D01*
X248740Y409497D01*
X248935Y409681D01*
X249125Y409869D01*
X249311Y410062D01*
X249492Y410259D01*
X249669Y410461D01*
X249840Y410667D01*
X250006Y410877D01*
X250168Y411091D01*
X250323Y411309D01*
X250474Y411531D01*
X250619Y411756D01*
X250759Y411984D01*
X250893Y412216D01*
X251021Y412452D01*
X251143Y412690D01*
X251260Y412931D01*
X251371Y413175D01*
X251475Y413421D01*
X251574Y413670D01*
X251667Y413922D01*
X251753Y414175D01*
X251834Y414431D01*
X251908Y414688D01*
X251975Y414948D01*
X252037Y415208D01*
X252092Y415470D01*
X252141Y415734D01*
X252183Y415998D01*
X252219Y416264D01*
X252248Y416530D01*
X252271Y416797D01*
X252287Y417064D01*
X252297Y417332D01*
X252300Y417600D01*
X380300Y89600D02*
X380032Y89597D01*
X379764Y89587D01*
X379497Y89571D01*
X379230Y89548D01*
X378964Y89519D01*
X378698Y89483D01*
X378434Y89441D01*
X378170Y89392D01*
X377908Y89337D01*
X377648Y89275D01*
X377388Y89208D01*
X377131Y89134D01*
X376875Y89053D01*
X376622Y88967D01*
X376370Y88874D01*
X376121Y88775D01*
X375875Y88671D01*
X375631Y88560D01*
X375390Y88443D01*
X375152Y88321D01*
X374916Y88193D01*
X374684Y88059D01*
X374456Y87919D01*
X374231Y87774D01*
X374009Y87623D01*
X373791Y87468D01*
X373577Y87306D01*
X373367Y87140D01*
X373161Y86969D01*
X372959Y86792D01*
X372762Y86611D01*
X372569Y86425D01*
X372381Y86235D01*
X372197Y86040D01*
X372019Y85840D01*
X371845Y85636D01*
X371676Y85428D01*
X371512Y85216D01*
X371354Y85000D01*
X371201Y84781D01*
X371053Y84557D01*
X370910Y84330D01*
X370774Y84100D01*
X370643Y83866D01*
X370517Y83630D01*
X370398Y83390D01*
X370284Y83147D01*
X370176Y82902D01*
X370074Y82654D01*
X369979Y82404D01*
X369889Y82152D01*
X369806Y81897D01*
X369729Y81641D01*
X369658Y81382D01*
X369593Y81122D01*
X369535Y80861D01*
X369483Y80598D01*
X369438Y80334D01*
X369399Y80069D01*
X369366Y79803D01*
X369340Y79536D01*
X369320Y79269D01*
X369307Y79002D01*
X369301Y78734D01*
X369301Y78466D01*
X369307Y78198D01*
X369320Y77931D01*
X369340Y77664D01*
X369366Y77397D01*
X369399Y77131D01*
X369438Y76866D01*
X369483Y76602D01*
X369535Y76339D01*
X369593Y76078D01*
X369658Y75818D01*
X369729Y75559D01*
X369806Y75303D01*
X369889Y75048D01*
X369979Y74796D01*
X370074Y74546D01*
X370176Y74298D01*
X370284Y74053D01*
X370398Y73810D01*
X370517Y73570D01*
X370643Y73334D01*
X370774Y73100D01*
X370910Y72870D01*
X371053Y72643D01*
X371201Y72419D01*
X371354Y72200D01*
X371512Y71984D01*
X371676Y71772D01*
X371845Y71564D01*
X372019Y71360D01*
X372197Y71160D01*
X372381Y70965D01*
X372569Y70775D01*
X372762Y70589D01*
X372959Y70408D01*
X373161Y70231D01*
X373367Y70060D01*
X373577Y69894D01*
X373791Y69732D01*
X374009Y69577D01*
X374231Y69426D01*
X374456Y69281D01*
X374684Y69141D01*
X374916Y69007D01*
X375152Y68879D01*
X375390Y68757D01*
X375631Y68640D01*
X375875Y68529D01*
X376121Y68425D01*
X376370Y68326D01*
X376622Y68233D01*
X376875Y68147D01*
X377131Y68066D01*
X377388Y67992D01*
X377648Y67925D01*
X377908Y67863D01*
X378170Y67808D01*
X378434Y67759D01*
X378698Y67717D01*
X378964Y67681D01*
X379230Y67652D01*
X379497Y67629D01*
X379764Y67613D01*
X380032Y67603D01*
X380300Y67600D01*
X102300Y67600D02*
X102568Y67603D01*
X102836Y67613D01*
X103103Y67629D01*
X103370Y67652D01*
X103636Y67681D01*
X103902Y67717D01*
X104166Y67759D01*
X104430Y67808D01*
X104692Y67863D01*
X104952Y67925D01*
X105212Y67992D01*
X105469Y68066D01*
X105725Y68147D01*
X105978Y68233D01*
X106230Y68326D01*
X106479Y68425D01*
X106725Y68529D01*
X106969Y68640D01*
X107210Y68757D01*
X107448Y68879D01*
X107684Y69007D01*
X107916Y69141D01*
X108144Y69281D01*
X108369Y69426D01*
X108591Y69577D01*
X108809Y69732D01*
X109023Y69894D01*
X109233Y70060D01*
X109439Y70231D01*
X109641Y70408D01*
X109838Y70589D01*
X110031Y70775D01*
X110219Y70965D01*
X110403Y71160D01*
X110581Y71360D01*
X110755Y71564D01*
X110924Y71772D01*
X111088Y71984D01*
X111246Y72200D01*
X111399Y72419D01*
X111547Y72643D01*
X111690Y72870D01*
X111826Y73100D01*
X111957Y73334D01*
X112083Y73570D01*
X112202Y73810D01*
X112316Y74053D01*
X112424Y74298D01*
X112526Y74546D01*
X112621Y74796D01*
X112711Y75048D01*
X112794Y75303D01*
X112871Y75559D01*
X112942Y75818D01*
X113007Y76078D01*
X113065Y76339D01*
X113117Y76602D01*
X113162Y76866D01*
X113201Y77131D01*
X113234Y77397D01*
X113260Y77664D01*
X113280Y77931D01*
X113293Y78198D01*
X113299Y78466D01*
X113299Y78734D01*
X113293Y79002D01*
X113280Y79269D01*
X113260Y79536D01*
X113234Y79803D01*
X113201Y80069D01*
X113162Y80334D01*
X113117Y80598D01*
X113065Y80861D01*
X113007Y81122D01*
X112942Y81382D01*
X112871Y81641D01*
X112794Y81897D01*
X112711Y82152D01*
X112621Y82404D01*
X112526Y82654D01*
X112424Y82902D01*
X112316Y83147D01*
X112202Y83390D01*
X112083Y83630D01*
X111957Y83866D01*
X111826Y84100D01*
X111690Y84330D01*
X111547Y84557D01*
X111399Y84781D01*
X111246Y85000D01*
X111088Y85216D01*
X110924Y85428D01*
X110755Y85636D01*
X110581Y85840D01*
X110403Y86040D01*
X110219Y86235D01*
X110031Y86425D01*
X109838Y86611D01*
X109641Y86792D01*
X109439Y86969D01*
X109233Y87140D01*
X109023Y87306D01*
X108809Y87468D01*
X108591Y87623D01*
X108369Y87774D01*
X108144Y87919D01*
X107916Y88059D01*
X107684Y88193D01*
X107448Y88321D01*
X107210Y88443D01*
X106969Y88560D01*
X106725Y88671D01*
X106479Y88775D01*
X106230Y88874D01*
X105978Y88967D01*
X105725Y89053D01*
X105469Y89134D01*
X105212Y89208D01*
X104952Y89275D01*
X104692Y89337D01*
X104430Y89392D01*
X104166Y89441D01*
X103902Y89483D01*
X103636Y89519D01*
X103370Y89548D01*
X103103Y89571D01*
X102836Y89587D01*
X102568Y89597D01*
X102300Y89600D01*
D11*
X103106Y409108D02*
X103106Y420792D01*
X101808Y409108D02*
X104404Y409108D01*
X104404Y420792D02*
X101808Y420792D01*
X109499Y420792D02*
X109499Y409108D01*
X113393Y414301D02*
X109499Y420792D01*
X113393Y414301D02*
X117288Y420792D01*
X117288Y409108D01*
X122721Y418196D02*
X125966Y420792D01*
X125966Y409108D01*
X122721Y409108D02*
X129212Y409108D01*
D12*
X431800Y349250D02*
X438150Y342900D01*
X431800Y349250D02*
X431800Y361950D01*
X438150Y368300D01*
X450850Y368300D01*
X457200Y361950D01*
X457200Y349250D01*
X450850Y342900D01*
X431800Y311150D02*
X431800Y298450D01*
X431800Y311150D02*
X438150Y317500D01*
X450850Y317500D01*
X457200Y311150D01*
X438150Y317500D02*
X431800Y323850D01*
X431800Y336550D01*
X438150Y342900D01*
X450850Y342900D01*
X457200Y336550D01*
X457200Y323850D01*
X450850Y317500D01*
X431800Y273050D02*
X438150Y266700D01*
X431800Y273050D02*
X431800Y285750D01*
X438150Y292100D01*
X450850Y292100D01*
X457200Y285750D01*
X457200Y273050D01*
X450850Y266700D01*
X438150Y292100D02*
X431800Y298450D01*
X450850Y292100D02*
X457200Y298450D01*
X457200Y311150D01*
X431800Y234950D02*
X431800Y222250D01*
X431800Y234950D02*
X438150Y241300D01*
X450850Y241300D01*
X457200Y234950D01*
X438150Y241300D02*
X431800Y247650D01*
X431800Y260350D01*
X438150Y266700D01*
X450850Y266700D01*
X457200Y260350D01*
X457200Y247650D01*
X450850Y241300D01*
X431800Y196850D02*
X438150Y190500D01*
X431800Y196850D02*
X431800Y209550D01*
X438150Y215900D01*
X450850Y215900D01*
X457200Y209550D01*
X457200Y196850D01*
X450850Y190500D01*
X438150Y215900D02*
X431800Y222250D01*
X450850Y215900D02*
X457200Y222250D01*
X457200Y234950D01*
X431800Y158750D02*
X431800Y146050D01*
X431800Y158750D02*
X438150Y165100D01*
X450850Y165100D01*
X457200Y158750D01*
X438150Y165100D02*
X431800Y171450D01*
X431800Y184150D01*
X438150Y190500D01*
X450850Y190500D01*
X457200Y184150D01*
X457200Y171450D01*
X450850Y165100D01*
X431800Y120650D02*
X438150Y114300D01*
X431800Y120650D02*
X431800Y133350D01*
X438150Y139700D01*
X450850Y139700D01*
X457200Y133350D01*
X457200Y120650D01*
X450850Y114300D01*
X438150Y139700D02*
X431800Y146050D01*
X450850Y139700D02*
X457200Y146050D01*
X457200Y158750D01*
X431800Y82550D02*
X431800Y69850D01*
X431800Y82550D02*
X438150Y88900D01*
X450850Y88900D01*
X457200Y82550D01*
X438150Y88900D02*
X431800Y95250D01*
X431800Y107950D01*
X438150Y114300D01*
X450850Y114300D01*
X457200Y107950D01*
X457200Y95250D01*
X450850Y88900D01*
X450850Y63500D02*
X438150Y63500D01*
X431800Y69850D01*
X450850Y63500D02*
X457200Y69850D01*
X457200Y82550D01*
X438150Y368300D02*
X431800Y374650D01*
X431800Y387350D01*
X438150Y393700D01*
X450850Y393700D01*
X457200Y387350D01*
X457200Y374650D01*
X450850Y368300D01*
D10*
X423037Y67183D02*
X414147Y67183D01*
X423037Y67183D02*
X423137Y67181D01*
X423236Y67175D01*
X423336Y67165D01*
X423434Y67152D01*
X423533Y67134D01*
X423630Y67113D01*
X423726Y67088D01*
X423822Y67059D01*
X423916Y67026D01*
X424009Y66990D01*
X424100Y66950D01*
X424190Y66906D01*
X424278Y66859D01*
X424364Y66809D01*
X424448Y66755D01*
X424530Y66698D01*
X424609Y66638D01*
X424687Y66574D01*
X424761Y66508D01*
X424833Y66439D01*
X424902Y66367D01*
X424968Y66293D01*
X425032Y66215D01*
X425092Y66136D01*
X425149Y66054D01*
X425203Y65970D01*
X425253Y65884D01*
X425300Y65796D01*
X425344Y65706D01*
X425384Y65615D01*
X425420Y65522D01*
X425453Y65428D01*
X425482Y65332D01*
X425507Y65236D01*
X425528Y65139D01*
X425546Y65040D01*
X425559Y64942D01*
X425569Y64842D01*
X425575Y64743D01*
X425577Y64643D01*
X425577Y63373D01*
X425577Y73163D02*
X414147Y73163D01*
X414147Y76338D01*
X414149Y76449D01*
X414155Y76559D01*
X414164Y76670D01*
X414178Y76780D01*
X414195Y76889D01*
X414216Y76998D01*
X414241Y77106D01*
X414270Y77213D01*
X414302Y77319D01*
X414338Y77424D01*
X414378Y77527D01*
X414421Y77629D01*
X414468Y77730D01*
X414519Y77829D01*
X414572Y77925D01*
X414629Y78020D01*
X414690Y78113D01*
X414753Y78204D01*
X414820Y78293D01*
X414890Y78379D01*
X414963Y78462D01*
X415038Y78544D01*
X415116Y78622D01*
X415198Y78697D01*
X415281Y78770D01*
X415367Y78840D01*
X415456Y78907D01*
X415547Y78970D01*
X415640Y79031D01*
X415735Y79088D01*
X415831Y79141D01*
X415930Y79192D01*
X416031Y79239D01*
X416133Y79282D01*
X416236Y79322D01*
X416341Y79358D01*
X416447Y79390D01*
X416554Y79419D01*
X416662Y79444D01*
X416771Y79465D01*
X416880Y79482D01*
X416990Y79496D01*
X417101Y79505D01*
X417211Y79511D01*
X417322Y79513D01*
X417433Y79511D01*
X417543Y79505D01*
X417654Y79496D01*
X417764Y79482D01*
X417873Y79465D01*
X417982Y79444D01*
X418090Y79419D01*
X418197Y79390D01*
X418303Y79358D01*
X418408Y79322D01*
X418511Y79282D01*
X418613Y79239D01*
X418714Y79192D01*
X418813Y79141D01*
X418910Y79088D01*
X419004Y79031D01*
X419097Y78970D01*
X419188Y78907D01*
X419277Y78840D01*
X419363Y78770D01*
X419446Y78697D01*
X419528Y78622D01*
X419606Y78544D01*
X419681Y78462D01*
X419754Y78379D01*
X419824Y78293D01*
X419891Y78204D01*
X419954Y78113D01*
X420015Y78020D01*
X420072Y77926D01*
X420125Y77829D01*
X420176Y77730D01*
X420223Y77629D01*
X420266Y77527D01*
X420306Y77424D01*
X420342Y77319D01*
X420374Y77213D01*
X420403Y77106D01*
X420428Y76998D01*
X420449Y76889D01*
X420466Y76780D01*
X420480Y76670D01*
X420489Y76559D01*
X420495Y76449D01*
X420497Y76338D01*
X420497Y73163D01*
X416687Y84022D02*
X414147Y87197D01*
X425577Y87197D01*
X425577Y84022D02*
X425577Y90372D01*
D13*
X0Y0D02*
X492000Y0D01*
X492000Y457100D01*
X100Y457200D01*
X0Y0D01*
X112300Y78168D02*
X112232Y77306D01*
X112097Y76452D01*
X111895Y75612D01*
X111628Y74790D01*
X111297Y73991D01*
X110905Y73221D01*
X110453Y72484D01*
X109945Y71785D01*
X109384Y71127D01*
X108773Y70516D01*
X108115Y69955D01*
X107416Y69447D01*
X106679Y68995D01*
X105909Y68603D01*
X105110Y68272D01*
X104288Y68005D01*
X103448Y67803D01*
X102594Y67668D01*
X101732Y67600D01*
X100868Y67600D01*
X100006Y67668D01*
X99152Y67803D01*
X98312Y68005D01*
X97490Y68272D01*
X96691Y68603D01*
X95921Y68995D01*
X95184Y69447D01*
X94485Y69955D01*
X93827Y70516D01*
X93216Y71127D01*
X92655Y71785D01*
X92147Y72484D01*
X91695Y73221D01*
X91303Y73991D01*
X90972Y74790D01*
X90705Y75612D01*
X90503Y76452D01*
X90368Y77306D01*
X90300Y78168D01*
X90300Y79032D01*
X90368Y79894D01*
X90503Y80748D01*
X90705Y81588D01*
X90972Y82410D01*
X91303Y83209D01*
X91695Y83979D01*
X92147Y84716D01*
X92655Y85415D01*
X93216Y86073D01*
X93827Y86684D01*
X94485Y87245D01*
X95184Y87753D01*
X95921Y88205D01*
X96691Y88597D01*
X97490Y88928D01*
X98312Y89195D01*
X99152Y89397D01*
X100006Y89532D01*
X100868Y89600D01*
X101732Y89600D01*
X102594Y89532D01*
X103448Y89397D01*
X104288Y89195D01*
X105110Y88928D01*
X105909Y88597D01*
X106679Y88205D01*
X107416Y87753D01*
X108115Y87245D01*
X108773Y86684D01*
X109384Y86073D01*
X109945Y85415D01*
X110453Y84716D01*
X110905Y83979D01*
X111297Y83209D01*
X111628Y82410D01*
X111895Y81588D01*
X112097Y80748D01*
X112232Y79894D01*
X112300Y79032D01*
X112300Y78168D01*
X392300Y78168D02*
X392232Y77306D01*
X392097Y76452D01*
X391895Y75612D01*
X391628Y74790D01*
X391297Y73991D01*
X390905Y73221D01*
X390453Y72484D01*
X389945Y71785D01*
X389384Y71127D01*
X388773Y70516D01*
X388115Y69955D01*
X387416Y69447D01*
X386679Y68995D01*
X385909Y68603D01*
X385110Y68272D01*
X384288Y68005D01*
X383448Y67803D01*
X382594Y67668D01*
X381732Y67600D01*
X380868Y67600D01*
X380006Y67668D01*
X379152Y67803D01*
X378312Y68005D01*
X377490Y68272D01*
X376691Y68603D01*
X375921Y68995D01*
X375184Y69447D01*
X374485Y69955D01*
X373827Y70516D01*
X373216Y71127D01*
X372655Y71785D01*
X372147Y72484D01*
X371695Y73221D01*
X371303Y73991D01*
X370972Y74790D01*
X370705Y75612D01*
X370503Y76452D01*
X370368Y77306D01*
X370300Y78168D01*
X370300Y79032D01*
X370368Y79894D01*
X370503Y80748D01*
X370705Y81588D01*
X370972Y82410D01*
X371303Y83209D01*
X371695Y83979D01*
X372147Y84716D01*
X372655Y85415D01*
X373216Y86073D01*
X373827Y86684D01*
X374485Y87245D01*
X375184Y87753D01*
X375921Y88205D01*
X376691Y88597D01*
X377490Y88928D01*
X378312Y89195D01*
X379152Y89397D01*
X380006Y89532D01*
X380868Y89600D01*
X381732Y89600D01*
X382594Y89532D01*
X383448Y89397D01*
X384288Y89195D01*
X385110Y88928D01*
X385909Y88597D01*
X386679Y88205D01*
X387416Y87753D01*
X388115Y87245D01*
X388773Y86684D01*
X389384Y86073D01*
X389945Y85415D01*
X390453Y84716D01*
X390905Y83979D01*
X391297Y83209D01*
X391628Y82410D01*
X391895Y81588D01*
X392097Y80748D01*
X392232Y79894D01*
X392300Y79032D01*
X392300Y78168D01*
X252300Y418168D02*
X252232Y417306D01*
X252097Y416452D01*
X251895Y415612D01*
X251628Y414790D01*
X251297Y413991D01*
X250905Y413221D01*
X250453Y412484D01*
X249945Y411785D01*
X249384Y411127D01*
X248773Y410516D01*
X248115Y409955D01*
X247416Y409447D01*
X246679Y408995D01*
X245909Y408603D01*
X245110Y408272D01*
X244288Y408005D01*
X243448Y407803D01*
X242594Y407668D01*
X241732Y407600D01*
X240868Y407600D01*
X240006Y407668D01*
X239152Y407803D01*
X238312Y408005D01*
X237490Y408272D01*
X236691Y408603D01*
X235921Y408995D01*
X235184Y409447D01*
X234485Y409955D01*
X233827Y410516D01*
X233216Y411127D01*
X232655Y411785D01*
X232147Y412484D01*
X231695Y413221D01*
X231303Y413991D01*
X230972Y414790D01*
X230705Y415612D01*
X230503Y416452D01*
X230368Y417306D01*
X230300Y418168D01*
X230300Y419032D01*
X230368Y419894D01*
X230503Y420748D01*
X230705Y421588D01*
X230972Y422410D01*
X231303Y423209D01*
X231695Y423979D01*
X232147Y424716D01*
X232655Y425415D01*
X233216Y426073D01*
X233827Y426684D01*
X234485Y427245D01*
X235184Y427753D01*
X235921Y428205D01*
X236691Y428597D01*
X237490Y428928D01*
X238312Y429195D01*
X239152Y429397D01*
X240006Y429532D01*
X240868Y429600D01*
X241732Y429600D01*
X242594Y429532D01*
X243448Y429397D01*
X244288Y429195D01*
X245110Y428928D01*
X245909Y428597D01*
X246679Y428205D01*
X247416Y427753D01*
X248115Y427245D01*
X248773Y426684D01*
X249384Y426073D01*
X249945Y425415D01*
X250453Y424716D01*
X250905Y423979D01*
X251297Y423209D01*
X251628Y422410D01*
X251895Y421588D01*
X252097Y420748D01*
X252232Y419894D01*
X252300Y419032D01*
X252300Y418168D01*
M02*
