G04 EAGLE Gerber RS-274X export*
G75*
%MOMM*%
%FSLAX34Y34*%
%LPD*%
%INSilkscreen Bottom*%
%IPPOS*%
%AMOC8*
5,1,8,0,0,1.08239X$1,22.5*%
G01*
%ADD10C,0.152400*%
%ADD11C,0.127000*%
%ADD12C,0.254000*%


D10*
X38100Y133350D02*
X38100Y120650D01*
X44450Y114300D01*
X57150Y114300D01*
X63500Y120650D01*
X44450Y114300D02*
X38100Y107950D01*
X38100Y95250D01*
X44450Y88900D01*
X57150Y88900D01*
X63500Y95250D01*
X63500Y107950D01*
X57150Y114300D01*
X38100Y158750D02*
X44450Y165100D01*
X38100Y158750D02*
X38100Y146050D01*
X44450Y139700D01*
X57150Y139700D01*
X63500Y146050D01*
X63500Y158750D01*
X57150Y165100D01*
X44450Y139700D02*
X38100Y133350D01*
X57150Y139700D02*
X63500Y133350D01*
X63500Y120650D01*
X38100Y196850D02*
X38100Y209550D01*
X38100Y196850D02*
X44450Y190500D01*
X57150Y190500D01*
X63500Y196850D01*
X44450Y190500D02*
X38100Y184150D01*
X38100Y171450D01*
X44450Y165100D01*
X57150Y165100D01*
X63500Y171450D01*
X63500Y184150D01*
X57150Y190500D01*
X38100Y234950D02*
X44450Y241300D01*
X38100Y234950D02*
X38100Y222250D01*
X44450Y215900D01*
X57150Y215900D01*
X63500Y222250D01*
X63500Y234950D01*
X57150Y241300D01*
X44450Y215900D02*
X38100Y209550D01*
X57150Y215900D02*
X63500Y209550D01*
X63500Y196850D01*
X38100Y273050D02*
X38100Y285750D01*
X38100Y273050D02*
X44450Y266700D01*
X57150Y266700D01*
X63500Y273050D01*
X44450Y266700D02*
X38100Y260350D01*
X38100Y247650D01*
X44450Y241300D01*
X57150Y241300D01*
X63500Y247650D01*
X63500Y260350D01*
X57150Y266700D01*
X38100Y311150D02*
X44450Y317500D01*
X38100Y311150D02*
X38100Y298450D01*
X44450Y292100D01*
X57150Y292100D01*
X63500Y298450D01*
X63500Y311150D01*
X57150Y317500D01*
X44450Y292100D02*
X38100Y285750D01*
X57150Y292100D02*
X63500Y285750D01*
X63500Y273050D01*
X38100Y349250D02*
X38100Y361950D01*
X38100Y349250D02*
X44450Y342900D01*
X57150Y342900D01*
X63500Y349250D01*
X44450Y342900D02*
X38100Y336550D01*
X38100Y323850D01*
X44450Y317500D01*
X57150Y317500D01*
X63500Y323850D01*
X63500Y336550D01*
X57150Y342900D01*
X57150Y368300D02*
X44450Y368300D01*
X38100Y361950D01*
X57150Y368300D02*
X63500Y361950D01*
X63500Y349250D01*
X44450Y88900D02*
X38100Y82550D01*
X38100Y69850D01*
X44450Y63500D01*
X57150Y63500D01*
X63500Y69850D01*
X63500Y82550D01*
X57150Y88900D01*
D11*
X19177Y345238D02*
X10287Y345238D01*
X10187Y345236D01*
X10088Y345230D01*
X9988Y345220D01*
X9890Y345207D01*
X9791Y345189D01*
X9694Y345168D01*
X9598Y345143D01*
X9502Y345114D01*
X9408Y345081D01*
X9315Y345045D01*
X9224Y345005D01*
X9134Y344961D01*
X9046Y344914D01*
X8960Y344864D01*
X8876Y344810D01*
X8794Y344753D01*
X8715Y344693D01*
X8637Y344629D01*
X8563Y344563D01*
X8491Y344494D01*
X8422Y344422D01*
X8356Y344348D01*
X8292Y344270D01*
X8232Y344191D01*
X8175Y344109D01*
X8121Y344025D01*
X8071Y343939D01*
X8024Y343851D01*
X7980Y343761D01*
X7940Y343670D01*
X7904Y343577D01*
X7871Y343483D01*
X7842Y343387D01*
X7817Y343291D01*
X7796Y343194D01*
X7778Y343095D01*
X7765Y342997D01*
X7755Y342897D01*
X7749Y342798D01*
X7747Y342698D01*
X7747Y341428D01*
X7747Y351219D02*
X19177Y351219D01*
X19177Y354394D01*
X19175Y354505D01*
X19169Y354615D01*
X19160Y354726D01*
X19146Y354836D01*
X19129Y354945D01*
X19108Y355054D01*
X19083Y355162D01*
X19054Y355269D01*
X19022Y355375D01*
X18986Y355480D01*
X18946Y355583D01*
X18903Y355685D01*
X18856Y355786D01*
X18805Y355885D01*
X18752Y355982D01*
X18695Y356076D01*
X18634Y356169D01*
X18571Y356260D01*
X18504Y356349D01*
X18434Y356435D01*
X18361Y356518D01*
X18286Y356600D01*
X18208Y356678D01*
X18126Y356753D01*
X18043Y356826D01*
X17957Y356896D01*
X17868Y356963D01*
X17777Y357026D01*
X17684Y357087D01*
X17590Y357144D01*
X17493Y357197D01*
X17394Y357248D01*
X17293Y357295D01*
X17191Y357338D01*
X17088Y357378D01*
X16983Y357414D01*
X16877Y357446D01*
X16770Y357475D01*
X16662Y357500D01*
X16553Y357521D01*
X16444Y357538D01*
X16334Y357552D01*
X16223Y357561D01*
X16113Y357567D01*
X16002Y357569D01*
X15891Y357567D01*
X15781Y357561D01*
X15670Y357552D01*
X15560Y357538D01*
X15451Y357521D01*
X15342Y357500D01*
X15234Y357475D01*
X15127Y357446D01*
X15021Y357414D01*
X14916Y357378D01*
X14813Y357338D01*
X14711Y357295D01*
X14610Y357248D01*
X14511Y357197D01*
X14414Y357144D01*
X14320Y357087D01*
X14227Y357026D01*
X14136Y356963D01*
X14047Y356896D01*
X13961Y356826D01*
X13878Y356753D01*
X13796Y356678D01*
X13718Y356600D01*
X13643Y356518D01*
X13570Y356435D01*
X13500Y356349D01*
X13433Y356260D01*
X13370Y356169D01*
X13309Y356076D01*
X13252Y355982D01*
X13199Y355885D01*
X13148Y355786D01*
X13101Y355685D01*
X13058Y355583D01*
X13018Y355480D01*
X12982Y355375D01*
X12950Y355269D01*
X12921Y355162D01*
X12896Y355054D01*
X12875Y354945D01*
X12858Y354836D01*
X12844Y354726D01*
X12835Y354615D01*
X12829Y354505D01*
X12827Y354394D01*
X12827Y351219D01*
X19178Y365570D02*
X19176Y365674D01*
X19170Y365779D01*
X19161Y365883D01*
X19148Y365986D01*
X19130Y366089D01*
X19110Y366191D01*
X19085Y366293D01*
X19057Y366393D01*
X19025Y366493D01*
X18989Y366591D01*
X18950Y366688D01*
X18908Y366783D01*
X18862Y366877D01*
X18812Y366969D01*
X18760Y367059D01*
X18704Y367147D01*
X18644Y367233D01*
X18582Y367317D01*
X18517Y367398D01*
X18449Y367477D01*
X18377Y367554D01*
X18304Y367627D01*
X18227Y367699D01*
X18148Y367767D01*
X18067Y367832D01*
X17983Y367894D01*
X17897Y367954D01*
X17809Y368010D01*
X17719Y368062D01*
X17627Y368112D01*
X17533Y368158D01*
X17438Y368200D01*
X17341Y368239D01*
X17243Y368275D01*
X17143Y368307D01*
X17043Y368335D01*
X16941Y368360D01*
X16839Y368380D01*
X16736Y368398D01*
X16633Y368411D01*
X16529Y368420D01*
X16424Y368426D01*
X16320Y368428D01*
X19177Y365570D02*
X19175Y365452D01*
X19169Y365333D01*
X19160Y365215D01*
X19147Y365098D01*
X19129Y364981D01*
X19109Y364864D01*
X19084Y364748D01*
X19056Y364633D01*
X19023Y364520D01*
X18988Y364407D01*
X18948Y364295D01*
X18906Y364185D01*
X18859Y364076D01*
X18809Y363968D01*
X18756Y363863D01*
X18699Y363759D01*
X18639Y363657D01*
X18576Y363557D01*
X18509Y363459D01*
X18440Y363363D01*
X18367Y363270D01*
X18291Y363179D01*
X18213Y363090D01*
X18131Y363004D01*
X18047Y362921D01*
X17961Y362840D01*
X17871Y362763D01*
X17780Y362688D01*
X17686Y362616D01*
X17589Y362547D01*
X17491Y362482D01*
X17390Y362419D01*
X17287Y362360D01*
X17183Y362304D01*
X17077Y362252D01*
X16969Y362203D01*
X16860Y362158D01*
X16749Y362116D01*
X16637Y362078D01*
X14098Y367475D02*
X14173Y367551D01*
X14252Y367626D01*
X14333Y367697D01*
X14417Y367766D01*
X14503Y367831D01*
X14591Y367893D01*
X14681Y367953D01*
X14773Y368009D01*
X14868Y368062D01*
X14964Y368111D01*
X15062Y368157D01*
X15161Y368200D01*
X15262Y368239D01*
X15364Y368274D01*
X15467Y368306D01*
X15571Y368334D01*
X15676Y368359D01*
X15783Y368380D01*
X15889Y368397D01*
X15996Y368410D01*
X16104Y368419D01*
X16212Y368425D01*
X16320Y368427D01*
X14097Y367475D02*
X7747Y362077D01*
X7747Y368427D01*
D12*
X0Y0D02*
X492000Y0D01*
X492000Y457100D01*
X100Y457200D01*
X0Y0D01*
X112300Y78168D02*
X112232Y77306D01*
X112097Y76452D01*
X111895Y75612D01*
X111628Y74790D01*
X111297Y73991D01*
X110905Y73221D01*
X110453Y72484D01*
X109945Y71785D01*
X109384Y71127D01*
X108773Y70516D01*
X108115Y69955D01*
X107416Y69447D01*
X106679Y68995D01*
X105909Y68603D01*
X105110Y68272D01*
X104288Y68005D01*
X103448Y67803D01*
X102594Y67668D01*
X101732Y67600D01*
X100868Y67600D01*
X100006Y67668D01*
X99152Y67803D01*
X98312Y68005D01*
X97490Y68272D01*
X96691Y68603D01*
X95921Y68995D01*
X95184Y69447D01*
X94485Y69955D01*
X93827Y70516D01*
X93216Y71127D01*
X92655Y71785D01*
X92147Y72484D01*
X91695Y73221D01*
X91303Y73991D01*
X90972Y74790D01*
X90705Y75612D01*
X90503Y76452D01*
X90368Y77306D01*
X90300Y78168D01*
X90300Y79032D01*
X90368Y79894D01*
X90503Y80748D01*
X90705Y81588D01*
X90972Y82410D01*
X91303Y83209D01*
X91695Y83979D01*
X92147Y84716D01*
X92655Y85415D01*
X93216Y86073D01*
X93827Y86684D01*
X94485Y87245D01*
X95184Y87753D01*
X95921Y88205D01*
X96691Y88597D01*
X97490Y88928D01*
X98312Y89195D01*
X99152Y89397D01*
X100006Y89532D01*
X100868Y89600D01*
X101732Y89600D01*
X102594Y89532D01*
X103448Y89397D01*
X104288Y89195D01*
X105110Y88928D01*
X105909Y88597D01*
X106679Y88205D01*
X107416Y87753D01*
X108115Y87245D01*
X108773Y86684D01*
X109384Y86073D01*
X109945Y85415D01*
X110453Y84716D01*
X110905Y83979D01*
X111297Y83209D01*
X111628Y82410D01*
X111895Y81588D01*
X112097Y80748D01*
X112232Y79894D01*
X112300Y79032D01*
X112300Y78168D01*
X392300Y78168D02*
X392232Y77306D01*
X392097Y76452D01*
X391895Y75612D01*
X391628Y74790D01*
X391297Y73991D01*
X390905Y73221D01*
X390453Y72484D01*
X389945Y71785D01*
X389384Y71127D01*
X388773Y70516D01*
X388115Y69955D01*
X387416Y69447D01*
X386679Y68995D01*
X385909Y68603D01*
X385110Y68272D01*
X384288Y68005D01*
X383448Y67803D01*
X382594Y67668D01*
X381732Y67600D01*
X380868Y67600D01*
X380006Y67668D01*
X379152Y67803D01*
X378312Y68005D01*
X377490Y68272D01*
X376691Y68603D01*
X375921Y68995D01*
X375184Y69447D01*
X374485Y69955D01*
X373827Y70516D01*
X373216Y71127D01*
X372655Y71785D01*
X372147Y72484D01*
X371695Y73221D01*
X371303Y73991D01*
X370972Y74790D01*
X370705Y75612D01*
X370503Y76452D01*
X370368Y77306D01*
X370300Y78168D01*
X370300Y79032D01*
X370368Y79894D01*
X370503Y80748D01*
X370705Y81588D01*
X370972Y82410D01*
X371303Y83209D01*
X371695Y83979D01*
X372147Y84716D01*
X372655Y85415D01*
X373216Y86073D01*
X373827Y86684D01*
X374485Y87245D01*
X375184Y87753D01*
X375921Y88205D01*
X376691Y88597D01*
X377490Y88928D01*
X378312Y89195D01*
X379152Y89397D01*
X380006Y89532D01*
X380868Y89600D01*
X381732Y89600D01*
X382594Y89532D01*
X383448Y89397D01*
X384288Y89195D01*
X385110Y88928D01*
X385909Y88597D01*
X386679Y88205D01*
X387416Y87753D01*
X388115Y87245D01*
X388773Y86684D01*
X389384Y86073D01*
X389945Y85415D01*
X390453Y84716D01*
X390905Y83979D01*
X391297Y83209D01*
X391628Y82410D01*
X391895Y81588D01*
X392097Y80748D01*
X392232Y79894D01*
X392300Y79032D01*
X392300Y78168D01*
X252300Y418168D02*
X252232Y417306D01*
X252097Y416452D01*
X251895Y415612D01*
X251628Y414790D01*
X251297Y413991D01*
X250905Y413221D01*
X250453Y412484D01*
X249945Y411785D01*
X249384Y411127D01*
X248773Y410516D01*
X248115Y409955D01*
X247416Y409447D01*
X246679Y408995D01*
X245909Y408603D01*
X245110Y408272D01*
X244288Y408005D01*
X243448Y407803D01*
X242594Y407668D01*
X241732Y407600D01*
X240868Y407600D01*
X240006Y407668D01*
X239152Y407803D01*
X238312Y408005D01*
X237490Y408272D01*
X236691Y408603D01*
X235921Y408995D01*
X235184Y409447D01*
X234485Y409955D01*
X233827Y410516D01*
X233216Y411127D01*
X232655Y411785D01*
X232147Y412484D01*
X231695Y413221D01*
X231303Y413991D01*
X230972Y414790D01*
X230705Y415612D01*
X230503Y416452D01*
X230368Y417306D01*
X230300Y418168D01*
X230300Y419032D01*
X230368Y419894D01*
X230503Y420748D01*
X230705Y421588D01*
X230972Y422410D01*
X231303Y423209D01*
X231695Y423979D01*
X232147Y424716D01*
X232655Y425415D01*
X233216Y426073D01*
X233827Y426684D01*
X234485Y427245D01*
X235184Y427753D01*
X235921Y428205D01*
X236691Y428597D01*
X237490Y428928D01*
X238312Y429195D01*
X239152Y429397D01*
X240006Y429532D01*
X240868Y429600D01*
X241732Y429600D01*
X242594Y429532D01*
X243448Y429397D01*
X244288Y429195D01*
X245110Y428928D01*
X245909Y428597D01*
X246679Y428205D01*
X247416Y427753D01*
X248115Y427245D01*
X248773Y426684D01*
X249384Y426073D01*
X249945Y425415D01*
X250453Y424716D01*
X250905Y423979D01*
X251297Y423209D01*
X251628Y422410D01*
X251895Y421588D01*
X252097Y420748D01*
X252232Y419894D01*
X252300Y419032D01*
X252300Y418168D01*
M02*
