G04 EAGLE Gerber RS-274X export*
G75*
%MOMM*%
%FSLAX34Y34*%
%LPD*%
%INBottom Copper*%
%IPPOS*%
%AMOC8*
5,1,8,0,0,1.08239X$1,22.5*%
G01*
%ADD10R,1.270000X1.270000*%
%ADD11P,1.732040X8X22.500000*%
%ADD12C,1.600200*%
%ADD13C,2.540000*%
%ADD14P,2.749271X8X22.500000*%
%ADD15P,1.429621X8X22.500000*%
%ADD16C,1.508000*%
%ADD17R,1.800000X1.800000*%
%ADD18R,1.508000X1.508000*%
%ADD19C,1.208000*%
%ADD20C,1.000000*%
%ADD21C,0.606400*%
%ADD22C,3.000000*%

G36*
X494788Y2767D02*
X494788Y2767D01*
X494838Y2765D01*
X495010Y2787D01*
X495183Y2803D01*
X495231Y2816D01*
X495281Y2822D01*
X495446Y2875D01*
X495614Y2921D01*
X495659Y2943D01*
X495706Y2958D01*
X495860Y3039D01*
X496016Y3114D01*
X496057Y3144D01*
X496101Y3167D01*
X496238Y3274D01*
X496378Y3376D01*
X496413Y3412D01*
X496452Y3443D01*
X496568Y3573D01*
X496688Y3698D01*
X496715Y3740D01*
X496749Y3778D01*
X496839Y3926D01*
X496935Y4070D01*
X496955Y4116D01*
X496981Y4159D01*
X497043Y4321D01*
X497112Y4481D01*
X497123Y4529D01*
X497141Y4576D01*
X497174Y4747D01*
X497213Y4916D01*
X497216Y4966D01*
X497225Y5015D01*
X497237Y5262D01*
X497237Y199738D01*
X497233Y199788D01*
X497235Y199838D01*
X497213Y200010D01*
X497197Y200183D01*
X497184Y200231D01*
X497178Y200281D01*
X497125Y200446D01*
X497079Y200614D01*
X497057Y200659D01*
X497042Y200706D01*
X496961Y200860D01*
X496886Y201016D01*
X496856Y201057D01*
X496833Y201101D01*
X496726Y201238D01*
X496624Y201378D01*
X496588Y201413D01*
X496557Y201452D01*
X496427Y201568D01*
X496302Y201688D01*
X496260Y201715D01*
X496222Y201749D01*
X496074Y201839D01*
X495930Y201935D01*
X495884Y201955D01*
X495841Y201981D01*
X495679Y202043D01*
X495519Y202112D01*
X495471Y202123D01*
X495424Y202141D01*
X495253Y202174D01*
X495084Y202213D01*
X495034Y202216D01*
X494985Y202225D01*
X494738Y202237D01*
X238856Y202237D01*
X237237Y203856D01*
X237237Y656144D01*
X238856Y657763D01*
X494738Y657763D01*
X494788Y657767D01*
X494838Y657765D01*
X495010Y657787D01*
X495183Y657803D01*
X495231Y657816D01*
X495281Y657822D01*
X495446Y657875D01*
X495614Y657921D01*
X495659Y657943D01*
X495706Y657958D01*
X495860Y658039D01*
X496016Y658114D01*
X496057Y658144D01*
X496101Y658167D01*
X496238Y658274D01*
X496378Y658376D01*
X496413Y658412D01*
X496452Y658443D01*
X496568Y658573D01*
X496688Y658698D01*
X496715Y658740D01*
X496749Y658778D01*
X496839Y658926D01*
X496935Y659070D01*
X496955Y659116D01*
X496981Y659159D01*
X497043Y659321D01*
X497112Y659481D01*
X497123Y659529D01*
X497141Y659576D01*
X497174Y659747D01*
X497213Y659916D01*
X497216Y659966D01*
X497225Y660015D01*
X497237Y660262D01*
X497237Y874738D01*
X497233Y874788D01*
X497235Y874838D01*
X497213Y875010D01*
X497197Y875183D01*
X497184Y875231D01*
X497178Y875281D01*
X497125Y875446D01*
X497079Y875614D01*
X497057Y875659D01*
X497042Y875706D01*
X496961Y875860D01*
X496886Y876016D01*
X496856Y876057D01*
X496833Y876101D01*
X496726Y876238D01*
X496624Y876378D01*
X496588Y876413D01*
X496557Y876452D01*
X496427Y876568D01*
X496302Y876688D01*
X496260Y876715D01*
X496222Y876749D01*
X496074Y876839D01*
X495930Y876935D01*
X495884Y876955D01*
X495841Y876981D01*
X495679Y877043D01*
X495519Y877112D01*
X495471Y877123D01*
X495424Y877141D01*
X495253Y877174D01*
X495084Y877213D01*
X495034Y877216D01*
X494985Y877225D01*
X494738Y877237D01*
X-494738Y877237D01*
X-494788Y877233D01*
X-494838Y877235D01*
X-495010Y877213D01*
X-495183Y877197D01*
X-495231Y877184D01*
X-495281Y877178D01*
X-495446Y877125D01*
X-495614Y877079D01*
X-495659Y877057D01*
X-495706Y877042D01*
X-495860Y876961D01*
X-496016Y876886D01*
X-496057Y876856D01*
X-496101Y876833D01*
X-496238Y876726D01*
X-496378Y876624D01*
X-496413Y876588D01*
X-496452Y876557D01*
X-496568Y876427D01*
X-496688Y876302D01*
X-496715Y876260D01*
X-496749Y876222D01*
X-496839Y876074D01*
X-496935Y875930D01*
X-496955Y875884D01*
X-496981Y875841D01*
X-497043Y875679D01*
X-497112Y875519D01*
X-497123Y875471D01*
X-497141Y875424D01*
X-497174Y875253D01*
X-497213Y875084D01*
X-497216Y875034D01*
X-497225Y874985D01*
X-497237Y874738D01*
X-497237Y660262D01*
X-497233Y660212D01*
X-497235Y660162D01*
X-497213Y659990D01*
X-497197Y659817D01*
X-497184Y659769D01*
X-497178Y659719D01*
X-497125Y659554D01*
X-497079Y659386D01*
X-497057Y659341D01*
X-497042Y659294D01*
X-496961Y659140D01*
X-496886Y658984D01*
X-496856Y658943D01*
X-496833Y658899D01*
X-496726Y658762D01*
X-496624Y658622D01*
X-496588Y658587D01*
X-496557Y658548D01*
X-496427Y658432D01*
X-496302Y658312D01*
X-496260Y658285D01*
X-496222Y658251D01*
X-496074Y658161D01*
X-495930Y658065D01*
X-495884Y658045D01*
X-495841Y658019D01*
X-495679Y657957D01*
X-495519Y657888D01*
X-495471Y657877D01*
X-495424Y657859D01*
X-495253Y657826D01*
X-495084Y657787D01*
X-495034Y657784D01*
X-494985Y657775D01*
X-494738Y657763D01*
X-238856Y657763D01*
X-236691Y655598D01*
X-236586Y655511D01*
X-236488Y655416D01*
X-236415Y655368D01*
X-236348Y655312D01*
X-236230Y655244D01*
X-236116Y655169D01*
X-236036Y655134D01*
X-235960Y655091D01*
X-235831Y655046D01*
X-235705Y654992D01*
X-235621Y654972D01*
X-235539Y654943D01*
X-235403Y654921D01*
X-235270Y654890D01*
X-235184Y654886D01*
X-235098Y654872D01*
X-234961Y654875D01*
X-234824Y654868D01*
X-234738Y654880D01*
X-234651Y654881D01*
X-234517Y654908D01*
X-234381Y654926D01*
X-234298Y654952D01*
X-234213Y654970D01*
X-234086Y655020D01*
X-233956Y655062D01*
X-233879Y655102D01*
X-233798Y655134D01*
X-233682Y655207D01*
X-233561Y655271D01*
X-233493Y655324D01*
X-233419Y655370D01*
X-233317Y655462D01*
X-233210Y655547D01*
X-233152Y655612D01*
X-233088Y655670D01*
X-233004Y655779D01*
X-232913Y655881D01*
X-232868Y655955D01*
X-232815Y656024D01*
X-232752Y656146D01*
X-232681Y656263D01*
X-232650Y656344D01*
X-232610Y656421D01*
X-232570Y656552D01*
X-232521Y656680D01*
X-232504Y656765D01*
X-232479Y656848D01*
X-232463Y656984D01*
X-232437Y657118D01*
X-232430Y657255D01*
X-232426Y657292D01*
X-232427Y657315D01*
X-232425Y657366D01*
X-232425Y689087D01*
X-229909Y695160D01*
X-225260Y699809D01*
X-219187Y702325D01*
X-212613Y702325D01*
X-206540Y699809D01*
X-201891Y695161D01*
X-201611Y694484D01*
X-201568Y694401D01*
X-201533Y694315D01*
X-201464Y694204D01*
X-201404Y694089D01*
X-201346Y694015D01*
X-201297Y693935D01*
X-201210Y693839D01*
X-201130Y693736D01*
X-201060Y693674D01*
X-200997Y693604D01*
X-200894Y693525D01*
X-200797Y693438D01*
X-200717Y693389D01*
X-200643Y693332D01*
X-200527Y693272D01*
X-200416Y693204D01*
X-200329Y693170D01*
X-200246Y693127D01*
X-200122Y693089D01*
X-200000Y693041D01*
X-199909Y693023D01*
X-199819Y692996D01*
X-199690Y692980D01*
X-199562Y692955D01*
X-199468Y692954D01*
X-199376Y692943D01*
X-199246Y692950D01*
X-199115Y692948D01*
X-199023Y692964D01*
X-198930Y692969D01*
X-198803Y693000D01*
X-198675Y693021D01*
X-198587Y693053D01*
X-198496Y693075D01*
X-198377Y693128D01*
X-198254Y693172D01*
X-198173Y693218D01*
X-198088Y693256D01*
X-197980Y693330D01*
X-197867Y693395D01*
X-197795Y693455D01*
X-197718Y693507D01*
X-197535Y693674D01*
X-194867Y696342D01*
X-192999Y696342D01*
X-192999Y685800D01*
X-192999Y675258D01*
X-194866Y675258D01*
X-195109Y675501D01*
X-195214Y675588D01*
X-195312Y675683D01*
X-195385Y675731D01*
X-195452Y675787D01*
X-195571Y675855D01*
X-195684Y675930D01*
X-195764Y675965D01*
X-195840Y676008D01*
X-195969Y676053D01*
X-196095Y676107D01*
X-196179Y676127D01*
X-196261Y676156D01*
X-196396Y676177D01*
X-196530Y676208D01*
X-196616Y676213D01*
X-196702Y676227D01*
X-196839Y676224D01*
X-196976Y676231D01*
X-197062Y676219D01*
X-197149Y676218D01*
X-197283Y676191D01*
X-197419Y676173D01*
X-197502Y676147D01*
X-197587Y676129D01*
X-197714Y676079D01*
X-197844Y676037D01*
X-197921Y675997D01*
X-198002Y675965D01*
X-198118Y675892D01*
X-198239Y675828D01*
X-198308Y675774D01*
X-198381Y675728D01*
X-198483Y675637D01*
X-198590Y675552D01*
X-198648Y675487D01*
X-198712Y675429D01*
X-198796Y675320D01*
X-198887Y675218D01*
X-198932Y675144D01*
X-198985Y675075D01*
X-199048Y674953D01*
X-199119Y674836D01*
X-199150Y674755D01*
X-199190Y674678D01*
X-199230Y674547D01*
X-199279Y674419D01*
X-199296Y674334D01*
X-199321Y674251D01*
X-199337Y674115D01*
X-199363Y673981D01*
X-199370Y673844D01*
X-199374Y673807D01*
X-199373Y673784D01*
X-199375Y673733D01*
X-199375Y630180D01*
X-199359Y629994D01*
X-199347Y629808D01*
X-199339Y629772D01*
X-199335Y629735D01*
X-199286Y629555D01*
X-199242Y629374D01*
X-199227Y629340D01*
X-199217Y629304D01*
X-199136Y629136D01*
X-199060Y628966D01*
X-199040Y628935D01*
X-199024Y628902D01*
X-198914Y628751D01*
X-198809Y628596D01*
X-198775Y628559D01*
X-198762Y628540D01*
X-198735Y628514D01*
X-198643Y628413D01*
X-179567Y609337D01*
X-179529Y609305D01*
X-179495Y609268D01*
X-179358Y609162D01*
X-179224Y609050D01*
X-179181Y609026D01*
X-179141Y608995D01*
X-178987Y608915D01*
X-178836Y608830D01*
X-178789Y608813D01*
X-178744Y608790D01*
X-178579Y608739D01*
X-178415Y608681D01*
X-178365Y608674D01*
X-178317Y608659D01*
X-178145Y608638D01*
X-177974Y608611D01*
X-177924Y608612D01*
X-177874Y608606D01*
X-177700Y608616D01*
X-177527Y608620D01*
X-177478Y608630D01*
X-177428Y608633D01*
X-177259Y608674D01*
X-177089Y608708D01*
X-177043Y608726D01*
X-176994Y608738D01*
X-176835Y608809D01*
X-176674Y608873D01*
X-176631Y608899D01*
X-176586Y608920D01*
X-176442Y609017D01*
X-176295Y609109D01*
X-176258Y609142D01*
X-176216Y609171D01*
X-176033Y609337D01*
X-149060Y636309D01*
X-142987Y638825D01*
X-60213Y638825D01*
X-54140Y636309D01*
X-33517Y615687D01*
X-33479Y615655D01*
X-33445Y615618D01*
X-33308Y615512D01*
X-33174Y615400D01*
X-33131Y615376D01*
X-33091Y615345D01*
X-32937Y615265D01*
X-32786Y615180D01*
X-32739Y615163D01*
X-32694Y615140D01*
X-32529Y615089D01*
X-32365Y615031D01*
X-32315Y615024D01*
X-32267Y615009D01*
X-32095Y614988D01*
X-31924Y614961D01*
X-31874Y614962D01*
X-31824Y614956D01*
X-31650Y614966D01*
X-31477Y614970D01*
X-31428Y614980D01*
X-31378Y614983D01*
X-31209Y615024D01*
X-31039Y615058D01*
X-30993Y615076D01*
X-30944Y615088D01*
X-30785Y615159D01*
X-30624Y615223D01*
X-30581Y615249D01*
X-30536Y615270D01*
X-30392Y615367D01*
X-30245Y615459D01*
X-30208Y615492D01*
X-30166Y615521D01*
X-29983Y615687D01*
X54140Y699809D01*
X60213Y702325D01*
X66787Y702325D01*
X72860Y699809D01*
X77509Y695161D01*
X77789Y694484D01*
X77832Y694401D01*
X77867Y694315D01*
X77936Y694204D01*
X77996Y694089D01*
X78054Y694015D01*
X78103Y693935D01*
X78190Y693839D01*
X78270Y693736D01*
X78340Y693674D01*
X78403Y693604D01*
X78506Y693525D01*
X78603Y693438D01*
X78683Y693389D01*
X78757Y693332D01*
X78873Y693272D01*
X78984Y693204D01*
X79071Y693170D01*
X79154Y693127D01*
X79278Y693089D01*
X79400Y693041D01*
X79491Y693023D01*
X79581Y692996D01*
X79710Y692980D01*
X79838Y692955D01*
X79932Y692954D01*
X80024Y692943D01*
X80154Y692950D01*
X80285Y692948D01*
X80377Y692964D01*
X80470Y692969D01*
X80597Y693000D01*
X80725Y693021D01*
X80813Y693053D01*
X80904Y693075D01*
X81023Y693128D01*
X81146Y693172D01*
X81227Y693218D01*
X81312Y693256D01*
X81420Y693330D01*
X81533Y693395D01*
X81605Y693455D01*
X81682Y693507D01*
X81865Y693674D01*
X84533Y696342D01*
X86401Y696342D01*
X86401Y685800D01*
X86401Y675258D01*
X84533Y675258D01*
X81865Y677926D01*
X81794Y677986D01*
X81728Y678053D01*
X81622Y678129D01*
X81522Y678213D01*
X81441Y678259D01*
X81365Y678313D01*
X81247Y678369D01*
X81134Y678434D01*
X81046Y678465D01*
X80961Y678505D01*
X80836Y678539D01*
X80713Y678582D01*
X80620Y678597D01*
X80530Y678621D01*
X80400Y678632D01*
X80272Y678652D01*
X80178Y678651D01*
X80085Y678658D01*
X79955Y678646D01*
X79825Y678644D01*
X79733Y678625D01*
X79640Y678616D01*
X79515Y678581D01*
X79387Y678555D01*
X79300Y678521D01*
X79210Y678495D01*
X79093Y678439D01*
X78972Y678390D01*
X78893Y678341D01*
X78809Y678300D01*
X78703Y678223D01*
X78593Y678154D01*
X78524Y678092D01*
X78448Y678036D01*
X78358Y677942D01*
X78262Y677854D01*
X78205Y677781D01*
X78140Y677713D01*
X78069Y677604D01*
X77989Y677500D01*
X77946Y677418D01*
X77895Y677339D01*
X77789Y677116D01*
X77509Y676439D01*
X-8143Y590787D01*
X-8263Y590644D01*
X-8387Y590504D01*
X-8406Y590473D01*
X-8430Y590444D01*
X-8522Y590282D01*
X-8619Y590123D01*
X-8632Y590088D01*
X-8650Y590056D01*
X-8712Y589880D01*
X-8779Y589706D01*
X-8786Y589670D01*
X-8799Y589635D01*
X-8828Y589450D01*
X-8863Y589267D01*
X-8866Y589217D01*
X-8869Y589194D01*
X-8868Y589157D01*
X-8875Y589020D01*
X-8875Y580913D01*
X-11391Y574840D01*
X-16040Y570191D01*
X-22113Y567675D01*
X-28687Y567675D01*
X-34760Y570191D01*
X-69613Y605043D01*
X-69756Y605163D01*
X-69896Y605287D01*
X-69927Y605306D01*
X-69956Y605330D01*
X-70118Y605422D01*
X-70277Y605519D01*
X-70312Y605532D01*
X-70344Y605550D01*
X-70520Y605612D01*
X-70694Y605679D01*
X-70730Y605686D01*
X-70765Y605699D01*
X-70950Y605728D01*
X-71133Y605763D01*
X-71183Y605766D01*
X-71206Y605769D01*
X-71243Y605768D01*
X-71380Y605775D01*
X-131820Y605775D01*
X-132006Y605759D01*
X-132192Y605747D01*
X-132228Y605739D01*
X-132265Y605735D01*
X-132445Y605686D01*
X-132626Y605642D01*
X-132660Y605627D01*
X-132696Y605617D01*
X-132864Y605536D01*
X-133034Y605460D01*
X-133065Y605440D01*
X-133098Y605424D01*
X-133250Y605314D01*
X-133404Y605209D01*
X-133441Y605176D01*
X-133460Y605162D01*
X-133486Y605135D01*
X-133587Y605043D01*
X-134923Y603707D01*
X-135011Y603602D01*
X-135106Y603504D01*
X-135154Y603431D01*
X-135210Y603364D01*
X-135277Y603245D01*
X-135353Y603132D01*
X-135387Y603052D01*
X-135430Y602976D01*
X-135476Y602847D01*
X-135530Y602721D01*
X-135550Y602637D01*
X-135579Y602555D01*
X-135600Y602420D01*
X-135631Y602286D01*
X-135635Y602200D01*
X-135649Y602114D01*
X-135647Y601977D01*
X-135653Y601840D01*
X-135642Y601754D01*
X-135640Y601667D01*
X-135613Y601533D01*
X-135596Y601397D01*
X-135569Y601314D01*
X-135552Y601229D01*
X-135502Y601102D01*
X-135460Y600972D01*
X-135419Y600895D01*
X-135387Y600814D01*
X-135315Y600698D01*
X-135251Y600577D01*
X-135197Y600509D01*
X-135151Y600435D01*
X-135059Y600333D01*
X-134975Y600226D01*
X-134910Y600168D01*
X-134851Y600104D01*
X-134743Y600020D01*
X-134641Y599929D01*
X-134566Y599884D01*
X-134497Y599831D01*
X-134376Y599768D01*
X-134259Y599697D01*
X-134178Y599666D01*
X-134100Y599626D01*
X-133970Y599586D01*
X-133842Y599537D01*
X-133756Y599520D01*
X-133673Y599495D01*
X-133538Y599479D01*
X-133403Y599453D01*
X-133267Y599446D01*
X-133230Y599442D01*
X-133207Y599443D01*
X-133156Y599441D01*
X-129539Y599441D01*
X-129539Y586739D01*
X-142241Y586739D01*
X-142241Y590356D01*
X-142253Y590492D01*
X-142256Y590629D01*
X-142273Y590714D01*
X-142281Y590801D01*
X-142317Y590933D01*
X-142344Y591067D01*
X-142376Y591148D01*
X-142399Y591232D01*
X-142458Y591355D01*
X-142509Y591482D01*
X-142555Y591556D01*
X-142592Y591634D01*
X-142673Y591745D01*
X-142745Y591861D01*
X-142803Y591926D01*
X-142854Y591996D01*
X-142953Y592091D01*
X-143045Y592192D01*
X-143114Y592246D01*
X-143176Y592306D01*
X-143290Y592381D01*
X-143399Y592465D01*
X-143476Y592505D01*
X-143548Y592553D01*
X-143674Y592607D01*
X-143796Y592670D01*
X-143879Y592696D01*
X-143959Y592730D01*
X-144092Y592761D01*
X-144223Y592801D01*
X-144309Y592811D01*
X-144394Y592831D01*
X-144530Y592838D01*
X-144666Y592854D01*
X-144753Y592849D01*
X-144840Y592853D01*
X-144975Y592836D01*
X-145112Y592827D01*
X-145197Y592807D01*
X-145283Y592796D01*
X-145413Y592754D01*
X-145546Y592722D01*
X-145626Y592686D01*
X-145708Y592660D01*
X-145829Y592596D01*
X-145954Y592540D01*
X-146026Y592492D01*
X-146103Y592451D01*
X-146211Y592366D01*
X-146324Y592289D01*
X-146425Y592197D01*
X-146454Y592175D01*
X-146470Y592157D01*
X-146507Y592123D01*
X-160543Y578087D01*
X-160663Y577944D01*
X-160787Y577804D01*
X-160806Y577773D01*
X-160830Y577744D01*
X-160922Y577582D01*
X-161019Y577423D01*
X-161032Y577388D01*
X-161050Y577356D01*
X-161112Y577180D01*
X-161179Y577006D01*
X-161186Y576970D01*
X-161199Y576935D01*
X-161228Y576750D01*
X-161263Y576567D01*
X-161266Y576517D01*
X-161269Y576494D01*
X-161268Y576457D01*
X-161275Y576320D01*
X-161275Y431180D01*
X-161259Y430994D01*
X-161247Y430808D01*
X-161239Y430772D01*
X-161235Y430735D01*
X-161186Y430555D01*
X-161142Y430374D01*
X-161127Y430340D01*
X-161117Y430304D01*
X-161036Y430136D01*
X-160960Y429966D01*
X-160940Y429935D01*
X-160924Y429902D01*
X-160814Y429751D01*
X-160709Y429596D01*
X-160675Y429559D01*
X-160662Y429540D01*
X-160635Y429514D01*
X-160543Y429413D01*
X-150701Y419570D01*
X-150406Y418858D01*
X-150362Y418775D01*
X-150328Y418688D01*
X-150259Y418577D01*
X-150199Y418462D01*
X-150141Y418388D01*
X-150092Y418309D01*
X-150004Y418212D01*
X-149924Y418109D01*
X-149855Y418047D01*
X-149792Y417978D01*
X-149689Y417898D01*
X-149592Y417811D01*
X-149512Y417762D01*
X-149438Y417705D01*
X-149322Y417645D01*
X-149211Y417577D01*
X-149124Y417543D01*
X-149041Y417500D01*
X-148916Y417462D01*
X-148795Y417414D01*
X-148704Y417396D01*
X-148614Y417369D01*
X-148485Y417353D01*
X-148357Y417328D01*
X-148263Y417327D01*
X-148171Y417316D01*
X-148041Y417324D01*
X-147910Y417322D01*
X-147818Y417337D01*
X-147725Y417343D01*
X-147598Y417374D01*
X-147469Y417395D01*
X-147382Y417426D01*
X-147291Y417448D01*
X-147171Y417501D01*
X-147049Y417545D01*
X-146968Y417592D01*
X-146882Y417630D01*
X-146775Y417703D01*
X-146662Y417768D01*
X-146590Y417828D01*
X-146513Y417881D01*
X-146329Y418047D01*
X-146292Y418085D01*
X-132328Y418085D01*
X-131435Y417192D01*
X-131435Y403228D01*
X-132328Y402335D01*
X-146292Y402335D01*
X-146329Y402373D01*
X-146401Y402433D01*
X-146466Y402500D01*
X-146572Y402576D01*
X-146672Y402660D01*
X-146754Y402706D01*
X-146830Y402760D01*
X-146947Y402816D01*
X-147061Y402880D01*
X-147149Y402911D01*
X-147233Y402951D01*
X-147359Y402985D01*
X-147482Y403028D01*
X-147574Y403043D01*
X-147665Y403068D01*
X-147795Y403079D01*
X-147923Y403099D01*
X-148017Y403097D01*
X-148110Y403105D01*
X-148239Y403093D01*
X-148370Y403090D01*
X-148462Y403072D01*
X-148554Y403063D01*
X-148680Y403028D01*
X-148808Y403002D01*
X-148895Y402967D01*
X-148984Y402942D01*
X-149102Y402885D01*
X-149223Y402837D01*
X-149302Y402788D01*
X-149386Y402747D01*
X-149491Y402670D01*
X-149602Y402601D01*
X-149671Y402538D01*
X-149747Y402483D01*
X-149836Y402389D01*
X-149933Y402301D01*
X-149990Y402227D01*
X-150055Y402159D01*
X-150126Y402051D01*
X-150206Y401947D01*
X-150249Y401864D01*
X-150300Y401786D01*
X-150406Y401562D01*
X-150701Y400850D01*
X-155350Y396201D01*
X-161423Y393685D01*
X-167997Y393685D01*
X-174070Y396201D01*
X-191809Y413940D01*
X-194325Y420013D01*
X-194325Y576320D01*
X-194341Y576506D01*
X-194353Y576692D01*
X-194361Y576728D01*
X-194365Y576765D01*
X-194414Y576945D01*
X-194458Y577126D01*
X-194473Y577160D01*
X-194483Y577196D01*
X-194564Y577364D01*
X-194640Y577534D01*
X-194660Y577565D01*
X-194676Y577598D01*
X-194786Y577749D01*
X-194891Y577904D01*
X-194925Y577941D01*
X-194938Y577960D01*
X-194965Y577986D01*
X-195057Y578087D01*
X-229909Y612940D01*
X-232429Y619023D01*
X-232512Y619183D01*
X-232590Y619345D01*
X-232616Y619381D01*
X-232636Y619419D01*
X-232747Y619561D01*
X-232852Y619707D01*
X-232884Y619737D01*
X-232910Y619772D01*
X-233045Y619892D01*
X-233174Y620017D01*
X-233211Y620041D01*
X-233243Y620070D01*
X-233397Y620164D01*
X-233546Y620264D01*
X-233586Y620281D01*
X-233624Y620304D01*
X-233791Y620370D01*
X-233957Y620441D01*
X-233999Y620451D01*
X-234040Y620467D01*
X-234217Y620501D01*
X-234392Y620542D01*
X-234435Y620544D01*
X-234478Y620553D01*
X-234658Y620555D01*
X-234838Y620564D01*
X-234881Y620559D01*
X-234925Y620559D01*
X-235103Y620530D01*
X-235281Y620507D01*
X-235322Y620493D01*
X-235365Y620486D01*
X-235535Y620426D01*
X-235706Y620371D01*
X-235745Y620351D01*
X-235786Y620336D01*
X-235942Y620246D01*
X-236101Y620162D01*
X-236135Y620135D01*
X-236173Y620113D01*
X-236311Y619997D01*
X-236452Y619886D01*
X-236481Y619853D01*
X-236514Y619825D01*
X-236629Y619687D01*
X-236749Y619551D01*
X-236771Y619514D01*
X-236799Y619481D01*
X-236887Y619324D01*
X-236981Y619170D01*
X-236996Y619129D01*
X-237018Y619091D01*
X-237077Y618921D01*
X-237141Y618753D01*
X-237149Y618710D01*
X-237164Y618669D01*
X-237191Y618491D01*
X-237225Y618314D01*
X-237228Y618254D01*
X-237232Y618228D01*
X-237231Y618190D01*
X-237237Y618067D01*
X-237237Y203856D01*
X-238856Y202237D01*
X-494738Y202237D01*
X-494788Y202233D01*
X-494838Y202235D01*
X-495010Y202213D01*
X-495183Y202197D01*
X-495231Y202184D01*
X-495281Y202178D01*
X-495446Y202125D01*
X-495614Y202079D01*
X-495659Y202057D01*
X-495706Y202042D01*
X-495860Y201961D01*
X-496016Y201886D01*
X-496057Y201856D01*
X-496101Y201833D01*
X-496238Y201726D01*
X-496378Y201624D01*
X-496413Y201588D01*
X-496452Y201557D01*
X-496568Y201427D01*
X-496688Y201302D01*
X-496715Y201260D01*
X-496749Y201222D01*
X-496839Y201074D01*
X-496935Y200930D01*
X-496955Y200884D01*
X-496981Y200841D01*
X-497043Y200679D01*
X-497112Y200519D01*
X-497123Y200471D01*
X-497141Y200424D01*
X-497174Y200253D01*
X-497213Y200084D01*
X-497216Y200034D01*
X-497225Y199985D01*
X-497237Y199738D01*
X-497237Y5262D01*
X-497233Y5212D01*
X-497235Y5162D01*
X-497213Y4990D01*
X-497197Y4817D01*
X-497184Y4769D01*
X-497178Y4719D01*
X-497125Y4554D01*
X-497079Y4386D01*
X-497057Y4341D01*
X-497042Y4294D01*
X-496961Y4140D01*
X-496886Y3984D01*
X-496856Y3943D01*
X-496833Y3899D01*
X-496726Y3762D01*
X-496624Y3622D01*
X-496588Y3587D01*
X-496557Y3548D01*
X-496427Y3432D01*
X-496302Y3312D01*
X-496260Y3285D01*
X-496222Y3251D01*
X-496074Y3161D01*
X-495930Y3065D01*
X-495884Y3045D01*
X-495841Y3019D01*
X-495679Y2957D01*
X-495519Y2888D01*
X-495471Y2877D01*
X-495424Y2859D01*
X-495253Y2826D01*
X-495084Y2787D01*
X-495034Y2784D01*
X-494985Y2775D01*
X-494738Y2763D01*
X494738Y2763D01*
X494788Y2767D01*
G37*
%LPC*%
G36*
X271228Y41735D02*
X271228Y41735D01*
X270335Y42628D01*
X270335Y58990D01*
X270363Y59023D01*
X270487Y59162D01*
X270506Y59194D01*
X270530Y59222D01*
X270622Y59384D01*
X270719Y59544D01*
X270732Y59579D01*
X270750Y59611D01*
X270812Y59786D01*
X270879Y59961D01*
X270886Y59997D01*
X270899Y60032D01*
X270928Y60216D01*
X270963Y60400D01*
X270966Y60450D01*
X270969Y60473D01*
X270968Y60510D01*
X270975Y60647D01*
X270975Y123762D01*
X270959Y123948D01*
X270947Y124134D01*
X270939Y124170D01*
X270935Y124207D01*
X270886Y124387D01*
X270842Y124568D01*
X270827Y124602D01*
X270817Y124638D01*
X270736Y124806D01*
X270660Y124976D01*
X270640Y125007D01*
X270624Y125040D01*
X270514Y125192D01*
X270409Y125346D01*
X270375Y125383D01*
X270362Y125402D01*
X270335Y125428D01*
X270243Y125529D01*
X161969Y233804D01*
X160975Y236202D01*
X160975Y501262D01*
X160959Y501448D01*
X160947Y501634D01*
X160939Y501670D01*
X160935Y501707D01*
X160886Y501887D01*
X160842Y502068D01*
X160827Y502102D01*
X160817Y502138D01*
X160736Y502306D01*
X160660Y502476D01*
X160640Y502507D01*
X160624Y502540D01*
X160514Y502692D01*
X160409Y502846D01*
X160375Y502883D01*
X160362Y502902D01*
X160335Y502928D01*
X160243Y503029D01*
X94469Y568804D01*
X93475Y571202D01*
X93475Y666298D01*
X94469Y668696D01*
X105243Y679471D01*
X105363Y679614D01*
X105487Y679753D01*
X105506Y679785D01*
X105530Y679813D01*
X105622Y679975D01*
X105719Y680135D01*
X105732Y680170D01*
X105750Y680202D01*
X105812Y680378D01*
X105879Y680552D01*
X105886Y680588D01*
X105899Y680623D01*
X105928Y680807D01*
X105963Y680991D01*
X105966Y681041D01*
X105969Y681064D01*
X105968Y681101D01*
X105975Y681238D01*
X105975Y758798D01*
X106969Y761196D01*
X108804Y763031D01*
X111202Y764025D01*
X113798Y764025D01*
X116196Y763031D01*
X118031Y761196D01*
X119025Y758798D01*
X119025Y676202D01*
X118031Y673804D01*
X107257Y663029D01*
X107137Y662886D01*
X107013Y662747D01*
X106994Y662715D01*
X106970Y662687D01*
X106878Y662525D01*
X106781Y662365D01*
X106768Y662330D01*
X106750Y662298D01*
X106688Y662122D01*
X106621Y661948D01*
X106614Y661912D01*
X106601Y661877D01*
X106572Y661693D01*
X106537Y661509D01*
X106534Y661459D01*
X106531Y661436D01*
X106532Y661399D01*
X106525Y661262D01*
X106525Y576238D01*
X106541Y576052D01*
X106553Y575866D01*
X106561Y575830D01*
X106565Y575793D01*
X106614Y575613D01*
X106658Y575432D01*
X106673Y575398D01*
X106683Y575362D01*
X106764Y575194D01*
X106840Y575024D01*
X106860Y574993D01*
X106876Y574960D01*
X106986Y574808D01*
X107091Y574654D01*
X107125Y574617D01*
X107138Y574598D01*
X107165Y574572D01*
X107257Y574471D01*
X173031Y508696D01*
X174025Y506298D01*
X174025Y241238D01*
X174041Y241052D01*
X174053Y240866D01*
X174061Y240830D01*
X174065Y240793D01*
X174114Y240613D01*
X174158Y240432D01*
X174173Y240398D01*
X174183Y240362D01*
X174264Y240194D01*
X174340Y240024D01*
X174360Y239993D01*
X174376Y239960D01*
X174486Y239808D01*
X174591Y239654D01*
X174625Y239617D01*
X174638Y239598D01*
X174665Y239572D01*
X174757Y239471D01*
X194209Y220019D01*
X194314Y219931D01*
X194412Y219836D01*
X194485Y219788D01*
X194552Y219732D01*
X194670Y219665D01*
X194784Y219589D01*
X194864Y219554D01*
X194940Y219511D01*
X195069Y219466D01*
X195195Y219412D01*
X195279Y219392D01*
X195361Y219363D01*
X195497Y219342D01*
X195630Y219311D01*
X195716Y219306D01*
X195802Y219293D01*
X195939Y219295D01*
X196076Y219289D01*
X196162Y219300D01*
X196249Y219302D01*
X196383Y219329D01*
X196519Y219346D01*
X196602Y219373D01*
X196687Y219390D01*
X196814Y219440D01*
X196944Y219482D01*
X197021Y219522D01*
X197102Y219555D01*
X197218Y219627D01*
X197339Y219691D01*
X197407Y219745D01*
X197481Y219791D01*
X197583Y219883D01*
X197690Y219967D01*
X197748Y220032D01*
X197812Y220091D01*
X197896Y220199D01*
X197987Y220301D01*
X198032Y220376D01*
X198085Y220445D01*
X198148Y220566D01*
X198219Y220683D01*
X198250Y220764D01*
X198290Y220841D01*
X198330Y220972D01*
X198379Y221100D01*
X198396Y221185D01*
X198421Y221268D01*
X198437Y221404D01*
X198463Y221539D01*
X198470Y221675D01*
X198474Y221712D01*
X198473Y221735D01*
X198475Y221786D01*
X198475Y636262D01*
X198459Y636448D01*
X198447Y636634D01*
X198439Y636670D01*
X198435Y636707D01*
X198386Y636887D01*
X198342Y637068D01*
X198327Y637102D01*
X198317Y637138D01*
X198236Y637306D01*
X198160Y637476D01*
X198140Y637507D01*
X198124Y637540D01*
X198014Y637692D01*
X197909Y637846D01*
X197875Y637883D01*
X197862Y637902D01*
X197835Y637928D01*
X197743Y638029D01*
X156969Y678804D01*
X155975Y681202D01*
X155975Y758798D01*
X156969Y761196D01*
X158804Y763031D01*
X159900Y763485D01*
X159983Y763529D01*
X160070Y763563D01*
X160180Y763632D01*
X160296Y763693D01*
X160370Y763750D01*
X160449Y763799D01*
X160545Y763887D01*
X160648Y763967D01*
X160711Y764036D01*
X160780Y764099D01*
X160860Y764203D01*
X160947Y764299D01*
X160996Y764379D01*
X161053Y764453D01*
X161112Y764569D01*
X161181Y764680D01*
X161215Y764767D01*
X161258Y764850D01*
X161296Y764975D01*
X161343Y765096D01*
X161361Y765188D01*
X161389Y765277D01*
X161404Y765406D01*
X161429Y765534D01*
X161431Y765628D01*
X161442Y765721D01*
X161434Y765851D01*
X161436Y765981D01*
X161421Y766073D01*
X161415Y766166D01*
X161384Y766293D01*
X161363Y766422D01*
X161332Y766510D01*
X161309Y766600D01*
X161257Y766720D01*
X161213Y766842D01*
X161166Y766923D01*
X161128Y767009D01*
X161055Y767117D01*
X160990Y767229D01*
X160930Y767301D01*
X160877Y767378D01*
X160711Y767562D01*
X114469Y813804D01*
X113475Y816202D01*
X113475Y818798D01*
X114469Y821196D01*
X116304Y823031D01*
X118702Y824025D01*
X121298Y824025D01*
X123696Y823031D01*
X176971Y769757D01*
X177114Y769637D01*
X177253Y769513D01*
X177285Y769494D01*
X177313Y769470D01*
X177475Y769378D01*
X177635Y769281D01*
X177670Y769268D01*
X177702Y769250D01*
X177878Y769188D01*
X178052Y769121D01*
X178088Y769114D01*
X178123Y769101D01*
X178307Y769072D01*
X178491Y769037D01*
X178541Y769034D01*
X178564Y769031D01*
X178601Y769032D01*
X178738Y769025D01*
X279076Y769025D01*
X279126Y769029D01*
X279176Y769027D01*
X279348Y769049D01*
X279521Y769065D01*
X279569Y769078D01*
X279619Y769084D01*
X279784Y769137D01*
X279952Y769183D01*
X279997Y769205D01*
X280044Y769220D01*
X280198Y769301D01*
X280354Y769376D01*
X280395Y769406D01*
X280439Y769429D01*
X280576Y769536D01*
X280716Y769638D01*
X280751Y769674D01*
X280790Y769705D01*
X280906Y769835D01*
X281026Y769960D01*
X281053Y770002D01*
X281087Y770040D01*
X281177Y770188D01*
X281273Y770332D01*
X281293Y770378D01*
X281319Y770421D01*
X281381Y770583D01*
X281450Y770743D01*
X281461Y770791D01*
X281479Y770838D01*
X281512Y771009D01*
X281551Y771178D01*
X281554Y771228D01*
X281563Y771277D01*
X281575Y771524D01*
X281575Y771632D01*
X282468Y772525D01*
X301732Y772525D01*
X302625Y771632D01*
X302625Y752368D01*
X301732Y751475D01*
X282468Y751475D01*
X281575Y752368D01*
X281575Y753476D01*
X281571Y753526D01*
X281573Y753576D01*
X281551Y753748D01*
X281535Y753921D01*
X281522Y753969D01*
X281516Y754019D01*
X281463Y754184D01*
X281417Y754352D01*
X281395Y754397D01*
X281380Y754444D01*
X281299Y754598D01*
X281224Y754754D01*
X281194Y754795D01*
X281171Y754839D01*
X281064Y754976D01*
X280962Y755116D01*
X280926Y755151D01*
X280895Y755190D01*
X280765Y755306D01*
X280640Y755426D01*
X280598Y755453D01*
X280560Y755487D01*
X280412Y755577D01*
X280268Y755673D01*
X280222Y755693D01*
X280179Y755719D01*
X280017Y755781D01*
X279857Y755850D01*
X279809Y755861D01*
X279762Y755879D01*
X279591Y755912D01*
X279422Y755951D01*
X279372Y755954D01*
X279323Y755963D01*
X279076Y755975D01*
X173702Y755975D01*
X172480Y756481D01*
X172391Y756509D01*
X172305Y756546D01*
X172179Y756576D01*
X172054Y756615D01*
X171961Y756626D01*
X171870Y756647D01*
X171740Y756654D01*
X171611Y756670D01*
X171517Y756665D01*
X171424Y756670D01*
X171295Y756653D01*
X171165Y756646D01*
X171074Y756624D01*
X170981Y756612D01*
X170857Y756572D01*
X170730Y756542D01*
X170645Y756505D01*
X170556Y756476D01*
X170441Y756415D01*
X170321Y756363D01*
X170243Y756311D01*
X170161Y756267D01*
X170058Y756187D01*
X169950Y756114D01*
X169883Y756049D01*
X169810Y755991D01*
X169723Y755894D01*
X169630Y755803D01*
X169575Y755727D01*
X169513Y755657D01*
X169446Y755545D01*
X169370Y755439D01*
X169330Y755355D01*
X169281Y755275D01*
X169234Y755154D01*
X169179Y755036D01*
X169154Y754946D01*
X169121Y754858D01*
X169096Y754730D01*
X169062Y754604D01*
X169055Y754511D01*
X169037Y754420D01*
X169025Y754172D01*
X169025Y686238D01*
X169041Y686052D01*
X169053Y685866D01*
X169061Y685830D01*
X169065Y685793D01*
X169114Y685613D01*
X169158Y685432D01*
X169173Y685398D01*
X169183Y685362D01*
X169264Y685194D01*
X169340Y685024D01*
X169360Y684993D01*
X169376Y684960D01*
X169486Y684808D01*
X169591Y684654D01*
X169625Y684617D01*
X169638Y684598D01*
X169665Y684572D01*
X169757Y684471D01*
X210531Y643696D01*
X211525Y641298D01*
X211525Y221238D01*
X211541Y221052D01*
X211553Y220866D01*
X211561Y220830D01*
X211565Y220793D01*
X211614Y220613D01*
X211658Y220432D01*
X211673Y220398D01*
X211683Y220362D01*
X211764Y220194D01*
X211840Y220024D01*
X211860Y219993D01*
X211876Y219960D01*
X211986Y219808D01*
X212091Y219654D01*
X212125Y219617D01*
X212138Y219598D01*
X212165Y219572D01*
X212257Y219471D01*
X308031Y123696D01*
X309025Y121298D01*
X309025Y62364D01*
X309029Y62314D01*
X309027Y62264D01*
X309049Y62092D01*
X309065Y61919D01*
X309078Y61871D01*
X309084Y61821D01*
X309137Y61656D01*
X309183Y61488D01*
X309205Y61443D01*
X309220Y61396D01*
X309301Y61242D01*
X309376Y61086D01*
X309406Y61045D01*
X309429Y61001D01*
X309536Y60864D01*
X309638Y60724D01*
X309674Y60689D01*
X309705Y60650D01*
X309835Y60534D01*
X309960Y60414D01*
X310002Y60387D01*
X310040Y60353D01*
X310188Y60263D01*
X310332Y60167D01*
X310378Y60147D01*
X310421Y60121D01*
X310583Y60059D01*
X310743Y59990D01*
X310791Y59979D01*
X310838Y59961D01*
X311009Y59928D01*
X311178Y59889D01*
X311228Y59886D01*
X311277Y59877D01*
X311524Y59865D01*
X312972Y59865D01*
X313865Y58972D01*
X313865Y42628D01*
X312972Y41735D01*
X296628Y41735D01*
X295735Y42628D01*
X295735Y59184D01*
X295750Y59211D01*
X295799Y59349D01*
X295849Y59464D01*
X295859Y59507D01*
X295879Y59561D01*
X295886Y59597D01*
X295899Y59632D01*
X295922Y59781D01*
X295950Y59899D01*
X295952Y59941D01*
X295963Y60000D01*
X295966Y60050D01*
X295969Y60073D01*
X295968Y60110D01*
X295975Y60247D01*
X295975Y116262D01*
X295959Y116448D01*
X295947Y116634D01*
X295939Y116670D01*
X295935Y116707D01*
X295886Y116887D01*
X295842Y117068D01*
X295827Y117102D01*
X295817Y117138D01*
X295736Y117306D01*
X295660Y117476D01*
X295640Y117507D01*
X295624Y117540D01*
X295514Y117692D01*
X295409Y117846D01*
X295375Y117883D01*
X295362Y117902D01*
X295335Y117928D01*
X295243Y118029D01*
X288291Y124981D01*
X288186Y125069D01*
X288088Y125164D01*
X288015Y125212D01*
X287948Y125268D01*
X287830Y125335D01*
X287716Y125411D01*
X287636Y125446D01*
X287560Y125489D01*
X287431Y125534D01*
X287305Y125588D01*
X287221Y125608D01*
X287139Y125637D01*
X287003Y125658D01*
X286870Y125689D01*
X286784Y125694D01*
X286698Y125707D01*
X286561Y125705D01*
X286424Y125711D01*
X286338Y125700D01*
X286251Y125698D01*
X286117Y125671D01*
X285981Y125654D01*
X285898Y125627D01*
X285813Y125610D01*
X285686Y125560D01*
X285556Y125518D01*
X285479Y125478D01*
X285398Y125445D01*
X285282Y125373D01*
X285161Y125309D01*
X285093Y125255D01*
X285019Y125209D01*
X284917Y125117D01*
X284810Y125033D01*
X284752Y124968D01*
X284688Y124909D01*
X284604Y124801D01*
X284513Y124699D01*
X284468Y124624D01*
X284415Y124555D01*
X284352Y124434D01*
X284281Y124317D01*
X284250Y124236D01*
X284210Y124159D01*
X284170Y124028D01*
X284121Y123900D01*
X284104Y123815D01*
X284079Y123732D01*
X284063Y123596D01*
X284037Y123461D01*
X284030Y123325D01*
X284026Y123288D01*
X284027Y123265D01*
X284025Y123214D01*
X284025Y62364D01*
X284029Y62314D01*
X284027Y62264D01*
X284049Y62092D01*
X284065Y61919D01*
X284078Y61871D01*
X284084Y61821D01*
X284137Y61656D01*
X284183Y61488D01*
X284205Y61443D01*
X284220Y61396D01*
X284301Y61242D01*
X284376Y61086D01*
X284406Y61045D01*
X284429Y61001D01*
X284536Y60864D01*
X284638Y60724D01*
X284674Y60689D01*
X284705Y60650D01*
X284835Y60534D01*
X284960Y60414D01*
X285002Y60387D01*
X285040Y60353D01*
X285188Y60263D01*
X285332Y60167D01*
X285378Y60147D01*
X285421Y60121D01*
X285583Y60059D01*
X285743Y59990D01*
X285791Y59979D01*
X285838Y59961D01*
X286009Y59928D01*
X286178Y59889D01*
X286228Y59886D01*
X286277Y59877D01*
X286524Y59865D01*
X287572Y59865D01*
X288465Y58972D01*
X288465Y42628D01*
X287572Y41735D01*
X271228Y41735D01*
G37*
%LPD*%
%LPC*%
G36*
X-41387Y21575D02*
X-41387Y21575D01*
X-47460Y24091D01*
X-64809Y41440D01*
X-67325Y47513D01*
X-67325Y130287D01*
X-64809Y136360D01*
X-60160Y141009D01*
X-54087Y143525D01*
X-47513Y143525D01*
X-41440Y141009D01*
X-36791Y136360D01*
X-34275Y130287D01*
X-34275Y107924D01*
X-34271Y107874D01*
X-34273Y107824D01*
X-34251Y107652D01*
X-34235Y107479D01*
X-34222Y107431D01*
X-34216Y107381D01*
X-34163Y107216D01*
X-34117Y107048D01*
X-34095Y107003D01*
X-34080Y106956D01*
X-33999Y106802D01*
X-33924Y106646D01*
X-33894Y106605D01*
X-33871Y106561D01*
X-33764Y106424D01*
X-33662Y106284D01*
X-33626Y106249D01*
X-33595Y106210D01*
X-33465Y106094D01*
X-33340Y105974D01*
X-33298Y105947D01*
X-33260Y105913D01*
X-33112Y105823D01*
X-32968Y105727D01*
X-32922Y105707D01*
X-32879Y105681D01*
X-32717Y105619D01*
X-32557Y105550D01*
X-32509Y105539D01*
X-32462Y105521D01*
X-32291Y105488D01*
X-32122Y105449D01*
X-32072Y105446D01*
X-32023Y105437D01*
X-31776Y105425D01*
X55620Y105425D01*
X55806Y105441D01*
X55992Y105453D01*
X56028Y105461D01*
X56065Y105465D01*
X56245Y105514D01*
X56426Y105558D01*
X56460Y105573D01*
X56496Y105583D01*
X56664Y105664D01*
X56834Y105740D01*
X56865Y105760D01*
X56898Y105776D01*
X57049Y105886D01*
X57204Y105991D01*
X57241Y106025D01*
X57260Y106038D01*
X57286Y106065D01*
X57387Y106157D01*
X58209Y106978D01*
X58324Y107116D01*
X58444Y107250D01*
X58467Y107287D01*
X58495Y107321D01*
X58584Y107478D01*
X58678Y107631D01*
X58694Y107671D01*
X58716Y107709D01*
X58775Y107879D01*
X58841Y108047D01*
X58849Y108090D01*
X58864Y108131D01*
X58892Y108308D01*
X58927Y108485D01*
X58928Y108529D01*
X58935Y108572D01*
X58931Y108752D01*
X58934Y108932D01*
X58927Y108975D01*
X58926Y109018D01*
X58890Y109195D01*
X58861Y109373D01*
X58846Y109413D01*
X58837Y109456D01*
X58771Y109624D01*
X58710Y109793D01*
X58689Y109831D01*
X58673Y109871D01*
X58577Y110024D01*
X58488Y110180D01*
X58459Y110214D01*
X58436Y110251D01*
X58316Y110384D01*
X58199Y110522D01*
X58166Y110550D01*
X58137Y110582D01*
X57994Y110691D01*
X57855Y110806D01*
X57817Y110828D01*
X57783Y110854D01*
X57623Y110937D01*
X57466Y111025D01*
X57425Y111039D01*
X57386Y111059D01*
X57214Y111112D01*
X57043Y111171D01*
X57000Y111178D01*
X56959Y111190D01*
X56780Y111212D01*
X56602Y111239D01*
X56558Y111238D01*
X56515Y111243D01*
X56336Y111233D01*
X56155Y111228D01*
X56113Y111219D01*
X56069Y111217D01*
X55895Y111174D01*
X55718Y111138D01*
X55661Y111117D01*
X55635Y111111D01*
X55601Y111096D01*
X55485Y111054D01*
X54087Y110475D01*
X47513Y110475D01*
X41440Y112991D01*
X36791Y117640D01*
X34275Y123713D01*
X34275Y182620D01*
X34259Y182806D01*
X34247Y182992D01*
X34239Y183028D01*
X34235Y183065D01*
X34186Y183245D01*
X34142Y183426D01*
X34127Y183460D01*
X34117Y183496D01*
X34036Y183664D01*
X33960Y183834D01*
X33940Y183865D01*
X33924Y183898D01*
X33814Y184049D01*
X33709Y184204D01*
X33675Y184241D01*
X33662Y184260D01*
X33635Y184286D01*
X33543Y184387D01*
X19287Y198643D01*
X19144Y198763D01*
X19004Y198887D01*
X18973Y198906D01*
X18944Y198930D01*
X18782Y199022D01*
X18623Y199119D01*
X18588Y199132D01*
X18556Y199150D01*
X18380Y199212D01*
X18206Y199279D01*
X18170Y199286D01*
X18135Y199299D01*
X17950Y199328D01*
X17767Y199363D01*
X17717Y199366D01*
X17694Y199369D01*
X17657Y199368D01*
X17520Y199375D01*
X-68320Y199375D01*
X-68506Y199359D01*
X-68692Y199347D01*
X-68728Y199339D01*
X-68765Y199335D01*
X-68945Y199286D01*
X-69126Y199242D01*
X-69160Y199227D01*
X-69196Y199217D01*
X-69364Y199136D01*
X-69534Y199060D01*
X-69565Y199040D01*
X-69598Y199024D01*
X-69749Y198914D01*
X-69904Y198809D01*
X-69941Y198775D01*
X-69960Y198762D01*
X-69986Y198735D01*
X-70087Y198643D01*
X-79099Y189631D01*
X-79187Y189526D01*
X-79282Y189428D01*
X-79330Y189355D01*
X-79386Y189288D01*
X-79453Y189170D01*
X-79529Y189056D01*
X-79563Y188976D01*
X-79606Y188900D01*
X-79652Y188771D01*
X-79706Y188645D01*
X-79726Y188561D01*
X-79755Y188479D01*
X-79776Y188343D01*
X-79807Y188210D01*
X-79811Y188124D01*
X-79825Y188038D01*
X-79823Y187901D01*
X-79829Y187764D01*
X-79818Y187678D01*
X-79816Y187591D01*
X-79789Y187457D01*
X-79772Y187321D01*
X-79745Y187238D01*
X-79728Y187153D01*
X-79678Y187026D01*
X-79636Y186896D01*
X-79595Y186819D01*
X-79563Y186738D01*
X-79491Y186622D01*
X-79427Y186501D01*
X-79373Y186433D01*
X-79327Y186359D01*
X-79235Y186257D01*
X-79151Y186150D01*
X-79086Y186092D01*
X-79027Y186028D01*
X-78919Y185944D01*
X-78817Y185853D01*
X-78742Y185808D01*
X-78673Y185755D01*
X-78552Y185692D01*
X-78435Y185621D01*
X-78354Y185590D01*
X-78276Y185550D01*
X-78146Y185510D01*
X-78018Y185461D01*
X-77932Y185444D01*
X-77849Y185419D01*
X-77714Y185403D01*
X-77579Y185377D01*
X-77443Y185370D01*
X-77406Y185366D01*
X-77382Y185367D01*
X-77332Y185365D01*
X-74695Y185365D01*
X-71915Y184213D01*
X-69787Y182085D01*
X-68635Y179305D01*
X-68635Y176295D01*
X-69787Y173515D01*
X-71915Y171387D01*
X-74695Y170235D01*
X-77705Y170235D01*
X-80485Y171387D01*
X-82002Y172903D01*
X-82073Y172963D01*
X-82138Y173030D01*
X-82244Y173106D01*
X-82344Y173190D01*
X-82426Y173236D01*
X-82502Y173290D01*
X-82620Y173346D01*
X-82733Y173411D01*
X-82821Y173442D01*
X-82905Y173482D01*
X-83031Y173516D01*
X-83154Y173559D01*
X-83246Y173573D01*
X-83337Y173598D01*
X-83467Y173609D01*
X-83595Y173629D01*
X-83689Y173628D01*
X-83782Y173635D01*
X-83912Y173623D01*
X-84042Y173620D01*
X-84133Y173602D01*
X-84227Y173593D01*
X-84352Y173558D01*
X-84480Y173532D01*
X-84567Y173498D01*
X-84657Y173472D01*
X-84774Y173415D01*
X-84895Y173367D01*
X-84974Y173318D01*
X-85058Y173277D01*
X-85164Y173200D01*
X-85274Y173131D01*
X-85343Y173069D01*
X-85419Y173013D01*
X-85509Y172919D01*
X-85605Y172831D01*
X-85662Y172757D01*
X-85727Y172690D01*
X-85798Y172581D01*
X-85878Y172477D01*
X-85921Y172394D01*
X-85972Y172316D01*
X-86078Y172093D01*
X-87591Y168440D01*
X-92240Y163791D01*
X-98313Y161275D01*
X-104887Y161275D01*
X-110960Y163791D01*
X-115609Y168440D01*
X-118125Y174513D01*
X-118125Y193787D01*
X-115609Y199860D01*
X-85560Y229909D01*
X-79487Y232425D01*
X28687Y232425D01*
X34760Y229909D01*
X39760Y224909D01*
X39761Y224909D01*
X59809Y204861D01*
X59809Y204860D01*
X64809Y199860D01*
X67325Y193787D01*
X67325Y185657D01*
X67337Y185520D01*
X67340Y185383D01*
X67357Y185298D01*
X67365Y185212D01*
X67401Y185080D01*
X67428Y184946D01*
X67460Y184865D01*
X67483Y184781D01*
X67542Y184658D01*
X67593Y184530D01*
X67639Y184457D01*
X67676Y184378D01*
X67757Y184267D01*
X67829Y184151D01*
X67887Y184087D01*
X67938Y184016D01*
X68037Y183921D01*
X68129Y183820D01*
X68198Y183767D01*
X68260Y183707D01*
X68374Y183631D01*
X68483Y183548D01*
X68560Y183508D01*
X68632Y183460D01*
X68758Y183405D01*
X68880Y183343D01*
X68963Y183317D01*
X69043Y183283D01*
X69176Y183252D01*
X69307Y183211D01*
X69393Y183201D01*
X69478Y183181D01*
X69614Y183175D01*
X69750Y183158D01*
X69837Y183164D01*
X69924Y183159D01*
X70059Y183177D01*
X70196Y183185D01*
X70281Y183206D01*
X70367Y183217D01*
X70497Y183258D01*
X70630Y183291D01*
X70710Y183326D01*
X70792Y183353D01*
X70913Y183417D01*
X71038Y183472D01*
X71110Y183521D01*
X71187Y183562D01*
X71295Y183646D01*
X71408Y183723D01*
X71509Y183815D01*
X71538Y183838D01*
X71554Y183856D01*
X71591Y183889D01*
X71915Y184213D01*
X74695Y185365D01*
X77705Y185365D01*
X80485Y184213D01*
X82002Y182697D01*
X82073Y182637D01*
X82138Y182570D01*
X82244Y182494D01*
X82344Y182410D01*
X82426Y182364D01*
X82502Y182310D01*
X82620Y182254D01*
X82733Y182189D01*
X82821Y182158D01*
X82905Y182118D01*
X83031Y182084D01*
X83154Y182041D01*
X83246Y182026D01*
X83337Y182002D01*
X83467Y181991D01*
X83595Y181971D01*
X83689Y181972D01*
X83782Y181965D01*
X83912Y181977D01*
X84042Y181979D01*
X84133Y181998D01*
X84227Y182007D01*
X84352Y182042D01*
X84480Y182068D01*
X84567Y182102D01*
X84657Y182128D01*
X84774Y182185D01*
X84895Y182233D01*
X84974Y182282D01*
X85058Y182323D01*
X85164Y182400D01*
X85274Y182469D01*
X85343Y182531D01*
X85419Y182587D01*
X85509Y182681D01*
X85605Y182769D01*
X85662Y182843D01*
X85727Y182910D01*
X85798Y183019D01*
X85878Y183122D01*
X85921Y183206D01*
X85972Y183284D01*
X86078Y183507D01*
X87591Y187160D01*
X92240Y191809D01*
X98313Y194325D01*
X104887Y194325D01*
X110960Y191809D01*
X115609Y187160D01*
X118125Y181087D01*
X118125Y123713D01*
X115609Y117640D01*
X72860Y74891D01*
X66787Y72375D01*
X-31776Y72375D01*
X-31826Y72371D01*
X-31876Y72373D01*
X-32048Y72351D01*
X-32221Y72335D01*
X-32269Y72322D01*
X-32319Y72316D01*
X-32484Y72263D01*
X-32652Y72217D01*
X-32697Y72195D01*
X-32744Y72180D01*
X-32898Y72099D01*
X-33054Y72024D01*
X-33095Y71994D01*
X-33139Y71971D01*
X-33276Y71864D01*
X-33416Y71762D01*
X-33451Y71726D01*
X-33490Y71695D01*
X-33606Y71565D01*
X-33726Y71440D01*
X-33753Y71398D01*
X-33787Y71360D01*
X-33877Y71212D01*
X-33973Y71068D01*
X-33993Y71022D01*
X-34019Y70979D01*
X-34081Y70817D01*
X-34150Y70657D01*
X-34161Y70609D01*
X-34179Y70562D01*
X-34212Y70391D01*
X-34251Y70222D01*
X-34254Y70172D01*
X-34263Y70123D01*
X-34275Y69876D01*
X-34275Y58680D01*
X-34259Y58494D01*
X-34247Y58308D01*
X-34239Y58272D01*
X-34235Y58235D01*
X-34186Y58055D01*
X-34142Y57874D01*
X-34127Y57840D01*
X-34117Y57804D01*
X-34036Y57636D01*
X-33960Y57466D01*
X-33940Y57435D01*
X-33924Y57402D01*
X-33814Y57251D01*
X-33709Y57096D01*
X-33675Y57059D01*
X-33662Y57040D01*
X-33635Y57014D01*
X-33543Y56913D01*
X-31987Y55357D01*
X-31844Y55237D01*
X-31704Y55113D01*
X-31673Y55094D01*
X-31644Y55070D01*
X-31482Y54978D01*
X-31323Y54881D01*
X-31288Y54868D01*
X-31256Y54850D01*
X-31080Y54788D01*
X-30906Y54721D01*
X-30870Y54714D01*
X-30835Y54701D01*
X-30650Y54672D01*
X-30467Y54637D01*
X-30417Y54634D01*
X-30394Y54631D01*
X-30357Y54632D01*
X-30220Y54625D01*
X-21713Y54625D01*
X-15640Y52109D01*
X-10991Y47460D01*
X-10637Y46606D01*
X-10594Y46523D01*
X-10559Y46436D01*
X-10490Y46326D01*
X-10430Y46210D01*
X-10373Y46137D01*
X-10323Y46057D01*
X-10236Y45960D01*
X-10156Y45858D01*
X-10086Y45795D01*
X-10023Y45726D01*
X-9920Y45647D01*
X-9823Y45560D01*
X-9743Y45511D01*
X-9669Y45454D01*
X-9553Y45394D01*
X-9443Y45326D01*
X-9355Y45292D01*
X-9272Y45249D01*
X-9148Y45210D01*
X-9027Y45163D01*
X-8935Y45145D01*
X-8845Y45117D01*
X-8716Y45102D01*
X-8588Y45077D01*
X-8494Y45076D01*
X-8402Y45064D01*
X-8272Y45072D01*
X-8142Y45070D01*
X-8049Y45086D01*
X-7956Y45091D01*
X-7829Y45122D01*
X-7701Y45143D01*
X-7613Y45175D01*
X-7522Y45197D01*
X-7403Y45250D01*
X-7280Y45294D01*
X-7199Y45340D01*
X-7114Y45378D01*
X-7006Y45452D01*
X-6893Y45516D01*
X-6822Y45577D01*
X-6744Y45629D01*
X-6570Y45787D01*
X-5284Y46722D01*
X-3870Y47442D01*
X-2499Y47887D01*
X-2499Y38100D01*
X-2499Y28313D01*
X-3870Y28758D01*
X-5284Y29478D01*
X-6577Y30418D01*
X-6633Y30464D01*
X-6698Y30532D01*
X-6804Y30607D01*
X-6903Y30691D01*
X-6985Y30737D01*
X-7061Y30792D01*
X-7179Y30847D01*
X-7292Y30912D01*
X-7380Y30943D01*
X-7465Y30983D01*
X-7591Y31017D01*
X-7713Y31060D01*
X-7805Y31075D01*
X-7896Y31099D01*
X-8026Y31110D01*
X-8154Y31131D01*
X-8248Y31129D01*
X-8341Y31137D01*
X-8471Y31124D01*
X-8601Y31122D01*
X-8693Y31103D01*
X-8786Y31094D01*
X-8911Y31059D01*
X-9039Y31033D01*
X-9126Y30999D01*
X-9216Y30974D01*
X-9333Y30917D01*
X-9454Y30869D01*
X-9533Y30819D01*
X-9618Y30778D01*
X-9723Y30701D01*
X-9833Y30633D01*
X-9903Y30570D01*
X-9978Y30515D01*
X-10068Y30420D01*
X-10164Y30333D01*
X-10221Y30259D01*
X-10286Y30191D01*
X-10357Y30082D01*
X-10437Y29979D01*
X-10480Y29896D01*
X-10531Y29817D01*
X-10637Y29594D01*
X-10991Y28740D01*
X-15640Y24091D01*
X-21713Y21575D01*
X-41387Y21575D01*
G37*
%LPD*%
%LPC*%
G36*
X-273682Y17525D02*
X-273682Y17525D01*
X-274575Y18418D01*
X-274575Y32382D01*
X-273682Y33275D01*
X-271524Y33275D01*
X-271474Y33279D01*
X-271424Y33277D01*
X-271252Y33299D01*
X-271079Y33315D01*
X-271031Y33328D01*
X-270981Y33334D01*
X-270816Y33387D01*
X-270648Y33433D01*
X-270603Y33455D01*
X-270556Y33470D01*
X-270402Y33551D01*
X-270246Y33626D01*
X-270205Y33656D01*
X-270161Y33679D01*
X-270024Y33786D01*
X-269884Y33888D01*
X-269849Y33924D01*
X-269810Y33955D01*
X-269694Y34085D01*
X-269574Y34210D01*
X-269547Y34252D01*
X-269513Y34290D01*
X-269423Y34438D01*
X-269327Y34582D01*
X-269307Y34628D01*
X-269281Y34671D01*
X-269219Y34833D01*
X-269150Y34993D01*
X-269139Y35041D01*
X-269121Y35088D01*
X-269088Y35259D01*
X-269049Y35428D01*
X-269046Y35478D01*
X-269037Y35527D01*
X-269025Y35774D01*
X-269025Y71298D01*
X-268031Y73696D01*
X18804Y360531D01*
X21202Y361525D01*
X23798Y361525D01*
X25020Y361019D01*
X25109Y360991D01*
X25195Y360954D01*
X25321Y360924D01*
X25446Y360885D01*
X25539Y360874D01*
X25630Y360853D01*
X25760Y360846D01*
X25889Y360830D01*
X25983Y360835D01*
X26076Y360830D01*
X26205Y360847D01*
X26335Y360854D01*
X26426Y360876D01*
X26519Y360888D01*
X26643Y360928D01*
X26770Y360958D01*
X26855Y360995D01*
X26944Y361024D01*
X27059Y361085D01*
X27179Y361137D01*
X27257Y361189D01*
X27339Y361233D01*
X27442Y361313D01*
X27550Y361386D01*
X27617Y361451D01*
X27690Y361509D01*
X27777Y361606D01*
X27870Y361697D01*
X27925Y361773D01*
X27987Y361843D01*
X28054Y361955D01*
X28130Y362061D01*
X28170Y362145D01*
X28219Y362225D01*
X28266Y362346D01*
X28321Y362464D01*
X28346Y362554D01*
X28379Y362642D01*
X28404Y362770D01*
X28438Y362896D01*
X28445Y362989D01*
X28463Y363080D01*
X28475Y363328D01*
X28475Y486298D01*
X29469Y488696D01*
X31304Y490531D01*
X33702Y491525D01*
X36298Y491525D01*
X38696Y490531D01*
X40531Y488696D01*
X41525Y486298D01*
X41525Y301238D01*
X41541Y301052D01*
X41553Y300866D01*
X41561Y300830D01*
X41565Y300793D01*
X41614Y300613D01*
X41658Y300432D01*
X41673Y300398D01*
X41683Y300362D01*
X41764Y300194D01*
X41840Y300024D01*
X41860Y299993D01*
X41876Y299960D01*
X41986Y299808D01*
X42091Y299654D01*
X42125Y299617D01*
X42138Y299598D01*
X42165Y299572D01*
X42257Y299471D01*
X135531Y206196D01*
X136525Y203798D01*
X136525Y178738D01*
X136541Y178552D01*
X136553Y178366D01*
X136561Y178330D01*
X136565Y178293D01*
X136614Y178113D01*
X136658Y177932D01*
X136673Y177898D01*
X136683Y177862D01*
X136764Y177693D01*
X136840Y177524D01*
X136860Y177493D01*
X136876Y177460D01*
X136986Y177308D01*
X137091Y177154D01*
X137125Y177117D01*
X137138Y177098D01*
X137165Y177072D01*
X137257Y176971D01*
X253631Y60597D01*
X253774Y60477D01*
X253913Y60353D01*
X253945Y60334D01*
X253973Y60310D01*
X254135Y60218D01*
X254295Y60121D01*
X254330Y60108D01*
X254362Y60090D01*
X254538Y60028D01*
X254712Y59961D01*
X254748Y59954D01*
X254783Y59941D01*
X254967Y59912D01*
X255151Y59877D01*
X255201Y59874D01*
X255224Y59871D01*
X255261Y59872D01*
X255398Y59865D01*
X262172Y59865D01*
X263065Y58972D01*
X263065Y42628D01*
X262172Y41735D01*
X245828Y41735D01*
X244935Y42628D01*
X244935Y49802D01*
X244919Y49988D01*
X244907Y50174D01*
X244899Y50210D01*
X244895Y50247D01*
X244846Y50427D01*
X244802Y50608D01*
X244787Y50642D01*
X244777Y50678D01*
X244696Y50846D01*
X244620Y51016D01*
X244600Y51047D01*
X244584Y51080D01*
X244474Y51232D01*
X244369Y51386D01*
X244335Y51423D01*
X244322Y51442D01*
X244295Y51468D01*
X244203Y51569D01*
X124469Y171304D01*
X123475Y173702D01*
X123475Y198762D01*
X123459Y198948D01*
X123447Y199134D01*
X123439Y199170D01*
X123435Y199207D01*
X123386Y199387D01*
X123342Y199568D01*
X123327Y199602D01*
X123317Y199638D01*
X123236Y199806D01*
X123160Y199976D01*
X123140Y200007D01*
X123124Y200040D01*
X123015Y200191D01*
X122909Y200346D01*
X122875Y200383D01*
X122862Y200402D01*
X122835Y200428D01*
X122743Y200529D01*
X29469Y293804D01*
X28475Y296202D01*
X28475Y345714D01*
X28463Y345851D01*
X28460Y345987D01*
X28443Y346072D01*
X28435Y346159D01*
X28399Y346291D01*
X28372Y346425D01*
X28340Y346506D01*
X28317Y346590D01*
X28258Y346713D01*
X28207Y346840D01*
X28161Y346914D01*
X28124Y346993D01*
X28043Y347104D01*
X27971Y347219D01*
X27913Y347284D01*
X27862Y347354D01*
X27763Y347449D01*
X27671Y347551D01*
X27602Y347604D01*
X27540Y347664D01*
X27426Y347740D01*
X27317Y347823D01*
X27240Y347863D01*
X27168Y347911D01*
X27042Y347965D01*
X26920Y348028D01*
X26837Y348054D01*
X26757Y348088D01*
X26624Y348119D01*
X26493Y348159D01*
X26407Y348170D01*
X26322Y348189D01*
X26186Y348196D01*
X26050Y348212D01*
X25963Y348207D01*
X25876Y348211D01*
X25741Y348194D01*
X25604Y348186D01*
X25519Y348165D01*
X25433Y348154D01*
X25303Y348112D01*
X25170Y348080D01*
X25091Y348045D01*
X25008Y348018D01*
X24887Y347954D01*
X24762Y347899D01*
X24690Y347850D01*
X24613Y347809D01*
X24505Y347725D01*
X24392Y347648D01*
X24291Y347556D01*
X24262Y347533D01*
X24246Y347515D01*
X24209Y347481D01*
X-255243Y68029D01*
X-255363Y67886D01*
X-255487Y67747D01*
X-255506Y67715D01*
X-255530Y67687D01*
X-255622Y67525D01*
X-255719Y67365D01*
X-255732Y67330D01*
X-255750Y67298D01*
X-255812Y67122D01*
X-255879Y66948D01*
X-255886Y66912D01*
X-255899Y66877D01*
X-255928Y66693D01*
X-255963Y66509D01*
X-255966Y66459D01*
X-255969Y66436D01*
X-255968Y66399D01*
X-255975Y66262D01*
X-255975Y28702D01*
X-256969Y26304D01*
X-258093Y25179D01*
X-258213Y25036D01*
X-258337Y24897D01*
X-258356Y24865D01*
X-258380Y24837D01*
X-258472Y24675D01*
X-258569Y24515D01*
X-258582Y24480D01*
X-258600Y24448D01*
X-258662Y24272D01*
X-258729Y24098D01*
X-258736Y24062D01*
X-258749Y24027D01*
X-258778Y23843D01*
X-258813Y23659D01*
X-258816Y23609D01*
X-258819Y23586D01*
X-258818Y23549D01*
X-258825Y23412D01*
X-258825Y18418D01*
X-259718Y17525D01*
X-273682Y17525D01*
G37*
%LPD*%
%LPC*%
G36*
X-301732Y751475D02*
X-301732Y751475D01*
X-302625Y752368D01*
X-302625Y771632D01*
X-301732Y772525D01*
X-290238Y772525D01*
X-290052Y772541D01*
X-289866Y772553D01*
X-289830Y772561D01*
X-289793Y772565D01*
X-289612Y772614D01*
X-289432Y772658D01*
X-289398Y772673D01*
X-289362Y772683D01*
X-289194Y772764D01*
X-289024Y772840D01*
X-288993Y772860D01*
X-288959Y772876D01*
X-288808Y772986D01*
X-288654Y773091D01*
X-288617Y773125D01*
X-288598Y773138D01*
X-288592Y773145D01*
X-288591Y773145D01*
X-288570Y773167D01*
X-288471Y773257D01*
X-263383Y798344D01*
X-263383Y798345D01*
X-261196Y800531D01*
X-258798Y801525D01*
X-73702Y801525D01*
X-71304Y800531D01*
X-69469Y798696D01*
X-68475Y796298D01*
X-68475Y793702D01*
X-69469Y791304D01*
X-71304Y789469D01*
X-73702Y788475D01*
X-253762Y788475D01*
X-253948Y788459D01*
X-254134Y788447D01*
X-254170Y788439D01*
X-254207Y788435D01*
X-254388Y788386D01*
X-254568Y788342D01*
X-254602Y788327D01*
X-254638Y788317D01*
X-254806Y788236D01*
X-254976Y788160D01*
X-255007Y788140D01*
X-255041Y788124D01*
X-255192Y788014D01*
X-255346Y787909D01*
X-255383Y787875D01*
X-255402Y787862D01*
X-255428Y787835D01*
X-255529Y787743D01*
X-280843Y762429D01*
X-280963Y762286D01*
X-281087Y762147D01*
X-281106Y762115D01*
X-281130Y762087D01*
X-281222Y761925D01*
X-281319Y761765D01*
X-281332Y761730D01*
X-281350Y761698D01*
X-281412Y761522D01*
X-281479Y761348D01*
X-281486Y761312D01*
X-281499Y761277D01*
X-281528Y761093D01*
X-281563Y760909D01*
X-281566Y760859D01*
X-281569Y760836D01*
X-281568Y760799D01*
X-281575Y760662D01*
X-281575Y752368D01*
X-282468Y751475D01*
X-301732Y751475D01*
G37*
%LPD*%
%LPC*%
G36*
X91202Y348475D02*
X91202Y348475D01*
X88804Y349469D01*
X86969Y351304D01*
X85975Y353702D01*
X85975Y356298D01*
X86969Y358696D01*
X131483Y403211D01*
X131603Y403354D01*
X131727Y403493D01*
X131746Y403525D01*
X131770Y403553D01*
X131862Y403715D01*
X131959Y403875D01*
X131972Y403910D01*
X131990Y403942D01*
X132052Y404118D01*
X132119Y404292D01*
X132126Y404328D01*
X132139Y404363D01*
X132168Y404547D01*
X132203Y404731D01*
X132206Y404781D01*
X132209Y404804D01*
X132208Y404841D01*
X132215Y404978D01*
X132215Y417192D01*
X133108Y418085D01*
X147072Y418085D01*
X147965Y417192D01*
X147965Y403228D01*
X147257Y402520D01*
X147137Y402377D01*
X147013Y402238D01*
X146994Y402206D01*
X146970Y402178D01*
X146878Y402015D01*
X146781Y401856D01*
X146768Y401822D01*
X146750Y401789D01*
X146688Y401613D01*
X146621Y401439D01*
X146619Y401429D01*
X145531Y398804D01*
X96196Y349469D01*
X93798Y348475D01*
X91202Y348475D01*
G37*
%LPD*%
%LPC*%
G36*
X-453382Y32999D02*
X-453382Y32999D01*
X-459630Y35587D01*
X-464413Y40370D01*
X-467001Y46618D01*
X-467001Y53382D01*
X-464413Y59630D01*
X-459630Y64413D01*
X-453382Y67001D01*
X-446618Y67001D01*
X-440370Y64413D01*
X-435587Y59630D01*
X-432999Y53382D01*
X-432999Y46618D01*
X-435587Y40370D01*
X-440370Y35587D01*
X-446618Y32999D01*
X-453382Y32999D01*
G37*
%LPD*%
%LPC*%
G36*
X-453382Y812999D02*
X-453382Y812999D01*
X-459630Y815587D01*
X-464413Y820370D01*
X-467001Y826618D01*
X-467001Y833382D01*
X-464413Y839630D01*
X-459630Y844413D01*
X-453382Y847001D01*
X-446618Y847001D01*
X-440370Y844413D01*
X-435587Y839630D01*
X-432999Y833382D01*
X-432999Y826618D01*
X-435587Y820370D01*
X-440370Y815587D01*
X-446618Y812999D01*
X-453382Y812999D01*
G37*
%LPD*%
%LPC*%
G36*
X446618Y32999D02*
X446618Y32999D01*
X440370Y35587D01*
X435587Y40370D01*
X432999Y46618D01*
X432999Y53382D01*
X435587Y59630D01*
X440370Y64413D01*
X446618Y67001D01*
X453382Y67001D01*
X459630Y64413D01*
X464413Y59630D01*
X467001Y53382D01*
X467001Y46618D01*
X464413Y40370D01*
X459630Y35587D01*
X453382Y32999D01*
X446618Y32999D01*
G37*
%LPD*%
%LPC*%
G36*
X446618Y812999D02*
X446618Y812999D01*
X440370Y815587D01*
X435587Y820370D01*
X432999Y826618D01*
X432999Y833382D01*
X435587Y839630D01*
X440370Y844413D01*
X446618Y847001D01*
X453382Y847001D01*
X459630Y844413D01*
X464413Y839630D01*
X467001Y833382D01*
X467001Y826618D01*
X464413Y820370D01*
X459630Y815587D01*
X453382Y812999D01*
X446618Y812999D01*
G37*
%LPD*%
%LPC*%
G36*
X-168482Y216679D02*
X-168482Y216679D01*
X-174730Y219267D01*
X-179513Y224050D01*
X-182101Y230298D01*
X-182101Y237062D01*
X-179513Y243310D01*
X-174730Y248093D01*
X-168482Y250681D01*
X-161718Y250681D01*
X-155470Y248093D01*
X-150687Y243310D01*
X-148099Y237062D01*
X-148099Y230298D01*
X-150687Y224050D01*
X-155470Y219267D01*
X-161718Y216679D01*
X-168482Y216679D01*
G37*
%LPD*%
%LPC*%
G36*
X135048Y219219D02*
X135048Y219219D01*
X128800Y221807D01*
X124017Y226590D01*
X121429Y232838D01*
X121429Y239602D01*
X124017Y245850D01*
X128800Y250633D01*
X135048Y253221D01*
X141812Y253221D01*
X148060Y250633D01*
X152843Y245850D01*
X155431Y239602D01*
X155431Y232838D01*
X152843Y226590D01*
X148060Y221807D01*
X141812Y219219D01*
X135048Y219219D01*
G37*
%LPD*%
%LPC*%
G36*
X124170Y569975D02*
X124170Y569975D01*
X118942Y572141D01*
X114941Y576142D01*
X112775Y581370D01*
X112775Y587030D01*
X114941Y592258D01*
X118942Y596259D01*
X124170Y598425D01*
X129830Y598425D01*
X135058Y596259D01*
X139059Y592258D01*
X141225Y587030D01*
X141225Y581370D01*
X139059Y576142D01*
X135058Y572141D01*
X129830Y569975D01*
X124170Y569975D01*
G37*
%LPD*%
%LPC*%
G36*
X117368Y65675D02*
X117368Y65675D01*
X116475Y66568D01*
X116475Y85832D01*
X117368Y86725D01*
X136632Y86725D01*
X137525Y85832D01*
X137525Y66568D01*
X136632Y65675D01*
X117368Y65675D01*
G37*
%LPD*%
%LPC*%
G36*
X-352532Y751475D02*
X-352532Y751475D01*
X-353425Y752368D01*
X-353425Y771632D01*
X-352532Y772525D01*
X-333268Y772525D01*
X-332375Y771632D01*
X-332375Y752368D01*
X-333268Y751475D01*
X-352532Y751475D01*
G37*
%LPD*%
%LPC*%
G36*
X333268Y751475D02*
X333268Y751475D01*
X332375Y752368D01*
X332375Y771632D01*
X333268Y772525D01*
X352532Y772525D01*
X353425Y771632D01*
X353425Y752368D01*
X352532Y751475D01*
X333268Y751475D01*
G37*
%LPD*%
%LPC*%
G36*
X-187432Y65675D02*
X-187432Y65675D01*
X-188325Y66568D01*
X-188325Y85832D01*
X-187432Y86725D01*
X-168168Y86725D01*
X-167275Y85832D01*
X-167275Y66568D01*
X-168168Y65675D01*
X-187432Y65675D01*
G37*
%LPD*%
%LPC*%
G36*
X322028Y41735D02*
X322028Y41735D01*
X321135Y42628D01*
X321135Y58972D01*
X322028Y59865D01*
X338372Y59865D01*
X339265Y58972D01*
X339265Y42628D01*
X338372Y41735D01*
X322028Y41735D01*
G37*
%LPD*%
%LPC*%
G36*
X188605Y676274D02*
X188605Y676274D01*
X185104Y677724D01*
X182424Y680404D01*
X180974Y683905D01*
X180974Y687695D01*
X182424Y691196D01*
X185104Y693876D01*
X188605Y695326D01*
X192395Y695326D01*
X195896Y693876D01*
X198576Y691196D01*
X200026Y687695D01*
X200026Y683905D01*
X198576Y680404D01*
X195896Y677724D01*
X192395Y676274D01*
X188605Y676274D01*
G37*
%LPD*%
%LPC*%
G36*
X-90795Y676274D02*
X-90795Y676274D01*
X-94296Y677724D01*
X-96976Y680404D01*
X-98426Y683905D01*
X-98426Y687695D01*
X-96976Y691196D01*
X-94296Y693876D01*
X-90795Y695326D01*
X-87005Y695326D01*
X-83504Y693876D01*
X-80824Y691196D01*
X-79374Y687695D01*
X-79374Y683905D01*
X-80824Y680404D01*
X-83504Y677724D01*
X-87005Y676274D01*
X-90795Y676274D01*
G37*
%LPD*%
%LPC*%
G36*
X23197Y29035D02*
X23197Y29035D01*
X19865Y30415D01*
X17315Y32965D01*
X15935Y36297D01*
X15935Y39903D01*
X17315Y43235D01*
X19865Y45785D01*
X23197Y47165D01*
X26803Y47165D01*
X30135Y45785D01*
X32685Y43235D01*
X34065Y39903D01*
X34065Y36297D01*
X32685Y32965D01*
X30135Y30415D01*
X26803Y29035D01*
X23197Y29035D01*
G37*
%LPD*%
%LPC*%
G36*
X-299082Y42925D02*
X-299082Y42925D01*
X-299975Y43818D01*
X-299975Y57782D01*
X-299082Y58675D01*
X-285118Y58675D01*
X-284225Y57782D01*
X-284225Y43818D01*
X-285118Y42925D01*
X-299082Y42925D01*
G37*
%LPD*%
%LPC*%
G36*
X107708Y402335D02*
X107708Y402335D01*
X106815Y403228D01*
X106815Y417192D01*
X107708Y418085D01*
X121672Y418085D01*
X122565Y417192D01*
X122565Y403228D01*
X121672Y402335D01*
X107708Y402335D01*
G37*
%LPD*%
%LPC*%
G36*
X82308Y402335D02*
X82308Y402335D01*
X81415Y403228D01*
X81415Y417192D01*
X82308Y418085D01*
X96272Y418085D01*
X97165Y417192D01*
X97165Y403228D01*
X96272Y402335D01*
X82308Y402335D01*
G37*
%LPD*%
%LPC*%
G36*
X180339Y586739D02*
X180339Y586739D01*
X180339Y599441D01*
X184113Y599441D01*
X193041Y590513D01*
X193041Y586739D01*
X180339Y586739D01*
G37*
%LPD*%
%LPC*%
G36*
X27939Y586739D02*
X27939Y586739D01*
X27939Y599441D01*
X31713Y599441D01*
X40641Y590513D01*
X40641Y586739D01*
X27939Y586739D01*
G37*
%LPD*%
%LPC*%
G36*
X-133313Y568959D02*
X-133313Y568959D01*
X-142241Y577887D01*
X-142241Y581661D01*
X-129539Y581661D01*
X-129539Y568959D01*
X-133313Y568959D01*
G37*
%LPD*%
%LPC*%
G36*
X27939Y568959D02*
X27939Y568959D01*
X27939Y581661D01*
X40641Y581661D01*
X40641Y577887D01*
X31713Y568959D01*
X27939Y568959D01*
G37*
%LPD*%
%LPC*%
G36*
X162559Y586739D02*
X162559Y586739D01*
X162559Y590513D01*
X171487Y599441D01*
X175261Y599441D01*
X175261Y586739D01*
X162559Y586739D01*
G37*
%LPD*%
%LPC*%
G36*
X180339Y568959D02*
X180339Y568959D01*
X180339Y581661D01*
X193041Y581661D01*
X193041Y577887D01*
X184113Y568959D01*
X180339Y568959D01*
G37*
%LPD*%
%LPC*%
G36*
X10159Y586739D02*
X10159Y586739D01*
X10159Y590513D01*
X19087Y599441D01*
X22861Y599441D01*
X22861Y586739D01*
X10159Y586739D01*
G37*
%LPD*%
%LPC*%
G36*
X-124461Y586739D02*
X-124461Y586739D01*
X-124461Y599441D01*
X-120687Y599441D01*
X-111759Y590513D01*
X-111759Y586739D01*
X-124461Y586739D01*
G37*
%LPD*%
%LPC*%
G36*
X171487Y568959D02*
X171487Y568959D01*
X162559Y577887D01*
X162559Y581661D01*
X175261Y581661D01*
X175261Y568959D01*
X171487Y568959D01*
G37*
%LPD*%
%LPC*%
G36*
X19087Y568959D02*
X19087Y568959D01*
X10159Y577887D01*
X10159Y581661D01*
X22861Y581661D01*
X22861Y568959D01*
X19087Y568959D01*
G37*
%LPD*%
%LPC*%
G36*
X-124461Y568959D02*
X-124461Y568959D01*
X-124461Y581661D01*
X-111759Y581661D01*
X-111759Y577887D01*
X-120687Y568959D01*
X-124461Y568959D01*
G37*
%LPD*%
%LPC*%
G36*
X-138541Y79199D02*
X-138541Y79199D01*
X-138541Y85534D01*
X-138368Y86181D01*
X-138033Y86760D01*
X-137560Y87233D01*
X-136981Y87568D01*
X-136334Y87741D01*
X-129999Y87741D01*
X-129999Y79199D01*
X-138541Y79199D01*
G37*
%LPD*%
%LPC*%
G36*
X180799Y79199D02*
X180799Y79199D01*
X180799Y87741D01*
X187134Y87741D01*
X187781Y87568D01*
X188360Y87233D01*
X188833Y86760D01*
X189168Y86181D01*
X189341Y85534D01*
X189341Y79199D01*
X180799Y79199D01*
G37*
%LPD*%
%LPC*%
G36*
X180799Y64659D02*
X180799Y64659D01*
X180799Y73201D01*
X189341Y73201D01*
X189341Y66866D01*
X189168Y66219D01*
X188833Y65640D01*
X188360Y65167D01*
X187781Y64832D01*
X187134Y64659D01*
X180799Y64659D01*
G37*
%LPD*%
%LPC*%
G36*
X166259Y79199D02*
X166259Y79199D01*
X166259Y85534D01*
X166432Y86181D01*
X166767Y86760D01*
X167240Y87233D01*
X167819Y87568D01*
X168466Y87741D01*
X174801Y87741D01*
X174801Y79199D01*
X166259Y79199D01*
G37*
%LPD*%
%LPC*%
G36*
X-136334Y64659D02*
X-136334Y64659D01*
X-136981Y64832D01*
X-137560Y65167D01*
X-138033Y65640D01*
X-138368Y66219D01*
X-138541Y66866D01*
X-138541Y73201D01*
X-129999Y73201D01*
X-129999Y64659D01*
X-136334Y64659D01*
G37*
%LPD*%
%LPC*%
G36*
X-124001Y79199D02*
X-124001Y79199D01*
X-124001Y87741D01*
X-117666Y87741D01*
X-117019Y87568D01*
X-116440Y87233D01*
X-115967Y86760D01*
X-115632Y86181D01*
X-115459Y85534D01*
X-115459Y79199D01*
X-124001Y79199D01*
G37*
%LPD*%
%LPC*%
G36*
X168466Y64659D02*
X168466Y64659D01*
X167819Y64832D01*
X167240Y65167D01*
X166767Y65640D01*
X166432Y66219D01*
X166259Y66866D01*
X166259Y73201D01*
X174801Y73201D01*
X174801Y64659D01*
X168466Y64659D01*
G37*
%LPD*%
%LPC*%
G36*
X-124001Y64659D02*
X-124001Y64659D01*
X-124001Y73201D01*
X-115459Y73201D01*
X-115459Y66866D01*
X-115632Y66219D01*
X-115967Y65640D01*
X-116440Y65167D01*
X-117019Y64832D01*
X-117666Y64659D01*
X-124001Y64659D01*
G37*
%LPD*%
%LPC*%
G36*
X218399Y688299D02*
X218399Y688299D01*
X218399Y696342D01*
X220266Y696342D01*
X226442Y690166D01*
X226442Y688299D01*
X218399Y688299D01*
G37*
%LPD*%
%LPC*%
G36*
X91399Y688299D02*
X91399Y688299D01*
X91399Y696342D01*
X93266Y696342D01*
X99442Y690166D01*
X99442Y688299D01*
X91399Y688299D01*
G37*
%LPD*%
%LPC*%
G36*
X-74042Y688299D02*
X-74042Y688299D01*
X-74042Y690166D01*
X-67866Y696342D01*
X-65999Y696342D01*
X-65999Y688299D01*
X-74042Y688299D01*
G37*
%LPD*%
%LPC*%
G36*
X205358Y688299D02*
X205358Y688299D01*
X205358Y690166D01*
X211534Y696342D01*
X213401Y696342D01*
X213401Y688299D01*
X205358Y688299D01*
G37*
%LPD*%
%LPC*%
G36*
X-67866Y675258D02*
X-67866Y675258D01*
X-74042Y681434D01*
X-74042Y683301D01*
X-65999Y683301D01*
X-65999Y675258D01*
X-67866Y675258D01*
G37*
%LPD*%
%LPC*%
G36*
X218399Y675258D02*
X218399Y675258D01*
X218399Y683301D01*
X226442Y683301D01*
X226442Y681434D01*
X220266Y675258D01*
X218399Y675258D01*
G37*
%LPD*%
%LPC*%
G36*
X-61001Y688299D02*
X-61001Y688299D01*
X-61001Y696342D01*
X-59134Y696342D01*
X-52958Y690166D01*
X-52958Y688299D01*
X-61001Y688299D01*
G37*
%LPD*%
%LPC*%
G36*
X91399Y675258D02*
X91399Y675258D01*
X91399Y683301D01*
X99442Y683301D01*
X99442Y681434D01*
X93266Y675258D01*
X91399Y675258D01*
G37*
%LPD*%
%LPC*%
G36*
X-188001Y688299D02*
X-188001Y688299D01*
X-188001Y696342D01*
X-186134Y696342D01*
X-179958Y690166D01*
X-179958Y688299D01*
X-188001Y688299D01*
G37*
%LPD*%
%LPC*%
G36*
X-188001Y675258D02*
X-188001Y675258D01*
X-188001Y683301D01*
X-179958Y683301D01*
X-179958Y681434D01*
X-186134Y675258D01*
X-188001Y675258D01*
G37*
%LPD*%
%LPC*%
G36*
X-61001Y675258D02*
X-61001Y675258D01*
X-61001Y683301D01*
X-52958Y683301D01*
X-52958Y681434D01*
X-59134Y675258D01*
X-61001Y675258D01*
G37*
%LPD*%
%LPC*%
G36*
X211534Y675258D02*
X211534Y675258D01*
X205358Y681434D01*
X205358Y683301D01*
X213401Y683301D01*
X213401Y675258D01*
X211534Y675258D01*
G37*
%LPD*%
%LPC*%
G36*
X-97401Y412709D02*
X-97401Y412709D01*
X-97401Y416894D01*
X-97228Y417541D01*
X-96893Y418120D01*
X-96420Y418593D01*
X-95841Y418928D01*
X-95194Y419101D01*
X-91009Y419101D01*
X-91009Y412709D01*
X-97401Y412709D01*
G37*
%LPD*%
%LPC*%
G36*
X-122801Y412709D02*
X-122801Y412709D01*
X-122801Y416894D01*
X-122628Y417541D01*
X-122293Y418120D01*
X-121820Y418593D01*
X-121241Y418928D01*
X-120594Y419101D01*
X-116409Y419101D01*
X-116409Y412709D01*
X-122801Y412709D01*
G37*
%LPD*%
%LPC*%
G36*
X-250191Y53299D02*
X-250191Y53299D01*
X-250191Y57484D01*
X-250018Y58131D01*
X-249683Y58710D01*
X-249210Y59183D01*
X-248631Y59518D01*
X-247984Y59691D01*
X-243799Y59691D01*
X-243799Y53299D01*
X-250191Y53299D01*
G37*
%LPD*%
%LPC*%
G36*
X-86011Y412709D02*
X-86011Y412709D01*
X-86011Y419101D01*
X-81826Y419101D01*
X-81179Y418928D01*
X-80600Y418593D01*
X-80127Y418120D01*
X-79792Y417541D01*
X-79619Y416894D01*
X-79619Y412709D01*
X-86011Y412709D01*
G37*
%LPD*%
%LPC*%
G36*
X-111411Y412709D02*
X-111411Y412709D01*
X-111411Y419101D01*
X-107226Y419101D01*
X-106579Y418928D01*
X-106000Y418593D01*
X-105527Y418120D01*
X-105192Y417541D01*
X-105019Y416894D01*
X-105019Y412709D01*
X-111411Y412709D01*
G37*
%LPD*%
%LPC*%
G36*
X-238801Y53299D02*
X-238801Y53299D01*
X-238801Y59691D01*
X-234616Y59691D01*
X-233969Y59518D01*
X-233390Y59183D01*
X-232917Y58710D01*
X-232582Y58131D01*
X-232409Y57484D01*
X-232409Y53299D01*
X-238801Y53299D01*
G37*
%LPD*%
%LPC*%
G36*
X-120594Y401319D02*
X-120594Y401319D01*
X-121241Y401492D01*
X-121820Y401827D01*
X-122293Y402300D01*
X-122628Y402879D01*
X-122801Y403526D01*
X-122801Y407711D01*
X-116409Y407711D01*
X-116409Y401319D01*
X-120594Y401319D01*
G37*
%LPD*%
%LPC*%
G36*
X-247984Y41909D02*
X-247984Y41909D01*
X-248631Y42082D01*
X-249210Y42417D01*
X-249683Y42890D01*
X-250018Y43469D01*
X-250191Y44116D01*
X-250191Y48301D01*
X-243799Y48301D01*
X-243799Y41909D01*
X-247984Y41909D01*
G37*
%LPD*%
%LPC*%
G36*
X-95194Y401319D02*
X-95194Y401319D01*
X-95841Y401492D01*
X-96420Y401827D01*
X-96893Y402300D01*
X-97228Y402879D01*
X-97401Y403526D01*
X-97401Y407711D01*
X-91009Y407711D01*
X-91009Y401319D01*
X-95194Y401319D01*
G37*
%LPD*%
%LPC*%
G36*
X-238801Y41909D02*
X-238801Y41909D01*
X-238801Y48301D01*
X-232409Y48301D01*
X-232409Y44116D01*
X-232582Y43469D01*
X-232917Y42890D01*
X-233390Y42417D01*
X-233969Y42082D01*
X-234616Y41909D01*
X-238801Y41909D01*
G37*
%LPD*%
%LPC*%
G36*
X-86011Y401319D02*
X-86011Y401319D01*
X-86011Y407711D01*
X-79619Y407711D01*
X-79619Y403526D01*
X-79792Y402879D01*
X-80127Y402300D01*
X-80600Y401827D01*
X-81179Y401492D01*
X-81826Y401319D01*
X-86011Y401319D01*
G37*
%LPD*%
%LPC*%
G36*
X-111411Y401319D02*
X-111411Y401319D01*
X-111411Y407711D01*
X-105019Y407711D01*
X-105019Y403526D01*
X-105192Y402879D01*
X-105527Y402300D01*
X-106000Y401827D01*
X-106579Y401492D01*
X-107226Y401319D01*
X-111411Y401319D01*
G37*
%LPD*%
%LPC*%
G36*
X2499Y40599D02*
X2499Y40599D01*
X2499Y47887D01*
X3870Y47442D01*
X5284Y46722D01*
X6567Y45789D01*
X7689Y44667D01*
X8622Y43384D01*
X9342Y41970D01*
X9787Y40599D01*
X2499Y40599D01*
G37*
%LPD*%
%LPC*%
G36*
X2499Y35601D02*
X2499Y35601D01*
X9787Y35601D01*
X9342Y34230D01*
X8622Y32816D01*
X7689Y31533D01*
X6567Y30411D01*
X5284Y29478D01*
X3870Y28758D01*
X2499Y28313D01*
X2499Y35601D01*
G37*
%LPD*%
%LPC*%
G36*
X-59010Y180299D02*
X-59010Y180299D01*
X-58752Y181094D01*
X-58139Y182297D01*
X-57345Y183390D01*
X-56390Y184345D01*
X-55297Y185139D01*
X-54094Y185752D01*
X-53299Y186010D01*
X-53299Y180299D01*
X-59010Y180299D01*
G37*
%LPD*%
%LPC*%
G36*
X-54094Y169848D02*
X-54094Y169848D01*
X-55297Y170461D01*
X-56390Y171255D01*
X-57345Y172210D01*
X-58139Y173303D01*
X-58752Y174506D01*
X-59010Y175301D01*
X-53299Y175301D01*
X-53299Y169590D01*
X-54094Y169848D01*
G37*
%LPD*%
%LPC*%
G36*
X-48301Y180299D02*
X-48301Y180299D01*
X-48301Y186010D01*
X-47506Y185752D01*
X-46303Y185139D01*
X-45210Y184345D01*
X-44255Y183390D01*
X-43461Y182297D01*
X-42848Y181094D01*
X-42590Y180299D01*
X-48301Y180299D01*
G37*
%LPD*%
%LPC*%
G36*
X-48301Y175301D02*
X-48301Y175301D01*
X-42590Y175301D01*
X-42848Y174506D01*
X-43461Y173303D01*
X-44255Y172210D01*
X-45210Y171255D01*
X-46303Y170461D01*
X-47506Y169848D01*
X-48301Y169590D01*
X-48301Y175301D01*
G37*
%LPD*%
D10*
X-266700Y25400D03*
X-292100Y50800D03*
X-241300Y50800D03*
D11*
X-190500Y685800D03*
D12*
X-215900Y685800D03*
D11*
X215900Y685800D03*
D12*
X190500Y685800D03*
D11*
X-63500Y685800D03*
D12*
X-88900Y685800D03*
D13*
X127000Y584200D03*
D14*
X177800Y584200D03*
D13*
X-25400Y584200D03*
D14*
X25400Y584200D03*
D13*
X-177800Y584200D03*
D14*
X-127000Y584200D03*
D11*
X88900Y685800D03*
D12*
X63500Y685800D03*
D15*
X-50800Y127000D03*
X50800Y127000D03*
D16*
X0Y38100D03*
X25000Y38100D03*
X-25000Y38100D03*
D17*
X342900Y762000D03*
X292100Y762000D03*
X-292100Y762000D03*
X-342900Y762000D03*
X-127000Y76200D03*
X-177800Y76200D03*
X177800Y76200D03*
X127000Y76200D03*
D18*
X254000Y50800D03*
X330200Y50800D03*
X279400Y50800D03*
X304800Y50800D03*
D19*
X76200Y177800D03*
X50800Y177800D03*
X101600Y177800D03*
X-76200Y177800D03*
X-101600Y177800D03*
X-50800Y177800D03*
D10*
X-88510Y410210D03*
X-113910Y410210D03*
X-139310Y410210D03*
X-164710Y410210D03*
X89290Y410210D03*
X114690Y410210D03*
X140090Y410210D03*
D20*
X277500Y127500D02*
X277500Y52500D01*
X277500Y127500D02*
X167500Y237500D01*
X167500Y505000D01*
X100000Y572500D01*
X100000Y665000D01*
X112500Y677500D01*
X112500Y757500D01*
X277500Y52500D02*
X279400Y50800D01*
D21*
X112500Y757500D03*
D20*
X302500Y120000D02*
X302500Y52500D01*
X302500Y120000D02*
X205000Y217500D01*
X205000Y640000D01*
X162500Y682500D01*
X162500Y757500D01*
X302500Y52500D02*
X304800Y50800D01*
D21*
X162500Y757500D03*
D20*
X130000Y175000D02*
X252500Y52500D01*
X130000Y175000D02*
X130000Y202500D01*
X35000Y297500D01*
X35000Y485000D01*
X252500Y52500D02*
X254000Y50800D01*
D21*
X35000Y485000D03*
D22*
X-101600Y190500D02*
X-101600Y177800D01*
X-101600Y190500D02*
X-76200Y215900D01*
X25400Y215900D02*
X50800Y190500D01*
X50800Y177800D01*
X25400Y215900D02*
X-76200Y215900D01*
X50800Y177800D02*
X50800Y127000D01*
X63500Y88900D02*
X-50800Y88900D01*
X-50800Y127000D01*
X101600Y127000D02*
X101600Y177800D01*
X101600Y127000D02*
X63500Y88900D01*
X-50800Y88900D02*
X-50800Y50800D01*
X-38100Y38100D01*
X-25000Y38100D01*
X-164710Y410210D02*
X-177800Y423300D01*
X-177800Y584200D01*
X-215900Y622300D01*
X-215900Y685800D01*
X-139700Y622300D02*
X-177800Y584200D01*
X-139700Y622300D02*
X-63500Y622300D01*
X-25400Y584200D01*
X-25400Y596900D01*
X63500Y685800D01*
D20*
X-140000Y410000D02*
X-150000Y410000D01*
X-140000Y410000D02*
X-139310Y410210D01*
X-150000Y410000D02*
X-164710Y410210D01*
X-262500Y30000D02*
X-265000Y27500D01*
X-262500Y30000D02*
X-262500Y70000D01*
X22500Y355000D01*
X92500Y355000D02*
X140000Y402500D01*
X140000Y410000D01*
X-265000Y27500D02*
X-266700Y25400D01*
X140000Y410000D02*
X140090Y410210D01*
D21*
X22500Y355000D03*
X92500Y355000D03*
D20*
X175000Y762500D02*
X290000Y762500D01*
X175000Y762500D02*
X120000Y817500D01*
X290000Y762500D02*
X292100Y762000D01*
D21*
X120000Y817500D03*
D20*
X-257500Y795000D02*
X-290000Y762500D01*
X-257500Y795000D02*
X-75000Y795000D01*
X-290000Y762500D02*
X-292100Y762000D01*
D21*
X-75000Y795000D03*
M02*
