G04 EAGLE Gerber RS-274X export*
G75*
%MOMM*%
%FSLAX34Y34*%
%LPD*%
%IN*%
%IPPOS*%
%AMOC8*
5,1,8,0,0,1.08239X$1,22.5*%
G01*
%ADD10C,0.254000*%


D10*
X-500000Y0D02*
X500000Y0D01*
X500000Y205000D01*
X240000Y205000D01*
X240000Y655000D01*
X500000Y655000D01*
X500000Y880000D01*
X-500000Y880000D01*
X-500000Y655000D01*
X-240000Y655000D01*
X-240000Y205000D01*
X-500000Y205000D01*
X-500000Y0D01*
X-435000Y829464D02*
X-435076Y828396D01*
X-435229Y827335D01*
X-435457Y826288D01*
X-435759Y825260D01*
X-436133Y824256D01*
X-436578Y823281D01*
X-437092Y822341D01*
X-437671Y821440D01*
X-438313Y820582D01*
X-439015Y819772D01*
X-439772Y819015D01*
X-440582Y818313D01*
X-441440Y817671D01*
X-442341Y817092D01*
X-443281Y816578D01*
X-444256Y816133D01*
X-445260Y815759D01*
X-446288Y815457D01*
X-447335Y815229D01*
X-448396Y815076D01*
X-449464Y815000D01*
X-450536Y815000D01*
X-451604Y815076D01*
X-452665Y815229D01*
X-453712Y815457D01*
X-454740Y815759D01*
X-455744Y816133D01*
X-456719Y816578D01*
X-457659Y817092D01*
X-458560Y817671D01*
X-459418Y818313D01*
X-460228Y819015D01*
X-460985Y819772D01*
X-461687Y820582D01*
X-462329Y821440D01*
X-462908Y822341D01*
X-463422Y823281D01*
X-463867Y824256D01*
X-464241Y825260D01*
X-464543Y826288D01*
X-464771Y827335D01*
X-464924Y828396D01*
X-465000Y829464D01*
X-465000Y830536D01*
X-464924Y831604D01*
X-464771Y832665D01*
X-464543Y833712D01*
X-464241Y834740D01*
X-463867Y835744D01*
X-463422Y836719D01*
X-462908Y837659D01*
X-462329Y838560D01*
X-461687Y839418D01*
X-460985Y840228D01*
X-460228Y840985D01*
X-459418Y841687D01*
X-458560Y842329D01*
X-457659Y842908D01*
X-456719Y843422D01*
X-455744Y843867D01*
X-454740Y844241D01*
X-453712Y844543D01*
X-452665Y844771D01*
X-451604Y844924D01*
X-450536Y845000D01*
X-449464Y845000D01*
X-448396Y844924D01*
X-447335Y844771D01*
X-446288Y844543D01*
X-445260Y844241D01*
X-444256Y843867D01*
X-443281Y843422D01*
X-442341Y842908D01*
X-441440Y842329D01*
X-440582Y841687D01*
X-439772Y840985D01*
X-439015Y840228D01*
X-438313Y839418D01*
X-437671Y838560D01*
X-437092Y837659D01*
X-436578Y836719D01*
X-436133Y835744D01*
X-435759Y834740D01*
X-435457Y833712D01*
X-435229Y832665D01*
X-435076Y831604D01*
X-435000Y830536D01*
X-435000Y829464D01*
X465000Y829464D02*
X464924Y828396D01*
X464771Y827335D01*
X464543Y826288D01*
X464241Y825260D01*
X463867Y824256D01*
X463422Y823281D01*
X462908Y822341D01*
X462329Y821440D01*
X461687Y820582D01*
X460985Y819772D01*
X460228Y819015D01*
X459418Y818313D01*
X458560Y817671D01*
X457659Y817092D01*
X456719Y816578D01*
X455744Y816133D01*
X454740Y815759D01*
X453712Y815457D01*
X452665Y815229D01*
X451604Y815076D01*
X450536Y815000D01*
X449464Y815000D01*
X448396Y815076D01*
X447335Y815229D01*
X446288Y815457D01*
X445260Y815759D01*
X444256Y816133D01*
X443281Y816578D01*
X442341Y817092D01*
X441440Y817671D01*
X440582Y818313D01*
X439772Y819015D01*
X439015Y819772D01*
X438313Y820582D01*
X437671Y821440D01*
X437092Y822341D01*
X436578Y823281D01*
X436133Y824256D01*
X435759Y825260D01*
X435457Y826288D01*
X435229Y827335D01*
X435076Y828396D01*
X435000Y829464D01*
X435000Y830536D01*
X435076Y831604D01*
X435229Y832665D01*
X435457Y833712D01*
X435759Y834740D01*
X436133Y835744D01*
X436578Y836719D01*
X437092Y837659D01*
X437671Y838560D01*
X438313Y839418D01*
X439015Y840228D01*
X439772Y840985D01*
X440582Y841687D01*
X441440Y842329D01*
X442341Y842908D01*
X443281Y843422D01*
X444256Y843867D01*
X445260Y844241D01*
X446288Y844543D01*
X447335Y844771D01*
X448396Y844924D01*
X449464Y845000D01*
X450536Y845000D01*
X451604Y844924D01*
X452665Y844771D01*
X453712Y844543D01*
X454740Y844241D01*
X455744Y843867D01*
X456719Y843422D01*
X457659Y842908D01*
X458560Y842329D01*
X459418Y841687D01*
X460228Y840985D01*
X460985Y840228D01*
X461687Y839418D01*
X462329Y838560D01*
X462908Y837659D01*
X463422Y836719D01*
X463867Y835744D01*
X464241Y834740D01*
X464543Y833712D01*
X464771Y832665D01*
X464924Y831604D01*
X465000Y830536D01*
X465000Y829464D01*
X465000Y49464D02*
X464924Y48396D01*
X464771Y47335D01*
X464543Y46288D01*
X464241Y45260D01*
X463867Y44256D01*
X463422Y43281D01*
X462908Y42341D01*
X462329Y41440D01*
X461687Y40582D01*
X460985Y39772D01*
X460228Y39015D01*
X459418Y38313D01*
X458560Y37671D01*
X457659Y37092D01*
X456719Y36578D01*
X455744Y36133D01*
X454740Y35759D01*
X453712Y35457D01*
X452665Y35229D01*
X451604Y35076D01*
X450536Y35000D01*
X449464Y35000D01*
X448396Y35076D01*
X447335Y35229D01*
X446288Y35457D01*
X445260Y35759D01*
X444256Y36133D01*
X443281Y36578D01*
X442341Y37092D01*
X441440Y37671D01*
X440582Y38313D01*
X439772Y39015D01*
X439015Y39772D01*
X438313Y40582D01*
X437671Y41440D01*
X437092Y42341D01*
X436578Y43281D01*
X436133Y44256D01*
X435759Y45260D01*
X435457Y46288D01*
X435229Y47335D01*
X435076Y48396D01*
X435000Y49464D01*
X435000Y50536D01*
X435076Y51604D01*
X435229Y52665D01*
X435457Y53712D01*
X435759Y54740D01*
X436133Y55744D01*
X436578Y56719D01*
X437092Y57659D01*
X437671Y58560D01*
X438313Y59418D01*
X439015Y60228D01*
X439772Y60985D01*
X440582Y61687D01*
X441440Y62329D01*
X442341Y62908D01*
X443281Y63422D01*
X444256Y63867D01*
X445260Y64241D01*
X446288Y64543D01*
X447335Y64771D01*
X448396Y64924D01*
X449464Y65000D01*
X450536Y65000D01*
X451604Y64924D01*
X452665Y64771D01*
X453712Y64543D01*
X454740Y64241D01*
X455744Y63867D01*
X456719Y63422D01*
X457659Y62908D01*
X458560Y62329D01*
X459418Y61687D01*
X460228Y60985D01*
X460985Y60228D01*
X461687Y59418D01*
X462329Y58560D01*
X462908Y57659D01*
X463422Y56719D01*
X463867Y55744D01*
X464241Y54740D01*
X464543Y53712D01*
X464771Y52665D01*
X464924Y51604D01*
X465000Y50536D01*
X465000Y49464D01*
X-435000Y49464D02*
X-435076Y48396D01*
X-435229Y47335D01*
X-435457Y46288D01*
X-435759Y45260D01*
X-436133Y44256D01*
X-436578Y43281D01*
X-437092Y42341D01*
X-437671Y41440D01*
X-438313Y40582D01*
X-439015Y39772D01*
X-439772Y39015D01*
X-440582Y38313D01*
X-441440Y37671D01*
X-442341Y37092D01*
X-443281Y36578D01*
X-444256Y36133D01*
X-445260Y35759D01*
X-446288Y35457D01*
X-447335Y35229D01*
X-448396Y35076D01*
X-449464Y35000D01*
X-450536Y35000D01*
X-451604Y35076D01*
X-452665Y35229D01*
X-453712Y35457D01*
X-454740Y35759D01*
X-455744Y36133D01*
X-456719Y36578D01*
X-457659Y37092D01*
X-458560Y37671D01*
X-459418Y38313D01*
X-460228Y39015D01*
X-460985Y39772D01*
X-461687Y40582D01*
X-462329Y41440D01*
X-462908Y42341D01*
X-463422Y43281D01*
X-463867Y44256D01*
X-464241Y45260D01*
X-464543Y46288D01*
X-464771Y47335D01*
X-464924Y48396D01*
X-465000Y49464D01*
X-465000Y50536D01*
X-464924Y51604D01*
X-464771Y52665D01*
X-464543Y53712D01*
X-464241Y54740D01*
X-463867Y55744D01*
X-463422Y56719D01*
X-462908Y57659D01*
X-462329Y58560D01*
X-461687Y59418D01*
X-460985Y60228D01*
X-460228Y60985D01*
X-459418Y61687D01*
X-458560Y62329D01*
X-457659Y62908D01*
X-456719Y63422D01*
X-455744Y63867D01*
X-454740Y64241D01*
X-453712Y64543D01*
X-452665Y64771D01*
X-451604Y64924D01*
X-450536Y65000D01*
X-449464Y65000D01*
X-448396Y64924D01*
X-447335Y64771D01*
X-446288Y64543D01*
X-445260Y64241D01*
X-444256Y63867D01*
X-443281Y63422D01*
X-442341Y62908D01*
X-441440Y62329D01*
X-440582Y61687D01*
X-439772Y60985D01*
X-439015Y60228D01*
X-438313Y59418D01*
X-437671Y58560D01*
X-437092Y57659D01*
X-436578Y56719D01*
X-436133Y55744D01*
X-435759Y54740D01*
X-435457Y53712D01*
X-435229Y52665D01*
X-435076Y51604D01*
X-435000Y50536D01*
X-435000Y49464D01*
X153430Y235684D02*
X153354Y234616D01*
X153201Y233555D01*
X152973Y232508D01*
X152671Y231480D01*
X152297Y230476D01*
X151852Y229501D01*
X151338Y228561D01*
X150759Y227660D01*
X150117Y226802D01*
X149415Y225992D01*
X148658Y225235D01*
X147848Y224533D01*
X146990Y223891D01*
X146089Y223312D01*
X145149Y222798D01*
X144174Y222353D01*
X143170Y221979D01*
X142142Y221677D01*
X141095Y221449D01*
X140034Y221296D01*
X138966Y221220D01*
X137894Y221220D01*
X136826Y221296D01*
X135765Y221449D01*
X134718Y221677D01*
X133690Y221979D01*
X132686Y222353D01*
X131711Y222798D01*
X130771Y223312D01*
X129870Y223891D01*
X129012Y224533D01*
X128202Y225235D01*
X127445Y225992D01*
X126743Y226802D01*
X126101Y227660D01*
X125522Y228561D01*
X125008Y229501D01*
X124563Y230476D01*
X124189Y231480D01*
X123887Y232508D01*
X123659Y233555D01*
X123506Y234616D01*
X123430Y235684D01*
X123430Y236756D01*
X123506Y237824D01*
X123659Y238885D01*
X123887Y239932D01*
X124189Y240960D01*
X124563Y241964D01*
X125008Y242939D01*
X125522Y243879D01*
X126101Y244780D01*
X126743Y245638D01*
X127445Y246448D01*
X128202Y247205D01*
X129012Y247907D01*
X129870Y248549D01*
X130771Y249128D01*
X131711Y249642D01*
X132686Y250087D01*
X133690Y250461D01*
X134718Y250763D01*
X135765Y250991D01*
X136826Y251144D01*
X137894Y251220D01*
X138966Y251220D01*
X140034Y251144D01*
X141095Y250991D01*
X142142Y250763D01*
X143170Y250461D01*
X144174Y250087D01*
X145149Y249642D01*
X146089Y249128D01*
X146990Y248549D01*
X147848Y247907D01*
X148658Y247205D01*
X149415Y246448D01*
X150117Y245638D01*
X150759Y244780D01*
X151338Y243879D01*
X151852Y242939D01*
X152297Y241964D01*
X152671Y240960D01*
X152973Y239932D01*
X153201Y238885D01*
X153354Y237824D01*
X153430Y236756D01*
X153430Y235684D01*
X-150100Y233144D02*
X-150176Y232076D01*
X-150329Y231015D01*
X-150557Y229968D01*
X-150859Y228940D01*
X-151233Y227936D01*
X-151678Y226961D01*
X-152192Y226021D01*
X-152771Y225120D01*
X-153413Y224262D01*
X-154115Y223452D01*
X-154872Y222695D01*
X-155682Y221993D01*
X-156540Y221351D01*
X-157441Y220772D01*
X-158381Y220258D01*
X-159356Y219813D01*
X-160360Y219439D01*
X-161388Y219137D01*
X-162435Y218909D01*
X-163496Y218756D01*
X-164564Y218680D01*
X-165636Y218680D01*
X-166704Y218756D01*
X-167765Y218909D01*
X-168812Y219137D01*
X-169840Y219439D01*
X-170844Y219813D01*
X-171819Y220258D01*
X-172759Y220772D01*
X-173660Y221351D01*
X-174518Y221993D01*
X-175328Y222695D01*
X-176085Y223452D01*
X-176787Y224262D01*
X-177429Y225120D01*
X-178008Y226021D01*
X-178522Y226961D01*
X-178967Y227936D01*
X-179341Y228940D01*
X-179643Y229968D01*
X-179871Y231015D01*
X-180024Y232076D01*
X-180100Y233144D01*
X-180100Y234216D01*
X-180024Y235284D01*
X-179871Y236345D01*
X-179643Y237392D01*
X-179341Y238420D01*
X-178967Y239424D01*
X-178522Y240399D01*
X-178008Y241339D01*
X-177429Y242240D01*
X-176787Y243098D01*
X-176085Y243908D01*
X-175328Y244665D01*
X-174518Y245367D01*
X-173660Y246009D01*
X-172759Y246588D01*
X-171819Y247102D01*
X-170844Y247547D01*
X-169840Y247921D01*
X-168812Y248223D01*
X-167765Y248451D01*
X-166704Y248604D01*
X-165636Y248680D01*
X-164564Y248680D01*
X-163496Y248604D01*
X-162435Y248451D01*
X-161388Y248223D01*
X-160360Y247921D01*
X-159356Y247547D01*
X-158381Y247102D01*
X-157441Y246588D01*
X-156540Y246009D01*
X-155682Y245367D01*
X-154872Y244665D01*
X-154115Y243908D01*
X-153413Y243098D01*
X-152771Y242240D01*
X-152192Y241339D01*
X-151678Y240399D01*
X-151233Y239424D01*
X-150859Y238420D01*
X-150557Y237392D01*
X-150329Y236345D01*
X-150176Y235284D01*
X-150100Y234216D01*
X-150100Y233144D01*
M02*
