G04 EAGLE Gerber RS-274X export*
G75*
%MOMM*%
%FSLAX34Y34*%
%LPD*%
%INSoldermask Top*%
%IPPOS*%
%AMOC8*
5,1,8,0,0,1.08239X$1,22.5*%
G01*
%ADD10C,3.203200*%
%ADD11R,1.473200X1.473200*%
%ADD12P,1.951982X8X22.500000*%
%ADD13C,1.803400*%
%ADD14C,2.743200*%
%ADD15P,2.969212X8X22.500000*%
%ADD16R,4.013200X0.838200*%
%ADD17P,1.649562X8X22.500000*%
%ADD18C,1.711200*%
%ADD19R,2.003200X2.003200*%
%ADD20R,1.711200X1.711200*%
%ADD21C,1.411200*%
%ADD22C,0.959600*%


D10*
X-450000Y830000D03*
X450000Y830000D03*
X450000Y50000D03*
X-450000Y50000D03*
X138430Y236220D03*
X-165100Y233680D03*
D11*
X-266700Y25400D03*
X-292100Y50800D03*
X-241300Y50800D03*
D12*
X-190500Y685800D03*
D13*
X-215900Y685800D03*
D12*
X215900Y685800D03*
D13*
X190500Y685800D03*
D12*
X-63500Y685800D03*
D13*
X-88900Y685800D03*
D14*
X127000Y584200D03*
D15*
X177800Y584200D03*
D14*
X-25400Y584200D03*
D15*
X25400Y584200D03*
D14*
X-177800Y584200D03*
D15*
X-127000Y584200D03*
D12*
X88900Y685800D03*
D13*
X63500Y685800D03*
D16*
X-101600Y806450D03*
X-101600Y793750D03*
X-101600Y781050D03*
X-101600Y768350D03*
X-152400Y806450D03*
X-152400Y793750D03*
X-152400Y781050D03*
X-152400Y768350D03*
X152400Y806450D03*
X152400Y793750D03*
X152400Y781050D03*
X152400Y768350D03*
X101600Y806450D03*
X101600Y793750D03*
X101600Y781050D03*
X101600Y768350D03*
D17*
X-50800Y127000D03*
X50800Y127000D03*
D18*
X0Y38100D03*
X25000Y38100D03*
X-25000Y38100D03*
D19*
X342900Y762000D03*
X292100Y762000D03*
X-292100Y762000D03*
X-342900Y762000D03*
X-127000Y76200D03*
X-177800Y76200D03*
X177800Y76200D03*
X127000Y76200D03*
D20*
X254000Y50800D03*
X330200Y50800D03*
X279400Y50800D03*
X304800Y50800D03*
D21*
X76200Y177800D03*
X50800Y177800D03*
X101600Y177800D03*
X-76200Y177800D03*
X-101600Y177800D03*
X-50800Y177800D03*
D11*
X-88510Y410210D03*
X-113910Y410210D03*
X-139310Y410210D03*
X-164710Y410210D03*
X89290Y410210D03*
X114690Y410210D03*
X140090Y410210D03*
D22*
X112500Y757500D03*
X162500Y757500D03*
X35000Y485000D03*
X22500Y355000D03*
X92500Y355000D03*
X120000Y817500D03*
X-75000Y795000D03*
M02*
