G04 EAGLE Gerber RS-274X export*
G75*
%MOMM*%
%FSLAX34Y34*%
%LPD*%
%INSoldermask Top*%
%IPPOS*%
%AMOC8*
5,1,8,0,0,1.08239X$1,22.5*%
G01*
%ADD10C,2.203200*%
%ADD11R,1.303200X1.203200*%
%ADD12R,1.203200X1.303200*%
%ADD13P,1.869504X8X202.500000*%
%ADD14R,1.003200X1.003200*%
%ADD15R,1.803200X1.253200*%
%ADD16R,0.703200X1.403200*%
%ADD17R,1.403200X0.703200*%
%ADD18R,0.903200X2.103200*%
%ADD19R,1.203200X2.103200*%
%ADD20R,1.403200X1.403200*%
%ADD21R,1.403200X1.003200*%
%ADD22R,1.403200X3.003200*%
%ADD23R,2.103200X2.103200*%
%ADD24R,2.003200X2.003200*%
%ADD25P,1.869504X8X22.500000*%
%ADD26C,0.959600*%


D10*
X20000Y20000D03*
X330000Y20000D03*
D11*
X258500Y110000D03*
X241500Y110000D03*
D12*
X200910Y230740D03*
X200910Y247740D03*
X169320Y230740D03*
X169320Y247740D03*
X204550Y133150D03*
X204550Y116150D03*
D13*
X289300Y48100D03*
X263900Y48100D03*
X238500Y48100D03*
X213100Y48100D03*
X187700Y48100D03*
X162300Y48100D03*
X136900Y48100D03*
X111500Y48100D03*
X86100Y48100D03*
X60700Y48100D03*
X289300Y73500D03*
X263900Y73500D03*
X238500Y73500D03*
X213100Y73500D03*
X187700Y73500D03*
X162300Y73500D03*
X136900Y73500D03*
X111500Y73500D03*
X86100Y73500D03*
X60700Y73500D03*
D14*
X42500Y310000D03*
X57500Y310000D03*
X92500Y310000D03*
X107500Y310000D03*
X142500Y310000D03*
X157500Y310000D03*
D12*
X281500Y110000D03*
X298500Y110000D03*
D11*
X274480Y239880D03*
X274480Y256880D03*
X172960Y133150D03*
X172960Y116150D03*
D12*
X158500Y340000D03*
X141500Y340000D03*
X58500Y340000D03*
X41500Y340000D03*
X108500Y340000D03*
X91500Y340000D03*
D15*
X182490Y162100D03*
X182490Y206600D03*
D16*
X291650Y219080D03*
X283650Y219080D03*
X275650Y219080D03*
X267650Y219080D03*
X259650Y219080D03*
X251650Y219080D03*
X243650Y219080D03*
X235650Y219080D03*
D17*
X306150Y204580D03*
X306150Y196580D03*
X306150Y188580D03*
X306150Y180580D03*
X306150Y172580D03*
X306150Y164580D03*
X306150Y156580D03*
X306150Y148580D03*
X221150Y204580D03*
X221150Y196580D03*
X221150Y188580D03*
X221150Y180580D03*
X221150Y172580D03*
X221150Y164580D03*
X221150Y156580D03*
X221150Y148580D03*
D16*
X291650Y134080D03*
X283650Y134080D03*
X275650Y134080D03*
X267650Y134080D03*
X259650Y134080D03*
X251650Y134080D03*
X243650Y134080D03*
X235650Y134080D03*
D18*
X257900Y279380D03*
X246900Y279380D03*
X235900Y279380D03*
X224900Y279380D03*
X268900Y279380D03*
X279900Y279380D03*
X290900Y279380D03*
X301900Y279380D03*
D19*
X209900Y279570D03*
D18*
X312900Y279380D03*
D20*
X324900Y326380D03*
D21*
X324900Y388380D03*
D22*
X328710Y423110D03*
D23*
X187360Y429000D03*
D24*
X53120Y234640D03*
X53120Y209240D03*
X53120Y183940D03*
X129320Y234640D03*
X129320Y209240D03*
X129320Y183940D03*
D25*
X61200Y401900D03*
X86600Y401900D03*
X112000Y401900D03*
X137400Y401900D03*
X162800Y401900D03*
X61200Y376500D03*
X86600Y376500D03*
X112000Y376500D03*
X137400Y376500D03*
X162800Y376500D03*
D26*
X270256Y108585D03*
X221996Y308864D03*
X243713Y207518D03*
X195453Y214757D03*
X209931Y219583D03*
X270256Y120650D03*
X260604Y28956D03*
X137541Y164084D03*
X246126Y147193D03*
X246126Y84455D03*
X226822Y125476D03*
X207518Y149606D03*
X135128Y287147D03*
X135128Y328168D03*
X197866Y154432D03*
X123063Y154432D03*
X60325Y265430D03*
X234061Y173736D03*
X188214Y98933D03*
X296799Y36195D03*
X290000Y232000D03*
X220000Y296000D03*
X289000Y295000D03*
X242000Y296000D03*
X269000Y296000D03*
X91694Y357124D03*
X67564Y234061D03*
M02*
