G04 EAGLE Gerber RS-274X export*
G75*
%MOMM*%
%FSLAX34Y34*%
%LPD*%
%IN*%
%IPPOS*%
%AMOC8*
5,1,8,0,0,1.08239X$1,22.5*%
G01*
%ADD10C,0.254000*%


D10*
X0Y-50000D02*
X500000Y-50000D01*
X500000Y450000D01*
X0Y450000D01*
X0Y-50000D01*
X485000Y419464D02*
X484924Y418396D01*
X484771Y417335D01*
X484543Y416288D01*
X484241Y415260D01*
X483867Y414256D01*
X483422Y413281D01*
X482908Y412341D01*
X482329Y411440D01*
X481687Y410582D01*
X480985Y409772D01*
X480228Y409015D01*
X479418Y408313D01*
X478560Y407671D01*
X477659Y407092D01*
X476719Y406578D01*
X475744Y406133D01*
X474740Y405759D01*
X473712Y405457D01*
X472665Y405229D01*
X471604Y405076D01*
X470536Y405000D01*
X469464Y405000D01*
X468396Y405076D01*
X467335Y405229D01*
X466288Y405457D01*
X465260Y405759D01*
X464256Y406133D01*
X463281Y406578D01*
X462341Y407092D01*
X461440Y407671D01*
X460582Y408313D01*
X459772Y409015D01*
X459015Y409772D01*
X458313Y410582D01*
X457671Y411440D01*
X457092Y412341D01*
X456578Y413281D01*
X456133Y414256D01*
X455759Y415260D01*
X455457Y416288D01*
X455229Y417335D01*
X455076Y418396D01*
X455000Y419464D01*
X455000Y420536D01*
X455076Y421604D01*
X455229Y422665D01*
X455457Y423712D01*
X455759Y424740D01*
X456133Y425744D01*
X456578Y426719D01*
X457092Y427659D01*
X457671Y428560D01*
X458313Y429418D01*
X459015Y430228D01*
X459772Y430985D01*
X460582Y431687D01*
X461440Y432329D01*
X462341Y432908D01*
X463281Y433422D01*
X464256Y433867D01*
X465260Y434241D01*
X466288Y434543D01*
X467335Y434771D01*
X468396Y434924D01*
X469464Y435000D01*
X470536Y435000D01*
X471604Y434924D01*
X472665Y434771D01*
X473712Y434543D01*
X474740Y434241D01*
X475744Y433867D01*
X476719Y433422D01*
X477659Y432908D01*
X478560Y432329D01*
X479418Y431687D01*
X480228Y430985D01*
X480985Y430228D01*
X481687Y429418D01*
X482329Y428560D01*
X482908Y427659D01*
X483422Y426719D01*
X483867Y425744D01*
X484241Y424740D01*
X484543Y423712D01*
X484771Y422665D01*
X484924Y421604D01*
X485000Y420536D01*
X485000Y419464D01*
X45000Y-20536D02*
X44924Y-21604D01*
X44771Y-22665D01*
X44543Y-23712D01*
X44241Y-24740D01*
X43867Y-25744D01*
X43422Y-26719D01*
X42908Y-27659D01*
X42329Y-28560D01*
X41687Y-29418D01*
X40985Y-30228D01*
X40228Y-30985D01*
X39418Y-31687D01*
X38560Y-32329D01*
X37659Y-32908D01*
X36719Y-33422D01*
X35744Y-33867D01*
X34740Y-34241D01*
X33712Y-34543D01*
X32665Y-34771D01*
X31604Y-34924D01*
X30536Y-35000D01*
X29464Y-35000D01*
X28396Y-34924D01*
X27335Y-34771D01*
X26288Y-34543D01*
X25260Y-34241D01*
X24256Y-33867D01*
X23281Y-33422D01*
X22341Y-32908D01*
X21440Y-32329D01*
X20582Y-31687D01*
X19772Y-30985D01*
X19015Y-30228D01*
X18313Y-29418D01*
X17671Y-28560D01*
X17092Y-27659D01*
X16578Y-26719D01*
X16133Y-25744D01*
X15759Y-24740D01*
X15457Y-23712D01*
X15229Y-22665D01*
X15076Y-21604D01*
X15000Y-20536D01*
X15000Y-19464D01*
X15076Y-18396D01*
X15229Y-17335D01*
X15457Y-16288D01*
X15759Y-15260D01*
X16133Y-14256D01*
X16578Y-13281D01*
X17092Y-12341D01*
X17671Y-11440D01*
X18313Y-10582D01*
X19015Y-9772D01*
X19772Y-9015D01*
X20582Y-8313D01*
X21440Y-7671D01*
X22341Y-7092D01*
X23281Y-6578D01*
X24256Y-6133D01*
X25260Y-5759D01*
X26288Y-5457D01*
X27335Y-5229D01*
X28396Y-5076D01*
X29464Y-5000D01*
X30536Y-5000D01*
X31604Y-5076D01*
X32665Y-5229D01*
X33712Y-5457D01*
X34740Y-5759D01*
X35744Y-6133D01*
X36719Y-6578D01*
X37659Y-7092D01*
X38560Y-7671D01*
X39418Y-8313D01*
X40228Y-9015D01*
X40985Y-9772D01*
X41687Y-10582D01*
X42329Y-11440D01*
X42908Y-12341D01*
X43422Y-13281D01*
X43867Y-14256D01*
X44241Y-15260D01*
X44543Y-16288D01*
X44771Y-17335D01*
X44924Y-18396D01*
X45000Y-19464D01*
X45000Y-20536D01*
X485000Y-20536D02*
X484924Y-21604D01*
X484771Y-22665D01*
X484543Y-23712D01*
X484241Y-24740D01*
X483867Y-25744D01*
X483422Y-26719D01*
X482908Y-27659D01*
X482329Y-28560D01*
X481687Y-29418D01*
X480985Y-30228D01*
X480228Y-30985D01*
X479418Y-31687D01*
X478560Y-32329D01*
X477659Y-32908D01*
X476719Y-33422D01*
X475744Y-33867D01*
X474740Y-34241D01*
X473712Y-34543D01*
X472665Y-34771D01*
X471604Y-34924D01*
X470536Y-35000D01*
X469464Y-35000D01*
X468396Y-34924D01*
X467335Y-34771D01*
X466288Y-34543D01*
X465260Y-34241D01*
X464256Y-33867D01*
X463281Y-33422D01*
X462341Y-32908D01*
X461440Y-32329D01*
X460582Y-31687D01*
X459772Y-30985D01*
X459015Y-30228D01*
X458313Y-29418D01*
X457671Y-28560D01*
X457092Y-27659D01*
X456578Y-26719D01*
X456133Y-25744D01*
X455759Y-24740D01*
X455457Y-23712D01*
X455229Y-22665D01*
X455076Y-21604D01*
X455000Y-20536D01*
X455000Y-19464D01*
X455076Y-18396D01*
X455229Y-17335D01*
X455457Y-16288D01*
X455759Y-15260D01*
X456133Y-14256D01*
X456578Y-13281D01*
X457092Y-12341D01*
X457671Y-11440D01*
X458313Y-10582D01*
X459015Y-9772D01*
X459772Y-9015D01*
X460582Y-8313D01*
X461440Y-7671D01*
X462341Y-7092D01*
X463281Y-6578D01*
X464256Y-6133D01*
X465260Y-5759D01*
X466288Y-5457D01*
X467335Y-5229D01*
X468396Y-5076D01*
X469464Y-5000D01*
X470536Y-5000D01*
X471604Y-5076D01*
X472665Y-5229D01*
X473712Y-5457D01*
X474740Y-5759D01*
X475744Y-6133D01*
X476719Y-6578D01*
X477659Y-7092D01*
X478560Y-7671D01*
X479418Y-8313D01*
X480228Y-9015D01*
X480985Y-9772D01*
X481687Y-10582D01*
X482329Y-11440D01*
X482908Y-12341D01*
X483422Y-13281D01*
X483867Y-14256D01*
X484241Y-15260D01*
X484543Y-16288D01*
X484771Y-17335D01*
X484924Y-18396D01*
X485000Y-19464D01*
X485000Y-20536D01*
M02*
