G04 EAGLE Gerber RS-274X export*
G75*
%MOMM*%
%FSLAX34Y34*%
%LPD*%
%INSilkscreen Top*%
%IPPOS*%
%AMOC8*
5,1,8,0,0,1.08239X$1,22.5*%
G01*
%ADD10C,0.076200*%
%ADD11C,0.127000*%
%ADD12C,0.101600*%
%ADD13C,0.050800*%
%ADD14C,0.152400*%
%ADD15C,0.762000*%
%ADD16R,0.762000X0.508000*%
%ADD17R,0.762000X1.016000*%
%ADD18R,0.762000X0.762000*%
%ADD19C,0.025400*%
%ADD20R,0.300000X0.060000*%
%ADD21R,0.120000X0.060000*%
%ADD22R,0.240000X0.060000*%
%ADD23R,0.180000X0.060000*%
%ADD24R,0.360000X0.060000*%
%ADD25R,0.660000X0.060000*%
%ADD26R,0.600000X0.060000*%
%ADD27R,0.540000X0.060000*%
%ADD28R,0.480000X0.060000*%
%ADD29R,0.060000X0.060000*%
%ADD30R,0.420000X0.060000*%
%ADD31R,0.720000X0.060000*%
%ADD32R,1.440000X0.060000*%
%ADD33R,2.940000X0.060000*%
%ADD34R,3.180000X0.060000*%
%ADD35R,1.260000X0.060000*%
%ADD36R,1.080000X0.060000*%
%ADD37R,2.520000X0.060000*%
%ADD38R,4.080000X0.060000*%
%ADD39R,4.320000X0.060000*%
%ADD40R,1.620000X0.060000*%
%ADD41R,1.800000X0.060000*%
%ADD42R,1.320000X0.060000*%
%ADD43R,1.920000X0.060000*%
%ADD44R,3.360000X0.060000*%
%ADD45R,0.960000X0.060000*%
%ADD46R,0.840000X0.060000*%
%ADD47R,3.060000X0.060000*%
%ADD48R,3.420000X0.060000*%
%ADD49R,0.900000X0.060000*%
%ADD50R,1.380000X0.060000*%
%ADD51R,1.140000X0.060000*%
%ADD52R,2.340000X0.060000*%
%ADD53R,0.780000X0.060000*%
%ADD54R,2.580000X0.060000*%
%ADD55R,1.500000X0.060000*%
%ADD56R,2.640000X0.060000*%
%ADD57R,2.160000X0.060000*%
%ADD58R,2.760000X0.060000*%
%ADD59R,2.100000X0.060000*%
%ADD60R,2.820000X0.060000*%
%ADD61R,2.040000X0.060000*%
%ADD62R,2.880000X0.060000*%
%ADD63R,1.980000X0.060000*%
%ADD64R,3.000000X0.060000*%
%ADD65R,1.020000X0.060000*%
%ADD66R,3.120000X0.060000*%
%ADD67R,1.560000X0.060000*%
%ADD68R,2.700000X0.060000*%
%ADD69R,4.380000X0.060000*%
%ADD70R,4.260000X0.060000*%
%ADD71R,4.200000X0.060000*%
%ADD72R,4.140000X0.060000*%
%ADD73R,3.960000X0.060000*%
%ADD74R,3.900000X0.060000*%
%ADD75R,1.200000X0.060000*%
%ADD76R,3.540000X0.060000*%
%ADD77R,3.600000X0.060000*%
%ADD78R,3.660000X0.060000*%
%ADD79R,3.300000X0.060000*%
%ADD80R,3.240000X0.060000*%
%ADD81R,2.400000X0.060000*%
%ADD82R,3.780000X0.060000*%
%ADD83R,2.460000X0.060000*%
%ADD84R,2.280000X0.060000*%
%ADD85R,1.740000X0.060000*%
%ADD86R,1.680000X0.060000*%
%ADD87R,3.480000X0.060000*%
%ADD88R,3.840000X0.060000*%
%ADD89R,5.100000X0.060000*%
%ADD90R,3.720000X0.060000*%
%ADD91R,5.220000X0.060000*%
%ADD92R,1.860000X0.060000*%


D10*
X175754Y309513D02*
X175754Y312787D01*
X175756Y312876D01*
X175762Y312965D01*
X175772Y313054D01*
X175785Y313142D01*
X175802Y313230D01*
X175824Y313317D01*
X175849Y313402D01*
X175877Y313487D01*
X175910Y313570D01*
X175946Y313652D01*
X175985Y313732D01*
X176028Y313810D01*
X176074Y313886D01*
X176124Y313961D01*
X176177Y314033D01*
X176233Y314102D01*
X176292Y314169D01*
X176353Y314234D01*
X176418Y314295D01*
X176485Y314354D01*
X176554Y314410D01*
X176626Y314463D01*
X176701Y314513D01*
X176777Y314559D01*
X176855Y314602D01*
X176935Y314641D01*
X177017Y314677D01*
X177100Y314710D01*
X177185Y314738D01*
X177270Y314763D01*
X177357Y314785D01*
X177445Y314802D01*
X177533Y314815D01*
X177622Y314825D01*
X177711Y314831D01*
X177800Y314833D01*
X177889Y314831D01*
X177978Y314825D01*
X178067Y314815D01*
X178155Y314802D01*
X178243Y314785D01*
X178330Y314763D01*
X178415Y314738D01*
X178500Y314710D01*
X178583Y314677D01*
X178665Y314641D01*
X178745Y314602D01*
X178823Y314559D01*
X178899Y314513D01*
X178974Y314463D01*
X179046Y314410D01*
X179115Y314354D01*
X179182Y314295D01*
X179247Y314234D01*
X179308Y314169D01*
X179367Y314102D01*
X179423Y314033D01*
X179476Y313961D01*
X179526Y313886D01*
X179572Y313810D01*
X179615Y313732D01*
X179654Y313652D01*
X179690Y313570D01*
X179723Y313487D01*
X179751Y313402D01*
X179776Y313317D01*
X179798Y313230D01*
X179815Y313142D01*
X179828Y313054D01*
X179838Y312965D01*
X179844Y312876D01*
X179846Y312787D01*
X179846Y309513D01*
X179844Y309424D01*
X179838Y309335D01*
X179828Y309246D01*
X179815Y309158D01*
X179798Y309070D01*
X179776Y308983D01*
X179751Y308898D01*
X179723Y308813D01*
X179690Y308730D01*
X179654Y308648D01*
X179615Y308568D01*
X179572Y308490D01*
X179526Y308414D01*
X179476Y308339D01*
X179423Y308267D01*
X179367Y308198D01*
X179308Y308131D01*
X179247Y308066D01*
X179182Y308005D01*
X179115Y307946D01*
X179046Y307890D01*
X178974Y307837D01*
X178899Y307787D01*
X178823Y307741D01*
X178745Y307698D01*
X178665Y307659D01*
X178583Y307623D01*
X178500Y307590D01*
X178415Y307562D01*
X178330Y307537D01*
X178243Y307515D01*
X178155Y307498D01*
X178067Y307485D01*
X177978Y307475D01*
X177889Y307469D01*
X177800Y307467D01*
X177711Y307469D01*
X177622Y307475D01*
X177533Y307485D01*
X177445Y307498D01*
X177357Y307515D01*
X177270Y307537D01*
X177185Y307562D01*
X177100Y307590D01*
X177017Y307623D01*
X176935Y307659D01*
X176855Y307698D01*
X176777Y307741D01*
X176701Y307787D01*
X176626Y307837D01*
X176554Y307890D01*
X176485Y307946D01*
X176418Y308005D01*
X176353Y308066D01*
X176292Y308131D01*
X176233Y308198D01*
X176177Y308267D01*
X176124Y308339D01*
X176074Y308414D01*
X176028Y308490D01*
X175985Y308568D01*
X175946Y308648D01*
X175910Y308730D01*
X175877Y308813D01*
X175849Y308898D01*
X175824Y308983D01*
X175802Y309070D01*
X175785Y309158D01*
X175772Y309246D01*
X175762Y309335D01*
X175756Y309424D01*
X175754Y309513D01*
X195180Y307467D02*
X195180Y314833D01*
X197226Y314833D01*
X197315Y314831D01*
X197404Y314825D01*
X197493Y314815D01*
X197581Y314802D01*
X197669Y314785D01*
X197756Y314763D01*
X197841Y314738D01*
X197926Y314710D01*
X198009Y314677D01*
X198091Y314641D01*
X198171Y314602D01*
X198249Y314559D01*
X198325Y314513D01*
X198400Y314463D01*
X198472Y314410D01*
X198541Y314354D01*
X198608Y314295D01*
X198673Y314234D01*
X198734Y314169D01*
X198793Y314102D01*
X198849Y314033D01*
X198902Y313961D01*
X198952Y313886D01*
X198998Y313810D01*
X199041Y313732D01*
X199080Y313652D01*
X199116Y313570D01*
X199149Y313487D01*
X199177Y313402D01*
X199202Y313317D01*
X199224Y313230D01*
X199241Y313142D01*
X199254Y313054D01*
X199264Y312965D01*
X199270Y312876D01*
X199272Y312787D01*
X199272Y309513D01*
X199270Y309424D01*
X199264Y309335D01*
X199254Y309246D01*
X199241Y309158D01*
X199224Y309070D01*
X199202Y308983D01*
X199177Y308898D01*
X199149Y308813D01*
X199116Y308730D01*
X199080Y308648D01*
X199041Y308568D01*
X198998Y308490D01*
X198952Y308414D01*
X198902Y308339D01*
X198849Y308267D01*
X198793Y308198D01*
X198734Y308131D01*
X198673Y308066D01*
X198608Y308005D01*
X198541Y307946D01*
X198472Y307890D01*
X198400Y307837D01*
X198325Y307787D01*
X198249Y307741D01*
X198171Y307698D01*
X198091Y307659D01*
X198009Y307623D01*
X197926Y307590D01*
X197841Y307562D01*
X197756Y307537D01*
X197669Y307515D01*
X197581Y307498D01*
X197493Y307485D01*
X197404Y307475D01*
X197315Y307469D01*
X197226Y307467D01*
X195180Y307467D01*
X203322Y307467D02*
X203322Y314833D01*
X202503Y307467D02*
X204140Y307467D01*
X204140Y314833D02*
X202503Y314833D01*
X207128Y312787D02*
X207128Y309513D01*
X207128Y312787D02*
X207130Y312876D01*
X207136Y312965D01*
X207146Y313054D01*
X207159Y313142D01*
X207176Y313230D01*
X207198Y313317D01*
X207223Y313402D01*
X207251Y313487D01*
X207284Y313570D01*
X207320Y313652D01*
X207359Y313732D01*
X207402Y313810D01*
X207448Y313886D01*
X207498Y313961D01*
X207551Y314033D01*
X207607Y314102D01*
X207666Y314169D01*
X207727Y314234D01*
X207792Y314295D01*
X207859Y314354D01*
X207928Y314410D01*
X208000Y314463D01*
X208075Y314513D01*
X208151Y314559D01*
X208229Y314602D01*
X208309Y314641D01*
X208391Y314677D01*
X208474Y314710D01*
X208559Y314738D01*
X208644Y314763D01*
X208731Y314785D01*
X208819Y314802D01*
X208907Y314815D01*
X208996Y314825D01*
X209085Y314831D01*
X209174Y314833D01*
X209263Y314831D01*
X209352Y314825D01*
X209441Y314815D01*
X209529Y314802D01*
X209617Y314785D01*
X209704Y314763D01*
X209789Y314738D01*
X209874Y314710D01*
X209957Y314677D01*
X210039Y314641D01*
X210119Y314602D01*
X210197Y314559D01*
X210273Y314513D01*
X210348Y314463D01*
X210420Y314410D01*
X210489Y314354D01*
X210556Y314295D01*
X210621Y314234D01*
X210682Y314169D01*
X210741Y314102D01*
X210797Y314033D01*
X210850Y313961D01*
X210900Y313886D01*
X210946Y313810D01*
X210989Y313732D01*
X211028Y313652D01*
X211064Y313570D01*
X211097Y313487D01*
X211125Y313402D01*
X211150Y313317D01*
X211172Y313230D01*
X211189Y313142D01*
X211202Y313054D01*
X211212Y312965D01*
X211218Y312876D01*
X211220Y312787D01*
X211220Y309513D01*
X211218Y309424D01*
X211212Y309335D01*
X211202Y309246D01*
X211189Y309158D01*
X211172Y309070D01*
X211150Y308983D01*
X211125Y308898D01*
X211097Y308813D01*
X211064Y308730D01*
X211028Y308648D01*
X210989Y308568D01*
X210946Y308490D01*
X210900Y308414D01*
X210850Y308339D01*
X210797Y308267D01*
X210741Y308198D01*
X210682Y308131D01*
X210621Y308066D01*
X210556Y308005D01*
X210489Y307946D01*
X210420Y307890D01*
X210348Y307837D01*
X210273Y307787D01*
X210197Y307741D01*
X210119Y307698D01*
X210039Y307659D01*
X209957Y307623D01*
X209874Y307590D01*
X209789Y307562D01*
X209704Y307537D01*
X209617Y307515D01*
X209529Y307498D01*
X209441Y307485D01*
X209352Y307475D01*
X209263Y307469D01*
X209174Y307467D01*
X209085Y307469D01*
X208996Y307475D01*
X208907Y307485D01*
X208819Y307498D01*
X208731Y307515D01*
X208644Y307537D01*
X208559Y307562D01*
X208474Y307590D01*
X208391Y307623D01*
X208309Y307659D01*
X208229Y307698D01*
X208151Y307741D01*
X208075Y307787D01*
X208000Y307837D01*
X207928Y307890D01*
X207859Y307946D01*
X207792Y308005D01*
X207727Y308066D01*
X207666Y308131D01*
X207607Y308198D01*
X207551Y308267D01*
X207498Y308339D01*
X207448Y308414D01*
X207402Y308490D01*
X207359Y308568D01*
X207320Y308648D01*
X207284Y308730D01*
X207251Y308813D01*
X207223Y308898D01*
X207198Y308983D01*
X207176Y309070D01*
X207159Y309158D01*
X207146Y309246D01*
X207136Y309335D01*
X207130Y309424D01*
X207128Y309513D01*
X221781Y307467D02*
X223417Y307467D01*
X221781Y307467D02*
X221703Y307469D01*
X221625Y307474D01*
X221548Y307484D01*
X221471Y307497D01*
X221395Y307513D01*
X221320Y307533D01*
X221246Y307557D01*
X221173Y307584D01*
X221101Y307615D01*
X221031Y307649D01*
X220963Y307686D01*
X220896Y307727D01*
X220831Y307771D01*
X220769Y307817D01*
X220709Y307867D01*
X220651Y307919D01*
X220596Y307974D01*
X220544Y308032D01*
X220494Y308092D01*
X220448Y308154D01*
X220404Y308219D01*
X220363Y308286D01*
X220326Y308354D01*
X220292Y308424D01*
X220261Y308496D01*
X220234Y308569D01*
X220210Y308643D01*
X220190Y308718D01*
X220174Y308794D01*
X220161Y308871D01*
X220151Y308948D01*
X220146Y309026D01*
X220144Y309104D01*
X220144Y313196D01*
X220146Y313276D01*
X220152Y313356D01*
X220162Y313436D01*
X220175Y313515D01*
X220193Y313594D01*
X220214Y313671D01*
X220240Y313747D01*
X220269Y313822D01*
X220301Y313896D01*
X220337Y313968D01*
X220377Y314038D01*
X220420Y314105D01*
X220466Y314171D01*
X220516Y314234D01*
X220568Y314295D01*
X220623Y314354D01*
X220682Y314409D01*
X220742Y314461D01*
X220806Y314511D01*
X220872Y314557D01*
X220939Y314600D01*
X221009Y314640D01*
X221081Y314676D01*
X221155Y314708D01*
X221229Y314737D01*
X221306Y314763D01*
X221383Y314784D01*
X221462Y314802D01*
X221541Y314815D01*
X221621Y314825D01*
X221701Y314831D01*
X221781Y314833D01*
X223417Y314833D01*
X226522Y314833D02*
X226522Y307467D01*
X229796Y307467D01*
X232964Y307467D02*
X232964Y314833D01*
X237056Y314833D02*
X232964Y310332D01*
X234601Y311968D02*
X237056Y307467D01*
X247016Y311559D02*
X248243Y311559D01*
X248243Y307467D01*
X245788Y307467D01*
X245710Y307469D01*
X245632Y307474D01*
X245555Y307484D01*
X245478Y307497D01*
X245402Y307513D01*
X245327Y307533D01*
X245253Y307557D01*
X245180Y307584D01*
X245108Y307615D01*
X245038Y307649D01*
X244970Y307686D01*
X244903Y307727D01*
X244838Y307771D01*
X244776Y307817D01*
X244716Y307867D01*
X244658Y307919D01*
X244603Y307974D01*
X244551Y308032D01*
X244501Y308092D01*
X244455Y308154D01*
X244411Y308219D01*
X244370Y308286D01*
X244333Y308354D01*
X244299Y308424D01*
X244268Y308496D01*
X244241Y308569D01*
X244217Y308643D01*
X244197Y308718D01*
X244181Y308794D01*
X244168Y308871D01*
X244158Y308948D01*
X244153Y309026D01*
X244151Y309104D01*
X244151Y313196D01*
X244153Y313276D01*
X244159Y313356D01*
X244169Y313436D01*
X244182Y313515D01*
X244200Y313594D01*
X244221Y313671D01*
X244247Y313747D01*
X244276Y313822D01*
X244308Y313896D01*
X244344Y313968D01*
X244384Y314038D01*
X244427Y314105D01*
X244473Y314171D01*
X244523Y314234D01*
X244575Y314295D01*
X244630Y314354D01*
X244689Y314409D01*
X244749Y314461D01*
X244813Y314511D01*
X244879Y314557D01*
X244946Y314600D01*
X245016Y314640D01*
X245088Y314676D01*
X245162Y314708D01*
X245236Y314737D01*
X245313Y314763D01*
X245390Y314784D01*
X245469Y314802D01*
X245548Y314815D01*
X245628Y314825D01*
X245708Y314831D01*
X245788Y314833D01*
X248243Y314833D01*
X251954Y314833D02*
X251954Y307467D01*
X256046Y307467D02*
X251954Y314833D01*
X256046Y314833D02*
X256046Y307467D01*
X259757Y307467D02*
X259757Y314833D01*
X261803Y314833D01*
X261892Y314831D01*
X261981Y314825D01*
X262070Y314815D01*
X262158Y314802D01*
X262246Y314785D01*
X262333Y314763D01*
X262418Y314738D01*
X262503Y314710D01*
X262586Y314677D01*
X262668Y314641D01*
X262748Y314602D01*
X262826Y314559D01*
X262902Y314513D01*
X262977Y314463D01*
X263049Y314410D01*
X263118Y314354D01*
X263185Y314295D01*
X263250Y314234D01*
X263311Y314169D01*
X263370Y314102D01*
X263426Y314033D01*
X263479Y313961D01*
X263529Y313886D01*
X263575Y313810D01*
X263618Y313732D01*
X263657Y313652D01*
X263693Y313570D01*
X263726Y313487D01*
X263754Y313402D01*
X263779Y313317D01*
X263801Y313230D01*
X263818Y313142D01*
X263831Y313054D01*
X263841Y312965D01*
X263847Y312876D01*
X263849Y312787D01*
X263849Y309513D01*
X263847Y309424D01*
X263841Y309335D01*
X263831Y309246D01*
X263818Y309158D01*
X263801Y309070D01*
X263779Y308983D01*
X263754Y308898D01*
X263726Y308813D01*
X263693Y308730D01*
X263657Y308648D01*
X263618Y308568D01*
X263575Y308490D01*
X263529Y308414D01*
X263479Y308339D01*
X263426Y308267D01*
X263370Y308198D01*
X263311Y308131D01*
X263250Y308066D01*
X263185Y308005D01*
X263118Y307946D01*
X263049Y307890D01*
X262977Y307837D01*
X262902Y307787D01*
X262826Y307741D01*
X262748Y307698D01*
X262668Y307659D01*
X262586Y307623D01*
X262503Y307590D01*
X262418Y307562D01*
X262333Y307537D01*
X262246Y307515D01*
X262158Y307498D01*
X262070Y307485D01*
X261981Y307475D01*
X261892Y307469D01*
X261803Y307467D01*
X259757Y307467D01*
X270039Y307467D02*
X272085Y307467D01*
X272174Y307469D01*
X272263Y307475D01*
X272352Y307485D01*
X272440Y307498D01*
X272528Y307515D01*
X272615Y307537D01*
X272700Y307562D01*
X272785Y307590D01*
X272868Y307623D01*
X272950Y307659D01*
X273030Y307698D01*
X273108Y307741D01*
X273184Y307787D01*
X273259Y307837D01*
X273331Y307890D01*
X273400Y307946D01*
X273467Y308005D01*
X273532Y308066D01*
X273593Y308131D01*
X273652Y308198D01*
X273708Y308267D01*
X273761Y308339D01*
X273811Y308414D01*
X273857Y308490D01*
X273900Y308568D01*
X273939Y308648D01*
X273975Y308730D01*
X274008Y308813D01*
X274036Y308898D01*
X274061Y308983D01*
X274083Y309070D01*
X274100Y309158D01*
X274113Y309246D01*
X274123Y309335D01*
X274129Y309424D01*
X274131Y309513D01*
X274129Y309602D01*
X274123Y309691D01*
X274113Y309780D01*
X274100Y309868D01*
X274083Y309956D01*
X274061Y310043D01*
X274036Y310128D01*
X274008Y310213D01*
X273975Y310296D01*
X273939Y310378D01*
X273900Y310458D01*
X273857Y310536D01*
X273811Y310612D01*
X273761Y310687D01*
X273708Y310759D01*
X273652Y310828D01*
X273593Y310895D01*
X273532Y310960D01*
X273467Y311021D01*
X273400Y311080D01*
X273331Y311136D01*
X273259Y311189D01*
X273184Y311239D01*
X273108Y311285D01*
X273030Y311328D01*
X272950Y311367D01*
X272868Y311403D01*
X272785Y311436D01*
X272700Y311464D01*
X272615Y311489D01*
X272528Y311511D01*
X272440Y311528D01*
X272352Y311541D01*
X272263Y311551D01*
X272174Y311557D01*
X272085Y311559D01*
X272494Y314833D02*
X270039Y314833D01*
X272494Y314833D02*
X272573Y314831D01*
X272652Y314825D01*
X272731Y314816D01*
X272809Y314803D01*
X272886Y314785D01*
X272962Y314765D01*
X273037Y314740D01*
X273111Y314712D01*
X273184Y314681D01*
X273255Y314645D01*
X273324Y314607D01*
X273391Y314565D01*
X273456Y314520D01*
X273519Y314472D01*
X273580Y314421D01*
X273637Y314367D01*
X273693Y314311D01*
X273745Y314252D01*
X273795Y314190D01*
X273841Y314126D01*
X273885Y314060D01*
X273925Y313992D01*
X273961Y313922D01*
X273995Y313850D01*
X274025Y313776D01*
X274051Y313702D01*
X274074Y313626D01*
X274092Y313549D01*
X274108Y313472D01*
X274119Y313393D01*
X274127Y313315D01*
X274131Y313236D01*
X274131Y313156D01*
X274127Y313077D01*
X274119Y312999D01*
X274108Y312920D01*
X274092Y312843D01*
X274074Y312766D01*
X274051Y312690D01*
X274025Y312616D01*
X273995Y312542D01*
X273961Y312470D01*
X273925Y312400D01*
X273885Y312332D01*
X273841Y312266D01*
X273795Y312202D01*
X273745Y312140D01*
X273693Y312081D01*
X273637Y312025D01*
X273580Y311971D01*
X273519Y311920D01*
X273456Y311872D01*
X273391Y311827D01*
X273324Y311785D01*
X273255Y311747D01*
X273184Y311711D01*
X273111Y311680D01*
X273037Y311652D01*
X272962Y311627D01*
X272886Y311607D01*
X272809Y311589D01*
X272731Y311576D01*
X272652Y311567D01*
X272573Y311561D01*
X272494Y311559D01*
X270857Y311559D01*
X276945Y314833D02*
X279400Y307467D01*
X281855Y314833D01*
X284669Y307467D02*
X286715Y307467D01*
X286804Y307469D01*
X286893Y307475D01*
X286982Y307485D01*
X287070Y307498D01*
X287158Y307515D01*
X287245Y307537D01*
X287330Y307562D01*
X287415Y307590D01*
X287498Y307623D01*
X287580Y307659D01*
X287660Y307698D01*
X287738Y307741D01*
X287814Y307787D01*
X287889Y307837D01*
X287961Y307890D01*
X288030Y307946D01*
X288097Y308005D01*
X288162Y308066D01*
X288223Y308131D01*
X288282Y308198D01*
X288338Y308267D01*
X288391Y308339D01*
X288441Y308414D01*
X288487Y308490D01*
X288530Y308568D01*
X288569Y308648D01*
X288605Y308730D01*
X288638Y308813D01*
X288666Y308898D01*
X288691Y308983D01*
X288713Y309070D01*
X288730Y309158D01*
X288743Y309246D01*
X288753Y309335D01*
X288759Y309424D01*
X288761Y309513D01*
X288759Y309602D01*
X288753Y309691D01*
X288743Y309780D01*
X288730Y309868D01*
X288713Y309956D01*
X288691Y310043D01*
X288666Y310128D01*
X288638Y310213D01*
X288605Y310296D01*
X288569Y310378D01*
X288530Y310458D01*
X288487Y310536D01*
X288441Y310612D01*
X288391Y310687D01*
X288338Y310759D01*
X288282Y310828D01*
X288223Y310895D01*
X288162Y310960D01*
X288097Y311021D01*
X288030Y311080D01*
X287961Y311136D01*
X287889Y311189D01*
X287814Y311239D01*
X287738Y311285D01*
X287660Y311328D01*
X287580Y311367D01*
X287498Y311403D01*
X287415Y311436D01*
X287330Y311464D01*
X287245Y311489D01*
X287158Y311511D01*
X287070Y311528D01*
X286982Y311541D01*
X286893Y311551D01*
X286804Y311557D01*
X286715Y311559D01*
X287124Y314833D02*
X284669Y314833D01*
X287124Y314833D02*
X287203Y314831D01*
X287282Y314825D01*
X287361Y314816D01*
X287439Y314803D01*
X287516Y314785D01*
X287592Y314765D01*
X287667Y314740D01*
X287741Y314712D01*
X287814Y314681D01*
X287885Y314645D01*
X287954Y314607D01*
X288021Y314565D01*
X288086Y314520D01*
X288149Y314472D01*
X288210Y314421D01*
X288267Y314367D01*
X288323Y314311D01*
X288375Y314252D01*
X288425Y314190D01*
X288471Y314126D01*
X288515Y314060D01*
X288555Y313992D01*
X288591Y313922D01*
X288625Y313850D01*
X288655Y313776D01*
X288681Y313702D01*
X288704Y313626D01*
X288722Y313549D01*
X288738Y313472D01*
X288749Y313393D01*
X288757Y313315D01*
X288761Y313236D01*
X288761Y313156D01*
X288757Y313077D01*
X288749Y312999D01*
X288738Y312920D01*
X288722Y312843D01*
X288704Y312766D01*
X288681Y312690D01*
X288655Y312616D01*
X288625Y312542D01*
X288591Y312470D01*
X288555Y312400D01*
X288515Y312332D01*
X288471Y312266D01*
X288425Y312202D01*
X288375Y312140D01*
X288323Y312081D01*
X288267Y312025D01*
X288210Y311971D01*
X288149Y311920D01*
X288086Y311872D01*
X288021Y311827D01*
X287954Y311785D01*
X287885Y311747D01*
X287814Y311711D01*
X287741Y311680D01*
X287667Y311652D01*
X287592Y311627D01*
X287516Y311607D01*
X287439Y311589D01*
X287361Y311576D01*
X287282Y311567D01*
X287203Y311561D01*
X287124Y311559D01*
X285488Y311559D01*
D11*
X213360Y277830D02*
X213360Y417830D01*
X313360Y417830D01*
X313360Y277830D01*
X213360Y277830D01*
D12*
X239268Y405779D02*
X242514Y405779D01*
X242514Y405780D02*
X242627Y405778D01*
X242740Y405772D01*
X242853Y405762D01*
X242966Y405748D01*
X243078Y405731D01*
X243189Y405709D01*
X243299Y405684D01*
X243409Y405654D01*
X243517Y405621D01*
X243624Y405584D01*
X243730Y405544D01*
X243834Y405499D01*
X243937Y405451D01*
X244038Y405400D01*
X244137Y405345D01*
X244234Y405287D01*
X244329Y405225D01*
X244422Y405160D01*
X244512Y405092D01*
X244600Y405021D01*
X244686Y404946D01*
X244769Y404869D01*
X244849Y404789D01*
X244926Y404706D01*
X245001Y404620D01*
X245072Y404532D01*
X245140Y404442D01*
X245205Y404349D01*
X245267Y404254D01*
X245325Y404157D01*
X245380Y404058D01*
X245431Y403957D01*
X245479Y403854D01*
X245524Y403750D01*
X245564Y403644D01*
X245601Y403537D01*
X245634Y403429D01*
X245664Y403319D01*
X245689Y403209D01*
X245711Y403098D01*
X245728Y402986D01*
X245742Y402873D01*
X245752Y402760D01*
X245758Y402647D01*
X245760Y402534D01*
X245758Y402421D01*
X245752Y402308D01*
X245742Y402195D01*
X245728Y402082D01*
X245711Y401970D01*
X245689Y401859D01*
X245664Y401749D01*
X245634Y401639D01*
X245601Y401531D01*
X245564Y401424D01*
X245524Y401318D01*
X245479Y401214D01*
X245431Y401111D01*
X245380Y401010D01*
X245325Y400911D01*
X245267Y400814D01*
X245205Y400719D01*
X245140Y400626D01*
X245072Y400536D01*
X245001Y400448D01*
X244926Y400362D01*
X244849Y400279D01*
X244769Y400199D01*
X244686Y400122D01*
X244600Y400047D01*
X244512Y399976D01*
X244422Y399908D01*
X244329Y399843D01*
X244234Y399781D01*
X244137Y399723D01*
X244038Y399668D01*
X243937Y399617D01*
X243834Y399569D01*
X243730Y399524D01*
X243624Y399484D01*
X243517Y399447D01*
X243409Y399414D01*
X243299Y399384D01*
X243189Y399359D01*
X243078Y399337D01*
X242966Y399320D01*
X242853Y399306D01*
X242740Y399296D01*
X242627Y399290D01*
X242514Y399288D01*
X239268Y399288D01*
X239268Y410972D01*
X242514Y410972D01*
X242615Y410970D01*
X242715Y410964D01*
X242815Y410954D01*
X242915Y410941D01*
X243014Y410923D01*
X243113Y410902D01*
X243210Y410877D01*
X243307Y410848D01*
X243402Y410815D01*
X243496Y410779D01*
X243588Y410739D01*
X243679Y410696D01*
X243768Y410649D01*
X243855Y410599D01*
X243941Y410545D01*
X244024Y410488D01*
X244104Y410428D01*
X244183Y410365D01*
X244259Y410298D01*
X244332Y410229D01*
X244402Y410157D01*
X244470Y410083D01*
X244535Y410006D01*
X244596Y409926D01*
X244655Y409844D01*
X244710Y409760D01*
X244762Y409674D01*
X244811Y409586D01*
X244856Y409496D01*
X244898Y409404D01*
X244936Y409311D01*
X244970Y409216D01*
X245001Y409121D01*
X245028Y409024D01*
X245051Y408926D01*
X245071Y408827D01*
X245086Y408727D01*
X245098Y408627D01*
X245106Y408527D01*
X245110Y408426D01*
X245110Y408326D01*
X245106Y408225D01*
X245098Y408125D01*
X245086Y408025D01*
X245071Y407925D01*
X245051Y407826D01*
X245028Y407728D01*
X245001Y407631D01*
X244970Y407536D01*
X244936Y407441D01*
X244898Y407348D01*
X244856Y407256D01*
X244811Y407166D01*
X244762Y407078D01*
X244710Y406992D01*
X244655Y406908D01*
X244596Y406826D01*
X244535Y406746D01*
X244470Y406669D01*
X244402Y406595D01*
X244332Y406523D01*
X244259Y406454D01*
X244183Y406387D01*
X244104Y406324D01*
X244024Y406264D01*
X243941Y406207D01*
X243855Y406153D01*
X243768Y406103D01*
X243679Y406056D01*
X243588Y406013D01*
X243496Y405973D01*
X243402Y405937D01*
X243307Y405904D01*
X243210Y405875D01*
X243113Y405850D01*
X243014Y405829D01*
X242915Y405811D01*
X242815Y405798D01*
X242715Y405788D01*
X242615Y405782D01*
X242514Y405780D01*
X250642Y410972D02*
X250642Y399288D01*
X254536Y404481D02*
X250642Y410972D01*
X254536Y404481D02*
X258431Y410972D01*
X258431Y399288D01*
X263215Y399288D02*
X271004Y410972D01*
X263215Y410972D02*
X271004Y399288D01*
X275294Y408376D02*
X278539Y410972D01*
X278539Y399288D01*
X275294Y399288D02*
X281785Y399288D01*
D13*
X212288Y164084D02*
X211046Y164084D01*
X210976Y164086D01*
X210907Y164092D01*
X210838Y164102D01*
X210770Y164115D01*
X210702Y164133D01*
X210636Y164154D01*
X210571Y164179D01*
X210507Y164207D01*
X210445Y164239D01*
X210385Y164274D01*
X210327Y164313D01*
X210272Y164355D01*
X210218Y164400D01*
X210168Y164448D01*
X210120Y164498D01*
X210075Y164552D01*
X210033Y164607D01*
X209994Y164665D01*
X209959Y164725D01*
X209927Y164787D01*
X209899Y164851D01*
X209874Y164916D01*
X209853Y164982D01*
X209835Y165050D01*
X209822Y165118D01*
X209812Y165187D01*
X209806Y165256D01*
X209804Y165326D01*
X209804Y168430D01*
X209806Y168500D01*
X209812Y168569D01*
X209822Y168638D01*
X209835Y168706D01*
X209853Y168774D01*
X209874Y168840D01*
X209899Y168905D01*
X209927Y168969D01*
X209959Y169031D01*
X209994Y169091D01*
X210033Y169149D01*
X210075Y169204D01*
X210120Y169258D01*
X210168Y169308D01*
X210218Y169356D01*
X210272Y169401D01*
X210327Y169443D01*
X210385Y169482D01*
X210445Y169517D01*
X210507Y169549D01*
X210571Y169577D01*
X210636Y169602D01*
X210702Y169623D01*
X210770Y169641D01*
X210838Y169654D01*
X210907Y169664D01*
X210976Y169670D01*
X211046Y169672D01*
X212288Y169672D01*
X214392Y168430D02*
X215944Y169672D01*
X215944Y164084D01*
X214392Y164084D02*
X217497Y164084D01*
X49297Y185428D02*
X48055Y185428D01*
X47985Y185430D01*
X47916Y185436D01*
X47847Y185446D01*
X47779Y185459D01*
X47711Y185477D01*
X47645Y185498D01*
X47580Y185523D01*
X47516Y185551D01*
X47454Y185583D01*
X47394Y185618D01*
X47336Y185657D01*
X47281Y185699D01*
X47227Y185744D01*
X47177Y185792D01*
X47129Y185842D01*
X47084Y185896D01*
X47042Y185951D01*
X47003Y186009D01*
X46968Y186069D01*
X46936Y186131D01*
X46908Y186195D01*
X46883Y186260D01*
X46862Y186326D01*
X46844Y186394D01*
X46831Y186462D01*
X46821Y186531D01*
X46815Y186600D01*
X46813Y186670D01*
X46813Y189774D01*
X46815Y189844D01*
X46821Y189913D01*
X46831Y189982D01*
X46844Y190050D01*
X46862Y190118D01*
X46883Y190184D01*
X46908Y190249D01*
X46936Y190313D01*
X46968Y190375D01*
X47003Y190435D01*
X47042Y190493D01*
X47084Y190548D01*
X47129Y190602D01*
X47177Y190652D01*
X47227Y190700D01*
X47281Y190745D01*
X47336Y190787D01*
X47394Y190826D01*
X47454Y190861D01*
X47516Y190893D01*
X47580Y190921D01*
X47645Y190946D01*
X47711Y190967D01*
X47779Y190985D01*
X47847Y190998D01*
X47916Y191008D01*
X47985Y191014D01*
X48055Y191016D01*
X49297Y191016D01*
X53109Y191016D02*
X53182Y191014D01*
X53255Y191008D01*
X53328Y190999D01*
X53399Y190985D01*
X53471Y190968D01*
X53541Y190948D01*
X53610Y190923D01*
X53677Y190895D01*
X53743Y190864D01*
X53808Y190829D01*
X53870Y190791D01*
X53930Y190749D01*
X53988Y190705D01*
X54044Y190657D01*
X54097Y190607D01*
X54147Y190554D01*
X54195Y190498D01*
X54239Y190440D01*
X54281Y190380D01*
X54319Y190318D01*
X54354Y190253D01*
X54385Y190187D01*
X54413Y190120D01*
X54438Y190051D01*
X54458Y189981D01*
X54475Y189909D01*
X54489Y189838D01*
X54498Y189765D01*
X54504Y189692D01*
X54506Y189619D01*
X53109Y191016D02*
X53025Y191014D01*
X52942Y191008D01*
X52859Y190999D01*
X52777Y190985D01*
X52695Y190968D01*
X52614Y190946D01*
X52534Y190921D01*
X52456Y190893D01*
X52378Y190861D01*
X52303Y190825D01*
X52229Y190786D01*
X52157Y190743D01*
X52087Y190697D01*
X52020Y190648D01*
X51954Y190595D01*
X51892Y190540D01*
X51832Y190482D01*
X51774Y190421D01*
X51720Y190358D01*
X51668Y190292D01*
X51620Y190224D01*
X51575Y190153D01*
X51533Y190081D01*
X51495Y190006D01*
X51460Y189930D01*
X51429Y189853D01*
X51401Y189774D01*
X54040Y188533D02*
X54094Y188586D01*
X54145Y188643D01*
X54193Y188702D01*
X54238Y188763D01*
X54279Y188826D01*
X54318Y188892D01*
X54353Y188959D01*
X54385Y189028D01*
X54413Y189099D01*
X54437Y189170D01*
X54458Y189243D01*
X54475Y189317D01*
X54489Y189392D01*
X54498Y189467D01*
X54504Y189543D01*
X54506Y189619D01*
X54040Y188532D02*
X51402Y185428D01*
X54506Y185428D01*
X49297Y215428D02*
X48055Y215428D01*
X47985Y215430D01*
X47916Y215436D01*
X47847Y215446D01*
X47779Y215459D01*
X47711Y215477D01*
X47645Y215498D01*
X47580Y215523D01*
X47516Y215551D01*
X47454Y215583D01*
X47394Y215618D01*
X47336Y215657D01*
X47281Y215699D01*
X47227Y215744D01*
X47177Y215792D01*
X47129Y215842D01*
X47084Y215896D01*
X47042Y215951D01*
X47003Y216009D01*
X46968Y216069D01*
X46936Y216131D01*
X46908Y216195D01*
X46883Y216260D01*
X46862Y216326D01*
X46844Y216394D01*
X46831Y216462D01*
X46821Y216531D01*
X46815Y216600D01*
X46813Y216670D01*
X46813Y219774D01*
X46815Y219844D01*
X46821Y219913D01*
X46831Y219982D01*
X46844Y220050D01*
X46862Y220118D01*
X46883Y220184D01*
X46908Y220249D01*
X46936Y220313D01*
X46968Y220375D01*
X47003Y220435D01*
X47042Y220493D01*
X47084Y220548D01*
X47129Y220602D01*
X47177Y220652D01*
X47227Y220700D01*
X47281Y220745D01*
X47336Y220787D01*
X47394Y220826D01*
X47454Y220861D01*
X47516Y220893D01*
X47580Y220921D01*
X47645Y220946D01*
X47711Y220967D01*
X47779Y220985D01*
X47847Y220998D01*
X47916Y221008D01*
X47985Y221014D01*
X48055Y221016D01*
X49297Y221016D01*
X51402Y215428D02*
X52954Y215428D01*
X53031Y215430D01*
X53109Y215436D01*
X53185Y215445D01*
X53262Y215459D01*
X53337Y215476D01*
X53411Y215497D01*
X53485Y215522D01*
X53557Y215550D01*
X53627Y215582D01*
X53696Y215617D01*
X53763Y215656D01*
X53828Y215698D01*
X53891Y215743D01*
X53952Y215791D01*
X54010Y215842D01*
X54065Y215896D01*
X54118Y215953D01*
X54167Y216012D01*
X54214Y216074D01*
X54258Y216138D01*
X54298Y216204D01*
X54335Y216272D01*
X54369Y216342D01*
X54399Y216413D01*
X54425Y216486D01*
X54448Y216560D01*
X54467Y216635D01*
X54482Y216710D01*
X54494Y216787D01*
X54502Y216864D01*
X54506Y216941D01*
X54506Y217019D01*
X54502Y217096D01*
X54494Y217173D01*
X54482Y217250D01*
X54467Y217325D01*
X54448Y217400D01*
X54425Y217474D01*
X54399Y217547D01*
X54369Y217618D01*
X54335Y217688D01*
X54298Y217756D01*
X54258Y217822D01*
X54214Y217886D01*
X54167Y217948D01*
X54118Y218007D01*
X54065Y218064D01*
X54010Y218118D01*
X53952Y218169D01*
X53891Y218217D01*
X53828Y218262D01*
X53763Y218304D01*
X53696Y218343D01*
X53627Y218378D01*
X53557Y218410D01*
X53485Y218438D01*
X53411Y218463D01*
X53337Y218484D01*
X53262Y218501D01*
X53185Y218515D01*
X53109Y218524D01*
X53031Y218530D01*
X52954Y218532D01*
X53264Y221016D02*
X51402Y221016D01*
X53264Y221016D02*
X53334Y221014D01*
X53403Y221008D01*
X53472Y220998D01*
X53540Y220985D01*
X53608Y220967D01*
X53674Y220946D01*
X53739Y220921D01*
X53803Y220893D01*
X53865Y220861D01*
X53925Y220826D01*
X53983Y220787D01*
X54038Y220745D01*
X54092Y220700D01*
X54142Y220652D01*
X54190Y220602D01*
X54235Y220548D01*
X54277Y220493D01*
X54316Y220435D01*
X54351Y220375D01*
X54383Y220313D01*
X54411Y220249D01*
X54436Y220184D01*
X54457Y220118D01*
X54475Y220050D01*
X54488Y219982D01*
X54498Y219913D01*
X54504Y219844D01*
X54506Y219774D01*
X54504Y219704D01*
X54498Y219635D01*
X54488Y219566D01*
X54475Y219498D01*
X54457Y219430D01*
X54436Y219364D01*
X54411Y219299D01*
X54383Y219235D01*
X54351Y219173D01*
X54316Y219113D01*
X54277Y219055D01*
X54235Y219000D01*
X54190Y218946D01*
X54142Y218896D01*
X54092Y218848D01*
X54038Y218803D01*
X53983Y218761D01*
X53925Y218722D01*
X53865Y218687D01*
X53803Y218655D01*
X53739Y218627D01*
X53674Y218602D01*
X53608Y218581D01*
X53540Y218563D01*
X53472Y218550D01*
X53403Y218540D01*
X53334Y218534D01*
X53264Y218532D01*
X52022Y218532D01*
X202946Y214828D02*
X202946Y213586D01*
X202944Y213516D01*
X202938Y213447D01*
X202928Y213378D01*
X202915Y213310D01*
X202897Y213242D01*
X202876Y213176D01*
X202851Y213111D01*
X202823Y213047D01*
X202791Y212985D01*
X202756Y212925D01*
X202717Y212867D01*
X202675Y212812D01*
X202630Y212758D01*
X202582Y212708D01*
X202532Y212660D01*
X202478Y212615D01*
X202423Y212573D01*
X202365Y212534D01*
X202305Y212499D01*
X202243Y212467D01*
X202179Y212439D01*
X202114Y212414D01*
X202048Y212393D01*
X201980Y212375D01*
X201912Y212362D01*
X201843Y212352D01*
X201774Y212346D01*
X201704Y212344D01*
X198600Y212344D01*
X198530Y212346D01*
X198461Y212352D01*
X198392Y212362D01*
X198324Y212375D01*
X198256Y212393D01*
X198190Y212414D01*
X198125Y212439D01*
X198061Y212467D01*
X197999Y212499D01*
X197939Y212534D01*
X197881Y212573D01*
X197826Y212615D01*
X197772Y212660D01*
X197722Y212708D01*
X197674Y212758D01*
X197629Y212812D01*
X197587Y212867D01*
X197548Y212925D01*
X197513Y212985D01*
X197481Y213047D01*
X197453Y213111D01*
X197428Y213176D01*
X197407Y213242D01*
X197389Y213310D01*
X197376Y213378D01*
X197366Y213447D01*
X197360Y213516D01*
X197358Y213586D01*
X197358Y214828D01*
X197358Y218174D02*
X201704Y216932D01*
X201704Y220037D01*
X200462Y219105D02*
X202946Y219105D01*
X271736Y207714D02*
X272978Y207714D01*
X271736Y207714D02*
X271666Y207716D01*
X271597Y207722D01*
X271528Y207732D01*
X271460Y207745D01*
X271392Y207763D01*
X271326Y207784D01*
X271261Y207809D01*
X271197Y207837D01*
X271135Y207869D01*
X271075Y207904D01*
X271017Y207943D01*
X270962Y207985D01*
X270908Y208030D01*
X270858Y208078D01*
X270810Y208128D01*
X270765Y208182D01*
X270723Y208237D01*
X270684Y208295D01*
X270649Y208355D01*
X270617Y208417D01*
X270589Y208481D01*
X270564Y208546D01*
X270543Y208612D01*
X270525Y208680D01*
X270512Y208748D01*
X270502Y208817D01*
X270496Y208886D01*
X270494Y208956D01*
X270494Y212060D01*
X270496Y212130D01*
X270502Y212199D01*
X270512Y212268D01*
X270525Y212336D01*
X270543Y212404D01*
X270564Y212470D01*
X270589Y212535D01*
X270617Y212599D01*
X270649Y212661D01*
X270684Y212721D01*
X270723Y212779D01*
X270765Y212834D01*
X270810Y212888D01*
X270858Y212938D01*
X270908Y212986D01*
X270962Y213031D01*
X271017Y213073D01*
X271075Y213112D01*
X271135Y213147D01*
X271197Y213179D01*
X271261Y213207D01*
X271326Y213232D01*
X271392Y213253D01*
X271460Y213271D01*
X271528Y213284D01*
X271597Y213294D01*
X271666Y213300D01*
X271736Y213302D01*
X272978Y213302D01*
X275082Y207714D02*
X276945Y207714D01*
X277015Y207716D01*
X277084Y207722D01*
X277153Y207732D01*
X277221Y207745D01*
X277289Y207763D01*
X277355Y207784D01*
X277420Y207809D01*
X277484Y207837D01*
X277546Y207869D01*
X277606Y207904D01*
X277664Y207943D01*
X277719Y207985D01*
X277773Y208030D01*
X277823Y208078D01*
X277871Y208128D01*
X277916Y208182D01*
X277958Y208237D01*
X277997Y208295D01*
X278032Y208355D01*
X278064Y208417D01*
X278092Y208481D01*
X278117Y208546D01*
X278138Y208612D01*
X278156Y208680D01*
X278169Y208748D01*
X278179Y208817D01*
X278185Y208886D01*
X278187Y208956D01*
X278187Y209577D01*
X278185Y209647D01*
X278179Y209716D01*
X278169Y209785D01*
X278156Y209853D01*
X278138Y209921D01*
X278117Y209987D01*
X278092Y210052D01*
X278064Y210116D01*
X278032Y210178D01*
X277997Y210238D01*
X277958Y210296D01*
X277916Y210351D01*
X277871Y210405D01*
X277823Y210455D01*
X277773Y210503D01*
X277719Y210548D01*
X277664Y210590D01*
X277606Y210629D01*
X277546Y210664D01*
X277484Y210696D01*
X277420Y210724D01*
X277355Y210749D01*
X277289Y210770D01*
X277221Y210788D01*
X277153Y210801D01*
X277084Y210811D01*
X277015Y210817D01*
X276945Y210819D01*
X276945Y210818D02*
X275082Y210818D01*
X275082Y213302D01*
X278187Y213302D01*
D14*
X276600Y29050D02*
X302000Y29050D01*
X276600Y29050D02*
X276600Y3650D01*
X302000Y3650D01*
X302000Y29050D01*
D15*
X289300Y-2700D02*
X289300Y-59850D01*
D14*
X276600Y29050D02*
X251200Y29050D01*
X251200Y3650D01*
X276600Y3650D01*
D15*
X263900Y-2700D02*
X263900Y-59850D01*
D14*
X251200Y29050D02*
X225800Y29050D01*
X225800Y3650D01*
X251200Y3650D01*
D15*
X238500Y-2700D02*
X238500Y-59850D01*
D14*
X225800Y29050D02*
X200400Y29050D01*
X200400Y3650D01*
X225800Y3650D01*
D15*
X213100Y-2700D02*
X213100Y-59850D01*
D14*
X200400Y29050D02*
X175000Y29050D01*
X175000Y3650D01*
X200400Y3650D01*
D15*
X187700Y-2700D02*
X187700Y-59850D01*
D14*
X175000Y29050D02*
X149600Y29050D01*
X149600Y3650D01*
X175000Y3650D01*
D15*
X162300Y-2700D02*
X162300Y-59850D01*
D14*
X149600Y29050D02*
X124200Y29050D01*
X124200Y3650D01*
X149600Y3650D01*
D15*
X136900Y-2700D02*
X136900Y-59850D01*
D14*
X124200Y29050D02*
X98800Y29050D01*
X98800Y3650D01*
X124200Y3650D01*
D15*
X111500Y-2700D02*
X111500Y-59850D01*
D14*
X98800Y29050D02*
X73400Y29050D01*
X73400Y3650D01*
X98800Y3650D01*
D15*
X86100Y-2700D02*
X86100Y-59850D01*
D14*
X73400Y29050D02*
X48000Y29050D01*
X48000Y3650D01*
X73400Y3650D01*
D15*
X60700Y-2700D02*
X60700Y-59850D01*
D16*
X289300Y1110D03*
X263900Y1110D03*
X238500Y1110D03*
X213100Y1110D03*
X187700Y1110D03*
X162300Y1110D03*
X136900Y1110D03*
X111500Y1110D03*
X86100Y1110D03*
X60700Y1110D03*
D17*
X289300Y34130D03*
X263900Y34130D03*
D18*
X289300Y60800D03*
X263900Y60800D03*
D17*
X238500Y34130D03*
X213100Y34130D03*
D18*
X238500Y60800D03*
X213100Y60800D03*
D17*
X187700Y34130D03*
X162300Y34130D03*
D18*
X187700Y60800D03*
X162300Y60800D03*
D17*
X136900Y34130D03*
X111500Y34130D03*
D18*
X136900Y60800D03*
X111500Y60800D03*
D17*
X86100Y34130D03*
X60700Y34130D03*
D18*
X86100Y60800D03*
X60700Y60800D03*
D10*
X196000Y318000D02*
X204000Y318000D01*
X200000Y322000D01*
X196000Y318000D01*
X196000Y322000D02*
X204000Y322000D01*
X200000Y328000D02*
X200000Y312000D01*
X200051Y340214D02*
X207417Y340214D01*
X207417Y343488D01*
X207417Y346554D02*
X207417Y349827D01*
X207417Y346554D02*
X200051Y346554D01*
X200051Y349827D01*
X203325Y349009D02*
X203325Y346554D01*
X200051Y352878D02*
X207417Y352878D01*
X200051Y352878D02*
X200051Y354924D01*
X200053Y355013D01*
X200059Y355102D01*
X200069Y355191D01*
X200082Y355279D01*
X200099Y355367D01*
X200121Y355454D01*
X200146Y355539D01*
X200174Y355624D01*
X200207Y355707D01*
X200243Y355789D01*
X200282Y355869D01*
X200325Y355947D01*
X200371Y356023D01*
X200421Y356098D01*
X200474Y356170D01*
X200530Y356239D01*
X200589Y356306D01*
X200650Y356371D01*
X200715Y356432D01*
X200782Y356491D01*
X200851Y356547D01*
X200923Y356600D01*
X200998Y356650D01*
X201074Y356696D01*
X201152Y356739D01*
X201232Y356778D01*
X201314Y356814D01*
X201397Y356847D01*
X201482Y356875D01*
X201567Y356900D01*
X201654Y356922D01*
X201742Y356939D01*
X201830Y356952D01*
X201919Y356962D01*
X202008Y356968D01*
X202097Y356970D01*
X205371Y356970D01*
X205460Y356968D01*
X205549Y356962D01*
X205638Y356952D01*
X205726Y356939D01*
X205814Y356922D01*
X205901Y356900D01*
X205986Y356875D01*
X206071Y356847D01*
X206154Y356814D01*
X206236Y356778D01*
X206316Y356739D01*
X206394Y356696D01*
X206470Y356650D01*
X206545Y356600D01*
X206617Y356547D01*
X206686Y356491D01*
X206753Y356432D01*
X206818Y356371D01*
X206879Y356306D01*
X206938Y356239D01*
X206994Y356170D01*
X207047Y356098D01*
X207097Y356023D01*
X207143Y355947D01*
X207186Y355869D01*
X207225Y355789D01*
X207261Y355707D01*
X207294Y355624D01*
X207322Y355539D01*
X207347Y355454D01*
X207369Y355367D01*
X207386Y355279D01*
X207399Y355191D01*
X207409Y355102D01*
X207415Y355013D01*
X207417Y354924D01*
X207417Y352878D01*
X203734Y360437D02*
X203581Y360439D01*
X203428Y360445D01*
X203276Y360454D01*
X203123Y360468D01*
X202971Y360485D01*
X202820Y360506D01*
X202669Y360531D01*
X202519Y360560D01*
X202369Y360592D01*
X202221Y360629D01*
X202073Y360669D01*
X201926Y360712D01*
X201781Y360760D01*
X201637Y360811D01*
X201494Y360865D01*
X201352Y360924D01*
X201213Y360985D01*
X201074Y361051D01*
X201004Y361077D01*
X200934Y361107D01*
X200867Y361140D01*
X200801Y361176D01*
X200737Y361215D01*
X200675Y361258D01*
X200616Y361304D01*
X200558Y361352D01*
X200504Y361403D01*
X200451Y361457D01*
X200402Y361514D01*
X200355Y361573D01*
X200312Y361634D01*
X200271Y361697D01*
X200234Y361762D01*
X200199Y361829D01*
X200169Y361898D01*
X200141Y361968D01*
X200118Y362039D01*
X200097Y362111D01*
X200081Y362184D01*
X200068Y362258D01*
X200058Y362333D01*
X200053Y362408D01*
X200051Y362483D01*
X200053Y362558D01*
X200058Y362633D01*
X200068Y362708D01*
X200081Y362782D01*
X200097Y362855D01*
X200118Y362927D01*
X200141Y362998D01*
X200169Y363068D01*
X200199Y363137D01*
X200234Y363204D01*
X200271Y363269D01*
X200312Y363332D01*
X200355Y363393D01*
X200402Y363452D01*
X200451Y363509D01*
X200504Y363563D01*
X200558Y363614D01*
X200616Y363663D01*
X200675Y363708D01*
X200737Y363751D01*
X200801Y363790D01*
X200867Y363827D01*
X200935Y363859D01*
X201004Y363889D01*
X201074Y363915D01*
X201212Y363980D01*
X201352Y364042D01*
X201494Y364100D01*
X201637Y364155D01*
X201781Y364206D01*
X201926Y364254D01*
X202073Y364297D01*
X202220Y364337D01*
X202369Y364374D01*
X202519Y364406D01*
X202669Y364435D01*
X202820Y364460D01*
X202971Y364481D01*
X203123Y364498D01*
X203276Y364512D01*
X203428Y364521D01*
X203581Y364527D01*
X203734Y364529D01*
X203734Y360437D02*
X203887Y360439D01*
X204040Y360445D01*
X204192Y360454D01*
X204345Y360468D01*
X204497Y360485D01*
X204648Y360506D01*
X204799Y360531D01*
X204949Y360560D01*
X205099Y360592D01*
X205247Y360629D01*
X205395Y360669D01*
X205542Y360712D01*
X205687Y360760D01*
X205831Y360811D01*
X205974Y360865D01*
X206116Y360924D01*
X206255Y360985D01*
X206394Y361051D01*
X206465Y361077D01*
X206534Y361107D01*
X206601Y361140D01*
X206667Y361176D01*
X206731Y361215D01*
X206793Y361258D01*
X206852Y361304D01*
X206910Y361352D01*
X206964Y361403D01*
X207017Y361457D01*
X207066Y361514D01*
X207113Y361573D01*
X207156Y361634D01*
X207197Y361697D01*
X207234Y361762D01*
X207269Y361829D01*
X207299Y361898D01*
X207327Y361968D01*
X207350Y362039D01*
X207371Y362111D01*
X207387Y362184D01*
X207400Y362258D01*
X207410Y362333D01*
X207415Y362408D01*
X207417Y362483D01*
X206394Y363915D02*
X206256Y363980D01*
X206116Y364042D01*
X205974Y364100D01*
X205831Y364155D01*
X205687Y364206D01*
X205542Y364254D01*
X205395Y364297D01*
X205248Y364337D01*
X205099Y364374D01*
X204949Y364406D01*
X204799Y364435D01*
X204648Y364460D01*
X204497Y364481D01*
X204345Y364498D01*
X204192Y364512D01*
X204040Y364521D01*
X203887Y364527D01*
X203734Y364529D01*
X206394Y363915D02*
X206464Y363889D01*
X206534Y363859D01*
X206601Y363826D01*
X206667Y363790D01*
X206731Y363751D01*
X206793Y363708D01*
X206852Y363662D01*
X206910Y363614D01*
X206964Y363563D01*
X207017Y363509D01*
X207066Y363452D01*
X207113Y363393D01*
X207156Y363332D01*
X207197Y363269D01*
X207234Y363204D01*
X207269Y363137D01*
X207299Y363068D01*
X207327Y362998D01*
X207350Y362927D01*
X207371Y362855D01*
X207387Y362782D01*
X207400Y362708D01*
X207410Y362633D01*
X207415Y362558D01*
X207417Y362483D01*
X205780Y360846D02*
X201688Y364120D01*
X174000Y318000D02*
X166000Y318000D01*
X170000Y322000D02*
X174000Y318000D01*
X170000Y322000D02*
X166000Y318000D01*
X166000Y322000D02*
X174000Y322000D01*
X170000Y328000D02*
X170000Y312000D01*
X167713Y337781D02*
X175079Y337781D01*
X175079Y341055D01*
X175079Y344121D02*
X175079Y347395D01*
X175079Y344121D02*
X167713Y344121D01*
X167713Y347395D01*
X170987Y346576D02*
X170987Y344121D01*
X167713Y350445D02*
X175079Y350445D01*
X167713Y350445D02*
X167713Y352491D01*
X167715Y352580D01*
X167721Y352669D01*
X167731Y352758D01*
X167744Y352846D01*
X167761Y352934D01*
X167783Y353021D01*
X167808Y353106D01*
X167836Y353191D01*
X167869Y353274D01*
X167905Y353356D01*
X167944Y353436D01*
X167987Y353514D01*
X168033Y353590D01*
X168083Y353665D01*
X168136Y353737D01*
X168192Y353806D01*
X168251Y353873D01*
X168312Y353938D01*
X168377Y353999D01*
X168444Y354058D01*
X168513Y354114D01*
X168585Y354167D01*
X168660Y354217D01*
X168736Y354263D01*
X168814Y354306D01*
X168894Y354345D01*
X168976Y354381D01*
X169059Y354414D01*
X169144Y354442D01*
X169229Y354467D01*
X169316Y354489D01*
X169404Y354506D01*
X169492Y354519D01*
X169581Y354529D01*
X169670Y354535D01*
X169759Y354537D01*
X173033Y354537D01*
X173122Y354535D01*
X173211Y354529D01*
X173300Y354519D01*
X173388Y354506D01*
X173476Y354489D01*
X173563Y354467D01*
X173648Y354442D01*
X173733Y354414D01*
X173816Y354381D01*
X173898Y354345D01*
X173978Y354306D01*
X174056Y354263D01*
X174132Y354217D01*
X174207Y354167D01*
X174279Y354114D01*
X174348Y354058D01*
X174415Y353999D01*
X174480Y353938D01*
X174541Y353873D01*
X174600Y353806D01*
X174656Y353737D01*
X174709Y353665D01*
X174759Y353590D01*
X174805Y353514D01*
X174848Y353436D01*
X174887Y353356D01*
X174923Y353274D01*
X174956Y353191D01*
X174984Y353106D01*
X175009Y353021D01*
X175031Y352934D01*
X175048Y352846D01*
X175061Y352758D01*
X175071Y352669D01*
X175077Y352580D01*
X175079Y352491D01*
X175079Y350445D01*
X169350Y358004D02*
X167713Y360050D01*
X175079Y360050D01*
X175079Y358004D02*
X175079Y362096D01*
X144000Y318000D02*
X136000Y318000D01*
X140000Y322000D02*
X144000Y318000D01*
X140000Y322000D02*
X136000Y318000D01*
X136000Y322000D02*
X144000Y322000D01*
X140000Y328000D02*
X140000Y312000D01*
D12*
X127629Y352978D02*
X127629Y364662D01*
X130874Y364662D01*
X130987Y364660D01*
X131100Y364654D01*
X131213Y364644D01*
X131326Y364630D01*
X131438Y364613D01*
X131549Y364591D01*
X131659Y364566D01*
X131769Y364536D01*
X131877Y364503D01*
X131984Y364466D01*
X132090Y364426D01*
X132194Y364381D01*
X132297Y364333D01*
X132398Y364282D01*
X132497Y364227D01*
X132594Y364169D01*
X132689Y364107D01*
X132782Y364042D01*
X132872Y363974D01*
X132960Y363903D01*
X133046Y363828D01*
X133129Y363751D01*
X133209Y363671D01*
X133286Y363588D01*
X133361Y363502D01*
X133432Y363414D01*
X133500Y363324D01*
X133565Y363231D01*
X133627Y363136D01*
X133685Y363039D01*
X133740Y362940D01*
X133791Y362839D01*
X133839Y362736D01*
X133884Y362632D01*
X133924Y362526D01*
X133961Y362419D01*
X133994Y362311D01*
X134024Y362201D01*
X134049Y362091D01*
X134071Y361980D01*
X134088Y361868D01*
X134102Y361755D01*
X134112Y361642D01*
X134118Y361529D01*
X134120Y361416D01*
X134118Y361303D01*
X134112Y361190D01*
X134102Y361077D01*
X134088Y360964D01*
X134071Y360852D01*
X134049Y360741D01*
X134024Y360631D01*
X133994Y360521D01*
X133961Y360413D01*
X133924Y360306D01*
X133884Y360200D01*
X133839Y360096D01*
X133791Y359993D01*
X133740Y359892D01*
X133685Y359793D01*
X133627Y359696D01*
X133565Y359601D01*
X133500Y359508D01*
X133432Y359418D01*
X133361Y359330D01*
X133286Y359244D01*
X133209Y359161D01*
X133129Y359081D01*
X133046Y359004D01*
X132960Y358929D01*
X132872Y358858D01*
X132782Y358790D01*
X132689Y358725D01*
X132594Y358663D01*
X132497Y358605D01*
X132398Y358550D01*
X132297Y358499D01*
X132194Y358451D01*
X132090Y358406D01*
X131984Y358366D01*
X131877Y358329D01*
X131769Y358296D01*
X131659Y358266D01*
X131549Y358241D01*
X131438Y358219D01*
X131326Y358202D01*
X131213Y358188D01*
X131100Y358178D01*
X130987Y358172D01*
X130874Y358170D01*
X130874Y358171D02*
X127629Y358171D01*
X138085Y364662D02*
X140681Y352978D01*
X143278Y360767D01*
X145874Y352978D01*
X148471Y364662D01*
X153441Y364662D02*
X153441Y352978D01*
X153441Y364662D02*
X156686Y364662D01*
X156799Y364660D01*
X156912Y364654D01*
X157025Y364644D01*
X157138Y364630D01*
X157250Y364613D01*
X157361Y364591D01*
X157471Y364566D01*
X157581Y364536D01*
X157689Y364503D01*
X157796Y364466D01*
X157902Y364426D01*
X158006Y364381D01*
X158109Y364333D01*
X158210Y364282D01*
X158309Y364227D01*
X158406Y364169D01*
X158501Y364107D01*
X158594Y364042D01*
X158684Y363974D01*
X158772Y363903D01*
X158858Y363828D01*
X158941Y363751D01*
X159021Y363671D01*
X159098Y363588D01*
X159173Y363502D01*
X159244Y363414D01*
X159312Y363324D01*
X159377Y363231D01*
X159439Y363136D01*
X159497Y363039D01*
X159552Y362940D01*
X159603Y362839D01*
X159651Y362736D01*
X159696Y362632D01*
X159736Y362526D01*
X159773Y362419D01*
X159806Y362311D01*
X159836Y362201D01*
X159861Y362091D01*
X159883Y361980D01*
X159900Y361868D01*
X159914Y361755D01*
X159924Y361642D01*
X159930Y361529D01*
X159932Y361416D01*
X159930Y361303D01*
X159924Y361190D01*
X159914Y361077D01*
X159900Y360964D01*
X159883Y360852D01*
X159861Y360741D01*
X159836Y360631D01*
X159806Y360521D01*
X159773Y360413D01*
X159736Y360306D01*
X159696Y360200D01*
X159651Y360096D01*
X159603Y359993D01*
X159552Y359892D01*
X159497Y359793D01*
X159439Y359696D01*
X159377Y359601D01*
X159312Y359508D01*
X159244Y359418D01*
X159173Y359330D01*
X159098Y359244D01*
X159021Y359161D01*
X158941Y359081D01*
X158858Y359004D01*
X158772Y358929D01*
X158684Y358858D01*
X158594Y358790D01*
X158501Y358725D01*
X158406Y358663D01*
X158309Y358605D01*
X158210Y358550D01*
X158109Y358499D01*
X158006Y358451D01*
X157902Y358406D01*
X157796Y358366D01*
X157689Y358329D01*
X157581Y358296D01*
X157471Y358266D01*
X157361Y358241D01*
X157250Y358219D01*
X157138Y358202D01*
X157025Y358188D01*
X156912Y358178D01*
X156799Y358172D01*
X156686Y358170D01*
X156686Y358171D02*
X153441Y358171D01*
X157336Y358171D02*
X159932Y352978D01*
D13*
X168148Y129794D02*
X173736Y129794D01*
X168148Y129794D02*
X168148Y131346D01*
X168150Y131423D01*
X168156Y131501D01*
X168165Y131577D01*
X168179Y131654D01*
X168196Y131729D01*
X168217Y131803D01*
X168242Y131877D01*
X168270Y131949D01*
X168302Y132019D01*
X168337Y132088D01*
X168376Y132155D01*
X168418Y132220D01*
X168463Y132283D01*
X168511Y132344D01*
X168562Y132402D01*
X168616Y132457D01*
X168673Y132510D01*
X168732Y132559D01*
X168794Y132606D01*
X168858Y132650D01*
X168924Y132690D01*
X168992Y132727D01*
X169062Y132761D01*
X169133Y132791D01*
X169206Y132817D01*
X169280Y132840D01*
X169355Y132859D01*
X169430Y132874D01*
X169507Y132886D01*
X169584Y132894D01*
X169661Y132898D01*
X169739Y132898D01*
X169816Y132894D01*
X169893Y132886D01*
X169970Y132874D01*
X170045Y132859D01*
X170120Y132840D01*
X170194Y132817D01*
X170267Y132791D01*
X170338Y132761D01*
X170408Y132727D01*
X170476Y132690D01*
X170542Y132650D01*
X170606Y132606D01*
X170668Y132559D01*
X170727Y132510D01*
X170784Y132457D01*
X170838Y132402D01*
X170889Y132344D01*
X170937Y132283D01*
X170982Y132220D01*
X171024Y132155D01*
X171063Y132088D01*
X171098Y132019D01*
X171130Y131949D01*
X171158Y131877D01*
X171183Y131803D01*
X171204Y131729D01*
X171221Y131654D01*
X171235Y131577D01*
X171244Y131501D01*
X171250Y131423D01*
X171252Y131346D01*
X171252Y129794D01*
X171252Y131657D02*
X173736Y132898D01*
X169390Y135244D02*
X168148Y136797D01*
X173736Y136797D01*
X173736Y138349D02*
X173736Y135244D01*
X241284Y163744D02*
X241284Y169332D01*
X242836Y169332D01*
X242913Y169330D01*
X242991Y169324D01*
X243067Y169315D01*
X243144Y169301D01*
X243219Y169284D01*
X243293Y169263D01*
X243367Y169238D01*
X243439Y169210D01*
X243509Y169178D01*
X243578Y169143D01*
X243645Y169104D01*
X243710Y169062D01*
X243773Y169017D01*
X243834Y168969D01*
X243892Y168918D01*
X243947Y168864D01*
X244000Y168807D01*
X244049Y168748D01*
X244096Y168686D01*
X244140Y168622D01*
X244180Y168556D01*
X244217Y168488D01*
X244251Y168418D01*
X244281Y168347D01*
X244307Y168274D01*
X244330Y168200D01*
X244349Y168125D01*
X244364Y168050D01*
X244376Y167973D01*
X244384Y167896D01*
X244388Y167819D01*
X244388Y167741D01*
X244384Y167664D01*
X244376Y167587D01*
X244364Y167510D01*
X244349Y167435D01*
X244330Y167360D01*
X244307Y167286D01*
X244281Y167213D01*
X244251Y167142D01*
X244217Y167072D01*
X244180Y167004D01*
X244140Y166938D01*
X244096Y166874D01*
X244049Y166812D01*
X244000Y166753D01*
X243947Y166696D01*
X243892Y166642D01*
X243834Y166591D01*
X243773Y166543D01*
X243710Y166498D01*
X243645Y166456D01*
X243578Y166417D01*
X243509Y166382D01*
X243439Y166350D01*
X243367Y166322D01*
X243293Y166297D01*
X243219Y166276D01*
X243144Y166259D01*
X243067Y166245D01*
X242991Y166236D01*
X242913Y166230D01*
X242836Y166228D01*
X241284Y166228D01*
X243147Y166228D02*
X244388Y163744D01*
X249839Y167935D02*
X249837Y168008D01*
X249831Y168081D01*
X249822Y168154D01*
X249808Y168225D01*
X249791Y168297D01*
X249771Y168367D01*
X249746Y168436D01*
X249718Y168503D01*
X249687Y168569D01*
X249652Y168634D01*
X249614Y168696D01*
X249572Y168756D01*
X249528Y168814D01*
X249480Y168870D01*
X249430Y168923D01*
X249377Y168973D01*
X249321Y169021D01*
X249263Y169065D01*
X249203Y169107D01*
X249141Y169145D01*
X249076Y169180D01*
X249010Y169211D01*
X248943Y169239D01*
X248874Y169264D01*
X248804Y169284D01*
X248732Y169301D01*
X248661Y169315D01*
X248588Y169324D01*
X248515Y169330D01*
X248442Y169332D01*
X248358Y169330D01*
X248275Y169324D01*
X248192Y169315D01*
X248110Y169301D01*
X248028Y169284D01*
X247947Y169262D01*
X247867Y169237D01*
X247789Y169209D01*
X247711Y169177D01*
X247636Y169141D01*
X247562Y169102D01*
X247490Y169059D01*
X247420Y169013D01*
X247353Y168964D01*
X247287Y168911D01*
X247225Y168856D01*
X247165Y168798D01*
X247107Y168737D01*
X247053Y168674D01*
X247001Y168608D01*
X246953Y168540D01*
X246908Y168469D01*
X246866Y168397D01*
X246828Y168322D01*
X246793Y168246D01*
X246762Y168169D01*
X246734Y168090D01*
X249372Y166849D02*
X249426Y166902D01*
X249477Y166959D01*
X249525Y167018D01*
X249570Y167079D01*
X249611Y167142D01*
X249650Y167208D01*
X249685Y167275D01*
X249717Y167344D01*
X249745Y167415D01*
X249769Y167486D01*
X249790Y167559D01*
X249807Y167633D01*
X249821Y167708D01*
X249830Y167783D01*
X249836Y167859D01*
X249838Y167935D01*
X249373Y166848D02*
X246734Y163744D01*
X249839Y163744D01*
X139746Y285494D02*
X134158Y285494D01*
X134158Y287046D01*
X134160Y287123D01*
X134166Y287201D01*
X134175Y287277D01*
X134189Y287354D01*
X134206Y287429D01*
X134227Y287503D01*
X134252Y287577D01*
X134280Y287649D01*
X134312Y287719D01*
X134347Y287788D01*
X134386Y287855D01*
X134428Y287920D01*
X134473Y287983D01*
X134521Y288044D01*
X134572Y288102D01*
X134626Y288157D01*
X134683Y288210D01*
X134742Y288259D01*
X134804Y288306D01*
X134868Y288350D01*
X134934Y288390D01*
X135002Y288427D01*
X135072Y288461D01*
X135143Y288491D01*
X135216Y288517D01*
X135290Y288540D01*
X135365Y288559D01*
X135440Y288574D01*
X135517Y288586D01*
X135594Y288594D01*
X135671Y288598D01*
X135749Y288598D01*
X135826Y288594D01*
X135903Y288586D01*
X135980Y288574D01*
X136055Y288559D01*
X136130Y288540D01*
X136204Y288517D01*
X136277Y288491D01*
X136348Y288461D01*
X136418Y288427D01*
X136486Y288390D01*
X136552Y288350D01*
X136616Y288306D01*
X136678Y288259D01*
X136737Y288210D01*
X136794Y288157D01*
X136848Y288102D01*
X136899Y288044D01*
X136947Y287983D01*
X136992Y287920D01*
X137034Y287855D01*
X137073Y287788D01*
X137108Y287719D01*
X137140Y287649D01*
X137168Y287577D01*
X137193Y287503D01*
X137214Y287429D01*
X137231Y287354D01*
X137245Y287277D01*
X137254Y287201D01*
X137260Y287123D01*
X137262Y287046D01*
X137262Y285494D01*
X137262Y287357D02*
X139746Y288598D01*
X139746Y290944D02*
X139746Y292497D01*
X139744Y292574D01*
X139738Y292652D01*
X139729Y292728D01*
X139715Y292805D01*
X139698Y292880D01*
X139677Y292954D01*
X139652Y293028D01*
X139624Y293100D01*
X139592Y293170D01*
X139557Y293239D01*
X139518Y293306D01*
X139476Y293371D01*
X139431Y293434D01*
X139383Y293495D01*
X139332Y293553D01*
X139278Y293608D01*
X139221Y293661D01*
X139162Y293710D01*
X139100Y293757D01*
X139036Y293801D01*
X138970Y293841D01*
X138902Y293878D01*
X138832Y293912D01*
X138761Y293942D01*
X138688Y293968D01*
X138614Y293991D01*
X138539Y294010D01*
X138464Y294025D01*
X138387Y294037D01*
X138310Y294045D01*
X138233Y294049D01*
X138155Y294049D01*
X138078Y294045D01*
X138001Y294037D01*
X137924Y294025D01*
X137849Y294010D01*
X137774Y293991D01*
X137700Y293968D01*
X137627Y293942D01*
X137556Y293912D01*
X137486Y293878D01*
X137418Y293841D01*
X137352Y293801D01*
X137288Y293757D01*
X137226Y293710D01*
X137167Y293661D01*
X137110Y293608D01*
X137056Y293553D01*
X137005Y293495D01*
X136957Y293434D01*
X136912Y293371D01*
X136870Y293306D01*
X136831Y293239D01*
X136796Y293170D01*
X136764Y293100D01*
X136736Y293028D01*
X136711Y292954D01*
X136690Y292880D01*
X136673Y292805D01*
X136659Y292728D01*
X136650Y292652D01*
X136644Y292574D01*
X136642Y292497D01*
X134158Y292807D02*
X134158Y290944D01*
X134158Y292807D02*
X134160Y292877D01*
X134166Y292946D01*
X134176Y293015D01*
X134189Y293083D01*
X134207Y293151D01*
X134228Y293217D01*
X134253Y293282D01*
X134281Y293346D01*
X134313Y293408D01*
X134348Y293468D01*
X134387Y293526D01*
X134429Y293581D01*
X134474Y293635D01*
X134522Y293685D01*
X134572Y293733D01*
X134626Y293778D01*
X134681Y293820D01*
X134739Y293859D01*
X134799Y293894D01*
X134861Y293926D01*
X134925Y293954D01*
X134990Y293979D01*
X135056Y294000D01*
X135124Y294018D01*
X135192Y294031D01*
X135261Y294041D01*
X135330Y294047D01*
X135400Y294049D01*
X135470Y294047D01*
X135539Y294041D01*
X135608Y294031D01*
X135676Y294018D01*
X135744Y294000D01*
X135810Y293979D01*
X135875Y293954D01*
X135939Y293926D01*
X136001Y293894D01*
X136061Y293859D01*
X136119Y293820D01*
X136174Y293778D01*
X136228Y293733D01*
X136278Y293685D01*
X136326Y293635D01*
X136371Y293581D01*
X136413Y293526D01*
X136452Y293468D01*
X136487Y293408D01*
X136519Y293346D01*
X136547Y293282D01*
X136572Y293217D01*
X136593Y293151D01*
X136611Y293083D01*
X136624Y293015D01*
X136634Y292946D01*
X136640Y292877D01*
X136642Y292807D01*
X136642Y291565D01*
X195428Y285494D02*
X201016Y285494D01*
X195428Y285494D02*
X195428Y287046D01*
X195430Y287123D01*
X195436Y287201D01*
X195445Y287277D01*
X195459Y287354D01*
X195476Y287429D01*
X195497Y287503D01*
X195522Y287577D01*
X195550Y287649D01*
X195582Y287719D01*
X195617Y287788D01*
X195656Y287855D01*
X195698Y287920D01*
X195743Y287983D01*
X195791Y288044D01*
X195842Y288102D01*
X195896Y288157D01*
X195953Y288210D01*
X196012Y288259D01*
X196074Y288306D01*
X196138Y288350D01*
X196204Y288390D01*
X196272Y288427D01*
X196342Y288461D01*
X196413Y288491D01*
X196486Y288517D01*
X196560Y288540D01*
X196635Y288559D01*
X196710Y288574D01*
X196787Y288586D01*
X196864Y288594D01*
X196941Y288598D01*
X197019Y288598D01*
X197096Y288594D01*
X197173Y288586D01*
X197250Y288574D01*
X197325Y288559D01*
X197400Y288540D01*
X197474Y288517D01*
X197547Y288491D01*
X197618Y288461D01*
X197688Y288427D01*
X197756Y288390D01*
X197822Y288350D01*
X197886Y288306D01*
X197948Y288259D01*
X198007Y288210D01*
X198064Y288157D01*
X198118Y288102D01*
X198169Y288044D01*
X198217Y287983D01*
X198262Y287920D01*
X198304Y287855D01*
X198343Y287788D01*
X198378Y287719D01*
X198410Y287649D01*
X198438Y287577D01*
X198463Y287503D01*
X198484Y287429D01*
X198501Y287354D01*
X198515Y287277D01*
X198524Y287201D01*
X198530Y287123D01*
X198532Y287046D01*
X198532Y285494D01*
X198532Y287357D02*
X201016Y288598D01*
X201016Y290944D02*
X201016Y292807D01*
X201014Y292877D01*
X201008Y292946D01*
X200998Y293015D01*
X200985Y293083D01*
X200967Y293151D01*
X200946Y293217D01*
X200921Y293282D01*
X200893Y293346D01*
X200861Y293408D01*
X200826Y293468D01*
X200787Y293526D01*
X200745Y293581D01*
X200700Y293635D01*
X200652Y293685D01*
X200602Y293733D01*
X200548Y293778D01*
X200493Y293820D01*
X200435Y293859D01*
X200375Y293894D01*
X200313Y293926D01*
X200249Y293954D01*
X200184Y293979D01*
X200118Y294000D01*
X200050Y294018D01*
X199982Y294031D01*
X199913Y294041D01*
X199844Y294047D01*
X199774Y294049D01*
X199153Y294049D01*
X199083Y294047D01*
X199014Y294041D01*
X198945Y294031D01*
X198877Y294018D01*
X198809Y294000D01*
X198743Y293979D01*
X198678Y293954D01*
X198614Y293926D01*
X198552Y293894D01*
X198492Y293859D01*
X198434Y293820D01*
X198379Y293778D01*
X198325Y293733D01*
X198275Y293685D01*
X198227Y293635D01*
X198182Y293581D01*
X198140Y293526D01*
X198101Y293468D01*
X198066Y293408D01*
X198034Y293346D01*
X198006Y293282D01*
X197981Y293217D01*
X197960Y293151D01*
X197942Y293083D01*
X197929Y293015D01*
X197919Y292946D01*
X197913Y292877D01*
X197911Y292807D01*
X197912Y292807D02*
X197912Y290944D01*
X195428Y290944D01*
X195428Y294049D01*
X171016Y285494D02*
X165428Y285494D01*
X165428Y287046D01*
X165430Y287123D01*
X165436Y287201D01*
X165445Y287277D01*
X165459Y287354D01*
X165476Y287429D01*
X165497Y287503D01*
X165522Y287577D01*
X165550Y287649D01*
X165582Y287719D01*
X165617Y287788D01*
X165656Y287855D01*
X165698Y287920D01*
X165743Y287983D01*
X165791Y288044D01*
X165842Y288102D01*
X165896Y288157D01*
X165953Y288210D01*
X166012Y288259D01*
X166074Y288306D01*
X166138Y288350D01*
X166204Y288390D01*
X166272Y288427D01*
X166342Y288461D01*
X166413Y288491D01*
X166486Y288517D01*
X166560Y288540D01*
X166635Y288559D01*
X166710Y288574D01*
X166787Y288586D01*
X166864Y288594D01*
X166941Y288598D01*
X167019Y288598D01*
X167096Y288594D01*
X167173Y288586D01*
X167250Y288574D01*
X167325Y288559D01*
X167400Y288540D01*
X167474Y288517D01*
X167547Y288491D01*
X167618Y288461D01*
X167688Y288427D01*
X167756Y288390D01*
X167822Y288350D01*
X167886Y288306D01*
X167948Y288259D01*
X168007Y288210D01*
X168064Y288157D01*
X168118Y288102D01*
X168169Y288044D01*
X168217Y287983D01*
X168262Y287920D01*
X168304Y287855D01*
X168343Y287788D01*
X168378Y287719D01*
X168410Y287649D01*
X168438Y287577D01*
X168463Y287503D01*
X168484Y287429D01*
X168501Y287354D01*
X168515Y287277D01*
X168524Y287201D01*
X168530Y287123D01*
X168532Y287046D01*
X168532Y285494D01*
X168532Y287357D02*
X171016Y288598D01*
X167912Y290944D02*
X167912Y292807D01*
X167911Y292807D02*
X167913Y292877D01*
X167919Y292946D01*
X167929Y293015D01*
X167942Y293083D01*
X167960Y293151D01*
X167981Y293217D01*
X168006Y293282D01*
X168034Y293346D01*
X168066Y293408D01*
X168101Y293468D01*
X168140Y293526D01*
X168182Y293581D01*
X168227Y293635D01*
X168275Y293685D01*
X168325Y293733D01*
X168379Y293778D01*
X168434Y293820D01*
X168492Y293859D01*
X168552Y293894D01*
X168614Y293926D01*
X168678Y293954D01*
X168743Y293979D01*
X168809Y294000D01*
X168877Y294018D01*
X168945Y294031D01*
X169014Y294041D01*
X169083Y294047D01*
X169153Y294049D01*
X169464Y294049D01*
X169541Y294047D01*
X169619Y294041D01*
X169695Y294032D01*
X169772Y294018D01*
X169847Y294001D01*
X169921Y293980D01*
X169995Y293955D01*
X170067Y293927D01*
X170137Y293895D01*
X170206Y293860D01*
X170273Y293821D01*
X170338Y293779D01*
X170401Y293734D01*
X170462Y293686D01*
X170520Y293635D01*
X170575Y293581D01*
X170628Y293524D01*
X170677Y293465D01*
X170724Y293403D01*
X170768Y293339D01*
X170808Y293273D01*
X170845Y293205D01*
X170879Y293135D01*
X170909Y293064D01*
X170935Y292991D01*
X170958Y292917D01*
X170977Y292842D01*
X170992Y292767D01*
X171004Y292690D01*
X171012Y292613D01*
X171016Y292536D01*
X171016Y292458D01*
X171012Y292381D01*
X171004Y292304D01*
X170992Y292227D01*
X170977Y292152D01*
X170958Y292077D01*
X170935Y292003D01*
X170909Y291930D01*
X170879Y291859D01*
X170845Y291789D01*
X170808Y291721D01*
X170768Y291655D01*
X170724Y291591D01*
X170677Y291529D01*
X170628Y291470D01*
X170575Y291413D01*
X170520Y291359D01*
X170462Y291308D01*
X170401Y291260D01*
X170338Y291215D01*
X170273Y291173D01*
X170206Y291134D01*
X170137Y291099D01*
X170067Y291067D01*
X169995Y291039D01*
X169921Y291014D01*
X169847Y290993D01*
X169772Y290976D01*
X169695Y290962D01*
X169619Y290953D01*
X169541Y290947D01*
X169464Y290945D01*
X169464Y290944D02*
X167912Y290944D01*
X167814Y290946D01*
X167717Y290952D01*
X167620Y290961D01*
X167523Y290975D01*
X167427Y290992D01*
X167332Y291013D01*
X167238Y291037D01*
X167144Y291066D01*
X167052Y291098D01*
X166961Y291133D01*
X166872Y291172D01*
X166784Y291215D01*
X166698Y291261D01*
X166614Y291310D01*
X166532Y291363D01*
X166452Y291418D01*
X166374Y291477D01*
X166299Y291539D01*
X166226Y291604D01*
X166156Y291672D01*
X166088Y291742D01*
X166023Y291815D01*
X165961Y291890D01*
X165902Y291968D01*
X165847Y292048D01*
X165794Y292130D01*
X165745Y292214D01*
X165699Y292300D01*
X165656Y292388D01*
X165617Y292477D01*
X165582Y292568D01*
X165550Y292660D01*
X165521Y292754D01*
X165497Y292848D01*
X165476Y292943D01*
X165459Y293039D01*
X165445Y293136D01*
X165436Y293233D01*
X165430Y293330D01*
X165428Y293428D01*
D11*
X285500Y180500D02*
X314500Y180500D01*
X285500Y180500D02*
X285500Y219500D01*
X314500Y219500D01*
X314500Y180500D01*
D12*
X282792Y158788D02*
X271108Y158788D01*
X271108Y162034D01*
X271110Y162147D01*
X271116Y162260D01*
X271126Y162373D01*
X271140Y162486D01*
X271157Y162598D01*
X271179Y162709D01*
X271204Y162819D01*
X271234Y162929D01*
X271267Y163037D01*
X271304Y163144D01*
X271344Y163250D01*
X271389Y163354D01*
X271437Y163457D01*
X271488Y163558D01*
X271543Y163657D01*
X271601Y163754D01*
X271663Y163849D01*
X271728Y163942D01*
X271796Y164032D01*
X271867Y164120D01*
X271942Y164206D01*
X272019Y164289D01*
X272099Y164369D01*
X272182Y164446D01*
X272268Y164521D01*
X272356Y164592D01*
X272446Y164660D01*
X272539Y164725D01*
X272634Y164787D01*
X272731Y164845D01*
X272830Y164900D01*
X272931Y164951D01*
X273034Y164999D01*
X273138Y165044D01*
X273244Y165084D01*
X273351Y165121D01*
X273459Y165154D01*
X273569Y165184D01*
X273679Y165209D01*
X273790Y165231D01*
X273902Y165248D01*
X274015Y165262D01*
X274128Y165272D01*
X274241Y165278D01*
X274354Y165280D01*
X274467Y165278D01*
X274580Y165272D01*
X274693Y165262D01*
X274806Y165248D01*
X274918Y165231D01*
X275029Y165209D01*
X275139Y165184D01*
X275249Y165154D01*
X275357Y165121D01*
X275464Y165084D01*
X275570Y165044D01*
X275674Y164999D01*
X275777Y164951D01*
X275878Y164900D01*
X275977Y164845D01*
X276074Y164787D01*
X276169Y164725D01*
X276262Y164660D01*
X276352Y164592D01*
X276440Y164521D01*
X276526Y164446D01*
X276609Y164369D01*
X276689Y164289D01*
X276766Y164206D01*
X276841Y164120D01*
X276912Y164032D01*
X276980Y163942D01*
X277045Y163849D01*
X277107Y163754D01*
X277165Y163657D01*
X277220Y163558D01*
X277271Y163457D01*
X277319Y163354D01*
X277364Y163250D01*
X277404Y163144D01*
X277441Y163037D01*
X277474Y162929D01*
X277504Y162819D01*
X277529Y162709D01*
X277551Y162598D01*
X277568Y162486D01*
X277582Y162373D01*
X277592Y162260D01*
X277598Y162147D01*
X277600Y162034D01*
X277599Y162034D02*
X277599Y158788D01*
X277599Y162683D02*
X282792Y165279D01*
X282792Y173658D02*
X282790Y173757D01*
X282784Y173857D01*
X282775Y173956D01*
X282762Y174054D01*
X282745Y174152D01*
X282724Y174250D01*
X282699Y174346D01*
X282671Y174441D01*
X282639Y174535D01*
X282604Y174628D01*
X282565Y174720D01*
X282522Y174810D01*
X282477Y174898D01*
X282427Y174985D01*
X282375Y175069D01*
X282319Y175152D01*
X282261Y175232D01*
X282199Y175310D01*
X282134Y175385D01*
X282066Y175458D01*
X281996Y175528D01*
X281923Y175596D01*
X281848Y175661D01*
X281770Y175723D01*
X281690Y175781D01*
X281607Y175837D01*
X281523Y175889D01*
X281436Y175939D01*
X281348Y175984D01*
X281258Y176027D01*
X281166Y176066D01*
X281073Y176101D01*
X280979Y176133D01*
X280884Y176161D01*
X280788Y176186D01*
X280690Y176207D01*
X280592Y176224D01*
X280494Y176237D01*
X280395Y176246D01*
X280295Y176252D01*
X280196Y176254D01*
X282792Y173658D02*
X282790Y173514D01*
X282784Y173369D01*
X282775Y173225D01*
X282762Y173082D01*
X282745Y172938D01*
X282724Y172795D01*
X282699Y172653D01*
X282671Y172512D01*
X282639Y172371D01*
X282603Y172231D01*
X282564Y172092D01*
X282521Y171954D01*
X282474Y171818D01*
X282424Y171682D01*
X282370Y171548D01*
X282313Y171416D01*
X282252Y171285D01*
X282188Y171156D01*
X282120Y171028D01*
X282050Y170902D01*
X281975Y170778D01*
X281898Y170657D01*
X281817Y170537D01*
X281734Y170419D01*
X281647Y170304D01*
X281557Y170191D01*
X281464Y170080D01*
X281369Y169972D01*
X281270Y169866D01*
X281169Y169763D01*
X273704Y170088D02*
X273605Y170090D01*
X273505Y170096D01*
X273406Y170105D01*
X273308Y170118D01*
X273210Y170135D01*
X273112Y170156D01*
X273016Y170181D01*
X272921Y170209D01*
X272827Y170241D01*
X272734Y170276D01*
X272642Y170315D01*
X272552Y170358D01*
X272464Y170403D01*
X272377Y170453D01*
X272293Y170505D01*
X272210Y170561D01*
X272130Y170619D01*
X272052Y170681D01*
X271977Y170746D01*
X271904Y170814D01*
X271834Y170884D01*
X271766Y170957D01*
X271701Y171032D01*
X271639Y171110D01*
X271581Y171190D01*
X271525Y171273D01*
X271473Y171357D01*
X271423Y171444D01*
X271378Y171532D01*
X271335Y171622D01*
X271296Y171714D01*
X271261Y171807D01*
X271229Y171901D01*
X271201Y171996D01*
X271176Y172092D01*
X271155Y172190D01*
X271138Y172288D01*
X271125Y172386D01*
X271116Y172485D01*
X271110Y172585D01*
X271108Y172684D01*
X271110Y172820D01*
X271116Y172956D01*
X271125Y173092D01*
X271138Y173228D01*
X271156Y173363D01*
X271176Y173497D01*
X271201Y173631D01*
X271229Y173765D01*
X271262Y173897D01*
X271297Y174028D01*
X271337Y174159D01*
X271380Y174288D01*
X271426Y174416D01*
X271477Y174542D01*
X271530Y174668D01*
X271588Y174791D01*
X271648Y174913D01*
X271712Y175033D01*
X271780Y175152D01*
X271850Y175268D01*
X271924Y175382D01*
X272001Y175495D01*
X272082Y175605D01*
X275976Y171386D02*
X275923Y171300D01*
X275866Y171216D01*
X275807Y171134D01*
X275744Y171054D01*
X275678Y170977D01*
X275610Y170902D01*
X275538Y170830D01*
X275464Y170761D01*
X275387Y170695D01*
X275308Y170632D01*
X275226Y170572D01*
X275142Y170515D01*
X275056Y170461D01*
X274968Y170411D01*
X274878Y170364D01*
X274787Y170320D01*
X274693Y170281D01*
X274599Y170244D01*
X274503Y170212D01*
X274405Y170183D01*
X274307Y170158D01*
X274208Y170137D01*
X274108Y170119D01*
X274008Y170106D01*
X273907Y170096D01*
X273805Y170090D01*
X273704Y170088D01*
X277924Y174956D02*
X277977Y175042D01*
X278034Y175126D01*
X278093Y175208D01*
X278156Y175288D01*
X278222Y175365D01*
X278290Y175440D01*
X278362Y175512D01*
X278436Y175581D01*
X278513Y175647D01*
X278592Y175710D01*
X278674Y175770D01*
X278758Y175827D01*
X278844Y175881D01*
X278932Y175931D01*
X279022Y175978D01*
X279113Y176022D01*
X279207Y176061D01*
X279301Y176098D01*
X279397Y176130D01*
X279495Y176159D01*
X279593Y176184D01*
X279692Y176205D01*
X279792Y176223D01*
X279892Y176236D01*
X279993Y176246D01*
X280095Y176252D01*
X280196Y176254D01*
X277924Y174956D02*
X275976Y171386D01*
X271108Y183296D02*
X282792Y183296D01*
X271108Y180050D02*
X271108Y186541D01*
D11*
X186190Y151370D02*
X114690Y151370D01*
X114690Y222870D01*
X186190Y222870D01*
X186190Y151370D01*
X166567Y165870D02*
X166569Y165998D01*
X166575Y166126D01*
X166585Y166254D01*
X166599Y166382D01*
X166617Y166509D01*
X166639Y166635D01*
X166664Y166761D01*
X166694Y166885D01*
X166728Y167009D01*
X166765Y167132D01*
X166806Y167253D01*
X166851Y167373D01*
X166900Y167492D01*
X166952Y167609D01*
X167008Y167725D01*
X167067Y167838D01*
X167130Y167950D01*
X167197Y168060D01*
X167266Y168167D01*
X167339Y168273D01*
X167416Y168376D01*
X167495Y168476D01*
X167578Y168574D01*
X167663Y168670D01*
X167752Y168763D01*
X167843Y168853D01*
X167938Y168940D01*
X168034Y169024D01*
X168134Y169105D01*
X168236Y169183D01*
X168340Y169258D01*
X168446Y169329D01*
X168555Y169397D01*
X168666Y169462D01*
X168778Y169523D01*
X168893Y169581D01*
X169009Y169635D01*
X169127Y169685D01*
X169246Y169732D01*
X169367Y169775D01*
X169489Y169814D01*
X169613Y169850D01*
X169737Y169881D01*
X169862Y169909D01*
X169988Y169933D01*
X170115Y169953D01*
X170242Y169969D01*
X170370Y169981D01*
X170498Y169989D01*
X170626Y169993D01*
X170754Y169993D01*
X170882Y169989D01*
X171010Y169981D01*
X171138Y169969D01*
X171265Y169953D01*
X171392Y169933D01*
X171518Y169909D01*
X171643Y169881D01*
X171767Y169850D01*
X171891Y169814D01*
X172013Y169775D01*
X172134Y169732D01*
X172253Y169685D01*
X172371Y169635D01*
X172487Y169581D01*
X172602Y169523D01*
X172714Y169462D01*
X172825Y169397D01*
X172934Y169329D01*
X173040Y169258D01*
X173144Y169183D01*
X173246Y169105D01*
X173346Y169024D01*
X173442Y168940D01*
X173537Y168853D01*
X173628Y168763D01*
X173717Y168670D01*
X173802Y168574D01*
X173885Y168476D01*
X173964Y168376D01*
X174041Y168273D01*
X174114Y168167D01*
X174183Y168060D01*
X174250Y167950D01*
X174313Y167838D01*
X174372Y167725D01*
X174428Y167609D01*
X174480Y167492D01*
X174529Y167373D01*
X174574Y167253D01*
X174615Y167132D01*
X174652Y167009D01*
X174686Y166885D01*
X174716Y166761D01*
X174741Y166635D01*
X174763Y166509D01*
X174781Y166382D01*
X174795Y166254D01*
X174805Y166126D01*
X174811Y165998D01*
X174813Y165870D01*
X174811Y165742D01*
X174805Y165614D01*
X174795Y165486D01*
X174781Y165358D01*
X174763Y165231D01*
X174741Y165105D01*
X174716Y164979D01*
X174686Y164855D01*
X174652Y164731D01*
X174615Y164608D01*
X174574Y164487D01*
X174529Y164367D01*
X174480Y164248D01*
X174428Y164131D01*
X174372Y164015D01*
X174313Y163902D01*
X174250Y163790D01*
X174183Y163680D01*
X174114Y163573D01*
X174041Y163467D01*
X173964Y163364D01*
X173885Y163264D01*
X173802Y163166D01*
X173717Y163070D01*
X173628Y162977D01*
X173537Y162887D01*
X173442Y162800D01*
X173346Y162716D01*
X173246Y162635D01*
X173144Y162557D01*
X173040Y162482D01*
X172934Y162411D01*
X172825Y162343D01*
X172714Y162278D01*
X172602Y162217D01*
X172487Y162159D01*
X172371Y162105D01*
X172253Y162055D01*
X172134Y162008D01*
X172013Y161965D01*
X171891Y161926D01*
X171767Y161890D01*
X171643Y161859D01*
X171518Y161831D01*
X171392Y161807D01*
X171265Y161787D01*
X171138Y161771D01*
X171010Y161759D01*
X170882Y161751D01*
X170754Y161747D01*
X170626Y161747D01*
X170498Y161751D01*
X170370Y161759D01*
X170242Y161771D01*
X170115Y161787D01*
X169988Y161807D01*
X169862Y161831D01*
X169737Y161859D01*
X169613Y161890D01*
X169489Y161926D01*
X169367Y161965D01*
X169246Y162008D01*
X169127Y162055D01*
X169009Y162105D01*
X168893Y162159D01*
X168778Y162217D01*
X168666Y162278D01*
X168555Y162343D01*
X168446Y162411D01*
X168340Y162482D01*
X168236Y162557D01*
X168134Y162635D01*
X168034Y162716D01*
X167938Y162800D01*
X167843Y162887D01*
X167752Y162977D01*
X167663Y163070D01*
X167578Y163166D01*
X167495Y163264D01*
X167416Y163364D01*
X167339Y163467D01*
X167266Y163573D01*
X167197Y163680D01*
X167130Y163790D01*
X167067Y163902D01*
X167008Y164015D01*
X166952Y164131D01*
X166900Y164248D01*
X166851Y164367D01*
X166806Y164487D01*
X166765Y164608D01*
X166728Y164731D01*
X166694Y164855D01*
X166664Y164979D01*
X166639Y165105D01*
X166617Y165231D01*
X166599Y165358D01*
X166585Y165486D01*
X166575Y165614D01*
X166569Y165742D01*
X166567Y165870D01*
D19*
X118853Y156780D02*
X118851Y156722D01*
X118845Y156665D01*
X118835Y156608D01*
X118822Y156551D01*
X118804Y156496D01*
X118783Y156443D01*
X118758Y156390D01*
X118730Y156340D01*
X118698Y156292D01*
X118663Y156245D01*
X118625Y156202D01*
X118584Y156161D01*
X118541Y156123D01*
X118494Y156088D01*
X118446Y156056D01*
X118396Y156028D01*
X118343Y156003D01*
X118290Y155982D01*
X118235Y155964D01*
X118178Y155951D01*
X118121Y155941D01*
X118064Y155935D01*
X118006Y155933D01*
X117923Y155935D01*
X117840Y155941D01*
X117758Y155950D01*
X117676Y155964D01*
X117595Y155981D01*
X117514Y156002D01*
X117435Y156027D01*
X117357Y156055D01*
X117280Y156087D01*
X117205Y156122D01*
X117132Y156161D01*
X117060Y156204D01*
X116991Y156249D01*
X116924Y156298D01*
X116859Y156350D01*
X116796Y156404D01*
X116736Y156462D01*
X116842Y158896D02*
X116844Y158951D01*
X116849Y159007D01*
X116858Y159061D01*
X116871Y159115D01*
X116887Y159168D01*
X116906Y159220D01*
X116929Y159271D01*
X116955Y159320D01*
X116985Y159367D01*
X117017Y159412D01*
X117052Y159454D01*
X117090Y159495D01*
X117131Y159533D01*
X117173Y159568D01*
X117218Y159600D01*
X117266Y159630D01*
X117314Y159656D01*
X117365Y159679D01*
X117417Y159698D01*
X117470Y159714D01*
X117524Y159727D01*
X117578Y159736D01*
X117634Y159741D01*
X117689Y159743D01*
X117689Y159744D02*
X117768Y159742D01*
X117846Y159736D01*
X117924Y159727D01*
X118001Y159713D01*
X118078Y159696D01*
X118154Y159674D01*
X118228Y159650D01*
X118302Y159621D01*
X118373Y159589D01*
X118443Y159553D01*
X118512Y159514D01*
X118578Y159472D01*
X118642Y159426D01*
X117265Y158155D02*
X117218Y158185D01*
X117173Y158218D01*
X117130Y158254D01*
X117090Y158292D01*
X117052Y158333D01*
X117017Y158376D01*
X116985Y158422D01*
X116955Y158469D01*
X116929Y158519D01*
X116906Y158570D01*
X116887Y158622D01*
X116871Y158675D01*
X116858Y158730D01*
X116849Y158785D01*
X116844Y158840D01*
X116842Y158896D01*
X118430Y157521D02*
X118477Y157491D01*
X118522Y157458D01*
X118565Y157422D01*
X118605Y157384D01*
X118643Y157343D01*
X118678Y157300D01*
X118710Y157254D01*
X118740Y157207D01*
X118766Y157157D01*
X118789Y157106D01*
X118808Y157054D01*
X118824Y157001D01*
X118837Y156946D01*
X118846Y156891D01*
X118851Y156836D01*
X118853Y156780D01*
X118430Y157521D02*
X117265Y158156D01*
X121086Y159743D02*
X121086Y155933D01*
X120028Y159743D02*
X122145Y159743D01*
X123596Y159743D02*
X123596Y155933D01*
X124866Y157626D02*
X123596Y159743D01*
X124866Y157626D02*
X126136Y159743D01*
X126136Y155933D01*
X127831Y155933D02*
X128889Y155933D01*
X128953Y155935D01*
X129017Y155941D01*
X129080Y155950D01*
X129142Y155964D01*
X129204Y155981D01*
X129264Y156002D01*
X129323Y156026D01*
X129381Y156054D01*
X129436Y156086D01*
X129490Y156120D01*
X129541Y156158D01*
X129591Y156199D01*
X129637Y156243D01*
X129681Y156289D01*
X129722Y156339D01*
X129760Y156390D01*
X129794Y156444D01*
X129826Y156499D01*
X129854Y156557D01*
X129878Y156616D01*
X129899Y156676D01*
X129916Y156738D01*
X129930Y156800D01*
X129939Y156863D01*
X129945Y156927D01*
X129947Y156991D01*
X129945Y157055D01*
X129939Y157119D01*
X129930Y157182D01*
X129916Y157244D01*
X129899Y157306D01*
X129878Y157366D01*
X129854Y157425D01*
X129826Y157483D01*
X129794Y157538D01*
X129760Y157592D01*
X129722Y157643D01*
X129681Y157693D01*
X129637Y157739D01*
X129591Y157783D01*
X129541Y157824D01*
X129490Y157862D01*
X129436Y157896D01*
X129381Y157928D01*
X129323Y157956D01*
X129264Y157980D01*
X129204Y158001D01*
X129142Y158018D01*
X129080Y158032D01*
X129017Y158041D01*
X128953Y158047D01*
X128889Y158049D01*
X129101Y159743D02*
X127831Y159743D01*
X129101Y159743D02*
X129158Y159741D01*
X129214Y159735D01*
X129270Y159726D01*
X129325Y159713D01*
X129379Y159696D01*
X129432Y159676D01*
X129483Y159652D01*
X129533Y159625D01*
X129580Y159594D01*
X129626Y159561D01*
X129669Y159524D01*
X129710Y159485D01*
X129748Y159443D01*
X129783Y159398D01*
X129815Y159352D01*
X129844Y159303D01*
X129869Y159253D01*
X129891Y159200D01*
X129910Y159147D01*
X129925Y159092D01*
X129936Y159037D01*
X129944Y158981D01*
X129948Y158924D01*
X129948Y158868D01*
X129944Y158811D01*
X129936Y158755D01*
X129925Y158700D01*
X129910Y158645D01*
X129891Y158592D01*
X129869Y158539D01*
X129844Y158489D01*
X129815Y158440D01*
X129783Y158394D01*
X129748Y158349D01*
X129710Y158307D01*
X129669Y158268D01*
X129626Y158231D01*
X129580Y158198D01*
X129533Y158167D01*
X129483Y158140D01*
X129432Y158116D01*
X129379Y158096D01*
X129325Y158079D01*
X129270Y158066D01*
X129214Y158057D01*
X129158Y158051D01*
X129101Y158049D01*
X129101Y158050D02*
X128254Y158050D01*
X132653Y159744D02*
X132713Y159742D01*
X132772Y159736D01*
X132832Y159727D01*
X132890Y159714D01*
X132947Y159697D01*
X133004Y159677D01*
X133059Y159653D01*
X133112Y159626D01*
X133164Y159596D01*
X133213Y159562D01*
X133260Y159525D01*
X133305Y159486D01*
X133348Y159443D01*
X133387Y159398D01*
X133424Y159351D01*
X133458Y159302D01*
X133488Y159250D01*
X133515Y159197D01*
X133539Y159142D01*
X133559Y159085D01*
X133576Y159028D01*
X133589Y158970D01*
X133598Y158910D01*
X133604Y158851D01*
X133606Y158791D01*
X132653Y159743D02*
X132586Y159741D01*
X132519Y159736D01*
X132453Y159727D01*
X132387Y159714D01*
X132323Y159698D01*
X132259Y159678D01*
X132196Y159654D01*
X132134Y159628D01*
X132075Y159598D01*
X132017Y159565D01*
X131960Y159528D01*
X131906Y159489D01*
X131854Y159447D01*
X131805Y159402D01*
X131758Y159354D01*
X131714Y159304D01*
X131672Y159251D01*
X131634Y159196D01*
X131598Y159140D01*
X131566Y159081D01*
X131537Y159021D01*
X131511Y158959D01*
X131489Y158896D01*
X133288Y158050D02*
X133329Y158092D01*
X133368Y158137D01*
X133405Y158183D01*
X133439Y158232D01*
X133470Y158282D01*
X133497Y158334D01*
X133522Y158388D01*
X133544Y158443D01*
X133563Y158499D01*
X133578Y158556D01*
X133590Y158614D01*
X133598Y158673D01*
X133603Y158732D01*
X133605Y158791D01*
X133288Y158050D02*
X131489Y155933D01*
X133605Y155933D01*
X135274Y155933D02*
X135274Y159743D01*
X136968Y159743D01*
X136968Y158050D02*
X135274Y158050D01*
X138316Y155933D02*
X139374Y155933D01*
X139438Y155935D01*
X139502Y155941D01*
X139565Y155950D01*
X139627Y155964D01*
X139689Y155981D01*
X139749Y156002D01*
X139808Y156026D01*
X139866Y156054D01*
X139921Y156086D01*
X139975Y156120D01*
X140026Y156158D01*
X140076Y156199D01*
X140122Y156243D01*
X140166Y156289D01*
X140207Y156339D01*
X140245Y156390D01*
X140279Y156444D01*
X140311Y156499D01*
X140339Y156557D01*
X140363Y156616D01*
X140384Y156676D01*
X140401Y156738D01*
X140415Y156800D01*
X140424Y156863D01*
X140430Y156927D01*
X140432Y156991D01*
X140430Y157055D01*
X140424Y157119D01*
X140415Y157182D01*
X140401Y157244D01*
X140384Y157306D01*
X140363Y157366D01*
X140339Y157425D01*
X140311Y157483D01*
X140279Y157538D01*
X140245Y157592D01*
X140207Y157643D01*
X140166Y157693D01*
X140122Y157739D01*
X140076Y157783D01*
X140026Y157824D01*
X139975Y157862D01*
X139921Y157896D01*
X139866Y157928D01*
X139808Y157956D01*
X139749Y157980D01*
X139689Y158001D01*
X139627Y158018D01*
X139565Y158032D01*
X139502Y158041D01*
X139438Y158047D01*
X139374Y158049D01*
X139586Y159743D02*
X138316Y159743D01*
X139586Y159743D02*
X139643Y159741D01*
X139699Y159735D01*
X139755Y159726D01*
X139810Y159713D01*
X139864Y159696D01*
X139917Y159676D01*
X139968Y159652D01*
X140018Y159625D01*
X140065Y159594D01*
X140111Y159561D01*
X140154Y159524D01*
X140195Y159485D01*
X140233Y159443D01*
X140268Y159398D01*
X140300Y159352D01*
X140329Y159303D01*
X140354Y159253D01*
X140376Y159200D01*
X140395Y159147D01*
X140410Y159092D01*
X140421Y159037D01*
X140429Y158981D01*
X140433Y158924D01*
X140433Y158868D01*
X140429Y158811D01*
X140421Y158755D01*
X140410Y158700D01*
X140395Y158645D01*
X140376Y158592D01*
X140354Y158539D01*
X140329Y158489D01*
X140300Y158440D01*
X140268Y158394D01*
X140233Y158349D01*
X140195Y158307D01*
X140154Y158268D01*
X140111Y158231D01*
X140065Y158198D01*
X140018Y158167D01*
X139968Y158140D01*
X139917Y158116D01*
X139864Y158096D01*
X139810Y158079D01*
X139755Y158066D01*
X139699Y158057D01*
X139643Y158051D01*
X139586Y158049D01*
X139586Y158050D02*
X138739Y158050D01*
X141973Y157838D02*
X141975Y157948D01*
X141981Y158057D01*
X141990Y158166D01*
X142004Y158275D01*
X142021Y158383D01*
X142042Y158491D01*
X142066Y158597D01*
X142095Y158703D01*
X142127Y158808D01*
X142162Y158912D01*
X142201Y159014D01*
X142244Y159115D01*
X142291Y159214D01*
X142311Y159264D01*
X142333Y159313D01*
X142359Y159361D01*
X142388Y159406D01*
X142421Y159449D01*
X142456Y159490D01*
X142494Y159529D01*
X142534Y159564D01*
X142577Y159597D01*
X142622Y159627D01*
X142669Y159654D01*
X142717Y159677D01*
X142767Y159697D01*
X142819Y159713D01*
X142871Y159726D01*
X142924Y159736D01*
X142978Y159741D01*
X143032Y159743D01*
X143086Y159741D01*
X143140Y159736D01*
X143193Y159726D01*
X143245Y159713D01*
X143297Y159697D01*
X143347Y159677D01*
X143395Y159654D01*
X143442Y159627D01*
X143487Y159597D01*
X143530Y159564D01*
X143570Y159529D01*
X143608Y159490D01*
X143643Y159449D01*
X143676Y159406D01*
X143705Y159361D01*
X143731Y159313D01*
X143753Y159264D01*
X143773Y159214D01*
X143820Y159115D01*
X143863Y159014D01*
X143902Y158912D01*
X143937Y158808D01*
X143969Y158703D01*
X143998Y158597D01*
X144022Y158491D01*
X144043Y158383D01*
X144060Y158275D01*
X144074Y158166D01*
X144083Y158057D01*
X144089Y157948D01*
X144091Y157838D01*
X141973Y157838D02*
X141975Y157728D01*
X141981Y157619D01*
X141990Y157510D01*
X142004Y157401D01*
X142021Y157293D01*
X142042Y157185D01*
X142066Y157079D01*
X142095Y156973D01*
X142127Y156868D01*
X142162Y156765D01*
X142201Y156662D01*
X142244Y156561D01*
X142291Y156462D01*
X142311Y156412D01*
X142333Y156363D01*
X142359Y156315D01*
X142388Y156270D01*
X142421Y156227D01*
X142456Y156186D01*
X142494Y156147D01*
X142534Y156112D01*
X142577Y156079D01*
X142622Y156049D01*
X142669Y156022D01*
X142717Y155999D01*
X142767Y155979D01*
X142819Y155963D01*
X142871Y155950D01*
X142924Y155940D01*
X142978Y155935D01*
X143032Y155933D01*
X143772Y156462D02*
X143819Y156561D01*
X143862Y156662D01*
X143901Y156765D01*
X143936Y156868D01*
X143968Y156973D01*
X143997Y157079D01*
X144021Y157185D01*
X144042Y157293D01*
X144059Y157401D01*
X144073Y157510D01*
X144082Y157619D01*
X144088Y157728D01*
X144090Y157838D01*
X143773Y156462D02*
X143753Y156412D01*
X143731Y156363D01*
X143705Y156315D01*
X143676Y156270D01*
X143643Y156227D01*
X143608Y156186D01*
X143570Y156147D01*
X143530Y156112D01*
X143487Y156079D01*
X143442Y156049D01*
X143395Y156022D01*
X143347Y155999D01*
X143297Y155979D01*
X143245Y155963D01*
X143193Y155950D01*
X143140Y155940D01*
X143086Y155935D01*
X143032Y155933D01*
X142185Y156780D02*
X143879Y158896D01*
X145631Y155933D02*
X146689Y155933D01*
X146753Y155935D01*
X146817Y155941D01*
X146880Y155950D01*
X146942Y155964D01*
X147004Y155981D01*
X147064Y156002D01*
X147123Y156026D01*
X147181Y156054D01*
X147236Y156086D01*
X147290Y156120D01*
X147341Y156158D01*
X147391Y156199D01*
X147437Y156243D01*
X147481Y156289D01*
X147522Y156339D01*
X147560Y156390D01*
X147594Y156444D01*
X147626Y156499D01*
X147654Y156557D01*
X147678Y156616D01*
X147699Y156676D01*
X147716Y156738D01*
X147730Y156800D01*
X147739Y156863D01*
X147745Y156927D01*
X147747Y156991D01*
X147745Y157055D01*
X147739Y157119D01*
X147730Y157182D01*
X147716Y157244D01*
X147699Y157306D01*
X147678Y157366D01*
X147654Y157425D01*
X147626Y157483D01*
X147594Y157538D01*
X147560Y157592D01*
X147522Y157643D01*
X147481Y157693D01*
X147437Y157739D01*
X147391Y157783D01*
X147341Y157824D01*
X147290Y157862D01*
X147236Y157896D01*
X147181Y157928D01*
X147123Y157956D01*
X147064Y157980D01*
X147004Y158001D01*
X146942Y158018D01*
X146880Y158032D01*
X146817Y158041D01*
X146753Y158047D01*
X146689Y158049D01*
X146901Y159743D02*
X145631Y159743D01*
X146901Y159743D02*
X146958Y159741D01*
X147014Y159735D01*
X147070Y159726D01*
X147125Y159713D01*
X147179Y159696D01*
X147232Y159676D01*
X147283Y159652D01*
X147333Y159625D01*
X147380Y159594D01*
X147426Y159561D01*
X147469Y159524D01*
X147510Y159485D01*
X147548Y159443D01*
X147583Y159398D01*
X147615Y159352D01*
X147644Y159303D01*
X147669Y159253D01*
X147691Y159200D01*
X147710Y159147D01*
X147725Y159092D01*
X147736Y159037D01*
X147744Y158981D01*
X147748Y158924D01*
X147748Y158868D01*
X147744Y158811D01*
X147736Y158755D01*
X147725Y158700D01*
X147710Y158645D01*
X147691Y158592D01*
X147669Y158539D01*
X147644Y158489D01*
X147615Y158440D01*
X147583Y158394D01*
X147548Y158349D01*
X147510Y158307D01*
X147469Y158268D01*
X147426Y158231D01*
X147380Y158198D01*
X147333Y158167D01*
X147283Y158140D01*
X147232Y158116D01*
X147179Y158096D01*
X147125Y158079D01*
X147070Y158066D01*
X147014Y158057D01*
X146958Y158051D01*
X146901Y158049D01*
X146901Y158050D02*
X146054Y158050D01*
X149459Y159743D02*
X149459Y155933D01*
X149459Y157415D02*
X151576Y159743D01*
X150306Y158261D02*
X151576Y155933D01*
X152947Y156991D02*
X152949Y157055D01*
X152955Y157119D01*
X152964Y157182D01*
X152978Y157244D01*
X152995Y157306D01*
X153016Y157366D01*
X153040Y157425D01*
X153068Y157483D01*
X153100Y157538D01*
X153134Y157592D01*
X153172Y157643D01*
X153213Y157693D01*
X153257Y157739D01*
X153303Y157783D01*
X153353Y157824D01*
X153404Y157862D01*
X153458Y157896D01*
X153513Y157928D01*
X153571Y157956D01*
X153630Y157980D01*
X153690Y158001D01*
X153752Y158018D01*
X153814Y158032D01*
X153877Y158041D01*
X153941Y158047D01*
X154005Y158049D01*
X154069Y158047D01*
X154133Y158041D01*
X154196Y158032D01*
X154258Y158018D01*
X154320Y158001D01*
X154380Y157980D01*
X154439Y157956D01*
X154497Y157928D01*
X154552Y157896D01*
X154606Y157862D01*
X154657Y157824D01*
X154707Y157783D01*
X154753Y157739D01*
X154797Y157693D01*
X154838Y157643D01*
X154876Y157592D01*
X154910Y157538D01*
X154942Y157483D01*
X154970Y157425D01*
X154994Y157366D01*
X155015Y157306D01*
X155032Y157244D01*
X155046Y157182D01*
X155055Y157119D01*
X155061Y157055D01*
X155063Y156991D01*
X155061Y156927D01*
X155055Y156863D01*
X155046Y156800D01*
X155032Y156738D01*
X155015Y156676D01*
X154994Y156616D01*
X154970Y156557D01*
X154942Y156499D01*
X154910Y156444D01*
X154876Y156390D01*
X154838Y156339D01*
X154797Y156289D01*
X154753Y156243D01*
X154707Y156199D01*
X154657Y156158D01*
X154606Y156120D01*
X154552Y156086D01*
X154497Y156054D01*
X154439Y156026D01*
X154380Y156002D01*
X154320Y155981D01*
X154258Y155964D01*
X154196Y155950D01*
X154133Y155941D01*
X154069Y155935D01*
X154005Y155933D01*
X153941Y155935D01*
X153877Y155941D01*
X153814Y155950D01*
X153752Y155964D01*
X153690Y155981D01*
X153630Y156002D01*
X153571Y156026D01*
X153513Y156054D01*
X153458Y156086D01*
X153404Y156120D01*
X153353Y156158D01*
X153303Y156199D01*
X153257Y156243D01*
X153213Y156289D01*
X153172Y156339D01*
X153134Y156390D01*
X153100Y156444D01*
X153068Y156499D01*
X153040Y156557D01*
X153016Y156616D01*
X152995Y156676D01*
X152978Y156738D01*
X152964Y156800D01*
X152955Y156863D01*
X152949Y156927D01*
X152947Y156991D01*
X153158Y158896D02*
X153160Y158953D01*
X153166Y159009D01*
X153175Y159065D01*
X153188Y159120D01*
X153205Y159174D01*
X153225Y159227D01*
X153249Y159278D01*
X153276Y159328D01*
X153307Y159375D01*
X153340Y159421D01*
X153377Y159464D01*
X153416Y159505D01*
X153458Y159543D01*
X153503Y159578D01*
X153549Y159610D01*
X153598Y159639D01*
X153648Y159664D01*
X153701Y159686D01*
X153754Y159705D01*
X153809Y159720D01*
X153864Y159731D01*
X153920Y159739D01*
X153977Y159743D01*
X154033Y159743D01*
X154090Y159739D01*
X154146Y159731D01*
X154201Y159720D01*
X154256Y159705D01*
X154309Y159686D01*
X154362Y159664D01*
X154412Y159639D01*
X154461Y159610D01*
X154507Y159578D01*
X154552Y159543D01*
X154594Y159505D01*
X154633Y159464D01*
X154670Y159421D01*
X154703Y159375D01*
X154734Y159328D01*
X154761Y159278D01*
X154785Y159227D01*
X154805Y159174D01*
X154822Y159120D01*
X154835Y159065D01*
X154844Y159009D01*
X154850Y158953D01*
X154852Y158896D01*
X154850Y158839D01*
X154844Y158783D01*
X154835Y158727D01*
X154822Y158672D01*
X154805Y158618D01*
X154785Y158565D01*
X154761Y158514D01*
X154734Y158464D01*
X154703Y158417D01*
X154670Y158371D01*
X154633Y158328D01*
X154594Y158287D01*
X154552Y158249D01*
X154507Y158214D01*
X154461Y158182D01*
X154412Y158153D01*
X154362Y158128D01*
X154309Y158106D01*
X154256Y158087D01*
X154201Y158072D01*
X154146Y158061D01*
X154090Y158053D01*
X154033Y158049D01*
X153977Y158049D01*
X153920Y158053D01*
X153864Y158061D01*
X153809Y158072D01*
X153754Y158087D01*
X153701Y158106D01*
X153648Y158128D01*
X153598Y158153D01*
X153549Y158182D01*
X153503Y158214D01*
X153458Y158249D01*
X153416Y158287D01*
X153377Y158328D01*
X153340Y158371D01*
X153307Y158417D01*
X153276Y158464D01*
X153249Y158514D01*
X153225Y158565D01*
X153205Y158618D01*
X153188Y158672D01*
X153175Y158727D01*
X153166Y158783D01*
X153160Y158839D01*
X153158Y158896D01*
D20*
X87000Y243000D03*
D21*
X92700Y243000D03*
D22*
X96900Y243000D03*
D23*
X101400Y243000D03*
D24*
X107700Y243000D03*
X114900Y243000D03*
D25*
X122400Y243000D03*
D20*
X130800Y243000D03*
D26*
X139500Y243000D03*
D27*
X148200Y243000D03*
X87000Y243600D03*
D21*
X92700Y243600D03*
D22*
X96900Y243600D03*
D23*
X101400Y243600D03*
D27*
X107400Y243600D03*
X114600Y243600D03*
D25*
X122400Y243600D03*
D28*
X131100Y243600D03*
D27*
X139800Y243600D03*
X148200Y243600D03*
D22*
X85500Y244200D03*
D20*
X88800Y244200D03*
D21*
X92700Y244200D03*
D22*
X96900Y244200D03*
D23*
X101400Y244200D03*
D27*
X107400Y244200D03*
D26*
X114300Y244200D03*
D25*
X122400Y244200D03*
D27*
X130800Y244200D03*
X139800Y244200D03*
X148200Y244200D03*
D29*
X84600Y244800D03*
D23*
X89400Y244800D03*
D21*
X92700Y244800D03*
D22*
X96900Y244800D03*
D23*
X101400Y244800D03*
D22*
X105300Y244800D03*
D29*
X109800Y244800D03*
D23*
X112200Y244800D03*
D29*
X117000Y244800D03*
D20*
X121200Y244800D03*
D22*
X129300Y244800D03*
X132900Y244800D03*
X139500Y244800D03*
X147900Y244800D03*
X89100Y245400D03*
D21*
X92700Y245400D03*
D22*
X96900Y245400D03*
D23*
X101400Y245400D03*
X105000Y245400D03*
X112200Y245400D03*
D22*
X121500Y245400D03*
X128700Y245400D03*
X132900Y245400D03*
X139500Y245400D03*
D23*
X148200Y245400D03*
D30*
X88200Y246000D03*
D21*
X92700Y246000D03*
D22*
X96900Y246000D03*
D23*
X101400Y246000D03*
X105000Y246000D03*
D22*
X111900Y246000D03*
X122100Y246000D03*
X128700Y246000D03*
D23*
X133200Y246000D03*
D22*
X139500Y246000D03*
D23*
X148200Y246000D03*
D28*
X87300Y246600D03*
D21*
X92700Y246600D03*
D22*
X96900Y246600D03*
D23*
X101400Y246600D03*
X105000Y246600D03*
D25*
X114000Y246600D03*
D22*
X122700Y246600D03*
D23*
X128400Y246600D03*
X133200Y246600D03*
D22*
X139500Y246600D03*
D23*
X148200Y246600D03*
D30*
X86400Y247200D03*
D21*
X92700Y247200D03*
D22*
X96900Y247200D03*
D23*
X101400Y247200D03*
X105000Y247200D03*
D25*
X114000Y247200D03*
D22*
X123300Y247200D03*
D23*
X128400Y247200D03*
X133200Y247200D03*
D22*
X139500Y247200D03*
D23*
X148200Y247200D03*
D22*
X85500Y247800D03*
D21*
X92700Y247800D03*
D22*
X96900Y247800D03*
D23*
X101400Y247800D03*
X105000Y247800D03*
X112200Y247800D03*
X116400Y247800D03*
D22*
X123900Y247800D03*
D23*
X128400Y247800D03*
X133200Y247800D03*
D22*
X139500Y247800D03*
D23*
X148200Y247800D03*
D22*
X85500Y248400D03*
D21*
X92700Y248400D03*
D22*
X96900Y248400D03*
X101100Y248400D03*
X105300Y248400D03*
D29*
X109800Y248400D03*
D23*
X112200Y248400D03*
X116400Y248400D03*
X124200Y248400D03*
X128400Y248400D03*
X133200Y248400D03*
D22*
X139500Y248400D03*
D23*
X148200Y248400D03*
D22*
X85500Y249000D03*
D23*
X89400Y249000D03*
D21*
X92700Y249000D03*
D25*
X99000Y249000D03*
D22*
X105900Y249000D03*
D23*
X109200Y249000D03*
D22*
X112500Y249000D03*
X116100Y249000D03*
D23*
X124200Y249000D03*
X128400Y249000D03*
X133200Y249000D03*
D22*
X139500Y249000D03*
D23*
X148200Y249000D03*
D21*
X45300Y249600D03*
D27*
X87600Y249600D03*
D21*
X92700Y249600D03*
D26*
X98700Y249600D03*
D27*
X107400Y249600D03*
D28*
X114300Y249600D03*
D23*
X124200Y249600D03*
X128400Y249600D03*
X133200Y249600D03*
D22*
X139500Y249600D03*
X147900Y249600D03*
D23*
X45600Y250200D03*
D24*
X87900Y250200D03*
D21*
X92700Y250200D03*
D22*
X96900Y250200D03*
D20*
X100200Y250200D03*
D24*
X107700Y250200D03*
X114300Y250200D03*
D23*
X124200Y250200D03*
D22*
X128700Y250200D03*
D23*
X133200Y250200D03*
D24*
X138900Y250200D03*
X147300Y250200D03*
D23*
X45600Y250800D03*
D29*
X120000Y250800D03*
D23*
X124200Y250800D03*
X129000Y250800D03*
D22*
X132900Y250800D03*
D24*
X138900Y250800D03*
X147300Y250800D03*
D22*
X45900Y251400D03*
D27*
X122400Y251400D03*
D26*
X131100Y251400D03*
D24*
X138900Y251400D03*
X147300Y251400D03*
D20*
X46200Y252000D03*
D23*
X93000Y252000D03*
D27*
X122400Y252000D03*
X130800Y252000D03*
D22*
X139500Y252000D03*
X147900Y252000D03*
D20*
X46200Y252600D03*
D23*
X93000Y252600D03*
D28*
X122100Y252600D03*
D30*
X130800Y252600D03*
D23*
X139800Y252600D03*
X148200Y252600D03*
D24*
X46500Y253200D03*
D23*
X93000Y253200D03*
D28*
X46500Y253800D03*
X46500Y254400D03*
D27*
X46800Y255000D03*
D26*
X47100Y255600D03*
X47100Y256200D03*
D25*
X47400Y256800D03*
D31*
X47100Y257400D03*
D32*
X60900Y257400D03*
D33*
X58200Y258000D03*
D34*
X59400Y258600D03*
D35*
X49800Y259200D03*
D22*
X57900Y259200D03*
D36*
X71700Y259200D03*
X47700Y259800D03*
D37*
X66900Y259800D03*
D38*
X60900Y260400D03*
D39*
X60900Y261000D03*
D40*
X45600Y261600D03*
D23*
X57600Y261600D03*
D40*
X75600Y261600D03*
D41*
X45300Y262200D03*
D23*
X57600Y262200D03*
D21*
X69900Y262200D03*
D42*
X78900Y262200D03*
D43*
X44700Y262800D03*
D23*
X57600Y262800D03*
D21*
X69900Y262800D03*
D36*
X81300Y262800D03*
D44*
X50700Y263400D03*
D21*
X69900Y263400D03*
D45*
X83100Y263400D03*
D46*
X36900Y264000D03*
D47*
X57600Y264000D03*
D46*
X84300Y264000D03*
X36300Y264600D03*
D48*
X59400Y264600D03*
D49*
X85200Y264600D03*
D46*
X35700Y265200D03*
D50*
X49200Y265200D03*
D21*
X57300Y265200D03*
D51*
X73800Y265200D03*
D23*
X81600Y265200D03*
D20*
X85800Y265200D03*
D52*
X42000Y265800D03*
D25*
X79800Y265800D03*
D52*
X40800Y266400D03*
D26*
X80700Y266400D03*
D52*
X40200Y267000D03*
D20*
X82200Y267000D03*
D42*
X34500Y267600D03*
D49*
X46800Y267600D03*
D21*
X82500Y267600D03*
D46*
X89100Y267600D03*
D31*
X98100Y267600D03*
D53*
X124800Y267600D03*
D32*
X33900Y268200D03*
D45*
X46500Y268200D03*
D54*
X65400Y268200D03*
D23*
X84600Y268200D03*
D24*
X93900Y268200D03*
D42*
X107100Y268200D03*
D22*
X120900Y268200D03*
D52*
X139200Y268200D03*
D29*
X8400Y268800D03*
D55*
X33600Y268800D03*
D49*
X46200Y268800D03*
D23*
X52800Y268800D03*
X78000Y268800D03*
X84000Y268800D03*
D21*
X93900Y268800D03*
X113700Y268800D03*
D23*
X120000Y268800D03*
D21*
X150300Y268800D03*
D22*
X8700Y269400D03*
D37*
X38100Y269400D03*
D21*
X52500Y269400D03*
X78300Y269400D03*
X83700Y269400D03*
D24*
X89100Y269400D03*
D22*
X98100Y269400D03*
D21*
X113700Y269400D03*
X119700Y269400D03*
D20*
X124800Y269400D03*
D29*
X150600Y269400D03*
D30*
X9600Y270000D03*
D56*
X37500Y270000D03*
D21*
X52500Y270000D03*
D57*
X65700Y270000D03*
D21*
X78300Y270000D03*
D23*
X80400Y270000D03*
D29*
X83400Y270000D03*
D26*
X89100Y270000D03*
D28*
X98100Y270000D03*
D53*
X107400Y270000D03*
D21*
X113700Y270000D03*
D23*
X119400Y270000D03*
D27*
X124800Y270000D03*
D25*
X134400Y270000D03*
D31*
X144900Y270000D03*
D29*
X150600Y270000D03*
D27*
X10800Y270600D03*
D58*
X37500Y270600D03*
D23*
X52800Y270600D03*
D59*
X66000Y270600D03*
D21*
X78300Y270600D03*
D22*
X80700Y270600D03*
D29*
X83400Y270600D03*
D30*
X87600Y270600D03*
X97200Y270600D03*
D29*
X100800Y270600D03*
D25*
X107400Y270600D03*
D21*
X113700Y270600D03*
X119100Y270600D03*
D25*
X124800Y270600D03*
X134400Y270600D03*
D26*
X144900Y270600D03*
D21*
X150300Y270600D03*
D25*
X12000Y271200D03*
D60*
X37200Y271200D03*
D23*
X53400Y271200D03*
D61*
X66300Y271200D03*
D21*
X78300Y271200D03*
D22*
X80700Y271200D03*
D29*
X83400Y271200D03*
D30*
X87000Y271200D03*
D24*
X96900Y271200D03*
D27*
X107400Y271200D03*
D21*
X113100Y271200D03*
D23*
X118800Y271200D03*
D30*
X123000Y271200D03*
D29*
X127800Y271200D03*
D28*
X134700Y271200D03*
D23*
X139800Y271200D03*
D28*
X144900Y271200D03*
D23*
X150000Y271200D03*
D46*
X12900Y271800D03*
D62*
X36900Y271800D03*
D23*
X54000Y271800D03*
D63*
X66600Y271800D03*
D21*
X78300Y271800D03*
D29*
X83400Y271800D03*
D30*
X87000Y271800D03*
D21*
X91500Y271800D03*
D28*
X96300Y271800D03*
D24*
X107100Y271800D03*
D22*
X112500Y271800D03*
D21*
X118500Y271800D03*
D24*
X122700Y271800D03*
X134700Y271800D03*
D20*
X139800Y271800D03*
D30*
X144600Y271800D03*
D23*
X149400Y271800D03*
D49*
X13800Y272400D03*
D64*
X36900Y272400D03*
D23*
X54600Y272400D03*
D26*
X60300Y272400D03*
D24*
X74700Y272400D03*
D21*
X78300Y272400D03*
D29*
X83400Y272400D03*
D30*
X87000Y272400D03*
D21*
X91500Y272400D03*
D30*
X96600Y272400D03*
D21*
X102900Y272400D03*
D24*
X107100Y272400D03*
D22*
X111900Y272400D03*
D21*
X118500Y272400D03*
D30*
X122400Y272400D03*
D22*
X130500Y272400D03*
D24*
X134700Y272400D03*
D21*
X138900Y272400D03*
X140700Y272400D03*
D30*
X144600Y272400D03*
D23*
X148800Y272400D03*
D65*
X15000Y273000D03*
D66*
X36900Y273000D03*
D23*
X55200Y273000D03*
D28*
X60300Y273000D03*
D20*
X75000Y273000D03*
D21*
X78300Y273000D03*
D29*
X83400Y273000D03*
D24*
X87300Y273000D03*
D21*
X91500Y273000D03*
D30*
X96600Y273000D03*
D22*
X102900Y273000D03*
D24*
X107100Y273000D03*
D23*
X111000Y273000D03*
D21*
X118500Y273000D03*
D30*
X122400Y273000D03*
D22*
X130500Y273000D03*
D24*
X134700Y273000D03*
D21*
X138900Y273000D03*
X140700Y273000D03*
D30*
X144600Y273000D03*
D21*
X148500Y273000D03*
D67*
X17700Y273600D03*
D68*
X39600Y273600D03*
D23*
X55800Y273600D03*
D28*
X60300Y273600D03*
D27*
X66600Y273600D03*
D22*
X75300Y273600D03*
D21*
X78300Y273600D03*
X83700Y273600D03*
D24*
X87300Y273600D03*
D30*
X96600Y273600D03*
X102000Y273600D03*
D24*
X107100Y273600D03*
D21*
X110700Y273600D03*
D28*
X114900Y273600D03*
D21*
X118500Y273600D03*
D30*
X122400Y273600D03*
D22*
X130500Y273600D03*
D24*
X134700Y273600D03*
D29*
X138600Y273600D03*
D21*
X140700Y273600D03*
D30*
X144600Y273600D03*
D29*
X148200Y273600D03*
D50*
X17400Y274200D03*
D58*
X39900Y274200D03*
D21*
X56100Y274200D03*
D28*
X60300Y274200D03*
D27*
X66600Y274200D03*
D23*
X75600Y274200D03*
D21*
X78300Y274200D03*
X83700Y274200D03*
D20*
X88200Y274200D03*
D30*
X96600Y274200D03*
X102000Y274200D03*
D24*
X107100Y274200D03*
D21*
X110700Y274200D03*
D31*
X115500Y274200D03*
D30*
X122400Y274200D03*
D22*
X130500Y274200D03*
D24*
X134700Y274200D03*
D29*
X138600Y274200D03*
D21*
X140700Y274200D03*
D30*
X144600Y274200D03*
D29*
X148200Y274200D03*
D69*
X32400Y274800D03*
D21*
X56100Y274800D03*
D28*
X60300Y274800D03*
D27*
X66600Y274800D03*
D21*
X75900Y274800D03*
X78300Y274800D03*
D23*
X84000Y274800D03*
D20*
X89400Y274800D03*
D30*
X96600Y274800D03*
D21*
X100500Y274800D03*
D29*
X103800Y274800D03*
D24*
X107100Y274800D03*
D20*
X111600Y274800D03*
D22*
X117900Y274800D03*
D30*
X122400Y274800D03*
D21*
X126300Y274800D03*
D22*
X130500Y274800D03*
D24*
X134700Y274800D03*
D29*
X138600Y274800D03*
D21*
X140700Y274800D03*
D30*
X144600Y274800D03*
D29*
X148200Y274800D03*
D69*
X33000Y275400D03*
D21*
X56100Y275400D03*
D28*
X60300Y275400D03*
D24*
X66300Y275400D03*
D23*
X73200Y275400D03*
D29*
X76200Y275400D03*
D21*
X78300Y275400D03*
D29*
X79800Y275400D03*
D21*
X84300Y275400D03*
D46*
X94500Y275400D03*
D21*
X100500Y275400D03*
D29*
X103800Y275400D03*
D24*
X107100Y275400D03*
D23*
X111600Y275400D03*
D21*
X118500Y275400D03*
D30*
X122400Y275400D03*
D26*
X128700Y275400D03*
D24*
X134700Y275400D03*
D21*
X138900Y275400D03*
X140700Y275400D03*
D30*
X144600Y275400D03*
D29*
X148200Y275400D03*
D39*
X33300Y276000D03*
D21*
X56100Y276000D03*
D28*
X60300Y276000D03*
D21*
X70500Y276000D03*
D22*
X73500Y276000D03*
D21*
X78300Y276000D03*
D20*
X81000Y276000D03*
D23*
X84000Y276000D03*
D28*
X96300Y276000D03*
D21*
X100500Y276000D03*
D29*
X103800Y276000D03*
D30*
X107400Y276000D03*
D23*
X111600Y276000D03*
X115200Y276000D03*
D30*
X122400Y276000D03*
X127800Y276000D03*
D21*
X131100Y276000D03*
D24*
X134700Y276000D03*
D21*
X138900Y276000D03*
X140700Y276000D03*
D30*
X144600Y276000D03*
D29*
X148200Y276000D03*
D39*
X33300Y276600D03*
D21*
X56100Y276600D03*
D27*
X60600Y276600D03*
D21*
X69900Y276600D03*
D20*
X73800Y276600D03*
D21*
X78300Y276600D03*
D20*
X81000Y276600D03*
D29*
X84000Y276600D03*
D30*
X96600Y276600D03*
D21*
X100500Y276600D03*
X103500Y276600D03*
D30*
X107400Y276600D03*
D23*
X111600Y276600D03*
D22*
X115500Y276600D03*
D30*
X122400Y276600D03*
D21*
X126300Y276600D03*
X131100Y276600D03*
D30*
X135000Y276600D03*
D20*
X139800Y276600D03*
D30*
X144600Y276600D03*
D29*
X148200Y276600D03*
D70*
X33600Y277200D03*
D21*
X56100Y277200D03*
D35*
X64200Y277200D03*
D29*
X72600Y277200D03*
D23*
X75000Y277200D03*
D21*
X77700Y277200D03*
X81900Y277200D03*
X83700Y277200D03*
D22*
X87300Y277200D03*
D21*
X91500Y277200D03*
D30*
X96600Y277200D03*
D21*
X100500Y277200D03*
X103500Y277200D03*
D30*
X107400Y277200D03*
D21*
X111900Y277200D03*
D20*
X115800Y277200D03*
D30*
X122400Y277200D03*
D21*
X126300Y277200D03*
X131100Y277200D03*
D30*
X135000Y277200D03*
D22*
X140100Y277200D03*
D30*
X144600Y277200D03*
D29*
X148200Y277200D03*
D71*
X33900Y277800D03*
D21*
X56100Y277800D03*
D35*
X64200Y277800D03*
D29*
X72600Y277800D03*
D24*
X76500Y277800D03*
D21*
X83700Y277800D03*
D24*
X87300Y277800D03*
D21*
X91500Y277800D03*
D30*
X96600Y277800D03*
D21*
X100500Y277800D03*
X102900Y277800D03*
D24*
X107100Y277800D03*
D20*
X115800Y277800D03*
D30*
X122400Y277800D03*
D20*
X127200Y277800D03*
D21*
X131100Y277800D03*
D30*
X135000Y277800D03*
D24*
X144300Y277800D03*
D29*
X148200Y277800D03*
D71*
X33900Y278400D03*
D21*
X56100Y278400D03*
D35*
X64200Y278400D03*
D29*
X72600Y278400D03*
D20*
X76200Y278400D03*
D21*
X83700Y278400D03*
D24*
X87300Y278400D03*
D29*
X91200Y278400D03*
D24*
X96300Y278400D03*
D21*
X100500Y278400D03*
X102300Y278400D03*
D24*
X107100Y278400D03*
D20*
X115800Y278400D03*
D30*
X122400Y278400D03*
D23*
X128400Y278400D03*
D21*
X131100Y278400D03*
D27*
X135600Y278400D03*
D30*
X144000Y278400D03*
D29*
X148200Y278400D03*
D72*
X34200Y279000D03*
D21*
X56100Y279000D03*
D27*
X60600Y279000D03*
D22*
X69300Y279000D03*
D20*
X73800Y279000D03*
D23*
X77400Y279000D03*
D21*
X83700Y279000D03*
D24*
X87300Y279000D03*
X96300Y279000D03*
D20*
X100800Y279000D03*
D30*
X106800Y279000D03*
D24*
X115500Y279000D03*
D30*
X122400Y279000D03*
D21*
X128700Y279000D03*
X131100Y279000D03*
D30*
X135000Y279000D03*
D28*
X143700Y279000D03*
D29*
X148200Y279000D03*
D38*
X34500Y279600D03*
D21*
X56100Y279600D03*
D28*
X60300Y279600D03*
D21*
X69900Y279600D03*
D22*
X73500Y279600D03*
D21*
X77700Y279600D03*
X83700Y279600D03*
D24*
X87900Y279600D03*
X95700Y279600D03*
D22*
X100500Y279600D03*
D28*
X106500Y279600D03*
D27*
X114000Y279600D03*
D30*
X122400Y279600D03*
D23*
X129000Y279600D03*
D21*
X131100Y279600D03*
D30*
X135000Y279600D03*
D25*
X142200Y279600D03*
D21*
X147900Y279600D03*
D38*
X34500Y280200D03*
D21*
X56100Y280200D03*
D28*
X60300Y280200D03*
D23*
X73200Y280200D03*
D21*
X77700Y280200D03*
D23*
X84000Y280200D03*
D45*
X92100Y280200D03*
D22*
X100500Y280200D03*
D27*
X106200Y280200D03*
D24*
X114300Y280200D03*
D53*
X123000Y280200D03*
D21*
X129300Y280200D03*
X131100Y280200D03*
D24*
X134700Y280200D03*
D27*
X142200Y280200D03*
D21*
X147900Y280200D03*
D73*
X34500Y280800D03*
D21*
X56100Y280800D03*
D28*
X60300Y280800D03*
D30*
X66000Y280800D03*
D21*
X72900Y280800D03*
X77700Y280800D03*
D23*
X84600Y280800D03*
D27*
X92400Y280800D03*
D20*
X100200Y280800D03*
D28*
X122700Y280800D03*
D21*
X129300Y280800D03*
X131100Y280800D03*
D24*
X134700Y280800D03*
D20*
X142200Y280800D03*
D21*
X147300Y280800D03*
D73*
X33900Y281400D03*
D21*
X56100Y281400D03*
D28*
X60300Y281400D03*
D21*
X64500Y281400D03*
D23*
X68400Y281400D03*
D29*
X75600Y281400D03*
D21*
X77700Y281400D03*
D22*
X85500Y281400D03*
D23*
X99000Y281400D03*
D21*
X101100Y281400D03*
D29*
X110400Y281400D03*
D23*
X117600Y281400D03*
D24*
X122700Y281400D03*
D21*
X129300Y281400D03*
X131100Y281400D03*
D24*
X134700Y281400D03*
D21*
X146700Y281400D03*
D74*
X33600Y282000D03*
D22*
X55500Y282000D03*
D28*
X60300Y282000D03*
D26*
X66900Y282000D03*
D21*
X75300Y282000D03*
X77700Y282000D03*
D23*
X79800Y282000D03*
D30*
X87000Y282000D03*
D20*
X97800Y282000D03*
D43*
X110100Y282000D03*
D20*
X123000Y282000D03*
D24*
X128100Y282000D03*
D21*
X131100Y282000D03*
D24*
X134700Y282000D03*
D23*
X139200Y282000D03*
D22*
X145500Y282000D03*
D74*
X33000Y282600D03*
D22*
X54900Y282600D03*
D28*
X60300Y282600D03*
D26*
X66900Y282600D03*
D23*
X75000Y282600D03*
D21*
X77700Y282600D03*
D30*
X81000Y282600D03*
D75*
X92100Y282600D03*
D45*
X105900Y282600D03*
D26*
X114300Y282600D03*
D22*
X119100Y282600D03*
X123300Y282600D03*
D24*
X127500Y282600D03*
D21*
X131100Y282600D03*
D24*
X134700Y282600D03*
D53*
X142200Y282600D03*
D74*
X32400Y283200D03*
D23*
X54000Y283200D03*
D27*
X60000Y283200D03*
D22*
X74700Y283200D03*
D21*
X77700Y283200D03*
D26*
X81900Y283200D03*
D46*
X92700Y283200D03*
D23*
X120000Y283200D03*
X123600Y283200D03*
D21*
X126300Y283200D03*
D23*
X130800Y283200D03*
D24*
X134700Y283200D03*
D25*
X141600Y283200D03*
D74*
X32400Y283800D03*
D23*
X53400Y283800D03*
D25*
X60000Y283800D03*
D20*
X74400Y283800D03*
D21*
X77700Y283800D03*
D27*
X83400Y283800D03*
D23*
X120600Y283800D03*
D21*
X123900Y283800D03*
D29*
X126000Y283800D03*
D23*
X130200Y283800D03*
D24*
X134700Y283800D03*
D29*
X138600Y283800D03*
D24*
X14100Y284400D03*
D48*
X34200Y284400D03*
D23*
X52800Y284400D03*
D61*
X65700Y284400D03*
D21*
X77700Y284400D03*
D24*
X84900Y284400D03*
D23*
X121200Y284400D03*
D29*
X126000Y284400D03*
D23*
X129600Y284400D03*
D30*
X134400Y284400D03*
D29*
X138600Y284400D03*
D20*
X13800Y285000D03*
D76*
X35400Y285000D03*
D59*
X65400Y285000D03*
D21*
X77700Y285000D03*
D22*
X85500Y285000D03*
D23*
X97200Y285000D03*
D22*
X102900Y285000D03*
D21*
X105900Y285000D03*
D23*
X108600Y285000D03*
X121800Y285000D03*
D29*
X126000Y285000D03*
D23*
X129000Y285000D03*
D28*
X134100Y285000D03*
D29*
X138600Y285000D03*
D20*
X13200Y285600D03*
D77*
X35100Y285600D03*
D59*
X65400Y285600D03*
D21*
X77700Y285600D03*
D23*
X85200Y285600D03*
D24*
X90900Y285600D03*
D23*
X97200Y285600D03*
D28*
X104100Y285600D03*
D20*
X108600Y285600D03*
D23*
X122400Y285600D03*
D29*
X126000Y285600D03*
D21*
X128700Y285600D03*
D27*
X133800Y285600D03*
D29*
X138600Y285600D03*
D20*
X12600Y286200D03*
D78*
X34800Y286200D03*
D21*
X77700Y286200D03*
D23*
X85200Y286200D03*
D28*
X91500Y286200D03*
D23*
X97200Y286200D03*
D24*
X104700Y286200D03*
D20*
X109200Y286200D03*
D23*
X123000Y286200D03*
D21*
X125700Y286200D03*
X128700Y286200D03*
D27*
X133800Y286200D03*
D29*
X138600Y286200D03*
D20*
X12600Y286800D03*
D76*
X33600Y286800D03*
D21*
X52500Y286800D03*
X77700Y286800D03*
D23*
X85200Y286800D03*
D30*
X93000Y286800D03*
D23*
X97200Y286800D03*
D20*
X105000Y286800D03*
D22*
X109500Y286800D03*
D24*
X124500Y286800D03*
D21*
X128700Y286800D03*
D29*
X138600Y286800D03*
D24*
X12300Y287400D03*
D22*
X16500Y287400D03*
D79*
X34800Y287400D03*
D56*
X65100Y287400D03*
D21*
X84900Y287400D03*
D27*
X95400Y287400D03*
D20*
X105600Y287400D03*
D22*
X110100Y287400D03*
D21*
X128700Y287400D03*
D29*
X138600Y287400D03*
D24*
X12300Y288000D03*
D23*
X15600Y288000D03*
D80*
X35100Y288000D03*
D81*
X65100Y288000D03*
D21*
X84900Y288000D03*
D24*
X96300Y288000D03*
D22*
X106500Y288000D03*
X110100Y288000D03*
D25*
X132000Y288000D03*
D21*
X138300Y288000D03*
D26*
X12900Y288600D03*
D79*
X35400Y288600D03*
D21*
X84900Y288600D03*
D20*
X97200Y288600D03*
X106800Y288600D03*
D22*
X110700Y288600D03*
D29*
X129600Y288600D03*
D28*
X136500Y288600D03*
D27*
X12600Y289200D03*
D44*
X35700Y289200D03*
D21*
X77700Y289200D03*
X84900Y289200D03*
D24*
X98100Y289200D03*
X107100Y289200D03*
D23*
X111000Y289200D03*
D27*
X12000Y289800D03*
D77*
X36300Y289800D03*
D28*
X78900Y289800D03*
D23*
X84600Y289800D03*
D28*
X98700Y289800D03*
D24*
X107700Y289800D03*
D22*
X111300Y289800D03*
D28*
X11700Y290400D03*
D82*
X37200Y290400D03*
D21*
X57300Y290400D03*
X71100Y290400D03*
D53*
X81600Y290400D03*
D23*
X97200Y290400D03*
D20*
X100800Y290400D03*
D25*
X109200Y290400D03*
D30*
X11400Y291000D03*
D24*
X20100Y291000D03*
D80*
X39900Y291000D03*
D21*
X57300Y291000D03*
X71100Y291000D03*
D27*
X83400Y291000D03*
D23*
X97200Y291000D03*
D20*
X101400Y291000D03*
D21*
X106500Y291000D03*
D30*
X110400Y291000D03*
X10800Y291600D03*
D20*
X19200Y291600D03*
D64*
X40500Y291600D03*
D21*
X57300Y291600D03*
X71100Y291600D03*
D27*
X85800Y291600D03*
D23*
X97200Y291600D03*
D20*
X102600Y291600D03*
D21*
X106500Y291600D03*
D30*
X111000Y291600D03*
X10800Y292200D03*
D20*
X18600Y292200D03*
D62*
X41700Y292200D03*
D21*
X57300Y292200D03*
X71100Y292200D03*
D25*
X87000Y292200D03*
D23*
X97200Y292200D03*
D22*
X103500Y292200D03*
D23*
X106200Y292200D03*
D24*
X111300Y292200D03*
D30*
X10800Y292800D03*
X18000Y292800D03*
D33*
X43200Y292800D03*
D21*
X71100Y292800D03*
D23*
X84600Y292800D03*
D28*
X89700Y292800D03*
D21*
X96900Y292800D03*
D30*
X105000Y292800D03*
X111600Y292800D03*
X10200Y293400D03*
D28*
X17700Y293400D03*
D33*
X43200Y293400D03*
D21*
X71100Y293400D03*
D23*
X84600Y293400D03*
D27*
X91200Y293400D03*
D23*
X96600Y293400D03*
D24*
X105300Y293400D03*
X111900Y293400D03*
D30*
X10200Y294000D03*
D22*
X15900Y294000D03*
D21*
X19500Y294000D03*
D66*
X42300Y294000D03*
D21*
X71100Y294000D03*
D23*
X84600Y294000D03*
D30*
X92400Y294000D03*
D23*
X96600Y294000D03*
D20*
X106200Y294000D03*
X112200Y294000D03*
D28*
X9900Y294600D03*
D22*
X15300Y294600D03*
D21*
X19500Y294600D03*
D26*
X28500Y294600D03*
D83*
X45600Y294600D03*
D21*
X71100Y294600D03*
D23*
X84600Y294600D03*
D27*
X94800Y294600D03*
D22*
X106500Y294600D03*
D20*
X112800Y294600D03*
D28*
X9900Y295200D03*
D20*
X14400Y295200D03*
D21*
X19500Y295200D03*
D30*
X26400Y295200D03*
D23*
X30600Y295200D03*
D81*
X46500Y295200D03*
D21*
X71100Y295200D03*
X84300Y295200D03*
D30*
X95400Y295200D03*
D22*
X107100Y295200D03*
D20*
X112800Y295200D03*
D22*
X8700Y295800D03*
D28*
X12900Y295800D03*
D21*
X19500Y295800D03*
D30*
X25200Y295800D03*
D23*
X30600Y295800D03*
D76*
X54000Y295800D03*
D21*
X84300Y295800D03*
D30*
X96600Y295800D03*
D20*
X107400Y295800D03*
D22*
X113100Y295800D03*
D23*
X8400Y296400D03*
D24*
X12300Y296400D03*
D21*
X19500Y296400D03*
D30*
X24000Y296400D03*
D21*
X30900Y296400D03*
D78*
X56400Y296400D03*
D21*
X84300Y296400D03*
D24*
X97500Y296400D03*
X107700Y296400D03*
D22*
X113100Y296400D03*
X8100Y297000D03*
D20*
X12000Y297000D03*
D21*
X19500Y297000D03*
D20*
X22800Y297000D03*
D21*
X30900Y297000D03*
D61*
X49500Y297000D03*
D75*
X71700Y297000D03*
D21*
X84300Y297000D03*
D28*
X98100Y297000D03*
D21*
X106500Y297000D03*
D22*
X108900Y297000D03*
D20*
X113400Y297000D03*
D23*
X7800Y297600D03*
D22*
X11700Y297600D03*
D30*
X21000Y297600D03*
D21*
X30900Y297600D03*
D43*
X49500Y297600D03*
D65*
X75000Y297600D03*
D23*
X84000Y297600D03*
X96600Y297600D03*
D24*
X99900Y297600D03*
D21*
X106500Y297600D03*
D20*
X113400Y297600D03*
D23*
X7800Y298200D03*
D22*
X11700Y298200D03*
D24*
X20700Y298200D03*
D23*
X31200Y298200D03*
D41*
X47700Y298200D03*
D21*
X71100Y298200D03*
D24*
X77700Y298200D03*
D21*
X100500Y298200D03*
X114300Y298200D03*
D23*
X7800Y298800D03*
D22*
X11100Y298800D03*
D20*
X19800Y298800D03*
D23*
X31200Y298800D03*
D43*
X45900Y298800D03*
D23*
X7200Y299400D03*
D20*
X10800Y299400D03*
X19200Y299400D03*
D23*
X31200Y299400D03*
D28*
X37500Y299400D03*
D75*
X48900Y299400D03*
D23*
X7200Y300000D03*
D24*
X10500Y300000D03*
D30*
X18600Y300000D03*
D22*
X31500Y300000D03*
D30*
X35400Y300000D03*
D36*
X48900Y300000D03*
D29*
X79200Y300000D03*
D65*
X109200Y300000D03*
D23*
X7200Y300600D03*
D24*
X10500Y300600D03*
D22*
X17100Y300600D03*
D23*
X19800Y300600D03*
D27*
X33000Y300600D03*
D36*
X48900Y300600D03*
D40*
X63600Y300600D03*
D52*
X90000Y300600D03*
D20*
X104400Y300600D03*
D22*
X114300Y300600D03*
D26*
X9300Y301200D03*
D22*
X16500Y301200D03*
D23*
X20400Y301200D03*
D30*
X31800Y301200D03*
D36*
X48900Y301200D03*
D21*
X55500Y301200D03*
X71100Y301200D03*
X78900Y301200D03*
D24*
X102300Y301200D03*
D23*
X115200Y301200D03*
D30*
X7800Y301800D03*
D23*
X11400Y301800D03*
D22*
X15900Y301800D03*
D23*
X20400Y301800D03*
D28*
X30300Y301800D03*
D36*
X48900Y301800D03*
D21*
X55500Y301800D03*
D29*
X71400Y301800D03*
X78600Y301800D03*
D22*
X102300Y301800D03*
D30*
X109200Y301800D03*
D21*
X116100Y301800D03*
D20*
X7800Y302400D03*
D23*
X11400Y302400D03*
D22*
X15300Y302400D03*
D23*
X20400Y302400D03*
D26*
X29700Y302400D03*
D36*
X48900Y302400D03*
D21*
X55500Y302400D03*
D36*
X63300Y302400D03*
D29*
X71400Y302400D03*
X78600Y302400D03*
D31*
X84900Y302400D03*
X95700Y302400D03*
D21*
X101700Y302400D03*
D53*
X109200Y302400D03*
D21*
X116700Y302400D03*
D24*
X7500Y303000D03*
D23*
X11400Y303000D03*
X14400Y303000D03*
X20400Y303000D03*
D24*
X27300Y303000D03*
D23*
X31800Y303000D03*
X44400Y303000D03*
D46*
X50100Y303000D03*
D23*
X55800Y303000D03*
D65*
X63600Y303000D03*
D21*
X71100Y303000D03*
X78900Y303000D03*
D26*
X84900Y303000D03*
D25*
X95400Y303000D03*
D27*
X106800Y303000D03*
D22*
X113100Y303000D03*
D21*
X116700Y303000D03*
D20*
X7200Y303600D03*
D24*
X12900Y303600D03*
D23*
X20400Y303600D03*
D24*
X26100Y303600D03*
D23*
X31800Y303600D03*
X44400Y303600D03*
D53*
X50400Y303600D03*
D21*
X56100Y303600D03*
D49*
X63600Y303600D03*
D23*
X70800Y303600D03*
X79200Y303600D03*
D27*
X85200Y303600D03*
D21*
X90300Y303600D03*
D27*
X95400Y303600D03*
D28*
X105300Y303600D03*
D29*
X114600Y303600D03*
X117000Y303600D03*
D20*
X7200Y304200D03*
D24*
X12900Y304200D03*
D23*
X21000Y304200D03*
D30*
X25200Y304200D03*
D23*
X32400Y304200D03*
X45000Y304200D03*
D53*
X51000Y304200D03*
D22*
X56700Y304200D03*
D31*
X63300Y304200D03*
D23*
X70200Y304200D03*
D22*
X80100Y304200D03*
D30*
X85200Y304200D03*
D22*
X90300Y304200D03*
D30*
X95400Y304200D03*
D21*
X99900Y304200D03*
D30*
X105000Y304200D03*
D21*
X110700Y304200D03*
D29*
X117000Y304200D03*
D22*
X6900Y304800D03*
D20*
X12600Y304800D03*
D23*
X21000Y304800D03*
D24*
X24300Y304800D03*
D23*
X32400Y304800D03*
X45000Y304800D03*
D46*
X51300Y304800D03*
D22*
X57300Y304800D03*
D26*
X63300Y304800D03*
D23*
X69600Y304800D03*
D20*
X73200Y304800D03*
D22*
X80700Y304800D03*
D24*
X85500Y304800D03*
X90300Y304800D03*
X95100Y304800D03*
D23*
X99600Y304800D03*
D30*
X104400Y304800D03*
D27*
X111000Y304800D03*
D29*
X117000Y304800D03*
D22*
X6900Y305400D03*
X12300Y305400D03*
D28*
X22500Y305400D03*
D23*
X32400Y305400D03*
D51*
X49800Y305400D03*
D22*
X57900Y305400D03*
D27*
X63600Y305400D03*
D22*
X68700Y305400D03*
D25*
X75000Y305400D03*
D21*
X81300Y305400D03*
D24*
X85500Y305400D03*
D21*
X89100Y305400D03*
X91500Y305400D03*
D24*
X95100Y305400D03*
D22*
X99300Y305400D03*
D24*
X104100Y305400D03*
D26*
X110700Y305400D03*
D21*
X116700Y305400D03*
D23*
X6600Y306000D03*
D22*
X11700Y306000D03*
D24*
X21900Y306000D03*
D23*
X32400Y306000D03*
D55*
X48600Y306000D03*
D23*
X58800Y306000D03*
D27*
X63600Y306000D03*
D23*
X68400Y306000D03*
D53*
X75600Y306000D03*
D29*
X81600Y306000D03*
D24*
X85500Y306000D03*
D21*
X89100Y306000D03*
X91500Y306000D03*
D24*
X95100Y306000D03*
D22*
X99300Y306000D03*
D30*
X103800Y306000D03*
D26*
X110700Y306000D03*
D21*
X116700Y306000D03*
D23*
X6600Y306600D03*
D20*
X11400Y306600D03*
X21000Y306600D03*
D23*
X33000Y306600D03*
D46*
X42900Y306600D03*
X52500Y306600D03*
D21*
X59100Y306600D03*
D27*
X63600Y306600D03*
D21*
X68100Y306600D03*
D29*
X70200Y306600D03*
D27*
X77400Y306600D03*
D29*
X81600Y306600D03*
D24*
X85500Y306600D03*
D21*
X89100Y306600D03*
X91500Y306600D03*
D24*
X95100Y306600D03*
D22*
X99300Y306600D03*
D24*
X103500Y306600D03*
D21*
X116700Y306600D03*
D23*
X6600Y307200D03*
D24*
X11700Y307200D03*
X20700Y307200D03*
D23*
X33000Y307200D03*
D49*
X41400Y307200D03*
D46*
X53100Y307200D03*
D29*
X59400Y307200D03*
D27*
X63600Y307200D03*
D29*
X67800Y307200D03*
D21*
X69900Y307200D03*
D22*
X78900Y307200D03*
D29*
X81600Y307200D03*
D24*
X85500Y307200D03*
D21*
X89100Y307200D03*
X91500Y307200D03*
D24*
X95100Y307200D03*
D22*
X99300Y307200D03*
D30*
X103800Y307200D03*
D29*
X117000Y307200D03*
D23*
X6600Y307800D03*
D30*
X11400Y307800D03*
D28*
X20100Y307800D03*
D23*
X33000Y307800D03*
D27*
X37800Y307800D03*
D29*
X41400Y307800D03*
D23*
X45000Y307800D03*
D49*
X53400Y307800D03*
D29*
X59400Y307800D03*
D27*
X63600Y307800D03*
D29*
X67800Y307800D03*
D21*
X69900Y307800D03*
D29*
X81600Y307800D03*
D24*
X85500Y307800D03*
D21*
X89100Y307800D03*
X91500Y307800D03*
D24*
X95100Y307800D03*
D22*
X99300Y307800D03*
D42*
X108300Y307800D03*
D29*
X117000Y307800D03*
D23*
X6600Y308400D03*
D22*
X9900Y308400D03*
D23*
X12600Y308400D03*
D20*
X18600Y308400D03*
D23*
X21600Y308400D03*
D26*
X35100Y308400D03*
D23*
X45600Y308400D03*
D22*
X50700Y308400D03*
D20*
X56400Y308400D03*
D29*
X59400Y308400D03*
D27*
X63600Y308400D03*
D29*
X67800Y308400D03*
D21*
X69900Y308400D03*
D29*
X81600Y308400D03*
D24*
X85500Y308400D03*
D23*
X89400Y308400D03*
D21*
X91500Y308400D03*
D24*
X95100Y308400D03*
D22*
X99300Y308400D03*
D42*
X108300Y308400D03*
D29*
X117000Y308400D03*
D23*
X6600Y309000D03*
D22*
X9300Y309000D03*
D23*
X12600Y309000D03*
D22*
X17700Y309000D03*
D23*
X22200Y309000D03*
D30*
X34200Y309000D03*
D23*
X45600Y309000D03*
D21*
X50700Y309000D03*
D22*
X56700Y309000D03*
D29*
X59400Y309000D03*
D27*
X63600Y309000D03*
D21*
X68100Y309000D03*
X69900Y309000D03*
D29*
X81600Y309000D03*
D24*
X85500Y309000D03*
D22*
X90300Y309000D03*
D24*
X95100Y309000D03*
D22*
X99300Y309000D03*
D30*
X103800Y309000D03*
D20*
X113400Y309000D03*
D21*
X116700Y309000D03*
D30*
X7800Y309600D03*
D23*
X12600Y309600D03*
D22*
X17100Y309600D03*
D23*
X22200Y309600D03*
D28*
X32700Y309600D03*
D23*
X45600Y309600D03*
X57000Y309600D03*
D29*
X59400Y309600D03*
D27*
X63600Y309600D03*
D21*
X68100Y309600D03*
X69900Y309600D03*
D29*
X81600Y309600D03*
D30*
X85800Y309600D03*
D22*
X90300Y309600D03*
D24*
X95100Y309600D03*
D22*
X99300Y309600D03*
D24*
X104100Y309600D03*
D23*
X113400Y309600D03*
D21*
X116700Y309600D03*
D30*
X7800Y310200D03*
D21*
X12900Y310200D03*
D22*
X16500Y310200D03*
D23*
X22200Y310200D03*
D27*
X31800Y310200D03*
D23*
X45600Y310200D03*
D21*
X57300Y310200D03*
D29*
X59400Y310200D03*
D27*
X63600Y310200D03*
D21*
X68100Y310200D03*
X69900Y310200D03*
D24*
X73500Y310200D03*
D29*
X81600Y310200D03*
D30*
X85800Y310200D03*
D29*
X90000Y310200D03*
D24*
X95100Y310200D03*
D22*
X99300Y310200D03*
D24*
X104100Y310200D03*
D23*
X113400Y310200D03*
D21*
X116700Y310200D03*
D24*
X7500Y310800D03*
D23*
X13200Y310800D03*
D22*
X15900Y310800D03*
D23*
X22800Y310800D03*
D24*
X29700Y310800D03*
D23*
X33600Y310800D03*
X45600Y310800D03*
D24*
X53700Y310800D03*
D29*
X59400Y310800D03*
D27*
X63600Y310800D03*
D21*
X68100Y310800D03*
D29*
X69600Y310800D03*
D23*
X72000Y310800D03*
X75000Y310800D03*
D29*
X81600Y310800D03*
D28*
X86100Y310800D03*
D30*
X94800Y310800D03*
D20*
X99600Y310800D03*
X104400Y310800D03*
D23*
X112800Y310800D03*
D21*
X116100Y310800D03*
D24*
X7500Y311400D03*
D30*
X14400Y311400D03*
D23*
X22800Y311400D03*
D24*
X28500Y311400D03*
D23*
X34200Y311400D03*
D21*
X45900Y311400D03*
X51900Y311400D03*
D23*
X55200Y311400D03*
D29*
X59400Y311400D03*
D27*
X63600Y311400D03*
D29*
X67800Y311400D03*
D23*
X71400Y311400D03*
D21*
X75300Y311400D03*
D29*
X81600Y311400D03*
D30*
X85800Y311400D03*
X94200Y311400D03*
D21*
X98700Y311400D03*
X100500Y311400D03*
D20*
X105000Y311400D03*
D23*
X112800Y311400D03*
D21*
X116100Y311400D03*
D20*
X7200Y312000D03*
X14400Y312000D03*
D23*
X22800Y312000D03*
D24*
X27300Y312000D03*
D23*
X34200Y312000D03*
D21*
X45900Y312000D03*
X51900Y312000D03*
D23*
X55800Y312000D03*
D29*
X59400Y312000D03*
D27*
X63600Y312000D03*
D29*
X67800Y312000D03*
D21*
X71100Y312000D03*
X75300Y312000D03*
D29*
X81600Y312000D03*
D24*
X85500Y312000D03*
D31*
X92700Y312000D03*
D21*
X98700Y312000D03*
X101100Y312000D03*
D20*
X105600Y312000D03*
D23*
X112200Y312000D03*
D21*
X115500Y312000D03*
D20*
X7200Y312600D03*
D22*
X14100Y312600D03*
D23*
X23400Y312600D03*
D20*
X26400Y312600D03*
D23*
X34200Y312600D03*
X46200Y312600D03*
D21*
X51900Y312600D03*
D23*
X56400Y312600D03*
D29*
X59400Y312600D03*
D27*
X63600Y312600D03*
D29*
X67800Y312600D03*
D21*
X70500Y312600D03*
D29*
X73200Y312600D03*
D21*
X75300Y312600D03*
D29*
X81600Y312600D03*
D24*
X85500Y312600D03*
D27*
X93000Y312600D03*
D23*
X98400Y312600D03*
X101400Y312600D03*
D20*
X106200Y312600D03*
D22*
X111300Y312600D03*
D23*
X115200Y312600D03*
D22*
X6900Y313200D03*
X13500Y313200D03*
D30*
X24600Y313200D03*
D23*
X34800Y313200D03*
X46200Y313200D03*
D29*
X48000Y313200D03*
D21*
X49500Y313200D03*
X51900Y313200D03*
D29*
X54000Y313200D03*
D23*
X57000Y313200D03*
D29*
X59400Y313200D03*
D27*
X63600Y313200D03*
D21*
X68100Y313200D03*
X69900Y313200D03*
X75300Y313200D03*
D29*
X81600Y313200D03*
D24*
X85500Y313200D03*
X92700Y313200D03*
D23*
X97800Y313200D03*
X102000Y313200D03*
D27*
X108600Y313200D03*
D23*
X114600Y313200D03*
D22*
X6900Y313800D03*
D20*
X13200Y313800D03*
D24*
X24300Y313800D03*
D23*
X34800Y313800D03*
D27*
X47400Y313800D03*
D21*
X51900Y313800D03*
X54300Y313800D03*
D20*
X58200Y313800D03*
D27*
X63600Y313800D03*
D22*
X68700Y313800D03*
D29*
X72600Y313800D03*
D21*
X75300Y313800D03*
D29*
X81600Y313800D03*
D24*
X85500Y313800D03*
D23*
X97200Y313800D03*
X102600Y313800D03*
X114000Y313800D03*
D20*
X7200Y314400D03*
D24*
X13500Y314400D03*
D20*
X23400Y314400D03*
D23*
X34800Y314400D03*
D53*
X46200Y314400D03*
D21*
X51900Y314400D03*
D23*
X54600Y314400D03*
D22*
X58500Y314400D03*
D27*
X63600Y314400D03*
D23*
X68400Y314400D03*
D21*
X72300Y314400D03*
X74700Y314400D03*
D20*
X78000Y314400D03*
D29*
X81600Y314400D03*
D24*
X85500Y314400D03*
D21*
X89700Y314400D03*
D22*
X96300Y314400D03*
D21*
X99300Y314400D03*
D20*
X103800Y314400D03*
D22*
X113100Y314400D03*
D21*
X116100Y314400D03*
D20*
X7200Y315000D03*
D30*
X13200Y315000D03*
D24*
X23100Y315000D03*
D21*
X35100Y315000D03*
D53*
X43800Y315000D03*
D21*
X51900Y315000D03*
D22*
X54900Y315000D03*
D23*
X58800Y315000D03*
D27*
X63600Y315000D03*
D23*
X68400Y315000D03*
X72000Y315000D03*
D21*
X74700Y315000D03*
D20*
X78000Y315000D03*
D29*
X81600Y315000D03*
D24*
X85500Y315000D03*
D46*
X92700Y315000D03*
D22*
X99900Y315000D03*
D65*
X108600Y315000D03*
D23*
X115800Y315000D03*
D20*
X7200Y315600D03*
D22*
X11700Y315600D03*
D21*
X14700Y315600D03*
D27*
X22800Y315600D03*
D23*
X35400Y315600D03*
D25*
X42000Y315600D03*
D23*
X46800Y315600D03*
D21*
X51900Y315600D03*
D20*
X55200Y315600D03*
D27*
X63600Y315600D03*
D22*
X71700Y315600D03*
D21*
X74700Y315600D03*
D22*
X78300Y315600D03*
D21*
X81300Y315600D03*
D24*
X85500Y315600D03*
D31*
X92100Y315600D03*
D24*
X100500Y315600D03*
D53*
X108600Y315600D03*
D22*
X115500Y315600D03*
D20*
X7200Y316200D03*
D23*
X11400Y316200D03*
X15000Y316200D03*
D20*
X21000Y316200D03*
D23*
X24600Y316200D03*
D53*
X38400Y316200D03*
D23*
X46800Y316200D03*
D21*
X51900Y316200D03*
D24*
X55500Y316200D03*
D27*
X63600Y316200D03*
D20*
X71400Y316200D03*
D21*
X74700Y316200D03*
D23*
X81000Y316200D03*
D24*
X85500Y316200D03*
D21*
X89100Y316200D03*
D20*
X101400Y316200D03*
D22*
X115500Y316200D03*
D24*
X7500Y316800D03*
D22*
X11100Y316800D03*
D23*
X15000Y316800D03*
D22*
X20100Y316800D03*
D21*
X24900Y316800D03*
D26*
X37500Y316800D03*
D23*
X46800Y316800D03*
D21*
X51900Y316800D03*
D43*
X63300Y316800D03*
D21*
X74700Y316800D03*
D23*
X80400Y316800D03*
D24*
X85500Y316800D03*
D21*
X89100Y316800D03*
D22*
X101700Y316800D03*
D23*
X115800Y316800D03*
D24*
X7500Y317400D03*
D23*
X10800Y317400D03*
X15600Y317400D03*
D22*
X19500Y317400D03*
D23*
X25200Y317400D03*
D28*
X36300Y317400D03*
D21*
X47100Y317400D03*
X51900Y317400D03*
D43*
X63300Y317400D03*
D21*
X74700Y317400D03*
D23*
X79800Y317400D03*
D30*
X85200Y317400D03*
D21*
X89100Y317400D03*
D20*
X102000Y317400D03*
D22*
X115500Y317400D03*
D21*
X6300Y318000D03*
D24*
X9300Y318000D03*
D23*
X15600Y318000D03*
D22*
X18900Y318000D03*
D23*
X25200Y318000D03*
D28*
X34500Y318000D03*
D21*
X47100Y318000D03*
X51900Y318000D03*
D43*
X63300Y318000D03*
D21*
X74700Y318000D03*
X79500Y318000D03*
D28*
X84900Y318000D03*
D21*
X89100Y318000D03*
D24*
X102300Y318000D03*
X110700Y318000D03*
D22*
X115500Y318000D03*
D21*
X6300Y318600D03*
D20*
X9600Y318600D03*
D30*
X17400Y318600D03*
D23*
X25800Y318600D03*
D24*
X33300Y318600D03*
D23*
X36600Y318600D03*
X47400Y318600D03*
D29*
X52200Y318600D03*
D21*
X74700Y318600D03*
D29*
X79200Y318600D03*
D26*
X84300Y318600D03*
D21*
X89100Y318600D03*
D28*
X102300Y318600D03*
D24*
X110700Y318600D03*
D23*
X115200Y318600D03*
D21*
X6300Y319200D03*
D20*
X9600Y319200D03*
D24*
X17100Y319200D03*
D23*
X25800Y319200D03*
D24*
X32100Y319200D03*
D23*
X36600Y319200D03*
X47400Y319200D03*
D21*
X52500Y319200D03*
X74700Y319200D03*
D29*
X79200Y319200D03*
D21*
X89100Y319200D03*
X90900Y319200D03*
D23*
X100800Y319200D03*
D22*
X104100Y319200D03*
X109500Y319200D03*
D23*
X112200Y319200D03*
X115200Y319200D03*
D21*
X6300Y319800D03*
D22*
X9300Y319800D03*
X17100Y319800D03*
D23*
X26400Y319800D03*
D20*
X30600Y319800D03*
D21*
X36900Y319800D03*
D23*
X47400Y319800D03*
D52*
X63600Y319800D03*
D21*
X79500Y319800D03*
X89100Y319800D03*
D22*
X91500Y319800D03*
D23*
X100200Y319800D03*
D22*
X104700Y319800D03*
D23*
X109200Y319800D03*
D28*
X113700Y319800D03*
D21*
X6300Y320400D03*
D22*
X9300Y320400D03*
D23*
X16800Y320400D03*
D27*
X28200Y320400D03*
D23*
X37200Y320400D03*
D21*
X47700Y320400D03*
D29*
X74400Y320400D03*
D24*
X80700Y320400D03*
D23*
X88800Y320400D03*
D20*
X92400Y320400D03*
D23*
X100200Y320400D03*
D22*
X105300Y320400D03*
D23*
X108600Y320400D03*
D30*
X114000Y320400D03*
D23*
X6600Y321000D03*
D22*
X9300Y321000D03*
D20*
X16800Y321000D03*
D30*
X28200Y321000D03*
D23*
X37200Y321000D03*
D21*
X47700Y321000D03*
D46*
X84900Y321000D03*
D22*
X93300Y321000D03*
D23*
X99600Y321000D03*
X105600Y321000D03*
X108600Y321000D03*
D30*
X114000Y321000D03*
D23*
X6600Y321600D03*
D20*
X9600Y321600D03*
D24*
X16500Y321600D03*
D20*
X27600Y321600D03*
D21*
X37500Y321600D03*
D23*
X48000Y321600D03*
D29*
X51000Y321600D03*
X52200Y321600D03*
D20*
X94200Y321600D03*
D23*
X99600Y321600D03*
D30*
X107400Y321600D03*
X114000Y321600D03*
D27*
X8400Y322200D03*
D23*
X15000Y322200D03*
X18000Y322200D03*
D24*
X26700Y322200D03*
D23*
X37800Y322200D03*
D26*
X50100Y322200D03*
D21*
X74100Y322200D03*
X78300Y322200D03*
D22*
X95100Y322200D03*
D23*
X99000Y322200D03*
D20*
X107400Y322200D03*
D24*
X114300Y322200D03*
D27*
X9000Y322800D03*
D23*
X15000Y322800D03*
X18000Y322800D03*
D30*
X26400Y322800D03*
D23*
X37800Y322800D03*
D53*
X48600Y322800D03*
D57*
X68100Y322800D03*
D29*
X88800Y322800D03*
D27*
X97200Y322800D03*
D20*
X107400Y322800D03*
X114000Y322800D03*
D27*
X9000Y323400D03*
D23*
X14400Y323400D03*
X18600Y323400D03*
D22*
X24900Y323400D03*
D23*
X28200Y323400D03*
X38400Y323400D03*
D31*
X45900Y323400D03*
D57*
X68700Y323400D03*
D23*
X88200Y323400D03*
D24*
X97500Y323400D03*
D23*
X107400Y323400D03*
D20*
X114000Y323400D03*
X7800Y324000D03*
D22*
X11100Y324000D03*
D23*
X13800Y324000D03*
X18600Y324000D03*
D22*
X24300Y324000D03*
D23*
X28200Y324000D03*
X38400Y324000D03*
D26*
X43500Y324000D03*
D23*
X48600Y324000D03*
D52*
X69600Y324000D03*
D23*
X88200Y324000D03*
D20*
X97800Y324000D03*
X107400Y324000D03*
X114000Y324000D03*
X7800Y324600D03*
D30*
X12600Y324600D03*
D23*
X19200Y324600D03*
D20*
X23400Y324600D03*
D23*
X28800Y324600D03*
D26*
X41100Y324600D03*
D23*
X48600Y324600D03*
D21*
X58500Y324600D03*
D84*
X71700Y324600D03*
D23*
X87600Y324600D03*
D24*
X98100Y324600D03*
D20*
X107400Y324600D03*
D24*
X113700Y324600D03*
D20*
X7800Y325200D03*
D24*
X12300Y325200D03*
D22*
X19500Y325200D03*
D20*
X22800Y325200D03*
D23*
X28800Y325200D03*
D27*
X39600Y325200D03*
D21*
X48900Y325200D03*
X58500Y325200D03*
D41*
X69300Y325200D03*
D28*
X81900Y325200D03*
D23*
X87600Y325200D03*
D30*
X98400Y325200D03*
X107400Y325200D03*
D20*
X113400Y325200D03*
D22*
X8100Y325800D03*
D20*
X12600Y325800D03*
D28*
X21300Y325800D03*
D23*
X29400Y325800D03*
D28*
X38100Y325800D03*
D21*
X48900Y325800D03*
X58500Y325800D03*
D85*
X69600Y325800D03*
D25*
X84600Y325800D03*
D22*
X96900Y325800D03*
X99900Y325800D03*
D23*
X106200Y325800D03*
X108600Y325800D03*
D24*
X113100Y325800D03*
D22*
X8100Y326400D03*
D20*
X12600Y326400D03*
D24*
X20700Y326400D03*
D23*
X30000Y326400D03*
D26*
X37500Y326400D03*
D23*
X49200Y326400D03*
D21*
X58500Y326400D03*
D85*
X69600Y326400D03*
D27*
X85200Y326400D03*
D23*
X96600Y326400D03*
D22*
X100500Y326400D03*
D23*
X105600Y326400D03*
D22*
X108900Y326400D03*
D24*
X113100Y326400D03*
D22*
X8100Y327000D03*
D23*
X12600Y327000D03*
D20*
X21000Y327000D03*
D23*
X30000Y327000D03*
D24*
X35700Y327000D03*
D21*
X39900Y327000D03*
D23*
X49200Y327000D03*
D21*
X58500Y327000D03*
D86*
X69900Y327000D03*
D30*
X86400Y327000D03*
D23*
X96000Y327000D03*
X100800Y327000D03*
D22*
X105300Y327000D03*
D23*
X109200Y327000D03*
D30*
X112800Y327000D03*
D23*
X8400Y327600D03*
D22*
X12900Y327600D03*
X20700Y327600D03*
D23*
X30600Y327600D03*
D24*
X34500Y327600D03*
D23*
X40200Y327600D03*
D21*
X49500Y327600D03*
X58500Y327600D03*
D40*
X70200Y327600D03*
D30*
X87000Y327600D03*
D23*
X96000Y327600D03*
X101400Y327600D03*
X105000Y327600D03*
X109200Y327600D03*
D24*
X112500Y327600D03*
D22*
X8700Y328200D03*
X12900Y328200D03*
D24*
X20700Y328200D03*
D27*
X32400Y328200D03*
D23*
X40200Y328200D03*
D21*
X49500Y328200D03*
X58500Y328200D03*
D86*
X70500Y328200D03*
D27*
X87600Y328200D03*
D23*
X95400Y328200D03*
D22*
X101700Y328200D03*
D23*
X104400Y328200D03*
D26*
X111300Y328200D03*
D22*
X8700Y328800D03*
D24*
X12900Y328800D03*
D28*
X20700Y328800D03*
D24*
X32100Y328800D03*
D23*
X40800Y328800D03*
X49800Y328800D03*
D21*
X58500Y328800D03*
D86*
X71100Y328800D03*
D22*
X85500Y328800D03*
D24*
X89700Y328800D03*
D23*
X95400Y328800D03*
D30*
X103200Y328800D03*
D27*
X111600Y328800D03*
D22*
X8700Y329400D03*
D30*
X13200Y329400D03*
D23*
X19200Y329400D03*
X22200Y329400D03*
D24*
X31500Y329400D03*
D23*
X40800Y329400D03*
D21*
X50100Y329400D03*
D52*
X67800Y329400D03*
D23*
X85200Y329400D03*
D20*
X90600Y329400D03*
D23*
X94800Y329400D03*
D20*
X103200Y329400D03*
X110400Y329400D03*
D21*
X113100Y329400D03*
D22*
X9300Y330000D03*
D23*
X12000Y330000D03*
X14400Y330000D03*
D22*
X18900Y330000D03*
D23*
X22800Y330000D03*
D24*
X30900Y330000D03*
D23*
X41400Y330000D03*
D66*
X64500Y330000D03*
D22*
X84900Y330000D03*
D28*
X92700Y330000D03*
D23*
X103200Y330000D03*
X110400Y330000D03*
X112800Y330000D03*
D28*
X10500Y330600D03*
D23*
X15000Y330600D03*
X18600Y330600D03*
D22*
X23100Y330600D03*
X29700Y330600D03*
D23*
X32400Y330600D03*
X41400Y330600D03*
D34*
X64200Y330600D03*
D21*
X84900Y330600D03*
D29*
X91800Y330600D03*
D23*
X94200Y330600D03*
D21*
X102900Y330600D03*
D23*
X112800Y330600D03*
D28*
X10500Y331200D03*
D23*
X15000Y331200D03*
X18000Y331200D03*
X23400Y331200D03*
D22*
X28500Y331200D03*
X32700Y331200D03*
D23*
X42000Y331200D03*
D25*
X49200Y331200D03*
D35*
X74400Y331200D03*
D30*
X10800Y331800D03*
X16800Y331800D03*
D23*
X24000Y331800D03*
D22*
X27900Y331800D03*
X33300Y331800D03*
D23*
X42000Y331800D03*
D31*
X47700Y331800D03*
D75*
X74700Y331800D03*
D30*
X10800Y332400D03*
D20*
X16800Y332400D03*
D23*
X24600Y332400D03*
D22*
X27300Y332400D03*
D23*
X33600Y332400D03*
D26*
X44100Y332400D03*
D21*
X50700Y332400D03*
D51*
X75000Y332400D03*
D28*
X96900Y332400D03*
D46*
X107700Y332400D03*
D24*
X11100Y333000D03*
D22*
X17100Y333000D03*
D24*
X26100Y333000D03*
D23*
X34200Y333000D03*
D30*
X43200Y333000D03*
D21*
X50700Y333000D03*
D67*
X60300Y333000D03*
D51*
X75000Y333000D03*
D50*
X88800Y333000D03*
D23*
X99000Y333000D03*
D20*
X103200Y333000D03*
X112200Y333000D03*
D66*
X132300Y333000D03*
D24*
X11100Y333600D03*
D22*
X17100Y333600D03*
D20*
X25800Y333600D03*
D22*
X34500Y333600D03*
D28*
X41700Y333600D03*
D21*
X53100Y333600D03*
D23*
X67800Y333600D03*
D65*
X75000Y333600D03*
D21*
X82500Y333600D03*
D23*
X94200Y333600D03*
D21*
X99300Y333600D03*
D22*
X101700Y333600D03*
D23*
X113400Y333600D03*
D21*
X116700Y333600D03*
D23*
X127200Y333600D03*
X136800Y333600D03*
X147600Y333600D03*
D24*
X11100Y334200D03*
D20*
X17400Y334200D03*
X25800Y334200D03*
D23*
X34800Y334200D03*
D25*
X41400Y334200D03*
D21*
X52500Y334200D03*
X68100Y334200D03*
D65*
X75000Y334200D03*
D29*
X82200Y334200D03*
D21*
X96900Y334200D03*
D24*
X100500Y334200D03*
D23*
X107400Y334200D03*
X114000Y334200D03*
D29*
X116400Y334200D03*
D21*
X147900Y334200D03*
D20*
X11400Y334800D03*
X17400Y334800D03*
X25800Y334800D03*
D26*
X37500Y334800D03*
D23*
X43800Y334800D03*
D21*
X52500Y334800D03*
D51*
X60600Y334800D03*
D21*
X68100Y334800D03*
D65*
X75000Y334800D03*
D29*
X82200Y334800D03*
D53*
X88200Y334800D03*
D21*
X96900Y334800D03*
D23*
X100200Y334800D03*
D31*
X107700Y334800D03*
D22*
X115500Y334800D03*
D25*
X121800Y334800D03*
D27*
X132000Y334800D03*
D25*
X142200Y334800D03*
D29*
X148200Y334800D03*
D24*
X11700Y335400D03*
X17700Y335400D03*
D28*
X26100Y335400D03*
X36900Y335400D03*
D22*
X44100Y335400D03*
D21*
X52500Y335400D03*
D36*
X60300Y335400D03*
D21*
X68100Y335400D03*
D65*
X75000Y335400D03*
D29*
X82200Y335400D03*
D31*
X87900Y335400D03*
D22*
X96900Y335400D03*
D21*
X99900Y335400D03*
D24*
X104700Y335400D03*
X110700Y335400D03*
D22*
X116100Y335400D03*
D26*
X122100Y335400D03*
D27*
X132000Y335400D03*
D25*
X142200Y335400D03*
D21*
X147900Y335400D03*
D24*
X12300Y336000D03*
D30*
X18000Y336000D03*
D23*
X24600Y336000D03*
D22*
X27900Y336000D03*
D20*
X36600Y336000D03*
D23*
X44400Y336000D03*
X52800Y336000D03*
D45*
X60300Y336000D03*
D23*
X67800Y336000D03*
D46*
X76500Y336000D03*
D21*
X82500Y336000D03*
D26*
X87900Y336000D03*
D21*
X93900Y336000D03*
X96900Y336000D03*
D24*
X103500Y336000D03*
D20*
X111600Y336000D03*
D23*
X116400Y336000D03*
D28*
X122100Y336000D03*
D23*
X127200Y336000D03*
D30*
X132000Y336000D03*
D23*
X136800Y336000D03*
D27*
X142200Y336000D03*
D23*
X147600Y336000D03*
D24*
X12300Y336600D03*
D21*
X16500Y336600D03*
D22*
X19500Y336600D03*
D23*
X24000Y336600D03*
D22*
X28500Y336600D03*
D20*
X36000Y336600D03*
D23*
X45000Y336600D03*
X53400Y336600D03*
D53*
X60000Y336600D03*
D23*
X67200Y336600D03*
D53*
X76800Y336600D03*
D23*
X82800Y336600D03*
D28*
X87900Y336600D03*
D22*
X93900Y336600D03*
D24*
X102900Y336600D03*
D20*
X112200Y336600D03*
D22*
X117300Y336600D03*
D30*
X122400Y336600D03*
D20*
X127200Y336600D03*
D30*
X132000Y336600D03*
D20*
X136800Y336600D03*
D30*
X141600Y336600D03*
D23*
X147000Y336600D03*
D26*
X14100Y337200D03*
D22*
X20100Y337200D03*
X23700Y337200D03*
D23*
X28800Y337200D03*
D30*
X36000Y337200D03*
D22*
X45300Y337200D03*
D23*
X54000Y337200D03*
D26*
X60300Y337200D03*
D23*
X66600Y337200D03*
D53*
X77400Y337200D03*
D23*
X83400Y337200D03*
D24*
X87900Y337200D03*
D30*
X93600Y337200D03*
D24*
X102300Y337200D03*
D20*
X107400Y337200D03*
D24*
X112500Y337200D03*
D20*
X117600Y337200D03*
D30*
X122400Y337200D03*
D20*
X127200Y337200D03*
D30*
X132000Y337200D03*
D20*
X136800Y337200D03*
D24*
X141900Y337200D03*
D23*
X146400Y337200D03*
D26*
X14100Y337800D03*
D28*
X21900Y337800D03*
D23*
X29400Y337800D03*
D22*
X34500Y337800D03*
D23*
X37800Y337800D03*
X45600Y337800D03*
X54600Y337800D03*
D27*
X60600Y337800D03*
D23*
X66000Y337800D03*
D30*
X70800Y337800D03*
D46*
X77700Y337800D03*
D23*
X84000Y337800D03*
D24*
X87900Y337800D03*
D23*
X92400Y337800D03*
D24*
X96300Y337800D03*
X102300Y337800D03*
X107700Y337800D03*
D30*
X112800Y337800D03*
D22*
X117900Y337800D03*
D30*
X122400Y337800D03*
D29*
X126000Y337800D03*
X128400Y337800D03*
D24*
X131700Y337800D03*
D29*
X135600Y337800D03*
X138000Y337800D03*
D24*
X141900Y337800D03*
D23*
X145800Y337800D03*
D27*
X14400Y338400D03*
D30*
X22200Y338400D03*
D22*
X29700Y338400D03*
X33900Y338400D03*
X38100Y338400D03*
X45900Y338400D03*
D24*
X51300Y338400D03*
D22*
X55500Y338400D03*
D28*
X60300Y338400D03*
D23*
X65400Y338400D03*
D28*
X70500Y338400D03*
D49*
X78000Y338400D03*
D21*
X84300Y338400D03*
D24*
X87900Y338400D03*
D29*
X91800Y338400D03*
D30*
X96600Y338400D03*
X102000Y338400D03*
D21*
X106500Y338400D03*
X108900Y338400D03*
D24*
X113100Y338400D03*
D29*
X117000Y338400D03*
D21*
X118500Y338400D03*
D30*
X122400Y338400D03*
D29*
X126000Y338400D03*
X128400Y338400D03*
D24*
X131700Y338400D03*
D29*
X135600Y338400D03*
X138000Y338400D03*
D24*
X141900Y338400D03*
D21*
X145500Y338400D03*
D27*
X14400Y339000D03*
D20*
X22200Y339000D03*
D28*
X31500Y339000D03*
D22*
X38700Y339000D03*
D23*
X46200Y339000D03*
D26*
X50700Y339000D03*
D23*
X55800Y339000D03*
D28*
X60300Y339000D03*
D23*
X64800Y339000D03*
X68400Y339000D03*
D29*
X72600Y339000D03*
D49*
X78000Y339000D03*
D21*
X84300Y339000D03*
D24*
X87900Y339000D03*
D29*
X91800Y339000D03*
D27*
X96000Y339000D03*
D30*
X102000Y339000D03*
D21*
X105900Y339000D03*
D23*
X109200Y339000D03*
D24*
X113100Y339000D03*
D29*
X117000Y339000D03*
D21*
X118500Y339000D03*
D30*
X122400Y339000D03*
D29*
X126000Y339000D03*
X128400Y339000D03*
D24*
X131700Y339000D03*
D21*
X135900Y339000D03*
D29*
X138000Y339000D03*
D24*
X141900Y339000D03*
D29*
X145200Y339000D03*
D28*
X14700Y339600D03*
D22*
X22500Y339600D03*
D24*
X31500Y339600D03*
D22*
X39300Y339600D03*
D26*
X48300Y339600D03*
D22*
X53100Y339600D03*
D21*
X56100Y339600D03*
D28*
X60300Y339600D03*
X66300Y339600D03*
D29*
X72600Y339600D03*
D49*
X78000Y339600D03*
D21*
X84300Y339600D03*
D24*
X87900Y339600D03*
D20*
X93000Y339600D03*
D30*
X102000Y339600D03*
D21*
X105900Y339600D03*
X109500Y339600D03*
D24*
X113100Y339600D03*
D29*
X117000Y339600D03*
D21*
X118500Y339600D03*
D30*
X122400Y339600D03*
D29*
X126000Y339600D03*
X128400Y339600D03*
D30*
X132000Y339600D03*
D29*
X135600Y339600D03*
X138000Y339600D03*
D24*
X141900Y339600D03*
D29*
X145200Y339600D03*
D28*
X15300Y340200D03*
D20*
X22800Y340200D03*
X31800Y340200D03*
D22*
X39900Y340200D03*
D30*
X46800Y340200D03*
D23*
X53400Y340200D03*
D21*
X56100Y340200D03*
D28*
X60300Y340200D03*
D24*
X66300Y340200D03*
D29*
X70800Y340200D03*
X72600Y340200D03*
D49*
X78000Y340200D03*
D21*
X84300Y340200D03*
D24*
X87900Y340200D03*
D22*
X92700Y340200D03*
D24*
X101700Y340200D03*
D21*
X105900Y340200D03*
X109500Y340200D03*
D24*
X113100Y340200D03*
D29*
X117000Y340200D03*
D21*
X118500Y340200D03*
D30*
X122400Y340200D03*
D21*
X126300Y340200D03*
D29*
X128400Y340200D03*
D30*
X132000Y340200D03*
D21*
X135900Y340200D03*
D29*
X138000Y340200D03*
D24*
X141900Y340200D03*
D29*
X145200Y340200D03*
D27*
X15600Y340800D03*
D30*
X23400Y340800D03*
D24*
X32100Y340800D03*
D23*
X40200Y340800D03*
D28*
X45900Y340800D03*
D23*
X53400Y340800D03*
D21*
X56100Y340800D03*
D28*
X60300Y340800D03*
D21*
X69900Y340800D03*
D29*
X72600Y340800D03*
X74400Y340800D03*
D28*
X80100Y340800D03*
D21*
X84300Y340800D03*
D30*
X88200Y340800D03*
D23*
X92400Y340800D03*
D30*
X102000Y340800D03*
D21*
X105900Y340800D03*
X109500Y340800D03*
D24*
X113100Y340800D03*
D29*
X117000Y340800D03*
D21*
X118500Y340800D03*
D30*
X122400Y340800D03*
D21*
X126300Y340800D03*
X128100Y340800D03*
D30*
X132000Y340800D03*
D20*
X136800Y340800D03*
D24*
X141900Y340800D03*
D29*
X145200Y340800D03*
D27*
X16200Y341400D03*
D23*
X22200Y341400D03*
D22*
X24900Y341400D03*
D28*
X32100Y341400D03*
D23*
X40800Y341400D03*
D24*
X44100Y341400D03*
D23*
X48000Y341400D03*
X54000Y341400D03*
D21*
X56100Y341400D03*
D27*
X60600Y341400D03*
D23*
X69600Y341400D03*
D29*
X72600Y341400D03*
D30*
X80400Y341400D03*
D21*
X84300Y341400D03*
D30*
X88200Y341400D03*
D23*
X92400Y341400D03*
D22*
X96300Y341400D03*
D30*
X102000Y341400D03*
D21*
X105900Y341400D03*
X108900Y341400D03*
D24*
X113100Y341400D03*
D29*
X117000Y341400D03*
D21*
X118500Y341400D03*
D30*
X122400Y341400D03*
D20*
X127200Y341400D03*
D30*
X132000Y341400D03*
D22*
X137100Y341400D03*
D30*
X141600Y341400D03*
D29*
X145200Y341400D03*
D27*
X16800Y342000D03*
D23*
X22200Y342000D03*
D22*
X25500Y342000D03*
D23*
X30600Y342000D03*
D22*
X33900Y342000D03*
D30*
X42600Y342000D03*
D23*
X48000Y342000D03*
X54000Y342000D03*
D21*
X56100Y342000D03*
D35*
X64200Y342000D03*
D29*
X72600Y342000D03*
D24*
X80100Y342000D03*
D21*
X84300Y342000D03*
D30*
X88200Y342000D03*
D21*
X92700Y342000D03*
D20*
X96600Y342000D03*
D24*
X102300Y342000D03*
D21*
X106500Y342000D03*
X108900Y342000D03*
D24*
X113100Y342000D03*
D29*
X117000Y342000D03*
D21*
X118500Y342000D03*
D30*
X122400Y342000D03*
D22*
X127500Y342000D03*
D30*
X132000Y342000D03*
D22*
X137100Y342000D03*
D30*
X141600Y342000D03*
D29*
X145200Y342000D03*
D26*
X17100Y342600D03*
D23*
X22200Y342600D03*
D22*
X26100Y342600D03*
D23*
X30000Y342600D03*
D22*
X34500Y342600D03*
D20*
X42000Y342600D03*
D23*
X48600Y342600D03*
X54000Y342600D03*
D21*
X56100Y342600D03*
D35*
X64200Y342600D03*
D29*
X72600Y342600D03*
D24*
X75900Y342600D03*
D22*
X80100Y342600D03*
D23*
X84000Y342600D03*
D30*
X88200Y342600D03*
D20*
X96600Y342600D03*
D24*
X102300Y342600D03*
X107700Y342600D03*
X112500Y342600D03*
D20*
X117600Y342600D03*
D28*
X122700Y342600D03*
D30*
X132000Y342600D03*
X141600Y342600D03*
D29*
X145200Y342600D03*
D26*
X17700Y343200D03*
D23*
X22200Y343200D03*
D27*
X28200Y343200D03*
D22*
X35100Y343200D03*
D24*
X41700Y343200D03*
D23*
X49200Y343200D03*
D21*
X54300Y343200D03*
X56100Y343200D03*
D35*
X64200Y343200D03*
D20*
X73800Y343200D03*
D23*
X77400Y343200D03*
D22*
X80100Y343200D03*
D23*
X83400Y343200D03*
D24*
X87900Y343200D03*
D20*
X96600Y343200D03*
D24*
X102900Y343200D03*
D22*
X107700Y343200D03*
D24*
X112500Y343200D03*
D22*
X117300Y343200D03*
D28*
X122700Y343200D03*
D30*
X131400Y343200D03*
D24*
X141300Y343200D03*
D29*
X145200Y343200D03*
D20*
X16800Y343800D03*
D30*
X21000Y343800D03*
D24*
X28500Y343800D03*
D22*
X35700Y343800D03*
D28*
X41700Y343800D03*
D23*
X49200Y343800D03*
D21*
X56100Y343800D03*
D35*
X64200Y343800D03*
D22*
X73500Y343800D03*
D21*
X77700Y343800D03*
D23*
X79800Y343800D03*
X82800Y343800D03*
D30*
X87600Y343800D03*
D24*
X96300Y343800D03*
D20*
X103200Y343800D03*
D24*
X111900Y343800D03*
D22*
X116700Y343800D03*
D24*
X122100Y343800D03*
D28*
X131100Y343800D03*
X140700Y343800D03*
D21*
X144900Y343800D03*
D20*
X16800Y344400D03*
D24*
X21300Y344400D03*
D20*
X28800Y344400D03*
D27*
X38400Y344400D03*
D22*
X43500Y344400D03*
D23*
X49800Y344400D03*
D21*
X56100Y344400D03*
D27*
X60600Y344400D03*
D23*
X69600Y344400D03*
X73200Y344400D03*
D21*
X77700Y344400D03*
D23*
X79800Y344400D03*
X82200Y344400D03*
D28*
X87300Y344400D03*
D27*
X94800Y344400D03*
D20*
X103800Y344400D03*
D24*
X111300Y344400D03*
D22*
X116100Y344400D03*
D30*
X121800Y344400D03*
D25*
X129600Y344400D03*
D31*
X139500Y344400D03*
D21*
X144900Y344400D03*
D20*
X17400Y345000D03*
D22*
X21900Y345000D03*
D20*
X29400Y345000D03*
D30*
X38400Y345000D03*
D22*
X44100Y345000D03*
D23*
X50400Y345000D03*
D21*
X56100Y345000D03*
D28*
X60300Y345000D03*
D21*
X70500Y345000D03*
D23*
X73200Y345000D03*
D29*
X75600Y345000D03*
D21*
X77700Y345000D03*
X79500Y345000D03*
X81900Y345000D03*
D27*
X87000Y345000D03*
D30*
X94800Y345000D03*
D23*
X99600Y345000D03*
D30*
X105000Y345000D03*
D24*
X110100Y345000D03*
D22*
X115500Y345000D03*
D27*
X121200Y345000D03*
X129600Y345000D03*
D26*
X139500Y345000D03*
D21*
X144900Y345000D03*
D22*
X17700Y345600D03*
X22500Y345600D03*
D30*
X30000Y345600D03*
D20*
X38400Y345600D03*
X45000Y345600D03*
D28*
X51900Y345600D03*
D21*
X56100Y345600D03*
D28*
X60300Y345600D03*
D30*
X66000Y345600D03*
D29*
X75600Y345600D03*
D21*
X77700Y345600D03*
X79500Y345600D03*
D29*
X81600Y345600D03*
D28*
X87300Y345600D03*
D23*
X94800Y345600D03*
D24*
X99900Y345600D03*
D25*
X107400Y345600D03*
D20*
X115200Y345600D03*
D28*
X121500Y345600D03*
D30*
X129600Y345600D03*
D29*
X134400Y345600D03*
D30*
X139200Y345600D03*
D23*
X144600Y345600D03*
D22*
X18300Y346200D03*
D24*
X23100Y346200D03*
D28*
X30300Y346200D03*
D24*
X38700Y346200D03*
D20*
X45600Y346200D03*
D28*
X51900Y346200D03*
D21*
X56100Y346200D03*
D28*
X60300Y346200D03*
D27*
X66600Y346200D03*
D21*
X75300Y346200D03*
X77700Y346200D03*
X79500Y346200D03*
X81900Y346200D03*
D23*
X98400Y346200D03*
D22*
X101100Y346200D03*
D29*
X107400Y346200D03*
D23*
X114000Y346200D03*
D29*
X116400Y346200D03*
D23*
X134400Y346200D03*
X144000Y346200D03*
D20*
X18600Y346800D03*
D30*
X23400Y346800D03*
D21*
X28500Y346800D03*
D24*
X32100Y346800D03*
D28*
X38700Y346800D03*
D20*
X46200Y346800D03*
D28*
X51300Y346800D03*
D23*
X55800Y346800D03*
D28*
X60300Y346800D03*
D27*
X66600Y346800D03*
D23*
X75000Y346800D03*
D21*
X77700Y346800D03*
X79500Y346800D03*
D22*
X82500Y346800D03*
X92100Y346800D03*
X97500Y346800D03*
X102300Y346800D03*
D20*
X112800Y346800D03*
D22*
X116700Y346800D03*
D23*
X126000Y346800D03*
D30*
X134400Y346800D03*
D22*
X143100Y346800D03*
D20*
X19200Y347400D03*
D27*
X24000Y347400D03*
D21*
X28500Y347400D03*
D24*
X33300Y347400D03*
D23*
X37200Y347400D03*
D20*
X40800Y347400D03*
D25*
X49200Y347400D03*
D23*
X55200Y347400D03*
D28*
X60300Y347400D03*
D27*
X66600Y347400D03*
D22*
X74700Y347400D03*
D21*
X77700Y347400D03*
D23*
X79800Y347400D03*
D40*
X90000Y347400D03*
D28*
X104100Y347400D03*
D30*
X111000Y347400D03*
D41*
X125100Y347400D03*
D49*
X139200Y347400D03*
D27*
X21000Y348000D03*
D28*
X26700Y348000D03*
X35100Y348000D03*
D20*
X41400Y348000D03*
D30*
X48600Y348000D03*
D21*
X51900Y348000D03*
D23*
X54600Y348000D03*
D27*
X60000Y348000D03*
D20*
X74400Y348000D03*
D21*
X77700Y348000D03*
D23*
X79800Y348000D03*
D53*
X87600Y348000D03*
D30*
X94800Y348000D03*
D49*
X107400Y348000D03*
D46*
X121500Y348000D03*
D25*
X129600Y348000D03*
X139200Y348000D03*
D28*
X21300Y348600D03*
D24*
X27300Y348600D03*
D30*
X35400Y348600D03*
D20*
X42600Y348600D03*
D30*
X48000Y348600D03*
D23*
X54000Y348600D03*
D25*
X60000Y348600D03*
D20*
X74400Y348600D03*
D21*
X77700Y348600D03*
D22*
X80100Y348600D03*
D21*
X99300Y348600D03*
X101100Y348600D03*
D24*
X107700Y348600D03*
D28*
X21900Y349200D03*
D24*
X27900Y349200D03*
X36300Y349200D03*
D49*
X46200Y349200D03*
D23*
X53400Y349200D03*
D63*
X66000Y349200D03*
D21*
X77700Y349200D03*
D20*
X80400Y349200D03*
D30*
X100200Y349200D03*
X22200Y349800D03*
D24*
X29100Y349800D03*
D30*
X37200Y349800D03*
D28*
X45300Y349800D03*
D23*
X49800Y349800D03*
X52800Y349800D03*
D61*
X65700Y349800D03*
D21*
X77700Y349800D03*
D26*
X81900Y349800D03*
D21*
X93300Y349800D03*
D30*
X99600Y349800D03*
X22800Y350400D03*
X30000Y350400D03*
D27*
X37800Y350400D03*
D24*
X45300Y350400D03*
D21*
X50100Y350400D03*
X52500Y350400D03*
D59*
X65400Y350400D03*
D21*
X77700Y350400D03*
D65*
X84000Y350400D03*
D24*
X94500Y350400D03*
D30*
X99000Y350400D03*
X23400Y351000D03*
D27*
X30600Y351000D03*
D23*
X36000Y351000D03*
D24*
X39900Y351000D03*
D30*
X46200Y351000D03*
D29*
X50400Y351000D03*
D21*
X52500Y351000D03*
X77700Y351000D03*
X79500Y351000D03*
D46*
X84900Y351000D03*
D49*
X96600Y351000D03*
D28*
X24300Y351600D03*
D23*
X29400Y351600D03*
D24*
X32700Y351600D03*
D23*
X36000Y351600D03*
D25*
X42600Y351600D03*
D20*
X48000Y351600D03*
D21*
X52500Y351600D03*
X77700Y351600D03*
D53*
X85200Y351600D03*
D24*
X93300Y351600D03*
D30*
X98400Y351600D03*
D53*
X26400Y352200D03*
D28*
X34500Y352200D03*
X43500Y352200D03*
D24*
X48900Y352200D03*
D23*
X52800Y352200D03*
X77400Y352200D03*
D49*
X85200Y352200D03*
D24*
X92100Y352200D03*
X97500Y352200D03*
D31*
X26700Y352800D03*
D24*
X35700Y352800D03*
D30*
X44400Y352800D03*
D24*
X49500Y352800D03*
D37*
X65100Y352800D03*
D50*
X86400Y352800D03*
D24*
X96900Y352800D03*
D31*
X27300Y353400D03*
D28*
X37500Y353400D03*
D46*
X47100Y353400D03*
D24*
X80100Y353400D03*
D45*
X87900Y353400D03*
D24*
X96300Y353400D03*
D31*
X27900Y354000D03*
D25*
X38400Y354000D03*
D23*
X43800Y354000D03*
D26*
X48300Y354000D03*
D22*
X78900Y354000D03*
D50*
X90600Y354000D03*
D24*
X26700Y354600D03*
D30*
X31200Y354600D03*
D23*
X36600Y354600D03*
D31*
X42300Y354600D03*
D25*
X49800Y354600D03*
D23*
X78000Y354600D03*
D50*
X90000Y354600D03*
D24*
X27300Y355200D03*
D53*
X33600Y355200D03*
D87*
X57900Y355200D03*
D22*
X78300Y355200D03*
D67*
X88500Y355200D03*
D51*
X32400Y355800D03*
D34*
X58800Y355800D03*
D63*
X85200Y355800D03*
D50*
X34200Y356400D03*
D88*
X62700Y356400D03*
D36*
X89100Y356400D03*
D26*
X30900Y357000D03*
D69*
X57600Y357000D03*
D36*
X88500Y357000D03*
D27*
X31800Y357600D03*
D88*
X56100Y357600D03*
D22*
X77100Y357600D03*
D51*
X87000Y357600D03*
D26*
X32700Y358200D03*
D22*
X38700Y358200D03*
D89*
X66600Y358200D03*
D65*
X35400Y358800D03*
D22*
X45900Y358800D03*
D90*
X66300Y358800D03*
D26*
X88500Y358800D03*
D91*
X57600Y359400D03*
D26*
X88500Y359400D03*
D69*
X54600Y360000D03*
D45*
X84900Y360000D03*
D21*
X90900Y360000D03*
D69*
X55800Y360600D03*
D49*
X83400Y360600D03*
D29*
X91200Y360600D03*
D46*
X39300Y361200D03*
D73*
X66900Y361200D03*
D46*
X40500Y361800D03*
D25*
X50400Y361800D03*
D22*
X56100Y361800D03*
D28*
X60300Y361800D03*
D22*
X64500Y361800D03*
D25*
X70200Y361800D03*
D51*
X79800Y361800D03*
D92*
X46800Y362400D03*
D21*
X58500Y362400D03*
D23*
X61800Y362400D03*
D22*
X65100Y362400D03*
D26*
X70500Y362400D03*
D46*
X80100Y362400D03*
D65*
X43800Y363000D03*
D27*
X53400Y363000D03*
D23*
X58200Y363000D03*
X61800Y363000D03*
D65*
X69000Y363000D03*
D46*
X78900Y363000D03*
X44700Y363600D03*
D49*
X55200Y363600D03*
D45*
X65100Y363600D03*
D36*
X75900Y363600D03*
D68*
X55800Y364200D03*
D45*
X75300Y364200D03*
D48*
X61200Y364800D03*
D64*
X60900Y365400D03*
D37*
X60900Y366000D03*
D43*
X60900Y366600D03*
D13*
X25654Y259842D02*
X25654Y255806D01*
X25656Y255729D01*
X25662Y255651D01*
X25671Y255575D01*
X25685Y255498D01*
X25702Y255423D01*
X25723Y255349D01*
X25748Y255275D01*
X25776Y255203D01*
X25808Y255133D01*
X25843Y255064D01*
X25882Y254997D01*
X25924Y254932D01*
X25969Y254869D01*
X26017Y254808D01*
X26068Y254750D01*
X26122Y254695D01*
X26179Y254642D01*
X26238Y254593D01*
X26300Y254546D01*
X26364Y254502D01*
X26430Y254462D01*
X26498Y254425D01*
X26568Y254391D01*
X26639Y254361D01*
X26712Y254335D01*
X26786Y254312D01*
X26861Y254293D01*
X26936Y254278D01*
X27013Y254266D01*
X27090Y254258D01*
X27167Y254254D01*
X27245Y254254D01*
X27322Y254258D01*
X27399Y254266D01*
X27476Y254278D01*
X27551Y254293D01*
X27626Y254312D01*
X27700Y254335D01*
X27773Y254361D01*
X27844Y254391D01*
X27914Y254425D01*
X27982Y254462D01*
X28048Y254502D01*
X28112Y254546D01*
X28174Y254593D01*
X28233Y254642D01*
X28290Y254695D01*
X28344Y254750D01*
X28395Y254808D01*
X28443Y254869D01*
X28488Y254932D01*
X28530Y254997D01*
X28569Y255064D01*
X28604Y255133D01*
X28636Y255203D01*
X28664Y255275D01*
X28689Y255349D01*
X28710Y255423D01*
X28727Y255498D01*
X28741Y255575D01*
X28750Y255651D01*
X28756Y255729D01*
X28758Y255806D01*
X28758Y259842D01*
X32510Y259842D02*
X32510Y254254D01*
X32510Y257048D02*
X31734Y257514D01*
X31683Y257547D01*
X31634Y257583D01*
X31588Y257622D01*
X31545Y257665D01*
X31504Y257709D01*
X31466Y257757D01*
X31432Y257807D01*
X31401Y257859D01*
X31373Y257913D01*
X31349Y257968D01*
X31328Y258026D01*
X31312Y258084D01*
X31299Y258143D01*
X31290Y258203D01*
X31285Y258263D01*
X31284Y258324D01*
X31287Y258385D01*
X31294Y258445D01*
X31305Y258505D01*
X31320Y258563D01*
X31338Y258621D01*
X31360Y258678D01*
X31386Y258732D01*
X31416Y258785D01*
X31449Y258836D01*
X31485Y258885D01*
X31524Y258931D01*
X31566Y258975D01*
X31611Y259016D01*
X31658Y259053D01*
X31708Y259088D01*
X31760Y259119D01*
X31814Y259147D01*
X31870Y259171D01*
X31927Y259191D01*
X31985Y259208D01*
X32044Y259221D01*
X32141Y259237D01*
X32239Y259249D01*
X32337Y259256D01*
X32436Y259260D01*
X32534Y259261D01*
X32633Y259257D01*
X32731Y259249D01*
X32829Y259237D01*
X32926Y259221D01*
X33022Y259202D01*
X33118Y259178D01*
X33213Y259151D01*
X33306Y259120D01*
X33398Y259085D01*
X33489Y259047D01*
X33578Y259005D01*
X33666Y258960D01*
X33751Y258911D01*
X32510Y257048D02*
X33286Y256582D01*
X33337Y256549D01*
X33386Y256513D01*
X33432Y256474D01*
X33475Y256431D01*
X33516Y256387D01*
X33554Y256339D01*
X33588Y256289D01*
X33619Y256237D01*
X33647Y256183D01*
X33671Y256128D01*
X33692Y256070D01*
X33708Y256012D01*
X33721Y255953D01*
X33730Y255893D01*
X33735Y255833D01*
X33736Y255772D01*
X33733Y255711D01*
X33726Y255651D01*
X33715Y255591D01*
X33700Y255533D01*
X33682Y255475D01*
X33660Y255418D01*
X33634Y255364D01*
X33604Y255311D01*
X33571Y255260D01*
X33535Y255211D01*
X33496Y255165D01*
X33454Y255121D01*
X33409Y255080D01*
X33362Y255043D01*
X33312Y255008D01*
X33260Y254977D01*
X33206Y254949D01*
X33150Y254925D01*
X33093Y254905D01*
X33035Y254888D01*
X32976Y254875D01*
X32975Y254875D02*
X32878Y254859D01*
X32780Y254847D01*
X32682Y254840D01*
X32583Y254836D01*
X32485Y254835D01*
X32386Y254839D01*
X32288Y254847D01*
X32190Y254859D01*
X32093Y254875D01*
X31997Y254894D01*
X31901Y254918D01*
X31806Y254945D01*
X31713Y254976D01*
X31621Y255011D01*
X31530Y255049D01*
X31441Y255091D01*
X31353Y255136D01*
X31268Y255185D01*
X36078Y254254D02*
X37630Y254254D01*
X37707Y254256D01*
X37785Y254262D01*
X37861Y254271D01*
X37938Y254285D01*
X38013Y254302D01*
X38087Y254323D01*
X38161Y254348D01*
X38233Y254376D01*
X38303Y254408D01*
X38372Y254443D01*
X38439Y254482D01*
X38504Y254524D01*
X38567Y254569D01*
X38628Y254617D01*
X38686Y254668D01*
X38741Y254722D01*
X38794Y254779D01*
X38843Y254838D01*
X38890Y254900D01*
X38934Y254964D01*
X38974Y255030D01*
X39011Y255098D01*
X39045Y255168D01*
X39075Y255239D01*
X39101Y255312D01*
X39124Y255386D01*
X39143Y255461D01*
X39158Y255536D01*
X39170Y255613D01*
X39178Y255690D01*
X39182Y255767D01*
X39182Y255845D01*
X39178Y255922D01*
X39170Y255999D01*
X39158Y256076D01*
X39143Y256151D01*
X39124Y256226D01*
X39101Y256300D01*
X39075Y256373D01*
X39045Y256444D01*
X39011Y256514D01*
X38974Y256582D01*
X38934Y256648D01*
X38890Y256712D01*
X38843Y256774D01*
X38794Y256833D01*
X38741Y256890D01*
X38686Y256944D01*
X38628Y256995D01*
X38567Y257043D01*
X38504Y257088D01*
X38439Y257130D01*
X38372Y257169D01*
X38303Y257204D01*
X38233Y257236D01*
X38161Y257264D01*
X38087Y257289D01*
X38013Y257310D01*
X37938Y257327D01*
X37861Y257341D01*
X37785Y257350D01*
X37707Y257356D01*
X37630Y257358D01*
X37941Y259842D02*
X36078Y259842D01*
X37941Y259842D02*
X38011Y259840D01*
X38080Y259834D01*
X38149Y259824D01*
X38217Y259811D01*
X38285Y259793D01*
X38351Y259772D01*
X38416Y259747D01*
X38480Y259719D01*
X38542Y259687D01*
X38602Y259652D01*
X38660Y259613D01*
X38715Y259571D01*
X38769Y259526D01*
X38819Y259478D01*
X38867Y259428D01*
X38912Y259374D01*
X38954Y259319D01*
X38993Y259261D01*
X39028Y259201D01*
X39060Y259139D01*
X39088Y259075D01*
X39113Y259010D01*
X39134Y258944D01*
X39152Y258876D01*
X39165Y258808D01*
X39175Y258739D01*
X39181Y258670D01*
X39183Y258600D01*
X39181Y258530D01*
X39175Y258461D01*
X39165Y258392D01*
X39152Y258324D01*
X39134Y258256D01*
X39113Y258190D01*
X39088Y258125D01*
X39060Y258061D01*
X39028Y257999D01*
X38993Y257939D01*
X38954Y257881D01*
X38912Y257826D01*
X38867Y257772D01*
X38819Y257722D01*
X38769Y257674D01*
X38715Y257629D01*
X38660Y257587D01*
X38602Y257548D01*
X38542Y257513D01*
X38480Y257481D01*
X38416Y257453D01*
X38351Y257428D01*
X38285Y257407D01*
X38217Y257389D01*
X38149Y257376D01*
X38080Y257366D01*
X38011Y257360D01*
X37941Y257358D01*
X36699Y257358D01*
D14*
X48260Y430950D02*
X73660Y430950D01*
X73660Y456350D01*
X48260Y456350D01*
X48260Y430950D01*
D15*
X60960Y462700D02*
X60960Y519850D01*
D14*
X73660Y430950D02*
X99060Y430950D01*
X99060Y456350D01*
X73660Y456350D01*
D15*
X86360Y462700D02*
X86360Y519850D01*
D14*
X99060Y430950D02*
X124460Y430950D01*
X124460Y456350D01*
X99060Y456350D01*
D15*
X111760Y462700D02*
X111760Y519850D01*
D14*
X124460Y430950D02*
X149860Y430950D01*
X149860Y456350D01*
X124460Y456350D01*
D15*
X137160Y462700D02*
X137160Y519850D01*
D14*
X149860Y430950D02*
X175260Y430950D01*
X175260Y456350D01*
X149860Y456350D01*
D15*
X162560Y462700D02*
X162560Y519850D01*
D14*
X175260Y430950D02*
X200660Y430950D01*
X200660Y456350D01*
X175260Y456350D01*
D15*
X187960Y462700D02*
X187960Y519850D01*
D16*
X60960Y458890D03*
X86360Y458890D03*
X111760Y458890D03*
X137160Y458890D03*
X162560Y458890D03*
X187960Y458890D03*
D17*
X60960Y425870D03*
X86360Y425870D03*
D18*
X60960Y399200D03*
X86360Y399200D03*
D17*
X111760Y425870D03*
X137160Y425870D03*
D18*
X111760Y399200D03*
X137160Y399200D03*
D17*
X162560Y425870D03*
X187960Y425870D03*
D18*
X162560Y399200D03*
X187960Y399200D03*
D11*
X38735Y416345D02*
X29845Y416345D01*
X38735Y416345D02*
X38835Y416343D01*
X38934Y416337D01*
X39034Y416327D01*
X39132Y416314D01*
X39231Y416296D01*
X39328Y416275D01*
X39424Y416250D01*
X39520Y416221D01*
X39614Y416188D01*
X39707Y416152D01*
X39798Y416112D01*
X39888Y416068D01*
X39976Y416021D01*
X40062Y415971D01*
X40146Y415917D01*
X40228Y415860D01*
X40307Y415800D01*
X40385Y415736D01*
X40459Y415670D01*
X40531Y415601D01*
X40600Y415529D01*
X40666Y415455D01*
X40730Y415377D01*
X40790Y415298D01*
X40847Y415216D01*
X40901Y415132D01*
X40951Y415046D01*
X40998Y414958D01*
X41042Y414868D01*
X41082Y414777D01*
X41118Y414684D01*
X41151Y414590D01*
X41180Y414494D01*
X41205Y414398D01*
X41226Y414301D01*
X41244Y414202D01*
X41257Y414104D01*
X41267Y414004D01*
X41273Y413905D01*
X41275Y413805D01*
X41275Y412535D01*
X41275Y422325D02*
X29845Y422325D01*
X29845Y425500D01*
X29847Y425611D01*
X29853Y425721D01*
X29862Y425832D01*
X29876Y425942D01*
X29893Y426051D01*
X29914Y426160D01*
X29939Y426268D01*
X29968Y426375D01*
X30000Y426481D01*
X30036Y426586D01*
X30076Y426689D01*
X30119Y426791D01*
X30166Y426892D01*
X30217Y426991D01*
X30270Y427088D01*
X30327Y427182D01*
X30388Y427275D01*
X30451Y427366D01*
X30518Y427455D01*
X30588Y427541D01*
X30661Y427624D01*
X30736Y427706D01*
X30814Y427784D01*
X30896Y427859D01*
X30979Y427932D01*
X31065Y428002D01*
X31154Y428069D01*
X31245Y428132D01*
X31338Y428193D01*
X31432Y428250D01*
X31529Y428303D01*
X31628Y428354D01*
X31729Y428401D01*
X31831Y428444D01*
X31934Y428484D01*
X32039Y428520D01*
X32145Y428552D01*
X32252Y428581D01*
X32360Y428606D01*
X32469Y428627D01*
X32578Y428644D01*
X32688Y428658D01*
X32799Y428667D01*
X32909Y428673D01*
X33020Y428675D01*
X33131Y428673D01*
X33241Y428667D01*
X33352Y428658D01*
X33462Y428644D01*
X33571Y428627D01*
X33680Y428606D01*
X33788Y428581D01*
X33895Y428552D01*
X34001Y428520D01*
X34106Y428484D01*
X34209Y428444D01*
X34311Y428401D01*
X34412Y428354D01*
X34511Y428303D01*
X34608Y428250D01*
X34702Y428193D01*
X34795Y428132D01*
X34886Y428069D01*
X34975Y428002D01*
X35061Y427932D01*
X35144Y427859D01*
X35226Y427784D01*
X35304Y427706D01*
X35379Y427624D01*
X35452Y427541D01*
X35522Y427455D01*
X35589Y427366D01*
X35652Y427275D01*
X35713Y427182D01*
X35770Y427088D01*
X35823Y426991D01*
X35874Y426892D01*
X35921Y426791D01*
X35964Y426689D01*
X36004Y426586D01*
X36040Y426481D01*
X36072Y426375D01*
X36101Y426268D01*
X36126Y426160D01*
X36147Y426051D01*
X36164Y425942D01*
X36178Y425832D01*
X36187Y425721D01*
X36193Y425611D01*
X36195Y425500D01*
X36195Y422325D01*
X29845Y436676D02*
X29847Y436780D01*
X29853Y436885D01*
X29862Y436989D01*
X29875Y437092D01*
X29893Y437195D01*
X29913Y437297D01*
X29938Y437399D01*
X29966Y437499D01*
X29998Y437599D01*
X30034Y437697D01*
X30073Y437794D01*
X30115Y437889D01*
X30161Y437983D01*
X30211Y438075D01*
X30263Y438165D01*
X30319Y438253D01*
X30379Y438339D01*
X30441Y438423D01*
X30506Y438504D01*
X30574Y438583D01*
X30646Y438660D01*
X30719Y438733D01*
X30796Y438805D01*
X30875Y438873D01*
X30956Y438938D01*
X31040Y439000D01*
X31126Y439060D01*
X31214Y439116D01*
X31304Y439168D01*
X31396Y439218D01*
X31490Y439264D01*
X31585Y439306D01*
X31682Y439345D01*
X31780Y439381D01*
X31880Y439413D01*
X31980Y439441D01*
X32082Y439466D01*
X32184Y439486D01*
X32287Y439504D01*
X32390Y439517D01*
X32494Y439526D01*
X32599Y439532D01*
X32703Y439534D01*
X29845Y436676D02*
X29847Y436558D01*
X29853Y436439D01*
X29862Y436321D01*
X29875Y436204D01*
X29893Y436087D01*
X29913Y435970D01*
X29938Y435854D01*
X29966Y435739D01*
X29999Y435626D01*
X30034Y435513D01*
X30074Y435401D01*
X30116Y435291D01*
X30163Y435182D01*
X30213Y435074D01*
X30266Y434969D01*
X30323Y434865D01*
X30383Y434763D01*
X30446Y434663D01*
X30513Y434565D01*
X30582Y434469D01*
X30655Y434376D01*
X30731Y434285D01*
X30809Y434196D01*
X30891Y434110D01*
X30975Y434027D01*
X31061Y433946D01*
X31151Y433869D01*
X31242Y433794D01*
X31336Y433722D01*
X31433Y433653D01*
X31531Y433588D01*
X31632Y433525D01*
X31735Y433466D01*
X31839Y433410D01*
X31945Y433358D01*
X32053Y433309D01*
X32162Y433264D01*
X32273Y433222D01*
X32385Y433184D01*
X34925Y438582D02*
X34850Y438658D01*
X34771Y438733D01*
X34690Y438804D01*
X34606Y438873D01*
X34520Y438938D01*
X34432Y439000D01*
X34342Y439060D01*
X34250Y439116D01*
X34155Y439169D01*
X34059Y439218D01*
X33961Y439264D01*
X33862Y439307D01*
X33761Y439346D01*
X33659Y439381D01*
X33556Y439413D01*
X33452Y439441D01*
X33347Y439466D01*
X33240Y439487D01*
X33134Y439504D01*
X33027Y439517D01*
X32919Y439526D01*
X32811Y439532D01*
X32703Y439534D01*
X34925Y438581D02*
X41275Y433184D01*
X41275Y439534D01*
M02*
