M48
;GenerationSoftware,Autodesk,EAGLE,9.6.2*%
;CreationDate,2022-06-11T07:24:52Z*%
FMAT,2
ICI,OFF
METRIC,TZ,000.000
T8C0.200
T7C0.350
T6C0.700
T5C0.813
T4C1.000
T3C1.016
T2C1.200
T1C3.000
%
G90
M71
T1
X-45000Y83000
X45000Y83000
X45000Y5000
X-45000Y5000
X13843Y23622
X-16510Y23368
T2
X34290Y76200
X12700Y7620
X17780Y7620
X-17780Y7620
X-12700Y7620
X-34290Y76200
X-29210Y76200
X29210Y76200
T3
X-12700Y58420
X-17780Y58420
X2540Y58420
X-2540Y58420
X17780Y58420
X12700Y58420
T4
X2500Y3810
X25400Y5080
X33020Y5080
X27940Y5080
X30480Y5080
X-2500Y3810
X0Y3810
T5
X21590Y68580
X19050Y68580
X-6350Y68580
X-8890Y68580
X-19050Y68580
X-21590Y68580
X6350Y68580
X-5080Y12700
X5080Y12700
X8890Y68580
T6
X14009Y41021
X-24130Y5080
X-29210Y5080
X-26670Y2540
X7620Y17780
X5080Y17780
X10160Y17780
X-7620Y17780
X-10160Y17780
X-5080Y17780
X-8851Y41021
X-11391Y41021
X-13931Y41021
X-16471Y41021
X8929Y41021
X11469Y41021
T7
X-5588Y79375
X-21590Y82550
X18288Y79375
X31115Y79375
X11430Y60960
X-8890Y66040
T8
X-10211Y65380
X-12802Y76505
X10211Y75895
X19355Y66751
M30