M48
;GenerationSoftware,Autodesk,EAGLE,9.6.2*%
;CreationDate,2023-07-27T00:25:32Z*%
FMAT,2
ICI,OFF
METRIC,TZ,000.000
T6C0.350
T5C0.800
T4C1.016
T3C2.000
T2C2.500
T1C3.200
%
G90
M71
T1
X5620Y10800
X29620Y10800
X29620Y34800
X5620Y34800
T2
X6000Y17000
T3
X32000Y31000
X2000Y43000
X2000Y2000
X33000Y2000
X33000Y43000
T4
X18770Y4810
X16230Y4810
X13690Y4810
X11150Y4810
X8610Y4810
X6070Y4810
X28930Y7350
X26390Y7350
X23850Y7350
X21310Y7350
X18770Y7350
X16230Y7350
X13690Y7350
X11150Y7350
X8610Y7350
X6070Y7350
X6050Y41190
X8590Y41190
X13670Y41190
X16210Y41190
X18750Y41190
X6050Y38650
X8590Y38650
X11130Y38650
X13670Y38650
X16210Y38650
X18750Y38650
X11130Y41190
X28930Y4810
X26390Y4810
X23850Y4810
X21310Y4810
T5
X31336Y27880
X31336Y17720
X31336Y20260
X31336Y22800
X31336Y25340
T6
X9296Y9449
X13411Y20726
X19660Y8382
X22098Y32004
X7772Y24079
X19355Y29413
X16002Y15392
X16154Y24689
X19050Y22098
X17526Y21184
X21641Y22708
X9449Y14783
X29566Y29261
X11887Y21336
X15240Y24689
X22250Y24841
X15088Y15392
X20117Y17069
X23774Y24841
X6706Y21031
X21336Y28194
X22098Y14478
X13106Y16002
X19812Y32766
X11125Y37338
X18593Y30480
X18288Y27889
X17526Y18288
M30