G04 EAGLE Gerber RS-274X export*
G75*
%MOMM*%
%FSLAX34Y34*%
%LPD*%
%INSilkscreen Bottom*%
%IPPOS*%
%AMOC8*
5,1,8,0,0,1.08239X$1,22.5*%
G01*
%ADD10C,0.050800*%
%ADD11C,0.127000*%


D10*
X84092Y155404D02*
X85334Y155404D01*
X85404Y155406D01*
X85473Y155412D01*
X85542Y155422D01*
X85610Y155435D01*
X85678Y155453D01*
X85744Y155474D01*
X85809Y155499D01*
X85873Y155527D01*
X85935Y155559D01*
X85995Y155594D01*
X86053Y155633D01*
X86108Y155675D01*
X86162Y155720D01*
X86212Y155768D01*
X86260Y155818D01*
X86305Y155872D01*
X86347Y155927D01*
X86386Y155985D01*
X86421Y156045D01*
X86453Y156107D01*
X86481Y156171D01*
X86506Y156236D01*
X86527Y156302D01*
X86545Y156370D01*
X86558Y156438D01*
X86568Y156507D01*
X86574Y156576D01*
X86576Y156646D01*
X86576Y159750D01*
X86574Y159820D01*
X86568Y159889D01*
X86558Y159958D01*
X86545Y160026D01*
X86527Y160094D01*
X86506Y160160D01*
X86481Y160225D01*
X86453Y160289D01*
X86421Y160351D01*
X86386Y160411D01*
X86347Y160469D01*
X86305Y160524D01*
X86260Y160578D01*
X86212Y160628D01*
X86162Y160676D01*
X86108Y160721D01*
X86053Y160763D01*
X85995Y160802D01*
X85935Y160837D01*
X85873Y160869D01*
X85809Y160897D01*
X85744Y160922D01*
X85678Y160943D01*
X85610Y160961D01*
X85542Y160974D01*
X85473Y160984D01*
X85404Y160990D01*
X85334Y160992D01*
X84092Y160992D01*
X80746Y160992D02*
X81988Y156646D01*
X78883Y156646D01*
X79815Y157888D02*
X79815Y155404D01*
D11*
X46200Y78000D02*
X306200Y78000D01*
X326200Y98000D02*
X326200Y358000D01*
X306200Y378000D02*
X46200Y378000D01*
X26200Y358000D02*
X26200Y98000D01*
X26206Y97517D01*
X26223Y97034D01*
X26253Y96551D01*
X26293Y96070D01*
X26346Y95589D01*
X26410Y95110D01*
X26485Y94633D01*
X26573Y94157D01*
X26671Y93684D01*
X26781Y93214D01*
X26902Y92746D01*
X27035Y92281D01*
X27179Y91820D01*
X27334Y91362D01*
X27500Y90908D01*
X27677Y90458D01*
X27864Y90013D01*
X28063Y89572D01*
X28271Y89136D01*
X28491Y88706D01*
X28721Y88280D01*
X28961Y87861D01*
X29211Y87447D01*
X29471Y87040D01*
X29740Y86639D01*
X30020Y86244D01*
X30308Y85857D01*
X30607Y85476D01*
X30914Y85103D01*
X31230Y84738D01*
X31555Y84380D01*
X31888Y84030D01*
X32230Y83688D01*
X32580Y83355D01*
X32938Y83030D01*
X33303Y82714D01*
X33676Y82407D01*
X34057Y82108D01*
X34444Y81820D01*
X34839Y81540D01*
X35240Y81271D01*
X35647Y81011D01*
X36061Y80761D01*
X36480Y80521D01*
X36906Y80291D01*
X37336Y80071D01*
X37772Y79863D01*
X38213Y79664D01*
X38658Y79477D01*
X39108Y79300D01*
X39562Y79134D01*
X40020Y78979D01*
X40481Y78835D01*
X40946Y78702D01*
X41414Y78581D01*
X41884Y78471D01*
X42357Y78373D01*
X42833Y78285D01*
X43310Y78210D01*
X43789Y78146D01*
X44270Y78093D01*
X44751Y78053D01*
X45234Y78023D01*
X45717Y78006D01*
X46200Y78000D01*
X306200Y78000D02*
X306683Y78006D01*
X307166Y78023D01*
X307649Y78053D01*
X308130Y78093D01*
X308611Y78146D01*
X309090Y78210D01*
X309567Y78285D01*
X310043Y78373D01*
X310516Y78471D01*
X310986Y78581D01*
X311454Y78702D01*
X311919Y78835D01*
X312380Y78979D01*
X312838Y79134D01*
X313292Y79300D01*
X313742Y79477D01*
X314187Y79664D01*
X314628Y79863D01*
X315064Y80071D01*
X315494Y80291D01*
X315920Y80521D01*
X316339Y80761D01*
X316753Y81011D01*
X317160Y81271D01*
X317561Y81540D01*
X317956Y81820D01*
X318343Y82108D01*
X318724Y82407D01*
X319097Y82714D01*
X319462Y83030D01*
X319820Y83355D01*
X320170Y83688D01*
X320512Y84030D01*
X320845Y84380D01*
X321170Y84738D01*
X321486Y85103D01*
X321793Y85476D01*
X322092Y85857D01*
X322380Y86244D01*
X322660Y86639D01*
X322929Y87040D01*
X323189Y87447D01*
X323439Y87861D01*
X323679Y88280D01*
X323909Y88706D01*
X324129Y89136D01*
X324337Y89572D01*
X324536Y90013D01*
X324723Y90458D01*
X324900Y90908D01*
X325066Y91362D01*
X325221Y91820D01*
X325365Y92281D01*
X325498Y92746D01*
X325619Y93214D01*
X325729Y93684D01*
X325827Y94157D01*
X325915Y94633D01*
X325990Y95110D01*
X326054Y95589D01*
X326107Y96070D01*
X326147Y96551D01*
X326177Y97034D01*
X326194Y97517D01*
X326200Y98000D01*
X326200Y358000D02*
X326194Y358483D01*
X326177Y358966D01*
X326147Y359449D01*
X326107Y359930D01*
X326054Y360411D01*
X325990Y360890D01*
X325915Y361367D01*
X325827Y361843D01*
X325729Y362316D01*
X325619Y362786D01*
X325498Y363254D01*
X325365Y363719D01*
X325221Y364180D01*
X325066Y364638D01*
X324900Y365092D01*
X324723Y365542D01*
X324536Y365987D01*
X324337Y366428D01*
X324129Y366864D01*
X323909Y367294D01*
X323679Y367720D01*
X323439Y368139D01*
X323189Y368553D01*
X322929Y368960D01*
X322660Y369361D01*
X322380Y369756D01*
X322092Y370143D01*
X321793Y370524D01*
X321486Y370897D01*
X321170Y371262D01*
X320845Y371620D01*
X320512Y371970D01*
X320170Y372312D01*
X319820Y372645D01*
X319462Y372970D01*
X319097Y373286D01*
X318724Y373593D01*
X318343Y373892D01*
X317956Y374180D01*
X317561Y374460D01*
X317160Y374729D01*
X316753Y374989D01*
X316339Y375239D01*
X315920Y375479D01*
X315494Y375709D01*
X315064Y375929D01*
X314628Y376137D01*
X314187Y376336D01*
X313742Y376523D01*
X313292Y376700D01*
X312838Y376866D01*
X312380Y377021D01*
X311919Y377165D01*
X311454Y377298D01*
X310986Y377419D01*
X310516Y377529D01*
X310043Y377627D01*
X309567Y377715D01*
X309090Y377790D01*
X308611Y377854D01*
X308130Y377907D01*
X307649Y377947D01*
X307166Y377977D01*
X306683Y377994D01*
X306200Y378000D01*
X46200Y378000D02*
X45717Y377994D01*
X45234Y377977D01*
X44751Y377947D01*
X44270Y377907D01*
X43789Y377854D01*
X43310Y377790D01*
X42833Y377715D01*
X42357Y377627D01*
X41884Y377529D01*
X41414Y377419D01*
X40946Y377298D01*
X40481Y377165D01*
X40020Y377021D01*
X39562Y376866D01*
X39108Y376700D01*
X38658Y376523D01*
X38213Y376336D01*
X37772Y376137D01*
X37336Y375929D01*
X36906Y375709D01*
X36480Y375479D01*
X36061Y375239D01*
X35647Y374989D01*
X35240Y374729D01*
X34839Y374460D01*
X34444Y374180D01*
X34057Y373892D01*
X33676Y373593D01*
X33303Y373286D01*
X32938Y372970D01*
X32580Y372645D01*
X32230Y372312D01*
X31888Y371970D01*
X31555Y371620D01*
X31230Y371262D01*
X30914Y370897D01*
X30607Y370524D01*
X30308Y370143D01*
X30020Y369756D01*
X29740Y369361D01*
X29471Y368960D01*
X29211Y368553D01*
X28961Y368139D01*
X28721Y367720D01*
X28491Y367294D01*
X28271Y366864D01*
X28063Y366428D01*
X27864Y365987D01*
X27677Y365542D01*
X27500Y365092D01*
X27334Y364638D01*
X27179Y364180D01*
X27035Y363719D01*
X26902Y363254D01*
X26781Y362786D01*
X26671Y362316D01*
X26573Y361843D01*
X26485Y361367D01*
X26410Y360890D01*
X26346Y360411D01*
X26293Y359930D01*
X26253Y359449D01*
X26223Y358966D01*
X26206Y358483D01*
X26200Y358000D01*
X116200Y178000D02*
X216200Y178000D01*
X216200Y278000D01*
X116200Y278000D01*
X116200Y178000D01*
X96200Y168000D02*
X96200Y288000D01*
X106200Y288000D01*
X106442Y288003D01*
X106683Y288012D01*
X106924Y288026D01*
X107165Y288047D01*
X107405Y288073D01*
X107645Y288105D01*
X107884Y288143D01*
X108121Y288186D01*
X108358Y288236D01*
X108593Y288291D01*
X108827Y288351D01*
X109059Y288418D01*
X109290Y288489D01*
X109519Y288567D01*
X109746Y288650D01*
X109971Y288738D01*
X110194Y288832D01*
X110414Y288931D01*
X110632Y289036D01*
X110847Y289145D01*
X111060Y289260D01*
X111270Y289380D01*
X111476Y289505D01*
X111680Y289635D01*
X111881Y289770D01*
X112078Y289910D01*
X112272Y290054D01*
X112462Y290203D01*
X112648Y290357D01*
X112831Y290515D01*
X113010Y290677D01*
X113185Y290844D01*
X113356Y291015D01*
X113523Y291190D01*
X113685Y291369D01*
X113843Y291552D01*
X113997Y291738D01*
X114146Y291928D01*
X114290Y292122D01*
X114430Y292319D01*
X114565Y292520D01*
X114695Y292724D01*
X114820Y292930D01*
X114940Y293140D01*
X115055Y293353D01*
X115164Y293568D01*
X115269Y293786D01*
X115368Y294006D01*
X115462Y294229D01*
X115550Y294454D01*
X115633Y294681D01*
X115711Y294910D01*
X115782Y295141D01*
X115849Y295373D01*
X115909Y295607D01*
X115964Y295842D01*
X116014Y296079D01*
X116057Y296316D01*
X116095Y296555D01*
X116127Y296795D01*
X116153Y297035D01*
X116174Y297276D01*
X116188Y297517D01*
X116197Y297758D01*
X116200Y298000D01*
X116200Y318000D01*
X116203Y318242D01*
X116212Y318483D01*
X116226Y318724D01*
X116247Y318965D01*
X116273Y319205D01*
X116305Y319445D01*
X116343Y319684D01*
X116386Y319921D01*
X116436Y320158D01*
X116491Y320393D01*
X116551Y320627D01*
X116618Y320859D01*
X116689Y321090D01*
X116767Y321319D01*
X116850Y321546D01*
X116938Y321771D01*
X117032Y321994D01*
X117131Y322214D01*
X117236Y322432D01*
X117345Y322647D01*
X117460Y322860D01*
X117580Y323070D01*
X117705Y323276D01*
X117835Y323480D01*
X117970Y323681D01*
X118110Y323878D01*
X118254Y324072D01*
X118403Y324262D01*
X118557Y324448D01*
X118715Y324631D01*
X118877Y324810D01*
X119044Y324985D01*
X119215Y325156D01*
X119390Y325323D01*
X119569Y325485D01*
X119752Y325643D01*
X119938Y325797D01*
X120128Y325946D01*
X120322Y326090D01*
X120519Y326230D01*
X120720Y326365D01*
X120924Y326495D01*
X121130Y326620D01*
X121340Y326740D01*
X121553Y326855D01*
X121768Y326964D01*
X121986Y327069D01*
X122206Y327168D01*
X122429Y327262D01*
X122654Y327350D01*
X122881Y327433D01*
X123110Y327511D01*
X123341Y327582D01*
X123573Y327649D01*
X123807Y327709D01*
X124042Y327764D01*
X124279Y327814D01*
X124516Y327857D01*
X124755Y327895D01*
X124995Y327927D01*
X125235Y327953D01*
X125476Y327974D01*
X125717Y327988D01*
X125958Y327997D01*
X126200Y328000D01*
X186200Y328000D01*
X186442Y327997D01*
X186683Y327988D01*
X186924Y327974D01*
X187165Y327953D01*
X187405Y327927D01*
X187645Y327895D01*
X187884Y327857D01*
X188121Y327814D01*
X188358Y327764D01*
X188593Y327709D01*
X188827Y327649D01*
X189059Y327582D01*
X189290Y327511D01*
X189519Y327433D01*
X189746Y327350D01*
X189971Y327262D01*
X190194Y327168D01*
X190414Y327069D01*
X190632Y326964D01*
X190847Y326855D01*
X191060Y326740D01*
X191270Y326620D01*
X191476Y326495D01*
X191680Y326365D01*
X191881Y326230D01*
X192078Y326090D01*
X192272Y325946D01*
X192462Y325797D01*
X192648Y325643D01*
X192831Y325485D01*
X193010Y325323D01*
X193185Y325156D01*
X193356Y324985D01*
X193523Y324810D01*
X193685Y324631D01*
X193843Y324448D01*
X193997Y324262D01*
X194146Y324072D01*
X194290Y323878D01*
X194430Y323681D01*
X194565Y323480D01*
X194695Y323276D01*
X194820Y323070D01*
X194940Y322860D01*
X195055Y322647D01*
X195164Y322432D01*
X195269Y322214D01*
X195368Y321994D01*
X195462Y321771D01*
X195550Y321546D01*
X195633Y321319D01*
X195711Y321090D01*
X195782Y320859D01*
X195849Y320627D01*
X195909Y320393D01*
X195964Y320158D01*
X196014Y319921D01*
X196057Y319684D01*
X196095Y319445D01*
X196127Y319205D01*
X196153Y318965D01*
X196174Y318724D01*
X196188Y318483D01*
X196197Y318242D01*
X196200Y318000D01*
X196200Y298000D01*
X196203Y297758D01*
X196212Y297517D01*
X196226Y297276D01*
X196247Y297035D01*
X196273Y296795D01*
X196305Y296555D01*
X196343Y296316D01*
X196386Y296079D01*
X196436Y295842D01*
X196491Y295607D01*
X196551Y295373D01*
X196618Y295141D01*
X196689Y294910D01*
X196767Y294681D01*
X196850Y294454D01*
X196938Y294229D01*
X197032Y294006D01*
X197131Y293786D01*
X197236Y293568D01*
X197345Y293353D01*
X197460Y293140D01*
X197580Y292930D01*
X197705Y292724D01*
X197835Y292520D01*
X197970Y292319D01*
X198110Y292122D01*
X198254Y291928D01*
X198403Y291738D01*
X198557Y291552D01*
X198715Y291369D01*
X198877Y291190D01*
X199044Y291015D01*
X199215Y290844D01*
X199390Y290677D01*
X199569Y290515D01*
X199752Y290357D01*
X199938Y290203D01*
X200128Y290054D01*
X200322Y289910D01*
X200519Y289770D01*
X200720Y289635D01*
X200924Y289505D01*
X201130Y289380D01*
X201340Y289260D01*
X201553Y289145D01*
X201768Y289036D01*
X201986Y288931D01*
X202206Y288832D01*
X202429Y288738D01*
X202654Y288650D01*
X202881Y288567D01*
X203110Y288489D01*
X203341Y288418D01*
X203573Y288351D01*
X203807Y288291D01*
X204042Y288236D01*
X204279Y288186D01*
X204516Y288143D01*
X204755Y288105D01*
X204995Y288073D01*
X205235Y288047D01*
X205476Y288026D01*
X205717Y288012D01*
X205958Y288003D01*
X206200Y288000D01*
X226200Y288000D01*
X226442Y287997D01*
X226683Y287988D01*
X226924Y287974D01*
X227165Y287953D01*
X227405Y287927D01*
X227645Y287895D01*
X227884Y287857D01*
X228121Y287814D01*
X228358Y287764D01*
X228593Y287709D01*
X228827Y287649D01*
X229059Y287582D01*
X229290Y287511D01*
X229519Y287433D01*
X229746Y287350D01*
X229971Y287262D01*
X230194Y287168D01*
X230414Y287069D01*
X230632Y286964D01*
X230847Y286855D01*
X231060Y286740D01*
X231270Y286620D01*
X231476Y286495D01*
X231680Y286365D01*
X231881Y286230D01*
X232078Y286090D01*
X232272Y285946D01*
X232462Y285797D01*
X232648Y285643D01*
X232831Y285485D01*
X233010Y285323D01*
X233185Y285156D01*
X233356Y284985D01*
X233523Y284810D01*
X233685Y284631D01*
X233843Y284448D01*
X233997Y284262D01*
X234146Y284072D01*
X234290Y283878D01*
X234430Y283681D01*
X234565Y283480D01*
X234695Y283276D01*
X234820Y283070D01*
X234940Y282860D01*
X235055Y282647D01*
X235164Y282432D01*
X235269Y282214D01*
X235368Y281994D01*
X235462Y281771D01*
X235550Y281546D01*
X235633Y281319D01*
X235711Y281090D01*
X235782Y280859D01*
X235849Y280627D01*
X235909Y280393D01*
X235964Y280158D01*
X236014Y279921D01*
X236057Y279684D01*
X236095Y279445D01*
X236127Y279205D01*
X236153Y278965D01*
X236174Y278724D01*
X236188Y278483D01*
X236197Y278242D01*
X236200Y278000D01*
X236200Y178000D01*
X236197Y177758D01*
X236188Y177517D01*
X236174Y177276D01*
X236153Y177035D01*
X236127Y176795D01*
X236095Y176555D01*
X236057Y176316D01*
X236014Y176079D01*
X235964Y175842D01*
X235909Y175607D01*
X235849Y175373D01*
X235782Y175141D01*
X235711Y174910D01*
X235633Y174681D01*
X235550Y174454D01*
X235462Y174229D01*
X235368Y174006D01*
X235269Y173786D01*
X235164Y173568D01*
X235055Y173353D01*
X234940Y173140D01*
X234820Y172930D01*
X234695Y172724D01*
X234565Y172520D01*
X234430Y172319D01*
X234290Y172122D01*
X234146Y171928D01*
X233997Y171738D01*
X233843Y171552D01*
X233685Y171369D01*
X233523Y171190D01*
X233356Y171015D01*
X233185Y170844D01*
X233010Y170677D01*
X232831Y170515D01*
X232648Y170357D01*
X232462Y170203D01*
X232272Y170054D01*
X232078Y169910D01*
X231881Y169770D01*
X231680Y169635D01*
X231476Y169505D01*
X231270Y169380D01*
X231060Y169260D01*
X230847Y169145D01*
X230632Y169036D01*
X230414Y168931D01*
X230194Y168832D01*
X229971Y168738D01*
X229746Y168650D01*
X229519Y168567D01*
X229290Y168489D01*
X229059Y168418D01*
X228827Y168351D01*
X228593Y168291D01*
X228358Y168236D01*
X228121Y168186D01*
X227884Y168143D01*
X227645Y168105D01*
X227405Y168073D01*
X227165Y168047D01*
X226924Y168026D01*
X226683Y168012D01*
X226442Y168003D01*
X226200Y168000D01*
X206200Y168000D01*
X205958Y167997D01*
X205717Y167988D01*
X205476Y167974D01*
X205235Y167953D01*
X204995Y167927D01*
X204755Y167895D01*
X204516Y167857D01*
X204279Y167814D01*
X204042Y167764D01*
X203807Y167709D01*
X203573Y167649D01*
X203341Y167582D01*
X203110Y167511D01*
X202881Y167433D01*
X202654Y167350D01*
X202429Y167262D01*
X202206Y167168D01*
X201986Y167069D01*
X201768Y166964D01*
X201553Y166855D01*
X201340Y166740D01*
X201130Y166620D01*
X200924Y166495D01*
X200720Y166365D01*
X200519Y166230D01*
X200322Y166090D01*
X200128Y165946D01*
X199938Y165797D01*
X199752Y165643D01*
X199569Y165485D01*
X199390Y165323D01*
X199215Y165156D01*
X199044Y164985D01*
X198877Y164810D01*
X198715Y164631D01*
X198557Y164448D01*
X198403Y164262D01*
X198254Y164072D01*
X198110Y163878D01*
X197970Y163681D01*
X197835Y163480D01*
X197705Y163276D01*
X197580Y163070D01*
X197460Y162860D01*
X197345Y162647D01*
X197236Y162432D01*
X197131Y162214D01*
X197032Y161994D01*
X196938Y161771D01*
X196850Y161546D01*
X196767Y161319D01*
X196689Y161090D01*
X196618Y160859D01*
X196551Y160627D01*
X196491Y160393D01*
X196436Y160158D01*
X196386Y159921D01*
X196343Y159684D01*
X196305Y159445D01*
X196273Y159205D01*
X196247Y158965D01*
X196226Y158724D01*
X196212Y158483D01*
X196203Y158242D01*
X196200Y158000D01*
X196200Y128000D01*
X196197Y127758D01*
X196188Y127517D01*
X196174Y127276D01*
X196153Y127035D01*
X196127Y126795D01*
X196095Y126555D01*
X196057Y126316D01*
X196014Y126079D01*
X195964Y125842D01*
X195909Y125607D01*
X195849Y125373D01*
X195782Y125141D01*
X195711Y124910D01*
X195633Y124681D01*
X195550Y124454D01*
X195462Y124229D01*
X195368Y124006D01*
X195269Y123786D01*
X195164Y123568D01*
X195055Y123353D01*
X194940Y123140D01*
X194820Y122930D01*
X194695Y122724D01*
X194565Y122520D01*
X194430Y122319D01*
X194290Y122122D01*
X194146Y121928D01*
X193997Y121738D01*
X193843Y121552D01*
X193685Y121369D01*
X193523Y121190D01*
X193356Y121015D01*
X193185Y120844D01*
X193010Y120677D01*
X192831Y120515D01*
X192648Y120357D01*
X192462Y120203D01*
X192272Y120054D01*
X192078Y119910D01*
X191881Y119770D01*
X191680Y119635D01*
X191476Y119505D01*
X191270Y119380D01*
X191060Y119260D01*
X190847Y119145D01*
X190632Y119036D01*
X190414Y118931D01*
X190194Y118832D01*
X189971Y118738D01*
X189746Y118650D01*
X189519Y118567D01*
X189290Y118489D01*
X189059Y118418D01*
X188827Y118351D01*
X188593Y118291D01*
X188358Y118236D01*
X188121Y118186D01*
X187884Y118143D01*
X187645Y118105D01*
X187405Y118073D01*
X187165Y118047D01*
X186924Y118026D01*
X186683Y118012D01*
X186442Y118003D01*
X186200Y118000D01*
X126200Y118000D01*
X125958Y118003D01*
X125717Y118012D01*
X125476Y118026D01*
X125235Y118047D01*
X124995Y118073D01*
X124755Y118105D01*
X124516Y118143D01*
X124279Y118186D01*
X124042Y118236D01*
X123807Y118291D01*
X123573Y118351D01*
X123341Y118418D01*
X123110Y118489D01*
X122881Y118567D01*
X122654Y118650D01*
X122429Y118738D01*
X122206Y118832D01*
X121986Y118931D01*
X121768Y119036D01*
X121553Y119145D01*
X121340Y119260D01*
X121130Y119380D01*
X120924Y119505D01*
X120720Y119635D01*
X120519Y119770D01*
X120322Y119910D01*
X120128Y120054D01*
X119938Y120203D01*
X119752Y120357D01*
X119569Y120515D01*
X119390Y120677D01*
X119215Y120844D01*
X119044Y121015D01*
X118877Y121190D01*
X118715Y121369D01*
X118557Y121552D01*
X118403Y121738D01*
X118254Y121928D01*
X118110Y122122D01*
X117970Y122319D01*
X117835Y122520D01*
X117705Y122724D01*
X117580Y122930D01*
X117460Y123140D01*
X117345Y123353D01*
X117236Y123568D01*
X117131Y123786D01*
X117032Y124006D01*
X116938Y124229D01*
X116850Y124454D01*
X116767Y124681D01*
X116689Y124910D01*
X116618Y125141D01*
X116551Y125373D01*
X116491Y125607D01*
X116436Y125842D01*
X116386Y126079D01*
X116343Y126316D01*
X116305Y126555D01*
X116273Y126795D01*
X116247Y127035D01*
X116226Y127276D01*
X116212Y127517D01*
X116203Y127758D01*
X116200Y128000D01*
X116200Y158000D01*
X116197Y158242D01*
X116188Y158483D01*
X116174Y158724D01*
X116153Y158965D01*
X116127Y159205D01*
X116095Y159445D01*
X116057Y159684D01*
X116014Y159921D01*
X115964Y160158D01*
X115909Y160393D01*
X115849Y160627D01*
X115782Y160859D01*
X115711Y161090D01*
X115633Y161319D01*
X115550Y161546D01*
X115462Y161771D01*
X115368Y161994D01*
X115269Y162214D01*
X115164Y162432D01*
X115055Y162647D01*
X114940Y162860D01*
X114820Y163070D01*
X114695Y163276D01*
X114565Y163480D01*
X114430Y163681D01*
X114290Y163878D01*
X114146Y164072D01*
X113997Y164262D01*
X113843Y164448D01*
X113685Y164631D01*
X113523Y164810D01*
X113356Y164985D01*
X113185Y165156D01*
X113010Y165323D01*
X112831Y165485D01*
X112648Y165643D01*
X112462Y165797D01*
X112272Y165946D01*
X112078Y166090D01*
X111881Y166230D01*
X111680Y166365D01*
X111476Y166495D01*
X111270Y166620D01*
X111060Y166740D01*
X110847Y166855D01*
X110632Y166964D01*
X110414Y167069D01*
X110194Y167168D01*
X109971Y167262D01*
X109746Y167350D01*
X109519Y167433D01*
X109290Y167511D01*
X109059Y167582D01*
X108827Y167649D01*
X108593Y167709D01*
X108358Y167764D01*
X108121Y167814D01*
X107884Y167857D01*
X107645Y167895D01*
X107405Y167927D01*
X107165Y167953D01*
X106924Y167974D01*
X106683Y167988D01*
X106442Y167997D01*
X106200Y168000D01*
X96200Y168000D01*
X126200Y188000D02*
X126200Y268000D01*
X186200Y268000D01*
X206200Y248000D01*
X206200Y188000D01*
X126200Y188000D01*
X156200Y228000D02*
X156203Y228245D01*
X156212Y228491D01*
X156227Y228736D01*
X156248Y228980D01*
X156275Y229224D01*
X156308Y229467D01*
X156347Y229710D01*
X156392Y229951D01*
X156443Y230191D01*
X156500Y230430D01*
X156562Y230667D01*
X156631Y230903D01*
X156705Y231137D01*
X156785Y231369D01*
X156870Y231599D01*
X156961Y231827D01*
X157058Y232052D01*
X157160Y232276D01*
X157268Y232496D01*
X157381Y232714D01*
X157499Y232929D01*
X157623Y233141D01*
X157751Y233350D01*
X157885Y233556D01*
X158024Y233758D01*
X158168Y233957D01*
X158317Y234152D01*
X158470Y234344D01*
X158628Y234532D01*
X158790Y234716D01*
X158958Y234895D01*
X159129Y235071D01*
X159305Y235242D01*
X159484Y235410D01*
X159668Y235572D01*
X159856Y235730D01*
X160048Y235883D01*
X160243Y236032D01*
X160442Y236176D01*
X160644Y236315D01*
X160850Y236449D01*
X161059Y236577D01*
X161271Y236701D01*
X161486Y236819D01*
X161704Y236932D01*
X161924Y237040D01*
X162148Y237142D01*
X162373Y237239D01*
X162601Y237330D01*
X162831Y237415D01*
X163063Y237495D01*
X163297Y237569D01*
X163533Y237638D01*
X163770Y237700D01*
X164009Y237757D01*
X164249Y237808D01*
X164490Y237853D01*
X164733Y237892D01*
X164976Y237925D01*
X165220Y237952D01*
X165464Y237973D01*
X165709Y237988D01*
X165955Y237997D01*
X166200Y238000D01*
X166445Y237997D01*
X166691Y237988D01*
X166936Y237973D01*
X167180Y237952D01*
X167424Y237925D01*
X167667Y237892D01*
X167910Y237853D01*
X168151Y237808D01*
X168391Y237757D01*
X168630Y237700D01*
X168867Y237638D01*
X169103Y237569D01*
X169337Y237495D01*
X169569Y237415D01*
X169799Y237330D01*
X170027Y237239D01*
X170252Y237142D01*
X170476Y237040D01*
X170696Y236932D01*
X170914Y236819D01*
X171129Y236701D01*
X171341Y236577D01*
X171550Y236449D01*
X171756Y236315D01*
X171958Y236176D01*
X172157Y236032D01*
X172352Y235883D01*
X172544Y235730D01*
X172732Y235572D01*
X172916Y235410D01*
X173095Y235242D01*
X173271Y235071D01*
X173442Y234895D01*
X173610Y234716D01*
X173772Y234532D01*
X173930Y234344D01*
X174083Y234152D01*
X174232Y233957D01*
X174376Y233758D01*
X174515Y233556D01*
X174649Y233350D01*
X174777Y233141D01*
X174901Y232929D01*
X175019Y232714D01*
X175132Y232496D01*
X175240Y232276D01*
X175342Y232052D01*
X175439Y231827D01*
X175530Y231599D01*
X175615Y231369D01*
X175695Y231137D01*
X175769Y230903D01*
X175838Y230667D01*
X175900Y230430D01*
X175957Y230191D01*
X176008Y229951D01*
X176053Y229710D01*
X176092Y229467D01*
X176125Y229224D01*
X176152Y228980D01*
X176173Y228736D01*
X176188Y228491D01*
X176197Y228245D01*
X176200Y228000D01*
X176197Y227755D01*
X176188Y227509D01*
X176173Y227264D01*
X176152Y227020D01*
X176125Y226776D01*
X176092Y226533D01*
X176053Y226290D01*
X176008Y226049D01*
X175957Y225809D01*
X175900Y225570D01*
X175838Y225333D01*
X175769Y225097D01*
X175695Y224863D01*
X175615Y224631D01*
X175530Y224401D01*
X175439Y224173D01*
X175342Y223948D01*
X175240Y223724D01*
X175132Y223504D01*
X175019Y223286D01*
X174901Y223071D01*
X174777Y222859D01*
X174649Y222650D01*
X174515Y222444D01*
X174376Y222242D01*
X174232Y222043D01*
X174083Y221848D01*
X173930Y221656D01*
X173772Y221468D01*
X173610Y221284D01*
X173442Y221105D01*
X173271Y220929D01*
X173095Y220758D01*
X172916Y220590D01*
X172732Y220428D01*
X172544Y220270D01*
X172352Y220117D01*
X172157Y219968D01*
X171958Y219824D01*
X171756Y219685D01*
X171550Y219551D01*
X171341Y219423D01*
X171129Y219299D01*
X170914Y219181D01*
X170696Y219068D01*
X170476Y218960D01*
X170252Y218858D01*
X170027Y218761D01*
X169799Y218670D01*
X169569Y218585D01*
X169337Y218505D01*
X169103Y218431D01*
X168867Y218362D01*
X168630Y218300D01*
X168391Y218243D01*
X168151Y218192D01*
X167910Y218147D01*
X167667Y218108D01*
X167424Y218075D01*
X167180Y218048D01*
X166936Y218027D01*
X166691Y218012D01*
X166445Y218003D01*
X166200Y218000D01*
X165955Y218003D01*
X165709Y218012D01*
X165464Y218027D01*
X165220Y218048D01*
X164976Y218075D01*
X164733Y218108D01*
X164490Y218147D01*
X164249Y218192D01*
X164009Y218243D01*
X163770Y218300D01*
X163533Y218362D01*
X163297Y218431D01*
X163063Y218505D01*
X162831Y218585D01*
X162601Y218670D01*
X162373Y218761D01*
X162148Y218858D01*
X161924Y218960D01*
X161704Y219068D01*
X161486Y219181D01*
X161271Y219299D01*
X161059Y219423D01*
X160850Y219551D01*
X160644Y219685D01*
X160442Y219824D01*
X160243Y219968D01*
X160048Y220117D01*
X159856Y220270D01*
X159668Y220428D01*
X159484Y220590D01*
X159305Y220758D01*
X159129Y220929D01*
X158958Y221105D01*
X158790Y221284D01*
X158628Y221468D01*
X158470Y221656D01*
X158317Y221848D01*
X158168Y222043D01*
X158024Y222242D01*
X157885Y222444D01*
X157751Y222650D01*
X157623Y222859D01*
X157499Y223071D01*
X157381Y223286D01*
X157268Y223504D01*
X157160Y223724D01*
X157058Y223948D01*
X156961Y224173D01*
X156870Y224401D01*
X156785Y224631D01*
X156705Y224863D01*
X156631Y225097D01*
X156562Y225333D01*
X156500Y225570D01*
X156443Y225809D01*
X156392Y226049D01*
X156347Y226290D01*
X156308Y226533D01*
X156275Y226776D01*
X156248Y227020D01*
X156227Y227264D01*
X156212Y227509D01*
X156203Y227755D01*
X156200Y228000D01*
M02*
