G04 EAGLE Gerber RS-274X export*
G75*
%MOMM*%
%FSLAX34Y34*%
%LPD*%
%INSoldermask Top*%
%IPPOS*%
%AMOC8*
5,1,8,0,0,1.08239X$1,22.5*%
G01*
%ADD10C,2.203200*%
%ADD11R,1.303200X1.203200*%
%ADD12R,1.203200X1.303200*%
%ADD13P,1.869504X8X202.500000*%
%ADD14R,1.003200X1.003200*%
%ADD15R,1.803200X1.253200*%
%ADD16C,1.711200*%
%ADD17R,0.703200X1.403200*%
%ADD18R,1.403200X0.703200*%
%ADD19C,3.403200*%
%ADD20C,1.511200*%
%ADD21R,1.061200X1.061200*%
%ADD22P,1.869504X8X22.500000*%
%ADD23C,0.959600*%


D10*
X20000Y430000D03*
X20000Y20000D03*
X330000Y20000D03*
X330000Y430000D03*
D11*
X88500Y230000D03*
X71500Y230000D03*
D12*
X210000Y138500D03*
X210000Y121500D03*
X240000Y138500D03*
X240000Y121500D03*
D11*
X88500Y260000D03*
X71500Y260000D03*
D13*
X289300Y48100D03*
X263900Y48100D03*
X238500Y48100D03*
X213100Y48100D03*
X187700Y48100D03*
X162300Y48100D03*
X136900Y48100D03*
X111500Y48100D03*
X86100Y48100D03*
X60700Y48100D03*
X289300Y73500D03*
X263900Y73500D03*
X238500Y73500D03*
X213100Y73500D03*
X187700Y73500D03*
X162300Y73500D03*
X136900Y73500D03*
X111500Y73500D03*
X86100Y73500D03*
X60700Y73500D03*
D14*
X140000Y352500D03*
X140000Y367500D03*
X160000Y352500D03*
X160000Y367500D03*
X180000Y352500D03*
X180000Y367500D03*
D12*
X177060Y256250D03*
X194060Y256250D03*
D11*
X53560Y312830D03*
X53560Y295830D03*
X185000Y316500D03*
X185000Y333500D03*
X135000Y316500D03*
X135000Y333500D03*
X160000Y316500D03*
X160000Y333500D03*
X138100Y248250D03*
X138100Y265250D03*
D15*
X99820Y362580D03*
X99820Y318080D03*
D16*
X220000Y360000D03*
X220000Y335000D03*
X220000Y385000D03*
D17*
X118160Y141180D03*
X126160Y141180D03*
X134160Y141180D03*
X142160Y141180D03*
X150160Y141180D03*
X158160Y141180D03*
X166160Y141180D03*
X174160Y141180D03*
D18*
X103660Y155680D03*
X103660Y163680D03*
X103660Y171680D03*
X103660Y179680D03*
X103660Y187680D03*
X103660Y195680D03*
X103660Y203680D03*
X103660Y211680D03*
X188660Y155680D03*
X188660Y163680D03*
X188660Y171680D03*
X188660Y179680D03*
X188660Y187680D03*
X188660Y195680D03*
X188660Y203680D03*
X188660Y211680D03*
D17*
X118160Y226180D03*
X126160Y226180D03*
X134160Y226180D03*
X142160Y226180D03*
X150160Y226180D03*
X158160Y226180D03*
X166160Y226180D03*
X174160Y226180D03*
D19*
X56200Y108000D03*
X296200Y108000D03*
X296200Y348000D03*
X56200Y348000D03*
D20*
X306820Y177200D02*
X319900Y177200D01*
X319900Y202600D02*
X306820Y202600D01*
X306820Y228000D02*
X319900Y228000D01*
X319900Y253400D02*
X306820Y253400D01*
X306820Y278800D02*
X319900Y278800D01*
D21*
X87300Y288500D03*
X100000Y288500D03*
X112700Y288500D03*
X125400Y288500D03*
X138100Y288500D03*
X150800Y288500D03*
X163500Y288500D03*
X176200Y288500D03*
X188900Y288500D03*
X201600Y288500D03*
X214300Y288500D03*
X227000Y288500D03*
X239700Y288500D03*
X87300Y97500D03*
X100000Y97500D03*
X112700Y97500D03*
X125400Y97500D03*
X138100Y97500D03*
X150800Y97500D03*
X163500Y97500D03*
X176200Y97500D03*
X188900Y97500D03*
X201600Y97500D03*
X214300Y97500D03*
X227000Y97500D03*
X239700Y97500D03*
D16*
X260000Y360000D03*
X260000Y385000D03*
X260000Y335000D03*
D22*
X60500Y411900D03*
X85900Y411900D03*
X111300Y411900D03*
X136700Y411900D03*
X162100Y411900D03*
X187500Y411900D03*
X60500Y386500D03*
X85900Y386500D03*
X111300Y386500D03*
X136700Y386500D03*
X162100Y386500D03*
X187500Y386500D03*
D23*
X82500Y182500D03*
X222500Y127500D03*
X72500Y207500D03*
X150000Y255000D03*
X132500Y237500D03*
X132500Y212500D03*
X27500Y150000D03*
X27500Y197500D03*
X90000Y190000D03*
X75000Y195000D03*
X150000Y367500D03*
X132500Y177500D03*
X150000Y357500D03*
X105000Y235000D03*
X165000Y212500D03*
X37500Y237500D03*
X45000Y397500D03*
X182500Y227500D03*
X37500Y227500D03*
X45000Y37500D03*
X227500Y210000D03*
X210000Y202500D03*
X255000Y155000D03*
X67500Y25000D03*
X45000Y277500D03*
X190000Y235000D03*
X165000Y175000D03*
X100000Y142500D03*
X147500Y155000D03*
X110000Y142500D03*
X322500Y215000D03*
X302500Y70000D03*
M02*
