M48
;GenerationSoftware,Autodesk,EAGLE,9.6.2*%
;CreationDate,2023-07-27T00:00:58Z*%
FMAT,2
ICI,OFF
METRIC,TZ,000.000
T2C1.000
T1C1.200
%
G90
M71
T1
X6430Y21780
X6430Y19240
X6430Y16700
X6430Y14160
X6430Y10350
X6430Y7810
X6430Y5270
X6430Y2730
X6430Y33210
X6430Y30670
X6430Y28130
X6430Y25590
X22606Y30226
X22606Y27686
X22606Y25146
X22606Y18923
X22606Y16383
T2
X23495Y11176
X20995Y11176
X25995Y11176
X16510Y21590
X16510Y13970
X16510Y19050
X16510Y16510
X9906Y31623
X9906Y24003
X9906Y29083
X9906Y26543
X9906Y11430
X9906Y3810
X9906Y8890
X9906Y6350
M30