M48
;GenerationSoftware,Autodesk,EAGLE,9.6.0*%
;CreationDate,2022-06-12T06:37:49Z*%
FMAT,2
ICI,OFF
METRIC,TZ,000.000
T4C0.350
T3C0.650
T2C1.016
T1C2.200
%
G90
M71
T1
X10130Y7860
X38130Y7860
X24130Y41860
T2
X5080Y25400
X44450Y10160
X44450Y7620
X44450Y17780
X44450Y12700
X44450Y15240
X44450Y20320
X44450Y22860
X44450Y25400
X44450Y27940
X44450Y30480
X44450Y33020
X44450Y35560
X44450Y38100
X5080Y35560
X5080Y33020
X5080Y30480
X5080Y27940
X5080Y22860
X5080Y20320
X5080Y17780
X5080Y15240
X5080Y12700
X5080Y10160
X5080Y7620
T3
X27560Y6860
X17400Y8130
X16130Y8130
X18670Y6860
X16130Y6860
X18670Y8130
X17400Y6860
X19940Y6860
X21210Y6860
X22480Y6860
X23750Y6860
X25020Y6860
X26290Y6860
X28830Y6860
X30100Y6860
X31370Y6860
X31370Y8130
X30100Y8130
X27560Y8130
X28830Y8130
X26290Y8130
X25020Y8130
X23750Y8130
X22480Y8130
X21210Y8130
X19940Y8130
T4
X19202Y11735
X12040Y19812
M30