G04 EAGLE Gerber RS-274X export*
G75*
%MOMM*%
%FSLAX34Y34*%
%LPD*%
%INSolderpaste Top*%
%IPPOS*%
%AMOC8*
5,1,8,0,0,1.08239X$1,22.5*%
G01*
%ADD10R,1.100000X1.000000*%
%ADD11R,1.000000X1.100000*%
%ADD12R,0.800000X0.800000*%
%ADD13R,1.600000X1.050000*%
%ADD14R,0.500000X1.200000*%
%ADD15R,1.200000X0.500000*%
%ADD16R,1.100000X0.300000*%


D10*
X78500Y200000D03*
X61500Y200000D03*
D11*
X210000Y138500D03*
X210000Y121500D03*
X240000Y138500D03*
X240000Y121500D03*
D10*
X78500Y230000D03*
X61500Y230000D03*
D12*
X140000Y352500D03*
X140000Y367500D03*
X160000Y352500D03*
X160000Y367500D03*
X180000Y352500D03*
X180000Y367500D03*
D11*
X177060Y256250D03*
X194060Y256250D03*
X237170Y303560D03*
X254170Y303560D03*
D10*
X185000Y316500D03*
X185000Y333500D03*
X135000Y316500D03*
X135000Y333500D03*
X160000Y316500D03*
X160000Y333500D03*
D13*
X99820Y362580D03*
X99820Y318080D03*
D14*
X118160Y141180D03*
X126160Y141180D03*
X134160Y141180D03*
X142160Y141180D03*
X150160Y141180D03*
X158160Y141180D03*
X166160Y141180D03*
X174160Y141180D03*
D15*
X103660Y155680D03*
X103660Y163680D03*
X103660Y171680D03*
X103660Y179680D03*
X103660Y187680D03*
X103660Y195680D03*
X103660Y203680D03*
X103660Y211680D03*
X188660Y155680D03*
X188660Y163680D03*
X188660Y171680D03*
X188660Y179680D03*
X188660Y187680D03*
X188660Y195680D03*
X188660Y203680D03*
X188660Y211680D03*
D14*
X118160Y226180D03*
X126160Y226180D03*
X134160Y226180D03*
X142160Y226180D03*
X150160Y226180D03*
X158160Y226180D03*
X166160Y226180D03*
X174160Y226180D03*
D16*
X45500Y302500D03*
X45500Y297500D03*
X45500Y292500D03*
X45500Y287500D03*
X45500Y282500D03*
X45500Y277500D03*
X45500Y272500D03*
X45500Y267500D03*
X45500Y262500D03*
X45500Y257500D03*
X84500Y257500D03*
X84500Y262500D03*
X84500Y267500D03*
X84500Y272500D03*
X84500Y277500D03*
X84500Y282500D03*
X84500Y287500D03*
X84500Y292500D03*
X84500Y297500D03*
X84500Y302500D03*
D12*
X200000Y352500D03*
X200000Y367500D03*
D10*
X210000Y316500D03*
X210000Y333500D03*
M02*
