G04 EAGLE Gerber RS-274X export*
G75*
%MOMM*%
%FSLAX34Y34*%
%LPD*%
%INSilkscreen Top*%
%IPPOS*%
%AMOC8*
5,1,8,0,0,1.08239X$1,22.5*%
G01*
%ADD10C,0.050800*%
%ADD11C,0.152400*%
%ADD12C,0.762000*%
%ADD13R,0.762000X0.508000*%
%ADD14R,0.762000X1.016000*%
%ADD15R,0.762000X0.762000*%
%ADD16C,0.076200*%
%ADD17C,0.127000*%
%ADD18C,0.025400*%
%ADD19C,0.101600*%
%ADD20R,0.300000X0.060000*%
%ADD21R,0.120000X0.060000*%
%ADD22R,0.240000X0.060000*%
%ADD23R,0.180000X0.060000*%
%ADD24R,0.360000X0.060000*%
%ADD25R,0.660000X0.060000*%
%ADD26R,0.600000X0.060000*%
%ADD27R,0.540000X0.060000*%
%ADD28R,0.480000X0.060000*%
%ADD29R,0.060000X0.060000*%
%ADD30R,0.420000X0.060000*%
%ADD31R,0.720000X0.060000*%
%ADD32R,1.440000X0.060000*%
%ADD33R,2.940000X0.060000*%
%ADD34R,3.180000X0.060000*%
%ADD35R,1.260000X0.060000*%
%ADD36R,1.080000X0.060000*%
%ADD37R,2.520000X0.060000*%
%ADD38R,4.080000X0.060000*%
%ADD39R,4.320000X0.060000*%
%ADD40R,1.620000X0.060000*%
%ADD41R,1.800000X0.060000*%
%ADD42R,1.320000X0.060000*%
%ADD43R,1.920000X0.060000*%
%ADD44R,3.360000X0.060000*%
%ADD45R,0.960000X0.060000*%
%ADD46R,0.840000X0.060000*%
%ADD47R,3.060000X0.060000*%
%ADD48R,3.420000X0.060000*%
%ADD49R,0.900000X0.060000*%
%ADD50R,1.380000X0.060000*%
%ADD51R,1.140000X0.060000*%
%ADD52R,2.340000X0.060000*%
%ADD53R,0.780000X0.060000*%
%ADD54R,2.580000X0.060000*%
%ADD55R,1.500000X0.060000*%
%ADD56R,2.640000X0.060000*%
%ADD57R,2.160000X0.060000*%
%ADD58R,2.760000X0.060000*%
%ADD59R,2.100000X0.060000*%
%ADD60R,2.820000X0.060000*%
%ADD61R,2.040000X0.060000*%
%ADD62R,2.880000X0.060000*%
%ADD63R,1.980000X0.060000*%
%ADD64R,3.000000X0.060000*%
%ADD65R,1.020000X0.060000*%
%ADD66R,3.120000X0.060000*%
%ADD67R,1.560000X0.060000*%
%ADD68R,2.700000X0.060000*%
%ADD69R,4.380000X0.060000*%
%ADD70R,4.260000X0.060000*%
%ADD71R,4.200000X0.060000*%
%ADD72R,4.140000X0.060000*%
%ADD73R,3.960000X0.060000*%
%ADD74R,3.900000X0.060000*%
%ADD75R,1.200000X0.060000*%
%ADD76R,3.540000X0.060000*%
%ADD77R,3.600000X0.060000*%
%ADD78R,3.660000X0.060000*%
%ADD79R,3.300000X0.060000*%
%ADD80R,3.240000X0.060000*%
%ADD81R,2.400000X0.060000*%
%ADD82R,3.780000X0.060000*%
%ADD83R,2.460000X0.060000*%
%ADD84R,2.280000X0.060000*%
%ADD85R,1.740000X0.060000*%
%ADD86R,1.680000X0.060000*%
%ADD87R,3.480000X0.060000*%
%ADD88R,3.840000X0.060000*%
%ADD89R,5.100000X0.060000*%
%ADD90R,3.720000X0.060000*%
%ADD91R,5.220000X0.060000*%
%ADD92R,1.860000X0.060000*%


D10*
X303042Y411048D02*
X300558Y411048D01*
X300481Y411050D01*
X300403Y411056D01*
X300327Y411065D01*
X300250Y411079D01*
X300175Y411096D01*
X300101Y411117D01*
X300027Y411142D01*
X299955Y411170D01*
X299885Y411202D01*
X299816Y411237D01*
X299749Y411276D01*
X299684Y411318D01*
X299621Y411363D01*
X299560Y411411D01*
X299502Y411462D01*
X299447Y411516D01*
X299394Y411573D01*
X299345Y411632D01*
X299298Y411694D01*
X299254Y411758D01*
X299214Y411824D01*
X299177Y411892D01*
X299143Y411962D01*
X299113Y412033D01*
X299087Y412106D01*
X299064Y412180D01*
X299045Y412255D01*
X299030Y412330D01*
X299018Y412407D01*
X299010Y412484D01*
X299006Y412561D01*
X299006Y412639D01*
X299010Y412716D01*
X299018Y412793D01*
X299030Y412870D01*
X299045Y412945D01*
X299064Y413020D01*
X299087Y413094D01*
X299113Y413167D01*
X299143Y413238D01*
X299177Y413308D01*
X299214Y413376D01*
X299254Y413442D01*
X299298Y413506D01*
X299345Y413568D01*
X299394Y413627D01*
X299447Y413684D01*
X299502Y413738D01*
X299560Y413789D01*
X299621Y413837D01*
X299684Y413882D01*
X299749Y413924D01*
X299816Y413963D01*
X299885Y413998D01*
X299955Y414030D01*
X300027Y414058D01*
X300101Y414083D01*
X300175Y414104D01*
X300250Y414121D01*
X300327Y414135D01*
X300403Y414144D01*
X300481Y414150D01*
X300558Y414152D01*
X303042Y414152D01*
X303119Y414150D01*
X303197Y414144D01*
X303273Y414135D01*
X303350Y414121D01*
X303425Y414104D01*
X303499Y414083D01*
X303573Y414058D01*
X303645Y414030D01*
X303715Y413998D01*
X303784Y413963D01*
X303851Y413924D01*
X303916Y413882D01*
X303979Y413837D01*
X304040Y413789D01*
X304098Y413738D01*
X304153Y413684D01*
X304206Y413627D01*
X304255Y413568D01*
X304302Y413506D01*
X304346Y413442D01*
X304386Y413376D01*
X304423Y413308D01*
X304457Y413238D01*
X304487Y413167D01*
X304513Y413094D01*
X304536Y413020D01*
X304555Y412945D01*
X304570Y412870D01*
X304582Y412793D01*
X304590Y412716D01*
X304594Y412639D01*
X304594Y412561D01*
X304590Y412484D01*
X304582Y412407D01*
X304570Y412330D01*
X304555Y412255D01*
X304536Y412180D01*
X304513Y412106D01*
X304487Y412033D01*
X304457Y411962D01*
X304423Y411892D01*
X304386Y411824D01*
X304346Y411758D01*
X304302Y411694D01*
X304255Y411632D01*
X304206Y411573D01*
X304153Y411516D01*
X304098Y411462D01*
X304040Y411411D01*
X303979Y411363D01*
X303916Y411318D01*
X303851Y411276D01*
X303784Y411237D01*
X303715Y411202D01*
X303645Y411170D01*
X303573Y411142D01*
X303499Y411117D01*
X303425Y411096D01*
X303350Y411079D01*
X303273Y411065D01*
X303197Y411056D01*
X303119Y411050D01*
X303042Y411048D01*
X258507Y86378D02*
X257265Y86378D01*
X257195Y86380D01*
X257126Y86386D01*
X257057Y86396D01*
X256989Y86409D01*
X256921Y86427D01*
X256855Y86448D01*
X256790Y86473D01*
X256726Y86501D01*
X256664Y86533D01*
X256604Y86568D01*
X256546Y86607D01*
X256491Y86649D01*
X256437Y86694D01*
X256387Y86742D01*
X256339Y86792D01*
X256294Y86846D01*
X256252Y86901D01*
X256213Y86959D01*
X256178Y87019D01*
X256146Y87081D01*
X256118Y87145D01*
X256093Y87210D01*
X256072Y87276D01*
X256054Y87344D01*
X256041Y87412D01*
X256031Y87481D01*
X256025Y87550D01*
X256023Y87620D01*
X256023Y90724D01*
X256025Y90794D01*
X256031Y90863D01*
X256041Y90932D01*
X256054Y91000D01*
X256072Y91068D01*
X256093Y91134D01*
X256118Y91199D01*
X256146Y91263D01*
X256178Y91325D01*
X256213Y91385D01*
X256252Y91443D01*
X256294Y91498D01*
X256339Y91552D01*
X256387Y91602D01*
X256437Y91650D01*
X256491Y91695D01*
X256546Y91737D01*
X256604Y91776D01*
X256664Y91811D01*
X256726Y91843D01*
X256790Y91871D01*
X256855Y91896D01*
X256921Y91917D01*
X256989Y91935D01*
X257057Y91948D01*
X257126Y91958D01*
X257195Y91964D01*
X257265Y91966D01*
X258507Y91966D01*
X260612Y90724D02*
X262164Y91966D01*
X262164Y86378D01*
X260612Y86378D02*
X263716Y86378D01*
X194758Y262354D02*
X193516Y262354D01*
X193446Y262356D01*
X193377Y262362D01*
X193308Y262372D01*
X193240Y262385D01*
X193172Y262403D01*
X193106Y262424D01*
X193041Y262449D01*
X192977Y262477D01*
X192915Y262509D01*
X192855Y262544D01*
X192797Y262583D01*
X192742Y262625D01*
X192688Y262670D01*
X192638Y262718D01*
X192590Y262768D01*
X192545Y262822D01*
X192503Y262877D01*
X192464Y262935D01*
X192429Y262995D01*
X192397Y263057D01*
X192369Y263121D01*
X192344Y263186D01*
X192323Y263252D01*
X192305Y263320D01*
X192292Y263388D01*
X192282Y263457D01*
X192276Y263526D01*
X192274Y263596D01*
X192274Y266700D01*
X192276Y266770D01*
X192282Y266839D01*
X192292Y266908D01*
X192305Y266976D01*
X192323Y267044D01*
X192344Y267110D01*
X192369Y267175D01*
X192397Y267239D01*
X192429Y267301D01*
X192464Y267361D01*
X192503Y267419D01*
X192545Y267474D01*
X192590Y267528D01*
X192638Y267578D01*
X192688Y267626D01*
X192742Y267671D01*
X192797Y267713D01*
X192855Y267752D01*
X192915Y267787D01*
X192977Y267819D01*
X193041Y267847D01*
X193106Y267872D01*
X193172Y267893D01*
X193240Y267911D01*
X193308Y267924D01*
X193377Y267934D01*
X193446Y267940D01*
X193516Y267942D01*
X194758Y267942D01*
X198570Y267942D02*
X198643Y267940D01*
X198716Y267934D01*
X198789Y267925D01*
X198860Y267911D01*
X198932Y267894D01*
X199002Y267874D01*
X199071Y267849D01*
X199138Y267821D01*
X199204Y267790D01*
X199269Y267755D01*
X199331Y267717D01*
X199391Y267675D01*
X199449Y267631D01*
X199505Y267583D01*
X199558Y267533D01*
X199608Y267480D01*
X199656Y267424D01*
X199700Y267366D01*
X199742Y267306D01*
X199780Y267244D01*
X199815Y267179D01*
X199846Y267113D01*
X199874Y267046D01*
X199899Y266977D01*
X199919Y266907D01*
X199936Y266835D01*
X199950Y266764D01*
X199959Y266691D01*
X199965Y266618D01*
X199967Y266545D01*
X198570Y267942D02*
X198486Y267940D01*
X198403Y267934D01*
X198320Y267925D01*
X198238Y267911D01*
X198156Y267894D01*
X198075Y267872D01*
X197995Y267847D01*
X197917Y267819D01*
X197839Y267787D01*
X197764Y267751D01*
X197690Y267712D01*
X197618Y267669D01*
X197548Y267623D01*
X197481Y267574D01*
X197415Y267521D01*
X197353Y267466D01*
X197293Y267408D01*
X197235Y267347D01*
X197181Y267284D01*
X197129Y267218D01*
X197081Y267150D01*
X197036Y267079D01*
X196994Y267007D01*
X196956Y266932D01*
X196921Y266856D01*
X196890Y266779D01*
X196862Y266700D01*
X199500Y265459D02*
X199554Y265512D01*
X199605Y265569D01*
X199653Y265628D01*
X199698Y265689D01*
X199739Y265752D01*
X199778Y265818D01*
X199813Y265885D01*
X199845Y265954D01*
X199873Y266025D01*
X199897Y266096D01*
X199918Y266169D01*
X199935Y266243D01*
X199949Y266318D01*
X199958Y266393D01*
X199964Y266469D01*
X199966Y266545D01*
X199501Y265458D02*
X196862Y262354D01*
X199967Y262354D01*
X161898Y262354D02*
X160656Y262354D01*
X160586Y262356D01*
X160517Y262362D01*
X160448Y262372D01*
X160380Y262385D01*
X160312Y262403D01*
X160246Y262424D01*
X160181Y262449D01*
X160117Y262477D01*
X160055Y262509D01*
X159995Y262544D01*
X159937Y262583D01*
X159882Y262625D01*
X159828Y262670D01*
X159778Y262718D01*
X159730Y262768D01*
X159685Y262822D01*
X159643Y262877D01*
X159604Y262935D01*
X159569Y262995D01*
X159537Y263057D01*
X159509Y263121D01*
X159484Y263186D01*
X159463Y263252D01*
X159445Y263320D01*
X159432Y263388D01*
X159422Y263457D01*
X159416Y263526D01*
X159414Y263596D01*
X159414Y266700D01*
X159416Y266770D01*
X159422Y266839D01*
X159432Y266908D01*
X159445Y266976D01*
X159463Y267044D01*
X159484Y267110D01*
X159509Y267175D01*
X159537Y267239D01*
X159569Y267301D01*
X159604Y267361D01*
X159643Y267419D01*
X159685Y267474D01*
X159730Y267528D01*
X159778Y267578D01*
X159828Y267626D01*
X159882Y267671D01*
X159937Y267713D01*
X159995Y267752D01*
X160055Y267787D01*
X160117Y267819D01*
X160181Y267847D01*
X160246Y267872D01*
X160312Y267893D01*
X160380Y267911D01*
X160448Y267924D01*
X160517Y267934D01*
X160586Y267940D01*
X160656Y267942D01*
X161898Y267942D01*
X164002Y262354D02*
X165554Y262354D01*
X165631Y262356D01*
X165709Y262362D01*
X165785Y262371D01*
X165862Y262385D01*
X165937Y262402D01*
X166011Y262423D01*
X166085Y262448D01*
X166157Y262476D01*
X166227Y262508D01*
X166296Y262543D01*
X166363Y262582D01*
X166428Y262624D01*
X166491Y262669D01*
X166552Y262717D01*
X166610Y262768D01*
X166665Y262822D01*
X166718Y262879D01*
X166767Y262938D01*
X166814Y263000D01*
X166858Y263064D01*
X166898Y263130D01*
X166935Y263198D01*
X166969Y263268D01*
X166999Y263339D01*
X167025Y263412D01*
X167048Y263486D01*
X167067Y263561D01*
X167082Y263636D01*
X167094Y263713D01*
X167102Y263790D01*
X167106Y263867D01*
X167106Y263945D01*
X167102Y264022D01*
X167094Y264099D01*
X167082Y264176D01*
X167067Y264251D01*
X167048Y264326D01*
X167025Y264400D01*
X166999Y264473D01*
X166969Y264544D01*
X166935Y264614D01*
X166898Y264682D01*
X166858Y264748D01*
X166814Y264812D01*
X166767Y264874D01*
X166718Y264933D01*
X166665Y264990D01*
X166610Y265044D01*
X166552Y265095D01*
X166491Y265143D01*
X166428Y265188D01*
X166363Y265230D01*
X166296Y265269D01*
X166227Y265304D01*
X166157Y265336D01*
X166085Y265364D01*
X166011Y265389D01*
X165937Y265410D01*
X165862Y265427D01*
X165785Y265441D01*
X165709Y265450D01*
X165631Y265456D01*
X165554Y265458D01*
X165865Y267942D02*
X164002Y267942D01*
X165865Y267942D02*
X165935Y267940D01*
X166004Y267934D01*
X166073Y267924D01*
X166141Y267911D01*
X166209Y267893D01*
X166275Y267872D01*
X166340Y267847D01*
X166404Y267819D01*
X166466Y267787D01*
X166526Y267752D01*
X166584Y267713D01*
X166639Y267671D01*
X166693Y267626D01*
X166743Y267578D01*
X166791Y267528D01*
X166836Y267474D01*
X166878Y267419D01*
X166917Y267361D01*
X166952Y267301D01*
X166984Y267239D01*
X167012Y267175D01*
X167037Y267110D01*
X167058Y267044D01*
X167076Y266976D01*
X167089Y266908D01*
X167099Y266839D01*
X167105Y266770D01*
X167107Y266700D01*
X167105Y266630D01*
X167099Y266561D01*
X167089Y266492D01*
X167076Y266424D01*
X167058Y266356D01*
X167037Y266290D01*
X167012Y266225D01*
X166984Y266161D01*
X166952Y266099D01*
X166917Y266039D01*
X166878Y265981D01*
X166836Y265926D01*
X166791Y265872D01*
X166743Y265822D01*
X166693Y265774D01*
X166639Y265729D01*
X166584Y265687D01*
X166526Y265648D01*
X166466Y265613D01*
X166404Y265581D01*
X166340Y265553D01*
X166275Y265528D01*
X166209Y265507D01*
X166141Y265489D01*
X166073Y265476D01*
X166004Y265466D01*
X165935Y265460D01*
X165865Y265458D01*
X164623Y265458D01*
X197156Y147764D02*
X198398Y147764D01*
X197156Y147764D02*
X197086Y147766D01*
X197017Y147772D01*
X196948Y147782D01*
X196880Y147795D01*
X196812Y147813D01*
X196746Y147834D01*
X196681Y147859D01*
X196617Y147887D01*
X196555Y147919D01*
X196495Y147954D01*
X196437Y147993D01*
X196382Y148035D01*
X196328Y148080D01*
X196278Y148128D01*
X196230Y148178D01*
X196185Y148232D01*
X196143Y148287D01*
X196104Y148345D01*
X196069Y148405D01*
X196037Y148467D01*
X196009Y148531D01*
X195984Y148596D01*
X195963Y148662D01*
X195945Y148730D01*
X195932Y148798D01*
X195922Y148867D01*
X195916Y148936D01*
X195914Y149006D01*
X195914Y152110D01*
X195916Y152180D01*
X195922Y152249D01*
X195932Y152318D01*
X195945Y152386D01*
X195963Y152454D01*
X195984Y152520D01*
X196009Y152585D01*
X196037Y152649D01*
X196069Y152711D01*
X196104Y152771D01*
X196143Y152829D01*
X196185Y152884D01*
X196230Y152938D01*
X196278Y152988D01*
X196328Y153036D01*
X196382Y153081D01*
X196437Y153123D01*
X196495Y153162D01*
X196555Y153197D01*
X196617Y153229D01*
X196681Y153257D01*
X196746Y153282D01*
X196812Y153303D01*
X196880Y153321D01*
X196948Y153334D01*
X197017Y153344D01*
X197086Y153350D01*
X197156Y153352D01*
X198398Y153352D01*
X200502Y147764D02*
X202365Y147764D01*
X202435Y147766D01*
X202504Y147772D01*
X202573Y147782D01*
X202641Y147795D01*
X202709Y147813D01*
X202775Y147834D01*
X202840Y147859D01*
X202904Y147887D01*
X202966Y147919D01*
X203026Y147954D01*
X203084Y147993D01*
X203139Y148035D01*
X203193Y148080D01*
X203243Y148128D01*
X203291Y148178D01*
X203336Y148232D01*
X203378Y148287D01*
X203417Y148345D01*
X203452Y148405D01*
X203484Y148467D01*
X203512Y148531D01*
X203537Y148596D01*
X203558Y148662D01*
X203576Y148730D01*
X203589Y148798D01*
X203599Y148867D01*
X203605Y148936D01*
X203607Y149006D01*
X203607Y149627D01*
X203605Y149697D01*
X203599Y149766D01*
X203589Y149835D01*
X203576Y149903D01*
X203558Y149971D01*
X203537Y150037D01*
X203512Y150102D01*
X203484Y150166D01*
X203452Y150228D01*
X203417Y150288D01*
X203378Y150346D01*
X203336Y150401D01*
X203291Y150455D01*
X203243Y150505D01*
X203193Y150553D01*
X203139Y150598D01*
X203084Y150640D01*
X203026Y150679D01*
X202966Y150714D01*
X202904Y150746D01*
X202840Y150774D01*
X202775Y150799D01*
X202709Y150820D01*
X202641Y150838D01*
X202573Y150851D01*
X202504Y150861D01*
X202435Y150867D01*
X202365Y150869D01*
X202365Y150868D02*
X200502Y150868D01*
X200502Y153352D01*
X203607Y153352D01*
D11*
X276600Y29050D02*
X302000Y29050D01*
X276600Y29050D02*
X276600Y3650D01*
X302000Y3650D01*
X302000Y29050D01*
D12*
X289300Y-2700D02*
X289300Y-59850D01*
D11*
X276600Y29050D02*
X251200Y29050D01*
X251200Y3650D01*
X276600Y3650D01*
D12*
X263900Y-2700D02*
X263900Y-59850D01*
D11*
X251200Y29050D02*
X225800Y29050D01*
X225800Y3650D01*
X251200Y3650D01*
D12*
X238500Y-2700D02*
X238500Y-59850D01*
D11*
X225800Y29050D02*
X200400Y29050D01*
X200400Y3650D01*
X225800Y3650D01*
D12*
X213100Y-2700D02*
X213100Y-59850D01*
D11*
X200400Y29050D02*
X175000Y29050D01*
X175000Y3650D01*
X200400Y3650D01*
D12*
X187700Y-2700D02*
X187700Y-59850D01*
D11*
X175000Y29050D02*
X149600Y29050D01*
X149600Y3650D01*
X175000Y3650D01*
D12*
X162300Y-2700D02*
X162300Y-59850D01*
D11*
X149600Y29050D02*
X124200Y29050D01*
X124200Y3650D01*
X149600Y3650D01*
D12*
X136900Y-2700D02*
X136900Y-59850D01*
D11*
X124200Y29050D02*
X98800Y29050D01*
X98800Y3650D01*
X124200Y3650D01*
D12*
X111500Y-2700D02*
X111500Y-59850D01*
D11*
X98800Y29050D02*
X73400Y29050D01*
X73400Y3650D01*
X98800Y3650D01*
D12*
X86100Y-2700D02*
X86100Y-59850D01*
D11*
X73400Y29050D02*
X48000Y29050D01*
X48000Y3650D01*
X73400Y3650D01*
D12*
X60700Y-2700D02*
X60700Y-59850D01*
D13*
X289300Y1110D03*
X263900Y1110D03*
X238500Y1110D03*
X213100Y1110D03*
X187700Y1110D03*
X162300Y1110D03*
X136900Y1110D03*
X111500Y1110D03*
X86100Y1110D03*
X60700Y1110D03*
D14*
X289300Y34130D03*
X263900Y34130D03*
D15*
X289300Y60800D03*
X263900Y60800D03*
D14*
X238500Y34130D03*
X213100Y34130D03*
D15*
X238500Y60800D03*
X213100Y60800D03*
D14*
X187700Y34130D03*
X162300Y34130D03*
D15*
X187700Y60800D03*
X162300Y60800D03*
D14*
X136900Y34130D03*
X111500Y34130D03*
D15*
X136900Y60800D03*
X111500Y60800D03*
D14*
X86100Y34130D03*
X60700Y34130D03*
D15*
X86100Y60800D03*
X60700Y60800D03*
D16*
X52000Y306000D02*
X52000Y314000D01*
X48000Y310000D01*
X52000Y306000D01*
X48000Y306000D02*
X48000Y314000D01*
X42000Y310000D02*
X58000Y310000D01*
X37114Y304919D02*
X37114Y297553D01*
X40388Y297553D01*
X43454Y297553D02*
X46727Y297553D01*
X43454Y297553D02*
X43454Y304919D01*
X46727Y304919D01*
X45909Y301645D02*
X43454Y301645D01*
X49778Y304919D02*
X49778Y297553D01*
X49778Y304919D02*
X51824Y304919D01*
X51913Y304917D01*
X52002Y304911D01*
X52091Y304901D01*
X52179Y304888D01*
X52267Y304871D01*
X52354Y304849D01*
X52439Y304824D01*
X52524Y304796D01*
X52607Y304763D01*
X52689Y304727D01*
X52769Y304688D01*
X52847Y304645D01*
X52923Y304599D01*
X52998Y304549D01*
X53070Y304496D01*
X53139Y304440D01*
X53206Y304381D01*
X53271Y304320D01*
X53332Y304255D01*
X53391Y304188D01*
X53447Y304119D01*
X53500Y304047D01*
X53550Y303972D01*
X53596Y303896D01*
X53639Y303818D01*
X53678Y303738D01*
X53714Y303656D01*
X53747Y303573D01*
X53775Y303488D01*
X53800Y303403D01*
X53822Y303316D01*
X53839Y303228D01*
X53852Y303140D01*
X53862Y303051D01*
X53868Y302962D01*
X53870Y302873D01*
X53870Y299599D01*
X53868Y299510D01*
X53862Y299421D01*
X53852Y299332D01*
X53839Y299244D01*
X53822Y299156D01*
X53800Y299069D01*
X53775Y298984D01*
X53747Y298899D01*
X53714Y298816D01*
X53678Y298734D01*
X53639Y298654D01*
X53596Y298576D01*
X53550Y298500D01*
X53500Y298425D01*
X53447Y298353D01*
X53391Y298284D01*
X53332Y298217D01*
X53271Y298152D01*
X53206Y298091D01*
X53139Y298032D01*
X53070Y297976D01*
X52998Y297923D01*
X52923Y297873D01*
X52847Y297827D01*
X52769Y297784D01*
X52689Y297745D01*
X52607Y297709D01*
X52524Y297676D01*
X52439Y297648D01*
X52354Y297623D01*
X52267Y297601D01*
X52179Y297584D01*
X52091Y297571D01*
X52002Y297561D01*
X51913Y297555D01*
X51824Y297553D01*
X49778Y297553D01*
X57337Y301236D02*
X57339Y301389D01*
X57345Y301542D01*
X57354Y301694D01*
X57368Y301847D01*
X57385Y301999D01*
X57406Y302150D01*
X57431Y302301D01*
X57460Y302451D01*
X57492Y302601D01*
X57529Y302749D01*
X57569Y302897D01*
X57612Y303044D01*
X57660Y303189D01*
X57711Y303333D01*
X57765Y303476D01*
X57824Y303618D01*
X57885Y303757D01*
X57951Y303896D01*
X57977Y303966D01*
X58007Y304036D01*
X58040Y304103D01*
X58076Y304169D01*
X58115Y304233D01*
X58158Y304295D01*
X58204Y304354D01*
X58252Y304412D01*
X58303Y304466D01*
X58357Y304519D01*
X58414Y304568D01*
X58473Y304615D01*
X58534Y304658D01*
X58597Y304699D01*
X58662Y304736D01*
X58729Y304771D01*
X58798Y304801D01*
X58868Y304829D01*
X58939Y304852D01*
X59011Y304873D01*
X59084Y304889D01*
X59158Y304902D01*
X59233Y304912D01*
X59308Y304917D01*
X59383Y304919D01*
X59458Y304917D01*
X59533Y304912D01*
X59608Y304902D01*
X59682Y304889D01*
X59755Y304873D01*
X59827Y304852D01*
X59898Y304829D01*
X59968Y304801D01*
X60037Y304771D01*
X60104Y304736D01*
X60169Y304699D01*
X60232Y304658D01*
X60293Y304615D01*
X60352Y304568D01*
X60409Y304519D01*
X60463Y304466D01*
X60514Y304412D01*
X60563Y304354D01*
X60608Y304295D01*
X60651Y304233D01*
X60690Y304169D01*
X60727Y304103D01*
X60759Y304035D01*
X60789Y303966D01*
X60815Y303896D01*
X60880Y303758D01*
X60942Y303618D01*
X61000Y303476D01*
X61055Y303333D01*
X61106Y303189D01*
X61154Y303044D01*
X61197Y302897D01*
X61237Y302750D01*
X61274Y302601D01*
X61306Y302451D01*
X61335Y302301D01*
X61360Y302150D01*
X61381Y301999D01*
X61398Y301847D01*
X61412Y301694D01*
X61421Y301542D01*
X61427Y301389D01*
X61429Y301236D01*
X57336Y301236D02*
X57338Y301083D01*
X57344Y300930D01*
X57353Y300777D01*
X57367Y300625D01*
X57384Y300473D01*
X57405Y300322D01*
X57430Y300171D01*
X57459Y300020D01*
X57491Y299871D01*
X57528Y299722D01*
X57568Y299575D01*
X57611Y299428D01*
X57659Y299283D01*
X57710Y299138D01*
X57765Y298996D01*
X57823Y298854D01*
X57885Y298714D01*
X57950Y298576D01*
X57951Y298576D02*
X57977Y298505D01*
X58007Y298436D01*
X58040Y298369D01*
X58076Y298303D01*
X58115Y298239D01*
X58158Y298177D01*
X58204Y298118D01*
X58252Y298060D01*
X58303Y298006D01*
X58357Y297953D01*
X58414Y297904D01*
X58473Y297857D01*
X58534Y297814D01*
X58597Y297773D01*
X58662Y297736D01*
X58729Y297701D01*
X58798Y297671D01*
X58868Y297643D01*
X58939Y297620D01*
X59011Y297599D01*
X59084Y297583D01*
X59158Y297570D01*
X59233Y297560D01*
X59308Y297555D01*
X59383Y297553D01*
X60815Y298576D02*
X60880Y298714D01*
X60942Y298854D01*
X61000Y298996D01*
X61055Y299139D01*
X61106Y299283D01*
X61154Y299428D01*
X61197Y299575D01*
X61237Y299723D01*
X61274Y299871D01*
X61306Y300021D01*
X61335Y300171D01*
X61360Y300322D01*
X61381Y300473D01*
X61398Y300625D01*
X61412Y300778D01*
X61421Y300930D01*
X61427Y301083D01*
X61429Y301236D01*
X60815Y298576D02*
X60789Y298506D01*
X60759Y298436D01*
X60727Y298369D01*
X60690Y298303D01*
X60651Y298239D01*
X60608Y298177D01*
X60562Y298118D01*
X60514Y298060D01*
X60463Y298006D01*
X60409Y297953D01*
X60352Y297904D01*
X60293Y297857D01*
X60232Y297814D01*
X60169Y297773D01*
X60104Y297736D01*
X60037Y297701D01*
X59968Y297671D01*
X59898Y297643D01*
X59827Y297620D01*
X59755Y297599D01*
X59682Y297583D01*
X59608Y297570D01*
X59533Y297560D01*
X59458Y297555D01*
X59383Y297553D01*
X57746Y299190D02*
X61020Y303282D01*
X102000Y306000D02*
X102000Y314000D01*
X98000Y310000D01*
X102000Y306000D01*
X98000Y306000D02*
X98000Y314000D01*
X92000Y310000D02*
X108000Y310000D01*
X87114Y304919D02*
X87114Y297553D01*
X90388Y297553D01*
X93454Y297553D02*
X96727Y297553D01*
X93454Y297553D02*
X93454Y304919D01*
X96727Y304919D01*
X95909Y301645D02*
X93454Y301645D01*
X99778Y304919D02*
X99778Y297553D01*
X99778Y304919D02*
X101824Y304919D01*
X101913Y304917D01*
X102002Y304911D01*
X102091Y304901D01*
X102179Y304888D01*
X102267Y304871D01*
X102354Y304849D01*
X102439Y304824D01*
X102524Y304796D01*
X102607Y304763D01*
X102689Y304727D01*
X102769Y304688D01*
X102847Y304645D01*
X102923Y304599D01*
X102998Y304549D01*
X103070Y304496D01*
X103139Y304440D01*
X103206Y304381D01*
X103271Y304320D01*
X103332Y304255D01*
X103391Y304188D01*
X103447Y304119D01*
X103500Y304047D01*
X103550Y303972D01*
X103596Y303896D01*
X103639Y303818D01*
X103678Y303738D01*
X103714Y303656D01*
X103747Y303573D01*
X103775Y303488D01*
X103800Y303403D01*
X103822Y303316D01*
X103839Y303228D01*
X103852Y303140D01*
X103862Y303051D01*
X103868Y302962D01*
X103870Y302873D01*
X103870Y299599D01*
X103868Y299510D01*
X103862Y299421D01*
X103852Y299332D01*
X103839Y299244D01*
X103822Y299156D01*
X103800Y299069D01*
X103775Y298984D01*
X103747Y298899D01*
X103714Y298816D01*
X103678Y298734D01*
X103639Y298654D01*
X103596Y298576D01*
X103550Y298500D01*
X103500Y298425D01*
X103447Y298353D01*
X103391Y298284D01*
X103332Y298217D01*
X103271Y298152D01*
X103206Y298091D01*
X103139Y298032D01*
X103070Y297976D01*
X102998Y297923D01*
X102923Y297873D01*
X102847Y297827D01*
X102769Y297784D01*
X102689Y297745D01*
X102607Y297709D01*
X102524Y297676D01*
X102439Y297648D01*
X102354Y297623D01*
X102267Y297601D01*
X102179Y297584D01*
X102091Y297571D01*
X102002Y297561D01*
X101913Y297555D01*
X101824Y297553D01*
X99778Y297553D01*
X107337Y303282D02*
X109383Y304919D01*
X109383Y297553D01*
X107337Y297553D02*
X111429Y297553D01*
X152000Y306000D02*
X152000Y314000D01*
X148000Y310000D01*
X152000Y306000D01*
X148000Y306000D02*
X148000Y314000D01*
X142000Y310000D02*
X158000Y310000D01*
X140822Y304919D02*
X140822Y297553D01*
X140822Y304919D02*
X142868Y304919D01*
X142957Y304917D01*
X143046Y304911D01*
X143135Y304901D01*
X143223Y304888D01*
X143311Y304871D01*
X143398Y304849D01*
X143483Y304824D01*
X143568Y304796D01*
X143651Y304763D01*
X143733Y304727D01*
X143813Y304688D01*
X143891Y304645D01*
X143967Y304599D01*
X144042Y304549D01*
X144114Y304496D01*
X144183Y304440D01*
X144250Y304381D01*
X144315Y304320D01*
X144376Y304255D01*
X144435Y304188D01*
X144491Y304119D01*
X144544Y304047D01*
X144594Y303972D01*
X144640Y303896D01*
X144683Y303818D01*
X144722Y303738D01*
X144758Y303656D01*
X144791Y303573D01*
X144819Y303488D01*
X144844Y303403D01*
X144866Y303316D01*
X144883Y303228D01*
X144896Y303140D01*
X144906Y303051D01*
X144912Y302962D01*
X144914Y302873D01*
X144912Y302784D01*
X144906Y302695D01*
X144896Y302606D01*
X144883Y302518D01*
X144866Y302430D01*
X144844Y302343D01*
X144819Y302258D01*
X144791Y302173D01*
X144758Y302090D01*
X144722Y302008D01*
X144683Y301928D01*
X144640Y301850D01*
X144594Y301774D01*
X144544Y301699D01*
X144491Y301627D01*
X144435Y301558D01*
X144376Y301491D01*
X144315Y301426D01*
X144250Y301365D01*
X144183Y301306D01*
X144114Y301250D01*
X144042Y301197D01*
X143967Y301147D01*
X143891Y301101D01*
X143813Y301058D01*
X143733Y301019D01*
X143651Y300983D01*
X143568Y300950D01*
X143483Y300922D01*
X143398Y300897D01*
X143311Y300875D01*
X143223Y300858D01*
X143135Y300845D01*
X143046Y300835D01*
X142957Y300829D01*
X142868Y300827D01*
X140822Y300827D01*
X147524Y304919D02*
X149160Y297553D01*
X150797Y302464D01*
X152434Y297553D01*
X154071Y304919D01*
X157337Y304919D02*
X157337Y297553D01*
X157337Y304919D02*
X159383Y304919D01*
X159472Y304917D01*
X159561Y304911D01*
X159650Y304901D01*
X159738Y304888D01*
X159826Y304871D01*
X159913Y304849D01*
X159998Y304824D01*
X160083Y304796D01*
X160166Y304763D01*
X160248Y304727D01*
X160328Y304688D01*
X160406Y304645D01*
X160482Y304599D01*
X160557Y304549D01*
X160629Y304496D01*
X160698Y304440D01*
X160765Y304381D01*
X160830Y304320D01*
X160891Y304255D01*
X160950Y304188D01*
X161006Y304119D01*
X161059Y304047D01*
X161109Y303972D01*
X161155Y303896D01*
X161198Y303818D01*
X161237Y303738D01*
X161273Y303656D01*
X161306Y303573D01*
X161334Y303488D01*
X161359Y303403D01*
X161381Y303316D01*
X161398Y303228D01*
X161411Y303140D01*
X161421Y303051D01*
X161427Y302962D01*
X161429Y302873D01*
X161427Y302784D01*
X161421Y302695D01*
X161411Y302606D01*
X161398Y302518D01*
X161381Y302430D01*
X161359Y302343D01*
X161334Y302258D01*
X161306Y302173D01*
X161273Y302090D01*
X161237Y302008D01*
X161198Y301928D01*
X161155Y301850D01*
X161109Y301774D01*
X161059Y301699D01*
X161006Y301627D01*
X160950Y301558D01*
X160891Y301491D01*
X160830Y301426D01*
X160765Y301365D01*
X160698Y301306D01*
X160629Y301250D01*
X160557Y301197D01*
X160482Y301147D01*
X160406Y301101D01*
X160328Y301058D01*
X160248Y301019D01*
X160166Y300983D01*
X160083Y300950D01*
X159998Y300922D01*
X159913Y300897D01*
X159826Y300875D01*
X159738Y300858D01*
X159650Y300845D01*
X159561Y300835D01*
X159472Y300829D01*
X159383Y300827D01*
X157337Y300827D01*
X159792Y300827D02*
X161429Y297553D01*
D10*
X295794Y91892D02*
X295794Y86304D01*
X295794Y91892D02*
X297346Y91892D01*
X297423Y91890D01*
X297501Y91884D01*
X297577Y91875D01*
X297654Y91861D01*
X297729Y91844D01*
X297803Y91823D01*
X297877Y91798D01*
X297949Y91770D01*
X298019Y91738D01*
X298088Y91703D01*
X298155Y91664D01*
X298220Y91622D01*
X298283Y91577D01*
X298344Y91529D01*
X298402Y91478D01*
X298457Y91424D01*
X298510Y91367D01*
X298559Y91308D01*
X298606Y91246D01*
X298650Y91182D01*
X298690Y91116D01*
X298727Y91048D01*
X298761Y90978D01*
X298791Y90907D01*
X298817Y90834D01*
X298840Y90760D01*
X298859Y90685D01*
X298874Y90610D01*
X298886Y90533D01*
X298894Y90456D01*
X298898Y90379D01*
X298898Y90301D01*
X298894Y90224D01*
X298886Y90147D01*
X298874Y90070D01*
X298859Y89995D01*
X298840Y89920D01*
X298817Y89846D01*
X298791Y89773D01*
X298761Y89702D01*
X298727Y89632D01*
X298690Y89564D01*
X298650Y89498D01*
X298606Y89434D01*
X298559Y89372D01*
X298510Y89313D01*
X298457Y89256D01*
X298402Y89202D01*
X298344Y89151D01*
X298283Y89103D01*
X298220Y89058D01*
X298155Y89016D01*
X298088Y88977D01*
X298019Y88942D01*
X297949Y88910D01*
X297877Y88882D01*
X297803Y88857D01*
X297729Y88836D01*
X297654Y88819D01*
X297577Y88805D01*
X297501Y88796D01*
X297423Y88790D01*
X297346Y88788D01*
X295794Y88788D01*
X297657Y88788D02*
X298898Y86304D01*
X301244Y90650D02*
X302797Y91892D01*
X302797Y86304D01*
X304349Y86304D02*
X301244Y86304D01*
X284894Y242284D02*
X284894Y247872D01*
X286446Y247872D01*
X286523Y247870D01*
X286601Y247864D01*
X286677Y247855D01*
X286754Y247841D01*
X286829Y247824D01*
X286903Y247803D01*
X286977Y247778D01*
X287049Y247750D01*
X287119Y247718D01*
X287188Y247683D01*
X287255Y247644D01*
X287320Y247602D01*
X287383Y247557D01*
X287444Y247509D01*
X287502Y247458D01*
X287557Y247404D01*
X287610Y247347D01*
X287659Y247288D01*
X287706Y247226D01*
X287750Y247162D01*
X287790Y247096D01*
X287827Y247028D01*
X287861Y246958D01*
X287891Y246887D01*
X287917Y246814D01*
X287940Y246740D01*
X287959Y246665D01*
X287974Y246590D01*
X287986Y246513D01*
X287994Y246436D01*
X287998Y246359D01*
X287998Y246281D01*
X287994Y246204D01*
X287986Y246127D01*
X287974Y246050D01*
X287959Y245975D01*
X287940Y245900D01*
X287917Y245826D01*
X287891Y245753D01*
X287861Y245682D01*
X287827Y245612D01*
X287790Y245544D01*
X287750Y245478D01*
X287706Y245414D01*
X287659Y245352D01*
X287610Y245293D01*
X287557Y245236D01*
X287502Y245182D01*
X287444Y245131D01*
X287383Y245083D01*
X287320Y245038D01*
X287255Y244996D01*
X287188Y244957D01*
X287119Y244922D01*
X287049Y244890D01*
X286977Y244862D01*
X286903Y244837D01*
X286829Y244816D01*
X286754Y244799D01*
X286677Y244785D01*
X286601Y244776D01*
X286523Y244770D01*
X286446Y244768D01*
X284894Y244768D01*
X286757Y244768D02*
X287998Y242284D01*
X290344Y246630D02*
X291897Y247872D01*
X291897Y242284D01*
X293449Y242284D02*
X290344Y242284D01*
X295831Y246630D02*
X297383Y247872D01*
X297383Y242284D01*
X295831Y242284D02*
X298935Y242284D01*
X184324Y-1098D02*
X184324Y-6686D01*
X184324Y-1098D02*
X185876Y-1098D01*
X185953Y-1100D01*
X186031Y-1106D01*
X186107Y-1115D01*
X186184Y-1129D01*
X186259Y-1146D01*
X186333Y-1167D01*
X186407Y-1192D01*
X186479Y-1220D01*
X186549Y-1252D01*
X186618Y-1287D01*
X186685Y-1326D01*
X186750Y-1368D01*
X186813Y-1413D01*
X186874Y-1461D01*
X186932Y-1512D01*
X186987Y-1566D01*
X187040Y-1623D01*
X187089Y-1682D01*
X187136Y-1744D01*
X187180Y-1808D01*
X187220Y-1874D01*
X187257Y-1942D01*
X187291Y-2012D01*
X187321Y-2083D01*
X187347Y-2156D01*
X187370Y-2230D01*
X187389Y-2305D01*
X187404Y-2380D01*
X187416Y-2457D01*
X187424Y-2534D01*
X187428Y-2611D01*
X187428Y-2689D01*
X187424Y-2766D01*
X187416Y-2843D01*
X187404Y-2920D01*
X187389Y-2995D01*
X187370Y-3070D01*
X187347Y-3144D01*
X187321Y-3217D01*
X187291Y-3288D01*
X187257Y-3358D01*
X187220Y-3426D01*
X187180Y-3492D01*
X187136Y-3556D01*
X187089Y-3618D01*
X187040Y-3677D01*
X186987Y-3734D01*
X186932Y-3788D01*
X186874Y-3839D01*
X186813Y-3887D01*
X186750Y-3932D01*
X186685Y-3974D01*
X186618Y-4013D01*
X186549Y-4048D01*
X186479Y-4080D01*
X186407Y-4108D01*
X186333Y-4133D01*
X186259Y-4154D01*
X186184Y-4171D01*
X186107Y-4185D01*
X186031Y-4194D01*
X185953Y-4200D01*
X185876Y-4202D01*
X184324Y-4202D01*
X186187Y-4202D02*
X187428Y-6686D01*
X192879Y-2495D02*
X192877Y-2422D01*
X192871Y-2349D01*
X192862Y-2276D01*
X192848Y-2205D01*
X192831Y-2133D01*
X192811Y-2063D01*
X192786Y-1994D01*
X192758Y-1927D01*
X192727Y-1861D01*
X192692Y-1797D01*
X192654Y-1734D01*
X192612Y-1674D01*
X192568Y-1616D01*
X192520Y-1560D01*
X192470Y-1507D01*
X192417Y-1457D01*
X192361Y-1409D01*
X192303Y-1365D01*
X192243Y-1323D01*
X192181Y-1285D01*
X192116Y-1250D01*
X192050Y-1219D01*
X191983Y-1191D01*
X191914Y-1166D01*
X191844Y-1146D01*
X191772Y-1129D01*
X191701Y-1115D01*
X191628Y-1106D01*
X191555Y-1100D01*
X191482Y-1098D01*
X191398Y-1100D01*
X191315Y-1106D01*
X191232Y-1115D01*
X191149Y-1129D01*
X191068Y-1146D01*
X190987Y-1168D01*
X190907Y-1193D01*
X190829Y-1221D01*
X190751Y-1253D01*
X190676Y-1289D01*
X190602Y-1328D01*
X190530Y-1371D01*
X190460Y-1417D01*
X190393Y-1466D01*
X190327Y-1519D01*
X190265Y-1574D01*
X190205Y-1632D01*
X190147Y-1693D01*
X190093Y-1756D01*
X190041Y-1822D01*
X189993Y-1890D01*
X189948Y-1961D01*
X189906Y-2033D01*
X189868Y-2108D01*
X189833Y-2184D01*
X189802Y-2261D01*
X189774Y-2340D01*
X192412Y-3581D02*
X192466Y-3528D01*
X192517Y-3471D01*
X192565Y-3412D01*
X192610Y-3351D01*
X192651Y-3288D01*
X192690Y-3222D01*
X192725Y-3155D01*
X192757Y-3086D01*
X192785Y-3015D01*
X192809Y-2944D01*
X192830Y-2871D01*
X192847Y-2797D01*
X192861Y-2722D01*
X192870Y-2647D01*
X192876Y-2571D01*
X192878Y-2495D01*
X192413Y-3582D02*
X189774Y-6686D01*
X192879Y-6686D01*
X170401Y334158D02*
X170401Y339746D01*
X171954Y339746D01*
X172031Y339744D01*
X172109Y339738D01*
X172185Y339729D01*
X172262Y339715D01*
X172337Y339698D01*
X172411Y339677D01*
X172485Y339652D01*
X172557Y339624D01*
X172627Y339592D01*
X172696Y339557D01*
X172763Y339518D01*
X172828Y339476D01*
X172891Y339431D01*
X172952Y339383D01*
X173010Y339332D01*
X173065Y339278D01*
X173118Y339221D01*
X173167Y339162D01*
X173214Y339100D01*
X173258Y339036D01*
X173298Y338970D01*
X173335Y338902D01*
X173369Y338832D01*
X173399Y338761D01*
X173425Y338688D01*
X173448Y338614D01*
X173467Y338539D01*
X173482Y338464D01*
X173494Y338387D01*
X173502Y338310D01*
X173506Y338233D01*
X173506Y338155D01*
X173502Y338078D01*
X173494Y338001D01*
X173482Y337924D01*
X173467Y337849D01*
X173448Y337774D01*
X173425Y337700D01*
X173399Y337627D01*
X173369Y337556D01*
X173335Y337486D01*
X173298Y337418D01*
X173258Y337352D01*
X173214Y337288D01*
X173167Y337226D01*
X173118Y337167D01*
X173065Y337110D01*
X173010Y337056D01*
X172952Y337005D01*
X172891Y336957D01*
X172828Y336912D01*
X172763Y336870D01*
X172696Y336831D01*
X172627Y336796D01*
X172557Y336764D01*
X172485Y336736D01*
X172411Y336711D01*
X172337Y336690D01*
X172262Y336673D01*
X172185Y336659D01*
X172109Y336650D01*
X172031Y336644D01*
X171954Y336642D01*
X170401Y336642D01*
X172264Y336642D02*
X173506Y334158D01*
X175852Y334158D02*
X177404Y334158D01*
X177481Y334160D01*
X177559Y334166D01*
X177635Y334175D01*
X177712Y334189D01*
X177787Y334206D01*
X177861Y334227D01*
X177935Y334252D01*
X178007Y334280D01*
X178077Y334312D01*
X178146Y334347D01*
X178213Y334386D01*
X178278Y334428D01*
X178341Y334473D01*
X178402Y334521D01*
X178460Y334572D01*
X178515Y334626D01*
X178568Y334683D01*
X178617Y334742D01*
X178664Y334804D01*
X178708Y334868D01*
X178748Y334934D01*
X178785Y335002D01*
X178819Y335072D01*
X178849Y335143D01*
X178875Y335216D01*
X178898Y335290D01*
X178917Y335365D01*
X178932Y335440D01*
X178944Y335517D01*
X178952Y335594D01*
X178956Y335671D01*
X178956Y335749D01*
X178952Y335826D01*
X178944Y335903D01*
X178932Y335980D01*
X178917Y336055D01*
X178898Y336130D01*
X178875Y336204D01*
X178849Y336277D01*
X178819Y336348D01*
X178785Y336418D01*
X178748Y336486D01*
X178708Y336552D01*
X178664Y336616D01*
X178617Y336678D01*
X178568Y336737D01*
X178515Y336794D01*
X178460Y336848D01*
X178402Y336899D01*
X178341Y336947D01*
X178278Y336992D01*
X178213Y337034D01*
X178146Y337073D01*
X178077Y337108D01*
X178007Y337140D01*
X177935Y337168D01*
X177861Y337193D01*
X177787Y337214D01*
X177712Y337231D01*
X177635Y337245D01*
X177559Y337254D01*
X177481Y337260D01*
X177404Y337262D01*
X177714Y339746D02*
X175852Y339746D01*
X177714Y339746D02*
X177784Y339744D01*
X177853Y339738D01*
X177922Y339728D01*
X177990Y339715D01*
X178058Y339697D01*
X178124Y339676D01*
X178189Y339651D01*
X178253Y339623D01*
X178315Y339591D01*
X178375Y339556D01*
X178433Y339517D01*
X178488Y339475D01*
X178542Y339430D01*
X178592Y339382D01*
X178640Y339332D01*
X178685Y339278D01*
X178727Y339223D01*
X178766Y339165D01*
X178801Y339105D01*
X178833Y339043D01*
X178861Y338979D01*
X178886Y338914D01*
X178907Y338848D01*
X178925Y338780D01*
X178938Y338712D01*
X178948Y338643D01*
X178954Y338574D01*
X178956Y338504D01*
X178954Y338434D01*
X178948Y338365D01*
X178938Y338296D01*
X178925Y338228D01*
X178907Y338160D01*
X178886Y338094D01*
X178861Y338029D01*
X178833Y337965D01*
X178801Y337903D01*
X178766Y337843D01*
X178727Y337785D01*
X178685Y337730D01*
X178640Y337676D01*
X178592Y337626D01*
X178542Y337578D01*
X178488Y337533D01*
X178433Y337491D01*
X178375Y337452D01*
X178315Y337417D01*
X178253Y337385D01*
X178189Y337357D01*
X178124Y337332D01*
X178058Y337311D01*
X177990Y337293D01*
X177922Y337280D01*
X177853Y337270D01*
X177784Y337264D01*
X177714Y337262D01*
X176472Y337262D01*
X25951Y339746D02*
X25951Y334158D01*
X25951Y339746D02*
X27504Y339746D01*
X27581Y339744D01*
X27659Y339738D01*
X27735Y339729D01*
X27812Y339715D01*
X27887Y339698D01*
X27961Y339677D01*
X28035Y339652D01*
X28107Y339624D01*
X28177Y339592D01*
X28246Y339557D01*
X28313Y339518D01*
X28378Y339476D01*
X28441Y339431D01*
X28502Y339383D01*
X28560Y339332D01*
X28615Y339278D01*
X28668Y339221D01*
X28717Y339162D01*
X28764Y339100D01*
X28808Y339036D01*
X28848Y338970D01*
X28885Y338902D01*
X28919Y338832D01*
X28949Y338761D01*
X28975Y338688D01*
X28998Y338614D01*
X29017Y338539D01*
X29032Y338464D01*
X29044Y338387D01*
X29052Y338310D01*
X29056Y338233D01*
X29056Y338155D01*
X29052Y338078D01*
X29044Y338001D01*
X29032Y337924D01*
X29017Y337849D01*
X28998Y337774D01*
X28975Y337700D01*
X28949Y337627D01*
X28919Y337556D01*
X28885Y337486D01*
X28848Y337418D01*
X28808Y337352D01*
X28764Y337288D01*
X28717Y337226D01*
X28668Y337167D01*
X28615Y337110D01*
X28560Y337056D01*
X28502Y337005D01*
X28441Y336957D01*
X28378Y336912D01*
X28313Y336870D01*
X28246Y336831D01*
X28177Y336796D01*
X28107Y336764D01*
X28035Y336736D01*
X27961Y336711D01*
X27887Y336690D01*
X27812Y336673D01*
X27735Y336659D01*
X27659Y336650D01*
X27581Y336644D01*
X27504Y336642D01*
X25951Y336642D01*
X27814Y336642D02*
X29056Y334158D01*
X31402Y334158D02*
X33264Y334158D01*
X33334Y334160D01*
X33403Y334166D01*
X33472Y334176D01*
X33540Y334189D01*
X33608Y334207D01*
X33674Y334228D01*
X33739Y334253D01*
X33803Y334281D01*
X33865Y334313D01*
X33925Y334348D01*
X33983Y334387D01*
X34038Y334429D01*
X34092Y334474D01*
X34142Y334522D01*
X34190Y334572D01*
X34235Y334626D01*
X34277Y334681D01*
X34316Y334739D01*
X34351Y334799D01*
X34383Y334861D01*
X34411Y334925D01*
X34436Y334990D01*
X34457Y335056D01*
X34475Y335124D01*
X34488Y335192D01*
X34498Y335261D01*
X34504Y335330D01*
X34506Y335400D01*
X34506Y336021D01*
X34504Y336091D01*
X34498Y336160D01*
X34488Y336229D01*
X34475Y336297D01*
X34457Y336365D01*
X34436Y336431D01*
X34411Y336496D01*
X34383Y336560D01*
X34351Y336622D01*
X34316Y336682D01*
X34277Y336740D01*
X34235Y336795D01*
X34190Y336849D01*
X34142Y336899D01*
X34092Y336947D01*
X34038Y336992D01*
X33983Y337034D01*
X33925Y337073D01*
X33865Y337108D01*
X33803Y337140D01*
X33739Y337168D01*
X33674Y337193D01*
X33608Y337214D01*
X33540Y337232D01*
X33472Y337245D01*
X33403Y337255D01*
X33334Y337261D01*
X33264Y337263D01*
X33264Y337262D02*
X31402Y337262D01*
X31402Y339746D01*
X34506Y339746D01*
X75951Y339746D02*
X75951Y334158D01*
X75951Y339746D02*
X77504Y339746D01*
X77581Y339744D01*
X77659Y339738D01*
X77735Y339729D01*
X77812Y339715D01*
X77887Y339698D01*
X77961Y339677D01*
X78035Y339652D01*
X78107Y339624D01*
X78177Y339592D01*
X78246Y339557D01*
X78313Y339518D01*
X78378Y339476D01*
X78441Y339431D01*
X78502Y339383D01*
X78560Y339332D01*
X78615Y339278D01*
X78668Y339221D01*
X78717Y339162D01*
X78764Y339100D01*
X78808Y339036D01*
X78848Y338970D01*
X78885Y338902D01*
X78919Y338832D01*
X78949Y338761D01*
X78975Y338688D01*
X78998Y338614D01*
X79017Y338539D01*
X79032Y338464D01*
X79044Y338387D01*
X79052Y338310D01*
X79056Y338233D01*
X79056Y338155D01*
X79052Y338078D01*
X79044Y338001D01*
X79032Y337924D01*
X79017Y337849D01*
X78998Y337774D01*
X78975Y337700D01*
X78949Y337627D01*
X78919Y337556D01*
X78885Y337486D01*
X78848Y337418D01*
X78808Y337352D01*
X78764Y337288D01*
X78717Y337226D01*
X78668Y337167D01*
X78615Y337110D01*
X78560Y337056D01*
X78502Y337005D01*
X78441Y336957D01*
X78378Y336912D01*
X78313Y336870D01*
X78246Y336831D01*
X78177Y336796D01*
X78107Y336764D01*
X78035Y336736D01*
X77961Y336711D01*
X77887Y336690D01*
X77812Y336673D01*
X77735Y336659D01*
X77659Y336650D01*
X77581Y336644D01*
X77504Y336642D01*
X75951Y336642D01*
X77814Y336642D02*
X79056Y334158D01*
X81402Y337262D02*
X83264Y337262D01*
X83264Y337263D02*
X83334Y337261D01*
X83403Y337255D01*
X83472Y337245D01*
X83540Y337232D01*
X83608Y337214D01*
X83674Y337193D01*
X83739Y337168D01*
X83803Y337140D01*
X83865Y337108D01*
X83925Y337073D01*
X83983Y337034D01*
X84038Y336992D01*
X84092Y336947D01*
X84142Y336899D01*
X84190Y336849D01*
X84235Y336795D01*
X84277Y336740D01*
X84316Y336682D01*
X84351Y336622D01*
X84383Y336560D01*
X84411Y336496D01*
X84436Y336431D01*
X84457Y336365D01*
X84475Y336297D01*
X84488Y336229D01*
X84498Y336160D01*
X84504Y336091D01*
X84506Y336021D01*
X84506Y335710D01*
X84504Y335633D01*
X84498Y335555D01*
X84489Y335479D01*
X84475Y335402D01*
X84458Y335327D01*
X84437Y335253D01*
X84412Y335179D01*
X84384Y335107D01*
X84352Y335037D01*
X84317Y334968D01*
X84278Y334901D01*
X84236Y334836D01*
X84191Y334773D01*
X84143Y334712D01*
X84092Y334654D01*
X84038Y334599D01*
X83981Y334546D01*
X83922Y334497D01*
X83860Y334450D01*
X83796Y334406D01*
X83730Y334366D01*
X83662Y334329D01*
X83592Y334295D01*
X83521Y334265D01*
X83448Y334239D01*
X83374Y334216D01*
X83299Y334197D01*
X83224Y334182D01*
X83147Y334170D01*
X83070Y334162D01*
X82993Y334158D01*
X82915Y334158D01*
X82838Y334162D01*
X82761Y334170D01*
X82684Y334182D01*
X82609Y334197D01*
X82534Y334216D01*
X82460Y334239D01*
X82387Y334265D01*
X82316Y334295D01*
X82246Y334329D01*
X82178Y334366D01*
X82112Y334406D01*
X82048Y334450D01*
X81986Y334497D01*
X81927Y334546D01*
X81870Y334599D01*
X81816Y334654D01*
X81765Y334712D01*
X81717Y334773D01*
X81672Y334836D01*
X81630Y334901D01*
X81591Y334968D01*
X81556Y335037D01*
X81524Y335107D01*
X81496Y335179D01*
X81471Y335253D01*
X81450Y335327D01*
X81433Y335402D01*
X81419Y335479D01*
X81410Y335555D01*
X81404Y335633D01*
X81402Y335710D01*
X81402Y337262D01*
X81401Y337262D02*
X81403Y337360D01*
X81409Y337457D01*
X81418Y337554D01*
X81432Y337651D01*
X81449Y337747D01*
X81470Y337842D01*
X81494Y337936D01*
X81523Y338030D01*
X81555Y338122D01*
X81590Y338213D01*
X81629Y338302D01*
X81672Y338390D01*
X81718Y338476D01*
X81767Y338560D01*
X81820Y338642D01*
X81875Y338722D01*
X81934Y338800D01*
X81996Y338875D01*
X82061Y338948D01*
X82129Y339018D01*
X82199Y339086D01*
X82272Y339151D01*
X82347Y339213D01*
X82425Y339272D01*
X82505Y339327D01*
X82587Y339380D01*
X82671Y339429D01*
X82757Y339475D01*
X82845Y339518D01*
X82934Y339557D01*
X83025Y339592D01*
X83117Y339624D01*
X83211Y339653D01*
X83305Y339677D01*
X83400Y339698D01*
X83496Y339715D01*
X83593Y339729D01*
X83690Y339738D01*
X83787Y339744D01*
X83885Y339746D01*
D17*
X167990Y164850D02*
X196990Y164850D01*
X167990Y164850D02*
X167990Y203850D01*
X196990Y203850D01*
X196990Y164850D01*
D16*
X174383Y214513D02*
X174383Y221879D01*
X176429Y221879D01*
X176518Y221877D01*
X176607Y221871D01*
X176696Y221861D01*
X176784Y221848D01*
X176872Y221831D01*
X176959Y221809D01*
X177044Y221784D01*
X177129Y221756D01*
X177212Y221723D01*
X177294Y221687D01*
X177374Y221648D01*
X177452Y221605D01*
X177528Y221559D01*
X177603Y221509D01*
X177675Y221456D01*
X177744Y221400D01*
X177811Y221341D01*
X177876Y221280D01*
X177937Y221215D01*
X177996Y221148D01*
X178052Y221079D01*
X178105Y221007D01*
X178155Y220932D01*
X178201Y220856D01*
X178244Y220778D01*
X178283Y220698D01*
X178319Y220616D01*
X178352Y220533D01*
X178380Y220448D01*
X178405Y220363D01*
X178427Y220276D01*
X178444Y220188D01*
X178457Y220100D01*
X178467Y220011D01*
X178473Y219922D01*
X178475Y219833D01*
X178473Y219744D01*
X178467Y219655D01*
X178457Y219566D01*
X178444Y219478D01*
X178427Y219390D01*
X178405Y219303D01*
X178380Y219218D01*
X178352Y219133D01*
X178319Y219050D01*
X178283Y218968D01*
X178244Y218888D01*
X178201Y218810D01*
X178155Y218734D01*
X178105Y218659D01*
X178052Y218587D01*
X177996Y218518D01*
X177937Y218451D01*
X177876Y218386D01*
X177811Y218325D01*
X177744Y218266D01*
X177675Y218210D01*
X177603Y218157D01*
X177528Y218107D01*
X177452Y218061D01*
X177374Y218018D01*
X177294Y217979D01*
X177212Y217943D01*
X177129Y217910D01*
X177044Y217882D01*
X176959Y217857D01*
X176872Y217835D01*
X176784Y217818D01*
X176696Y217805D01*
X176607Y217795D01*
X176518Y217789D01*
X176429Y217787D01*
X174383Y217787D01*
X176838Y217787D02*
X178475Y214513D01*
X183858Y214513D02*
X183936Y214515D01*
X184014Y214520D01*
X184091Y214530D01*
X184168Y214543D01*
X184244Y214559D01*
X184319Y214579D01*
X184393Y214603D01*
X184466Y214630D01*
X184538Y214661D01*
X184608Y214695D01*
X184677Y214732D01*
X184743Y214773D01*
X184808Y214817D01*
X184870Y214863D01*
X184930Y214913D01*
X184988Y214965D01*
X185043Y215020D01*
X185095Y215078D01*
X185145Y215138D01*
X185191Y215200D01*
X185235Y215265D01*
X185276Y215332D01*
X185313Y215400D01*
X185347Y215470D01*
X185378Y215542D01*
X185405Y215615D01*
X185429Y215689D01*
X185449Y215764D01*
X185465Y215840D01*
X185478Y215917D01*
X185488Y215994D01*
X185493Y216072D01*
X185495Y216150D01*
X183858Y214513D02*
X183744Y214515D01*
X183631Y214520D01*
X183517Y214530D01*
X183404Y214543D01*
X183292Y214560D01*
X183180Y214580D01*
X183069Y214604D01*
X182958Y214632D01*
X182849Y214663D01*
X182741Y214698D01*
X182634Y214737D01*
X182528Y214779D01*
X182424Y214824D01*
X182321Y214873D01*
X182220Y214926D01*
X182121Y214981D01*
X182023Y215040D01*
X181928Y215102D01*
X181835Y215167D01*
X181743Y215235D01*
X181655Y215306D01*
X181568Y215380D01*
X181484Y215457D01*
X181403Y215536D01*
X181608Y220242D02*
X181610Y220320D01*
X181615Y220398D01*
X181625Y220475D01*
X181638Y220552D01*
X181654Y220628D01*
X181674Y220703D01*
X181698Y220777D01*
X181725Y220850D01*
X181756Y220922D01*
X181790Y220992D01*
X181827Y221061D01*
X181868Y221127D01*
X181912Y221192D01*
X181958Y221254D01*
X182008Y221314D01*
X182060Y221372D01*
X182115Y221427D01*
X182173Y221479D01*
X182233Y221529D01*
X182295Y221575D01*
X182360Y221619D01*
X182427Y221660D01*
X182495Y221697D01*
X182565Y221731D01*
X182637Y221762D01*
X182710Y221789D01*
X182784Y221813D01*
X182859Y221833D01*
X182935Y221849D01*
X183012Y221862D01*
X183089Y221872D01*
X183167Y221877D01*
X183245Y221879D01*
X183355Y221877D01*
X183464Y221871D01*
X183574Y221861D01*
X183682Y221848D01*
X183791Y221830D01*
X183898Y221809D01*
X184005Y221783D01*
X184111Y221754D01*
X184216Y221722D01*
X184319Y221685D01*
X184421Y221645D01*
X184522Y221601D01*
X184621Y221553D01*
X184718Y221503D01*
X184813Y221448D01*
X184906Y221390D01*
X184997Y221329D01*
X185086Y221265D01*
X182426Y218809D02*
X182359Y218851D01*
X182294Y218895D01*
X182232Y218943D01*
X182172Y218993D01*
X182114Y219046D01*
X182059Y219102D01*
X182007Y219161D01*
X181957Y219221D01*
X181910Y219285D01*
X181867Y219350D01*
X181826Y219417D01*
X181789Y219486D01*
X181755Y219557D01*
X181724Y219629D01*
X181697Y219703D01*
X181673Y219777D01*
X181653Y219853D01*
X181637Y219930D01*
X181624Y220007D01*
X181614Y220085D01*
X181609Y220164D01*
X181607Y220242D01*
X184677Y217582D02*
X184743Y217540D01*
X184808Y217496D01*
X184870Y217449D01*
X184930Y217398D01*
X184988Y217345D01*
X185043Y217289D01*
X185096Y217231D01*
X185145Y217170D01*
X185192Y217107D01*
X185235Y217042D01*
X185276Y216975D01*
X185313Y216906D01*
X185347Y216835D01*
X185378Y216763D01*
X185405Y216689D01*
X185429Y216614D01*
X185449Y216539D01*
X185465Y216462D01*
X185478Y216385D01*
X185488Y216307D01*
X185493Y216228D01*
X185495Y216150D01*
X184677Y217582D02*
X182426Y218810D01*
X190033Y221879D02*
X190033Y214513D01*
X187987Y221879D02*
X192079Y221879D01*
D17*
X227650Y140580D02*
X299150Y140580D01*
X227650Y140580D02*
X227650Y212080D01*
X299150Y212080D01*
X299150Y140580D01*
X279527Y155080D02*
X279529Y155208D01*
X279535Y155336D01*
X279545Y155464D01*
X279559Y155592D01*
X279577Y155719D01*
X279599Y155845D01*
X279624Y155971D01*
X279654Y156095D01*
X279688Y156219D01*
X279725Y156342D01*
X279766Y156463D01*
X279811Y156583D01*
X279860Y156702D01*
X279912Y156819D01*
X279968Y156935D01*
X280027Y157048D01*
X280090Y157160D01*
X280157Y157270D01*
X280226Y157377D01*
X280299Y157483D01*
X280376Y157586D01*
X280455Y157686D01*
X280538Y157784D01*
X280623Y157880D01*
X280712Y157973D01*
X280803Y158063D01*
X280898Y158150D01*
X280994Y158234D01*
X281094Y158315D01*
X281196Y158393D01*
X281300Y158468D01*
X281406Y158539D01*
X281515Y158607D01*
X281626Y158672D01*
X281738Y158733D01*
X281853Y158791D01*
X281969Y158845D01*
X282087Y158895D01*
X282206Y158942D01*
X282327Y158985D01*
X282449Y159024D01*
X282573Y159060D01*
X282697Y159091D01*
X282822Y159119D01*
X282948Y159143D01*
X283075Y159163D01*
X283202Y159179D01*
X283330Y159191D01*
X283458Y159199D01*
X283586Y159203D01*
X283714Y159203D01*
X283842Y159199D01*
X283970Y159191D01*
X284098Y159179D01*
X284225Y159163D01*
X284352Y159143D01*
X284478Y159119D01*
X284603Y159091D01*
X284727Y159060D01*
X284851Y159024D01*
X284973Y158985D01*
X285094Y158942D01*
X285213Y158895D01*
X285331Y158845D01*
X285447Y158791D01*
X285562Y158733D01*
X285674Y158672D01*
X285785Y158607D01*
X285894Y158539D01*
X286000Y158468D01*
X286104Y158393D01*
X286206Y158315D01*
X286306Y158234D01*
X286402Y158150D01*
X286497Y158063D01*
X286588Y157973D01*
X286677Y157880D01*
X286762Y157784D01*
X286845Y157686D01*
X286924Y157586D01*
X287001Y157483D01*
X287074Y157377D01*
X287143Y157270D01*
X287210Y157160D01*
X287273Y157048D01*
X287332Y156935D01*
X287388Y156819D01*
X287440Y156702D01*
X287489Y156583D01*
X287534Y156463D01*
X287575Y156342D01*
X287612Y156219D01*
X287646Y156095D01*
X287676Y155971D01*
X287701Y155845D01*
X287723Y155719D01*
X287741Y155592D01*
X287755Y155464D01*
X287765Y155336D01*
X287771Y155208D01*
X287773Y155080D01*
X287771Y154952D01*
X287765Y154824D01*
X287755Y154696D01*
X287741Y154568D01*
X287723Y154441D01*
X287701Y154315D01*
X287676Y154189D01*
X287646Y154065D01*
X287612Y153941D01*
X287575Y153818D01*
X287534Y153697D01*
X287489Y153577D01*
X287440Y153458D01*
X287388Y153341D01*
X287332Y153225D01*
X287273Y153112D01*
X287210Y153000D01*
X287143Y152890D01*
X287074Y152783D01*
X287001Y152677D01*
X286924Y152574D01*
X286845Y152474D01*
X286762Y152376D01*
X286677Y152280D01*
X286588Y152187D01*
X286497Y152097D01*
X286402Y152010D01*
X286306Y151926D01*
X286206Y151845D01*
X286104Y151767D01*
X286000Y151692D01*
X285894Y151621D01*
X285785Y151553D01*
X285674Y151488D01*
X285562Y151427D01*
X285447Y151369D01*
X285331Y151315D01*
X285213Y151265D01*
X285094Y151218D01*
X284973Y151175D01*
X284851Y151136D01*
X284727Y151100D01*
X284603Y151069D01*
X284478Y151041D01*
X284352Y151017D01*
X284225Y150997D01*
X284098Y150981D01*
X283970Y150969D01*
X283842Y150961D01*
X283714Y150957D01*
X283586Y150957D01*
X283458Y150961D01*
X283330Y150969D01*
X283202Y150981D01*
X283075Y150997D01*
X282948Y151017D01*
X282822Y151041D01*
X282697Y151069D01*
X282573Y151100D01*
X282449Y151136D01*
X282327Y151175D01*
X282206Y151218D01*
X282087Y151265D01*
X281969Y151315D01*
X281853Y151369D01*
X281738Y151427D01*
X281626Y151488D01*
X281515Y151553D01*
X281406Y151621D01*
X281300Y151692D01*
X281196Y151767D01*
X281094Y151845D01*
X280994Y151926D01*
X280898Y152010D01*
X280803Y152097D01*
X280712Y152187D01*
X280623Y152280D01*
X280538Y152376D01*
X280455Y152474D01*
X280376Y152574D01*
X280299Y152677D01*
X280226Y152783D01*
X280157Y152890D01*
X280090Y153000D01*
X280027Y153112D01*
X279968Y153225D01*
X279912Y153341D01*
X279860Y153458D01*
X279811Y153577D01*
X279766Y153697D01*
X279725Y153818D01*
X279688Y153941D01*
X279654Y154065D01*
X279624Y154189D01*
X279599Y154315D01*
X279577Y154441D01*
X279559Y154568D01*
X279545Y154696D01*
X279535Y154824D01*
X279529Y154952D01*
X279527Y155080D01*
D18*
X231813Y145990D02*
X231811Y145932D01*
X231805Y145875D01*
X231795Y145818D01*
X231782Y145761D01*
X231764Y145706D01*
X231743Y145653D01*
X231718Y145600D01*
X231690Y145550D01*
X231658Y145502D01*
X231623Y145455D01*
X231585Y145412D01*
X231544Y145371D01*
X231501Y145333D01*
X231454Y145298D01*
X231406Y145266D01*
X231356Y145238D01*
X231303Y145213D01*
X231250Y145192D01*
X231195Y145174D01*
X231138Y145161D01*
X231081Y145151D01*
X231024Y145145D01*
X230966Y145143D01*
X230883Y145145D01*
X230800Y145151D01*
X230718Y145160D01*
X230636Y145174D01*
X230555Y145191D01*
X230474Y145212D01*
X230395Y145237D01*
X230317Y145265D01*
X230240Y145297D01*
X230165Y145332D01*
X230092Y145371D01*
X230020Y145414D01*
X229951Y145459D01*
X229884Y145508D01*
X229819Y145560D01*
X229756Y145614D01*
X229696Y145672D01*
X229802Y148106D02*
X229804Y148161D01*
X229809Y148217D01*
X229818Y148271D01*
X229831Y148325D01*
X229847Y148378D01*
X229866Y148430D01*
X229889Y148481D01*
X229915Y148530D01*
X229945Y148577D01*
X229977Y148622D01*
X230012Y148664D01*
X230050Y148705D01*
X230091Y148743D01*
X230133Y148778D01*
X230178Y148810D01*
X230226Y148840D01*
X230274Y148866D01*
X230325Y148889D01*
X230377Y148908D01*
X230430Y148924D01*
X230484Y148937D01*
X230538Y148946D01*
X230594Y148951D01*
X230649Y148953D01*
X230649Y148954D02*
X230728Y148952D01*
X230806Y148946D01*
X230884Y148937D01*
X230961Y148923D01*
X231038Y148906D01*
X231114Y148884D01*
X231188Y148860D01*
X231262Y148831D01*
X231333Y148799D01*
X231403Y148763D01*
X231472Y148724D01*
X231538Y148682D01*
X231602Y148636D01*
X230225Y147365D02*
X230178Y147395D01*
X230133Y147428D01*
X230090Y147464D01*
X230050Y147502D01*
X230012Y147543D01*
X229977Y147586D01*
X229945Y147632D01*
X229915Y147679D01*
X229889Y147729D01*
X229866Y147780D01*
X229847Y147832D01*
X229831Y147885D01*
X229818Y147940D01*
X229809Y147995D01*
X229804Y148050D01*
X229802Y148106D01*
X231390Y146731D02*
X231437Y146701D01*
X231482Y146668D01*
X231525Y146632D01*
X231565Y146594D01*
X231603Y146553D01*
X231638Y146510D01*
X231670Y146464D01*
X231700Y146417D01*
X231726Y146367D01*
X231749Y146316D01*
X231768Y146264D01*
X231784Y146211D01*
X231797Y146156D01*
X231806Y146101D01*
X231811Y146046D01*
X231813Y145990D01*
X231390Y146731D02*
X230225Y147366D01*
X234046Y148953D02*
X234046Y145143D01*
X232988Y148953D02*
X235105Y148953D01*
X236556Y148953D02*
X236556Y145143D01*
X237826Y146836D02*
X236556Y148953D01*
X237826Y146836D02*
X239096Y148953D01*
X239096Y145143D01*
X240791Y145143D02*
X241849Y145143D01*
X241913Y145145D01*
X241977Y145151D01*
X242040Y145160D01*
X242102Y145174D01*
X242164Y145191D01*
X242224Y145212D01*
X242283Y145236D01*
X242341Y145264D01*
X242396Y145296D01*
X242450Y145330D01*
X242501Y145368D01*
X242551Y145409D01*
X242597Y145453D01*
X242641Y145499D01*
X242682Y145549D01*
X242720Y145600D01*
X242754Y145654D01*
X242786Y145709D01*
X242814Y145767D01*
X242838Y145826D01*
X242859Y145886D01*
X242876Y145948D01*
X242890Y146010D01*
X242899Y146073D01*
X242905Y146137D01*
X242907Y146201D01*
X242905Y146265D01*
X242899Y146329D01*
X242890Y146392D01*
X242876Y146454D01*
X242859Y146516D01*
X242838Y146576D01*
X242814Y146635D01*
X242786Y146693D01*
X242754Y146748D01*
X242720Y146802D01*
X242682Y146853D01*
X242641Y146903D01*
X242597Y146949D01*
X242551Y146993D01*
X242501Y147034D01*
X242450Y147072D01*
X242396Y147106D01*
X242341Y147138D01*
X242283Y147166D01*
X242224Y147190D01*
X242164Y147211D01*
X242102Y147228D01*
X242040Y147242D01*
X241977Y147251D01*
X241913Y147257D01*
X241849Y147259D01*
X242061Y148953D02*
X240791Y148953D01*
X242061Y148953D02*
X242118Y148951D01*
X242174Y148945D01*
X242230Y148936D01*
X242285Y148923D01*
X242339Y148906D01*
X242392Y148886D01*
X242443Y148862D01*
X242493Y148835D01*
X242540Y148804D01*
X242586Y148771D01*
X242629Y148734D01*
X242670Y148695D01*
X242708Y148653D01*
X242743Y148608D01*
X242775Y148562D01*
X242804Y148513D01*
X242829Y148463D01*
X242851Y148410D01*
X242870Y148357D01*
X242885Y148302D01*
X242896Y148247D01*
X242904Y148191D01*
X242908Y148134D01*
X242908Y148078D01*
X242904Y148021D01*
X242896Y147965D01*
X242885Y147910D01*
X242870Y147855D01*
X242851Y147802D01*
X242829Y147749D01*
X242804Y147699D01*
X242775Y147650D01*
X242743Y147604D01*
X242708Y147559D01*
X242670Y147517D01*
X242629Y147478D01*
X242586Y147441D01*
X242540Y147408D01*
X242493Y147377D01*
X242443Y147350D01*
X242392Y147326D01*
X242339Y147306D01*
X242285Y147289D01*
X242230Y147276D01*
X242174Y147267D01*
X242118Y147261D01*
X242061Y147259D01*
X242061Y147260D02*
X241214Y147260D01*
X245613Y148954D02*
X245673Y148952D01*
X245732Y148946D01*
X245792Y148937D01*
X245850Y148924D01*
X245907Y148907D01*
X245964Y148887D01*
X246019Y148863D01*
X246072Y148836D01*
X246124Y148806D01*
X246173Y148772D01*
X246220Y148735D01*
X246265Y148696D01*
X246308Y148653D01*
X246347Y148608D01*
X246384Y148561D01*
X246418Y148512D01*
X246448Y148460D01*
X246475Y148407D01*
X246499Y148352D01*
X246519Y148295D01*
X246536Y148238D01*
X246549Y148180D01*
X246558Y148120D01*
X246564Y148061D01*
X246566Y148001D01*
X245613Y148953D02*
X245546Y148951D01*
X245479Y148946D01*
X245413Y148937D01*
X245347Y148924D01*
X245283Y148908D01*
X245219Y148888D01*
X245156Y148864D01*
X245094Y148838D01*
X245035Y148808D01*
X244977Y148775D01*
X244920Y148738D01*
X244866Y148699D01*
X244814Y148657D01*
X244765Y148612D01*
X244718Y148564D01*
X244674Y148514D01*
X244632Y148461D01*
X244594Y148406D01*
X244558Y148350D01*
X244526Y148291D01*
X244497Y148231D01*
X244471Y148169D01*
X244449Y148106D01*
X246248Y147260D02*
X246289Y147302D01*
X246328Y147347D01*
X246365Y147393D01*
X246399Y147442D01*
X246430Y147492D01*
X246457Y147544D01*
X246482Y147598D01*
X246504Y147653D01*
X246523Y147709D01*
X246538Y147766D01*
X246550Y147824D01*
X246558Y147883D01*
X246563Y147942D01*
X246565Y148001D01*
X246248Y147260D02*
X244449Y145143D01*
X246565Y145143D01*
X248234Y145143D02*
X248234Y148953D01*
X249928Y148953D01*
X249928Y147260D02*
X248234Y147260D01*
X251276Y145143D02*
X252334Y145143D01*
X252398Y145145D01*
X252462Y145151D01*
X252525Y145160D01*
X252587Y145174D01*
X252649Y145191D01*
X252709Y145212D01*
X252768Y145236D01*
X252826Y145264D01*
X252881Y145296D01*
X252935Y145330D01*
X252986Y145368D01*
X253036Y145409D01*
X253082Y145453D01*
X253126Y145499D01*
X253167Y145549D01*
X253205Y145600D01*
X253239Y145654D01*
X253271Y145709D01*
X253299Y145767D01*
X253323Y145826D01*
X253344Y145886D01*
X253361Y145948D01*
X253375Y146010D01*
X253384Y146073D01*
X253390Y146137D01*
X253392Y146201D01*
X253390Y146265D01*
X253384Y146329D01*
X253375Y146392D01*
X253361Y146454D01*
X253344Y146516D01*
X253323Y146576D01*
X253299Y146635D01*
X253271Y146693D01*
X253239Y146748D01*
X253205Y146802D01*
X253167Y146853D01*
X253126Y146903D01*
X253082Y146949D01*
X253036Y146993D01*
X252986Y147034D01*
X252935Y147072D01*
X252881Y147106D01*
X252826Y147138D01*
X252768Y147166D01*
X252709Y147190D01*
X252649Y147211D01*
X252587Y147228D01*
X252525Y147242D01*
X252462Y147251D01*
X252398Y147257D01*
X252334Y147259D01*
X252546Y148953D02*
X251276Y148953D01*
X252546Y148953D02*
X252603Y148951D01*
X252659Y148945D01*
X252715Y148936D01*
X252770Y148923D01*
X252824Y148906D01*
X252877Y148886D01*
X252928Y148862D01*
X252978Y148835D01*
X253025Y148804D01*
X253071Y148771D01*
X253114Y148734D01*
X253155Y148695D01*
X253193Y148653D01*
X253228Y148608D01*
X253260Y148562D01*
X253289Y148513D01*
X253314Y148463D01*
X253336Y148410D01*
X253355Y148357D01*
X253370Y148302D01*
X253381Y148247D01*
X253389Y148191D01*
X253393Y148134D01*
X253393Y148078D01*
X253389Y148021D01*
X253381Y147965D01*
X253370Y147910D01*
X253355Y147855D01*
X253336Y147802D01*
X253314Y147749D01*
X253289Y147699D01*
X253260Y147650D01*
X253228Y147604D01*
X253193Y147559D01*
X253155Y147517D01*
X253114Y147478D01*
X253071Y147441D01*
X253025Y147408D01*
X252978Y147377D01*
X252928Y147350D01*
X252877Y147326D01*
X252824Y147306D01*
X252770Y147289D01*
X252715Y147276D01*
X252659Y147267D01*
X252603Y147261D01*
X252546Y147259D01*
X252546Y147260D02*
X251699Y147260D01*
X254933Y147048D02*
X254935Y147158D01*
X254941Y147267D01*
X254950Y147376D01*
X254964Y147485D01*
X254981Y147593D01*
X255002Y147701D01*
X255026Y147807D01*
X255055Y147913D01*
X255087Y148018D01*
X255122Y148122D01*
X255161Y148224D01*
X255204Y148325D01*
X255251Y148424D01*
X255271Y148474D01*
X255293Y148523D01*
X255319Y148571D01*
X255348Y148616D01*
X255381Y148659D01*
X255416Y148700D01*
X255454Y148739D01*
X255494Y148774D01*
X255537Y148807D01*
X255582Y148837D01*
X255629Y148864D01*
X255677Y148887D01*
X255727Y148907D01*
X255779Y148923D01*
X255831Y148936D01*
X255884Y148946D01*
X255938Y148951D01*
X255992Y148953D01*
X256046Y148951D01*
X256100Y148946D01*
X256153Y148936D01*
X256205Y148923D01*
X256257Y148907D01*
X256307Y148887D01*
X256355Y148864D01*
X256402Y148837D01*
X256447Y148807D01*
X256490Y148774D01*
X256530Y148739D01*
X256568Y148700D01*
X256603Y148659D01*
X256636Y148616D01*
X256665Y148571D01*
X256691Y148523D01*
X256713Y148474D01*
X256733Y148424D01*
X256780Y148325D01*
X256823Y148224D01*
X256862Y148122D01*
X256897Y148018D01*
X256929Y147913D01*
X256958Y147807D01*
X256982Y147701D01*
X257003Y147593D01*
X257020Y147485D01*
X257034Y147376D01*
X257043Y147267D01*
X257049Y147158D01*
X257051Y147048D01*
X254933Y147048D02*
X254935Y146938D01*
X254941Y146829D01*
X254950Y146720D01*
X254964Y146611D01*
X254981Y146503D01*
X255002Y146395D01*
X255026Y146289D01*
X255055Y146183D01*
X255087Y146078D01*
X255122Y145975D01*
X255161Y145872D01*
X255204Y145771D01*
X255251Y145672D01*
X255271Y145622D01*
X255293Y145573D01*
X255319Y145525D01*
X255348Y145480D01*
X255381Y145437D01*
X255416Y145396D01*
X255454Y145357D01*
X255494Y145322D01*
X255537Y145289D01*
X255582Y145259D01*
X255629Y145232D01*
X255677Y145209D01*
X255727Y145189D01*
X255779Y145173D01*
X255831Y145160D01*
X255884Y145150D01*
X255938Y145145D01*
X255992Y145143D01*
X256732Y145672D02*
X256779Y145771D01*
X256822Y145872D01*
X256861Y145975D01*
X256896Y146078D01*
X256928Y146183D01*
X256957Y146289D01*
X256981Y146395D01*
X257002Y146503D01*
X257019Y146611D01*
X257033Y146720D01*
X257042Y146829D01*
X257048Y146938D01*
X257050Y147048D01*
X256733Y145672D02*
X256713Y145622D01*
X256691Y145573D01*
X256665Y145525D01*
X256636Y145480D01*
X256603Y145437D01*
X256568Y145396D01*
X256530Y145357D01*
X256490Y145322D01*
X256447Y145289D01*
X256402Y145259D01*
X256355Y145232D01*
X256307Y145209D01*
X256257Y145189D01*
X256205Y145173D01*
X256153Y145160D01*
X256100Y145150D01*
X256046Y145145D01*
X255992Y145143D01*
X255145Y145990D02*
X256839Y148106D01*
X258591Y145143D02*
X259649Y145143D01*
X259713Y145145D01*
X259777Y145151D01*
X259840Y145160D01*
X259902Y145174D01*
X259964Y145191D01*
X260024Y145212D01*
X260083Y145236D01*
X260141Y145264D01*
X260196Y145296D01*
X260250Y145330D01*
X260301Y145368D01*
X260351Y145409D01*
X260397Y145453D01*
X260441Y145499D01*
X260482Y145549D01*
X260520Y145600D01*
X260554Y145654D01*
X260586Y145709D01*
X260614Y145767D01*
X260638Y145826D01*
X260659Y145886D01*
X260676Y145948D01*
X260690Y146010D01*
X260699Y146073D01*
X260705Y146137D01*
X260707Y146201D01*
X260705Y146265D01*
X260699Y146329D01*
X260690Y146392D01*
X260676Y146454D01*
X260659Y146516D01*
X260638Y146576D01*
X260614Y146635D01*
X260586Y146693D01*
X260554Y146748D01*
X260520Y146802D01*
X260482Y146853D01*
X260441Y146903D01*
X260397Y146949D01*
X260351Y146993D01*
X260301Y147034D01*
X260250Y147072D01*
X260196Y147106D01*
X260141Y147138D01*
X260083Y147166D01*
X260024Y147190D01*
X259964Y147211D01*
X259902Y147228D01*
X259840Y147242D01*
X259777Y147251D01*
X259713Y147257D01*
X259649Y147259D01*
X259861Y148953D02*
X258591Y148953D01*
X259861Y148953D02*
X259918Y148951D01*
X259974Y148945D01*
X260030Y148936D01*
X260085Y148923D01*
X260139Y148906D01*
X260192Y148886D01*
X260243Y148862D01*
X260293Y148835D01*
X260340Y148804D01*
X260386Y148771D01*
X260429Y148734D01*
X260470Y148695D01*
X260508Y148653D01*
X260543Y148608D01*
X260575Y148562D01*
X260604Y148513D01*
X260629Y148463D01*
X260651Y148410D01*
X260670Y148357D01*
X260685Y148302D01*
X260696Y148247D01*
X260704Y148191D01*
X260708Y148134D01*
X260708Y148078D01*
X260704Y148021D01*
X260696Y147965D01*
X260685Y147910D01*
X260670Y147855D01*
X260651Y147802D01*
X260629Y147749D01*
X260604Y147699D01*
X260575Y147650D01*
X260543Y147604D01*
X260508Y147559D01*
X260470Y147517D01*
X260429Y147478D01*
X260386Y147441D01*
X260340Y147408D01*
X260293Y147377D01*
X260243Y147350D01*
X260192Y147326D01*
X260139Y147306D01*
X260085Y147289D01*
X260030Y147276D01*
X259974Y147267D01*
X259918Y147261D01*
X259861Y147259D01*
X259861Y147260D02*
X259014Y147260D01*
X262419Y148953D02*
X262419Y145143D01*
X262419Y146625D02*
X264536Y148953D01*
X263266Y147471D02*
X264536Y145143D01*
X265907Y146201D02*
X265909Y146265D01*
X265915Y146329D01*
X265924Y146392D01*
X265938Y146454D01*
X265955Y146516D01*
X265976Y146576D01*
X266000Y146635D01*
X266028Y146693D01*
X266060Y146748D01*
X266094Y146802D01*
X266132Y146853D01*
X266173Y146903D01*
X266217Y146949D01*
X266263Y146993D01*
X266313Y147034D01*
X266364Y147072D01*
X266418Y147106D01*
X266473Y147138D01*
X266531Y147166D01*
X266590Y147190D01*
X266650Y147211D01*
X266712Y147228D01*
X266774Y147242D01*
X266837Y147251D01*
X266901Y147257D01*
X266965Y147259D01*
X267029Y147257D01*
X267093Y147251D01*
X267156Y147242D01*
X267218Y147228D01*
X267280Y147211D01*
X267340Y147190D01*
X267399Y147166D01*
X267457Y147138D01*
X267512Y147106D01*
X267566Y147072D01*
X267617Y147034D01*
X267667Y146993D01*
X267713Y146949D01*
X267757Y146903D01*
X267798Y146853D01*
X267836Y146802D01*
X267870Y146748D01*
X267902Y146693D01*
X267930Y146635D01*
X267954Y146576D01*
X267975Y146516D01*
X267992Y146454D01*
X268006Y146392D01*
X268015Y146329D01*
X268021Y146265D01*
X268023Y146201D01*
X268021Y146137D01*
X268015Y146073D01*
X268006Y146010D01*
X267992Y145948D01*
X267975Y145886D01*
X267954Y145826D01*
X267930Y145767D01*
X267902Y145709D01*
X267870Y145654D01*
X267836Y145600D01*
X267798Y145549D01*
X267757Y145499D01*
X267713Y145453D01*
X267667Y145409D01*
X267617Y145368D01*
X267566Y145330D01*
X267512Y145296D01*
X267457Y145264D01*
X267399Y145236D01*
X267340Y145212D01*
X267280Y145191D01*
X267218Y145174D01*
X267156Y145160D01*
X267093Y145151D01*
X267029Y145145D01*
X266965Y145143D01*
X266901Y145145D01*
X266837Y145151D01*
X266774Y145160D01*
X266712Y145174D01*
X266650Y145191D01*
X266590Y145212D01*
X266531Y145236D01*
X266473Y145264D01*
X266418Y145296D01*
X266364Y145330D01*
X266313Y145368D01*
X266263Y145409D01*
X266217Y145453D01*
X266173Y145499D01*
X266132Y145549D01*
X266094Y145600D01*
X266060Y145654D01*
X266028Y145709D01*
X266000Y145767D01*
X265976Y145826D01*
X265955Y145886D01*
X265938Y145948D01*
X265924Y146010D01*
X265915Y146073D01*
X265909Y146137D01*
X265907Y146201D01*
X266118Y148106D02*
X266120Y148163D01*
X266126Y148219D01*
X266135Y148275D01*
X266148Y148330D01*
X266165Y148384D01*
X266185Y148437D01*
X266209Y148488D01*
X266236Y148538D01*
X266267Y148585D01*
X266300Y148631D01*
X266337Y148674D01*
X266376Y148715D01*
X266418Y148753D01*
X266463Y148788D01*
X266509Y148820D01*
X266558Y148849D01*
X266608Y148874D01*
X266661Y148896D01*
X266714Y148915D01*
X266769Y148930D01*
X266824Y148941D01*
X266880Y148949D01*
X266937Y148953D01*
X266993Y148953D01*
X267050Y148949D01*
X267106Y148941D01*
X267161Y148930D01*
X267216Y148915D01*
X267269Y148896D01*
X267322Y148874D01*
X267372Y148849D01*
X267421Y148820D01*
X267467Y148788D01*
X267512Y148753D01*
X267554Y148715D01*
X267593Y148674D01*
X267630Y148631D01*
X267663Y148585D01*
X267694Y148538D01*
X267721Y148488D01*
X267745Y148437D01*
X267765Y148384D01*
X267782Y148330D01*
X267795Y148275D01*
X267804Y148219D01*
X267810Y148163D01*
X267812Y148106D01*
X267810Y148049D01*
X267804Y147993D01*
X267795Y147937D01*
X267782Y147882D01*
X267765Y147828D01*
X267745Y147775D01*
X267721Y147724D01*
X267694Y147674D01*
X267663Y147627D01*
X267630Y147581D01*
X267593Y147538D01*
X267554Y147497D01*
X267512Y147459D01*
X267467Y147424D01*
X267421Y147392D01*
X267372Y147363D01*
X267322Y147338D01*
X267269Y147316D01*
X267216Y147297D01*
X267161Y147282D01*
X267106Y147271D01*
X267050Y147263D01*
X266993Y147259D01*
X266937Y147259D01*
X266880Y147263D01*
X266824Y147271D01*
X266769Y147282D01*
X266714Y147297D01*
X266661Y147316D01*
X266608Y147338D01*
X266558Y147363D01*
X266509Y147392D01*
X266463Y147424D01*
X266418Y147459D01*
X266376Y147497D01*
X266337Y147538D01*
X266300Y147581D01*
X266267Y147627D01*
X266236Y147674D01*
X266209Y147724D01*
X266185Y147775D01*
X266165Y147828D01*
X266148Y147882D01*
X266135Y147937D01*
X266126Y147993D01*
X266120Y148049D01*
X266118Y148106D01*
D11*
X324900Y283380D02*
X324900Y433380D01*
X200900Y433380D01*
X187900Y414380D01*
X187900Y283380D01*
X324900Y283380D01*
X265593Y366362D02*
X261981Y366362D01*
X261863Y366364D01*
X261745Y366370D01*
X261627Y366379D01*
X261510Y366393D01*
X261393Y366410D01*
X261276Y366431D01*
X261161Y366456D01*
X261046Y366485D01*
X260932Y366518D01*
X260820Y366554D01*
X260709Y366594D01*
X260599Y366637D01*
X260490Y366684D01*
X260383Y366734D01*
X260278Y366789D01*
X260175Y366846D01*
X260074Y366907D01*
X259974Y366971D01*
X259877Y367038D01*
X259782Y367108D01*
X259690Y367182D01*
X259599Y367258D01*
X259512Y367338D01*
X259427Y367420D01*
X259345Y367505D01*
X259265Y367592D01*
X259189Y367683D01*
X259115Y367775D01*
X259045Y367870D01*
X258978Y367967D01*
X258914Y368067D01*
X258853Y368168D01*
X258796Y368271D01*
X258741Y368376D01*
X258691Y368483D01*
X258644Y368592D01*
X258601Y368702D01*
X258561Y368813D01*
X258525Y368925D01*
X258492Y369039D01*
X258463Y369154D01*
X258438Y369269D01*
X258417Y369386D01*
X258400Y369503D01*
X258386Y369620D01*
X258377Y369738D01*
X258371Y369856D01*
X258369Y369974D01*
X258368Y369974D02*
X258368Y379006D01*
X258369Y379006D02*
X258371Y379124D01*
X258377Y379242D01*
X258386Y379360D01*
X258400Y379477D01*
X258417Y379594D01*
X258438Y379711D01*
X258463Y379826D01*
X258492Y379941D01*
X258525Y380055D01*
X258561Y380167D01*
X258601Y380278D01*
X258644Y380388D01*
X258691Y380497D01*
X258741Y380604D01*
X258795Y380709D01*
X258853Y380812D01*
X258914Y380913D01*
X258978Y381013D01*
X259045Y381110D01*
X259115Y381205D01*
X259189Y381297D01*
X259265Y381388D01*
X259345Y381475D01*
X259427Y381560D01*
X259512Y381642D01*
X259599Y381722D01*
X259690Y381798D01*
X259782Y381872D01*
X259877Y381942D01*
X259974Y382009D01*
X260074Y382073D01*
X260175Y382134D01*
X260278Y382191D01*
X260383Y382245D01*
X260490Y382296D01*
X260599Y382343D01*
X260709Y382386D01*
X260820Y382426D01*
X260932Y382462D01*
X261046Y382495D01*
X261161Y382524D01*
X261276Y382549D01*
X261393Y382570D01*
X261510Y382587D01*
X261627Y382601D01*
X261745Y382610D01*
X261863Y382616D01*
X261981Y382618D01*
X265593Y382618D01*
X271955Y382618D02*
X271955Y366362D01*
X280986Y366362D02*
X271955Y382618D01*
X280986Y382618D02*
X280986Y366362D01*
X288107Y379006D02*
X292622Y382618D01*
X292622Y366362D01*
X288107Y366362D02*
X297138Y366362D01*
D17*
X41220Y279240D02*
X41220Y139240D01*
X41220Y279240D02*
X141220Y279240D01*
X141220Y139240D01*
X41220Y139240D01*
D19*
X41728Y292589D02*
X44974Y292589D01*
X44974Y292590D02*
X45087Y292588D01*
X45200Y292582D01*
X45313Y292572D01*
X45426Y292558D01*
X45538Y292541D01*
X45649Y292519D01*
X45759Y292494D01*
X45869Y292464D01*
X45977Y292431D01*
X46084Y292394D01*
X46190Y292354D01*
X46294Y292309D01*
X46397Y292261D01*
X46498Y292210D01*
X46597Y292155D01*
X46694Y292097D01*
X46789Y292035D01*
X46882Y291970D01*
X46972Y291902D01*
X47060Y291831D01*
X47146Y291756D01*
X47229Y291679D01*
X47309Y291599D01*
X47386Y291516D01*
X47461Y291430D01*
X47532Y291342D01*
X47600Y291252D01*
X47665Y291159D01*
X47727Y291064D01*
X47785Y290967D01*
X47840Y290868D01*
X47891Y290767D01*
X47939Y290664D01*
X47984Y290560D01*
X48024Y290454D01*
X48061Y290347D01*
X48094Y290239D01*
X48124Y290129D01*
X48149Y290019D01*
X48171Y289908D01*
X48188Y289796D01*
X48202Y289683D01*
X48212Y289570D01*
X48218Y289457D01*
X48220Y289344D01*
X48218Y289231D01*
X48212Y289118D01*
X48202Y289005D01*
X48188Y288892D01*
X48171Y288780D01*
X48149Y288669D01*
X48124Y288559D01*
X48094Y288449D01*
X48061Y288341D01*
X48024Y288234D01*
X47984Y288128D01*
X47939Y288024D01*
X47891Y287921D01*
X47840Y287820D01*
X47785Y287721D01*
X47727Y287624D01*
X47665Y287529D01*
X47600Y287436D01*
X47532Y287346D01*
X47461Y287258D01*
X47386Y287172D01*
X47309Y287089D01*
X47229Y287009D01*
X47146Y286932D01*
X47060Y286857D01*
X46972Y286786D01*
X46882Y286718D01*
X46789Y286653D01*
X46694Y286591D01*
X46597Y286533D01*
X46498Y286478D01*
X46397Y286427D01*
X46294Y286379D01*
X46190Y286334D01*
X46084Y286294D01*
X45977Y286257D01*
X45869Y286224D01*
X45759Y286194D01*
X45649Y286169D01*
X45538Y286147D01*
X45426Y286130D01*
X45313Y286116D01*
X45200Y286106D01*
X45087Y286100D01*
X44974Y286098D01*
X41728Y286098D01*
X41728Y297782D01*
X44974Y297782D01*
X45075Y297780D01*
X45175Y297774D01*
X45275Y297764D01*
X45375Y297751D01*
X45474Y297733D01*
X45573Y297712D01*
X45670Y297687D01*
X45767Y297658D01*
X45862Y297625D01*
X45956Y297589D01*
X46048Y297549D01*
X46139Y297506D01*
X46228Y297459D01*
X46315Y297409D01*
X46401Y297355D01*
X46484Y297298D01*
X46564Y297238D01*
X46643Y297175D01*
X46719Y297108D01*
X46792Y297039D01*
X46862Y296967D01*
X46930Y296893D01*
X46995Y296816D01*
X47056Y296736D01*
X47115Y296654D01*
X47170Y296570D01*
X47222Y296484D01*
X47271Y296396D01*
X47316Y296306D01*
X47358Y296214D01*
X47396Y296121D01*
X47430Y296026D01*
X47461Y295931D01*
X47488Y295834D01*
X47511Y295736D01*
X47531Y295637D01*
X47546Y295537D01*
X47558Y295437D01*
X47566Y295337D01*
X47570Y295236D01*
X47570Y295136D01*
X47566Y295035D01*
X47558Y294935D01*
X47546Y294835D01*
X47531Y294735D01*
X47511Y294636D01*
X47488Y294538D01*
X47461Y294441D01*
X47430Y294346D01*
X47396Y294251D01*
X47358Y294158D01*
X47316Y294066D01*
X47271Y293976D01*
X47222Y293888D01*
X47170Y293802D01*
X47115Y293718D01*
X47056Y293636D01*
X46995Y293556D01*
X46930Y293479D01*
X46862Y293405D01*
X46792Y293333D01*
X46719Y293264D01*
X46643Y293197D01*
X46564Y293134D01*
X46484Y293074D01*
X46401Y293017D01*
X46315Y292963D01*
X46228Y292913D01*
X46139Y292866D01*
X46048Y292823D01*
X45956Y292783D01*
X45862Y292747D01*
X45767Y292714D01*
X45670Y292685D01*
X45573Y292660D01*
X45474Y292639D01*
X45375Y292621D01*
X45275Y292608D01*
X45175Y292598D01*
X45075Y292592D01*
X44974Y292590D01*
X53102Y297782D02*
X53102Y286098D01*
X56996Y291291D02*
X53102Y297782D01*
X56996Y291291D02*
X60891Y297782D01*
X60891Y286098D01*
X65675Y286098D02*
X73464Y297782D01*
X65675Y297782D02*
X73464Y286098D01*
X77754Y295186D02*
X80999Y297782D01*
X80999Y286098D01*
X77754Y286098D02*
X84245Y286098D01*
D20*
X97000Y44400D03*
D21*
X102700Y44400D03*
D22*
X106900Y44400D03*
D23*
X111400Y44400D03*
D24*
X117700Y44400D03*
X124900Y44400D03*
D25*
X132400Y44400D03*
D20*
X140800Y44400D03*
D26*
X149500Y44400D03*
D27*
X158200Y44400D03*
X97000Y45000D03*
D21*
X102700Y45000D03*
D22*
X106900Y45000D03*
D23*
X111400Y45000D03*
D27*
X117400Y45000D03*
X124600Y45000D03*
D25*
X132400Y45000D03*
D28*
X141100Y45000D03*
D27*
X149800Y45000D03*
X158200Y45000D03*
D22*
X95500Y45600D03*
D20*
X98800Y45600D03*
D21*
X102700Y45600D03*
D22*
X106900Y45600D03*
D23*
X111400Y45600D03*
D27*
X117400Y45600D03*
D26*
X124300Y45600D03*
D25*
X132400Y45600D03*
D27*
X140800Y45600D03*
X149800Y45600D03*
X158200Y45600D03*
D29*
X94600Y46200D03*
D23*
X99400Y46200D03*
D21*
X102700Y46200D03*
D22*
X106900Y46200D03*
D23*
X111400Y46200D03*
D22*
X115300Y46200D03*
D29*
X119800Y46200D03*
D23*
X122200Y46200D03*
D29*
X127000Y46200D03*
D20*
X131200Y46200D03*
D22*
X139300Y46200D03*
X142900Y46200D03*
X149500Y46200D03*
X157900Y46200D03*
X99100Y46800D03*
D21*
X102700Y46800D03*
D22*
X106900Y46800D03*
D23*
X111400Y46800D03*
X115000Y46800D03*
X122200Y46800D03*
D22*
X131500Y46800D03*
X138700Y46800D03*
X142900Y46800D03*
X149500Y46800D03*
D23*
X158200Y46800D03*
D30*
X98200Y47400D03*
D21*
X102700Y47400D03*
D22*
X106900Y47400D03*
D23*
X111400Y47400D03*
X115000Y47400D03*
D22*
X121900Y47400D03*
X132100Y47400D03*
X138700Y47400D03*
D23*
X143200Y47400D03*
D22*
X149500Y47400D03*
D23*
X158200Y47400D03*
D28*
X97300Y48000D03*
D21*
X102700Y48000D03*
D22*
X106900Y48000D03*
D23*
X111400Y48000D03*
X115000Y48000D03*
D25*
X124000Y48000D03*
D22*
X132700Y48000D03*
D23*
X138400Y48000D03*
X143200Y48000D03*
D22*
X149500Y48000D03*
D23*
X158200Y48000D03*
D30*
X96400Y48600D03*
D21*
X102700Y48600D03*
D22*
X106900Y48600D03*
D23*
X111400Y48600D03*
X115000Y48600D03*
D25*
X124000Y48600D03*
D22*
X133300Y48600D03*
D23*
X138400Y48600D03*
X143200Y48600D03*
D22*
X149500Y48600D03*
D23*
X158200Y48600D03*
D22*
X95500Y49200D03*
D21*
X102700Y49200D03*
D22*
X106900Y49200D03*
D23*
X111400Y49200D03*
X115000Y49200D03*
X122200Y49200D03*
X126400Y49200D03*
D22*
X133900Y49200D03*
D23*
X138400Y49200D03*
X143200Y49200D03*
D22*
X149500Y49200D03*
D23*
X158200Y49200D03*
D22*
X95500Y49800D03*
D21*
X102700Y49800D03*
D22*
X106900Y49800D03*
X111100Y49800D03*
X115300Y49800D03*
D29*
X119800Y49800D03*
D23*
X122200Y49800D03*
X126400Y49800D03*
X134200Y49800D03*
X138400Y49800D03*
X143200Y49800D03*
D22*
X149500Y49800D03*
D23*
X158200Y49800D03*
D22*
X95500Y50400D03*
D23*
X99400Y50400D03*
D21*
X102700Y50400D03*
D25*
X109000Y50400D03*
D22*
X115900Y50400D03*
D23*
X119200Y50400D03*
D22*
X122500Y50400D03*
X126100Y50400D03*
D23*
X134200Y50400D03*
X138400Y50400D03*
X143200Y50400D03*
D22*
X149500Y50400D03*
D23*
X158200Y50400D03*
D21*
X55300Y51000D03*
D27*
X97600Y51000D03*
D21*
X102700Y51000D03*
D26*
X108700Y51000D03*
D27*
X117400Y51000D03*
D28*
X124300Y51000D03*
D23*
X134200Y51000D03*
X138400Y51000D03*
X143200Y51000D03*
D22*
X149500Y51000D03*
X157900Y51000D03*
D23*
X55600Y51600D03*
D24*
X97900Y51600D03*
D21*
X102700Y51600D03*
D22*
X106900Y51600D03*
D20*
X110200Y51600D03*
D24*
X117700Y51600D03*
X124300Y51600D03*
D23*
X134200Y51600D03*
D22*
X138700Y51600D03*
D23*
X143200Y51600D03*
D24*
X148900Y51600D03*
X157300Y51600D03*
D23*
X55600Y52200D03*
D29*
X130000Y52200D03*
D23*
X134200Y52200D03*
X139000Y52200D03*
D22*
X142900Y52200D03*
D24*
X148900Y52200D03*
X157300Y52200D03*
D22*
X55900Y52800D03*
D27*
X132400Y52800D03*
D26*
X141100Y52800D03*
D24*
X148900Y52800D03*
X157300Y52800D03*
D20*
X56200Y53400D03*
D23*
X103000Y53400D03*
D27*
X132400Y53400D03*
X140800Y53400D03*
D22*
X149500Y53400D03*
X157900Y53400D03*
D20*
X56200Y54000D03*
D23*
X103000Y54000D03*
D28*
X132100Y54000D03*
D30*
X140800Y54000D03*
D23*
X149800Y54000D03*
X158200Y54000D03*
D24*
X56500Y54600D03*
D23*
X103000Y54600D03*
D28*
X56500Y55200D03*
X56500Y55800D03*
D27*
X56800Y56400D03*
D26*
X57100Y57000D03*
X57100Y57600D03*
D25*
X57400Y58200D03*
D31*
X57100Y58800D03*
D32*
X70900Y58800D03*
D33*
X68200Y59400D03*
D34*
X69400Y60000D03*
D35*
X59800Y60600D03*
D22*
X67900Y60600D03*
D36*
X81700Y60600D03*
X57700Y61200D03*
D37*
X76900Y61200D03*
D38*
X70900Y61800D03*
D39*
X70900Y62400D03*
D40*
X55600Y63000D03*
D23*
X67600Y63000D03*
D40*
X85600Y63000D03*
D41*
X55300Y63600D03*
D23*
X67600Y63600D03*
D21*
X79900Y63600D03*
D42*
X88900Y63600D03*
D43*
X54700Y64200D03*
D23*
X67600Y64200D03*
D21*
X79900Y64200D03*
D36*
X91300Y64200D03*
D44*
X60700Y64800D03*
D21*
X79900Y64800D03*
D45*
X93100Y64800D03*
D46*
X46900Y65400D03*
D47*
X67600Y65400D03*
D46*
X94300Y65400D03*
X46300Y66000D03*
D48*
X69400Y66000D03*
D49*
X95200Y66000D03*
D46*
X45700Y66600D03*
D50*
X59200Y66600D03*
D21*
X67300Y66600D03*
D51*
X83800Y66600D03*
D23*
X91600Y66600D03*
D20*
X95800Y66600D03*
D52*
X52000Y67200D03*
D25*
X89800Y67200D03*
D52*
X50800Y67800D03*
D26*
X90700Y67800D03*
D52*
X50200Y68400D03*
D20*
X92200Y68400D03*
D42*
X44500Y69000D03*
D49*
X56800Y69000D03*
D21*
X92500Y69000D03*
D46*
X99100Y69000D03*
D31*
X108100Y69000D03*
D53*
X134800Y69000D03*
D32*
X43900Y69600D03*
D45*
X56500Y69600D03*
D54*
X75400Y69600D03*
D23*
X94600Y69600D03*
D24*
X103900Y69600D03*
D42*
X117100Y69600D03*
D22*
X130900Y69600D03*
D52*
X149200Y69600D03*
D29*
X18400Y70200D03*
D55*
X43600Y70200D03*
D49*
X56200Y70200D03*
D23*
X62800Y70200D03*
X88000Y70200D03*
X94000Y70200D03*
D21*
X103900Y70200D03*
X123700Y70200D03*
D23*
X130000Y70200D03*
D21*
X160300Y70200D03*
D22*
X18700Y70800D03*
D37*
X48100Y70800D03*
D21*
X62500Y70800D03*
X88300Y70800D03*
X93700Y70800D03*
D24*
X99100Y70800D03*
D22*
X108100Y70800D03*
D21*
X123700Y70800D03*
X129700Y70800D03*
D20*
X134800Y70800D03*
D29*
X160600Y70800D03*
D30*
X19600Y71400D03*
D56*
X47500Y71400D03*
D21*
X62500Y71400D03*
D57*
X75700Y71400D03*
D21*
X88300Y71400D03*
D23*
X90400Y71400D03*
D29*
X93400Y71400D03*
D26*
X99100Y71400D03*
D28*
X108100Y71400D03*
D53*
X117400Y71400D03*
D21*
X123700Y71400D03*
D23*
X129400Y71400D03*
D27*
X134800Y71400D03*
D25*
X144400Y71400D03*
D31*
X154900Y71400D03*
D29*
X160600Y71400D03*
D27*
X20800Y72000D03*
D58*
X47500Y72000D03*
D23*
X62800Y72000D03*
D59*
X76000Y72000D03*
D21*
X88300Y72000D03*
D22*
X90700Y72000D03*
D29*
X93400Y72000D03*
D30*
X97600Y72000D03*
X107200Y72000D03*
D29*
X110800Y72000D03*
D25*
X117400Y72000D03*
D21*
X123700Y72000D03*
X129100Y72000D03*
D25*
X134800Y72000D03*
X144400Y72000D03*
D26*
X154900Y72000D03*
D21*
X160300Y72000D03*
D25*
X22000Y72600D03*
D60*
X47200Y72600D03*
D23*
X63400Y72600D03*
D61*
X76300Y72600D03*
D21*
X88300Y72600D03*
D22*
X90700Y72600D03*
D29*
X93400Y72600D03*
D30*
X97000Y72600D03*
D24*
X106900Y72600D03*
D27*
X117400Y72600D03*
D21*
X123100Y72600D03*
D23*
X128800Y72600D03*
D30*
X133000Y72600D03*
D29*
X137800Y72600D03*
D28*
X144700Y72600D03*
D23*
X149800Y72600D03*
D28*
X154900Y72600D03*
D23*
X160000Y72600D03*
D46*
X22900Y73200D03*
D62*
X46900Y73200D03*
D23*
X64000Y73200D03*
D63*
X76600Y73200D03*
D21*
X88300Y73200D03*
D29*
X93400Y73200D03*
D30*
X97000Y73200D03*
D21*
X101500Y73200D03*
D28*
X106300Y73200D03*
D24*
X117100Y73200D03*
D22*
X122500Y73200D03*
D21*
X128500Y73200D03*
D24*
X132700Y73200D03*
X144700Y73200D03*
D20*
X149800Y73200D03*
D30*
X154600Y73200D03*
D23*
X159400Y73200D03*
D49*
X23800Y73800D03*
D64*
X46900Y73800D03*
D23*
X64600Y73800D03*
D26*
X70300Y73800D03*
D24*
X84700Y73800D03*
D21*
X88300Y73800D03*
D29*
X93400Y73800D03*
D30*
X97000Y73800D03*
D21*
X101500Y73800D03*
D30*
X106600Y73800D03*
D21*
X112900Y73800D03*
D24*
X117100Y73800D03*
D22*
X121900Y73800D03*
D21*
X128500Y73800D03*
D30*
X132400Y73800D03*
D22*
X140500Y73800D03*
D24*
X144700Y73800D03*
D21*
X148900Y73800D03*
X150700Y73800D03*
D30*
X154600Y73800D03*
D23*
X158800Y73800D03*
D65*
X25000Y74400D03*
D66*
X46900Y74400D03*
D23*
X65200Y74400D03*
D28*
X70300Y74400D03*
D20*
X85000Y74400D03*
D21*
X88300Y74400D03*
D29*
X93400Y74400D03*
D24*
X97300Y74400D03*
D21*
X101500Y74400D03*
D30*
X106600Y74400D03*
D22*
X112900Y74400D03*
D24*
X117100Y74400D03*
D23*
X121000Y74400D03*
D21*
X128500Y74400D03*
D30*
X132400Y74400D03*
D22*
X140500Y74400D03*
D24*
X144700Y74400D03*
D21*
X148900Y74400D03*
X150700Y74400D03*
D30*
X154600Y74400D03*
D21*
X158500Y74400D03*
D67*
X27700Y75000D03*
D68*
X49600Y75000D03*
D23*
X65800Y75000D03*
D28*
X70300Y75000D03*
D27*
X76600Y75000D03*
D22*
X85300Y75000D03*
D21*
X88300Y75000D03*
X93700Y75000D03*
D24*
X97300Y75000D03*
D30*
X106600Y75000D03*
X112000Y75000D03*
D24*
X117100Y75000D03*
D21*
X120700Y75000D03*
D28*
X124900Y75000D03*
D21*
X128500Y75000D03*
D30*
X132400Y75000D03*
D22*
X140500Y75000D03*
D24*
X144700Y75000D03*
D29*
X148600Y75000D03*
D21*
X150700Y75000D03*
D30*
X154600Y75000D03*
D29*
X158200Y75000D03*
D50*
X27400Y75600D03*
D58*
X49900Y75600D03*
D21*
X66100Y75600D03*
D28*
X70300Y75600D03*
D27*
X76600Y75600D03*
D23*
X85600Y75600D03*
D21*
X88300Y75600D03*
X93700Y75600D03*
D20*
X98200Y75600D03*
D30*
X106600Y75600D03*
X112000Y75600D03*
D24*
X117100Y75600D03*
D21*
X120700Y75600D03*
D31*
X125500Y75600D03*
D30*
X132400Y75600D03*
D22*
X140500Y75600D03*
D24*
X144700Y75600D03*
D29*
X148600Y75600D03*
D21*
X150700Y75600D03*
D30*
X154600Y75600D03*
D29*
X158200Y75600D03*
D69*
X42400Y76200D03*
D21*
X66100Y76200D03*
D28*
X70300Y76200D03*
D27*
X76600Y76200D03*
D21*
X85900Y76200D03*
X88300Y76200D03*
D23*
X94000Y76200D03*
D20*
X99400Y76200D03*
D30*
X106600Y76200D03*
D21*
X110500Y76200D03*
D29*
X113800Y76200D03*
D24*
X117100Y76200D03*
D20*
X121600Y76200D03*
D22*
X127900Y76200D03*
D30*
X132400Y76200D03*
D21*
X136300Y76200D03*
D22*
X140500Y76200D03*
D24*
X144700Y76200D03*
D29*
X148600Y76200D03*
D21*
X150700Y76200D03*
D30*
X154600Y76200D03*
D29*
X158200Y76200D03*
D69*
X43000Y76800D03*
D21*
X66100Y76800D03*
D28*
X70300Y76800D03*
D24*
X76300Y76800D03*
D23*
X83200Y76800D03*
D29*
X86200Y76800D03*
D21*
X88300Y76800D03*
D29*
X89800Y76800D03*
D21*
X94300Y76800D03*
D46*
X104500Y76800D03*
D21*
X110500Y76800D03*
D29*
X113800Y76800D03*
D24*
X117100Y76800D03*
D23*
X121600Y76800D03*
D21*
X128500Y76800D03*
D30*
X132400Y76800D03*
D26*
X138700Y76800D03*
D24*
X144700Y76800D03*
D21*
X148900Y76800D03*
X150700Y76800D03*
D30*
X154600Y76800D03*
D29*
X158200Y76800D03*
D39*
X43300Y77400D03*
D21*
X66100Y77400D03*
D28*
X70300Y77400D03*
D21*
X80500Y77400D03*
D22*
X83500Y77400D03*
D21*
X88300Y77400D03*
D20*
X91000Y77400D03*
D23*
X94000Y77400D03*
D28*
X106300Y77400D03*
D21*
X110500Y77400D03*
D29*
X113800Y77400D03*
D30*
X117400Y77400D03*
D23*
X121600Y77400D03*
X125200Y77400D03*
D30*
X132400Y77400D03*
X137800Y77400D03*
D21*
X141100Y77400D03*
D24*
X144700Y77400D03*
D21*
X148900Y77400D03*
X150700Y77400D03*
D30*
X154600Y77400D03*
D29*
X158200Y77400D03*
D39*
X43300Y78000D03*
D21*
X66100Y78000D03*
D27*
X70600Y78000D03*
D21*
X79900Y78000D03*
D20*
X83800Y78000D03*
D21*
X88300Y78000D03*
D20*
X91000Y78000D03*
D29*
X94000Y78000D03*
D30*
X106600Y78000D03*
D21*
X110500Y78000D03*
X113500Y78000D03*
D30*
X117400Y78000D03*
D23*
X121600Y78000D03*
D22*
X125500Y78000D03*
D30*
X132400Y78000D03*
D21*
X136300Y78000D03*
X141100Y78000D03*
D30*
X145000Y78000D03*
D20*
X149800Y78000D03*
D30*
X154600Y78000D03*
D29*
X158200Y78000D03*
D70*
X43600Y78600D03*
D21*
X66100Y78600D03*
D35*
X74200Y78600D03*
D29*
X82600Y78600D03*
D23*
X85000Y78600D03*
D21*
X87700Y78600D03*
X91900Y78600D03*
X93700Y78600D03*
D22*
X97300Y78600D03*
D21*
X101500Y78600D03*
D30*
X106600Y78600D03*
D21*
X110500Y78600D03*
X113500Y78600D03*
D30*
X117400Y78600D03*
D21*
X121900Y78600D03*
D20*
X125800Y78600D03*
D30*
X132400Y78600D03*
D21*
X136300Y78600D03*
X141100Y78600D03*
D30*
X145000Y78600D03*
D22*
X150100Y78600D03*
D30*
X154600Y78600D03*
D29*
X158200Y78600D03*
D71*
X43900Y79200D03*
D21*
X66100Y79200D03*
D35*
X74200Y79200D03*
D29*
X82600Y79200D03*
D24*
X86500Y79200D03*
D21*
X93700Y79200D03*
D24*
X97300Y79200D03*
D21*
X101500Y79200D03*
D30*
X106600Y79200D03*
D21*
X110500Y79200D03*
X112900Y79200D03*
D24*
X117100Y79200D03*
D20*
X125800Y79200D03*
D30*
X132400Y79200D03*
D20*
X137200Y79200D03*
D21*
X141100Y79200D03*
D30*
X145000Y79200D03*
D24*
X154300Y79200D03*
D29*
X158200Y79200D03*
D71*
X43900Y79800D03*
D21*
X66100Y79800D03*
D35*
X74200Y79800D03*
D29*
X82600Y79800D03*
D20*
X86200Y79800D03*
D21*
X93700Y79800D03*
D24*
X97300Y79800D03*
D29*
X101200Y79800D03*
D24*
X106300Y79800D03*
D21*
X110500Y79800D03*
X112300Y79800D03*
D24*
X117100Y79800D03*
D20*
X125800Y79800D03*
D30*
X132400Y79800D03*
D23*
X138400Y79800D03*
D21*
X141100Y79800D03*
D27*
X145600Y79800D03*
D30*
X154000Y79800D03*
D29*
X158200Y79800D03*
D72*
X44200Y80400D03*
D21*
X66100Y80400D03*
D27*
X70600Y80400D03*
D22*
X79300Y80400D03*
D20*
X83800Y80400D03*
D23*
X87400Y80400D03*
D21*
X93700Y80400D03*
D24*
X97300Y80400D03*
X106300Y80400D03*
D20*
X110800Y80400D03*
D30*
X116800Y80400D03*
D24*
X125500Y80400D03*
D30*
X132400Y80400D03*
D21*
X138700Y80400D03*
X141100Y80400D03*
D30*
X145000Y80400D03*
D28*
X153700Y80400D03*
D29*
X158200Y80400D03*
D38*
X44500Y81000D03*
D21*
X66100Y81000D03*
D28*
X70300Y81000D03*
D21*
X79900Y81000D03*
D22*
X83500Y81000D03*
D21*
X87700Y81000D03*
X93700Y81000D03*
D24*
X97900Y81000D03*
X105700Y81000D03*
D22*
X110500Y81000D03*
D28*
X116500Y81000D03*
D27*
X124000Y81000D03*
D30*
X132400Y81000D03*
D23*
X139000Y81000D03*
D21*
X141100Y81000D03*
D30*
X145000Y81000D03*
D25*
X152200Y81000D03*
D21*
X157900Y81000D03*
D38*
X44500Y81600D03*
D21*
X66100Y81600D03*
D28*
X70300Y81600D03*
D23*
X83200Y81600D03*
D21*
X87700Y81600D03*
D23*
X94000Y81600D03*
D45*
X102100Y81600D03*
D22*
X110500Y81600D03*
D27*
X116200Y81600D03*
D24*
X124300Y81600D03*
D53*
X133000Y81600D03*
D21*
X139300Y81600D03*
X141100Y81600D03*
D24*
X144700Y81600D03*
D27*
X152200Y81600D03*
D21*
X157900Y81600D03*
D73*
X44500Y82200D03*
D21*
X66100Y82200D03*
D28*
X70300Y82200D03*
D30*
X76000Y82200D03*
D21*
X82900Y82200D03*
X87700Y82200D03*
D23*
X94600Y82200D03*
D27*
X102400Y82200D03*
D20*
X110200Y82200D03*
D28*
X132700Y82200D03*
D21*
X139300Y82200D03*
X141100Y82200D03*
D24*
X144700Y82200D03*
D20*
X152200Y82200D03*
D21*
X157300Y82200D03*
D73*
X43900Y82800D03*
D21*
X66100Y82800D03*
D28*
X70300Y82800D03*
D21*
X74500Y82800D03*
D23*
X78400Y82800D03*
D29*
X85600Y82800D03*
D21*
X87700Y82800D03*
D22*
X95500Y82800D03*
D23*
X109000Y82800D03*
D21*
X111100Y82800D03*
D29*
X120400Y82800D03*
D23*
X127600Y82800D03*
D24*
X132700Y82800D03*
D21*
X139300Y82800D03*
X141100Y82800D03*
D24*
X144700Y82800D03*
D21*
X156700Y82800D03*
D74*
X43600Y83400D03*
D22*
X65500Y83400D03*
D28*
X70300Y83400D03*
D26*
X76900Y83400D03*
D21*
X85300Y83400D03*
X87700Y83400D03*
D23*
X89800Y83400D03*
D30*
X97000Y83400D03*
D20*
X107800Y83400D03*
D43*
X120100Y83400D03*
D20*
X133000Y83400D03*
D24*
X138100Y83400D03*
D21*
X141100Y83400D03*
D24*
X144700Y83400D03*
D23*
X149200Y83400D03*
D22*
X155500Y83400D03*
D74*
X43000Y84000D03*
D22*
X64900Y84000D03*
D28*
X70300Y84000D03*
D26*
X76900Y84000D03*
D23*
X85000Y84000D03*
D21*
X87700Y84000D03*
D30*
X91000Y84000D03*
D75*
X102100Y84000D03*
D45*
X115900Y84000D03*
D26*
X124300Y84000D03*
D22*
X129100Y84000D03*
X133300Y84000D03*
D24*
X137500Y84000D03*
D21*
X141100Y84000D03*
D24*
X144700Y84000D03*
D53*
X152200Y84000D03*
D74*
X42400Y84600D03*
D23*
X64000Y84600D03*
D27*
X70000Y84600D03*
D22*
X84700Y84600D03*
D21*
X87700Y84600D03*
D26*
X91900Y84600D03*
D46*
X102700Y84600D03*
D23*
X130000Y84600D03*
X133600Y84600D03*
D21*
X136300Y84600D03*
D23*
X140800Y84600D03*
D24*
X144700Y84600D03*
D25*
X151600Y84600D03*
D74*
X42400Y85200D03*
D23*
X63400Y85200D03*
D25*
X70000Y85200D03*
D20*
X84400Y85200D03*
D21*
X87700Y85200D03*
D27*
X93400Y85200D03*
D23*
X130600Y85200D03*
D21*
X133900Y85200D03*
D29*
X136000Y85200D03*
D23*
X140200Y85200D03*
D24*
X144700Y85200D03*
D29*
X148600Y85200D03*
D24*
X24100Y85800D03*
D48*
X44200Y85800D03*
D23*
X62800Y85800D03*
D61*
X75700Y85800D03*
D21*
X87700Y85800D03*
D24*
X94900Y85800D03*
D23*
X131200Y85800D03*
D29*
X136000Y85800D03*
D23*
X139600Y85800D03*
D30*
X144400Y85800D03*
D29*
X148600Y85800D03*
D20*
X23800Y86400D03*
D76*
X45400Y86400D03*
D59*
X75400Y86400D03*
D21*
X87700Y86400D03*
D22*
X95500Y86400D03*
D23*
X107200Y86400D03*
D22*
X112900Y86400D03*
D21*
X115900Y86400D03*
D23*
X118600Y86400D03*
X131800Y86400D03*
D29*
X136000Y86400D03*
D23*
X139000Y86400D03*
D28*
X144100Y86400D03*
D29*
X148600Y86400D03*
D20*
X23200Y87000D03*
D77*
X45100Y87000D03*
D59*
X75400Y87000D03*
D21*
X87700Y87000D03*
D23*
X95200Y87000D03*
D24*
X100900Y87000D03*
D23*
X107200Y87000D03*
D28*
X114100Y87000D03*
D20*
X118600Y87000D03*
D23*
X132400Y87000D03*
D29*
X136000Y87000D03*
D21*
X138700Y87000D03*
D27*
X143800Y87000D03*
D29*
X148600Y87000D03*
D20*
X22600Y87600D03*
D78*
X44800Y87600D03*
D21*
X87700Y87600D03*
D23*
X95200Y87600D03*
D28*
X101500Y87600D03*
D23*
X107200Y87600D03*
D24*
X114700Y87600D03*
D20*
X119200Y87600D03*
D23*
X133000Y87600D03*
D21*
X135700Y87600D03*
X138700Y87600D03*
D27*
X143800Y87600D03*
D29*
X148600Y87600D03*
D20*
X22600Y88200D03*
D76*
X43600Y88200D03*
D21*
X62500Y88200D03*
X87700Y88200D03*
D23*
X95200Y88200D03*
D30*
X103000Y88200D03*
D23*
X107200Y88200D03*
D20*
X115000Y88200D03*
D22*
X119500Y88200D03*
D24*
X134500Y88200D03*
D21*
X138700Y88200D03*
D29*
X148600Y88200D03*
D24*
X22300Y88800D03*
D22*
X26500Y88800D03*
D79*
X44800Y88800D03*
D56*
X75100Y88800D03*
D21*
X94900Y88800D03*
D27*
X105400Y88800D03*
D20*
X115600Y88800D03*
D22*
X120100Y88800D03*
D21*
X138700Y88800D03*
D29*
X148600Y88800D03*
D24*
X22300Y89400D03*
D23*
X25600Y89400D03*
D80*
X45100Y89400D03*
D81*
X75100Y89400D03*
D21*
X94900Y89400D03*
D24*
X106300Y89400D03*
D22*
X116500Y89400D03*
X120100Y89400D03*
D25*
X142000Y89400D03*
D21*
X148300Y89400D03*
D26*
X22900Y90000D03*
D79*
X45400Y90000D03*
D21*
X94900Y90000D03*
D20*
X107200Y90000D03*
X116800Y90000D03*
D22*
X120700Y90000D03*
D29*
X139600Y90000D03*
D28*
X146500Y90000D03*
D27*
X22600Y90600D03*
D44*
X45700Y90600D03*
D21*
X87700Y90600D03*
X94900Y90600D03*
D24*
X108100Y90600D03*
X117100Y90600D03*
D23*
X121000Y90600D03*
D27*
X22000Y91200D03*
D77*
X46300Y91200D03*
D28*
X88900Y91200D03*
D23*
X94600Y91200D03*
D28*
X108700Y91200D03*
D24*
X117700Y91200D03*
D22*
X121300Y91200D03*
D28*
X21700Y91800D03*
D82*
X47200Y91800D03*
D21*
X67300Y91800D03*
X81100Y91800D03*
D53*
X91600Y91800D03*
D23*
X107200Y91800D03*
D20*
X110800Y91800D03*
D25*
X119200Y91800D03*
D30*
X21400Y92400D03*
D24*
X30100Y92400D03*
D80*
X49900Y92400D03*
D21*
X67300Y92400D03*
X81100Y92400D03*
D27*
X93400Y92400D03*
D23*
X107200Y92400D03*
D20*
X111400Y92400D03*
D21*
X116500Y92400D03*
D30*
X120400Y92400D03*
X20800Y93000D03*
D20*
X29200Y93000D03*
D64*
X50500Y93000D03*
D21*
X67300Y93000D03*
X81100Y93000D03*
D27*
X95800Y93000D03*
D23*
X107200Y93000D03*
D20*
X112600Y93000D03*
D21*
X116500Y93000D03*
D30*
X121000Y93000D03*
X20800Y93600D03*
D20*
X28600Y93600D03*
D62*
X51700Y93600D03*
D21*
X67300Y93600D03*
X81100Y93600D03*
D25*
X97000Y93600D03*
D23*
X107200Y93600D03*
D22*
X113500Y93600D03*
D23*
X116200Y93600D03*
D24*
X121300Y93600D03*
D30*
X20800Y94200D03*
X28000Y94200D03*
D33*
X53200Y94200D03*
D21*
X81100Y94200D03*
D23*
X94600Y94200D03*
D28*
X99700Y94200D03*
D21*
X106900Y94200D03*
D30*
X115000Y94200D03*
X121600Y94200D03*
X20200Y94800D03*
D28*
X27700Y94800D03*
D33*
X53200Y94800D03*
D21*
X81100Y94800D03*
D23*
X94600Y94800D03*
D27*
X101200Y94800D03*
D23*
X106600Y94800D03*
D24*
X115300Y94800D03*
X121900Y94800D03*
D30*
X20200Y95400D03*
D22*
X25900Y95400D03*
D21*
X29500Y95400D03*
D66*
X52300Y95400D03*
D21*
X81100Y95400D03*
D23*
X94600Y95400D03*
D30*
X102400Y95400D03*
D23*
X106600Y95400D03*
D20*
X116200Y95400D03*
X122200Y95400D03*
D28*
X19900Y96000D03*
D22*
X25300Y96000D03*
D21*
X29500Y96000D03*
D26*
X38500Y96000D03*
D83*
X55600Y96000D03*
D21*
X81100Y96000D03*
D23*
X94600Y96000D03*
D27*
X104800Y96000D03*
D22*
X116500Y96000D03*
D20*
X122800Y96000D03*
D28*
X19900Y96600D03*
D20*
X24400Y96600D03*
D21*
X29500Y96600D03*
D30*
X36400Y96600D03*
D23*
X40600Y96600D03*
D81*
X56500Y96600D03*
D21*
X81100Y96600D03*
X94300Y96600D03*
D30*
X105400Y96600D03*
D22*
X117100Y96600D03*
D20*
X122800Y96600D03*
D22*
X18700Y97200D03*
D28*
X22900Y97200D03*
D21*
X29500Y97200D03*
D30*
X35200Y97200D03*
D23*
X40600Y97200D03*
D76*
X64000Y97200D03*
D21*
X94300Y97200D03*
D30*
X106600Y97200D03*
D20*
X117400Y97200D03*
D22*
X123100Y97200D03*
D23*
X18400Y97800D03*
D24*
X22300Y97800D03*
D21*
X29500Y97800D03*
D30*
X34000Y97800D03*
D21*
X40900Y97800D03*
D78*
X66400Y97800D03*
D21*
X94300Y97800D03*
D24*
X107500Y97800D03*
X117700Y97800D03*
D22*
X123100Y97800D03*
X18100Y98400D03*
D20*
X22000Y98400D03*
D21*
X29500Y98400D03*
D20*
X32800Y98400D03*
D21*
X40900Y98400D03*
D61*
X59500Y98400D03*
D75*
X81700Y98400D03*
D21*
X94300Y98400D03*
D28*
X108100Y98400D03*
D21*
X116500Y98400D03*
D22*
X118900Y98400D03*
D20*
X123400Y98400D03*
D23*
X17800Y99000D03*
D22*
X21700Y99000D03*
D30*
X31000Y99000D03*
D21*
X40900Y99000D03*
D43*
X59500Y99000D03*
D65*
X85000Y99000D03*
D23*
X94000Y99000D03*
X106600Y99000D03*
D24*
X109900Y99000D03*
D21*
X116500Y99000D03*
D20*
X123400Y99000D03*
D23*
X17800Y99600D03*
D22*
X21700Y99600D03*
D24*
X30700Y99600D03*
D23*
X41200Y99600D03*
D41*
X57700Y99600D03*
D21*
X81100Y99600D03*
D24*
X87700Y99600D03*
D21*
X110500Y99600D03*
X124300Y99600D03*
D23*
X17800Y100200D03*
D22*
X21100Y100200D03*
D20*
X29800Y100200D03*
D23*
X41200Y100200D03*
D43*
X55900Y100200D03*
D23*
X17200Y100800D03*
D20*
X20800Y100800D03*
X29200Y100800D03*
D23*
X41200Y100800D03*
D28*
X47500Y100800D03*
D75*
X58900Y100800D03*
D23*
X17200Y101400D03*
D24*
X20500Y101400D03*
D30*
X28600Y101400D03*
D22*
X41500Y101400D03*
D30*
X45400Y101400D03*
D36*
X58900Y101400D03*
D29*
X89200Y101400D03*
D65*
X119200Y101400D03*
D23*
X17200Y102000D03*
D24*
X20500Y102000D03*
D22*
X27100Y102000D03*
D23*
X29800Y102000D03*
D27*
X43000Y102000D03*
D36*
X58900Y102000D03*
D40*
X73600Y102000D03*
D52*
X100000Y102000D03*
D20*
X114400Y102000D03*
D22*
X124300Y102000D03*
D26*
X19300Y102600D03*
D22*
X26500Y102600D03*
D23*
X30400Y102600D03*
D30*
X41800Y102600D03*
D36*
X58900Y102600D03*
D21*
X65500Y102600D03*
X81100Y102600D03*
X88900Y102600D03*
D24*
X112300Y102600D03*
D23*
X125200Y102600D03*
D30*
X17800Y103200D03*
D23*
X21400Y103200D03*
D22*
X25900Y103200D03*
D23*
X30400Y103200D03*
D28*
X40300Y103200D03*
D36*
X58900Y103200D03*
D21*
X65500Y103200D03*
D29*
X81400Y103200D03*
X88600Y103200D03*
D22*
X112300Y103200D03*
D30*
X119200Y103200D03*
D21*
X126100Y103200D03*
D20*
X17800Y103800D03*
D23*
X21400Y103800D03*
D22*
X25300Y103800D03*
D23*
X30400Y103800D03*
D26*
X39700Y103800D03*
D36*
X58900Y103800D03*
D21*
X65500Y103800D03*
D36*
X73300Y103800D03*
D29*
X81400Y103800D03*
X88600Y103800D03*
D31*
X94900Y103800D03*
X105700Y103800D03*
D21*
X111700Y103800D03*
D53*
X119200Y103800D03*
D21*
X126700Y103800D03*
D24*
X17500Y104400D03*
D23*
X21400Y104400D03*
X24400Y104400D03*
X30400Y104400D03*
D24*
X37300Y104400D03*
D23*
X41800Y104400D03*
X54400Y104400D03*
D46*
X60100Y104400D03*
D23*
X65800Y104400D03*
D65*
X73600Y104400D03*
D21*
X81100Y104400D03*
X88900Y104400D03*
D26*
X94900Y104400D03*
D25*
X105400Y104400D03*
D27*
X116800Y104400D03*
D22*
X123100Y104400D03*
D21*
X126700Y104400D03*
D20*
X17200Y105000D03*
D24*
X22900Y105000D03*
D23*
X30400Y105000D03*
D24*
X36100Y105000D03*
D23*
X41800Y105000D03*
X54400Y105000D03*
D53*
X60400Y105000D03*
D21*
X66100Y105000D03*
D49*
X73600Y105000D03*
D23*
X80800Y105000D03*
X89200Y105000D03*
D27*
X95200Y105000D03*
D21*
X100300Y105000D03*
D27*
X105400Y105000D03*
D28*
X115300Y105000D03*
D29*
X124600Y105000D03*
X127000Y105000D03*
D20*
X17200Y105600D03*
D24*
X22900Y105600D03*
D23*
X31000Y105600D03*
D30*
X35200Y105600D03*
D23*
X42400Y105600D03*
X55000Y105600D03*
D53*
X61000Y105600D03*
D22*
X66700Y105600D03*
D31*
X73300Y105600D03*
D23*
X80200Y105600D03*
D22*
X90100Y105600D03*
D30*
X95200Y105600D03*
D22*
X100300Y105600D03*
D30*
X105400Y105600D03*
D21*
X109900Y105600D03*
D30*
X115000Y105600D03*
D21*
X120700Y105600D03*
D29*
X127000Y105600D03*
D22*
X16900Y106200D03*
D20*
X22600Y106200D03*
D23*
X31000Y106200D03*
D24*
X34300Y106200D03*
D23*
X42400Y106200D03*
X55000Y106200D03*
D46*
X61300Y106200D03*
D22*
X67300Y106200D03*
D26*
X73300Y106200D03*
D23*
X79600Y106200D03*
D20*
X83200Y106200D03*
D22*
X90700Y106200D03*
D24*
X95500Y106200D03*
X100300Y106200D03*
X105100Y106200D03*
D23*
X109600Y106200D03*
D30*
X114400Y106200D03*
D27*
X121000Y106200D03*
D29*
X127000Y106200D03*
D22*
X16900Y106800D03*
X22300Y106800D03*
D28*
X32500Y106800D03*
D23*
X42400Y106800D03*
D51*
X59800Y106800D03*
D22*
X67900Y106800D03*
D27*
X73600Y106800D03*
D22*
X78700Y106800D03*
D25*
X85000Y106800D03*
D21*
X91300Y106800D03*
D24*
X95500Y106800D03*
D21*
X99100Y106800D03*
X101500Y106800D03*
D24*
X105100Y106800D03*
D22*
X109300Y106800D03*
D24*
X114100Y106800D03*
D26*
X120700Y106800D03*
D21*
X126700Y106800D03*
D23*
X16600Y107400D03*
D22*
X21700Y107400D03*
D24*
X31900Y107400D03*
D23*
X42400Y107400D03*
D55*
X58600Y107400D03*
D23*
X68800Y107400D03*
D27*
X73600Y107400D03*
D23*
X78400Y107400D03*
D53*
X85600Y107400D03*
D29*
X91600Y107400D03*
D24*
X95500Y107400D03*
D21*
X99100Y107400D03*
X101500Y107400D03*
D24*
X105100Y107400D03*
D22*
X109300Y107400D03*
D30*
X113800Y107400D03*
D26*
X120700Y107400D03*
D21*
X126700Y107400D03*
D23*
X16600Y108000D03*
D20*
X21400Y108000D03*
X31000Y108000D03*
D23*
X43000Y108000D03*
D46*
X52900Y108000D03*
X62500Y108000D03*
D21*
X69100Y108000D03*
D27*
X73600Y108000D03*
D21*
X78100Y108000D03*
D29*
X80200Y108000D03*
D27*
X87400Y108000D03*
D29*
X91600Y108000D03*
D24*
X95500Y108000D03*
D21*
X99100Y108000D03*
X101500Y108000D03*
D24*
X105100Y108000D03*
D22*
X109300Y108000D03*
D24*
X113500Y108000D03*
D21*
X126700Y108000D03*
D23*
X16600Y108600D03*
D24*
X21700Y108600D03*
X30700Y108600D03*
D23*
X43000Y108600D03*
D49*
X51400Y108600D03*
D46*
X63100Y108600D03*
D29*
X69400Y108600D03*
D27*
X73600Y108600D03*
D29*
X77800Y108600D03*
D21*
X79900Y108600D03*
D22*
X88900Y108600D03*
D29*
X91600Y108600D03*
D24*
X95500Y108600D03*
D21*
X99100Y108600D03*
X101500Y108600D03*
D24*
X105100Y108600D03*
D22*
X109300Y108600D03*
D30*
X113800Y108600D03*
D29*
X127000Y108600D03*
D23*
X16600Y109200D03*
D30*
X21400Y109200D03*
D28*
X30100Y109200D03*
D23*
X43000Y109200D03*
D27*
X47800Y109200D03*
D29*
X51400Y109200D03*
D23*
X55000Y109200D03*
D49*
X63400Y109200D03*
D29*
X69400Y109200D03*
D27*
X73600Y109200D03*
D29*
X77800Y109200D03*
D21*
X79900Y109200D03*
D29*
X91600Y109200D03*
D24*
X95500Y109200D03*
D21*
X99100Y109200D03*
X101500Y109200D03*
D24*
X105100Y109200D03*
D22*
X109300Y109200D03*
D42*
X118300Y109200D03*
D29*
X127000Y109200D03*
D23*
X16600Y109800D03*
D22*
X19900Y109800D03*
D23*
X22600Y109800D03*
D20*
X28600Y109800D03*
D23*
X31600Y109800D03*
D26*
X45100Y109800D03*
D23*
X55600Y109800D03*
D22*
X60700Y109800D03*
D20*
X66400Y109800D03*
D29*
X69400Y109800D03*
D27*
X73600Y109800D03*
D29*
X77800Y109800D03*
D21*
X79900Y109800D03*
D29*
X91600Y109800D03*
D24*
X95500Y109800D03*
D23*
X99400Y109800D03*
D21*
X101500Y109800D03*
D24*
X105100Y109800D03*
D22*
X109300Y109800D03*
D42*
X118300Y109800D03*
D29*
X127000Y109800D03*
D23*
X16600Y110400D03*
D22*
X19300Y110400D03*
D23*
X22600Y110400D03*
D22*
X27700Y110400D03*
D23*
X32200Y110400D03*
D30*
X44200Y110400D03*
D23*
X55600Y110400D03*
D21*
X60700Y110400D03*
D22*
X66700Y110400D03*
D29*
X69400Y110400D03*
D27*
X73600Y110400D03*
D21*
X78100Y110400D03*
X79900Y110400D03*
D29*
X91600Y110400D03*
D24*
X95500Y110400D03*
D22*
X100300Y110400D03*
D24*
X105100Y110400D03*
D22*
X109300Y110400D03*
D30*
X113800Y110400D03*
D20*
X123400Y110400D03*
D21*
X126700Y110400D03*
D30*
X17800Y111000D03*
D23*
X22600Y111000D03*
D22*
X27100Y111000D03*
D23*
X32200Y111000D03*
D28*
X42700Y111000D03*
D23*
X55600Y111000D03*
X67000Y111000D03*
D29*
X69400Y111000D03*
D27*
X73600Y111000D03*
D21*
X78100Y111000D03*
X79900Y111000D03*
D29*
X91600Y111000D03*
D30*
X95800Y111000D03*
D22*
X100300Y111000D03*
D24*
X105100Y111000D03*
D22*
X109300Y111000D03*
D24*
X114100Y111000D03*
D23*
X123400Y111000D03*
D21*
X126700Y111000D03*
D30*
X17800Y111600D03*
D21*
X22900Y111600D03*
D22*
X26500Y111600D03*
D23*
X32200Y111600D03*
D27*
X41800Y111600D03*
D23*
X55600Y111600D03*
D21*
X67300Y111600D03*
D29*
X69400Y111600D03*
D27*
X73600Y111600D03*
D21*
X78100Y111600D03*
X79900Y111600D03*
D24*
X83500Y111600D03*
D29*
X91600Y111600D03*
D30*
X95800Y111600D03*
D29*
X100000Y111600D03*
D24*
X105100Y111600D03*
D22*
X109300Y111600D03*
D24*
X114100Y111600D03*
D23*
X123400Y111600D03*
D21*
X126700Y111600D03*
D24*
X17500Y112200D03*
D23*
X23200Y112200D03*
D22*
X25900Y112200D03*
D23*
X32800Y112200D03*
D24*
X39700Y112200D03*
D23*
X43600Y112200D03*
X55600Y112200D03*
D24*
X63700Y112200D03*
D29*
X69400Y112200D03*
D27*
X73600Y112200D03*
D21*
X78100Y112200D03*
D29*
X79600Y112200D03*
D23*
X82000Y112200D03*
X85000Y112200D03*
D29*
X91600Y112200D03*
D28*
X96100Y112200D03*
D30*
X104800Y112200D03*
D20*
X109600Y112200D03*
X114400Y112200D03*
D23*
X122800Y112200D03*
D21*
X126100Y112200D03*
D24*
X17500Y112800D03*
D30*
X24400Y112800D03*
D23*
X32800Y112800D03*
D24*
X38500Y112800D03*
D23*
X44200Y112800D03*
D21*
X55900Y112800D03*
X61900Y112800D03*
D23*
X65200Y112800D03*
D29*
X69400Y112800D03*
D27*
X73600Y112800D03*
D29*
X77800Y112800D03*
D23*
X81400Y112800D03*
D21*
X85300Y112800D03*
D29*
X91600Y112800D03*
D30*
X95800Y112800D03*
X104200Y112800D03*
D21*
X108700Y112800D03*
X110500Y112800D03*
D20*
X115000Y112800D03*
D23*
X122800Y112800D03*
D21*
X126100Y112800D03*
D20*
X17200Y113400D03*
X24400Y113400D03*
D23*
X32800Y113400D03*
D24*
X37300Y113400D03*
D23*
X44200Y113400D03*
D21*
X55900Y113400D03*
X61900Y113400D03*
D23*
X65800Y113400D03*
D29*
X69400Y113400D03*
D27*
X73600Y113400D03*
D29*
X77800Y113400D03*
D21*
X81100Y113400D03*
X85300Y113400D03*
D29*
X91600Y113400D03*
D24*
X95500Y113400D03*
D31*
X102700Y113400D03*
D21*
X108700Y113400D03*
X111100Y113400D03*
D20*
X115600Y113400D03*
D23*
X122200Y113400D03*
D21*
X125500Y113400D03*
D20*
X17200Y114000D03*
D22*
X24100Y114000D03*
D23*
X33400Y114000D03*
D20*
X36400Y114000D03*
D23*
X44200Y114000D03*
X56200Y114000D03*
D21*
X61900Y114000D03*
D23*
X66400Y114000D03*
D29*
X69400Y114000D03*
D27*
X73600Y114000D03*
D29*
X77800Y114000D03*
D21*
X80500Y114000D03*
D29*
X83200Y114000D03*
D21*
X85300Y114000D03*
D29*
X91600Y114000D03*
D24*
X95500Y114000D03*
D27*
X103000Y114000D03*
D23*
X108400Y114000D03*
X111400Y114000D03*
D20*
X116200Y114000D03*
D22*
X121300Y114000D03*
D23*
X125200Y114000D03*
D22*
X16900Y114600D03*
X23500Y114600D03*
D30*
X34600Y114600D03*
D23*
X44800Y114600D03*
X56200Y114600D03*
D29*
X58000Y114600D03*
D21*
X59500Y114600D03*
X61900Y114600D03*
D29*
X64000Y114600D03*
D23*
X67000Y114600D03*
D29*
X69400Y114600D03*
D27*
X73600Y114600D03*
D21*
X78100Y114600D03*
X79900Y114600D03*
X85300Y114600D03*
D29*
X91600Y114600D03*
D24*
X95500Y114600D03*
X102700Y114600D03*
D23*
X107800Y114600D03*
X112000Y114600D03*
D27*
X118600Y114600D03*
D23*
X124600Y114600D03*
D22*
X16900Y115200D03*
D20*
X23200Y115200D03*
D24*
X34300Y115200D03*
D23*
X44800Y115200D03*
D27*
X57400Y115200D03*
D21*
X61900Y115200D03*
X64300Y115200D03*
D20*
X68200Y115200D03*
D27*
X73600Y115200D03*
D22*
X78700Y115200D03*
D29*
X82600Y115200D03*
D21*
X85300Y115200D03*
D29*
X91600Y115200D03*
D24*
X95500Y115200D03*
D23*
X107200Y115200D03*
X112600Y115200D03*
X124000Y115200D03*
D20*
X17200Y115800D03*
D24*
X23500Y115800D03*
D20*
X33400Y115800D03*
D23*
X44800Y115800D03*
D53*
X56200Y115800D03*
D21*
X61900Y115800D03*
D23*
X64600Y115800D03*
D22*
X68500Y115800D03*
D27*
X73600Y115800D03*
D23*
X78400Y115800D03*
D21*
X82300Y115800D03*
X84700Y115800D03*
D20*
X88000Y115800D03*
D29*
X91600Y115800D03*
D24*
X95500Y115800D03*
D21*
X99700Y115800D03*
D22*
X106300Y115800D03*
D21*
X109300Y115800D03*
D20*
X113800Y115800D03*
D22*
X123100Y115800D03*
D21*
X126100Y115800D03*
D20*
X17200Y116400D03*
D30*
X23200Y116400D03*
D24*
X33100Y116400D03*
D21*
X45100Y116400D03*
D53*
X53800Y116400D03*
D21*
X61900Y116400D03*
D22*
X64900Y116400D03*
D23*
X68800Y116400D03*
D27*
X73600Y116400D03*
D23*
X78400Y116400D03*
X82000Y116400D03*
D21*
X84700Y116400D03*
D20*
X88000Y116400D03*
D29*
X91600Y116400D03*
D24*
X95500Y116400D03*
D46*
X102700Y116400D03*
D22*
X109900Y116400D03*
D65*
X118600Y116400D03*
D23*
X125800Y116400D03*
D20*
X17200Y117000D03*
D22*
X21700Y117000D03*
D21*
X24700Y117000D03*
D27*
X32800Y117000D03*
D23*
X45400Y117000D03*
D25*
X52000Y117000D03*
D23*
X56800Y117000D03*
D21*
X61900Y117000D03*
D20*
X65200Y117000D03*
D27*
X73600Y117000D03*
D22*
X81700Y117000D03*
D21*
X84700Y117000D03*
D22*
X88300Y117000D03*
D21*
X91300Y117000D03*
D24*
X95500Y117000D03*
D31*
X102100Y117000D03*
D24*
X110500Y117000D03*
D53*
X118600Y117000D03*
D22*
X125500Y117000D03*
D20*
X17200Y117600D03*
D23*
X21400Y117600D03*
X25000Y117600D03*
D20*
X31000Y117600D03*
D23*
X34600Y117600D03*
D53*
X48400Y117600D03*
D23*
X56800Y117600D03*
D21*
X61900Y117600D03*
D24*
X65500Y117600D03*
D27*
X73600Y117600D03*
D20*
X81400Y117600D03*
D21*
X84700Y117600D03*
D23*
X91000Y117600D03*
D24*
X95500Y117600D03*
D21*
X99100Y117600D03*
D20*
X111400Y117600D03*
D22*
X125500Y117600D03*
D24*
X17500Y118200D03*
D22*
X21100Y118200D03*
D23*
X25000Y118200D03*
D22*
X30100Y118200D03*
D21*
X34900Y118200D03*
D26*
X47500Y118200D03*
D23*
X56800Y118200D03*
D21*
X61900Y118200D03*
D43*
X73300Y118200D03*
D21*
X84700Y118200D03*
D23*
X90400Y118200D03*
D24*
X95500Y118200D03*
D21*
X99100Y118200D03*
D22*
X111700Y118200D03*
D23*
X125800Y118200D03*
D24*
X17500Y118800D03*
D23*
X20800Y118800D03*
X25600Y118800D03*
D22*
X29500Y118800D03*
D23*
X35200Y118800D03*
D28*
X46300Y118800D03*
D21*
X57100Y118800D03*
X61900Y118800D03*
D43*
X73300Y118800D03*
D21*
X84700Y118800D03*
D23*
X89800Y118800D03*
D30*
X95200Y118800D03*
D21*
X99100Y118800D03*
D20*
X112000Y118800D03*
D22*
X125500Y118800D03*
D21*
X16300Y119400D03*
D24*
X19300Y119400D03*
D23*
X25600Y119400D03*
D22*
X28900Y119400D03*
D23*
X35200Y119400D03*
D28*
X44500Y119400D03*
D21*
X57100Y119400D03*
X61900Y119400D03*
D43*
X73300Y119400D03*
D21*
X84700Y119400D03*
X89500Y119400D03*
D28*
X94900Y119400D03*
D21*
X99100Y119400D03*
D24*
X112300Y119400D03*
X120700Y119400D03*
D22*
X125500Y119400D03*
D21*
X16300Y120000D03*
D20*
X19600Y120000D03*
D30*
X27400Y120000D03*
D23*
X35800Y120000D03*
D24*
X43300Y120000D03*
D23*
X46600Y120000D03*
X57400Y120000D03*
D29*
X62200Y120000D03*
D21*
X84700Y120000D03*
D29*
X89200Y120000D03*
D26*
X94300Y120000D03*
D21*
X99100Y120000D03*
D28*
X112300Y120000D03*
D24*
X120700Y120000D03*
D23*
X125200Y120000D03*
D21*
X16300Y120600D03*
D20*
X19600Y120600D03*
D24*
X27100Y120600D03*
D23*
X35800Y120600D03*
D24*
X42100Y120600D03*
D23*
X46600Y120600D03*
X57400Y120600D03*
D21*
X62500Y120600D03*
X84700Y120600D03*
D29*
X89200Y120600D03*
D21*
X99100Y120600D03*
X100900Y120600D03*
D23*
X110800Y120600D03*
D22*
X114100Y120600D03*
X119500Y120600D03*
D23*
X122200Y120600D03*
X125200Y120600D03*
D21*
X16300Y121200D03*
D22*
X19300Y121200D03*
X27100Y121200D03*
D23*
X36400Y121200D03*
D20*
X40600Y121200D03*
D21*
X46900Y121200D03*
D23*
X57400Y121200D03*
D52*
X73600Y121200D03*
D21*
X89500Y121200D03*
X99100Y121200D03*
D22*
X101500Y121200D03*
D23*
X110200Y121200D03*
D22*
X114700Y121200D03*
D23*
X119200Y121200D03*
D28*
X123700Y121200D03*
D21*
X16300Y121800D03*
D22*
X19300Y121800D03*
D23*
X26800Y121800D03*
D27*
X38200Y121800D03*
D23*
X47200Y121800D03*
D21*
X57700Y121800D03*
D29*
X84400Y121800D03*
D24*
X90700Y121800D03*
D23*
X98800Y121800D03*
D20*
X102400Y121800D03*
D23*
X110200Y121800D03*
D22*
X115300Y121800D03*
D23*
X118600Y121800D03*
D30*
X124000Y121800D03*
D23*
X16600Y122400D03*
D22*
X19300Y122400D03*
D20*
X26800Y122400D03*
D30*
X38200Y122400D03*
D23*
X47200Y122400D03*
D21*
X57700Y122400D03*
D46*
X94900Y122400D03*
D22*
X103300Y122400D03*
D23*
X109600Y122400D03*
X115600Y122400D03*
X118600Y122400D03*
D30*
X124000Y122400D03*
D23*
X16600Y123000D03*
D20*
X19600Y123000D03*
D24*
X26500Y123000D03*
D20*
X37600Y123000D03*
D21*
X47500Y123000D03*
D23*
X58000Y123000D03*
D29*
X61000Y123000D03*
X62200Y123000D03*
D20*
X104200Y123000D03*
D23*
X109600Y123000D03*
D30*
X117400Y123000D03*
X124000Y123000D03*
D27*
X18400Y123600D03*
D23*
X25000Y123600D03*
X28000Y123600D03*
D24*
X36700Y123600D03*
D23*
X47800Y123600D03*
D26*
X60100Y123600D03*
D21*
X84100Y123600D03*
X88300Y123600D03*
D22*
X105100Y123600D03*
D23*
X109000Y123600D03*
D20*
X117400Y123600D03*
D24*
X124300Y123600D03*
D27*
X19000Y124200D03*
D23*
X25000Y124200D03*
X28000Y124200D03*
D30*
X36400Y124200D03*
D23*
X47800Y124200D03*
D53*
X58600Y124200D03*
D57*
X78100Y124200D03*
D29*
X98800Y124200D03*
D27*
X107200Y124200D03*
D20*
X117400Y124200D03*
X124000Y124200D03*
D27*
X19000Y124800D03*
D23*
X24400Y124800D03*
X28600Y124800D03*
D22*
X34900Y124800D03*
D23*
X38200Y124800D03*
X48400Y124800D03*
D31*
X55900Y124800D03*
D57*
X78700Y124800D03*
D23*
X98200Y124800D03*
D24*
X107500Y124800D03*
D23*
X117400Y124800D03*
D20*
X124000Y124800D03*
X17800Y125400D03*
D22*
X21100Y125400D03*
D23*
X23800Y125400D03*
X28600Y125400D03*
D22*
X34300Y125400D03*
D23*
X38200Y125400D03*
X48400Y125400D03*
D26*
X53500Y125400D03*
D23*
X58600Y125400D03*
D52*
X79600Y125400D03*
D23*
X98200Y125400D03*
D20*
X107800Y125400D03*
X117400Y125400D03*
X124000Y125400D03*
X17800Y126000D03*
D30*
X22600Y126000D03*
D23*
X29200Y126000D03*
D20*
X33400Y126000D03*
D23*
X38800Y126000D03*
D26*
X51100Y126000D03*
D23*
X58600Y126000D03*
D21*
X68500Y126000D03*
D84*
X81700Y126000D03*
D23*
X97600Y126000D03*
D24*
X108100Y126000D03*
D20*
X117400Y126000D03*
D24*
X123700Y126000D03*
D20*
X17800Y126600D03*
D24*
X22300Y126600D03*
D22*
X29500Y126600D03*
D20*
X32800Y126600D03*
D23*
X38800Y126600D03*
D27*
X49600Y126600D03*
D21*
X58900Y126600D03*
X68500Y126600D03*
D41*
X79300Y126600D03*
D28*
X91900Y126600D03*
D23*
X97600Y126600D03*
D30*
X108400Y126600D03*
X117400Y126600D03*
D20*
X123400Y126600D03*
D22*
X18100Y127200D03*
D20*
X22600Y127200D03*
D28*
X31300Y127200D03*
D23*
X39400Y127200D03*
D28*
X48100Y127200D03*
D21*
X58900Y127200D03*
X68500Y127200D03*
D85*
X79600Y127200D03*
D25*
X94600Y127200D03*
D22*
X106900Y127200D03*
X109900Y127200D03*
D23*
X116200Y127200D03*
X118600Y127200D03*
D24*
X123100Y127200D03*
D22*
X18100Y127800D03*
D20*
X22600Y127800D03*
D24*
X30700Y127800D03*
D23*
X40000Y127800D03*
D26*
X47500Y127800D03*
D23*
X59200Y127800D03*
D21*
X68500Y127800D03*
D85*
X79600Y127800D03*
D27*
X95200Y127800D03*
D23*
X106600Y127800D03*
D22*
X110500Y127800D03*
D23*
X115600Y127800D03*
D22*
X118900Y127800D03*
D24*
X123100Y127800D03*
D22*
X18100Y128400D03*
D23*
X22600Y128400D03*
D20*
X31000Y128400D03*
D23*
X40000Y128400D03*
D24*
X45700Y128400D03*
D21*
X49900Y128400D03*
D23*
X59200Y128400D03*
D21*
X68500Y128400D03*
D86*
X79900Y128400D03*
D30*
X96400Y128400D03*
D23*
X106000Y128400D03*
X110800Y128400D03*
D22*
X115300Y128400D03*
D23*
X119200Y128400D03*
D30*
X122800Y128400D03*
D23*
X18400Y129000D03*
D22*
X22900Y129000D03*
X30700Y129000D03*
D23*
X40600Y129000D03*
D24*
X44500Y129000D03*
D23*
X50200Y129000D03*
D21*
X59500Y129000D03*
X68500Y129000D03*
D40*
X80200Y129000D03*
D30*
X97000Y129000D03*
D23*
X106000Y129000D03*
X111400Y129000D03*
X115000Y129000D03*
X119200Y129000D03*
D24*
X122500Y129000D03*
D22*
X18700Y129600D03*
X22900Y129600D03*
D24*
X30700Y129600D03*
D27*
X42400Y129600D03*
D23*
X50200Y129600D03*
D21*
X59500Y129600D03*
X68500Y129600D03*
D86*
X80500Y129600D03*
D27*
X97600Y129600D03*
D23*
X105400Y129600D03*
D22*
X111700Y129600D03*
D23*
X114400Y129600D03*
D26*
X121300Y129600D03*
D22*
X18700Y130200D03*
D24*
X22900Y130200D03*
D28*
X30700Y130200D03*
D24*
X42100Y130200D03*
D23*
X50800Y130200D03*
X59800Y130200D03*
D21*
X68500Y130200D03*
D86*
X81100Y130200D03*
D22*
X95500Y130200D03*
D24*
X99700Y130200D03*
D23*
X105400Y130200D03*
D30*
X113200Y130200D03*
D27*
X121600Y130200D03*
D22*
X18700Y130800D03*
D30*
X23200Y130800D03*
D23*
X29200Y130800D03*
X32200Y130800D03*
D24*
X41500Y130800D03*
D23*
X50800Y130800D03*
D21*
X60100Y130800D03*
D52*
X77800Y130800D03*
D23*
X95200Y130800D03*
D20*
X100600Y130800D03*
D23*
X104800Y130800D03*
D20*
X113200Y130800D03*
X120400Y130800D03*
D21*
X123100Y130800D03*
D22*
X19300Y131400D03*
D23*
X22000Y131400D03*
X24400Y131400D03*
D22*
X28900Y131400D03*
D23*
X32800Y131400D03*
D24*
X40900Y131400D03*
D23*
X51400Y131400D03*
D66*
X74500Y131400D03*
D22*
X94900Y131400D03*
D28*
X102700Y131400D03*
D23*
X113200Y131400D03*
X120400Y131400D03*
X122800Y131400D03*
D28*
X20500Y132000D03*
D23*
X25000Y132000D03*
X28600Y132000D03*
D22*
X33100Y132000D03*
X39700Y132000D03*
D23*
X42400Y132000D03*
X51400Y132000D03*
D34*
X74200Y132000D03*
D21*
X94900Y132000D03*
D29*
X101800Y132000D03*
D23*
X104200Y132000D03*
D21*
X112900Y132000D03*
D23*
X122800Y132000D03*
D28*
X20500Y132600D03*
D23*
X25000Y132600D03*
X28000Y132600D03*
X33400Y132600D03*
D22*
X38500Y132600D03*
X42700Y132600D03*
D23*
X52000Y132600D03*
D25*
X59200Y132600D03*
D35*
X84400Y132600D03*
D30*
X20800Y133200D03*
X26800Y133200D03*
D23*
X34000Y133200D03*
D22*
X37900Y133200D03*
X43300Y133200D03*
D23*
X52000Y133200D03*
D31*
X57700Y133200D03*
D75*
X84700Y133200D03*
D30*
X20800Y133800D03*
D20*
X26800Y133800D03*
D23*
X34600Y133800D03*
D22*
X37300Y133800D03*
D23*
X43600Y133800D03*
D26*
X54100Y133800D03*
D21*
X60700Y133800D03*
D51*
X85000Y133800D03*
D28*
X106900Y133800D03*
D46*
X117700Y133800D03*
D24*
X21100Y134400D03*
D22*
X27100Y134400D03*
D24*
X36100Y134400D03*
D23*
X44200Y134400D03*
D30*
X53200Y134400D03*
D21*
X60700Y134400D03*
D67*
X70300Y134400D03*
D51*
X85000Y134400D03*
D50*
X98800Y134400D03*
D23*
X109000Y134400D03*
D20*
X113200Y134400D03*
X122200Y134400D03*
D66*
X142300Y134400D03*
D24*
X21100Y135000D03*
D22*
X27100Y135000D03*
D20*
X35800Y135000D03*
D22*
X44500Y135000D03*
D28*
X51700Y135000D03*
D21*
X63100Y135000D03*
D23*
X77800Y135000D03*
D65*
X85000Y135000D03*
D21*
X92500Y135000D03*
D23*
X104200Y135000D03*
D21*
X109300Y135000D03*
D22*
X111700Y135000D03*
D23*
X123400Y135000D03*
D21*
X126700Y135000D03*
D23*
X137200Y135000D03*
X146800Y135000D03*
X157600Y135000D03*
D24*
X21100Y135600D03*
D20*
X27400Y135600D03*
X35800Y135600D03*
D23*
X44800Y135600D03*
D25*
X51400Y135600D03*
D21*
X62500Y135600D03*
X78100Y135600D03*
D65*
X85000Y135600D03*
D29*
X92200Y135600D03*
D21*
X106900Y135600D03*
D24*
X110500Y135600D03*
D23*
X117400Y135600D03*
X124000Y135600D03*
D29*
X126400Y135600D03*
D21*
X157900Y135600D03*
D20*
X21400Y136200D03*
X27400Y136200D03*
X35800Y136200D03*
D26*
X47500Y136200D03*
D23*
X53800Y136200D03*
D21*
X62500Y136200D03*
D51*
X70600Y136200D03*
D21*
X78100Y136200D03*
D65*
X85000Y136200D03*
D29*
X92200Y136200D03*
D53*
X98200Y136200D03*
D21*
X106900Y136200D03*
D23*
X110200Y136200D03*
D31*
X117700Y136200D03*
D22*
X125500Y136200D03*
D25*
X131800Y136200D03*
D27*
X142000Y136200D03*
D25*
X152200Y136200D03*
D29*
X158200Y136200D03*
D24*
X21700Y136800D03*
X27700Y136800D03*
D28*
X36100Y136800D03*
X46900Y136800D03*
D22*
X54100Y136800D03*
D21*
X62500Y136800D03*
D36*
X70300Y136800D03*
D21*
X78100Y136800D03*
D65*
X85000Y136800D03*
D29*
X92200Y136800D03*
D31*
X97900Y136800D03*
D22*
X106900Y136800D03*
D21*
X109900Y136800D03*
D24*
X114700Y136800D03*
X120700Y136800D03*
D22*
X126100Y136800D03*
D26*
X132100Y136800D03*
D27*
X142000Y136800D03*
D25*
X152200Y136800D03*
D21*
X157900Y136800D03*
D24*
X22300Y137400D03*
D30*
X28000Y137400D03*
D23*
X34600Y137400D03*
D22*
X37900Y137400D03*
D20*
X46600Y137400D03*
D23*
X54400Y137400D03*
X62800Y137400D03*
D45*
X70300Y137400D03*
D23*
X77800Y137400D03*
D46*
X86500Y137400D03*
D21*
X92500Y137400D03*
D26*
X97900Y137400D03*
D21*
X103900Y137400D03*
X106900Y137400D03*
D24*
X113500Y137400D03*
D20*
X121600Y137400D03*
D23*
X126400Y137400D03*
D28*
X132100Y137400D03*
D23*
X137200Y137400D03*
D30*
X142000Y137400D03*
D23*
X146800Y137400D03*
D27*
X152200Y137400D03*
D23*
X157600Y137400D03*
D24*
X22300Y138000D03*
D21*
X26500Y138000D03*
D22*
X29500Y138000D03*
D23*
X34000Y138000D03*
D22*
X38500Y138000D03*
D20*
X46000Y138000D03*
D23*
X55000Y138000D03*
X63400Y138000D03*
D53*
X70000Y138000D03*
D23*
X77200Y138000D03*
D53*
X86800Y138000D03*
D23*
X92800Y138000D03*
D28*
X97900Y138000D03*
D22*
X103900Y138000D03*
D24*
X112900Y138000D03*
D20*
X122200Y138000D03*
D22*
X127300Y138000D03*
D30*
X132400Y138000D03*
D20*
X137200Y138000D03*
D30*
X142000Y138000D03*
D20*
X146800Y138000D03*
D30*
X151600Y138000D03*
D23*
X157000Y138000D03*
D26*
X24100Y138600D03*
D22*
X30100Y138600D03*
X33700Y138600D03*
D23*
X38800Y138600D03*
D30*
X46000Y138600D03*
D22*
X55300Y138600D03*
D23*
X64000Y138600D03*
D26*
X70300Y138600D03*
D23*
X76600Y138600D03*
D53*
X87400Y138600D03*
D23*
X93400Y138600D03*
D24*
X97900Y138600D03*
D30*
X103600Y138600D03*
D24*
X112300Y138600D03*
D20*
X117400Y138600D03*
D24*
X122500Y138600D03*
D20*
X127600Y138600D03*
D30*
X132400Y138600D03*
D20*
X137200Y138600D03*
D30*
X142000Y138600D03*
D20*
X146800Y138600D03*
D24*
X151900Y138600D03*
D23*
X156400Y138600D03*
D26*
X24100Y139200D03*
D28*
X31900Y139200D03*
D23*
X39400Y139200D03*
D22*
X44500Y139200D03*
D23*
X47800Y139200D03*
X55600Y139200D03*
X64600Y139200D03*
D27*
X70600Y139200D03*
D23*
X76000Y139200D03*
D30*
X80800Y139200D03*
D46*
X87700Y139200D03*
D23*
X94000Y139200D03*
D24*
X97900Y139200D03*
D23*
X102400Y139200D03*
D24*
X106300Y139200D03*
X112300Y139200D03*
X117700Y139200D03*
D30*
X122800Y139200D03*
D22*
X127900Y139200D03*
D30*
X132400Y139200D03*
D29*
X136000Y139200D03*
X138400Y139200D03*
D24*
X141700Y139200D03*
D29*
X145600Y139200D03*
X148000Y139200D03*
D24*
X151900Y139200D03*
D23*
X155800Y139200D03*
D27*
X24400Y139800D03*
D30*
X32200Y139800D03*
D22*
X39700Y139800D03*
X43900Y139800D03*
X48100Y139800D03*
X55900Y139800D03*
D24*
X61300Y139800D03*
D22*
X65500Y139800D03*
D28*
X70300Y139800D03*
D23*
X75400Y139800D03*
D28*
X80500Y139800D03*
D49*
X88000Y139800D03*
D21*
X94300Y139800D03*
D24*
X97900Y139800D03*
D29*
X101800Y139800D03*
D30*
X106600Y139800D03*
X112000Y139800D03*
D21*
X116500Y139800D03*
X118900Y139800D03*
D24*
X123100Y139800D03*
D29*
X127000Y139800D03*
D21*
X128500Y139800D03*
D30*
X132400Y139800D03*
D29*
X136000Y139800D03*
X138400Y139800D03*
D24*
X141700Y139800D03*
D29*
X145600Y139800D03*
X148000Y139800D03*
D24*
X151900Y139800D03*
D21*
X155500Y139800D03*
D27*
X24400Y140400D03*
D20*
X32200Y140400D03*
D28*
X41500Y140400D03*
D22*
X48700Y140400D03*
D23*
X56200Y140400D03*
D26*
X60700Y140400D03*
D23*
X65800Y140400D03*
D28*
X70300Y140400D03*
D23*
X74800Y140400D03*
X78400Y140400D03*
D29*
X82600Y140400D03*
D49*
X88000Y140400D03*
D21*
X94300Y140400D03*
D24*
X97900Y140400D03*
D29*
X101800Y140400D03*
D27*
X106000Y140400D03*
D30*
X112000Y140400D03*
D21*
X115900Y140400D03*
D23*
X119200Y140400D03*
D24*
X123100Y140400D03*
D29*
X127000Y140400D03*
D21*
X128500Y140400D03*
D30*
X132400Y140400D03*
D29*
X136000Y140400D03*
X138400Y140400D03*
D24*
X141700Y140400D03*
D21*
X145900Y140400D03*
D29*
X148000Y140400D03*
D24*
X151900Y140400D03*
D29*
X155200Y140400D03*
D28*
X24700Y141000D03*
D22*
X32500Y141000D03*
D24*
X41500Y141000D03*
D22*
X49300Y141000D03*
D26*
X58300Y141000D03*
D22*
X63100Y141000D03*
D21*
X66100Y141000D03*
D28*
X70300Y141000D03*
X76300Y141000D03*
D29*
X82600Y141000D03*
D49*
X88000Y141000D03*
D21*
X94300Y141000D03*
D24*
X97900Y141000D03*
D20*
X103000Y141000D03*
D30*
X112000Y141000D03*
D21*
X115900Y141000D03*
X119500Y141000D03*
D24*
X123100Y141000D03*
D29*
X127000Y141000D03*
D21*
X128500Y141000D03*
D30*
X132400Y141000D03*
D29*
X136000Y141000D03*
X138400Y141000D03*
D30*
X142000Y141000D03*
D29*
X145600Y141000D03*
X148000Y141000D03*
D24*
X151900Y141000D03*
D29*
X155200Y141000D03*
D28*
X25300Y141600D03*
D20*
X32800Y141600D03*
X41800Y141600D03*
D22*
X49900Y141600D03*
D30*
X56800Y141600D03*
D23*
X63400Y141600D03*
D21*
X66100Y141600D03*
D28*
X70300Y141600D03*
D24*
X76300Y141600D03*
D29*
X80800Y141600D03*
X82600Y141600D03*
D49*
X88000Y141600D03*
D21*
X94300Y141600D03*
D24*
X97900Y141600D03*
D22*
X102700Y141600D03*
D24*
X111700Y141600D03*
D21*
X115900Y141600D03*
X119500Y141600D03*
D24*
X123100Y141600D03*
D29*
X127000Y141600D03*
D21*
X128500Y141600D03*
D30*
X132400Y141600D03*
D21*
X136300Y141600D03*
D29*
X138400Y141600D03*
D30*
X142000Y141600D03*
D21*
X145900Y141600D03*
D29*
X148000Y141600D03*
D24*
X151900Y141600D03*
D29*
X155200Y141600D03*
D27*
X25600Y142200D03*
D30*
X33400Y142200D03*
D24*
X42100Y142200D03*
D23*
X50200Y142200D03*
D28*
X55900Y142200D03*
D23*
X63400Y142200D03*
D21*
X66100Y142200D03*
D28*
X70300Y142200D03*
D21*
X79900Y142200D03*
D29*
X82600Y142200D03*
X84400Y142200D03*
D28*
X90100Y142200D03*
D21*
X94300Y142200D03*
D30*
X98200Y142200D03*
D23*
X102400Y142200D03*
D30*
X112000Y142200D03*
D21*
X115900Y142200D03*
X119500Y142200D03*
D24*
X123100Y142200D03*
D29*
X127000Y142200D03*
D21*
X128500Y142200D03*
D30*
X132400Y142200D03*
D21*
X136300Y142200D03*
X138100Y142200D03*
D30*
X142000Y142200D03*
D20*
X146800Y142200D03*
D24*
X151900Y142200D03*
D29*
X155200Y142200D03*
D27*
X26200Y142800D03*
D23*
X32200Y142800D03*
D22*
X34900Y142800D03*
D28*
X42100Y142800D03*
D23*
X50800Y142800D03*
D24*
X54100Y142800D03*
D23*
X58000Y142800D03*
X64000Y142800D03*
D21*
X66100Y142800D03*
D27*
X70600Y142800D03*
D23*
X79600Y142800D03*
D29*
X82600Y142800D03*
D30*
X90400Y142800D03*
D21*
X94300Y142800D03*
D30*
X98200Y142800D03*
D23*
X102400Y142800D03*
D22*
X106300Y142800D03*
D30*
X112000Y142800D03*
D21*
X115900Y142800D03*
X118900Y142800D03*
D24*
X123100Y142800D03*
D29*
X127000Y142800D03*
D21*
X128500Y142800D03*
D30*
X132400Y142800D03*
D20*
X137200Y142800D03*
D30*
X142000Y142800D03*
D22*
X147100Y142800D03*
D30*
X151600Y142800D03*
D29*
X155200Y142800D03*
D27*
X26800Y143400D03*
D23*
X32200Y143400D03*
D22*
X35500Y143400D03*
D23*
X40600Y143400D03*
D22*
X43900Y143400D03*
D30*
X52600Y143400D03*
D23*
X58000Y143400D03*
X64000Y143400D03*
D21*
X66100Y143400D03*
D35*
X74200Y143400D03*
D29*
X82600Y143400D03*
D24*
X90100Y143400D03*
D21*
X94300Y143400D03*
D30*
X98200Y143400D03*
D21*
X102700Y143400D03*
D20*
X106600Y143400D03*
D24*
X112300Y143400D03*
D21*
X116500Y143400D03*
X118900Y143400D03*
D24*
X123100Y143400D03*
D29*
X127000Y143400D03*
D21*
X128500Y143400D03*
D30*
X132400Y143400D03*
D22*
X137500Y143400D03*
D30*
X142000Y143400D03*
D22*
X147100Y143400D03*
D30*
X151600Y143400D03*
D29*
X155200Y143400D03*
D26*
X27100Y144000D03*
D23*
X32200Y144000D03*
D22*
X36100Y144000D03*
D23*
X40000Y144000D03*
D22*
X44500Y144000D03*
D20*
X52000Y144000D03*
D23*
X58600Y144000D03*
X64000Y144000D03*
D21*
X66100Y144000D03*
D35*
X74200Y144000D03*
D29*
X82600Y144000D03*
D24*
X85900Y144000D03*
D22*
X90100Y144000D03*
D23*
X94000Y144000D03*
D30*
X98200Y144000D03*
D20*
X106600Y144000D03*
D24*
X112300Y144000D03*
X117700Y144000D03*
X122500Y144000D03*
D20*
X127600Y144000D03*
D28*
X132700Y144000D03*
D30*
X142000Y144000D03*
X151600Y144000D03*
D29*
X155200Y144000D03*
D26*
X27700Y144600D03*
D23*
X32200Y144600D03*
D27*
X38200Y144600D03*
D22*
X45100Y144600D03*
D24*
X51700Y144600D03*
D23*
X59200Y144600D03*
D21*
X64300Y144600D03*
X66100Y144600D03*
D35*
X74200Y144600D03*
D20*
X83800Y144600D03*
D23*
X87400Y144600D03*
D22*
X90100Y144600D03*
D23*
X93400Y144600D03*
D24*
X97900Y144600D03*
D20*
X106600Y144600D03*
D24*
X112900Y144600D03*
D22*
X117700Y144600D03*
D24*
X122500Y144600D03*
D22*
X127300Y144600D03*
D28*
X132700Y144600D03*
D30*
X141400Y144600D03*
D24*
X151300Y144600D03*
D29*
X155200Y144600D03*
D20*
X26800Y145200D03*
D30*
X31000Y145200D03*
D24*
X38500Y145200D03*
D22*
X45700Y145200D03*
D28*
X51700Y145200D03*
D23*
X59200Y145200D03*
D21*
X66100Y145200D03*
D35*
X74200Y145200D03*
D22*
X83500Y145200D03*
D21*
X87700Y145200D03*
D23*
X89800Y145200D03*
X92800Y145200D03*
D30*
X97600Y145200D03*
D24*
X106300Y145200D03*
D20*
X113200Y145200D03*
D24*
X121900Y145200D03*
D22*
X126700Y145200D03*
D24*
X132100Y145200D03*
D28*
X141100Y145200D03*
X150700Y145200D03*
D21*
X154900Y145200D03*
D20*
X26800Y145800D03*
D24*
X31300Y145800D03*
D20*
X38800Y145800D03*
D27*
X48400Y145800D03*
D22*
X53500Y145800D03*
D23*
X59800Y145800D03*
D21*
X66100Y145800D03*
D27*
X70600Y145800D03*
D23*
X79600Y145800D03*
X83200Y145800D03*
D21*
X87700Y145800D03*
D23*
X89800Y145800D03*
X92200Y145800D03*
D28*
X97300Y145800D03*
D27*
X104800Y145800D03*
D20*
X113800Y145800D03*
D24*
X121300Y145800D03*
D22*
X126100Y145800D03*
D30*
X131800Y145800D03*
D25*
X139600Y145800D03*
D31*
X149500Y145800D03*
D21*
X154900Y145800D03*
D20*
X27400Y146400D03*
D22*
X31900Y146400D03*
D20*
X39400Y146400D03*
D30*
X48400Y146400D03*
D22*
X54100Y146400D03*
D23*
X60400Y146400D03*
D21*
X66100Y146400D03*
D28*
X70300Y146400D03*
D21*
X80500Y146400D03*
D23*
X83200Y146400D03*
D29*
X85600Y146400D03*
D21*
X87700Y146400D03*
X89500Y146400D03*
X91900Y146400D03*
D27*
X97000Y146400D03*
D30*
X104800Y146400D03*
D23*
X109600Y146400D03*
D30*
X115000Y146400D03*
D24*
X120100Y146400D03*
D22*
X125500Y146400D03*
D27*
X131200Y146400D03*
X139600Y146400D03*
D26*
X149500Y146400D03*
D21*
X154900Y146400D03*
D22*
X27700Y147000D03*
X32500Y147000D03*
D30*
X40000Y147000D03*
D20*
X48400Y147000D03*
X55000Y147000D03*
D28*
X61900Y147000D03*
D21*
X66100Y147000D03*
D28*
X70300Y147000D03*
D30*
X76000Y147000D03*
D29*
X85600Y147000D03*
D21*
X87700Y147000D03*
X89500Y147000D03*
D29*
X91600Y147000D03*
D28*
X97300Y147000D03*
D23*
X104800Y147000D03*
D24*
X109900Y147000D03*
D25*
X117400Y147000D03*
D20*
X125200Y147000D03*
D28*
X131500Y147000D03*
D30*
X139600Y147000D03*
D29*
X144400Y147000D03*
D30*
X149200Y147000D03*
D23*
X154600Y147000D03*
D22*
X28300Y147600D03*
D24*
X33100Y147600D03*
D28*
X40300Y147600D03*
D24*
X48700Y147600D03*
D20*
X55600Y147600D03*
D28*
X61900Y147600D03*
D21*
X66100Y147600D03*
D28*
X70300Y147600D03*
D27*
X76600Y147600D03*
D21*
X85300Y147600D03*
X87700Y147600D03*
X89500Y147600D03*
X91900Y147600D03*
D23*
X108400Y147600D03*
D22*
X111100Y147600D03*
D29*
X117400Y147600D03*
D23*
X124000Y147600D03*
D29*
X126400Y147600D03*
D23*
X144400Y147600D03*
X154000Y147600D03*
D20*
X28600Y148200D03*
D30*
X33400Y148200D03*
D21*
X38500Y148200D03*
D24*
X42100Y148200D03*
D28*
X48700Y148200D03*
D20*
X56200Y148200D03*
D28*
X61300Y148200D03*
D23*
X65800Y148200D03*
D28*
X70300Y148200D03*
D27*
X76600Y148200D03*
D23*
X85000Y148200D03*
D21*
X87700Y148200D03*
X89500Y148200D03*
D22*
X92500Y148200D03*
X102100Y148200D03*
X107500Y148200D03*
X112300Y148200D03*
D20*
X122800Y148200D03*
D22*
X126700Y148200D03*
D23*
X136000Y148200D03*
D30*
X144400Y148200D03*
D22*
X153100Y148200D03*
D20*
X29200Y148800D03*
D27*
X34000Y148800D03*
D21*
X38500Y148800D03*
D24*
X43300Y148800D03*
D23*
X47200Y148800D03*
D20*
X50800Y148800D03*
D25*
X59200Y148800D03*
D23*
X65200Y148800D03*
D28*
X70300Y148800D03*
D27*
X76600Y148800D03*
D22*
X84700Y148800D03*
D21*
X87700Y148800D03*
D23*
X89800Y148800D03*
D40*
X100000Y148800D03*
D28*
X114100Y148800D03*
D30*
X121000Y148800D03*
D41*
X135100Y148800D03*
D49*
X149200Y148800D03*
D27*
X31000Y149400D03*
D28*
X36700Y149400D03*
X45100Y149400D03*
D20*
X51400Y149400D03*
D30*
X58600Y149400D03*
D21*
X61900Y149400D03*
D23*
X64600Y149400D03*
D27*
X70000Y149400D03*
D20*
X84400Y149400D03*
D21*
X87700Y149400D03*
D23*
X89800Y149400D03*
D53*
X97600Y149400D03*
D30*
X104800Y149400D03*
D49*
X117400Y149400D03*
D46*
X131500Y149400D03*
D25*
X139600Y149400D03*
X149200Y149400D03*
D28*
X31300Y150000D03*
D24*
X37300Y150000D03*
D30*
X45400Y150000D03*
D20*
X52600Y150000D03*
D30*
X58000Y150000D03*
D23*
X64000Y150000D03*
D25*
X70000Y150000D03*
D20*
X84400Y150000D03*
D21*
X87700Y150000D03*
D22*
X90100Y150000D03*
D21*
X109300Y150000D03*
X111100Y150000D03*
D24*
X117700Y150000D03*
D28*
X31900Y150600D03*
D24*
X37900Y150600D03*
X46300Y150600D03*
D49*
X56200Y150600D03*
D23*
X63400Y150600D03*
D63*
X76000Y150600D03*
D21*
X87700Y150600D03*
D20*
X90400Y150600D03*
D30*
X110200Y150600D03*
X32200Y151200D03*
D24*
X39100Y151200D03*
D30*
X47200Y151200D03*
D28*
X55300Y151200D03*
D23*
X59800Y151200D03*
X62800Y151200D03*
D61*
X75700Y151200D03*
D21*
X87700Y151200D03*
D26*
X91900Y151200D03*
D21*
X103300Y151200D03*
D30*
X109600Y151200D03*
X32800Y151800D03*
X40000Y151800D03*
D27*
X47800Y151800D03*
D24*
X55300Y151800D03*
D21*
X60100Y151800D03*
X62500Y151800D03*
D59*
X75400Y151800D03*
D21*
X87700Y151800D03*
D65*
X94000Y151800D03*
D24*
X104500Y151800D03*
D30*
X109000Y151800D03*
X33400Y152400D03*
D27*
X40600Y152400D03*
D23*
X46000Y152400D03*
D24*
X49900Y152400D03*
D30*
X56200Y152400D03*
D29*
X60400Y152400D03*
D21*
X62500Y152400D03*
X87700Y152400D03*
X89500Y152400D03*
D46*
X94900Y152400D03*
D49*
X106600Y152400D03*
D28*
X34300Y153000D03*
D23*
X39400Y153000D03*
D24*
X42700Y153000D03*
D23*
X46000Y153000D03*
D25*
X52600Y153000D03*
D20*
X58000Y153000D03*
D21*
X62500Y153000D03*
X87700Y153000D03*
D53*
X95200Y153000D03*
D24*
X103300Y153000D03*
D30*
X108400Y153000D03*
D53*
X36400Y153600D03*
D28*
X44500Y153600D03*
X53500Y153600D03*
D24*
X58900Y153600D03*
D23*
X62800Y153600D03*
X87400Y153600D03*
D49*
X95200Y153600D03*
D24*
X102100Y153600D03*
X107500Y153600D03*
D31*
X36700Y154200D03*
D24*
X45700Y154200D03*
D30*
X54400Y154200D03*
D24*
X59500Y154200D03*
D37*
X75100Y154200D03*
D50*
X96400Y154200D03*
D24*
X106900Y154200D03*
D31*
X37300Y154800D03*
D28*
X47500Y154800D03*
D46*
X57100Y154800D03*
D24*
X90100Y154800D03*
D45*
X97900Y154800D03*
D24*
X106300Y154800D03*
D31*
X37900Y155400D03*
D25*
X48400Y155400D03*
D23*
X53800Y155400D03*
D26*
X58300Y155400D03*
D22*
X88900Y155400D03*
D50*
X100600Y155400D03*
D24*
X36700Y156000D03*
D30*
X41200Y156000D03*
D23*
X46600Y156000D03*
D31*
X52300Y156000D03*
D25*
X59800Y156000D03*
D23*
X88000Y156000D03*
D50*
X100000Y156000D03*
D24*
X37300Y156600D03*
D53*
X43600Y156600D03*
D87*
X67900Y156600D03*
D22*
X88300Y156600D03*
D67*
X98500Y156600D03*
D51*
X42400Y157200D03*
D34*
X68800Y157200D03*
D63*
X95200Y157200D03*
D50*
X44200Y157800D03*
D88*
X72700Y157800D03*
D36*
X99100Y157800D03*
D26*
X40900Y158400D03*
D69*
X67600Y158400D03*
D36*
X98500Y158400D03*
D27*
X41800Y159000D03*
D88*
X66100Y159000D03*
D22*
X87100Y159000D03*
D51*
X97000Y159000D03*
D26*
X42700Y159600D03*
D22*
X48700Y159600D03*
D89*
X76600Y159600D03*
D65*
X45400Y160200D03*
D22*
X55900Y160200D03*
D90*
X76300Y160200D03*
D26*
X98500Y160200D03*
D91*
X67600Y160800D03*
D26*
X98500Y160800D03*
D69*
X64600Y161400D03*
D45*
X94900Y161400D03*
D21*
X100900Y161400D03*
D69*
X65800Y162000D03*
D49*
X93400Y162000D03*
D29*
X101200Y162000D03*
D46*
X49300Y162600D03*
D73*
X76900Y162600D03*
D46*
X50500Y163200D03*
D25*
X60400Y163200D03*
D22*
X66100Y163200D03*
D28*
X70300Y163200D03*
D22*
X74500Y163200D03*
D25*
X80200Y163200D03*
D51*
X89800Y163200D03*
D92*
X56800Y163800D03*
D21*
X68500Y163800D03*
D23*
X71800Y163800D03*
D22*
X75100Y163800D03*
D26*
X80500Y163800D03*
D46*
X90100Y163800D03*
D65*
X53800Y164400D03*
D27*
X63400Y164400D03*
D23*
X68200Y164400D03*
X71800Y164400D03*
D65*
X79000Y164400D03*
D46*
X88900Y164400D03*
X54700Y165000D03*
D49*
X65200Y165000D03*
D45*
X75100Y165000D03*
D36*
X85900Y165000D03*
D68*
X65800Y165600D03*
D45*
X85300Y165600D03*
D48*
X71200Y166200D03*
D64*
X70900Y166800D03*
D37*
X70900Y167400D03*
D43*
X70900Y168000D03*
D10*
X28194Y92954D02*
X24158Y92954D01*
X28194Y92954D02*
X28271Y92956D01*
X28349Y92962D01*
X28425Y92971D01*
X28502Y92985D01*
X28577Y93002D01*
X28651Y93023D01*
X28725Y93048D01*
X28797Y93076D01*
X28867Y93108D01*
X28936Y93143D01*
X29003Y93182D01*
X29068Y93224D01*
X29131Y93269D01*
X29192Y93317D01*
X29250Y93368D01*
X29305Y93422D01*
X29358Y93479D01*
X29407Y93538D01*
X29454Y93600D01*
X29498Y93664D01*
X29538Y93730D01*
X29575Y93798D01*
X29609Y93868D01*
X29639Y93939D01*
X29665Y94012D01*
X29688Y94086D01*
X29707Y94161D01*
X29722Y94236D01*
X29734Y94313D01*
X29742Y94390D01*
X29746Y94467D01*
X29746Y94545D01*
X29742Y94622D01*
X29734Y94699D01*
X29722Y94776D01*
X29707Y94851D01*
X29688Y94926D01*
X29665Y95000D01*
X29639Y95073D01*
X29609Y95144D01*
X29575Y95214D01*
X29538Y95282D01*
X29498Y95348D01*
X29454Y95412D01*
X29407Y95474D01*
X29358Y95533D01*
X29305Y95590D01*
X29250Y95644D01*
X29192Y95695D01*
X29131Y95743D01*
X29068Y95788D01*
X29003Y95830D01*
X28936Y95869D01*
X28867Y95904D01*
X28797Y95936D01*
X28725Y95964D01*
X28651Y95989D01*
X28577Y96010D01*
X28502Y96027D01*
X28425Y96041D01*
X28349Y96050D01*
X28271Y96056D01*
X28194Y96058D01*
X24158Y96058D01*
X24158Y99810D02*
X29746Y99810D01*
X26952Y99810D02*
X26486Y99034D01*
X26453Y98983D01*
X26417Y98934D01*
X26378Y98888D01*
X26335Y98845D01*
X26291Y98804D01*
X26243Y98766D01*
X26193Y98732D01*
X26141Y98701D01*
X26087Y98673D01*
X26032Y98649D01*
X25974Y98628D01*
X25916Y98612D01*
X25857Y98599D01*
X25797Y98590D01*
X25737Y98585D01*
X25676Y98584D01*
X25615Y98587D01*
X25555Y98594D01*
X25495Y98605D01*
X25437Y98620D01*
X25379Y98638D01*
X25322Y98660D01*
X25268Y98686D01*
X25215Y98716D01*
X25164Y98749D01*
X25115Y98785D01*
X25069Y98824D01*
X25025Y98866D01*
X24984Y98911D01*
X24947Y98958D01*
X24912Y99008D01*
X24881Y99060D01*
X24853Y99114D01*
X24829Y99170D01*
X24809Y99227D01*
X24792Y99285D01*
X24779Y99344D01*
X24763Y99441D01*
X24751Y99539D01*
X24744Y99637D01*
X24740Y99736D01*
X24739Y99834D01*
X24743Y99933D01*
X24751Y100031D01*
X24763Y100129D01*
X24779Y100226D01*
X24798Y100322D01*
X24822Y100418D01*
X24849Y100513D01*
X24880Y100606D01*
X24915Y100698D01*
X24953Y100789D01*
X24995Y100878D01*
X25040Y100966D01*
X25089Y101051D01*
X26952Y99810D02*
X27418Y100586D01*
X27451Y100637D01*
X27487Y100686D01*
X27526Y100732D01*
X27569Y100775D01*
X27613Y100816D01*
X27661Y100854D01*
X27711Y100888D01*
X27763Y100919D01*
X27817Y100947D01*
X27872Y100971D01*
X27930Y100992D01*
X27988Y101008D01*
X28047Y101021D01*
X28107Y101030D01*
X28167Y101035D01*
X28228Y101036D01*
X28289Y101033D01*
X28349Y101026D01*
X28409Y101015D01*
X28467Y101000D01*
X28525Y100982D01*
X28582Y100960D01*
X28636Y100934D01*
X28689Y100904D01*
X28740Y100871D01*
X28789Y100835D01*
X28835Y100796D01*
X28879Y100754D01*
X28920Y100709D01*
X28957Y100662D01*
X28992Y100612D01*
X29023Y100560D01*
X29051Y100506D01*
X29075Y100450D01*
X29095Y100393D01*
X29112Y100335D01*
X29125Y100276D01*
X29125Y100275D02*
X29141Y100178D01*
X29153Y100080D01*
X29160Y99982D01*
X29164Y99883D01*
X29165Y99785D01*
X29161Y99686D01*
X29153Y99588D01*
X29141Y99490D01*
X29125Y99393D01*
X29106Y99297D01*
X29082Y99201D01*
X29055Y99106D01*
X29024Y99013D01*
X28989Y98921D01*
X28951Y98830D01*
X28909Y98741D01*
X28864Y98653D01*
X28815Y98568D01*
X28504Y103378D02*
X24158Y104620D01*
X28504Y103378D02*
X28504Y106483D01*
X27262Y105551D02*
X29746Y105551D01*
D11*
X48500Y420950D02*
X73900Y420950D01*
X73900Y446350D01*
X48500Y446350D01*
X48500Y420950D01*
D12*
X61200Y452700D02*
X61200Y509850D01*
D11*
X73900Y420950D02*
X99300Y420950D01*
X99300Y446350D01*
X73900Y446350D01*
D12*
X86600Y452700D02*
X86600Y509850D01*
D11*
X99300Y420950D02*
X124700Y420950D01*
X124700Y446350D01*
X99300Y446350D01*
D12*
X112000Y452700D02*
X112000Y509850D01*
D11*
X124700Y420950D02*
X150100Y420950D01*
X150100Y446350D01*
X124700Y446350D01*
D12*
X137400Y452700D02*
X137400Y509850D01*
D11*
X150100Y420950D02*
X175500Y420950D01*
X175500Y446350D01*
X150100Y446350D01*
D12*
X162800Y452700D02*
X162800Y509850D01*
D13*
X61200Y448890D03*
X86600Y448890D03*
X112000Y448890D03*
X137400Y448890D03*
X162800Y448890D03*
D14*
X61200Y415870D03*
X86600Y415870D03*
D15*
X61200Y389200D03*
X86600Y389200D03*
D14*
X112000Y415870D03*
X137400Y415870D03*
D15*
X112000Y389200D03*
X137400Y389200D03*
D14*
X162800Y415870D03*
D15*
X162800Y389200D03*
D17*
X38975Y406345D02*
X30085Y406345D01*
X38975Y406345D02*
X39075Y406343D01*
X39174Y406337D01*
X39274Y406327D01*
X39372Y406314D01*
X39471Y406296D01*
X39568Y406275D01*
X39664Y406250D01*
X39760Y406221D01*
X39854Y406188D01*
X39947Y406152D01*
X40038Y406112D01*
X40128Y406068D01*
X40216Y406021D01*
X40302Y405971D01*
X40386Y405917D01*
X40468Y405860D01*
X40547Y405800D01*
X40625Y405736D01*
X40699Y405670D01*
X40771Y405601D01*
X40840Y405529D01*
X40906Y405455D01*
X40970Y405377D01*
X41030Y405298D01*
X41087Y405216D01*
X41141Y405132D01*
X41191Y405046D01*
X41238Y404958D01*
X41282Y404868D01*
X41322Y404777D01*
X41358Y404684D01*
X41391Y404590D01*
X41420Y404494D01*
X41445Y404398D01*
X41466Y404301D01*
X41484Y404202D01*
X41497Y404104D01*
X41507Y404004D01*
X41513Y403905D01*
X41515Y403805D01*
X41515Y402535D01*
X41515Y412325D02*
X30085Y412325D01*
X30085Y415500D01*
X30087Y415611D01*
X30093Y415721D01*
X30102Y415832D01*
X30116Y415942D01*
X30133Y416051D01*
X30154Y416160D01*
X30179Y416268D01*
X30208Y416375D01*
X30240Y416481D01*
X30276Y416586D01*
X30316Y416689D01*
X30359Y416791D01*
X30406Y416892D01*
X30457Y416991D01*
X30510Y417088D01*
X30567Y417182D01*
X30628Y417275D01*
X30691Y417366D01*
X30758Y417455D01*
X30828Y417541D01*
X30901Y417624D01*
X30976Y417706D01*
X31054Y417784D01*
X31136Y417859D01*
X31219Y417932D01*
X31305Y418002D01*
X31394Y418069D01*
X31485Y418132D01*
X31578Y418193D01*
X31672Y418250D01*
X31769Y418303D01*
X31868Y418354D01*
X31969Y418401D01*
X32071Y418444D01*
X32174Y418484D01*
X32279Y418520D01*
X32385Y418552D01*
X32492Y418581D01*
X32600Y418606D01*
X32709Y418627D01*
X32818Y418644D01*
X32928Y418658D01*
X33039Y418667D01*
X33149Y418673D01*
X33260Y418675D01*
X33371Y418673D01*
X33481Y418667D01*
X33592Y418658D01*
X33702Y418644D01*
X33811Y418627D01*
X33920Y418606D01*
X34028Y418581D01*
X34135Y418552D01*
X34241Y418520D01*
X34346Y418484D01*
X34449Y418444D01*
X34551Y418401D01*
X34652Y418354D01*
X34751Y418303D01*
X34848Y418250D01*
X34942Y418193D01*
X35035Y418132D01*
X35126Y418069D01*
X35215Y418002D01*
X35301Y417932D01*
X35384Y417859D01*
X35466Y417784D01*
X35544Y417706D01*
X35619Y417624D01*
X35692Y417541D01*
X35762Y417455D01*
X35829Y417366D01*
X35892Y417275D01*
X35953Y417182D01*
X36010Y417088D01*
X36063Y416991D01*
X36114Y416892D01*
X36161Y416791D01*
X36204Y416689D01*
X36244Y416586D01*
X36280Y416481D01*
X36312Y416375D01*
X36341Y416268D01*
X36366Y416160D01*
X36387Y416051D01*
X36404Y415942D01*
X36418Y415832D01*
X36427Y415721D01*
X36433Y415611D01*
X36435Y415500D01*
X36435Y412325D01*
X32625Y423184D02*
X30085Y426359D01*
X41515Y426359D01*
X41515Y423184D02*
X41515Y429534D01*
M02*
