M48
;GenerationSoftware,Autodesk,EAGLE,9.6.2*%
;CreationDate,2023-07-26T22:53:07Z*%
FMAT,2
ICI,OFF
METRIC,TZ,000.000
T7C0.350
T6C0.800
T5C0.813
T4C0.900
T3C1.000
T2C1.200
T1C2.000
%
G90
M71
T1
X2000Y33000
X48000Y33000
X2000Y2000
X48000Y2000
T2
X5270Y14500
X2730Y21500
X5270Y21500
X5270Y28370
X2730Y28370
X2730Y7500
X5270Y7500
X2730Y14500
T3
X39200Y3350
X44200Y3350
X41700Y3350
T4
X41960Y16500
X47040Y16500
X44500Y16500
X44500Y8000
X47040Y8000
X41960Y8000
X44500Y25000
X47040Y25000
X41960Y25000
T5
X40810Y32500
X33190Y32500
X20690Y32500
X28310Y32500
X8690Y32500
X16310Y32500
T6
X32230Y23850
X34770Y26390
X32230Y26390
X34770Y28930
X32230Y28930
X24270Y6070
X24270Y8610
X21730Y8610
X24270Y11150
X21730Y11150
X24270Y13690
X21730Y13690
X24270Y16230
X21730Y16230
X24270Y18770
X21730Y18770
X11230Y16230
X24270Y21310
X21730Y21310
X24270Y23850
X21730Y23850
X24270Y26390
X24270Y28930
X21730Y28930
X21730Y26390
X13770Y6070
X11230Y6070
X13770Y8610
X11230Y8610
X13770Y11150
X11230Y11150
X13770Y13690
X11230Y13690
X13770Y16230
X21730Y6070
X13770Y18770
X11230Y18770
X13770Y21310
X11230Y21310
X13770Y23850
X11230Y23850
X13770Y26390
X11230Y26390
X13770Y28930
X11230Y28930
X34770Y6070
X32230Y6070
X34770Y8610
X32230Y8610
X34770Y11150
X32230Y11150
X34770Y13690
X32230Y13690
X34770Y16230
X32230Y16230
X34770Y18770
X32230Y18770
X34770Y21310
X32230Y21310
X34770Y23850
T7
X39395Y22631
X25984Y15367
X31013Y10897
X14808Y24867
X33528Y7264
X8661Y12014
X30175Y7544
X30455Y19837
X30455Y25425
X30455Y27661
X10338Y12852
X35484Y7544
X18440Y22631
X26543Y23749
X19279Y13691
X27661Y13691
X37440Y20396
X20955Y2235
X40792Y14808
X20117Y26543
X28219Y10058
X27661Y23190
X31013Y8103
X17043Y10058
X37440Y14249
X17323Y20396
X36881Y5029
X26822Y5029
X39116Y14249
X29616Y22631
X42469Y2235
X15088Y30175
X25425Y29896
X27381Y28778
X35763Y2794
X22911Y3353
X8661Y27381
X16205Y14529
X18161Y4470
M30