G04 EAGLE Gerber RS-274X export*
G75*
%MOMM*%
%FSLAX34Y34*%
%LPD*%
%INSoldermask Bottom*%
%IPPOS*%
%AMOC8*
5,1,8,0,0,1.08239X$1,22.5*%
G01*
%ADD10C,2.203200*%
%ADD11R,2.003200X2.003200*%
%ADD12P,1.869504X8X202.500000*%
%ADD13P,1.869504X8X22.500000*%
%ADD14C,0.959600*%


D10*
X20000Y430000D03*
X330000Y430000D03*
X330000Y20000D03*
X20000Y20000D03*
D11*
X225260Y373230D03*
X225260Y347830D03*
X225260Y322530D03*
X301460Y373230D03*
X301460Y347830D03*
X301460Y322530D03*
D12*
X289300Y48100D03*
X263900Y48100D03*
X238500Y48100D03*
X213100Y48100D03*
X187700Y48100D03*
X162300Y48100D03*
X136900Y48100D03*
X111500Y48100D03*
X86100Y48100D03*
X60700Y48100D03*
X289300Y73500D03*
X263900Y73500D03*
X238500Y73500D03*
X213100Y73500D03*
X187700Y73500D03*
X162300Y73500D03*
X136900Y73500D03*
X111500Y73500D03*
X86100Y73500D03*
X60700Y73500D03*
D13*
X60960Y411900D03*
X86360Y411900D03*
X111760Y411900D03*
X137160Y411900D03*
X162560Y411900D03*
X187960Y411900D03*
X60960Y386500D03*
X86360Y386500D03*
X111760Y386500D03*
X137160Y386500D03*
X162560Y386500D03*
X187960Y386500D03*
D14*
X69850Y178816D03*
X271018Y128524D03*
X61468Y162052D03*
X162052Y131318D03*
X167640Y290576D03*
X131318Y251460D03*
X86614Y136906D03*
X108966Y150876D03*
X114554Y234696D03*
X125730Y284988D03*
X125730Y366014D03*
X128524Y167640D03*
X100584Y259842D03*
X120142Y176022D03*
X150876Y156464D03*
X159258Y97790D03*
X120142Y192786D03*
X97790Y134112D03*
X262636Y117348D03*
M02*
